<?xml version="1.0" encoding="utf-8" standalone="no"?>
<!DOCTYPE svg PUBLIC "-//W3C//DTD SVG 1.1//EN"
  "http://www.w3.org/Graphics/SVG/1.1/DTD/svg11.dtd">
<svg xmlns:xlink="http://www.w3.org/1999/xlink" width="1152pt" height="576pt" viewBox="0 0 1152 576" xmlns="http://www.w3.org/2000/svg" version="1.1">
 <metadata>
  <rdf:RDF xmlns:dc="http://purl.org/dc/elements/1.1/" xmlns:cc="http://creativecommons.org/ns#" xmlns:rdf="http://www.w3.org/1999/02/22-rdf-syntax-ns#">
   <cc:Work>
    <dc:type rdf:resource="http://purl.org/dc/dcmitype/StillImage"/>
    <dc:date>2024-10-22T20:19:49.155422</dc:date>
    <dc:format>image/svg+xml</dc:format>
    <dc:creator>
     <cc:Agent>
      <dc:title>Matplotlib v3.9.2, https://matplotlib.org/</dc:title>
     </cc:Agent>
    </dc:creator>
   </cc:Work>
  </rdf:RDF>
 </metadata>
 <defs>
  <style type="text/css">*{stroke-linejoin: round; stroke-linecap: butt}</style>
 </defs>
 <g id="figure_1">
  <g id="patch_1">
   <path d="M 0 576 
L 1152 576 
L 1152 0 
L 0 0 
z
" style="fill: #ffffff"/>
  </g>
  <g id="axes_1">
   <g id="patch_2">
    <path d="M 67.52 490.552 
L 1141.2 490.552 
L 1141.2 15.121593 
L 67.52 15.121593 
z
" style="fill: #ffffff"/>
   </g>
   <g id="PolyCollection_1">
    <defs>
     <path id="mc6bf2d23a3" d="M 116.323636 -113.901764 
L 116.323636 -109.198452 
L 137.091141 -107.058473 
L 157.858646 -113.845544 
L 178.626151 -115.303402 
L 199.393656 -112.063804 
L 220.161161 -121.84849 
L 240.928665 -125.401147 
L 261.69617 -127.735767 
L 282.463675 -132.043568 
L 303.23118 -134.23482 
L 323.998685 -140.72098 
L 344.76619 -142.470584 
L 365.533694 -151.879469 
L 386.301199 -154.871409 
L 407.068704 -161.073996 
L 427.836209 -157.927392 
L 448.603714 -164.649891 
L 469.371219 -167.447525 
L 490.138723 -172.749725 
L 510.906228 -174.002596 
L 531.673733 -173.392894 
L 552.441238 -182.365074 
L 573.208743 -183.22379 
L 593.976248 -179.205786 
L 614.743752 -181.342116 
L 635.511257 -185.358867 
L 656.278762 -183.702467 
L 677.046267 -188.32473 
L 697.813772 -202.816348 
L 718.581277 -209.787661 
L 739.348781 -214.394533 
L 760.116286 -217.556035 
L 780.883791 -231.926252 
L 801.651296 -225.768588 
L 822.418801 -224.252036 
L 843.186306 -224.279797 
L 863.95381 -222.196878 
L 884.721315 -249.063842 
L 905.48882 -249.394059 
L 926.256325 -283.177438 
L 947.02383 -263.291187 
L 967.791335 -267.002628 
L 988.558839 -266.626639 
L 1009.326344 -283.168898 
L 1030.093849 -290.334045 
L 1050.861354 -308.102051 
L 1071.628859 -294.098485 
L 1092.396364 -284.605231 
L 1092.396364 -380.79065 
L 1092.396364 -380.79065 
L 1071.628859 -459.384832 
L 1050.861354 -454.624849 
L 1030.093849 -329.529399 
L 1009.326344 -353.554108 
L 988.558839 -351.027884 
L 967.791335 -458.509977 
L 947.02383 -421.095996 
L 926.256325 -448.647171 
L 905.48882 -356.200075 
L 884.721315 -358.402969 
L 863.95381 -354.063449 
L 843.186306 -351.495972 
L 822.418801 -346.616038 
L 801.651296 -358.325991 
L 780.883791 -325.988334 
L 760.116286 -266.536946 
L 739.348781 -267.761979 
L 718.581277 -255.953432 
L 697.813772 -235.770281 
L 677.046267 -223.046362 
L 656.278762 -220.048105 
L 635.511257 -215.486894 
L 614.743752 -213.973957 
L 593.976248 -212.572208 
L 573.208743 -218.762545 
L 552.441238 -208.285128 
L 531.673733 -195.722579 
L 510.906228 -200.88288 
L 490.138723 -201.411786 
L 469.371219 -190.084426 
L 448.603714 -182.861548 
L 427.836209 -192.23325 
L 407.068704 -183.930146 
L 386.301199 -172.700106 
L 365.533694 -161.57071 
L 344.76619 -154.653135 
L 323.998685 -150.316467 
L 303.23118 -143.681032 
L 282.463675 -151.442513 
L 261.69617 -144.793085 
L 240.928665 -139.277321 
L 220.161161 -140.118285 
L 199.393656 -132.649989 
L 178.626151 -129.358557 
L 157.858646 -126.841306 
L 137.091141 -112.870362 
L 116.323636 -113.901764 
z
" style="stroke: #1f77b4; stroke-opacity: 0.2"/>
    </defs>
    <g clip-path="url(#p80f693a80b)">
     <use xlink:href="#mc6bf2d23a3" x="0" y="576" style="fill: #1f77b4; fill-opacity: 0.2; stroke: #1f77b4; stroke-opacity: 0.2"/>
    </g>
   </g>
   <g id="PolyCollection_2">
    <defs>
     <path id="m5c7bbed8d1" d="M 116.323636 -113.851729 
L 116.323636 -108.666227 
L 137.091141 -111.637175 
L 157.858646 -113.96885 
L 178.626151 -115.971658 
L 199.393656 -119.102581 
L 220.161161 -124.042697 
L 240.928665 -131.323142 
L 261.69617 -134.574269 
L 282.463675 -137.106765 
L 303.23118 -135.210957 
L 323.998685 -141.205015 
L 344.76619 -149.995606 
L 365.533694 -158.187165 
L 386.301199 -160.359981 
L 407.068704 -161.129534 
L 427.836209 -159.588779 
L 448.603714 -165.156685 
L 469.371219 -170.801465 
L 490.138723 -172.031873 
L 510.906228 -177.525655 
L 531.673733 -183.07358 
L 552.441238 -184.860259 
L 573.208743 -187.674691 
L 593.976248 -184.054737 
L 614.743752 -186.134661 
L 635.511257 -186.670045 
L 656.278762 -185.240699 
L 677.046267 -194.264988 
L 697.813772 -208.318701 
L 718.581277 -219.233922 
L 739.348781 -227.560357 
L 760.116286 -229.35118 
L 780.883791 -236.795677 
L 801.651296 -235.610972 
L 822.418801 -228.129815 
L 843.186306 -231.969288 
L 863.95381 -235.61075 
L 884.721315 -258.123951 
L 905.48882 -269.386947 
L 926.256325 -324.238375 
L 947.02383 -303.360716 
L 967.791335 -296.635188 
L 988.558839 -290.382613 
L 1009.326344 -307.91677 
L 1030.093849 -320.96461 
L 1050.861354 -349.059439 
L 1071.628859 -340.049547 
L 1092.396364 -333.528182 
L 1092.396364 -448.003396 
L 1092.396364 -448.003396 
L 1071.628859 -485.724912 
L 1050.861354 -488.608078 
L 1030.093849 -378.14838 
L 1009.326344 -386.758982 
L 988.558839 -380.854065 
L 967.791335 -477.261104 
L 947.02383 -437.100896 
L 926.256325 -455.214961 
L 905.48882 -381.038344 
L 884.721315 -360.793937 
L 863.95381 -349.379246 
L 843.186306 -350.640189 
L 822.418801 -345.286129 
L 801.651296 -346.991633 
L 780.883791 -347.450974 
L 760.116286 -284.541011 
L 739.348781 -296.030821 
L 718.581277 -271.856319 
L 697.813772 -239.180644 
L 677.046267 -229.672871 
L 656.278762 -229.030914 
L 635.511257 -221.988665 
L 614.743752 -225.352562 
L 593.976248 -223.730225 
L 573.208743 -229.374048 
L 552.441238 -214.192494 
L 531.673733 -217.462284 
L 510.906228 -211.936303 
L 490.138723 -202.141084 
L 469.371219 -188.219382 
L 448.603714 -185.923805 
L 427.836209 -182.25851 
L 407.068704 -179.377354 
L 386.301199 -178.998303 
L 365.533694 -169.69441 
L 344.76619 -163.639467 
L 323.998685 -152.746206 
L 303.23118 -145.260779 
L 282.463675 -150.62747 
L 261.69617 -147.989146 
L 240.928665 -141.510884 
L 220.161161 -139.883028 
L 199.393656 -136.937007 
L 178.626151 -129.759709 
L 157.858646 -129.105302 
L 137.091141 -115.823547 
L 116.323636 -113.851729 
z
" style="stroke: #ff7f0e; stroke-opacity: 0.2"/>
    </defs>
    <g clip-path="url(#p80f693a80b)">
     <use xlink:href="#m5c7bbed8d1" x="0" y="576" style="fill: #ff7f0e; fill-opacity: 0.2; stroke: #ff7f0e; stroke-opacity: 0.2"/>
    </g>
   </g>
   <g id="PolyCollection_3">
    <defs>
     <path id="m84793dd70f" d="M 116.323636 -130.423599 
L 116.323636 -124.636644 
L 137.091141 -124.844944 
L 157.858646 -128.202491 
L 178.626151 -130.251024 
L 199.393656 -139.914179 
L 220.161161 -141.590165 
L 240.928665 -149.678061 
L 261.69617 -152.14674 
L 282.463675 -156.434932 
L 303.23118 -157.254796 
L 323.998685 -157.553991 
L 344.76619 -165.803219 
L 365.533694 -169.271882 
L 386.301199 -171.36148 
L 407.068704 -174.787041 
L 427.836209 -179.761695 
L 448.603714 -180.18057 
L 469.371219 -186.22365 
L 490.138723 -188.757832 
L 510.906228 -187.705511 
L 531.673733 -196.550148 
L 552.441238 -202.905835 
L 573.208743 -201.934461 
L 593.976248 -198.695307 
L 614.743752 -207.099151 
L 635.511257 -198.603968 
L 656.278762 -202.641932 
L 677.046267 -202.471187 
L 697.813772 -208.795054 
L 718.581277 -224.311725 
L 739.348781 -227.747493 
L 760.116286 -226.716668 
L 780.883791 -240.654945 
L 801.651296 -240.863682 
L 822.418801 -235.401868 
L 843.186306 -235.848281 
L 863.95381 -235.291078 
L 884.721315 -234.847622 
L 905.48882 -252.053106 
L 926.256325 -285.191708 
L 947.02383 -280.30137 
L 967.791335 -276.220986 
L 988.558839 -258.870241 
L 1009.326344 -283.125032 
L 1030.093849 -285.133336 
L 1050.861354 -313.524109 
L 1071.628859 -300.68256 
L 1092.396364 -293.483954 
L 1092.396364 -384.856832 
L 1092.396364 -384.856832 
L 1071.628859 -416.064667 
L 1050.861354 -416.944423 
L 1030.093849 -334.537908 
L 1009.326344 -370.1082 
L 988.558839 -361.294358 
L 967.791335 -411.101756 
L 947.02383 -384.784368 
L 926.256325 -399.955441 
L 905.48882 -352.470664 
L 884.721315 -324.549612 
L 863.95381 -316.292168 
L 843.186306 -312.398394 
L 822.418801 -309.659051 
L 801.651296 -308.899946 
L 780.883791 -310.68625 
L 760.116286 -275.044782 
L 739.348781 -275.156365 
L 718.581277 -272.398638 
L 697.813772 -237.071981 
L 677.046267 -241.833846 
L 656.278762 -242.99907 
L 635.511257 -241.564703 
L 614.743752 -241.124823 
L 593.976248 -237.106183 
L 573.208743 -248.977403 
L 552.441238 -237.887035 
L 531.673733 -235.164603 
L 510.906228 -226.990237 
L 490.138723 -213.610583 
L 469.371219 -215.737601 
L 448.603714 -214.02522 
L 427.836209 -212.951123 
L 407.068704 -197.787438 
L 386.301199 -198.244278 
L 365.533694 -181.227373 
L 344.76619 -178.469499 
L 323.998685 -170.184794 
L 303.23118 -163.009212 
L 282.463675 -171.706717 
L 261.69617 -170.575383 
L 240.928665 -155.935303 
L 220.161161 -156.839235 
L 199.393656 -155.188777 
L 178.626151 -151.833449 
L 157.858646 -142.458342 
L 137.091141 -130.403017 
L 116.323636 -130.423599 
z
" style="stroke: #2ca02c; stroke-opacity: 0.2"/>
    </defs>
    <g clip-path="url(#p80f693a80b)">
     <use xlink:href="#m84793dd70f" x="0" y="576" style="fill: #2ca02c; fill-opacity: 0.2; stroke: #2ca02c; stroke-opacity: 0.2"/>
    </g>
   </g>
   <g id="PolyCollection_4">
    <defs>
     <path id="m5bb4579e89" d="M 116.323636 -128.055417 
L 116.323636 -116.654185 
L 137.091141 -119.561474 
L 157.858646 -128.105107 
L 178.626151 -125.038805 
L 199.393656 -127.63955 
L 220.161161 -131.937116 
L 240.928665 -142.574166 
L 261.69617 -144.068067 
L 282.463675 -149.799828 
L 303.23118 -145.108975 
L 323.998685 -156.395034 
L 344.76619 -159.431627 
L 365.533694 -170.140485 
L 386.301199 -175.083242 
L 407.068704 -184.367923 
L 427.836209 -184.195003 
L 448.603714 -179.166748 
L 469.371219 -193.003868 
L 490.138723 -207.939462 
L 510.906228 -209.604406 
L 531.673733 -218.551708 
L 552.441238 -211.533861 
L 573.208743 -211.219112 
L 593.976248 -210.687003 
L 614.743752 -217.260344 
L 635.511257 -218.863381 
L 656.278762 -215.038626 
L 677.046267 -225.125538 
L 697.813772 -243.466954 
L 718.581277 -248.869375 
L 739.348781 -262.209228 
L 760.116286 -265.918728 
L 780.883791 -277.196942 
L 801.651296 -262.675609 
L 822.418801 -258.805392 
L 843.186306 -260.71726 
L 863.95381 -264.078914 
L 884.721315 -301.711809 
L 905.48882 -318.271458 
L 926.256325 -394.720755 
L 947.02383 -363.605786 
L 967.791335 -359.891662 
L 988.558839 -337.767396 
L 1009.326344 -361.293926 
L 1030.093849 -375.356615 
L 1050.861354 -417.946714 
L 1071.628859 -386.080962 
L 1092.396364 -365.39139 
L 1092.396364 -512.122021 
L 1092.396364 -512.122021 
L 1071.628859 -535.696968 
L 1050.861354 -539.267934 
L 1030.093849 -457.185024 
L 1009.326344 -435.303062 
L 988.558839 -431.360187 
L 967.791335 -533.426937 
L 947.02383 -481.636111 
L 926.256325 -510.816555 
L 905.48882 -460.993702 
L 884.721315 -389.452141 
L 863.95381 -374.527005 
L 843.186306 -376.03753 
L 822.418801 -362.229198 
L 801.651296 -375.981904 
L 780.883791 -377.650121 
L 760.116286 -337.596824 
L 739.348781 -351.22613 
L 718.581277 -317.543011 
L 697.813772 -302.341209 
L 677.046267 -296.049057 
L 656.278762 -267.063399 
L 635.511257 -267.313486 
L 614.743752 -267.072213 
L 593.976248 -268.700164 
L 573.208743 -258.683125 
L 552.441238 -257.403488 
L 531.673733 -263.280144 
L 510.906228 -255.646951 
L 490.138723 -238.303994 
L 469.371219 -232.361272 
L 448.603714 -226.10876 
L 427.836209 -211.260769 
L 407.068704 -217.805519 
L 386.301199 -196.476964 
L 365.533694 -184.940776 
L 344.76619 -179.914401 
L 323.998685 -168.886005 
L 303.23118 -160.229313 
L 282.463675 -161.17193 
L 261.69617 -156.909331 
L 240.928665 -154.536473 
L 220.161161 -150.578801 
L 199.393656 -146.846762 
L 178.626151 -141.875388 
L 157.858646 -139.086945 
L 137.091141 -123.49901 
L 116.323636 -128.055417 
z
" style="stroke: #d62728; stroke-opacity: 0.2"/>
    </defs>
    <g clip-path="url(#p80f693a80b)">
     <use xlink:href="#m5bb4579e89" x="0" y="576" style="fill: #d62728; fill-opacity: 0.2; stroke: #d62728; stroke-opacity: 0.2"/>
    </g>
   </g>
   <g id="matplotlib.axis_1">
    <g id="xtick_1">
     <g id="line2d_1">
      <defs>
       <path id="m0e060aa77b" d="M 0 0 
L 0 3.5 
" style="stroke: #000000; stroke-width: 0.8"/>
      </defs>
      <g>
       <use xlink:href="#m0e060aa77b" x="105.939884" y="490.552" style="stroke: #000000; stroke-width: 0.8"/>
      </g>
     </g>
     <g id="text_1">
      <!-- 0 -->
      <g transform="translate(99.577384 512.748875) scale(0.2 -0.2)">
       <defs>
        <path id="DejaVuSans-30" d="M 2034 4250 
Q 1547 4250 1301 3770 
Q 1056 3291 1056 2328 
Q 1056 1369 1301 889 
Q 1547 409 2034 409 
Q 2525 409 2770 889 
Q 3016 1369 3016 2328 
Q 3016 3291 2770 3770 
Q 2525 4250 2034 4250 
z
M 2034 4750 
Q 2819 4750 3233 4129 
Q 3647 3509 3647 2328 
Q 3647 1150 3233 529 
Q 2819 -91 2034 -91 
Q 1250 -91 836 529 
Q 422 1150 422 2328 
Q 422 3509 836 4129 
Q 1250 4750 2034 4750 
z
" transform="scale(0.015625)"/>
       </defs>
       <use xlink:href="#DejaVuSans-30"/>
      </g>
     </g>
    </g>
    <g id="xtick_2">
     <g id="line2d_2">
      <g>
       <use xlink:href="#m0e060aa77b" x="313.614932" y="490.552" style="stroke: #000000; stroke-width: 0.8"/>
      </g>
     </g>
     <g id="text_2">
      <!-- 20 -->
      <g transform="translate(300.889932 512.748875) scale(0.2 -0.2)">
       <defs>
        <path id="DejaVuSans-32" d="M 1228 531 
L 3431 531 
L 3431 0 
L 469 0 
L 469 531 
Q 828 903 1448 1529 
Q 2069 2156 2228 2338 
Q 2531 2678 2651 2914 
Q 2772 3150 2772 3378 
Q 2772 3750 2511 3984 
Q 2250 4219 1831 4219 
Q 1534 4219 1204 4116 
Q 875 4013 500 3803 
L 500 4441 
Q 881 4594 1212 4672 
Q 1544 4750 1819 4750 
Q 2544 4750 2975 4387 
Q 3406 4025 3406 3419 
Q 3406 3131 3298 2873 
Q 3191 2616 2906 2266 
Q 2828 2175 2409 1742 
Q 1991 1309 1228 531 
z
" transform="scale(0.015625)"/>
       </defs>
       <use xlink:href="#DejaVuSans-32"/>
       <use xlink:href="#DejaVuSans-30" x="63.623047"/>
      </g>
     </g>
    </g>
    <g id="xtick_3">
     <g id="line2d_3">
      <g>
       <use xlink:href="#m0e060aa77b" x="521.289981" y="490.552" style="stroke: #000000; stroke-width: 0.8"/>
      </g>
     </g>
     <g id="text_3">
      <!-- 40 -->
      <g transform="translate(508.564981 512.748875) scale(0.2 -0.2)">
       <defs>
        <path id="DejaVuSans-34" d="M 2419 4116 
L 825 1625 
L 2419 1625 
L 2419 4116 
z
M 2253 4666 
L 3047 4666 
L 3047 1625 
L 3713 1625 
L 3713 1100 
L 3047 1100 
L 3047 0 
L 2419 0 
L 2419 1100 
L 313 1100 
L 313 1709 
L 2253 4666 
z
" transform="scale(0.015625)"/>
       </defs>
       <use xlink:href="#DejaVuSans-34"/>
       <use xlink:href="#DejaVuSans-30" x="63.623047"/>
      </g>
     </g>
    </g>
    <g id="xtick_4">
     <g id="line2d_4">
      <g>
       <use xlink:href="#m0e060aa77b" x="728.965029" y="490.552" style="stroke: #000000; stroke-width: 0.8"/>
      </g>
     </g>
     <g id="text_4">
      <!-- 60 -->
      <g transform="translate(716.240029 512.748875) scale(0.2 -0.2)">
       <defs>
        <path id="DejaVuSans-36" d="M 2113 2584 
Q 1688 2584 1439 2293 
Q 1191 2003 1191 1497 
Q 1191 994 1439 701 
Q 1688 409 2113 409 
Q 2538 409 2786 701 
Q 3034 994 3034 1497 
Q 3034 2003 2786 2293 
Q 2538 2584 2113 2584 
z
M 3366 4563 
L 3366 3988 
Q 3128 4100 2886 4159 
Q 2644 4219 2406 4219 
Q 1781 4219 1451 3797 
Q 1122 3375 1075 2522 
Q 1259 2794 1537 2939 
Q 1816 3084 2150 3084 
Q 2853 3084 3261 2657 
Q 3669 2231 3669 1497 
Q 3669 778 3244 343 
Q 2819 -91 2113 -91 
Q 1303 -91 875 529 
Q 447 1150 447 2328 
Q 447 3434 972 4092 
Q 1497 4750 2381 4750 
Q 2619 4750 2861 4703 
Q 3103 4656 3366 4563 
z
" transform="scale(0.015625)"/>
       </defs>
       <use xlink:href="#DejaVuSans-36"/>
       <use xlink:href="#DejaVuSans-30" x="63.623047"/>
      </g>
     </g>
    </g>
    <g id="xtick_5">
     <g id="line2d_5">
      <g>
       <use xlink:href="#m0e060aa77b" x="936.640077" y="490.552" style="stroke: #000000; stroke-width: 0.8"/>
      </g>
     </g>
     <g id="text_5">
      <!-- 80 -->
      <g transform="translate(923.915077 512.748875) scale(0.2 -0.2)">
       <defs>
        <path id="DejaVuSans-38" d="M 2034 2216 
Q 1584 2216 1326 1975 
Q 1069 1734 1069 1313 
Q 1069 891 1326 650 
Q 1584 409 2034 409 
Q 2484 409 2743 651 
Q 3003 894 3003 1313 
Q 3003 1734 2745 1975 
Q 2488 2216 2034 2216 
z
M 1403 2484 
Q 997 2584 770 2862 
Q 544 3141 544 3541 
Q 544 4100 942 4425 
Q 1341 4750 2034 4750 
Q 2731 4750 3128 4425 
Q 3525 4100 3525 3541 
Q 3525 3141 3298 2862 
Q 3072 2584 2669 2484 
Q 3125 2378 3379 2068 
Q 3634 1759 3634 1313 
Q 3634 634 3220 271 
Q 2806 -91 2034 -91 
Q 1263 -91 848 271 
Q 434 634 434 1313 
Q 434 1759 690 2068 
Q 947 2378 1403 2484 
z
M 1172 3481 
Q 1172 3119 1398 2916 
Q 1625 2713 2034 2713 
Q 2441 2713 2670 2916 
Q 2900 3119 2900 3481 
Q 2900 3844 2670 4047 
Q 2441 4250 2034 4250 
Q 1625 4250 1398 4047 
Q 1172 3844 1172 3481 
z
" transform="scale(0.015625)"/>
       </defs>
       <use xlink:href="#DejaVuSans-38"/>
       <use xlink:href="#DejaVuSans-30" x="63.623047"/>
      </g>
     </g>
    </g>
    <g id="text_6">
     <!-- Percentile Threshold -->
     <g transform="translate(502.580312 536.105125) scale(0.2 -0.2)">
      <defs>
       <path id="DejaVuSans-50" d="M 1259 4147 
L 1259 2394 
L 2053 2394 
Q 2494 2394 2734 2622 
Q 2975 2850 2975 3272 
Q 2975 3691 2734 3919 
Q 2494 4147 2053 4147 
L 1259 4147 
z
M 628 4666 
L 2053 4666 
Q 2838 4666 3239 4311 
Q 3641 3956 3641 3272 
Q 3641 2581 3239 2228 
Q 2838 1875 2053 1875 
L 1259 1875 
L 1259 0 
L 628 0 
L 628 4666 
z
" transform="scale(0.015625)"/>
       <path id="DejaVuSans-65" d="M 3597 1894 
L 3597 1613 
L 953 1613 
Q 991 1019 1311 708 
Q 1631 397 2203 397 
Q 2534 397 2845 478 
Q 3156 559 3463 722 
L 3463 178 
Q 3153 47 2828 -22 
Q 2503 -91 2169 -91 
Q 1331 -91 842 396 
Q 353 884 353 1716 
Q 353 2575 817 3079 
Q 1281 3584 2069 3584 
Q 2775 3584 3186 3129 
Q 3597 2675 3597 1894 
z
M 3022 2063 
Q 3016 2534 2758 2815 
Q 2500 3097 2075 3097 
Q 1594 3097 1305 2825 
Q 1016 2553 972 2059 
L 3022 2063 
z
" transform="scale(0.015625)"/>
       <path id="DejaVuSans-72" d="M 2631 2963 
Q 2534 3019 2420 3045 
Q 2306 3072 2169 3072 
Q 1681 3072 1420 2755 
Q 1159 2438 1159 1844 
L 1159 0 
L 581 0 
L 581 3500 
L 1159 3500 
L 1159 2956 
Q 1341 3275 1631 3429 
Q 1922 3584 2338 3584 
Q 2397 3584 2469 3576 
Q 2541 3569 2628 3553 
L 2631 2963 
z
" transform="scale(0.015625)"/>
       <path id="DejaVuSans-63" d="M 3122 3366 
L 3122 2828 
Q 2878 2963 2633 3030 
Q 2388 3097 2138 3097 
Q 1578 3097 1268 2742 
Q 959 2388 959 1747 
Q 959 1106 1268 751 
Q 1578 397 2138 397 
Q 2388 397 2633 464 
Q 2878 531 3122 666 
L 3122 134 
Q 2881 22 2623 -34 
Q 2366 -91 2075 -91 
Q 1284 -91 818 406 
Q 353 903 353 1747 
Q 353 2603 823 3093 
Q 1294 3584 2113 3584 
Q 2378 3584 2631 3529 
Q 2884 3475 3122 3366 
z
" transform="scale(0.015625)"/>
       <path id="DejaVuSans-6e" d="M 3513 2113 
L 3513 0 
L 2938 0 
L 2938 2094 
Q 2938 2591 2744 2837 
Q 2550 3084 2163 3084 
Q 1697 3084 1428 2787 
Q 1159 2491 1159 1978 
L 1159 0 
L 581 0 
L 581 3500 
L 1159 3500 
L 1159 2956 
Q 1366 3272 1645 3428 
Q 1925 3584 2291 3584 
Q 2894 3584 3203 3211 
Q 3513 2838 3513 2113 
z
" transform="scale(0.015625)"/>
       <path id="DejaVuSans-74" d="M 1172 4494 
L 1172 3500 
L 2356 3500 
L 2356 3053 
L 1172 3053 
L 1172 1153 
Q 1172 725 1289 603 
Q 1406 481 1766 481 
L 2356 481 
L 2356 0 
L 1766 0 
Q 1100 0 847 248 
Q 594 497 594 1153 
L 594 3053 
L 172 3053 
L 172 3500 
L 594 3500 
L 594 4494 
L 1172 4494 
z
" transform="scale(0.015625)"/>
       <path id="DejaVuSans-69" d="M 603 3500 
L 1178 3500 
L 1178 0 
L 603 0 
L 603 3500 
z
M 603 4863 
L 1178 4863 
L 1178 4134 
L 603 4134 
L 603 4863 
z
" transform="scale(0.015625)"/>
       <path id="DejaVuSans-6c" d="M 603 4863 
L 1178 4863 
L 1178 0 
L 603 0 
L 603 4863 
z
" transform="scale(0.015625)"/>
       <path id="DejaVuSans-20" transform="scale(0.015625)"/>
       <path id="DejaVuSans-54" d="M -19 4666 
L 3928 4666 
L 3928 4134 
L 2272 4134 
L 2272 0 
L 1638 0 
L 1638 4134 
L -19 4134 
L -19 4666 
z
" transform="scale(0.015625)"/>
       <path id="DejaVuSans-68" d="M 3513 2113 
L 3513 0 
L 2938 0 
L 2938 2094 
Q 2938 2591 2744 2837 
Q 2550 3084 2163 3084 
Q 1697 3084 1428 2787 
Q 1159 2491 1159 1978 
L 1159 0 
L 581 0 
L 581 4863 
L 1159 4863 
L 1159 2956 
Q 1366 3272 1645 3428 
Q 1925 3584 2291 3584 
Q 2894 3584 3203 3211 
Q 3513 2838 3513 2113 
z
" transform="scale(0.015625)"/>
       <path id="DejaVuSans-73" d="M 2834 3397 
L 2834 2853 
Q 2591 2978 2328 3040 
Q 2066 3103 1784 3103 
Q 1356 3103 1142 2972 
Q 928 2841 928 2578 
Q 928 2378 1081 2264 
Q 1234 2150 1697 2047 
L 1894 2003 
Q 2506 1872 2764 1633 
Q 3022 1394 3022 966 
Q 3022 478 2636 193 
Q 2250 -91 1575 -91 
Q 1294 -91 989 -36 
Q 684 19 347 128 
L 347 722 
Q 666 556 975 473 
Q 1284 391 1588 391 
Q 1994 391 2212 530 
Q 2431 669 2431 922 
Q 2431 1156 2273 1281 
Q 2116 1406 1581 1522 
L 1381 1569 
Q 847 1681 609 1914 
Q 372 2147 372 2553 
Q 372 3047 722 3315 
Q 1072 3584 1716 3584 
Q 2034 3584 2315 3537 
Q 2597 3491 2834 3397 
z
" transform="scale(0.015625)"/>
       <path id="DejaVuSans-6f" d="M 1959 3097 
Q 1497 3097 1228 2736 
Q 959 2375 959 1747 
Q 959 1119 1226 758 
Q 1494 397 1959 397 
Q 2419 397 2687 759 
Q 2956 1122 2956 1747 
Q 2956 2369 2687 2733 
Q 2419 3097 1959 3097 
z
M 1959 3584 
Q 2709 3584 3137 3096 
Q 3566 2609 3566 1747 
Q 3566 888 3137 398 
Q 2709 -91 1959 -91 
Q 1206 -91 779 398 
Q 353 888 353 1747 
Q 353 2609 779 3096 
Q 1206 3584 1959 3584 
z
" transform="scale(0.015625)"/>
       <path id="DejaVuSans-64" d="M 2906 2969 
L 2906 4863 
L 3481 4863 
L 3481 0 
L 2906 0 
L 2906 525 
Q 2725 213 2448 61 
Q 2172 -91 1784 -91 
Q 1150 -91 751 415 
Q 353 922 353 1747 
Q 353 2572 751 3078 
Q 1150 3584 1784 3584 
Q 2172 3584 2448 3432 
Q 2725 3281 2906 2969 
z
M 947 1747 
Q 947 1113 1208 752 
Q 1469 391 1925 391 
Q 2381 391 2643 752 
Q 2906 1113 2906 1747 
Q 2906 2381 2643 2742 
Q 2381 3103 1925 3103 
Q 1469 3103 1208 2742 
Q 947 2381 947 1747 
z
" transform="scale(0.015625)"/>
      </defs>
      <use xlink:href="#DejaVuSans-50"/>
      <use xlink:href="#DejaVuSans-65" x="56.677734"/>
      <use xlink:href="#DejaVuSans-72" x="118.201172"/>
      <use xlink:href="#DejaVuSans-63" x="157.064453"/>
      <use xlink:href="#DejaVuSans-65" x="212.044922"/>
      <use xlink:href="#DejaVuSans-6e" x="273.568359"/>
      <use xlink:href="#DejaVuSans-74" x="336.947266"/>
      <use xlink:href="#DejaVuSans-69" x="376.15625"/>
      <use xlink:href="#DejaVuSans-6c" x="403.939453"/>
      <use xlink:href="#DejaVuSans-65" x="431.722656"/>
      <use xlink:href="#DejaVuSans-20" x="493.246094"/>
      <use xlink:href="#DejaVuSans-54" x="525.033203"/>
      <use xlink:href="#DejaVuSans-68" x="586.117188"/>
      <use xlink:href="#DejaVuSans-72" x="649.496094"/>
      <use xlink:href="#DejaVuSans-65" x="688.359375"/>
      <use xlink:href="#DejaVuSans-73" x="749.882812"/>
      <use xlink:href="#DejaVuSans-68" x="801.982422"/>
      <use xlink:href="#DejaVuSans-6f" x="865.361328"/>
      <use xlink:href="#DejaVuSans-6c" x="926.542969"/>
      <use xlink:href="#DejaVuSans-64" x="954.326172"/>
     </g>
     <!-- (Using "merge" Threshold Handling) -->
     <g transform="translate(423.645938 558.50075) scale(0.2 -0.2)">
      <defs>
       <path id="DejaVuSans-28" d="M 1984 4856 
Q 1566 4138 1362 3434 
Q 1159 2731 1159 2009 
Q 1159 1288 1364 580 
Q 1569 -128 1984 -844 
L 1484 -844 
Q 1016 -109 783 600 
Q 550 1309 550 2009 
Q 550 2706 781 3412 
Q 1013 4119 1484 4856 
L 1984 4856 
z
" transform="scale(0.015625)"/>
       <path id="DejaVuSans-55" d="M 556 4666 
L 1191 4666 
L 1191 1831 
Q 1191 1081 1462 751 
Q 1734 422 2344 422 
Q 2950 422 3222 751 
Q 3494 1081 3494 1831 
L 3494 4666 
L 4128 4666 
L 4128 1753 
Q 4128 841 3676 375 
Q 3225 -91 2344 -91 
Q 1459 -91 1007 375 
Q 556 841 556 1753 
L 556 4666 
z
" transform="scale(0.015625)"/>
       <path id="DejaVuSans-67" d="M 2906 1791 
Q 2906 2416 2648 2759 
Q 2391 3103 1925 3103 
Q 1463 3103 1205 2759 
Q 947 2416 947 1791 
Q 947 1169 1205 825 
Q 1463 481 1925 481 
Q 2391 481 2648 825 
Q 2906 1169 2906 1791 
z
M 3481 434 
Q 3481 -459 3084 -895 
Q 2688 -1331 1869 -1331 
Q 1566 -1331 1297 -1286 
Q 1028 -1241 775 -1147 
L 775 -588 
Q 1028 -725 1275 -790 
Q 1522 -856 1778 -856 
Q 2344 -856 2625 -561 
Q 2906 -266 2906 331 
L 2906 616 
Q 2728 306 2450 153 
Q 2172 0 1784 0 
Q 1141 0 747 490 
Q 353 981 353 1791 
Q 353 2603 747 3093 
Q 1141 3584 1784 3584 
Q 2172 3584 2450 3431 
Q 2728 3278 2906 2969 
L 2906 3500 
L 3481 3500 
L 3481 434 
z
" transform="scale(0.015625)"/>
       <path id="DejaVuSans-22" d="M 1147 4666 
L 1147 2931 
L 616 2931 
L 616 4666 
L 1147 4666 
z
M 2328 4666 
L 2328 2931 
L 1797 2931 
L 1797 4666 
L 2328 4666 
z
" transform="scale(0.015625)"/>
       <path id="DejaVuSans-6d" d="M 3328 2828 
Q 3544 3216 3844 3400 
Q 4144 3584 4550 3584 
Q 5097 3584 5394 3201 
Q 5691 2819 5691 2113 
L 5691 0 
L 5113 0 
L 5113 2094 
Q 5113 2597 4934 2840 
Q 4756 3084 4391 3084 
Q 3944 3084 3684 2787 
Q 3425 2491 3425 1978 
L 3425 0 
L 2847 0 
L 2847 2094 
Q 2847 2600 2669 2842 
Q 2491 3084 2119 3084 
Q 1678 3084 1418 2786 
Q 1159 2488 1159 1978 
L 1159 0 
L 581 0 
L 581 3500 
L 1159 3500 
L 1159 2956 
Q 1356 3278 1631 3431 
Q 1906 3584 2284 3584 
Q 2666 3584 2933 3390 
Q 3200 3197 3328 2828 
z
" transform="scale(0.015625)"/>
       <path id="DejaVuSans-48" d="M 628 4666 
L 1259 4666 
L 1259 2753 
L 3553 2753 
L 3553 4666 
L 4184 4666 
L 4184 0 
L 3553 0 
L 3553 2222 
L 1259 2222 
L 1259 0 
L 628 0 
L 628 4666 
z
" transform="scale(0.015625)"/>
       <path id="DejaVuSans-61" d="M 2194 1759 
Q 1497 1759 1228 1600 
Q 959 1441 959 1056 
Q 959 750 1161 570 
Q 1363 391 1709 391 
Q 2188 391 2477 730 
Q 2766 1069 2766 1631 
L 2766 1759 
L 2194 1759 
z
M 3341 1997 
L 3341 0 
L 2766 0 
L 2766 531 
Q 2569 213 2275 61 
Q 1981 -91 1556 -91 
Q 1019 -91 701 211 
Q 384 513 384 1019 
Q 384 1609 779 1909 
Q 1175 2209 1959 2209 
L 2766 2209 
L 2766 2266 
Q 2766 2663 2505 2880 
Q 2244 3097 1772 3097 
Q 1472 3097 1187 3025 
Q 903 2953 641 2809 
L 641 3341 
Q 956 3463 1253 3523 
Q 1550 3584 1831 3584 
Q 2591 3584 2966 3190 
Q 3341 2797 3341 1997 
z
" transform="scale(0.015625)"/>
       <path id="DejaVuSans-29" d="M 513 4856 
L 1013 4856 
Q 1481 4119 1714 3412 
Q 1947 2706 1947 2009 
Q 1947 1309 1714 600 
Q 1481 -109 1013 -844 
L 513 -844 
Q 928 -128 1133 580 
Q 1338 1288 1338 2009 
Q 1338 2731 1133 3434 
Q 928 4138 513 4856 
z
" transform="scale(0.015625)"/>
      </defs>
      <use xlink:href="#DejaVuSans-28"/>
      <use xlink:href="#DejaVuSans-55" x="39.013672"/>
      <use xlink:href="#DejaVuSans-73" x="112.207031"/>
      <use xlink:href="#DejaVuSans-69" x="164.306641"/>
      <use xlink:href="#DejaVuSans-6e" x="192.089844"/>
      <use xlink:href="#DejaVuSans-67" x="255.46875"/>
      <use xlink:href="#DejaVuSans-20" x="318.945312"/>
      <use xlink:href="#DejaVuSans-22" x="350.732422"/>
      <use xlink:href="#DejaVuSans-6d" x="396.728516"/>
      <use xlink:href="#DejaVuSans-65" x="494.140625"/>
      <use xlink:href="#DejaVuSans-72" x="555.664062"/>
      <use xlink:href="#DejaVuSans-67" x="595.027344"/>
      <use xlink:href="#DejaVuSans-65" x="658.503906"/>
      <use xlink:href="#DejaVuSans-22" x="720.027344"/>
      <use xlink:href="#DejaVuSans-20" x="766.023438"/>
      <use xlink:href="#DejaVuSans-54" x="797.810547"/>
      <use xlink:href="#DejaVuSans-68" x="858.894531"/>
      <use xlink:href="#DejaVuSans-72" x="922.273438"/>
      <use xlink:href="#DejaVuSans-65" x="961.136719"/>
      <use xlink:href="#DejaVuSans-73" x="1022.660156"/>
      <use xlink:href="#DejaVuSans-68" x="1074.759766"/>
      <use xlink:href="#DejaVuSans-6f" x="1138.138672"/>
      <use xlink:href="#DejaVuSans-6c" x="1199.320312"/>
      <use xlink:href="#DejaVuSans-64" x="1227.103516"/>
      <use xlink:href="#DejaVuSans-20" x="1290.580078"/>
      <use xlink:href="#DejaVuSans-48" x="1322.367188"/>
      <use xlink:href="#DejaVuSans-61" x="1397.5625"/>
      <use xlink:href="#DejaVuSans-6e" x="1458.841797"/>
      <use xlink:href="#DejaVuSans-64" x="1522.220703"/>
      <use xlink:href="#DejaVuSans-6c" x="1585.697266"/>
      <use xlink:href="#DejaVuSans-69" x="1613.480469"/>
      <use xlink:href="#DejaVuSans-6e" x="1641.263672"/>
      <use xlink:href="#DejaVuSans-67" x="1704.642578"/>
      <use xlink:href="#DejaVuSans-29" x="1768.119141"/>
     </g>
    </g>
   </g>
   <g id="matplotlib.axis_2">
    <g id="ytick_1">
     <g id="line2d_6">
      <defs>
       <path id="m7ffc586290" d="M 0 0 
L -3.5 0 
" style="stroke: #000000; stroke-width: 0.8"/>
      </defs>
      <g>
       <use xlink:href="#m7ffc586290" x="67.52" y="448.916288" style="stroke: #000000; stroke-width: 0.8"/>
      </g>
     </g>
     <g id="text_7">
      <!-- 10 -->
      <g transform="translate(35.07 456.514725) scale(0.2 -0.2)">
       <defs>
        <path id="DejaVuSans-31" d="M 794 531 
L 1825 531 
L 1825 4091 
L 703 3866 
L 703 4441 
L 1819 4666 
L 2450 4666 
L 2450 531 
L 3481 531 
L 3481 0 
L 794 0 
L 794 531 
z
" transform="scale(0.015625)"/>
       </defs>
       <use xlink:href="#DejaVuSans-31"/>
       <use xlink:href="#DejaVuSans-30" x="63.623047"/>
      </g>
     </g>
    </g>
    <g id="ytick_2">
     <g id="line2d_7">
      <g>
       <use xlink:href="#m7ffc586290" x="67.52" y="387.496661" style="stroke: #000000; stroke-width: 0.8"/>
      </g>
     </g>
     <g id="text_8">
      <!-- 15 -->
      <g transform="translate(35.07 395.095098) scale(0.2 -0.2)">
       <defs>
        <path id="DejaVuSans-35" d="M 691 4666 
L 3169 4666 
L 3169 4134 
L 1269 4134 
L 1269 2991 
Q 1406 3038 1543 3061 
Q 1681 3084 1819 3084 
Q 2600 3084 3056 2656 
Q 3513 2228 3513 1497 
Q 3513 744 3044 326 
Q 2575 -91 1722 -91 
Q 1428 -91 1123 -41 
Q 819 9 494 109 
L 494 744 
Q 775 591 1075 516 
Q 1375 441 1709 441 
Q 2250 441 2565 725 
Q 2881 1009 2881 1497 
Q 2881 1984 2565 2268 
Q 2250 2553 1709 2553 
Q 1456 2553 1204 2497 
Q 953 2441 691 2322 
L 691 4666 
z
" transform="scale(0.015625)"/>
       </defs>
       <use xlink:href="#DejaVuSans-31"/>
       <use xlink:href="#DejaVuSans-35" x="63.623047"/>
      </g>
     </g>
    </g>
    <g id="ytick_3">
     <g id="line2d_8">
      <g>
       <use xlink:href="#m7ffc586290" x="67.52" y="326.077034" style="stroke: #000000; stroke-width: 0.8"/>
      </g>
     </g>
     <g id="text_9">
      <!-- 20 -->
      <g transform="translate(35.07 333.675471) scale(0.2 -0.2)">
       <use xlink:href="#DejaVuSans-32"/>
       <use xlink:href="#DejaVuSans-30" x="63.623047"/>
      </g>
     </g>
    </g>
    <g id="ytick_4">
     <g id="line2d_9">
      <g>
       <use xlink:href="#m7ffc586290" x="67.52" y="264.657407" style="stroke: #000000; stroke-width: 0.8"/>
      </g>
     </g>
     <g id="text_10">
      <!-- 25 -->
      <g transform="translate(35.07 272.255844) scale(0.2 -0.2)">
       <use xlink:href="#DejaVuSans-32"/>
       <use xlink:href="#DejaVuSans-35" x="63.623047"/>
      </g>
     </g>
    </g>
    <g id="ytick_5">
     <g id="line2d_10">
      <g>
       <use xlink:href="#m7ffc586290" x="67.52" y="203.23778" style="stroke: #000000; stroke-width: 0.8"/>
      </g>
     </g>
     <g id="text_11">
      <!-- 30 -->
      <g transform="translate(35.07 210.836217) scale(0.2 -0.2)">
       <defs>
        <path id="DejaVuSans-33" d="M 2597 2516 
Q 3050 2419 3304 2112 
Q 3559 1806 3559 1356 
Q 3559 666 3084 287 
Q 2609 -91 1734 -91 
Q 1441 -91 1130 -33 
Q 819 25 488 141 
L 488 750 
Q 750 597 1062 519 
Q 1375 441 1716 441 
Q 2309 441 2620 675 
Q 2931 909 2931 1356 
Q 2931 1769 2642 2001 
Q 2353 2234 1838 2234 
L 1294 2234 
L 1294 2753 
L 1863 2753 
Q 2328 2753 2575 2939 
Q 2822 3125 2822 3475 
Q 2822 3834 2567 4026 
Q 2313 4219 1838 4219 
Q 1578 4219 1281 4162 
Q 984 4106 628 3988 
L 628 4550 
Q 988 4650 1302 4700 
Q 1616 4750 1894 4750 
Q 2613 4750 3031 4423 
Q 3450 4097 3450 3541 
Q 3450 3153 3228 2886 
Q 3006 2619 2597 2516 
z
" transform="scale(0.015625)"/>
       </defs>
       <use xlink:href="#DejaVuSans-33"/>
       <use xlink:href="#DejaVuSans-30" x="63.623047"/>
      </g>
     </g>
    </g>
    <g id="ytick_6">
     <g id="line2d_11">
      <g>
       <use xlink:href="#m7ffc586290" x="67.52" y="141.818153" style="stroke: #000000; stroke-width: 0.8"/>
      </g>
     </g>
     <g id="text_12">
      <!-- 35 -->
      <g transform="translate(35.07 149.41659) scale(0.2 -0.2)">
       <use xlink:href="#DejaVuSans-33"/>
       <use xlink:href="#DejaVuSans-35" x="63.623047"/>
      </g>
     </g>
    </g>
    <g id="ytick_7">
     <g id="line2d_12">
      <g>
       <use xlink:href="#m7ffc586290" x="67.52" y="80.398526" style="stroke: #000000; stroke-width: 0.8"/>
      </g>
     </g>
     <g id="text_13">
      <!-- 40 -->
      <g transform="translate(35.07 87.996963) scale(0.2 -0.2)">
       <use xlink:href="#DejaVuSans-34"/>
       <use xlink:href="#DejaVuSans-30" x="63.623047"/>
      </g>
     </g>
    </g>
    <g id="ytick_8">
     <g id="line2d_13">
      <g>
       <use xlink:href="#m7ffc586290" x="67.52" y="18.978898" style="stroke: #000000; stroke-width: 0.8"/>
      </g>
     </g>
     <g id="text_14">
      <!-- 45 -->
      <g transform="translate(35.07 26.577336) scale(0.2 -0.2)">
       <use xlink:href="#DejaVuSans-34"/>
       <use xlink:href="#DejaVuSans-35" x="63.623047"/>
      </g>
     </g>
    </g>
    <g id="text_15">
     <!-- MAE -->
     <g transform="translate(26.910625 274.624296) rotate(-90) scale(0.2 -0.2)">
      <defs>
       <path id="DejaVuSans-4d" d="M 628 4666 
L 1569 4666 
L 2759 1491 
L 3956 4666 
L 4897 4666 
L 4897 0 
L 4281 0 
L 4281 4097 
L 3078 897 
L 2444 897 
L 1241 4097 
L 1241 0 
L 628 0 
L 628 4666 
z
" transform="scale(0.015625)"/>
       <path id="DejaVuSans-41" d="M 2188 4044 
L 1331 1722 
L 3047 1722 
L 2188 4044 
z
M 1831 4666 
L 2547 4666 
L 4325 0 
L 3669 0 
L 3244 1197 
L 1141 1197 
L 716 0 
L 50 0 
L 1831 4666 
z
" transform="scale(0.015625)"/>
       <path id="DejaVuSans-45" d="M 628 4666 
L 3578 4666 
L 3578 4134 
L 1259 4134 
L 1259 2753 
L 3481 2753 
L 3481 2222 
L 1259 2222 
L 1259 531 
L 3634 531 
L 3634 0 
L 628 0 
L 628 4666 
z
" transform="scale(0.015625)"/>
      </defs>
      <use xlink:href="#DejaVuSans-4d"/>
      <use xlink:href="#DejaVuSans-41" x="86.279297"/>
      <use xlink:href="#DejaVuSans-45" x="154.6875"/>
     </g>
    </g>
   </g>
   <g id="line2d_14">
    <path d="M 116.323636 464.276476 
L 137.091141 465.872532 
L 157.858646 455.85209 
L 178.626151 454.595737 
L 199.393656 454.389319 
L 220.161161 445.989792 
L 240.928665 444.025315 
L 261.69617 440.987633 
L 282.463675 434.984527 
L 303.23118 437.64118 
L 323.998685 430.295003 
L 344.76619 426.78323 
L 365.533694 419.231265 
L 386.301199 411.62124 
L 407.068704 402.236506 
L 427.836209 401.53732 
L 448.603714 402.381761 
L 469.371219 398.311365 
L 490.138723 391.640207 
L 510.906228 387.756682 
L 531.673733 391.238161 
L 552.441238 379.024467 
L 573.208743 375.378025 
L 593.976248 382.071517 
L 614.743752 379.788003 
L 635.511257 375.389897 
L 656.278762 372.014548 
L 677.046267 367.890409 
L 697.813772 357.322392 
L 718.581277 342.940626 
L 739.348781 335.797364 
L 760.116286 331.927911 
L 780.883791 303.318313 
L 801.651296 295.669574 
L 822.418801 302.561364 
L 843.186306 295.748418 
L 863.95381 293.557034 
L 884.721315 279.673901 
L 905.48882 275.2491 
L 926.256325 219.554423 
L 947.02383 248.110404 
L 967.791335 214.389381 
L 988.558839 271.643095 
L 1009.326344 266.284323 
L 1030.093849 265.47466 
L 1050.861354 196.888526 
L 1071.628859 204.926864 
L 1092.396364 236.578823 
" clip-path="url(#p80f693a80b)" style="fill: none; stroke: #1f77b4; stroke-width: 1.5; stroke-linecap: square"/>
   </g>
   <g id="line2d_15">
    <path d="M 116.323636 464.37727 
L 137.091141 462.714547 
L 157.858646 455.297578 
L 178.626151 454.004387 
L 199.393656 449.228359 
L 220.161161 444.407296 
L 240.928665 439.582987 
L 261.69617 435.008297 
L 282.463675 432.325528 
L 303.23118 436.013732 
L 323.998685 428.845801 
L 344.76619 419.086095 
L 365.533694 412.080596 
L 386.301199 406.277904 
L 407.068704 405.744565 
L 427.836209 404.50967 
L 448.603714 401.34037 
L 469.371219 396.70571 
L 490.138723 391.945867 
L 510.906228 380.192413 
L 531.673733 376.876702 
L 552.441238 375.512712 
L 573.208743 367.411683 
L 593.976248 372.157612 
L 614.743752 368.968621 
L 635.511257 372.630941 
L 656.278762 368.161491 
L 677.046267 362.804539 
L 697.813772 350.671745 
L 718.581277 329.554913 
L 739.348781 316.106912 
L 760.116286 317.997766 
L 780.883791 289.541082 
L 801.651296 290.292659 
L 822.418801 295.757297 
L 843.186306 290.725948 
L 863.95381 288.384082 
L 884.721315 270.517131 
L 905.48882 251.497566 
L 926.256325 187.696298 
L 947.02383 214.58412 
L 967.791335 191.69322 
L 988.558839 248.330712 
L 1009.326344 234.363867 
L 1030.093849 224.831927 
L 1050.861354 159.345368 
L 1071.628859 165.721039 
L 1092.396364 179.540786 
" clip-path="url(#p80f693a80b)" style="fill: none; stroke: #ff7f0e; stroke-width: 1.5; stroke-linecap: square"/>
   </g>
   <g id="line2d_16">
    <path d="M 116.323636 448.718898 
L 137.091141 448.350338 
L 157.858646 441.824299 
L 178.626151 437.459121 
L 199.393656 429.072324 
L 220.161161 427.313812 
L 240.928665 423.539136 
L 261.69617 415.059634 
L 282.463675 411.955233 
L 303.23118 416.183959 
L 323.998685 411.48685 
L 344.76619 403.509488 
L 365.533694 401.814452 
L 386.301199 390.892904 
L 407.068704 389.143519 
L 427.836209 379.643591 
L 448.603714 378.470894 
L 469.371219 374.267184 
L 490.138723 374.431437 
L 510.906228 365.624325 
L 531.673733 360.463627 
L 552.441238 354.69751 
L 573.208743 349.83589 
L 593.976248 357.455342 
L 614.743752 352.267448 
L 635.511257 354.19135 
L 656.278762 351.317612 
L 677.046267 352.20274 
L 697.813772 350.335334 
L 718.581277 329.055567 
L 739.348781 326.24784 
L 760.116286 325.620188 
L 780.883791 302.32115 
L 801.651296 303.584283 
L 822.418801 305.264251 
L 843.186306 305.423443 
L 863.95381 302.645719 
L 884.721315 295.712635 
L 905.48882 277.511924 
L 926.256325 232.25837 
L 947.02383 249.488584 
L 967.791335 234.540528 
L 988.558839 272.100036 
L 1009.326344 256.247959 
L 1030.093849 266.062274 
L 1050.861354 212.793544 
L 1071.628859 218.785573 
L 1092.396364 234.292056 
" clip-path="url(#p80f693a80b)" style="fill: none; stroke: #2ca02c; stroke-width: 1.5; stroke-linecap: square"/>
   </g>
   <g id="line2d_17">
    <path d="M 116.323636 452.919181 
L 137.091141 454.492164 
L 157.858646 443.044257 
L 178.626151 443.015478 
L 199.393656 439.914073 
L 220.161161 435.711429 
L 240.928665 427.216595 
L 261.69617 425.623534 
L 282.463675 420.211154 
L 303.23118 424.098809 
L 323.998685 413.10554 
L 344.76619 405.693521 
L 365.533694 398.771721 
L 386.301199 390.219897 
L 407.068704 375.052673 
L 427.836209 377.890486 
L 448.603714 374.577949 
L 469.371219 366.109906 
L 490.138723 354.664065 
L 510.906228 345.022065 
L 531.673733 336.768726 
L 552.441238 343.837303 
L 573.208743 339.916113 
L 593.976248 336.744117 
L 614.743752 332.890072 
L 635.511257 332.061076 
L 656.278762 331.755782 
L 677.046267 312.133707 
L 697.813772 302.929122 
L 718.581277 293.481463 
L 739.348781 271.230312 
L 760.116286 274.774298 
L 780.883791 253.005055 
L 801.651296 262.735519 
L 822.418801 271.757683 
L 843.186306 261.818164 
L 863.95381 258.534617 
L 884.721315 232.556368 
L 905.48882 189.39033 
L 926.256325 122.945494 
L 947.02383 156.862672 
L 967.791335 137.038462 
L 988.558839 194.068905 
L 1009.326344 179.891523 
L 1030.093849 158.836271 
L 1050.861354 99.596789 
L 1071.628859 111.896797 
L 1092.396364 132.078119 
" clip-path="url(#p80f693a80b)" style="fill: none; stroke: #d62728; stroke-width: 1.5; stroke-linecap: square"/>
   </g>
   <g id="line2d_18"/>
   <g id="line2d_19"/>
   <g id="line2d_20"/>
   <g id="line2d_21"/>
   <g id="patch_3">
    <path d="M 67.52 490.552 
L 67.52 15.121593 
" style="fill: none; stroke: #000000; stroke-width: 0.8; stroke-linejoin: miter; stroke-linecap: square"/>
   </g>
   <g id="patch_4">
    <path d="M 1141.2 490.552 
L 1141.2 15.121593 
" style="fill: none; stroke: #000000; stroke-width: 0.8; stroke-linejoin: miter; stroke-linecap: square"/>
   </g>
   <g id="patch_5">
    <path d="M 67.52 490.552 
L 1141.2 490.552 
" style="fill: none; stroke: #000000; stroke-width: 0.8; stroke-linejoin: miter; stroke-linecap: square"/>
   </g>
   <g id="patch_6">
    <path d="M 67.52 15.121593 
L 1141.2 15.121593 
" style="fill: none; stroke: #000000; stroke-width: 0.8; stroke-linejoin: miter; stroke-linecap: square"/>
   </g>
   <g id="legend_1">
    <g id="patch_7">
     <path d="M 78.72 482.552 
L 248.465 482.552 
Q 251.665 482.552 251.665 479.352 
L 251.665 387.012 
Q 251.665 383.812 248.465 383.812 
L 78.72 383.812 
Q 75.52 383.812 75.52 387.012 
L 75.52 479.352 
Q 75.52 482.552 78.72 482.552 
z
" style="fill: #ffffff; opacity: 0.8; stroke: #cccccc; stroke-linejoin: miter"/>
    </g>
    <g id="line2d_22">
     <path d="M 81.92 396.7695 
L 97.92 396.7695 
L 113.92 396.7695 
" style="fill: none; stroke: #1f77b4; stroke-width: 1.5; stroke-linecap: square"/>
    </g>
    <g id="text_16">
     <!-- gbr -->
     <g transform="translate(126.72 402.3695) scale(0.16 -0.16)">
      <defs>
       <path id="DejaVuSans-62" d="M 3116 1747 
Q 3116 2381 2855 2742 
Q 2594 3103 2138 3103 
Q 1681 3103 1420 2742 
Q 1159 2381 1159 1747 
Q 1159 1113 1420 752 
Q 1681 391 2138 391 
Q 2594 391 2855 752 
Q 3116 1113 3116 1747 
z
M 1159 2969 
Q 1341 3281 1617 3432 
Q 1894 3584 2278 3584 
Q 2916 3584 3314 3078 
Q 3713 2572 3713 1747 
Q 3713 922 3314 415 
Q 2916 -91 2278 -91 
Q 1894 -91 1617 61 
Q 1341 213 1159 525 
L 1159 0 
L 581 0 
L 581 4863 
L 1159 4863 
L 1159 2969 
z
" transform="scale(0.015625)"/>
      </defs>
      <use xlink:href="#DejaVuSans-67"/>
      <use xlink:href="#DejaVuSans-62" x="63.476562"/>
      <use xlink:href="#DejaVuSans-72" x="126.953125"/>
     </g>
    </g>
    <g id="line2d_23">
     <path d="M 81.92 420.2545 
L 97.92 420.2545 
L 113.92 420.2545 
" style="fill: none; stroke: #ff7f0e; stroke-width: 1.5; stroke-linecap: square"/>
    </g>
    <g id="text_17">
     <!-- rf -->
     <g transform="translate(126.72 425.8545) scale(0.16 -0.16)">
      <defs>
       <path id="DejaVuSans-66" d="M 2375 4863 
L 2375 4384 
L 1825 4384 
Q 1516 4384 1395 4259 
Q 1275 4134 1275 3809 
L 1275 3500 
L 2222 3500 
L 2222 3053 
L 1275 3053 
L 1275 0 
L 697 0 
L 697 3053 
L 147 3053 
L 147 3500 
L 697 3500 
L 697 3744 
Q 697 4328 969 4595 
Q 1241 4863 1831 4863 
L 2375 4863 
z
" transform="scale(0.015625)"/>
      </defs>
      <use xlink:href="#DejaVuSans-72"/>
      <use xlink:href="#DejaVuSans-66" x="41.113281"/>
     </g>
    </g>
    <g id="line2d_24">
     <path d="M 81.92 443.7395 
L 97.92 443.7395 
L 113.92 443.7395 
" style="fill: none; stroke: #2ca02c; stroke-width: 1.5; stroke-linecap: square"/>
    </g>
    <g id="text_18">
     <!-- BayesianRidge -->
     <g transform="translate(126.72 449.3395) scale(0.16 -0.16)">
      <defs>
       <path id="DejaVuSans-42" d="M 1259 2228 
L 1259 519 
L 2272 519 
Q 2781 519 3026 730 
Q 3272 941 3272 1375 
Q 3272 1813 3026 2020 
Q 2781 2228 2272 2228 
L 1259 2228 
z
M 1259 4147 
L 1259 2741 
L 2194 2741 
Q 2656 2741 2882 2914 
Q 3109 3088 3109 3444 
Q 3109 3797 2882 3972 
Q 2656 4147 2194 4147 
L 1259 4147 
z
M 628 4666 
L 2241 4666 
Q 2963 4666 3353 4366 
Q 3744 4066 3744 3513 
Q 3744 3084 3544 2831 
Q 3344 2578 2956 2516 
Q 3422 2416 3680 2098 
Q 3938 1781 3938 1306 
Q 3938 681 3513 340 
Q 3088 0 2303 0 
L 628 0 
L 628 4666 
z
" transform="scale(0.015625)"/>
       <path id="DejaVuSans-79" d="M 2059 -325 
Q 1816 -950 1584 -1140 
Q 1353 -1331 966 -1331 
L 506 -1331 
L 506 -850 
L 844 -850 
Q 1081 -850 1212 -737 
Q 1344 -625 1503 -206 
L 1606 56 
L 191 3500 
L 800 3500 
L 1894 763 
L 2988 3500 
L 3597 3500 
L 2059 -325 
z
" transform="scale(0.015625)"/>
       <path id="DejaVuSans-52" d="M 2841 2188 
Q 3044 2119 3236 1894 
Q 3428 1669 3622 1275 
L 4263 0 
L 3584 0 
L 2988 1197 
Q 2756 1666 2539 1819 
Q 2322 1972 1947 1972 
L 1259 1972 
L 1259 0 
L 628 0 
L 628 4666 
L 2053 4666 
Q 2853 4666 3247 4331 
Q 3641 3997 3641 3322 
Q 3641 2881 3436 2590 
Q 3231 2300 2841 2188 
z
M 1259 4147 
L 1259 2491 
L 2053 2491 
Q 2509 2491 2742 2702 
Q 2975 2913 2975 3322 
Q 2975 3731 2742 3939 
Q 2509 4147 2053 4147 
L 1259 4147 
z
" transform="scale(0.015625)"/>
      </defs>
      <use xlink:href="#DejaVuSans-42"/>
      <use xlink:href="#DejaVuSans-61" x="68.603516"/>
      <use xlink:href="#DejaVuSans-79" x="129.882812"/>
      <use xlink:href="#DejaVuSans-65" x="189.0625"/>
      <use xlink:href="#DejaVuSans-73" x="250.585938"/>
      <use xlink:href="#DejaVuSans-69" x="302.685547"/>
      <use xlink:href="#DejaVuSans-61" x="330.46875"/>
      <use xlink:href="#DejaVuSans-6e" x="391.748047"/>
      <use xlink:href="#DejaVuSans-52" x="455.126953"/>
      <use xlink:href="#DejaVuSans-69" x="524.609375"/>
      <use xlink:href="#DejaVuSans-64" x="552.392578"/>
      <use xlink:href="#DejaVuSans-67" x="615.869141"/>
      <use xlink:href="#DejaVuSans-65" x="679.345703"/>
     </g>
    </g>
    <g id="line2d_25">
     <path d="M 81.92 467.2245 
L 97.92 467.2245 
L 113.92 467.2245 
" style="fill: none; stroke: #d62728; stroke-width: 1.5; stroke-linecap: square"/>
    </g>
    <g id="text_19">
     <!-- xgb -->
     <g transform="translate(126.72 472.8245) scale(0.16 -0.16)">
      <defs>
       <path id="DejaVuSans-78" d="M 3513 3500 
L 2247 1797 
L 3578 0 
L 2900 0 
L 1881 1375 
L 863 0 
L 184 0 
L 1544 1831 
L 300 3500 
L 978 3500 
L 1906 2253 
L 2834 3500 
L 3513 3500 
z
" transform="scale(0.015625)"/>
      </defs>
      <use xlink:href="#DejaVuSans-78"/>
      <use xlink:href="#DejaVuSans-67" x="59.179688"/>
      <use xlink:href="#DejaVuSans-62" x="122.65625"/>
     </g>
    </g>
   </g>
  </g>
 </g>
 <defs>
  <clipPath id="p80f693a80b">
   <rect x="67.52" y="15.121593" width="1073.68" height="475.430407"/>
  </clipPath>
 </defs>
</svg>
