<?xml version="1.0" encoding="utf-8" standalone="no"?>
<!DOCTYPE svg PUBLIC "-//W3C//DTD SVG 1.1//EN"
  "http://www.w3.org/Graphics/SVG/1.1/DTD/svg11.dtd">
<svg xmlns:xlink="http://www.w3.org/1999/xlink" width="1152pt" height="576pt" viewBox="0 0 1152 576" xmlns="http://www.w3.org/2000/svg" version="1.1">
 <metadata>
  <rdf:RDF xmlns:dc="http://purl.org/dc/elements/1.1/" xmlns:cc="http://creativecommons.org/ns#" xmlns:rdf="http://www.w3.org/1999/02/22-rdf-syntax-ns#">
   <cc:Work>
    <dc:type rdf:resource="http://purl.org/dc/dcmitype/StillImage"/>
    <dc:date>2024-10-22T20:20:21.514148</dc:date>
    <dc:format>image/svg+xml</dc:format>
    <dc:creator>
     <cc:Agent>
      <dc:title>Matplotlib v3.9.2, https://matplotlib.org/</dc:title>
     </cc:Agent>
    </dc:creator>
   </cc:Work>
  </rdf:RDF>
 </metadata>
 <defs>
  <style type="text/css">*{stroke-linejoin: round; stroke-linecap: butt}</style>
 </defs>
 <g id="figure_1">
  <g id="patch_1">
   <path d="M 0 576 
L 1152 576 
L 1152 0 
L 0 0 
z
" style="fill: #ffffff"/>
  </g>
  <g id="axes_1">
   <g id="patch_2">
    <path d="M 80.3 490.552 
L 1141.2 490.552 
L 1141.2 10.8 
L 80.3 10.8 
z
" style="fill: #ffffff"/>
   </g>
   <g id="PolyCollection_1">
    <defs>
     <path id="m0f5168555f" d="M 128.522727 -237.732144 
L 128.522727 -144.714102 
L 149.043037 -145.679102 
L 169.563346 -109.00389 
L 190.083656 -112.980638 
L 210.603965 -134.684823 
L 231.124275 -125.560028 
L 251.644584 -124.63622 
L 272.164894 -112.393779 
L 292.685203 -118.475638 
L 313.205513 -136.934988 
L 333.725822 -107.254909 
L 354.246132 -132.900343 
L 374.766441 -124.933525 
L 395.28675 -110.683943 
L 415.80706 -130.943529 
L 436.327369 -108.114167 
L 456.847679 -120.24931 
L 477.367988 -109.873122 
L 497.888298 -124.051161 
L 518.408607 -113.45021 
L 538.928917 -125.405497 
L 559.449226 -113.046779 
L 579.969536 -111.179405 
L 600.489845 -111.432523 
L 621.010155 -130.324054 
L 641.530464 -132.459348 
L 662.050774 -146.925521 
L 682.571083 -123.228926 
L 703.091393 -130.523042 
L 723.611702 -123.069047 
L 744.132012 -152.846948 
L 764.652321 -127.876358 
L 785.172631 -117.929645 
L 805.69294 -134.848406 
L 826.21325 -122.763966 
L 846.733559 -142.963438 
L 867.253868 -134.340027 
L 887.774178 -124.67818 
L 908.294487 -127.429911 
L 928.814797 -130.291769 
L 949.335106 -178.192475 
L 969.855416 -133.196794 
L 990.375725 -128.321098 
L 1010.896035 -146.381995 
L 1031.416344 -137.419336 
L 1051.936654 -151.360431 
L 1072.456963 -138.795574 
L 1092.977273 -132.927334 
L 1092.977273 -190.406706 
L 1092.977273 -190.406706 
L 1072.456963 -183.017666 
L 1051.936654 -194.912815 
L 1031.416344 -163.402234 
L 1010.896035 -174.764423 
L 990.375725 -156.428532 
L 969.855416 -197.345175 
L 949.335106 -219.410842 
L 928.814797 -161.9109 
L 908.294487 -171.211714 
L 887.774178 -171.464863 
L 867.253868 -199.882867 
L 846.733559 -179.594392 
L 826.21325 -185.635642 
L 805.69294 -163.216054 
L 785.172631 -179.952529 
L 764.652321 -167.044971 
L 744.132012 -201.861162 
L 723.611702 -179.233022 
L 703.091393 -184.049637 
L 682.571083 -178.664109 
L 662.050774 -175.078767 
L 641.530464 -187.140719 
L 621.010155 -168.691835 
L 600.489845 -160.25622 
L 579.969536 -174.38435 
L 559.449226 -162.230897 
L 538.928917 -179.809738 
L 518.408607 -162.862453 
L 497.888298 -175.524745 
L 477.367988 -156.822292 
L 456.847679 -195.367908 
L 436.327369 -149.117051 
L 415.80706 -169.760316 
L 395.28675 -154.952772 
L 374.766441 -168.553224 
L 354.246132 -165.737744 
L 333.725822 -157.431316 
L 313.205513 -169.246688 
L 292.685203 -149.200395 
L 272.164894 -181.46834 
L 251.644584 -155.998616 
L 231.124275 -164.183717 
L 210.603965 -180.343509 
L 190.083656 -174.145371 
L 169.563346 -173.551467 
L 149.043037 -195.052736 
L 128.522727 -237.732144 
z
" style="stroke: #1f77b4; stroke-opacity: 0.2"/>
    </defs>
    <g clip-path="url(#p20cc067e3c)">
     <use xlink:href="#m0f5168555f" x="0" y="576" style="fill: #1f77b4; fill-opacity: 0.2; stroke: #1f77b4; stroke-opacity: 0.2"/>
    </g>
   </g>
   <g id="PolyCollection_2">
    <defs>
     <path id="m91635c0d6a" d="M 128.522727 -260.298643 
L 128.522727 -213.933162 
L 149.043037 -159.612799 
L 169.563346 -143.04032 
L 190.083656 -138.821929 
L 210.603965 -143.201951 
L 231.124275 -146.12409 
L 251.644584 -147.396189 
L 272.164894 -146.400247 
L 292.685203 -147.701391 
L 313.205513 -146.847345 
L 333.725822 -139.376169 
L 354.246132 -142.883623 
L 374.766441 -149.4127 
L 395.28675 -137.203814 
L 415.80706 -146.647573 
L 436.327369 -151.005391 
L 456.847679 -148.31732 
L 477.367988 -137.470379 
L 497.888298 -146.11446 
L 518.408607 -137.18658 
L 538.928917 -144.613251 
L 559.449226 -137.06718 
L 579.969536 -145.544167 
L 600.489845 -141.250621 
L 621.010155 -152.750029 
L 641.530464 -137.203976 
L 662.050774 -148.174208 
L 682.571083 -156.2385 
L 703.091393 -145.57314 
L 723.611702 -147.059409 
L 744.132012 -144.888272 
L 764.652321 -150.272866 
L 785.172631 -139.665847 
L 805.69294 -154.337344 
L 826.21325 -147.766609 
L 846.733559 -146.671741 
L 867.253868 -155.05711 
L 887.774178 -156.677607 
L 908.294487 -145.151327 
L 928.814797 -134.132958 
L 949.335106 -154.656094 
L 969.855416 -146.444311 
L 990.375725 -151.010656 
L 1010.896035 -164.870477 
L 1031.416344 -137.842855 
L 1051.936654 -164.404355 
L 1072.456963 -150.912834 
L 1092.977273 -139.268304 
L 1092.977273 -177.752523 
L 1092.977273 -177.752523 
L 1072.456963 -168.470362 
L 1051.936654 -176.242714 
L 1031.416344 -169.737089 
L 1010.896035 -188.636782 
L 990.375725 -175.299645 
L 969.855416 -191.458813 
L 949.335106 -204.801446 
L 928.814797 -165.833659 
L 908.294487 -211.726191 
L 887.774178 -166.830774 
L 867.253868 -218.417316 
L 846.733559 -159.283303 
L 826.21325 -182.692838 
L 805.69294 -172.743638 
L 785.172631 -177.669899 
L 764.652321 -173.950186 
L 744.132012 -185.974416 
L 723.611702 -170.37534 
L 703.091393 -184.630012 
L 682.571083 -177.601985 
L 662.050774 -173.973592 
L 641.530464 -165.151426 
L 621.010155 -178.052728 
L 600.489845 -170.796042 
L 579.969536 -166.805641 
L 559.449226 -157.484505 
L 538.928917 -162.832324 
L 518.408607 -169.290733 
L 497.888298 -166.437672 
L 477.367988 -168.284944 
L 456.847679 -166.438419 
L 436.327369 -165.171121 
L 415.80706 -169.383642 
L 395.28675 -156.131963 
L 374.766441 -161.780228 
L 354.246132 -176.594439 
L 333.725822 -174.197789 
L 313.205513 -168.595515 
L 292.685203 -167.085561 
L 272.164894 -164.184182 
L 251.644584 -166.485424 
L 231.124275 -170.812589 
L 210.603965 -171.977646 
L 190.083656 -178.832365 
L 169.563346 -182.401728 
L 149.043037 -210.571033 
L 128.522727 -260.298643 
z
" style="stroke: #ff7f0e; stroke-opacity: 0.2"/>
    </defs>
    <g clip-path="url(#p20cc067e3c)">
     <use xlink:href="#m91635c0d6a" x="0" y="576" style="fill: #ff7f0e; fill-opacity: 0.2; stroke: #ff7f0e; stroke-opacity: 0.2"/>
    </g>
   </g>
   <g id="PolyCollection_3">
    <defs>
     <path id="mf2f31a6183" d="M 128.522727 -202.639721 
L 128.522727 -171.004181 
L 149.043037 -147.724992 
L 169.563346 -140.747672 
L 190.083656 -132.749834 
L 210.603965 -148.08009 
L 231.124275 -147.696415 
L 251.644584 -148.131262 
L 272.164894 -159.893998 
L 292.685203 -152.249518 
L 313.205513 -157.847756 
L 333.725822 -150.79726 
L 354.246132 -153.033991 
L 374.766441 -172.552794 
L 395.28675 -149.257814 
L 415.80706 -166.260305 
L 436.327369 -164.862523 
L 456.847679 -172.717559 
L 477.367988 -152.255173 
L 497.888298 -160.263839 
L 518.408607 -164.226664 
L 538.928917 -156.77368 
L 559.449226 -149.041833 
L 579.969536 -157.567639 
L 600.489845 -151.093634 
L 621.010155 -165.612881 
L 641.530464 -156.513948 
L 662.050774 -173.354697 
L 682.571083 -170.694779 
L 703.091393 -155.252662 
L 723.611702 -162.433966 
L 744.132012 -154.463993 
L 764.652321 -148.585695 
L 785.172631 -153.393374 
L 805.69294 -160.550238 
L 826.21325 -164.474576 
L 846.733559 -170.890286 
L 867.253868 -165.727626 
L 887.774178 -180.80873 
L 908.294487 -166.270696 
L 928.814797 -167.326183 
L 949.335106 -173.588275 
L 969.855416 -169.542062 
L 990.375725 -165.099243 
L 1010.896035 -178.778114 
L 1031.416344 -154.590502 
L 1051.936654 -175.844468 
L 1072.456963 -185.608751 
L 1092.977273 -169.514399 
L 1092.977273 -216.55774 
L 1092.977273 -216.55774 
L 1072.456963 -202.368938 
L 1051.936654 -241.29719 
L 1031.416344 -247.267276 
L 1010.896035 -246.13534 
L 990.375725 -188.634933 
L 969.855416 -215.917147 
L 949.335106 -249.763829 
L 928.814797 -209.185503 
L 908.294487 -244.790016 
L 887.774178 -250.410171 
L 867.253868 -256.82182 
L 846.733559 -209.543915 
L 826.21325 -246.808326 
L 805.69294 -237.466372 
L 785.172631 -231.192115 
L 764.652321 -208.777614 
L 744.132012 -223.125953 
L 723.611702 -224.03569 
L 703.091393 -207.679154 
L 682.571083 -223.675166 
L 662.050774 -235.589355 
L 641.530464 -245.47152 
L 621.010155 -220.966358 
L 600.489845 -210.288543 
L 579.969536 -212.101325 
L 559.449226 -183.575881 
L 538.928917 -198.703568 
L 518.408607 -215.399277 
L 497.888298 -213.957314 
L 477.367988 -208.89825 
L 456.847679 -224.132774 
L 436.327369 -208.710289 
L 415.80706 -247.318745 
L 395.28675 -183.249141 
L 374.766441 -199.166735 
L 354.246132 -191.273708 
L 333.725822 -212.960957 
L 313.205513 -195.382116 
L 292.685203 -217.516621 
L 272.164894 -232.207951 
L 251.644584 -194.385202 
L 231.124275 -164.805761 
L 210.603965 -177.44338 
L 190.083656 -169.65448 
L 169.563346 -155.662617 
L 149.043037 -183.344371 
L 128.522727 -202.639721 
z
" style="stroke: #2ca02c; stroke-opacity: 0.2"/>
    </defs>
    <g clip-path="url(#p20cc067e3c)">
     <use xlink:href="#mf2f31a6183" x="0" y="576" style="fill: #2ca02c; fill-opacity: 0.2; stroke: #2ca02c; stroke-opacity: 0.2"/>
    </g>
   </g>
   <g id="PolyCollection_4">
    <defs>
     <path id="m43446406ea" d="M 128.522727 -543.393091 
L 128.522727 -396.804079 
L 149.043037 -373.173346 
L 169.563346 -327.115852 
L 190.083656 -315.405697 
L 210.603965 -299.97474 
L 231.124275 -329.664743 
L 251.644584 -331.654716 
L 272.164894 -314.383217 
L 292.685203 -314.934292 
L 313.205513 -311.956111 
L 333.725822 -288.506925 
L 354.246132 -273.988454 
L 374.766441 -305.404765 
L 395.28675 -283.664368 
L 415.80706 -295.043207 
L 436.327369 -293.511783 
L 456.847679 -287.505587 
L 477.367988 -289.02327 
L 497.888298 -334.23426 
L 518.408607 -286.380384 
L 538.928917 -302.483911 
L 559.449226 -248.97538 
L 579.969536 -262.756743 
L 600.489845 -280.752168 
L 621.010155 -285.093895 
L 641.530464 -288.472077 
L 662.050774 -285.966416 
L 682.571083 -290.021959 
L 703.091393 -293.701174 
L 723.611702 -302.237143 
L 744.132012 -291.631714 
L 764.652321 -271.798154 
L 785.172631 -304.622231 
L 805.69294 -304.968108 
L 826.21325 -347.561867 
L 846.733559 -265.705296 
L 867.253868 -340.641169 
L 887.774178 -278.713738 
L 908.294487 -291.900614 
L 928.814797 -260.964274 
L 949.335106 -298.675702 
L 969.855416 -271.175658 
L 990.375725 -292.880657 
L 1010.896035 -313.605556 
L 1031.416344 -273.771496 
L 1051.936654 -302.806049 
L 1072.456963 -321.981418 
L 1092.977273 -254.043779 
L 1092.977273 -325.364446 
L 1092.977273 -325.364446 
L 1072.456963 -340.581298 
L 1051.936654 -375.035308 
L 1031.416344 -322.3593 
L 1010.896035 -397.496993 
L 990.375725 -346.644587 
L 969.855416 -371.43608 
L 949.335106 -375.936825 
L 928.814797 -339.190458 
L 908.294487 -444.913688 
L 887.774178 -340.170302 
L 867.253868 -476.188663 
L 846.733559 -320.690552 
L 826.21325 -374.928646 
L 805.69294 -429.807516 
L 785.172631 -400.100921 
L 764.652321 -362.241753 
L 744.132012 -362.944498 
L 723.611702 -397.162301 
L 703.091393 -335.748954 
L 682.571083 -347.000141 
L 662.050774 -337.020182 
L 641.530464 -336.682235 
L 621.010155 -365.164027 
L 600.489845 -313.696802 
L 579.969536 -299.506022 
L 559.449226 -364.879737 
L 538.928917 -337.883784 
L 518.408607 -359.435785 
L 497.888298 -482.192385 
L 477.367988 -408.610128 
L 456.847679 -345.716537 
L 436.327369 -348.344965 
L 415.80706 -370.107897 
L 395.28675 -345.305851 
L 374.766441 -374.61032 
L 354.246132 -350.176014 
L 333.725822 -386.797938 
L 313.205513 -364.936058 
L 292.685203 -364.95946 
L 272.164894 -356.129256 
L 251.644584 -346.10343 
L 231.124275 -346.722473 
L 210.603965 -367.594537 
L 190.083656 -401.828468 
L 169.563346 -419.832868 
L 149.043037 -442.722574 
L 128.522727 -543.393091 
z
" style="stroke: #d62728; stroke-opacity: 0.2"/>
    </defs>
    <g clip-path="url(#p20cc067e3c)">
     <use xlink:href="#m43446406ea" x="0" y="576" style="fill: #d62728; fill-opacity: 0.2; stroke: #d62728; stroke-opacity: 0.2"/>
    </g>
   </g>
   <g id="matplotlib.axis_1">
    <g id="xtick_1">
     <g id="line2d_1">
      <defs>
       <path id="m870e287179" d="M 0 0 
L 0 3.5 
" style="stroke: #000000; stroke-width: 0.8"/>
      </defs>
      <g>
       <use xlink:href="#m870e287179" x="118.262573" y="490.552" style="stroke: #000000; stroke-width: 0.8"/>
      </g>
     </g>
     <g id="text_1">
      <!-- 0 -->
      <g transform="translate(111.900073 512.748875) scale(0.2 -0.2)">
       <defs>
        <path id="DejaVuSans-30" d="M 2034 4250 
Q 1547 4250 1301 3770 
Q 1056 3291 1056 2328 
Q 1056 1369 1301 889 
Q 1547 409 2034 409 
Q 2525 409 2770 889 
Q 3016 1369 3016 2328 
Q 3016 3291 2770 3770 
Q 2525 4250 2034 4250 
z
M 2034 4750 
Q 2819 4750 3233 4129 
Q 3647 3509 3647 2328 
Q 3647 1150 3233 529 
Q 2819 -91 2034 -91 
Q 1250 -91 836 529 
Q 422 1150 422 2328 
Q 422 3509 836 4129 
Q 1250 4750 2034 4750 
z
" transform="scale(0.015625)"/>
       </defs>
       <use xlink:href="#DejaVuSans-30"/>
      </g>
     </g>
    </g>
    <g id="xtick_2">
     <g id="line2d_2">
      <g>
       <use xlink:href="#m870e287179" x="323.465667" y="490.552" style="stroke: #000000; stroke-width: 0.8"/>
      </g>
     </g>
     <g id="text_2">
      <!-- 20 -->
      <g transform="translate(310.740667 512.748875) scale(0.2 -0.2)">
       <defs>
        <path id="DejaVuSans-32" d="M 1228 531 
L 3431 531 
L 3431 0 
L 469 0 
L 469 531 
Q 828 903 1448 1529 
Q 2069 2156 2228 2338 
Q 2531 2678 2651 2914 
Q 2772 3150 2772 3378 
Q 2772 3750 2511 3984 
Q 2250 4219 1831 4219 
Q 1534 4219 1204 4116 
Q 875 4013 500 3803 
L 500 4441 
Q 881 4594 1212 4672 
Q 1544 4750 1819 4750 
Q 2544 4750 2975 4387 
Q 3406 4025 3406 3419 
Q 3406 3131 3298 2873 
Q 3191 2616 2906 2266 
Q 2828 2175 2409 1742 
Q 1991 1309 1228 531 
z
" transform="scale(0.015625)"/>
       </defs>
       <use xlink:href="#DejaVuSans-32"/>
       <use xlink:href="#DejaVuSans-30" x="63.623047"/>
      </g>
     </g>
    </g>
    <g id="xtick_3">
     <g id="line2d_3">
      <g>
       <use xlink:href="#m870e287179" x="528.668762" y="490.552" style="stroke: #000000; stroke-width: 0.8"/>
      </g>
     </g>
     <g id="text_3">
      <!-- 40 -->
      <g transform="translate(515.943762 512.748875) scale(0.2 -0.2)">
       <defs>
        <path id="DejaVuSans-34" d="M 2419 4116 
L 825 1625 
L 2419 1625 
L 2419 4116 
z
M 2253 4666 
L 3047 4666 
L 3047 1625 
L 3713 1625 
L 3713 1100 
L 3047 1100 
L 3047 0 
L 2419 0 
L 2419 1100 
L 313 1100 
L 313 1709 
L 2253 4666 
z
" transform="scale(0.015625)"/>
       </defs>
       <use xlink:href="#DejaVuSans-34"/>
       <use xlink:href="#DejaVuSans-30" x="63.623047"/>
      </g>
     </g>
    </g>
    <g id="xtick_4">
     <g id="line2d_4">
      <g>
       <use xlink:href="#m870e287179" x="733.871857" y="490.552" style="stroke: #000000; stroke-width: 0.8"/>
      </g>
     </g>
     <g id="text_4">
      <!-- 60 -->
      <g transform="translate(721.146857 512.748875) scale(0.2 -0.2)">
       <defs>
        <path id="DejaVuSans-36" d="M 2113 2584 
Q 1688 2584 1439 2293 
Q 1191 2003 1191 1497 
Q 1191 994 1439 701 
Q 1688 409 2113 409 
Q 2538 409 2786 701 
Q 3034 994 3034 1497 
Q 3034 2003 2786 2293 
Q 2538 2584 2113 2584 
z
M 3366 4563 
L 3366 3988 
Q 3128 4100 2886 4159 
Q 2644 4219 2406 4219 
Q 1781 4219 1451 3797 
Q 1122 3375 1075 2522 
Q 1259 2794 1537 2939 
Q 1816 3084 2150 3084 
Q 2853 3084 3261 2657 
Q 3669 2231 3669 1497 
Q 3669 778 3244 343 
Q 2819 -91 2113 -91 
Q 1303 -91 875 529 
Q 447 1150 447 2328 
Q 447 3434 972 4092 
Q 1497 4750 2381 4750 
Q 2619 4750 2861 4703 
Q 3103 4656 3366 4563 
z
" transform="scale(0.015625)"/>
       </defs>
       <use xlink:href="#DejaVuSans-36"/>
       <use xlink:href="#DejaVuSans-30" x="63.623047"/>
      </g>
     </g>
    </g>
    <g id="xtick_5">
     <g id="line2d_5">
      <g>
       <use xlink:href="#m870e287179" x="939.074952" y="490.552" style="stroke: #000000; stroke-width: 0.8"/>
      </g>
     </g>
     <g id="text_5">
      <!-- 80 -->
      <g transform="translate(926.349952 512.748875) scale(0.2 -0.2)">
       <defs>
        <path id="DejaVuSans-38" d="M 2034 2216 
Q 1584 2216 1326 1975 
Q 1069 1734 1069 1313 
Q 1069 891 1326 650 
Q 1584 409 2034 409 
Q 2484 409 2743 651 
Q 3003 894 3003 1313 
Q 3003 1734 2745 1975 
Q 2488 2216 2034 2216 
z
M 1403 2484 
Q 997 2584 770 2862 
Q 544 3141 544 3541 
Q 544 4100 942 4425 
Q 1341 4750 2034 4750 
Q 2731 4750 3128 4425 
Q 3525 4100 3525 3541 
Q 3525 3141 3298 2862 
Q 3072 2584 2669 2484 
Q 3125 2378 3379 2068 
Q 3634 1759 3634 1313 
Q 3634 634 3220 271 
Q 2806 -91 2034 -91 
Q 1263 -91 848 271 
Q 434 634 434 1313 
Q 434 1759 690 2068 
Q 947 2378 1403 2484 
z
M 1172 3481 
Q 1172 3119 1398 2916 
Q 1625 2713 2034 2713 
Q 2441 2713 2670 2916 
Q 2900 3119 2900 3481 
Q 2900 3844 2670 4047 
Q 2441 4250 2034 4250 
Q 1625 4250 1398 4047 
Q 1172 3844 1172 3481 
z
" transform="scale(0.015625)"/>
       </defs>
       <use xlink:href="#DejaVuSans-38"/>
       <use xlink:href="#DejaVuSans-30" x="63.623047"/>
      </g>
     </g>
    </g>
    <g id="text_6">
     <!-- Percentile Threshold -->
     <g transform="translate(508.970312 536.105125) scale(0.2 -0.2)">
      <defs>
       <path id="DejaVuSans-50" d="M 1259 4147 
L 1259 2394 
L 2053 2394 
Q 2494 2394 2734 2622 
Q 2975 2850 2975 3272 
Q 2975 3691 2734 3919 
Q 2494 4147 2053 4147 
L 1259 4147 
z
M 628 4666 
L 2053 4666 
Q 2838 4666 3239 4311 
Q 3641 3956 3641 3272 
Q 3641 2581 3239 2228 
Q 2838 1875 2053 1875 
L 1259 1875 
L 1259 0 
L 628 0 
L 628 4666 
z
" transform="scale(0.015625)"/>
       <path id="DejaVuSans-65" d="M 3597 1894 
L 3597 1613 
L 953 1613 
Q 991 1019 1311 708 
Q 1631 397 2203 397 
Q 2534 397 2845 478 
Q 3156 559 3463 722 
L 3463 178 
Q 3153 47 2828 -22 
Q 2503 -91 2169 -91 
Q 1331 -91 842 396 
Q 353 884 353 1716 
Q 353 2575 817 3079 
Q 1281 3584 2069 3584 
Q 2775 3584 3186 3129 
Q 3597 2675 3597 1894 
z
M 3022 2063 
Q 3016 2534 2758 2815 
Q 2500 3097 2075 3097 
Q 1594 3097 1305 2825 
Q 1016 2553 972 2059 
L 3022 2063 
z
" transform="scale(0.015625)"/>
       <path id="DejaVuSans-72" d="M 2631 2963 
Q 2534 3019 2420 3045 
Q 2306 3072 2169 3072 
Q 1681 3072 1420 2755 
Q 1159 2438 1159 1844 
L 1159 0 
L 581 0 
L 581 3500 
L 1159 3500 
L 1159 2956 
Q 1341 3275 1631 3429 
Q 1922 3584 2338 3584 
Q 2397 3584 2469 3576 
Q 2541 3569 2628 3553 
L 2631 2963 
z
" transform="scale(0.015625)"/>
       <path id="DejaVuSans-63" d="M 3122 3366 
L 3122 2828 
Q 2878 2963 2633 3030 
Q 2388 3097 2138 3097 
Q 1578 3097 1268 2742 
Q 959 2388 959 1747 
Q 959 1106 1268 751 
Q 1578 397 2138 397 
Q 2388 397 2633 464 
Q 2878 531 3122 666 
L 3122 134 
Q 2881 22 2623 -34 
Q 2366 -91 2075 -91 
Q 1284 -91 818 406 
Q 353 903 353 1747 
Q 353 2603 823 3093 
Q 1294 3584 2113 3584 
Q 2378 3584 2631 3529 
Q 2884 3475 3122 3366 
z
" transform="scale(0.015625)"/>
       <path id="DejaVuSans-6e" d="M 3513 2113 
L 3513 0 
L 2938 0 
L 2938 2094 
Q 2938 2591 2744 2837 
Q 2550 3084 2163 3084 
Q 1697 3084 1428 2787 
Q 1159 2491 1159 1978 
L 1159 0 
L 581 0 
L 581 3500 
L 1159 3500 
L 1159 2956 
Q 1366 3272 1645 3428 
Q 1925 3584 2291 3584 
Q 2894 3584 3203 3211 
Q 3513 2838 3513 2113 
z
" transform="scale(0.015625)"/>
       <path id="DejaVuSans-74" d="M 1172 4494 
L 1172 3500 
L 2356 3500 
L 2356 3053 
L 1172 3053 
L 1172 1153 
Q 1172 725 1289 603 
Q 1406 481 1766 481 
L 2356 481 
L 2356 0 
L 1766 0 
Q 1100 0 847 248 
Q 594 497 594 1153 
L 594 3053 
L 172 3053 
L 172 3500 
L 594 3500 
L 594 4494 
L 1172 4494 
z
" transform="scale(0.015625)"/>
       <path id="DejaVuSans-69" d="M 603 3500 
L 1178 3500 
L 1178 0 
L 603 0 
L 603 3500 
z
M 603 4863 
L 1178 4863 
L 1178 4134 
L 603 4134 
L 603 4863 
z
" transform="scale(0.015625)"/>
       <path id="DejaVuSans-6c" d="M 603 4863 
L 1178 4863 
L 1178 0 
L 603 0 
L 603 4863 
z
" transform="scale(0.015625)"/>
       <path id="DejaVuSans-20" transform="scale(0.015625)"/>
       <path id="DejaVuSans-54" d="M -19 4666 
L 3928 4666 
L 3928 4134 
L 2272 4134 
L 2272 0 
L 1638 0 
L 1638 4134 
L -19 4134 
L -19 4666 
z
" transform="scale(0.015625)"/>
       <path id="DejaVuSans-68" d="M 3513 2113 
L 3513 0 
L 2938 0 
L 2938 2094 
Q 2938 2591 2744 2837 
Q 2550 3084 2163 3084 
Q 1697 3084 1428 2787 
Q 1159 2491 1159 1978 
L 1159 0 
L 581 0 
L 581 4863 
L 1159 4863 
L 1159 2956 
Q 1366 3272 1645 3428 
Q 1925 3584 2291 3584 
Q 2894 3584 3203 3211 
Q 3513 2838 3513 2113 
z
" transform="scale(0.015625)"/>
       <path id="DejaVuSans-73" d="M 2834 3397 
L 2834 2853 
Q 2591 2978 2328 3040 
Q 2066 3103 1784 3103 
Q 1356 3103 1142 2972 
Q 928 2841 928 2578 
Q 928 2378 1081 2264 
Q 1234 2150 1697 2047 
L 1894 2003 
Q 2506 1872 2764 1633 
Q 3022 1394 3022 966 
Q 3022 478 2636 193 
Q 2250 -91 1575 -91 
Q 1294 -91 989 -36 
Q 684 19 347 128 
L 347 722 
Q 666 556 975 473 
Q 1284 391 1588 391 
Q 1994 391 2212 530 
Q 2431 669 2431 922 
Q 2431 1156 2273 1281 
Q 2116 1406 1581 1522 
L 1381 1569 
Q 847 1681 609 1914 
Q 372 2147 372 2553 
Q 372 3047 722 3315 
Q 1072 3584 1716 3584 
Q 2034 3584 2315 3537 
Q 2597 3491 2834 3397 
z
" transform="scale(0.015625)"/>
       <path id="DejaVuSans-6f" d="M 1959 3097 
Q 1497 3097 1228 2736 
Q 959 2375 959 1747 
Q 959 1119 1226 758 
Q 1494 397 1959 397 
Q 2419 397 2687 759 
Q 2956 1122 2956 1747 
Q 2956 2369 2687 2733 
Q 2419 3097 1959 3097 
z
M 1959 3584 
Q 2709 3584 3137 3096 
Q 3566 2609 3566 1747 
Q 3566 888 3137 398 
Q 2709 -91 1959 -91 
Q 1206 -91 779 398 
Q 353 888 353 1747 
Q 353 2609 779 3096 
Q 1206 3584 1959 3584 
z
" transform="scale(0.015625)"/>
       <path id="DejaVuSans-64" d="M 2906 2969 
L 2906 4863 
L 3481 4863 
L 3481 0 
L 2906 0 
L 2906 525 
Q 2725 213 2448 61 
Q 2172 -91 1784 -91 
Q 1150 -91 751 415 
Q 353 922 353 1747 
Q 353 2572 751 3078 
Q 1150 3584 1784 3584 
Q 2172 3584 2448 3432 
Q 2725 3281 2906 2969 
z
M 947 1747 
Q 947 1113 1208 752 
Q 1469 391 1925 391 
Q 2381 391 2643 752 
Q 2906 1113 2906 1747 
Q 2906 2381 2643 2742 
Q 2381 3103 1925 3103 
Q 1469 3103 1208 2742 
Q 947 2381 947 1747 
z
" transform="scale(0.015625)"/>
      </defs>
      <use xlink:href="#DejaVuSans-50"/>
      <use xlink:href="#DejaVuSans-65" x="56.677734"/>
      <use xlink:href="#DejaVuSans-72" x="118.201172"/>
      <use xlink:href="#DejaVuSans-63" x="157.064453"/>
      <use xlink:href="#DejaVuSans-65" x="212.044922"/>
      <use xlink:href="#DejaVuSans-6e" x="273.568359"/>
      <use xlink:href="#DejaVuSans-74" x="336.947266"/>
      <use xlink:href="#DejaVuSans-69" x="376.15625"/>
      <use xlink:href="#DejaVuSans-6c" x="403.939453"/>
      <use xlink:href="#DejaVuSans-65" x="431.722656"/>
      <use xlink:href="#DejaVuSans-20" x="493.246094"/>
      <use xlink:href="#DejaVuSans-54" x="525.033203"/>
      <use xlink:href="#DejaVuSans-68" x="586.117188"/>
      <use xlink:href="#DejaVuSans-72" x="649.496094"/>
      <use xlink:href="#DejaVuSans-65" x="688.359375"/>
      <use xlink:href="#DejaVuSans-73" x="749.882812"/>
      <use xlink:href="#DejaVuSans-68" x="801.982422"/>
      <use xlink:href="#DejaVuSans-6f" x="865.361328"/>
      <use xlink:href="#DejaVuSans-6c" x="926.542969"/>
      <use xlink:href="#DejaVuSans-64" x="954.326172"/>
     </g>
     <!-- (Using "random" Threshold Handling) -->
     <g transform="translate(423.582812 558.50075) scale(0.2 -0.2)">
      <defs>
       <path id="DejaVuSans-28" d="M 1984 4856 
Q 1566 4138 1362 3434 
Q 1159 2731 1159 2009 
Q 1159 1288 1364 580 
Q 1569 -128 1984 -844 
L 1484 -844 
Q 1016 -109 783 600 
Q 550 1309 550 2009 
Q 550 2706 781 3412 
Q 1013 4119 1484 4856 
L 1984 4856 
z
" transform="scale(0.015625)"/>
       <path id="DejaVuSans-55" d="M 556 4666 
L 1191 4666 
L 1191 1831 
Q 1191 1081 1462 751 
Q 1734 422 2344 422 
Q 2950 422 3222 751 
Q 3494 1081 3494 1831 
L 3494 4666 
L 4128 4666 
L 4128 1753 
Q 4128 841 3676 375 
Q 3225 -91 2344 -91 
Q 1459 -91 1007 375 
Q 556 841 556 1753 
L 556 4666 
z
" transform="scale(0.015625)"/>
       <path id="DejaVuSans-67" d="M 2906 1791 
Q 2906 2416 2648 2759 
Q 2391 3103 1925 3103 
Q 1463 3103 1205 2759 
Q 947 2416 947 1791 
Q 947 1169 1205 825 
Q 1463 481 1925 481 
Q 2391 481 2648 825 
Q 2906 1169 2906 1791 
z
M 3481 434 
Q 3481 -459 3084 -895 
Q 2688 -1331 1869 -1331 
Q 1566 -1331 1297 -1286 
Q 1028 -1241 775 -1147 
L 775 -588 
Q 1028 -725 1275 -790 
Q 1522 -856 1778 -856 
Q 2344 -856 2625 -561 
Q 2906 -266 2906 331 
L 2906 616 
Q 2728 306 2450 153 
Q 2172 0 1784 0 
Q 1141 0 747 490 
Q 353 981 353 1791 
Q 353 2603 747 3093 
Q 1141 3584 1784 3584 
Q 2172 3584 2450 3431 
Q 2728 3278 2906 2969 
L 2906 3500 
L 3481 3500 
L 3481 434 
z
" transform="scale(0.015625)"/>
       <path id="DejaVuSans-22" d="M 1147 4666 
L 1147 2931 
L 616 2931 
L 616 4666 
L 1147 4666 
z
M 2328 4666 
L 2328 2931 
L 1797 2931 
L 1797 4666 
L 2328 4666 
z
" transform="scale(0.015625)"/>
       <path id="DejaVuSans-61" d="M 2194 1759 
Q 1497 1759 1228 1600 
Q 959 1441 959 1056 
Q 959 750 1161 570 
Q 1363 391 1709 391 
Q 2188 391 2477 730 
Q 2766 1069 2766 1631 
L 2766 1759 
L 2194 1759 
z
M 3341 1997 
L 3341 0 
L 2766 0 
L 2766 531 
Q 2569 213 2275 61 
Q 1981 -91 1556 -91 
Q 1019 -91 701 211 
Q 384 513 384 1019 
Q 384 1609 779 1909 
Q 1175 2209 1959 2209 
L 2766 2209 
L 2766 2266 
Q 2766 2663 2505 2880 
Q 2244 3097 1772 3097 
Q 1472 3097 1187 3025 
Q 903 2953 641 2809 
L 641 3341 
Q 956 3463 1253 3523 
Q 1550 3584 1831 3584 
Q 2591 3584 2966 3190 
Q 3341 2797 3341 1997 
z
" transform="scale(0.015625)"/>
       <path id="DejaVuSans-6d" d="M 3328 2828 
Q 3544 3216 3844 3400 
Q 4144 3584 4550 3584 
Q 5097 3584 5394 3201 
Q 5691 2819 5691 2113 
L 5691 0 
L 5113 0 
L 5113 2094 
Q 5113 2597 4934 2840 
Q 4756 3084 4391 3084 
Q 3944 3084 3684 2787 
Q 3425 2491 3425 1978 
L 3425 0 
L 2847 0 
L 2847 2094 
Q 2847 2600 2669 2842 
Q 2491 3084 2119 3084 
Q 1678 3084 1418 2786 
Q 1159 2488 1159 1978 
L 1159 0 
L 581 0 
L 581 3500 
L 1159 3500 
L 1159 2956 
Q 1356 3278 1631 3431 
Q 1906 3584 2284 3584 
Q 2666 3584 2933 3390 
Q 3200 3197 3328 2828 
z
" transform="scale(0.015625)"/>
       <path id="DejaVuSans-48" d="M 628 4666 
L 1259 4666 
L 1259 2753 
L 3553 2753 
L 3553 4666 
L 4184 4666 
L 4184 0 
L 3553 0 
L 3553 2222 
L 1259 2222 
L 1259 0 
L 628 0 
L 628 4666 
z
" transform="scale(0.015625)"/>
       <path id="DejaVuSans-29" d="M 513 4856 
L 1013 4856 
Q 1481 4119 1714 3412 
Q 1947 2706 1947 2009 
Q 1947 1309 1714 600 
Q 1481 -109 1013 -844 
L 513 -844 
Q 928 -128 1133 580 
Q 1338 1288 1338 2009 
Q 1338 2731 1133 3434 
Q 928 4138 513 4856 
z
" transform="scale(0.015625)"/>
      </defs>
      <use xlink:href="#DejaVuSans-28"/>
      <use xlink:href="#DejaVuSans-55" x="39.013672"/>
      <use xlink:href="#DejaVuSans-73" x="112.207031"/>
      <use xlink:href="#DejaVuSans-69" x="164.306641"/>
      <use xlink:href="#DejaVuSans-6e" x="192.089844"/>
      <use xlink:href="#DejaVuSans-67" x="255.46875"/>
      <use xlink:href="#DejaVuSans-20" x="318.945312"/>
      <use xlink:href="#DejaVuSans-22" x="350.732422"/>
      <use xlink:href="#DejaVuSans-72" x="396.728516"/>
      <use xlink:href="#DejaVuSans-61" x="437.841797"/>
      <use xlink:href="#DejaVuSans-6e" x="499.121094"/>
      <use xlink:href="#DejaVuSans-64" x="562.5"/>
      <use xlink:href="#DejaVuSans-6f" x="625.976562"/>
      <use xlink:href="#DejaVuSans-6d" x="687.158203"/>
      <use xlink:href="#DejaVuSans-22" x="784.570312"/>
      <use xlink:href="#DejaVuSans-20" x="830.566406"/>
      <use xlink:href="#DejaVuSans-54" x="862.353516"/>
      <use xlink:href="#DejaVuSans-68" x="923.4375"/>
      <use xlink:href="#DejaVuSans-72" x="986.816406"/>
      <use xlink:href="#DejaVuSans-65" x="1025.679688"/>
      <use xlink:href="#DejaVuSans-73" x="1087.203125"/>
      <use xlink:href="#DejaVuSans-68" x="1139.302734"/>
      <use xlink:href="#DejaVuSans-6f" x="1202.681641"/>
      <use xlink:href="#DejaVuSans-6c" x="1263.863281"/>
      <use xlink:href="#DejaVuSans-64" x="1291.646484"/>
      <use xlink:href="#DejaVuSans-20" x="1355.123047"/>
      <use xlink:href="#DejaVuSans-48" x="1386.910156"/>
      <use xlink:href="#DejaVuSans-61" x="1462.105469"/>
      <use xlink:href="#DejaVuSans-6e" x="1523.384766"/>
      <use xlink:href="#DejaVuSans-64" x="1586.763672"/>
      <use xlink:href="#DejaVuSans-6c" x="1650.240234"/>
      <use xlink:href="#DejaVuSans-69" x="1678.023438"/>
      <use xlink:href="#DejaVuSans-6e" x="1705.806641"/>
      <use xlink:href="#DejaVuSans-67" x="1769.185547"/>
      <use xlink:href="#DejaVuSans-29" x="1832.662109"/>
     </g>
    </g>
   </g>
   <g id="matplotlib.axis_2">
    <g id="ytick_1">
     <g id="line2d_6">
      <defs>
       <path id="md75dab8b7e" d="M 0 0 
L -3.5 0 
" style="stroke: #000000; stroke-width: 0.8"/>
      </defs>
      <g>
       <use xlink:href="#md75dab8b7e" x="80.3" y="467.548682" style="stroke: #000000; stroke-width: 0.8"/>
      </g>
     </g>
     <g id="text_7">
      <!-- 200 -->
      <g transform="translate(35.125 475.147119) scale(0.2 -0.2)">
       <use xlink:href="#DejaVuSans-32"/>
       <use xlink:href="#DejaVuSans-30" x="63.623047"/>
       <use xlink:href="#DejaVuSans-30" x="127.246094"/>
      </g>
     </g>
    </g>
    <g id="ytick_2">
     <g id="line2d_7">
      <g>
       <use xlink:href="#md75dab8b7e" x="80.3" y="384.965889" style="stroke: #000000; stroke-width: 0.8"/>
      </g>
     </g>
     <g id="text_8">
      <!-- 250 -->
      <g transform="translate(35.125 392.564326) scale(0.2 -0.2)">
       <defs>
        <path id="DejaVuSans-35" d="M 691 4666 
L 3169 4666 
L 3169 4134 
L 1269 4134 
L 1269 2991 
Q 1406 3038 1543 3061 
Q 1681 3084 1819 3084 
Q 2600 3084 3056 2656 
Q 3513 2228 3513 1497 
Q 3513 744 3044 326 
Q 2575 -91 1722 -91 
Q 1428 -91 1123 -41 
Q 819 9 494 109 
L 494 744 
Q 775 591 1075 516 
Q 1375 441 1709 441 
Q 2250 441 2565 725 
Q 2881 1009 2881 1497 
Q 2881 1984 2565 2268 
Q 2250 2553 1709 2553 
Q 1456 2553 1204 2497 
Q 953 2441 691 2322 
L 691 4666 
z
" transform="scale(0.015625)"/>
       </defs>
       <use xlink:href="#DejaVuSans-32"/>
       <use xlink:href="#DejaVuSans-35" x="63.623047"/>
       <use xlink:href="#DejaVuSans-30" x="127.246094"/>
      </g>
     </g>
    </g>
    <g id="ytick_3">
     <g id="line2d_8">
      <g>
       <use xlink:href="#md75dab8b7e" x="80.3" y="302.383096" style="stroke: #000000; stroke-width: 0.8"/>
      </g>
     </g>
     <g id="text_9">
      <!-- 300 -->
      <g transform="translate(35.125 309.981533) scale(0.2 -0.2)">
       <defs>
        <path id="DejaVuSans-33" d="M 2597 2516 
Q 3050 2419 3304 2112 
Q 3559 1806 3559 1356 
Q 3559 666 3084 287 
Q 2609 -91 1734 -91 
Q 1441 -91 1130 -33 
Q 819 25 488 141 
L 488 750 
Q 750 597 1062 519 
Q 1375 441 1716 441 
Q 2309 441 2620 675 
Q 2931 909 2931 1356 
Q 2931 1769 2642 2001 
Q 2353 2234 1838 2234 
L 1294 2234 
L 1294 2753 
L 1863 2753 
Q 2328 2753 2575 2939 
Q 2822 3125 2822 3475 
Q 2822 3834 2567 4026 
Q 2313 4219 1838 4219 
Q 1578 4219 1281 4162 
Q 984 4106 628 3988 
L 628 4550 
Q 988 4650 1302 4700 
Q 1616 4750 1894 4750 
Q 2613 4750 3031 4423 
Q 3450 4097 3450 3541 
Q 3450 3153 3228 2886 
Q 3006 2619 2597 2516 
z
" transform="scale(0.015625)"/>
       </defs>
       <use xlink:href="#DejaVuSans-33"/>
       <use xlink:href="#DejaVuSans-30" x="63.623047"/>
       <use xlink:href="#DejaVuSans-30" x="127.246094"/>
      </g>
     </g>
    </g>
    <g id="ytick_4">
     <g id="line2d_9">
      <g>
       <use xlink:href="#md75dab8b7e" x="80.3" y="219.800303" style="stroke: #000000; stroke-width: 0.8"/>
      </g>
     </g>
     <g id="text_10">
      <!-- 350 -->
      <g transform="translate(35.125 227.39874) scale(0.2 -0.2)">
       <use xlink:href="#DejaVuSans-33"/>
       <use xlink:href="#DejaVuSans-35" x="63.623047"/>
       <use xlink:href="#DejaVuSans-30" x="127.246094"/>
      </g>
     </g>
    </g>
    <g id="ytick_5">
     <g id="line2d_10">
      <g>
       <use xlink:href="#md75dab8b7e" x="80.3" y="137.21751" style="stroke: #000000; stroke-width: 0.8"/>
      </g>
     </g>
     <g id="text_11">
      <!-- 400 -->
      <g transform="translate(35.125 144.815947) scale(0.2 -0.2)">
       <use xlink:href="#DejaVuSans-34"/>
       <use xlink:href="#DejaVuSans-30" x="63.623047"/>
       <use xlink:href="#DejaVuSans-30" x="127.246094"/>
      </g>
     </g>
    </g>
    <g id="ytick_6">
     <g id="line2d_11">
      <g>
       <use xlink:href="#md75dab8b7e" x="80.3" y="54.634716" style="stroke: #000000; stroke-width: 0.8"/>
      </g>
     </g>
     <g id="text_12">
      <!-- 450 -->
      <g transform="translate(35.125 62.233154) scale(0.2 -0.2)">
       <use xlink:href="#DejaVuSans-34"/>
       <use xlink:href="#DejaVuSans-35" x="63.623047"/>
       <use xlink:href="#DejaVuSans-30" x="127.246094"/>
      </g>
     </g>
    </g>
    <g id="text_13">
     <!-- MSE -->
     <g transform="translate(26.965625 271.971313) rotate(-90) scale(0.2 -0.2)">
      <defs>
       <path id="DejaVuSans-4d" d="M 628 4666 
L 1569 4666 
L 2759 1491 
L 3956 4666 
L 4897 4666 
L 4897 0 
L 4281 0 
L 4281 4097 
L 3078 897 
L 2444 897 
L 1241 4097 
L 1241 0 
L 628 0 
L 628 4666 
z
" transform="scale(0.015625)"/>
       <path id="DejaVuSans-53" d="M 3425 4513 
L 3425 3897 
Q 3066 4069 2747 4153 
Q 2428 4238 2131 4238 
Q 1616 4238 1336 4038 
Q 1056 3838 1056 3469 
Q 1056 3159 1242 3001 
Q 1428 2844 1947 2747 
L 2328 2669 
Q 3034 2534 3370 2195 
Q 3706 1856 3706 1288 
Q 3706 609 3251 259 
Q 2797 -91 1919 -91 
Q 1588 -91 1214 -16 
Q 841 59 441 206 
L 441 856 
Q 825 641 1194 531 
Q 1563 422 1919 422 
Q 2459 422 2753 634 
Q 3047 847 3047 1241 
Q 3047 1584 2836 1778 
Q 2625 1972 2144 2069 
L 1759 2144 
Q 1053 2284 737 2584 
Q 422 2884 422 3419 
Q 422 4038 858 4394 
Q 1294 4750 2059 4750 
Q 2388 4750 2728 4690 
Q 3069 4631 3425 4513 
z
" transform="scale(0.015625)"/>
       <path id="DejaVuSans-45" d="M 628 4666 
L 3578 4666 
L 3578 4134 
L 1259 4134 
L 1259 2753 
L 3481 2753 
L 3481 2222 
L 1259 2222 
L 1259 531 
L 3634 531 
L 3634 0 
L 628 0 
L 628 4666 
z
" transform="scale(0.015625)"/>
      </defs>
      <use xlink:href="#DejaVuSans-4d"/>
      <use xlink:href="#DejaVuSans-53" x="86.279297"/>
      <use xlink:href="#DejaVuSans-45" x="149.755859"/>
     </g>
    </g>
   </g>
   <g id="line2d_12">
    <path d="M 128.522727 386.481571 
L 149.043037 407.150793 
L 169.563346 439.443263 
L 190.083656 433.577533 
L 210.603965 418.240244 
L 231.124275 429.663595 
L 251.644584 435.795514 
L 272.164894 426.111889 
L 292.685203 442.962714 
L 313.205513 421.85023 
L 333.725822 442.516894 
L 354.246132 427.240672 
L 374.766441 429.133282 
L 395.28675 444.719341 
L 415.80706 426.548969 
L 436.327369 448.41368 
L 456.847679 425.160578 
L 477.367988 443.639484 
L 497.888298 426.578305 
L 518.408607 436.091305 
L 538.928917 423.35569 
L 559.449226 438.420805 
L 579.969536 433.336353 
L 600.489845 438.322502 
L 621.010155 428.756944 
L 641.530464 416.974047 
L 662.050774 414.923824 
L 682.571083 427.732783 
L 703.091393 419.226854 
L 723.611702 425.096427 
L 744.132012 397.822742 
L 764.652321 430.368185 
L 785.172631 426.53307 
L 805.69294 426.96597 
L 826.21325 423.393238 
L 846.733559 416.690626 
L 867.253868 409.285577 
L 887.774178 425.590384 
L 908.294487 425.453517 
L 928.814797 429.89122 
L 949.335106 379.660403 
L 969.855416 405.117667 
L 990.375725 431.657553 
L 1010.896035 417.048906 
L 1031.416344 426.545906 
L 1051.936654 402.506312 
L 1072.456963 414.58041 
L 1092.977273 415.002535 
" clip-path="url(#p20cc067e3c)" style="fill: none; stroke: #1f77b4; stroke-width: 1.5; stroke-linecap: square"/>
   </g>
   <g id="line2d_13">
    <path d="M 128.522727 339.73743 
L 149.043037 388.253484 
L 169.563346 411.838517 
L 190.083656 417.547171 
L 210.603965 418.78602 
L 231.124275 418.182695 
L 251.644584 420.899325 
L 272.164894 421.668179 
L 292.685203 420.077063 
L 313.205513 417.616214 
L 333.725822 420.257952 
L 354.246132 416.677434 
L 374.766441 420.128389 
L 395.28675 427.956435 
L 415.80706 417.702422 
L 436.327369 417.747191 
L 456.847679 418.2967 
L 477.367988 423.541327 
L 497.888298 419.705876 
L 518.408607 422.761344 
L 538.928917 422.319684 
L 559.449226 428.284283 
L 579.969536 419.246337 
L 600.489845 421.047233 
L 621.010155 411.16223 
L 641.530464 424.569663 
L 662.050774 417.258973 
L 682.571083 408.880048 
L 703.091393 411.068241 
L 723.611702 417.239643 
L 744.132012 410.236505 
L 764.652321 415.238919 
L 785.172631 418.960266 
L 805.69294 412.265991 
L 826.21325 413.415553 
L 846.733559 422.93359 
L 867.253868 391.668317 
L 887.774178 414.529755 
L 908.294487 399.684183 
L 928.814797 427.050367 
L 949.335106 397.836753 
L 969.855416 409.830785 
L 990.375725 413.12582 
L 1010.896035 399.095337 
L 1031.416344 422.678475 
L 1051.936654 405.739858 
L 1072.456963 416.000669 
L 1092.977273 416.21142 
" clip-path="url(#p20cc067e3c)" style="fill: none; stroke: #ff7f0e; stroke-width: 1.5; stroke-linecap: square"/>
   </g>
   <g id="line2d_14">
    <path d="M 128.522727 388.645623 
L 149.043037 412.445986 
L 169.563346 427.844011 
L 190.083656 424.482834 
L 210.603965 414.96762 
L 231.124275 420.228258 
L 251.644584 404.741768 
L 272.164894 379.805339 
L 292.685203 394.631535 
L 313.205513 397.721171 
L 333.725822 395.7159 
L 354.246132 404.348613 
L 374.766441 391.64244 
L 395.28675 408.755152 
L 415.80706 374.606346 
L 436.327369 389.662489 
L 456.847679 377.7102 
L 477.367988 396.150575 
L 497.888298 391.763612 
L 518.408607 387.12958 
L 538.928917 398.34009 
L 559.449226 410.840609 
L 579.969536 392.544221 
L 600.489845 399.153451 
L 621.010155 384.004616 
L 641.530464 379.06694 
L 662.050774 376.03184 
L 682.571083 380.511779 
L 703.091393 394.752654 
L 723.611702 384.28326 
L 744.132012 388.035354 
L 764.652321 398.607244 
L 785.172631 391.021396 
L 805.69294 380.728915 
L 826.21325 373.341241 
L 846.733559 384.390174 
L 867.253868 363.735857 
L 887.774178 361.797607 
L 908.294487 372.590536 
L 928.814797 388.243996 
L 949.335106 370.515207 
L 969.855416 381.696472 
L 990.375725 399.533062 
L 1010.896035 365.151129 
L 1031.416344 384.512444 
L 1051.936654 371.769062 
L 1072.456963 380.706013 
L 1092.977273 383.680139 
" clip-path="url(#p20cc067e3c)" style="fill: none; stroke: #2ca02c; stroke-width: 1.5; stroke-linecap: square"/>
   </g>
   <g id="line2d_15">
    <path d="M 128.522727 108.002953 
L 149.043037 166.187806 
L 169.563346 205.972934 
L 190.083656 218.102353 
L 210.603965 238.117529 
L 231.124275 238.220785 
L 251.644584 237.498072 
L 272.164894 240.677176 
L 292.685203 238.696142 
L 313.205513 237.105227 
L 333.725822 240.080063 
L 354.246132 258.860684 
L 374.766441 234.017798 
L 395.28675 262.496187 
L 415.80706 246.236239 
L 436.327369 255.081542 
L 456.847679 260.568654 
L 477.367988 227.607005 
L 497.888298 177.406964 
L 518.408607 257.677445 
L 538.928917 255.026048 
L 559.449226 273.847222 
L 579.969536 295.090467 
L 600.489845 278.359566 
L 621.010155 255.699546 
L 641.530464 261.999984 
L 662.050774 268.050902 
L 682.571083 258.097252 
L 703.091393 262.675461 
L 723.611702 227.488348 
L 744.132012 252.171246 
L 764.652321 264.707823 
L 785.172631 229.655253 
L 805.69294 212.141858 
L 826.21325 214.884424 
L 846.733559 280.517489 
L 867.253868 168.903025 
L 887.774178 266.979571 
L 908.294487 209.125176 
L 928.814797 281.530462 
L 949.335106 246.346564 
L 969.855416 260.869445 
L 990.375725 255.040432 
L 1010.896035 222.009269 
L 1031.416344 277.06117 
L 1051.936654 241.829319 
L 1072.456963 244.523421 
L 1092.977273 286.585398 
" clip-path="url(#p20cc067e3c)" style="fill: none; stroke: #d62728; stroke-width: 1.5; stroke-linecap: square"/>
   </g>
   <g id="line2d_16"/>
   <g id="line2d_17"/>
   <g id="line2d_18"/>
   <g id="line2d_19"/>
   <g id="patch_3">
    <path d="M 80.3 490.552 
L 80.3 10.8 
" style="fill: none; stroke: #000000; stroke-width: 0.8; stroke-linejoin: miter; stroke-linecap: square"/>
   </g>
   <g id="patch_4">
    <path d="M 1141.2 490.552 
L 1141.2 10.8 
" style="fill: none; stroke: #000000; stroke-width: 0.8; stroke-linejoin: miter; stroke-linecap: square"/>
   </g>
   <g id="patch_5">
    <path d="M 80.3 490.552 
L 1141.2 490.552 
" style="fill: none; stroke: #000000; stroke-width: 0.8; stroke-linejoin: miter; stroke-linecap: square"/>
   </g>
   <g id="patch_6">
    <path d="M 80.3 10.8 
L 1141.2 10.8 
" style="fill: none; stroke: #000000; stroke-width: 0.8; stroke-linejoin: miter; stroke-linecap: square"/>
   </g>
   <g id="legend_1">
    <g id="patch_7">
     <path d="M 91.5 482.552 
L 261.245 482.552 
Q 264.445 482.552 264.445 479.352 
L 264.445 387.012 
Q 264.445 383.812 261.245 383.812 
L 91.5 383.812 
Q 88.3 383.812 88.3 387.012 
L 88.3 479.352 
Q 88.3 482.552 91.5 482.552 
z
" style="fill: #ffffff; opacity: 0.8; stroke: #cccccc; stroke-linejoin: miter"/>
    </g>
    <g id="line2d_20">
     <path d="M 94.7 396.7695 
L 110.7 396.7695 
L 126.7 396.7695 
" style="fill: none; stroke: #1f77b4; stroke-width: 1.5; stroke-linecap: square"/>
    </g>
    <g id="text_14">
     <!-- gbr -->
     <g transform="translate(139.5 402.3695) scale(0.16 -0.16)">
      <defs>
       <path id="DejaVuSans-62" d="M 3116 1747 
Q 3116 2381 2855 2742 
Q 2594 3103 2138 3103 
Q 1681 3103 1420 2742 
Q 1159 2381 1159 1747 
Q 1159 1113 1420 752 
Q 1681 391 2138 391 
Q 2594 391 2855 752 
Q 3116 1113 3116 1747 
z
M 1159 2969 
Q 1341 3281 1617 3432 
Q 1894 3584 2278 3584 
Q 2916 3584 3314 3078 
Q 3713 2572 3713 1747 
Q 3713 922 3314 415 
Q 2916 -91 2278 -91 
Q 1894 -91 1617 61 
Q 1341 213 1159 525 
L 1159 0 
L 581 0 
L 581 4863 
L 1159 4863 
L 1159 2969 
z
" transform="scale(0.015625)"/>
      </defs>
      <use xlink:href="#DejaVuSans-67"/>
      <use xlink:href="#DejaVuSans-62" x="63.476562"/>
      <use xlink:href="#DejaVuSans-72" x="126.953125"/>
     </g>
    </g>
    <g id="line2d_21">
     <path d="M 94.7 420.2545 
L 110.7 420.2545 
L 126.7 420.2545 
" style="fill: none; stroke: #ff7f0e; stroke-width: 1.5; stroke-linecap: square"/>
    </g>
    <g id="text_15">
     <!-- rf -->
     <g transform="translate(139.5 425.8545) scale(0.16 -0.16)">
      <defs>
       <path id="DejaVuSans-66" d="M 2375 4863 
L 2375 4384 
L 1825 4384 
Q 1516 4384 1395 4259 
Q 1275 4134 1275 3809 
L 1275 3500 
L 2222 3500 
L 2222 3053 
L 1275 3053 
L 1275 0 
L 697 0 
L 697 3053 
L 147 3053 
L 147 3500 
L 697 3500 
L 697 3744 
Q 697 4328 969 4595 
Q 1241 4863 1831 4863 
L 2375 4863 
z
" transform="scale(0.015625)"/>
      </defs>
      <use xlink:href="#DejaVuSans-72"/>
      <use xlink:href="#DejaVuSans-66" x="41.113281"/>
     </g>
    </g>
    <g id="line2d_22">
     <path d="M 94.7 443.7395 
L 110.7 443.7395 
L 126.7 443.7395 
" style="fill: none; stroke: #2ca02c; stroke-width: 1.5; stroke-linecap: square"/>
    </g>
    <g id="text_16">
     <!-- BayesianRidge -->
     <g transform="translate(139.5 449.3395) scale(0.16 -0.16)">
      <defs>
       <path id="DejaVuSans-42" d="M 1259 2228 
L 1259 519 
L 2272 519 
Q 2781 519 3026 730 
Q 3272 941 3272 1375 
Q 3272 1813 3026 2020 
Q 2781 2228 2272 2228 
L 1259 2228 
z
M 1259 4147 
L 1259 2741 
L 2194 2741 
Q 2656 2741 2882 2914 
Q 3109 3088 3109 3444 
Q 3109 3797 2882 3972 
Q 2656 4147 2194 4147 
L 1259 4147 
z
M 628 4666 
L 2241 4666 
Q 2963 4666 3353 4366 
Q 3744 4066 3744 3513 
Q 3744 3084 3544 2831 
Q 3344 2578 2956 2516 
Q 3422 2416 3680 2098 
Q 3938 1781 3938 1306 
Q 3938 681 3513 340 
Q 3088 0 2303 0 
L 628 0 
L 628 4666 
z
" transform="scale(0.015625)"/>
       <path id="DejaVuSans-79" d="M 2059 -325 
Q 1816 -950 1584 -1140 
Q 1353 -1331 966 -1331 
L 506 -1331 
L 506 -850 
L 844 -850 
Q 1081 -850 1212 -737 
Q 1344 -625 1503 -206 
L 1606 56 
L 191 3500 
L 800 3500 
L 1894 763 
L 2988 3500 
L 3597 3500 
L 2059 -325 
z
" transform="scale(0.015625)"/>
       <path id="DejaVuSans-52" d="M 2841 2188 
Q 3044 2119 3236 1894 
Q 3428 1669 3622 1275 
L 4263 0 
L 3584 0 
L 2988 1197 
Q 2756 1666 2539 1819 
Q 2322 1972 1947 1972 
L 1259 1972 
L 1259 0 
L 628 0 
L 628 4666 
L 2053 4666 
Q 2853 4666 3247 4331 
Q 3641 3997 3641 3322 
Q 3641 2881 3436 2590 
Q 3231 2300 2841 2188 
z
M 1259 4147 
L 1259 2491 
L 2053 2491 
Q 2509 2491 2742 2702 
Q 2975 2913 2975 3322 
Q 2975 3731 2742 3939 
Q 2509 4147 2053 4147 
L 1259 4147 
z
" transform="scale(0.015625)"/>
      </defs>
      <use xlink:href="#DejaVuSans-42"/>
      <use xlink:href="#DejaVuSans-61" x="68.603516"/>
      <use xlink:href="#DejaVuSans-79" x="129.882812"/>
      <use xlink:href="#DejaVuSans-65" x="189.0625"/>
      <use xlink:href="#DejaVuSans-73" x="250.585938"/>
      <use xlink:href="#DejaVuSans-69" x="302.685547"/>
      <use xlink:href="#DejaVuSans-61" x="330.46875"/>
      <use xlink:href="#DejaVuSans-6e" x="391.748047"/>
      <use xlink:href="#DejaVuSans-52" x="455.126953"/>
      <use xlink:href="#DejaVuSans-69" x="524.609375"/>
      <use xlink:href="#DejaVuSans-64" x="552.392578"/>
      <use xlink:href="#DejaVuSans-67" x="615.869141"/>
      <use xlink:href="#DejaVuSans-65" x="679.345703"/>
     </g>
    </g>
    <g id="line2d_23">
     <path d="M 94.7 467.2245 
L 110.7 467.2245 
L 126.7 467.2245 
" style="fill: none; stroke: #d62728; stroke-width: 1.5; stroke-linecap: square"/>
    </g>
    <g id="text_17">
     <!-- xgb -->
     <g transform="translate(139.5 472.8245) scale(0.16 -0.16)">
      <defs>
       <path id="DejaVuSans-78" d="M 3513 3500 
L 2247 1797 
L 3578 0 
L 2900 0 
L 1881 1375 
L 863 0 
L 184 0 
L 1544 1831 
L 300 3500 
L 978 3500 
L 1906 2253 
L 2834 3500 
L 3513 3500 
z
" transform="scale(0.015625)"/>
      </defs>
      <use xlink:href="#DejaVuSans-78"/>
      <use xlink:href="#DejaVuSans-67" x="59.179688"/>
      <use xlink:href="#DejaVuSans-62" x="122.65625"/>
     </g>
    </g>
   </g>
  </g>
 </g>
 <defs>
  <clipPath id="p20cc067e3c">
   <rect x="80.3" y="10.8" width="1060.9" height="479.752"/>
  </clipPath>
 </defs>
</svg>
