<?xml version="1.0" encoding="utf-8" standalone="no"?>
<!DOCTYPE svg PUBLIC "-//W3C//DTD SVG 1.1//EN"
  "http://www.w3.org/Graphics/SVG/1.1/DTD/svg11.dtd">
<svg xmlns:xlink="http://www.w3.org/1999/xlink" width="1152pt" height="576pt" viewBox="0 0 1152 576" xmlns="http://www.w3.org/2000/svg" version="1.1">
 <metadata>
  <rdf:RDF xmlns:dc="http://purl.org/dc/elements/1.1/" xmlns:cc="http://creativecommons.org/ns#" xmlns:rdf="http://www.w3.org/1999/02/22-rdf-syntax-ns#">
   <cc:Work>
    <dc:type rdf:resource="http://purl.org/dc/dcmitype/StillImage"/>
    <dc:date>2024-10-22T20:57:11.741130</dc:date>
    <dc:format>image/svg+xml</dc:format>
    <dc:creator>
     <cc:Agent>
      <dc:title>Matplotlib v3.9.2, https://matplotlib.org/</dc:title>
     </cc:Agent>
    </dc:creator>
   </cc:Work>
  </rdf:RDF>
 </metadata>
 <defs>
  <style type="text/css">*{stroke-linejoin: round; stroke-linecap: butt}</style>
 </defs>
 <g id="figure_1">
  <g id="patch_1">
   <path d="M 0 576 
L 1152 576 
L 1152 0 
L 0 0 
z
" style="fill: #ffffff"/>
  </g>
  <g id="axes_1">
   <g id="patch_2">
    <path d="M 73.91 490.552 
L 1141.2 490.552 
L 1141.2 10.8 
L 73.91 10.8 
z
" style="fill: #ffffff"/>
   </g>
   <g id="PolyCollection_1">
    <defs>
     <path id="m4eaa32c301" d="M 122.423182 -538.160121 
L 122.423182 -532.76362 
L 143.067089 -522.987687 
L 163.710996 -529.253851 
L 184.354903 -526.945486 
L 204.99881 -526.699522 
L 225.642718 -511.576434 
L 246.286625 -508.677248 
L 266.930532 -503.23736 
L 287.574439 -510.94628 
L 308.218346 -490.224306 
L 328.862253 -508.213257 
L 349.506161 -509.391486 
L 370.150068 -516.52383 
L 390.793975 -520.906761 
L 411.437882 -527.092125 
L 432.081789 -527.774851 
L 452.725696 -525.286819 
L 473.369603 -525.286819 
L 494.013511 -524.531501 
L 514.657418 -533.111597 
L 535.301325 -526.64087 
L 555.945232 -520.417826 
L 576.589139 -503.195217 
L 597.233046 -496.124113 
L 597.233046 -520.565968 
L 597.233046 -520.565968 
L 576.589139 -525.73365 
L 555.945232 -532.267943 
L 535.301325 -530.590553 
L 514.657418 -533.164368 
L 494.013511 -533.635797 
L 473.369603 -533.820051 
L 452.725696 -533.820051 
L 432.081789 -533.433725 
L 411.437882 -531.617475 
L 390.793975 -531.820745 
L 370.150068 -528.071389 
L 349.506161 -529.698962 
L 328.862253 -529.474484 
L 308.218346 -524.277376 
L 287.574439 -531.002213 
L 266.930532 -527.228592 
L 246.286625 -531.550641 
L 225.642718 -534.26107 
L 204.99881 -535.252437 
L 184.354903 -537.562194 
L 163.710996 -534.025032 
L 143.067089 -539.169246 
L 122.423182 -538.160121 
z
" style="stroke: #1f77b4; stroke-opacity: 0.2"/>
    </defs>
    <g clip-path="url(#p15a39b8edd)">
     <use xlink:href="#m4eaa32c301" x="0" y="576" style="fill: #1f77b4; fill-opacity: 0.2; stroke: #1f77b4; stroke-opacity: 0.2"/>
    </g>
   </g>
   <g id="PolyCollection_2">
    <defs>
     <path id="m591111b129" d="M 122.423182 -538.509735 
L 122.423182 -533.907993 
L 143.067089 -529.855476 
L 163.710996 -527.457843 
L 184.354903 -522.358498 
L 204.99881 -511.423922 
L 225.642718 -503.628496 
L 246.286625 -473.672025 
L 266.930532 -488.55657 
L 287.574439 -469.454958 
L 308.218346 -482.579647 
L 328.862253 -460.254545 
L 349.506161 -453.042459 
L 370.150068 -434.618198 
L 390.793975 -361.928305 
L 411.437882 -336.539911 
L 432.081789 -323.210125 
L 452.725696 -318.450905 
L 473.369603 -348.868863 
L 494.013511 -286.60149 
L 514.657418 -298.29147 
L 535.301325 -290.517639 
L 555.945232 -301.303645 
L 576.589139 -313.761352 
L 597.233046 -334.53552 
L 617.876954 -209.975896 
L 638.520861 -179.979013 
L 659.164768 -209.319904 
L 679.808675 -216.496051 
L 700.452582 -221.303363 
L 721.096489 -203.938907 
L 741.740397 -201.78547 
L 762.384304 -188.003247 
L 783.028211 -202.590951 
L 803.672118 -195.139982 
L 824.316025 -135.885543 
L 844.959932 -132.064607 
L 865.603839 -107.254909 
L 886.247747 -176.916336 
L 886.247747 -248.752107 
L 886.247747 -248.752107 
L 865.603839 -205.512563 
L 844.959932 -290.588229 
L 824.316025 -286.380105 
L 803.672118 -312.127458 
L 783.028211 -351.97468 
L 762.384304 -334.900872 
L 741.740397 -361.065813 
L 721.096489 -361.125839 
L 700.452582 -357.135853 
L 679.808675 -355.418094 
L 659.164768 -353.920699 
L 638.520861 -388.092147 
L 617.876954 -389.476978 
L 597.233046 -426.197413 
L 576.589139 -359.287526 
L 555.945232 -426.13384 
L 535.301325 -435.906705 
L 514.657418 -448.407209 
L 494.013511 -435.310168 
L 473.369603 -443.729387 
L 452.725696 -438.331701 
L 432.081789 -477.374191 
L 411.437882 -479.226534 
L 390.793975 -487.565976 
L 370.150068 -488.554824 
L 349.506161 -493.094559 
L 328.862253 -486.635475 
L 308.218346 -501.676287 
L 287.574439 -506.651769 
L 266.930532 -514.621906 
L 246.286625 -515.03299 
L 225.642718 -517.08608 
L 204.99881 -521.818914 
L 184.354903 -529.83139 
L 163.710996 -531.220377 
L 143.067089 -536.239344 
L 122.423182 -538.509735 
z
" style="stroke: #ff7f0e; stroke-opacity: 0.2"/>
    </defs>
    <g clip-path="url(#p15a39b8edd)">
     <use xlink:href="#m591111b129" x="0" y="576" style="fill: #ff7f0e; fill-opacity: 0.2; stroke: #ff7f0e; stroke-opacity: 0.2"/>
    </g>
   </g>
   <g id="PolyCollection_3">
    <defs>
     <path id="m639144fae5" d="M 122.423182 -537.839709 
L 122.423182 -531.823187 
L 143.067089 -529.624289 
L 163.710996 -535.413465 
L 184.354903 -531.110838 
L 204.99881 -532.835446 
L 225.642718 -532.414178 
L 246.286625 -535.406615 
L 266.930532 -536.080663 
L 287.574439 -535.853441 
L 308.218346 -534.746358 
L 328.862253 -538.201917 
L 349.506161 -536.648851 
L 370.150068 -534.270568 
L 390.793975 -534.346192 
L 411.437882 -533.905533 
L 432.081789 -534.491839 
L 452.725696 -533.924224 
L 473.369603 -533.645242 
L 494.013511 -532.804236 
L 514.657418 -533.069806 
L 535.301325 -532.664416 
L 555.945232 -532.172353 
L 576.589139 -532.910134 
L 597.233046 -532.222394 
L 617.876954 -532.578847 
L 638.520861 -532.46959 
L 659.164768 -528.591905 
L 679.808675 -528.22807 
L 700.452582 -528.182642 
L 721.096489 -527.859741 
L 741.740397 -528.847081 
L 762.384304 -527.232043 
L 783.028211 -527.321011 
L 803.672118 -529.572224 
L 824.316025 -525.481146 
L 844.959932 -526.055061 
L 865.603839 -527.776476 
L 886.247747 -528.410766 
L 906.891654 -529.897908 
L 927.535561 -523.805756 
L 948.179468 -522.144654 
L 968.823375 -523.168681 
L 989.467282 -523.045721 
L 1010.11119 -522.644996 
L 1030.755097 -522.993042 
L 1051.399004 -522.891165 
L 1072.042911 -522.885858 
L 1092.686818 -522.02073 
L 1092.686818 -533.587334 
L 1092.686818 -533.587334 
L 1072.042911 -534.037896 
L 1051.399004 -534.047224 
L 1030.755097 -533.709976 
L 1010.11119 -533.326823 
L 989.467282 -533.176303 
L 968.823375 -533.663304 
L 948.179468 -533.017145 
L 927.535561 -534.010542 
L 906.891654 -536.248162 
L 886.247747 -537.768693 
L 865.603839 -535.595885 
L 844.959932 -535.942101 
L 824.316025 -536.220274 
L 803.672118 -535.32553 
L 783.028211 -534.42046 
L 762.384304 -533.876645 
L 741.740397 -537.845879 
L 721.096489 -536.403027 
L 700.452582 -537.125528 
L 679.808675 -537.299276 
L 659.164768 -538.520458 
L 638.520861 -538.462397 
L 617.876954 -539.628169 
L 597.233046 -538.415001 
L 576.589139 -537.935934 
L 555.945232 -538.7206 
L 535.301325 -538.515434 
L 514.657418 -542.270197 
L 494.013511 -541.059651 
L 473.369603 -543.300487 
L 452.725696 -543.393091 
L 432.081789 -540.361302 
L 411.437882 -540.594957 
L 390.793975 -540.558712 
L 370.150068 -542.780526 
L 349.506161 -540.469136 
L 328.862253 -541.157408 
L 308.218346 -538.354139 
L 287.574439 -540.10533 
L 266.930532 -539.876115 
L 246.286625 -538.257199 
L 225.642718 -536.27381 
L 204.99881 -538.535902 
L 184.354903 -537.925344 
L 163.710996 -539.631506 
L 143.067089 -536.569071 
L 122.423182 -537.839709 
z
" style="stroke: #2ca02c; stroke-opacity: 0.2"/>
    </defs>
    <g clip-path="url(#p15a39b8edd)">
     <use xlink:href="#m639144fae5" x="0" y="576" style="fill: #2ca02c; fill-opacity: 0.2; stroke: #2ca02c; stroke-opacity: 0.2"/>
    </g>
   </g>
   <g id="PolyCollection_4">
    <defs>
     <path id="m6c3e6c8c1e" d="M 122.423182 -537.228996 
L 122.423182 -532.692769 
L 143.067089 -534.800897 
L 163.710996 -536.712587 
L 184.354903 -534.132079 
L 204.99881 -535.222038 
L 225.642718 -531.066687 
L 246.286625 -534.516155 
L 266.930532 -535.57945 
L 287.574439 -533.456094 
L 308.218346 -535.799486 
L 328.862253 -537.232883 
L 349.506161 -535.989149 
L 370.150068 -534.919637 
L 390.793975 -536.782569 
L 411.437882 -535.884306 
L 432.081789 -536.913253 
L 452.725696 -538.811046 
L 473.369603 -535.741018 
L 494.013511 -537.73208 
L 514.657418 -537.868273 
L 535.301325 -536.313464 
L 555.945232 -535.895598 
L 576.589139 -535.038507 
L 597.233046 -537.512854 
L 617.876954 -538.574601 
L 638.520861 -532.825336 
L 659.164768 -533.200181 
L 679.808675 -534.399435 
L 700.452582 -535.973577 
L 721.096489 -532.229026 
L 741.740397 -535.441089 
L 762.384304 -536.904575 
L 783.028211 -534.090841 
L 803.672118 -537.59869 
L 824.316025 -536.388248 
L 844.959932 -535.822074 
L 865.603839 -536.213306 
L 886.247747 -537.183543 
L 906.891654 -533.537891 
L 927.535561 -535.064536 
L 948.179468 -536.711279 
L 968.823375 -535.297685 
L 989.467282 -536.300287 
L 1010.11119 -532.321097 
L 1030.755097 -535.536889 
L 1051.399004 -535.227868 
L 1072.042911 -536.568019 
L 1092.686818 -534.947978 
L 1092.686818 -538.328952 
L 1092.686818 -538.328952 
L 1072.042911 -539.483871 
L 1051.399004 -538.31229 
L 1030.755097 -538.995226 
L 1010.11119 -538.689588 
L 989.467282 -538.354403 
L 968.823375 -539.915238 
L 948.179468 -539.61184 
L 927.535561 -538.103238 
L 906.891654 -536.989543 
L 886.247747 -541.090367 
L 865.603839 -539.933896 
L 844.959932 -539.787939 
L 824.316025 -538.683749 
L 803.672118 -539.415368 
L 783.028211 -540.347761 
L 762.384304 -540.158516 
L 741.740397 -540.637158 
L 721.096489 -540.142512 
L 700.452582 -539.370101 
L 679.808675 -539.625418 
L 659.164768 -538.001589 
L 638.520861 -539.727529 
L 617.876954 -540.150512 
L 597.233046 -540.745135 
L 576.589139 -539.473194 
L 555.945232 -541.037374 
L 535.301325 -540.322036 
L 514.657418 -541.134612 
L 494.013511 -540.956497 
L 473.369603 -539.184944 
L 452.725696 -541.173726 
L 432.081789 -540.842458 
L 411.437882 -540.836586 
L 390.793975 -540.574115 
L 370.150068 -541.364015 
L 349.506161 -540.133113 
L 328.862253 -540.296688 
L 308.218346 -540.813634 
L 287.574439 -540.104115 
L 266.930532 -540.882932 
L 246.286625 -538.471649 
L 225.642718 -538.714394 
L 204.99881 -540.011968 
L 184.354903 -538.757535 
L 163.710996 -539.375434 
L 143.067089 -539.280042 
L 122.423182 -537.228996 
z
" style="stroke: #d62728; stroke-opacity: 0.2"/>
    </defs>
    <g clip-path="url(#p15a39b8edd)">
     <use xlink:href="#m6c3e6c8c1e" x="0" y="576" style="fill: #d62728; fill-opacity: 0.2; stroke: #d62728; stroke-opacity: 0.2"/>
    </g>
   </g>
   <g id="matplotlib.axis_1">
    <g id="xtick_1">
     <g id="line2d_1">
      <defs>
       <path id="m2dc63f61d4" d="M 0 0 
L 0 3.5 
" style="stroke: #000000; stroke-width: 0.8"/>
      </defs>
      <g>
       <use xlink:href="#m2dc63f61d4" x="112.101228" y="490.552" style="stroke: #000000; stroke-width: 0.8"/>
      </g>
     </g>
     <g id="text_1">
      <!-- 0 -->
      <g transform="translate(105.738728 512.748875) scale(0.2 -0.2)">
       <defs>
        <path id="DejaVuSans-30" d="M 2034 4250 
Q 1547 4250 1301 3770 
Q 1056 3291 1056 2328 
Q 1056 1369 1301 889 
Q 1547 409 2034 409 
Q 2525 409 2770 889 
Q 3016 1369 3016 2328 
Q 3016 3291 2770 3770 
Q 2525 4250 2034 4250 
z
M 2034 4750 
Q 2819 4750 3233 4129 
Q 3647 3509 3647 2328 
Q 3647 1150 3233 529 
Q 2819 -91 2034 -91 
Q 1250 -91 836 529 
Q 422 1150 422 2328 
Q 422 3509 836 4129 
Q 1250 4750 2034 4750 
z
" transform="scale(0.015625)"/>
       </defs>
       <use xlink:href="#DejaVuSans-30"/>
      </g>
     </g>
    </g>
    <g id="xtick_2">
     <g id="line2d_2">
      <g>
       <use xlink:href="#m2dc63f61d4" x="318.5403" y="490.552" style="stroke: #000000; stroke-width: 0.8"/>
      </g>
     </g>
     <g id="text_2">
      <!-- 20 -->
      <g transform="translate(305.8153 512.748875) scale(0.2 -0.2)">
       <defs>
        <path id="DejaVuSans-32" d="M 1228 531 
L 3431 531 
L 3431 0 
L 469 0 
L 469 531 
Q 828 903 1448 1529 
Q 2069 2156 2228 2338 
Q 2531 2678 2651 2914 
Q 2772 3150 2772 3378 
Q 2772 3750 2511 3984 
Q 2250 4219 1831 4219 
Q 1534 4219 1204 4116 
Q 875 4013 500 3803 
L 500 4441 
Q 881 4594 1212 4672 
Q 1544 4750 1819 4750 
Q 2544 4750 2975 4387 
Q 3406 4025 3406 3419 
Q 3406 3131 3298 2873 
Q 3191 2616 2906 2266 
Q 2828 2175 2409 1742 
Q 1991 1309 1228 531 
z
" transform="scale(0.015625)"/>
       </defs>
       <use xlink:href="#DejaVuSans-32"/>
       <use xlink:href="#DejaVuSans-30" x="63.623047"/>
      </g>
     </g>
    </g>
    <g id="xtick_3">
     <g id="line2d_3">
      <g>
       <use xlink:href="#m2dc63f61d4" x="524.979371" y="490.552" style="stroke: #000000; stroke-width: 0.8"/>
      </g>
     </g>
     <g id="text_3">
      <!-- 40 -->
      <g transform="translate(512.254371 512.748875) scale(0.2 -0.2)">
       <defs>
        <path id="DejaVuSans-34" d="M 2419 4116 
L 825 1625 
L 2419 1625 
L 2419 4116 
z
M 2253 4666 
L 3047 4666 
L 3047 1625 
L 3713 1625 
L 3713 1100 
L 3047 1100 
L 3047 0 
L 2419 0 
L 2419 1100 
L 313 1100 
L 313 1709 
L 2253 4666 
z
" transform="scale(0.015625)"/>
       </defs>
       <use xlink:href="#DejaVuSans-34"/>
       <use xlink:href="#DejaVuSans-30" x="63.623047"/>
      </g>
     </g>
    </g>
    <g id="xtick_4">
     <g id="line2d_4">
      <g>
       <use xlink:href="#m2dc63f61d4" x="731.418443" y="490.552" style="stroke: #000000; stroke-width: 0.8"/>
      </g>
     </g>
     <g id="text_4">
      <!-- 60 -->
      <g transform="translate(718.693443 512.748875) scale(0.2 -0.2)">
       <defs>
        <path id="DejaVuSans-36" d="M 2113 2584 
Q 1688 2584 1439 2293 
Q 1191 2003 1191 1497 
Q 1191 994 1439 701 
Q 1688 409 2113 409 
Q 2538 409 2786 701 
Q 3034 994 3034 1497 
Q 3034 2003 2786 2293 
Q 2538 2584 2113 2584 
z
M 3366 4563 
L 3366 3988 
Q 3128 4100 2886 4159 
Q 2644 4219 2406 4219 
Q 1781 4219 1451 3797 
Q 1122 3375 1075 2522 
Q 1259 2794 1537 2939 
Q 1816 3084 2150 3084 
Q 2853 3084 3261 2657 
Q 3669 2231 3669 1497 
Q 3669 778 3244 343 
Q 2819 -91 2113 -91 
Q 1303 -91 875 529 
Q 447 1150 447 2328 
Q 447 3434 972 4092 
Q 1497 4750 2381 4750 
Q 2619 4750 2861 4703 
Q 3103 4656 3366 4563 
z
" transform="scale(0.015625)"/>
       </defs>
       <use xlink:href="#DejaVuSans-36"/>
       <use xlink:href="#DejaVuSans-30" x="63.623047"/>
      </g>
     </g>
    </g>
    <g id="xtick_5">
     <g id="line2d_5">
      <g>
       <use xlink:href="#m2dc63f61d4" x="937.857515" y="490.552" style="stroke: #000000; stroke-width: 0.8"/>
      </g>
     </g>
     <g id="text_5">
      <!-- 80 -->
      <g transform="translate(925.132515 512.748875) scale(0.2 -0.2)">
       <defs>
        <path id="DejaVuSans-38" d="M 2034 2216 
Q 1584 2216 1326 1975 
Q 1069 1734 1069 1313 
Q 1069 891 1326 650 
Q 1584 409 2034 409 
Q 2484 409 2743 651 
Q 3003 894 3003 1313 
Q 3003 1734 2745 1975 
Q 2488 2216 2034 2216 
z
M 1403 2484 
Q 997 2584 770 2862 
Q 544 3141 544 3541 
Q 544 4100 942 4425 
Q 1341 4750 2034 4750 
Q 2731 4750 3128 4425 
Q 3525 4100 3525 3541 
Q 3525 3141 3298 2862 
Q 3072 2584 2669 2484 
Q 3125 2378 3379 2068 
Q 3634 1759 3634 1313 
Q 3634 634 3220 271 
Q 2806 -91 2034 -91 
Q 1263 -91 848 271 
Q 434 634 434 1313 
Q 434 1759 690 2068 
Q 947 2378 1403 2484 
z
M 1172 3481 
Q 1172 3119 1398 2916 
Q 1625 2713 2034 2713 
Q 2441 2713 2670 2916 
Q 2900 3119 2900 3481 
Q 2900 3844 2670 4047 
Q 2441 4250 2034 4250 
Q 1625 4250 1398 4047 
Q 1172 3844 1172 3481 
z
" transform="scale(0.015625)"/>
       </defs>
       <use xlink:href="#DejaVuSans-38"/>
       <use xlink:href="#DejaVuSans-30" x="63.623047"/>
      </g>
     </g>
    </g>
    <g id="text_6">
     <!-- Percentile Threshold -->
     <g transform="translate(505.775312 536.105125) scale(0.2 -0.2)">
      <defs>
       <path id="DejaVuSans-50" d="M 1259 4147 
L 1259 2394 
L 2053 2394 
Q 2494 2394 2734 2622 
Q 2975 2850 2975 3272 
Q 2975 3691 2734 3919 
Q 2494 4147 2053 4147 
L 1259 4147 
z
M 628 4666 
L 2053 4666 
Q 2838 4666 3239 4311 
Q 3641 3956 3641 3272 
Q 3641 2581 3239 2228 
Q 2838 1875 2053 1875 
L 1259 1875 
L 1259 0 
L 628 0 
L 628 4666 
z
" transform="scale(0.015625)"/>
       <path id="DejaVuSans-65" d="M 3597 1894 
L 3597 1613 
L 953 1613 
Q 991 1019 1311 708 
Q 1631 397 2203 397 
Q 2534 397 2845 478 
Q 3156 559 3463 722 
L 3463 178 
Q 3153 47 2828 -22 
Q 2503 -91 2169 -91 
Q 1331 -91 842 396 
Q 353 884 353 1716 
Q 353 2575 817 3079 
Q 1281 3584 2069 3584 
Q 2775 3584 3186 3129 
Q 3597 2675 3597 1894 
z
M 3022 2063 
Q 3016 2534 2758 2815 
Q 2500 3097 2075 3097 
Q 1594 3097 1305 2825 
Q 1016 2553 972 2059 
L 3022 2063 
z
" transform="scale(0.015625)"/>
       <path id="DejaVuSans-72" d="M 2631 2963 
Q 2534 3019 2420 3045 
Q 2306 3072 2169 3072 
Q 1681 3072 1420 2755 
Q 1159 2438 1159 1844 
L 1159 0 
L 581 0 
L 581 3500 
L 1159 3500 
L 1159 2956 
Q 1341 3275 1631 3429 
Q 1922 3584 2338 3584 
Q 2397 3584 2469 3576 
Q 2541 3569 2628 3553 
L 2631 2963 
z
" transform="scale(0.015625)"/>
       <path id="DejaVuSans-63" d="M 3122 3366 
L 3122 2828 
Q 2878 2963 2633 3030 
Q 2388 3097 2138 3097 
Q 1578 3097 1268 2742 
Q 959 2388 959 1747 
Q 959 1106 1268 751 
Q 1578 397 2138 397 
Q 2388 397 2633 464 
Q 2878 531 3122 666 
L 3122 134 
Q 2881 22 2623 -34 
Q 2366 -91 2075 -91 
Q 1284 -91 818 406 
Q 353 903 353 1747 
Q 353 2603 823 3093 
Q 1294 3584 2113 3584 
Q 2378 3584 2631 3529 
Q 2884 3475 3122 3366 
z
" transform="scale(0.015625)"/>
       <path id="DejaVuSans-6e" d="M 3513 2113 
L 3513 0 
L 2938 0 
L 2938 2094 
Q 2938 2591 2744 2837 
Q 2550 3084 2163 3084 
Q 1697 3084 1428 2787 
Q 1159 2491 1159 1978 
L 1159 0 
L 581 0 
L 581 3500 
L 1159 3500 
L 1159 2956 
Q 1366 3272 1645 3428 
Q 1925 3584 2291 3584 
Q 2894 3584 3203 3211 
Q 3513 2838 3513 2113 
z
" transform="scale(0.015625)"/>
       <path id="DejaVuSans-74" d="M 1172 4494 
L 1172 3500 
L 2356 3500 
L 2356 3053 
L 1172 3053 
L 1172 1153 
Q 1172 725 1289 603 
Q 1406 481 1766 481 
L 2356 481 
L 2356 0 
L 1766 0 
Q 1100 0 847 248 
Q 594 497 594 1153 
L 594 3053 
L 172 3053 
L 172 3500 
L 594 3500 
L 594 4494 
L 1172 4494 
z
" transform="scale(0.015625)"/>
       <path id="DejaVuSans-69" d="M 603 3500 
L 1178 3500 
L 1178 0 
L 603 0 
L 603 3500 
z
M 603 4863 
L 1178 4863 
L 1178 4134 
L 603 4134 
L 603 4863 
z
" transform="scale(0.015625)"/>
       <path id="DejaVuSans-6c" d="M 603 4863 
L 1178 4863 
L 1178 0 
L 603 0 
L 603 4863 
z
" transform="scale(0.015625)"/>
       <path id="DejaVuSans-20" transform="scale(0.015625)"/>
       <path id="DejaVuSans-54" d="M -19 4666 
L 3928 4666 
L 3928 4134 
L 2272 4134 
L 2272 0 
L 1638 0 
L 1638 4134 
L -19 4134 
L -19 4666 
z
" transform="scale(0.015625)"/>
       <path id="DejaVuSans-68" d="M 3513 2113 
L 3513 0 
L 2938 0 
L 2938 2094 
Q 2938 2591 2744 2837 
Q 2550 3084 2163 3084 
Q 1697 3084 1428 2787 
Q 1159 2491 1159 1978 
L 1159 0 
L 581 0 
L 581 4863 
L 1159 4863 
L 1159 2956 
Q 1366 3272 1645 3428 
Q 1925 3584 2291 3584 
Q 2894 3584 3203 3211 
Q 3513 2838 3513 2113 
z
" transform="scale(0.015625)"/>
       <path id="DejaVuSans-73" d="M 2834 3397 
L 2834 2853 
Q 2591 2978 2328 3040 
Q 2066 3103 1784 3103 
Q 1356 3103 1142 2972 
Q 928 2841 928 2578 
Q 928 2378 1081 2264 
Q 1234 2150 1697 2047 
L 1894 2003 
Q 2506 1872 2764 1633 
Q 3022 1394 3022 966 
Q 3022 478 2636 193 
Q 2250 -91 1575 -91 
Q 1294 -91 989 -36 
Q 684 19 347 128 
L 347 722 
Q 666 556 975 473 
Q 1284 391 1588 391 
Q 1994 391 2212 530 
Q 2431 669 2431 922 
Q 2431 1156 2273 1281 
Q 2116 1406 1581 1522 
L 1381 1569 
Q 847 1681 609 1914 
Q 372 2147 372 2553 
Q 372 3047 722 3315 
Q 1072 3584 1716 3584 
Q 2034 3584 2315 3537 
Q 2597 3491 2834 3397 
z
" transform="scale(0.015625)"/>
       <path id="DejaVuSans-6f" d="M 1959 3097 
Q 1497 3097 1228 2736 
Q 959 2375 959 1747 
Q 959 1119 1226 758 
Q 1494 397 1959 397 
Q 2419 397 2687 759 
Q 2956 1122 2956 1747 
Q 2956 2369 2687 2733 
Q 2419 3097 1959 3097 
z
M 1959 3584 
Q 2709 3584 3137 3096 
Q 3566 2609 3566 1747 
Q 3566 888 3137 398 
Q 2709 -91 1959 -91 
Q 1206 -91 779 398 
Q 353 888 353 1747 
Q 353 2609 779 3096 
Q 1206 3584 1959 3584 
z
" transform="scale(0.015625)"/>
       <path id="DejaVuSans-64" d="M 2906 2969 
L 2906 4863 
L 3481 4863 
L 3481 0 
L 2906 0 
L 2906 525 
Q 2725 213 2448 61 
Q 2172 -91 1784 -91 
Q 1150 -91 751 415 
Q 353 922 353 1747 
Q 353 2572 751 3078 
Q 1150 3584 1784 3584 
Q 2172 3584 2448 3432 
Q 2725 3281 2906 2969 
z
M 947 1747 
Q 947 1113 1208 752 
Q 1469 391 1925 391 
Q 2381 391 2643 752 
Q 2906 1113 2906 1747 
Q 2906 2381 2643 2742 
Q 2381 3103 1925 3103 
Q 1469 3103 1208 2742 
Q 947 2381 947 1747 
z
" transform="scale(0.015625)"/>
      </defs>
      <use xlink:href="#DejaVuSans-50"/>
      <use xlink:href="#DejaVuSans-65" x="56.677734"/>
      <use xlink:href="#DejaVuSans-72" x="118.201172"/>
      <use xlink:href="#DejaVuSans-63" x="157.064453"/>
      <use xlink:href="#DejaVuSans-65" x="212.044922"/>
      <use xlink:href="#DejaVuSans-6e" x="273.568359"/>
      <use xlink:href="#DejaVuSans-74" x="336.947266"/>
      <use xlink:href="#DejaVuSans-69" x="376.15625"/>
      <use xlink:href="#DejaVuSans-6c" x="403.939453"/>
      <use xlink:href="#DejaVuSans-65" x="431.722656"/>
      <use xlink:href="#DejaVuSans-20" x="493.246094"/>
      <use xlink:href="#DejaVuSans-54" x="525.033203"/>
      <use xlink:href="#DejaVuSans-68" x="586.117188"/>
      <use xlink:href="#DejaVuSans-72" x="649.496094"/>
      <use xlink:href="#DejaVuSans-65" x="688.359375"/>
      <use xlink:href="#DejaVuSans-73" x="749.882812"/>
      <use xlink:href="#DejaVuSans-68" x="801.982422"/>
      <use xlink:href="#DejaVuSans-6f" x="865.361328"/>
      <use xlink:href="#DejaVuSans-6c" x="926.542969"/>
      <use xlink:href="#DejaVuSans-64" x="954.326172"/>
     </g>
     <!-- (All Methods of Threshold Handling for BayesianRidge Model) -->
     <g transform="translate(301.033125 558.50075) scale(0.2 -0.2)">
      <defs>
       <path id="DejaVuSans-28" d="M 1984 4856 
Q 1566 4138 1362 3434 
Q 1159 2731 1159 2009 
Q 1159 1288 1364 580 
Q 1569 -128 1984 -844 
L 1484 -844 
Q 1016 -109 783 600 
Q 550 1309 550 2009 
Q 550 2706 781 3412 
Q 1013 4119 1484 4856 
L 1984 4856 
z
" transform="scale(0.015625)"/>
       <path id="DejaVuSans-41" d="M 2188 4044 
L 1331 1722 
L 3047 1722 
L 2188 4044 
z
M 1831 4666 
L 2547 4666 
L 4325 0 
L 3669 0 
L 3244 1197 
L 1141 1197 
L 716 0 
L 50 0 
L 1831 4666 
z
" transform="scale(0.015625)"/>
       <path id="DejaVuSans-4d" d="M 628 4666 
L 1569 4666 
L 2759 1491 
L 3956 4666 
L 4897 4666 
L 4897 0 
L 4281 0 
L 4281 4097 
L 3078 897 
L 2444 897 
L 1241 4097 
L 1241 0 
L 628 0 
L 628 4666 
z
" transform="scale(0.015625)"/>
       <path id="DejaVuSans-66" d="M 2375 4863 
L 2375 4384 
L 1825 4384 
Q 1516 4384 1395 4259 
Q 1275 4134 1275 3809 
L 1275 3500 
L 2222 3500 
L 2222 3053 
L 1275 3053 
L 1275 0 
L 697 0 
L 697 3053 
L 147 3053 
L 147 3500 
L 697 3500 
L 697 3744 
Q 697 4328 969 4595 
Q 1241 4863 1831 4863 
L 2375 4863 
z
" transform="scale(0.015625)"/>
       <path id="DejaVuSans-48" d="M 628 4666 
L 1259 4666 
L 1259 2753 
L 3553 2753 
L 3553 4666 
L 4184 4666 
L 4184 0 
L 3553 0 
L 3553 2222 
L 1259 2222 
L 1259 0 
L 628 0 
L 628 4666 
z
" transform="scale(0.015625)"/>
       <path id="DejaVuSans-61" d="M 2194 1759 
Q 1497 1759 1228 1600 
Q 959 1441 959 1056 
Q 959 750 1161 570 
Q 1363 391 1709 391 
Q 2188 391 2477 730 
Q 2766 1069 2766 1631 
L 2766 1759 
L 2194 1759 
z
M 3341 1997 
L 3341 0 
L 2766 0 
L 2766 531 
Q 2569 213 2275 61 
Q 1981 -91 1556 -91 
Q 1019 -91 701 211 
Q 384 513 384 1019 
Q 384 1609 779 1909 
Q 1175 2209 1959 2209 
L 2766 2209 
L 2766 2266 
Q 2766 2663 2505 2880 
Q 2244 3097 1772 3097 
Q 1472 3097 1187 3025 
Q 903 2953 641 2809 
L 641 3341 
Q 956 3463 1253 3523 
Q 1550 3584 1831 3584 
Q 2591 3584 2966 3190 
Q 3341 2797 3341 1997 
z
" transform="scale(0.015625)"/>
       <path id="DejaVuSans-67" d="M 2906 1791 
Q 2906 2416 2648 2759 
Q 2391 3103 1925 3103 
Q 1463 3103 1205 2759 
Q 947 2416 947 1791 
Q 947 1169 1205 825 
Q 1463 481 1925 481 
Q 2391 481 2648 825 
Q 2906 1169 2906 1791 
z
M 3481 434 
Q 3481 -459 3084 -895 
Q 2688 -1331 1869 -1331 
Q 1566 -1331 1297 -1286 
Q 1028 -1241 775 -1147 
L 775 -588 
Q 1028 -725 1275 -790 
Q 1522 -856 1778 -856 
Q 2344 -856 2625 -561 
Q 2906 -266 2906 331 
L 2906 616 
Q 2728 306 2450 153 
Q 2172 0 1784 0 
Q 1141 0 747 490 
Q 353 981 353 1791 
Q 353 2603 747 3093 
Q 1141 3584 1784 3584 
Q 2172 3584 2450 3431 
Q 2728 3278 2906 2969 
L 2906 3500 
L 3481 3500 
L 3481 434 
z
" transform="scale(0.015625)"/>
       <path id="DejaVuSans-42" d="M 1259 2228 
L 1259 519 
L 2272 519 
Q 2781 519 3026 730 
Q 3272 941 3272 1375 
Q 3272 1813 3026 2020 
Q 2781 2228 2272 2228 
L 1259 2228 
z
M 1259 4147 
L 1259 2741 
L 2194 2741 
Q 2656 2741 2882 2914 
Q 3109 3088 3109 3444 
Q 3109 3797 2882 3972 
Q 2656 4147 2194 4147 
L 1259 4147 
z
M 628 4666 
L 2241 4666 
Q 2963 4666 3353 4366 
Q 3744 4066 3744 3513 
Q 3744 3084 3544 2831 
Q 3344 2578 2956 2516 
Q 3422 2416 3680 2098 
Q 3938 1781 3938 1306 
Q 3938 681 3513 340 
Q 3088 0 2303 0 
L 628 0 
L 628 4666 
z
" transform="scale(0.015625)"/>
       <path id="DejaVuSans-79" d="M 2059 -325 
Q 1816 -950 1584 -1140 
Q 1353 -1331 966 -1331 
L 506 -1331 
L 506 -850 
L 844 -850 
Q 1081 -850 1212 -737 
Q 1344 -625 1503 -206 
L 1606 56 
L 191 3500 
L 800 3500 
L 1894 763 
L 2988 3500 
L 3597 3500 
L 2059 -325 
z
" transform="scale(0.015625)"/>
       <path id="DejaVuSans-52" d="M 2841 2188 
Q 3044 2119 3236 1894 
Q 3428 1669 3622 1275 
L 4263 0 
L 3584 0 
L 2988 1197 
Q 2756 1666 2539 1819 
Q 2322 1972 1947 1972 
L 1259 1972 
L 1259 0 
L 628 0 
L 628 4666 
L 2053 4666 
Q 2853 4666 3247 4331 
Q 3641 3997 3641 3322 
Q 3641 2881 3436 2590 
Q 3231 2300 2841 2188 
z
M 1259 4147 
L 1259 2491 
L 2053 2491 
Q 2509 2491 2742 2702 
Q 2975 2913 2975 3322 
Q 2975 3731 2742 3939 
Q 2509 4147 2053 4147 
L 1259 4147 
z
" transform="scale(0.015625)"/>
       <path id="DejaVuSans-29" d="M 513 4856 
L 1013 4856 
Q 1481 4119 1714 3412 
Q 1947 2706 1947 2009 
Q 1947 1309 1714 600 
Q 1481 -109 1013 -844 
L 513 -844 
Q 928 -128 1133 580 
Q 1338 1288 1338 2009 
Q 1338 2731 1133 3434 
Q 928 4138 513 4856 
z
" transform="scale(0.015625)"/>
      </defs>
      <use xlink:href="#DejaVuSans-28"/>
      <use xlink:href="#DejaVuSans-41" x="39.013672"/>
      <use xlink:href="#DejaVuSans-6c" x="107.421875"/>
      <use xlink:href="#DejaVuSans-6c" x="135.205078"/>
      <use xlink:href="#DejaVuSans-20" x="162.988281"/>
      <use xlink:href="#DejaVuSans-4d" x="194.775391"/>
      <use xlink:href="#DejaVuSans-65" x="281.054688"/>
      <use xlink:href="#DejaVuSans-74" x="342.578125"/>
      <use xlink:href="#DejaVuSans-68" x="381.787109"/>
      <use xlink:href="#DejaVuSans-6f" x="445.166016"/>
      <use xlink:href="#DejaVuSans-64" x="506.347656"/>
      <use xlink:href="#DejaVuSans-73" x="569.824219"/>
      <use xlink:href="#DejaVuSans-20" x="621.923828"/>
      <use xlink:href="#DejaVuSans-6f" x="653.710938"/>
      <use xlink:href="#DejaVuSans-66" x="714.892578"/>
      <use xlink:href="#DejaVuSans-20" x="750.097656"/>
      <use xlink:href="#DejaVuSans-54" x="781.884766"/>
      <use xlink:href="#DejaVuSans-68" x="842.96875"/>
      <use xlink:href="#DejaVuSans-72" x="906.347656"/>
      <use xlink:href="#DejaVuSans-65" x="945.210938"/>
      <use xlink:href="#DejaVuSans-73" x="1006.734375"/>
      <use xlink:href="#DejaVuSans-68" x="1058.833984"/>
      <use xlink:href="#DejaVuSans-6f" x="1122.212891"/>
      <use xlink:href="#DejaVuSans-6c" x="1183.394531"/>
      <use xlink:href="#DejaVuSans-64" x="1211.177734"/>
      <use xlink:href="#DejaVuSans-20" x="1274.654297"/>
      <use xlink:href="#DejaVuSans-48" x="1306.441406"/>
      <use xlink:href="#DejaVuSans-61" x="1381.636719"/>
      <use xlink:href="#DejaVuSans-6e" x="1442.916016"/>
      <use xlink:href="#DejaVuSans-64" x="1506.294922"/>
      <use xlink:href="#DejaVuSans-6c" x="1569.771484"/>
      <use xlink:href="#DejaVuSans-69" x="1597.554688"/>
      <use xlink:href="#DejaVuSans-6e" x="1625.337891"/>
      <use xlink:href="#DejaVuSans-67" x="1688.716797"/>
      <use xlink:href="#DejaVuSans-20" x="1752.193359"/>
      <use xlink:href="#DejaVuSans-66" x="1783.980469"/>
      <use xlink:href="#DejaVuSans-6f" x="1819.185547"/>
      <use xlink:href="#DejaVuSans-72" x="1880.367188"/>
      <use xlink:href="#DejaVuSans-20" x="1921.480469"/>
      <use xlink:href="#DejaVuSans-42" x="1953.267578"/>
      <use xlink:href="#DejaVuSans-61" x="2021.871094"/>
      <use xlink:href="#DejaVuSans-79" x="2083.150391"/>
      <use xlink:href="#DejaVuSans-65" x="2142.330078"/>
      <use xlink:href="#DejaVuSans-73" x="2203.853516"/>
      <use xlink:href="#DejaVuSans-69" x="2255.953125"/>
      <use xlink:href="#DejaVuSans-61" x="2283.736328"/>
      <use xlink:href="#DejaVuSans-6e" x="2345.015625"/>
      <use xlink:href="#DejaVuSans-52" x="2408.394531"/>
      <use xlink:href="#DejaVuSans-69" x="2477.876953"/>
      <use xlink:href="#DejaVuSans-64" x="2505.660156"/>
      <use xlink:href="#DejaVuSans-67" x="2569.136719"/>
      <use xlink:href="#DejaVuSans-65" x="2632.613281"/>
      <use xlink:href="#DejaVuSans-20" x="2694.136719"/>
      <use xlink:href="#DejaVuSans-4d" x="2725.923828"/>
      <use xlink:href="#DejaVuSans-6f" x="2812.203125"/>
      <use xlink:href="#DejaVuSans-64" x="2873.384766"/>
      <use xlink:href="#DejaVuSans-65" x="2936.861328"/>
      <use xlink:href="#DejaVuSans-6c" x="2998.384766"/>
      <use xlink:href="#DejaVuSans-29" x="3026.167969"/>
     </g>
    </g>
   </g>
   <g id="matplotlib.axis_2">
    <g id="ytick_1">
     <g id="line2d_6">
      <defs>
       <path id="m6ffb8421a0" d="M 0 0 
L -3.5 0 
" style="stroke: #000000; stroke-width: 0.8"/>
      </defs>
      <g>
       <use xlink:href="#m6ffb8421a0" x="73.91" y="468.354353" style="stroke: #000000; stroke-width: 0.8"/>
      </g>
     </g>
     <g id="text_7">
      <!-- 0.2 -->
      <g transform="translate(35.10375 475.95279) scale(0.2 -0.2)">
       <defs>
        <path id="DejaVuSans-2e" d="M 684 794 
L 1344 794 
L 1344 0 
L 684 0 
L 684 794 
z
" transform="scale(0.015625)"/>
       </defs>
       <use xlink:href="#DejaVuSans-30"/>
       <use xlink:href="#DejaVuSans-2e" x="63.623047"/>
       <use xlink:href="#DejaVuSans-32" x="95.410156"/>
      </g>
     </g>
    </g>
    <g id="ytick_2">
     <g id="line2d_7">
      <g>
       <use xlink:href="#m6ffb8421a0" x="73.91" y="408.986391" style="stroke: #000000; stroke-width: 0.8"/>
      </g>
     </g>
     <g id="text_8">
      <!-- 0.3 -->
      <g transform="translate(35.10375 416.584828) scale(0.2 -0.2)">
       <defs>
        <path id="DejaVuSans-33" d="M 2597 2516 
Q 3050 2419 3304 2112 
Q 3559 1806 3559 1356 
Q 3559 666 3084 287 
Q 2609 -91 1734 -91 
Q 1441 -91 1130 -33 
Q 819 25 488 141 
L 488 750 
Q 750 597 1062 519 
Q 1375 441 1716 441 
Q 2309 441 2620 675 
Q 2931 909 2931 1356 
Q 2931 1769 2642 2001 
Q 2353 2234 1838 2234 
L 1294 2234 
L 1294 2753 
L 1863 2753 
Q 2328 2753 2575 2939 
Q 2822 3125 2822 3475 
Q 2822 3834 2567 4026 
Q 2313 4219 1838 4219 
Q 1578 4219 1281 4162 
Q 984 4106 628 3988 
L 628 4550 
Q 988 4650 1302 4700 
Q 1616 4750 1894 4750 
Q 2613 4750 3031 4423 
Q 3450 4097 3450 3541 
Q 3450 3153 3228 2886 
Q 3006 2619 2597 2516 
z
" transform="scale(0.015625)"/>
       </defs>
       <use xlink:href="#DejaVuSans-30"/>
       <use xlink:href="#DejaVuSans-2e" x="63.623047"/>
       <use xlink:href="#DejaVuSans-33" x="95.410156"/>
      </g>
     </g>
    </g>
    <g id="ytick_3">
     <g id="line2d_8">
      <g>
       <use xlink:href="#m6ffb8421a0" x="73.91" y="349.618429" style="stroke: #000000; stroke-width: 0.8"/>
      </g>
     </g>
     <g id="text_9">
      <!-- 0.4 -->
      <g transform="translate(35.10375 357.216866) scale(0.2 -0.2)">
       <use xlink:href="#DejaVuSans-30"/>
       <use xlink:href="#DejaVuSans-2e" x="63.623047"/>
       <use xlink:href="#DejaVuSans-34" x="95.410156"/>
      </g>
     </g>
    </g>
    <g id="ytick_4">
     <g id="line2d_9">
      <g>
       <use xlink:href="#m6ffb8421a0" x="73.91" y="290.250467" style="stroke: #000000; stroke-width: 0.8"/>
      </g>
     </g>
     <g id="text_10">
      <!-- 0.5 -->
      <g transform="translate(35.10375 297.848904) scale(0.2 -0.2)">
       <defs>
        <path id="DejaVuSans-35" d="M 691 4666 
L 3169 4666 
L 3169 4134 
L 1269 4134 
L 1269 2991 
Q 1406 3038 1543 3061 
Q 1681 3084 1819 3084 
Q 2600 3084 3056 2656 
Q 3513 2228 3513 1497 
Q 3513 744 3044 326 
Q 2575 -91 1722 -91 
Q 1428 -91 1123 -41 
Q 819 9 494 109 
L 494 744 
Q 775 591 1075 516 
Q 1375 441 1709 441 
Q 2250 441 2565 725 
Q 2881 1009 2881 1497 
Q 2881 1984 2565 2268 
Q 2250 2553 1709 2553 
Q 1456 2553 1204 2497 
Q 953 2441 691 2322 
L 691 4666 
z
" transform="scale(0.015625)"/>
       </defs>
       <use xlink:href="#DejaVuSans-30"/>
       <use xlink:href="#DejaVuSans-2e" x="63.623047"/>
       <use xlink:href="#DejaVuSans-35" x="95.410156"/>
      </g>
     </g>
    </g>
    <g id="ytick_5">
     <g id="line2d_10">
      <g>
       <use xlink:href="#m6ffb8421a0" x="73.91" y="230.882505" style="stroke: #000000; stroke-width: 0.8"/>
      </g>
     </g>
     <g id="text_11">
      <!-- 0.6 -->
      <g transform="translate(35.10375 238.480943) scale(0.2 -0.2)">
       <use xlink:href="#DejaVuSans-30"/>
       <use xlink:href="#DejaVuSans-2e" x="63.623047"/>
       <use xlink:href="#DejaVuSans-36" x="95.410156"/>
      </g>
     </g>
    </g>
    <g id="ytick_6">
     <g id="line2d_11">
      <g>
       <use xlink:href="#m6ffb8421a0" x="73.91" y="171.514543" style="stroke: #000000; stroke-width: 0.8"/>
      </g>
     </g>
     <g id="text_12">
      <!-- 0.7 -->
      <g transform="translate(35.10375 179.112981) scale(0.2 -0.2)">
       <defs>
        <path id="DejaVuSans-37" d="M 525 4666 
L 3525 4666 
L 3525 4397 
L 1831 0 
L 1172 0 
L 2766 4134 
L 525 4134 
L 525 4666 
z
" transform="scale(0.015625)"/>
       </defs>
       <use xlink:href="#DejaVuSans-30"/>
       <use xlink:href="#DejaVuSans-2e" x="63.623047"/>
       <use xlink:href="#DejaVuSans-37" x="95.410156"/>
      </g>
     </g>
    </g>
    <g id="ytick_7">
     <g id="line2d_12">
      <g>
       <use xlink:href="#m6ffb8421a0" x="73.91" y="112.146581" style="stroke: #000000; stroke-width: 0.8"/>
      </g>
     </g>
     <g id="text_13">
      <!-- 0.8 -->
      <g transform="translate(35.10375 119.745019) scale(0.2 -0.2)">
       <use xlink:href="#DejaVuSans-30"/>
       <use xlink:href="#DejaVuSans-2e" x="63.623047"/>
       <use xlink:href="#DejaVuSans-38" x="95.410156"/>
      </g>
     </g>
    </g>
    <g id="ytick_8">
     <g id="line2d_13">
      <g>
       <use xlink:href="#m6ffb8421a0" x="73.91" y="52.77862" style="stroke: #000000; stroke-width: 0.8"/>
      </g>
     </g>
     <g id="text_14">
      <!-- 0.9 -->
      <g transform="translate(35.10375 60.377057) scale(0.2 -0.2)">
       <defs>
        <path id="DejaVuSans-39" d="M 703 97 
L 703 672 
Q 941 559 1184 500 
Q 1428 441 1663 441 
Q 2288 441 2617 861 
Q 2947 1281 2994 2138 
Q 2813 1869 2534 1725 
Q 2256 1581 1919 1581 
Q 1219 1581 811 2004 
Q 403 2428 403 3163 
Q 403 3881 828 4315 
Q 1253 4750 1959 4750 
Q 2769 4750 3195 4129 
Q 3622 3509 3622 2328 
Q 3622 1225 3098 567 
Q 2575 -91 1691 -91 
Q 1453 -91 1209 -44 
Q 966 3 703 97 
z
M 1959 2075 
Q 2384 2075 2632 2365 
Q 2881 2656 2881 3163 
Q 2881 3666 2632 3958 
Q 2384 4250 1959 4250 
Q 1534 4250 1286 3958 
Q 1038 3666 1038 3163 
Q 1038 2656 1286 2365 
Q 1534 2075 1959 2075 
z
" transform="scale(0.015625)"/>
       </defs>
       <use xlink:href="#DejaVuSans-30"/>
       <use xlink:href="#DejaVuSans-2e" x="63.623047"/>
       <use xlink:href="#DejaVuSans-39" x="95.410156"/>
      </g>
     </g>
    </g>
    <g id="text_15">
     <!-- R^2 -->
     <g transform="translate(26.944375 272.366625) rotate(-90) scale(0.2 -0.2)">
      <defs>
       <path id="DejaVuSans-5e" d="M 2988 4666 
L 4684 2925 
L 4056 2925 
L 2681 4159 
L 1306 2925 
L 678 2925 
L 2375 4666 
L 2988 4666 
z
" transform="scale(0.015625)"/>
      </defs>
      <use xlink:href="#DejaVuSans-52"/>
      <use xlink:href="#DejaVuSans-5e" x="69.482422"/>
      <use xlink:href="#DejaVuSans-32" x="153.271484"/>
     </g>
    </g>
   </g>
   <g id="line2d_14">
    <path d="M 122.423182 40.810609 
L 143.067089 44.396292 
L 163.710996 44.347618 
L 184.354903 43.079659 
L 204.99881 44.803615 
L 225.642718 52.019261 
L 246.286625 54.320176 
L 266.930532 60.409865 
L 287.574439 54.729654 
L 308.218346 66.008365 
L 328.862253 56.46395 
L 349.506161 56.361002 
L 370.150068 53.225933 
L 390.793975 47.912378 
L 411.437882 46.196938 
L 432.081789 45.774629 
L 452.725696 47.231261 
L 473.369603 47.231261 
L 494.013511 45.419331 
L 514.657418 42.862017 
L 535.301325 47.384289 
L 555.945232 49.657116 
L 576.589139 61.535567 
L 597.233046 67.65496 
L 617.876954 73.579805 
L 638.520861 57.56155 
L 659.164768 70.882955 
L 679.808675 66.397976 
L 700.452582 70.67872 
L 721.096489 73.598304 
" clip-path="url(#p15a39b8edd)" style="fill: none; stroke: #1f77b4; stroke-width: 1.5; stroke-linecap: square"/>
   </g>
   <g id="line2d_15">
    <path d="M 122.423182 39.95027 
L 143.067089 43.007752 
L 163.710996 46.538391 
L 184.354903 49.289562 
L 204.99881 58.971899 
L 225.642718 65.176843 
L 246.286625 77.869753 
L 266.930532 73.363193 
L 287.574439 83.866472 
L 308.218346 84.410715 
L 328.862253 102.205666 
L 349.506161 101.920066 
L 370.150068 113.124656 
L 390.793975 145.840684 
L 411.437882 160.732204 
L 432.081789 172.060435 
L 452.725696 195.993406 
L 473.369603 173.921054 
L 494.013511 211.516163 
L 514.657418 199.214873 
L 535.301325 209.550811 
L 555.945232 204.423996 
L 576.589139 238.811867 
L 597.233046 192.846306 
L 617.876954 270.574425 
L 638.520861 275.920088 
L 659.164768 285.082168 
L 679.808675 288.767974 
L 700.452582 285.894694 
L 721.096489 289.732545 
L 741.740397 294.468395 
L 762.384304 313.795512 
L 783.028211 293.23334 
L 803.672118 323.082135 
L 824.316025 360.114334 
L 844.959932 364.673582 
L 865.603839 423.646536 
L 886.247747 363.165778 
" clip-path="url(#p15a39b8edd)" style="fill: none; stroke: #ff7f0e; stroke-width: 1.5; stroke-linecap: square"/>
   </g>
   <g id="line2d_16">
    <path d="M 122.423182 41.027949 
L 143.067089 42.905743 
L 163.710996 38.477515 
L 184.354903 41.419721 
L 204.99881 39.895523 
L 225.642718 41.652233 
L 246.286625 39.166548 
L 266.930532 37.997603 
L 287.574439 38.003435 
L 308.218346 39.637195 
L 328.862253 36.356525 
L 349.506161 37.394993 
L 370.150068 37.734842 
L 390.793975 38.685089 
L 411.437882 38.447205 
L 432.081789 38.469694 
L 452.725696 37.48056 
L 473.369603 37.4439 
L 494.013511 39.020132 
L 514.657418 38.306211 
L 535.301325 40.257971 
L 555.945232 40.507942 
L 576.589139 40.209871 
L 597.233046 40.657567 
L 617.876954 39.883054 
L 638.520861 40.323029 
L 659.164768 41.967374 
L 679.808675 43.216222 
L 700.452582 43.260851 
L 721.096489 43.868616 
L 741.740397 42.473329 
L 762.384304 44.902056 
L 783.028211 45.128711 
L 803.672118 43.702053 
L 824.316025 44.643196 
L 844.959932 44.316744 
L 865.603839 43.872578 
L 886.247747 42.496001 
L 906.891654 42.453845 
L 927.535561 46.235855 
L 948.179468 47.954607 
L 968.823375 47.099226 
L 989.467282 47.309756 
L 1010.11119 47.136563 
L 1030.755097 46.934683 
L 1051.399004 46.847533 
L 1072.042911 47.214365 
L 1092.686818 47.65293 
" clip-path="url(#p15a39b8edd)" style="fill: none; stroke: #2ca02c; stroke-width: 1.5; stroke-linecap: square"/>
   </g>
   <g id="line2d_17">
    <path d="M 122.423182 41.158395 
L 143.067089 38.573061 
L 163.710996 37.993225 
L 184.354903 39.406461 
L 204.99881 38.593716 
L 225.642718 40.87523 
L 246.286625 39.471115 
L 266.930532 37.298737 
L 287.574439 38.767365 
L 308.218346 37.615137 
L 328.862253 37.258176 
L 349.506161 37.814554 
L 370.150068 37.869308 
L 390.793975 37.321658 
L 411.437882 37.334908 
L 432.081789 36.931541 
L 452.725696 35.981197 
L 473.369603 38.727281 
L 494.013511 36.655742 
L 514.657418 36.487599 
L 535.301325 37.579937 
L 555.945232 37.410822 
L 576.589139 38.717768 
L 597.233046 36.975344 
L 617.876954 36.628254 
L 638.520861 39.459701 
L 659.164768 40.132785 
L 679.808675 38.715633 
L 700.452582 38.363483 
L 721.096489 39.273298 
L 741.740397 38.219048 
L 762.384304 37.240123 
L 783.028211 38.698669 
L 803.672118 37.61527 
L 824.316025 38.537025 
L 844.959932 38.150924 
L 865.603839 38.01006 
L 886.247747 36.922996 
L 906.891654 40.704121 
L 927.535561 39.477876 
L 948.179468 37.6049 
L 968.823375 38.35783 
L 989.467282 38.603273 
L 1010.11119 40.057444 
L 1030.755097 38.852291 
L 1051.399004 39.117219 
L 1072.042911 37.984129 
L 1092.686818 39.115376 
" clip-path="url(#p15a39b8edd)" style="fill: none; stroke: #d62728; stroke-width: 1.5; stroke-linecap: square"/>
   </g>
   <g id="line2d_18"/>
   <g id="line2d_19"/>
   <g id="line2d_20"/>
   <g id="line2d_21"/>
   <g id="patch_3">
    <path d="M 73.91 490.552 
L 73.91 10.8 
" style="fill: none; stroke: #000000; stroke-width: 0.8; stroke-linejoin: miter; stroke-linecap: square"/>
   </g>
   <g id="patch_4">
    <path d="M 1141.2 490.552 
L 1141.2 10.8 
" style="fill: none; stroke: #000000; stroke-width: 0.8; stroke-linejoin: miter; stroke-linecap: square"/>
   </g>
   <g id="patch_5">
    <path d="M 73.91 490.552 
L 1141.2 490.552 
" style="fill: none; stroke: #000000; stroke-width: 0.8; stroke-linejoin: miter; stroke-linecap: square"/>
   </g>
   <g id="patch_6">
    <path d="M 73.91 10.8 
L 1141.2 10.8 
" style="fill: none; stroke: #000000; stroke-width: 0.8; stroke-linejoin: miter; stroke-linecap: square"/>
   </g>
   <g id="legend_1">
    <g id="patch_7">
     <path d="M 85.11 482.552 
L 224.545 482.552 
Q 227.745 482.552 227.745 479.352 
L 227.745 386.122 
Q 227.745 382.922 224.545 382.922 
L 85.11 382.922 
Q 81.91 382.922 81.91 386.122 
L 81.91 479.352 
Q 81.91 482.552 85.11 482.552 
z
" style="fill: #ffffff; opacity: 0.8; stroke: #cccccc; stroke-linejoin: miter"/>
    </g>
    <g id="line2d_22">
     <path d="M 88.31 395.8795 
L 104.31 395.8795 
L 120.31 395.8795 
" style="fill: none; stroke: #1f77b4; stroke-width: 1.5; stroke-linecap: square"/>
    </g>
    <g id="text_16">
     <!-- leave_out -->
     <g transform="translate(133.11 401.4795) scale(0.16 -0.16)">
      <defs>
       <path id="DejaVuSans-76" d="M 191 3500 
L 800 3500 
L 1894 563 
L 2988 3500 
L 3597 3500 
L 2284 0 
L 1503 0 
L 191 3500 
z
" transform="scale(0.015625)"/>
       <path id="DejaVuSans-5f" d="M 3263 -1063 
L 3263 -1509 
L -63 -1509 
L -63 -1063 
L 3263 -1063 
z
" transform="scale(0.015625)"/>
       <path id="DejaVuSans-75" d="M 544 1381 
L 544 3500 
L 1119 3500 
L 1119 1403 
Q 1119 906 1312 657 
Q 1506 409 1894 409 
Q 2359 409 2629 706 
Q 2900 1003 2900 1516 
L 2900 3500 
L 3475 3500 
L 3475 0 
L 2900 0 
L 2900 538 
Q 2691 219 2414 64 
Q 2138 -91 1772 -91 
Q 1169 -91 856 284 
Q 544 659 544 1381 
z
M 1991 3584 
L 1991 3584 
z
" transform="scale(0.015625)"/>
      </defs>
      <use xlink:href="#DejaVuSans-6c"/>
      <use xlink:href="#DejaVuSans-65" x="27.783203"/>
      <use xlink:href="#DejaVuSans-61" x="89.306641"/>
      <use xlink:href="#DejaVuSans-76" x="150.585938"/>
      <use xlink:href="#DejaVuSans-65" x="209.765625"/>
      <use xlink:href="#DejaVuSans-5f" x="271.289062"/>
      <use xlink:href="#DejaVuSans-6f" x="321.289062"/>
      <use xlink:href="#DejaVuSans-75" x="382.470703"/>
      <use xlink:href="#DejaVuSans-74" x="445.849609"/>
     </g>
    </g>
    <g id="line2d_23">
     <path d="M 88.31 419.8095 
L 104.31 419.8095 
L 120.31 419.8095 
" style="fill: none; stroke: #ff7f0e; stroke-width: 1.5; stroke-linecap: square"/>
    </g>
    <g id="text_17">
     <!-- merge -->
     <g transform="translate(133.11 425.4095) scale(0.16 -0.16)">
      <defs>
       <path id="DejaVuSans-6d" d="M 3328 2828 
Q 3544 3216 3844 3400 
Q 4144 3584 4550 3584 
Q 5097 3584 5394 3201 
Q 5691 2819 5691 2113 
L 5691 0 
L 5113 0 
L 5113 2094 
Q 5113 2597 4934 2840 
Q 4756 3084 4391 3084 
Q 3944 3084 3684 2787 
Q 3425 2491 3425 1978 
L 3425 0 
L 2847 0 
L 2847 2094 
Q 2847 2600 2669 2842 
Q 2491 3084 2119 3084 
Q 1678 3084 1418 2786 
Q 1159 2488 1159 1978 
L 1159 0 
L 581 0 
L 581 3500 
L 1159 3500 
L 1159 2956 
Q 1356 3278 1631 3431 
Q 1906 3584 2284 3584 
Q 2666 3584 2933 3390 
Q 3200 3197 3328 2828 
z
" transform="scale(0.015625)"/>
      </defs>
      <use xlink:href="#DejaVuSans-6d"/>
      <use xlink:href="#DejaVuSans-65" x="97.412109"/>
      <use xlink:href="#DejaVuSans-72" x="158.935547"/>
      <use xlink:href="#DejaVuSans-67" x="198.298828"/>
      <use xlink:href="#DejaVuSans-65" x="261.775391"/>
     </g>
    </g>
    <g id="line2d_24">
     <path d="M 88.31 443.2945 
L 104.31 443.2945 
L 120.31 443.2945 
" style="fill: none; stroke: #2ca02c; stroke-width: 1.5; stroke-linecap: square"/>
    </g>
    <g id="text_18">
     <!-- max_mean -->
     <g transform="translate(133.11 448.8945) scale(0.16 -0.16)">
      <defs>
       <path id="DejaVuSans-78" d="M 3513 3500 
L 2247 1797 
L 3578 0 
L 2900 0 
L 1881 1375 
L 863 0 
L 184 0 
L 1544 1831 
L 300 3500 
L 978 3500 
L 1906 2253 
L 2834 3500 
L 3513 3500 
z
" transform="scale(0.015625)"/>
      </defs>
      <use xlink:href="#DejaVuSans-6d"/>
      <use xlink:href="#DejaVuSans-61" x="97.412109"/>
      <use xlink:href="#DejaVuSans-78" x="158.691406"/>
      <use xlink:href="#DejaVuSans-5f" x="217.871094"/>
      <use xlink:href="#DejaVuSans-6d" x="267.871094"/>
      <use xlink:href="#DejaVuSans-65" x="365.283203"/>
      <use xlink:href="#DejaVuSans-61" x="426.806641"/>
      <use xlink:href="#DejaVuSans-6e" x="488.085938"/>
     </g>
    </g>
    <g id="line2d_25">
     <path d="M 88.31 467.2245 
L 104.31 467.2245 
L 120.31 467.2245 
" style="fill: none; stroke: #d62728; stroke-width: 1.5; stroke-linecap: square"/>
    </g>
    <g id="text_19">
     <!-- random -->
     <g transform="translate(133.11 472.8245) scale(0.16 -0.16)">
      <use xlink:href="#DejaVuSans-72"/>
      <use xlink:href="#DejaVuSans-61" x="41.113281"/>
      <use xlink:href="#DejaVuSans-6e" x="102.392578"/>
      <use xlink:href="#DejaVuSans-64" x="165.771484"/>
      <use xlink:href="#DejaVuSans-6f" x="229.248047"/>
      <use xlink:href="#DejaVuSans-6d" x="290.429688"/>
     </g>
    </g>
   </g>
  </g>
 </g>
 <defs>
  <clipPath id="p15a39b8edd">
   <rect x="73.91" y="10.8" width="1067.29" height="479.752"/>
  </clipPath>
 </defs>
</svg>
