<?xml version="1.0" encoding="utf-8" standalone="no"?>
<!DOCTYPE svg PUBLIC "-//W3C//DTD SVG 1.1//EN"
  "http://www.w3.org/Graphics/SVG/1.1/DTD/svg11.dtd">
<svg xmlns:xlink="http://www.w3.org/1999/xlink" width="1152pt" height="576pt" viewBox="0 0 1152 576" xmlns="http://www.w3.org/2000/svg" version="1.1">
 <metadata>
  <rdf:RDF xmlns:dc="http://purl.org/dc/elements/1.1/" xmlns:cc="http://creativecommons.org/ns#" xmlns:rdf="http://www.w3.org/1999/02/22-rdf-syntax-ns#">
   <cc:Work>
    <dc:type rdf:resource="http://purl.org/dc/dcmitype/StillImage"/>
    <dc:date>2024-10-22T20:56:29.443830</dc:date>
    <dc:format>image/svg+xml</dc:format>
    <dc:creator>
     <cc:Agent>
      <dc:title>Matplotlib v3.9.2, https://matplotlib.org/</dc:title>
     </cc:Agent>
    </dc:creator>
   </cc:Work>
  </rdf:RDF>
 </metadata>
 <defs>
  <style type="text/css">*{stroke-linejoin: round; stroke-linecap: butt}</style>
 </defs>
 <g id="figure_1">
  <g id="patch_1">
   <path d="M 0 576 
L 1152 576 
L 1152 0 
L 0 0 
z
" style="fill: #ffffff"/>
  </g>
  <g id="axes_1">
   <g id="patch_2">
    <path d="M 80.3 489.832 
L 1141.2 489.832 
L 1141.2 10.8 
L 80.3 10.8 
z
" style="fill: #ffffff"/>
   </g>
   <g id="PolyCollection_1">
    <defs>
     <path id="mfd168765d8" d="M 128.522727 -252.750827 
L 128.522727 -206.973779 
L 149.043037 -186.02013 
L 169.563346 -184.541637 
L 190.083656 -170.445456 
L 210.603965 -156.210358 
L 231.124275 -173.143336 
L 251.644584 -167.087779 
L 272.164894 -155.280676 
L 292.685203 -145.141051 
L 313.205513 -150.580706 
L 333.725822 -142.33842 
L 354.246132 -145.444154 
L 374.766441 -146.072548 
L 395.28675 -146.059949 
L 415.80706 -149.147888 
L 436.327369 -139.899399 
L 456.847679 -145.503558 
L 477.367988 -147.855249 
L 497.888298 -150.696743 
L 518.408607 -154.705524 
L 538.928917 -160.141504 
L 559.449226 -157.194451 
L 579.969536 -174.191312 
L 600.489845 -161.861656 
L 621.010155 -166.526085 
L 641.530464 -174.720533 
L 662.050774 -176.177834 
L 682.571083 -183.936773 
L 703.091393 -177.352775 
L 723.611702 -183.041216 
L 744.132012 -173.599858 
L 764.652321 -181.509542 
L 785.172631 -184.683567 
L 805.69294 -185.899649 
L 826.21325 -176.028587 
L 846.733559 -192.245088 
L 867.253868 -184.080784 
L 887.774178 -171.264304 
L 908.294487 -228.284547 
L 928.814797 -238.393666 
L 949.335106 -236.534612 
L 969.855416 -235.944062 
L 990.375725 -241.462745 
L 1010.896035 -233.398611 
L 1031.416344 -237.042011 
L 1051.936654 -236.926851 
L 1072.456963 -237.756358 
L 1092.977273 -238.566578 
L 1092.977273 -300.632047 
L 1092.977273 -300.632047 
L 1072.456963 -314.792444 
L 1051.936654 -306.59787 
L 1031.416344 -307.104043 
L 1010.896035 -305.149426 
L 990.375725 -310.450325 
L 969.855416 -304.78424 
L 949.335106 -304.598249 
L 928.814797 -310.455914 
L 908.294487 -269.576457 
L 887.774178 -247.70569 
L 867.253868 -249.592972 
L 846.733559 -235.381081 
L 826.21325 -237.883895 
L 805.69294 -239.95861 
L 785.172631 -239.4486 
L 764.652321 -228.503536 
L 744.132012 -239.00391 
L 723.611702 -236.75754 
L 703.091393 -235.764273 
L 682.571083 -240.451103 
L 662.050774 -236.092198 
L 641.530464 -217.659048 
L 621.010155 -235.971395 
L 600.489845 -227.892093 
L 579.969536 -229.747631 
L 559.449226 -196.383191 
L 538.928917 -186.443116 
L 518.408607 -188.36342 
L 497.888298 -185.349972 
L 477.367988 -199.118158 
L 456.847679 -205.95864 
L 436.327369 -215.249551 
L 415.80706 -200.242655 
L 395.28675 -195.844902 
L 374.766441 -217.331294 
L 354.246132 -180.818247 
L 333.725822 -163.405293 
L 313.205513 -184.763729 
L 292.685203 -186.14989 
L 272.164894 -205.001387 
L 251.644584 -201.472171 
L 231.124275 -220.732752 
L 210.603965 -207.433037 
L 190.083656 -221.979772 
L 169.563346 -220.640786 
L 149.043037 -220.882564 
L 128.522727 -252.750827 
z
" style="stroke: #1f77b4; stroke-opacity: 0.2"/>
    </defs>
    <g clip-path="url(#p92aa94a011)">
     <use xlink:href="#mfd168765d8" x="0" y="576" style="fill: #1f77b4; fill-opacity: 0.2; stroke: #1f77b4; stroke-opacity: 0.2"/>
    </g>
   </g>
   <g id="PolyCollection_2">
    <defs>
     <path id="m72b27675a7" d="M 128.522727 -344.031635 
L 128.522727 -229.35832 
L 149.043037 -252.016882 
L 169.563346 -241.643977 
L 190.083656 -253.390133 
L 210.603965 -217.660034 
L 231.124275 -253.577702 
L 251.644584 -225.402313 
L 272.164894 -215.603179 
L 292.685203 -227.706002 
L 313.205513 -202.744672 
L 333.725822 -199.759375 
L 354.246132 -205.383573 
L 374.766441 -207.809354 
L 395.28675 -224.617103 
L 415.80706 -242.930526 
L 436.327369 -218.940625 
L 456.847679 -216.960246 
L 477.367988 -213.662999 
L 497.888298 -193.379487 
L 518.408607 -197.172748 
L 538.928917 -231.859749 
L 559.449226 -223.462914 
L 579.969536 -254.895766 
L 600.489845 -240.168285 
L 621.010155 -250.566512 
L 641.530464 -246.897778 
L 662.050774 -218.789133 
L 682.571083 -220.151331 
L 703.091393 -221.420611 
L 723.611702 -254.982799 
L 744.132012 -249.6646 
L 764.652321 -244.499704 
L 785.172631 -269.809005 
L 805.69294 -243.541118 
L 826.21325 -250.612226 
L 846.733559 -267.090853 
L 867.253868 -255.776245 
L 887.774178 -246.15685 
L 908.294487 -296.812875 
L 928.814797 -301.353799 
L 949.335106 -317.429925 
L 969.855416 -338.789457 
L 990.375725 -342.074958 
L 1010.896035 -343.340902 
L 1031.416344 -328.333374 
L 1051.936654 -320.41491 
L 1072.456963 -317.353707 
L 1092.977273 -326.670921 
L 1092.977273 -396.046398 
L 1092.977273 -396.046398 
L 1072.456963 -389.790387 
L 1051.936654 -386.422884 
L 1031.416344 -399.956575 
L 1010.896035 -386.715717 
L 990.375725 -382.898063 
L 969.855416 -386.955378 
L 949.335106 -395.145532 
L 928.814797 -382.906781 
L 908.294487 -380.499898 
L 887.774178 -344.397911 
L 867.253868 -349.728062 
L 846.733559 -345.252643 
L 826.21325 -345.195866 
L 805.69294 -325.780135 
L 785.172631 -325.875936 
L 764.652321 -315.657068 
L 744.132012 -314.656509 
L 723.611702 -316.370441 
L 703.091393 -309.363104 
L 682.571083 -330.868473 
L 662.050774 -331.573206 
L 641.530464 -331.249173 
L 621.010155 -338.790145 
L 600.489845 -364.191386 
L 579.969536 -369.962835 
L 559.449226 -292.689327 
L 538.928917 -261.823989 
L 518.408607 -258.671269 
L 497.888298 -268.440068 
L 477.367988 -299.108362 
L 456.847679 -292.35239 
L 436.327369 -306.223348 
L 415.80706 -309.11649 
L 395.28675 -273.576704 
L 374.766441 -281.594416 
L 354.246132 -301.468568 
L 333.725822 -307.580644 
L 313.205513 -308.060379 
L 292.685203 -253.850973 
L 272.164894 -278.522192 
L 251.644584 -285.580955 
L 231.124275 -316.948416 
L 210.603965 -273.270769 
L 190.083656 -346.620861 
L 169.563346 -334.380371 
L 149.043037 -313.0706 
L 128.522727 -344.031635 
z
" style="stroke: #ff7f0e; stroke-opacity: 0.2"/>
    </defs>
    <g clip-path="url(#p92aa94a011)">
     <use xlink:href="#m72b27675a7" x="0" y="576" style="fill: #ff7f0e; fill-opacity: 0.2; stroke: #ff7f0e; stroke-opacity: 0.2"/>
    </g>
   </g>
   <g id="PolyCollection_3">
    <defs>
     <path id="m2bced0dde5" d="M 128.522727 -269.38248 
L 128.522727 -175.174231 
L 149.043037 -147.687771 
L 169.563346 -191.535939 
L 190.083656 -119.118524 
L 210.603965 -174.028534 
L 231.124275 -174.495391 
L 251.644584 -158.275711 
L 272.164894 -145.901193 
L 292.685203 -116.897004 
L 313.205513 -139.542499 
L 333.725822 -132.916969 
L 354.246132 -128.06586 
L 374.766441 -107.942182 
L 395.28675 -138.045022 
L 415.80706 -130.336561 
L 436.327369 -133.671571 
L 456.847679 -123.800611 
L 477.367988 -121.640352 
L 497.888298 -138.36528 
L 518.408607 -131.371105 
L 538.928917 -133.840818 
L 559.449226 -159.569397 
L 579.969536 -160.692169 
L 600.489845 -137.179712 
L 621.010155 -146.991722 
L 641.530464 -165.209457 
L 662.050774 -182.959258 
L 682.571083 -224.237069 
L 703.091393 -203.62664 
L 723.611702 -157.070684 
L 744.132012 -172.286441 
L 764.652321 -168.587616 
L 785.172631 -172.537017 
L 805.69294 -173.874949 
L 826.21325 -178.29548 
L 846.733559 -181.242906 
L 867.253868 -144.422571 
L 887.774178 -144.281441 
L 908.294487 -183.670753 
L 928.814797 -200.661394 
L 949.335106 -228.819746 
L 969.855416 -215.403848 
L 990.375725 -232.466378 
L 1010.896035 -229.230153 
L 1031.416344 -220.04914 
L 1051.936654 -224.624658 
L 1072.456963 -226.411697 
L 1092.977273 -224.552307 
L 1092.977273 -296.367182 
L 1092.977273 -296.367182 
L 1072.456963 -297.612148 
L 1051.936654 -307.79321 
L 1031.416344 -289.175368 
L 1010.896035 -291.899702 
L 990.375725 -289.360585 
L 969.855416 -295.669954 
L 949.335106 -296.617249 
L 928.814797 -300.639129 
L 908.294487 -252.020901 
L 887.774178 -248.748155 
L 867.253868 -251.807513 
L 846.733559 -229.201638 
L 826.21325 -244.833224 
L 805.69294 -228.572359 
L 785.172631 -241.870956 
L 764.652321 -232.218218 
L 744.132012 -291.278651 
L 723.611702 -301.281618 
L 703.091393 -316.112391 
L 682.571083 -266.741905 
L 662.050774 -254.408356 
L 641.530464 -213.034129 
L 621.010155 -227.763754 
L 600.489845 -267.234253 
L 579.969536 -221.620968 
L 559.449226 -198.121301 
L 538.928917 -158.163287 
L 518.408607 -167.788253 
L 497.888298 -194.141901 
L 477.367988 -186.924109 
L 456.847679 -162.829025 
L 436.327369 -206.344995 
L 415.80706 -197.508604 
L 395.28675 -220.128502 
L 374.766441 -231.061829 
L 354.246132 -175.96345 
L 333.725822 -187.611726 
L 313.205513 -205.109373 
L 292.685203 -195.127498 
L 272.164894 -208.311824 
L 251.644584 -213.597099 
L 231.124275 -211.33088 
L 210.603965 -218.426157 
L 190.083656 -183.722333 
L 169.563346 -279.537258 
L 149.043037 -221.716926 
L 128.522727 -269.38248 
z
" style="stroke: #2ca02c; stroke-opacity: 0.2"/>
    </defs>
    <g clip-path="url(#p92aa94a011)">
     <use xlink:href="#m2bced0dde5" x="0" y="576" style="fill: #2ca02c; fill-opacity: 0.2; stroke: #2ca02c; stroke-opacity: 0.2"/>
    </g>
   </g>
   <g id="PolyCollection_4">
    <defs>
     <path id="m116d6344cc" d="M 128.522727 -425.266701 
L 128.522727 -368.119452 
L 149.043037 -356.797931 
L 169.563346 -335.606438 
L 190.083656 -341.441732 
L 210.603965 -337.90805 
L 231.124275 -352.686059 
L 251.644584 -344.330765 
L 272.164894 -328.447401 
L 292.685203 -307.770493 
L 313.205513 -337.34755 
L 333.725822 -311.512737 
L 354.246132 -321.890211 
L 374.766441 -295.514691 
L 395.28675 -313.808653 
L 415.80706 -311.916708 
L 436.327369 -324.106945 
L 456.847679 -299.891909 
L 477.367988 -300.373067 
L 497.888298 -320.970533 
L 518.408607 -300.660634 
L 538.928917 -333.524125 
L 559.449226 -341.562731 
L 579.969536 -341.037564 
L 600.489845 -344.384839 
L 621.010155 -320.354124 
L 641.530464 -340.632778 
L 662.050774 -346.974931 
L 682.571083 -349.277205 
L 703.091393 -346.420443 
L 723.611702 -365.610392 
L 744.132012 -353.540539 
L 764.652321 -394.592498 
L 785.172631 -381.238679 
L 805.69294 -366.248968 
L 826.21325 -358.207029 
L 846.733559 -365.292097 
L 867.253868 -364.717859 
L 887.774178 -356.989478 
L 908.294487 -406.451023 
L 928.814797 -411.553014 
L 949.335106 -437.268649 
L 969.855416 -429.973537 
L 990.375725 -439.989187 
L 1010.896035 -441.757918 
L 1031.416344 -417.723683 
L 1051.936654 -423.857112 
L 1072.456963 -426.460451 
L 1092.977273 -419.759067 
L 1092.977273 -534.662435 
L 1092.977273 -534.662435 
L 1072.456963 -543.425818 
L 1051.936654 -534.047115 
L 1031.416344 -527.828575 
L 1010.896035 -533.552397 
L 990.375725 -528.562253 
L 969.855416 -533.70928 
L 949.335106 -533.35858 
L 928.814797 -531.735239 
L 908.294487 -455.894519 
L 887.774178 -430.826969 
L 867.253868 -435.898083 
L 846.733559 -445.474722 
L 826.21325 -454.406292 
L 805.69294 -431.251619 
L 785.172631 -455.032214 
L 764.652321 -437.646568 
L 744.132012 -440.199599 
L 723.611702 -444.548305 
L 703.091393 -444.54514 
L 682.571083 -436.620649 
L 662.050774 -428.120613 
L 641.530464 -409.779745 
L 621.010155 -421.741034 
L 600.489845 -443.43946 
L 579.969536 -396.925597 
L 559.449226 -379.971647 
L 538.928917 -374.11387 
L 518.408607 -376.045328 
L 497.888298 -377.823913 
L 477.367988 -389.671332 
L 456.847679 -389.782239 
L 436.327369 -389.618157 
L 415.80706 -379.554998 
L 395.28675 -392.666446 
L 374.766441 -407.820264 
L 354.246132 -359.513332 
L 333.725822 -331.634801 
L 313.205513 -378.099188 
L 292.685203 -345.317344 
L 272.164894 -376.373439 
L 251.644584 -369.550002 
L 231.124275 -407.586233 
L 210.603965 -369.198521 
L 190.083656 -408.766519 
L 169.563346 -391.941372 
L 149.043037 -404.937088 
L 128.522727 -425.266701 
z
" style="stroke: #d62728; stroke-opacity: 0.2"/>
    </defs>
    <g clip-path="url(#p92aa94a011)">
     <use xlink:href="#m116d6344cc" x="0" y="576" style="fill: #d62728; fill-opacity: 0.2; stroke: #d62728; stroke-opacity: 0.2"/>
    </g>
   </g>
   <g id="matplotlib.axis_1">
    <g id="xtick_1">
     <g id="line2d_1">
      <defs>
       <path id="m96eaa15970" d="M 0 0 
L 0 3.5 
" style="stroke: #000000; stroke-width: 0.8"/>
      </defs>
      <g>
       <use xlink:href="#m96eaa15970" x="118.262573" y="489.832" style="stroke: #000000; stroke-width: 0.8"/>
      </g>
     </g>
     <g id="text_1">
      <!-- 0 -->
      <g transform="translate(111.900073 512.028875) scale(0.2 -0.2)">
       <defs>
        <path id="DejaVuSans-30" d="M 2034 4250 
Q 1547 4250 1301 3770 
Q 1056 3291 1056 2328 
Q 1056 1369 1301 889 
Q 1547 409 2034 409 
Q 2525 409 2770 889 
Q 3016 1369 3016 2328 
Q 3016 3291 2770 3770 
Q 2525 4250 2034 4250 
z
M 2034 4750 
Q 2819 4750 3233 4129 
Q 3647 3509 3647 2328 
Q 3647 1150 3233 529 
Q 2819 -91 2034 -91 
Q 1250 -91 836 529 
Q 422 1150 422 2328 
Q 422 3509 836 4129 
Q 1250 4750 2034 4750 
z
" transform="scale(0.015625)"/>
       </defs>
       <use xlink:href="#DejaVuSans-30"/>
      </g>
     </g>
    </g>
    <g id="xtick_2">
     <g id="line2d_2">
      <g>
       <use xlink:href="#m96eaa15970" x="323.465667" y="489.832" style="stroke: #000000; stroke-width: 0.8"/>
      </g>
     </g>
     <g id="text_2">
      <!-- 20 -->
      <g transform="translate(310.740667 512.028875) scale(0.2 -0.2)">
       <defs>
        <path id="DejaVuSans-32" d="M 1228 531 
L 3431 531 
L 3431 0 
L 469 0 
L 469 531 
Q 828 903 1448 1529 
Q 2069 2156 2228 2338 
Q 2531 2678 2651 2914 
Q 2772 3150 2772 3378 
Q 2772 3750 2511 3984 
Q 2250 4219 1831 4219 
Q 1534 4219 1204 4116 
Q 875 4013 500 3803 
L 500 4441 
Q 881 4594 1212 4672 
Q 1544 4750 1819 4750 
Q 2544 4750 2975 4387 
Q 3406 4025 3406 3419 
Q 3406 3131 3298 2873 
Q 3191 2616 2906 2266 
Q 2828 2175 2409 1742 
Q 1991 1309 1228 531 
z
" transform="scale(0.015625)"/>
       </defs>
       <use xlink:href="#DejaVuSans-32"/>
       <use xlink:href="#DejaVuSans-30" x="63.623047"/>
      </g>
     </g>
    </g>
    <g id="xtick_3">
     <g id="line2d_3">
      <g>
       <use xlink:href="#m96eaa15970" x="528.668762" y="489.832" style="stroke: #000000; stroke-width: 0.8"/>
      </g>
     </g>
     <g id="text_3">
      <!-- 40 -->
      <g transform="translate(515.943762 512.028875) scale(0.2 -0.2)">
       <defs>
        <path id="DejaVuSans-34" d="M 2419 4116 
L 825 1625 
L 2419 1625 
L 2419 4116 
z
M 2253 4666 
L 3047 4666 
L 3047 1625 
L 3713 1625 
L 3713 1100 
L 3047 1100 
L 3047 0 
L 2419 0 
L 2419 1100 
L 313 1100 
L 313 1709 
L 2253 4666 
z
" transform="scale(0.015625)"/>
       </defs>
       <use xlink:href="#DejaVuSans-34"/>
       <use xlink:href="#DejaVuSans-30" x="63.623047"/>
      </g>
     </g>
    </g>
    <g id="xtick_4">
     <g id="line2d_4">
      <g>
       <use xlink:href="#m96eaa15970" x="733.871857" y="489.832" style="stroke: #000000; stroke-width: 0.8"/>
      </g>
     </g>
     <g id="text_4">
      <!-- 60 -->
      <g transform="translate(721.146857 512.028875) scale(0.2 -0.2)">
       <defs>
        <path id="DejaVuSans-36" d="M 2113 2584 
Q 1688 2584 1439 2293 
Q 1191 2003 1191 1497 
Q 1191 994 1439 701 
Q 1688 409 2113 409 
Q 2538 409 2786 701 
Q 3034 994 3034 1497 
Q 3034 2003 2786 2293 
Q 2538 2584 2113 2584 
z
M 3366 4563 
L 3366 3988 
Q 3128 4100 2886 4159 
Q 2644 4219 2406 4219 
Q 1781 4219 1451 3797 
Q 1122 3375 1075 2522 
Q 1259 2794 1537 2939 
Q 1816 3084 2150 3084 
Q 2853 3084 3261 2657 
Q 3669 2231 3669 1497 
Q 3669 778 3244 343 
Q 2819 -91 2113 -91 
Q 1303 -91 875 529 
Q 447 1150 447 2328 
Q 447 3434 972 4092 
Q 1497 4750 2381 4750 
Q 2619 4750 2861 4703 
Q 3103 4656 3366 4563 
z
" transform="scale(0.015625)"/>
       </defs>
       <use xlink:href="#DejaVuSans-36"/>
       <use xlink:href="#DejaVuSans-30" x="63.623047"/>
      </g>
     </g>
    </g>
    <g id="xtick_5">
     <g id="line2d_5">
      <g>
       <use xlink:href="#m96eaa15970" x="939.074952" y="489.832" style="stroke: #000000; stroke-width: 0.8"/>
      </g>
     </g>
     <g id="text_5">
      <!-- 80 -->
      <g transform="translate(926.349952 512.028875) scale(0.2 -0.2)">
       <defs>
        <path id="DejaVuSans-38" d="M 2034 2216 
Q 1584 2216 1326 1975 
Q 1069 1734 1069 1313 
Q 1069 891 1326 650 
Q 1584 409 2034 409 
Q 2484 409 2743 651 
Q 3003 894 3003 1313 
Q 3003 1734 2745 1975 
Q 2488 2216 2034 2216 
z
M 1403 2484 
Q 997 2584 770 2862 
Q 544 3141 544 3541 
Q 544 4100 942 4425 
Q 1341 4750 2034 4750 
Q 2731 4750 3128 4425 
Q 3525 4100 3525 3541 
Q 3525 3141 3298 2862 
Q 3072 2584 2669 2484 
Q 3125 2378 3379 2068 
Q 3634 1759 3634 1313 
Q 3634 634 3220 271 
Q 2806 -91 2034 -91 
Q 1263 -91 848 271 
Q 434 634 434 1313 
Q 434 1759 690 2068 
Q 947 2378 1403 2484 
z
M 1172 3481 
Q 1172 3119 1398 2916 
Q 1625 2713 2034 2713 
Q 2441 2713 2670 2916 
Q 2900 3119 2900 3481 
Q 2900 3844 2670 4047 
Q 2441 4250 2034 4250 
Q 1625 4250 1398 4047 
Q 1172 3844 1172 3481 
z
" transform="scale(0.015625)"/>
       </defs>
       <use xlink:href="#DejaVuSans-38"/>
       <use xlink:href="#DejaVuSans-30" x="63.623047"/>
      </g>
     </g>
    </g>
    <g id="text_6">
     <!-- Percentile Threshold -->
     <g transform="translate(508.970312 535.385125) scale(0.2 -0.2)">
      <defs>
       <path id="DejaVuSans-50" d="M 1259 4147 
L 1259 2394 
L 2053 2394 
Q 2494 2394 2734 2622 
Q 2975 2850 2975 3272 
Q 2975 3691 2734 3919 
Q 2494 4147 2053 4147 
L 1259 4147 
z
M 628 4666 
L 2053 4666 
Q 2838 4666 3239 4311 
Q 3641 3956 3641 3272 
Q 3641 2581 3239 2228 
Q 2838 1875 2053 1875 
L 1259 1875 
L 1259 0 
L 628 0 
L 628 4666 
z
" transform="scale(0.015625)"/>
       <path id="DejaVuSans-65" d="M 3597 1894 
L 3597 1613 
L 953 1613 
Q 991 1019 1311 708 
Q 1631 397 2203 397 
Q 2534 397 2845 478 
Q 3156 559 3463 722 
L 3463 178 
Q 3153 47 2828 -22 
Q 2503 -91 2169 -91 
Q 1331 -91 842 396 
Q 353 884 353 1716 
Q 353 2575 817 3079 
Q 1281 3584 2069 3584 
Q 2775 3584 3186 3129 
Q 3597 2675 3597 1894 
z
M 3022 2063 
Q 3016 2534 2758 2815 
Q 2500 3097 2075 3097 
Q 1594 3097 1305 2825 
Q 1016 2553 972 2059 
L 3022 2063 
z
" transform="scale(0.015625)"/>
       <path id="DejaVuSans-72" d="M 2631 2963 
Q 2534 3019 2420 3045 
Q 2306 3072 2169 3072 
Q 1681 3072 1420 2755 
Q 1159 2438 1159 1844 
L 1159 0 
L 581 0 
L 581 3500 
L 1159 3500 
L 1159 2956 
Q 1341 3275 1631 3429 
Q 1922 3584 2338 3584 
Q 2397 3584 2469 3576 
Q 2541 3569 2628 3553 
L 2631 2963 
z
" transform="scale(0.015625)"/>
       <path id="DejaVuSans-63" d="M 3122 3366 
L 3122 2828 
Q 2878 2963 2633 3030 
Q 2388 3097 2138 3097 
Q 1578 3097 1268 2742 
Q 959 2388 959 1747 
Q 959 1106 1268 751 
Q 1578 397 2138 397 
Q 2388 397 2633 464 
Q 2878 531 3122 666 
L 3122 134 
Q 2881 22 2623 -34 
Q 2366 -91 2075 -91 
Q 1284 -91 818 406 
Q 353 903 353 1747 
Q 353 2603 823 3093 
Q 1294 3584 2113 3584 
Q 2378 3584 2631 3529 
Q 2884 3475 3122 3366 
z
" transform="scale(0.015625)"/>
       <path id="DejaVuSans-6e" d="M 3513 2113 
L 3513 0 
L 2938 0 
L 2938 2094 
Q 2938 2591 2744 2837 
Q 2550 3084 2163 3084 
Q 1697 3084 1428 2787 
Q 1159 2491 1159 1978 
L 1159 0 
L 581 0 
L 581 3500 
L 1159 3500 
L 1159 2956 
Q 1366 3272 1645 3428 
Q 1925 3584 2291 3584 
Q 2894 3584 3203 3211 
Q 3513 2838 3513 2113 
z
" transform="scale(0.015625)"/>
       <path id="DejaVuSans-74" d="M 1172 4494 
L 1172 3500 
L 2356 3500 
L 2356 3053 
L 1172 3053 
L 1172 1153 
Q 1172 725 1289 603 
Q 1406 481 1766 481 
L 2356 481 
L 2356 0 
L 1766 0 
Q 1100 0 847 248 
Q 594 497 594 1153 
L 594 3053 
L 172 3053 
L 172 3500 
L 594 3500 
L 594 4494 
L 1172 4494 
z
" transform="scale(0.015625)"/>
       <path id="DejaVuSans-69" d="M 603 3500 
L 1178 3500 
L 1178 0 
L 603 0 
L 603 3500 
z
M 603 4863 
L 1178 4863 
L 1178 4134 
L 603 4134 
L 603 4863 
z
" transform="scale(0.015625)"/>
       <path id="DejaVuSans-6c" d="M 603 4863 
L 1178 4863 
L 1178 0 
L 603 0 
L 603 4863 
z
" transform="scale(0.015625)"/>
       <path id="DejaVuSans-20" transform="scale(0.015625)"/>
       <path id="DejaVuSans-54" d="M -19 4666 
L 3928 4666 
L 3928 4134 
L 2272 4134 
L 2272 0 
L 1638 0 
L 1638 4134 
L -19 4134 
L -19 4666 
z
" transform="scale(0.015625)"/>
       <path id="DejaVuSans-68" d="M 3513 2113 
L 3513 0 
L 2938 0 
L 2938 2094 
Q 2938 2591 2744 2837 
Q 2550 3084 2163 3084 
Q 1697 3084 1428 2787 
Q 1159 2491 1159 1978 
L 1159 0 
L 581 0 
L 581 4863 
L 1159 4863 
L 1159 2956 
Q 1366 3272 1645 3428 
Q 1925 3584 2291 3584 
Q 2894 3584 3203 3211 
Q 3513 2838 3513 2113 
z
" transform="scale(0.015625)"/>
       <path id="DejaVuSans-73" d="M 2834 3397 
L 2834 2853 
Q 2591 2978 2328 3040 
Q 2066 3103 1784 3103 
Q 1356 3103 1142 2972 
Q 928 2841 928 2578 
Q 928 2378 1081 2264 
Q 1234 2150 1697 2047 
L 1894 2003 
Q 2506 1872 2764 1633 
Q 3022 1394 3022 966 
Q 3022 478 2636 193 
Q 2250 -91 1575 -91 
Q 1294 -91 989 -36 
Q 684 19 347 128 
L 347 722 
Q 666 556 975 473 
Q 1284 391 1588 391 
Q 1994 391 2212 530 
Q 2431 669 2431 922 
Q 2431 1156 2273 1281 
Q 2116 1406 1581 1522 
L 1381 1569 
Q 847 1681 609 1914 
Q 372 2147 372 2553 
Q 372 3047 722 3315 
Q 1072 3584 1716 3584 
Q 2034 3584 2315 3537 
Q 2597 3491 2834 3397 
z
" transform="scale(0.015625)"/>
       <path id="DejaVuSans-6f" d="M 1959 3097 
Q 1497 3097 1228 2736 
Q 959 2375 959 1747 
Q 959 1119 1226 758 
Q 1494 397 1959 397 
Q 2419 397 2687 759 
Q 2956 1122 2956 1747 
Q 2956 2369 2687 2733 
Q 2419 3097 1959 3097 
z
M 1959 3584 
Q 2709 3584 3137 3096 
Q 3566 2609 3566 1747 
Q 3566 888 3137 398 
Q 2709 -91 1959 -91 
Q 1206 -91 779 398 
Q 353 888 353 1747 
Q 353 2609 779 3096 
Q 1206 3584 1959 3584 
z
" transform="scale(0.015625)"/>
       <path id="DejaVuSans-64" d="M 2906 2969 
L 2906 4863 
L 3481 4863 
L 3481 0 
L 2906 0 
L 2906 525 
Q 2725 213 2448 61 
Q 2172 -91 1784 -91 
Q 1150 -91 751 415 
Q 353 922 353 1747 
Q 353 2572 751 3078 
Q 1150 3584 1784 3584 
Q 2172 3584 2448 3432 
Q 2725 3281 2906 2969 
z
M 947 1747 
Q 947 1113 1208 752 
Q 1469 391 1925 391 
Q 2381 391 2643 752 
Q 2906 1113 2906 1747 
Q 2906 2381 2643 2742 
Q 2381 3103 1925 3103 
Q 1469 3103 1208 2742 
Q 947 2381 947 1747 
z
" transform="scale(0.015625)"/>
      </defs>
      <use xlink:href="#DejaVuSans-50"/>
      <use xlink:href="#DejaVuSans-65" x="56.677734"/>
      <use xlink:href="#DejaVuSans-72" x="118.201172"/>
      <use xlink:href="#DejaVuSans-63" x="157.064453"/>
      <use xlink:href="#DejaVuSans-65" x="212.044922"/>
      <use xlink:href="#DejaVuSans-6e" x="273.568359"/>
      <use xlink:href="#DejaVuSans-74" x="336.947266"/>
      <use xlink:href="#DejaVuSans-69" x="376.15625"/>
      <use xlink:href="#DejaVuSans-6c" x="403.939453"/>
      <use xlink:href="#DejaVuSans-65" x="431.722656"/>
      <use xlink:href="#DejaVuSans-20" x="493.246094"/>
      <use xlink:href="#DejaVuSans-54" x="525.033203"/>
      <use xlink:href="#DejaVuSans-68" x="586.117188"/>
      <use xlink:href="#DejaVuSans-72" x="649.496094"/>
      <use xlink:href="#DejaVuSans-65" x="688.359375"/>
      <use xlink:href="#DejaVuSans-73" x="749.882812"/>
      <use xlink:href="#DejaVuSans-68" x="801.982422"/>
      <use xlink:href="#DejaVuSans-6f" x="865.361328"/>
      <use xlink:href="#DejaVuSans-6c" x="926.542969"/>
      <use xlink:href="#DejaVuSans-64" x="954.326172"/>
     </g>
     <!-- (Using "max_mean" Threshold Handling) -->
     <g transform="translate(407.220312 557.78075) scale(0.2 -0.2)">
      <defs>
       <path id="DejaVuSans-28" d="M 1984 4856 
Q 1566 4138 1362 3434 
Q 1159 2731 1159 2009 
Q 1159 1288 1364 580 
Q 1569 -128 1984 -844 
L 1484 -844 
Q 1016 -109 783 600 
Q 550 1309 550 2009 
Q 550 2706 781 3412 
Q 1013 4119 1484 4856 
L 1984 4856 
z
" transform="scale(0.015625)"/>
       <path id="DejaVuSans-55" d="M 556 4666 
L 1191 4666 
L 1191 1831 
Q 1191 1081 1462 751 
Q 1734 422 2344 422 
Q 2950 422 3222 751 
Q 3494 1081 3494 1831 
L 3494 4666 
L 4128 4666 
L 4128 1753 
Q 4128 841 3676 375 
Q 3225 -91 2344 -91 
Q 1459 -91 1007 375 
Q 556 841 556 1753 
L 556 4666 
z
" transform="scale(0.015625)"/>
       <path id="DejaVuSans-67" d="M 2906 1791 
Q 2906 2416 2648 2759 
Q 2391 3103 1925 3103 
Q 1463 3103 1205 2759 
Q 947 2416 947 1791 
Q 947 1169 1205 825 
Q 1463 481 1925 481 
Q 2391 481 2648 825 
Q 2906 1169 2906 1791 
z
M 3481 434 
Q 3481 -459 3084 -895 
Q 2688 -1331 1869 -1331 
Q 1566 -1331 1297 -1286 
Q 1028 -1241 775 -1147 
L 775 -588 
Q 1028 -725 1275 -790 
Q 1522 -856 1778 -856 
Q 2344 -856 2625 -561 
Q 2906 -266 2906 331 
L 2906 616 
Q 2728 306 2450 153 
Q 2172 0 1784 0 
Q 1141 0 747 490 
Q 353 981 353 1791 
Q 353 2603 747 3093 
Q 1141 3584 1784 3584 
Q 2172 3584 2450 3431 
Q 2728 3278 2906 2969 
L 2906 3500 
L 3481 3500 
L 3481 434 
z
" transform="scale(0.015625)"/>
       <path id="DejaVuSans-22" d="M 1147 4666 
L 1147 2931 
L 616 2931 
L 616 4666 
L 1147 4666 
z
M 2328 4666 
L 2328 2931 
L 1797 2931 
L 1797 4666 
L 2328 4666 
z
" transform="scale(0.015625)"/>
       <path id="DejaVuSans-6d" d="M 3328 2828 
Q 3544 3216 3844 3400 
Q 4144 3584 4550 3584 
Q 5097 3584 5394 3201 
Q 5691 2819 5691 2113 
L 5691 0 
L 5113 0 
L 5113 2094 
Q 5113 2597 4934 2840 
Q 4756 3084 4391 3084 
Q 3944 3084 3684 2787 
Q 3425 2491 3425 1978 
L 3425 0 
L 2847 0 
L 2847 2094 
Q 2847 2600 2669 2842 
Q 2491 3084 2119 3084 
Q 1678 3084 1418 2786 
Q 1159 2488 1159 1978 
L 1159 0 
L 581 0 
L 581 3500 
L 1159 3500 
L 1159 2956 
Q 1356 3278 1631 3431 
Q 1906 3584 2284 3584 
Q 2666 3584 2933 3390 
Q 3200 3197 3328 2828 
z
" transform="scale(0.015625)"/>
       <path id="DejaVuSans-61" d="M 2194 1759 
Q 1497 1759 1228 1600 
Q 959 1441 959 1056 
Q 959 750 1161 570 
Q 1363 391 1709 391 
Q 2188 391 2477 730 
Q 2766 1069 2766 1631 
L 2766 1759 
L 2194 1759 
z
M 3341 1997 
L 3341 0 
L 2766 0 
L 2766 531 
Q 2569 213 2275 61 
Q 1981 -91 1556 -91 
Q 1019 -91 701 211 
Q 384 513 384 1019 
Q 384 1609 779 1909 
Q 1175 2209 1959 2209 
L 2766 2209 
L 2766 2266 
Q 2766 2663 2505 2880 
Q 2244 3097 1772 3097 
Q 1472 3097 1187 3025 
Q 903 2953 641 2809 
L 641 3341 
Q 956 3463 1253 3523 
Q 1550 3584 1831 3584 
Q 2591 3584 2966 3190 
Q 3341 2797 3341 1997 
z
" transform="scale(0.015625)"/>
       <path id="DejaVuSans-78" d="M 3513 3500 
L 2247 1797 
L 3578 0 
L 2900 0 
L 1881 1375 
L 863 0 
L 184 0 
L 1544 1831 
L 300 3500 
L 978 3500 
L 1906 2253 
L 2834 3500 
L 3513 3500 
z
" transform="scale(0.015625)"/>
       <path id="DejaVuSans-5f" d="M 3263 -1063 
L 3263 -1509 
L -63 -1509 
L -63 -1063 
L 3263 -1063 
z
" transform="scale(0.015625)"/>
       <path id="DejaVuSans-48" d="M 628 4666 
L 1259 4666 
L 1259 2753 
L 3553 2753 
L 3553 4666 
L 4184 4666 
L 4184 0 
L 3553 0 
L 3553 2222 
L 1259 2222 
L 1259 0 
L 628 0 
L 628 4666 
z
" transform="scale(0.015625)"/>
       <path id="DejaVuSans-29" d="M 513 4856 
L 1013 4856 
Q 1481 4119 1714 3412 
Q 1947 2706 1947 2009 
Q 1947 1309 1714 600 
Q 1481 -109 1013 -844 
L 513 -844 
Q 928 -128 1133 580 
Q 1338 1288 1338 2009 
Q 1338 2731 1133 3434 
Q 928 4138 513 4856 
z
" transform="scale(0.015625)"/>
      </defs>
      <use xlink:href="#DejaVuSans-28"/>
      <use xlink:href="#DejaVuSans-55" x="39.013672"/>
      <use xlink:href="#DejaVuSans-73" x="112.207031"/>
      <use xlink:href="#DejaVuSans-69" x="164.306641"/>
      <use xlink:href="#DejaVuSans-6e" x="192.089844"/>
      <use xlink:href="#DejaVuSans-67" x="255.46875"/>
      <use xlink:href="#DejaVuSans-20" x="318.945312"/>
      <use xlink:href="#DejaVuSans-22" x="350.732422"/>
      <use xlink:href="#DejaVuSans-6d" x="396.728516"/>
      <use xlink:href="#DejaVuSans-61" x="494.140625"/>
      <use xlink:href="#DejaVuSans-78" x="555.419922"/>
      <use xlink:href="#DejaVuSans-5f" x="614.599609"/>
      <use xlink:href="#DejaVuSans-6d" x="664.599609"/>
      <use xlink:href="#DejaVuSans-65" x="762.011719"/>
      <use xlink:href="#DejaVuSans-61" x="823.535156"/>
      <use xlink:href="#DejaVuSans-6e" x="884.814453"/>
      <use xlink:href="#DejaVuSans-22" x="948.193359"/>
      <use xlink:href="#DejaVuSans-20" x="994.189453"/>
      <use xlink:href="#DejaVuSans-54" x="1025.976562"/>
      <use xlink:href="#DejaVuSans-68" x="1087.060547"/>
      <use xlink:href="#DejaVuSans-72" x="1150.439453"/>
      <use xlink:href="#DejaVuSans-65" x="1189.302734"/>
      <use xlink:href="#DejaVuSans-73" x="1250.826172"/>
      <use xlink:href="#DejaVuSans-68" x="1302.925781"/>
      <use xlink:href="#DejaVuSans-6f" x="1366.304688"/>
      <use xlink:href="#DejaVuSans-6c" x="1427.486328"/>
      <use xlink:href="#DejaVuSans-64" x="1455.269531"/>
      <use xlink:href="#DejaVuSans-20" x="1518.746094"/>
      <use xlink:href="#DejaVuSans-48" x="1550.533203"/>
      <use xlink:href="#DejaVuSans-61" x="1625.728516"/>
      <use xlink:href="#DejaVuSans-6e" x="1687.007812"/>
      <use xlink:href="#DejaVuSans-64" x="1750.386719"/>
      <use xlink:href="#DejaVuSans-6c" x="1813.863281"/>
      <use xlink:href="#DejaVuSans-69" x="1841.646484"/>
      <use xlink:href="#DejaVuSans-6e" x="1869.429688"/>
      <use xlink:href="#DejaVuSans-67" x="1932.808594"/>
      <use xlink:href="#DejaVuSans-29" x="1996.285156"/>
     </g>
    </g>
   </g>
   <g id="matplotlib.axis_2">
    <g id="ytick_1">
     <g id="line2d_6">
      <defs>
       <path id="m1e5cca23d6" d="M 0 0 
L -3.5 0 
" style="stroke: #000000; stroke-width: 0.8"/>
      </defs>
      <g>
       <use xlink:href="#m1e5cca23d6" x="80.3" y="458.089257" style="stroke: #000000; stroke-width: 0.8"/>
      </g>
     </g>
     <g id="text_7">
      <!-- 150 -->
      <g transform="translate(35.125 465.687695) scale(0.2 -0.2)">
       <defs>
        <path id="DejaVuSans-31" d="M 794 531 
L 1825 531 
L 1825 4091 
L 703 3866 
L 703 4441 
L 1819 4666 
L 2450 4666 
L 2450 531 
L 3481 531 
L 3481 0 
L 794 0 
L 794 531 
z
" transform="scale(0.015625)"/>
        <path id="DejaVuSans-35" d="M 691 4666 
L 3169 4666 
L 3169 4134 
L 1269 4134 
L 1269 2991 
Q 1406 3038 1543 3061 
Q 1681 3084 1819 3084 
Q 2600 3084 3056 2656 
Q 3513 2228 3513 1497 
Q 3513 744 3044 326 
Q 2575 -91 1722 -91 
Q 1428 -91 1123 -41 
Q 819 9 494 109 
L 494 744 
Q 775 591 1075 516 
Q 1375 441 1709 441 
Q 2250 441 2565 725 
Q 2881 1009 2881 1497 
Q 2881 1984 2565 2268 
Q 2250 2553 1709 2553 
Q 1456 2553 1204 2497 
Q 953 2441 691 2322 
L 691 4666 
z
" transform="scale(0.015625)"/>
       </defs>
       <use xlink:href="#DejaVuSans-31"/>
       <use xlink:href="#DejaVuSans-35" x="63.623047"/>
       <use xlink:href="#DejaVuSans-30" x="127.246094"/>
      </g>
     </g>
    </g>
    <g id="ytick_2">
     <g id="line2d_7">
      <g>
       <use xlink:href="#m1e5cca23d6" x="80.3" y="395.738543" style="stroke: #000000; stroke-width: 0.8"/>
      </g>
     </g>
     <g id="text_8">
      <!-- 175 -->
      <g transform="translate(35.125 403.336981) scale(0.2 -0.2)">
       <defs>
        <path id="DejaVuSans-37" d="M 525 4666 
L 3525 4666 
L 3525 4397 
L 1831 0 
L 1172 0 
L 2766 4134 
L 525 4134 
L 525 4666 
z
" transform="scale(0.015625)"/>
       </defs>
       <use xlink:href="#DejaVuSans-31"/>
       <use xlink:href="#DejaVuSans-37" x="63.623047"/>
       <use xlink:href="#DejaVuSans-35" x="127.246094"/>
      </g>
     </g>
    </g>
    <g id="ytick_3">
     <g id="line2d_8">
      <g>
       <use xlink:href="#m1e5cca23d6" x="80.3" y="333.387829" style="stroke: #000000; stroke-width: 0.8"/>
      </g>
     </g>
     <g id="text_9">
      <!-- 200 -->
      <g transform="translate(35.125 340.986266) scale(0.2 -0.2)">
       <use xlink:href="#DejaVuSans-32"/>
       <use xlink:href="#DejaVuSans-30" x="63.623047"/>
       <use xlink:href="#DejaVuSans-30" x="127.246094"/>
      </g>
     </g>
    </g>
    <g id="ytick_4">
     <g id="line2d_9">
      <g>
       <use xlink:href="#m1e5cca23d6" x="80.3" y="271.037114" style="stroke: #000000; stroke-width: 0.8"/>
      </g>
     </g>
     <g id="text_10">
      <!-- 225 -->
      <g transform="translate(35.125 278.635552) scale(0.2 -0.2)">
       <use xlink:href="#DejaVuSans-32"/>
       <use xlink:href="#DejaVuSans-32" x="63.623047"/>
       <use xlink:href="#DejaVuSans-35" x="127.246094"/>
      </g>
     </g>
    </g>
    <g id="ytick_5">
     <g id="line2d_10">
      <g>
       <use xlink:href="#m1e5cca23d6" x="80.3" y="208.6864" style="stroke: #000000; stroke-width: 0.8"/>
      </g>
     </g>
     <g id="text_11">
      <!-- 250 -->
      <g transform="translate(35.125 216.284838) scale(0.2 -0.2)">
       <use xlink:href="#DejaVuSans-32"/>
       <use xlink:href="#DejaVuSans-35" x="63.623047"/>
       <use xlink:href="#DejaVuSans-30" x="127.246094"/>
      </g>
     </g>
    </g>
    <g id="ytick_6">
     <g id="line2d_11">
      <g>
       <use xlink:href="#m1e5cca23d6" x="80.3" y="146.335686" style="stroke: #000000; stroke-width: 0.8"/>
      </g>
     </g>
     <g id="text_12">
      <!-- 275 -->
      <g transform="translate(35.125 153.934123) scale(0.2 -0.2)">
       <use xlink:href="#DejaVuSans-32"/>
       <use xlink:href="#DejaVuSans-37" x="63.623047"/>
       <use xlink:href="#DejaVuSans-35" x="127.246094"/>
      </g>
     </g>
    </g>
    <g id="ytick_7">
     <g id="line2d_12">
      <g>
       <use xlink:href="#m1e5cca23d6" x="80.3" y="83.984971" style="stroke: #000000; stroke-width: 0.8"/>
      </g>
     </g>
     <g id="text_13">
      <!-- 300 -->
      <g transform="translate(35.125 91.583409) scale(0.2 -0.2)">
       <defs>
        <path id="DejaVuSans-33" d="M 2597 2516 
Q 3050 2419 3304 2112 
Q 3559 1806 3559 1356 
Q 3559 666 3084 287 
Q 2609 -91 1734 -91 
Q 1441 -91 1130 -33 
Q 819 25 488 141 
L 488 750 
Q 750 597 1062 519 
Q 1375 441 1716 441 
Q 2309 441 2620 675 
Q 2931 909 2931 1356 
Q 2931 1769 2642 2001 
Q 2353 2234 1838 2234 
L 1294 2234 
L 1294 2753 
L 1863 2753 
Q 2328 2753 2575 2939 
Q 2822 3125 2822 3475 
Q 2822 3834 2567 4026 
Q 2313 4219 1838 4219 
Q 1578 4219 1281 4162 
Q 984 4106 628 3988 
L 628 4550 
Q 988 4650 1302 4700 
Q 1616 4750 1894 4750 
Q 2613 4750 3031 4423 
Q 3450 4097 3450 3541 
Q 3450 3153 3228 2886 
Q 3006 2619 2597 2516 
z
" transform="scale(0.015625)"/>
       </defs>
       <use xlink:href="#DejaVuSans-33"/>
       <use xlink:href="#DejaVuSans-30" x="63.623047"/>
       <use xlink:href="#DejaVuSans-30" x="127.246094"/>
      </g>
     </g>
    </g>
    <g id="ytick_8">
     <g id="line2d_13">
      <g>
       <use xlink:href="#m1e5cca23d6" x="80.3" y="21.634257" style="stroke: #000000; stroke-width: 0.8"/>
      </g>
     </g>
     <g id="text_14">
      <!-- 325 -->
      <g transform="translate(35.125 29.232695) scale(0.2 -0.2)">
       <use xlink:href="#DejaVuSans-33"/>
       <use xlink:href="#DejaVuSans-32" x="63.623047"/>
       <use xlink:href="#DejaVuSans-35" x="127.246094"/>
      </g>
     </g>
    </g>
    <g id="text_15">
     <!-- MSE -->
     <g transform="translate(26.965625 271.611313) rotate(-90) scale(0.2 -0.2)">
      <defs>
       <path id="DejaVuSans-4d" d="M 628 4666 
L 1569 4666 
L 2759 1491 
L 3956 4666 
L 4897 4666 
L 4897 0 
L 4281 0 
L 4281 4097 
L 3078 897 
L 2444 897 
L 1241 4097 
L 1241 0 
L 628 0 
L 628 4666 
z
" transform="scale(0.015625)"/>
       <path id="DejaVuSans-53" d="M 3425 4513 
L 3425 3897 
Q 3066 4069 2747 4153 
Q 2428 4238 2131 4238 
Q 1616 4238 1336 4038 
Q 1056 3838 1056 3469 
Q 1056 3159 1242 3001 
Q 1428 2844 1947 2747 
L 2328 2669 
Q 3034 2534 3370 2195 
Q 3706 1856 3706 1288 
Q 3706 609 3251 259 
Q 2797 -91 1919 -91 
Q 1588 -91 1214 -16 
Q 841 59 441 206 
L 441 856 
Q 825 641 1194 531 
Q 1563 422 1919 422 
Q 2459 422 2753 634 
Q 3047 847 3047 1241 
Q 3047 1584 2836 1778 
Q 2625 1972 2144 2069 
L 1759 2144 
Q 1053 2284 737 2584 
Q 422 2884 422 3419 
Q 422 4038 858 4394 
Q 1294 4750 2059 4750 
Q 2388 4750 2728 4690 
Q 3069 4631 3425 4513 
z
" transform="scale(0.015625)"/>
       <path id="DejaVuSans-45" d="M 628 4666 
L 3578 4666 
L 3578 4134 
L 1259 4134 
L 1259 2753 
L 3481 2753 
L 3481 2222 
L 1259 2222 
L 1259 531 
L 3634 531 
L 3634 0 
L 628 0 
L 628 4666 
z
" transform="scale(0.015625)"/>
      </defs>
      <use xlink:href="#DejaVuSans-4d"/>
      <use xlink:href="#DejaVuSans-53" x="86.279297"/>
      <use xlink:href="#DejaVuSans-45" x="149.755859"/>
     </g>
    </g>
   </g>
   <g id="line2d_14">
    <path d="M 128.522727 346.19359 
L 149.043037 370.49988 
L 169.563346 371.814594 
L 190.083656 377.857792 
L 210.603965 392.506364 
L 231.124275 376.708947 
L 251.644584 392.488359 
L 272.164894 396.31303 
L 292.685203 409.25223 
L 313.205513 406.868872 
L 333.725822 421.987348 
L 354.246132 413.392137 
L 374.766441 397.001436 
L 395.28675 406.620414 
L 415.80706 403.357595 
L 436.327369 402.511497 
L 456.847679 402.256047 
L 477.367988 404.357676 
L 497.888298 407.626598 
L 518.408607 404.502143 
L 538.928917 404.783361 
L 559.449226 399.432009 
L 579.969536 374.705725 
L 600.489845 379.66808 
L 621.010155 375.420339 
L 641.530464 377.56925 
L 662.050774 372.252299 
L 682.571083 364.27191 
L 703.091393 367.684295 
L 723.611702 366.796991 
L 744.132012 368.106201 
L 764.652321 369.051084 
L 785.172631 362.150363 
L 805.69294 361.615387 
L 826.21325 368.614076 
L 846.733559 361.122676 
L 867.253868 360.025018 
L 887.774178 368.449838 
L 908.294487 327.823704 
L 928.814797 302.825587 
L 949.335106 308.114479 
L 969.855416 309.063631 
L 990.375725 303.738997 
L 1010.896035 310.249516 
L 1031.416344 308.140768 
L 1051.936654 309.106193 
L 1072.456963 305.684411 
L 1092.977273 310.25038 
" clip-path="url(#p92aa94a011)" style="fill: none; stroke: #1f77b4; stroke-width: 1.5; stroke-linecap: square"/>
   </g>
   <g id="line2d_15">
    <path d="M 128.522727 287.397214 
L 149.043037 294.601735 
L 169.563346 290.921192 
L 190.083656 276.888005 
L 210.603965 330.858046 
L 231.124275 292.132156 
L 251.644584 319.598907 
L 272.164894 328.963795 
L 292.685203 335.42999 
L 313.205513 318.865477 
L 333.725822 329.29627 
L 354.246132 328.678132 
L 374.766441 336.885924 
L 395.28675 328.59896 
L 415.80706 300.842446 
L 436.327369 318.255385 
L 456.847679 320.140529 
L 477.367988 318.413313 
L 497.888298 345.786562 
L 518.408607 342.499481 
L 538.928917 329.005969 
L 559.449226 324.019333 
L 579.969536 261.466088 
L 600.489845 275.845438 
L 621.010155 279.185521 
L 641.530464 285.715268 
L 662.050774 301.286885 
L 682.571083 301.775816 
L 703.091393 310.333825 
L 723.611702 287.658447 
L 744.132012 292.316889 
L 764.652321 293.298178 
L 785.172631 280.950599 
L 805.69294 286.608216 
L 826.21325 274.753905 
L 846.733559 267.032601 
L 867.253868 273.783786 
L 887.774178 280.720141 
L 908.294487 238.200952 
L 928.814797 230.070125 
L 949.335106 216.716823 
L 969.855416 213.055771 
L 990.375725 213.450257 
L 1010.896035 212.385924 
L 1031.416344 211.281632 
L 1051.936654 219.74723 
L 1072.456963 220.573953 
L 1092.977273 208.485878 
" clip-path="url(#p92aa94a011)" style="fill: none; stroke: #ff7f0e; stroke-width: 1.5; stroke-linecap: square"/>
   </g>
   <g id="line2d_16">
    <path d="M 128.522727 348.386427 
L 149.043037 389.405174 
L 169.563346 344.101931 
L 190.083656 423.095824 
L 210.603965 383.024856 
L 231.124275 383.080542 
L 251.644584 394.788594 
L 272.164894 399.103083 
L 292.685203 420.52091 
L 313.205513 402.236707 
L 333.725822 417.203999 
L 354.246132 423.168603 
L 374.766441 412.509982 
L 395.28675 392.176318 
L 415.80706 409.96178 
L 436.327369 412.144464 
L 456.847679 432.184749 
L 477.367988 422.802972 
L 497.888298 409.745591 
L 518.408607 426.68306 
L 538.928917 429.9562 
L 559.449226 397.949414 
L 579.969536 382.859814 
L 600.489845 371.364063 
L 621.010155 387.008586 
L 641.530464 387.696692 
L 662.050774 357.325009 
L 682.571083 330.379024 
L 703.091393 320.763031 
L 723.611702 348.159572 
L 744.132012 346.446923 
L 764.652321 373.417053 
L 785.172631 373.741069 
L 805.69294 372.783056 
L 826.21325 365.089086 
L 846.733559 370.474061 
L 867.253868 378.016547 
L 887.774178 389.523074 
L 908.294487 364.194986 
L 928.814797 328.053197 
L 949.335106 315.283078 
L 969.855416 321.585012 
L 990.375725 320.257785 
L 1010.896035 322.230285 
L 1031.416344 323.346978 
L 1051.936654 310.866047 
L 1072.456963 315.693896 
L 1092.977273 317.520265 
" clip-path="url(#p92aa94a011)" style="fill: none; stroke: #2ca02c; stroke-width: 1.5; stroke-linecap: square"/>
   </g>
   <g id="line2d_17">
    <path d="M 128.522727 179.537356 
L 149.043037 193.41191 
L 169.563346 209.760802 
L 190.083656 201.034405 
L 210.603965 225.237358 
L 231.124275 197.305474 
L 251.644584 218.276138 
L 272.164894 224.901048 
L 292.685203 248.01933 
L 313.205513 216.657116 
L 333.725822 254.421717 
L 354.246132 235.269435 
L 374.766441 221.969862 
L 395.28675 219.206592 
L 415.80706 230.091426 
L 436.327369 222.996419 
L 456.847679 231.56372 
L 477.367988 233.682842 
L 497.888298 226.238212 
L 518.408607 235.872792 
L 538.928917 223.444807 
L 559.449226 214.716341 
L 579.969536 210.922539 
L 600.489845 183.565029 
L 621.010155 204.941317 
L 641.530464 200.73802 
L 662.050774 188.23313 
L 682.571083 178.986152 
L 703.091393 178.368745 
L 723.611702 169.656289 
L 744.132012 181.290761 
L 764.652321 157.499481 
L 785.172631 160.683897 
L 805.69294 175.902064 
L 826.21325 169.738933 
L 846.733559 170.372465 
L 867.253868 175.766668 
L 887.774178 182.086224 
L 908.294487 143.88826 
L 928.814797 112.554184 
L 949.335106 95.471823 
L 969.855416 99.488625 
L 990.375725 97.879522 
L 1010.896035 96.758657 
L 1031.416344 112.584042 
L 1051.936654 106.830471 
L 1072.456963 97.044788 
L 1092.977273 105.58307 
" clip-path="url(#p92aa94a011)" style="fill: none; stroke: #d62728; stroke-width: 1.5; stroke-linecap: square"/>
   </g>
   <g id="line2d_18"/>
   <g id="line2d_19"/>
   <g id="line2d_20"/>
   <g id="line2d_21"/>
   <g id="patch_3">
    <path d="M 80.3 489.832 
L 80.3 10.8 
" style="fill: none; stroke: #000000; stroke-width: 0.8; stroke-linejoin: miter; stroke-linecap: square"/>
   </g>
   <g id="patch_4">
    <path d="M 1141.2 489.832 
L 1141.2 10.8 
" style="fill: none; stroke: #000000; stroke-width: 0.8; stroke-linejoin: miter; stroke-linecap: square"/>
   </g>
   <g id="patch_5">
    <path d="M 80.3 489.832 
L 1141.2 489.832 
" style="fill: none; stroke: #000000; stroke-width: 0.8; stroke-linejoin: miter; stroke-linecap: square"/>
   </g>
   <g id="patch_6">
    <path d="M 80.3 10.8 
L 1141.2 10.8 
" style="fill: none; stroke: #000000; stroke-width: 0.8; stroke-linejoin: miter; stroke-linecap: square"/>
   </g>
   <g id="legend_1">
    <g id="patch_7">
     <path d="M 91.5 481.832 
L 261.245 481.832 
Q 264.445 481.832 264.445 478.632 
L 264.445 386.292 
Q 264.445 383.092 261.245 383.092 
L 91.5 383.092 
Q 88.3 383.092 88.3 386.292 
L 88.3 478.632 
Q 88.3 481.832 91.5 481.832 
z
" style="fill: #ffffff; opacity: 0.8; stroke: #cccccc; stroke-linejoin: miter"/>
    </g>
    <g id="line2d_22">
     <path d="M 94.7 396.0495 
L 110.7 396.0495 
L 126.7 396.0495 
" style="fill: none; stroke: #1f77b4; stroke-width: 1.5; stroke-linecap: square"/>
    </g>
    <g id="text_16">
     <!-- rf -->
     <g transform="translate(139.5 401.6495) scale(0.16 -0.16)">
      <defs>
       <path id="DejaVuSans-66" d="M 2375 4863 
L 2375 4384 
L 1825 4384 
Q 1516 4384 1395 4259 
Q 1275 4134 1275 3809 
L 1275 3500 
L 2222 3500 
L 2222 3053 
L 1275 3053 
L 1275 0 
L 697 0 
L 697 3053 
L 147 3053 
L 147 3500 
L 697 3500 
L 697 3744 
Q 697 4328 969 4595 
Q 1241 4863 1831 4863 
L 2375 4863 
z
" transform="scale(0.015625)"/>
      </defs>
      <use xlink:href="#DejaVuSans-72"/>
      <use xlink:href="#DejaVuSans-66" x="41.113281"/>
     </g>
    </g>
    <g id="line2d_23">
     <path d="M 94.7 419.5345 
L 110.7 419.5345 
L 126.7 419.5345 
" style="fill: none; stroke: #ff7f0e; stroke-width: 1.5; stroke-linecap: square"/>
    </g>
    <g id="text_17">
     <!-- xgb -->
     <g transform="translate(139.5 425.1345) scale(0.16 -0.16)">
      <defs>
       <path id="DejaVuSans-62" d="M 3116 1747 
Q 3116 2381 2855 2742 
Q 2594 3103 2138 3103 
Q 1681 3103 1420 2742 
Q 1159 2381 1159 1747 
Q 1159 1113 1420 752 
Q 1681 391 2138 391 
Q 2594 391 2855 752 
Q 3116 1113 3116 1747 
z
M 1159 2969 
Q 1341 3281 1617 3432 
Q 1894 3584 2278 3584 
Q 2916 3584 3314 3078 
Q 3713 2572 3713 1747 
Q 3713 922 3314 415 
Q 2916 -91 2278 -91 
Q 1894 -91 1617 61 
Q 1341 213 1159 525 
L 1159 0 
L 581 0 
L 581 4863 
L 1159 4863 
L 1159 2969 
z
" transform="scale(0.015625)"/>
      </defs>
      <use xlink:href="#DejaVuSans-78"/>
      <use xlink:href="#DejaVuSans-67" x="59.179688"/>
      <use xlink:href="#DejaVuSans-62" x="122.65625"/>
     </g>
    </g>
    <g id="line2d_24">
     <path d="M 94.7 443.0195 
L 110.7 443.0195 
L 126.7 443.0195 
" style="fill: none; stroke: #2ca02c; stroke-width: 1.5; stroke-linecap: square"/>
    </g>
    <g id="text_18">
     <!-- gbr -->
     <g transform="translate(139.5 448.6195) scale(0.16 -0.16)">
      <use xlink:href="#DejaVuSans-67"/>
      <use xlink:href="#DejaVuSans-62" x="63.476562"/>
      <use xlink:href="#DejaVuSans-72" x="126.953125"/>
     </g>
    </g>
    <g id="line2d_25">
     <path d="M 94.7 466.5045 
L 110.7 466.5045 
L 126.7 466.5045 
" style="fill: none; stroke: #d62728; stroke-width: 1.5; stroke-linecap: square"/>
    </g>
    <g id="text_19">
     <!-- BayesianRidge -->
     <g transform="translate(139.5 472.1045) scale(0.16 -0.16)">
      <defs>
       <path id="DejaVuSans-42" d="M 1259 2228 
L 1259 519 
L 2272 519 
Q 2781 519 3026 730 
Q 3272 941 3272 1375 
Q 3272 1813 3026 2020 
Q 2781 2228 2272 2228 
L 1259 2228 
z
M 1259 4147 
L 1259 2741 
L 2194 2741 
Q 2656 2741 2882 2914 
Q 3109 3088 3109 3444 
Q 3109 3797 2882 3972 
Q 2656 4147 2194 4147 
L 1259 4147 
z
M 628 4666 
L 2241 4666 
Q 2963 4666 3353 4366 
Q 3744 4066 3744 3513 
Q 3744 3084 3544 2831 
Q 3344 2578 2956 2516 
Q 3422 2416 3680 2098 
Q 3938 1781 3938 1306 
Q 3938 681 3513 340 
Q 3088 0 2303 0 
L 628 0 
L 628 4666 
z
" transform="scale(0.015625)"/>
       <path id="DejaVuSans-79" d="M 2059 -325 
Q 1816 -950 1584 -1140 
Q 1353 -1331 966 -1331 
L 506 -1331 
L 506 -850 
L 844 -850 
Q 1081 -850 1212 -737 
Q 1344 -625 1503 -206 
L 1606 56 
L 191 3500 
L 800 3500 
L 1894 763 
L 2988 3500 
L 3597 3500 
L 2059 -325 
z
" transform="scale(0.015625)"/>
       <path id="DejaVuSans-52" d="M 2841 2188 
Q 3044 2119 3236 1894 
Q 3428 1669 3622 1275 
L 4263 0 
L 3584 0 
L 2988 1197 
Q 2756 1666 2539 1819 
Q 2322 1972 1947 1972 
L 1259 1972 
L 1259 0 
L 628 0 
L 628 4666 
L 2053 4666 
Q 2853 4666 3247 4331 
Q 3641 3997 3641 3322 
Q 3641 2881 3436 2590 
Q 3231 2300 2841 2188 
z
M 1259 4147 
L 1259 2491 
L 2053 2491 
Q 2509 2491 2742 2702 
Q 2975 2913 2975 3322 
Q 2975 3731 2742 3939 
Q 2509 4147 2053 4147 
L 1259 4147 
z
" transform="scale(0.015625)"/>
      </defs>
      <use xlink:href="#DejaVuSans-42"/>
      <use xlink:href="#DejaVuSans-61" x="68.603516"/>
      <use xlink:href="#DejaVuSans-79" x="129.882812"/>
      <use xlink:href="#DejaVuSans-65" x="189.0625"/>
      <use xlink:href="#DejaVuSans-73" x="250.585938"/>
      <use xlink:href="#DejaVuSans-69" x="302.685547"/>
      <use xlink:href="#DejaVuSans-61" x="330.46875"/>
      <use xlink:href="#DejaVuSans-6e" x="391.748047"/>
      <use xlink:href="#DejaVuSans-52" x="455.126953"/>
      <use xlink:href="#DejaVuSans-69" x="524.609375"/>
      <use xlink:href="#DejaVuSans-64" x="552.392578"/>
      <use xlink:href="#DejaVuSans-67" x="615.869141"/>
      <use xlink:href="#DejaVuSans-65" x="679.345703"/>
     </g>
    </g>
   </g>
  </g>
 </g>
 <defs>
  <clipPath id="p92aa94a011">
   <rect x="80.3" y="10.8" width="1060.9" height="479.032"/>
  </clipPath>
 </defs>
</svg>
