<?xml version="1.0" encoding="utf-8" standalone="no"?>
<!DOCTYPE svg PUBLIC "-//W3C//DTD SVG 1.1//EN"
  "http://www.w3.org/Graphics/SVG/1.1/DTD/svg11.dtd">
<svg xmlns:xlink="http://www.w3.org/1999/xlink" width="1152pt" height="576pt" viewBox="0 0 1152 576" xmlns="http://www.w3.org/2000/svg" version="1.1">
 <metadata>
  <rdf:RDF xmlns:dc="http://purl.org/dc/elements/1.1/" xmlns:cc="http://creativecommons.org/ns#" xmlns:rdf="http://www.w3.org/1999/02/22-rdf-syntax-ns#">
   <cc:Work>
    <dc:type rdf:resource="http://purl.org/dc/dcmitype/StillImage"/>
    <dc:date>2024-10-22T20:55:56.024770</dc:date>
    <dc:format>image/svg+xml</dc:format>
    <dc:creator>
     <cc:Agent>
      <dc:title>Matplotlib v3.9.2, https://matplotlib.org/</dc:title>
     </cc:Agent>
    </dc:creator>
   </cc:Work>
  </rdf:RDF>
 </metadata>
 <defs>
  <style type="text/css">*{stroke-linejoin: round; stroke-linecap: butt}</style>
 </defs>
 <g id="figure_1">
  <g id="patch_1">
   <path d="M 0 576 
L 1152 576 
L 1152 0 
L 0 0 
z
" style="fill: #ffffff"/>
  </g>
  <g id="axes_1">
   <g id="patch_2">
    <path d="M 86.69 490.552 
L 1141.2 490.552 
L 1141.2 10.8 
L 86.69 10.8 
z
" style="fill: #ffffff"/>
   </g>
   <g id="PolyCollection_1">
    <defs>
     <path id="m0b833ff2f1" d="M 134.622273 -426.703469 
L 134.622273 -367.059149 
L 155.018985 -430.334385 
L 175.415696 -467.618176 
L 195.812408 -445.857261 
L 216.20912 -478.935831 
L 236.605832 -474.82921 
L 257.002544 -465.228292 
L 277.399255 -477.408536 
L 297.795967 -485.947299 
L 318.192679 -469.041657 
L 338.589391 -488.744471 
L 358.986103 -496.440878 
L 379.382814 -488.71262 
L 399.779526 -491.652114 
L 420.176238 -484.684508 
L 440.57295 -476.056911 
L 460.969662 -502.032196 
L 481.366373 -486.101758 
L 501.763085 -519.708294 
L 522.159797 -499.058344 
L 542.556509 -487.997527 
L 562.953221 -489.911304 
L 583.349932 -492.798464 
L 603.746644 -500.006393 
L 624.143356 -496.565947 
L 644.540068 -489.026394 
L 664.936779 -475.889385 
L 685.333491 -461.871384 
L 705.730203 -513.459603 
L 726.126915 -491.074209 
L 746.523627 -458.12932 
L 766.920338 -479.725073 
L 787.31705 -486.714222 
L 807.713762 -483.610222 
L 828.110474 -486.417433 
L 848.507186 -477.972894 
L 868.903897 -483.250174 
L 889.300609 -479.933152 
L 909.697321 -459.256652 
L 930.094033 -468.307484 
L 950.490745 -460.050371 
L 970.887456 -461.685791 
L 991.284168 -482.098633 
L 1011.68088 -454.452166 
L 1032.077592 -461.340414 
L 1052.474304 -465.870278 
L 1072.871015 -459.721371 
L 1093.267727 -483.656865 
L 1093.267727 -508.254709 
L 1093.267727 -508.254709 
L 1072.871015 -499.922804 
L 1052.474304 -522.012904 
L 1032.077592 -515.409051 
L 1011.68088 -514.891085 
L 991.284168 -526.417894 
L 970.887456 -511.882101 
L 950.490745 -522.500894 
L 930.094033 -499.584532 
L 909.697321 -499.988774 
L 889.300609 -526.958846 
L 868.903897 -509.353391 
L 848.507186 -521.961607 
L 828.110474 -521.375179 
L 807.713762 -509.192276 
L 787.31705 -529.035505 
L 766.920338 -530.356139 
L 746.523627 -508.148793 
L 726.126915 -519.243577 
L 705.730203 -534.227736 
L 685.333491 -517.189624 
L 664.936779 -518.592872 
L 644.540068 -511.446821 
L 624.143356 -519.031513 
L 603.746644 -530.500285 
L 583.349932 -518.988505 
L 562.953221 -522.28712 
L 542.556509 -505.309172 
L 522.159797 -533.349604 
L 501.763085 -533.592226 
L 481.366373 -522.75623 
L 460.969662 -528.752466 
L 440.57295 -523.777801 
L 420.176238 -538.445808 
L 399.779526 -517.105063 
L 379.382814 -522.585218 
L 358.986103 -505.703634 
L 338.589391 -519.775242 
L 318.192679 -503.512205 
L 297.795967 -519.846039 
L 277.399255 -526.2501 
L 257.002544 -509.240908 
L 236.605832 -513.74002 
L 216.20912 -513.29106 
L 195.812408 -523.548286 
L 175.415696 -510.922294 
L 155.018985 -487.199988 
L 134.622273 -426.703469 
z
" style="stroke: #1f77b4; stroke-opacity: 0.2"/>
    </defs>
    <g clip-path="url(#pa0280b1dad)">
     <use xlink:href="#m0b833ff2f1" x="0" y="576" style="fill: #1f77b4; fill-opacity: 0.2; stroke: #1f77b4; stroke-opacity: 0.2"/>
    </g>
   </g>
   <g id="PolyCollection_2">
    <defs>
     <path id="m1330b4da65" d="M 134.622273 -331.150891 
L 134.622273 -200.842041 
L 155.018985 -342.687352 
L 175.415696 -346.934754 
L 195.812408 -296.086483 
L 216.20912 -372.580405 
L 236.605832 -337.068198 
L 257.002544 -315.469442 
L 277.399255 -353.625377 
L 297.795967 -349.88136 
L 318.192679 -284.120516 
L 338.589391 -302.123718 
L 358.986103 -332.430238 
L 379.382814 -382.93249 
L 399.779526 -322.341692 
L 420.176238 -334.861521 
L 440.57295 -314.561105 
L 460.969662 -365.030324 
L 481.366373 -326.415809 
L 501.763085 -348.873975 
L 522.159797 -332.80532 
L 542.556509 -303.696006 
L 562.953221 -350.374372 
L 583.349932 -414.651266 
L 603.746644 -323.927129 
L 624.143356 -417.792872 
L 644.540068 -281.031263 
L 664.936779 -330.544406 
L 685.333491 -287.256646 
L 705.730203 -420.855221 
L 726.126915 -326.782995 
L 746.523627 -330.931875 
L 766.920338 -378.988086 
L 787.31705 -350.065836 
L 807.713762 -319.388956 
L 828.110474 -349.094583 
L 848.507186 -214.762374 
L 868.903897 -323.876236 
L 889.300609 -352.872794 
L 909.697321 -299.555747 
L 930.094033 -352.293204 
L 950.490745 -343.789897 
L 970.887456 -275.23127 
L 991.284168 -388.385891 
L 1011.68088 -317.304272 
L 1032.077592 -313.580388 
L 1052.474304 -352.975661 
L 1072.871015 -309.249303 
L 1093.267727 -374.932051 
L 1093.267727 -459.4104 
L 1093.267727 -459.4104 
L 1072.871015 -403.077914 
L 1052.474304 -417.415225 
L 1032.077592 -420.586531 
L 1011.68088 -409.977498 
L 991.284168 -454.555271 
L 970.887456 -408.984407 
L 950.490745 -437.472949 
L 930.094033 -376.184184 
L 909.697321 -407.187596 
L 889.300609 -435.393257 
L 868.903897 -457.216155 
L 848.507186 -451.601547 
L 828.110474 -418.955428 
L 807.713762 -414.388965 
L 787.31705 -439.927319 
L 766.920338 -437.568603 
L 746.523627 -426.329721 
L 726.126915 -407.217646 
L 705.730203 -451.13438 
L 685.333491 -404.265972 
L 664.936779 -431.834128 
L 644.540068 -395.465137 
L 624.143356 -426.053306 
L 603.746644 -416.661553 
L 583.349932 -456.777613 
L 562.953221 -446.226717 
L 542.556509 -372.809682 
L 522.159797 -442.327531 
L 501.763085 -435.315634 
L 481.366373 -411.13917 
L 460.969662 -435.355148 
L 440.57295 -411.200637 
L 420.176238 -446.655956 
L 399.779526 -439.586782 
L 379.382814 -433.312903 
L 358.986103 -407.853944 
L 338.589391 -397.353871 
L 318.192679 -403.968905 
L 297.795967 -436.384547 
L 277.399255 -411.161636 
L 257.002544 -380.801573 
L 236.605832 -417.969392 
L 216.20912 -450.485425 
L 195.812408 -399.332364 
L 175.415696 -397.230342 
L 155.018985 -412.128996 
L 134.622273 -331.150891 
z
" style="stroke: #ff7f0e; stroke-opacity: 0.2"/>
    </defs>
    <g clip-path="url(#pa0280b1dad)">
     <use xlink:href="#m1330b4da65" x="0" y="576" style="fill: #ff7f0e; fill-opacity: 0.2; stroke: #ff7f0e; stroke-opacity: 0.2"/>
    </g>
   </g>
   <g id="PolyCollection_3">
    <defs>
     <path id="md63c2fb1d5" d="M 134.622273 -442.269917 
L 134.622273 -304.877252 
L 155.018985 -381.75551 
L 175.415696 -442.815321 
L 195.812408 -411.116703 
L 216.20912 -425.179162 
L 236.605832 -463.85661 
L 257.002544 -418.829843 
L 277.399255 -459.019301 
L 297.795967 -450.557658 
L 318.192679 -451.264335 
L 338.589391 -445.311753 
L 358.986103 -459.667235 
L 379.382814 -475.084507 
L 399.779526 -450.085797 
L 420.176238 -470.523525 
L 440.57295 -430.620237 
L 460.969662 -484.926756 
L 481.366373 -463.927103 
L 501.763085 -491.182846 
L 522.159797 -467.646033 
L 542.556509 -435.644503 
L 562.953221 -449.273902 
L 583.349932 -433.726689 
L 603.746644 -460.62915 
L 624.143356 -477.813086 
L 644.540068 -433.434787 
L 664.936779 -445.79778 
L 685.333491 -395.180029 
L 705.730203 -507.877902 
L 726.126915 -463.773787 
L 746.523627 -442.642341 
L 766.920338 -433.261803 
L 787.31705 -461.24197 
L 807.713762 -496.11562 
L 828.110474 -438.751012 
L 848.507186 -451.736238 
L 868.903897 -447.778123 
L 889.300609 -465.403848 
L 909.697321 -387.324069 
L 930.094033 -422.860146 
L 950.490745 -400.236606 
L 970.887456 -469.543727 
L 991.284168 -472.759992 
L 1011.68088 -431.479668 
L 1032.077592 -466.869379 
L 1052.474304 -459.521308 
L 1072.871015 -447.832752 
L 1093.267727 -486.116656 
L 1093.267727 -528.02792 
L 1093.267727 -528.02792 
L 1072.871015 -513.53735 
L 1052.474304 -511.821399 
L 1032.077592 -507.304718 
L 1011.68088 -502.532634 
L 991.284168 -513.703371 
L 970.887456 -523.164987 
L 950.490745 -471.2231 
L 930.094033 -492.875293 
L 909.697321 -473.368439 
L 889.300609 -503.682958 
L 868.903897 -508.643267 
L 848.507186 -517.929568 
L 828.110474 -504.610353 
L 807.713762 -513.747858 
L 787.31705 -534.363571 
L 766.920338 -521.380692 
L 746.523627 -486.771016 
L 726.126915 -495.964503 
L 705.730203 -529.796687 
L 685.333491 -473.82958 
L 664.936779 -490.339252 
L 644.540068 -498.427996 
L 624.143356 -515.622957 
L 603.746644 -532.184372 
L 583.349932 -477.698305 
L 562.953221 -517.577422 
L 542.556509 -473.25929 
L 522.159797 -519.207049 
L 501.763085 -537.425018 
L 481.366373 -536.291939 
L 460.969662 -543.393091 
L 440.57295 -512.289925 
L 420.176238 -515.64503 
L 399.779526 -500.862692 
L 379.382814 -534.598607 
L 358.986103 -491.734714 
L 338.589391 -494.803722 
L 318.192679 -496.225265 
L 297.795967 -518.701279 
L 277.399255 -513.959435 
L 257.002544 -500.691263 
L 236.605832 -524.730814 
L 216.20912 -508.212228 
L 195.812408 -534.940655 
L 175.415696 -509.669087 
L 155.018985 -492.574638 
L 134.622273 -442.269917 
z
" style="stroke: #2ca02c; stroke-opacity: 0.2"/>
    </defs>
    <g clip-path="url(#pa0280b1dad)">
     <use xlink:href="#md63c2fb1d5" x="0" y="576" style="fill: #2ca02c; fill-opacity: 0.2; stroke: #2ca02c; stroke-opacity: 0.2"/>
    </g>
   </g>
   <g id="PolyCollection_4">
    <defs>
     <path id="m9698d8f421" d="M 134.622273 -213.807583 
L 134.622273 -135.714136 
L 155.018985 -169.953481 
L 175.415696 -204.323884 
L 195.812408 -160.674089 
L 216.20912 -178.397999 
L 236.605832 -107.254909 
L 257.002544 -171.314583 
L 277.399255 -189.678752 
L 297.795967 -156.03847 
L 318.192679 -188.238299 
L 338.589391 -216.159455 
L 358.986103 -192.922428 
L 379.382814 -171.907709 
L 399.779526 -206.723109 
L 420.176238 -190.007899 
L 440.57295 -206.537091 
L 460.969662 -241.809096 
L 481.366373 -185.072337 
L 501.763085 -222.115767 
L 522.159797 -224.480908 
L 542.556509 -196.826926 
L 562.953221 -193.263229 
L 583.349932 -177.911049 
L 603.746644 -219.705449 
L 624.143356 -237.893557 
L 644.540068 -141.878456 
L 664.936779 -139.254551 
L 685.333491 -166.035684 
L 705.730203 -190.532965 
L 726.126915 -130.425105 
L 746.523627 -183.389527 
L 766.920338 -208.273856 
L 787.31705 -157.096306 
L 807.713762 -221.257307 
L 828.110474 -199.285536 
L 848.507186 -190.016348 
L 868.903897 -195.898982 
L 889.300609 -213.808092 
L 909.697321 -152.449036 
L 930.094033 -176.943033 
L 950.490745 -205.175453 
L 970.887456 -181.613119 
L 991.284168 -197.697607 
L 1011.68088 -129.120664 
L 1032.077592 -180.749129 
L 1052.474304 -181.475983 
L 1072.871015 -201.903485 
L 1093.267727 -174.603212 
L 1093.267727 -233.823439 
L 1093.267727 -233.823439 
L 1072.871015 -252.621549 
L 1052.474304 -233.901187 
L 1032.077592 -242.462436 
L 1011.68088 -239.893629 
L 991.284168 -234.189963 
L 970.887456 -261.736725 
L 950.490745 -258.572007 
L 930.094033 -229.696719 
L 909.697321 -209.63304 
L 889.300609 -283.06271 
L 868.903897 -257.531577 
L 848.507186 -261.363224 
L 828.110474 -238.708139 
L 807.713762 -253.710737 
L 787.31705 -268.735741 
L 766.920338 -264.848488 
L 746.523627 -276.080629 
L 726.126915 -274.358061 
L 705.730203 -251.711173 
L 685.333491 -256.553655 
L 664.936779 -230.186914 
L 644.540068 -255.465301 
L 624.143356 -265.936897 
L 603.746644 -276.782611 
L 583.349932 -256.633311 
L 562.953221 -280.730791 
L 542.556509 -271.525393 
L 522.159797 -282.674572 
L 501.763085 -280.605312 
L 481.366373 -250.740761 
L 460.969662 -283.572859 
L 440.57295 -277.34044 
L 420.176238 -278.722231 
L 399.779526 -271.059844 
L 379.382814 -284.180417 
L 358.986103 -262.039089 
L 338.589391 -268.3627 
L 318.192679 -280.046537 
L 297.795967 -263.768241 
L 277.399255 -277.842112 
L 257.002544 -240.488729 
L 236.605832 -240.749073 
L 216.20912 -260.749477 
L 195.812408 -241.115612 
L 175.415696 -253.009377 
L 155.018985 -250.702004 
L 134.622273 -213.807583 
z
" style="stroke: #d62728; stroke-opacity: 0.2"/>
    </defs>
    <g clip-path="url(#pa0280b1dad)">
     <use xlink:href="#m9698d8f421" x="0" y="576" style="fill: #d62728; fill-opacity: 0.2; stroke: #d62728; stroke-opacity: 0.2"/>
    </g>
   </g>
   <g id="matplotlib.axis_1">
    <g id="xtick_1">
     <g id="line2d_1">
      <defs>
       <path id="m8435a834bd" d="M 0 0 
L 0 3.5 
" style="stroke: #000000; stroke-width: 0.8"/>
      </defs>
      <g>
       <use xlink:href="#m8435a834bd" x="124.423917" y="490.552" style="stroke: #000000; stroke-width: 0.8"/>
      </g>
     </g>
     <g id="text_1">
      <!-- 0 -->
      <g transform="translate(118.061417 512.748875) scale(0.2 -0.2)">
       <defs>
        <path id="DejaVuSans-30" d="M 2034 4250 
Q 1547 4250 1301 3770 
Q 1056 3291 1056 2328 
Q 1056 1369 1301 889 
Q 1547 409 2034 409 
Q 2525 409 2770 889 
Q 3016 1369 3016 2328 
Q 3016 3291 2770 3770 
Q 2525 4250 2034 4250 
z
M 2034 4750 
Q 2819 4750 3233 4129 
Q 3647 3509 3647 2328 
Q 3647 1150 3233 529 
Q 2819 -91 2034 -91 
Q 1250 -91 836 529 
Q 422 1150 422 2328 
Q 422 3509 836 4129 
Q 1250 4750 2034 4750 
z
" transform="scale(0.015625)"/>
       </defs>
       <use xlink:href="#DejaVuSans-30"/>
      </g>
     </g>
    </g>
    <g id="xtick_2">
     <g id="line2d_2">
      <g>
       <use xlink:href="#m8435a834bd" x="328.391035" y="490.552" style="stroke: #000000; stroke-width: 0.8"/>
      </g>
     </g>
     <g id="text_2">
      <!-- 20 -->
      <g transform="translate(315.666035 512.748875) scale(0.2 -0.2)">
       <defs>
        <path id="DejaVuSans-32" d="M 1228 531 
L 3431 531 
L 3431 0 
L 469 0 
L 469 531 
Q 828 903 1448 1529 
Q 2069 2156 2228 2338 
Q 2531 2678 2651 2914 
Q 2772 3150 2772 3378 
Q 2772 3750 2511 3984 
Q 2250 4219 1831 4219 
Q 1534 4219 1204 4116 
Q 875 4013 500 3803 
L 500 4441 
Q 881 4594 1212 4672 
Q 1544 4750 1819 4750 
Q 2544 4750 2975 4387 
Q 3406 4025 3406 3419 
Q 3406 3131 3298 2873 
Q 3191 2616 2906 2266 
Q 2828 2175 2409 1742 
Q 1991 1309 1228 531 
z
" transform="scale(0.015625)"/>
       </defs>
       <use xlink:href="#DejaVuSans-32"/>
       <use xlink:href="#DejaVuSans-30" x="63.623047"/>
      </g>
     </g>
    </g>
    <g id="xtick_3">
     <g id="line2d_3">
      <g>
       <use xlink:href="#m8435a834bd" x="532.358153" y="490.552" style="stroke: #000000; stroke-width: 0.8"/>
      </g>
     </g>
     <g id="text_3">
      <!-- 40 -->
      <g transform="translate(519.633153 512.748875) scale(0.2 -0.2)">
       <defs>
        <path id="DejaVuSans-34" d="M 2419 4116 
L 825 1625 
L 2419 1625 
L 2419 4116 
z
M 2253 4666 
L 3047 4666 
L 3047 1625 
L 3713 1625 
L 3713 1100 
L 3047 1100 
L 3047 0 
L 2419 0 
L 2419 1100 
L 313 1100 
L 313 1709 
L 2253 4666 
z
" transform="scale(0.015625)"/>
       </defs>
       <use xlink:href="#DejaVuSans-34"/>
       <use xlink:href="#DejaVuSans-30" x="63.623047"/>
      </g>
     </g>
    </g>
    <g id="xtick_4">
     <g id="line2d_4">
      <g>
       <use xlink:href="#m8435a834bd" x="736.325271" y="490.552" style="stroke: #000000; stroke-width: 0.8"/>
      </g>
     </g>
     <g id="text_4">
      <!-- 60 -->
      <g transform="translate(723.600271 512.748875) scale(0.2 -0.2)">
       <defs>
        <path id="DejaVuSans-36" d="M 2113 2584 
Q 1688 2584 1439 2293 
Q 1191 2003 1191 1497 
Q 1191 994 1439 701 
Q 1688 409 2113 409 
Q 2538 409 2786 701 
Q 3034 994 3034 1497 
Q 3034 2003 2786 2293 
Q 2538 2584 2113 2584 
z
M 3366 4563 
L 3366 3988 
Q 3128 4100 2886 4159 
Q 2644 4219 2406 4219 
Q 1781 4219 1451 3797 
Q 1122 3375 1075 2522 
Q 1259 2794 1537 2939 
Q 1816 3084 2150 3084 
Q 2853 3084 3261 2657 
Q 3669 2231 3669 1497 
Q 3669 778 3244 343 
Q 2819 -91 2113 -91 
Q 1303 -91 875 529 
Q 447 1150 447 2328 
Q 447 3434 972 4092 
Q 1497 4750 2381 4750 
Q 2619 4750 2861 4703 
Q 3103 4656 3366 4563 
z
" transform="scale(0.015625)"/>
       </defs>
       <use xlink:href="#DejaVuSans-36"/>
       <use xlink:href="#DejaVuSans-30" x="63.623047"/>
      </g>
     </g>
    </g>
    <g id="xtick_5">
     <g id="line2d_5">
      <g>
       <use xlink:href="#m8435a834bd" x="940.292389" y="490.552" style="stroke: #000000; stroke-width: 0.8"/>
      </g>
     </g>
     <g id="text_5">
      <!-- 80 -->
      <g transform="translate(927.567389 512.748875) scale(0.2 -0.2)">
       <defs>
        <path id="DejaVuSans-38" d="M 2034 2216 
Q 1584 2216 1326 1975 
Q 1069 1734 1069 1313 
Q 1069 891 1326 650 
Q 1584 409 2034 409 
Q 2484 409 2743 651 
Q 3003 894 3003 1313 
Q 3003 1734 2745 1975 
Q 2488 2216 2034 2216 
z
M 1403 2484 
Q 997 2584 770 2862 
Q 544 3141 544 3541 
Q 544 4100 942 4425 
Q 1341 4750 2034 4750 
Q 2731 4750 3128 4425 
Q 3525 4100 3525 3541 
Q 3525 3141 3298 2862 
Q 3072 2584 2669 2484 
Q 3125 2378 3379 2068 
Q 3634 1759 3634 1313 
Q 3634 634 3220 271 
Q 2806 -91 2034 -91 
Q 1263 -91 848 271 
Q 434 634 434 1313 
Q 434 1759 690 2068 
Q 947 2378 1403 2484 
z
M 1172 3481 
Q 1172 3119 1398 2916 
Q 1625 2713 2034 2713 
Q 2441 2713 2670 2916 
Q 2900 3119 2900 3481 
Q 2900 3844 2670 4047 
Q 2441 4250 2034 4250 
Q 1625 4250 1398 4047 
Q 1172 3844 1172 3481 
z
" transform="scale(0.015625)"/>
       </defs>
       <use xlink:href="#DejaVuSans-38"/>
       <use xlink:href="#DejaVuSans-30" x="63.623047"/>
      </g>
     </g>
    </g>
    <g id="text_6">
     <!-- Percentile Threshold -->
     <g transform="translate(512.165312 536.105125) scale(0.2 -0.2)">
      <defs>
       <path id="DejaVuSans-50" d="M 1259 4147 
L 1259 2394 
L 2053 2394 
Q 2494 2394 2734 2622 
Q 2975 2850 2975 3272 
Q 2975 3691 2734 3919 
Q 2494 4147 2053 4147 
L 1259 4147 
z
M 628 4666 
L 2053 4666 
Q 2838 4666 3239 4311 
Q 3641 3956 3641 3272 
Q 3641 2581 3239 2228 
Q 2838 1875 2053 1875 
L 1259 1875 
L 1259 0 
L 628 0 
L 628 4666 
z
" transform="scale(0.015625)"/>
       <path id="DejaVuSans-65" d="M 3597 1894 
L 3597 1613 
L 953 1613 
Q 991 1019 1311 708 
Q 1631 397 2203 397 
Q 2534 397 2845 478 
Q 3156 559 3463 722 
L 3463 178 
Q 3153 47 2828 -22 
Q 2503 -91 2169 -91 
Q 1331 -91 842 396 
Q 353 884 353 1716 
Q 353 2575 817 3079 
Q 1281 3584 2069 3584 
Q 2775 3584 3186 3129 
Q 3597 2675 3597 1894 
z
M 3022 2063 
Q 3016 2534 2758 2815 
Q 2500 3097 2075 3097 
Q 1594 3097 1305 2825 
Q 1016 2553 972 2059 
L 3022 2063 
z
" transform="scale(0.015625)"/>
       <path id="DejaVuSans-72" d="M 2631 2963 
Q 2534 3019 2420 3045 
Q 2306 3072 2169 3072 
Q 1681 3072 1420 2755 
Q 1159 2438 1159 1844 
L 1159 0 
L 581 0 
L 581 3500 
L 1159 3500 
L 1159 2956 
Q 1341 3275 1631 3429 
Q 1922 3584 2338 3584 
Q 2397 3584 2469 3576 
Q 2541 3569 2628 3553 
L 2631 2963 
z
" transform="scale(0.015625)"/>
       <path id="DejaVuSans-63" d="M 3122 3366 
L 3122 2828 
Q 2878 2963 2633 3030 
Q 2388 3097 2138 3097 
Q 1578 3097 1268 2742 
Q 959 2388 959 1747 
Q 959 1106 1268 751 
Q 1578 397 2138 397 
Q 2388 397 2633 464 
Q 2878 531 3122 666 
L 3122 134 
Q 2881 22 2623 -34 
Q 2366 -91 2075 -91 
Q 1284 -91 818 406 
Q 353 903 353 1747 
Q 353 2603 823 3093 
Q 1294 3584 2113 3584 
Q 2378 3584 2631 3529 
Q 2884 3475 3122 3366 
z
" transform="scale(0.015625)"/>
       <path id="DejaVuSans-6e" d="M 3513 2113 
L 3513 0 
L 2938 0 
L 2938 2094 
Q 2938 2591 2744 2837 
Q 2550 3084 2163 3084 
Q 1697 3084 1428 2787 
Q 1159 2491 1159 1978 
L 1159 0 
L 581 0 
L 581 3500 
L 1159 3500 
L 1159 2956 
Q 1366 3272 1645 3428 
Q 1925 3584 2291 3584 
Q 2894 3584 3203 3211 
Q 3513 2838 3513 2113 
z
" transform="scale(0.015625)"/>
       <path id="DejaVuSans-74" d="M 1172 4494 
L 1172 3500 
L 2356 3500 
L 2356 3053 
L 1172 3053 
L 1172 1153 
Q 1172 725 1289 603 
Q 1406 481 1766 481 
L 2356 481 
L 2356 0 
L 1766 0 
Q 1100 0 847 248 
Q 594 497 594 1153 
L 594 3053 
L 172 3053 
L 172 3500 
L 594 3500 
L 594 4494 
L 1172 4494 
z
" transform="scale(0.015625)"/>
       <path id="DejaVuSans-69" d="M 603 3500 
L 1178 3500 
L 1178 0 
L 603 0 
L 603 3500 
z
M 603 4863 
L 1178 4863 
L 1178 4134 
L 603 4134 
L 603 4863 
z
" transform="scale(0.015625)"/>
       <path id="DejaVuSans-6c" d="M 603 4863 
L 1178 4863 
L 1178 0 
L 603 0 
L 603 4863 
z
" transform="scale(0.015625)"/>
       <path id="DejaVuSans-20" transform="scale(0.015625)"/>
       <path id="DejaVuSans-54" d="M -19 4666 
L 3928 4666 
L 3928 4134 
L 2272 4134 
L 2272 0 
L 1638 0 
L 1638 4134 
L -19 4134 
L -19 4666 
z
" transform="scale(0.015625)"/>
       <path id="DejaVuSans-68" d="M 3513 2113 
L 3513 0 
L 2938 0 
L 2938 2094 
Q 2938 2591 2744 2837 
Q 2550 3084 2163 3084 
Q 1697 3084 1428 2787 
Q 1159 2491 1159 1978 
L 1159 0 
L 581 0 
L 581 4863 
L 1159 4863 
L 1159 2956 
Q 1366 3272 1645 3428 
Q 1925 3584 2291 3584 
Q 2894 3584 3203 3211 
Q 3513 2838 3513 2113 
z
" transform="scale(0.015625)"/>
       <path id="DejaVuSans-73" d="M 2834 3397 
L 2834 2853 
Q 2591 2978 2328 3040 
Q 2066 3103 1784 3103 
Q 1356 3103 1142 2972 
Q 928 2841 928 2578 
Q 928 2378 1081 2264 
Q 1234 2150 1697 2047 
L 1894 2003 
Q 2506 1872 2764 1633 
Q 3022 1394 3022 966 
Q 3022 478 2636 193 
Q 2250 -91 1575 -91 
Q 1294 -91 989 -36 
Q 684 19 347 128 
L 347 722 
Q 666 556 975 473 
Q 1284 391 1588 391 
Q 1994 391 2212 530 
Q 2431 669 2431 922 
Q 2431 1156 2273 1281 
Q 2116 1406 1581 1522 
L 1381 1569 
Q 847 1681 609 1914 
Q 372 2147 372 2553 
Q 372 3047 722 3315 
Q 1072 3584 1716 3584 
Q 2034 3584 2315 3537 
Q 2597 3491 2834 3397 
z
" transform="scale(0.015625)"/>
       <path id="DejaVuSans-6f" d="M 1959 3097 
Q 1497 3097 1228 2736 
Q 959 2375 959 1747 
Q 959 1119 1226 758 
Q 1494 397 1959 397 
Q 2419 397 2687 759 
Q 2956 1122 2956 1747 
Q 2956 2369 2687 2733 
Q 2419 3097 1959 3097 
z
M 1959 3584 
Q 2709 3584 3137 3096 
Q 3566 2609 3566 1747 
Q 3566 888 3137 398 
Q 2709 -91 1959 -91 
Q 1206 -91 779 398 
Q 353 888 353 1747 
Q 353 2609 779 3096 
Q 1206 3584 1959 3584 
z
" transform="scale(0.015625)"/>
       <path id="DejaVuSans-64" d="M 2906 2969 
L 2906 4863 
L 3481 4863 
L 3481 0 
L 2906 0 
L 2906 525 
Q 2725 213 2448 61 
Q 2172 -91 1784 -91 
Q 1150 -91 751 415 
Q 353 922 353 1747 
Q 353 2572 751 3078 
Q 1150 3584 1784 3584 
Q 2172 3584 2448 3432 
Q 2725 3281 2906 2969 
z
M 947 1747 
Q 947 1113 1208 752 
Q 1469 391 1925 391 
Q 2381 391 2643 752 
Q 2906 1113 2906 1747 
Q 2906 2381 2643 2742 
Q 2381 3103 1925 3103 
Q 1469 3103 1208 2742 
Q 947 2381 947 1747 
z
" transform="scale(0.015625)"/>
      </defs>
      <use xlink:href="#DejaVuSans-50"/>
      <use xlink:href="#DejaVuSans-65" x="56.677734"/>
      <use xlink:href="#DejaVuSans-72" x="118.201172"/>
      <use xlink:href="#DejaVuSans-63" x="157.064453"/>
      <use xlink:href="#DejaVuSans-65" x="212.044922"/>
      <use xlink:href="#DejaVuSans-6e" x="273.568359"/>
      <use xlink:href="#DejaVuSans-74" x="336.947266"/>
      <use xlink:href="#DejaVuSans-69" x="376.15625"/>
      <use xlink:href="#DejaVuSans-6c" x="403.939453"/>
      <use xlink:href="#DejaVuSans-65" x="431.722656"/>
      <use xlink:href="#DejaVuSans-20" x="493.246094"/>
      <use xlink:href="#DejaVuSans-54" x="525.033203"/>
      <use xlink:href="#DejaVuSans-68" x="586.117188"/>
      <use xlink:href="#DejaVuSans-72" x="649.496094"/>
      <use xlink:href="#DejaVuSans-65" x="688.359375"/>
      <use xlink:href="#DejaVuSans-73" x="749.882812"/>
      <use xlink:href="#DejaVuSans-68" x="801.982422"/>
      <use xlink:href="#DejaVuSans-6f" x="865.361328"/>
      <use xlink:href="#DejaVuSans-6c" x="926.542969"/>
      <use xlink:href="#DejaVuSans-64" x="954.326172"/>
     </g>
     <!-- (Using "random" Threshold Handling) -->
     <g transform="translate(426.777812 558.50075) scale(0.2 -0.2)">
      <defs>
       <path id="DejaVuSans-28" d="M 1984 4856 
Q 1566 4138 1362 3434 
Q 1159 2731 1159 2009 
Q 1159 1288 1364 580 
Q 1569 -128 1984 -844 
L 1484 -844 
Q 1016 -109 783 600 
Q 550 1309 550 2009 
Q 550 2706 781 3412 
Q 1013 4119 1484 4856 
L 1984 4856 
z
" transform="scale(0.015625)"/>
       <path id="DejaVuSans-55" d="M 556 4666 
L 1191 4666 
L 1191 1831 
Q 1191 1081 1462 751 
Q 1734 422 2344 422 
Q 2950 422 3222 751 
Q 3494 1081 3494 1831 
L 3494 4666 
L 4128 4666 
L 4128 1753 
Q 4128 841 3676 375 
Q 3225 -91 2344 -91 
Q 1459 -91 1007 375 
Q 556 841 556 1753 
L 556 4666 
z
" transform="scale(0.015625)"/>
       <path id="DejaVuSans-67" d="M 2906 1791 
Q 2906 2416 2648 2759 
Q 2391 3103 1925 3103 
Q 1463 3103 1205 2759 
Q 947 2416 947 1791 
Q 947 1169 1205 825 
Q 1463 481 1925 481 
Q 2391 481 2648 825 
Q 2906 1169 2906 1791 
z
M 3481 434 
Q 3481 -459 3084 -895 
Q 2688 -1331 1869 -1331 
Q 1566 -1331 1297 -1286 
Q 1028 -1241 775 -1147 
L 775 -588 
Q 1028 -725 1275 -790 
Q 1522 -856 1778 -856 
Q 2344 -856 2625 -561 
Q 2906 -266 2906 331 
L 2906 616 
Q 2728 306 2450 153 
Q 2172 0 1784 0 
Q 1141 0 747 490 
Q 353 981 353 1791 
Q 353 2603 747 3093 
Q 1141 3584 1784 3584 
Q 2172 3584 2450 3431 
Q 2728 3278 2906 2969 
L 2906 3500 
L 3481 3500 
L 3481 434 
z
" transform="scale(0.015625)"/>
       <path id="DejaVuSans-22" d="M 1147 4666 
L 1147 2931 
L 616 2931 
L 616 4666 
L 1147 4666 
z
M 2328 4666 
L 2328 2931 
L 1797 2931 
L 1797 4666 
L 2328 4666 
z
" transform="scale(0.015625)"/>
       <path id="DejaVuSans-61" d="M 2194 1759 
Q 1497 1759 1228 1600 
Q 959 1441 959 1056 
Q 959 750 1161 570 
Q 1363 391 1709 391 
Q 2188 391 2477 730 
Q 2766 1069 2766 1631 
L 2766 1759 
L 2194 1759 
z
M 3341 1997 
L 3341 0 
L 2766 0 
L 2766 531 
Q 2569 213 2275 61 
Q 1981 -91 1556 -91 
Q 1019 -91 701 211 
Q 384 513 384 1019 
Q 384 1609 779 1909 
Q 1175 2209 1959 2209 
L 2766 2209 
L 2766 2266 
Q 2766 2663 2505 2880 
Q 2244 3097 1772 3097 
Q 1472 3097 1187 3025 
Q 903 2953 641 2809 
L 641 3341 
Q 956 3463 1253 3523 
Q 1550 3584 1831 3584 
Q 2591 3584 2966 3190 
Q 3341 2797 3341 1997 
z
" transform="scale(0.015625)"/>
       <path id="DejaVuSans-6d" d="M 3328 2828 
Q 3544 3216 3844 3400 
Q 4144 3584 4550 3584 
Q 5097 3584 5394 3201 
Q 5691 2819 5691 2113 
L 5691 0 
L 5113 0 
L 5113 2094 
Q 5113 2597 4934 2840 
Q 4756 3084 4391 3084 
Q 3944 3084 3684 2787 
Q 3425 2491 3425 1978 
L 3425 0 
L 2847 0 
L 2847 2094 
Q 2847 2600 2669 2842 
Q 2491 3084 2119 3084 
Q 1678 3084 1418 2786 
Q 1159 2488 1159 1978 
L 1159 0 
L 581 0 
L 581 3500 
L 1159 3500 
L 1159 2956 
Q 1356 3278 1631 3431 
Q 1906 3584 2284 3584 
Q 2666 3584 2933 3390 
Q 3200 3197 3328 2828 
z
" transform="scale(0.015625)"/>
       <path id="DejaVuSans-48" d="M 628 4666 
L 1259 4666 
L 1259 2753 
L 3553 2753 
L 3553 4666 
L 4184 4666 
L 4184 0 
L 3553 0 
L 3553 2222 
L 1259 2222 
L 1259 0 
L 628 0 
L 628 4666 
z
" transform="scale(0.015625)"/>
       <path id="DejaVuSans-29" d="M 513 4856 
L 1013 4856 
Q 1481 4119 1714 3412 
Q 1947 2706 1947 2009 
Q 1947 1309 1714 600 
Q 1481 -109 1013 -844 
L 513 -844 
Q 928 -128 1133 580 
Q 1338 1288 1338 2009 
Q 1338 2731 1133 3434 
Q 928 4138 513 4856 
z
" transform="scale(0.015625)"/>
      </defs>
      <use xlink:href="#DejaVuSans-28"/>
      <use xlink:href="#DejaVuSans-55" x="39.013672"/>
      <use xlink:href="#DejaVuSans-73" x="112.207031"/>
      <use xlink:href="#DejaVuSans-69" x="164.306641"/>
      <use xlink:href="#DejaVuSans-6e" x="192.089844"/>
      <use xlink:href="#DejaVuSans-67" x="255.46875"/>
      <use xlink:href="#DejaVuSans-20" x="318.945312"/>
      <use xlink:href="#DejaVuSans-22" x="350.732422"/>
      <use xlink:href="#DejaVuSans-72" x="396.728516"/>
      <use xlink:href="#DejaVuSans-61" x="437.841797"/>
      <use xlink:href="#DejaVuSans-6e" x="499.121094"/>
      <use xlink:href="#DejaVuSans-64" x="562.5"/>
      <use xlink:href="#DejaVuSans-6f" x="625.976562"/>
      <use xlink:href="#DejaVuSans-6d" x="687.158203"/>
      <use xlink:href="#DejaVuSans-22" x="784.570312"/>
      <use xlink:href="#DejaVuSans-20" x="830.566406"/>
      <use xlink:href="#DejaVuSans-54" x="862.353516"/>
      <use xlink:href="#DejaVuSans-68" x="923.4375"/>
      <use xlink:href="#DejaVuSans-72" x="986.816406"/>
      <use xlink:href="#DejaVuSans-65" x="1025.679688"/>
      <use xlink:href="#DejaVuSans-73" x="1087.203125"/>
      <use xlink:href="#DejaVuSans-68" x="1139.302734"/>
      <use xlink:href="#DejaVuSans-6f" x="1202.681641"/>
      <use xlink:href="#DejaVuSans-6c" x="1263.863281"/>
      <use xlink:href="#DejaVuSans-64" x="1291.646484"/>
      <use xlink:href="#DejaVuSans-20" x="1355.123047"/>
      <use xlink:href="#DejaVuSans-48" x="1386.910156"/>
      <use xlink:href="#DejaVuSans-61" x="1462.105469"/>
      <use xlink:href="#DejaVuSans-6e" x="1523.384766"/>
      <use xlink:href="#DejaVuSans-64" x="1586.763672"/>
      <use xlink:href="#DejaVuSans-6c" x="1650.240234"/>
      <use xlink:href="#DejaVuSans-69" x="1678.023438"/>
      <use xlink:href="#DejaVuSans-6e" x="1705.806641"/>
      <use xlink:href="#DejaVuSans-67" x="1769.185547"/>
      <use xlink:href="#DejaVuSans-29" x="1832.662109"/>
     </g>
    </g>
   </g>
   <g id="matplotlib.axis_2">
    <g id="ytick_1">
     <g id="line2d_6">
      <defs>
       <path id="mc1e1f9e278" d="M 0 0 
L -3.5 0 
" style="stroke: #000000; stroke-width: 0.8"/>
      </defs>
      <g>
       <use xlink:href="#mc1e1f9e278" x="86.69" y="398.630787" style="stroke: #000000; stroke-width: 0.8"/>
      </g>
     </g>
     <g id="text_7">
      <!-- 0.92 -->
      <g transform="translate(35.15875 406.229225) scale(0.2 -0.2)">
       <defs>
        <path id="DejaVuSans-2e" d="M 684 794 
L 1344 794 
L 1344 0 
L 684 0 
L 684 794 
z
" transform="scale(0.015625)"/>
        <path id="DejaVuSans-39" d="M 703 97 
L 703 672 
Q 941 559 1184 500 
Q 1428 441 1663 441 
Q 2288 441 2617 861 
Q 2947 1281 2994 2138 
Q 2813 1869 2534 1725 
Q 2256 1581 1919 1581 
Q 1219 1581 811 2004 
Q 403 2428 403 3163 
Q 403 3881 828 4315 
Q 1253 4750 1959 4750 
Q 2769 4750 3195 4129 
Q 3622 3509 3622 2328 
Q 3622 1225 3098 567 
Q 2575 -91 1691 -91 
Q 1453 -91 1209 -44 
Q 966 3 703 97 
z
M 1959 2075 
Q 2384 2075 2632 2365 
Q 2881 2656 2881 3163 
Q 2881 3666 2632 3958 
Q 2384 4250 1959 4250 
Q 1534 4250 1286 3958 
Q 1038 3666 1038 3163 
Q 1038 2656 1286 2365 
Q 1534 2075 1959 2075 
z
" transform="scale(0.015625)"/>
       </defs>
       <use xlink:href="#DejaVuSans-30"/>
       <use xlink:href="#DejaVuSans-2e" x="63.623047"/>
       <use xlink:href="#DejaVuSans-39" x="95.410156"/>
       <use xlink:href="#DejaVuSans-32" x="159.033203"/>
      </g>
     </g>
    </g>
    <g id="ytick_2">
     <g id="line2d_7">
      <g>
       <use xlink:href="#mc1e1f9e278" x="86.69" y="295.366694" style="stroke: #000000; stroke-width: 0.8"/>
      </g>
     </g>
     <g id="text_8">
      <!-- 0.93 -->
      <g transform="translate(35.15875 302.965132) scale(0.2 -0.2)">
       <defs>
        <path id="DejaVuSans-33" d="M 2597 2516 
Q 3050 2419 3304 2112 
Q 3559 1806 3559 1356 
Q 3559 666 3084 287 
Q 2609 -91 1734 -91 
Q 1441 -91 1130 -33 
Q 819 25 488 141 
L 488 750 
Q 750 597 1062 519 
Q 1375 441 1716 441 
Q 2309 441 2620 675 
Q 2931 909 2931 1356 
Q 2931 1769 2642 2001 
Q 2353 2234 1838 2234 
L 1294 2234 
L 1294 2753 
L 1863 2753 
Q 2328 2753 2575 2939 
Q 2822 3125 2822 3475 
Q 2822 3834 2567 4026 
Q 2313 4219 1838 4219 
Q 1578 4219 1281 4162 
Q 984 4106 628 3988 
L 628 4550 
Q 988 4650 1302 4700 
Q 1616 4750 1894 4750 
Q 2613 4750 3031 4423 
Q 3450 4097 3450 3541 
Q 3450 3153 3228 2886 
Q 3006 2619 2597 2516 
z
" transform="scale(0.015625)"/>
       </defs>
       <use xlink:href="#DejaVuSans-30"/>
       <use xlink:href="#DejaVuSans-2e" x="63.623047"/>
       <use xlink:href="#DejaVuSans-39" x="95.410156"/>
       <use xlink:href="#DejaVuSans-33" x="159.033203"/>
      </g>
     </g>
    </g>
    <g id="ytick_3">
     <g id="line2d_8">
      <g>
       <use xlink:href="#mc1e1f9e278" x="86.69" y="192.102602" style="stroke: #000000; stroke-width: 0.8"/>
      </g>
     </g>
     <g id="text_9">
      <!-- 0.94 -->
      <g transform="translate(35.15875 199.701039) scale(0.2 -0.2)">
       <use xlink:href="#DejaVuSans-30"/>
       <use xlink:href="#DejaVuSans-2e" x="63.623047"/>
       <use xlink:href="#DejaVuSans-39" x="95.410156"/>
       <use xlink:href="#DejaVuSans-34" x="159.033203"/>
      </g>
     </g>
    </g>
    <g id="ytick_4">
     <g id="line2d_9">
      <g>
       <use xlink:href="#mc1e1f9e278" x="86.69" y="88.838509" style="stroke: #000000; stroke-width: 0.8"/>
      </g>
     </g>
     <g id="text_10">
      <!-- 0.95 -->
      <g transform="translate(35.15875 96.436946) scale(0.2 -0.2)">
       <defs>
        <path id="DejaVuSans-35" d="M 691 4666 
L 3169 4666 
L 3169 4134 
L 1269 4134 
L 1269 2991 
Q 1406 3038 1543 3061 
Q 1681 3084 1819 3084 
Q 2600 3084 3056 2656 
Q 3513 2228 3513 1497 
Q 3513 744 3044 326 
Q 2575 -91 1722 -91 
Q 1428 -91 1123 -41 
Q 819 9 494 109 
L 494 744 
Q 775 591 1075 516 
Q 1375 441 1709 441 
Q 2250 441 2565 725 
Q 2881 1009 2881 1497 
Q 2881 1984 2565 2268 
Q 2250 2553 1709 2553 
Q 1456 2553 1204 2497 
Q 953 2441 691 2322 
L 691 4666 
z
" transform="scale(0.015625)"/>
       </defs>
       <use xlink:href="#DejaVuSans-30"/>
       <use xlink:href="#DejaVuSans-2e" x="63.623047"/>
       <use xlink:href="#DejaVuSans-39" x="95.410156"/>
       <use xlink:href="#DejaVuSans-35" x="159.033203"/>
      </g>
     </g>
    </g>
    <g id="text_11">
     <!-- R2 -->
     <g transform="translate(26.999375 263.986938) rotate(-90) scale(0.2 -0.2)">
      <defs>
       <path id="DejaVuSans-52" d="M 2841 2188 
Q 3044 2119 3236 1894 
Q 3428 1669 3622 1275 
L 4263 0 
L 3584 0 
L 2988 1197 
Q 2756 1666 2539 1819 
Q 2322 1972 1947 1972 
L 1259 1972 
L 1259 0 
L 628 0 
L 628 4666 
L 2053 4666 
Q 2853 4666 3247 4331 
Q 3641 3997 3641 3322 
Q 3641 2881 3436 2590 
Q 3231 2300 2841 2188 
z
M 1259 4147 
L 1259 2491 
L 2053 2491 
Q 2509 2491 2742 2702 
Q 2975 2913 2975 3322 
Q 2975 3731 2742 3939 
Q 2509 4147 2053 4147 
L 1259 4147 
z
" transform="scale(0.015625)"/>
      </defs>
      <use xlink:href="#DejaVuSans-52"/>
      <use xlink:href="#DejaVuSans-32" x="69.482422"/>
     </g>
    </g>
   </g>
   <g id="line2d_10">
    <path d="M 134.622273 177.781325 
L 155.018985 116.720154 
L 175.415696 88.426301 
L 195.812408 91.514135 
L 216.20912 77.702095 
L 236.605832 82.721413 
L 257.002544 88.7654 
L 277.399255 74.156792 
L 297.795967 72.242853 
L 318.192679 89.01455 
L 338.589391 71.741129 
L 358.986103 75.019502 
L 379.382814 68.006266 
L 399.779526 71.321097 
L 420.176238 64.758583 
L 440.57295 73.375924 
L 460.969662 59.592906 
L 481.366373 72.040755 
L 501.763085 49.287369 
L 522.159797 59.666072 
L 542.556509 77.315506 
L 562.953221 69.44217 
L 583.349932 69.72187 
L 603.746644 62.956637 
L 624.143356 68.829584 
L 644.540068 74.097488 
L 664.936779 76.499974 
L 685.333491 79.905149 
L 705.730203 51.957805 
L 726.126915 70.435604 
L 746.523627 93.163579 
L 766.920338 64.003122 
L 787.31705 68.017398 
L 807.713762 78.969749 
L 828.110474 69.578248 
L 848.507186 77.792807 
L 868.903897 79.976826 
L 889.300609 72.622905 
L 909.697321 96.895238 
L 930.094033 90.009292 
L 950.490745 82.526461 
L 970.887456 87.85613 
L 991.284168 72.623428 
L 1011.68088 91.17465 
L 1032.077592 90.480042 
L 1052.474304 80.819105 
L 1072.871015 96.015044 
L 1093.267727 80.687586 
" clip-path="url(#pa0280b1dad)" style="fill: none; stroke: #1f77b4; stroke-width: 1.5; stroke-linecap: square"/>
   </g>
   <g id="line2d_11">
    <path d="M 134.622273 302.442799 
L 155.018985 197.624222 
L 175.415696 204.526881 
L 195.812408 225.138465 
L 216.20912 162.555669 
L 236.605832 197.29031 
L 257.002544 227.496456 
L 277.399255 191.213396 
L 297.795967 176.695497 
L 318.192679 231.001894 
L 338.589391 219.09856 
L 358.986103 206.786206 
L 379.382814 164.224738 
L 399.779526 188.002613 
L 420.176238 181.644125 
L 440.57295 209.940712 
L 460.969662 176.234313 
L 481.366373 208.444424 
L 501.763085 183.07775 
L 522.159797 176.607973 
L 542.556509 237.883336 
L 562.953221 176.759099 
L 583.349932 140.926286 
L 603.746644 205.479953 
L 624.143356 154.526945 
L 644.540068 227.539385 
L 664.936779 193.797911 
L 685.333491 229.796144 
L 705.730203 139.404578 
L 726.126915 207.173605 
L 746.523627 197.313031 
L 766.920338 168.016609 
L 787.31705 179.232378 
L 807.713762 209.046575 
L 828.110474 191.516296 
L 848.507186 220.413398 
L 868.903897 181.611687 
L 889.300609 182.76957 
L 909.697321 224.118117 
L 930.094033 210.161072 
L 950.490745 178.859778 
L 970.887456 227.439139 
L 991.284168 154.672817 
L 1011.68088 211.617274 
L 1032.077592 211.385085 
L 1052.474304 190.658745 
L 1072.871015 218.085127 
L 1093.267727 161.260251 
" clip-path="url(#pa0280b1dad)" style="fill: none; stroke: #ff7f0e; stroke-width: 1.5; stroke-linecap: square"/>
   </g>
   <g id="line2d_12">
    <path d="M 134.622273 202.920451 
L 155.018985 135.799162 
L 175.415696 97.682476 
L 195.812408 102.969725 
L 216.20912 107.964091 
L 236.605832 80.63741 
L 257.002544 117.511355 
L 277.399255 88.419511 
L 297.795967 92.81604 
L 318.192679 100.755285 
L 338.589391 104.038619 
L 358.986103 100.321784 
L 379.382814 69.896071 
L 399.779526 100.69242 
L 420.176238 83.962687 
L 440.57295 101.381471 
L 460.969662 62.741024 
L 481.366373 73.482023 
L 501.763085 61.290548 
L 522.159797 82.814053 
L 542.556509 119.916848 
L 562.953221 87.320466 
L 583.349932 120.04227 
L 603.746644 79.413132 
L 624.143356 78.520939 
L 644.540068 108.86918 
L 664.936779 113.638007 
L 685.333491 136.301759 
L 705.730203 57.253326 
L 726.126915 93.743471 
L 746.523627 111.5484 
L 766.920338 94.566562 
L 787.31705 79.472952 
L 807.713762 71.74971 
L 828.110474 105.399273 
L 848.507186 89.73461 
L 868.903897 98.26012 
L 889.300609 93.587416 
L 909.697321 143.893619 
L 930.094033 120.925154 
L 950.490745 131.604243 
L 970.887456 79.71285 
L 991.284168 81.127417 
L 1011.68088 106.783889 
L 1032.077592 88.776462 
L 1052.474304 90.662953 
L 1072.871015 98.051353 
L 1093.267727 70.59315 
" clip-path="url(#pa0280b1dad)" style="fill: none; stroke: #2ca02c; stroke-width: 1.5; stroke-linecap: square"/>
   </g>
   <g id="line2d_13">
    <path d="M 134.622273 403.037834 
L 155.018985 358.068773 
L 175.415696 347.983159 
L 195.812408 372.564863 
L 216.20912 358.428041 
L 236.605832 398.112491 
L 257.002544 373.68944 
L 277.399255 335.903309 
L 297.795967 361.448478 
L 318.192679 341.406737 
L 338.589391 335.197796 
L 358.986103 344.875376 
L 379.382814 345.82776 
L 399.779526 336.301985 
L 420.176238 336.532454 
L 440.57295 329.516333 
L 460.969662 312.986123 
L 481.366373 360.751274 
L 501.763085 324.719111 
L 522.159797 321.794439 
L 542.556509 340.79447 
L 562.953221 337.852893 
L 583.349932 360.585791 
L 603.746644 330.278228 
L 624.143356 324.24099 
L 644.540068 373.490916 
L 664.936779 385.198473 
L 685.333491 360.548671 
L 705.730203 354.4234 
L 726.126915 370.248643 
L 746.523627 351.911101 
L 766.920338 334.883774 
L 787.31705 360.253597 
L 807.713762 341.409047 
L 828.110474 357.441977 
L 848.507186 350.726163 
L 868.903897 348.275995 
L 889.300609 329.367695 
L 909.697321 395.136243 
L 930.094033 373.807056 
L 950.490745 341.228679 
L 970.887456 354.325078 
L 991.284168 358.594284 
L 1011.68088 383.887999 
L 1032.077592 362.925677 
L 1052.474304 367.533816 
L 1072.871015 347.824942 
L 1093.267727 367.501753 
" clip-path="url(#pa0280b1dad)" style="fill: none; stroke: #d62728; stroke-width: 1.5; stroke-linecap: square"/>
   </g>
   <g id="line2d_14"/>
   <g id="line2d_15"/>
   <g id="line2d_16"/>
   <g id="line2d_17"/>
   <g id="patch_3">
    <path d="M 86.69 490.552 
L 86.69 10.8 
" style="fill: none; stroke: #000000; stroke-width: 0.8; stroke-linejoin: miter; stroke-linecap: square"/>
   </g>
   <g id="patch_4">
    <path d="M 1141.2 490.552 
L 1141.2 10.8 
" style="fill: none; stroke: #000000; stroke-width: 0.8; stroke-linejoin: miter; stroke-linecap: square"/>
   </g>
   <g id="patch_5">
    <path d="M 86.69 490.552 
L 1141.2 490.552 
" style="fill: none; stroke: #000000; stroke-width: 0.8; stroke-linejoin: miter; stroke-linecap: square"/>
   </g>
   <g id="patch_6">
    <path d="M 86.69 10.8 
L 1141.2 10.8 
" style="fill: none; stroke: #000000; stroke-width: 0.8; stroke-linejoin: miter; stroke-linecap: square"/>
   </g>
   <g id="legend_1">
    <g id="patch_7">
     <path d="M 97.89 482.552 
L 267.635 482.552 
Q 270.835 482.552 270.835 479.352 
L 270.835 387.012 
Q 270.835 383.812 267.635 383.812 
L 97.89 383.812 
Q 94.69 383.812 94.69 387.012 
L 94.69 479.352 
Q 94.69 482.552 97.89 482.552 
z
" style="fill: #ffffff; opacity: 0.8; stroke: #cccccc; stroke-linejoin: miter"/>
    </g>
    <g id="line2d_18">
     <path d="M 101.09 396.7695 
L 117.09 396.7695 
L 133.09 396.7695 
" style="fill: none; stroke: #1f77b4; stroke-width: 1.5; stroke-linecap: square"/>
    </g>
    <g id="text_12">
     <!-- rf -->
     <g transform="translate(145.89 402.3695) scale(0.16 -0.16)">
      <defs>
       <path id="DejaVuSans-66" d="M 2375 4863 
L 2375 4384 
L 1825 4384 
Q 1516 4384 1395 4259 
Q 1275 4134 1275 3809 
L 1275 3500 
L 2222 3500 
L 2222 3053 
L 1275 3053 
L 1275 0 
L 697 0 
L 697 3053 
L 147 3053 
L 147 3500 
L 697 3500 
L 697 3744 
Q 697 4328 969 4595 
Q 1241 4863 1831 4863 
L 2375 4863 
z
" transform="scale(0.015625)"/>
      </defs>
      <use xlink:href="#DejaVuSans-72"/>
      <use xlink:href="#DejaVuSans-66" x="41.113281"/>
     </g>
    </g>
    <g id="line2d_19">
     <path d="M 101.09 420.2545 
L 117.09 420.2545 
L 133.09 420.2545 
" style="fill: none; stroke: #ff7f0e; stroke-width: 1.5; stroke-linecap: square"/>
    </g>
    <g id="text_13">
     <!-- xgb -->
     <g transform="translate(145.89 425.8545) scale(0.16 -0.16)">
      <defs>
       <path id="DejaVuSans-78" d="M 3513 3500 
L 2247 1797 
L 3578 0 
L 2900 0 
L 1881 1375 
L 863 0 
L 184 0 
L 1544 1831 
L 300 3500 
L 978 3500 
L 1906 2253 
L 2834 3500 
L 3513 3500 
z
" transform="scale(0.015625)"/>
       <path id="DejaVuSans-62" d="M 3116 1747 
Q 3116 2381 2855 2742 
Q 2594 3103 2138 3103 
Q 1681 3103 1420 2742 
Q 1159 2381 1159 1747 
Q 1159 1113 1420 752 
Q 1681 391 2138 391 
Q 2594 391 2855 752 
Q 3116 1113 3116 1747 
z
M 1159 2969 
Q 1341 3281 1617 3432 
Q 1894 3584 2278 3584 
Q 2916 3584 3314 3078 
Q 3713 2572 3713 1747 
Q 3713 922 3314 415 
Q 2916 -91 2278 -91 
Q 1894 -91 1617 61 
Q 1341 213 1159 525 
L 1159 0 
L 581 0 
L 581 4863 
L 1159 4863 
L 1159 2969 
z
" transform="scale(0.015625)"/>
      </defs>
      <use xlink:href="#DejaVuSans-78"/>
      <use xlink:href="#DejaVuSans-67" x="59.179688"/>
      <use xlink:href="#DejaVuSans-62" x="122.65625"/>
     </g>
    </g>
    <g id="line2d_20">
     <path d="M 101.09 443.7395 
L 117.09 443.7395 
L 133.09 443.7395 
" style="fill: none; stroke: #2ca02c; stroke-width: 1.5; stroke-linecap: square"/>
    </g>
    <g id="text_14">
     <!-- gbr -->
     <g transform="translate(145.89 449.3395) scale(0.16 -0.16)">
      <use xlink:href="#DejaVuSans-67"/>
      <use xlink:href="#DejaVuSans-62" x="63.476562"/>
      <use xlink:href="#DejaVuSans-72" x="126.953125"/>
     </g>
    </g>
    <g id="line2d_21">
     <path d="M 101.09 467.2245 
L 117.09 467.2245 
L 133.09 467.2245 
" style="fill: none; stroke: #d62728; stroke-width: 1.5; stroke-linecap: square"/>
    </g>
    <g id="text_15">
     <!-- BayesianRidge -->
     <g transform="translate(145.89 472.8245) scale(0.16 -0.16)">
      <defs>
       <path id="DejaVuSans-42" d="M 1259 2228 
L 1259 519 
L 2272 519 
Q 2781 519 3026 730 
Q 3272 941 3272 1375 
Q 3272 1813 3026 2020 
Q 2781 2228 2272 2228 
L 1259 2228 
z
M 1259 4147 
L 1259 2741 
L 2194 2741 
Q 2656 2741 2882 2914 
Q 3109 3088 3109 3444 
Q 3109 3797 2882 3972 
Q 2656 4147 2194 4147 
L 1259 4147 
z
M 628 4666 
L 2241 4666 
Q 2963 4666 3353 4366 
Q 3744 4066 3744 3513 
Q 3744 3084 3544 2831 
Q 3344 2578 2956 2516 
Q 3422 2416 3680 2098 
Q 3938 1781 3938 1306 
Q 3938 681 3513 340 
Q 3088 0 2303 0 
L 628 0 
L 628 4666 
z
" transform="scale(0.015625)"/>
       <path id="DejaVuSans-79" d="M 2059 -325 
Q 1816 -950 1584 -1140 
Q 1353 -1331 966 -1331 
L 506 -1331 
L 506 -850 
L 844 -850 
Q 1081 -850 1212 -737 
Q 1344 -625 1503 -206 
L 1606 56 
L 191 3500 
L 800 3500 
L 1894 763 
L 2988 3500 
L 3597 3500 
L 2059 -325 
z
" transform="scale(0.015625)"/>
      </defs>
      <use xlink:href="#DejaVuSans-42"/>
      <use xlink:href="#DejaVuSans-61" x="68.603516"/>
      <use xlink:href="#DejaVuSans-79" x="129.882812"/>
      <use xlink:href="#DejaVuSans-65" x="189.0625"/>
      <use xlink:href="#DejaVuSans-73" x="250.585938"/>
      <use xlink:href="#DejaVuSans-69" x="302.685547"/>
      <use xlink:href="#DejaVuSans-61" x="330.46875"/>
      <use xlink:href="#DejaVuSans-6e" x="391.748047"/>
      <use xlink:href="#DejaVuSans-52" x="455.126953"/>
      <use xlink:href="#DejaVuSans-69" x="524.609375"/>
      <use xlink:href="#DejaVuSans-64" x="552.392578"/>
      <use xlink:href="#DejaVuSans-67" x="615.869141"/>
      <use xlink:href="#DejaVuSans-65" x="679.345703"/>
     </g>
    </g>
   </g>
  </g>
 </g>
 <defs>
  <clipPath id="pa0280b1dad">
   <rect x="86.69" y="10.8" width="1054.51" height="479.752"/>
  </clipPath>
 </defs>
</svg>
