<?xml version="1.0" encoding="utf-8" standalone="no"?>
<!DOCTYPE svg PUBLIC "-//W3C//DTD SVG 1.1//EN"
  "http://www.w3.org/Graphics/SVG/1.1/DTD/svg11.dtd">
<svg xmlns:xlink="http://www.w3.org/1999/xlink" width="1152pt" height="576pt" viewBox="0 0 1152 576" xmlns="http://www.w3.org/2000/svg" version="1.1">
 <metadata>
  <rdf:RDF xmlns:dc="http://purl.org/dc/elements/1.1/" xmlns:cc="http://creativecommons.org/ns#" xmlns:rdf="http://www.w3.org/1999/02/22-rdf-syntax-ns#">
   <cc:Work>
    <dc:type rdf:resource="http://purl.org/dc/dcmitype/StillImage"/>
    <dc:date>2024-10-22T20:56:45.532728</dc:date>
    <dc:format>image/svg+xml</dc:format>
    <dc:creator>
     <cc:Agent>
      <dc:title>Matplotlib v3.9.2, https://matplotlib.org/</dc:title>
     </cc:Agent>
    </dc:creator>
   </cc:Work>
  </rdf:RDF>
 </metadata>
 <defs>
  <style type="text/css">*{stroke-linejoin: round; stroke-linecap: butt}</style>
 </defs>
 <g id="figure_1">
  <g id="patch_1">
   <path d="M 0 576 
L 1152 576 
L 1152 0 
L 0 0 
z
" style="fill: #ffffff"/>
  </g>
  <g id="axes_1">
   <g id="patch_2">
    <path d="M 67.43 490.552 
L 1141.2 490.552 
L 1141.2 10.8 
L 67.43 10.8 
z
" style="fill: #ffffff"/>
   </g>
   <g id="PolyCollection_1">
    <defs>
     <path id="m9b2b250600" d="M 116.237727 -255.100426 
L 116.237727 -216.588741 
L 137.006973 -149.441907 
L 157.776219 -141.692996 
L 178.545464 -122.142959 
L 199.31471 -128.012602 
L 220.083956 -136.390623 
L 240.853201 -159.745986 
L 261.622447 -150.114099 
L 282.391692 -155.732081 
L 303.160938 -156.246651 
L 323.930184 -156.259727 
L 344.699429 -158.341221 
L 365.468675 -159.989541 
L 386.237921 -172.147961 
L 407.007166 -148.263846 
L 427.776412 -159.287369 
L 448.545658 -149.139773 
L 469.314903 -157.950349 
L 490.084149 -155.61472 
L 510.853395 -162.03765 
L 531.62264 -160.011579 
L 552.391886 -168.253498 
L 573.161132 -155.803202 
L 593.930377 -152.050427 
L 614.699623 -165.743162 
L 635.468868 -163.017451 
L 656.238114 -162.54041 
L 677.00736 -156.660424 
L 697.776605 -158.949934 
L 718.545851 -171.898156 
L 739.315097 -166.309764 
L 760.084342 -158.809054 
L 780.853588 -153.829368 
L 801.622834 -165.623508 
L 822.392079 -156.997075 
L 843.161325 -155.925499 
L 863.930571 -148.819569 
L 884.699816 -162.999168 
L 905.469062 -160.847681 
L 926.238308 -168.113886 
L 947.007553 -165.769133 
L 967.776799 -175.539022 
L 988.546044 -158.517777 
L 1009.31529 -158.909626 
L 1030.084536 -147.781013 
L 1050.853781 -158.375388 
L 1071.623027 -177.745777 
L 1092.392273 -161.956618 
L 1092.392273 -195.462846 
L 1092.392273 -195.462846 
L 1071.623027 -210.138084 
L 1050.853781 -213.513062 
L 1030.084536 -243.944533 
L 1009.31529 -203.560898 
L 988.546044 -201.468403 
L 967.776799 -224.663262 
L 947.007553 -224.072146 
L 926.238308 -211.870465 
L 905.469062 -232.647016 
L 884.699816 -228.68903 
L 863.930571 -211.880493 
L 843.161325 -218.526392 
L 822.392079 -200.58559 
L 801.622834 -210.29137 
L 780.853588 -198.85217 
L 760.084342 -211.093917 
L 739.315097 -215.300402 
L 718.545851 -221.42045 
L 697.776605 -190.384053 
L 677.00736 -218.242215 
L 656.238114 -222.103744 
L 635.468868 -207.596092 
L 614.699623 -214.987919 
L 593.930377 -192.759241 
L 573.161132 -202.574665 
L 552.391886 -209.894606 
L 531.62264 -218.339572 
L 510.853395 -216.634609 
L 490.084149 -181.077029 
L 469.314903 -212.522812 
L 448.545658 -206.693987 
L 427.776412 -225.852249 
L 407.007166 -213.181556 
L 386.237921 -211.675729 
L 365.468675 -221.798939 
L 344.699429 -204.143101 
L 323.930184 -190.588988 
L 303.160938 -211.596429 
L 282.391692 -215.515269 
L 261.622447 -210.395381 
L 240.853201 -206.643586 
L 220.083956 -208.908078 
L 199.31471 -171.871162 
L 178.545464 -190.325605 
L 157.776219 -174.327524 
L 137.006973 -165.259958 
L 116.237727 -255.100426 
z
" style="stroke: #1f77b4; stroke-opacity: 0.2"/>
    </defs>
    <g clip-path="url(#p9fe9a99a23)">
     <use xlink:href="#m9b2b250600" x="0" y="576" style="fill: #1f77b4; fill-opacity: 0.2; stroke: #1f77b4; stroke-opacity: 0.2"/>
    </g>
   </g>
   <g id="PolyCollection_2">
    <defs>
     <path id="mb0d38557fb" d="M 116.237727 -364.43248 
L 116.237727 -315.236342 
L 137.006973 -211.502316 
L 157.776219 -251.127666 
L 178.545464 -201.486981 
L 199.31471 -210.111294 
L 220.083956 -223.5335 
L 240.853201 -265.909263 
L 261.622447 -246.301917 
L 282.391692 -228.924842 
L 303.160938 -249.63367 
L 323.930184 -257.818722 
L 344.699429 -269.96741 
L 365.468675 -243.169143 
L 386.237921 -243.574505 
L 407.007166 -240.34312 
L 427.776412 -261.292372 
L 448.545658 -241.91323 
L 469.314903 -264.020412 
L 490.084149 -262.226132 
L 510.853395 -251.377778 
L 531.62264 -274.67987 
L 552.391886 -238.279356 
L 573.161132 -224.832616 
L 593.930377 -259.864542 
L 614.699623 -241.669067 
L 635.468868 -270.362026 
L 656.238114 -249.735928 
L 677.00736 -258.291638 
L 697.776605 -244.387784 
L 718.545851 -269.890277 
L 739.315097 -233.853543 
L 760.084342 -252.552643 
L 780.853588 -248.884707 
L 801.622834 -272.70074 
L 822.392079 -256.207391 
L 843.161325 -231.724318 
L 863.930571 -220.080095 
L 884.699816 -262.854996 
L 905.469062 -267.150152 
L 926.238308 -275.398776 
L 947.007553 -237.543459 
L 967.776799 -260.840781 
L 988.546044 -231.388427 
L 1009.31529 -270.960599 
L 1030.084536 -235.369463 
L 1050.853781 -248.081444 
L 1071.623027 -284.571529 
L 1092.392273 -225.112873 
L 1092.392273 -307.72727 
L 1092.392273 -307.72727 
L 1071.623027 -328.270597 
L 1050.853781 -321.109364 
L 1030.084536 -371.648432 
L 1009.31529 -322.76302 
L 988.546044 -284.665323 
L 967.776799 -389.768628 
L 947.007553 -334.902103 
L 926.238308 -322.987588 
L 905.469062 -382.49312 
L 884.699816 -319.703631 
L 863.930571 -316.818779 
L 843.161325 -454.229679 
L 822.392079 -341.604411 
L 801.622834 -315.482423 
L 780.853588 -317.77331 
L 760.084342 -321.157825 
L 739.315097 -321.60596 
L 718.545851 -379.605691 
L 697.776605 -272.336546 
L 677.00736 -383.641856 
L 656.238114 -347.931415 
L 635.468868 -394.416372 
L 614.699623 -299.129288 
L 593.930377 -329.328891 
L 573.161132 -272.13865 
L 552.391886 -315.285976 
L 531.62264 -396.614093 
L 510.853395 -350.546346 
L 490.084149 -331.60895 
L 469.314903 -358.261178 
L 448.545658 -327.61908 
L 427.776412 -357.839072 
L 407.007166 -348.705579 
L 386.237921 -350.488328 
L 365.468675 -323.873491 
L 344.699429 -341.712176 
L 323.930184 -357.653505 
L 303.160938 -357.957199 
L 282.391692 -334.634055 
L 261.622447 -321.238209 
L 240.853201 -339.501461 
L 220.083956 -327.127003 
L 199.31471 -269.634886 
L 178.545464 -326.904035 
L 157.776219 -266.911369 
L 137.006973 -235.048088 
L 116.237727 -364.43248 
z
" style="stroke: #ff7f0e; stroke-opacity: 0.2"/>
    </defs>
    <g clip-path="url(#p9fe9a99a23)">
     <use xlink:href="#mb0d38557fb" x="0" y="576" style="fill: #ff7f0e; fill-opacity: 0.2; stroke: #ff7f0e; stroke-opacity: 0.2"/>
    </g>
   </g>
   <g id="PolyCollection_3">
    <defs>
     <path id="mcd90046c36" d="M 116.237727 -290.003835 
L 116.237727 -247.656954 
L 137.006973 -162.532043 
L 157.776219 -144.400883 
L 178.545464 -107.254909 
L 199.31471 -159.111953 
L 220.083956 -145.165981 
L 240.853201 -184.859657 
L 261.622447 -156.41426 
L 282.391692 -174.416761 
L 303.160938 -176.545119 
L 323.930184 -193.808881 
L 344.699429 -185.123763 
L 365.468675 -159.381212 
L 386.237921 -190.263774 
L 407.007166 -175.468 
L 427.776412 -179.677103 
L 448.545658 -129.745535 
L 469.314903 -156.465632 
L 490.084149 -159.600271 
L 510.853395 -178.193761 
L 531.62264 -199.311441 
L 552.391886 -176.404982 
L 573.161132 -197.712722 
L 593.930377 -154.179013 
L 614.699623 -186.614323 
L 635.468868 -194.745856 
L 656.238114 -203.842952 
L 677.00736 -217.739264 
L 697.776605 -165.1777 
L 718.545851 -201.686773 
L 739.315097 -180.697034 
L 760.084342 -170.158666 
L 780.853588 -159.587938 
L 801.622834 -144.625539 
L 822.392079 -194.969637 
L 843.161325 -191.28004 
L 863.930571 -146.985418 
L 884.699816 -184.723871 
L 905.469062 -194.377697 
L 926.238308 -189.302125 
L 947.007553 -210.631481 
L 967.776799 -164.656533 
L 988.546044 -166.707316 
L 1009.31529 -173.273739 
L 1030.084536 -159.266806 
L 1050.853781 -170.284193 
L 1071.623027 -172.842457 
L 1092.392273 -149.349782 
L 1092.392273 -204.61098 
L 1092.392273 -204.61098 
L 1071.623027 -223.589164 
L 1050.853781 -236.846717 
L 1030.084536 -243.374753 
L 1009.31529 -235.062692 
L 988.546044 -217.864739 
L 967.776799 -219.618711 
L 947.007553 -285.410957 
L 926.238308 -256.233788 
L 905.469062 -287.714406 
L 884.699816 -238.792824 
L 863.930571 -252.781471 
L 843.161325 -212.170322 
L 822.392079 -234.959543 
L 801.622834 -205.823492 
L 780.853588 -232.37252 
L 760.084342 -262.543882 
L 739.315097 -243.471458 
L 718.545851 -257.974927 
L 697.776605 -191.189621 
L 677.00736 -291.998799 
L 656.238114 -263.324723 
L 635.468868 -264.004671 
L 614.699623 -231.989116 
L 593.930377 -230.995302 
L 573.161132 -283.460689 
L 552.391886 -252.127982 
L 531.62264 -262.997776 
L 510.853395 -249.173513 
L 490.084149 -211.013762 
L 469.314903 -238.453808 
L 448.545658 -226.489313 
L 427.776412 -278.471322 
L 407.007166 -230.759972 
L 386.237921 -262.537918 
L 365.468675 -232.584018 
L 344.699429 -236.875763 
L 323.930184 -246.673293 
L 303.160938 -225.39457 
L 282.391692 -232.190462 
L 261.622447 -244.115214 
L 240.853201 -241.431192 
L 220.083956 -220.122168 
L 199.31471 -210.61792 
L 178.545464 -248.47611 
L 157.776219 -207.266034 
L 137.006973 -203.106049 
L 116.237727 -290.003835 
z
" style="stroke: #2ca02c; stroke-opacity: 0.2"/>
    </defs>
    <g clip-path="url(#p9fe9a99a23)">
     <use xlink:href="#mcd90046c36" x="0" y="576" style="fill: #2ca02c; fill-opacity: 0.2; stroke: #2ca02c; stroke-opacity: 0.2"/>
    </g>
   </g>
   <g id="PolyCollection_4">
    <defs>
     <path id="m7ed2d5739a" d="M 116.237727 -477.926766 
L 116.237727 -420.709783 
L 137.006973 -352.640312 
L 157.776219 -385.160702 
L 178.545464 -395.015085 
L 199.31471 -378.924922 
L 220.083956 -419.787297 
L 240.853201 -416.421559 
L 261.622447 -398.263319 
L 282.391692 -401.719012 
L 303.160938 -389.359468 
L 323.930184 -416.816411 
L 344.699429 -404.918343 
L 365.468675 -399.557428 
L 386.237921 -415.738338 
L 407.007166 -412.137846 
L 427.776412 -422.411957 
L 448.545658 -408.149742 
L 469.314903 -431.359246 
L 490.084149 -418.454951 
L 510.853395 -413.203628 
L 531.62264 -422.345166 
L 552.391886 -411.88473 
L 573.161132 -426.195894 
L 593.930377 -398.811105 
L 614.699623 -416.026399 
L 635.468868 -432.251692 
L 656.238114 -442.460893 
L 677.00736 -418.579733 
L 697.776605 -432.082184 
L 718.545851 -424.923813 
L 739.315097 -404.184555 
L 760.084342 -434.68338 
L 780.853588 -424.086599 
L 801.622834 -420.01739 
L 822.392079 -425.560806 
L 843.161325 -434.81774 
L 863.930571 -411.502148 
L 884.699816 -422.161962 
L 905.469062 -434.702747 
L 926.238308 -445.226159 
L 947.007553 -431.253486 
L 967.776799 -426.192304 
L 988.546044 -435.012622 
L 1009.31529 -427.384813 
L 1030.084536 -416.659673 
L 1050.853781 -440.945406 
L 1071.623027 -423.178373 
L 1092.392273 -435.908431 
L 1092.392273 -497.799405 
L 1092.392273 -497.799405 
L 1071.623027 -477.8963 
L 1050.853781 -506.223524 
L 1030.084536 -504.451157 
L 1009.31529 -494.512283 
L 988.546044 -485.570691 
L 967.776799 -498.267393 
L 947.007553 -485.922863 
L 926.238308 -495.299835 
L 905.469062 -522.017091 
L 884.699816 -482.398154 
L 863.930571 -488.824102 
L 843.161325 -503.03687 
L 822.392079 -476.489116 
L 801.622834 -472.856171 
L 780.853588 -486.290588 
L 760.084342 -472.861246 
L 739.315097 -485.75018 
L 718.545851 -542.274996 
L 697.776605 -495.093053 
L 677.00736 -514.507896 
L 656.238114 -543.393091 
L 635.468868 -532.261417 
L 614.699623 -485.892443 
L 593.930377 -461.729527 
L 573.161132 -510.112149 
L 552.391886 -501.79926 
L 531.62264 -463.48724 
L 510.853395 -484.978495 
L 490.084149 -460.360188 
L 469.314903 -495.266898 
L 448.545658 -454.437719 
L 427.776412 -493.049713 
L 407.007166 -495.808041 
L 386.237921 -492.405001 
L 365.468675 -519.206048 
L 344.699429 -506.940828 
L 323.930184 -480.404137 
L 303.160938 -479.847971 
L 282.391692 -525.058413 
L 261.622447 -501.817267 
L 240.853201 -496.102914 
L 220.083956 -526.128288 
L 199.31471 -450.108378 
L 178.545464 -449.127912 
L 157.776219 -437.612824 
L 137.006973 -421.425792 
L 116.237727 -477.926766 
z
" style="stroke: #d62728; stroke-opacity: 0.2"/>
    </defs>
    <g clip-path="url(#p9fe9a99a23)">
     <use xlink:href="#m7ed2d5739a" x="0" y="576" style="fill: #d62728; fill-opacity: 0.2; stroke: #d62728; stroke-opacity: 0.2"/>
    </g>
   </g>
   <g id="matplotlib.axis_1">
    <g id="xtick_1">
     <g id="line2d_1">
      <defs>
       <path id="m6f065b2178" d="M 0 0 
L 0 3.5 
" style="stroke: #000000; stroke-width: 0.8"/>
      </defs>
      <g>
       <use xlink:href="#m6f065b2178" x="105.853104" y="490.552" style="stroke: #000000; stroke-width: 0.8"/>
      </g>
     </g>
     <g id="text_1">
      <!-- 0 -->
      <g transform="translate(99.490604 512.748875) scale(0.2 -0.2)">
       <defs>
        <path id="DejaVuSans-30" d="M 2034 4250 
Q 1547 4250 1301 3770 
Q 1056 3291 1056 2328 
Q 1056 1369 1301 889 
Q 1547 409 2034 409 
Q 2525 409 2770 889 
Q 3016 1369 3016 2328 
Q 3016 3291 2770 3770 
Q 2525 4250 2034 4250 
z
M 2034 4750 
Q 2819 4750 3233 4129 
Q 3647 3509 3647 2328 
Q 3647 1150 3233 529 
Q 2819 -91 2034 -91 
Q 1250 -91 836 529 
Q 422 1150 422 2328 
Q 422 3509 836 4129 
Q 1250 4750 2034 4750 
z
" transform="scale(0.015625)"/>
       </defs>
       <use xlink:href="#DejaVuSans-30"/>
      </g>
     </g>
    </g>
    <g id="xtick_2">
     <g id="line2d_2">
      <g>
       <use xlink:href="#m6f065b2178" x="313.545561" y="490.552" style="stroke: #000000; stroke-width: 0.8"/>
      </g>
     </g>
     <g id="text_2">
      <!-- 20 -->
      <g transform="translate(300.820561 512.748875) scale(0.2 -0.2)">
       <defs>
        <path id="DejaVuSans-32" d="M 1228 531 
L 3431 531 
L 3431 0 
L 469 0 
L 469 531 
Q 828 903 1448 1529 
Q 2069 2156 2228 2338 
Q 2531 2678 2651 2914 
Q 2772 3150 2772 3378 
Q 2772 3750 2511 3984 
Q 2250 4219 1831 4219 
Q 1534 4219 1204 4116 
Q 875 4013 500 3803 
L 500 4441 
Q 881 4594 1212 4672 
Q 1544 4750 1819 4750 
Q 2544 4750 2975 4387 
Q 3406 4025 3406 3419 
Q 3406 3131 3298 2873 
Q 3191 2616 2906 2266 
Q 2828 2175 2409 1742 
Q 1991 1309 1228 531 
z
" transform="scale(0.015625)"/>
       </defs>
       <use xlink:href="#DejaVuSans-32"/>
       <use xlink:href="#DejaVuSans-30" x="63.623047"/>
      </g>
     </g>
    </g>
    <g id="xtick_3">
     <g id="line2d_3">
      <g>
       <use xlink:href="#m6f065b2178" x="521.238017" y="490.552" style="stroke: #000000; stroke-width: 0.8"/>
      </g>
     </g>
     <g id="text_3">
      <!-- 40 -->
      <g transform="translate(508.513017 512.748875) scale(0.2 -0.2)">
       <defs>
        <path id="DejaVuSans-34" d="M 2419 4116 
L 825 1625 
L 2419 1625 
L 2419 4116 
z
M 2253 4666 
L 3047 4666 
L 3047 1625 
L 3713 1625 
L 3713 1100 
L 3047 1100 
L 3047 0 
L 2419 0 
L 2419 1100 
L 313 1100 
L 313 1709 
L 2253 4666 
z
" transform="scale(0.015625)"/>
       </defs>
       <use xlink:href="#DejaVuSans-34"/>
       <use xlink:href="#DejaVuSans-30" x="63.623047"/>
      </g>
     </g>
    </g>
    <g id="xtick_4">
     <g id="line2d_4">
      <g>
       <use xlink:href="#m6f065b2178" x="728.930474" y="490.552" style="stroke: #000000; stroke-width: 0.8"/>
      </g>
     </g>
     <g id="text_4">
      <!-- 60 -->
      <g transform="translate(716.205474 512.748875) scale(0.2 -0.2)">
       <defs>
        <path id="DejaVuSans-36" d="M 2113 2584 
Q 1688 2584 1439 2293 
Q 1191 2003 1191 1497 
Q 1191 994 1439 701 
Q 1688 409 2113 409 
Q 2538 409 2786 701 
Q 3034 994 3034 1497 
Q 3034 2003 2786 2293 
Q 2538 2584 2113 2584 
z
M 3366 4563 
L 3366 3988 
Q 3128 4100 2886 4159 
Q 2644 4219 2406 4219 
Q 1781 4219 1451 3797 
Q 1122 3375 1075 2522 
Q 1259 2794 1537 2939 
Q 1816 3084 2150 3084 
Q 2853 3084 3261 2657 
Q 3669 2231 3669 1497 
Q 3669 778 3244 343 
Q 2819 -91 2113 -91 
Q 1303 -91 875 529 
Q 447 1150 447 2328 
Q 447 3434 972 4092 
Q 1497 4750 2381 4750 
Q 2619 4750 2861 4703 
Q 3103 4656 3366 4563 
z
" transform="scale(0.015625)"/>
       </defs>
       <use xlink:href="#DejaVuSans-36"/>
       <use xlink:href="#DejaVuSans-30" x="63.623047"/>
      </g>
     </g>
    </g>
    <g id="xtick_5">
     <g id="line2d_5">
      <g>
       <use xlink:href="#m6f065b2178" x="936.62293" y="490.552" style="stroke: #000000; stroke-width: 0.8"/>
      </g>
     </g>
     <g id="text_5">
      <!-- 80 -->
      <g transform="translate(923.89793 512.748875) scale(0.2 -0.2)">
       <defs>
        <path id="DejaVuSans-38" d="M 2034 2216 
Q 1584 2216 1326 1975 
Q 1069 1734 1069 1313 
Q 1069 891 1326 650 
Q 1584 409 2034 409 
Q 2484 409 2743 651 
Q 3003 894 3003 1313 
Q 3003 1734 2745 1975 
Q 2488 2216 2034 2216 
z
M 1403 2484 
Q 997 2584 770 2862 
Q 544 3141 544 3541 
Q 544 4100 942 4425 
Q 1341 4750 2034 4750 
Q 2731 4750 3128 4425 
Q 3525 4100 3525 3541 
Q 3525 3141 3298 2862 
Q 3072 2584 2669 2484 
Q 3125 2378 3379 2068 
Q 3634 1759 3634 1313 
Q 3634 634 3220 271 
Q 2806 -91 2034 -91 
Q 1263 -91 848 271 
Q 434 634 434 1313 
Q 434 1759 690 2068 
Q 947 2378 1403 2484 
z
M 1172 3481 
Q 1172 3119 1398 2916 
Q 1625 2713 2034 2713 
Q 2441 2713 2670 2916 
Q 2900 3119 2900 3481 
Q 2900 3844 2670 4047 
Q 2441 4250 2034 4250 
Q 1625 4250 1398 4047 
Q 1172 3844 1172 3481 
z
" transform="scale(0.015625)"/>
       </defs>
       <use xlink:href="#DejaVuSans-38"/>
       <use xlink:href="#DejaVuSans-30" x="63.623047"/>
      </g>
     </g>
    </g>
    <g id="text_6">
     <!-- Percentile Threshold -->
     <g transform="translate(502.535312 536.105125) scale(0.2 -0.2)">
      <defs>
       <path id="DejaVuSans-50" d="M 1259 4147 
L 1259 2394 
L 2053 2394 
Q 2494 2394 2734 2622 
Q 2975 2850 2975 3272 
Q 2975 3691 2734 3919 
Q 2494 4147 2053 4147 
L 1259 4147 
z
M 628 4666 
L 2053 4666 
Q 2838 4666 3239 4311 
Q 3641 3956 3641 3272 
Q 3641 2581 3239 2228 
Q 2838 1875 2053 1875 
L 1259 1875 
L 1259 0 
L 628 0 
L 628 4666 
z
" transform="scale(0.015625)"/>
       <path id="DejaVuSans-65" d="M 3597 1894 
L 3597 1613 
L 953 1613 
Q 991 1019 1311 708 
Q 1631 397 2203 397 
Q 2534 397 2845 478 
Q 3156 559 3463 722 
L 3463 178 
Q 3153 47 2828 -22 
Q 2503 -91 2169 -91 
Q 1331 -91 842 396 
Q 353 884 353 1716 
Q 353 2575 817 3079 
Q 1281 3584 2069 3584 
Q 2775 3584 3186 3129 
Q 3597 2675 3597 1894 
z
M 3022 2063 
Q 3016 2534 2758 2815 
Q 2500 3097 2075 3097 
Q 1594 3097 1305 2825 
Q 1016 2553 972 2059 
L 3022 2063 
z
" transform="scale(0.015625)"/>
       <path id="DejaVuSans-72" d="M 2631 2963 
Q 2534 3019 2420 3045 
Q 2306 3072 2169 3072 
Q 1681 3072 1420 2755 
Q 1159 2438 1159 1844 
L 1159 0 
L 581 0 
L 581 3500 
L 1159 3500 
L 1159 2956 
Q 1341 3275 1631 3429 
Q 1922 3584 2338 3584 
Q 2397 3584 2469 3576 
Q 2541 3569 2628 3553 
L 2631 2963 
z
" transform="scale(0.015625)"/>
       <path id="DejaVuSans-63" d="M 3122 3366 
L 3122 2828 
Q 2878 2963 2633 3030 
Q 2388 3097 2138 3097 
Q 1578 3097 1268 2742 
Q 959 2388 959 1747 
Q 959 1106 1268 751 
Q 1578 397 2138 397 
Q 2388 397 2633 464 
Q 2878 531 3122 666 
L 3122 134 
Q 2881 22 2623 -34 
Q 2366 -91 2075 -91 
Q 1284 -91 818 406 
Q 353 903 353 1747 
Q 353 2603 823 3093 
Q 1294 3584 2113 3584 
Q 2378 3584 2631 3529 
Q 2884 3475 3122 3366 
z
" transform="scale(0.015625)"/>
       <path id="DejaVuSans-6e" d="M 3513 2113 
L 3513 0 
L 2938 0 
L 2938 2094 
Q 2938 2591 2744 2837 
Q 2550 3084 2163 3084 
Q 1697 3084 1428 2787 
Q 1159 2491 1159 1978 
L 1159 0 
L 581 0 
L 581 3500 
L 1159 3500 
L 1159 2956 
Q 1366 3272 1645 3428 
Q 1925 3584 2291 3584 
Q 2894 3584 3203 3211 
Q 3513 2838 3513 2113 
z
" transform="scale(0.015625)"/>
       <path id="DejaVuSans-74" d="M 1172 4494 
L 1172 3500 
L 2356 3500 
L 2356 3053 
L 1172 3053 
L 1172 1153 
Q 1172 725 1289 603 
Q 1406 481 1766 481 
L 2356 481 
L 2356 0 
L 1766 0 
Q 1100 0 847 248 
Q 594 497 594 1153 
L 594 3053 
L 172 3053 
L 172 3500 
L 594 3500 
L 594 4494 
L 1172 4494 
z
" transform="scale(0.015625)"/>
       <path id="DejaVuSans-69" d="M 603 3500 
L 1178 3500 
L 1178 0 
L 603 0 
L 603 3500 
z
M 603 4863 
L 1178 4863 
L 1178 4134 
L 603 4134 
L 603 4863 
z
" transform="scale(0.015625)"/>
       <path id="DejaVuSans-6c" d="M 603 4863 
L 1178 4863 
L 1178 0 
L 603 0 
L 603 4863 
z
" transform="scale(0.015625)"/>
       <path id="DejaVuSans-20" transform="scale(0.015625)"/>
       <path id="DejaVuSans-54" d="M -19 4666 
L 3928 4666 
L 3928 4134 
L 2272 4134 
L 2272 0 
L 1638 0 
L 1638 4134 
L -19 4134 
L -19 4666 
z
" transform="scale(0.015625)"/>
       <path id="DejaVuSans-68" d="M 3513 2113 
L 3513 0 
L 2938 0 
L 2938 2094 
Q 2938 2591 2744 2837 
Q 2550 3084 2163 3084 
Q 1697 3084 1428 2787 
Q 1159 2491 1159 1978 
L 1159 0 
L 581 0 
L 581 4863 
L 1159 4863 
L 1159 2956 
Q 1366 3272 1645 3428 
Q 1925 3584 2291 3584 
Q 2894 3584 3203 3211 
Q 3513 2838 3513 2113 
z
" transform="scale(0.015625)"/>
       <path id="DejaVuSans-73" d="M 2834 3397 
L 2834 2853 
Q 2591 2978 2328 3040 
Q 2066 3103 1784 3103 
Q 1356 3103 1142 2972 
Q 928 2841 928 2578 
Q 928 2378 1081 2264 
Q 1234 2150 1697 2047 
L 1894 2003 
Q 2506 1872 2764 1633 
Q 3022 1394 3022 966 
Q 3022 478 2636 193 
Q 2250 -91 1575 -91 
Q 1294 -91 989 -36 
Q 684 19 347 128 
L 347 722 
Q 666 556 975 473 
Q 1284 391 1588 391 
Q 1994 391 2212 530 
Q 2431 669 2431 922 
Q 2431 1156 2273 1281 
Q 2116 1406 1581 1522 
L 1381 1569 
Q 847 1681 609 1914 
Q 372 2147 372 2553 
Q 372 3047 722 3315 
Q 1072 3584 1716 3584 
Q 2034 3584 2315 3537 
Q 2597 3491 2834 3397 
z
" transform="scale(0.015625)"/>
       <path id="DejaVuSans-6f" d="M 1959 3097 
Q 1497 3097 1228 2736 
Q 959 2375 959 1747 
Q 959 1119 1226 758 
Q 1494 397 1959 397 
Q 2419 397 2687 759 
Q 2956 1122 2956 1747 
Q 2956 2369 2687 2733 
Q 2419 3097 1959 3097 
z
M 1959 3584 
Q 2709 3584 3137 3096 
Q 3566 2609 3566 1747 
Q 3566 888 3137 398 
Q 2709 -91 1959 -91 
Q 1206 -91 779 398 
Q 353 888 353 1747 
Q 353 2609 779 3096 
Q 1206 3584 1959 3584 
z
" transform="scale(0.015625)"/>
       <path id="DejaVuSans-64" d="M 2906 2969 
L 2906 4863 
L 3481 4863 
L 3481 0 
L 2906 0 
L 2906 525 
Q 2725 213 2448 61 
Q 2172 -91 1784 -91 
Q 1150 -91 751 415 
Q 353 922 353 1747 
Q 353 2572 751 3078 
Q 1150 3584 1784 3584 
Q 2172 3584 2448 3432 
Q 2725 3281 2906 2969 
z
M 947 1747 
Q 947 1113 1208 752 
Q 1469 391 1925 391 
Q 2381 391 2643 752 
Q 2906 1113 2906 1747 
Q 2906 2381 2643 2742 
Q 2381 3103 1925 3103 
Q 1469 3103 1208 2742 
Q 947 2381 947 1747 
z
" transform="scale(0.015625)"/>
      </defs>
      <use xlink:href="#DejaVuSans-50"/>
      <use xlink:href="#DejaVuSans-65" x="56.677734"/>
      <use xlink:href="#DejaVuSans-72" x="118.201172"/>
      <use xlink:href="#DejaVuSans-63" x="157.064453"/>
      <use xlink:href="#DejaVuSans-65" x="212.044922"/>
      <use xlink:href="#DejaVuSans-6e" x="273.568359"/>
      <use xlink:href="#DejaVuSans-74" x="336.947266"/>
      <use xlink:href="#DejaVuSans-69" x="376.15625"/>
      <use xlink:href="#DejaVuSans-6c" x="403.939453"/>
      <use xlink:href="#DejaVuSans-65" x="431.722656"/>
      <use xlink:href="#DejaVuSans-20" x="493.246094"/>
      <use xlink:href="#DejaVuSans-54" x="525.033203"/>
      <use xlink:href="#DejaVuSans-68" x="586.117188"/>
      <use xlink:href="#DejaVuSans-72" x="649.496094"/>
      <use xlink:href="#DejaVuSans-65" x="688.359375"/>
      <use xlink:href="#DejaVuSans-73" x="749.882812"/>
      <use xlink:href="#DejaVuSans-68" x="801.982422"/>
      <use xlink:href="#DejaVuSans-6f" x="865.361328"/>
      <use xlink:href="#DejaVuSans-6c" x="926.542969"/>
      <use xlink:href="#DejaVuSans-64" x="954.326172"/>
     </g>
     <!-- (Using "random" Threshold Handling) -->
     <g transform="translate(417.147812 558.50075) scale(0.2 -0.2)">
      <defs>
       <path id="DejaVuSans-28" d="M 1984 4856 
Q 1566 4138 1362 3434 
Q 1159 2731 1159 2009 
Q 1159 1288 1364 580 
Q 1569 -128 1984 -844 
L 1484 -844 
Q 1016 -109 783 600 
Q 550 1309 550 2009 
Q 550 2706 781 3412 
Q 1013 4119 1484 4856 
L 1984 4856 
z
" transform="scale(0.015625)"/>
       <path id="DejaVuSans-55" d="M 556 4666 
L 1191 4666 
L 1191 1831 
Q 1191 1081 1462 751 
Q 1734 422 2344 422 
Q 2950 422 3222 751 
Q 3494 1081 3494 1831 
L 3494 4666 
L 4128 4666 
L 4128 1753 
Q 4128 841 3676 375 
Q 3225 -91 2344 -91 
Q 1459 -91 1007 375 
Q 556 841 556 1753 
L 556 4666 
z
" transform="scale(0.015625)"/>
       <path id="DejaVuSans-67" d="M 2906 1791 
Q 2906 2416 2648 2759 
Q 2391 3103 1925 3103 
Q 1463 3103 1205 2759 
Q 947 2416 947 1791 
Q 947 1169 1205 825 
Q 1463 481 1925 481 
Q 2391 481 2648 825 
Q 2906 1169 2906 1791 
z
M 3481 434 
Q 3481 -459 3084 -895 
Q 2688 -1331 1869 -1331 
Q 1566 -1331 1297 -1286 
Q 1028 -1241 775 -1147 
L 775 -588 
Q 1028 -725 1275 -790 
Q 1522 -856 1778 -856 
Q 2344 -856 2625 -561 
Q 2906 -266 2906 331 
L 2906 616 
Q 2728 306 2450 153 
Q 2172 0 1784 0 
Q 1141 0 747 490 
Q 353 981 353 1791 
Q 353 2603 747 3093 
Q 1141 3584 1784 3584 
Q 2172 3584 2450 3431 
Q 2728 3278 2906 2969 
L 2906 3500 
L 3481 3500 
L 3481 434 
z
" transform="scale(0.015625)"/>
       <path id="DejaVuSans-22" d="M 1147 4666 
L 1147 2931 
L 616 2931 
L 616 4666 
L 1147 4666 
z
M 2328 4666 
L 2328 2931 
L 1797 2931 
L 1797 4666 
L 2328 4666 
z
" transform="scale(0.015625)"/>
       <path id="DejaVuSans-61" d="M 2194 1759 
Q 1497 1759 1228 1600 
Q 959 1441 959 1056 
Q 959 750 1161 570 
Q 1363 391 1709 391 
Q 2188 391 2477 730 
Q 2766 1069 2766 1631 
L 2766 1759 
L 2194 1759 
z
M 3341 1997 
L 3341 0 
L 2766 0 
L 2766 531 
Q 2569 213 2275 61 
Q 1981 -91 1556 -91 
Q 1019 -91 701 211 
Q 384 513 384 1019 
Q 384 1609 779 1909 
Q 1175 2209 1959 2209 
L 2766 2209 
L 2766 2266 
Q 2766 2663 2505 2880 
Q 2244 3097 1772 3097 
Q 1472 3097 1187 3025 
Q 903 2953 641 2809 
L 641 3341 
Q 956 3463 1253 3523 
Q 1550 3584 1831 3584 
Q 2591 3584 2966 3190 
Q 3341 2797 3341 1997 
z
" transform="scale(0.015625)"/>
       <path id="DejaVuSans-6d" d="M 3328 2828 
Q 3544 3216 3844 3400 
Q 4144 3584 4550 3584 
Q 5097 3584 5394 3201 
Q 5691 2819 5691 2113 
L 5691 0 
L 5113 0 
L 5113 2094 
Q 5113 2597 4934 2840 
Q 4756 3084 4391 3084 
Q 3944 3084 3684 2787 
Q 3425 2491 3425 1978 
L 3425 0 
L 2847 0 
L 2847 2094 
Q 2847 2600 2669 2842 
Q 2491 3084 2119 3084 
Q 1678 3084 1418 2786 
Q 1159 2488 1159 1978 
L 1159 0 
L 581 0 
L 581 3500 
L 1159 3500 
L 1159 2956 
Q 1356 3278 1631 3431 
Q 1906 3584 2284 3584 
Q 2666 3584 2933 3390 
Q 3200 3197 3328 2828 
z
" transform="scale(0.015625)"/>
       <path id="DejaVuSans-48" d="M 628 4666 
L 1259 4666 
L 1259 2753 
L 3553 2753 
L 3553 4666 
L 4184 4666 
L 4184 0 
L 3553 0 
L 3553 2222 
L 1259 2222 
L 1259 0 
L 628 0 
L 628 4666 
z
" transform="scale(0.015625)"/>
       <path id="DejaVuSans-29" d="M 513 4856 
L 1013 4856 
Q 1481 4119 1714 3412 
Q 1947 2706 1947 2009 
Q 1947 1309 1714 600 
Q 1481 -109 1013 -844 
L 513 -844 
Q 928 -128 1133 580 
Q 1338 1288 1338 2009 
Q 1338 2731 1133 3434 
Q 928 4138 513 4856 
z
" transform="scale(0.015625)"/>
      </defs>
      <use xlink:href="#DejaVuSans-28"/>
      <use xlink:href="#DejaVuSans-55" x="39.013672"/>
      <use xlink:href="#DejaVuSans-73" x="112.207031"/>
      <use xlink:href="#DejaVuSans-69" x="164.306641"/>
      <use xlink:href="#DejaVuSans-6e" x="192.089844"/>
      <use xlink:href="#DejaVuSans-67" x="255.46875"/>
      <use xlink:href="#DejaVuSans-20" x="318.945312"/>
      <use xlink:href="#DejaVuSans-22" x="350.732422"/>
      <use xlink:href="#DejaVuSans-72" x="396.728516"/>
      <use xlink:href="#DejaVuSans-61" x="437.841797"/>
      <use xlink:href="#DejaVuSans-6e" x="499.121094"/>
      <use xlink:href="#DejaVuSans-64" x="562.5"/>
      <use xlink:href="#DejaVuSans-6f" x="625.976562"/>
      <use xlink:href="#DejaVuSans-6d" x="687.158203"/>
      <use xlink:href="#DejaVuSans-22" x="784.570312"/>
      <use xlink:href="#DejaVuSans-20" x="830.566406"/>
      <use xlink:href="#DejaVuSans-54" x="862.353516"/>
      <use xlink:href="#DejaVuSans-68" x="923.4375"/>
      <use xlink:href="#DejaVuSans-72" x="986.816406"/>
      <use xlink:href="#DejaVuSans-65" x="1025.679688"/>
      <use xlink:href="#DejaVuSans-73" x="1087.203125"/>
      <use xlink:href="#DejaVuSans-68" x="1139.302734"/>
      <use xlink:href="#DejaVuSans-6f" x="1202.681641"/>
      <use xlink:href="#DejaVuSans-6c" x="1263.863281"/>
      <use xlink:href="#DejaVuSans-64" x="1291.646484"/>
      <use xlink:href="#DejaVuSans-20" x="1355.123047"/>
      <use xlink:href="#DejaVuSans-48" x="1386.910156"/>
      <use xlink:href="#DejaVuSans-61" x="1462.105469"/>
      <use xlink:href="#DejaVuSans-6e" x="1523.384766"/>
      <use xlink:href="#DejaVuSans-64" x="1586.763672"/>
      <use xlink:href="#DejaVuSans-6c" x="1650.240234"/>
      <use xlink:href="#DejaVuSans-69" x="1678.023438"/>
      <use xlink:href="#DejaVuSans-6e" x="1705.806641"/>
      <use xlink:href="#DejaVuSans-67" x="1769.185547"/>
      <use xlink:href="#DejaVuSans-29" x="1832.662109"/>
     </g>
    </g>
   </g>
   <g id="matplotlib.axis_2">
    <g id="ytick_1">
     <g id="line2d_6">
      <defs>
       <path id="m9edd2cbfc6" d="M 0 0 
L -3.5 0 
" style="stroke: #000000; stroke-width: 0.8"/>
      </defs>
      <g>
       <use xlink:href="#m9edd2cbfc6" x="67.43" y="457.20999" style="stroke: #000000; stroke-width: 0.8"/>
      </g>
     </g>
     <g id="text_7">
      <!-- 11 -->
      <g transform="translate(34.98 464.808428) scale(0.2 -0.2)">
       <defs>
        <path id="DejaVuSans-31" d="M 794 531 
L 1825 531 
L 1825 4091 
L 703 3866 
L 703 4441 
L 1819 4666 
L 2450 4666 
L 2450 531 
L 3481 531 
L 3481 0 
L 794 0 
L 794 531 
z
" transform="scale(0.015625)"/>
       </defs>
       <use xlink:href="#DejaVuSans-31"/>
       <use xlink:href="#DejaVuSans-31" x="63.623047"/>
      </g>
     </g>
    </g>
    <g id="ytick_2">
     <g id="line2d_7">
      <g>
       <use xlink:href="#m9edd2cbfc6" x="67.43" y="365.316823" style="stroke: #000000; stroke-width: 0.8"/>
      </g>
     </g>
     <g id="text_8">
      <!-- 12 -->
      <g transform="translate(34.98 372.91526) scale(0.2 -0.2)">
       <use xlink:href="#DejaVuSans-31"/>
       <use xlink:href="#DejaVuSans-32" x="63.623047"/>
      </g>
     </g>
    </g>
    <g id="ytick_3">
     <g id="line2d_8">
      <g>
       <use xlink:href="#m9edd2cbfc6" x="67.43" y="273.423656" style="stroke: #000000; stroke-width: 0.8"/>
      </g>
     </g>
     <g id="text_9">
      <!-- 13 -->
      <g transform="translate(34.98 281.022093) scale(0.2 -0.2)">
       <defs>
        <path id="DejaVuSans-33" d="M 2597 2516 
Q 3050 2419 3304 2112 
Q 3559 1806 3559 1356 
Q 3559 666 3084 287 
Q 2609 -91 1734 -91 
Q 1441 -91 1130 -33 
Q 819 25 488 141 
L 488 750 
Q 750 597 1062 519 
Q 1375 441 1716 441 
Q 2309 441 2620 675 
Q 2931 909 2931 1356 
Q 2931 1769 2642 2001 
Q 2353 2234 1838 2234 
L 1294 2234 
L 1294 2753 
L 1863 2753 
Q 2328 2753 2575 2939 
Q 2822 3125 2822 3475 
Q 2822 3834 2567 4026 
Q 2313 4219 1838 4219 
Q 1578 4219 1281 4162 
Q 984 4106 628 3988 
L 628 4550 
Q 988 4650 1302 4700 
Q 1616 4750 1894 4750 
Q 2613 4750 3031 4423 
Q 3450 4097 3450 3541 
Q 3450 3153 3228 2886 
Q 3006 2619 2597 2516 
z
" transform="scale(0.015625)"/>
       </defs>
       <use xlink:href="#DejaVuSans-31"/>
       <use xlink:href="#DejaVuSans-33" x="63.623047"/>
      </g>
     </g>
    </g>
    <g id="ytick_4">
     <g id="line2d_9">
      <g>
       <use xlink:href="#m9edd2cbfc6" x="67.43" y="181.530488" style="stroke: #000000; stroke-width: 0.8"/>
      </g>
     </g>
     <g id="text_10">
      <!-- 14 -->
      <g transform="translate(34.98 189.128926) scale(0.2 -0.2)">
       <use xlink:href="#DejaVuSans-31"/>
       <use xlink:href="#DejaVuSans-34" x="63.623047"/>
      </g>
     </g>
    </g>
    <g id="ytick_5">
     <g id="line2d_10">
      <g>
       <use xlink:href="#m9edd2cbfc6" x="67.43" y="89.637321" style="stroke: #000000; stroke-width: 0.8"/>
      </g>
     </g>
     <g id="text_11">
      <!-- 15 -->
      <g transform="translate(34.98 97.235758) scale(0.2 -0.2)">
       <defs>
        <path id="DejaVuSans-35" d="M 691 4666 
L 3169 4666 
L 3169 4134 
L 1269 4134 
L 1269 2991 
Q 1406 3038 1543 3061 
Q 1681 3084 1819 3084 
Q 2600 3084 3056 2656 
Q 3513 2228 3513 1497 
Q 3513 744 3044 326 
Q 2575 -91 1722 -91 
Q 1428 -91 1123 -41 
Q 819 9 494 109 
L 494 744 
Q 775 591 1075 516 
Q 1375 441 1709 441 
Q 2250 441 2565 725 
Q 2881 1009 2881 1497 
Q 2881 1984 2565 2268 
Q 2250 2553 1709 2553 
Q 1456 2553 1204 2497 
Q 953 2441 691 2322 
L 691 4666 
z
" transform="scale(0.015625)"/>
       </defs>
       <use xlink:href="#DejaVuSans-31"/>
       <use xlink:href="#DejaVuSans-35" x="63.623047"/>
      </g>
     </g>
    </g>
    <g id="text_12">
     <!-- RMSE -->
     <g transform="translate(26.820625 278.91975) rotate(-90) scale(0.2 -0.2)">
      <defs>
       <path id="DejaVuSans-52" d="M 2841 2188 
Q 3044 2119 3236 1894 
Q 3428 1669 3622 1275 
L 4263 0 
L 3584 0 
L 2988 1197 
Q 2756 1666 2539 1819 
Q 2322 1972 1947 1972 
L 1259 1972 
L 1259 0 
L 628 0 
L 628 4666 
L 2053 4666 
Q 2853 4666 3247 4331 
Q 3641 3997 3641 3322 
Q 3641 2881 3436 2590 
Q 3231 2300 2841 2188 
z
M 1259 4147 
L 1259 2491 
L 2053 2491 
Q 2509 2491 2742 2702 
Q 2975 2913 2975 3322 
Q 2975 3731 2742 3939 
Q 2509 4147 2053 4147 
L 1259 4147 
z
" transform="scale(0.015625)"/>
       <path id="DejaVuSans-4d" d="M 628 4666 
L 1569 4666 
L 2759 1491 
L 3956 4666 
L 4897 4666 
L 4897 0 
L 4281 0 
L 4281 4097 
L 3078 897 
L 2444 897 
L 1241 4097 
L 1241 0 
L 628 0 
L 628 4666 
z
" transform="scale(0.015625)"/>
       <path id="DejaVuSans-53" d="M 3425 4513 
L 3425 3897 
Q 3066 4069 2747 4153 
Q 2428 4238 2131 4238 
Q 1616 4238 1336 4038 
Q 1056 3838 1056 3469 
Q 1056 3159 1242 3001 
Q 1428 2844 1947 2747 
L 2328 2669 
Q 3034 2534 3370 2195 
Q 3706 1856 3706 1288 
Q 3706 609 3251 259 
Q 2797 -91 1919 -91 
Q 1588 -91 1214 -16 
Q 841 59 441 206 
L 441 856 
Q 825 641 1194 531 
Q 1563 422 1919 422 
Q 2459 422 2753 634 
Q 3047 847 3047 1241 
Q 3047 1584 2836 1778 
Q 2625 1972 2144 2069 
L 1759 2144 
Q 1053 2284 737 2584 
Q 422 2884 422 3419 
Q 422 4038 858 4394 
Q 1294 4750 2059 4750 
Q 2388 4750 2728 4690 
Q 3069 4631 3425 4513 
z
" transform="scale(0.015625)"/>
       <path id="DejaVuSans-45" d="M 628 4666 
L 3578 4666 
L 3578 4134 
L 1259 4134 
L 1259 2753 
L 3481 2753 
L 3481 2222 
L 1259 2222 
L 1259 531 
L 3634 531 
L 3634 0 
L 628 0 
L 628 4666 
z
" transform="scale(0.015625)"/>
      </defs>
      <use xlink:href="#DejaVuSans-52"/>
      <use xlink:href="#DejaVuSans-4d" x="69.482422"/>
      <use xlink:href="#DejaVuSans-53" x="155.761719"/>
      <use xlink:href="#DejaVuSans-45" x="219.238281"/>
     </g>
    </g>
   </g>
   <g id="line2d_11">
    <path d="M 116.237727 339.164562 
L 137.006973 418.549045 
L 157.776219 417.943203 
L 178.545464 418.669365 
L 199.31471 424.988563 
L 220.083956 406.050067 
L 240.853201 398.124546 
L 261.622447 396.996032 
L 282.391692 395.397116 
L 303.160938 394.270378 
L 323.930184 399.263281 
L 344.699429 394.230066 
L 365.468675 390.513039 
L 386.237921 384.268264 
L 407.007166 396.658523 
L 427.776412 381.613828 
L 448.545658 402.415216 
L 469.314903 391.414256 
L 490.084149 407.62227 
L 510.853395 387.493379 
L 531.62264 386.831436 
L 552.391886 387.731815 
L 573.161132 397.361312 
L 593.930377 403.453256 
L 614.699623 385.015565 
L 635.468868 389.760265 
L 656.238114 383.960568 
L 677.00736 390.000529 
L 697.776605 403.986307 
L 718.545851 379.259553 
L 739.315097 387.230282 
L 760.084342 393.324782 
L 780.853588 399.910367 
L 801.622834 390.364853 
L 822.392079 393.821278 
L 843.161325 390.3415 
L 863.930571 396.37483 
L 884.699816 386.569429 
L 905.469062 376.995268 
L 926.238308 385.791281 
L 947.007553 384.391016 
L 967.776799 377.383675 
L 988.546044 395.215654 
L 1009.31529 394.705603 
L 1030.084536 375.780341 
L 1050.853781 388.782443 
L 1071.623027 381.428906 
L 1092.392273 398.190138 
" clip-path="url(#p9fe9a99a23)" style="fill: none; stroke: #1f77b4; stroke-width: 1.5; stroke-linecap: square"/>
   </g>
   <g id="line2d_12">
    <path d="M 116.237727 238.62233 
L 137.006973 352.751217 
L 157.776219 317.41439 
L 178.545464 311.020922 
L 199.31471 340.223568 
L 220.083956 302.294304 
L 240.853201 273.703821 
L 261.622447 294.466902 
L 282.391692 303.039489 
L 303.160938 276.375019 
L 323.930184 275.816905 
L 344.699429 272.003852 
L 365.468675 296.545438 
L 386.237921 283.3958 
L 407.007166 290.65233 
L 427.776412 265.743149 
L 448.545658 293.568876 
L 469.314903 264.868309 
L 490.084149 277.58766 
L 510.853395 279.288139 
L 531.62264 242.461089 
L 552.391886 300.095197 
L 573.161132 327.959898 
L 593.930377 279.115167 
L 614.699623 301.039749 
L 635.468868 253.010402 
L 656.238114 272.443161 
L 677.00736 258.069861 
L 697.776605 317.934005 
L 718.545851 252.83017 
L 739.315097 301.193641 
L 760.084342 290.270852 
L 780.853588 295.187532 
L 801.622834 280.257268 
L 822.392079 275.801255 
L 843.161325 256.845548 
L 863.930571 305.531087 
L 884.699816 284.132314 
L 905.469062 251.051642 
L 926.238308 277.853766 
L 947.007553 289.756064 
L 967.776799 246.294149 
L 988.546044 318.500203 
L 1009.31529 278.626436 
L 1030.084536 272.055818 
L 1050.853781 291.490421 
L 1071.623027 270.677578 
L 1092.392273 309.236762 
" clip-path="url(#p9fe9a99a23)" style="fill: none; stroke: #ff7f0e; stroke-width: 1.5; stroke-linecap: square"/>
   </g>
   <g id="line2d_13">
    <path d="M 116.237727 308.930719 
L 137.006973 391.085426 
L 157.776219 400.146087 
L 178.545464 393.685744 
L 199.31471 390.129557 
L 220.083956 395.670964 
L 240.853201 363.555587 
L 261.622447 379.488809 
L 282.391692 372.653412 
L 303.160938 375.611571 
L 323.930184 354.768594 
L 344.699429 364.103541 
L 365.468675 381.261209 
L 386.237921 351.746494 
L 407.007166 372.797214 
L 427.776412 349.798798 
L 448.545658 393.807187 
L 469.314903 385.522669 
L 490.084149 389.728018 
L 510.853395 359.385161 
L 531.62264 346.454593 
L 552.391886 364.740059 
L 573.161132 334.58863 
L 593.930377 384.257003 
L 614.699623 366.11041 
L 635.468868 346.270551 
L 656.238114 340.383692 
L 677.00736 327.891241 
L 697.776605 397.793121 
L 718.545851 348.676814 
L 739.315097 363.77931 
L 760.084342 360.841852 
L 780.853588 378.857809 
L 801.622834 395.848907 
L 822.392079 360.95744 
L 843.161325 374.385659 
L 863.930571 380.015101 
L 884.699816 364.31526 
L 905.469062 334.323007 
L 926.238308 354.119184 
L 947.007553 327.58004 
L 967.776799 382.450677 
L 988.546044 383.870483 
L 1009.31529 371.82878 
L 1030.084536 375.638116 
L 1050.853781 373.495727 
L 1071.623027 376.285238 
L 1092.392273 395.99718 
" clip-path="url(#p9fe9a99a23)" style="fill: none; stroke: #2ca02c; stroke-width: 1.5; stroke-linecap: square"/>
   </g>
   <g id="line2d_14">
    <path d="M 116.237727 129.656769 
L 137.006973 188.535001 
L 157.776219 162.843755 
L 178.545464 153.507609 
L 199.31471 162.159827 
L 220.083956 108.555459 
L 240.853201 121.60746 
L 261.622447 132.100159 
L 282.391692 120.779572 
L 303.160938 140.138756 
L 323.930184 128.991819 
L 344.699429 120.522487 
L 365.468675 116.95058 
L 386.237921 124.923742 
L 407.007166 125.530598 
L 427.776412 120.005636 
L 448.545658 146.187228 
L 469.314903 109.892195 
L 490.084149 136.592431 
L 510.853395 127.568734 
L 531.62264 136.93448 
L 552.391886 119.952126 
L 573.161132 109.333377 
L 593.930377 145.611432 
L 614.699623 125.798113 
L 635.468868 98.664627 
L 656.238114 87.184042 
L 677.00736 111.272455 
L 697.776605 112.129397 
L 718.545851 91.064961 
L 739.315097 131.672425 
L 760.084342 123.512319 
L 780.853588 118.192564 
L 801.622834 129.383117 
L 822.392079 119.572724 
L 843.161325 112.773054 
L 863.930571 125.836131 
L 884.699816 124.876062 
L 905.469062 97.979516 
L 926.238308 104.58919 
L 947.007553 117.121928 
L 967.776799 117.119194 
L 988.546044 116.962787 
L 1009.31529 116.433349 
L 1030.084536 110.865338 
L 1050.853781 107.263081 
L 1071.623027 125.279545 
L 1092.392273 116.105935 
" clip-path="url(#p9fe9a99a23)" style="fill: none; stroke: #d62728; stroke-width: 1.5; stroke-linecap: square"/>
   </g>
   <g id="line2d_15"/>
   <g id="line2d_16"/>
   <g id="line2d_17"/>
   <g id="line2d_18"/>
   <g id="patch_3">
    <path d="M 67.43 490.552 
L 67.43 10.8 
" style="fill: none; stroke: #000000; stroke-width: 0.8; stroke-linejoin: miter; stroke-linecap: square"/>
   </g>
   <g id="patch_4">
    <path d="M 1141.2 490.552 
L 1141.2 10.8 
" style="fill: none; stroke: #000000; stroke-width: 0.8; stroke-linejoin: miter; stroke-linecap: square"/>
   </g>
   <g id="patch_5">
    <path d="M 67.43 490.552 
L 1141.2 490.552 
" style="fill: none; stroke: #000000; stroke-width: 0.8; stroke-linejoin: miter; stroke-linecap: square"/>
   </g>
   <g id="patch_6">
    <path d="M 67.43 10.8 
L 1141.2 10.8 
" style="fill: none; stroke: #000000; stroke-width: 0.8; stroke-linejoin: miter; stroke-linecap: square"/>
   </g>
   <g id="legend_1">
    <g id="patch_7">
     <path d="M 78.63 482.552 
L 248.375 482.552 
Q 251.575 482.552 251.575 479.352 
L 251.575 387.012 
Q 251.575 383.812 248.375 383.812 
L 78.63 383.812 
Q 75.43 383.812 75.43 387.012 
L 75.43 479.352 
Q 75.43 482.552 78.63 482.552 
z
" style="fill: #ffffff; opacity: 0.8; stroke: #cccccc; stroke-linejoin: miter"/>
    </g>
    <g id="line2d_19">
     <path d="M 81.83 396.7695 
L 97.83 396.7695 
L 113.83 396.7695 
" style="fill: none; stroke: #1f77b4; stroke-width: 1.5; stroke-linecap: square"/>
    </g>
    <g id="text_13">
     <!-- rf -->
     <g transform="translate(126.63 402.3695) scale(0.16 -0.16)">
      <defs>
       <path id="DejaVuSans-66" d="M 2375 4863 
L 2375 4384 
L 1825 4384 
Q 1516 4384 1395 4259 
Q 1275 4134 1275 3809 
L 1275 3500 
L 2222 3500 
L 2222 3053 
L 1275 3053 
L 1275 0 
L 697 0 
L 697 3053 
L 147 3053 
L 147 3500 
L 697 3500 
L 697 3744 
Q 697 4328 969 4595 
Q 1241 4863 1831 4863 
L 2375 4863 
z
" transform="scale(0.015625)"/>
      </defs>
      <use xlink:href="#DejaVuSans-72"/>
      <use xlink:href="#DejaVuSans-66" x="41.113281"/>
     </g>
    </g>
    <g id="line2d_20">
     <path d="M 81.83 420.2545 
L 97.83 420.2545 
L 113.83 420.2545 
" style="fill: none; stroke: #ff7f0e; stroke-width: 1.5; stroke-linecap: square"/>
    </g>
    <g id="text_14">
     <!-- xgb -->
     <g transform="translate(126.63 425.8545) scale(0.16 -0.16)">
      <defs>
       <path id="DejaVuSans-78" d="M 3513 3500 
L 2247 1797 
L 3578 0 
L 2900 0 
L 1881 1375 
L 863 0 
L 184 0 
L 1544 1831 
L 300 3500 
L 978 3500 
L 1906 2253 
L 2834 3500 
L 3513 3500 
z
" transform="scale(0.015625)"/>
       <path id="DejaVuSans-62" d="M 3116 1747 
Q 3116 2381 2855 2742 
Q 2594 3103 2138 3103 
Q 1681 3103 1420 2742 
Q 1159 2381 1159 1747 
Q 1159 1113 1420 752 
Q 1681 391 2138 391 
Q 2594 391 2855 752 
Q 3116 1113 3116 1747 
z
M 1159 2969 
Q 1341 3281 1617 3432 
Q 1894 3584 2278 3584 
Q 2916 3584 3314 3078 
Q 3713 2572 3713 1747 
Q 3713 922 3314 415 
Q 2916 -91 2278 -91 
Q 1894 -91 1617 61 
Q 1341 213 1159 525 
L 1159 0 
L 581 0 
L 581 4863 
L 1159 4863 
L 1159 2969 
z
" transform="scale(0.015625)"/>
      </defs>
      <use xlink:href="#DejaVuSans-78"/>
      <use xlink:href="#DejaVuSans-67" x="59.179688"/>
      <use xlink:href="#DejaVuSans-62" x="122.65625"/>
     </g>
    </g>
    <g id="line2d_21">
     <path d="M 81.83 443.7395 
L 97.83 443.7395 
L 113.83 443.7395 
" style="fill: none; stroke: #2ca02c; stroke-width: 1.5; stroke-linecap: square"/>
    </g>
    <g id="text_15">
     <!-- gbr -->
     <g transform="translate(126.63 449.3395) scale(0.16 -0.16)">
      <use xlink:href="#DejaVuSans-67"/>
      <use xlink:href="#DejaVuSans-62" x="63.476562"/>
      <use xlink:href="#DejaVuSans-72" x="126.953125"/>
     </g>
    </g>
    <g id="line2d_22">
     <path d="M 81.83 467.2245 
L 97.83 467.2245 
L 113.83 467.2245 
" style="fill: none; stroke: #d62728; stroke-width: 1.5; stroke-linecap: square"/>
    </g>
    <g id="text_16">
     <!-- BayesianRidge -->
     <g transform="translate(126.63 472.8245) scale(0.16 -0.16)">
      <defs>
       <path id="DejaVuSans-42" d="M 1259 2228 
L 1259 519 
L 2272 519 
Q 2781 519 3026 730 
Q 3272 941 3272 1375 
Q 3272 1813 3026 2020 
Q 2781 2228 2272 2228 
L 1259 2228 
z
M 1259 4147 
L 1259 2741 
L 2194 2741 
Q 2656 2741 2882 2914 
Q 3109 3088 3109 3444 
Q 3109 3797 2882 3972 
Q 2656 4147 2194 4147 
L 1259 4147 
z
M 628 4666 
L 2241 4666 
Q 2963 4666 3353 4366 
Q 3744 4066 3744 3513 
Q 3744 3084 3544 2831 
Q 3344 2578 2956 2516 
Q 3422 2416 3680 2098 
Q 3938 1781 3938 1306 
Q 3938 681 3513 340 
Q 3088 0 2303 0 
L 628 0 
L 628 4666 
z
" transform="scale(0.015625)"/>
       <path id="DejaVuSans-79" d="M 2059 -325 
Q 1816 -950 1584 -1140 
Q 1353 -1331 966 -1331 
L 506 -1331 
L 506 -850 
L 844 -850 
Q 1081 -850 1212 -737 
Q 1344 -625 1503 -206 
L 1606 56 
L 191 3500 
L 800 3500 
L 1894 763 
L 2988 3500 
L 3597 3500 
L 2059 -325 
z
" transform="scale(0.015625)"/>
      </defs>
      <use xlink:href="#DejaVuSans-42"/>
      <use xlink:href="#DejaVuSans-61" x="68.603516"/>
      <use xlink:href="#DejaVuSans-79" x="129.882812"/>
      <use xlink:href="#DejaVuSans-65" x="189.0625"/>
      <use xlink:href="#DejaVuSans-73" x="250.585938"/>
      <use xlink:href="#DejaVuSans-69" x="302.685547"/>
      <use xlink:href="#DejaVuSans-61" x="330.46875"/>
      <use xlink:href="#DejaVuSans-6e" x="391.748047"/>
      <use xlink:href="#DejaVuSans-52" x="455.126953"/>
      <use xlink:href="#DejaVuSans-69" x="524.609375"/>
      <use xlink:href="#DejaVuSans-64" x="552.392578"/>
      <use xlink:href="#DejaVuSans-67" x="615.869141"/>
      <use xlink:href="#DejaVuSans-65" x="679.345703"/>
     </g>
    </g>
   </g>
  </g>
 </g>
 <defs>
  <clipPath id="p9fe9a99a23">
   <rect x="67.43" y="10.8" width="1073.77" height="479.752"/>
  </clipPath>
 </defs>
</svg>
