<?xml version="1.0" encoding="utf-8" standalone="no"?>
<!DOCTYPE svg PUBLIC "-//W3C//DTD SVG 1.1//EN"
  "http://www.w3.org/Graphics/SVG/1.1/DTD/svg11.dtd">
<svg xmlns:xlink="http://www.w3.org/1999/xlink" width="1152pt" height="576pt" viewBox="0 0 1152 576" xmlns="http://www.w3.org/2000/svg" version="1.1">
 <metadata>
  <rdf:RDF xmlns:dc="http://purl.org/dc/elements/1.1/" xmlns:cc="http://creativecommons.org/ns#" xmlns:rdf="http://www.w3.org/1999/02/22-rdf-syntax-ns#">
   <cc:Work>
    <dc:type rdf:resource="http://purl.org/dc/dcmitype/StillImage"/>
    <dc:date>2025-03-23T22:21:52.952970</dc:date>
    <dc:format>image/svg+xml</dc:format>
    <dc:creator>
     <cc:Agent>
      <dc:title>Matplotlib v3.9.2, https://matplotlib.org/</dc:title>
     </cc:Agent>
    </dc:creator>
   </cc:Work>
  </rdf:RDF>
 </metadata>
 <defs>
  <style type="text/css">*{stroke-linejoin: round; stroke-linecap: butt}</style>
 </defs>
 <g id="figure_1">
  <g id="patch_1">
   <path d="M 0 576 
L 1152 576 
L 1152 0 
L 0 0 
z
" style="fill: #ffffff"/>
  </g>
  <g id="axes_1">
   <g id="patch_2">
    <path d="M 86.6 490.552 
L 1141.2 490.552 
L 1141.2 10.8 
L 86.6 10.8 
z
" style="fill: #ffffff"/>
   </g>
   <g id="PolyCollection_1">
    <defs>
     <path id="mf11e24629c" d="M 134.536364 -114.596032 
L 134.536364 -107.254909 
L 154.934816 -109.142431 
L 175.333269 -114.166739 
L 195.731721 -114.067922 
L 216.130174 -117.377144 
L 236.528627 -124.255337 
L 256.927079 -134.241217 
L 277.325532 -133.13058 
L 297.723985 -134.370911 
L 318.122437 -135.675764 
L 338.52089 -142.622105 
L 358.919342 -147.459782 
L 379.317795 -162.58546 
L 399.716248 -166.851926 
L 420.1147 -172.169928 
L 440.513153 -167.11134 
L 460.911605 -174.57587 
L 481.310058 -182.510295 
L 501.708511 -185.224415 
L 522.106963 -190.251065 
L 542.505416 -192.301533 
L 562.903868 -190.558816 
L 583.302321 -195.40276 
L 603.700774 -195.48532 
L 624.099226 -199.2704 
L 644.497679 -202.96108 
L 664.896132 -198.89454 
L 685.294584 -199.757592 
L 705.693037 -207.28566 
L 726.091489 -221.885277 
L 746.489942 -238.655416 
L 766.888395 -241.000592 
L 787.286847 -255.256752 
L 807.6853 -252.199889 
L 828.083752 -245.094544 
L 848.482205 -249.820475 
L 868.880658 -239.758119 
L 889.27911 -273.809608 
L 909.677563 -275.468529 
L 930.076015 -356.782248 
L 950.474468 -340.706423 
L 970.872921 -344.363392 
L 991.271373 -316.185647 
L 1011.669826 -320.437069 
L 1032.068279 -334.449796 
L 1052.466731 -370.190531 
L 1072.865184 -364.499022 
L 1093.263636 -344.585648 
L 1093.263636 -493.081461 
L 1093.263636 -493.081461 
L 1072.865184 -440.720088 
L 1052.466731 -438.613947 
L 1032.068279 -395.964574 
L 1011.669826 -383.948598 
L 991.271373 -396.980609 
L 970.872921 -443.767799 
L 950.474468 -395.574427 
L 930.076015 -469.946297 
L 909.677563 -392.18558 
L 889.27911 -355.553465 
L 868.880658 -342.723516 
L 848.482205 -348.506207 
L 828.083752 -343.375781 
L 807.6853 -336.986369 
L 787.286847 -344.200651 
L 766.888395 -307.84037 
L 746.489942 -309.142365 
L 726.091489 -284.843831 
L 705.693037 -247.579296 
L 685.294584 -236.351446 
L 664.896132 -235.868232 
L 644.497679 -228.201477 
L 624.099226 -229.496296 
L 603.700774 -226.148455 
L 583.302321 -242.173914 
L 562.903868 -223.514048 
L 542.505416 -216.324357 
L 522.106963 -211.84782 
L 501.708511 -195.34612 
L 481.310058 -189.143597 
L 460.911605 -187.101996 
L 440.513153 -197.598437 
L 420.1147 -196.210656 
L 399.716248 -193.330108 
L 379.317795 -169.219359 
L 358.919342 -161.099528 
L 338.52089 -151.853324 
L 318.122437 -148.971782 
L 297.723985 -149.657837 
L 277.325532 -150.749168 
L 256.927079 -141.372015 
L 236.528627 -136.53047 
L 216.130174 -130.322293 
L 195.731721 -126.668087 
L 175.333269 -124.907214 
L 154.934816 -114.184733 
L 134.536364 -114.596032 
z
" style="stroke: #1f77b4; stroke-opacity: 0.2"/>
    </defs>
    <g clip-path="url(#p8412099622)">
     <use xlink:href="#mf11e24629c" x="0" y="576" style="fill: #1f77b4; fill-opacity: 0.2; stroke: #1f77b4; stroke-opacity: 0.2"/>
    </g>
   </g>
   <g id="PolyCollection_2">
    <defs>
     <path id="m24819dbd93" d="M 134.536364 -121.638697 
L 134.536364 -110.30705 
L 154.934816 -114.319689 
L 175.333269 -121.786262 
L 195.731721 -118.82356 
L 216.130174 -122.07172 
L 236.528627 -129.207551 
L 256.927079 -145.956123 
L 277.325532 -139.162969 
L 297.723985 -149.385878 
L 318.122437 -150.88663 
L 338.52089 -155.353515 
L 358.919342 -158.690186 
L 379.317795 -167.337345 
L 399.716248 -177.099638 
L 420.1147 -194.389066 
L 440.513153 -178.67275 
L 460.911605 -179.543564 
L 481.310058 -193.208005 
L 501.708511 -208.221769 
L 522.106963 -204.945159 
L 542.505416 -212.253143 
L 562.903868 -212.927979 
L 583.302321 -209.230855 
L 603.700774 -216.17332 
L 624.099226 -217.914864 
L 644.497679 -216.861768 
L 664.896132 -229.700136 
L 685.294584 -218.264407 
L 705.693037 -220.157014 
L 726.091489 -238.237135 
L 746.489942 -258.087659 
L 766.888395 -257.429523 
L 787.286847 -279.007788 
L 807.6853 -270.612623 
L 828.083752 -259.934301 
L 848.482205 -263.592742 
L 868.880658 -260.61494 
L 889.27911 -290.231073 
L 909.677563 -300.867939 
L 930.076015 -378.161377 
L 950.474468 -379.288025 
L 970.872921 -377.903011 
L 991.271373 -364.294508 
L 1011.669826 -365.045544 
L 1032.068279 -382.955315 
L 1052.466731 -412.488316 
L 1072.865184 -399.957701 
L 1093.263636 -374.621953 
L 1093.263636 -516.783539 
L 1093.263636 -516.783539 
L 1072.865184 -511.309392 
L 1052.466731 -512.824779 
L 1032.068279 -478.09069 
L 1011.669826 -458.787456 
L 991.271373 -467.670246 
L 970.872921 -528.362623 
L 950.474468 -466.70227 
L 930.076015 -543.393091 
L 909.677563 -423.961406 
L 889.27911 -405.420173 
L 868.880658 -382.754499 
L 848.482205 -396.156424 
L 828.083752 -393.618883 
L 807.6853 -382.64927 
L 787.286847 -380.279539 
L 766.888395 -343.070816 
L 746.489942 -340.558294 
L 726.091489 -330.01787 
L 705.693037 -280.036232 
L 685.294584 -277.903904 
L 664.896132 -281.850342 
L 644.497679 -271.009499 
L 624.099226 -255.841799 
L 603.700774 -254.669574 
L 583.302321 -260.802275 
L 562.903868 -256.079437 
L 542.505416 -259.993077 
L 522.106963 -243.138589 
L 501.708511 -227.884386 
L 481.310058 -230.767601 
L 460.911605 -211.801374 
L 440.513153 -217.668734 
L 420.1147 -230.783768 
L 399.716248 -196.607569 
L 379.317795 -182.405094 
L 358.919342 -166.925407 
L 338.52089 -166.700763 
L 318.122437 -163.122322 
L 297.723985 -164.401418 
L 277.325532 -160.161718 
L 256.927079 -154.288272 
L 236.528627 -145.863942 
L 216.130174 -132.885798 
L 195.731721 -132.8433 
L 175.333269 -127.318264 
L 154.934816 -121.594813 
L 134.536364 -121.638697 
z
" style="stroke: #ff7f0e; stroke-opacity: 0.2"/>
    </defs>
    <g clip-path="url(#p8412099622)">
     <use xlink:href="#m24819dbd93" x="0" y="576" style="fill: #ff7f0e; fill-opacity: 0.2; stroke: #ff7f0e; stroke-opacity: 0.2"/>
    </g>
   </g>
   <g id="PolyCollection_3">
    <defs>
     <path id="mb6cb6b725c" d="M 134.536364 -116.478976 
L 134.536364 -108.709307 
L 154.934816 -110.525966 
L 175.333269 -117.531492 
L 195.731721 -117.028388 
L 216.130174 -121.16152 
L 236.528627 -124.701643 
L 256.927079 -129.758904 
L 277.325532 -131.238742 
L 297.723985 -132.601433 
L 318.122437 -137.231029 
L 338.52089 -142.188541 
L 358.919342 -148.92418 
L 379.317795 -154.223072 
L 399.716248 -164.392107 
L 420.1147 -171.086178 
L 440.513153 -163.826578 
L 460.911605 -166.251661 
L 481.310058 -181.004349 
L 501.708511 -189.994352 
L 522.106963 -189.069792 
L 542.505416 -194.859471 
L 562.903868 -193.989285 
L 583.302321 -192.926942 
L 603.700774 -192.2035 
L 624.099226 -196.758265 
L 644.497679 -198.905518 
L 664.896132 -192.909666 
L 685.294584 -195.718678 
L 705.693037 -217.850962 
L 726.091489 -219.546619 
L 746.489942 -233.932208 
L 766.888395 -243.031071 
L 787.286847 -247.118665 
L 807.6853 -246.181183 
L 828.083752 -243.078733 
L 848.482205 -251.143061 
L 868.880658 -236.805236 
L 889.27911 -275.440086 
L 909.677563 -287.632016 
L 930.076015 -370.383787 
L 950.474468 -357.473674 
L 970.872921 -352.582274 
L 991.271373 -338.298665 
L 1011.669826 -333.871093 
L 1032.068279 -353.781221 
L 1052.466731 -387.037112 
L 1072.865184 -379.44051 
L 1093.263636 -367.262822 
L 1093.263636 -519.198922 
L 1093.263636 -519.198922 
L 1072.865184 -473.991311 
L 1052.466731 -476.283293 
L 1032.068279 -444.524247 
L 1011.669826 -414.185604 
L 991.271373 -408.334456 
L 970.872921 -475.269497 
L 950.474468 -420.747924 
L 930.076015 -491.343026 
L 909.677563 -401.669432 
L 889.27911 -375.250255 
L 868.880658 -355.375473 
L 848.482205 -353.787709 
L 828.083752 -345.552603 
L 807.6853 -345.70672 
L 787.286847 -348.816455 
L 766.888395 -297.67251 
L 746.489942 -300.350755 
L 726.091489 -282.654393 
L 705.693037 -249.029709 
L 685.294584 -236.780353 
L 664.896132 -231.193816 
L 644.497679 -227.862002 
L 624.099226 -223.670348 
L 603.700774 -227.014787 
L 583.302321 -237.479374 
L 562.903868 -219.896622 
L 542.505416 -223.311033 
L 522.106963 -209.177124 
L 501.708511 -206.792143 
L 481.310058 -192.547766 
L 460.911605 -195.949246 
L 440.513153 -196.0861 
L 420.1147 -199.262726 
L 399.716248 -181.893545 
L 379.317795 -171.498486 
L 358.919342 -163.432299 
L 338.52089 -145.23036 
L 318.122437 -142.685967 
L 297.723985 -144.248365 
L 277.325532 -147.321352 
L 256.927079 -135.125 
L 236.528627 -133.791019 
L 216.130174 -130.899062 
L 195.731721 -130.184949 
L 175.333269 -126.588496 
L 154.934816 -118.069124 
L 134.536364 -116.478976 
z
" style="stroke: #2ca02c; stroke-opacity: 0.2"/>
    </defs>
    <g clip-path="url(#p8412099622)">
     <use xlink:href="#mb6cb6b725c" x="0" y="576" style="fill: #2ca02c; fill-opacity: 0.2; stroke: #2ca02c; stroke-opacity: 0.2"/>
    </g>
   </g>
   <g id="matplotlib.axis_1">
    <g id="xtick_1">
     <g id="line2d_1">
      <defs>
       <path id="m2c119ef82d" d="M 0 0 
L 0 3.5 
" style="stroke: #000000; stroke-width: 0.8"/>
      </defs>
      <g>
       <use xlink:href="#m2c119ef82d" x="124.337137" y="490.552" style="stroke: #000000; stroke-width: 0.8"/>
      </g>
     </g>
     <g id="text_1">
      <!-- 0 -->
      <g transform="translate(117.974637 512.748875) scale(0.2 -0.2)">
       <defs>
        <path id="DejaVuSans-30" d="M 2034 4250 
Q 1547 4250 1301 3770 
Q 1056 3291 1056 2328 
Q 1056 1369 1301 889 
Q 1547 409 2034 409 
Q 2525 409 2770 889 
Q 3016 1369 3016 2328 
Q 3016 3291 2770 3770 
Q 2525 4250 2034 4250 
z
M 2034 4750 
Q 2819 4750 3233 4129 
Q 3647 3509 3647 2328 
Q 3647 1150 3233 529 
Q 2819 -91 2034 -91 
Q 1250 -91 836 529 
Q 422 1150 422 2328 
Q 422 3509 836 4129 
Q 1250 4750 2034 4750 
z
" transform="scale(0.015625)"/>
       </defs>
       <use xlink:href="#DejaVuSans-30"/>
      </g>
     </g>
    </g>
    <g id="xtick_2">
     <g id="line2d_2">
      <g>
       <use xlink:href="#m2c119ef82d" x="328.321663" y="490.552" style="stroke: #000000; stroke-width: 0.8"/>
      </g>
     </g>
     <g id="text_2">
      <!-- 20 -->
      <g transform="translate(315.596663 512.748875) scale(0.2 -0.2)">
       <defs>
        <path id="DejaVuSans-32" d="M 1228 531 
L 3431 531 
L 3431 0 
L 469 0 
L 469 531 
Q 828 903 1448 1529 
Q 2069 2156 2228 2338 
Q 2531 2678 2651 2914 
Q 2772 3150 2772 3378 
Q 2772 3750 2511 3984 
Q 2250 4219 1831 4219 
Q 1534 4219 1204 4116 
Q 875 4013 500 3803 
L 500 4441 
Q 881 4594 1212 4672 
Q 1544 4750 1819 4750 
Q 2544 4750 2975 4387 
Q 3406 4025 3406 3419 
Q 3406 3131 3298 2873 
Q 3191 2616 2906 2266 
Q 2828 2175 2409 1742 
Q 1991 1309 1228 531 
z
" transform="scale(0.015625)"/>
       </defs>
       <use xlink:href="#DejaVuSans-32"/>
       <use xlink:href="#DejaVuSans-30" x="63.623047"/>
      </g>
     </g>
    </g>
    <g id="xtick_3">
     <g id="line2d_3">
      <g>
       <use xlink:href="#m2c119ef82d" x="532.30619" y="490.552" style="stroke: #000000; stroke-width: 0.8"/>
      </g>
     </g>
     <g id="text_3">
      <!-- 40 -->
      <g transform="translate(519.58119 512.748875) scale(0.2 -0.2)">
       <defs>
        <path id="DejaVuSans-34" d="M 2419 4116 
L 825 1625 
L 2419 1625 
L 2419 4116 
z
M 2253 4666 
L 3047 4666 
L 3047 1625 
L 3713 1625 
L 3713 1100 
L 3047 1100 
L 3047 0 
L 2419 0 
L 2419 1100 
L 313 1100 
L 313 1709 
L 2253 4666 
z
" transform="scale(0.015625)"/>
       </defs>
       <use xlink:href="#DejaVuSans-34"/>
       <use xlink:href="#DejaVuSans-30" x="63.623047"/>
      </g>
     </g>
    </g>
    <g id="xtick_4">
     <g id="line2d_4">
      <g>
       <use xlink:href="#m2c119ef82d" x="736.290716" y="490.552" style="stroke: #000000; stroke-width: 0.8"/>
      </g>
     </g>
     <g id="text_4">
      <!-- 60 -->
      <g transform="translate(723.565716 512.748875) scale(0.2 -0.2)">
       <defs>
        <path id="DejaVuSans-36" d="M 2113 2584 
Q 1688 2584 1439 2293 
Q 1191 2003 1191 1497 
Q 1191 994 1439 701 
Q 1688 409 2113 409 
Q 2538 409 2786 701 
Q 3034 994 3034 1497 
Q 3034 2003 2786 2293 
Q 2538 2584 2113 2584 
z
M 3366 4563 
L 3366 3988 
Q 3128 4100 2886 4159 
Q 2644 4219 2406 4219 
Q 1781 4219 1451 3797 
Q 1122 3375 1075 2522 
Q 1259 2794 1537 2939 
Q 1816 3084 2150 3084 
Q 2853 3084 3261 2657 
Q 3669 2231 3669 1497 
Q 3669 778 3244 343 
Q 2819 -91 2113 -91 
Q 1303 -91 875 529 
Q 447 1150 447 2328 
Q 447 3434 972 4092 
Q 1497 4750 2381 4750 
Q 2619 4750 2861 4703 
Q 3103 4656 3366 4563 
z
" transform="scale(0.015625)"/>
       </defs>
       <use xlink:href="#DejaVuSans-36"/>
       <use xlink:href="#DejaVuSans-30" x="63.623047"/>
      </g>
     </g>
    </g>
    <g id="xtick_5">
     <g id="line2d_5">
      <g>
       <use xlink:href="#m2c119ef82d" x="940.275242" y="490.552" style="stroke: #000000; stroke-width: 0.8"/>
      </g>
     </g>
     <g id="text_5">
      <!-- 80 -->
      <g transform="translate(927.550242 512.748875) scale(0.2 -0.2)">
       <defs>
        <path id="DejaVuSans-38" d="M 2034 2216 
Q 1584 2216 1326 1975 
Q 1069 1734 1069 1313 
Q 1069 891 1326 650 
Q 1584 409 2034 409 
Q 2484 409 2743 651 
Q 3003 894 3003 1313 
Q 3003 1734 2745 1975 
Q 2488 2216 2034 2216 
z
M 1403 2484 
Q 997 2584 770 2862 
Q 544 3141 544 3541 
Q 544 4100 942 4425 
Q 1341 4750 2034 4750 
Q 2731 4750 3128 4425 
Q 3525 4100 3525 3541 
Q 3525 3141 3298 2862 
Q 3072 2584 2669 2484 
Q 3125 2378 3379 2068 
Q 3634 1759 3634 1313 
Q 3634 634 3220 271 
Q 2806 -91 2034 -91 
Q 1263 -91 848 271 
Q 434 634 434 1313 
Q 434 1759 690 2068 
Q 947 2378 1403 2484 
z
M 1172 3481 
Q 1172 3119 1398 2916 
Q 1625 2713 2034 2713 
Q 2441 2713 2670 2916 
Q 2900 3119 2900 3481 
Q 2900 3844 2670 4047 
Q 2441 4250 2034 4250 
Q 1625 4250 1398 4047 
Q 1172 3844 1172 3481 
z
" transform="scale(0.015625)"/>
       </defs>
       <use xlink:href="#DejaVuSans-38"/>
       <use xlink:href="#DejaVuSans-30" x="63.623047"/>
      </g>
     </g>
    </g>
    <g id="text_6">
     <!-- Percentile Threshold -->
     <g transform="translate(512.120313 536.105125) scale(0.2 -0.2)">
      <defs>
       <path id="DejaVuSans-50" d="M 1259 4147 
L 1259 2394 
L 2053 2394 
Q 2494 2394 2734 2622 
Q 2975 2850 2975 3272 
Q 2975 3691 2734 3919 
Q 2494 4147 2053 4147 
L 1259 4147 
z
M 628 4666 
L 2053 4666 
Q 2838 4666 3239 4311 
Q 3641 3956 3641 3272 
Q 3641 2581 3239 2228 
Q 2838 1875 2053 1875 
L 1259 1875 
L 1259 0 
L 628 0 
L 628 4666 
z
" transform="scale(0.015625)"/>
       <path id="DejaVuSans-65" d="M 3597 1894 
L 3597 1613 
L 953 1613 
Q 991 1019 1311 708 
Q 1631 397 2203 397 
Q 2534 397 2845 478 
Q 3156 559 3463 722 
L 3463 178 
Q 3153 47 2828 -22 
Q 2503 -91 2169 -91 
Q 1331 -91 842 396 
Q 353 884 353 1716 
Q 353 2575 817 3079 
Q 1281 3584 2069 3584 
Q 2775 3584 3186 3129 
Q 3597 2675 3597 1894 
z
M 3022 2063 
Q 3016 2534 2758 2815 
Q 2500 3097 2075 3097 
Q 1594 3097 1305 2825 
Q 1016 2553 972 2059 
L 3022 2063 
z
" transform="scale(0.015625)"/>
       <path id="DejaVuSans-72" d="M 2631 2963 
Q 2534 3019 2420 3045 
Q 2306 3072 2169 3072 
Q 1681 3072 1420 2755 
Q 1159 2438 1159 1844 
L 1159 0 
L 581 0 
L 581 3500 
L 1159 3500 
L 1159 2956 
Q 1341 3275 1631 3429 
Q 1922 3584 2338 3584 
Q 2397 3584 2469 3576 
Q 2541 3569 2628 3553 
L 2631 2963 
z
" transform="scale(0.015625)"/>
       <path id="DejaVuSans-63" d="M 3122 3366 
L 3122 2828 
Q 2878 2963 2633 3030 
Q 2388 3097 2138 3097 
Q 1578 3097 1268 2742 
Q 959 2388 959 1747 
Q 959 1106 1268 751 
Q 1578 397 2138 397 
Q 2388 397 2633 464 
Q 2878 531 3122 666 
L 3122 134 
Q 2881 22 2623 -34 
Q 2366 -91 2075 -91 
Q 1284 -91 818 406 
Q 353 903 353 1747 
Q 353 2603 823 3093 
Q 1294 3584 2113 3584 
Q 2378 3584 2631 3529 
Q 2884 3475 3122 3366 
z
" transform="scale(0.015625)"/>
       <path id="DejaVuSans-6e" d="M 3513 2113 
L 3513 0 
L 2938 0 
L 2938 2094 
Q 2938 2591 2744 2837 
Q 2550 3084 2163 3084 
Q 1697 3084 1428 2787 
Q 1159 2491 1159 1978 
L 1159 0 
L 581 0 
L 581 3500 
L 1159 3500 
L 1159 2956 
Q 1366 3272 1645 3428 
Q 1925 3584 2291 3584 
Q 2894 3584 3203 3211 
Q 3513 2838 3513 2113 
z
" transform="scale(0.015625)"/>
       <path id="DejaVuSans-74" d="M 1172 4494 
L 1172 3500 
L 2356 3500 
L 2356 3053 
L 1172 3053 
L 1172 1153 
Q 1172 725 1289 603 
Q 1406 481 1766 481 
L 2356 481 
L 2356 0 
L 1766 0 
Q 1100 0 847 248 
Q 594 497 594 1153 
L 594 3053 
L 172 3053 
L 172 3500 
L 594 3500 
L 594 4494 
L 1172 4494 
z
" transform="scale(0.015625)"/>
       <path id="DejaVuSans-69" d="M 603 3500 
L 1178 3500 
L 1178 0 
L 603 0 
L 603 3500 
z
M 603 4863 
L 1178 4863 
L 1178 4134 
L 603 4134 
L 603 4863 
z
" transform="scale(0.015625)"/>
       <path id="DejaVuSans-6c" d="M 603 4863 
L 1178 4863 
L 1178 0 
L 603 0 
L 603 4863 
z
" transform="scale(0.015625)"/>
       <path id="DejaVuSans-20" transform="scale(0.015625)"/>
       <path id="DejaVuSans-54" d="M -19 4666 
L 3928 4666 
L 3928 4134 
L 2272 4134 
L 2272 0 
L 1638 0 
L 1638 4134 
L -19 4134 
L -19 4666 
z
" transform="scale(0.015625)"/>
       <path id="DejaVuSans-68" d="M 3513 2113 
L 3513 0 
L 2938 0 
L 2938 2094 
Q 2938 2591 2744 2837 
Q 2550 3084 2163 3084 
Q 1697 3084 1428 2787 
Q 1159 2491 1159 1978 
L 1159 0 
L 581 0 
L 581 4863 
L 1159 4863 
L 1159 2956 
Q 1366 3272 1645 3428 
Q 1925 3584 2291 3584 
Q 2894 3584 3203 3211 
Q 3513 2838 3513 2113 
z
" transform="scale(0.015625)"/>
       <path id="DejaVuSans-73" d="M 2834 3397 
L 2834 2853 
Q 2591 2978 2328 3040 
Q 2066 3103 1784 3103 
Q 1356 3103 1142 2972 
Q 928 2841 928 2578 
Q 928 2378 1081 2264 
Q 1234 2150 1697 2047 
L 1894 2003 
Q 2506 1872 2764 1633 
Q 3022 1394 3022 966 
Q 3022 478 2636 193 
Q 2250 -91 1575 -91 
Q 1294 -91 989 -36 
Q 684 19 347 128 
L 347 722 
Q 666 556 975 473 
Q 1284 391 1588 391 
Q 1994 391 2212 530 
Q 2431 669 2431 922 
Q 2431 1156 2273 1281 
Q 2116 1406 1581 1522 
L 1381 1569 
Q 847 1681 609 1914 
Q 372 2147 372 2553 
Q 372 3047 722 3315 
Q 1072 3584 1716 3584 
Q 2034 3584 2315 3537 
Q 2597 3491 2834 3397 
z
" transform="scale(0.015625)"/>
       <path id="DejaVuSans-6f" d="M 1959 3097 
Q 1497 3097 1228 2736 
Q 959 2375 959 1747 
Q 959 1119 1226 758 
Q 1494 397 1959 397 
Q 2419 397 2687 759 
Q 2956 1122 2956 1747 
Q 2956 2369 2687 2733 
Q 2419 3097 1959 3097 
z
M 1959 3584 
Q 2709 3584 3137 3096 
Q 3566 2609 3566 1747 
Q 3566 888 3137 398 
Q 2709 -91 1959 -91 
Q 1206 -91 779 398 
Q 353 888 353 1747 
Q 353 2609 779 3096 
Q 1206 3584 1959 3584 
z
" transform="scale(0.015625)"/>
       <path id="DejaVuSans-64" d="M 2906 2969 
L 2906 4863 
L 3481 4863 
L 3481 0 
L 2906 0 
L 2906 525 
Q 2725 213 2448 61 
Q 2172 -91 1784 -91 
Q 1150 -91 751 415 
Q 353 922 353 1747 
Q 353 2572 751 3078 
Q 1150 3584 1784 3584 
Q 2172 3584 2448 3432 
Q 2725 3281 2906 2969 
z
M 947 1747 
Q 947 1113 1208 752 
Q 1469 391 1925 391 
Q 2381 391 2643 752 
Q 2906 1113 2906 1747 
Q 2906 2381 2643 2742 
Q 2381 3103 1925 3103 
Q 1469 3103 1208 2742 
Q 947 2381 947 1747 
z
" transform="scale(0.015625)"/>
      </defs>
      <use xlink:href="#DejaVuSans-50"/>
      <use xlink:href="#DejaVuSans-65" x="56.677734"/>
      <use xlink:href="#DejaVuSans-72" x="118.201172"/>
      <use xlink:href="#DejaVuSans-63" x="157.064453"/>
      <use xlink:href="#DejaVuSans-65" x="212.044922"/>
      <use xlink:href="#DejaVuSans-6e" x="273.568359"/>
      <use xlink:href="#DejaVuSans-74" x="336.947266"/>
      <use xlink:href="#DejaVuSans-69" x="376.15625"/>
      <use xlink:href="#DejaVuSans-6c" x="403.939453"/>
      <use xlink:href="#DejaVuSans-65" x="431.722656"/>
      <use xlink:href="#DejaVuSans-20" x="493.246094"/>
      <use xlink:href="#DejaVuSans-54" x="525.033203"/>
      <use xlink:href="#DejaVuSans-68" x="586.117188"/>
      <use xlink:href="#DejaVuSans-72" x="649.496094"/>
      <use xlink:href="#DejaVuSans-65" x="688.359375"/>
      <use xlink:href="#DejaVuSans-73" x="749.882812"/>
      <use xlink:href="#DejaVuSans-68" x="801.982422"/>
      <use xlink:href="#DejaVuSans-6f" x="865.361328"/>
      <use xlink:href="#DejaVuSans-6c" x="926.542969"/>
      <use xlink:href="#DejaVuSans-64" x="954.326172"/>
     </g>
     <!-- (Using "merge" Threshold Handling) -->
     <g transform="translate(433.185938 558.50075) scale(0.2 -0.2)">
      <defs>
       <path id="DejaVuSans-28" d="M 1984 4856 
Q 1566 4138 1362 3434 
Q 1159 2731 1159 2009 
Q 1159 1288 1364 580 
Q 1569 -128 1984 -844 
L 1484 -844 
Q 1016 -109 783 600 
Q 550 1309 550 2009 
Q 550 2706 781 3412 
Q 1013 4119 1484 4856 
L 1984 4856 
z
" transform="scale(0.015625)"/>
       <path id="DejaVuSans-55" d="M 556 4666 
L 1191 4666 
L 1191 1831 
Q 1191 1081 1462 751 
Q 1734 422 2344 422 
Q 2950 422 3222 751 
Q 3494 1081 3494 1831 
L 3494 4666 
L 4128 4666 
L 4128 1753 
Q 4128 841 3676 375 
Q 3225 -91 2344 -91 
Q 1459 -91 1007 375 
Q 556 841 556 1753 
L 556 4666 
z
" transform="scale(0.015625)"/>
       <path id="DejaVuSans-67" d="M 2906 1791 
Q 2906 2416 2648 2759 
Q 2391 3103 1925 3103 
Q 1463 3103 1205 2759 
Q 947 2416 947 1791 
Q 947 1169 1205 825 
Q 1463 481 1925 481 
Q 2391 481 2648 825 
Q 2906 1169 2906 1791 
z
M 3481 434 
Q 3481 -459 3084 -895 
Q 2688 -1331 1869 -1331 
Q 1566 -1331 1297 -1286 
Q 1028 -1241 775 -1147 
L 775 -588 
Q 1028 -725 1275 -790 
Q 1522 -856 1778 -856 
Q 2344 -856 2625 -561 
Q 2906 -266 2906 331 
L 2906 616 
Q 2728 306 2450 153 
Q 2172 0 1784 0 
Q 1141 0 747 490 
Q 353 981 353 1791 
Q 353 2603 747 3093 
Q 1141 3584 1784 3584 
Q 2172 3584 2450 3431 
Q 2728 3278 2906 2969 
L 2906 3500 
L 3481 3500 
L 3481 434 
z
" transform="scale(0.015625)"/>
       <path id="DejaVuSans-22" d="M 1147 4666 
L 1147 2931 
L 616 2931 
L 616 4666 
L 1147 4666 
z
M 2328 4666 
L 2328 2931 
L 1797 2931 
L 1797 4666 
L 2328 4666 
z
" transform="scale(0.015625)"/>
       <path id="DejaVuSans-6d" d="M 3328 2828 
Q 3544 3216 3844 3400 
Q 4144 3584 4550 3584 
Q 5097 3584 5394 3201 
Q 5691 2819 5691 2113 
L 5691 0 
L 5113 0 
L 5113 2094 
Q 5113 2597 4934 2840 
Q 4756 3084 4391 3084 
Q 3944 3084 3684 2787 
Q 3425 2491 3425 1978 
L 3425 0 
L 2847 0 
L 2847 2094 
Q 2847 2600 2669 2842 
Q 2491 3084 2119 3084 
Q 1678 3084 1418 2786 
Q 1159 2488 1159 1978 
L 1159 0 
L 581 0 
L 581 3500 
L 1159 3500 
L 1159 2956 
Q 1356 3278 1631 3431 
Q 1906 3584 2284 3584 
Q 2666 3584 2933 3390 
Q 3200 3197 3328 2828 
z
" transform="scale(0.015625)"/>
       <path id="DejaVuSans-48" d="M 628 4666 
L 1259 4666 
L 1259 2753 
L 3553 2753 
L 3553 4666 
L 4184 4666 
L 4184 0 
L 3553 0 
L 3553 2222 
L 1259 2222 
L 1259 0 
L 628 0 
L 628 4666 
z
" transform="scale(0.015625)"/>
       <path id="DejaVuSans-61" d="M 2194 1759 
Q 1497 1759 1228 1600 
Q 959 1441 959 1056 
Q 959 750 1161 570 
Q 1363 391 1709 391 
Q 2188 391 2477 730 
Q 2766 1069 2766 1631 
L 2766 1759 
L 2194 1759 
z
M 3341 1997 
L 3341 0 
L 2766 0 
L 2766 531 
Q 2569 213 2275 61 
Q 1981 -91 1556 -91 
Q 1019 -91 701 211 
Q 384 513 384 1019 
Q 384 1609 779 1909 
Q 1175 2209 1959 2209 
L 2766 2209 
L 2766 2266 
Q 2766 2663 2505 2880 
Q 2244 3097 1772 3097 
Q 1472 3097 1187 3025 
Q 903 2953 641 2809 
L 641 3341 
Q 956 3463 1253 3523 
Q 1550 3584 1831 3584 
Q 2591 3584 2966 3190 
Q 3341 2797 3341 1997 
z
" transform="scale(0.015625)"/>
       <path id="DejaVuSans-29" d="M 513 4856 
L 1013 4856 
Q 1481 4119 1714 3412 
Q 1947 2706 1947 2009 
Q 1947 1309 1714 600 
Q 1481 -109 1013 -844 
L 513 -844 
Q 928 -128 1133 580 
Q 1338 1288 1338 2009 
Q 1338 2731 1133 3434 
Q 928 4138 513 4856 
z
" transform="scale(0.015625)"/>
      </defs>
      <use xlink:href="#DejaVuSans-28"/>
      <use xlink:href="#DejaVuSans-55" x="39.013672"/>
      <use xlink:href="#DejaVuSans-73" x="112.207031"/>
      <use xlink:href="#DejaVuSans-69" x="164.306641"/>
      <use xlink:href="#DejaVuSans-6e" x="192.089844"/>
      <use xlink:href="#DejaVuSans-67" x="255.46875"/>
      <use xlink:href="#DejaVuSans-20" x="318.945312"/>
      <use xlink:href="#DejaVuSans-22" x="350.732422"/>
      <use xlink:href="#DejaVuSans-6d" x="396.728516"/>
      <use xlink:href="#DejaVuSans-65" x="494.140625"/>
      <use xlink:href="#DejaVuSans-72" x="555.664062"/>
      <use xlink:href="#DejaVuSans-67" x="595.027344"/>
      <use xlink:href="#DejaVuSans-65" x="658.503906"/>
      <use xlink:href="#DejaVuSans-22" x="720.027344"/>
      <use xlink:href="#DejaVuSans-20" x="766.023438"/>
      <use xlink:href="#DejaVuSans-54" x="797.810547"/>
      <use xlink:href="#DejaVuSans-68" x="858.894531"/>
      <use xlink:href="#DejaVuSans-72" x="922.273438"/>
      <use xlink:href="#DejaVuSans-65" x="961.136719"/>
      <use xlink:href="#DejaVuSans-73" x="1022.660156"/>
      <use xlink:href="#DejaVuSans-68" x="1074.759766"/>
      <use xlink:href="#DejaVuSans-6f" x="1138.138672"/>
      <use xlink:href="#DejaVuSans-6c" x="1199.320312"/>
      <use xlink:href="#DejaVuSans-64" x="1227.103516"/>
      <use xlink:href="#DejaVuSans-20" x="1290.580078"/>
      <use xlink:href="#DejaVuSans-48" x="1322.367188"/>
      <use xlink:href="#DejaVuSans-61" x="1397.5625"/>
      <use xlink:href="#DejaVuSans-6e" x="1458.841797"/>
      <use xlink:href="#DejaVuSans-64" x="1522.220703"/>
      <use xlink:href="#DejaVuSans-6c" x="1585.697266"/>
      <use xlink:href="#DejaVuSans-69" x="1613.480469"/>
      <use xlink:href="#DejaVuSans-6e" x="1641.263672"/>
      <use xlink:href="#DejaVuSans-67" x="1704.642578"/>
      <use xlink:href="#DejaVuSans-29" x="1768.119141"/>
     </g>
    </g>
   </g>
   <g id="matplotlib.axis_2">
    <g id="ytick_1">
     <g id="line2d_6">
      <defs>
       <path id="mffa1c07146" d="M 0 0 
L -3.5 0 
" style="stroke: #000000; stroke-width: 0.8"/>
      </defs>
      <g>
       <use xlink:href="#mffa1c07146" x="86.6" y="477.747621" style="stroke: #000000; stroke-width: 0.8"/>
      </g>
     </g>
     <g id="text_7">
      <!-- 0.02 -->
      <g transform="translate(35.06875 485.346059) scale(0.2 -0.2)">
       <defs>
        <path id="DejaVuSans-2e" d="M 684 794 
L 1344 794 
L 1344 0 
L 684 0 
L 684 794 
z
" transform="scale(0.015625)"/>
       </defs>
       <use xlink:href="#DejaVuSans-30"/>
       <use xlink:href="#DejaVuSans-2e" x="63.623047"/>
       <use xlink:href="#DejaVuSans-30" x="95.410156"/>
       <use xlink:href="#DejaVuSans-32" x="159.033203"/>
      </g>
     </g>
    </g>
    <g id="ytick_2">
     <g id="line2d_7">
      <g>
       <use xlink:href="#mffa1c07146" x="86.6" y="371.649431" style="stroke: #000000; stroke-width: 0.8"/>
      </g>
     </g>
     <g id="text_8">
      <!-- 0.04 -->
      <g transform="translate(35.06875 379.247869) scale(0.2 -0.2)">
       <use xlink:href="#DejaVuSans-30"/>
       <use xlink:href="#DejaVuSans-2e" x="63.623047"/>
       <use xlink:href="#DejaVuSans-30" x="95.410156"/>
       <use xlink:href="#DejaVuSans-34" x="159.033203"/>
      </g>
     </g>
    </g>
    <g id="ytick_3">
     <g id="line2d_8">
      <g>
       <use xlink:href="#mffa1c07146" x="86.6" y="265.551241" style="stroke: #000000; stroke-width: 0.8"/>
      </g>
     </g>
     <g id="text_9">
      <!-- 0.06 -->
      <g transform="translate(35.06875 273.149679) scale(0.2 -0.2)">
       <use xlink:href="#DejaVuSans-30"/>
       <use xlink:href="#DejaVuSans-2e" x="63.623047"/>
       <use xlink:href="#DejaVuSans-30" x="95.410156"/>
       <use xlink:href="#DejaVuSans-36" x="159.033203"/>
      </g>
     </g>
    </g>
    <g id="ytick_4">
     <g id="line2d_9">
      <g>
       <use xlink:href="#mffa1c07146" x="86.6" y="159.453051" style="stroke: #000000; stroke-width: 0.8"/>
      </g>
     </g>
     <g id="text_10">
      <!-- 0.08 -->
      <g transform="translate(35.06875 167.051489) scale(0.2 -0.2)">
       <use xlink:href="#DejaVuSans-30"/>
       <use xlink:href="#DejaVuSans-2e" x="63.623047"/>
       <use xlink:href="#DejaVuSans-30" x="95.410156"/>
       <use xlink:href="#DejaVuSans-38" x="159.033203"/>
      </g>
     </g>
    </g>
    <g id="ytick_5">
     <g id="line2d_10">
      <g>
       <use xlink:href="#mffa1c07146" x="86.6" y="53.354862" style="stroke: #000000; stroke-width: 0.8"/>
      </g>
     </g>
     <g id="text_11">
      <!-- 0.10 -->
      <g transform="translate(35.06875 60.953299) scale(0.2 -0.2)">
       <defs>
        <path id="DejaVuSans-31" d="M 794 531 
L 1825 531 
L 1825 4091 
L 703 3866 
L 703 4441 
L 1819 4666 
L 2450 4666 
L 2450 531 
L 3481 531 
L 3481 0 
L 794 0 
L 794 531 
z
" transform="scale(0.015625)"/>
       </defs>
       <use xlink:href="#DejaVuSans-30"/>
       <use xlink:href="#DejaVuSans-2e" x="63.623047"/>
       <use xlink:href="#DejaVuSans-31" x="95.410156"/>
       <use xlink:href="#DejaVuSans-30" x="159.033203"/>
      </g>
     </g>
    </g>
    <g id="text_12">
     <!-- MAPE -->
     <g transform="translate(26.909375 278.493188) rotate(-90) scale(0.2 -0.2)">
      <defs>
       <path id="DejaVuSans-4d" d="M 628 4666 
L 1569 4666 
L 2759 1491 
L 3956 4666 
L 4897 4666 
L 4897 0 
L 4281 0 
L 4281 4097 
L 3078 897 
L 2444 897 
L 1241 4097 
L 1241 0 
L 628 0 
L 628 4666 
z
" transform="scale(0.015625)"/>
       <path id="DejaVuSans-41" d="M 2188 4044 
L 1331 1722 
L 3047 1722 
L 2188 4044 
z
M 1831 4666 
L 2547 4666 
L 4325 0 
L 3669 0 
L 3244 1197 
L 1141 1197 
L 716 0 
L 50 0 
L 1831 4666 
z
" transform="scale(0.015625)"/>
       <path id="DejaVuSans-45" d="M 628 4666 
L 3578 4666 
L 3578 4134 
L 1259 4134 
L 1259 2753 
L 3481 2753 
L 3481 2222 
L 1259 2222 
L 1259 531 
L 3634 531 
L 3634 0 
L 628 0 
L 628 4666 
z
" transform="scale(0.015625)"/>
      </defs>
      <use xlink:href="#DejaVuSans-4d"/>
      <use xlink:href="#DejaVuSans-41" x="86.279297"/>
      <use xlink:href="#DejaVuSans-50" x="154.6875"/>
      <use xlink:href="#DejaVuSans-45" x="214.990234"/>
     </g>
    </g>
   </g>
   <g id="line2d_11">
    <path d="M 134.536364 464.862098 
L 154.934816 464.336418 
L 175.333269 456.88806 
L 195.731721 456.6297 
L 216.130174 452.473112 
L 236.528627 445.953344 
L 256.927079 438.037459 
L 277.325532 435.381734 
L 297.723985 434.778134 
L 318.122437 433.76703 
L 338.52089 429.328537 
L 358.919342 421.968521 
L 379.317795 410.237135 
L 399.716248 396.233683 
L 420.1147 391.474462 
L 440.513153 393.158561 
L 460.911605 394.950684 
L 481.310058 390.368507 
L 501.708511 385.408117 
L 522.106963 373.921371 
L 542.505416 371.349905 
L 562.903868 368.803021 
L 583.302321 358.975405 
L 603.700774 365.808356 
L 624.099226 360.933233 
L 644.497679 361.208061 
L 664.896132 356.624587 
L 685.294584 357.086396 
L 705.693037 348.350443 
L 726.091489 319.630704 
L 746.489942 300.622053 
L 766.888395 300.521237 
L 787.286847 276.274296 
L 807.6853 284.63441 
L 828.083752 286.682451 
L 848.482205 278.281836 
L 868.880658 284.388689 
L 889.27911 264.068636 
L 909.677563 245.035273 
L 930.076015 165.61937 
L 950.474468 207.061843 
L 970.872921 184.212412 
L 991.271373 219.111451 
L 1011.669826 224.554151 
L 1032.068279 209.402501 
L 1052.466731 172.585789 
L 1072.865184 175.437979 
L 1093.263636 154.404282 
" clip-path="url(#p8412099622)" style="fill: none; stroke: #1f77b4; stroke-width: 1.5; stroke-linecap: square"/>
   </g>
   <g id="line2d_12">
    <path d="M 134.536364 459.095624 
L 154.934816 458.502103 
L 175.333269 451.379165 
L 195.731721 450.412123 
L 216.130174 448.728746 
L 236.528627 437.274764 
L 256.927079 425.642281 
L 277.325532 425.66471 
L 297.723985 419.785024 
L 318.122437 419.10068 
L 338.52089 414.589373 
L 358.919342 413.240317 
L 379.317795 400.275095 
L 399.716248 389.343807 
L 420.1147 363.655631 
L 440.513153 378.037441 
L 460.911605 378.863003 
L 481.310058 362.094571 
L 501.708511 357.641488 
L 522.106963 351.836529 
L 542.505416 338.080821 
L 562.903868 341.660097 
L 583.302321 339.747417 
L 603.700774 342.004023 
L 624.099226 340.096695 
L 644.497679 335.033263 
L 664.896132 323.544039 
L 685.294584 328.313688 
L 705.693037 325.677751 
L 726.091489 292.245538 
L 746.489942 275.171012 
L 766.888395 274.491986 
L 787.286847 243.970223 
L 807.6853 253.009152 
L 828.083752 254.893293 
L 848.482205 248.791013 
L 868.880658 257.728811 
L 889.27911 228.549013 
L 909.677563 216.8099 
L 930.076015 116.420205 
L 950.474468 150.141128 
L 970.872921 129.133283 
L 991.271373 156.756245 
L 1011.669826 164.702416 
L 1032.068279 145.739654 
L 1052.466731 113.157024 
L 1072.865184 118.784147 
L 1093.263636 121.317104 
" clip-path="url(#p8412099622)" style="fill: none; stroke: #ff7f0e; stroke-width: 1.5; stroke-linecap: square"/>
   </g>
   <g id="line2d_13">
    <path d="M 134.536364 463.157921 
L 154.934816 460.90032 
L 175.333269 454.282503 
L 195.731721 453.38618 
L 216.130174 450.062571 
L 236.528627 446.408718 
L 256.927079 443.289332 
L 277.325532 436.881797 
L 297.723985 437.845593 
L 318.122437 436.491677 
L 338.52089 432.290549 
L 358.919342 420.20873 
L 379.317795 412.733563 
L 399.716248 402.584409 
L 420.1147 390.436272 
L 440.513153 396.043661 
L 460.911605 395.306457 
L 481.310058 388.754848 
L 501.708511 378.766753 
L 522.106963 376.723562 
L 542.505416 367.400849 
L 562.903868 368.105982 
L 583.302321 362.169829 
L 603.700774 367.399579 
L 624.099226 365.03298 
L 644.497679 363.44126 
L 664.896132 361.105697 
L 685.294584 357.981469 
L 705.693037 342.47366 
L 726.091489 321.770766 
L 746.489942 307.322825 
L 766.888395 305.732862 
L 787.286847 282.044108 
L 807.6853 284.57636 
L 828.083752 288.516441 
L 848.482205 275.542607 
L 868.880658 283.0675 
L 889.27911 250.85964 
L 909.677563 231.450491 
L 930.076015 146.075474 
L 950.474468 184.415963 
L 970.872921 167.569925 
L 991.271373 202.14347 
L 1011.669826 202.425598 
L 1032.068279 174.724629 
L 1052.466731 145.684731 
L 1072.865184 147.269643 
L 1093.263636 129.082455 
" clip-path="url(#p8412099622)" style="fill: none; stroke: #2ca02c; stroke-width: 1.5; stroke-linecap: square"/>
   </g>
   <g id="line2d_14"/>
   <g id="line2d_15"/>
   <g id="line2d_16"/>
   <g id="patch_3">
    <path d="M 86.6 490.552 
L 86.6 10.8 
" style="fill: none; stroke: #000000; stroke-width: 0.8; stroke-linejoin: miter; stroke-linecap: square"/>
   </g>
   <g id="patch_4">
    <path d="M 1141.2 490.552 
L 1141.2 10.8 
" style="fill: none; stroke: #000000; stroke-width: 0.8; stroke-linejoin: miter; stroke-linecap: square"/>
   </g>
   <g id="patch_5">
    <path d="M 86.6 490.552 
L 1141.2 490.552 
" style="fill: none; stroke: #000000; stroke-width: 0.8; stroke-linejoin: miter; stroke-linecap: square"/>
   </g>
   <g id="patch_6">
    <path d="M 86.6 10.8 
L 1141.2 10.8 
" style="fill: none; stroke: #000000; stroke-width: 0.8; stroke-linejoin: miter; stroke-linecap: square"/>
   </g>
   <g id="legend_1">
    <g id="patch_7">
     <path d="M 97.8 482.552 
L 178.785 482.552 
Q 181.985 482.552 181.985 479.352 
L 181.985 410.497 
Q 181.985 407.297 178.785 407.297 
L 97.8 407.297 
Q 94.6 407.297 94.6 410.497 
L 94.6 479.352 
Q 94.6 482.552 97.8 482.552 
z
" style="fill: #ffffff; opacity: 0.8; stroke: #cccccc; stroke-linejoin: miter"/>
    </g>
    <g id="line2d_17">
     <path d="M 101 420.2545 
L 117 420.2545 
L 133 420.2545 
" style="fill: none; stroke: #1f77b4; stroke-width: 1.5; stroke-linecap: square"/>
    </g>
    <g id="text_13">
     <!-- rf -->
     <g transform="translate(145.8 425.8545) scale(0.16 -0.16)">
      <defs>
       <path id="DejaVuSans-66" d="M 2375 4863 
L 2375 4384 
L 1825 4384 
Q 1516 4384 1395 4259 
Q 1275 4134 1275 3809 
L 1275 3500 
L 2222 3500 
L 2222 3053 
L 1275 3053 
L 1275 0 
L 697 0 
L 697 3053 
L 147 3053 
L 147 3500 
L 697 3500 
L 697 3744 
Q 697 4328 969 4595 
Q 1241 4863 1831 4863 
L 2375 4863 
z
" transform="scale(0.015625)"/>
      </defs>
      <use xlink:href="#DejaVuSans-72"/>
      <use xlink:href="#DejaVuSans-66" x="41.113281"/>
     </g>
    </g>
    <g id="line2d_18">
     <path d="M 101 443.7395 
L 117 443.7395 
L 133 443.7395 
" style="fill: none; stroke: #ff7f0e; stroke-width: 1.5; stroke-linecap: square"/>
    </g>
    <g id="text_14">
     <!-- xgb -->
     <g transform="translate(145.8 449.3395) scale(0.16 -0.16)">
      <defs>
       <path id="DejaVuSans-78" d="M 3513 3500 
L 2247 1797 
L 3578 0 
L 2900 0 
L 1881 1375 
L 863 0 
L 184 0 
L 1544 1831 
L 300 3500 
L 978 3500 
L 1906 2253 
L 2834 3500 
L 3513 3500 
z
" transform="scale(0.015625)"/>
       <path id="DejaVuSans-62" d="M 3116 1747 
Q 3116 2381 2855 2742 
Q 2594 3103 2138 3103 
Q 1681 3103 1420 2742 
Q 1159 2381 1159 1747 
Q 1159 1113 1420 752 
Q 1681 391 2138 391 
Q 2594 391 2855 752 
Q 3116 1113 3116 1747 
z
M 1159 2969 
Q 1341 3281 1617 3432 
Q 1894 3584 2278 3584 
Q 2916 3584 3314 3078 
Q 3713 2572 3713 1747 
Q 3713 922 3314 415 
Q 2916 -91 2278 -91 
Q 1894 -91 1617 61 
Q 1341 213 1159 525 
L 1159 0 
L 581 0 
L 581 4863 
L 1159 4863 
L 1159 2969 
z
" transform="scale(0.015625)"/>
      </defs>
      <use xlink:href="#DejaVuSans-78"/>
      <use xlink:href="#DejaVuSans-67" x="59.179688"/>
      <use xlink:href="#DejaVuSans-62" x="122.65625"/>
     </g>
    </g>
    <g id="line2d_19">
     <path d="M 101 467.2245 
L 117 467.2245 
L 133 467.2245 
" style="fill: none; stroke: #2ca02c; stroke-width: 1.5; stroke-linecap: square"/>
    </g>
    <g id="text_15">
     <!-- gbr -->
     <g transform="translate(145.8 472.8245) scale(0.16 -0.16)">
      <use xlink:href="#DejaVuSans-67"/>
      <use xlink:href="#DejaVuSans-62" x="63.476562"/>
      <use xlink:href="#DejaVuSans-72" x="126.953125"/>
     </g>
    </g>
   </g>
  </g>
 </g>
 <defs>
  <clipPath id="p8412099622">
   <rect x="86.6" y="10.8" width="1054.6" height="479.752"/>
  </clipPath>
 </defs>
</svg>
