<?xml version="1.0" encoding="utf-8" standalone="no"?>
<!DOCTYPE svg PUBLIC "-//W3C//DTD SVG 1.1//EN"
  "http://www.w3.org/Graphics/SVG/1.1/DTD/svg11.dtd">
<svg xmlns:xlink="http://www.w3.org/1999/xlink" width="1152pt" height="576pt" viewBox="0 0 1152 576" xmlns="http://www.w3.org/2000/svg" version="1.1">
 <metadata>
  <rdf:RDF xmlns:dc="http://purl.org/dc/elements/1.1/" xmlns:cc="http://creativecommons.org/ns#" xmlns:rdf="http://www.w3.org/1999/02/22-rdf-syntax-ns#">
   <cc:Work>
    <dc:type rdf:resource="http://purl.org/dc/dcmitype/StillImage"/>
    <dc:date>2025-03-23T22:21:55.808895</dc:date>
    <dc:format>image/svg+xml</dc:format>
    <dc:creator>
     <cc:Agent>
      <dc:title>Matplotlib v3.9.2, https://matplotlib.org/</dc:title>
     </cc:Agent>
    </dc:creator>
   </cc:Work>
  </rdf:RDF>
 </metadata>
 <defs>
  <style type="text/css">*{stroke-linejoin: round; stroke-linecap: butt}</style>
 </defs>
 <g id="figure_1">
  <g id="patch_1">
   <path d="M 0 576 
L 1152 576 
L 1152 0 
L 0 0 
z
" style="fill: #ffffff"/>
  </g>
  <g id="axes_1">
   <g id="patch_2">
    <path d="M 99.38 489.832 
L 1141.2 489.832 
L 1141.2 10.8 
L 99.38 10.8 
z
" style="fill: #ffffff"/>
   </g>
   <g id="PolyCollection_1">
    <defs>
     <path id="m3b73d0f989" d="M 146.735455 -358.793026 
L 146.735455 -241.694226 
L 166.886712 -179.278461 
L 187.037969 -221.639941 
L 207.189226 -196.610273 
L 227.340484 -211.305451 
L 247.491741 -251.326183 
L 267.642998 -250.404966 
L 287.794255 -185.362164 
L 307.945513 -254.753598 
L 328.09677 -214.756938 
L 348.248027 -210.149221 
L 368.399284 -204.224908 
L 388.550542 -203.030318 
L 408.701799 -261.91512 
L 428.853056 -219.067476 
L 449.004313 -190.901965 
L 469.155571 -233.848781 
L 489.306828 -203.426899 
L 509.458085 -208.741975 
L 529.609342 -240.042063 
L 549.7606 -241.318242 
L 569.911857 -218.011504 
L 590.063114 -185.635411 
L 610.214371 -131.314678 
L 630.365629 -173.125474 
L 650.516886 -164.129371 
L 670.668143 -209.974724 
L 690.8194 -184.219142 
L 710.970658 -176.824788 
L 731.121915 -175.902907 
L 751.273172 -197.125536 
L 771.424429 -206.781611 
L 791.575687 -230.699995 
L 811.726944 -199.746346 
L 831.878201 -205.552192 
L 852.029458 -218.564291 
L 872.180716 -195.232284 
L 892.331973 -207.058315 
L 912.48323 -199.385168 
L 932.634487 -246.72382 
L 952.785745 -256.560122 
L 972.937002 -278.86009 
L 993.088259 -258.804928 
L 1013.239516 -245.293448 
L 1033.390774 -237.527466 
L 1053.542031 -238.407223 
L 1073.693288 -235.051518 
L 1093.844545 -232.131984 
L 1093.844545 -308.643523 
L 1093.844545 -308.643523 
L 1073.693288 -366.434312 
L 1053.542031 -364.983728 
L 1033.390774 -336.134453 
L 1013.239516 -335.727299 
L 993.088259 -342.418379 
L 972.937002 -344.474487 
L 952.785745 -345.408259 
L 932.634487 -341.694069 
L 912.48323 -314.502072 
L 892.331973 -252.476603 
L 872.180716 -285.992632 
L 852.029458 -281.911021 
L 831.878201 -272.507309 
L 811.726944 -260.649147 
L 791.575687 -273.732314 
L 771.424429 -278.771643 
L 751.273172 -274.854635 
L 731.121915 -257.565516 
L 710.970658 -231.742109 
L 690.8194 -295.86008 
L 670.668143 -286.566506 
L 650.516886 -306.7985 
L 630.365629 -321.490321 
L 610.214371 -301.6322 
L 590.063114 -278.005673 
L 569.911857 -258.589756 
L 549.7606 -278.071921 
L 529.609342 -271.213837 
L 509.458085 -270.240427 
L 489.306828 -290.815234 
L 469.155571 -328.492688 
L 449.004313 -262.605749 
L 428.853056 -312.064103 
L 408.701799 -314.692964 
L 388.550542 -292.651905 
L 368.399284 -285.171118 
L 348.248027 -330.684369 
L 328.09677 -319.820828 
L 307.945513 -362.587211 
L 287.794255 -328.461813 
L 267.642998 -355.872846 
L 247.491741 -322.987981 
L 227.340484 -306.018177 
L 207.189226 -300.152717 
L 187.037969 -291.116743 
L 166.886712 -318.242009 
L 146.735455 -358.793026 
z
" style="stroke: #1f77b4; stroke-opacity: 0.2"/>
    </defs>
    <g clip-path="url(#p366e77cd09)">
     <use xlink:href="#m3b73d0f989" x="0" y="576" style="fill: #1f77b4; fill-opacity: 0.2; stroke: #1f77b4; stroke-opacity: 0.2"/>
    </g>
   </g>
   <g id="PolyCollection_2">
    <defs>
     <path id="m1758136fce" d="M 146.735455 -436.258144 
L 146.735455 -276.283515 
L 166.886712 -263.527309 
L 187.037969 -313.88504 
L 207.189226 -264.842278 
L 227.340484 -248.888772 
L 247.491741 -301.759101 
L 267.642998 -307.598479 
L 287.794255 -242.247632 
L 307.945513 -289.03251 
L 328.09677 -293.302743 
L 348.248027 -260.858959 
L 368.399284 -256.250934 
L 388.550542 -276.725734 
L 408.701799 -300.182598 
L 428.853056 -239.499466 
L 449.004313 -266.624092 
L 469.155571 -214.903981 
L 489.306828 -241.596038 
L 509.458085 -265.133956 
L 529.609342 -243.350533 
L 549.7606 -293.186346 
L 569.911857 -249.598362 
L 590.063114 -264.309868 
L 610.214371 -210.975986 
L 630.365629 -203.399911 
L 650.516886 -253.476455 
L 670.668143 -247.380516 
L 690.8194 -276.919331 
L 710.970658 -196.24193 
L 731.121915 -178.763206 
L 751.273172 -205.043285 
L 771.424429 -250.668788 
L 791.575687 -240.604342 
L 811.726944 -259.710962 
L 831.878201 -237.289519 
L 852.029458 -295.31754 
L 872.180716 -272.532308 
L 892.331973 -257.005893 
L 912.48323 -255.241312 
L 932.634487 -302.645299 
L 952.785745 -299.502745 
L 972.937002 -327.529568 
L 993.088259 -342.739649 
L 1013.239516 -317.296045 
L 1033.390774 -317.074194 
L 1053.542031 -305.264862 
L 1073.693288 -313.079814 
L 1093.844545 -285.030714 
L 1093.844545 -375.769253 
L 1093.844545 -375.769253 
L 1073.693288 -391.121288 
L 1053.542031 -389.247538 
L 1033.390774 -391.285309 
L 1013.239516 -401.488304 
L 993.088259 -403.717238 
L 972.937002 -402.239307 
L 952.785745 -391.29911 
L 932.634487 -391.265571 
L 912.48323 -414.560553 
L 892.331973 -327.81756 
L 872.180716 -340.951893 
L 852.029458 -361.668773 
L 831.878201 -334.23215 
L 811.726944 -318.3722 
L 791.575687 -294.450097 
L 771.424429 -303.971047 
L 751.273172 -318.433172 
L 731.121915 -334.421787 
L 710.970658 -261.145779 
L 690.8194 -358.209041 
L 670.668143 -324.233666 
L 650.516886 -325.306496 
L 630.365629 -290.935702 
L 610.214371 -312.264201 
L 590.063114 -319.139443 
L 569.911857 -328.49372 
L 549.7606 -418.068751 
L 529.609342 -333.778282 
L 509.458085 -331.133618 
L 489.306828 -381.859338 
L 469.155571 -315.254108 
L 449.004313 -321.853565 
L 428.853056 -398.138554 
L 408.701799 -397.997853 
L 388.550542 -333.724756 
L 368.399284 -343.195516 
L 348.248027 -323.605089 
L 328.09677 -350.013141 
L 307.945513 -433.917129 
L 287.794255 -415.231264 
L 267.642998 -357.042972 
L 247.491741 -375.752255 
L 227.340484 -376.7814 
L 207.189226 -427.853858 
L 187.037969 -396.263438 
L 166.886712 -397.71508 
L 146.735455 -436.258144 
z
" style="stroke: #ff7f0e; stroke-opacity: 0.2"/>
    </defs>
    <g clip-path="url(#p366e77cd09)">
     <use xlink:href="#m1758136fce" x="0" y="576" style="fill: #ff7f0e; fill-opacity: 0.2; stroke: #ff7f0e; stroke-opacity: 0.2"/>
    </g>
   </g>
   <g id="PolyCollection_3">
    <defs>
     <path id="mbc0b817c6e" d="M 146.735455 -519.664379 
L 146.735455 -362.934129 
L 166.886712 -272.819838 
L 187.037969 -336.847639 
L 207.189226 -348.828662 
L 227.340484 -305.413869 
L 247.491741 -258.565574 
L 267.642998 -232.896793 
L 287.794255 -242.01966 
L 307.945513 -362.638914 
L 328.09677 -313.332653 
L 348.248027 -234.916642 
L 368.399284 -227.009288 
L 388.550542 -285.808873 
L 408.701799 -360.064667 
L 428.853056 -296.170204 
L 449.004313 -300.790281 
L 469.155571 -306.399751 
L 489.306828 -279.422782 
L 509.458085 -368.743837 
L 529.609342 -330.72668 
L 549.7606 -356.915518 
L 569.911857 -353.831315 
L 590.063114 -314.559876 
L 610.214371 -287.886288 
L 630.365629 -276.936158 
L 650.516886 -339.306457 
L 670.668143 -254.245621 
L 690.8194 -323.155967 
L 710.970658 -283.176199 
L 731.121915 -165.00944 
L 751.273172 -149.282892 
L 771.424429 -133.238277 
L 791.575687 -107.942182 
L 811.726944 -257.224396 
L 831.878201 -253.078114 
L 852.029458 -273.931607 
L 872.180716 -188.029282 
L 892.331973 -304.367598 
L 912.48323 -344.516184 
L 932.634487 -326.686761 
L 952.785745 -331.67028 
L 972.937002 -340.935354 
L 993.088259 -394.766004 
L 1013.239516 -388.780246 
L 1033.390774 -373.290787 
L 1053.542031 -341.942879 
L 1073.693288 -344.971964 
L 1093.844545 -330.414945 
L 1093.844545 -444.223751 
L 1093.844545 -444.223751 
L 1073.693288 -477.632657 
L 1053.542031 -482.369294 
L 1033.390774 -463.715393 
L 1013.239516 -476.257117 
L 993.088259 -480.393363 
L 972.937002 -461.425851 
L 952.785745 -432.513205 
L 932.634487 -422.294838 
L 912.48323 -464.040749 
L 892.331973 -382.78373 
L 872.180716 -329.176486 
L 852.029458 -373.495027 
L 831.878201 -444.582163 
L 811.726944 -361.668366 
L 791.575687 -366.018197 
L 771.424429 -429.672064 
L 751.273172 -390.303463 
L 731.121915 -389.93643 
L 710.970658 -328.085889 
L 690.8194 -410.629979 
L 670.668143 -393.293787 
L 650.516886 -419.219377 
L 630.365629 -376.555349 
L 610.214371 -394.803697 
L 590.063114 -473.72922 
L 569.911857 -518.814906 
L 549.7606 -455.141006 
L 529.609342 -412.585774 
L 509.458085 -500.276724 
L 489.306828 -415.643467 
L 469.155571 -414.963542 
L 449.004313 -405.998229 
L 428.853056 -471.742188 
L 408.701799 -525.538677 
L 388.550542 -429.019486 
L 368.399284 -399.880185 
L 348.248027 -398.713183 
L 328.09677 -448.188949 
L 307.945513 -471.44845 
L 287.794255 -480.492283 
L 267.642998 -412.287991 
L 247.491741 -437.513304 
L 227.340484 -487.330621 
L 207.189226 -446.851363 
L 187.037969 -543.425818 
L 166.886712 -491.036298 
L 146.735455 -519.664379 
z
" style="stroke: #2ca02c; stroke-opacity: 0.2"/>
    </defs>
    <g clip-path="url(#p366e77cd09)">
     <use xlink:href="#mbc0b817c6e" x="0" y="576" style="fill: #2ca02c; fill-opacity: 0.2; stroke: #2ca02c; stroke-opacity: 0.2"/>
    </g>
   </g>
   <g id="matplotlib.axis_1">
    <g id="xtick_1">
     <g id="line2d_1">
      <defs>
       <path id="m7682d73283" d="M 0 0 
L 0 3.5 
" style="stroke: #000000; stroke-width: 0.8"/>
      </defs>
      <g>
       <use xlink:href="#m7682d73283" x="136.659826" y="489.832" style="stroke: #000000; stroke-width: 0.8"/>
      </g>
     </g>
     <g id="text_1">
      <!-- 0 -->
      <g transform="translate(130.297326 512.028875) scale(0.2 -0.2)">
       <defs>
        <path id="DejaVuSans-30" d="M 2034 4250 
Q 1547 4250 1301 3770 
Q 1056 3291 1056 2328 
Q 1056 1369 1301 889 
Q 1547 409 2034 409 
Q 2525 409 2770 889 
Q 3016 1369 3016 2328 
Q 3016 3291 2770 3770 
Q 2525 4250 2034 4250 
z
M 2034 4750 
Q 2819 4750 3233 4129 
Q 3647 3509 3647 2328 
Q 3647 1150 3233 529 
Q 2819 -91 2034 -91 
Q 1250 -91 836 529 
Q 422 1150 422 2328 
Q 422 3509 836 4129 
Q 1250 4750 2034 4750 
z
" transform="scale(0.015625)"/>
       </defs>
       <use xlink:href="#DejaVuSans-30"/>
      </g>
     </g>
    </g>
    <g id="xtick_2">
     <g id="line2d_2">
      <g>
       <use xlink:href="#m7682d73283" x="338.172398" y="489.832" style="stroke: #000000; stroke-width: 0.8"/>
      </g>
     </g>
     <g id="text_2">
      <!-- 20 -->
      <g transform="translate(325.447398 512.028875) scale(0.2 -0.2)">
       <defs>
        <path id="DejaVuSans-32" d="M 1228 531 
L 3431 531 
L 3431 0 
L 469 0 
L 469 531 
Q 828 903 1448 1529 
Q 2069 2156 2228 2338 
Q 2531 2678 2651 2914 
Q 2772 3150 2772 3378 
Q 2772 3750 2511 3984 
Q 2250 4219 1831 4219 
Q 1534 4219 1204 4116 
Q 875 4013 500 3803 
L 500 4441 
Q 881 4594 1212 4672 
Q 1544 4750 1819 4750 
Q 2544 4750 2975 4387 
Q 3406 4025 3406 3419 
Q 3406 3131 3298 2873 
Q 3191 2616 2906 2266 
Q 2828 2175 2409 1742 
Q 1991 1309 1228 531 
z
" transform="scale(0.015625)"/>
       </defs>
       <use xlink:href="#DejaVuSans-32"/>
       <use xlink:href="#DejaVuSans-30" x="63.623047"/>
      </g>
     </g>
    </g>
    <g id="xtick_3">
     <g id="line2d_3">
      <g>
       <use xlink:href="#m7682d73283" x="539.684971" y="489.832" style="stroke: #000000; stroke-width: 0.8"/>
      </g>
     </g>
     <g id="text_3">
      <!-- 40 -->
      <g transform="translate(526.959971 512.028875) scale(0.2 -0.2)">
       <defs>
        <path id="DejaVuSans-34" d="M 2419 4116 
L 825 1625 
L 2419 1625 
L 2419 4116 
z
M 2253 4666 
L 3047 4666 
L 3047 1625 
L 3713 1625 
L 3713 1100 
L 3047 1100 
L 3047 0 
L 2419 0 
L 2419 1100 
L 313 1100 
L 313 1709 
L 2253 4666 
z
" transform="scale(0.015625)"/>
       </defs>
       <use xlink:href="#DejaVuSans-34"/>
       <use xlink:href="#DejaVuSans-30" x="63.623047"/>
      </g>
     </g>
    </g>
    <g id="xtick_4">
     <g id="line2d_4">
      <g>
       <use xlink:href="#m7682d73283" x="741.197544" y="489.832" style="stroke: #000000; stroke-width: 0.8"/>
      </g>
     </g>
     <g id="text_4">
      <!-- 60 -->
      <g transform="translate(728.472544 512.028875) scale(0.2 -0.2)">
       <defs>
        <path id="DejaVuSans-36" d="M 2113 2584 
Q 1688 2584 1439 2293 
Q 1191 2003 1191 1497 
Q 1191 994 1439 701 
Q 1688 409 2113 409 
Q 2538 409 2786 701 
Q 3034 994 3034 1497 
Q 3034 2003 2786 2293 
Q 2538 2584 2113 2584 
z
M 3366 4563 
L 3366 3988 
Q 3128 4100 2886 4159 
Q 2644 4219 2406 4219 
Q 1781 4219 1451 3797 
Q 1122 3375 1075 2522 
Q 1259 2794 1537 2939 
Q 1816 3084 2150 3084 
Q 2853 3084 3261 2657 
Q 3669 2231 3669 1497 
Q 3669 778 3244 343 
Q 2819 -91 2113 -91 
Q 1303 -91 875 529 
Q 447 1150 447 2328 
Q 447 3434 972 4092 
Q 1497 4750 2381 4750 
Q 2619 4750 2861 4703 
Q 3103 4656 3366 4563 
z
" transform="scale(0.015625)"/>
       </defs>
       <use xlink:href="#DejaVuSans-36"/>
       <use xlink:href="#DejaVuSans-30" x="63.623047"/>
      </g>
     </g>
    </g>
    <g id="xtick_5">
     <g id="line2d_5">
      <g>
       <use xlink:href="#m7682d73283" x="942.710116" y="489.832" style="stroke: #000000; stroke-width: 0.8"/>
      </g>
     </g>
     <g id="text_5">
      <!-- 80 -->
      <g transform="translate(929.985116 512.028875) scale(0.2 -0.2)">
       <defs>
        <path id="DejaVuSans-38" d="M 2034 2216 
Q 1584 2216 1326 1975 
Q 1069 1734 1069 1313 
Q 1069 891 1326 650 
Q 1584 409 2034 409 
Q 2484 409 2743 651 
Q 3003 894 3003 1313 
Q 3003 1734 2745 1975 
Q 2488 2216 2034 2216 
z
M 1403 2484 
Q 997 2584 770 2862 
Q 544 3141 544 3541 
Q 544 4100 942 4425 
Q 1341 4750 2034 4750 
Q 2731 4750 3128 4425 
Q 3525 4100 3525 3541 
Q 3525 3141 3298 2862 
Q 3072 2584 2669 2484 
Q 3125 2378 3379 2068 
Q 3634 1759 3634 1313 
Q 3634 634 3220 271 
Q 2806 -91 2034 -91 
Q 1263 -91 848 271 
Q 434 634 434 1313 
Q 434 1759 690 2068 
Q 947 2378 1403 2484 
z
M 1172 3481 
Q 1172 3119 1398 2916 
Q 1625 2713 2034 2713 
Q 2441 2713 2670 2916 
Q 2900 3119 2900 3481 
Q 2900 3844 2670 4047 
Q 2441 4250 2034 4250 
Q 1625 4250 1398 4047 
Q 1172 3844 1172 3481 
z
" transform="scale(0.015625)"/>
       </defs>
       <use xlink:href="#DejaVuSans-38"/>
       <use xlink:href="#DejaVuSans-30" x="63.623047"/>
      </g>
     </g>
    </g>
    <g id="text_6">
     <!-- Percentile Threshold -->
     <g transform="translate(518.510313 535.385125) scale(0.2 -0.2)">
      <defs>
       <path id="DejaVuSans-50" d="M 1259 4147 
L 1259 2394 
L 2053 2394 
Q 2494 2394 2734 2622 
Q 2975 2850 2975 3272 
Q 2975 3691 2734 3919 
Q 2494 4147 2053 4147 
L 1259 4147 
z
M 628 4666 
L 2053 4666 
Q 2838 4666 3239 4311 
Q 3641 3956 3641 3272 
Q 3641 2581 3239 2228 
Q 2838 1875 2053 1875 
L 1259 1875 
L 1259 0 
L 628 0 
L 628 4666 
z
" transform="scale(0.015625)"/>
       <path id="DejaVuSans-65" d="M 3597 1894 
L 3597 1613 
L 953 1613 
Q 991 1019 1311 708 
Q 1631 397 2203 397 
Q 2534 397 2845 478 
Q 3156 559 3463 722 
L 3463 178 
Q 3153 47 2828 -22 
Q 2503 -91 2169 -91 
Q 1331 -91 842 396 
Q 353 884 353 1716 
Q 353 2575 817 3079 
Q 1281 3584 2069 3584 
Q 2775 3584 3186 3129 
Q 3597 2675 3597 1894 
z
M 3022 2063 
Q 3016 2534 2758 2815 
Q 2500 3097 2075 3097 
Q 1594 3097 1305 2825 
Q 1016 2553 972 2059 
L 3022 2063 
z
" transform="scale(0.015625)"/>
       <path id="DejaVuSans-72" d="M 2631 2963 
Q 2534 3019 2420 3045 
Q 2306 3072 2169 3072 
Q 1681 3072 1420 2755 
Q 1159 2438 1159 1844 
L 1159 0 
L 581 0 
L 581 3500 
L 1159 3500 
L 1159 2956 
Q 1341 3275 1631 3429 
Q 1922 3584 2338 3584 
Q 2397 3584 2469 3576 
Q 2541 3569 2628 3553 
L 2631 2963 
z
" transform="scale(0.015625)"/>
       <path id="DejaVuSans-63" d="M 3122 3366 
L 3122 2828 
Q 2878 2963 2633 3030 
Q 2388 3097 2138 3097 
Q 1578 3097 1268 2742 
Q 959 2388 959 1747 
Q 959 1106 1268 751 
Q 1578 397 2138 397 
Q 2388 397 2633 464 
Q 2878 531 3122 666 
L 3122 134 
Q 2881 22 2623 -34 
Q 2366 -91 2075 -91 
Q 1284 -91 818 406 
Q 353 903 353 1747 
Q 353 2603 823 3093 
Q 1294 3584 2113 3584 
Q 2378 3584 2631 3529 
Q 2884 3475 3122 3366 
z
" transform="scale(0.015625)"/>
       <path id="DejaVuSans-6e" d="M 3513 2113 
L 3513 0 
L 2938 0 
L 2938 2094 
Q 2938 2591 2744 2837 
Q 2550 3084 2163 3084 
Q 1697 3084 1428 2787 
Q 1159 2491 1159 1978 
L 1159 0 
L 581 0 
L 581 3500 
L 1159 3500 
L 1159 2956 
Q 1366 3272 1645 3428 
Q 1925 3584 2291 3584 
Q 2894 3584 3203 3211 
Q 3513 2838 3513 2113 
z
" transform="scale(0.015625)"/>
       <path id="DejaVuSans-74" d="M 1172 4494 
L 1172 3500 
L 2356 3500 
L 2356 3053 
L 1172 3053 
L 1172 1153 
Q 1172 725 1289 603 
Q 1406 481 1766 481 
L 2356 481 
L 2356 0 
L 1766 0 
Q 1100 0 847 248 
Q 594 497 594 1153 
L 594 3053 
L 172 3053 
L 172 3500 
L 594 3500 
L 594 4494 
L 1172 4494 
z
" transform="scale(0.015625)"/>
       <path id="DejaVuSans-69" d="M 603 3500 
L 1178 3500 
L 1178 0 
L 603 0 
L 603 3500 
z
M 603 4863 
L 1178 4863 
L 1178 4134 
L 603 4134 
L 603 4863 
z
" transform="scale(0.015625)"/>
       <path id="DejaVuSans-6c" d="M 603 4863 
L 1178 4863 
L 1178 0 
L 603 0 
L 603 4863 
z
" transform="scale(0.015625)"/>
       <path id="DejaVuSans-20" transform="scale(0.015625)"/>
       <path id="DejaVuSans-54" d="M -19 4666 
L 3928 4666 
L 3928 4134 
L 2272 4134 
L 2272 0 
L 1638 0 
L 1638 4134 
L -19 4134 
L -19 4666 
z
" transform="scale(0.015625)"/>
       <path id="DejaVuSans-68" d="M 3513 2113 
L 3513 0 
L 2938 0 
L 2938 2094 
Q 2938 2591 2744 2837 
Q 2550 3084 2163 3084 
Q 1697 3084 1428 2787 
Q 1159 2491 1159 1978 
L 1159 0 
L 581 0 
L 581 4863 
L 1159 4863 
L 1159 2956 
Q 1366 3272 1645 3428 
Q 1925 3584 2291 3584 
Q 2894 3584 3203 3211 
Q 3513 2838 3513 2113 
z
" transform="scale(0.015625)"/>
       <path id="DejaVuSans-73" d="M 2834 3397 
L 2834 2853 
Q 2591 2978 2328 3040 
Q 2066 3103 1784 3103 
Q 1356 3103 1142 2972 
Q 928 2841 928 2578 
Q 928 2378 1081 2264 
Q 1234 2150 1697 2047 
L 1894 2003 
Q 2506 1872 2764 1633 
Q 3022 1394 3022 966 
Q 3022 478 2636 193 
Q 2250 -91 1575 -91 
Q 1294 -91 989 -36 
Q 684 19 347 128 
L 347 722 
Q 666 556 975 473 
Q 1284 391 1588 391 
Q 1994 391 2212 530 
Q 2431 669 2431 922 
Q 2431 1156 2273 1281 
Q 2116 1406 1581 1522 
L 1381 1569 
Q 847 1681 609 1914 
Q 372 2147 372 2553 
Q 372 3047 722 3315 
Q 1072 3584 1716 3584 
Q 2034 3584 2315 3537 
Q 2597 3491 2834 3397 
z
" transform="scale(0.015625)"/>
       <path id="DejaVuSans-6f" d="M 1959 3097 
Q 1497 3097 1228 2736 
Q 959 2375 959 1747 
Q 959 1119 1226 758 
Q 1494 397 1959 397 
Q 2419 397 2687 759 
Q 2956 1122 2956 1747 
Q 2956 2369 2687 2733 
Q 2419 3097 1959 3097 
z
M 1959 3584 
Q 2709 3584 3137 3096 
Q 3566 2609 3566 1747 
Q 3566 888 3137 398 
Q 2709 -91 1959 -91 
Q 1206 -91 779 398 
Q 353 888 353 1747 
Q 353 2609 779 3096 
Q 1206 3584 1959 3584 
z
" transform="scale(0.015625)"/>
       <path id="DejaVuSans-64" d="M 2906 2969 
L 2906 4863 
L 3481 4863 
L 3481 0 
L 2906 0 
L 2906 525 
Q 2725 213 2448 61 
Q 2172 -91 1784 -91 
Q 1150 -91 751 415 
Q 353 922 353 1747 
Q 353 2572 751 3078 
Q 1150 3584 1784 3584 
Q 2172 3584 2448 3432 
Q 2725 3281 2906 2969 
z
M 947 1747 
Q 947 1113 1208 752 
Q 1469 391 1925 391 
Q 2381 391 2643 752 
Q 2906 1113 2906 1747 
Q 2906 2381 2643 2742 
Q 2381 3103 1925 3103 
Q 1469 3103 1208 2742 
Q 947 2381 947 1747 
z
" transform="scale(0.015625)"/>
      </defs>
      <use xlink:href="#DejaVuSans-50"/>
      <use xlink:href="#DejaVuSans-65" x="56.677734"/>
      <use xlink:href="#DejaVuSans-72" x="118.201172"/>
      <use xlink:href="#DejaVuSans-63" x="157.064453"/>
      <use xlink:href="#DejaVuSans-65" x="212.044922"/>
      <use xlink:href="#DejaVuSans-6e" x="273.568359"/>
      <use xlink:href="#DejaVuSans-74" x="336.947266"/>
      <use xlink:href="#DejaVuSans-69" x="376.15625"/>
      <use xlink:href="#DejaVuSans-6c" x="403.939453"/>
      <use xlink:href="#DejaVuSans-65" x="431.722656"/>
      <use xlink:href="#DejaVuSans-20" x="493.246094"/>
      <use xlink:href="#DejaVuSans-54" x="525.033203"/>
      <use xlink:href="#DejaVuSans-68" x="586.117188"/>
      <use xlink:href="#DejaVuSans-72" x="649.496094"/>
      <use xlink:href="#DejaVuSans-65" x="688.359375"/>
      <use xlink:href="#DejaVuSans-73" x="749.882812"/>
      <use xlink:href="#DejaVuSans-68" x="801.982422"/>
      <use xlink:href="#DejaVuSans-6f" x="865.361328"/>
      <use xlink:href="#DejaVuSans-6c" x="926.542969"/>
      <use xlink:href="#DejaVuSans-64" x="954.326172"/>
     </g>
     <!-- (Using "max_mean" Threshold Handling) -->
     <g transform="translate(416.760313 557.78075) scale(0.2 -0.2)">
      <defs>
       <path id="DejaVuSans-28" d="M 1984 4856 
Q 1566 4138 1362 3434 
Q 1159 2731 1159 2009 
Q 1159 1288 1364 580 
Q 1569 -128 1984 -844 
L 1484 -844 
Q 1016 -109 783 600 
Q 550 1309 550 2009 
Q 550 2706 781 3412 
Q 1013 4119 1484 4856 
L 1984 4856 
z
" transform="scale(0.015625)"/>
       <path id="DejaVuSans-55" d="M 556 4666 
L 1191 4666 
L 1191 1831 
Q 1191 1081 1462 751 
Q 1734 422 2344 422 
Q 2950 422 3222 751 
Q 3494 1081 3494 1831 
L 3494 4666 
L 4128 4666 
L 4128 1753 
Q 4128 841 3676 375 
Q 3225 -91 2344 -91 
Q 1459 -91 1007 375 
Q 556 841 556 1753 
L 556 4666 
z
" transform="scale(0.015625)"/>
       <path id="DejaVuSans-67" d="M 2906 1791 
Q 2906 2416 2648 2759 
Q 2391 3103 1925 3103 
Q 1463 3103 1205 2759 
Q 947 2416 947 1791 
Q 947 1169 1205 825 
Q 1463 481 1925 481 
Q 2391 481 2648 825 
Q 2906 1169 2906 1791 
z
M 3481 434 
Q 3481 -459 3084 -895 
Q 2688 -1331 1869 -1331 
Q 1566 -1331 1297 -1286 
Q 1028 -1241 775 -1147 
L 775 -588 
Q 1028 -725 1275 -790 
Q 1522 -856 1778 -856 
Q 2344 -856 2625 -561 
Q 2906 -266 2906 331 
L 2906 616 
Q 2728 306 2450 153 
Q 2172 0 1784 0 
Q 1141 0 747 490 
Q 353 981 353 1791 
Q 353 2603 747 3093 
Q 1141 3584 1784 3584 
Q 2172 3584 2450 3431 
Q 2728 3278 2906 2969 
L 2906 3500 
L 3481 3500 
L 3481 434 
z
" transform="scale(0.015625)"/>
       <path id="DejaVuSans-22" d="M 1147 4666 
L 1147 2931 
L 616 2931 
L 616 4666 
L 1147 4666 
z
M 2328 4666 
L 2328 2931 
L 1797 2931 
L 1797 4666 
L 2328 4666 
z
" transform="scale(0.015625)"/>
       <path id="DejaVuSans-6d" d="M 3328 2828 
Q 3544 3216 3844 3400 
Q 4144 3584 4550 3584 
Q 5097 3584 5394 3201 
Q 5691 2819 5691 2113 
L 5691 0 
L 5113 0 
L 5113 2094 
Q 5113 2597 4934 2840 
Q 4756 3084 4391 3084 
Q 3944 3084 3684 2787 
Q 3425 2491 3425 1978 
L 3425 0 
L 2847 0 
L 2847 2094 
Q 2847 2600 2669 2842 
Q 2491 3084 2119 3084 
Q 1678 3084 1418 2786 
Q 1159 2488 1159 1978 
L 1159 0 
L 581 0 
L 581 3500 
L 1159 3500 
L 1159 2956 
Q 1356 3278 1631 3431 
Q 1906 3584 2284 3584 
Q 2666 3584 2933 3390 
Q 3200 3197 3328 2828 
z
" transform="scale(0.015625)"/>
       <path id="DejaVuSans-61" d="M 2194 1759 
Q 1497 1759 1228 1600 
Q 959 1441 959 1056 
Q 959 750 1161 570 
Q 1363 391 1709 391 
Q 2188 391 2477 730 
Q 2766 1069 2766 1631 
L 2766 1759 
L 2194 1759 
z
M 3341 1997 
L 3341 0 
L 2766 0 
L 2766 531 
Q 2569 213 2275 61 
Q 1981 -91 1556 -91 
Q 1019 -91 701 211 
Q 384 513 384 1019 
Q 384 1609 779 1909 
Q 1175 2209 1959 2209 
L 2766 2209 
L 2766 2266 
Q 2766 2663 2505 2880 
Q 2244 3097 1772 3097 
Q 1472 3097 1187 3025 
Q 903 2953 641 2809 
L 641 3341 
Q 956 3463 1253 3523 
Q 1550 3584 1831 3584 
Q 2591 3584 2966 3190 
Q 3341 2797 3341 1997 
z
" transform="scale(0.015625)"/>
       <path id="DejaVuSans-78" d="M 3513 3500 
L 2247 1797 
L 3578 0 
L 2900 0 
L 1881 1375 
L 863 0 
L 184 0 
L 1544 1831 
L 300 3500 
L 978 3500 
L 1906 2253 
L 2834 3500 
L 3513 3500 
z
" transform="scale(0.015625)"/>
       <path id="DejaVuSans-5f" d="M 3263 -1063 
L 3263 -1509 
L -63 -1509 
L -63 -1063 
L 3263 -1063 
z
" transform="scale(0.015625)"/>
       <path id="DejaVuSans-48" d="M 628 4666 
L 1259 4666 
L 1259 2753 
L 3553 2753 
L 3553 4666 
L 4184 4666 
L 4184 0 
L 3553 0 
L 3553 2222 
L 1259 2222 
L 1259 0 
L 628 0 
L 628 4666 
z
" transform="scale(0.015625)"/>
       <path id="DejaVuSans-29" d="M 513 4856 
L 1013 4856 
Q 1481 4119 1714 3412 
Q 1947 2706 1947 2009 
Q 1947 1309 1714 600 
Q 1481 -109 1013 -844 
L 513 -844 
Q 928 -128 1133 580 
Q 1338 1288 1338 2009 
Q 1338 2731 1133 3434 
Q 928 4138 513 4856 
z
" transform="scale(0.015625)"/>
      </defs>
      <use xlink:href="#DejaVuSans-28"/>
      <use xlink:href="#DejaVuSans-55" x="39.013672"/>
      <use xlink:href="#DejaVuSans-73" x="112.207031"/>
      <use xlink:href="#DejaVuSans-69" x="164.306641"/>
      <use xlink:href="#DejaVuSans-6e" x="192.089844"/>
      <use xlink:href="#DejaVuSans-67" x="255.46875"/>
      <use xlink:href="#DejaVuSans-20" x="318.945312"/>
      <use xlink:href="#DejaVuSans-22" x="350.732422"/>
      <use xlink:href="#DejaVuSans-6d" x="396.728516"/>
      <use xlink:href="#DejaVuSans-61" x="494.140625"/>
      <use xlink:href="#DejaVuSans-78" x="555.419922"/>
      <use xlink:href="#DejaVuSans-5f" x="614.599609"/>
      <use xlink:href="#DejaVuSans-6d" x="664.599609"/>
      <use xlink:href="#DejaVuSans-65" x="762.011719"/>
      <use xlink:href="#DejaVuSans-61" x="823.535156"/>
      <use xlink:href="#DejaVuSans-6e" x="884.814453"/>
      <use xlink:href="#DejaVuSans-22" x="948.193359"/>
      <use xlink:href="#DejaVuSans-20" x="994.189453"/>
      <use xlink:href="#DejaVuSans-54" x="1025.976562"/>
      <use xlink:href="#DejaVuSans-68" x="1087.060547"/>
      <use xlink:href="#DejaVuSans-72" x="1150.439453"/>
      <use xlink:href="#DejaVuSans-65" x="1189.302734"/>
      <use xlink:href="#DejaVuSans-73" x="1250.826172"/>
      <use xlink:href="#DejaVuSans-68" x="1302.925781"/>
      <use xlink:href="#DejaVuSans-6f" x="1366.304688"/>
      <use xlink:href="#DejaVuSans-6c" x="1427.486328"/>
      <use xlink:href="#DejaVuSans-64" x="1455.269531"/>
      <use xlink:href="#DejaVuSans-20" x="1518.746094"/>
      <use xlink:href="#DejaVuSans-48" x="1550.533203"/>
      <use xlink:href="#DejaVuSans-61" x="1625.728516"/>
      <use xlink:href="#DejaVuSans-6e" x="1687.007812"/>
      <use xlink:href="#DejaVuSans-64" x="1750.386719"/>
      <use xlink:href="#DejaVuSans-6c" x="1813.863281"/>
      <use xlink:href="#DejaVuSans-69" x="1841.646484"/>
      <use xlink:href="#DejaVuSans-6e" x="1869.429688"/>
      <use xlink:href="#DejaVuSans-67" x="1932.808594"/>
      <use xlink:href="#DejaVuSans-29" x="1996.285156"/>
     </g>
    </g>
   </g>
   <g id="matplotlib.axis_2">
    <g id="ytick_1">
     <g id="line2d_6">
      <defs>
       <path id="m33ab41ed28" d="M 0 0 
L -3.5 0 
" style="stroke: #000000; stroke-width: 0.8"/>
      </defs>
      <g>
       <use xlink:href="#m33ab41ed28" x="99.38" y="432.416912" style="stroke: #000000; stroke-width: 0.8"/>
      </g>
     </g>
     <g id="text_7">
      <!-- 0.021 -->
      <g transform="translate(35.12375 440.015349) scale(0.2 -0.2)">
       <defs>
        <path id="DejaVuSans-2e" d="M 684 794 
L 1344 794 
L 1344 0 
L 684 0 
L 684 794 
z
" transform="scale(0.015625)"/>
        <path id="DejaVuSans-31" d="M 794 531 
L 1825 531 
L 1825 4091 
L 703 3866 
L 703 4441 
L 1819 4666 
L 2450 4666 
L 2450 531 
L 3481 531 
L 3481 0 
L 794 0 
L 794 531 
z
" transform="scale(0.015625)"/>
       </defs>
       <use xlink:href="#DejaVuSans-30"/>
       <use xlink:href="#DejaVuSans-2e" x="63.623047"/>
       <use xlink:href="#DejaVuSans-30" x="95.410156"/>
       <use xlink:href="#DejaVuSans-32" x="159.033203"/>
       <use xlink:href="#DejaVuSans-31" x="222.65625"/>
      </g>
     </g>
    </g>
    <g id="ytick_2">
     <g id="line2d_7">
      <g>
       <use xlink:href="#m33ab41ed28" x="99.38" y="338.060838" style="stroke: #000000; stroke-width: 0.8"/>
      </g>
     </g>
     <g id="text_8">
      <!-- 0.022 -->
      <g transform="translate(35.12375 345.659275) scale(0.2 -0.2)">
       <use xlink:href="#DejaVuSans-30"/>
       <use xlink:href="#DejaVuSans-2e" x="63.623047"/>
       <use xlink:href="#DejaVuSans-30" x="95.410156"/>
       <use xlink:href="#DejaVuSans-32" x="159.033203"/>
       <use xlink:href="#DejaVuSans-32" x="222.65625"/>
      </g>
     </g>
    </g>
    <g id="ytick_3">
     <g id="line2d_8">
      <g>
       <use xlink:href="#m33ab41ed28" x="99.38" y="243.704764" style="stroke: #000000; stroke-width: 0.8"/>
      </g>
     </g>
     <g id="text_9">
      <!-- 0.023 -->
      <g transform="translate(35.12375 251.303202) scale(0.2 -0.2)">
       <defs>
        <path id="DejaVuSans-33" d="M 2597 2516 
Q 3050 2419 3304 2112 
Q 3559 1806 3559 1356 
Q 3559 666 3084 287 
Q 2609 -91 1734 -91 
Q 1441 -91 1130 -33 
Q 819 25 488 141 
L 488 750 
Q 750 597 1062 519 
Q 1375 441 1716 441 
Q 2309 441 2620 675 
Q 2931 909 2931 1356 
Q 2931 1769 2642 2001 
Q 2353 2234 1838 2234 
L 1294 2234 
L 1294 2753 
L 1863 2753 
Q 2328 2753 2575 2939 
Q 2822 3125 2822 3475 
Q 2822 3834 2567 4026 
Q 2313 4219 1838 4219 
Q 1578 4219 1281 4162 
Q 984 4106 628 3988 
L 628 4550 
Q 988 4650 1302 4700 
Q 1616 4750 1894 4750 
Q 2613 4750 3031 4423 
Q 3450 4097 3450 3541 
Q 3450 3153 3228 2886 
Q 3006 2619 2597 2516 
z
" transform="scale(0.015625)"/>
       </defs>
       <use xlink:href="#DejaVuSans-30"/>
       <use xlink:href="#DejaVuSans-2e" x="63.623047"/>
       <use xlink:href="#DejaVuSans-30" x="95.410156"/>
       <use xlink:href="#DejaVuSans-32" x="159.033203"/>
       <use xlink:href="#DejaVuSans-33" x="222.65625"/>
      </g>
     </g>
    </g>
    <g id="ytick_4">
     <g id="line2d_9">
      <g>
       <use xlink:href="#m33ab41ed28" x="99.38" y="149.348691" style="stroke: #000000; stroke-width: 0.8"/>
      </g>
     </g>
     <g id="text_10">
      <!-- 0.024 -->
      <g transform="translate(35.12375 156.947128) scale(0.2 -0.2)">
       <use xlink:href="#DejaVuSans-30"/>
       <use xlink:href="#DejaVuSans-2e" x="63.623047"/>
       <use xlink:href="#DejaVuSans-30" x="95.410156"/>
       <use xlink:href="#DejaVuSans-32" x="159.033203"/>
       <use xlink:href="#DejaVuSans-34" x="222.65625"/>
      </g>
     </g>
    </g>
    <g id="ytick_5">
     <g id="line2d_10">
      <g>
       <use xlink:href="#m33ab41ed28" x="99.38" y="54.992617" style="stroke: #000000; stroke-width: 0.8"/>
      </g>
     </g>
     <g id="text_11">
      <!-- 0.025 -->
      <g transform="translate(35.12375 62.591055) scale(0.2 -0.2)">
       <defs>
        <path id="DejaVuSans-35" d="M 691 4666 
L 3169 4666 
L 3169 4134 
L 1269 4134 
L 1269 2991 
Q 1406 3038 1543 3061 
Q 1681 3084 1819 3084 
Q 2600 3084 3056 2656 
Q 3513 2228 3513 1497 
Q 3513 744 3044 326 
Q 2575 -91 1722 -91 
Q 1428 -91 1123 -41 
Q 819 9 494 109 
L 494 744 
Q 775 591 1075 516 
Q 1375 441 1709 441 
Q 2250 441 2565 725 
Q 2881 1009 2881 1497 
Q 2881 1984 2565 2268 
Q 2250 2553 1709 2553 
Q 1456 2553 1204 2497 
Q 953 2441 691 2322 
L 691 4666 
z
" transform="scale(0.015625)"/>
       </defs>
       <use xlink:href="#DejaVuSans-30"/>
       <use xlink:href="#DejaVuSans-2e" x="63.623047"/>
       <use xlink:href="#DejaVuSans-30" x="95.410156"/>
       <use xlink:href="#DejaVuSans-32" x="159.033203"/>
       <use xlink:href="#DejaVuSans-35" x="222.65625"/>
      </g>
     </g>
    </g>
    <g id="text_12">
     <!-- MAPE -->
     <g transform="translate(26.964375 278.133188) rotate(-90) scale(0.2 -0.2)">
      <defs>
       <path id="DejaVuSans-4d" d="M 628 4666 
L 1569 4666 
L 2759 1491 
L 3956 4666 
L 4897 4666 
L 4897 0 
L 4281 0 
L 4281 4097 
L 3078 897 
L 2444 897 
L 1241 4097 
L 1241 0 
L 628 0 
L 628 4666 
z
" transform="scale(0.015625)"/>
       <path id="DejaVuSans-41" d="M 2188 4044 
L 1331 1722 
L 3047 1722 
L 2188 4044 
z
M 1831 4666 
L 2547 4666 
L 4325 0 
L 3669 0 
L 3244 1197 
L 1141 1197 
L 716 0 
L 50 0 
L 1831 4666 
z
" transform="scale(0.015625)"/>
       <path id="DejaVuSans-45" d="M 628 4666 
L 3578 4666 
L 3578 4134 
L 1259 4134 
L 1259 2753 
L 3481 2753 
L 3481 2222 
L 1259 2222 
L 1259 531 
L 3634 531 
L 3634 0 
L 628 0 
L 628 4666 
z
" transform="scale(0.015625)"/>
      </defs>
      <use xlink:href="#DejaVuSans-4d"/>
      <use xlink:href="#DejaVuSans-41" x="86.279297"/>
      <use xlink:href="#DejaVuSans-50" x="154.6875"/>
      <use xlink:href="#DejaVuSans-45" x="214.990234"/>
     </g>
    </g>
   </g>
   <g id="line2d_11">
    <path d="M 146.735455 279.035925 
L 166.886712 325.308917 
L 187.037969 319.873476 
L 207.189226 330.112401 
L 227.340484 315.455454 
L 247.491741 288.239452 
L 267.642998 270.721671 
L 287.794255 315.971853 
L 307.945513 268.271863 
L 328.09677 305.779693 
L 348.248027 299.533145 
L 368.399284 333.220749 
L 388.550542 322.413016 
L 408.701799 284.438113 
L 428.853056 311.722108 
L 449.004313 351.542484 
L 469.155571 292.994086 
L 489.306828 320.700682 
L 509.458085 336.456372 
L 529.609342 320.36921 
L 549.7606 315.675721 
L 569.911857 338.033139 
L 590.063114 343.767187 
L 610.214371 366.945766 
L 630.365629 332.481511 
L 650.516886 345.642013 
L 670.668143 329.81664 
L 690.8194 338.957197 
L 710.970658 373.43562 
L 731.121915 359.265788 
L 751.273172 337.760564 
L 771.424429 331.614394 
L 791.575687 325.317721 
L 811.726944 342.27068 
L 831.878201 335.886582 
L 852.029458 319.862438 
L 872.180716 334.489226 
L 892.331973 345.560049 
L 912.48323 313.655988 
L 932.634487 281.930023 
L 952.785745 278.405196 
L 972.937002 264.332711 
L 993.088259 275.388346 
L 1013.239516 282.811794 
L 1033.390774 288.322577 
L 1053.542031 277.364509 
L 1073.693288 277.53355 
L 1093.844545 305.738282 
" clip-path="url(#p366e77cd09)" style="fill: none; stroke: #1f77b4; stroke-width: 1.5; stroke-linecap: square"/>
   </g>
   <g id="line2d_12">
    <path d="M 146.735455 223.84274 
L 166.886712 243.59539 
L 187.037969 221.531725 
L 207.189226 232.205199 
L 227.340484 261.453166 
L 247.491741 233.474204 
L 267.642998 244.754141 
L 287.794255 246.5994 
L 307.945513 212.868717 
L 328.09677 252.270646 
L 348.248027 276.022569 
L 368.399284 271.448518 
L 388.550542 268.728234 
L 408.701799 225.28322 
L 428.853056 257.18099 
L 449.004313 283.815787 
L 469.155571 307.474982 
L 489.306828 262.467832 
L 509.458085 280.907314 
L 529.609342 287.08036 
L 549.7606 224.474567 
L 569.911857 282.276994 
L 590.063114 282.683614 
L 610.214371 316.004036 
L 630.365629 324.831231 
L 650.516886 286.050722 
L 670.668143 288.919074 
L 690.8194 256.067916 
L 710.970658 348.135873 
L 731.121915 322.503065 
L 751.273172 312.571233 
L 771.424429 298.885099 
L 791.575687 309.595015 
L 811.726944 290.561668 
L 831.878201 282.329031 
L 852.029458 240.976028 
L 872.180716 265.00003 
L 892.331973 280.918849 
L 912.48323 240.591402 
L 932.634487 232.312105 
L 952.785745 233.715624 
L 972.937002 209.309107 
L 993.088259 204.75873 
L 1013.239516 213.805995 
L 1033.390774 218.903181 
L 1053.542031 227.297451 
L 1073.693288 224.474216 
L 1093.844545 245.156419 
" clip-path="url(#p366e77cd09)" style="fill: none; stroke: #ff7f0e; stroke-width: 1.5; stroke-linecap: square"/>
   </g>
   <g id="line2d_13">
    <path d="M 146.735455 128.066603 
L 166.886712 194.47028 
L 187.037969 137.317787 
L 207.189226 183.353933 
L 227.340484 176.2945 
L 247.491741 219.099738 
L 267.642998 249.755819 
L 287.794255 202.580042 
L 307.945513 153.348868 
L 328.09677 194.346886 
L 348.248027 254.597226 
L 368.399284 252.791957 
L 388.550542 230.652536 
L 408.701799 127.323251 
L 428.853056 190.212211 
L 449.004313 216.654347 
L 469.155571 211.69119 
L 489.306828 228.024841 
L 509.458085 141.397176 
L 529.609342 205.145073 
L 549.7606 165.588984 
L 569.911857 139.162819 
L 590.063114 172.076835 
L 610.214371 237.688123 
L 630.365629 246.452025 
L 650.516886 194.071512 
L 670.668143 249.96408 
L 690.8194 208.526874 
L 710.970658 269.730095 
L 731.121915 285.463546 
L 751.273172 294.035566 
L 771.424429 272.860549 
L 791.575687 314.304998 
L 811.726944 269.754893 
L 831.878201 225.244398 
L 852.029458 251.573862 
L 872.180716 310.790288 
L 892.331973 222.890927 
L 912.48323 171.893419 
L 932.634487 198.621138 
L 952.785745 194.107191 
L 972.937002 172.618824 
L 993.088259 138.290011 
L 1013.239516 143.276911 
L 1033.390774 160.599795 
L 1053.542031 167.952175 
L 1073.693288 165.656059 
L 1093.844545 187.790915 
" clip-path="url(#p366e77cd09)" style="fill: none; stroke: #2ca02c; stroke-width: 1.5; stroke-linecap: square"/>
   </g>
   <g id="line2d_14"/>
   <g id="line2d_15"/>
   <g id="line2d_16"/>
   <g id="patch_3">
    <path d="M 99.38 489.832 
L 99.38 10.8 
" style="fill: none; stroke: #000000; stroke-width: 0.8; stroke-linejoin: miter; stroke-linecap: square"/>
   </g>
   <g id="patch_4">
    <path d="M 1141.2 489.832 
L 1141.2 10.8 
" style="fill: none; stroke: #000000; stroke-width: 0.8; stroke-linejoin: miter; stroke-linecap: square"/>
   </g>
   <g id="patch_5">
    <path d="M 99.38 489.832 
L 1141.2 489.832 
" style="fill: none; stroke: #000000; stroke-width: 0.8; stroke-linejoin: miter; stroke-linecap: square"/>
   </g>
   <g id="patch_6">
    <path d="M 99.38 10.8 
L 1141.2 10.8 
" style="fill: none; stroke: #000000; stroke-width: 0.8; stroke-linejoin: miter; stroke-linecap: square"/>
   </g>
   <g id="legend_1">
    <g id="patch_7">
     <path d="M 110.58 481.832 
L 191.565 481.832 
Q 194.765 481.832 194.765 478.632 
L 194.765 409.777 
Q 194.765 406.577 191.565 406.577 
L 110.58 406.577 
Q 107.38 406.577 107.38 409.777 
L 107.38 478.632 
Q 107.38 481.832 110.58 481.832 
z
" style="fill: #ffffff; opacity: 0.8; stroke: #cccccc; stroke-linejoin: miter"/>
    </g>
    <g id="line2d_17">
     <path d="M 113.78 419.5345 
L 129.78 419.5345 
L 145.78 419.5345 
" style="fill: none; stroke: #1f77b4; stroke-width: 1.5; stroke-linecap: square"/>
    </g>
    <g id="text_13">
     <!-- rf -->
     <g transform="translate(158.58 425.1345) scale(0.16 -0.16)">
      <defs>
       <path id="DejaVuSans-66" d="M 2375 4863 
L 2375 4384 
L 1825 4384 
Q 1516 4384 1395 4259 
Q 1275 4134 1275 3809 
L 1275 3500 
L 2222 3500 
L 2222 3053 
L 1275 3053 
L 1275 0 
L 697 0 
L 697 3053 
L 147 3053 
L 147 3500 
L 697 3500 
L 697 3744 
Q 697 4328 969 4595 
Q 1241 4863 1831 4863 
L 2375 4863 
z
" transform="scale(0.015625)"/>
      </defs>
      <use xlink:href="#DejaVuSans-72"/>
      <use xlink:href="#DejaVuSans-66" x="41.113281"/>
     </g>
    </g>
    <g id="line2d_18">
     <path d="M 113.78 443.0195 
L 129.78 443.0195 
L 145.78 443.0195 
" style="fill: none; stroke: #ff7f0e; stroke-width: 1.5; stroke-linecap: square"/>
    </g>
    <g id="text_14">
     <!-- gbr -->
     <g transform="translate(158.58 448.6195) scale(0.16 -0.16)">
      <defs>
       <path id="DejaVuSans-62" d="M 3116 1747 
Q 3116 2381 2855 2742 
Q 2594 3103 2138 3103 
Q 1681 3103 1420 2742 
Q 1159 2381 1159 1747 
Q 1159 1113 1420 752 
Q 1681 391 2138 391 
Q 2594 391 2855 752 
Q 3116 1113 3116 1747 
z
M 1159 2969 
Q 1341 3281 1617 3432 
Q 1894 3584 2278 3584 
Q 2916 3584 3314 3078 
Q 3713 2572 3713 1747 
Q 3713 922 3314 415 
Q 2916 -91 2278 -91 
Q 1894 -91 1617 61 
Q 1341 213 1159 525 
L 1159 0 
L 581 0 
L 581 4863 
L 1159 4863 
L 1159 2969 
z
" transform="scale(0.015625)"/>
      </defs>
      <use xlink:href="#DejaVuSans-67"/>
      <use xlink:href="#DejaVuSans-62" x="63.476562"/>
      <use xlink:href="#DejaVuSans-72" x="126.953125"/>
     </g>
    </g>
    <g id="line2d_19">
     <path d="M 113.78 466.5045 
L 129.78 466.5045 
L 145.78 466.5045 
" style="fill: none; stroke: #2ca02c; stroke-width: 1.5; stroke-linecap: square"/>
    </g>
    <g id="text_15">
     <!-- xgb -->
     <g transform="translate(158.58 472.1045) scale(0.16 -0.16)">
      <use xlink:href="#DejaVuSans-78"/>
      <use xlink:href="#DejaVuSans-67" x="59.179688"/>
      <use xlink:href="#DejaVuSans-62" x="122.65625"/>
     </g>
    </g>
   </g>
  </g>
 </g>
 <defs>
  <clipPath id="p366e77cd09">
   <rect x="99.38" y="10.8" width="1041.82" height="479.032"/>
  </clipPath>
 </defs>
</svg>
