<?xml version="1.0" encoding="utf-8" standalone="no"?>
<!DOCTYPE svg PUBLIC "-//W3C//DTD SVG 1.1//EN"
  "http://www.w3.org/Graphics/SVG/1.1/DTD/svg11.dtd">
<svg xmlns:xlink="http://www.w3.org/1999/xlink" width="1152pt" height="576pt" viewBox="0 0 1152 576" xmlns="http://www.w3.org/2000/svg" version="1.1">
 <metadata>
  <rdf:RDF xmlns:dc="http://purl.org/dc/elements/1.1/" xmlns:cc="http://creativecommons.org/ns#" xmlns:rdf="http://www.w3.org/1999/02/22-rdf-syntax-ns#">
   <cc:Work>
    <dc:type rdf:resource="http://purl.org/dc/dcmitype/StillImage"/>
    <dc:date>2025-03-23T22:21:31.458066</dc:date>
    <dc:format>image/svg+xml</dc:format>
    <dc:creator>
     <cc:Agent>
      <dc:title>Matplotlib v3.9.2, https://matplotlib.org/</dc:title>
     </cc:Agent>
    </dc:creator>
   </cc:Work>
  </rdf:RDF>
 </metadata>
 <defs>
  <style type="text/css">*{stroke-linejoin: round; stroke-linecap: butt}</style>
 </defs>
 <g id="figure_1">
  <g id="patch_1">
   <path d="M 0 576 
L 1152 576 
L 1152 0 
L 0 0 
z
" style="fill: #ffffff"/>
  </g>
  <g id="axes_1">
   <g id="patch_2">
    <path d="M 71.48 490.552 
L 1141.2 490.552 
L 1141.2 10.8 
L 71.48 10.8 
z
" style="fill: #ffffff"/>
   </g>
   <g id="PolyCollection_1">
    <defs>
     <path id="m9aeb736371" d="M 120.103636 -543.393091 
L 120.103636 -541.582853 
L 140.794545 -541.006767 
L 161.485455 -540.490562 
L 182.176364 -541.436649 
L 202.867273 -539.611332 
L 223.558182 -539.284339 
L 244.249091 -536.750353 
L 264.94 -536.95203 
L 285.630909 -536.383239 
L 306.321818 -537.405852 
L 327.012727 -537.031447 
L 347.703636 -534.606072 
L 368.394545 -533.558609 
L 389.085455 -531.766318 
L 409.776364 -528.806021 
L 430.467273 -529.84694 
L 451.158182 -531.234086 
L 471.849091 -532.432798 
L 492.54 -529.918092 
L 513.230909 -527.286886 
L 533.921818 -527.74332 
L 554.612727 -526.324408 
L 575.303636 -524.469058 
L 595.994545 -526.640395 
L 616.685455 -524.199257 
L 637.376364 -523.408311 
L 658.067273 -522.30412 
L 678.758182 -519.179788 
L 699.449091 -513.717894 
L 720.14 -503.867148 
L 740.830909 -493.029815 
L 761.521818 -496.040633 
L 782.212727 -470.668394 
L 802.903636 -459.503576 
L 823.594545 -458.795656 
L 844.285455 -457.591807 
L 864.976364 -457.786605 
L 885.667273 -441.222769 
L 906.358182 -411.90005 
L 927.049091 -263.625589 
L 947.74 -285.110983 
L 968.430909 -280.326828 
L 989.121818 -305.276875 
L 1009.812727 -208.972662 
L 1030.503636 -344.808771 
L 1051.194545 -172.616065 
L 1071.885455 -172.616065 
L 1092.576364 -287.597404 
L 1092.576364 -342.05079 
L 1092.576364 -342.05079 
L 1071.885455 -306.687287 
L 1051.194545 -306.687287 
L 1030.503636 -413.935795 
L 1009.812727 -413.935795 
L 989.121818 -426.010052 
L 968.430909 -406.295781 
L 947.74 -400.741005 
L 927.049091 -390.638163 
L 906.358182 -476.238309 
L 885.667273 -493.00969 
L 864.976364 -509.575202 
L 844.285455 -510.346464 
L 823.594545 -512.228704 
L 802.903636 -511.188692 
L 782.212727 -513.836102 
L 761.521818 -515.474864 
L 740.830909 -517.778589 
L 720.14 -513.70376 
L 699.449091 -521.210157 
L 678.758182 -529.607213 
L 658.067273 -531.213531 
L 637.376364 -529.465962 
L 616.685455 -532.113286 
L 595.994545 -534.129569 
L 575.303636 -534.26925 
L 554.612727 -534.797149 
L 533.921818 -535.166157 
L 513.230909 -533.685678 
L 492.54 -535.010727 
L 471.849091 -536.422118 
L 451.158182 -536.034551 
L 430.467273 -535.319007 
L 409.776364 -534.277792 
L 389.085455 -537.350946 
L 368.394545 -536.812309 
L 347.703636 -536.928063 
L 327.012727 -537.783945 
L 306.321818 -538.694168 
L 285.630909 -538.144913 
L 264.94 -539.602495 
L 244.249091 -539.422769 
L 223.558182 -541.393864 
L 202.867273 -542.022489 
L 182.176364 -542.008055 
L 161.485455 -541.968102 
L 140.794545 -542.390932 
L 120.103636 -543.393091 
z
" style="stroke: #1f77b4; stroke-opacity: 0.2"/>
    </defs>
    <g clip-path="url(#p0f5faba2dc)">
     <use xlink:href="#m9aeb736371" x="0" y="576" style="fill: #1f77b4; fill-opacity: 0.2; stroke: #1f77b4; stroke-opacity: 0.2"/>
    </g>
   </g>
   <g id="PolyCollection_2">
    <defs>
     <path id="mb2754fdac7" d="M 120.103636 -541.434071 
L 120.103636 -538.721734 
L 140.794545 -538.229531 
L 161.485455 -538.096096 
L 182.176364 -538.831559 
L 202.867273 -538.146501 
L 223.558182 -535.269846 
L 244.249091 -532.107447 
L 264.94 -531.858167 
L 285.630909 -529.667259 
L 306.321818 -530.338872 
L 327.012727 -529.912013 
L 347.703636 -529.739252 
L 368.394545 -527.691879 
L 389.085455 -527.481046 
L 409.776364 -519.287605 
L 430.467273 -519.477566 
L 451.158182 -521.658139 
L 471.849091 -522.614045 
L 492.54 -520.36099 
L 513.230909 -518.85981 
L 533.921818 -518.506203 
L 554.612727 -518.633175 
L 575.303636 -517.702368 
L 595.994545 -518.953722 
L 616.685455 -517.311404 
L 637.376364 -509.193431 
L 658.067273 -506.874286 
L 678.758182 -504.25154 
L 699.449091 -502.633148 
L 720.14 -477.4594 
L 740.830909 -476.398867 
L 761.521818 -482.974011 
L 782.212727 -459.689319 
L 802.903636 -428.308381 
L 823.594545 -427.209165 
L 844.285455 -431.326424 
L 864.976364 -425.240722 
L 885.667273 -403.987178 
L 906.358182 -375.504405 
L 927.049091 -153.047619 
L 947.74 -188.44968 
L 968.430909 -202.043117 
L 989.121818 -232.222566 
L 1009.812727 -115.768724 
L 1030.503636 -286.266846 
L 1051.194545 -107.254909 
L 1071.885455 -107.254909 
L 1092.576364 -256.829204 
L 1092.576364 -362.288695 
L 1092.576364 -362.288695 
L 1071.885455 -321.323198 
L 1051.194545 -321.323198 
L 1030.503636 -408.067754 
L 1009.812727 -408.067754 
L 989.121818 -400.236609 
L 968.430909 -382.598892 
L 947.74 -368.875055 
L 927.049091 -364.585093 
L 906.358182 -458.994911 
L 885.667273 -478.483664 
L 864.976364 -493.510653 
L 844.285455 -507.00251 
L 823.594545 -510.07459 
L 802.903636 -508.882586 
L 782.212727 -499.954459 
L 761.521818 -504.798603 
L 740.830909 -509.386314 
L 720.14 -506.681225 
L 699.449091 -515.55741 
L 678.758182 -524.900769 
L 658.067273 -524.865013 
L 637.376364 -523.636396 
L 616.685455 -526.000166 
L 595.994545 -527.25621 
L 575.303636 -528.162692 
L 554.612727 -529.42906 
L 533.921818 -527.597386 
L 513.230909 -528.59379 
L 492.54 -524.921458 
L 471.849091 -529.448178 
L 451.158182 -531.099742 
L 430.467273 -529.731486 
L 409.776364 -527.376425 
L 389.085455 -533.121426 
L 368.394545 -533.250586 
L 347.703636 -533.675199 
L 327.012727 -534.831226 
L 306.321818 -534.843301 
L 285.630909 -533.84996 
L 264.94 -536.744171 
L 244.249091 -537.149897 
L 223.558182 -539.154468 
L 202.867273 -540.557739 
L 182.176364 -540.010121 
L 161.485455 -540.693916 
L 140.794545 -540.230412 
L 120.103636 -541.434071 
z
" style="stroke: #ff7f0e; stroke-opacity: 0.2"/>
    </defs>
    <g clip-path="url(#p0f5faba2dc)">
     <use xlink:href="#mb2754fdac7" x="0" y="576" style="fill: #ff7f0e; fill-opacity: 0.2; stroke: #ff7f0e; stroke-opacity: 0.2"/>
    </g>
   </g>
   <g id="PolyCollection_3">
    <defs>
     <path id="m568b5c23a8" d="M 120.103636 -543.024368 
L 120.103636 -542.114749 
L 140.794545 -539.981677 
L 161.485455 -539.694173 
L 182.176364 -539.857731 
L 202.867273 -539.117427 
L 223.558182 -538.472338 
L 244.249091 -537.775934 
L 264.94 -537.08267 
L 285.630909 -535.107522 
L 306.321818 -536.629698 
L 327.012727 -536.096003 
L 347.703636 -532.979418 
L 368.394545 -532.998876 
L 389.085455 -533.644334 
L 409.776364 -527.619064 
L 430.467273 -529.036668 
L 451.158182 -527.688548 
L 471.849091 -528.249113 
L 492.54 -523.248485 
L 513.230909 -525.304769 
L 533.921818 -522.876535 
L 554.612727 -524.444987 
L 575.303636 -523.070244 
L 595.994545 -527.357655 
L 616.685455 -527.224746 
L 637.376364 -522.874077 
L 658.067273 -523.144449 
L 678.758182 -521.309935 
L 699.449091 -512.378222 
L 720.14 -502.084941 
L 740.830909 -492.034884 
L 761.521818 -494.58114 
L 782.212727 -463.646078 
L 802.903636 -446.134285 
L 823.594545 -448.235245 
L 844.285455 -444.89519 
L 864.976364 -439.045282 
L 885.667273 -426.241994 
L 906.358182 -407.045121 
L 927.049091 -194.091744 
L 947.74 -224.272954 
L 968.430909 -233.916413 
L 989.121818 -283.770391 
L 1009.812727 -192.941762 
L 1030.503636 -321.499828 
L 1051.194545 -145.26891 
L 1071.885455 -145.26891 
L 1092.576364 -257.885473 
L 1092.576364 -328.921669 
L 1092.576364 -328.921669 
L 1071.885455 -318.406654 
L 1051.194545 -318.406654 
L 1030.503636 -409.646458 
L 1009.812727 -409.646458 
L 989.121818 -406.961146 
L 968.430909 -386.724455 
L 947.74 -382.649699 
L 927.049091 -372.727384 
L 906.358182 -460.717312 
L 885.667273 -484.747615 
L 864.976364 -499.485384 
L 844.285455 -506.703513 
L 823.594545 -509.322869 
L 802.903636 -508.445903 
L 782.212727 -512.000424 
L 761.521818 -507.0458 
L 740.830909 -516.900435 
L 720.14 -510.729457 
L 699.449091 -514.414684 
L 678.758182 -531.856369 
L 658.067273 -531.615565 
L 637.376364 -527.062344 
L 616.685455 -531.24914 
L 595.994545 -532.715453 
L 575.303636 -532.932934 
L 554.612727 -531.630517 
L 533.921818 -531.935851 
L 513.230909 -533.839739 
L 492.54 -532.408524 
L 471.849091 -535.39283 
L 451.158182 -536.75662 
L 430.467273 -536.135808 
L 409.776364 -533.317825 
L 389.085455 -537.720357 
L 368.394545 -537.040149 
L 347.703636 -536.703701 
L 327.012727 -538.158667 
L 306.321818 -538.827334 
L 285.630909 -538.870558 
L 264.94 -539.854399 
L 244.249091 -540.402125 
L 223.558182 -541.473608 
L 202.867273 -540.956485 
L 182.176364 -541.550219 
L 161.485455 -541.825042 
L 140.794545 -541.933179 
L 120.103636 -543.024368 
z
" style="stroke: #2ca02c; stroke-opacity: 0.2"/>
    </defs>
    <g clip-path="url(#p0f5faba2dc)">
     <use xlink:href="#m568b5c23a8" x="0" y="576" style="fill: #2ca02c; fill-opacity: 0.2; stroke: #2ca02c; stroke-opacity: 0.2"/>
    </g>
   </g>
   <g id="matplotlib.axis_1">
    <g id="xtick_1">
     <g id="line2d_1">
      <defs>
       <path id="m8a97ff18fb" d="M 0 0 
L 0 3.5 
" style="stroke: #000000; stroke-width: 0.8"/>
      </defs>
      <g>
       <use xlink:href="#m8a97ff18fb" x="109.758182" y="490.552" style="stroke: #000000; stroke-width: 0.8"/>
      </g>
     </g>
     <g id="text_1">
      <!-- 0 -->
      <g transform="translate(103.395682 512.748875) scale(0.2 -0.2)">
       <defs>
        <path id="DejaVuSans-30" d="M 2034 4250 
Q 1547 4250 1301 3770 
Q 1056 3291 1056 2328 
Q 1056 1369 1301 889 
Q 1547 409 2034 409 
Q 2525 409 2770 889 
Q 3016 1369 3016 2328 
Q 3016 3291 2770 3770 
Q 2525 4250 2034 4250 
z
M 2034 4750 
Q 2819 4750 3233 4129 
Q 3647 3509 3647 2328 
Q 3647 1150 3233 529 
Q 2819 -91 2034 -91 
Q 1250 -91 836 529 
Q 422 1150 422 2328 
Q 422 3509 836 4129 
Q 1250 4750 2034 4750 
z
" transform="scale(0.015625)"/>
       </defs>
       <use xlink:href="#DejaVuSans-30"/>
      </g>
     </g>
    </g>
    <g id="xtick_2">
     <g id="line2d_2">
      <g>
       <use xlink:href="#m8a97ff18fb" x="316.667273" y="490.552" style="stroke: #000000; stroke-width: 0.8"/>
      </g>
     </g>
     <g id="text_2">
      <!-- 20 -->
      <g transform="translate(303.942273 512.748875) scale(0.2 -0.2)">
       <defs>
        <path id="DejaVuSans-32" d="M 1228 531 
L 3431 531 
L 3431 0 
L 469 0 
L 469 531 
Q 828 903 1448 1529 
Q 2069 2156 2228 2338 
Q 2531 2678 2651 2914 
Q 2772 3150 2772 3378 
Q 2772 3750 2511 3984 
Q 2250 4219 1831 4219 
Q 1534 4219 1204 4116 
Q 875 4013 500 3803 
L 500 4441 
Q 881 4594 1212 4672 
Q 1544 4750 1819 4750 
Q 2544 4750 2975 4387 
Q 3406 4025 3406 3419 
Q 3406 3131 3298 2873 
Q 3191 2616 2906 2266 
Q 2828 2175 2409 1742 
Q 1991 1309 1228 531 
z
" transform="scale(0.015625)"/>
       </defs>
       <use xlink:href="#DejaVuSans-32"/>
       <use xlink:href="#DejaVuSans-30" x="63.623047"/>
      </g>
     </g>
    </g>
    <g id="xtick_3">
     <g id="line2d_3">
      <g>
       <use xlink:href="#m8a97ff18fb" x="523.576364" y="490.552" style="stroke: #000000; stroke-width: 0.8"/>
      </g>
     </g>
     <g id="text_3">
      <!-- 40 -->
      <g transform="translate(510.851364 512.748875) scale(0.2 -0.2)">
       <defs>
        <path id="DejaVuSans-34" d="M 2419 4116 
L 825 1625 
L 2419 1625 
L 2419 4116 
z
M 2253 4666 
L 3047 4666 
L 3047 1625 
L 3713 1625 
L 3713 1100 
L 3047 1100 
L 3047 0 
L 2419 0 
L 2419 1100 
L 313 1100 
L 313 1709 
L 2253 4666 
z
" transform="scale(0.015625)"/>
       </defs>
       <use xlink:href="#DejaVuSans-34"/>
       <use xlink:href="#DejaVuSans-30" x="63.623047"/>
      </g>
     </g>
    </g>
    <g id="xtick_4">
     <g id="line2d_4">
      <g>
       <use xlink:href="#m8a97ff18fb" x="730.485455" y="490.552" style="stroke: #000000; stroke-width: 0.8"/>
      </g>
     </g>
     <g id="text_4">
      <!-- 60 -->
      <g transform="translate(717.760455 512.748875) scale(0.2 -0.2)">
       <defs>
        <path id="DejaVuSans-36" d="M 2113 2584 
Q 1688 2584 1439 2293 
Q 1191 2003 1191 1497 
Q 1191 994 1439 701 
Q 1688 409 2113 409 
Q 2538 409 2786 701 
Q 3034 994 3034 1497 
Q 3034 2003 2786 2293 
Q 2538 2584 2113 2584 
z
M 3366 4563 
L 3366 3988 
Q 3128 4100 2886 4159 
Q 2644 4219 2406 4219 
Q 1781 4219 1451 3797 
Q 1122 3375 1075 2522 
Q 1259 2794 1537 2939 
Q 1816 3084 2150 3084 
Q 2853 3084 3261 2657 
Q 3669 2231 3669 1497 
Q 3669 778 3244 343 
Q 2819 -91 2113 -91 
Q 1303 -91 875 529 
Q 447 1150 447 2328 
Q 447 3434 972 4092 
Q 1497 4750 2381 4750 
Q 2619 4750 2861 4703 
Q 3103 4656 3366 4563 
z
" transform="scale(0.015625)"/>
       </defs>
       <use xlink:href="#DejaVuSans-36"/>
       <use xlink:href="#DejaVuSans-30" x="63.623047"/>
      </g>
     </g>
    </g>
    <g id="xtick_5">
     <g id="line2d_5">
      <g>
       <use xlink:href="#m8a97ff18fb" x="937.394545" y="490.552" style="stroke: #000000; stroke-width: 0.8"/>
      </g>
     </g>
     <g id="text_5">
      <!-- 80 -->
      <g transform="translate(924.669545 512.748875) scale(0.2 -0.2)">
       <defs>
        <path id="DejaVuSans-38" d="M 2034 2216 
Q 1584 2216 1326 1975 
Q 1069 1734 1069 1313 
Q 1069 891 1326 650 
Q 1584 409 2034 409 
Q 2484 409 2743 651 
Q 3003 894 3003 1313 
Q 3003 1734 2745 1975 
Q 2488 2216 2034 2216 
z
M 1403 2484 
Q 997 2584 770 2862 
Q 544 3141 544 3541 
Q 544 4100 942 4425 
Q 1341 4750 2034 4750 
Q 2731 4750 3128 4425 
Q 3525 4100 3525 3541 
Q 3525 3141 3298 2862 
Q 3072 2584 2669 2484 
Q 3125 2378 3379 2068 
Q 3634 1759 3634 1313 
Q 3634 634 3220 271 
Q 2806 -91 2034 -91 
Q 1263 -91 848 271 
Q 434 634 434 1313 
Q 434 1759 690 2068 
Q 947 2378 1403 2484 
z
M 1172 3481 
Q 1172 3119 1398 2916 
Q 1625 2713 2034 2713 
Q 2441 2713 2670 2916 
Q 2900 3119 2900 3481 
Q 2900 3844 2670 4047 
Q 2441 4250 2034 4250 
Q 1625 4250 1398 4047 
Q 1172 3844 1172 3481 
z
" transform="scale(0.015625)"/>
       </defs>
       <use xlink:href="#DejaVuSans-38"/>
       <use xlink:href="#DejaVuSans-30" x="63.623047"/>
      </g>
     </g>
    </g>
    <g id="text_6">
     <!-- Percentile Threshold -->
     <g transform="translate(504.560313 536.105125) scale(0.2 -0.2)">
      <defs>
       <path id="DejaVuSans-50" d="M 1259 4147 
L 1259 2394 
L 2053 2394 
Q 2494 2394 2734 2622 
Q 2975 2850 2975 3272 
Q 2975 3691 2734 3919 
Q 2494 4147 2053 4147 
L 1259 4147 
z
M 628 4666 
L 2053 4666 
Q 2838 4666 3239 4311 
Q 3641 3956 3641 3272 
Q 3641 2581 3239 2228 
Q 2838 1875 2053 1875 
L 1259 1875 
L 1259 0 
L 628 0 
L 628 4666 
z
" transform="scale(0.015625)"/>
       <path id="DejaVuSans-65" d="M 3597 1894 
L 3597 1613 
L 953 1613 
Q 991 1019 1311 708 
Q 1631 397 2203 397 
Q 2534 397 2845 478 
Q 3156 559 3463 722 
L 3463 178 
Q 3153 47 2828 -22 
Q 2503 -91 2169 -91 
Q 1331 -91 842 396 
Q 353 884 353 1716 
Q 353 2575 817 3079 
Q 1281 3584 2069 3584 
Q 2775 3584 3186 3129 
Q 3597 2675 3597 1894 
z
M 3022 2063 
Q 3016 2534 2758 2815 
Q 2500 3097 2075 3097 
Q 1594 3097 1305 2825 
Q 1016 2553 972 2059 
L 3022 2063 
z
" transform="scale(0.015625)"/>
       <path id="DejaVuSans-72" d="M 2631 2963 
Q 2534 3019 2420 3045 
Q 2306 3072 2169 3072 
Q 1681 3072 1420 2755 
Q 1159 2438 1159 1844 
L 1159 0 
L 581 0 
L 581 3500 
L 1159 3500 
L 1159 2956 
Q 1341 3275 1631 3429 
Q 1922 3584 2338 3584 
Q 2397 3584 2469 3576 
Q 2541 3569 2628 3553 
L 2631 2963 
z
" transform="scale(0.015625)"/>
       <path id="DejaVuSans-63" d="M 3122 3366 
L 3122 2828 
Q 2878 2963 2633 3030 
Q 2388 3097 2138 3097 
Q 1578 3097 1268 2742 
Q 959 2388 959 1747 
Q 959 1106 1268 751 
Q 1578 397 2138 397 
Q 2388 397 2633 464 
Q 2878 531 3122 666 
L 3122 134 
Q 2881 22 2623 -34 
Q 2366 -91 2075 -91 
Q 1284 -91 818 406 
Q 353 903 353 1747 
Q 353 2603 823 3093 
Q 1294 3584 2113 3584 
Q 2378 3584 2631 3529 
Q 2884 3475 3122 3366 
z
" transform="scale(0.015625)"/>
       <path id="DejaVuSans-6e" d="M 3513 2113 
L 3513 0 
L 2938 0 
L 2938 2094 
Q 2938 2591 2744 2837 
Q 2550 3084 2163 3084 
Q 1697 3084 1428 2787 
Q 1159 2491 1159 1978 
L 1159 0 
L 581 0 
L 581 3500 
L 1159 3500 
L 1159 2956 
Q 1366 3272 1645 3428 
Q 1925 3584 2291 3584 
Q 2894 3584 3203 3211 
Q 3513 2838 3513 2113 
z
" transform="scale(0.015625)"/>
       <path id="DejaVuSans-74" d="M 1172 4494 
L 1172 3500 
L 2356 3500 
L 2356 3053 
L 1172 3053 
L 1172 1153 
Q 1172 725 1289 603 
Q 1406 481 1766 481 
L 2356 481 
L 2356 0 
L 1766 0 
Q 1100 0 847 248 
Q 594 497 594 1153 
L 594 3053 
L 172 3053 
L 172 3500 
L 594 3500 
L 594 4494 
L 1172 4494 
z
" transform="scale(0.015625)"/>
       <path id="DejaVuSans-69" d="M 603 3500 
L 1178 3500 
L 1178 0 
L 603 0 
L 603 3500 
z
M 603 4863 
L 1178 4863 
L 1178 4134 
L 603 4134 
L 603 4863 
z
" transform="scale(0.015625)"/>
       <path id="DejaVuSans-6c" d="M 603 4863 
L 1178 4863 
L 1178 0 
L 603 0 
L 603 4863 
z
" transform="scale(0.015625)"/>
       <path id="DejaVuSans-20" transform="scale(0.015625)"/>
       <path id="DejaVuSans-54" d="M -19 4666 
L 3928 4666 
L 3928 4134 
L 2272 4134 
L 2272 0 
L 1638 0 
L 1638 4134 
L -19 4134 
L -19 4666 
z
" transform="scale(0.015625)"/>
       <path id="DejaVuSans-68" d="M 3513 2113 
L 3513 0 
L 2938 0 
L 2938 2094 
Q 2938 2591 2744 2837 
Q 2550 3084 2163 3084 
Q 1697 3084 1428 2787 
Q 1159 2491 1159 1978 
L 1159 0 
L 581 0 
L 581 4863 
L 1159 4863 
L 1159 2956 
Q 1366 3272 1645 3428 
Q 1925 3584 2291 3584 
Q 2894 3584 3203 3211 
Q 3513 2838 3513 2113 
z
" transform="scale(0.015625)"/>
       <path id="DejaVuSans-73" d="M 2834 3397 
L 2834 2853 
Q 2591 2978 2328 3040 
Q 2066 3103 1784 3103 
Q 1356 3103 1142 2972 
Q 928 2841 928 2578 
Q 928 2378 1081 2264 
Q 1234 2150 1697 2047 
L 1894 2003 
Q 2506 1872 2764 1633 
Q 3022 1394 3022 966 
Q 3022 478 2636 193 
Q 2250 -91 1575 -91 
Q 1294 -91 989 -36 
Q 684 19 347 128 
L 347 722 
Q 666 556 975 473 
Q 1284 391 1588 391 
Q 1994 391 2212 530 
Q 2431 669 2431 922 
Q 2431 1156 2273 1281 
Q 2116 1406 1581 1522 
L 1381 1569 
Q 847 1681 609 1914 
Q 372 2147 372 2553 
Q 372 3047 722 3315 
Q 1072 3584 1716 3584 
Q 2034 3584 2315 3537 
Q 2597 3491 2834 3397 
z
" transform="scale(0.015625)"/>
       <path id="DejaVuSans-6f" d="M 1959 3097 
Q 1497 3097 1228 2736 
Q 959 2375 959 1747 
Q 959 1119 1226 758 
Q 1494 397 1959 397 
Q 2419 397 2687 759 
Q 2956 1122 2956 1747 
Q 2956 2369 2687 2733 
Q 2419 3097 1959 3097 
z
M 1959 3584 
Q 2709 3584 3137 3096 
Q 3566 2609 3566 1747 
Q 3566 888 3137 398 
Q 2709 -91 1959 -91 
Q 1206 -91 779 398 
Q 353 888 353 1747 
Q 353 2609 779 3096 
Q 1206 3584 1959 3584 
z
" transform="scale(0.015625)"/>
       <path id="DejaVuSans-64" d="M 2906 2969 
L 2906 4863 
L 3481 4863 
L 3481 0 
L 2906 0 
L 2906 525 
Q 2725 213 2448 61 
Q 2172 -91 1784 -91 
Q 1150 -91 751 415 
Q 353 922 353 1747 
Q 353 2572 751 3078 
Q 1150 3584 1784 3584 
Q 2172 3584 2448 3432 
Q 2725 3281 2906 2969 
z
M 947 1747 
Q 947 1113 1208 752 
Q 1469 391 1925 391 
Q 2381 391 2643 752 
Q 2906 1113 2906 1747 
Q 2906 2381 2643 2742 
Q 2381 3103 1925 3103 
Q 1469 3103 1208 2742 
Q 947 2381 947 1747 
z
" transform="scale(0.015625)"/>
      </defs>
      <use xlink:href="#DejaVuSans-50"/>
      <use xlink:href="#DejaVuSans-65" x="56.677734"/>
      <use xlink:href="#DejaVuSans-72" x="118.201172"/>
      <use xlink:href="#DejaVuSans-63" x="157.064453"/>
      <use xlink:href="#DejaVuSans-65" x="212.044922"/>
      <use xlink:href="#DejaVuSans-6e" x="273.568359"/>
      <use xlink:href="#DejaVuSans-74" x="336.947266"/>
      <use xlink:href="#DejaVuSans-69" x="376.15625"/>
      <use xlink:href="#DejaVuSans-6c" x="403.939453"/>
      <use xlink:href="#DejaVuSans-65" x="431.722656"/>
      <use xlink:href="#DejaVuSans-20" x="493.246094"/>
      <use xlink:href="#DejaVuSans-54" x="525.033203"/>
      <use xlink:href="#DejaVuSans-68" x="586.117188"/>
      <use xlink:href="#DejaVuSans-72" x="649.496094"/>
      <use xlink:href="#DejaVuSans-65" x="688.359375"/>
      <use xlink:href="#DejaVuSans-73" x="749.882812"/>
      <use xlink:href="#DejaVuSans-68" x="801.982422"/>
      <use xlink:href="#DejaVuSans-6f" x="865.361328"/>
      <use xlink:href="#DejaVuSans-6c" x="926.542969"/>
      <use xlink:href="#DejaVuSans-64" x="954.326172"/>
     </g>
     <!-- (Using "merge" Threshold Handling) -->
     <g transform="translate(425.625938 558.50075) scale(0.2 -0.2)">
      <defs>
       <path id="DejaVuSans-28" d="M 1984 4856 
Q 1566 4138 1362 3434 
Q 1159 2731 1159 2009 
Q 1159 1288 1364 580 
Q 1569 -128 1984 -844 
L 1484 -844 
Q 1016 -109 783 600 
Q 550 1309 550 2009 
Q 550 2706 781 3412 
Q 1013 4119 1484 4856 
L 1984 4856 
z
" transform="scale(0.015625)"/>
       <path id="DejaVuSans-55" d="M 556 4666 
L 1191 4666 
L 1191 1831 
Q 1191 1081 1462 751 
Q 1734 422 2344 422 
Q 2950 422 3222 751 
Q 3494 1081 3494 1831 
L 3494 4666 
L 4128 4666 
L 4128 1753 
Q 4128 841 3676 375 
Q 3225 -91 2344 -91 
Q 1459 -91 1007 375 
Q 556 841 556 1753 
L 556 4666 
z
" transform="scale(0.015625)"/>
       <path id="DejaVuSans-67" d="M 2906 1791 
Q 2906 2416 2648 2759 
Q 2391 3103 1925 3103 
Q 1463 3103 1205 2759 
Q 947 2416 947 1791 
Q 947 1169 1205 825 
Q 1463 481 1925 481 
Q 2391 481 2648 825 
Q 2906 1169 2906 1791 
z
M 3481 434 
Q 3481 -459 3084 -895 
Q 2688 -1331 1869 -1331 
Q 1566 -1331 1297 -1286 
Q 1028 -1241 775 -1147 
L 775 -588 
Q 1028 -725 1275 -790 
Q 1522 -856 1778 -856 
Q 2344 -856 2625 -561 
Q 2906 -266 2906 331 
L 2906 616 
Q 2728 306 2450 153 
Q 2172 0 1784 0 
Q 1141 0 747 490 
Q 353 981 353 1791 
Q 353 2603 747 3093 
Q 1141 3584 1784 3584 
Q 2172 3584 2450 3431 
Q 2728 3278 2906 2969 
L 2906 3500 
L 3481 3500 
L 3481 434 
z
" transform="scale(0.015625)"/>
       <path id="DejaVuSans-22" d="M 1147 4666 
L 1147 2931 
L 616 2931 
L 616 4666 
L 1147 4666 
z
M 2328 4666 
L 2328 2931 
L 1797 2931 
L 1797 4666 
L 2328 4666 
z
" transform="scale(0.015625)"/>
       <path id="DejaVuSans-6d" d="M 3328 2828 
Q 3544 3216 3844 3400 
Q 4144 3584 4550 3584 
Q 5097 3584 5394 3201 
Q 5691 2819 5691 2113 
L 5691 0 
L 5113 0 
L 5113 2094 
Q 5113 2597 4934 2840 
Q 4756 3084 4391 3084 
Q 3944 3084 3684 2787 
Q 3425 2491 3425 1978 
L 3425 0 
L 2847 0 
L 2847 2094 
Q 2847 2600 2669 2842 
Q 2491 3084 2119 3084 
Q 1678 3084 1418 2786 
Q 1159 2488 1159 1978 
L 1159 0 
L 581 0 
L 581 3500 
L 1159 3500 
L 1159 2956 
Q 1356 3278 1631 3431 
Q 1906 3584 2284 3584 
Q 2666 3584 2933 3390 
Q 3200 3197 3328 2828 
z
" transform="scale(0.015625)"/>
       <path id="DejaVuSans-48" d="M 628 4666 
L 1259 4666 
L 1259 2753 
L 3553 2753 
L 3553 4666 
L 4184 4666 
L 4184 0 
L 3553 0 
L 3553 2222 
L 1259 2222 
L 1259 0 
L 628 0 
L 628 4666 
z
" transform="scale(0.015625)"/>
       <path id="DejaVuSans-61" d="M 2194 1759 
Q 1497 1759 1228 1600 
Q 959 1441 959 1056 
Q 959 750 1161 570 
Q 1363 391 1709 391 
Q 2188 391 2477 730 
Q 2766 1069 2766 1631 
L 2766 1759 
L 2194 1759 
z
M 3341 1997 
L 3341 0 
L 2766 0 
L 2766 531 
Q 2569 213 2275 61 
Q 1981 -91 1556 -91 
Q 1019 -91 701 211 
Q 384 513 384 1019 
Q 384 1609 779 1909 
Q 1175 2209 1959 2209 
L 2766 2209 
L 2766 2266 
Q 2766 2663 2505 2880 
Q 2244 3097 1772 3097 
Q 1472 3097 1187 3025 
Q 903 2953 641 2809 
L 641 3341 
Q 956 3463 1253 3523 
Q 1550 3584 1831 3584 
Q 2591 3584 2966 3190 
Q 3341 2797 3341 1997 
z
" transform="scale(0.015625)"/>
       <path id="DejaVuSans-29" d="M 513 4856 
L 1013 4856 
Q 1481 4119 1714 3412 
Q 1947 2706 1947 2009 
Q 1947 1309 1714 600 
Q 1481 -109 1013 -844 
L 513 -844 
Q 928 -128 1133 580 
Q 1338 1288 1338 2009 
Q 1338 2731 1133 3434 
Q 928 4138 513 4856 
z
" transform="scale(0.015625)"/>
      </defs>
      <use xlink:href="#DejaVuSans-28"/>
      <use xlink:href="#DejaVuSans-55" x="39.013672"/>
      <use xlink:href="#DejaVuSans-73" x="112.207031"/>
      <use xlink:href="#DejaVuSans-69" x="164.306641"/>
      <use xlink:href="#DejaVuSans-6e" x="192.089844"/>
      <use xlink:href="#DejaVuSans-67" x="255.46875"/>
      <use xlink:href="#DejaVuSans-20" x="318.945312"/>
      <use xlink:href="#DejaVuSans-22" x="350.732422"/>
      <use xlink:href="#DejaVuSans-6d" x="396.728516"/>
      <use xlink:href="#DejaVuSans-65" x="494.140625"/>
      <use xlink:href="#DejaVuSans-72" x="555.664062"/>
      <use xlink:href="#DejaVuSans-67" x="595.027344"/>
      <use xlink:href="#DejaVuSans-65" x="658.503906"/>
      <use xlink:href="#DejaVuSans-22" x="720.027344"/>
      <use xlink:href="#DejaVuSans-20" x="766.023438"/>
      <use xlink:href="#DejaVuSans-54" x="797.810547"/>
      <use xlink:href="#DejaVuSans-68" x="858.894531"/>
      <use xlink:href="#DejaVuSans-72" x="922.273438"/>
      <use xlink:href="#DejaVuSans-65" x="961.136719"/>
      <use xlink:href="#DejaVuSans-73" x="1022.660156"/>
      <use xlink:href="#DejaVuSans-68" x="1074.759766"/>
      <use xlink:href="#DejaVuSans-6f" x="1138.138672"/>
      <use xlink:href="#DejaVuSans-6c" x="1199.320312"/>
      <use xlink:href="#DejaVuSans-64" x="1227.103516"/>
      <use xlink:href="#DejaVuSans-20" x="1290.580078"/>
      <use xlink:href="#DejaVuSans-48" x="1322.367188"/>
      <use xlink:href="#DejaVuSans-61" x="1397.5625"/>
      <use xlink:href="#DejaVuSans-6e" x="1458.841797"/>
      <use xlink:href="#DejaVuSans-64" x="1522.220703"/>
      <use xlink:href="#DejaVuSans-6c" x="1585.697266"/>
      <use xlink:href="#DejaVuSans-69" x="1613.480469"/>
      <use xlink:href="#DejaVuSans-6e" x="1641.263672"/>
      <use xlink:href="#DejaVuSans-67" x="1704.642578"/>
      <use xlink:href="#DejaVuSans-29" x="1768.119141"/>
     </g>
    </g>
   </g>
   <g id="matplotlib.axis_2">
    <g id="ytick_1">
     <g id="line2d_6">
      <defs>
       <path id="m964cf37d6c" d="M 0 0 
L -3.5 0 
" style="stroke: #000000; stroke-width: 0.8"/>
      </defs>
      <g>
       <use xlink:href="#m964cf37d6c" x="71.48" y="423.46084" style="stroke: #000000; stroke-width: 0.8"/>
      </g>
     </g>
     <g id="text_7">
      <!-- −3 -->
      <g transform="translate(34.995625 431.059278) scale(0.2 -0.2)">
       <defs>
        <path id="DejaVuSans-2212" d="M 678 2272 
L 4684 2272 
L 4684 1741 
L 678 1741 
L 678 2272 
z
" transform="scale(0.015625)"/>
        <path id="DejaVuSans-33" d="M 2597 2516 
Q 3050 2419 3304 2112 
Q 3559 1806 3559 1356 
Q 3559 666 3084 287 
Q 2609 -91 1734 -91 
Q 1441 -91 1130 -33 
Q 819 25 488 141 
L 488 750 
Q 750 597 1062 519 
Q 1375 441 1716 441 
Q 2309 441 2620 675 
Q 2931 909 2931 1356 
Q 2931 1769 2642 2001 
Q 2353 2234 1838 2234 
L 1294 2234 
L 1294 2753 
L 1863 2753 
Q 2328 2753 2575 2939 
Q 2822 3125 2822 3475 
Q 2822 3834 2567 4026 
Q 2313 4219 1838 4219 
Q 1578 4219 1281 4162 
Q 984 4106 628 3988 
L 628 4550 
Q 988 4650 1302 4700 
Q 1616 4750 1894 4750 
Q 2613 4750 3031 4423 
Q 3450 4097 3450 3541 
Q 3450 3153 3228 2886 
Q 3006 2619 2597 2516 
z
" transform="scale(0.015625)"/>
       </defs>
       <use xlink:href="#DejaVuSans-2212"/>
       <use xlink:href="#DejaVuSans-33" x="83.789062"/>
      </g>
     </g>
    </g>
    <g id="ytick_2">
     <g id="line2d_7">
      <g>
       <use xlink:href="#m964cf37d6c" x="71.48" y="322.822604" style="stroke: #000000; stroke-width: 0.8"/>
      </g>
     </g>
     <g id="text_8">
      <!-- −2 -->
      <g transform="translate(34.995625 330.421041) scale(0.2 -0.2)">
       <use xlink:href="#DejaVuSans-2212"/>
       <use xlink:href="#DejaVuSans-32" x="83.789062"/>
      </g>
     </g>
    </g>
    <g id="ytick_3">
     <g id="line2d_8">
      <g>
       <use xlink:href="#m964cf37d6c" x="71.48" y="222.184367" style="stroke: #000000; stroke-width: 0.8"/>
      </g>
     </g>
     <g id="text_9">
      <!-- −1 -->
      <g transform="translate(34.995625 229.782805) scale(0.2 -0.2)">
       <defs>
        <path id="DejaVuSans-31" d="M 794 531 
L 1825 531 
L 1825 4091 
L 703 3866 
L 703 4441 
L 1819 4666 
L 2450 4666 
L 2450 531 
L 3481 531 
L 3481 0 
L 794 0 
L 794 531 
z
" transform="scale(0.015625)"/>
       </defs>
       <use xlink:href="#DejaVuSans-2212"/>
       <use xlink:href="#DejaVuSans-31" x="83.789062"/>
      </g>
     </g>
    </g>
    <g id="ytick_4">
     <g id="line2d_9">
      <g>
       <use xlink:href="#m964cf37d6c" x="71.48" y="121.546131" style="stroke: #000000; stroke-width: 0.8"/>
      </g>
     </g>
     <g id="text_10">
      <!-- 0 -->
      <g transform="translate(51.755 129.144568) scale(0.2 -0.2)">
       <use xlink:href="#DejaVuSans-30"/>
      </g>
     </g>
    </g>
    <g id="ytick_5">
     <g id="line2d_10">
      <g>
       <use xlink:href="#m964cf37d6c" x="71.48" y="20.907894" style="stroke: #000000; stroke-width: 0.8"/>
      </g>
     </g>
     <g id="text_11">
      <!-- 1 -->
      <g transform="translate(51.755 28.506332) scale(0.2 -0.2)">
       <use xlink:href="#DejaVuSans-31"/>
      </g>
     </g>
    </g>
    <g id="text_12">
     <!-- R2 -->
     <g transform="translate(26.83625 263.986938) rotate(-90) scale(0.2 -0.2)">
      <defs>
       <path id="DejaVuSans-52" d="M 2841 2188 
Q 3044 2119 3236 1894 
Q 3428 1669 3622 1275 
L 4263 0 
L 3584 0 
L 2988 1197 
Q 2756 1666 2539 1819 
Q 2322 1972 1947 1972 
L 1259 1972 
L 1259 0 
L 628 0 
L 628 4666 
L 2053 4666 
Q 2853 4666 3247 4331 
Q 3641 3997 3641 3322 
Q 3641 2881 3436 2590 
Q 3231 2300 2841 2188 
z
M 1259 4147 
L 1259 2491 
L 2053 2491 
Q 2509 2491 2742 2702 
Q 2975 2913 2975 3322 
Q 2975 3731 2742 3939 
Q 2509 4147 2053 4147 
L 1259 4147 
z
" transform="scale(0.015625)"/>
      </defs>
      <use xlink:href="#DejaVuSans-52"/>
      <use xlink:href="#DejaVuSans-32" x="69.482422"/>
     </g>
    </g>
   </g>
   <g id="line2d_11">
    <path d="M 120.103636 33.61575 
L 140.794545 34.222829 
L 161.485455 34.771811 
L 182.176364 34.249552 
L 202.867273 35.190071 
L 223.558182 35.566731 
L 244.249091 37.903913 
L 264.94 37.615219 
L 285.630909 38.744027 
L 306.321818 37.959464 
L 327.012727 38.650794 
L 347.703636 40.253886 
L 368.394545 40.66336 
L 389.085455 41.381786 
L 409.776364 44.46942 
L 430.467273 43.078113 
L 451.158182 42.312005 
L 471.849091 41.497207 
L 492.54 43.443113 
L 513.230909 45.397645 
L 533.921818 44.464023 
L 554.612727 45.443553 
L 575.303636 46.669175 
L 595.994545 45.156676 
L 616.685455 47.818082 
L 637.376364 49.867335 
L 658.067273 49.673985 
L 678.758182 52.348838 
L 699.449091 58.454961 
L 720.14 67.419132 
L 740.830909 70.656357 
L 761.521818 69.914749 
L 782.212727 79.084933 
L 802.903636 84.81796 
L 823.594545 84.237362 
L 844.285455 86.104589 
L 864.976364 87.833076 
L 885.667273 108.455618 
L 906.358182 130.313087 
L 927.049091 241.624346 
L 947.74 221.986935 
L 968.430909 222.881343 
L 989.121818 201.043176 
L 1009.812727 264.545771 
L 1030.503636 196.627717 
L 1051.194545 336.348324 
L 1071.885455 336.348324 
L 1092.576364 261.175903 
" clip-path="url(#p0f5faba2dc)" style="fill: none; stroke: #1f77b4; stroke-width: 1.5; stroke-linecap: square"/>
   </g>
   <g id="line2d_12">
    <path d="M 120.103636 36.019144 
L 140.794545 36.770087 
L 161.485455 36.59215 
L 182.176364 36.581542 
L 202.867273 36.684141 
L 223.558182 38.686437 
L 244.249091 41.248063 
L 264.94 41.661209 
L 285.630909 44.532167 
L 306.321818 43.054322 
L 327.012727 43.629121 
L 347.703636 44.326719 
L 368.394545 45.519468 
L 389.085455 45.518055 
L 409.776364 52.862208 
L 430.467273 51.570078 
L 451.158182 49.536616 
L 471.849091 50.389909 
L 492.54 53.157479 
L 513.230909 52.437034 
L 533.921818 52.889295 
L 554.612727 52.018248 
L 575.303636 52.911915 
L 595.994545 52.755186 
L 616.685455 54.078179 
L 637.376364 58.702247 
L 658.067273 60.032268 
L 678.758182 61.162736 
L 699.449091 66.967779 
L 720.14 83.131713 
L 740.830909 82.71605 
L 761.521818 81.834698 
L 782.212727 95.121843 
L 802.903636 98.835464 
L 823.594545 98.658613 
L 844.285455 99.727299 
L 864.976364 109.023518 
L 885.667273 133.939451 
L 906.358182 155.848337 
L 927.049091 304.413193 
L 947.74 282.204242 
L 968.430909 274.207731 
L 989.121818 259.461027 
L 1009.812727 314.081761 
L 1030.503636 228.8327 
L 1051.194545 361.710946 
L 1071.885455 361.710946 
L 1092.576364 266.441051 
" clip-path="url(#p0f5faba2dc)" style="fill: none; stroke: #ff7f0e; stroke-width: 1.5; stroke-linecap: square"/>
   </g>
   <g id="line2d_13">
    <path d="M 120.103636 33.392624 
L 140.794545 35.025874 
L 161.485455 35.297943 
L 182.176364 35.29622 
L 202.867273 35.953607 
L 223.558182 35.901669 
L 244.249091 36.877604 
L 264.94 37.557409 
L 285.630909 38.794355 
L 306.321818 38.262198 
L 327.012727 38.79854 
L 347.703636 41.322757 
L 368.394545 40.965514 
L 389.085455 40.285047 
L 409.776364 45.709483 
L 430.467273 43.591877 
L 451.158182 43.74484 
L 471.849091 44.167354 
L 492.54 47.667652 
L 513.230909 46.347483 
L 533.921818 48.2822 
L 554.612727 47.900324 
L 575.303636 47.23341 
L 595.994545 45.853694 
L 616.685455 46.906034 
L 637.376364 50.969461 
L 658.067273 49.196166 
L 678.758182 49.861799 
L 699.449091 62.628722 
L 720.14 68.984479 
L 740.830909 70.914873 
L 761.521818 74.902284 
L 782.212727 81.685992 
L 802.903636 90.954831 
L 823.594545 89.851338 
L 844.285455 93.724838 
L 864.976364 100.44147 
L 885.667273 119.385551 
L 906.358182 140.658008 
L 927.049091 279.412318 
L 947.74 258.669792 
L 968.430909 253.266042 
L 989.121818 224.392875 
L 1009.812727 274.70589 
L 1030.503636 210.426857 
L 1051.194545 344.162218 
L 1071.885455 344.162218 
L 1092.576364 282.596429 
" clip-path="url(#p0f5faba2dc)" style="fill: none; stroke: #2ca02c; stroke-width: 1.5; stroke-linecap: square"/>
   </g>
   <g id="line2d_14"/>
   <g id="line2d_15"/>
   <g id="line2d_16"/>
   <g id="patch_3">
    <path d="M 71.48 490.552 
L 71.48 10.8 
" style="fill: none; stroke: #000000; stroke-width: 0.8; stroke-linejoin: miter; stroke-linecap: square"/>
   </g>
   <g id="patch_4">
    <path d="M 1141.2 490.552 
L 1141.2 10.8 
" style="fill: none; stroke: #000000; stroke-width: 0.8; stroke-linejoin: miter; stroke-linecap: square"/>
   </g>
   <g id="patch_5">
    <path d="M 71.48 490.552 
L 1141.2 490.552 
" style="fill: none; stroke: #000000; stroke-width: 0.8; stroke-linejoin: miter; stroke-linecap: square"/>
   </g>
   <g id="patch_6">
    <path d="M 71.48 10.8 
L 1141.2 10.8 
" style="fill: none; stroke: #000000; stroke-width: 0.8; stroke-linejoin: miter; stroke-linecap: square"/>
   </g>
   <g id="legend_1">
    <g id="patch_7">
     <path d="M 82.68 482.552 
L 163.665 482.552 
Q 166.865 482.552 166.865 479.352 
L 166.865 410.497 
Q 166.865 407.297 163.665 407.297 
L 82.68 407.297 
Q 79.48 407.297 79.48 410.497 
L 79.48 479.352 
Q 79.48 482.552 82.68 482.552 
z
" style="fill: #ffffff; opacity: 0.8; stroke: #cccccc; stroke-linejoin: miter"/>
    </g>
    <g id="line2d_17">
     <path d="M 85.88 420.2545 
L 101.88 420.2545 
L 117.88 420.2545 
" style="fill: none; stroke: #1f77b4; stroke-width: 1.5; stroke-linecap: square"/>
    </g>
    <g id="text_13">
     <!-- rf -->
     <g transform="translate(130.68 425.8545) scale(0.16 -0.16)">
      <defs>
       <path id="DejaVuSans-66" d="M 2375 4863 
L 2375 4384 
L 1825 4384 
Q 1516 4384 1395 4259 
Q 1275 4134 1275 3809 
L 1275 3500 
L 2222 3500 
L 2222 3053 
L 1275 3053 
L 1275 0 
L 697 0 
L 697 3053 
L 147 3053 
L 147 3500 
L 697 3500 
L 697 3744 
Q 697 4328 969 4595 
Q 1241 4863 1831 4863 
L 2375 4863 
z
" transform="scale(0.015625)"/>
      </defs>
      <use xlink:href="#DejaVuSans-72"/>
      <use xlink:href="#DejaVuSans-66" x="41.113281"/>
     </g>
    </g>
    <g id="line2d_18">
     <path d="M 85.88 443.7395 
L 101.88 443.7395 
L 117.88 443.7395 
" style="fill: none; stroke: #ff7f0e; stroke-width: 1.5; stroke-linecap: square"/>
    </g>
    <g id="text_14">
     <!-- xgb -->
     <g transform="translate(130.68 449.3395) scale(0.16 -0.16)">
      <defs>
       <path id="DejaVuSans-78" d="M 3513 3500 
L 2247 1797 
L 3578 0 
L 2900 0 
L 1881 1375 
L 863 0 
L 184 0 
L 1544 1831 
L 300 3500 
L 978 3500 
L 1906 2253 
L 2834 3500 
L 3513 3500 
z
" transform="scale(0.015625)"/>
       <path id="DejaVuSans-62" d="M 3116 1747 
Q 3116 2381 2855 2742 
Q 2594 3103 2138 3103 
Q 1681 3103 1420 2742 
Q 1159 2381 1159 1747 
Q 1159 1113 1420 752 
Q 1681 391 2138 391 
Q 2594 391 2855 752 
Q 3116 1113 3116 1747 
z
M 1159 2969 
Q 1341 3281 1617 3432 
Q 1894 3584 2278 3584 
Q 2916 3584 3314 3078 
Q 3713 2572 3713 1747 
Q 3713 922 3314 415 
Q 2916 -91 2278 -91 
Q 1894 -91 1617 61 
Q 1341 213 1159 525 
L 1159 0 
L 581 0 
L 581 4863 
L 1159 4863 
L 1159 2969 
z
" transform="scale(0.015625)"/>
      </defs>
      <use xlink:href="#DejaVuSans-78"/>
      <use xlink:href="#DejaVuSans-67" x="59.179688"/>
      <use xlink:href="#DejaVuSans-62" x="122.65625"/>
     </g>
    </g>
    <g id="line2d_19">
     <path d="M 85.88 467.2245 
L 101.88 467.2245 
L 117.88 467.2245 
" style="fill: none; stroke: #2ca02c; stroke-width: 1.5; stroke-linecap: square"/>
    </g>
    <g id="text_15">
     <!-- gbr -->
     <g transform="translate(130.68 472.8245) scale(0.16 -0.16)">
      <use xlink:href="#DejaVuSans-67"/>
      <use xlink:href="#DejaVuSans-62" x="63.476562"/>
      <use xlink:href="#DejaVuSans-72" x="126.953125"/>
     </g>
    </g>
   </g>
  </g>
 </g>
 <defs>
  <clipPath id="p0f5faba2dc">
   <rect x="71.48" y="10.8" width="1069.72" height="479.752"/>
  </clipPath>
 </defs>
</svg>
