<?xml version="1.0" encoding="utf-8" standalone="no"?>
<!DOCTYPE svg PUBLIC "-//W3C//DTD SVG 1.1//EN"
  "http://www.w3.org/Graphics/SVG/1.1/DTD/svg11.dtd">
<svg xmlns:xlink="http://www.w3.org/1999/xlink" width="1152pt" height="576pt" viewBox="0 0 1152 576" xmlns="http://www.w3.org/2000/svg" version="1.1">
 <metadata>
  <rdf:RDF xmlns:dc="http://purl.org/dc/elements/1.1/" xmlns:cc="http://creativecommons.org/ns#" xmlns:rdf="http://www.w3.org/1999/02/22-rdf-syntax-ns#">
   <cc:Work>
    <dc:type rdf:resource="http://purl.org/dc/dcmitype/StillImage"/>
    <dc:date>2025-03-23T22:22:20.933123</dc:date>
    <dc:format>image/svg+xml</dc:format>
    <dc:creator>
     <cc:Agent>
      <dc:title>Matplotlib v3.9.2, https://matplotlib.org/</dc:title>
     </cc:Agent>
    </dc:creator>
   </cc:Work>
  </rdf:RDF>
 </metadata>
 <defs>
  <style type="text/css">*{stroke-linejoin: round; stroke-linecap: butt}</style>
 </defs>
 <g id="figure_1">
  <g id="patch_1">
   <path d="M 0 576 
L 1152 576 
L 1152 0 
L 0 0 
z
" style="fill: #ffffff"/>
  </g>
  <g id="axes_1">
   <g id="patch_2">
    <path d="M 67.43 490.552 
L 1141.2 490.552 
L 1141.2 10.8 
L 67.43 10.8 
z
" style="fill: #ffffff"/>
   </g>
   <g id="PolyCollection_1">
    <defs>
     <path id="m13ee8bc88b" d="M 116.237727 -270.209624 
L 116.237727 -203.150118 
L 137.006973 -144.945181 
L 157.776219 -153.348942 
L 178.545464 -150.060238 
L 199.31471 -137.756065 
L 220.083956 -137.840969 
L 240.853201 -152.340298 
L 261.622447 -151.897388 
L 282.391692 -137.443603 
L 303.160938 -152.697251 
L 323.930184 -143.769131 
L 344.699429 -133.569748 
L 365.468675 -136.107565 
L 386.237921 -143.71423 
L 407.007166 -158.869707 
L 427.776412 -154.512769 
L 448.545658 -154.558621 
L 469.314903 -150.892139 
L 490.084149 -125.838942 
L 510.853395 -156.156149 
L 531.62264 -129.577221 
L 552.391886 -118.761133 
L 573.161132 -130.151607 
L 593.930377 -127.323071 
L 614.699623 -149.672541 
L 635.468868 -147.066033 
L 656.238114 -170.927363 
L 677.00736 -143.084338 
L 697.776605 -134.033954 
L 718.545851 -114.711316 
L 739.315097 -161.834243 
L 760.084342 -154.992431 
L 780.853588 -121.618829 
L 801.622834 -142.291291 
L 822.392079 -145.34393 
L 843.161325 -127.025038 
L 863.930571 -145.116138 
L 884.699816 -126.840512 
L 905.469062 -152.555006 
L 926.238308 -154.045096 
L 947.007553 -146.970757 
L 967.776799 -162.274789 
L 988.546044 -127.489947 
L 1009.31529 -151.774155 
L 1030.084536 -125.167277 
L 1050.853781 -149.944362 
L 1071.623027 -147.734536 
L 1092.392273 -142.093309 
L 1092.392273 -211.554187 
L 1092.392273 -211.554187 
L 1071.623027 -215.987301 
L 1050.853781 -264.187012 
L 1030.084536 -172.172537 
L 1009.31529 -210.98653 
L 988.546044 -222.760276 
L 967.776799 -209.683287 
L 947.007553 -269.4066 
L 926.238308 -261.779769 
L 905.469062 -251.89476 
L 884.699816 -226.98047 
L 863.930571 -250.368035 
L 843.161325 -200.365397 
L 822.392079 -238.004081 
L 801.622834 -255.853812 
L 780.853588 -222.388197 
L 760.084342 -217.38405 
L 739.315097 -244.753334 
L 718.545851 -205.314004 
L 697.776605 -223.4726 
L 677.00736 -202.680678 
L 656.238114 -221.047587 
L 635.468868 -263.194367 
L 614.699623 -225.859872 
L 593.930377 -212.439886 
L 573.161132 -245.327334 
L 552.391886 -189.563805 
L 531.62264 -218.815163 
L 510.853395 -210.963719 
L 490.084149 -179.652863 
L 469.314903 -285.490929 
L 448.545658 -214.972651 
L 427.776412 -202.112936 
L 407.007166 -279.770487 
L 386.237921 -212.690815 
L 365.468675 -219.018034 
L 344.699429 -178.910078 
L 323.930184 -211.878197 
L 303.160938 -210.555551 
L 282.391692 -180.239439 
L 261.622447 -181.235765 
L 240.853201 -204.236393 
L 220.083956 -194.546 
L 199.31471 -186.606527 
L 178.545464 -213.636928 
L 157.776219 -196.496297 
L 137.006973 -194.31736 
L 116.237727 -270.209624 
z
" style="stroke: #1f77b4; stroke-opacity: 0.2"/>
    </defs>
    <g clip-path="url(#pcd6d1e89d2)">
     <use xlink:href="#m13ee8bc88b" x="0" y="576" style="fill: #1f77b4; fill-opacity: 0.2; stroke: #1f77b4; stroke-opacity: 0.2"/>
    </g>
   </g>
   <g id="PolyCollection_2">
    <defs>
     <path id="m014894b6b3" d="M 116.237727 -278.560738 
L 116.237727 -200.148348 
L 137.006973 -170.326032 
L 157.776219 -187.676727 
L 178.545464 -177.536878 
L 199.31471 -164.213048 
L 220.083956 -141.934862 
L 240.853201 -152.931098 
L 261.622447 -137.412502 
L 282.391692 -111.454196 
L 303.160938 -161.090328 
L 323.930184 -181.366164 
L 344.699429 -138.669444 
L 365.468675 -144.537832 
L 386.237921 -169.432035 
L 407.007166 -154.09659 
L 427.776412 -143.887467 
L 448.545658 -171.729919 
L 469.314903 -210.155848 
L 490.084149 -142.533055 
L 510.853395 -140.061451 
L 531.62264 -148.303391 
L 552.391886 -161.994756 
L 573.161132 -166.618456 
L 593.930377 -138.738654 
L 614.699623 -172.946134 
L 635.468868 -175.121212 
L 656.238114 -156.775585 
L 677.00736 -138.105719 
L 697.776605 -132.49854 
L 718.545851 -151.030007 
L 739.315097 -145.411155 
L 760.084342 -146.612308 
L 780.853588 -130.981738 
L 801.622834 -157.219447 
L 822.392079 -153.766579 
L 843.161325 -126.191474 
L 863.930571 -160.471825 
L 884.699816 -173.429946 
L 905.469062 -151.725783 
L 926.238308 -142.880392 
L 947.007553 -133.48067 
L 967.776799 -168.602022 
L 988.546044 -142.907432 
L 1009.31529 -175.551012 
L 1030.084536 -107.254909 
L 1050.853781 -153.071641 
L 1071.623027 -133.02357 
L 1092.392273 -147.859738 
L 1092.392273 -225.44896 
L 1092.392273 -225.44896 
L 1071.623027 -183.328925 
L 1050.853781 -269.535308 
L 1030.084536 -191.111612 
L 1009.31529 -197.399821 
L 988.546044 -225.348746 
L 967.776799 -240.629161 
L 947.007553 -230.97429 
L 926.238308 -293.798867 
L 905.469062 -207.997029 
L 884.699816 -219.324621 
L 863.930571 -251.682894 
L 843.161325 -199.291382 
L 822.392079 -211.949169 
L 801.622834 -270.854555 
L 780.853588 -270.865592 
L 760.084342 -246.646536 
L 739.315097 -196.741287 
L 718.545851 -210.090713 
L 697.776605 -205.843276 
L 677.00736 -181.269983 
L 656.238114 -214.374157 
L 635.468868 -245.324626 
L 614.699623 -257.778937 
L 593.930377 -220.205359 
L 573.161132 -263.827431 
L 552.391886 -228.546836 
L 531.62264 -208.136407 
L 510.853395 -204.256804 
L 490.084149 -195.596072 
L 469.314903 -284.170523 
L 448.545658 -238.068029 
L 427.776412 -231.717599 
L 407.007166 -261.350758 
L 386.237921 -209.589296 
L 365.468675 -242.0995 
L 344.699429 -211.041618 
L 323.930184 -233.489362 
L 303.160938 -205.388086 
L 282.391692 -175.341793 
L 261.622447 -228.152267 
L 240.853201 -258.179761 
L 220.083956 -218.618087 
L 199.31471 -244.28773 
L 178.545464 -261.656877 
L 157.776219 -243.844311 
L 137.006973 -271.053569 
L 116.237727 -278.560738 
z
" style="stroke: #ff7f0e; stroke-opacity: 0.2"/>
    </defs>
    <g clip-path="url(#pcd6d1e89d2)">
     <use xlink:href="#m014894b6b3" x="0" y="576" style="fill: #ff7f0e; fill-opacity: 0.2; stroke: #ff7f0e; stroke-opacity: 0.2"/>
    </g>
   </g>
   <g id="PolyCollection_3">
    <defs>
     <path id="mfe9db1a39a" d="M 116.237727 -474.333207 
L 116.237727 -343.247009 
L 137.006973 -234.750035 
L 157.776219 -223.598326 
L 178.545464 -258.433085 
L 199.31471 -255.234166 
L 220.083956 -257.797959 
L 240.853201 -272.845462 
L 261.622447 -146.637337 
L 282.391692 -167.213199 
L 303.160938 -238.110746 
L 323.930184 -266.357255 
L 344.699429 -169.871942 
L 365.468675 -202.453351 
L 386.237921 -273.454236 
L 407.007166 -298.580729 
L 427.776412 -264.778464 
L 448.545658 -265.06773 
L 469.314903 -296.542466 
L 490.084149 -244.40996 
L 510.853395 -217.290946 
L 531.62264 -319.818789 
L 552.391886 -281.029696 
L 573.161132 -231.557866 
L 593.930377 -288.284414 
L 614.699623 -253.421816 
L 635.468868 -220.239809 
L 656.238114 -308.833119 
L 677.00736 -222.627379 
L 697.776605 -317.192241 
L 718.545851 -248.617541 
L 739.315097 -230.030718 
L 760.084342 -205.133098 
L 780.853588 -254.971723 
L 801.622834 -283.618633 
L 822.392079 -252.053146 
L 843.161325 -233.219701 
L 863.930571 -244.577477 
L 884.699816 -275.422489 
L 905.469062 -280.465205 
L 926.238308 -301.942577 
L 947.007553 -216.440139 
L 967.776799 -206.288566 
L 988.546044 -202.068636 
L 1009.31529 -231.301053 
L 1030.084536 -177.898013 
L 1050.853781 -305.637275 
L 1071.623027 -291.415243 
L 1092.392273 -249.054527 
L 1092.392273 -326.080432 
L 1092.392273 -326.080432 
L 1071.623027 -334.627839 
L 1050.853781 -413.578977 
L 1030.084536 -284.740779 
L 1009.31529 -339.512081 
L 988.546044 -379.268407 
L 967.776799 -286.231642 
L 947.007553 -395.225756 
L 926.238308 -469.050416 
L 905.469062 -349.249801 
L 884.699816 -380.34083 
L 863.930571 -405.560653 
L 843.161325 -297.211727 
L 822.392079 -329.977812 
L 801.622834 -386.104036 
L 780.853588 -312.95439 
L 760.084342 -353.475062 
L 739.315097 -396.488809 
L 718.545851 -334.085449 
L 697.776605 -392.043639 
L 677.00736 -296.434325 
L 656.238114 -373.950386 
L 635.468868 -329.159185 
L 614.699623 -362.533544 
L 593.930377 -430.211866 
L 573.161132 -316.301712 
L 552.391886 -345.069039 
L 531.62264 -379.283336 
L 510.853395 -303.45328 
L 490.084149 -332.087592 
L 469.314903 -543.393091 
L 448.545658 -307.543293 
L 427.776412 -324.668727 
L 407.007166 -396.418591 
L 386.237921 -341.912862 
L 365.468675 -371.494654 
L 344.699429 -313.624131 
L 323.930184 -328.885497 
L 303.160938 -310.959306 
L 282.391692 -354.393115 
L 261.622447 -309.568214 
L 240.853201 -344.243651 
L 220.083956 -316.56092 
L 199.31471 -333.287545 
L 178.545464 -365.765888 
L 157.776219 -324.277078 
L 137.006973 -385.107554 
L 116.237727 -474.333207 
z
" style="stroke: #2ca02c; stroke-opacity: 0.2"/>
    </defs>
    <g clip-path="url(#pcd6d1e89d2)">
     <use xlink:href="#mfe9db1a39a" x="0" y="576" style="fill: #2ca02c; fill-opacity: 0.2; stroke: #2ca02c; stroke-opacity: 0.2"/>
    </g>
   </g>
   <g id="matplotlib.axis_1">
    <g id="xtick_1">
     <g id="line2d_1">
      <defs>
       <path id="me3d3db59e1" d="M 0 0 
L 0 3.5 
" style="stroke: #000000; stroke-width: 0.8"/>
      </defs>
      <g>
       <use xlink:href="#me3d3db59e1" x="105.853104" y="490.552" style="stroke: #000000; stroke-width: 0.8"/>
      </g>
     </g>
     <g id="text_1">
      <!-- 0 -->
      <g transform="translate(99.490604 512.748875) scale(0.2 -0.2)">
       <defs>
        <path id="DejaVuSans-30" d="M 2034 4250 
Q 1547 4250 1301 3770 
Q 1056 3291 1056 2328 
Q 1056 1369 1301 889 
Q 1547 409 2034 409 
Q 2525 409 2770 889 
Q 3016 1369 3016 2328 
Q 3016 3291 2770 3770 
Q 2525 4250 2034 4250 
z
M 2034 4750 
Q 2819 4750 3233 4129 
Q 3647 3509 3647 2328 
Q 3647 1150 3233 529 
Q 2819 -91 2034 -91 
Q 1250 -91 836 529 
Q 422 1150 422 2328 
Q 422 3509 836 4129 
Q 1250 4750 2034 4750 
z
" transform="scale(0.015625)"/>
       </defs>
       <use xlink:href="#DejaVuSans-30"/>
      </g>
     </g>
    </g>
    <g id="xtick_2">
     <g id="line2d_2">
      <g>
       <use xlink:href="#me3d3db59e1" x="313.545561" y="490.552" style="stroke: #000000; stroke-width: 0.8"/>
      </g>
     </g>
     <g id="text_2">
      <!-- 20 -->
      <g transform="translate(300.820561 512.748875) scale(0.2 -0.2)">
       <defs>
        <path id="DejaVuSans-32" d="M 1228 531 
L 3431 531 
L 3431 0 
L 469 0 
L 469 531 
Q 828 903 1448 1529 
Q 2069 2156 2228 2338 
Q 2531 2678 2651 2914 
Q 2772 3150 2772 3378 
Q 2772 3750 2511 3984 
Q 2250 4219 1831 4219 
Q 1534 4219 1204 4116 
Q 875 4013 500 3803 
L 500 4441 
Q 881 4594 1212 4672 
Q 1544 4750 1819 4750 
Q 2544 4750 2975 4387 
Q 3406 4025 3406 3419 
Q 3406 3131 3298 2873 
Q 3191 2616 2906 2266 
Q 2828 2175 2409 1742 
Q 1991 1309 1228 531 
z
" transform="scale(0.015625)"/>
       </defs>
       <use xlink:href="#DejaVuSans-32"/>
       <use xlink:href="#DejaVuSans-30" x="63.623047"/>
      </g>
     </g>
    </g>
    <g id="xtick_3">
     <g id="line2d_3">
      <g>
       <use xlink:href="#me3d3db59e1" x="521.238017" y="490.552" style="stroke: #000000; stroke-width: 0.8"/>
      </g>
     </g>
     <g id="text_3">
      <!-- 40 -->
      <g transform="translate(508.513017 512.748875) scale(0.2 -0.2)">
       <defs>
        <path id="DejaVuSans-34" d="M 2419 4116 
L 825 1625 
L 2419 1625 
L 2419 4116 
z
M 2253 4666 
L 3047 4666 
L 3047 1625 
L 3713 1625 
L 3713 1100 
L 3047 1100 
L 3047 0 
L 2419 0 
L 2419 1100 
L 313 1100 
L 313 1709 
L 2253 4666 
z
" transform="scale(0.015625)"/>
       </defs>
       <use xlink:href="#DejaVuSans-34"/>
       <use xlink:href="#DejaVuSans-30" x="63.623047"/>
      </g>
     </g>
    </g>
    <g id="xtick_4">
     <g id="line2d_4">
      <g>
       <use xlink:href="#me3d3db59e1" x="728.930474" y="490.552" style="stroke: #000000; stroke-width: 0.8"/>
      </g>
     </g>
     <g id="text_4">
      <!-- 60 -->
      <g transform="translate(716.205474 512.748875) scale(0.2 -0.2)">
       <defs>
        <path id="DejaVuSans-36" d="M 2113 2584 
Q 1688 2584 1439 2293 
Q 1191 2003 1191 1497 
Q 1191 994 1439 701 
Q 1688 409 2113 409 
Q 2538 409 2786 701 
Q 3034 994 3034 1497 
Q 3034 2003 2786 2293 
Q 2538 2584 2113 2584 
z
M 3366 4563 
L 3366 3988 
Q 3128 4100 2886 4159 
Q 2644 4219 2406 4219 
Q 1781 4219 1451 3797 
Q 1122 3375 1075 2522 
Q 1259 2794 1537 2939 
Q 1816 3084 2150 3084 
Q 2853 3084 3261 2657 
Q 3669 2231 3669 1497 
Q 3669 778 3244 343 
Q 2819 -91 2113 -91 
Q 1303 -91 875 529 
Q 447 1150 447 2328 
Q 447 3434 972 4092 
Q 1497 4750 2381 4750 
Q 2619 4750 2861 4703 
Q 3103 4656 3366 4563 
z
" transform="scale(0.015625)"/>
       </defs>
       <use xlink:href="#DejaVuSans-36"/>
       <use xlink:href="#DejaVuSans-30" x="63.623047"/>
      </g>
     </g>
    </g>
    <g id="xtick_5">
     <g id="line2d_5">
      <g>
       <use xlink:href="#me3d3db59e1" x="936.62293" y="490.552" style="stroke: #000000; stroke-width: 0.8"/>
      </g>
     </g>
     <g id="text_5">
      <!-- 80 -->
      <g transform="translate(923.89793 512.748875) scale(0.2 -0.2)">
       <defs>
        <path id="DejaVuSans-38" d="M 2034 2216 
Q 1584 2216 1326 1975 
Q 1069 1734 1069 1313 
Q 1069 891 1326 650 
Q 1584 409 2034 409 
Q 2484 409 2743 651 
Q 3003 894 3003 1313 
Q 3003 1734 2745 1975 
Q 2488 2216 2034 2216 
z
M 1403 2484 
Q 997 2584 770 2862 
Q 544 3141 544 3541 
Q 544 4100 942 4425 
Q 1341 4750 2034 4750 
Q 2731 4750 3128 4425 
Q 3525 4100 3525 3541 
Q 3525 3141 3298 2862 
Q 3072 2584 2669 2484 
Q 3125 2378 3379 2068 
Q 3634 1759 3634 1313 
Q 3634 634 3220 271 
Q 2806 -91 2034 -91 
Q 1263 -91 848 271 
Q 434 634 434 1313 
Q 434 1759 690 2068 
Q 947 2378 1403 2484 
z
M 1172 3481 
Q 1172 3119 1398 2916 
Q 1625 2713 2034 2713 
Q 2441 2713 2670 2916 
Q 2900 3119 2900 3481 
Q 2900 3844 2670 4047 
Q 2441 4250 2034 4250 
Q 1625 4250 1398 4047 
Q 1172 3844 1172 3481 
z
" transform="scale(0.015625)"/>
       </defs>
       <use xlink:href="#DejaVuSans-38"/>
       <use xlink:href="#DejaVuSans-30" x="63.623047"/>
      </g>
     </g>
    </g>
    <g id="text_6">
     <!-- Percentile Threshold -->
     <g transform="translate(502.535312 536.105125) scale(0.2 -0.2)">
      <defs>
       <path id="DejaVuSans-50" d="M 1259 4147 
L 1259 2394 
L 2053 2394 
Q 2494 2394 2734 2622 
Q 2975 2850 2975 3272 
Q 2975 3691 2734 3919 
Q 2494 4147 2053 4147 
L 1259 4147 
z
M 628 4666 
L 2053 4666 
Q 2838 4666 3239 4311 
Q 3641 3956 3641 3272 
Q 3641 2581 3239 2228 
Q 2838 1875 2053 1875 
L 1259 1875 
L 1259 0 
L 628 0 
L 628 4666 
z
" transform="scale(0.015625)"/>
       <path id="DejaVuSans-65" d="M 3597 1894 
L 3597 1613 
L 953 1613 
Q 991 1019 1311 708 
Q 1631 397 2203 397 
Q 2534 397 2845 478 
Q 3156 559 3463 722 
L 3463 178 
Q 3153 47 2828 -22 
Q 2503 -91 2169 -91 
Q 1331 -91 842 396 
Q 353 884 353 1716 
Q 353 2575 817 3079 
Q 1281 3584 2069 3584 
Q 2775 3584 3186 3129 
Q 3597 2675 3597 1894 
z
M 3022 2063 
Q 3016 2534 2758 2815 
Q 2500 3097 2075 3097 
Q 1594 3097 1305 2825 
Q 1016 2553 972 2059 
L 3022 2063 
z
" transform="scale(0.015625)"/>
       <path id="DejaVuSans-72" d="M 2631 2963 
Q 2534 3019 2420 3045 
Q 2306 3072 2169 3072 
Q 1681 3072 1420 2755 
Q 1159 2438 1159 1844 
L 1159 0 
L 581 0 
L 581 3500 
L 1159 3500 
L 1159 2956 
Q 1341 3275 1631 3429 
Q 1922 3584 2338 3584 
Q 2397 3584 2469 3576 
Q 2541 3569 2628 3553 
L 2631 2963 
z
" transform="scale(0.015625)"/>
       <path id="DejaVuSans-63" d="M 3122 3366 
L 3122 2828 
Q 2878 2963 2633 3030 
Q 2388 3097 2138 3097 
Q 1578 3097 1268 2742 
Q 959 2388 959 1747 
Q 959 1106 1268 751 
Q 1578 397 2138 397 
Q 2388 397 2633 464 
Q 2878 531 3122 666 
L 3122 134 
Q 2881 22 2623 -34 
Q 2366 -91 2075 -91 
Q 1284 -91 818 406 
Q 353 903 353 1747 
Q 353 2603 823 3093 
Q 1294 3584 2113 3584 
Q 2378 3584 2631 3529 
Q 2884 3475 3122 3366 
z
" transform="scale(0.015625)"/>
       <path id="DejaVuSans-6e" d="M 3513 2113 
L 3513 0 
L 2938 0 
L 2938 2094 
Q 2938 2591 2744 2837 
Q 2550 3084 2163 3084 
Q 1697 3084 1428 2787 
Q 1159 2491 1159 1978 
L 1159 0 
L 581 0 
L 581 3500 
L 1159 3500 
L 1159 2956 
Q 1366 3272 1645 3428 
Q 1925 3584 2291 3584 
Q 2894 3584 3203 3211 
Q 3513 2838 3513 2113 
z
" transform="scale(0.015625)"/>
       <path id="DejaVuSans-74" d="M 1172 4494 
L 1172 3500 
L 2356 3500 
L 2356 3053 
L 1172 3053 
L 1172 1153 
Q 1172 725 1289 603 
Q 1406 481 1766 481 
L 2356 481 
L 2356 0 
L 1766 0 
Q 1100 0 847 248 
Q 594 497 594 1153 
L 594 3053 
L 172 3053 
L 172 3500 
L 594 3500 
L 594 4494 
L 1172 4494 
z
" transform="scale(0.015625)"/>
       <path id="DejaVuSans-69" d="M 603 3500 
L 1178 3500 
L 1178 0 
L 603 0 
L 603 3500 
z
M 603 4863 
L 1178 4863 
L 1178 4134 
L 603 4134 
L 603 4863 
z
" transform="scale(0.015625)"/>
       <path id="DejaVuSans-6c" d="M 603 4863 
L 1178 4863 
L 1178 0 
L 603 0 
L 603 4863 
z
" transform="scale(0.015625)"/>
       <path id="DejaVuSans-20" transform="scale(0.015625)"/>
       <path id="DejaVuSans-54" d="M -19 4666 
L 3928 4666 
L 3928 4134 
L 2272 4134 
L 2272 0 
L 1638 0 
L 1638 4134 
L -19 4134 
L -19 4666 
z
" transform="scale(0.015625)"/>
       <path id="DejaVuSans-68" d="M 3513 2113 
L 3513 0 
L 2938 0 
L 2938 2094 
Q 2938 2591 2744 2837 
Q 2550 3084 2163 3084 
Q 1697 3084 1428 2787 
Q 1159 2491 1159 1978 
L 1159 0 
L 581 0 
L 581 4863 
L 1159 4863 
L 1159 2956 
Q 1366 3272 1645 3428 
Q 1925 3584 2291 3584 
Q 2894 3584 3203 3211 
Q 3513 2838 3513 2113 
z
" transform="scale(0.015625)"/>
       <path id="DejaVuSans-73" d="M 2834 3397 
L 2834 2853 
Q 2591 2978 2328 3040 
Q 2066 3103 1784 3103 
Q 1356 3103 1142 2972 
Q 928 2841 928 2578 
Q 928 2378 1081 2264 
Q 1234 2150 1697 2047 
L 1894 2003 
Q 2506 1872 2764 1633 
Q 3022 1394 3022 966 
Q 3022 478 2636 193 
Q 2250 -91 1575 -91 
Q 1294 -91 989 -36 
Q 684 19 347 128 
L 347 722 
Q 666 556 975 473 
Q 1284 391 1588 391 
Q 1994 391 2212 530 
Q 2431 669 2431 922 
Q 2431 1156 2273 1281 
Q 2116 1406 1581 1522 
L 1381 1569 
Q 847 1681 609 1914 
Q 372 2147 372 2553 
Q 372 3047 722 3315 
Q 1072 3584 1716 3584 
Q 2034 3584 2315 3537 
Q 2597 3491 2834 3397 
z
" transform="scale(0.015625)"/>
       <path id="DejaVuSans-6f" d="M 1959 3097 
Q 1497 3097 1228 2736 
Q 959 2375 959 1747 
Q 959 1119 1226 758 
Q 1494 397 1959 397 
Q 2419 397 2687 759 
Q 2956 1122 2956 1747 
Q 2956 2369 2687 2733 
Q 2419 3097 1959 3097 
z
M 1959 3584 
Q 2709 3584 3137 3096 
Q 3566 2609 3566 1747 
Q 3566 888 3137 398 
Q 2709 -91 1959 -91 
Q 1206 -91 779 398 
Q 353 888 353 1747 
Q 353 2609 779 3096 
Q 1206 3584 1959 3584 
z
" transform="scale(0.015625)"/>
       <path id="DejaVuSans-64" d="M 2906 2969 
L 2906 4863 
L 3481 4863 
L 3481 0 
L 2906 0 
L 2906 525 
Q 2725 213 2448 61 
Q 2172 -91 1784 -91 
Q 1150 -91 751 415 
Q 353 922 353 1747 
Q 353 2572 751 3078 
Q 1150 3584 1784 3584 
Q 2172 3584 2448 3432 
Q 2725 3281 2906 2969 
z
M 947 1747 
Q 947 1113 1208 752 
Q 1469 391 1925 391 
Q 2381 391 2643 752 
Q 2906 1113 2906 1747 
Q 2906 2381 2643 2742 
Q 2381 3103 1925 3103 
Q 1469 3103 1208 2742 
Q 947 2381 947 1747 
z
" transform="scale(0.015625)"/>
      </defs>
      <use xlink:href="#DejaVuSans-50"/>
      <use xlink:href="#DejaVuSans-65" x="56.677734"/>
      <use xlink:href="#DejaVuSans-72" x="118.201172"/>
      <use xlink:href="#DejaVuSans-63" x="157.064453"/>
      <use xlink:href="#DejaVuSans-65" x="212.044922"/>
      <use xlink:href="#DejaVuSans-6e" x="273.568359"/>
      <use xlink:href="#DejaVuSans-74" x="336.947266"/>
      <use xlink:href="#DejaVuSans-69" x="376.15625"/>
      <use xlink:href="#DejaVuSans-6c" x="403.939453"/>
      <use xlink:href="#DejaVuSans-65" x="431.722656"/>
      <use xlink:href="#DejaVuSans-20" x="493.246094"/>
      <use xlink:href="#DejaVuSans-54" x="525.033203"/>
      <use xlink:href="#DejaVuSans-68" x="586.117188"/>
      <use xlink:href="#DejaVuSans-72" x="649.496094"/>
      <use xlink:href="#DejaVuSans-65" x="688.359375"/>
      <use xlink:href="#DejaVuSans-73" x="749.882812"/>
      <use xlink:href="#DejaVuSans-68" x="801.982422"/>
      <use xlink:href="#DejaVuSans-6f" x="865.361328"/>
      <use xlink:href="#DejaVuSans-6c" x="926.542969"/>
      <use xlink:href="#DejaVuSans-64" x="954.326172"/>
     </g>
     <!-- (Using "random" Threshold Handling) -->
     <g transform="translate(417.147812 558.50075) scale(0.2 -0.2)">
      <defs>
       <path id="DejaVuSans-28" d="M 1984 4856 
Q 1566 4138 1362 3434 
Q 1159 2731 1159 2009 
Q 1159 1288 1364 580 
Q 1569 -128 1984 -844 
L 1484 -844 
Q 1016 -109 783 600 
Q 550 1309 550 2009 
Q 550 2706 781 3412 
Q 1013 4119 1484 4856 
L 1984 4856 
z
" transform="scale(0.015625)"/>
       <path id="DejaVuSans-55" d="M 556 4666 
L 1191 4666 
L 1191 1831 
Q 1191 1081 1462 751 
Q 1734 422 2344 422 
Q 2950 422 3222 751 
Q 3494 1081 3494 1831 
L 3494 4666 
L 4128 4666 
L 4128 1753 
Q 4128 841 3676 375 
Q 3225 -91 2344 -91 
Q 1459 -91 1007 375 
Q 556 841 556 1753 
L 556 4666 
z
" transform="scale(0.015625)"/>
       <path id="DejaVuSans-67" d="M 2906 1791 
Q 2906 2416 2648 2759 
Q 2391 3103 1925 3103 
Q 1463 3103 1205 2759 
Q 947 2416 947 1791 
Q 947 1169 1205 825 
Q 1463 481 1925 481 
Q 2391 481 2648 825 
Q 2906 1169 2906 1791 
z
M 3481 434 
Q 3481 -459 3084 -895 
Q 2688 -1331 1869 -1331 
Q 1566 -1331 1297 -1286 
Q 1028 -1241 775 -1147 
L 775 -588 
Q 1028 -725 1275 -790 
Q 1522 -856 1778 -856 
Q 2344 -856 2625 -561 
Q 2906 -266 2906 331 
L 2906 616 
Q 2728 306 2450 153 
Q 2172 0 1784 0 
Q 1141 0 747 490 
Q 353 981 353 1791 
Q 353 2603 747 3093 
Q 1141 3584 1784 3584 
Q 2172 3584 2450 3431 
Q 2728 3278 2906 2969 
L 2906 3500 
L 3481 3500 
L 3481 434 
z
" transform="scale(0.015625)"/>
       <path id="DejaVuSans-22" d="M 1147 4666 
L 1147 2931 
L 616 2931 
L 616 4666 
L 1147 4666 
z
M 2328 4666 
L 2328 2931 
L 1797 2931 
L 1797 4666 
L 2328 4666 
z
" transform="scale(0.015625)"/>
       <path id="DejaVuSans-61" d="M 2194 1759 
Q 1497 1759 1228 1600 
Q 959 1441 959 1056 
Q 959 750 1161 570 
Q 1363 391 1709 391 
Q 2188 391 2477 730 
Q 2766 1069 2766 1631 
L 2766 1759 
L 2194 1759 
z
M 3341 1997 
L 3341 0 
L 2766 0 
L 2766 531 
Q 2569 213 2275 61 
Q 1981 -91 1556 -91 
Q 1019 -91 701 211 
Q 384 513 384 1019 
Q 384 1609 779 1909 
Q 1175 2209 1959 2209 
L 2766 2209 
L 2766 2266 
Q 2766 2663 2505 2880 
Q 2244 3097 1772 3097 
Q 1472 3097 1187 3025 
Q 903 2953 641 2809 
L 641 3341 
Q 956 3463 1253 3523 
Q 1550 3584 1831 3584 
Q 2591 3584 2966 3190 
Q 3341 2797 3341 1997 
z
" transform="scale(0.015625)"/>
       <path id="DejaVuSans-6d" d="M 3328 2828 
Q 3544 3216 3844 3400 
Q 4144 3584 4550 3584 
Q 5097 3584 5394 3201 
Q 5691 2819 5691 2113 
L 5691 0 
L 5113 0 
L 5113 2094 
Q 5113 2597 4934 2840 
Q 4756 3084 4391 3084 
Q 3944 3084 3684 2787 
Q 3425 2491 3425 1978 
L 3425 0 
L 2847 0 
L 2847 2094 
Q 2847 2600 2669 2842 
Q 2491 3084 2119 3084 
Q 1678 3084 1418 2786 
Q 1159 2488 1159 1978 
L 1159 0 
L 581 0 
L 581 3500 
L 1159 3500 
L 1159 2956 
Q 1356 3278 1631 3431 
Q 1906 3584 2284 3584 
Q 2666 3584 2933 3390 
Q 3200 3197 3328 2828 
z
" transform="scale(0.015625)"/>
       <path id="DejaVuSans-48" d="M 628 4666 
L 1259 4666 
L 1259 2753 
L 3553 2753 
L 3553 4666 
L 4184 4666 
L 4184 0 
L 3553 0 
L 3553 2222 
L 1259 2222 
L 1259 0 
L 628 0 
L 628 4666 
z
" transform="scale(0.015625)"/>
       <path id="DejaVuSans-29" d="M 513 4856 
L 1013 4856 
Q 1481 4119 1714 3412 
Q 1947 2706 1947 2009 
Q 1947 1309 1714 600 
Q 1481 -109 1013 -844 
L 513 -844 
Q 928 -128 1133 580 
Q 1338 1288 1338 2009 
Q 1338 2731 1133 3434 
Q 928 4138 513 4856 
z
" transform="scale(0.015625)"/>
      </defs>
      <use xlink:href="#DejaVuSans-28"/>
      <use xlink:href="#DejaVuSans-55" x="39.013672"/>
      <use xlink:href="#DejaVuSans-73" x="112.207031"/>
      <use xlink:href="#DejaVuSans-69" x="164.306641"/>
      <use xlink:href="#DejaVuSans-6e" x="192.089844"/>
      <use xlink:href="#DejaVuSans-67" x="255.46875"/>
      <use xlink:href="#DejaVuSans-20" x="318.945312"/>
      <use xlink:href="#DejaVuSans-22" x="350.732422"/>
      <use xlink:href="#DejaVuSans-72" x="396.728516"/>
      <use xlink:href="#DejaVuSans-61" x="437.841797"/>
      <use xlink:href="#DejaVuSans-6e" x="499.121094"/>
      <use xlink:href="#DejaVuSans-64" x="562.5"/>
      <use xlink:href="#DejaVuSans-6f" x="625.976562"/>
      <use xlink:href="#DejaVuSans-6d" x="687.158203"/>
      <use xlink:href="#DejaVuSans-22" x="784.570312"/>
      <use xlink:href="#DejaVuSans-20" x="830.566406"/>
      <use xlink:href="#DejaVuSans-54" x="862.353516"/>
      <use xlink:href="#DejaVuSans-68" x="923.4375"/>
      <use xlink:href="#DejaVuSans-72" x="986.816406"/>
      <use xlink:href="#DejaVuSans-65" x="1025.679688"/>
      <use xlink:href="#DejaVuSans-73" x="1087.203125"/>
      <use xlink:href="#DejaVuSans-68" x="1139.302734"/>
      <use xlink:href="#DejaVuSans-6f" x="1202.681641"/>
      <use xlink:href="#DejaVuSans-6c" x="1263.863281"/>
      <use xlink:href="#DejaVuSans-64" x="1291.646484"/>
      <use xlink:href="#DejaVuSans-20" x="1355.123047"/>
      <use xlink:href="#DejaVuSans-48" x="1386.910156"/>
      <use xlink:href="#DejaVuSans-61" x="1462.105469"/>
      <use xlink:href="#DejaVuSans-6e" x="1523.384766"/>
      <use xlink:href="#DejaVuSans-64" x="1586.763672"/>
      <use xlink:href="#DejaVuSans-6c" x="1650.240234"/>
      <use xlink:href="#DejaVuSans-69" x="1678.023438"/>
      <use xlink:href="#DejaVuSans-6e" x="1705.806641"/>
      <use xlink:href="#DejaVuSans-67" x="1769.185547"/>
      <use xlink:href="#DejaVuSans-29" x="1832.662109"/>
     </g>
    </g>
   </g>
   <g id="matplotlib.axis_2">
    <g id="ytick_1">
     <g id="line2d_6">
      <defs>
       <path id="m1c6a947f52" d="M 0 0 
L -3.5 0 
" style="stroke: #000000; stroke-width: 0.8"/>
      </defs>
      <g>
       <use xlink:href="#m1c6a947f52" x="67.43" y="438.420495" style="stroke: #000000; stroke-width: 0.8"/>
      </g>
     </g>
     <g id="text_7">
      <!-- 17 -->
      <g transform="translate(34.98 446.018933) scale(0.2 -0.2)">
       <defs>
        <path id="DejaVuSans-31" d="M 794 531 
L 1825 531 
L 1825 4091 
L 703 3866 
L 703 4441 
L 1819 4666 
L 2450 4666 
L 2450 531 
L 3481 531 
L 3481 0 
L 794 0 
L 794 531 
z
" transform="scale(0.015625)"/>
        <path id="DejaVuSans-37" d="M 525 4666 
L 3525 4666 
L 3525 4397 
L 1831 0 
L 1172 0 
L 2766 4134 
L 525 4134 
L 525 4666 
z
" transform="scale(0.015625)"/>
       </defs>
       <use xlink:href="#DejaVuSans-31"/>
       <use xlink:href="#DejaVuSans-37" x="63.623047"/>
      </g>
     </g>
    </g>
    <g id="ytick_2">
     <g id="line2d_7">
      <g>
       <use xlink:href="#m1c6a947f52" x="67.43" y="365.500207" style="stroke: #000000; stroke-width: 0.8"/>
      </g>
     </g>
     <g id="text_8">
      <!-- 18 -->
      <g transform="translate(34.98 373.098645) scale(0.2 -0.2)">
       <use xlink:href="#DejaVuSans-31"/>
       <use xlink:href="#DejaVuSans-38" x="63.623047"/>
      </g>
     </g>
    </g>
    <g id="ytick_3">
     <g id="line2d_8">
      <g>
       <use xlink:href="#m1c6a947f52" x="67.43" y="292.579919" style="stroke: #000000; stroke-width: 0.8"/>
      </g>
     </g>
     <g id="text_9">
      <!-- 19 -->
      <g transform="translate(34.98 300.178357) scale(0.2 -0.2)">
       <defs>
        <path id="DejaVuSans-39" d="M 703 97 
L 703 672 
Q 941 559 1184 500 
Q 1428 441 1663 441 
Q 2288 441 2617 861 
Q 2947 1281 2994 2138 
Q 2813 1869 2534 1725 
Q 2256 1581 1919 1581 
Q 1219 1581 811 2004 
Q 403 2428 403 3163 
Q 403 3881 828 4315 
Q 1253 4750 1959 4750 
Q 2769 4750 3195 4129 
Q 3622 3509 3622 2328 
Q 3622 1225 3098 567 
Q 2575 -91 1691 -91 
Q 1453 -91 1209 -44 
Q 966 3 703 97 
z
M 1959 2075 
Q 2384 2075 2632 2365 
Q 2881 2656 2881 3163 
Q 2881 3666 2632 3958 
Q 2384 4250 1959 4250 
Q 1534 4250 1286 3958 
Q 1038 3666 1038 3163 
Q 1038 2656 1286 2365 
Q 1534 2075 1959 2075 
z
" transform="scale(0.015625)"/>
       </defs>
       <use xlink:href="#DejaVuSans-31"/>
       <use xlink:href="#DejaVuSans-39" x="63.623047"/>
      </g>
     </g>
    </g>
    <g id="ytick_4">
     <g id="line2d_9">
      <g>
       <use xlink:href="#m1c6a947f52" x="67.43" y="219.659631" style="stroke: #000000; stroke-width: 0.8"/>
      </g>
     </g>
     <g id="text_10">
      <!-- 20 -->
      <g transform="translate(34.98 227.258069) scale(0.2 -0.2)">
       <use xlink:href="#DejaVuSans-32"/>
       <use xlink:href="#DejaVuSans-30" x="63.623047"/>
      </g>
     </g>
    </g>
    <g id="ytick_5">
     <g id="line2d_10">
      <g>
       <use xlink:href="#m1c6a947f52" x="67.43" y="146.739343" style="stroke: #000000; stroke-width: 0.8"/>
      </g>
     </g>
     <g id="text_11">
      <!-- 21 -->
      <g transform="translate(34.98 154.33778) scale(0.2 -0.2)">
       <use xlink:href="#DejaVuSans-32"/>
       <use xlink:href="#DejaVuSans-31" x="63.623047"/>
      </g>
     </g>
    </g>
    <g id="ytick_6">
     <g id="line2d_11">
      <g>
       <use xlink:href="#m1c6a947f52" x="67.43" y="73.819055" style="stroke: #000000; stroke-width: 0.8"/>
      </g>
     </g>
     <g id="text_12">
      <!-- 22 -->
      <g transform="translate(34.98 81.417492) scale(0.2 -0.2)">
       <use xlink:href="#DejaVuSans-32"/>
       <use xlink:href="#DejaVuSans-32" x="63.623047"/>
      </g>
     </g>
    </g>
    <g id="text_13">
     <!-- RMSE -->
     <g transform="translate(26.820625 278.91975) rotate(-90) scale(0.2 -0.2)">
      <defs>
       <path id="DejaVuSans-52" d="M 2841 2188 
Q 3044 2119 3236 1894 
Q 3428 1669 3622 1275 
L 4263 0 
L 3584 0 
L 2988 1197 
Q 2756 1666 2539 1819 
Q 2322 1972 1947 1972 
L 1259 1972 
L 1259 0 
L 628 0 
L 628 4666 
L 2053 4666 
Q 2853 4666 3247 4331 
Q 3641 3997 3641 3322 
Q 3641 2881 3436 2590 
Q 3231 2300 2841 2188 
z
M 1259 4147 
L 1259 2491 
L 2053 2491 
Q 2509 2491 2742 2702 
Q 2975 2913 2975 3322 
Q 2975 3731 2742 3939 
Q 2509 4147 2053 4147 
L 1259 4147 
z
" transform="scale(0.015625)"/>
       <path id="DejaVuSans-4d" d="M 628 4666 
L 1569 4666 
L 2759 1491 
L 3956 4666 
L 4897 4666 
L 4897 0 
L 4281 0 
L 4281 4097 
L 3078 897 
L 2444 897 
L 1241 4097 
L 1241 0 
L 628 0 
L 628 4666 
z
" transform="scale(0.015625)"/>
       <path id="DejaVuSans-53" d="M 3425 4513 
L 3425 3897 
Q 3066 4069 2747 4153 
Q 2428 4238 2131 4238 
Q 1616 4238 1336 4038 
Q 1056 3838 1056 3469 
Q 1056 3159 1242 3001 
Q 1428 2844 1947 2747 
L 2328 2669 
Q 3034 2534 3370 2195 
Q 3706 1856 3706 1288 
Q 3706 609 3251 259 
Q 2797 -91 1919 -91 
Q 1588 -91 1214 -16 
Q 841 59 441 206 
L 441 856 
Q 825 641 1194 531 
Q 1563 422 1919 422 
Q 2459 422 2753 634 
Q 3047 847 3047 1241 
Q 3047 1584 2836 1778 
Q 2625 1972 2144 2069 
L 1759 2144 
Q 1053 2284 737 2584 
Q 422 2884 422 3419 
Q 422 4038 858 4394 
Q 1294 4750 2059 4750 
Q 2388 4750 2728 4690 
Q 3069 4631 3425 4513 
z
" transform="scale(0.015625)"/>
       <path id="DejaVuSans-45" d="M 628 4666 
L 3578 4666 
L 3578 4134 
L 1259 4134 
L 1259 2753 
L 3481 2753 
L 3481 2222 
L 1259 2222 
L 1259 531 
L 3634 531 
L 3634 0 
L 628 0 
L 628 4666 
z
" transform="scale(0.015625)"/>
      </defs>
      <use xlink:href="#DejaVuSans-52"/>
      <use xlink:href="#DejaVuSans-4d" x="69.482422"/>
      <use xlink:href="#DejaVuSans-53" x="155.761719"/>
      <use xlink:href="#DejaVuSans-45" x="219.238281"/>
     </g>
    </g>
   </g>
   <g id="line2d_12">
    <path d="M 116.237727 346.160839 
L 137.006973 402.845929 
L 157.776219 401.942421 
L 178.545464 395.243515 
L 199.31471 414.07464 
L 220.083956 406.575079 
L 240.853201 397.755516 
L 261.622447 411.341223 
L 282.391692 416.735458 
L 303.160938 393.849747 
L 323.930184 404.384205 
L 344.699429 421.659194 
L 365.468675 399.2019 
L 386.237921 399.3154 
L 407.007166 362.693704 
L 427.776412 395.203333 
L 448.545658 391.430208 
L 469.314903 372.276319 
L 490.084149 422.566744 
L 510.853395 396.50248 
L 531.62264 411.95841 
L 552.391886 418.880029 
L 573.161132 399.942931 
L 593.930377 409.843005 
L 614.699623 387.286536 
L 635.468868 375.862417 
L 656.238114 378.521537 
L 677.00736 402.34002 
L 697.776605 399.000171 
L 718.545851 415.196131 
L 739.315097 372.244174 
L 760.084342 387.710483 
L 780.853588 406.598277 
L 801.622834 378.794602 
L 822.392079 387.279732 
L 843.161325 408.128813 
L 863.930571 372.592565 
L 884.699816 396.601545 
L 905.469062 374.563735 
L 926.238308 367.508482 
L 947.007553 379.236375 
L 967.776799 387.930423 
L 988.546044 407.787339 
L 1009.31529 392.705052 
L 1030.084536 427.744844 
L 1050.853781 367.930889 
L 1071.623027 393.143269 
L 1092.392273 395.901507 
" clip-path="url(#pcd6d1e89d2)" style="fill: none; stroke: #1f77b4; stroke-width: 1.5; stroke-linecap: square"/>
   </g>
   <g id="line2d_13">
    <path d="M 116.237727 336.175255 
L 137.006973 351.145896 
L 157.776219 362.271927 
L 178.545464 357.243323 
L 199.31471 372.007039 
L 220.083956 390.995073 
L 240.853201 377.184364 
L 261.622447 394.413278 
L 282.391692 434.135229 
L 303.160938 391.814958 
L 323.930184 368.82632 
L 344.699429 404.99778 
L 365.468675 384.565474 
L 386.237921 387.300258 
L 407.007166 376.627833 
L 427.776412 388.057953 
L 448.545658 372.693214 
L 469.314903 334.944911 
L 490.084149 407.335083 
L 510.853395 401.042811 
L 531.62264 398.98904 
L 552.391886 381.157812 
L 573.161132 372.515254 
L 593.930377 400.54812 
L 614.699623 362.287787 
L 635.468868 367.239971 
L 656.238114 391.121322 
L 677.00736 418.98031 
L 697.776605 407.547783 
L 718.545851 398.30632 
L 739.315097 407.466127 
L 760.084342 374.315395 
L 780.853588 380.651973 
L 801.622834 365.09588 
L 822.392079 397.757959 
L 843.161325 414.14023 
L 863.930571 367.253603 
L 884.699816 376.811135 
L 905.469062 397.678602 
L 926.238308 354.334373 
L 947.007553 397.28614 
L 967.776799 372.28057 
L 988.546044 397.395964 
L 1009.31529 390.711018 
L 1030.084536 428.470778 
L 1050.853781 353.498735 
L 1071.623027 415.704833 
L 1092.392273 390.969372 
" clip-path="url(#pcd6d1e89d2)" style="fill: none; stroke: #ff7f0e; stroke-width: 1.5; stroke-linecap: square"/>
   </g>
   <g id="line2d_14">
    <path d="M 116.237727 174.946096 
L 137.006973 256.64525 
L 157.776219 301.052822 
L 178.545464 263.771409 
L 199.31471 286.904614 
L 220.083956 288.376574 
L 240.853201 267.767259 
L 261.622447 340.054958 
L 282.391692 313.92995 
L 303.160938 297.445836 
L 323.930184 280.573021 
L 344.699429 336.732802 
L 365.468675 294.070674 
L 386.237921 268.370952 
L 407.007166 231.081441 
L 427.776412 282.354785 
L 448.545658 289.981745 
L 469.314903 182.341516 
L 490.084149 280.058089 
L 510.853395 320.975718 
L 531.62264 228.615436 
L 552.391886 262.659002 
L 573.161132 304.373391 
L 593.930377 226.619759 
L 614.699623 266.017885 
L 635.468868 295.809958 
L 656.238114 232.870816 
L 677.00736 313.113828 
L 697.776605 219.534829 
L 718.545851 282.576083 
L 739.315097 283.858011 
L 760.084342 299.822781 
L 780.853588 292.276146 
L 801.622834 250.462174 
L 822.392079 281.740226 
L 843.161325 308.522053 
L 863.930571 258.426244 
L 884.699816 248.09103 
L 905.469062 262.668096 
L 926.238308 194.040547 
L 947.007553 283.231958 
L 967.776799 328.878561 
L 988.546044 291.621189 
L 1009.31529 289.83864 
L 1030.084536 345.749423 
L 1050.853781 217.43939 
L 1071.623027 262.942186 
L 1092.392273 287.854451 
" clip-path="url(#pcd6d1e89d2)" style="fill: none; stroke: #2ca02c; stroke-width: 1.5; stroke-linecap: square"/>
   </g>
   <g id="line2d_15"/>
   <g id="line2d_16"/>
   <g id="line2d_17"/>
   <g id="patch_3">
    <path d="M 67.43 490.552 
L 67.43 10.8 
" style="fill: none; stroke: #000000; stroke-width: 0.8; stroke-linejoin: miter; stroke-linecap: square"/>
   </g>
   <g id="patch_4">
    <path d="M 1141.2 490.552 
L 1141.2 10.8 
" style="fill: none; stroke: #000000; stroke-width: 0.8; stroke-linejoin: miter; stroke-linecap: square"/>
   </g>
   <g id="patch_5">
    <path d="M 67.43 490.552 
L 1141.2 490.552 
" style="fill: none; stroke: #000000; stroke-width: 0.8; stroke-linejoin: miter; stroke-linecap: square"/>
   </g>
   <g id="patch_6">
    <path d="M 67.43 10.8 
L 1141.2 10.8 
" style="fill: none; stroke: #000000; stroke-width: 0.8; stroke-linejoin: miter; stroke-linecap: square"/>
   </g>
   <g id="legend_1">
    <g id="patch_7">
     <path d="M 78.63 482.552 
L 159.615 482.552 
Q 162.815 482.552 162.815 479.352 
L 162.815 410.497 
Q 162.815 407.297 159.615 407.297 
L 78.63 407.297 
Q 75.43 407.297 75.43 410.497 
L 75.43 479.352 
Q 75.43 482.552 78.63 482.552 
z
" style="fill: #ffffff; opacity: 0.8; stroke: #cccccc; stroke-linejoin: miter"/>
    </g>
    <g id="line2d_18">
     <path d="M 81.83 420.2545 
L 97.83 420.2545 
L 113.83 420.2545 
" style="fill: none; stroke: #1f77b4; stroke-width: 1.5; stroke-linecap: square"/>
    </g>
    <g id="text_14">
     <!-- rf -->
     <g transform="translate(126.63 425.8545) scale(0.16 -0.16)">
      <defs>
       <path id="DejaVuSans-66" d="M 2375 4863 
L 2375 4384 
L 1825 4384 
Q 1516 4384 1395 4259 
Q 1275 4134 1275 3809 
L 1275 3500 
L 2222 3500 
L 2222 3053 
L 1275 3053 
L 1275 0 
L 697 0 
L 697 3053 
L 147 3053 
L 147 3500 
L 697 3500 
L 697 3744 
Q 697 4328 969 4595 
Q 1241 4863 1831 4863 
L 2375 4863 
z
" transform="scale(0.015625)"/>
      </defs>
      <use xlink:href="#DejaVuSans-72"/>
      <use xlink:href="#DejaVuSans-66" x="41.113281"/>
     </g>
    </g>
    <g id="line2d_19">
     <path d="M 81.83 443.7395 
L 97.83 443.7395 
L 113.83 443.7395 
" style="fill: none; stroke: #ff7f0e; stroke-width: 1.5; stroke-linecap: square"/>
    </g>
    <g id="text_15">
     <!-- gbr -->
     <g transform="translate(126.63 449.3395) scale(0.16 -0.16)">
      <defs>
       <path id="DejaVuSans-62" d="M 3116 1747 
Q 3116 2381 2855 2742 
Q 2594 3103 2138 3103 
Q 1681 3103 1420 2742 
Q 1159 2381 1159 1747 
Q 1159 1113 1420 752 
Q 1681 391 2138 391 
Q 2594 391 2855 752 
Q 3116 1113 3116 1747 
z
M 1159 2969 
Q 1341 3281 1617 3432 
Q 1894 3584 2278 3584 
Q 2916 3584 3314 3078 
Q 3713 2572 3713 1747 
Q 3713 922 3314 415 
Q 2916 -91 2278 -91 
Q 1894 -91 1617 61 
Q 1341 213 1159 525 
L 1159 0 
L 581 0 
L 581 4863 
L 1159 4863 
L 1159 2969 
z
" transform="scale(0.015625)"/>
      </defs>
      <use xlink:href="#DejaVuSans-67"/>
      <use xlink:href="#DejaVuSans-62" x="63.476562"/>
      <use xlink:href="#DejaVuSans-72" x="126.953125"/>
     </g>
    </g>
    <g id="line2d_20">
     <path d="M 81.83 467.2245 
L 97.83 467.2245 
L 113.83 467.2245 
" style="fill: none; stroke: #2ca02c; stroke-width: 1.5; stroke-linecap: square"/>
    </g>
    <g id="text_16">
     <!-- xgb -->
     <g transform="translate(126.63 472.8245) scale(0.16 -0.16)">
      <defs>
       <path id="DejaVuSans-78" d="M 3513 3500 
L 2247 1797 
L 3578 0 
L 2900 0 
L 1881 1375 
L 863 0 
L 184 0 
L 1544 1831 
L 300 3500 
L 978 3500 
L 1906 2253 
L 2834 3500 
L 3513 3500 
z
" transform="scale(0.015625)"/>
      </defs>
      <use xlink:href="#DejaVuSans-78"/>
      <use xlink:href="#DejaVuSans-67" x="59.179688"/>
      <use xlink:href="#DejaVuSans-62" x="122.65625"/>
     </g>
    </g>
   </g>
  </g>
 </g>
 <defs>
  <clipPath id="pcd6d1e89d2">
   <rect x="67.43" y="10.8" width="1073.77" height="479.752"/>
  </clipPath>
 </defs>
</svg>
