<?xml version="1.0" encoding="utf-8" standalone="no"?>
<!DOCTYPE svg PUBLIC "-//W3C//DTD SVG 1.1//EN"
  "http://www.w3.org/Graphics/SVG/1.1/DTD/svg11.dtd">
<svg xmlns:xlink="http://www.w3.org/1999/xlink" width="568.8pt" height="424.8pt" viewBox="0 0 568.8 424.8" xmlns="http://www.w3.org/2000/svg" version="1.1">
 <metadata>
  <rdf:RDF xmlns:dc="http://purl.org/dc/elements/1.1/" xmlns:cc="http://creativecommons.org/ns#" xmlns:rdf="http://www.w3.org/1999/02/22-rdf-syntax-ns#">
   <cc:Work>
    <dc:type rdf:resource="http://purl.org/dc/dcmitype/StillImage"/>
    <dc:date>2024-01-22T14:28:59.593538</dc:date>
    <dc:format>image/svg+xml</dc:format>
    <dc:creator>
     <cc:Agent>
      <dc:title>Matplotlib v3.7.1, https://matplotlib.org/</dc:title>
     </cc:Agent>
    </dc:creator>
   </cc:Work>
  </rdf:RDF>
 </metadata>
 <defs>
  <style type="text/css">*{stroke-linejoin: round; stroke-linecap: butt}</style>
 </defs>
 <g id="figure_1">
  <g id="patch_1">
   <path d="M 0 424.8 
L 568.8 424.8 
L 568.8 0 
L 0 0 
z
" style="fill: #ffffff"/>
  </g>
  <g id="axes_1">
   <g id="patch_2">
    <path d="M 48.047813 321.49304 
L 554.673437 321.49304 
L 554.673437 7.2 
L 48.047813 7.2 
z
" style="fill: #ffffff"/>
   </g>
   <g id="patch_3">
    <path d="M 84.876063 321.49304 
L 97.468392 321.49304 
L 97.468392 171.829687 
L 84.876063 171.829687 
z
" clip-path="url(#p67f011450f)" style="fill: #0000ff; opacity: 0.7"/>
   </g>
   <g id="patch_4">
    <path d="M 97.468392 321.49304 
L 110.060721 321.49304 
L 110.060721 189.892506 
L 97.468392 189.892506 
z
" clip-path="url(#p67f011450f)" style="fill: #0000ff; opacity: 0.7"/>
   </g>
   <g id="patch_5">
    <path d="M 110.060721 321.49304 
L 122.65305 321.49304 
L 122.65305 290.528208 
L 110.060721 290.528208 
z
" clip-path="url(#p67f011450f)" style="fill: #0000ff; opacity: 0.7"/>
   </g>
   <g id="patch_6">
    <path d="M 122.65305 321.49304 
L 135.245379 321.49304 
L 135.245379 290.528208 
L 122.65305 290.528208 
z
" clip-path="url(#p67f011450f)" style="fill: #0000ff; opacity: 0.7"/>
   </g>
   <g id="patch_7">
    <path d="M 135.245379 321.49304 
L 147.837708 321.49304 
L 147.837708 303.430221 
L 135.245379 303.430221 
z
" clip-path="url(#p67f011450f)" style="fill: #0000ff; opacity: 0.7"/>
   </g>
   <g id="patch_8">
    <path d="M 147.837708 321.49304 
L 160.430037 321.49304 
L 160.430037 287.947806 
L 147.837708 287.947806 
z
" clip-path="url(#p67f011450f)" style="fill: #0000ff; opacity: 0.7"/>
   </g>
   <g id="patch_9">
    <path d="M 160.430037 321.49304 
L 173.022367 321.49304 
L 173.022367 298.269416 
L 160.430037 298.269416 
z
" clip-path="url(#p67f011450f)" style="fill: #0000ff; opacity: 0.7"/>
   </g>
   <g id="patch_10">
    <path d="M 173.022367 321.49304 
L 185.614696 321.49304 
L 185.614696 290.528208 
L 173.022367 290.528208 
z
" clip-path="url(#p67f011450f)" style="fill: #0000ff; opacity: 0.7"/>
   </g>
   <g id="patch_11">
    <path d="M 185.614696 321.49304 
L 198.207025 321.49304 
L 198.207025 254.402572 
L 185.614696 254.402572 
z
" clip-path="url(#p67f011450f)" style="fill: #0000ff; opacity: 0.7"/>
   </g>
   <g id="patch_12">
    <path d="M 198.207025 321.49304 
L 210.799354 321.49304 
L 210.799354 267.304585 
L 198.207025 267.304585 
z
" clip-path="url(#p67f011450f)" style="fill: #0000ff; opacity: 0.7"/>
   </g>
   <g id="patch_13">
    <path d="M 210.799354 321.49304 
L 223.391683 321.49304 
L 223.391683 306.010624 
L 210.799354 306.010624 
z
" clip-path="url(#p67f011450f)" style="fill: #0000ff; opacity: 0.7"/>
   </g>
   <g id="patch_14">
    <path d="M 223.391683 321.49304 
L 235.984012 321.49304 
L 235.984012 272.46539 
L 223.391683 272.46539 
z
" clip-path="url(#p67f011450f)" style="fill: #0000ff; opacity: 0.7"/>
   </g>
   <g id="patch_15">
    <path d="M 235.984012 321.49304 
L 248.576341 321.49304 
L 248.576341 280.206598 
L 235.984012 280.206598 
z
" clip-path="url(#p67f011450f)" style="fill: #0000ff; opacity: 0.7"/>
   </g>
   <g id="patch_16">
    <path d="M 248.576341 321.49304 
L 261.16867 321.49304 
L 261.16867 272.46539 
L 248.576341 272.46539 
z
" clip-path="url(#p67f011450f)" style="fill: #0000ff; opacity: 0.7"/>
   </g>
   <g id="patch_17">
    <path d="M 261.16867 321.49304 
L 273.761 321.49304 
L 273.761 308.591027 
L 261.16867 308.591027 
z
" clip-path="url(#p67f011450f)" style="fill: #0000ff; opacity: 0.7"/>
   </g>
   <g id="patch_18">
    <path d="M 273.761 321.49304 
L 286.353329 321.49304 
L 286.353329 264.724182 
L 273.761 264.724182 
z
" clip-path="url(#p67f011450f)" style="fill: #0000ff; opacity: 0.7"/>
   </g>
   <g id="patch_19">
    <path d="M 286.353329 321.49304 
L 298.945658 321.49304 
L 298.945658 295.689014 
L 286.353329 295.689014 
z
" clip-path="url(#p67f011450f)" style="fill: #0000ff; opacity: 0.7"/>
   </g>
   <g id="patch_20">
    <path d="M 298.945658 321.49304 
L 311.537987 321.49304 
L 311.537987 256.982974 
L 298.945658 256.982974 
z
" clip-path="url(#p67f011450f)" style="fill: #0000ff; opacity: 0.7"/>
   </g>
   <g id="patch_21">
    <path d="M 311.537987 321.49304 
L 324.130316 321.49304 
L 324.130316 171.829687 
L 311.537987 171.829687 
z
" clip-path="url(#p67f011450f)" style="fill: #0000ff; opacity: 0.7"/>
   </g>
   <g id="patch_22">
    <path d="M 324.130316 321.49304 
L 336.722645 321.49304 
L 336.722645 138.284453 
L 324.130316 138.284453 
z
" clip-path="url(#p67f011450f)" style="fill: #0000ff; opacity: 0.7"/>
   </g>
   <g id="patch_23">
    <path d="M 336.722645 321.49304 
L 349.314974 321.49304 
L 349.314974 22.166335 
L 336.722645 22.166335 
z
" clip-path="url(#p67f011450f)" style="fill: #0000ff; opacity: 0.7"/>
   </g>
   <g id="patch_24">
    <path d="M 349.314974 321.49304 
L 361.907303 321.49304 
L 361.907303 233.759351 
L 349.314974 233.759351 
z
" clip-path="url(#p67f011450f)" style="fill: #0000ff; opacity: 0.7"/>
   </g>
   <g id="patch_25">
    <path d="M 361.907303 321.49304 
L 374.499632 321.49304 
L 374.499632 254.402572 
L 361.907303 254.402572 
z
" clip-path="url(#p67f011450f)" style="fill: #0000ff; opacity: 0.7"/>
   </g>
   <g id="patch_26">
    <path d="M 374.499632 321.49304 
L 387.091962 321.49304 
L 387.091962 295.689014 
L 374.499632 295.689014 
z
" clip-path="url(#p67f011450f)" style="fill: #0000ff; opacity: 0.7"/>
   </g>
   <g id="patch_27">
    <path d="M 387.091962 321.49304 
L 399.684291 321.49304 
L 399.684291 277.626195 
L 387.091962 277.626195 
z
" clip-path="url(#p67f011450f)" style="fill: #0000ff; opacity: 0.7"/>
   </g>
   <g id="patch_28">
    <path d="M 399.684291 321.49304 
L 412.27662 321.49304 
L 412.27662 308.591027 
L 399.684291 308.591027 
z
" clip-path="url(#p67f011450f)" style="fill: #0000ff; opacity: 0.7"/>
   </g>
   <g id="patch_29">
    <path d="M 412.27662 321.49304 
L 424.868949 321.49304 
L 424.868949 300.849819 
L 412.27662 300.849819 
z
" clip-path="url(#p67f011450f)" style="fill: #0000ff; opacity: 0.7"/>
   </g>
   <g id="patch_30">
    <path d="M 424.868949 321.49304 
L 437.461278 321.49304 
L 437.461278 290.528208 
L 424.868949 290.528208 
z
" clip-path="url(#p67f011450f)" style="fill: #0000ff; opacity: 0.7"/>
   </g>
   <g id="patch_31">
    <path d="M 437.461278 321.49304 
L 450.053607 321.49304 
L 450.053607 275.045793 
L 437.461278 275.045793 
z
" clip-path="url(#p67f011450f)" style="fill: #0000ff; opacity: 0.7"/>
   </g>
   <g id="patch_32">
    <path d="M 450.053607 321.49304 
L 462.645936 321.49304 
L 462.645936 313.751832 
L 450.053607 313.751832 
z
" clip-path="url(#p67f011450f)" style="fill: #0000ff; opacity: 0.7"/>
   </g>
   <g id="patch_33">
    <path d="M 71.07625 321.49304 
L 86.428542 321.49304 
L 86.428542 306.010624 
L 71.07625 306.010624 
z
" clip-path="url(#p67f011450f)" style="fill: #ff0000; opacity: 0.7"/>
   </g>
   <g id="patch_34">
    <path d="M 86.428542 321.49304 
L 101.780833 321.49304 
L 101.780833 311.171429 
L 86.428542 311.171429 
z
" clip-path="url(#p67f011450f)" style="fill: #ff0000; opacity: 0.7"/>
   </g>
   <g id="patch_35">
    <path d="M 101.780833 321.49304 
L 117.133125 321.49304 
L 117.133125 318.912637 
L 101.780833 318.912637 
z
" clip-path="url(#p67f011450f)" style="fill: #ff0000; opacity: 0.7"/>
   </g>
   <g id="patch_36">
    <path d="M 117.133125 321.49304 
L 132.485417 321.49304 
L 132.485417 316.332235 
L 117.133125 316.332235 
z
" clip-path="url(#p67f011450f)" style="fill: #ff0000; opacity: 0.7"/>
   </g>
   <g id="patch_37">
    <path d="M 132.485417 321.49304 
L 147.837708 321.49304 
L 147.837708 318.912637 
L 132.485417 318.912637 
z
" clip-path="url(#p67f011450f)" style="fill: #ff0000; opacity: 0.7"/>
   </g>
   <g id="patch_38">
    <path d="M 147.837708 321.49304 
L 163.19 321.49304 
L 163.19 321.49304 
L 147.837708 321.49304 
z
" clip-path="url(#p67f011450f)" style="fill: #ff0000; opacity: 0.7"/>
   </g>
   <g id="patch_39">
    <path d="M 163.19 321.49304 
L 178.542292 321.49304 
L 178.542292 321.49304 
L 163.19 321.49304 
z
" clip-path="url(#p67f011450f)" style="fill: #ff0000; opacity: 0.7"/>
   </g>
   <g id="patch_40">
    <path d="M 178.542292 321.49304 
L 193.894583 321.49304 
L 193.894583 321.49304 
L 178.542292 321.49304 
z
" clip-path="url(#p67f011450f)" style="fill: #ff0000; opacity: 0.7"/>
   </g>
   <g id="patch_41">
    <path d="M 193.894583 321.49304 
L 209.246875 321.49304 
L 209.246875 313.751832 
L 193.894583 313.751832 
z
" clip-path="url(#p67f011450f)" style="fill: #ff0000; opacity: 0.7"/>
   </g>
   <g id="patch_42">
    <path d="M 209.246875 321.49304 
L 224.599167 321.49304 
L 224.599167 295.689014 
L 209.246875 295.689014 
z
" clip-path="url(#p67f011450f)" style="fill: #ff0000; opacity: 0.7"/>
   </g>
   <g id="patch_43">
    <path d="M 224.599167 321.49304 
L 239.951458 321.49304 
L 239.951458 285.367403 
L 224.599167 285.367403 
z
" clip-path="url(#p67f011450f)" style="fill: #ff0000; opacity: 0.7"/>
   </g>
   <g id="patch_44">
    <path d="M 239.951458 321.49304 
L 255.30375 321.49304 
L 255.30375 308.591027 
L 239.951458 308.591027 
z
" clip-path="url(#p67f011450f)" style="fill: #ff0000; opacity: 0.7"/>
   </g>
   <g id="patch_45">
    <path d="M 255.30375 321.49304 
L 270.656042 321.49304 
L 270.656042 321.49304 
L 255.30375 321.49304 
z
" clip-path="url(#p67f011450f)" style="fill: #ff0000; opacity: 0.7"/>
   </g>
   <g id="patch_46">
    <path d="M 270.656042 321.49304 
L 286.008333 321.49304 
L 286.008333 318.912637 
L 270.656042 318.912637 
z
" clip-path="url(#p67f011450f)" style="fill: #ff0000; opacity: 0.7"/>
   </g>
   <g id="patch_47">
    <path d="M 286.008333 321.49304 
L 301.360625 321.49304 
L 301.360625 316.332235 
L 286.008333 316.332235 
z
" clip-path="url(#p67f011450f)" style="fill: #ff0000; opacity: 0.7"/>
   </g>
   <g id="patch_48">
    <path d="M 301.360625 321.49304 
L 316.712917 321.49304 
L 316.712917 300.849819 
L 301.360625 300.849819 
z
" clip-path="url(#p67f011450f)" style="fill: #ff0000; opacity: 0.7"/>
   </g>
   <g id="patch_49">
    <path d="M 316.712917 321.49304 
L 332.065208 321.49304 
L 332.065208 306.010624 
L 316.712917 306.010624 
z
" clip-path="url(#p67f011450f)" style="fill: #ff0000; opacity: 0.7"/>
   </g>
   <g id="patch_50">
    <path d="M 332.065208 321.49304 
L 347.4175 321.49304 
L 347.4175 306.010624 
L 332.065208 306.010624 
z
" clip-path="url(#p67f011450f)" style="fill: #ff0000; opacity: 0.7"/>
   </g>
   <g id="patch_51">
    <path d="M 347.4175 321.49304 
L 362.769792 321.49304 
L 362.769792 282.787 
L 347.4175 282.787 
z
" clip-path="url(#p67f011450f)" style="fill: #ff0000; opacity: 0.7"/>
   </g>
   <g id="patch_52">
    <path d="M 362.769792 321.49304 
L 378.122083 321.49304 
L 378.122083 303.430221 
L 362.769792 303.430221 
z
" clip-path="url(#p67f011450f)" style="fill: #ff0000; opacity: 0.7"/>
   </g>
   <g id="patch_53">
    <path d="M 378.122083 321.49304 
L 393.474375 321.49304 
L 393.474375 300.849819 
L 378.122083 300.849819 
z
" clip-path="url(#p67f011450f)" style="fill: #ff0000; opacity: 0.7"/>
   </g>
   <g id="patch_54">
    <path d="M 393.474375 321.49304 
L 408.826667 321.49304 
L 408.826667 298.269416 
L 393.474375 298.269416 
z
" clip-path="url(#p67f011450f)" style="fill: #ff0000; opacity: 0.7"/>
   </g>
   <g id="patch_55">
    <path d="M 408.826667 321.49304 
L 424.178958 321.49304 
L 424.178958 290.528208 
L 408.826667 290.528208 
z
" clip-path="url(#p67f011450f)" style="fill: #ff0000; opacity: 0.7"/>
   </g>
   <g id="patch_56">
    <path d="M 424.178958 321.49304 
L 439.53125 321.49304 
L 439.53125 295.689014 
L 424.178958 295.689014 
z
" clip-path="url(#p67f011450f)" style="fill: #ff0000; opacity: 0.7"/>
   </g>
   <g id="patch_57">
    <path d="M 439.53125 321.49304 
L 454.883542 321.49304 
L 454.883542 306.010624 
L 439.53125 306.010624 
z
" clip-path="url(#p67f011450f)" style="fill: #ff0000; opacity: 0.7"/>
   </g>
   <g id="patch_58">
    <path d="M 454.883542 321.49304 
L 470.235833 321.49304 
L 470.235833 311.171429 
L 454.883542 311.171429 
z
" clip-path="url(#p67f011450f)" style="fill: #ff0000; opacity: 0.7"/>
   </g>
   <g id="patch_59">
    <path d="M 470.235833 321.49304 
L 485.588125 321.49304 
L 485.588125 313.751832 
L 470.235833 313.751832 
z
" clip-path="url(#p67f011450f)" style="fill: #ff0000; opacity: 0.7"/>
   </g>
   <g id="patch_60">
    <path d="M 485.588125 321.49304 
L 500.940417 321.49304 
L 500.940417 321.49304 
L 485.588125 321.49304 
z
" clip-path="url(#p67f011450f)" style="fill: #ff0000; opacity: 0.7"/>
   </g>
   <g id="patch_61">
    <path d="M 500.940417 321.49304 
L 516.292708 321.49304 
L 516.292708 321.49304 
L 500.940417 321.49304 
z
" clip-path="url(#p67f011450f)" style="fill: #ff0000; opacity: 0.7"/>
   </g>
   <g id="patch_62">
    <path d="M 516.292708 321.49304 
L 531.645 321.49304 
L 531.645 318.912637 
L 516.292708 318.912637 
z
" clip-path="url(#p67f011450f)" style="fill: #ff0000; opacity: 0.7"/>
   </g>
   <g id="matplotlib.axis_1">
    <g id="xtick_1">
     <g id="line2d_1">
      <defs>
       <path id="me978a31851" d="M 0 0 
L 0 3.5 
" style="stroke: #000000; stroke-width: 0.8"/>
      </defs>
      <g>
       <use xlink:href="#me978a31851" x="81.42611" y="321.49304" style="stroke: #000000; stroke-width: 0.8"/>
      </g>
     </g>
     <g id="text_1">
      <!-- 350 -->
      <g transform="translate(73.112828 335.857102) scale(0.1 -0.1)">
       <defs>
        <path id="CenturyGothic-33" d="M 847 3531 
L 378 3531 
Q 506 4100 868 4406 
Q 1231 4713 1725 4713 
Q 2084 4713 2395 4548 
Q 2706 4384 2876 4106 
Q 3047 3828 3047 3525 
Q 3047 2931 2456 2584 
Q 2788 2450 3000 2191 
Q 3300 1825 3300 1372 
Q 3300 981 3094 626 
Q 2888 272 2531 78 
Q 2175 -116 1734 -116 
Q 1141 -116 744 226 
Q 347 569 225 1231 
L 675 1231 
Q 794 784 1016 584 
Q 1300 331 1741 331 
Q 2241 331 2544 631 
Q 2847 931 2847 1334 
Q 2847 1603 2695 1837 
Q 2544 2072 2289 2190 
Q 2034 2309 1500 2338 
L 1500 2759 
Q 1816 2759 2075 2870 
Q 2334 2981 2451 3153 
Q 2569 3325 2569 3528 
Q 2569 3828 2330 4047 
Q 2091 4266 1725 4266 
Q 1428 4266 1212 4098 
Q 997 3931 847 3531 
z
" transform="scale(0.015625)"/>
        <path id="CenturyGothic-35" d="M 3147 4597 
L 3147 4159 
L 1509 4159 
L 1281 2906 
Q 1581 2994 1822 2994 
Q 2450 2994 2858 2573 
Q 3266 2153 3266 1497 
Q 3266 1044 3056 666 
Q 2847 288 2489 86 
Q 2131 -116 1663 -116 
Q 1103 -116 718 226 
Q 334 569 259 1113 
L 731 1113 
Q 784 847 911 681 
Q 1038 516 1248 414 
Q 1459 313 1691 313 
Q 2144 313 2469 656 
Q 2794 1000 2794 1516 
Q 2794 1981 2500 2272 
Q 2206 2563 1716 2563 
Q 1309 2563 731 2316 
L 1156 4597 
L 3147 4597 
z
" transform="scale(0.015625)"/>
        <path id="CenturyGothic-30" d="M 203 2297 
Q 203 3206 398 3703 
Q 594 4200 950 4456 
Q 1306 4713 1747 4713 
Q 2194 4713 2556 4455 
Q 2919 4197 3130 3681 
Q 3341 3166 3341 2297 
Q 3341 1431 3133 918 
Q 2925 406 2559 145 
Q 2194 -116 1747 -116 
Q 1306 -116 953 137 
Q 600 391 401 892 
Q 203 1394 203 2297 
z
M 638 2288 
Q 638 1509 777 1111 
Q 916 713 1187 506 
Q 1459 300 1763 300 
Q 2069 300 2334 501 
Q 2600 703 2738 1106 
Q 2909 1597 2909 2288 
Q 2909 2981 2756 3423 
Q 2603 3866 2333 4070 
Q 2063 4275 1763 4275 
Q 1456 4275 1187 4070 
Q 919 3866 778 3467 
Q 638 3069 638 2288 
z
" transform="scale(0.015625)"/>
       </defs>
       <use xlink:href="#CenturyGothic-33"/>
       <use xlink:href="#CenturyGothic-35" x="55.419922"/>
       <use xlink:href="#CenturyGothic-30" x="110.839844"/>
      </g>
     </g>
    </g>
    <g id="xtick_2">
     <g id="line2d_2">
      <g>
       <use xlink:href="#me978a31851" x="167.674939" y="321.49304" style="stroke: #000000; stroke-width: 0.8"/>
      </g>
     </g>
     <g id="text_2">
      <!-- 400 -->
      <g transform="translate(159.361658 335.857102) scale(0.1 -0.1)">
       <defs>
        <path id="CenturyGothic-34" d="M 2725 4713 
L 2819 4713 
L 2819 1509 
L 3375 1509 
L 3375 1069 
L 2819 1069 
L 2819 0 
L 2359 0 
L 2359 1069 
L 163 1069 
L 2725 4713 
z
M 2359 1509 
L 2359 3425 
L 1006 1509 
L 2359 1509 
z
" transform="scale(0.015625)"/>
       </defs>
       <use xlink:href="#CenturyGothic-34"/>
       <use xlink:href="#CenturyGothic-30" x="55.419922"/>
       <use xlink:href="#CenturyGothic-30" x="110.839844"/>
      </g>
     </g>
    </g>
    <g id="xtick_3">
     <g id="line2d_3">
      <g>
       <use xlink:href="#me978a31851" x="253.923769" y="321.49304" style="stroke: #000000; stroke-width: 0.8"/>
      </g>
     </g>
     <g id="text_3">
      <!-- 450 -->
      <g transform="translate(245.610487 335.857102) scale(0.1 -0.1)">
       <use xlink:href="#CenturyGothic-34"/>
       <use xlink:href="#CenturyGothic-35" x="55.419922"/>
       <use xlink:href="#CenturyGothic-30" x="110.839844"/>
      </g>
     </g>
    </g>
    <g id="xtick_4">
     <g id="line2d_4">
      <g>
       <use xlink:href="#me978a31851" x="340.172598" y="321.49304" style="stroke: #000000; stroke-width: 0.8"/>
      </g>
     </g>
     <g id="text_4">
      <!-- 500 -->
      <g transform="translate(331.859317 335.857102) scale(0.1 -0.1)">
       <use xlink:href="#CenturyGothic-35"/>
       <use xlink:href="#CenturyGothic-30" x="55.419922"/>
       <use xlink:href="#CenturyGothic-30" x="110.839844"/>
      </g>
     </g>
    </g>
    <g id="xtick_5">
     <g id="line2d_5">
      <g>
       <use xlink:href="#me978a31851" x="426.421428" y="321.49304" style="stroke: #000000; stroke-width: 0.8"/>
      </g>
     </g>
     <g id="text_5">
      <!-- 550 -->
      <g transform="translate(418.108147 335.857102) scale(0.1 -0.1)">
       <use xlink:href="#CenturyGothic-35"/>
       <use xlink:href="#CenturyGothic-35" x="55.419922"/>
       <use xlink:href="#CenturyGothic-30" x="110.839844"/>
      </g>
     </g>
    </g>
    <g id="xtick_6">
     <g id="line2d_6">
      <g>
       <use xlink:href="#me978a31851" x="512.670257" y="321.49304" style="stroke: #000000; stroke-width: 0.8"/>
      </g>
     </g>
     <g id="text_6">
      <!-- 600 -->
      <g transform="translate(504.356976 335.857102) scale(0.1 -0.1)">
       <defs>
        <path id="CenturyGothic-36" d="M 2347 4713 
L 2725 4466 
L 1484 2584 
Q 1734 2669 1953 2669 
Q 2500 2669 2881 2273 
Q 3263 1878 3263 1300 
Q 3263 903 3078 583 
Q 2894 263 2555 73 
Q 2216 -116 1825 -116 
Q 1447 -116 1123 67 
Q 800 250 615 581 
Q 431 913 431 1291 
Q 431 1572 545 1883 
Q 659 2194 953 2631 
L 2347 4713 
z
M 1844 2266 
Q 1444 2266 1161 1983 
Q 878 1700 878 1297 
Q 878 897 1161 614 
Q 1444 331 1844 331 
Q 2244 331 2526 614 
Q 2809 897 2809 1297 
Q 2809 1700 2526 1983 
Q 2244 2266 1844 2266 
z
" transform="scale(0.015625)"/>
       </defs>
       <use xlink:href="#CenturyGothic-36"/>
       <use xlink:href="#CenturyGothic-30" x="55.419922"/>
       <use xlink:href="#CenturyGothic-30" x="110.839844"/>
      </g>
     </g>
    </g>
    <g id="text_7">
     <!-- $\lambda_{max}$ Values (nm) -->
     <g transform="translate(243.820625 352.440852) scale(0.14 -0.14)">
      <defs>
       <path id="DejaVuSans-Oblique-3bb" d="M 2350 4316 
L 3125 0 
L 2516 0 
L 2038 2588 
L 328 0 
L -281 0 
L 1903 3356 
L 1794 3975 
Q 1725 4369 1391 4369 
L 1091 4369 
L 1184 4863 
L 1550 4856 
Q 2253 4847 2350 4316 
z
" transform="scale(0.015625)"/>
       <path id="DejaVuSans-Oblique-6d" d="M 5747 2113 
L 5338 0 
L 4763 0 
L 5166 2094 
Q 5191 2228 5203 2325 
Q 5216 2422 5216 2491 
Q 5216 2772 5059 2928 
Q 4903 3084 4622 3084 
Q 4203 3084 3875 2770 
Q 3547 2456 3450 1953 
L 3066 0 
L 2491 0 
L 2900 2094 
Q 2925 2209 2937 2307 
Q 2950 2406 2950 2484 
Q 2950 2769 2794 2926 
Q 2638 3084 2363 3084 
Q 1938 3084 1609 2770 
Q 1281 2456 1184 1953 
L 800 0 
L 225 0 
L 909 3500 
L 1484 3500 
L 1375 2956 
Q 1609 3263 1923 3423 
Q 2238 3584 2597 3584 
Q 2978 3584 3223 3384 
Q 3469 3184 3519 2828 
Q 3781 3197 4126 3390 
Q 4472 3584 4856 3584 
Q 5306 3584 5551 3325 
Q 5797 3066 5797 2591 
Q 5797 2488 5784 2364 
Q 5772 2241 5747 2113 
z
" transform="scale(0.015625)"/>
       <path id="DejaVuSans-Oblique-61" d="M 3438 1997 
L 3047 0 
L 2472 0 
L 2578 531 
Q 2325 219 2001 64 
Q 1678 -91 1281 -91 
Q 834 -91 548 182 
Q 263 456 263 884 
Q 263 1497 752 1853 
Q 1241 2209 2100 2209 
L 2900 2209 
L 2931 2363 
Q 2938 2388 2941 2417 
Q 2944 2447 2944 2509 
Q 2944 2788 2717 2942 
Q 2491 3097 2081 3097 
Q 1800 3097 1504 3025 
Q 1209 2953 897 2809 
L 997 3341 
Q 1322 3463 1633 3523 
Q 1944 3584 2234 3584 
Q 2853 3584 3176 3315 
Q 3500 3047 3500 2534 
Q 3500 2431 3484 2292 
Q 3469 2153 3438 1997 
z
M 2816 1759 
L 2241 1759 
Q 1534 1759 1195 1570 
Q 856 1381 856 984 
Q 856 709 1029 553 
Q 1203 397 1509 397 
Q 1978 397 2328 733 
Q 2678 1069 2791 1631 
L 2816 1759 
z
" transform="scale(0.015625)"/>
       <path id="DejaVuSans-Oblique-78" d="M 3841 3500 
L 2234 1784 
L 3219 0 
L 2559 0 
L 1819 1388 
L 531 0 
L -166 0 
L 1556 1844 
L 641 3500 
L 1300 3500 
L 1972 2234 
L 3144 3500 
L 3841 3500 
z
" transform="scale(0.015625)"/>
       <path id="CenturyGothic-20" transform="scale(0.015625)"/>
       <path id="CenturyGothic-56" d="M 209 4597 
L 709 4597 
L 2231 1044 
L 3781 4597 
L 4281 4597 
L 2281 0 
L 2181 0 
L 209 4597 
z
" transform="scale(0.015625)"/>
       <path id="CenturyGothic-61" d="M 3875 3400 
L 3875 0 
L 3444 0 
L 3444 584 
Q 3169 250 2826 81 
Q 2484 -88 2078 -88 
Q 1356 -88 845 435 
Q 334 959 334 1709 
Q 334 2444 850 2966 
Q 1366 3488 2091 3488 
Q 2509 3488 2848 3309 
Q 3188 3131 3444 2775 
L 3444 3400 
L 3875 3400 
z
M 2125 3066 
Q 1759 3066 1450 2886 
Q 1141 2706 958 2381 
Q 775 2056 775 1694 
Q 775 1334 959 1006 
Q 1144 678 1455 495 
Q 1766 313 2122 313 
Q 2481 313 2803 494 
Q 3125 675 3298 984 
Q 3472 1294 3472 1681 
Q 3472 2272 3083 2669 
Q 2694 3066 2125 3066 
z
" transform="scale(0.015625)"/>
       <path id="CenturyGothic-6c" d="M 422 4713 
L 859 4713 
L 859 0 
L 422 0 
L 422 4713 
z
" transform="scale(0.015625)"/>
       <path id="CenturyGothic-75" d="M 431 3400 
L 872 3400 
L 872 1813 
Q 872 1231 934 1013 
Q 1028 700 1292 519 
Q 1556 338 1922 338 
Q 2288 338 2542 514 
Q 2797 691 2894 978 
Q 2959 1175 2959 1813 
L 2959 3400 
L 3406 3400 
L 3406 1731 
Q 3406 1028 3242 672 
Q 3078 316 2748 114 
Q 2419 -88 1922 -88 
Q 1425 -88 1092 114 
Q 759 316 595 677 
Q 431 1038 431 1763 
L 431 3400 
z
" transform="scale(0.015625)"/>
       <path id="CenturyGothic-65" d="M 3350 1128 
L 3719 934 
Q 3538 578 3300 359 
Q 3063 141 2766 26 
Q 2469 -88 2094 -88 
Q 1263 -88 794 457 
Q 325 1003 325 1691 
Q 325 2338 722 2844 
Q 1225 3488 2069 3488 
Q 2938 3488 3456 2828 
Q 3825 2363 3831 1666 
L 775 1666 
Q 788 1072 1153 692 
Q 1519 313 2056 313 
Q 2316 313 2561 403 
Q 2806 494 2978 644 
Q 3150 794 3350 1128 
z
M 3350 2044 
Q 3263 2394 3095 2603 
Q 2928 2813 2653 2941 
Q 2378 3069 2075 3069 
Q 1575 3069 1216 2747 
Q 953 2513 819 2044 
L 3350 2044 
z
" transform="scale(0.015625)"/>
       <path id="CenturyGothic-73" d="M 2197 3028 
L 1916 2738 
Q 1566 3078 1231 3078 
Q 1019 3078 867 2937 
Q 716 2797 716 2609 
Q 716 2444 841 2294 
Q 966 2141 1366 1934 
Q 1853 1681 2028 1447 
Q 2200 1209 2200 913 
Q 2200 494 1906 203 
Q 1613 -88 1172 -88 
Q 878 -88 611 40 
Q 344 169 169 394 
L 444 706 
Q 778 328 1153 328 
Q 1416 328 1600 497 
Q 1784 666 1784 894 
Q 1784 1081 1663 1228 
Q 1541 1372 1113 1591 
Q 653 1828 488 2059 
Q 322 2291 322 2588 
Q 322 2975 586 3231 
Q 850 3488 1253 3488 
Q 1722 3488 2197 3028 
z
" transform="scale(0.015625)"/>
       <path id="CenturyGothic-28" d="M 1469 4800 
L 1975 4800 
Q 1669 4172 1484 3334 
Q 1300 2497 1300 1606 
Q 1300 781 1439 15 
Q 1578 -750 1822 -1331 
L 1341 -1331 
Q 1109 -775 971 -22 
Q 834 731 834 1547 
Q 834 2425 996 3258 
Q 1159 4091 1469 4800 
z
" transform="scale(0.015625)"/>
       <path id="CenturyGothic-6e" d="M 488 3400 
L 925 3400 
L 925 2791 
Q 1188 3141 1506 3314 
Q 1825 3488 2200 3488 
Q 2581 3488 2876 3294 
Q 3172 3100 3312 2772 
Q 3453 2444 3453 1750 
L 3453 0 
L 3019 0 
L 3019 1622 
Q 3019 2209 2969 2406 
Q 2891 2744 2675 2914 
Q 2459 3084 2113 3084 
Q 1716 3084 1402 2821 
Q 1088 2559 988 2172 
Q 925 1919 925 1247 
L 925 0 
L 488 0 
L 488 3400 
z
" transform="scale(0.015625)"/>
       <path id="CenturyGothic-6d" d="M 484 3400 
L 919 3400 
L 919 2813 
Q 1147 3138 1388 3288 
Q 1719 3488 2084 3488 
Q 2331 3488 2553 3391 
Q 2775 3294 2915 3133 
Q 3056 2972 3159 2672 
Q 3378 3072 3706 3280 
Q 4034 3488 4413 3488 
Q 4766 3488 5036 3309 
Q 5306 3131 5437 2812 
Q 5569 2494 5569 1856 
L 5569 0 
L 5122 0 
L 5122 1856 
Q 5122 2403 5044 2608 
Q 4966 2813 4777 2938 
Q 4588 3063 4325 3063 
Q 4006 3063 3742 2875 
Q 3478 2688 3356 2375 
Q 3234 2063 3234 1331 
L 3234 0 
L 2800 0 
L 2800 1741 
Q 2800 2356 2723 2576 
Q 2647 2797 2456 2930 
Q 2266 3063 2003 3063 
Q 1700 3063 1436 2880 
Q 1172 2697 1045 2387 
Q 919 2078 919 1441 
L 919 0 
L 484 0 
L 484 3400 
z
" transform="scale(0.015625)"/>
       <path id="CenturyGothic-29" d="M 894 -1331 
L 388 -1331 
Q 697 -703 880 134 
Q 1063 972 1063 1863 
Q 1063 2688 923 3453 
Q 784 4219 541 4800 
L 1022 4800 
Q 1256 4244 1392 3489 
Q 1528 2734 1528 1919 
Q 1528 1044 1365 211 
Q 1203 -622 894 -1331 
z
" transform="scale(0.015625)"/>
      </defs>
      <use xlink:href="#DejaVuSans-Oblique-3bb" transform="translate(0 0.015625)"/>
      <use xlink:href="#DejaVuSans-Oblique-6d" transform="translate(59.179688 -16.390625) scale(0.7)"/>
      <use xlink:href="#DejaVuSans-Oblique-61" transform="translate(127.368164 -16.390625) scale(0.7)"/>
      <use xlink:href="#DejaVuSans-Oblique-78" transform="translate(170.263672 -16.390625) scale(0.7)"/>
      <use xlink:href="#CenturyGothic-20" transform="translate(214.423828 0.015625)"/>
      <use xlink:href="#CenturyGothic-56" transform="translate(242.109375 0.015625)"/>
      <use xlink:href="#CenturyGothic-61" transform="translate(312.324219 0.015625)"/>
      <use xlink:href="#CenturyGothic-6c" transform="translate(380.634766 0.015625)"/>
      <use xlink:href="#CenturyGothic-75" transform="translate(400.654297 0.015625)"/>
      <use xlink:href="#CenturyGothic-65" transform="translate(461.445312 0.015625)"/>
      <use xlink:href="#CenturyGothic-73" transform="translate(526.435547 0.015625)"/>
      <use xlink:href="#CenturyGothic-20" transform="translate(565.253906 0.015625)"/>
      <use xlink:href="#CenturyGothic-28" transform="translate(592.939453 0.015625)"/>
      <use xlink:href="#CenturyGothic-6e" transform="translate(629.853516 0.015625)"/>
      <use xlink:href="#CenturyGothic-6d" transform="translate(690.839844 0.015625)"/>
      <use xlink:href="#CenturyGothic-29" transform="translate(784.638672 0.015625)"/>
     </g>
    </g>
   </g>
   <g id="matplotlib.axis_2">
    <g id="ytick_1">
     <g id="line2d_7">
      <defs>
       <path id="m1e58e169ec" d="M 0 0 
L -3.5 0 
" style="stroke: #000000; stroke-width: 0.8"/>
      </defs>
      <g>
       <use xlink:href="#m1e58e169ec" x="48.047813" y="321.49304" style="stroke: #000000; stroke-width: 0.8"/>
      </g>
     </g>
     <g id="text_8">
      <!-- 0 -->
      <g transform="translate(35.505625 325.175071) scale(0.1 -0.1)">
       <use xlink:href="#CenturyGothic-30"/>
      </g>
     </g>
    </g>
    <g id="ytick_2">
     <g id="line2d_8">
      <g>
       <use xlink:href="#m1e58e169ec" x="48.047813" y="269.884987" style="stroke: #000000; stroke-width: 0.8"/>
      </g>
     </g>
     <g id="text_9">
      <!-- 20 -->
      <g transform="translate(29.963438 273.567019) scale(0.1 -0.1)">
       <defs>
        <path id="CenturyGothic-32" d="M 741 3156 
L 300 3156 
Q 319 3838 755 4275 
Q 1191 4713 1831 4713 
Q 2466 4713 2858 4303 
Q 3250 3894 3250 3338 
Q 3250 2947 3062 2605 
Q 2875 2263 2334 1678 
L 1191 444 
L 3313 444 
L 3313 0 
L 191 0 
L 1947 1897 
Q 2481 2469 2642 2745 
Q 2803 3022 2803 3328 
Q 2803 3716 2514 3995 
Q 2225 4275 1806 4275 
Q 1366 4275 1073 3981 
Q 781 3688 741 3156 
z
" transform="scale(0.015625)"/>
       </defs>
       <use xlink:href="#CenturyGothic-32"/>
       <use xlink:href="#CenturyGothic-30" x="55.419922"/>
      </g>
     </g>
    </g>
    <g id="ytick_3">
     <g id="line2d_9">
      <g>
       <use xlink:href="#m1e58e169ec" x="48.047813" y="218.276935" style="stroke: #000000; stroke-width: 0.8"/>
      </g>
     </g>
     <g id="text_10">
      <!-- 40 -->
      <g transform="translate(29.963438 221.958966) scale(0.1 -0.1)">
       <use xlink:href="#CenturyGothic-34"/>
       <use xlink:href="#CenturyGothic-30" x="55.419922"/>
      </g>
     </g>
    </g>
    <g id="ytick_4">
     <g id="line2d_10">
      <g>
       <use xlink:href="#m1e58e169ec" x="48.047813" y="166.668882" style="stroke: #000000; stroke-width: 0.8"/>
      </g>
     </g>
     <g id="text_11">
      <!-- 60 -->
      <g transform="translate(29.963438 170.350913) scale(0.1 -0.1)">
       <use xlink:href="#CenturyGothic-36"/>
       <use xlink:href="#CenturyGothic-30" x="55.419922"/>
      </g>
     </g>
    </g>
    <g id="ytick_5">
     <g id="line2d_11">
      <g>
       <use xlink:href="#m1e58e169ec" x="48.047813" y="115.06083" style="stroke: #000000; stroke-width: 0.8"/>
      </g>
     </g>
     <g id="text_12">
      <!-- 80 -->
      <g transform="translate(29.963438 118.742861) scale(0.1 -0.1)">
       <defs>
        <path id="CenturyGothic-38" d="M 2459 2522 
Q 2925 2291 3126 1994 
Q 3328 1697 3328 1319 
Q 3328 788 2981 381 
Q 2556 -116 1766 -116 
Q 1003 -116 609 320 
Q 216 756 216 1281 
Q 216 1666 422 1973 
Q 628 2281 1109 2522 
Q 772 2697 603 2956 
Q 434 3216 434 3513 
Q 434 3813 614 4098 
Q 794 4384 1111 4548 
Q 1428 4713 1797 4713 
Q 2156 4713 2462 4547 
Q 2769 4381 2942 4097 
Q 3116 3813 3116 3500 
Q 3116 3188 2952 2944 
Q 2788 2700 2459 2522 
z
M 1775 4266 
Q 1397 4266 1148 4042 
Q 900 3819 900 3509 
Q 900 3203 1167 2954 
Q 1434 2706 1791 2706 
Q 2019 2706 2222 2818 
Q 2425 2931 2539 3126 
Q 2653 3322 2653 3519 
Q 2653 3797 2428 4031 
Q 2203 4266 1775 4266 
z
M 1797 2291 
Q 1322 2291 1000 1983 
Q 678 1675 678 1266 
Q 678 1013 815 788 
Q 953 563 1200 441 
Q 1447 319 1772 319 
Q 2275 319 2572 616 
Q 2869 913 2869 1309 
Q 2869 1694 2555 1992 
Q 2241 2291 1797 2291 
z
" transform="scale(0.015625)"/>
       </defs>
       <use xlink:href="#CenturyGothic-38"/>
       <use xlink:href="#CenturyGothic-30" x="55.419922"/>
      </g>
     </g>
    </g>
    <g id="ytick_6">
     <g id="line2d_12">
      <g>
       <use xlink:href="#m1e58e169ec" x="48.047813" y="63.452777" style="stroke: #000000; stroke-width: 0.8"/>
      </g>
     </g>
     <g id="text_13">
      <!-- 100 -->
      <g transform="translate(24.42125 67.134808) scale(0.1 -0.1)">
       <defs>
        <path id="CenturyGothic-31" d="M 1184 4597 
L 2088 4597 
L 2088 0 
L 1631 0 
L 1631 4147 
L 909 4147 
L 1184 4597 
z
" transform="scale(0.015625)"/>
       </defs>
       <use xlink:href="#CenturyGothic-31"/>
       <use xlink:href="#CenturyGothic-30" x="55.419922"/>
       <use xlink:href="#CenturyGothic-30" x="110.839844"/>
      </g>
     </g>
    </g>
    <g id="ytick_7">
     <g id="line2d_13">
      <g>
       <use xlink:href="#m1e58e169ec" x="48.047813" y="11.844725" style="stroke: #000000; stroke-width: 0.8"/>
      </g>
     </g>
     <g id="text_14">
      <!-- 120 -->
      <g transform="translate(24.42125 15.526756) scale(0.1 -0.1)">
       <use xlink:href="#CenturyGothic-31"/>
       <use xlink:href="#CenturyGothic-32" x="55.419922"/>
       <use xlink:href="#CenturyGothic-30" x="110.839844"/>
      </g>
     </g>
    </g>
    <g id="text_15">
     <!-- # of Opsins -->
     <g transform="translate(17.7 202.008707) rotate(-90) scale(0.14 -0.14)">
      <defs>
       <path id="CenturyGothic-23" d="M 3853 1881 
L 3853 1544 
L 3078 1544 
L 2853 0 
L 2503 0 
L 2728 1544 
L 1688 1544 
L 1450 0 
L 1106 0 
L 1344 1544 
L 575 1544 
L 575 1881 
L 1397 1881 
L 1556 2925 
L 766 2925 
L 766 3266 
L 1606 3266 
L 1825 4728 
L 2159 4728 
L 1947 3266 
L 2984 3266 
L 3197 4728 
L 3547 4728 
L 3331 3266 
L 4031 3266 
L 4031 2925 
L 3281 2925 
L 3131 1881 
L 3853 1881 
z
M 2938 2925 
L 1894 2925 
L 1741 1881 
L 2778 1881 
L 2938 2925 
z
" transform="scale(0.015625)"/>
       <path id="CenturyGothic-6f" d="M 2097 3488 
Q 2881 3488 3397 2919 
Q 3866 2400 3866 1691 
Q 3866 978 3370 445 
Q 2875 -88 2097 -88 
Q 1316 -88 820 445 
Q 325 978 325 1691 
Q 325 2397 794 2916 
Q 1309 3488 2097 3488 
z
M 2097 3059 
Q 1553 3059 1162 2656 
Q 772 2253 772 1681 
Q 772 1313 950 994 
Q 1128 675 1431 501 
Q 1734 328 2097 328 
Q 2459 328 2762 501 
Q 3066 675 3244 994 
Q 3422 1313 3422 1681 
Q 3422 2253 3030 2656 
Q 2638 3059 2097 3059 
z
" transform="scale(0.015625)"/>
       <path id="CenturyGothic-66" d="M 1888 4713 
L 1888 4284 
Q 1647 4388 1475 4388 
Q 1347 4388 1262 4336 
Q 1178 4284 1156 4217 
Q 1134 4150 1134 3859 
L 1134 3400 
L 1844 3400 
L 1844 3025 
L 1131 3025 
L 1131 0 
L 694 0 
L 694 3025 
L 247 3025 
L 247 3400 
L 694 3400 
L 694 3931 
Q 694 4297 761 4453 
Q 828 4609 989 4704 
Q 1150 4800 1378 4800 
Q 1591 4800 1888 4713 
z
" transform="scale(0.015625)"/>
       <path id="CenturyGothic-4f" d="M 2750 4713 
Q 3794 4713 4497 4016 
Q 5200 3319 5200 2300 
Q 5200 1291 4498 587 
Q 3797 -116 2788 -116 
Q 1766 -116 1062 584 
Q 359 1284 359 2278 
Q 359 2941 679 3506 
Q 1000 4072 1553 4392 
Q 2106 4713 2750 4713 
z
M 2772 4263 
Q 2263 4263 1806 3997 
Q 1350 3731 1094 3281 
Q 838 2831 838 2278 
Q 838 1459 1405 895 
Q 1972 331 2772 331 
Q 3306 331 3761 590 
Q 4216 850 4470 1300 
Q 4725 1750 4725 2300 
Q 4725 2847 4470 3289 
Q 4216 3731 3753 3997 
Q 3291 4263 2772 4263 
z
" transform="scale(0.015625)"/>
       <path id="CenturyGothic-70" d="M 494 3400 
L 928 3400 
L 928 2775 
Q 1188 3131 1525 3309 
Q 1863 3488 2278 3488 
Q 3003 3488 3518 2966 
Q 4034 2444 4034 1709 
Q 4034 959 3523 435 
Q 3013 -88 2291 -88 
Q 1884 -88 1543 81 
Q 1203 250 928 584 
L 928 -1244 
L 494 -1244 
L 494 3400 
z
M 2244 3066 
Q 1675 3066 1286 2669 
Q 897 2272 897 1681 
Q 897 1294 1070 984 
Q 1244 675 1567 494 
Q 1891 313 2250 313 
Q 2603 313 2914 495 
Q 3225 678 3409 1006 
Q 3594 1334 3594 1694 
Q 3594 2056 3411 2381 
Q 3228 2706 2918 2886 
Q 2609 3066 2244 3066 
z
" transform="scale(0.015625)"/>
       <path id="CenturyGothic-69" d="M 641 4800 
Q 791 4800 897 4694 
Q 1003 4588 1003 4438 
Q 1003 4291 897 4184 
Q 791 4078 641 4078 
Q 494 4078 387 4184 
Q 281 4291 281 4438 
Q 281 4588 387 4694 
Q 494 4800 641 4800 
z
M 422 3400 
L 863 3400 
L 863 0 
L 422 0 
L 422 3400 
z
" transform="scale(0.015625)"/>
      </defs>
      <use xlink:href="#CenturyGothic-23"/>
      <use xlink:href="#CenturyGothic-20" x="72.021484"/>
      <use xlink:href="#CenturyGothic-6f" x="99.707031"/>
      <use xlink:href="#CenturyGothic-66" x="165.185547"/>
      <use xlink:href="#CenturyGothic-20" x="196.582031"/>
      <use xlink:href="#CenturyGothic-4f" x="224.267578"/>
      <use xlink:href="#CenturyGothic-70" x="311.181641"/>
      <use xlink:href="#CenturyGothic-73" x="379.394531"/>
      <use xlink:href="#CenturyGothic-69" x="418.212891"/>
      <use xlink:href="#CenturyGothic-6e" x="438.232422"/>
      <use xlink:href="#CenturyGothic-73" x="499.21875"/>
     </g>
    </g>
   </g>
   <g id="line2d_14">
    <path d="M 84.876063 251.887407 
L 87.523099 248.365422 
L 89.791987 245.676062 
L 92.060875 243.329105 
L 93.951615 241.656646 
L 95.842355 240.256476 
L 97.733095 239.138547 
L 99.623836 238.308945 
L 101.514576 237.769775 
L 103.027168 237.546403 
L 104.53976 237.504962 
L 106.4305 237.70219 
L 108.32124 238.164901 
L 110.21198 238.87785 
L 112.10272 239.82273 
L 114.371608 241.233033 
L 116.640497 242.906596 
L 119.287533 245.133228 
L 122.690865 248.316837 
L 127.984937 253.638746 
L 134.035306 259.642826 
L 137.438638 262.732379 
L 140.463822 265.205916 
L 143.110858 267.120254 
L 145.757894 268.778341 
L 148.40493 270.167642 
L 151.051967 271.284037 
L 153.699003 272.131037 
L 156.346039 272.718864 
L 158.993075 273.06345 
L 161.640111 273.185394 
L 164.665295 273.083337 
L 167.690479 272.762418 
L 171.47196 272.11874 
L 176.009736 271.10243 
L 193.404545 266.95048 
L 198.320469 266.155851 
L 202.858245 265.64483 
L 207.77417 265.319628 
L 213.068242 265.192293 
L 219.874906 265.263984 
L 238.782308 265.618238 
L 243.698232 265.416411 
L 247.479712 265.061037 
L 250.883044 264.535245 
L 253.908228 263.857813 
L 256.933413 262.93649 
L 259.580449 261.891848 
L 262.227485 260.588022 
L 264.496373 259.236741 
L 266.765261 257.645485 
L 269.034149 255.79173 
L 271.303037 253.654001 
L 273.571926 251.212552 
L 275.840814 248.450088 
L 278.109702 245.352517 
L 280.37859 241.909716 
L 283.025626 237.449877 
L 285.672662 232.513905 
L 288.319698 227.114186 
L 291.344883 220.40798 
L 294.748215 212.253674 
L 298.529695 202.579695 
L 304.201915 187.341412 
L 311.00858 169.142202 
L 314.411912 160.648359 
L 317.058948 154.545273 
L 319.705984 149.012156 
L 321.974872 144.807619 
L 323.865612 141.732562 
L 325.756353 139.082914 
L 327.268945 137.289268 
L 328.781537 135.799544 
L 330.294129 134.624611 
L 331.806721 133.773213 
L 332.941165 133.350992 
L 334.075609 133.116376 
L 335.210053 133.070533 
L 336.344497 133.213884 
L 337.478941 133.546103 
L 338.613385 134.06612 
L 340.125977 135.048383 
L 341.638569 136.354952 
L 343.151161 137.977355 
L 344.663754 139.905018 
L 346.554494 142.724573 
L 348.445234 145.972865 
L 350.714122 150.390824 
L 352.98301 155.31689 
L 355.630046 161.615403 
L 358.65523 169.400623 
L 362.436711 179.754804 
L 377.562631 221.894679 
L 380.965964 230.406191 
L 383.991148 237.442828 
L 387.016332 243.933014 
L 389.663368 249.143411 
L 392.310404 253.910855 
L 394.95744 258.240073 
L 397.604477 262.144245 
L 400.251513 265.643642 
L 402.898549 268.764289 
L 405.545585 271.53667 
L 408.192621 273.994523 
L 410.839657 276.173719 
L 413.864842 278.370495 
L 417.268174 280.533629 
L 421.049654 282.644462 
L 425.58743 284.90512 
L 433.906687 288.736608 
L 441.469647 292.322055 
L 447.520015 295.431749 
L 454.32668 299.184991 
L 462.645936 303.939343 
L 462.645936 303.939343 
" clip-path="url(#p67f011450f)" style="fill: none; stroke: #000000; stroke-width: 2; stroke-linecap: square"/>
   </g>
   <g id="line2d_15">
    <path d="M 71.07625 316.628637 
L 81.679935 316.129353 
L 91.36156 315.898053 
L 101.504215 315.888966 
L 113.95202 316.125171 
L 136.081449 316.586602 
L 144.841015 316.512096 
L 152.217491 316.239086 
L 159.593968 315.739616 
L 166.970444 315.003513 
L 174.80795 313.979811 
L 184.028546 312.528701 
L 208.463124 308.525395 
L 215.378571 307.683358 
L 221.832988 307.110641 
L 228.287405 306.76261 
L 234.741822 306.633983 
L 242.118298 306.71815 
L 251.799924 307.0786 
L 268.858026 307.754318 
L 276.695532 307.809696 
L 283.610978 307.631742 
L 290.065395 307.251492 
L 296.980842 306.616483 
L 304.357319 305.706949 
L 313.116884 304.386294 
L 326.486748 302.107786 
L 341.700731 299.572469 
L 351.382356 298.189677 
L 360.141922 297.168982 
L 367.979428 296.470528 
L 375.816934 295.993616 
L 383.193411 295.761643 
L 390.569887 295.754322 
L 397.485334 295.964397 
L 404.400781 296.395543 
L 411.316227 297.05522 
L 418.231674 297.944804 
L 425.147121 299.057156 
L 432.523597 300.469525 
L 440.822133 302.294623 
L 450.964789 304.768544 
L 480.931724 312.237098 
L 489.69129 314.102514 
L 497.989826 315.642162 
L 505.827332 316.878506 
L 514.125868 317.959853 
L 522.885434 318.866297 
L 531.645 319.562946 
L 531.645 319.562946 
" clip-path="url(#p67f011450f)" style="fill: none; stroke: #000000; stroke-width: 2; stroke-linecap: square"/>
   </g>
   <g id="patch_63">
    <path d="M 48.047813 321.49304 
L 48.047813 7.2 
" style="fill: none; stroke: #000000; stroke-width: 0.8; stroke-linejoin: miter; stroke-linecap: square"/>
   </g>
   <g id="patch_64">
    <path d="M 554.673437 321.49304 
L 554.673437 7.2 
" style="fill: none; stroke: #000000; stroke-width: 0.8; stroke-linejoin: miter; stroke-linecap: square"/>
   </g>
   <g id="patch_65">
    <path d="M 48.047812 321.49304 
L 554.673437 321.49304 
" style="fill: none; stroke: #000000; stroke-width: 0.8; stroke-linejoin: miter; stroke-linecap: square"/>
   </g>
   <g id="patch_66">
    <path d="M 48.047812 7.2 
L 554.673437 7.2 
" style="fill: none; stroke: #000000; stroke-width: 0.8; stroke-linejoin: miter; stroke-linecap: square"/>
   </g>
   <g id="legend_1">
    <g id="patch_67">
     <path d="M 55.047813 73.246875 
L 329.711875 73.246875 
Q 331.711875 73.246875 331.711875 71.246875 
L 331.711875 14.2 
Q 331.711875 12.2 329.711875 12.2 
L 55.047813 12.2 
Q 53.047813 12.2 53.047813 14.2 
L 53.047813 71.246875 
Q 53.047813 73.246875 55.047813 73.246875 
z
" style="fill: #ffffff; opacity: 0.8; stroke: #cccccc; stroke-linejoin: miter"/>
    </g>
    <g id="patch_68">
     <path d="M 57.047813 23.7 
L 77.047813 23.7 
L 77.047813 16.7 
L 57.047813 16.7 
z
" style="fill: #0000ff; opacity: 0.7"/>
    </g>
    <g id="text_16">
     <!-- Vertebrate Opsins -->
     <g transform="translate(85.047813 23.7) scale(0.1 -0.1)">
      <defs>
       <path id="CenturyGothic-72" d="M 322 3400 
L 769 3400 
L 769 2903 
Q 969 3197 1191 3342 
Q 1413 3488 1653 3488 
Q 1834 3488 2041 3372 
L 1813 3003 
Q 1675 3063 1581 3063 
Q 1363 3063 1159 2883 
Q 956 2703 850 2325 
Q 769 2034 769 1150 
L 769 0 
L 322 0 
L 322 3400 
z
" transform="scale(0.015625)"/>
       <path id="CenturyGothic-74" d="M 869 4663 
L 1309 4663 
L 1309 3400 
L 2003 3400 
L 2003 3025 
L 1309 3025 
L 1309 0 
L 869 0 
L 869 3025 
L 272 3025 
L 272 3400 
L 869 3400 
L 869 4663 
z
" transform="scale(0.015625)"/>
       <path id="CenturyGothic-62" d="M 516 0 
L 516 4713 
L 950 4713 
L 950 2816 
Q 1225 3153 1565 3320 
Q 1906 3488 2313 3488 
Q 3034 3488 3545 2964 
Q 4056 2441 4056 1694 
Q 4056 956 3540 434 
Q 3025 -88 2300 -88 
Q 1884 -88 1546 90 
Q 1209 269 950 625 
L 950 0 
L 516 0 
z
M 2266 334 
Q 2631 334 2940 514 
Q 3250 694 3433 1019 
Q 3616 1344 3616 1706 
Q 3616 2069 3431 2397 
Q 3247 2725 2936 2908 
Q 2625 3091 2272 3091 
Q 1913 3091 1589 2908 
Q 1266 2725 1092 2415 
Q 919 2106 919 1719 
Q 919 1128 1308 731 
Q 1697 334 2266 334 
z
" transform="scale(0.015625)"/>
      </defs>
      <use xlink:href="#CenturyGothic-56"/>
      <use xlink:href="#CenturyGothic-65" x="70.214844"/>
      <use xlink:href="#CenturyGothic-72" x="135.205078"/>
      <use xlink:href="#CenturyGothic-74" x="165.283203"/>
      <use xlink:href="#CenturyGothic-65" x="199.169922"/>
      <use xlink:href="#CenturyGothic-62" x="264.160156"/>
      <use xlink:href="#CenturyGothic-72" x="332.373047"/>
      <use xlink:href="#CenturyGothic-61" x="362.451172"/>
      <use xlink:href="#CenturyGothic-74" x="430.761719"/>
      <use xlink:href="#CenturyGothic-65" x="464.648438"/>
      <use xlink:href="#CenturyGothic-20" x="529.638672"/>
      <use xlink:href="#CenturyGothic-4f" x="557.324219"/>
      <use xlink:href="#CenturyGothic-70" x="644.238281"/>
      <use xlink:href="#CenturyGothic-73" x="712.451172"/>
      <use xlink:href="#CenturyGothic-69" x="751.269531"/>
      <use xlink:href="#CenturyGothic-6e" x="771.289062"/>
      <use xlink:href="#CenturyGothic-73" x="832.275391"/>
     </g>
    </g>
    <g id="line2d_16">
     <path d="M 57.047813 34.64375 
L 67.047813 34.64375 
L 77.047813 34.64375 
" style="fill: none; stroke: #000000; stroke-width: 2; stroke-linecap: square"/>
    </g>
    <g id="text_17">
     <!-- Kernel Density Estimate (KDE) - Vertebrate Opsins -->
     <g transform="translate(85.047813 38.14375) scale(0.1 -0.1)">
      <defs>
       <path id="CenturyGothic-4b" d="M 559 4597 
L 1028 4597 
L 1028 2872 
L 2863 4597 
L 3484 4597 
L 1275 2534 
L 3656 0 
L 3047 0 
L 1028 2144 
L 1028 0 
L 559 0 
L 559 4597 
z
" transform="scale(0.015625)"/>
       <path id="CenturyGothic-44" d="M 559 0 
L 559 4597 
L 1513 4597 
Q 2544 4597 3009 4431 
Q 3678 4197 4054 3619 
Q 4431 3041 4431 2241 
Q 4431 1550 4132 1025 
Q 3834 500 3357 250 
Q 2881 0 2022 0 
L 559 0 
z
M 1000 434 
L 1531 434 
Q 2484 434 2853 553 
Q 3372 722 3669 1161 
Q 3966 1600 3966 2234 
Q 3966 2900 3644 3372 
Q 3322 3844 2747 4019 
Q 2316 4150 1325 4150 
L 1000 4150 
L 1000 434 
z
" transform="scale(0.015625)"/>
       <path id="CenturyGothic-79" d="M 122 3400 
L 584 3400 
L 1753 781 
L 2888 3400 
L 3353 3400 
L 1325 -1244 
L 863 -1244 
L 1519 256 
L 122 3400 
z
" transform="scale(0.015625)"/>
       <path id="CenturyGothic-45" d="M 563 4597 
L 3197 4597 
L 3197 4144 
L 1022 4144 
L 1022 2706 
L 3178 2706 
L 3178 2256 
L 1022 2256 
L 1022 453 
L 3178 453 
L 3178 0 
L 563 0 
L 563 4597 
z
" transform="scale(0.015625)"/>
       <path id="CenturyGothic-2d" d="M 203 1919 
L 1922 1919 
L 1922 1538 
L 203 1538 
L 203 1919 
z
" transform="scale(0.015625)"/>
      </defs>
      <use xlink:href="#CenturyGothic-4b"/>
      <use xlink:href="#CenturyGothic-65" x="59.082031"/>
      <use xlink:href="#CenturyGothic-72" x="124.072266"/>
      <use xlink:href="#CenturyGothic-6e" x="154.150391"/>
      <use xlink:href="#CenturyGothic-65" x="215.136719"/>
      <use xlink:href="#CenturyGothic-6c" x="280.126953"/>
      <use xlink:href="#CenturyGothic-20" x="300.146484"/>
      <use xlink:href="#CenturyGothic-44" x="327.832031"/>
      <use xlink:href="#CenturyGothic-65" x="402.246094"/>
      <use xlink:href="#CenturyGothic-6e" x="467.236328"/>
      <use xlink:href="#CenturyGothic-73" x="528.222656"/>
      <use xlink:href="#CenturyGothic-69" x="567.041016"/>
      <use xlink:href="#CenturyGothic-74" x="587.060547"/>
      <use xlink:href="#CenturyGothic-79" x="620.947266"/>
      <use xlink:href="#CenturyGothic-20" x="674.560547"/>
      <use xlink:href="#CenturyGothic-45" x="702.246094"/>
      <use xlink:href="#CenturyGothic-73" x="755.859375"/>
      <use xlink:href="#CenturyGothic-74" x="794.677734"/>
      <use xlink:href="#CenturyGothic-69" x="828.564453"/>
      <use xlink:href="#CenturyGothic-6d" x="848.583984"/>
      <use xlink:href="#CenturyGothic-61" x="942.382812"/>
      <use xlink:href="#CenturyGothic-74" x="1010.693359"/>
      <use xlink:href="#CenturyGothic-65" x="1044.580078"/>
      <use xlink:href="#CenturyGothic-20" x="1109.570312"/>
      <use xlink:href="#CenturyGothic-28" x="1137.255859"/>
      <use xlink:href="#CenturyGothic-4b" x="1174.169922"/>
      <use xlink:href="#CenturyGothic-44" x="1233.251953"/>
      <use xlink:href="#CenturyGothic-45" x="1307.666016"/>
      <use xlink:href="#CenturyGothic-29" x="1361.279297"/>
      <use xlink:href="#CenturyGothic-20" x="1398.193359"/>
      <use xlink:href="#CenturyGothic-2d" x="1425.878906"/>
      <use xlink:href="#CenturyGothic-20" x="1459.082031"/>
      <use xlink:href="#CenturyGothic-56" x="1486.767578"/>
      <use xlink:href="#CenturyGothic-65" x="1556.982422"/>
      <use xlink:href="#CenturyGothic-72" x="1621.972656"/>
      <use xlink:href="#CenturyGothic-74" x="1652.050781"/>
      <use xlink:href="#CenturyGothic-65" x="1685.9375"/>
      <use xlink:href="#CenturyGothic-62" x="1750.927734"/>
      <use xlink:href="#CenturyGothic-72" x="1819.140625"/>
      <use xlink:href="#CenturyGothic-61" x="1849.21875"/>
      <use xlink:href="#CenturyGothic-74" x="1917.529297"/>
      <use xlink:href="#CenturyGothic-65" x="1951.416016"/>
      <use xlink:href="#CenturyGothic-20" x="2016.40625"/>
      <use xlink:href="#CenturyGothic-4f" x="2044.091797"/>
      <use xlink:href="#CenturyGothic-70" x="2131.005859"/>
      <use xlink:href="#CenturyGothic-73" x="2199.21875"/>
      <use xlink:href="#CenturyGothic-69" x="2238.037109"/>
      <use xlink:href="#CenturyGothic-6e" x="2258.056641"/>
      <use xlink:href="#CenturyGothic-73" x="2319.042969"/>
     </g>
    </g>
    <g id="patch_69">
     <path d="M 57.047813 52.723437 
L 77.047813 52.723437 
L 77.047813 45.723437 
L 57.047813 45.723437 
z
" style="fill: #ff0000; opacity: 0.7"/>
    </g>
    <g id="text_18">
     <!-- Invertebrate Opsins -->
     <g transform="translate(85.047813 52.723437) scale(0.1 -0.1)">
      <defs>
       <path id="CenturyGothic-49" d="M 494 4597 
L 953 4597 
L 953 0 
L 494 0 
L 494 4597 
z
" transform="scale(0.015625)"/>
       <path id="CenturyGothic-76" d="M 166 3400 
L 631 3400 
L 1769 925 
L 2897 3400 
L 3366 3400 
L 1809 0 
L 1731 0 
L 166 3400 
z
" transform="scale(0.015625)"/>
      </defs>
      <use xlink:href="#CenturyGothic-49"/>
      <use xlink:href="#CenturyGothic-6e" x="22.607422"/>
      <use xlink:href="#CenturyGothic-76" x="83.59375"/>
      <use xlink:href="#CenturyGothic-65" x="139.013672"/>
      <use xlink:href="#CenturyGothic-72" x="204.003906"/>
      <use xlink:href="#CenturyGothic-74" x="234.082031"/>
      <use xlink:href="#CenturyGothic-65" x="267.96875"/>
      <use xlink:href="#CenturyGothic-62" x="332.958984"/>
      <use xlink:href="#CenturyGothic-72" x="401.171875"/>
      <use xlink:href="#CenturyGothic-61" x="431.25"/>
      <use xlink:href="#CenturyGothic-74" x="499.560547"/>
      <use xlink:href="#CenturyGothic-65" x="533.447266"/>
      <use xlink:href="#CenturyGothic-20" x="598.4375"/>
      <use xlink:href="#CenturyGothic-4f" x="626.123047"/>
      <use xlink:href="#CenturyGothic-70" x="713.037109"/>
      <use xlink:href="#CenturyGothic-73" x="781.25"/>
      <use xlink:href="#CenturyGothic-69" x="820.068359"/>
      <use xlink:href="#CenturyGothic-6e" x="840.087891"/>
      <use xlink:href="#CenturyGothic-73" x="901.074219"/>
     </g>
    </g>
    <g id="line2d_17">
     <path d="M 57.047813 63.667188 
L 67.047813 63.667188 
L 77.047813 63.667188 
" style="fill: none; stroke: #000000; stroke-width: 2; stroke-linecap: square"/>
    </g>
    <g id="text_19">
     <!-- Kernel Density Estimate (KDE) - Invertebrate Opsins -->
     <g transform="translate(85.047813 67.167188) scale(0.1 -0.1)">
      <use xlink:href="#CenturyGothic-4b"/>
      <use xlink:href="#CenturyGothic-65" x="59.082031"/>
      <use xlink:href="#CenturyGothic-72" x="124.072266"/>
      <use xlink:href="#CenturyGothic-6e" x="154.150391"/>
      <use xlink:href="#CenturyGothic-65" x="215.136719"/>
      <use xlink:href="#CenturyGothic-6c" x="280.126953"/>
      <use xlink:href="#CenturyGothic-20" x="300.146484"/>
      <use xlink:href="#CenturyGothic-44" x="327.832031"/>
      <use xlink:href="#CenturyGothic-65" x="402.246094"/>
      <use xlink:href="#CenturyGothic-6e" x="467.236328"/>
      <use xlink:href="#CenturyGothic-73" x="528.222656"/>
      <use xlink:href="#CenturyGothic-69" x="567.041016"/>
      <use xlink:href="#CenturyGothic-74" x="587.060547"/>
      <use xlink:href="#CenturyGothic-79" x="620.947266"/>
      <use xlink:href="#CenturyGothic-20" x="674.560547"/>
      <use xlink:href="#CenturyGothic-45" x="702.246094"/>
      <use xlink:href="#CenturyGothic-73" x="755.859375"/>
      <use xlink:href="#CenturyGothic-74" x="794.677734"/>
      <use xlink:href="#CenturyGothic-69" x="828.564453"/>
      <use xlink:href="#CenturyGothic-6d" x="848.583984"/>
      <use xlink:href="#CenturyGothic-61" x="942.382812"/>
      <use xlink:href="#CenturyGothic-74" x="1010.693359"/>
      <use xlink:href="#CenturyGothic-65" x="1044.580078"/>
      <use xlink:href="#CenturyGothic-20" x="1109.570312"/>
      <use xlink:href="#CenturyGothic-28" x="1137.255859"/>
      <use xlink:href="#CenturyGothic-4b" x="1174.169922"/>
      <use xlink:href="#CenturyGothic-44" x="1233.251953"/>
      <use xlink:href="#CenturyGothic-45" x="1307.666016"/>
      <use xlink:href="#CenturyGothic-29" x="1361.279297"/>
      <use xlink:href="#CenturyGothic-20" x="1398.193359"/>
      <use xlink:href="#CenturyGothic-2d" x="1425.878906"/>
      <use xlink:href="#CenturyGothic-20" x="1459.082031"/>
      <use xlink:href="#CenturyGothic-49" x="1486.767578"/>
      <use xlink:href="#CenturyGothic-6e" x="1509.375"/>
      <use xlink:href="#CenturyGothic-76" x="1570.361328"/>
      <use xlink:href="#CenturyGothic-65" x="1625.78125"/>
      <use xlink:href="#CenturyGothic-72" x="1690.771484"/>
      <use xlink:href="#CenturyGothic-74" x="1720.849609"/>
      <use xlink:href="#CenturyGothic-65" x="1754.736328"/>
      <use xlink:href="#CenturyGothic-62" x="1819.726562"/>
      <use xlink:href="#CenturyGothic-72" x="1887.939453"/>
      <use xlink:href="#CenturyGothic-61" x="1918.017578"/>
      <use xlink:href="#CenturyGothic-74" x="1986.328125"/>
      <use xlink:href="#CenturyGothic-65" x="2020.214844"/>
      <use xlink:href="#CenturyGothic-20" x="2085.205078"/>
      <use xlink:href="#CenturyGothic-4f" x="2112.890625"/>
      <use xlink:href="#CenturyGothic-70" x="2199.804688"/>
      <use xlink:href="#CenturyGothic-73" x="2268.017578"/>
      <use xlink:href="#CenturyGothic-69" x="2306.835938"/>
      <use xlink:href="#CenturyGothic-6e" x="2326.855469"/>
      <use xlink:href="#CenturyGothic-73" x="2387.841797"/>
     </g>
    </g>
   </g>
  </g>
  <g id="axes_2">
   <g id="patch_70">
    <path d="M 48.047813 401.292187 
L 554.673437 401.292187 
L 554.673437 369.862884 
L 48.047813 369.862884 
z
" style="fill: #ffffff"/>
   </g>
   <g id="matplotlib.axis_3">
    <g id="xtick_7">
     <g id="line2d_18">
      <g>
       <use xlink:href="#me978a31851" x="48.047813" y="401.292187" style="stroke: #000000; stroke-width: 0.8"/>
      </g>
     </g>
     <g id="text_20">
      <!-- 0.0 -->
      <g transform="translate(41.12125 415.65625) scale(0.1 -0.1)">
       <defs>
        <path id="CenturyGothic-2e" d="M 969 688 
Q 1128 688 1240 575 
Q 1353 463 1353 300 
Q 1353 141 1240 26 
Q 1128 -88 969 -88 
Q 809 -88 696 26 
Q 584 141 584 300 
Q 584 463 696 575 
Q 809 688 969 688 
z
" transform="scale(0.015625)"/>
       </defs>
       <use xlink:href="#CenturyGothic-30"/>
       <use xlink:href="#CenturyGothic-2e" x="55.419922"/>
       <use xlink:href="#CenturyGothic-30" x="83.105469"/>
      </g>
     </g>
    </g>
    <g id="xtick_8">
     <g id="line2d_19">
      <g>
       <use xlink:href="#me978a31851" x="149.372937" y="401.292187" style="stroke: #000000; stroke-width: 0.8"/>
      </g>
     </g>
     <g id="text_21">
      <!-- 0.2 -->
      <g transform="translate(142.446375 415.65625) scale(0.1 -0.1)">
       <use xlink:href="#CenturyGothic-30"/>
       <use xlink:href="#CenturyGothic-2e" x="55.419922"/>
       <use xlink:href="#CenturyGothic-32" x="83.105469"/>
      </g>
     </g>
    </g>
    <g id="xtick_9">
     <g id="line2d_20">
      <g>
       <use xlink:href="#me978a31851" x="250.698062" y="401.292187" style="stroke: #000000; stroke-width: 0.8"/>
      </g>
     </g>
     <g id="text_22">
      <!-- 0.4 -->
      <g transform="translate(243.7715 415.65625) scale(0.1 -0.1)">
       <use xlink:href="#CenturyGothic-30"/>
       <use xlink:href="#CenturyGothic-2e" x="55.419922"/>
       <use xlink:href="#CenturyGothic-34" x="83.105469"/>
      </g>
     </g>
    </g>
    <g id="xtick_10">
     <g id="line2d_21">
      <g>
       <use xlink:href="#me978a31851" x="352.023187" y="401.292187" style="stroke: #000000; stroke-width: 0.8"/>
      </g>
     </g>
     <g id="text_23">
      <!-- 0.6 -->
      <g transform="translate(345.096625 415.65625) scale(0.1 -0.1)">
       <use xlink:href="#CenturyGothic-30"/>
       <use xlink:href="#CenturyGothic-2e" x="55.419922"/>
       <use xlink:href="#CenturyGothic-36" x="83.105469"/>
      </g>
     </g>
    </g>
    <g id="xtick_11">
     <g id="line2d_22">
      <g>
       <use xlink:href="#me978a31851" x="453.348312" y="401.292187" style="stroke: #000000; stroke-width: 0.8"/>
      </g>
     </g>
     <g id="text_24">
      <!-- 0.8 -->
      <g transform="translate(446.42175 415.65625) scale(0.1 -0.1)">
       <use xlink:href="#CenturyGothic-30"/>
       <use xlink:href="#CenturyGothic-2e" x="55.419922"/>
       <use xlink:href="#CenturyGothic-38" x="83.105469"/>
      </g>
     </g>
    </g>
    <g id="xtick_12">
     <g id="line2d_23">
      <g>
       <use xlink:href="#me978a31851" x="554.673437" y="401.292187" style="stroke: #000000; stroke-width: 0.8"/>
      </g>
     </g>
     <g id="text_25">
      <!-- 1.0 -->
      <g transform="translate(547.746875 415.65625) scale(0.1 -0.1)">
       <use xlink:href="#CenturyGothic-31"/>
       <use xlink:href="#CenturyGothic-2e" x="55.419922"/>
       <use xlink:href="#CenturyGothic-30" x="83.105469"/>
      </g>
     </g>
    </g>
   </g>
   <g id="matplotlib.axis_4">
    <g id="ytick_8">
     <g id="line2d_24">
      <g>
       <use xlink:href="#m1e58e169ec" x="48.047813" y="401.292187" style="stroke: #000000; stroke-width: 0.8"/>
      </g>
     </g>
     <g id="text_26">
      <!-- 0 -->
      <g transform="translate(35.505625 404.974219) scale(0.1 -0.1)">
       <use xlink:href="#CenturyGothic-30"/>
      </g>
     </g>
    </g>
    <g id="ytick_9">
     <g id="line2d_25">
      <g>
       <use xlink:href="#m1e58e169ec" x="48.047813" y="369.862884" style="stroke: #000000; stroke-width: 0.8"/>
      </g>
     </g>
     <g id="text_27">
      <!-- 1 -->
      <g transform="translate(35.505625 373.544915) scale(0.1 -0.1)">
       <use xlink:href="#CenturyGothic-31"/>
      </g>
     </g>
    </g>
   </g>
   <g id="patch_71">
    <path d="M 48.047813 401.292187 
L 48.047813 369.862884 
" style="fill: none; stroke: #000000; stroke-width: 0.8; stroke-linejoin: miter; stroke-linecap: square"/>
   </g>
   <g id="patch_72">
    <path d="M 554.673437 401.292187 
L 554.673437 369.862884 
" style="fill: none; stroke: #000000; stroke-width: 0.8; stroke-linejoin: miter; stroke-linecap: square"/>
   </g>
   <g id="patch_73">
    <path d="M 48.047813 401.292187 
L 554.673437 401.292187 
" style="fill: none; stroke: #000000; stroke-width: 0.8; stroke-linejoin: miter; stroke-linecap: square"/>
   </g>
   <g id="patch_74">
    <path d="M 48.047813 369.862884 
L 554.673437 369.862884 
" style="fill: none; stroke: #000000; stroke-width: 0.8; stroke-linejoin: miter; stroke-linecap: square"/>
   </g>
  </g>
 </g>
 <defs>
  <clipPath id="p67f011450f">
   <rect x="48.047813" y="7.2" width="506.625625" height="314.29304"/>
  </clipPath>
 </defs>
</svg>
