<?xml version="1.0" encoding="utf-8" standalone="no"?>
<!DOCTYPE svg PUBLIC "-//W3C//DTD SVG 1.1//EN"
  "http://www.w3.org/Graphics/SVG/1.1/DTD/svg11.dtd">
<svg xmlns:xlink="http://www.w3.org/1999/xlink" width="1152pt" height="576pt" viewBox="0 0 1152 576" xmlns="http://www.w3.org/2000/svg" version="1.1">
 <metadata>
  <rdf:RDF xmlns:dc="http://purl.org/dc/elements/1.1/" xmlns:cc="http://creativecommons.org/ns#" xmlns:rdf="http://www.w3.org/1999/02/22-rdf-syntax-ns#">
   <cc:Work>
    <dc:type rdf:resource="http://purl.org/dc/dcmitype/StillImage"/>
    <dc:date>2025-03-13T00:14:38.074182</dc:date>
    <dc:format>image/svg+xml</dc:format>
    <dc:creator>
     <cc:Agent>
      <dc:title>Matplotlib v3.9.2, https://matplotlib.org/</dc:title>
     </cc:Agent>
    </dc:creator>
   </cc:Work>
  </rdf:RDF>
 </metadata>
 <defs>
  <style type="text/css">*{stroke-linejoin: round; stroke-linecap: butt}</style>
 </defs>
 <g id="figure_1">
  <g id="patch_1">
   <path d="M 0 576 
L 1152 576 
L 1152 0 
L 0 0 
z
" style="fill: #ffffff"/>
  </g>
  <g id="axes_1">
   <g id="patch_2">
    <path d="M 73.91 490.552 
L 1141.2 490.552 
L 1141.2 17.70421 
L 73.91 17.70421 
z
" style="fill: #ffffff"/>
   </g>
   <g id="PolyCollection_1">
    <defs>
     <path id="mbd5a00ad08" d="M 122.423182 -535.814963 
L 122.423182 -533.864493 
L 143.067089 -530.216878 
L 163.710996 -524.682284 
L 184.354903 -521.225126 
L 204.99881 -515.125519 
L 225.642718 -514.021559 
L 246.286625 -505.346717 
L 266.930532 -496.317879 
L 287.574439 -472.566601 
L 308.218346 -472.567082 
L 328.862253 -473.300421 
L 349.506161 -474.931999 
L 370.150068 -469.529348 
L 390.793975 -473.986414 
L 411.437882 -477.476449 
L 432.081789 -470.367094 
L 452.725696 -466.058186 
L 473.369603 -445.481312 
L 494.013511 -449.28615 
L 514.657418 -445.172151 
L 535.301325 -444.27762 
L 555.945232 -431.90888 
L 576.589139 -440.831653 
L 597.233046 -394.732773 
L 617.876954 -404.239121 
L 638.520861 -374.066408 
L 659.164768 -391.729256 
L 659.164768 -441.610372 
L 659.164768 -441.610372 
L 638.520861 -439.926443 
L 617.876954 -430.947294 
L 597.233046 -458.685002 
L 576.589139 -473.798087 
L 555.945232 -483.733242 
L 535.301325 -474.466238 
L 514.657418 -484.272733 
L 494.013511 -491.761298 
L 473.369603 -481.977106 
L 452.725696 -488.219881 
L 432.081789 -495.636338 
L 411.437882 -499.068934 
L 390.793975 -497.396704 
L 370.150068 -498.587033 
L 349.506161 -498.385036 
L 328.862253 -501.819955 
L 308.218346 -505.936251 
L 287.574439 -504.293327 
L 266.930532 -512.226447 
L 246.286625 -520.279438 
L 225.642718 -524.04885 
L 204.99881 -524.548032 
L 184.354903 -526.963278 
L 163.710996 -529.347007 
L 143.067089 -533.02349 
L 122.423182 -535.814963 
z
" style="stroke: #1f77b4; stroke-opacity: 0.2"/>
    </defs>
    <g clip-path="url(#p1878ed60e2)">
     <use xlink:href="#mbd5a00ad08" x="0" y="576" style="fill: #1f77b4; fill-opacity: 0.2; stroke: #1f77b4; stroke-opacity: 0.2"/>
    </g>
   </g>
   <g id="PolyCollection_2">
    <defs>
     <path id="mdffe0d0491" d="M 122.423182 -535.354726 
L 122.423182 -533.813276 
L 143.067089 -532.238892 
L 163.710996 -528.806749 
L 184.354903 -524.702187 
L 204.99881 -519.667865 
L 225.642718 -516.491151 
L 246.286625 -511.787766 
L 266.930532 -503.095135 
L 287.574439 -477.462339 
L 308.218346 -468.594048 
L 328.862253 -451.441601 
L 349.506161 -426.842888 
L 370.150068 -401.080819 
L 390.793975 -393.128313 
L 411.437882 -391.789934 
L 432.081789 -389.672013 
L 452.725696 -394.254729 
L 473.369603 -387.621336 
L 494.013511 -363.435525 
L 514.657418 -363.958132 
L 535.301325 -372.378854 
L 555.945232 -361.580261 
L 576.589139 -331.343018 
L 597.233046 -267.051011 
L 617.876954 -202.27849 
L 638.520861 -163.261374 
L 659.164768 -158.891576 
L 679.808675 -106.941081 
L 679.808675 -164.772092 
L 679.808675 -164.772092 
L 659.164768 -281.719447 
L 638.520861 -263.690009 
L 617.876954 -315.09023 
L 597.233046 -364.41736 
L 576.589139 -396.772471 
L 555.945232 -403.153763 
L 535.301325 -429.877332 
L 514.657418 -428.366368 
L 494.013511 -427.130161 
L 473.369603 -426.703388 
L 452.725696 -464.688308 
L 432.081789 -460.491592 
L 411.437882 -459.85801 
L 390.793975 -456.40466 
L 370.150068 -479.37307 
L 349.506161 -486.075502 
L 328.862253 -483.578128 
L 308.218346 -494.966157 
L 287.574439 -499.650804 
L 266.930532 -516.887987 
L 246.286625 -520.06143 
L 225.642718 -522.629024 
L 204.99881 -524.855802 
L 184.354903 -526.478206 
L 163.710996 -532.227972 
L 143.067089 -533.719963 
L 122.423182 -535.354726 
z
" style="stroke: #ff7f0e; stroke-opacity: 0.2"/>
    </defs>
    <g clip-path="url(#p1878ed60e2)">
     <use xlink:href="#mdffe0d0491" x="0" y="576" style="fill: #ff7f0e; fill-opacity: 0.2; stroke: #ff7f0e; stroke-opacity: 0.2"/>
    </g>
   </g>
   <g id="PolyCollection_3">
    <defs>
     <path id="m4e779292cf" d="M 122.423182 -535.841058 
L 122.423182 -535.156461 
L 143.067089 -534.655429 
L 163.710996 -534.718952 
L 184.354903 -534.153752 
L 204.99881 -534.305795 
L 225.642718 -534.456778 
L 246.286625 -534.767009 
L 266.930532 -534.286268 
L 287.574439 -534.733483 
L 308.218346 -534.079776 
L 328.862253 -535.203434 
L 349.506161 -533.784426 
L 370.150068 -533.907209 
L 390.793975 -533.303936 
L 411.437882 -534.036672 
L 432.081789 -533.79043 
L 452.725696 -532.872765 
L 473.369603 -532.379755 
L 494.013511 -533.091972 
L 514.657418 -533.798757 
L 535.301325 -532.913036 
L 555.945232 -532.26894 
L 576.589139 -532.449921 
L 597.233046 -532.830549 
L 617.876954 -533.64792 
L 638.520861 -533.590798 
L 659.164768 -533.425685 
L 679.808675 -533.370594 
L 700.452582 -533.787519 
L 721.096489 -534.392428 
L 741.740397 -534.756157 
L 762.384304 -534.241207 
L 783.028211 -534.789294 
L 803.672118 -534.77766 
L 824.316025 -534.604121 
L 844.959932 -534.463334 
L 865.603839 -534.39245 
L 886.247747 -531.998931 
L 906.891654 -533.05328 
L 927.535561 -533.138968 
L 948.179468 -533.097267 
L 968.823375 -533.858979 
L 989.467282 -533.936362 
L 1010.11119 -533.771003 
L 1030.755097 -534.05604 
L 1051.399004 -532.75785 
L 1072.042911 -533.54347 
L 1092.686818 -533.561911 
L 1092.686818 -535.933098 
L 1092.686818 -535.933098 
L 1072.042911 -535.930003 
L 1051.399004 -534.524811 
L 1030.755097 -536.258142 
L 1010.11119 -535.842649 
L 989.467282 -535.811164 
L 968.823375 -536.177777 
L 948.179468 -536.153259 
L 927.535561 -536.329971 
L 906.891654 -535.873507 
L 886.247747 -534.895972 
L 865.603839 -535.674444 
L 844.959932 -535.429962 
L 824.316025 -535.422298 
L 803.672118 -536.032008 
L 783.028211 -536.046476 
L 762.384304 -535.504071 
L 741.740397 -535.571932 
L 721.096489 -535.77626 
L 700.452582 -535.755684 
L 679.808675 -534.853938 
L 659.164768 -535.798966 
L 638.520861 -535.96096 
L 617.876954 -535.590258 
L 597.233046 -535.745883 
L 576.589139 -535.738395 
L 555.945232 -535.056591 
L 535.301325 -535.874157 
L 514.657418 -535.949502 
L 494.013511 -535.66952 
L 473.369603 -534.651904 
L 452.725696 -534.301296 
L 432.081789 -534.977297 
L 411.437882 -535.952853 
L 390.793975 -535.042323 
L 370.150068 -535.781729 
L 349.506161 -536.105907 
L 328.862253 -535.941088 
L 308.218346 -535.623629 
L 287.574439 -535.381272 
L 266.930532 -535.570769 
L 246.286625 -536.001701 
L 225.642718 -535.75947 
L 204.99881 -535.651332 
L 184.354903 -535.847421 
L 163.710996 -536.218864 
L 143.067089 -536.802708 
L 122.423182 -535.841058 
z
" style="stroke: #2ca02c; stroke-opacity: 0.2"/>
    </defs>
    <g clip-path="url(#p1878ed60e2)">
     <use xlink:href="#m4e779292cf" x="0" y="576" style="fill: #2ca02c; fill-opacity: 0.2; stroke: #2ca02c; stroke-opacity: 0.2"/>
    </g>
   </g>
   <g id="PolyCollection_4">
    <defs>
     <path id="mdc42fad644" d="M 122.423182 -536.041421 
L 122.423182 -534.366937 
L 143.067089 -534.264223 
L 163.710996 -535.209801 
L 184.354903 -534.158028 
L 204.99881 -534.091832 
L 225.642718 -533.355302 
L 246.286625 -531.962432 
L 266.930532 -532.723535 
L 287.574439 -532.603462 
L 308.218346 -531.133666 
L 328.862253 -532.488754 
L 349.506161 -532.03863 
L 370.150068 -531.996998 
L 390.793975 -532.803778 
L 411.437882 -532.144664 
L 432.081789 -532.08116 
L 452.725696 -531.629379 
L 473.369603 -532.674386 
L 494.013511 -531.98659 
L 514.657418 -532.84345 
L 535.301325 -530.903402 
L 555.945232 -532.296036 
L 576.589139 -530.474425 
L 597.233046 -532.304391 
L 617.876954 -532.381795 
L 638.520861 -532.133959 
L 659.164768 -531.716731 
L 679.808675 -531.349285 
L 700.452582 -530.807148 
L 721.096489 -530.326778 
L 741.740397 -531.264485 
L 762.384304 -530.449028 
L 783.028211 -531.086726 
L 803.672118 -530.931627 
L 824.316025 -531.752969 
L 844.959932 -531.861808 
L 865.603839 -530.512695 
L 886.247747 -533.052526 
L 906.891654 -531.943853 
L 927.535561 -531.80009 
L 948.179468 -532.067811 
L 968.823375 -531.594658 
L 989.467282 -530.526159 
L 1010.11119 -532.117422 
L 1030.755097 -530.229391 
L 1051.399004 -531.725855 
L 1072.042911 -531.638321 
L 1092.686818 -531.811832 
L 1092.686818 -533.385447 
L 1092.686818 -533.385447 
L 1072.042911 -534.176343 
L 1051.399004 -533.771529 
L 1030.755097 -532.238463 
L 1010.11119 -533.547496 
L 989.467282 -533.099191 
L 968.823375 -534.266026 
L 948.179468 -533.63899 
L 927.535561 -533.629992 
L 906.891654 -534.227462 
L 886.247747 -533.998704 
L 865.603839 -533.140656 
L 844.959932 -534.038273 
L 824.316025 -532.755212 
L 803.672118 -533.154752 
L 783.028211 -532.907547 
L 762.384304 -533.063545 
L 741.740397 -532.78978 
L 721.096489 -532.442997 
L 700.452582 -533.622508 
L 679.808675 -533.515348 
L 659.164768 -533.581714 
L 638.520861 -534.085245 
L 617.876954 -533.741997 
L 597.233046 -533.245297 
L 576.589139 -533.180911 
L 555.945232 -533.165427 
L 535.301325 -533.436017 
L 514.657418 -533.997687 
L 494.013511 -532.61938 
L 473.369603 -533.814317 
L 452.725696 -533.911643 
L 432.081789 -533.672009 
L 411.437882 -533.584842 
L 390.793975 -533.967249 
L 370.150068 -532.871937 
L 349.506161 -533.002301 
L 328.862253 -534.04768 
L 308.218346 -533.150576 
L 287.574439 -533.628225 
L 266.930532 -533.874031 
L 246.286625 -534.277216 
L 225.642718 -534.786794 
L 204.99881 -535.131312 
L 184.354903 -535.208728 
L 163.710996 -536.078306 
L 143.067089 -535.53525 
L 122.423182 -536.041421 
z
" style="stroke: #d62728; stroke-opacity: 0.2"/>
    </defs>
    <g clip-path="url(#p1878ed60e2)">
     <use xlink:href="#mdc42fad644" x="0" y="576" style="fill: #d62728; fill-opacity: 0.2; stroke: #d62728; stroke-opacity: 0.2"/>
    </g>
   </g>
   <g id="matplotlib.axis_1">
    <g id="xtick_1">
     <g id="line2d_1">
      <defs>
       <path id="m0f5c0bb4d4" d="M 0 0 
L 0 3.5 
" style="stroke: #000000; stroke-width: 0.8"/>
      </defs>
      <g>
       <use xlink:href="#m0f5c0bb4d4" x="112.101228" y="490.552" style="stroke: #000000; stroke-width: 0.8"/>
      </g>
     </g>
     <g id="text_1">
      <!-- 0 -->
      <g transform="translate(105.738728 512.748875) scale(0.2 -0.2)">
       <defs>
        <path id="DejaVuSans-30" d="M 2034 4250 
Q 1547 4250 1301 3770 
Q 1056 3291 1056 2328 
Q 1056 1369 1301 889 
Q 1547 409 2034 409 
Q 2525 409 2770 889 
Q 3016 1369 3016 2328 
Q 3016 3291 2770 3770 
Q 2525 4250 2034 4250 
z
M 2034 4750 
Q 2819 4750 3233 4129 
Q 3647 3509 3647 2328 
Q 3647 1150 3233 529 
Q 2819 -91 2034 -91 
Q 1250 -91 836 529 
Q 422 1150 422 2328 
Q 422 3509 836 4129 
Q 1250 4750 2034 4750 
z
" transform="scale(0.015625)"/>
       </defs>
       <use xlink:href="#DejaVuSans-30"/>
      </g>
     </g>
    </g>
    <g id="xtick_2">
     <g id="line2d_2">
      <g>
       <use xlink:href="#m0f5c0bb4d4" x="318.5403" y="490.552" style="stroke: #000000; stroke-width: 0.8"/>
      </g>
     </g>
     <g id="text_2">
      <!-- 20 -->
      <g transform="translate(305.8153 512.748875) scale(0.2 -0.2)">
       <defs>
        <path id="DejaVuSans-32" d="M 1228 531 
L 3431 531 
L 3431 0 
L 469 0 
L 469 531 
Q 828 903 1448 1529 
Q 2069 2156 2228 2338 
Q 2531 2678 2651 2914 
Q 2772 3150 2772 3378 
Q 2772 3750 2511 3984 
Q 2250 4219 1831 4219 
Q 1534 4219 1204 4116 
Q 875 4013 500 3803 
L 500 4441 
Q 881 4594 1212 4672 
Q 1544 4750 1819 4750 
Q 2544 4750 2975 4387 
Q 3406 4025 3406 3419 
Q 3406 3131 3298 2873 
Q 3191 2616 2906 2266 
Q 2828 2175 2409 1742 
Q 1991 1309 1228 531 
z
" transform="scale(0.015625)"/>
       </defs>
       <use xlink:href="#DejaVuSans-32"/>
       <use xlink:href="#DejaVuSans-30" x="63.623047"/>
      </g>
     </g>
    </g>
    <g id="xtick_3">
     <g id="line2d_3">
      <g>
       <use xlink:href="#m0f5c0bb4d4" x="524.979371" y="490.552" style="stroke: #000000; stroke-width: 0.8"/>
      </g>
     </g>
     <g id="text_3">
      <!-- 40 -->
      <g transform="translate(512.254371 512.748875) scale(0.2 -0.2)">
       <defs>
        <path id="DejaVuSans-34" d="M 2419 4116 
L 825 1625 
L 2419 1625 
L 2419 4116 
z
M 2253 4666 
L 3047 4666 
L 3047 1625 
L 3713 1625 
L 3713 1100 
L 3047 1100 
L 3047 0 
L 2419 0 
L 2419 1100 
L 313 1100 
L 313 1709 
L 2253 4666 
z
" transform="scale(0.015625)"/>
       </defs>
       <use xlink:href="#DejaVuSans-34"/>
       <use xlink:href="#DejaVuSans-30" x="63.623047"/>
      </g>
     </g>
    </g>
    <g id="xtick_4">
     <g id="line2d_4">
      <g>
       <use xlink:href="#m0f5c0bb4d4" x="731.418443" y="490.552" style="stroke: #000000; stroke-width: 0.8"/>
      </g>
     </g>
     <g id="text_4">
      <!-- 60 -->
      <g transform="translate(718.693443 512.748875) scale(0.2 -0.2)">
       <defs>
        <path id="DejaVuSans-36" d="M 2113 2584 
Q 1688 2584 1439 2293 
Q 1191 2003 1191 1497 
Q 1191 994 1439 701 
Q 1688 409 2113 409 
Q 2538 409 2786 701 
Q 3034 994 3034 1497 
Q 3034 2003 2786 2293 
Q 2538 2584 2113 2584 
z
M 3366 4563 
L 3366 3988 
Q 3128 4100 2886 4159 
Q 2644 4219 2406 4219 
Q 1781 4219 1451 3797 
Q 1122 3375 1075 2522 
Q 1259 2794 1537 2939 
Q 1816 3084 2150 3084 
Q 2853 3084 3261 2657 
Q 3669 2231 3669 1497 
Q 3669 778 3244 343 
Q 2819 -91 2113 -91 
Q 1303 -91 875 529 
Q 447 1150 447 2328 
Q 447 3434 972 4092 
Q 1497 4750 2381 4750 
Q 2619 4750 2861 4703 
Q 3103 4656 3366 4563 
z
" transform="scale(0.015625)"/>
       </defs>
       <use xlink:href="#DejaVuSans-36"/>
       <use xlink:href="#DejaVuSans-30" x="63.623047"/>
      </g>
     </g>
    </g>
    <g id="xtick_5">
     <g id="line2d_5">
      <g>
       <use xlink:href="#m0f5c0bb4d4" x="937.857515" y="490.552" style="stroke: #000000; stroke-width: 0.8"/>
      </g>
     </g>
     <g id="text_5">
      <!-- 80 -->
      <g transform="translate(925.132515 512.748875) scale(0.2 -0.2)">
       <defs>
        <path id="DejaVuSans-38" d="M 2034 2216 
Q 1584 2216 1326 1975 
Q 1069 1734 1069 1313 
Q 1069 891 1326 650 
Q 1584 409 2034 409 
Q 2484 409 2743 651 
Q 3003 894 3003 1313 
Q 3003 1734 2745 1975 
Q 2488 2216 2034 2216 
z
M 1403 2484 
Q 997 2584 770 2862 
Q 544 3141 544 3541 
Q 544 4100 942 4425 
Q 1341 4750 2034 4750 
Q 2731 4750 3128 4425 
Q 3525 4100 3525 3541 
Q 3525 3141 3298 2862 
Q 3072 2584 2669 2484 
Q 3125 2378 3379 2068 
Q 3634 1759 3634 1313 
Q 3634 634 3220 271 
Q 2806 -91 2034 -91 
Q 1263 -91 848 271 
Q 434 634 434 1313 
Q 434 1759 690 2068 
Q 947 2378 1403 2484 
z
M 1172 3481 
Q 1172 3119 1398 2916 
Q 1625 2713 2034 2713 
Q 2441 2713 2670 2916 
Q 2900 3119 2900 3481 
Q 2900 3844 2670 4047 
Q 2441 4250 2034 4250 
Q 1625 4250 1398 4047 
Q 1172 3844 1172 3481 
z
" transform="scale(0.015625)"/>
       </defs>
       <use xlink:href="#DejaVuSans-38"/>
       <use xlink:href="#DejaVuSans-30" x="63.623047"/>
      </g>
     </g>
    </g>
    <g id="text_6">
     <!-- Percentile Threshold -->
     <g transform="translate(505.775312 536.105125) scale(0.2 -0.2)">
      <defs>
       <path id="DejaVuSans-50" d="M 1259 4147 
L 1259 2394 
L 2053 2394 
Q 2494 2394 2734 2622 
Q 2975 2850 2975 3272 
Q 2975 3691 2734 3919 
Q 2494 4147 2053 4147 
L 1259 4147 
z
M 628 4666 
L 2053 4666 
Q 2838 4666 3239 4311 
Q 3641 3956 3641 3272 
Q 3641 2581 3239 2228 
Q 2838 1875 2053 1875 
L 1259 1875 
L 1259 0 
L 628 0 
L 628 4666 
z
" transform="scale(0.015625)"/>
       <path id="DejaVuSans-65" d="M 3597 1894 
L 3597 1613 
L 953 1613 
Q 991 1019 1311 708 
Q 1631 397 2203 397 
Q 2534 397 2845 478 
Q 3156 559 3463 722 
L 3463 178 
Q 3153 47 2828 -22 
Q 2503 -91 2169 -91 
Q 1331 -91 842 396 
Q 353 884 353 1716 
Q 353 2575 817 3079 
Q 1281 3584 2069 3584 
Q 2775 3584 3186 3129 
Q 3597 2675 3597 1894 
z
M 3022 2063 
Q 3016 2534 2758 2815 
Q 2500 3097 2075 3097 
Q 1594 3097 1305 2825 
Q 1016 2553 972 2059 
L 3022 2063 
z
" transform="scale(0.015625)"/>
       <path id="DejaVuSans-72" d="M 2631 2963 
Q 2534 3019 2420 3045 
Q 2306 3072 2169 3072 
Q 1681 3072 1420 2755 
Q 1159 2438 1159 1844 
L 1159 0 
L 581 0 
L 581 3500 
L 1159 3500 
L 1159 2956 
Q 1341 3275 1631 3429 
Q 1922 3584 2338 3584 
Q 2397 3584 2469 3576 
Q 2541 3569 2628 3553 
L 2631 2963 
z
" transform="scale(0.015625)"/>
       <path id="DejaVuSans-63" d="M 3122 3366 
L 3122 2828 
Q 2878 2963 2633 3030 
Q 2388 3097 2138 3097 
Q 1578 3097 1268 2742 
Q 959 2388 959 1747 
Q 959 1106 1268 751 
Q 1578 397 2138 397 
Q 2388 397 2633 464 
Q 2878 531 3122 666 
L 3122 134 
Q 2881 22 2623 -34 
Q 2366 -91 2075 -91 
Q 1284 -91 818 406 
Q 353 903 353 1747 
Q 353 2603 823 3093 
Q 1294 3584 2113 3584 
Q 2378 3584 2631 3529 
Q 2884 3475 3122 3366 
z
" transform="scale(0.015625)"/>
       <path id="DejaVuSans-6e" d="M 3513 2113 
L 3513 0 
L 2938 0 
L 2938 2094 
Q 2938 2591 2744 2837 
Q 2550 3084 2163 3084 
Q 1697 3084 1428 2787 
Q 1159 2491 1159 1978 
L 1159 0 
L 581 0 
L 581 3500 
L 1159 3500 
L 1159 2956 
Q 1366 3272 1645 3428 
Q 1925 3584 2291 3584 
Q 2894 3584 3203 3211 
Q 3513 2838 3513 2113 
z
" transform="scale(0.015625)"/>
       <path id="DejaVuSans-74" d="M 1172 4494 
L 1172 3500 
L 2356 3500 
L 2356 3053 
L 1172 3053 
L 1172 1153 
Q 1172 725 1289 603 
Q 1406 481 1766 481 
L 2356 481 
L 2356 0 
L 1766 0 
Q 1100 0 847 248 
Q 594 497 594 1153 
L 594 3053 
L 172 3053 
L 172 3500 
L 594 3500 
L 594 4494 
L 1172 4494 
z
" transform="scale(0.015625)"/>
       <path id="DejaVuSans-69" d="M 603 3500 
L 1178 3500 
L 1178 0 
L 603 0 
L 603 3500 
z
M 603 4863 
L 1178 4863 
L 1178 4134 
L 603 4134 
L 603 4863 
z
" transform="scale(0.015625)"/>
       <path id="DejaVuSans-6c" d="M 603 4863 
L 1178 4863 
L 1178 0 
L 603 0 
L 603 4863 
z
" transform="scale(0.015625)"/>
       <path id="DejaVuSans-20" transform="scale(0.015625)"/>
       <path id="DejaVuSans-54" d="M -19 4666 
L 3928 4666 
L 3928 4134 
L 2272 4134 
L 2272 0 
L 1638 0 
L 1638 4134 
L -19 4134 
L -19 4666 
z
" transform="scale(0.015625)"/>
       <path id="DejaVuSans-68" d="M 3513 2113 
L 3513 0 
L 2938 0 
L 2938 2094 
Q 2938 2591 2744 2837 
Q 2550 3084 2163 3084 
Q 1697 3084 1428 2787 
Q 1159 2491 1159 1978 
L 1159 0 
L 581 0 
L 581 4863 
L 1159 4863 
L 1159 2956 
Q 1366 3272 1645 3428 
Q 1925 3584 2291 3584 
Q 2894 3584 3203 3211 
Q 3513 2838 3513 2113 
z
" transform="scale(0.015625)"/>
       <path id="DejaVuSans-73" d="M 2834 3397 
L 2834 2853 
Q 2591 2978 2328 3040 
Q 2066 3103 1784 3103 
Q 1356 3103 1142 2972 
Q 928 2841 928 2578 
Q 928 2378 1081 2264 
Q 1234 2150 1697 2047 
L 1894 2003 
Q 2506 1872 2764 1633 
Q 3022 1394 3022 966 
Q 3022 478 2636 193 
Q 2250 -91 1575 -91 
Q 1294 -91 989 -36 
Q 684 19 347 128 
L 347 722 
Q 666 556 975 473 
Q 1284 391 1588 391 
Q 1994 391 2212 530 
Q 2431 669 2431 922 
Q 2431 1156 2273 1281 
Q 2116 1406 1581 1522 
L 1381 1569 
Q 847 1681 609 1914 
Q 372 2147 372 2553 
Q 372 3047 722 3315 
Q 1072 3584 1716 3584 
Q 2034 3584 2315 3537 
Q 2597 3491 2834 3397 
z
" transform="scale(0.015625)"/>
       <path id="DejaVuSans-6f" d="M 1959 3097 
Q 1497 3097 1228 2736 
Q 959 2375 959 1747 
Q 959 1119 1226 758 
Q 1494 397 1959 397 
Q 2419 397 2687 759 
Q 2956 1122 2956 1747 
Q 2956 2369 2687 2733 
Q 2419 3097 1959 3097 
z
M 1959 3584 
Q 2709 3584 3137 3096 
Q 3566 2609 3566 1747 
Q 3566 888 3137 398 
Q 2709 -91 1959 -91 
Q 1206 -91 779 398 
Q 353 888 353 1747 
Q 353 2609 779 3096 
Q 1206 3584 1959 3584 
z
" transform="scale(0.015625)"/>
       <path id="DejaVuSans-64" d="M 2906 2969 
L 2906 4863 
L 3481 4863 
L 3481 0 
L 2906 0 
L 2906 525 
Q 2725 213 2448 61 
Q 2172 -91 1784 -91 
Q 1150 -91 751 415 
Q 353 922 353 1747 
Q 353 2572 751 3078 
Q 1150 3584 1784 3584 
Q 2172 3584 2448 3432 
Q 2725 3281 2906 2969 
z
M 947 1747 
Q 947 1113 1208 752 
Q 1469 391 1925 391 
Q 2381 391 2643 752 
Q 2906 1113 2906 1747 
Q 2906 2381 2643 2742 
Q 2381 3103 1925 3103 
Q 1469 3103 1208 2742 
Q 947 2381 947 1747 
z
" transform="scale(0.015625)"/>
      </defs>
      <use xlink:href="#DejaVuSans-50"/>
      <use xlink:href="#DejaVuSans-65" x="56.677734"/>
      <use xlink:href="#DejaVuSans-72" x="118.201172"/>
      <use xlink:href="#DejaVuSans-63" x="157.064453"/>
      <use xlink:href="#DejaVuSans-65" x="212.044922"/>
      <use xlink:href="#DejaVuSans-6e" x="273.568359"/>
      <use xlink:href="#DejaVuSans-74" x="336.947266"/>
      <use xlink:href="#DejaVuSans-69" x="376.15625"/>
      <use xlink:href="#DejaVuSans-6c" x="403.939453"/>
      <use xlink:href="#DejaVuSans-65" x="431.722656"/>
      <use xlink:href="#DejaVuSans-20" x="493.246094"/>
      <use xlink:href="#DejaVuSans-54" x="525.033203"/>
      <use xlink:href="#DejaVuSans-68" x="586.117188"/>
      <use xlink:href="#DejaVuSans-72" x="649.496094"/>
      <use xlink:href="#DejaVuSans-65" x="688.359375"/>
      <use xlink:href="#DejaVuSans-73" x="749.882812"/>
      <use xlink:href="#DejaVuSans-68" x="801.982422"/>
      <use xlink:href="#DejaVuSans-6f" x="865.361328"/>
      <use xlink:href="#DejaVuSans-6c" x="926.542969"/>
      <use xlink:href="#DejaVuSans-64" x="954.326172"/>
     </g>
     <!-- (All Methods of Threshold Handling for gbr Model) -->
     <g transform="translate(358.315937 558.50075) scale(0.2 -0.2)">
      <defs>
       <path id="DejaVuSans-28" d="M 1984 4856 
Q 1566 4138 1362 3434 
Q 1159 2731 1159 2009 
Q 1159 1288 1364 580 
Q 1569 -128 1984 -844 
L 1484 -844 
Q 1016 -109 783 600 
Q 550 1309 550 2009 
Q 550 2706 781 3412 
Q 1013 4119 1484 4856 
L 1984 4856 
z
" transform="scale(0.015625)"/>
       <path id="DejaVuSans-41" d="M 2188 4044 
L 1331 1722 
L 3047 1722 
L 2188 4044 
z
M 1831 4666 
L 2547 4666 
L 4325 0 
L 3669 0 
L 3244 1197 
L 1141 1197 
L 716 0 
L 50 0 
L 1831 4666 
z
" transform="scale(0.015625)"/>
       <path id="DejaVuSans-4d" d="M 628 4666 
L 1569 4666 
L 2759 1491 
L 3956 4666 
L 4897 4666 
L 4897 0 
L 4281 0 
L 4281 4097 
L 3078 897 
L 2444 897 
L 1241 4097 
L 1241 0 
L 628 0 
L 628 4666 
z
" transform="scale(0.015625)"/>
       <path id="DejaVuSans-66" d="M 2375 4863 
L 2375 4384 
L 1825 4384 
Q 1516 4384 1395 4259 
Q 1275 4134 1275 3809 
L 1275 3500 
L 2222 3500 
L 2222 3053 
L 1275 3053 
L 1275 0 
L 697 0 
L 697 3053 
L 147 3053 
L 147 3500 
L 697 3500 
L 697 3744 
Q 697 4328 969 4595 
Q 1241 4863 1831 4863 
L 2375 4863 
z
" transform="scale(0.015625)"/>
       <path id="DejaVuSans-48" d="M 628 4666 
L 1259 4666 
L 1259 2753 
L 3553 2753 
L 3553 4666 
L 4184 4666 
L 4184 0 
L 3553 0 
L 3553 2222 
L 1259 2222 
L 1259 0 
L 628 0 
L 628 4666 
z
" transform="scale(0.015625)"/>
       <path id="DejaVuSans-61" d="M 2194 1759 
Q 1497 1759 1228 1600 
Q 959 1441 959 1056 
Q 959 750 1161 570 
Q 1363 391 1709 391 
Q 2188 391 2477 730 
Q 2766 1069 2766 1631 
L 2766 1759 
L 2194 1759 
z
M 3341 1997 
L 3341 0 
L 2766 0 
L 2766 531 
Q 2569 213 2275 61 
Q 1981 -91 1556 -91 
Q 1019 -91 701 211 
Q 384 513 384 1019 
Q 384 1609 779 1909 
Q 1175 2209 1959 2209 
L 2766 2209 
L 2766 2266 
Q 2766 2663 2505 2880 
Q 2244 3097 1772 3097 
Q 1472 3097 1187 3025 
Q 903 2953 641 2809 
L 641 3341 
Q 956 3463 1253 3523 
Q 1550 3584 1831 3584 
Q 2591 3584 2966 3190 
Q 3341 2797 3341 1997 
z
" transform="scale(0.015625)"/>
       <path id="DejaVuSans-67" d="M 2906 1791 
Q 2906 2416 2648 2759 
Q 2391 3103 1925 3103 
Q 1463 3103 1205 2759 
Q 947 2416 947 1791 
Q 947 1169 1205 825 
Q 1463 481 1925 481 
Q 2391 481 2648 825 
Q 2906 1169 2906 1791 
z
M 3481 434 
Q 3481 -459 3084 -895 
Q 2688 -1331 1869 -1331 
Q 1566 -1331 1297 -1286 
Q 1028 -1241 775 -1147 
L 775 -588 
Q 1028 -725 1275 -790 
Q 1522 -856 1778 -856 
Q 2344 -856 2625 -561 
Q 2906 -266 2906 331 
L 2906 616 
Q 2728 306 2450 153 
Q 2172 0 1784 0 
Q 1141 0 747 490 
Q 353 981 353 1791 
Q 353 2603 747 3093 
Q 1141 3584 1784 3584 
Q 2172 3584 2450 3431 
Q 2728 3278 2906 2969 
L 2906 3500 
L 3481 3500 
L 3481 434 
z
" transform="scale(0.015625)"/>
       <path id="DejaVuSans-62" d="M 3116 1747 
Q 3116 2381 2855 2742 
Q 2594 3103 2138 3103 
Q 1681 3103 1420 2742 
Q 1159 2381 1159 1747 
Q 1159 1113 1420 752 
Q 1681 391 2138 391 
Q 2594 391 2855 752 
Q 3116 1113 3116 1747 
z
M 1159 2969 
Q 1341 3281 1617 3432 
Q 1894 3584 2278 3584 
Q 2916 3584 3314 3078 
Q 3713 2572 3713 1747 
Q 3713 922 3314 415 
Q 2916 -91 2278 -91 
Q 1894 -91 1617 61 
Q 1341 213 1159 525 
L 1159 0 
L 581 0 
L 581 4863 
L 1159 4863 
L 1159 2969 
z
" transform="scale(0.015625)"/>
       <path id="DejaVuSans-29" d="M 513 4856 
L 1013 4856 
Q 1481 4119 1714 3412 
Q 1947 2706 1947 2009 
Q 1947 1309 1714 600 
Q 1481 -109 1013 -844 
L 513 -844 
Q 928 -128 1133 580 
Q 1338 1288 1338 2009 
Q 1338 2731 1133 3434 
Q 928 4138 513 4856 
z
" transform="scale(0.015625)"/>
      </defs>
      <use xlink:href="#DejaVuSans-28"/>
      <use xlink:href="#DejaVuSans-41" x="39.013672"/>
      <use xlink:href="#DejaVuSans-6c" x="107.421875"/>
      <use xlink:href="#DejaVuSans-6c" x="135.205078"/>
      <use xlink:href="#DejaVuSans-20" x="162.988281"/>
      <use xlink:href="#DejaVuSans-4d" x="194.775391"/>
      <use xlink:href="#DejaVuSans-65" x="281.054688"/>
      <use xlink:href="#DejaVuSans-74" x="342.578125"/>
      <use xlink:href="#DejaVuSans-68" x="381.787109"/>
      <use xlink:href="#DejaVuSans-6f" x="445.166016"/>
      <use xlink:href="#DejaVuSans-64" x="506.347656"/>
      <use xlink:href="#DejaVuSans-73" x="569.824219"/>
      <use xlink:href="#DejaVuSans-20" x="621.923828"/>
      <use xlink:href="#DejaVuSans-6f" x="653.710938"/>
      <use xlink:href="#DejaVuSans-66" x="714.892578"/>
      <use xlink:href="#DejaVuSans-20" x="750.097656"/>
      <use xlink:href="#DejaVuSans-54" x="781.884766"/>
      <use xlink:href="#DejaVuSans-68" x="842.96875"/>
      <use xlink:href="#DejaVuSans-72" x="906.347656"/>
      <use xlink:href="#DejaVuSans-65" x="945.210938"/>
      <use xlink:href="#DejaVuSans-73" x="1006.734375"/>
      <use xlink:href="#DejaVuSans-68" x="1058.833984"/>
      <use xlink:href="#DejaVuSans-6f" x="1122.212891"/>
      <use xlink:href="#DejaVuSans-6c" x="1183.394531"/>
      <use xlink:href="#DejaVuSans-64" x="1211.177734"/>
      <use xlink:href="#DejaVuSans-20" x="1274.654297"/>
      <use xlink:href="#DejaVuSans-48" x="1306.441406"/>
      <use xlink:href="#DejaVuSans-61" x="1381.636719"/>
      <use xlink:href="#DejaVuSans-6e" x="1442.916016"/>
      <use xlink:href="#DejaVuSans-64" x="1506.294922"/>
      <use xlink:href="#DejaVuSans-6c" x="1569.771484"/>
      <use xlink:href="#DejaVuSans-69" x="1597.554688"/>
      <use xlink:href="#DejaVuSans-6e" x="1625.337891"/>
      <use xlink:href="#DejaVuSans-67" x="1688.716797"/>
      <use xlink:href="#DejaVuSans-20" x="1752.193359"/>
      <use xlink:href="#DejaVuSans-66" x="1783.980469"/>
      <use xlink:href="#DejaVuSans-6f" x="1819.185547"/>
      <use xlink:href="#DejaVuSans-72" x="1880.367188"/>
      <use xlink:href="#DejaVuSans-20" x="1921.480469"/>
      <use xlink:href="#DejaVuSans-67" x="1953.267578"/>
      <use xlink:href="#DejaVuSans-62" x="2016.744141"/>
      <use xlink:href="#DejaVuSans-72" x="2080.220703"/>
      <use xlink:href="#DejaVuSans-20" x="2121.333984"/>
      <use xlink:href="#DejaVuSans-4d" x="2153.121094"/>
      <use xlink:href="#DejaVuSans-6f" x="2239.400391"/>
      <use xlink:href="#DejaVuSans-64" x="2300.582031"/>
      <use xlink:href="#DejaVuSans-65" x="2364.058594"/>
      <use xlink:href="#DejaVuSans-6c" x="2425.582031"/>
      <use xlink:href="#DejaVuSans-29" x="2453.365234"/>
     </g>
    </g>
   </g>
   <g id="matplotlib.axis_2">
    <g id="ytick_1">
     <g id="line2d_6">
      <defs>
       <path id="maffa5a2007" d="M 0 0 
L -3.5 0 
" style="stroke: #000000; stroke-width: 0.8"/>
      </defs>
      <g>
       <use xlink:href="#maffa5a2007" x="73.91" y="469.549306" style="stroke: #000000; stroke-width: 0.8"/>
      </g>
     </g>
     <g id="text_7">
      <!-- 0.0 -->
      <g transform="translate(35.10375 477.147744) scale(0.2 -0.2)">
       <defs>
        <path id="DejaVuSans-2e" d="M 684 794 
L 1344 794 
L 1344 0 
L 684 0 
L 684 794 
z
" transform="scale(0.015625)"/>
       </defs>
       <use xlink:href="#DejaVuSans-30"/>
       <use xlink:href="#DejaVuSans-2e" x="63.623047"/>
       <use xlink:href="#DejaVuSans-30" x="95.410156"/>
      </g>
     </g>
    </g>
    <g id="ytick_2">
     <g id="line2d_7">
      <g>
       <use xlink:href="#maffa5a2007" x="73.91" y="379.396879" style="stroke: #000000; stroke-width: 0.8"/>
      </g>
     </g>
     <g id="text_8">
      <!-- 0.2 -->
      <g transform="translate(35.10375 386.995316) scale(0.2 -0.2)">
       <use xlink:href="#DejaVuSans-30"/>
       <use xlink:href="#DejaVuSans-2e" x="63.623047"/>
       <use xlink:href="#DejaVuSans-32" x="95.410156"/>
      </g>
     </g>
    </g>
    <g id="ytick_3">
     <g id="line2d_8">
      <g>
       <use xlink:href="#maffa5a2007" x="73.91" y="289.244451" style="stroke: #000000; stroke-width: 0.8"/>
      </g>
     </g>
     <g id="text_9">
      <!-- 0.4 -->
      <g transform="translate(35.10375 296.842889) scale(0.2 -0.2)">
       <use xlink:href="#DejaVuSans-30"/>
       <use xlink:href="#DejaVuSans-2e" x="63.623047"/>
       <use xlink:href="#DejaVuSans-34" x="95.410156"/>
      </g>
     </g>
    </g>
    <g id="ytick_4">
     <g id="line2d_9">
      <g>
       <use xlink:href="#maffa5a2007" x="73.91" y="199.092024" style="stroke: #000000; stroke-width: 0.8"/>
      </g>
     </g>
     <g id="text_10">
      <!-- 0.6 -->
      <g transform="translate(35.10375 206.690461) scale(0.2 -0.2)">
       <use xlink:href="#DejaVuSans-30"/>
       <use xlink:href="#DejaVuSans-2e" x="63.623047"/>
       <use xlink:href="#DejaVuSans-36" x="95.410156"/>
      </g>
     </g>
    </g>
    <g id="ytick_5">
     <g id="line2d_10">
      <g>
       <use xlink:href="#maffa5a2007" x="73.91" y="108.939597" style="stroke: #000000; stroke-width: 0.8"/>
      </g>
     </g>
     <g id="text_11">
      <!-- 0.8 -->
      <g transform="translate(35.10375 116.538034) scale(0.2 -0.2)">
       <use xlink:href="#DejaVuSans-30"/>
       <use xlink:href="#DejaVuSans-2e" x="63.623047"/>
       <use xlink:href="#DejaVuSans-38" x="95.410156"/>
      </g>
     </g>
    </g>
    <g id="ytick_6">
     <g id="line2d_11">
      <g>
       <use xlink:href="#maffa5a2007" x="73.91" y="18.787169" style="stroke: #000000; stroke-width: 0.8"/>
      </g>
     </g>
     <g id="text_12">
      <!-- 1.0 -->
      <g transform="translate(35.10375 26.385607) scale(0.2 -0.2)">
       <defs>
        <path id="DejaVuSans-31" d="M 794 531 
L 1825 531 
L 1825 4091 
L 703 3866 
L 703 4441 
L 1819 4666 
L 2450 4666 
L 2450 531 
L 3481 531 
L 3481 0 
L 794 0 
L 794 531 
z
" transform="scale(0.015625)"/>
       </defs>
       <use xlink:href="#DejaVuSans-31"/>
       <use xlink:href="#DejaVuSans-2e" x="63.623047"/>
       <use xlink:href="#DejaVuSans-30" x="95.410156"/>
      </g>
     </g>
    </g>
    <g id="text_13">
     <!-- R^2 -->
     <g transform="translate(26.944375 275.81873) rotate(-90) scale(0.2 -0.2)">
      <defs>
       <path id="DejaVuSans-52" d="M 2841 2188 
Q 3044 2119 3236 1894 
Q 3428 1669 3622 1275 
L 4263 0 
L 3584 0 
L 2988 1197 
Q 2756 1666 2539 1819 
Q 2322 1972 1947 1972 
L 1259 1972 
L 1259 0 
L 628 0 
L 628 4666 
L 2053 4666 
Q 2853 4666 3247 4331 
Q 3641 3997 3641 3322 
Q 3641 2881 3436 2590 
Q 3231 2300 2841 2188 
z
M 1259 4147 
L 1259 2491 
L 2053 2491 
Q 2509 2491 2742 2702 
Q 2975 2913 2975 3322 
Q 2975 3731 2742 3939 
Q 2509 4147 2053 4147 
L 1259 4147 
z
" transform="scale(0.015625)"/>
       <path id="DejaVuSans-5e" d="M 2988 4666 
L 4684 2925 
L 4056 2925 
L 2681 4159 
L 1306 2925 
L 678 2925 
L 2375 4666 
L 2988 4666 
z
" transform="scale(0.015625)"/>
      </defs>
      <use xlink:href="#DejaVuSans-52"/>
      <use xlink:href="#DejaVuSans-5e" x="69.482422"/>
      <use xlink:href="#DejaVuSans-32" x="153.271484"/>
     </g>
    </g>
   </g>
   <g id="line2d_12">
    <path d="M 122.423182 41.031831 
L 143.067089 44.315528 
L 163.710996 48.839742 
L 184.354903 51.931333 
L 204.99881 55.582933 
L 225.642718 56.428411 
L 246.286625 62.170186 
L 266.930532 70.870248 
L 287.574439 86.958237 
L 308.218346 84.147988 
L 328.862253 88.384979 
L 349.506161 90.005782 
L 370.150068 91.8525 
L 390.793975 90.739462 
L 411.437882 88.460386 
L 432.081789 94.109331 
L 452.725696 98.601748 
L 473.369603 111.553945 
L 494.013511 107.345681 
L 514.657418 113.187298 
L 535.301325 117.8822 
L 555.945232 118.65298 
L 576.589139 118.68513 
L 597.233046 147.167662 
L 617.876954 158.603414 
L 638.520861 169.003575 
L 659.164768 158.001916 
L 679.808675 163.797826 
" clip-path="url(#p1878ed60e2)" style="fill: none; stroke: #1f77b4; stroke-width: 1.5; stroke-linecap: square"/>
   </g>
   <g id="line2d_13">
    <path d="M 122.423182 41.237324 
L 143.067089 43.012582 
L 163.710996 45.439197 
L 184.354903 50.53707 
L 204.99881 53.532491 
L 225.642718 56.429216 
L 246.286625 60.191652 
L 266.930532 64.420586 
L 287.574439 88.322638 
L 308.218346 93.330912 
L 328.862253 108.666039 
L 349.506161 115.835421 
L 370.150068 132.531017 
L 390.793975 153.06432 
L 411.437882 150.128164 
L 432.081789 153.764931 
L 452.725696 145.648693 
L 473.369603 169.827662 
L 494.013511 175.980539 
L 514.657418 177.576148 
L 535.301325 175.579748 
L 555.945232 194.277181 
L 576.589139 208.433976 
L 597.233046 260.265815 
L 617.876954 313.846959 
L 638.520861 364.193243 
L 659.164768 353.70526 
L 679.808675 436.893025 
" clip-path="url(#p1878ed60e2)" style="fill: none; stroke: #ff7f0e; stroke-width: 1.5; stroke-linecap: square"/>
   </g>
   <g id="line2d_14">
    <path d="M 122.423182 40.514428 
L 143.067089 40.267429 
L 163.710996 40.539522 
L 184.354903 40.958839 
L 204.99881 41.006604 
L 225.642718 40.832442 
L 246.286625 40.598778 
L 266.930532 41.079716 
L 287.574439 40.951204 
L 308.218346 41.125678 
L 328.862253 40.446902 
L 349.506161 41.008123 
L 370.150068 41.207449 
L 390.793975 41.810955 
L 411.437882 41.107582 
L 432.081789 41.657091 
L 452.725696 42.407965 
L 473.369603 42.612444 
L 494.013511 41.60431 
L 514.657418 41.05463 
L 535.301325 41.599617 
L 555.945232 42.237419 
L 576.589139 42.065726 
L 597.233046 41.836399 
L 617.876954 41.420604 
L 638.520861 41.310054 
L 659.164768 41.315264 
L 679.808675 41.90096 
L 700.452582 41.161536 
L 721.096489 40.863405 
L 741.740397 40.84267 
L 762.384304 41.064159 
L 783.028211 40.601301 
L 803.672118 40.564629 
L 824.316025 41.01905 
L 844.959932 41.055252 
L 865.603839 40.894878 
L 886.247747 42.538448 
L 906.891654 41.456129 
L 927.535561 41.16669 
L 948.179468 41.391836 
L 968.823375 41.003956 
L 989.467282 41.130016 
L 1010.11119 41.244452 
L 1030.755097 40.812139 
L 1051.399004 42.31541 
L 1072.042911 41.274603 
L 1092.686818 41.08479 
" clip-path="url(#p1878ed60e2)" style="fill: none; stroke: #2ca02c; stroke-width: 1.5; stroke-linecap: square"/>
   </g>
   <g id="line2d_15">
    <path d="M 122.423182 40.794315 
L 143.067089 41.100495 
L 163.710996 40.339023 
L 184.354903 41.43311 
L 204.99881 41.447469 
L 225.642718 41.98595 
L 246.286625 42.621442 
L 266.930532 42.800528 
L 287.574439 42.901719 
L 308.218346 43.808867 
L 328.862253 42.731783 
L 349.506161 43.432033 
L 370.150068 43.545933 
L 390.793975 42.629155 
L 411.437882 43.09428 
L 432.081789 43.095168 
L 452.725696 43.105996 
L 473.369603 42.688988 
L 494.013511 43.685065 
L 514.657418 42.548964 
L 535.301325 43.727119 
L 555.945232 43.261981 
L 576.589139 43.939934 
L 597.233046 43.265673 
L 617.876954 43.126072 
L 638.520861 42.872458 
L 659.164768 43.328743 
L 679.808675 43.479933 
L 700.452582 43.675542 
L 721.096489 44.627034 
L 741.740397 43.872106 
L 762.384304 44.210121 
L 783.028211 43.977834 
L 803.672118 44.128613 
L 824.316025 43.745903 
L 844.959932 43.086804 
L 865.603839 44.237632 
L 886.247747 42.481049 
L 906.891654 42.872118 
L 927.535561 43.341721 
L 948.179468 43.107185 
L 968.823375 43.028074 
L 989.467282 44.178966 
L 1010.11119 43.131208 
L 1030.755097 44.748595 
L 1051.399004 43.214495 
L 1072.042911 43.00181 
L 1092.686818 43.445477 
" clip-path="url(#p1878ed60e2)" style="fill: none; stroke: #d62728; stroke-width: 1.5; stroke-linecap: square"/>
   </g>
   <g id="line2d_16"/>
   <g id="line2d_17"/>
   <g id="line2d_18"/>
   <g id="line2d_19"/>
   <g id="patch_3">
    <path d="M 73.91 490.552 
L 73.91 17.70421 
" style="fill: none; stroke: #000000; stroke-width: 0.8; stroke-linejoin: miter; stroke-linecap: square"/>
   </g>
   <g id="patch_4">
    <path d="M 1141.2 490.552 
L 1141.2 17.70421 
" style="fill: none; stroke: #000000; stroke-width: 0.8; stroke-linejoin: miter; stroke-linecap: square"/>
   </g>
   <g id="patch_5">
    <path d="M 73.91 490.552 
L 1141.2 490.552 
" style="fill: none; stroke: #000000; stroke-width: 0.8; stroke-linejoin: miter; stroke-linecap: square"/>
   </g>
   <g id="patch_6">
    <path d="M 73.91 17.70421 
L 1141.2 17.70421 
" style="fill: none; stroke: #000000; stroke-width: 0.8; stroke-linejoin: miter; stroke-linecap: square"/>
   </g>
   <g id="legend_1">
    <g id="patch_7">
     <path d="M 85.11 482.552 
L 224.545 482.552 
Q 227.745 482.552 227.745 479.352 
L 227.745 386.122 
Q 227.745 382.922 224.545 382.922 
L 85.11 382.922 
Q 81.91 382.922 81.91 386.122 
L 81.91 479.352 
Q 81.91 482.552 85.11 482.552 
z
" style="fill: #ffffff; opacity: 0.8; stroke: #cccccc; stroke-linejoin: miter"/>
    </g>
    <g id="line2d_20">
     <path d="M 88.31 395.8795 
L 104.31 395.8795 
L 120.31 395.8795 
" style="fill: none; stroke: #1f77b4; stroke-width: 1.5; stroke-linecap: square"/>
    </g>
    <g id="text_14">
     <!-- leave_out -->
     <g transform="translate(133.11 401.4795) scale(0.16 -0.16)">
      <defs>
       <path id="DejaVuSans-76" d="M 191 3500 
L 800 3500 
L 1894 563 
L 2988 3500 
L 3597 3500 
L 2284 0 
L 1503 0 
L 191 3500 
z
" transform="scale(0.015625)"/>
       <path id="DejaVuSans-5f" d="M 3263 -1063 
L 3263 -1509 
L -63 -1509 
L -63 -1063 
L 3263 -1063 
z
" transform="scale(0.015625)"/>
       <path id="DejaVuSans-75" d="M 544 1381 
L 544 3500 
L 1119 3500 
L 1119 1403 
Q 1119 906 1312 657 
Q 1506 409 1894 409 
Q 2359 409 2629 706 
Q 2900 1003 2900 1516 
L 2900 3500 
L 3475 3500 
L 3475 0 
L 2900 0 
L 2900 538 
Q 2691 219 2414 64 
Q 2138 -91 1772 -91 
Q 1169 -91 856 284 
Q 544 659 544 1381 
z
M 1991 3584 
L 1991 3584 
z
" transform="scale(0.015625)"/>
      </defs>
      <use xlink:href="#DejaVuSans-6c"/>
      <use xlink:href="#DejaVuSans-65" x="27.783203"/>
      <use xlink:href="#DejaVuSans-61" x="89.306641"/>
      <use xlink:href="#DejaVuSans-76" x="150.585938"/>
      <use xlink:href="#DejaVuSans-65" x="209.765625"/>
      <use xlink:href="#DejaVuSans-5f" x="271.289062"/>
      <use xlink:href="#DejaVuSans-6f" x="321.289062"/>
      <use xlink:href="#DejaVuSans-75" x="382.470703"/>
      <use xlink:href="#DejaVuSans-74" x="445.849609"/>
     </g>
    </g>
    <g id="line2d_21">
     <path d="M 88.31 419.8095 
L 104.31 419.8095 
L 120.31 419.8095 
" style="fill: none; stroke: #ff7f0e; stroke-width: 1.5; stroke-linecap: square"/>
    </g>
    <g id="text_15">
     <!-- merge -->
     <g transform="translate(133.11 425.4095) scale(0.16 -0.16)">
      <defs>
       <path id="DejaVuSans-6d" d="M 3328 2828 
Q 3544 3216 3844 3400 
Q 4144 3584 4550 3584 
Q 5097 3584 5394 3201 
Q 5691 2819 5691 2113 
L 5691 0 
L 5113 0 
L 5113 2094 
Q 5113 2597 4934 2840 
Q 4756 3084 4391 3084 
Q 3944 3084 3684 2787 
Q 3425 2491 3425 1978 
L 3425 0 
L 2847 0 
L 2847 2094 
Q 2847 2600 2669 2842 
Q 2491 3084 2119 3084 
Q 1678 3084 1418 2786 
Q 1159 2488 1159 1978 
L 1159 0 
L 581 0 
L 581 3500 
L 1159 3500 
L 1159 2956 
Q 1356 3278 1631 3431 
Q 1906 3584 2284 3584 
Q 2666 3584 2933 3390 
Q 3200 3197 3328 2828 
z
" transform="scale(0.015625)"/>
      </defs>
      <use xlink:href="#DejaVuSans-6d"/>
      <use xlink:href="#DejaVuSans-65" x="97.412109"/>
      <use xlink:href="#DejaVuSans-72" x="158.935547"/>
      <use xlink:href="#DejaVuSans-67" x="198.298828"/>
      <use xlink:href="#DejaVuSans-65" x="261.775391"/>
     </g>
    </g>
    <g id="line2d_22">
     <path d="M 88.31 443.2945 
L 104.31 443.2945 
L 120.31 443.2945 
" style="fill: none; stroke: #2ca02c; stroke-width: 1.5; stroke-linecap: square"/>
    </g>
    <g id="text_16">
     <!-- max_mean -->
     <g transform="translate(133.11 448.8945) scale(0.16 -0.16)">
      <defs>
       <path id="DejaVuSans-78" d="M 3513 3500 
L 2247 1797 
L 3578 0 
L 2900 0 
L 1881 1375 
L 863 0 
L 184 0 
L 1544 1831 
L 300 3500 
L 978 3500 
L 1906 2253 
L 2834 3500 
L 3513 3500 
z
" transform="scale(0.015625)"/>
      </defs>
      <use xlink:href="#DejaVuSans-6d"/>
      <use xlink:href="#DejaVuSans-61" x="97.412109"/>
      <use xlink:href="#DejaVuSans-78" x="158.691406"/>
      <use xlink:href="#DejaVuSans-5f" x="217.871094"/>
      <use xlink:href="#DejaVuSans-6d" x="267.871094"/>
      <use xlink:href="#DejaVuSans-65" x="365.283203"/>
      <use xlink:href="#DejaVuSans-61" x="426.806641"/>
      <use xlink:href="#DejaVuSans-6e" x="488.085938"/>
     </g>
    </g>
    <g id="line2d_23">
     <path d="M 88.31 467.2245 
L 104.31 467.2245 
L 120.31 467.2245 
" style="fill: none; stroke: #d62728; stroke-width: 1.5; stroke-linecap: square"/>
    </g>
    <g id="text_17">
     <!-- random -->
     <g transform="translate(133.11 472.8245) scale(0.16 -0.16)">
      <use xlink:href="#DejaVuSans-72"/>
      <use xlink:href="#DejaVuSans-61" x="41.113281"/>
      <use xlink:href="#DejaVuSans-6e" x="102.392578"/>
      <use xlink:href="#DejaVuSans-64" x="165.771484"/>
      <use xlink:href="#DejaVuSans-6f" x="229.248047"/>
      <use xlink:href="#DejaVuSans-6d" x="290.429688"/>
     </g>
    </g>
   </g>
  </g>
 </g>
 <defs>
  <clipPath id="p1878ed60e2">
   <rect x="73.91" y="17.70421" width="1067.29" height="472.84779"/>
  </clipPath>
 </defs>
</svg>
