<?xml version="1.0" encoding="utf-8" standalone="no"?>
<!DOCTYPE svg PUBLIC "-//W3C//DTD SVG 1.1//EN"
  "http://www.w3.org/Graphics/SVG/1.1/DTD/svg11.dtd">
<svg xmlns:xlink="http://www.w3.org/1999/xlink" width="1152pt" height="576pt" viewBox="0 0 1152 576" xmlns="http://www.w3.org/2000/svg" version="1.1">
 <metadata>
  <rdf:RDF xmlns:dc="http://purl.org/dc/elements/1.1/" xmlns:cc="http://creativecommons.org/ns#" xmlns:rdf="http://www.w3.org/1999/02/22-rdf-syntax-ns#">
   <cc:Work>
    <dc:type rdf:resource="http://purl.org/dc/dcmitype/StillImage"/>
    <dc:date>2025-03-13T00:14:05.869161</dc:date>
    <dc:format>image/svg+xml</dc:format>
    <dc:creator>
     <cc:Agent>
      <dc:title>Matplotlib v3.9.2, https://matplotlib.org/</dc:title>
     </cc:Agent>
    </dc:creator>
   </cc:Work>
  </rdf:RDF>
 </metadata>
 <defs>
  <style type="text/css">*{stroke-linejoin: round; stroke-linecap: butt}</style>
 </defs>
 <g id="figure_1">
  <g id="patch_1">
   <path d="M 0 576 
L 1152 576 
L 1152 0 
L 0 0 
z
" style="fill: #ffffff"/>
  </g>
  <g id="axes_1">
   <g id="patch_2">
    <path d="M 93.08 490.552 
L 1141.2 490.552 
L 1141.2 10.8 
L 93.08 10.8 
z
" style="fill: #ffffff"/>
   </g>
   <g id="PolyCollection_1">
    <defs>
     <path id="mdf70f25fed" d="M 140.721818 -108.295963 
L 140.721818 -107.254909 
L 160.994932 -108.202837 
L 181.268046 -109.726309 
L 201.541161 -113.669706 
L 221.814275 -114.720839 
L 242.087389 -117.87255 
L 262.360503 -120.822369 
L 282.633617 -121.52522 
L 302.906731 -132.11576 
L 323.179845 -132.063067 
L 343.452959 -138.136413 
L 363.726074 -134.176635 
L 383.999188 -136.632946 
L 404.272302 -144.665106 
L 424.545416 -144.561308 
L 444.81853 -144.160274 
L 465.091644 -142.217862 
L 485.364758 -151.779311 
L 505.637872 -156.720368 
L 525.910986 -155.477435 
L 546.184101 -152.952384 
L 566.457215 -159.908109 
L 586.730329 -159.094254 
L 607.003443 -158.926903 
L 627.276557 -165.074398 
L 647.549671 -225.571408 
L 667.822785 -211.154376 
L 688.095899 -252.390908 
L 708.369014 -275.168156 
L 728.642128 -285.056663 
L 748.915242 -251.683506 
L 769.188356 -285.394143 
L 789.46147 -284.339349 
L 809.734584 -274.647545 
L 830.007698 -264.000374 
L 850.280812 -271.919218 
L 870.553926 -285.149805 
L 890.827041 -278.594616 
L 911.100155 -296.729269 
L 931.373269 -294.114689 
L 951.646383 -289.390615 
L 971.919497 -282.778001 
L 992.192611 -277.792675 
L 1012.465725 -294.466644 
L 1032.738839 -295.426397 
L 1053.011954 -315.281851 
L 1073.285068 -322.940409 
L 1093.558182 -326.293273 
L 1093.558182 -494.360042 
L 1093.558182 -494.360042 
L 1073.285068 -483.468377 
L 1053.011954 -501.451798 
L 1032.738839 -490.113499 
L 1012.465725 -507.793067 
L 992.192611 -490.004409 
L 971.919497 -491.550216 
L 951.646383 -483.441274 
L 931.373269 -480.43568 
L 911.100155 -490.095726 
L 890.827041 -472.266262 
L 870.553926 -423.85331 
L 850.280812 -430.718299 
L 830.007698 -420.377186 
L 809.734584 -417.429105 
L 789.46147 -434.919999 
L 769.188356 -441.497824 
L 748.915242 -411.475616 
L 728.642128 -367.453308 
L 708.369014 -413.604794 
L 688.095899 -352.831225 
L 667.822785 -287.706136 
L 647.549671 -317.137283 
L 627.276557 -259.88108 
L 607.003443 -240.705124 
L 586.730329 -221.370629 
L 566.457215 -191.728677 
L 546.184101 -190.299986 
L 525.910986 -184.532839 
L 505.637872 -186.211221 
L 485.364758 -175.796993 
L 465.091644 -172.556238 
L 444.81853 -184.75425 
L 424.545416 -169.103271 
L 404.272302 -175.81405 
L 383.999188 -168.905829 
L 363.726074 -164.748076 
L 343.452959 -157.913223 
L 323.179845 -155.717031 
L 302.906731 -155.310705 
L 282.633617 -134.551932 
L 262.360503 -125.915868 
L 242.087389 -122.867307 
L 221.814275 -118.390946 
L 201.541161 -116.117348 
L 181.268046 -112.786001 
L 160.994932 -109.938162 
L 140.721818 -108.295963 
z
" style="stroke: #1f77b4; stroke-opacity: 0.2"/>
    </defs>
    <g clip-path="url(#p15b4d784d2)">
     <use xlink:href="#mdf70f25fed" x="0" y="576" style="fill: #1f77b4; fill-opacity: 0.2; stroke: #1f77b4; stroke-opacity: 0.2"/>
    </g>
   </g>
   <g id="PolyCollection_2">
    <defs>
     <path id="m6659470379" d="M 140.721818 -110.092283 
L 140.721818 -107.402417 
L 160.994932 -108.471691 
L 181.268046 -110.976211 
L 201.541161 -116.396805 
L 221.814275 -117.331777 
L 242.087389 -119.307439 
L 262.360503 -123.329419 
L 282.633617 -126.601885 
L 302.906731 -137.995049 
L 323.179845 -141.388535 
L 343.452959 -148.691449 
L 363.726074 -145.901588 
L 383.999188 -146.195882 
L 404.272302 -155.79947 
L 424.545416 -157.747958 
L 444.81853 -161.252011 
L 465.091644 -156.362385 
L 485.364758 -163.927957 
L 505.637872 -176.654123 
L 525.910986 -173.239065 
L 546.184101 -169.528954 
L 566.457215 -189.739038 
L 586.730329 -175.986525 
L 607.003443 -171.384819 
L 627.276557 -178.594772 
L 647.549671 -229.618273 
L 667.822785 -212.740412 
L 688.095899 -259.080344 
L 708.369014 -282.022288 
L 728.642128 -279.998205 
L 748.915242 -254.138185 
L 769.188356 -291.937046 
L 789.46147 -306.688009 
L 809.734584 -272.810215 
L 830.007698 -282.384705 
L 850.280812 -273.291402 
L 870.553926 -286.800744 
L 890.827041 -291.100766 
L 911.100155 -311.470581 
L 931.373269 -296.378638 
L 951.646383 -298.444839 
L 971.919497 -287.849907 
L 992.192611 -293.219105 
L 1012.465725 -290.096487 
L 1032.738839 -304.780394 
L 1053.011954 -311.750587 
L 1073.285068 -320.06898 
L 1093.558182 -324.5407 
L 1093.558182 -471.090779 
L 1093.558182 -471.090779 
L 1073.285068 -464.728396 
L 1053.011954 -506.718827 
L 1032.738839 -486.158786 
L 1012.465725 -478.358023 
L 992.192611 -474.04308 
L 971.919497 -533.755606 
L 951.646383 -529.479725 
L 931.373269 -531.952877 
L 911.100155 -520.93575 
L 890.827041 -504.405291 
L 870.553926 -460.696309 
L 850.280812 -442.615813 
L 830.007698 -448.029002 
L 809.734584 -443.242412 
L 789.46147 -457.885663 
L 769.188356 -477.343149 
L 748.915242 -453.341319 
L 728.642128 -366.93612 
L 708.369014 -411.313739 
L 688.095899 -396.6418 
L 667.822785 -312.113526 
L 647.549671 -293.009599 
L 627.276557 -252.14745 
L 607.003443 -247.415394 
L 586.730329 -258.191619 
L 566.457215 -225.22513 
L 546.184101 -203.039009 
L 525.910986 -215.529452 
L 505.637872 -218.829226 
L 485.364758 -192.13827 
L 465.091644 -190.105381 
L 444.81853 -197.392884 
L 424.545416 -189.362523 
L 404.272302 -194.851645 
L 383.999188 -183.19519 
L 363.726074 -174.293751 
L 343.452959 -180.411905 
L 323.179845 -174.801386 
L 302.906731 -153.137933 
L 282.633617 -138.510908 
L 262.360503 -130.732191 
L 242.087389 -125.882756 
L 221.814275 -122.17796 
L 201.541161 -118.34775 
L 181.268046 -115.751084 
L 160.994932 -112.27412 
L 140.721818 -110.092283 
z
" style="stroke: #ff7f0e; stroke-opacity: 0.2"/>
    </defs>
    <g clip-path="url(#p15b4d784d2)">
     <use xlink:href="#m6659470379" x="0" y="576" style="fill: #ff7f0e; fill-opacity: 0.2; stroke: #ff7f0e; stroke-opacity: 0.2"/>
    </g>
   </g>
   <g id="PolyCollection_3">
    <defs>
     <path id="m893550ed76" d="M 140.721818 -109.777753 
L 140.721818 -108.254123 
L 160.994932 -109.862485 
L 181.268046 -111.366582 
L 201.541161 -117.609928 
L 221.814275 -118.557183 
L 242.087389 -122.688934 
L 262.360503 -125.061096 
L 282.633617 -125.262151 
L 302.906731 -141.804388 
L 323.179845 -141.304769 
L 343.452959 -147.741847 
L 363.726074 -146.217621 
L 383.999188 -150.093166 
L 404.272302 -156.083466 
L 424.545416 -156.946289 
L 444.81853 -161.914484 
L 465.091644 -157.148173 
L 485.364758 -168.971839 
L 505.637872 -174.738403 
L 525.910986 -177.850498 
L 546.184101 -172.410563 
L 566.457215 -187.881021 
L 586.730329 -181.814555 
L 607.003443 -183.527255 
L 627.276557 -187.227935 
L 647.549671 -240.789712 
L 667.822785 -220.083344 
L 688.095899 -262.361572 
L 708.369014 -300.702136 
L 728.642128 -287.362989 
L 748.915242 -261.401577 
L 769.188356 -295.930847 
L 789.46147 -305.39563 
L 809.734584 -272.783729 
L 830.007698 -274.979236 
L 850.280812 -280.909283 
L 870.553926 -292.505407 
L 890.827041 -293.301161 
L 911.100155 -310.666716 
L 931.373269 -301.645712 
L 951.646383 -299.732262 
L 971.919497 -282.914637 
L 992.192611 -287.120197 
L 1012.465725 -307.86378 
L 1032.738839 -307.337413 
L 1053.011954 -324.745294 
L 1073.285068 -338.044966 
L 1093.558182 -340.43778 
L 1093.558182 -501.015957 
L 1093.558182 -501.015957 
L 1073.285068 -493.375712 
L 1053.011954 -526.156323 
L 1032.738839 -492.916403 
L 1012.465725 -495.974419 
L 992.192611 -487.104976 
L 971.919497 -543.393091 
L 951.646383 -537.113428 
L 931.373269 -527.339151 
L 911.100155 -540.969743 
L 890.827041 -514.328518 
L 870.553926 -493.543852 
L 850.280812 -492.621502 
L 830.007698 -475.541307 
L 809.734584 -474.54763 
L 789.46147 -487.836199 
L 769.188356 -510.945284 
L 748.915242 -482.487752 
L 728.642128 -356.300918 
L 708.369014 -420.219065 
L 688.095899 -389.293348 
L 667.822785 -310.238185 
L 647.549671 -338.772256 
L 627.276557 -261.746651 
L 607.003443 -283.063663 
L 586.730329 -248.788816 
L 566.457215 -223.145047 
L 546.184101 -203.491057 
L 525.910986 -207.257827 
L 505.637872 -210.216136 
L 485.364758 -198.230373 
L 465.091644 -187.64151 
L 444.81853 -195.236913 
L 424.545416 -182.827584 
L 404.272302 -186.276083 
L 383.999188 -181.464593 
L 363.726074 -175.91057 
L 343.452959 -173.479916 
L 323.179845 -172.776263 
L 302.906731 -160.369954 
L 282.633617 -137.896991 
L 262.360503 -134.067247 
L 242.087389 -127.696558 
L 221.814275 -122.098726 
L 201.541161 -120.756748 
L 181.268046 -115.2853 
L 160.994932 -113.358438 
L 140.721818 -109.777753 
z
" style="stroke: #2ca02c; stroke-opacity: 0.2"/>
    </defs>
    <g clip-path="url(#p15b4d784d2)">
     <use xlink:href="#m893550ed76" x="0" y="576" style="fill: #2ca02c; fill-opacity: 0.2; stroke: #2ca02c; stroke-opacity: 0.2"/>
    </g>
   </g>
   <g id="matplotlib.axis_1">
    <g id="xtick_1">
     <g id="line2d_1">
      <defs>
       <path id="m7eaa160416" d="M 0 0 
L 0 3.5 
" style="stroke: #000000; stroke-width: 0.8"/>
      </defs>
      <g>
       <use xlink:href="#m7eaa160416" x="130.585261" y="490.552" style="stroke: #000000; stroke-width: 0.8"/>
      </g>
     </g>
     <g id="text_1">
      <!-- 0 -->
      <g transform="translate(124.222761 512.748875) scale(0.2 -0.2)">
       <defs>
        <path id="DejaVuSans-30" d="M 2034 4250 
Q 1547 4250 1301 3770 
Q 1056 3291 1056 2328 
Q 1056 1369 1301 889 
Q 1547 409 2034 409 
Q 2525 409 2770 889 
Q 3016 1369 3016 2328 
Q 3016 3291 2770 3770 
Q 2525 4250 2034 4250 
z
M 2034 4750 
Q 2819 4750 3233 4129 
Q 3647 3509 3647 2328 
Q 3647 1150 3233 529 
Q 2819 -91 2034 -91 
Q 1250 -91 836 529 
Q 422 1150 422 2328 
Q 422 3509 836 4129 
Q 1250 4750 2034 4750 
z
" transform="scale(0.015625)"/>
       </defs>
       <use xlink:href="#DejaVuSans-30"/>
      </g>
     </g>
    </g>
    <g id="xtick_2">
     <g id="line2d_2">
      <g>
       <use xlink:href="#m7eaa160416" x="333.316402" y="490.552" style="stroke: #000000; stroke-width: 0.8"/>
      </g>
     </g>
     <g id="text_2">
      <!-- 20 -->
      <g transform="translate(320.591402 512.748875) scale(0.2 -0.2)">
       <defs>
        <path id="DejaVuSans-32" d="M 1228 531 
L 3431 531 
L 3431 0 
L 469 0 
L 469 531 
Q 828 903 1448 1529 
Q 2069 2156 2228 2338 
Q 2531 2678 2651 2914 
Q 2772 3150 2772 3378 
Q 2772 3750 2511 3984 
Q 2250 4219 1831 4219 
Q 1534 4219 1204 4116 
Q 875 4013 500 3803 
L 500 4441 
Q 881 4594 1212 4672 
Q 1544 4750 1819 4750 
Q 2544 4750 2975 4387 
Q 3406 4025 3406 3419 
Q 3406 3131 3298 2873 
Q 3191 2616 2906 2266 
Q 2828 2175 2409 1742 
Q 1991 1309 1228 531 
z
" transform="scale(0.015625)"/>
       </defs>
       <use xlink:href="#DejaVuSans-32"/>
       <use xlink:href="#DejaVuSans-30" x="63.623047"/>
      </g>
     </g>
    </g>
    <g id="xtick_3">
     <g id="line2d_3">
      <g>
       <use xlink:href="#m7eaa160416" x="536.047544" y="490.552" style="stroke: #000000; stroke-width: 0.8"/>
      </g>
     </g>
     <g id="text_3">
      <!-- 40 -->
      <g transform="translate(523.322544 512.748875) scale(0.2 -0.2)">
       <defs>
        <path id="DejaVuSans-34" d="M 2419 4116 
L 825 1625 
L 2419 1625 
L 2419 4116 
z
M 2253 4666 
L 3047 4666 
L 3047 1625 
L 3713 1625 
L 3713 1100 
L 3047 1100 
L 3047 0 
L 2419 0 
L 2419 1100 
L 313 1100 
L 313 1709 
L 2253 4666 
z
" transform="scale(0.015625)"/>
       </defs>
       <use xlink:href="#DejaVuSans-34"/>
       <use xlink:href="#DejaVuSans-30" x="63.623047"/>
      </g>
     </g>
    </g>
    <g id="xtick_4">
     <g id="line2d_4">
      <g>
       <use xlink:href="#m7eaa160416" x="738.778685" y="490.552" style="stroke: #000000; stroke-width: 0.8"/>
      </g>
     </g>
     <g id="text_4">
      <!-- 60 -->
      <g transform="translate(726.053685 512.748875) scale(0.2 -0.2)">
       <defs>
        <path id="DejaVuSans-36" d="M 2113 2584 
Q 1688 2584 1439 2293 
Q 1191 2003 1191 1497 
Q 1191 994 1439 701 
Q 1688 409 2113 409 
Q 2538 409 2786 701 
Q 3034 994 3034 1497 
Q 3034 2003 2786 2293 
Q 2538 2584 2113 2584 
z
M 3366 4563 
L 3366 3988 
Q 3128 4100 2886 4159 
Q 2644 4219 2406 4219 
Q 1781 4219 1451 3797 
Q 1122 3375 1075 2522 
Q 1259 2794 1537 2939 
Q 1816 3084 2150 3084 
Q 2853 3084 3261 2657 
Q 3669 2231 3669 1497 
Q 3669 778 3244 343 
Q 2819 -91 2113 -91 
Q 1303 -91 875 529 
Q 447 1150 447 2328 
Q 447 3434 972 4092 
Q 1497 4750 2381 4750 
Q 2619 4750 2861 4703 
Q 3103 4656 3366 4563 
z
" transform="scale(0.015625)"/>
       </defs>
       <use xlink:href="#DejaVuSans-36"/>
       <use xlink:href="#DejaVuSans-30" x="63.623047"/>
      </g>
     </g>
    </g>
    <g id="xtick_5">
     <g id="line2d_5">
      <g>
       <use xlink:href="#m7eaa160416" x="941.509826" y="490.552" style="stroke: #000000; stroke-width: 0.8"/>
      </g>
     </g>
     <g id="text_5">
      <!-- 80 -->
      <g transform="translate(928.784826 512.748875) scale(0.2 -0.2)">
       <defs>
        <path id="DejaVuSans-38" d="M 2034 2216 
Q 1584 2216 1326 1975 
Q 1069 1734 1069 1313 
Q 1069 891 1326 650 
Q 1584 409 2034 409 
Q 2484 409 2743 651 
Q 3003 894 3003 1313 
Q 3003 1734 2745 1975 
Q 2488 2216 2034 2216 
z
M 1403 2484 
Q 997 2584 770 2862 
Q 544 3141 544 3541 
Q 544 4100 942 4425 
Q 1341 4750 2034 4750 
Q 2731 4750 3128 4425 
Q 3525 4100 3525 3541 
Q 3525 3141 3298 2862 
Q 3072 2584 2669 2484 
Q 3125 2378 3379 2068 
Q 3634 1759 3634 1313 
Q 3634 634 3220 271 
Q 2806 -91 2034 -91 
Q 1263 -91 848 271 
Q 434 634 434 1313 
Q 434 1759 690 2068 
Q 947 2378 1403 2484 
z
M 1172 3481 
Q 1172 3119 1398 2916 
Q 1625 2713 2034 2713 
Q 2441 2713 2670 2916 
Q 2900 3119 2900 3481 
Q 2900 3844 2670 4047 
Q 2441 4250 2034 4250 
Q 1625 4250 1398 4047 
Q 1172 3844 1172 3481 
z
" transform="scale(0.015625)"/>
       </defs>
       <use xlink:href="#DejaVuSans-38"/>
       <use xlink:href="#DejaVuSans-30" x="63.623047"/>
      </g>
     </g>
    </g>
    <g id="text_6">
     <!-- Percentile Threshold -->
     <g transform="translate(515.360313 536.105125) scale(0.2 -0.2)">
      <defs>
       <path id="DejaVuSans-50" d="M 1259 4147 
L 1259 2394 
L 2053 2394 
Q 2494 2394 2734 2622 
Q 2975 2850 2975 3272 
Q 2975 3691 2734 3919 
Q 2494 4147 2053 4147 
L 1259 4147 
z
M 628 4666 
L 2053 4666 
Q 2838 4666 3239 4311 
Q 3641 3956 3641 3272 
Q 3641 2581 3239 2228 
Q 2838 1875 2053 1875 
L 1259 1875 
L 1259 0 
L 628 0 
L 628 4666 
z
" transform="scale(0.015625)"/>
       <path id="DejaVuSans-65" d="M 3597 1894 
L 3597 1613 
L 953 1613 
Q 991 1019 1311 708 
Q 1631 397 2203 397 
Q 2534 397 2845 478 
Q 3156 559 3463 722 
L 3463 178 
Q 3153 47 2828 -22 
Q 2503 -91 2169 -91 
Q 1331 -91 842 396 
Q 353 884 353 1716 
Q 353 2575 817 3079 
Q 1281 3584 2069 3584 
Q 2775 3584 3186 3129 
Q 3597 2675 3597 1894 
z
M 3022 2063 
Q 3016 2534 2758 2815 
Q 2500 3097 2075 3097 
Q 1594 3097 1305 2825 
Q 1016 2553 972 2059 
L 3022 2063 
z
" transform="scale(0.015625)"/>
       <path id="DejaVuSans-72" d="M 2631 2963 
Q 2534 3019 2420 3045 
Q 2306 3072 2169 3072 
Q 1681 3072 1420 2755 
Q 1159 2438 1159 1844 
L 1159 0 
L 581 0 
L 581 3500 
L 1159 3500 
L 1159 2956 
Q 1341 3275 1631 3429 
Q 1922 3584 2338 3584 
Q 2397 3584 2469 3576 
Q 2541 3569 2628 3553 
L 2631 2963 
z
" transform="scale(0.015625)"/>
       <path id="DejaVuSans-63" d="M 3122 3366 
L 3122 2828 
Q 2878 2963 2633 3030 
Q 2388 3097 2138 3097 
Q 1578 3097 1268 2742 
Q 959 2388 959 1747 
Q 959 1106 1268 751 
Q 1578 397 2138 397 
Q 2388 397 2633 464 
Q 2878 531 3122 666 
L 3122 134 
Q 2881 22 2623 -34 
Q 2366 -91 2075 -91 
Q 1284 -91 818 406 
Q 353 903 353 1747 
Q 353 2603 823 3093 
Q 1294 3584 2113 3584 
Q 2378 3584 2631 3529 
Q 2884 3475 3122 3366 
z
" transform="scale(0.015625)"/>
       <path id="DejaVuSans-6e" d="M 3513 2113 
L 3513 0 
L 2938 0 
L 2938 2094 
Q 2938 2591 2744 2837 
Q 2550 3084 2163 3084 
Q 1697 3084 1428 2787 
Q 1159 2491 1159 1978 
L 1159 0 
L 581 0 
L 581 3500 
L 1159 3500 
L 1159 2956 
Q 1366 3272 1645 3428 
Q 1925 3584 2291 3584 
Q 2894 3584 3203 3211 
Q 3513 2838 3513 2113 
z
" transform="scale(0.015625)"/>
       <path id="DejaVuSans-74" d="M 1172 4494 
L 1172 3500 
L 2356 3500 
L 2356 3053 
L 1172 3053 
L 1172 1153 
Q 1172 725 1289 603 
Q 1406 481 1766 481 
L 2356 481 
L 2356 0 
L 1766 0 
Q 1100 0 847 248 
Q 594 497 594 1153 
L 594 3053 
L 172 3053 
L 172 3500 
L 594 3500 
L 594 4494 
L 1172 4494 
z
" transform="scale(0.015625)"/>
       <path id="DejaVuSans-69" d="M 603 3500 
L 1178 3500 
L 1178 0 
L 603 0 
L 603 3500 
z
M 603 4863 
L 1178 4863 
L 1178 4134 
L 603 4134 
L 603 4863 
z
" transform="scale(0.015625)"/>
       <path id="DejaVuSans-6c" d="M 603 4863 
L 1178 4863 
L 1178 0 
L 603 0 
L 603 4863 
z
" transform="scale(0.015625)"/>
       <path id="DejaVuSans-20" transform="scale(0.015625)"/>
       <path id="DejaVuSans-54" d="M -19 4666 
L 3928 4666 
L 3928 4134 
L 2272 4134 
L 2272 0 
L 1638 0 
L 1638 4134 
L -19 4134 
L -19 4666 
z
" transform="scale(0.015625)"/>
       <path id="DejaVuSans-68" d="M 3513 2113 
L 3513 0 
L 2938 0 
L 2938 2094 
Q 2938 2591 2744 2837 
Q 2550 3084 2163 3084 
Q 1697 3084 1428 2787 
Q 1159 2491 1159 1978 
L 1159 0 
L 581 0 
L 581 4863 
L 1159 4863 
L 1159 2956 
Q 1366 3272 1645 3428 
Q 1925 3584 2291 3584 
Q 2894 3584 3203 3211 
Q 3513 2838 3513 2113 
z
" transform="scale(0.015625)"/>
       <path id="DejaVuSans-73" d="M 2834 3397 
L 2834 2853 
Q 2591 2978 2328 3040 
Q 2066 3103 1784 3103 
Q 1356 3103 1142 2972 
Q 928 2841 928 2578 
Q 928 2378 1081 2264 
Q 1234 2150 1697 2047 
L 1894 2003 
Q 2506 1872 2764 1633 
Q 3022 1394 3022 966 
Q 3022 478 2636 193 
Q 2250 -91 1575 -91 
Q 1294 -91 989 -36 
Q 684 19 347 128 
L 347 722 
Q 666 556 975 473 
Q 1284 391 1588 391 
Q 1994 391 2212 530 
Q 2431 669 2431 922 
Q 2431 1156 2273 1281 
Q 2116 1406 1581 1522 
L 1381 1569 
Q 847 1681 609 1914 
Q 372 2147 372 2553 
Q 372 3047 722 3315 
Q 1072 3584 1716 3584 
Q 2034 3584 2315 3537 
Q 2597 3491 2834 3397 
z
" transform="scale(0.015625)"/>
       <path id="DejaVuSans-6f" d="M 1959 3097 
Q 1497 3097 1228 2736 
Q 959 2375 959 1747 
Q 959 1119 1226 758 
Q 1494 397 1959 397 
Q 2419 397 2687 759 
Q 2956 1122 2956 1747 
Q 2956 2369 2687 2733 
Q 2419 3097 1959 3097 
z
M 1959 3584 
Q 2709 3584 3137 3096 
Q 3566 2609 3566 1747 
Q 3566 888 3137 398 
Q 2709 -91 1959 -91 
Q 1206 -91 779 398 
Q 353 888 353 1747 
Q 353 2609 779 3096 
Q 1206 3584 1959 3584 
z
" transform="scale(0.015625)"/>
       <path id="DejaVuSans-64" d="M 2906 2969 
L 2906 4863 
L 3481 4863 
L 3481 0 
L 2906 0 
L 2906 525 
Q 2725 213 2448 61 
Q 2172 -91 1784 -91 
Q 1150 -91 751 415 
Q 353 922 353 1747 
Q 353 2572 751 3078 
Q 1150 3584 1784 3584 
Q 2172 3584 2448 3432 
Q 2725 3281 2906 2969 
z
M 947 1747 
Q 947 1113 1208 752 
Q 1469 391 1925 391 
Q 2381 391 2643 752 
Q 2906 1113 2906 1747 
Q 2906 2381 2643 2742 
Q 2381 3103 1925 3103 
Q 1469 3103 1208 2742 
Q 947 2381 947 1747 
z
" transform="scale(0.015625)"/>
      </defs>
      <use xlink:href="#DejaVuSans-50"/>
      <use xlink:href="#DejaVuSans-65" x="56.677734"/>
      <use xlink:href="#DejaVuSans-72" x="118.201172"/>
      <use xlink:href="#DejaVuSans-63" x="157.064453"/>
      <use xlink:href="#DejaVuSans-65" x="212.044922"/>
      <use xlink:href="#DejaVuSans-6e" x="273.568359"/>
      <use xlink:href="#DejaVuSans-74" x="336.947266"/>
      <use xlink:href="#DejaVuSans-69" x="376.15625"/>
      <use xlink:href="#DejaVuSans-6c" x="403.939453"/>
      <use xlink:href="#DejaVuSans-65" x="431.722656"/>
      <use xlink:href="#DejaVuSans-20" x="493.246094"/>
      <use xlink:href="#DejaVuSans-54" x="525.033203"/>
      <use xlink:href="#DejaVuSans-68" x="586.117188"/>
      <use xlink:href="#DejaVuSans-72" x="649.496094"/>
      <use xlink:href="#DejaVuSans-65" x="688.359375"/>
      <use xlink:href="#DejaVuSans-73" x="749.882812"/>
      <use xlink:href="#DejaVuSans-68" x="801.982422"/>
      <use xlink:href="#DejaVuSans-6f" x="865.361328"/>
      <use xlink:href="#DejaVuSans-6c" x="926.542969"/>
      <use xlink:href="#DejaVuSans-64" x="954.326172"/>
     </g>
     <!-- (Using "merge" Threshold Handling) -->
     <g transform="translate(436.425938 558.50075) scale(0.2 -0.2)">
      <defs>
       <path id="DejaVuSans-28" d="M 1984 4856 
Q 1566 4138 1362 3434 
Q 1159 2731 1159 2009 
Q 1159 1288 1364 580 
Q 1569 -128 1984 -844 
L 1484 -844 
Q 1016 -109 783 600 
Q 550 1309 550 2009 
Q 550 2706 781 3412 
Q 1013 4119 1484 4856 
L 1984 4856 
z
" transform="scale(0.015625)"/>
       <path id="DejaVuSans-55" d="M 556 4666 
L 1191 4666 
L 1191 1831 
Q 1191 1081 1462 751 
Q 1734 422 2344 422 
Q 2950 422 3222 751 
Q 3494 1081 3494 1831 
L 3494 4666 
L 4128 4666 
L 4128 1753 
Q 4128 841 3676 375 
Q 3225 -91 2344 -91 
Q 1459 -91 1007 375 
Q 556 841 556 1753 
L 556 4666 
z
" transform="scale(0.015625)"/>
       <path id="DejaVuSans-67" d="M 2906 1791 
Q 2906 2416 2648 2759 
Q 2391 3103 1925 3103 
Q 1463 3103 1205 2759 
Q 947 2416 947 1791 
Q 947 1169 1205 825 
Q 1463 481 1925 481 
Q 2391 481 2648 825 
Q 2906 1169 2906 1791 
z
M 3481 434 
Q 3481 -459 3084 -895 
Q 2688 -1331 1869 -1331 
Q 1566 -1331 1297 -1286 
Q 1028 -1241 775 -1147 
L 775 -588 
Q 1028 -725 1275 -790 
Q 1522 -856 1778 -856 
Q 2344 -856 2625 -561 
Q 2906 -266 2906 331 
L 2906 616 
Q 2728 306 2450 153 
Q 2172 0 1784 0 
Q 1141 0 747 490 
Q 353 981 353 1791 
Q 353 2603 747 3093 
Q 1141 3584 1784 3584 
Q 2172 3584 2450 3431 
Q 2728 3278 2906 2969 
L 2906 3500 
L 3481 3500 
L 3481 434 
z
" transform="scale(0.015625)"/>
       <path id="DejaVuSans-22" d="M 1147 4666 
L 1147 2931 
L 616 2931 
L 616 4666 
L 1147 4666 
z
M 2328 4666 
L 2328 2931 
L 1797 2931 
L 1797 4666 
L 2328 4666 
z
" transform="scale(0.015625)"/>
       <path id="DejaVuSans-6d" d="M 3328 2828 
Q 3544 3216 3844 3400 
Q 4144 3584 4550 3584 
Q 5097 3584 5394 3201 
Q 5691 2819 5691 2113 
L 5691 0 
L 5113 0 
L 5113 2094 
Q 5113 2597 4934 2840 
Q 4756 3084 4391 3084 
Q 3944 3084 3684 2787 
Q 3425 2491 3425 1978 
L 3425 0 
L 2847 0 
L 2847 2094 
Q 2847 2600 2669 2842 
Q 2491 3084 2119 3084 
Q 1678 3084 1418 2786 
Q 1159 2488 1159 1978 
L 1159 0 
L 581 0 
L 581 3500 
L 1159 3500 
L 1159 2956 
Q 1356 3278 1631 3431 
Q 1906 3584 2284 3584 
Q 2666 3584 2933 3390 
Q 3200 3197 3328 2828 
z
" transform="scale(0.015625)"/>
       <path id="DejaVuSans-48" d="M 628 4666 
L 1259 4666 
L 1259 2753 
L 3553 2753 
L 3553 4666 
L 4184 4666 
L 4184 0 
L 3553 0 
L 3553 2222 
L 1259 2222 
L 1259 0 
L 628 0 
L 628 4666 
z
" transform="scale(0.015625)"/>
       <path id="DejaVuSans-61" d="M 2194 1759 
Q 1497 1759 1228 1600 
Q 959 1441 959 1056 
Q 959 750 1161 570 
Q 1363 391 1709 391 
Q 2188 391 2477 730 
Q 2766 1069 2766 1631 
L 2766 1759 
L 2194 1759 
z
M 3341 1997 
L 3341 0 
L 2766 0 
L 2766 531 
Q 2569 213 2275 61 
Q 1981 -91 1556 -91 
Q 1019 -91 701 211 
Q 384 513 384 1019 
Q 384 1609 779 1909 
Q 1175 2209 1959 2209 
L 2766 2209 
L 2766 2266 
Q 2766 2663 2505 2880 
Q 2244 3097 1772 3097 
Q 1472 3097 1187 3025 
Q 903 2953 641 2809 
L 641 3341 
Q 956 3463 1253 3523 
Q 1550 3584 1831 3584 
Q 2591 3584 2966 3190 
Q 3341 2797 3341 1997 
z
" transform="scale(0.015625)"/>
       <path id="DejaVuSans-29" d="M 513 4856 
L 1013 4856 
Q 1481 4119 1714 3412 
Q 1947 2706 1947 2009 
Q 1947 1309 1714 600 
Q 1481 -109 1013 -844 
L 513 -844 
Q 928 -128 1133 580 
Q 1338 1288 1338 2009 
Q 1338 2731 1133 3434 
Q 928 4138 513 4856 
z
" transform="scale(0.015625)"/>
      </defs>
      <use xlink:href="#DejaVuSans-28"/>
      <use xlink:href="#DejaVuSans-55" x="39.013672"/>
      <use xlink:href="#DejaVuSans-73" x="112.207031"/>
      <use xlink:href="#DejaVuSans-69" x="164.306641"/>
      <use xlink:href="#DejaVuSans-6e" x="192.089844"/>
      <use xlink:href="#DejaVuSans-67" x="255.46875"/>
      <use xlink:href="#DejaVuSans-20" x="318.945312"/>
      <use xlink:href="#DejaVuSans-22" x="350.732422"/>
      <use xlink:href="#DejaVuSans-6d" x="396.728516"/>
      <use xlink:href="#DejaVuSans-65" x="494.140625"/>
      <use xlink:href="#DejaVuSans-72" x="555.664062"/>
      <use xlink:href="#DejaVuSans-67" x="595.027344"/>
      <use xlink:href="#DejaVuSans-65" x="658.503906"/>
      <use xlink:href="#DejaVuSans-22" x="720.027344"/>
      <use xlink:href="#DejaVuSans-20" x="766.023438"/>
      <use xlink:href="#DejaVuSans-54" x="797.810547"/>
      <use xlink:href="#DejaVuSans-68" x="858.894531"/>
      <use xlink:href="#DejaVuSans-72" x="922.273438"/>
      <use xlink:href="#DejaVuSans-65" x="961.136719"/>
      <use xlink:href="#DejaVuSans-73" x="1022.660156"/>
      <use xlink:href="#DejaVuSans-68" x="1074.759766"/>
      <use xlink:href="#DejaVuSans-6f" x="1138.138672"/>
      <use xlink:href="#DejaVuSans-6c" x="1199.320312"/>
      <use xlink:href="#DejaVuSans-64" x="1227.103516"/>
      <use xlink:href="#DejaVuSans-20" x="1290.580078"/>
      <use xlink:href="#DejaVuSans-48" x="1322.367188"/>
      <use xlink:href="#DejaVuSans-61" x="1397.5625"/>
      <use xlink:href="#DejaVuSans-6e" x="1458.841797"/>
      <use xlink:href="#DejaVuSans-64" x="1522.220703"/>
      <use xlink:href="#DejaVuSans-6c" x="1585.697266"/>
      <use xlink:href="#DejaVuSans-69" x="1613.480469"/>
      <use xlink:href="#DejaVuSans-6e" x="1641.263672"/>
      <use xlink:href="#DejaVuSans-67" x="1704.642578"/>
      <use xlink:href="#DejaVuSans-29" x="1768.119141"/>
     </g>
    </g>
   </g>
   <g id="matplotlib.axis_2">
    <g id="ytick_1">
     <g id="line2d_6">
      <defs>
       <path id="m92a3a2e9ae" d="M 0 0 
L -3.5 0 
" style="stroke: #000000; stroke-width: 0.8"/>
      </defs>
      <g>
       <use xlink:href="#m92a3a2e9ae" x="93.08" y="487.579839" style="stroke: #000000; stroke-width: 0.8"/>
      </g>
     </g>
     <g id="text_7">
      <!-- 0 -->
      <g transform="translate(73.355 495.178276) scale(0.2 -0.2)">
       <use xlink:href="#DejaVuSans-30"/>
      </g>
     </g>
    </g>
    <g id="ytick_2">
     <g id="line2d_7">
      <g>
       <use xlink:href="#m92a3a2e9ae" x="93.08" y="422.427514" style="stroke: #000000; stroke-width: 0.8"/>
      </g>
     </g>
     <g id="text_8">
      <!-- 500 -->
      <g transform="translate(47.905 430.025952) scale(0.2 -0.2)">
       <defs>
        <path id="DejaVuSans-35" d="M 691 4666 
L 3169 4666 
L 3169 4134 
L 1269 4134 
L 1269 2991 
Q 1406 3038 1543 3061 
Q 1681 3084 1819 3084 
Q 2600 3084 3056 2656 
Q 3513 2228 3513 1497 
Q 3513 744 3044 326 
Q 2575 -91 1722 -91 
Q 1428 -91 1123 -41 
Q 819 9 494 109 
L 494 744 
Q 775 591 1075 516 
Q 1375 441 1709 441 
Q 2250 441 2565 725 
Q 2881 1009 2881 1497 
Q 2881 1984 2565 2268 
Q 2250 2553 1709 2553 
Q 1456 2553 1204 2497 
Q 953 2441 691 2322 
L 691 4666 
z
" transform="scale(0.015625)"/>
       </defs>
       <use xlink:href="#DejaVuSans-35"/>
       <use xlink:href="#DejaVuSans-30" x="63.623047"/>
       <use xlink:href="#DejaVuSans-30" x="127.246094"/>
      </g>
     </g>
    </g>
    <g id="ytick_3">
     <g id="line2d_8">
      <g>
       <use xlink:href="#m92a3a2e9ae" x="93.08" y="357.27519" style="stroke: #000000; stroke-width: 0.8"/>
      </g>
     </g>
     <g id="text_9">
      <!-- 1000 -->
      <g transform="translate(35.18 364.873627) scale(0.2 -0.2)">
       <defs>
        <path id="DejaVuSans-31" d="M 794 531 
L 1825 531 
L 1825 4091 
L 703 3866 
L 703 4441 
L 1819 4666 
L 2450 4666 
L 2450 531 
L 3481 531 
L 3481 0 
L 794 0 
L 794 531 
z
" transform="scale(0.015625)"/>
       </defs>
       <use xlink:href="#DejaVuSans-31"/>
       <use xlink:href="#DejaVuSans-30" x="63.623047"/>
       <use xlink:href="#DejaVuSans-30" x="127.246094"/>
       <use xlink:href="#DejaVuSans-30" x="190.869141"/>
      </g>
     </g>
    </g>
    <g id="ytick_4">
     <g id="line2d_9">
      <g>
       <use xlink:href="#m92a3a2e9ae" x="93.08" y="292.122865" style="stroke: #000000; stroke-width: 0.8"/>
      </g>
     </g>
     <g id="text_10">
      <!-- 1500 -->
      <g transform="translate(35.18 299.721303) scale(0.2 -0.2)">
       <use xlink:href="#DejaVuSans-31"/>
       <use xlink:href="#DejaVuSans-35" x="63.623047"/>
       <use xlink:href="#DejaVuSans-30" x="127.246094"/>
       <use xlink:href="#DejaVuSans-30" x="190.869141"/>
      </g>
     </g>
    </g>
    <g id="ytick_5">
     <g id="line2d_10">
      <g>
       <use xlink:href="#m92a3a2e9ae" x="93.08" y="226.970541" style="stroke: #000000; stroke-width: 0.8"/>
      </g>
     </g>
     <g id="text_11">
      <!-- 2000 -->
      <g transform="translate(35.18 234.568978) scale(0.2 -0.2)">
       <use xlink:href="#DejaVuSans-32"/>
       <use xlink:href="#DejaVuSans-30" x="63.623047"/>
       <use xlink:href="#DejaVuSans-30" x="127.246094"/>
       <use xlink:href="#DejaVuSans-30" x="190.869141"/>
      </g>
     </g>
    </g>
    <g id="ytick_6">
     <g id="line2d_11">
      <g>
       <use xlink:href="#m92a3a2e9ae" x="93.08" y="161.818216" style="stroke: #000000; stroke-width: 0.8"/>
      </g>
     </g>
     <g id="text_12">
      <!-- 2500 -->
      <g transform="translate(35.18 169.416654) scale(0.2 -0.2)">
       <use xlink:href="#DejaVuSans-32"/>
       <use xlink:href="#DejaVuSans-35" x="63.623047"/>
       <use xlink:href="#DejaVuSans-30" x="127.246094"/>
       <use xlink:href="#DejaVuSans-30" x="190.869141"/>
      </g>
     </g>
    </g>
    <g id="ytick_7">
     <g id="line2d_12">
      <g>
       <use xlink:href="#m92a3a2e9ae" x="93.08" y="96.665892" style="stroke: #000000; stroke-width: 0.8"/>
      </g>
     </g>
     <g id="text_13">
      <!-- 3000 -->
      <g transform="translate(35.18 104.264329) scale(0.2 -0.2)">
       <defs>
        <path id="DejaVuSans-33" d="M 2597 2516 
Q 3050 2419 3304 2112 
Q 3559 1806 3559 1356 
Q 3559 666 3084 287 
Q 2609 -91 1734 -91 
Q 1441 -91 1130 -33 
Q 819 25 488 141 
L 488 750 
Q 750 597 1062 519 
Q 1375 441 1716 441 
Q 2309 441 2620 675 
Q 2931 909 2931 1356 
Q 2931 1769 2642 2001 
Q 2353 2234 1838 2234 
L 1294 2234 
L 1294 2753 
L 1863 2753 
Q 2328 2753 2575 2939 
Q 2822 3125 2822 3475 
Q 2822 3834 2567 4026 
Q 2313 4219 1838 4219 
Q 1578 4219 1281 4162 
Q 984 4106 628 3988 
L 628 4550 
Q 988 4650 1302 4700 
Q 1616 4750 1894 4750 
Q 2613 4750 3031 4423 
Q 3450 4097 3450 3541 
Q 3450 3153 3228 2886 
Q 3006 2619 2597 2516 
z
" transform="scale(0.015625)"/>
       </defs>
       <use xlink:href="#DejaVuSans-33"/>
       <use xlink:href="#DejaVuSans-30" x="63.623047"/>
       <use xlink:href="#DejaVuSans-30" x="127.246094"/>
       <use xlink:href="#DejaVuSans-30" x="190.869141"/>
      </g>
     </g>
    </g>
    <g id="ytick_8">
     <g id="line2d_13">
      <g>
       <use xlink:href="#m92a3a2e9ae" x="93.08" y="31.513567" style="stroke: #000000; stroke-width: 0.8"/>
      </g>
     </g>
     <g id="text_14">
      <!-- 3500 -->
      <g transform="translate(35.18 39.112005) scale(0.2 -0.2)">
       <use xlink:href="#DejaVuSans-33"/>
       <use xlink:href="#DejaVuSans-35" x="63.623047"/>
       <use xlink:href="#DejaVuSans-30" x="127.246094"/>
       <use xlink:href="#DejaVuSans-30" x="190.869141"/>
      </g>
     </g>
    </g>
    <g id="text_15">
     <!-- MSE -->
     <g transform="translate(27.020625 271.971313) rotate(-90) scale(0.2 -0.2)">
      <defs>
       <path id="DejaVuSans-4d" d="M 628 4666 
L 1569 4666 
L 2759 1491 
L 3956 4666 
L 4897 4666 
L 4897 0 
L 4281 0 
L 4281 4097 
L 3078 897 
L 2444 897 
L 1241 4097 
L 1241 0 
L 628 0 
L 628 4666 
z
" transform="scale(0.015625)"/>
       <path id="DejaVuSans-53" d="M 3425 4513 
L 3425 3897 
Q 3066 4069 2747 4153 
Q 2428 4238 2131 4238 
Q 1616 4238 1336 4038 
Q 1056 3838 1056 3469 
Q 1056 3159 1242 3001 
Q 1428 2844 1947 2747 
L 2328 2669 
Q 3034 2534 3370 2195 
Q 3706 1856 3706 1288 
Q 3706 609 3251 259 
Q 2797 -91 1919 -91 
Q 1588 -91 1214 -16 
Q 841 59 441 206 
L 441 856 
Q 825 641 1194 531 
Q 1563 422 1919 422 
Q 2459 422 2753 634 
Q 3047 847 3047 1241 
Q 3047 1584 2836 1778 
Q 2625 1972 2144 2069 
L 1759 2144 
Q 1053 2284 737 2584 
Q 422 2884 422 3419 
Q 422 4038 858 4394 
Q 1294 4750 2059 4750 
Q 2388 4750 2728 4690 
Q 3069 4631 3425 4513 
z
" transform="scale(0.015625)"/>
       <path id="DejaVuSans-45" d="M 628 4666 
L 3578 4666 
L 3578 4134 
L 1259 4134 
L 1259 2753 
L 3481 2753 
L 3481 2222 
L 1259 2222 
L 1259 531 
L 3634 531 
L 3634 0 
L 628 0 
L 628 4666 
z
" transform="scale(0.015625)"/>
      </defs>
      <use xlink:href="#DejaVuSans-4d"/>
      <use xlink:href="#DejaVuSans-53" x="86.279297"/>
      <use xlink:href="#DejaVuSans-45" x="149.755859"/>
     </g>
    </g>
   </g>
   <g id="line2d_14">
    <path d="M 140.721818 468.220733 
L 160.994932 466.920492 
L 181.268046 464.734732 
L 201.541161 461.172374 
L 221.814275 459.519148 
L 242.087389 455.635043 
L 262.360503 452.473465 
L 282.633617 449.263746 
L 302.906731 433.263319 
L 323.179845 433.863184 
L 343.452959 427.234741 
L 363.726074 427.001406 
L 383.999188 423.973204 
L 404.272302 416.83389 
L 424.545416 419.240706 
L 444.81853 411.137617 
L 465.091644 420.495757 
L 485.364758 412.258253 
L 505.637872 404.930821 
L 525.910986 408.164764 
L 546.184101 406.416758 
L 566.457215 401.915945 
L 586.730329 390.159141 
L 607.003443 383.491826 
L 627.276557 371.268022 
L 647.549671 308.624641 
L 667.822785 329.824812 
L 688.095899 279.723392 
L 708.369014 226.482534 
L 728.642128 252.221893 
L 748.915242 252.51748 
L 769.188356 214.409384 
L 789.46147 224.675386 
L 809.734584 239.805092 
L 830.007698 236.604996 
L 850.280812 234.616521 
L 870.553926 229.816335 
L 890.827041 214.019507 
L 911.100155 190.072903 
L 931.373269 191.603326 
L 951.646383 189.680138 
L 971.919497 193.145398 
L 992.192611 194.62233 
L 1012.465725 184.14718 
L 1032.738839 191.371922 
L 1053.011954 172.795636 
L 1073.285068 186.573389 
L 1093.558182 174.305278 
" clip-path="url(#p15b4d784d2)" style="fill: none; stroke: #1f77b4; stroke-width: 1.5; stroke-linecap: square"/>
   </g>
   <g id="line2d_15">
    <path d="M 140.721818 467.241475 
L 160.994932 465.623602 
L 181.268046 462.799435 
L 201.541161 458.497957 
L 221.814275 456.181307 
L 242.087389 453.365023 
L 262.360503 448.900732 
L 282.633617 444.676346 
L 302.906731 429.746649 
L 323.179845 419.648168 
L 343.452959 410.880641 
L 363.726074 416.441485 
L 383.999188 410.26989 
L 404.272302 398.300924 
L 424.545416 402.787204 
L 444.81853 395.449125 
L 465.091644 404.15783 
L 485.364758 397.045014 
L 505.637872 378.435518 
L 525.910986 382.320976 
L 546.184101 391.17332 
L 566.457215 369.720724 
L 586.730329 363.952561 
L 607.003443 374.552793 
L 627.276557 365.271903 
L 647.549671 319.139366 
L 667.822785 319.739067 
L 688.095899 256.796884 
L 708.369014 229.384891 
L 728.642128 252.423924 
L 748.915242 234.46439 
L 769.188356 194.567511 
L 789.46147 200.299645 
L 809.734584 228.279288 
L 830.007698 218.321541 
L 850.280812 219.779999 
L 870.553926 215.424943 
L 890.827041 189.981303 
L 911.100155 170.005564 
L 931.373269 181.256493 
L 951.646383 177.468979 
L 971.919497 180.443582 
L 992.192611 191.411119 
L 1012.465725 186.543873 
L 1032.738839 181.448997 
L 1053.011954 172.396363 
L 1073.285068 190.227458 
L 1093.558182 182.795222 
" clip-path="url(#p15b4d784d2)" style="fill: none; stroke: #ff7f0e; stroke-width: 1.5; stroke-linecap: square"/>
   </g>
   <g id="line2d_16">
    <path d="M 140.721818 467.004739 
L 160.994932 464.482024 
L 181.268046 462.602963 
L 201.541161 456.87837 
L 221.814275 455.672045 
L 242.087389 451.031891 
L 262.360503 447.188849 
L 282.633617 445.413505 
L 302.906731 424.615987 
L 323.179845 419.824583 
L 343.452959 414.015244 
L 363.726074 415.244821 
L 383.999188 411.108432 
L 404.272302 402.688293 
L 424.545416 405.701428 
L 444.81853 395.401058 
L 465.091644 404.592851 
L 485.364758 392.422758 
L 505.637872 383.522731 
L 525.910986 384.073468 
L 546.184101 388.04045 
L 566.457215 371.79758 
L 586.730329 363.633199 
L 607.003443 352.737472 
L 627.276557 354.783785 
L 647.549671 294.360172 
L 667.822785 314.292105 
L 688.095899 262.012959 
L 708.369014 216.117705 
L 728.642128 255.789883 
L 748.915242 217.486965 
L 769.188356 182.86704 
L 789.46147 191.965976 
L 809.734584 215.195422 
L 830.007698 209.697715 
L 850.280812 208.823692 
L 870.553926 202.336452 
L 890.827041 188.486302 
L 911.100155 169.108061 
L 931.373269 175.064784 
L 951.646383 168.937377 
L 971.919497 172.27885 
L 992.192611 190.189301 
L 1012.465725 180.98014 
L 1032.738839 178.684152 
L 1053.011954 162.895428 
L 1073.285068 172.19845 
L 1093.558182 160.929377 
" clip-path="url(#p15b4d784d2)" style="fill: none; stroke: #2ca02c; stroke-width: 1.5; stroke-linecap: square"/>
   </g>
   <g id="line2d_17"/>
   <g id="line2d_18"/>
   <g id="line2d_19"/>
   <g id="patch_3">
    <path d="M 93.08 490.552 
L 93.08 10.8 
" style="fill: none; stroke: #000000; stroke-width: 0.8; stroke-linejoin: miter; stroke-linecap: square"/>
   </g>
   <g id="patch_4">
    <path d="M 1141.2 490.552 
L 1141.2 10.8 
" style="fill: none; stroke: #000000; stroke-width: 0.8; stroke-linejoin: miter; stroke-linecap: square"/>
   </g>
   <g id="patch_5">
    <path d="M 93.08 490.552 
L 1141.2 490.552 
" style="fill: none; stroke: #000000; stroke-width: 0.8; stroke-linejoin: miter; stroke-linecap: square"/>
   </g>
   <g id="patch_6">
    <path d="M 93.08 10.8 
L 1141.2 10.8 
" style="fill: none; stroke: #000000; stroke-width: 0.8; stroke-linejoin: miter; stroke-linecap: square"/>
   </g>
   <g id="legend_1">
    <g id="patch_7">
     <path d="M 104.28 482.552 
L 185.265 482.552 
Q 188.465 482.552 188.465 479.352 
L 188.465 410.497 
Q 188.465 407.297 185.265 407.297 
L 104.28 407.297 
Q 101.08 407.297 101.08 410.497 
L 101.08 479.352 
Q 101.08 482.552 104.28 482.552 
z
" style="fill: #ffffff; opacity: 0.8; stroke: #cccccc; stroke-linejoin: miter"/>
    </g>
    <g id="line2d_20">
     <path d="M 107.48 420.2545 
L 123.48 420.2545 
L 139.48 420.2545 
" style="fill: none; stroke: #1f77b4; stroke-width: 1.5; stroke-linecap: square"/>
    </g>
    <g id="text_16">
     <!-- gbr -->
     <g transform="translate(152.28 425.8545) scale(0.16 -0.16)">
      <defs>
       <path id="DejaVuSans-62" d="M 3116 1747 
Q 3116 2381 2855 2742 
Q 2594 3103 2138 3103 
Q 1681 3103 1420 2742 
Q 1159 2381 1159 1747 
Q 1159 1113 1420 752 
Q 1681 391 2138 391 
Q 2594 391 2855 752 
Q 3116 1113 3116 1747 
z
M 1159 2969 
Q 1341 3281 1617 3432 
Q 1894 3584 2278 3584 
Q 2916 3584 3314 3078 
Q 3713 2572 3713 1747 
Q 3713 922 3314 415 
Q 2916 -91 2278 -91 
Q 1894 -91 1617 61 
Q 1341 213 1159 525 
L 1159 0 
L 581 0 
L 581 4863 
L 1159 4863 
L 1159 2969 
z
" transform="scale(0.015625)"/>
      </defs>
      <use xlink:href="#DejaVuSans-67"/>
      <use xlink:href="#DejaVuSans-62" x="63.476562"/>
      <use xlink:href="#DejaVuSans-72" x="126.953125"/>
     </g>
    </g>
    <g id="line2d_21">
     <path d="M 107.48 443.7395 
L 123.48 443.7395 
L 139.48 443.7395 
" style="fill: none; stroke: #ff7f0e; stroke-width: 1.5; stroke-linecap: square"/>
    </g>
    <g id="text_17">
     <!-- xgb -->
     <g transform="translate(152.28 449.3395) scale(0.16 -0.16)">
      <defs>
       <path id="DejaVuSans-78" d="M 3513 3500 
L 2247 1797 
L 3578 0 
L 2900 0 
L 1881 1375 
L 863 0 
L 184 0 
L 1544 1831 
L 300 3500 
L 978 3500 
L 1906 2253 
L 2834 3500 
L 3513 3500 
z
" transform="scale(0.015625)"/>
      </defs>
      <use xlink:href="#DejaVuSans-78"/>
      <use xlink:href="#DejaVuSans-67" x="59.179688"/>
      <use xlink:href="#DejaVuSans-62" x="122.65625"/>
     </g>
    </g>
    <g id="line2d_22">
     <path d="M 107.48 467.2245 
L 123.48 467.2245 
L 139.48 467.2245 
" style="fill: none; stroke: #2ca02c; stroke-width: 1.5; stroke-linecap: square"/>
    </g>
    <g id="text_18">
     <!-- rf -->
     <g transform="translate(152.28 472.8245) scale(0.16 -0.16)">
      <defs>
       <path id="DejaVuSans-66" d="M 2375 4863 
L 2375 4384 
L 1825 4384 
Q 1516 4384 1395 4259 
Q 1275 4134 1275 3809 
L 1275 3500 
L 2222 3500 
L 2222 3053 
L 1275 3053 
L 1275 0 
L 697 0 
L 697 3053 
L 147 3053 
L 147 3500 
L 697 3500 
L 697 3744 
Q 697 4328 969 4595 
Q 1241 4863 1831 4863 
L 2375 4863 
z
" transform="scale(0.015625)"/>
      </defs>
      <use xlink:href="#DejaVuSans-72"/>
      <use xlink:href="#DejaVuSans-66" x="41.113281"/>
     </g>
    </g>
   </g>
  </g>
 </g>
 <defs>
  <clipPath id="p15b4d784d2">
   <rect x="93.08" y="10.8" width="1048.12" height="479.752"/>
  </clipPath>
 </defs>
</svg>
