<?xml version="1.0" encoding="utf-8" standalone="no"?>
<!DOCTYPE svg PUBLIC "-//W3C//DTD SVG 1.1//EN"
  "http://www.w3.org/Graphics/SVG/1.1/DTD/svg11.dtd">
<svg xmlns:xlink="http://www.w3.org/1999/xlink" width="1152pt" height="576pt" viewBox="0 0 1152 576" xmlns="http://www.w3.org/2000/svg" version="1.1">
 <metadata>
  <rdf:RDF xmlns:dc="http://purl.org/dc/elements/1.1/" xmlns:cc="http://creativecommons.org/ns#" xmlns:rdf="http://www.w3.org/1999/02/22-rdf-syntax-ns#">
   <cc:Work>
    <dc:type rdf:resource="http://purl.org/dc/dcmitype/StillImage"/>
    <dc:date>2025-03-13T00:14:22.260412</dc:date>
    <dc:format>image/svg+xml</dc:format>
    <dc:creator>
     <cc:Agent>
      <dc:title>Matplotlib v3.9.2, https://matplotlib.org/</dc:title>
     </cc:Agent>
    </dc:creator>
   </cc:Work>
  </rdf:RDF>
 </metadata>
 <defs>
  <style type="text/css">*{stroke-linejoin: round; stroke-linecap: butt}</style>
 </defs>
 <g id="figure_1">
  <g id="patch_1">
   <path d="M 0 576 
L 1152 576 
L 1152 0 
L 0 0 
z
" style="fill: #ffffff"/>
  </g>
  <g id="axes_1">
   <g id="patch_2">
    <path d="M 86.6 490.552 
L 1141.2 490.552 
L 1141.2 10.8 
L 86.6 10.8 
z
" style="fill: #ffffff"/>
   </g>
   <g id="PolyCollection_1">
    <defs>
     <path id="m6660971a28" d="M 134.536364 -269.620642 
L 134.536364 -186.471791 
L 154.934816 -197.384919 
L 175.333269 -169.146207 
L 195.731721 -229.172004 
L 216.130174 -230.315697 
L 236.528627 -242.423479 
L 256.927079 -233.858384 
L 277.325532 -251.813807 
L 297.723985 -258.091759 
L 318.122437 -294.957727 
L 338.52089 -268.129205 
L 358.919342 -256.467868 
L 379.317795 -302.208386 
L 399.716248 -263.855659 
L 420.1147 -254.479538 
L 440.513153 -275.875878 
L 460.911605 -268.824556 
L 481.310058 -264.949261 
L 501.708511 -296.168943 
L 522.106963 -268.623821 
L 542.505416 -275.424958 
L 562.903868 -294.654143 
L 583.302321 -316.975521 
L 603.700774 -297.070289 
L 624.099226 -281.991971 
L 644.497679 -273.065139 
L 664.896132 -292.168112 
L 685.294584 -284.779471 
L 705.693037 -295.245077 
L 726.091489 -311.911854 
L 746.489942 -305.737028 
L 766.888395 -302.261253 
L 787.286847 -290.7716 
L 807.6853 -300.706533 
L 828.083752 -325.139636 
L 848.482205 -272.835691 
L 868.880658 -307.723554 
L 889.27911 -269.305979 
L 909.677563 -263.206539 
L 930.076015 -278.755034 
L 950.474468 -281.365866 
L 970.872921 -256.653662 
L 991.271373 -311.593281 
L 1011.669826 -303.609391 
L 1032.068279 -318.84002 
L 1052.466731 -274.379486 
L 1072.865184 -265.647462 
L 1093.263636 -272.639053 
L 1093.263636 -342.935006 
L 1093.263636 -342.935006 
L 1072.865184 -350.852375 
L 1052.466731 -352.329757 
L 1032.068279 -414.193054 
L 1011.669826 -362.172791 
L 991.271373 -402.798171 
L 970.872921 -357.379307 
L 950.474468 -344.110338 
L 930.076015 -347.627688 
L 909.677563 -356.430762 
L 889.27911 -333.249995 
L 868.880658 -387.451336 
L 848.482205 -348.545833 
L 828.083752 -358.555648 
L 807.6853 -392.119888 
L 787.286847 -411.846525 
L 766.888395 -393.809073 
L 746.489942 -391.722548 
L 726.091489 -421.213452 
L 705.693037 -336.85272 
L 685.294584 -371.818628 
L 664.896132 -366.927767 
L 644.497679 -329.381264 
L 624.099226 -340.699606 
L 603.700774 -347.3063 
L 583.302321 -360.138992 
L 562.903868 -345.330496 
L 542.505416 -426.775481 
L 522.106963 -324.952449 
L 501.708511 -359.115314 
L 481.310058 -343.111267 
L 460.911605 -369.261222 
L 440.513153 -364.355588 
L 420.1147 -353.926899 
L 399.716248 -350.836785 
L 379.317795 -368.882252 
L 358.919342 -364.497267 
L 338.52089 -317.661722 
L 318.122437 -375.149015 
L 297.723985 -342.335148 
L 277.325532 -341.679029 
L 256.927079 -334.617293 
L 236.528627 -321.932468 
L 216.130174 -271.917029 
L 195.731721 -278.072449 
L 175.333269 -215.988079 
L 154.934816 -244.902276 
L 134.536364 -269.620642 
z
" style="stroke: #1f77b4; stroke-opacity: 0.2"/>
    </defs>
    <g clip-path="url(#p65e9faabf9)">
     <use xlink:href="#m6660971a28" x="0" y="576" style="fill: #1f77b4; fill-opacity: 0.2; stroke: #1f77b4; stroke-opacity: 0.2"/>
    </g>
   </g>
   <g id="PolyCollection_2">
    <defs>
     <path id="m25d470bda5" d="M 134.536364 -274.020679 
L 134.536364 -218.048739 
L 154.934816 -172.928298 
L 175.333269 -148.372881 
L 195.731721 -247.115602 
L 216.130174 -276.938399 
L 236.528627 -246.074903 
L 256.927079 -235.383332 
L 277.325532 -245.371241 
L 297.723985 -280.978667 
L 318.122437 -299.856767 
L 338.52089 -309.739203 
L 358.919342 -301.482403 
L 379.317795 -315.517899 
L 399.716248 -295.225024 
L 420.1147 -290.925087 
L 440.513153 -311.436541 
L 460.911605 -310.576534 
L 481.310058 -313.727329 
L 501.708511 -344.986177 
L 522.106963 -297.727597 
L 542.505416 -313.799624 
L 562.903868 -321.128446 
L 583.302321 -323.609595 
L 603.700774 -278.949964 
L 624.099226 -327.400102 
L 644.497679 -307.941155 
L 664.896132 -328.725441 
L 685.294584 -329.702498 
L 705.693037 -336.036024 
L 726.091489 -305.084473 
L 746.489942 -326.313525 
L 766.888395 -322.904912 
L 787.286847 -298.63239 
L 807.6853 -317.148955 
L 828.083752 -306.796125 
L 848.482205 -360.547698 
L 868.880658 -351.237842 
L 889.27911 -304.226694 
L 909.677563 -328.27501 
L 930.076015 -327.786948 
L 950.474468 -275.545528 
L 970.872921 -325.082283 
L 991.271373 -333.8575 
L 1011.669826 -357.091555 
L 1032.068279 -347.24557 
L 1052.466731 -332.392036 
L 1072.865184 -316.013035 
L 1093.263636 -315.414831 
L 1093.263636 -390.404078 
L 1093.263636 -390.404078 
L 1072.865184 -429.785892 
L 1052.466731 -439.718795 
L 1032.068279 -463.386539 
L 1011.669826 -459.138274 
L 991.271373 -472.449854 
L 970.872921 -413.414931 
L 950.474468 -433.576813 
L 930.076015 -428.799803 
L 909.677563 -418.486952 
L 889.27911 -437.611568 
L 868.880658 -449.2353 
L 848.482205 -412.262744 
L 828.083752 -439.322014 
L 807.6853 -423.0421 
L 787.286847 -483.535766 
L 766.888395 -439.358277 
L 746.489942 -451.70815 
L 726.091489 -434.58765 
L 705.693037 -449.427612 
L 685.294584 -469.374909 
L 664.896132 -450.421904 
L 644.497679 -399.194941 
L 624.099226 -381.017319 
L 603.700774 -429.89639 
L 583.302321 -410.178128 
L 562.903868 -432.163474 
L 542.505416 -505.672068 
L 522.106963 -394.986167 
L 501.708511 -405.152473 
L 481.310058 -375.055286 
L 460.911605 -406.861773 
L 440.513153 -400.959423 
L 420.1147 -401.058786 
L 399.716248 -361.958775 
L 379.317795 -399.22866 
L 358.919342 -403.805057 
L 338.52089 -412.00899 
L 318.122437 -402.280372 
L 297.723985 -375.25095 
L 277.325532 -353.35151 
L 256.927079 -378.663341 
L 236.528627 -358.52211 
L 216.130174 -342.96636 
L 195.731721 -320.042767 
L 175.333269 -229.380819 
L 154.934816 -229.43267 
L 134.536364 -274.020679 
z
" style="stroke: #ff7f0e; stroke-opacity: 0.2"/>
    </defs>
    <g clip-path="url(#p65e9faabf9)">
     <use xlink:href="#m25d470bda5" x="0" y="576" style="fill: #ff7f0e; fill-opacity: 0.2; stroke: #ff7f0e; stroke-opacity: 0.2"/>
    </g>
   </g>
   <g id="PolyCollection_3">
    <defs>
     <path id="m7111f47fe8" d="M 134.536364 -279.134669 
L 134.536364 -156.191123 
L 154.934816 -122.7049 
L 175.333269 -107.254909 
L 195.731721 -161.621237 
L 216.130174 -170.420885 
L 236.528627 -241.922874 
L 256.927079 -198.2602 
L 277.325532 -213.942302 
L 297.723985 -270.340329 
L 318.122437 -272.945901 
L 338.52089 -275.069932 
L 358.919342 -272.551769 
L 379.317795 -320.880141 
L 399.716248 -259.239393 
L 420.1147 -258.349 
L 440.513153 -290.346957 
L 460.911605 -297.368078 
L 481.310058 -247.118843 
L 501.708511 -288.716373 
L 522.106963 -326.202562 
L 542.505416 -300.710911 
L 562.903868 -283.503647 
L 583.302321 -239.845884 
L 603.700774 -305.358562 
L 624.099226 -332.530599 
L 644.497679 -292.074244 
L 664.896132 -372.999067 
L 685.294584 -341.557921 
L 705.693037 -278.00568 
L 726.091489 -298.600862 
L 746.489942 -291.789956 
L 766.888395 -303.302448 
L 787.286847 -325.09722 
L 807.6853 -284.097139 
L 828.083752 -305.72696 
L 848.482205 -342.882054 
L 868.880658 -303.930586 
L 889.27911 -305.068777 
L 909.677563 -282.428393 
L 930.076015 -290.661731 
L 950.474468 -288.679977 
L 970.872921 -315.517322 
L 991.271373 -286.776137 
L 1011.669826 -310.695313 
L 1032.068279 -309.939219 
L 1052.466731 -307.502116 
L 1072.865184 -303.854736 
L 1093.263636 -323.969629 
L 1093.263636 -455.674997 
L 1093.263636 -455.674997 
L 1072.865184 -378.06371 
L 1052.466731 -482.655704 
L 1032.068279 -472.706588 
L 1011.669826 -469.511576 
L 991.271373 -543.393091 
L 970.872921 -399.094636 
L 950.474468 -396.858861 
L 930.076015 -465.278462 
L 909.677563 -450.627318 
L 889.27911 -485.043211 
L 868.880658 -439.987993 
L 848.482205 -404.158444 
L 828.083752 -447.20832 
L 807.6853 -425.369944 
L 787.286847 -488.982524 
L 766.888395 -405.050816 
L 746.489942 -421.046468 
L 726.091489 -515.852124 
L 705.693037 -440.053222 
L 685.294584 -533.119672 
L 664.896132 -483.154632 
L 644.497679 -369.741951 
L 624.099226 -446.872709 
L 603.700774 -451.747806 
L 583.302321 -393.45463 
L 562.903868 -399.103154 
L 542.505416 -539.681273 
L 522.106963 -520.800341 
L 501.708511 -365.684014 
L 481.310058 -355.144899 
L 460.911605 -464.439754 
L 440.513153 -492.470003 
L 420.1147 -438.598699 
L 399.716248 -347.319951 
L 379.317795 -454.330698 
L 358.919342 -452.637688 
L 338.52089 -410.868424 
L 318.122437 -485.855659 
L 297.723985 -391.128084 
L 277.325532 -380.804309 
L 256.927079 -389.126444 
L 236.528627 -380.023814 
L 216.130174 -265.91602 
L 195.731721 -268.919921 
L 175.333269 -264.704306 
L 154.934816 -250.780667 
L 134.536364 -279.134669 
z
" style="stroke: #2ca02c; stroke-opacity: 0.2"/>
    </defs>
    <g clip-path="url(#p65e9faabf9)">
     <use xlink:href="#m7111f47fe8" x="0" y="576" style="fill: #2ca02c; fill-opacity: 0.2; stroke: #2ca02c; stroke-opacity: 0.2"/>
    </g>
   </g>
   <g id="matplotlib.axis_1">
    <g id="xtick_1">
     <g id="line2d_1">
      <defs>
       <path id="m99c463558b" d="M 0 0 
L 0 3.5 
" style="stroke: #000000; stroke-width: 0.8"/>
      </defs>
      <g>
       <use xlink:href="#m99c463558b" x="124.337137" y="490.552" style="stroke: #000000; stroke-width: 0.8"/>
      </g>
     </g>
     <g id="text_1">
      <!-- 0 -->
      <g transform="translate(117.974637 512.748875) scale(0.2 -0.2)">
       <defs>
        <path id="DejaVuSans-30" d="M 2034 4250 
Q 1547 4250 1301 3770 
Q 1056 3291 1056 2328 
Q 1056 1369 1301 889 
Q 1547 409 2034 409 
Q 2525 409 2770 889 
Q 3016 1369 3016 2328 
Q 3016 3291 2770 3770 
Q 2525 4250 2034 4250 
z
M 2034 4750 
Q 2819 4750 3233 4129 
Q 3647 3509 3647 2328 
Q 3647 1150 3233 529 
Q 2819 -91 2034 -91 
Q 1250 -91 836 529 
Q 422 1150 422 2328 
Q 422 3509 836 4129 
Q 1250 4750 2034 4750 
z
" transform="scale(0.015625)"/>
       </defs>
       <use xlink:href="#DejaVuSans-30"/>
      </g>
     </g>
    </g>
    <g id="xtick_2">
     <g id="line2d_2">
      <g>
       <use xlink:href="#m99c463558b" x="328.321663" y="490.552" style="stroke: #000000; stroke-width: 0.8"/>
      </g>
     </g>
     <g id="text_2">
      <!-- 20 -->
      <g transform="translate(315.596663 512.748875) scale(0.2 -0.2)">
       <defs>
        <path id="DejaVuSans-32" d="M 1228 531 
L 3431 531 
L 3431 0 
L 469 0 
L 469 531 
Q 828 903 1448 1529 
Q 2069 2156 2228 2338 
Q 2531 2678 2651 2914 
Q 2772 3150 2772 3378 
Q 2772 3750 2511 3984 
Q 2250 4219 1831 4219 
Q 1534 4219 1204 4116 
Q 875 4013 500 3803 
L 500 4441 
Q 881 4594 1212 4672 
Q 1544 4750 1819 4750 
Q 2544 4750 2975 4387 
Q 3406 4025 3406 3419 
Q 3406 3131 3298 2873 
Q 3191 2616 2906 2266 
Q 2828 2175 2409 1742 
Q 1991 1309 1228 531 
z
" transform="scale(0.015625)"/>
       </defs>
       <use xlink:href="#DejaVuSans-32"/>
       <use xlink:href="#DejaVuSans-30" x="63.623047"/>
      </g>
     </g>
    </g>
    <g id="xtick_3">
     <g id="line2d_3">
      <g>
       <use xlink:href="#m99c463558b" x="532.30619" y="490.552" style="stroke: #000000; stroke-width: 0.8"/>
      </g>
     </g>
     <g id="text_3">
      <!-- 40 -->
      <g transform="translate(519.58119 512.748875) scale(0.2 -0.2)">
       <defs>
        <path id="DejaVuSans-34" d="M 2419 4116 
L 825 1625 
L 2419 1625 
L 2419 4116 
z
M 2253 4666 
L 3047 4666 
L 3047 1625 
L 3713 1625 
L 3713 1100 
L 3047 1100 
L 3047 0 
L 2419 0 
L 2419 1100 
L 313 1100 
L 313 1709 
L 2253 4666 
z
" transform="scale(0.015625)"/>
       </defs>
       <use xlink:href="#DejaVuSans-34"/>
       <use xlink:href="#DejaVuSans-30" x="63.623047"/>
      </g>
     </g>
    </g>
    <g id="xtick_4">
     <g id="line2d_4">
      <g>
       <use xlink:href="#m99c463558b" x="736.290716" y="490.552" style="stroke: #000000; stroke-width: 0.8"/>
      </g>
     </g>
     <g id="text_4">
      <!-- 60 -->
      <g transform="translate(723.565716 512.748875) scale(0.2 -0.2)">
       <defs>
        <path id="DejaVuSans-36" d="M 2113 2584 
Q 1688 2584 1439 2293 
Q 1191 2003 1191 1497 
Q 1191 994 1439 701 
Q 1688 409 2113 409 
Q 2538 409 2786 701 
Q 3034 994 3034 1497 
Q 3034 2003 2786 2293 
Q 2538 2584 2113 2584 
z
M 3366 4563 
L 3366 3988 
Q 3128 4100 2886 4159 
Q 2644 4219 2406 4219 
Q 1781 4219 1451 3797 
Q 1122 3375 1075 2522 
Q 1259 2794 1537 2939 
Q 1816 3084 2150 3084 
Q 2853 3084 3261 2657 
Q 3669 2231 3669 1497 
Q 3669 778 3244 343 
Q 2819 -91 2113 -91 
Q 1303 -91 875 529 
Q 447 1150 447 2328 
Q 447 3434 972 4092 
Q 1497 4750 2381 4750 
Q 2619 4750 2861 4703 
Q 3103 4656 3366 4563 
z
" transform="scale(0.015625)"/>
       </defs>
       <use xlink:href="#DejaVuSans-36"/>
       <use xlink:href="#DejaVuSans-30" x="63.623047"/>
      </g>
     </g>
    </g>
    <g id="xtick_5">
     <g id="line2d_5">
      <g>
       <use xlink:href="#m99c463558b" x="940.275242" y="490.552" style="stroke: #000000; stroke-width: 0.8"/>
      </g>
     </g>
     <g id="text_5">
      <!-- 80 -->
      <g transform="translate(927.550242 512.748875) scale(0.2 -0.2)">
       <defs>
        <path id="DejaVuSans-38" d="M 2034 2216 
Q 1584 2216 1326 1975 
Q 1069 1734 1069 1313 
Q 1069 891 1326 650 
Q 1584 409 2034 409 
Q 2484 409 2743 651 
Q 3003 894 3003 1313 
Q 3003 1734 2745 1975 
Q 2488 2216 2034 2216 
z
M 1403 2484 
Q 997 2584 770 2862 
Q 544 3141 544 3541 
Q 544 4100 942 4425 
Q 1341 4750 2034 4750 
Q 2731 4750 3128 4425 
Q 3525 4100 3525 3541 
Q 3525 3141 3298 2862 
Q 3072 2584 2669 2484 
Q 3125 2378 3379 2068 
Q 3634 1759 3634 1313 
Q 3634 634 3220 271 
Q 2806 -91 2034 -91 
Q 1263 -91 848 271 
Q 434 634 434 1313 
Q 434 1759 690 2068 
Q 947 2378 1403 2484 
z
M 1172 3481 
Q 1172 3119 1398 2916 
Q 1625 2713 2034 2713 
Q 2441 2713 2670 2916 
Q 2900 3119 2900 3481 
Q 2900 3844 2670 4047 
Q 2441 4250 2034 4250 
Q 1625 4250 1398 4047 
Q 1172 3844 1172 3481 
z
" transform="scale(0.015625)"/>
       </defs>
       <use xlink:href="#DejaVuSans-38"/>
       <use xlink:href="#DejaVuSans-30" x="63.623047"/>
      </g>
     </g>
    </g>
    <g id="text_6">
     <!-- Percentile Threshold -->
     <g transform="translate(512.120313 536.105125) scale(0.2 -0.2)">
      <defs>
       <path id="DejaVuSans-50" d="M 1259 4147 
L 1259 2394 
L 2053 2394 
Q 2494 2394 2734 2622 
Q 2975 2850 2975 3272 
Q 2975 3691 2734 3919 
Q 2494 4147 2053 4147 
L 1259 4147 
z
M 628 4666 
L 2053 4666 
Q 2838 4666 3239 4311 
Q 3641 3956 3641 3272 
Q 3641 2581 3239 2228 
Q 2838 1875 2053 1875 
L 1259 1875 
L 1259 0 
L 628 0 
L 628 4666 
z
" transform="scale(0.015625)"/>
       <path id="DejaVuSans-65" d="M 3597 1894 
L 3597 1613 
L 953 1613 
Q 991 1019 1311 708 
Q 1631 397 2203 397 
Q 2534 397 2845 478 
Q 3156 559 3463 722 
L 3463 178 
Q 3153 47 2828 -22 
Q 2503 -91 2169 -91 
Q 1331 -91 842 396 
Q 353 884 353 1716 
Q 353 2575 817 3079 
Q 1281 3584 2069 3584 
Q 2775 3584 3186 3129 
Q 3597 2675 3597 1894 
z
M 3022 2063 
Q 3016 2534 2758 2815 
Q 2500 3097 2075 3097 
Q 1594 3097 1305 2825 
Q 1016 2553 972 2059 
L 3022 2063 
z
" transform="scale(0.015625)"/>
       <path id="DejaVuSans-72" d="M 2631 2963 
Q 2534 3019 2420 3045 
Q 2306 3072 2169 3072 
Q 1681 3072 1420 2755 
Q 1159 2438 1159 1844 
L 1159 0 
L 581 0 
L 581 3500 
L 1159 3500 
L 1159 2956 
Q 1341 3275 1631 3429 
Q 1922 3584 2338 3584 
Q 2397 3584 2469 3576 
Q 2541 3569 2628 3553 
L 2631 2963 
z
" transform="scale(0.015625)"/>
       <path id="DejaVuSans-63" d="M 3122 3366 
L 3122 2828 
Q 2878 2963 2633 3030 
Q 2388 3097 2138 3097 
Q 1578 3097 1268 2742 
Q 959 2388 959 1747 
Q 959 1106 1268 751 
Q 1578 397 2138 397 
Q 2388 397 2633 464 
Q 2878 531 3122 666 
L 3122 134 
Q 2881 22 2623 -34 
Q 2366 -91 2075 -91 
Q 1284 -91 818 406 
Q 353 903 353 1747 
Q 353 2603 823 3093 
Q 1294 3584 2113 3584 
Q 2378 3584 2631 3529 
Q 2884 3475 3122 3366 
z
" transform="scale(0.015625)"/>
       <path id="DejaVuSans-6e" d="M 3513 2113 
L 3513 0 
L 2938 0 
L 2938 2094 
Q 2938 2591 2744 2837 
Q 2550 3084 2163 3084 
Q 1697 3084 1428 2787 
Q 1159 2491 1159 1978 
L 1159 0 
L 581 0 
L 581 3500 
L 1159 3500 
L 1159 2956 
Q 1366 3272 1645 3428 
Q 1925 3584 2291 3584 
Q 2894 3584 3203 3211 
Q 3513 2838 3513 2113 
z
" transform="scale(0.015625)"/>
       <path id="DejaVuSans-74" d="M 1172 4494 
L 1172 3500 
L 2356 3500 
L 2356 3053 
L 1172 3053 
L 1172 1153 
Q 1172 725 1289 603 
Q 1406 481 1766 481 
L 2356 481 
L 2356 0 
L 1766 0 
Q 1100 0 847 248 
Q 594 497 594 1153 
L 594 3053 
L 172 3053 
L 172 3500 
L 594 3500 
L 594 4494 
L 1172 4494 
z
" transform="scale(0.015625)"/>
       <path id="DejaVuSans-69" d="M 603 3500 
L 1178 3500 
L 1178 0 
L 603 0 
L 603 3500 
z
M 603 4863 
L 1178 4863 
L 1178 4134 
L 603 4134 
L 603 4863 
z
" transform="scale(0.015625)"/>
       <path id="DejaVuSans-6c" d="M 603 4863 
L 1178 4863 
L 1178 0 
L 603 0 
L 603 4863 
z
" transform="scale(0.015625)"/>
       <path id="DejaVuSans-20" transform="scale(0.015625)"/>
       <path id="DejaVuSans-54" d="M -19 4666 
L 3928 4666 
L 3928 4134 
L 2272 4134 
L 2272 0 
L 1638 0 
L 1638 4134 
L -19 4134 
L -19 4666 
z
" transform="scale(0.015625)"/>
       <path id="DejaVuSans-68" d="M 3513 2113 
L 3513 0 
L 2938 0 
L 2938 2094 
Q 2938 2591 2744 2837 
Q 2550 3084 2163 3084 
Q 1697 3084 1428 2787 
Q 1159 2491 1159 1978 
L 1159 0 
L 581 0 
L 581 4863 
L 1159 4863 
L 1159 2956 
Q 1366 3272 1645 3428 
Q 1925 3584 2291 3584 
Q 2894 3584 3203 3211 
Q 3513 2838 3513 2113 
z
" transform="scale(0.015625)"/>
       <path id="DejaVuSans-73" d="M 2834 3397 
L 2834 2853 
Q 2591 2978 2328 3040 
Q 2066 3103 1784 3103 
Q 1356 3103 1142 2972 
Q 928 2841 928 2578 
Q 928 2378 1081 2264 
Q 1234 2150 1697 2047 
L 1894 2003 
Q 2506 1872 2764 1633 
Q 3022 1394 3022 966 
Q 3022 478 2636 193 
Q 2250 -91 1575 -91 
Q 1294 -91 989 -36 
Q 684 19 347 128 
L 347 722 
Q 666 556 975 473 
Q 1284 391 1588 391 
Q 1994 391 2212 530 
Q 2431 669 2431 922 
Q 2431 1156 2273 1281 
Q 2116 1406 1581 1522 
L 1381 1569 
Q 847 1681 609 1914 
Q 372 2147 372 2553 
Q 372 3047 722 3315 
Q 1072 3584 1716 3584 
Q 2034 3584 2315 3537 
Q 2597 3491 2834 3397 
z
" transform="scale(0.015625)"/>
       <path id="DejaVuSans-6f" d="M 1959 3097 
Q 1497 3097 1228 2736 
Q 959 2375 959 1747 
Q 959 1119 1226 758 
Q 1494 397 1959 397 
Q 2419 397 2687 759 
Q 2956 1122 2956 1747 
Q 2956 2369 2687 2733 
Q 2419 3097 1959 3097 
z
M 1959 3584 
Q 2709 3584 3137 3096 
Q 3566 2609 3566 1747 
Q 3566 888 3137 398 
Q 2709 -91 1959 -91 
Q 1206 -91 779 398 
Q 353 888 353 1747 
Q 353 2609 779 3096 
Q 1206 3584 1959 3584 
z
" transform="scale(0.015625)"/>
       <path id="DejaVuSans-64" d="M 2906 2969 
L 2906 4863 
L 3481 4863 
L 3481 0 
L 2906 0 
L 2906 525 
Q 2725 213 2448 61 
Q 2172 -91 1784 -91 
Q 1150 -91 751 415 
Q 353 922 353 1747 
Q 353 2572 751 3078 
Q 1150 3584 1784 3584 
Q 2172 3584 2448 3432 
Q 2725 3281 2906 2969 
z
M 947 1747 
Q 947 1113 1208 752 
Q 1469 391 1925 391 
Q 2381 391 2643 752 
Q 2906 1113 2906 1747 
Q 2906 2381 2643 2742 
Q 2381 3103 1925 3103 
Q 1469 3103 1208 2742 
Q 947 2381 947 1747 
z
" transform="scale(0.015625)"/>
      </defs>
      <use xlink:href="#DejaVuSans-50"/>
      <use xlink:href="#DejaVuSans-65" x="56.677734"/>
      <use xlink:href="#DejaVuSans-72" x="118.201172"/>
      <use xlink:href="#DejaVuSans-63" x="157.064453"/>
      <use xlink:href="#DejaVuSans-65" x="212.044922"/>
      <use xlink:href="#DejaVuSans-6e" x="273.568359"/>
      <use xlink:href="#DejaVuSans-74" x="336.947266"/>
      <use xlink:href="#DejaVuSans-69" x="376.15625"/>
      <use xlink:href="#DejaVuSans-6c" x="403.939453"/>
      <use xlink:href="#DejaVuSans-65" x="431.722656"/>
      <use xlink:href="#DejaVuSans-20" x="493.246094"/>
      <use xlink:href="#DejaVuSans-54" x="525.033203"/>
      <use xlink:href="#DejaVuSans-68" x="586.117188"/>
      <use xlink:href="#DejaVuSans-72" x="649.496094"/>
      <use xlink:href="#DejaVuSans-65" x="688.359375"/>
      <use xlink:href="#DejaVuSans-73" x="749.882812"/>
      <use xlink:href="#DejaVuSans-68" x="801.982422"/>
      <use xlink:href="#DejaVuSans-6f" x="865.361328"/>
      <use xlink:href="#DejaVuSans-6c" x="926.542969"/>
      <use xlink:href="#DejaVuSans-64" x="954.326172"/>
     </g>
     <!-- (Using "random" Threshold Handling) -->
     <g transform="translate(426.732813 558.50075) scale(0.2 -0.2)">
      <defs>
       <path id="DejaVuSans-28" d="M 1984 4856 
Q 1566 4138 1362 3434 
Q 1159 2731 1159 2009 
Q 1159 1288 1364 580 
Q 1569 -128 1984 -844 
L 1484 -844 
Q 1016 -109 783 600 
Q 550 1309 550 2009 
Q 550 2706 781 3412 
Q 1013 4119 1484 4856 
L 1984 4856 
z
" transform="scale(0.015625)"/>
       <path id="DejaVuSans-55" d="M 556 4666 
L 1191 4666 
L 1191 1831 
Q 1191 1081 1462 751 
Q 1734 422 2344 422 
Q 2950 422 3222 751 
Q 3494 1081 3494 1831 
L 3494 4666 
L 4128 4666 
L 4128 1753 
Q 4128 841 3676 375 
Q 3225 -91 2344 -91 
Q 1459 -91 1007 375 
Q 556 841 556 1753 
L 556 4666 
z
" transform="scale(0.015625)"/>
       <path id="DejaVuSans-67" d="M 2906 1791 
Q 2906 2416 2648 2759 
Q 2391 3103 1925 3103 
Q 1463 3103 1205 2759 
Q 947 2416 947 1791 
Q 947 1169 1205 825 
Q 1463 481 1925 481 
Q 2391 481 2648 825 
Q 2906 1169 2906 1791 
z
M 3481 434 
Q 3481 -459 3084 -895 
Q 2688 -1331 1869 -1331 
Q 1566 -1331 1297 -1286 
Q 1028 -1241 775 -1147 
L 775 -588 
Q 1028 -725 1275 -790 
Q 1522 -856 1778 -856 
Q 2344 -856 2625 -561 
Q 2906 -266 2906 331 
L 2906 616 
Q 2728 306 2450 153 
Q 2172 0 1784 0 
Q 1141 0 747 490 
Q 353 981 353 1791 
Q 353 2603 747 3093 
Q 1141 3584 1784 3584 
Q 2172 3584 2450 3431 
Q 2728 3278 2906 2969 
L 2906 3500 
L 3481 3500 
L 3481 434 
z
" transform="scale(0.015625)"/>
       <path id="DejaVuSans-22" d="M 1147 4666 
L 1147 2931 
L 616 2931 
L 616 4666 
L 1147 4666 
z
M 2328 4666 
L 2328 2931 
L 1797 2931 
L 1797 4666 
L 2328 4666 
z
" transform="scale(0.015625)"/>
       <path id="DejaVuSans-61" d="M 2194 1759 
Q 1497 1759 1228 1600 
Q 959 1441 959 1056 
Q 959 750 1161 570 
Q 1363 391 1709 391 
Q 2188 391 2477 730 
Q 2766 1069 2766 1631 
L 2766 1759 
L 2194 1759 
z
M 3341 1997 
L 3341 0 
L 2766 0 
L 2766 531 
Q 2569 213 2275 61 
Q 1981 -91 1556 -91 
Q 1019 -91 701 211 
Q 384 513 384 1019 
Q 384 1609 779 1909 
Q 1175 2209 1959 2209 
L 2766 2209 
L 2766 2266 
Q 2766 2663 2505 2880 
Q 2244 3097 1772 3097 
Q 1472 3097 1187 3025 
Q 903 2953 641 2809 
L 641 3341 
Q 956 3463 1253 3523 
Q 1550 3584 1831 3584 
Q 2591 3584 2966 3190 
Q 3341 2797 3341 1997 
z
" transform="scale(0.015625)"/>
       <path id="DejaVuSans-6d" d="M 3328 2828 
Q 3544 3216 3844 3400 
Q 4144 3584 4550 3584 
Q 5097 3584 5394 3201 
Q 5691 2819 5691 2113 
L 5691 0 
L 5113 0 
L 5113 2094 
Q 5113 2597 4934 2840 
Q 4756 3084 4391 3084 
Q 3944 3084 3684 2787 
Q 3425 2491 3425 1978 
L 3425 0 
L 2847 0 
L 2847 2094 
Q 2847 2600 2669 2842 
Q 2491 3084 2119 3084 
Q 1678 3084 1418 2786 
Q 1159 2488 1159 1978 
L 1159 0 
L 581 0 
L 581 3500 
L 1159 3500 
L 1159 2956 
Q 1356 3278 1631 3431 
Q 1906 3584 2284 3584 
Q 2666 3584 2933 3390 
Q 3200 3197 3328 2828 
z
" transform="scale(0.015625)"/>
       <path id="DejaVuSans-48" d="M 628 4666 
L 1259 4666 
L 1259 2753 
L 3553 2753 
L 3553 4666 
L 4184 4666 
L 4184 0 
L 3553 0 
L 3553 2222 
L 1259 2222 
L 1259 0 
L 628 0 
L 628 4666 
z
" transform="scale(0.015625)"/>
       <path id="DejaVuSans-29" d="M 513 4856 
L 1013 4856 
Q 1481 4119 1714 3412 
Q 1947 2706 1947 2009 
Q 1947 1309 1714 600 
Q 1481 -109 1013 -844 
L 513 -844 
Q 928 -128 1133 580 
Q 1338 1288 1338 2009 
Q 1338 2731 1133 3434 
Q 928 4138 513 4856 
z
" transform="scale(0.015625)"/>
      </defs>
      <use xlink:href="#DejaVuSans-28"/>
      <use xlink:href="#DejaVuSans-55" x="39.013672"/>
      <use xlink:href="#DejaVuSans-73" x="112.207031"/>
      <use xlink:href="#DejaVuSans-69" x="164.306641"/>
      <use xlink:href="#DejaVuSans-6e" x="192.089844"/>
      <use xlink:href="#DejaVuSans-67" x="255.46875"/>
      <use xlink:href="#DejaVuSans-20" x="318.945312"/>
      <use xlink:href="#DejaVuSans-22" x="350.732422"/>
      <use xlink:href="#DejaVuSans-72" x="396.728516"/>
      <use xlink:href="#DejaVuSans-61" x="437.841797"/>
      <use xlink:href="#DejaVuSans-6e" x="499.121094"/>
      <use xlink:href="#DejaVuSans-64" x="562.5"/>
      <use xlink:href="#DejaVuSans-6f" x="625.976562"/>
      <use xlink:href="#DejaVuSans-6d" x="687.158203"/>
      <use xlink:href="#DejaVuSans-22" x="784.570312"/>
      <use xlink:href="#DejaVuSans-20" x="830.566406"/>
      <use xlink:href="#DejaVuSans-54" x="862.353516"/>
      <use xlink:href="#DejaVuSans-68" x="923.4375"/>
      <use xlink:href="#DejaVuSans-72" x="986.816406"/>
      <use xlink:href="#DejaVuSans-65" x="1025.679688"/>
      <use xlink:href="#DejaVuSans-73" x="1087.203125"/>
      <use xlink:href="#DejaVuSans-68" x="1139.302734"/>
      <use xlink:href="#DejaVuSans-6f" x="1202.681641"/>
      <use xlink:href="#DejaVuSans-6c" x="1263.863281"/>
      <use xlink:href="#DejaVuSans-64" x="1291.646484"/>
      <use xlink:href="#DejaVuSans-20" x="1355.123047"/>
      <use xlink:href="#DejaVuSans-48" x="1386.910156"/>
      <use xlink:href="#DejaVuSans-61" x="1462.105469"/>
      <use xlink:href="#DejaVuSans-6e" x="1523.384766"/>
      <use xlink:href="#DejaVuSans-64" x="1586.763672"/>
      <use xlink:href="#DejaVuSans-6c" x="1650.240234"/>
      <use xlink:href="#DejaVuSans-69" x="1678.023438"/>
      <use xlink:href="#DejaVuSans-6e" x="1705.806641"/>
      <use xlink:href="#DejaVuSans-67" x="1769.185547"/>
      <use xlink:href="#DejaVuSans-29" x="1832.662109"/>
     </g>
    </g>
   </g>
   <g id="matplotlib.axis_2">
    <g id="ytick_1">
     <g id="line2d_6">
      <defs>
       <path id="m413a281d4d" d="M 0 0 
L -3.5 0 
" style="stroke: #000000; stroke-width: 0.8"/>
      </defs>
      <g>
       <use xlink:href="#m413a281d4d" x="86.6" y="411.515247" style="stroke: #000000; stroke-width: 0.8"/>
      </g>
     </g>
     <g id="text_7">
      <!-- 11.5 -->
      <g transform="translate(35.06875 419.113685) scale(0.2 -0.2)">
       <defs>
        <path id="DejaVuSans-31" d="M 794 531 
L 1825 531 
L 1825 4091 
L 703 3866 
L 703 4441 
L 1819 4666 
L 2450 4666 
L 2450 531 
L 3481 531 
L 3481 0 
L 794 0 
L 794 531 
z
" transform="scale(0.015625)"/>
        <path id="DejaVuSans-2e" d="M 684 794 
L 1344 794 
L 1344 0 
L 684 0 
L 684 794 
z
" transform="scale(0.015625)"/>
        <path id="DejaVuSans-35" d="M 691 4666 
L 3169 4666 
L 3169 4134 
L 1269 4134 
L 1269 2991 
Q 1406 3038 1543 3061 
Q 1681 3084 1819 3084 
Q 2600 3084 3056 2656 
Q 3513 2228 3513 1497 
Q 3513 744 3044 326 
Q 2575 -91 1722 -91 
Q 1428 -91 1123 -41 
Q 819 9 494 109 
L 494 744 
Q 775 591 1075 516 
Q 1375 441 1709 441 
Q 2250 441 2565 725 
Q 2881 1009 2881 1497 
Q 2881 1984 2565 2268 
Q 2250 2553 1709 2553 
Q 1456 2553 1204 2497 
Q 953 2441 691 2322 
L 691 4666 
z
" transform="scale(0.015625)"/>
       </defs>
       <use xlink:href="#DejaVuSans-31"/>
       <use xlink:href="#DejaVuSans-31" x="63.623047"/>
       <use xlink:href="#DejaVuSans-2e" x="127.246094"/>
       <use xlink:href="#DejaVuSans-35" x="159.033203"/>
      </g>
     </g>
    </g>
    <g id="ytick_2">
     <g id="line2d_7">
      <g>
       <use xlink:href="#m413a281d4d" x="86.6" y="327.035636" style="stroke: #000000; stroke-width: 0.8"/>
      </g>
     </g>
     <g id="text_8">
      <!-- 12.0 -->
      <g transform="translate(35.06875 334.634074) scale(0.2 -0.2)">
       <use xlink:href="#DejaVuSans-31"/>
       <use xlink:href="#DejaVuSans-32" x="63.623047"/>
       <use xlink:href="#DejaVuSans-2e" x="127.246094"/>
       <use xlink:href="#DejaVuSans-30" x="159.033203"/>
      </g>
     </g>
    </g>
    <g id="ytick_3">
     <g id="line2d_8">
      <g>
       <use xlink:href="#m413a281d4d" x="86.6" y="242.556025" style="stroke: #000000; stroke-width: 0.8"/>
      </g>
     </g>
     <g id="text_9">
      <!-- 12.5 -->
      <g transform="translate(35.06875 250.154463) scale(0.2 -0.2)">
       <use xlink:href="#DejaVuSans-31"/>
       <use xlink:href="#DejaVuSans-32" x="63.623047"/>
       <use xlink:href="#DejaVuSans-2e" x="127.246094"/>
       <use xlink:href="#DejaVuSans-35" x="159.033203"/>
      </g>
     </g>
    </g>
    <g id="ytick_4">
     <g id="line2d_9">
      <g>
       <use xlink:href="#m413a281d4d" x="86.6" y="158.076414" style="stroke: #000000; stroke-width: 0.8"/>
      </g>
     </g>
     <g id="text_10">
      <!-- 13.0 -->
      <g transform="translate(35.06875 165.674852) scale(0.2 -0.2)">
       <defs>
        <path id="DejaVuSans-33" d="M 2597 2516 
Q 3050 2419 3304 2112 
Q 3559 1806 3559 1356 
Q 3559 666 3084 287 
Q 2609 -91 1734 -91 
Q 1441 -91 1130 -33 
Q 819 25 488 141 
L 488 750 
Q 750 597 1062 519 
Q 1375 441 1716 441 
Q 2309 441 2620 675 
Q 2931 909 2931 1356 
Q 2931 1769 2642 2001 
Q 2353 2234 1838 2234 
L 1294 2234 
L 1294 2753 
L 1863 2753 
Q 2328 2753 2575 2939 
Q 2822 3125 2822 3475 
Q 2822 3834 2567 4026 
Q 2313 4219 1838 4219 
Q 1578 4219 1281 4162 
Q 984 4106 628 3988 
L 628 4550 
Q 988 4650 1302 4700 
Q 1616 4750 1894 4750 
Q 2613 4750 3031 4423 
Q 3450 4097 3450 3541 
Q 3450 3153 3228 2886 
Q 3006 2619 2597 2516 
z
" transform="scale(0.015625)"/>
       </defs>
       <use xlink:href="#DejaVuSans-31"/>
       <use xlink:href="#DejaVuSans-33" x="63.623047"/>
       <use xlink:href="#DejaVuSans-2e" x="127.246094"/>
       <use xlink:href="#DejaVuSans-30" x="159.033203"/>
      </g>
     </g>
    </g>
    <g id="ytick_5">
     <g id="line2d_10">
      <g>
       <use xlink:href="#m413a281d4d" x="86.6" y="73.596803" style="stroke: #000000; stroke-width: 0.8"/>
      </g>
     </g>
     <g id="text_11">
      <!-- 13.5 -->
      <g transform="translate(35.06875 81.195241) scale(0.2 -0.2)">
       <use xlink:href="#DejaVuSans-31"/>
       <use xlink:href="#DejaVuSans-33" x="63.623047"/>
       <use xlink:href="#DejaVuSans-2e" x="127.246094"/>
       <use xlink:href="#DejaVuSans-35" x="159.033203"/>
      </g>
     </g>
    </g>
    <g id="text_12">
     <!-- RMSE -->
     <g transform="translate(26.909375 278.91975) rotate(-90) scale(0.2 -0.2)">
      <defs>
       <path id="DejaVuSans-52" d="M 2841 2188 
Q 3044 2119 3236 1894 
Q 3428 1669 3622 1275 
L 4263 0 
L 3584 0 
L 2988 1197 
Q 2756 1666 2539 1819 
Q 2322 1972 1947 1972 
L 1259 1972 
L 1259 0 
L 628 0 
L 628 4666 
L 2053 4666 
Q 2853 4666 3247 4331 
Q 3641 3997 3641 3322 
Q 3641 2881 3436 2590 
Q 3231 2300 2841 2188 
z
M 1259 4147 
L 1259 2491 
L 2053 2491 
Q 2509 2491 2742 2702 
Q 2975 2913 2975 3322 
Q 2975 3731 2742 3939 
Q 2509 4147 2053 4147 
L 1259 4147 
z
" transform="scale(0.015625)"/>
       <path id="DejaVuSans-4d" d="M 628 4666 
L 1569 4666 
L 2759 1491 
L 3956 4666 
L 4897 4666 
L 4897 0 
L 4281 0 
L 4281 4097 
L 3078 897 
L 2444 897 
L 1241 4097 
L 1241 0 
L 628 0 
L 628 4666 
z
" transform="scale(0.015625)"/>
       <path id="DejaVuSans-53" d="M 3425 4513 
L 3425 3897 
Q 3066 4069 2747 4153 
Q 2428 4238 2131 4238 
Q 1616 4238 1336 4038 
Q 1056 3838 1056 3469 
Q 1056 3159 1242 3001 
Q 1428 2844 1947 2747 
L 2328 2669 
Q 3034 2534 3370 2195 
Q 3706 1856 3706 1288 
Q 3706 609 3251 259 
Q 2797 -91 1919 -91 
Q 1588 -91 1214 -16 
Q 841 59 441 206 
L 441 856 
Q 825 641 1194 531 
Q 1563 422 1919 422 
Q 2459 422 2753 634 
Q 3047 847 3047 1241 
Q 3047 1584 2836 1778 
Q 2625 1972 2144 2069 
L 1759 2144 
Q 1053 2284 737 2584 
Q 422 2884 422 3419 
Q 422 4038 858 4394 
Q 1294 4750 2059 4750 
Q 2388 4750 2728 4690 
Q 3069 4631 3425 4513 
z
" transform="scale(0.015625)"/>
       <path id="DejaVuSans-45" d="M 628 4666 
L 3578 4666 
L 3578 4134 
L 1259 4134 
L 1259 2753 
L 3481 2753 
L 3481 2222 
L 1259 2222 
L 1259 531 
L 3634 531 
L 3634 0 
L 628 0 
L 628 4666 
z
" transform="scale(0.015625)"/>
      </defs>
      <use xlink:href="#DejaVuSans-52"/>
      <use xlink:href="#DejaVuSans-4d" x="69.482422"/>
      <use xlink:href="#DejaVuSans-53" x="155.761719"/>
      <use xlink:href="#DejaVuSans-45" x="219.238281"/>
     </g>
    </g>
   </g>
   <g id="line2d_11">
    <path d="M 134.536364 347.60841 
L 154.934816 354.338291 
L 175.333269 384.817897 
L 195.731721 319.998161 
L 216.130174 320.828941 
L 236.528627 292.852593 
L 256.927079 295.729482 
L 277.325532 278.589933 
L 297.723985 270.77266 
L 318.122437 248.167066 
L 338.52089 283.489699 
L 358.919342 259.395061 
L 379.317795 240.560498 
L 399.716248 269.468125 
L 420.1147 268.322781 
L 440.513153 259.011655 
L 460.911605 263.495289 
L 481.310058 270.005799 
L 501.708511 245.877845 
L 522.106963 285.740108 
L 542.505416 231.332082 
L 562.903868 257.17391 
L 583.302321 239.786696 
L 603.700774 255.25244 
L 624.099226 259.57712 
L 644.497679 274.390218 
L 664.896132 247.987293 
L 685.294584 250.430138 
L 705.693037 257.620576 
L 726.091489 210.888622 
L 746.489942 227.614789 
L 766.888395 234.519665 
L 787.286847 230.117648 
L 807.6853 231.278796 
L 828.083752 230.983069 
L 848.482205 270.322434 
L 868.880658 227.680182 
L 889.27911 274.722013 
L 909.677563 266.737279 
L 930.076015 261.389012 
L 950.474468 263.059119 
L 970.872921 268.719333 
L 991.271373 221.453905 
L 1011.669826 241.963643 
L 1032.068279 213.055354 
L 1052.466731 262.277143 
L 1072.865184 269.389784 
L 1093.263636 267.45698 
" clip-path="url(#p65e9faabf9)" style="fill: none; stroke: #1f77b4; stroke-width: 1.5; stroke-linecap: square"/>
   </g>
   <g id="line2d_12">
    <path d="M 134.536364 331.777913 
L 154.934816 374.485726 
L 175.333269 386.889022 
L 195.731721 296.112128 
L 216.130174 267.288492 
L 236.528627 277.924733 
L 256.927079 271.698978 
L 277.325532 269.51878 
L 297.723985 245.7973 
L 318.122437 224.954305 
L 338.52089 220.246129 
L 358.919342 218.088982 
L 379.317795 216.337199 
L 399.716248 245.056683 
L 420.1147 229.149273 
L 440.513153 223.467442 
L 460.911605 216.502728 
L 481.310058 226.402346 
L 501.708511 201.791175 
L 522.106963 240.68513 
L 542.505416 180.65771 
L 562.903868 202.309058 
L 583.302321 214.79573 
L 603.700774 225.459016 
L 624.099226 221.195957 
L 644.497679 222.431952 
L 664.896132 193.769908 
L 685.294584 180.674237 
L 705.693037 185.743707 
L 726.091489 204.956747 
L 746.489942 187.622586 
L 766.888395 201.008884 
L 787.286847 182.060214 
L 807.6853 201.219193 
L 828.083752 202.509886 
L 848.482205 190.774267 
L 868.880658 179.401185 
L 889.27911 206.172227 
L 909.677563 214.259041 
L 930.076015 195.237949 
L 950.474468 219.862297 
L 970.872921 210.819662 
L 991.271373 175.158495 
L 1011.669826 167.559594 
L 1032.068279 172.398638 
L 1052.466731 194.432487 
L 1072.865184 208.57288 
L 1093.263636 220.649247 
" clip-path="url(#p65e9faabf9)" style="fill: none; stroke: #ff7f0e; stroke-width: 1.5; stroke-linecap: square"/>
   </g>
   <g id="line2d_13">
    <path d="M 134.536364 356.697178 
L 154.934816 381.381052 
L 175.333269 390.357776 
L 195.731721 359.372948 
L 216.130174 355.796779 
L 236.528627 268.854389 
L 256.927079 290.184119 
L 277.325532 276.642568 
L 297.723985 250.051816 
L 318.122437 199.713631 
L 338.52089 237.07284 
L 358.919342 204.616924 
L 379.317795 194.908351 
L 399.716248 268.684131 
L 420.1147 230.223358 
L 440.513153 191.089222 
L 460.911605 195.096084 
L 481.310058 270.577706 
L 501.708511 244.266768 
L 522.106963 165.727747 
L 542.505416 167.185483 
L 562.903868 238.456571 
L 583.302321 261.161321 
L 603.700774 203.248379 
L 624.099226 183.30715 
L 644.497679 244.915643 
L 664.896132 146.838126 
L 685.294584 148.254502 
L 705.693037 230.253855 
L 726.091489 182.718521 
L 746.489942 218.487567 
L 766.888395 225.059156 
L 787.286847 181.498729 
L 807.6853 210.589279 
L 828.083752 201.054094 
L 848.482205 204.053144 
L 868.880658 204.123863 
L 889.27911 177.316237 
L 909.677563 220.528006 
L 930.076015 196.448433 
L 950.474468 232.113295 
L 970.872921 218.398654 
L 991.271373 161.692974 
L 1011.669826 186.919729 
L 1032.068279 188.484115 
L 1052.466731 190.461395 
L 1072.865184 234.856153 
L 1093.263636 189.157862 
" clip-path="url(#p65e9faabf9)" style="fill: none; stroke: #2ca02c; stroke-width: 1.5; stroke-linecap: square"/>
   </g>
   <g id="line2d_14"/>
   <g id="line2d_15"/>
   <g id="line2d_16"/>
   <g id="patch_3">
    <path d="M 86.6 490.552 
L 86.6 10.8 
" style="fill: none; stroke: #000000; stroke-width: 0.8; stroke-linejoin: miter; stroke-linecap: square"/>
   </g>
   <g id="patch_4">
    <path d="M 1141.2 490.552 
L 1141.2 10.8 
" style="fill: none; stroke: #000000; stroke-width: 0.8; stroke-linejoin: miter; stroke-linecap: square"/>
   </g>
   <g id="patch_5">
    <path d="M 86.6 490.552 
L 1141.2 490.552 
" style="fill: none; stroke: #000000; stroke-width: 0.8; stroke-linejoin: miter; stroke-linecap: square"/>
   </g>
   <g id="patch_6">
    <path d="M 86.6 10.8 
L 1141.2 10.8 
" style="fill: none; stroke: #000000; stroke-width: 0.8; stroke-linejoin: miter; stroke-linecap: square"/>
   </g>
   <g id="legend_1">
    <g id="patch_7">
     <path d="M 97.8 482.552 
L 178.785 482.552 
Q 181.985 482.552 181.985 479.352 
L 181.985 410.497 
Q 181.985 407.297 178.785 407.297 
L 97.8 407.297 
Q 94.6 407.297 94.6 410.497 
L 94.6 479.352 
Q 94.6 482.552 97.8 482.552 
z
" style="fill: #ffffff; opacity: 0.8; stroke: #cccccc; stroke-linejoin: miter"/>
    </g>
    <g id="line2d_17">
     <path d="M 101 420.2545 
L 117 420.2545 
L 133 420.2545 
" style="fill: none; stroke: #1f77b4; stroke-width: 1.5; stroke-linecap: square"/>
    </g>
    <g id="text_13">
     <!-- gbr -->
     <g transform="translate(145.8 425.8545) scale(0.16 -0.16)">
      <defs>
       <path id="DejaVuSans-62" d="M 3116 1747 
Q 3116 2381 2855 2742 
Q 2594 3103 2138 3103 
Q 1681 3103 1420 2742 
Q 1159 2381 1159 1747 
Q 1159 1113 1420 752 
Q 1681 391 2138 391 
Q 2594 391 2855 752 
Q 3116 1113 3116 1747 
z
M 1159 2969 
Q 1341 3281 1617 3432 
Q 1894 3584 2278 3584 
Q 2916 3584 3314 3078 
Q 3713 2572 3713 1747 
Q 3713 922 3314 415 
Q 2916 -91 2278 -91 
Q 1894 -91 1617 61 
Q 1341 213 1159 525 
L 1159 0 
L 581 0 
L 581 4863 
L 1159 4863 
L 1159 2969 
z
" transform="scale(0.015625)"/>
      </defs>
      <use xlink:href="#DejaVuSans-67"/>
      <use xlink:href="#DejaVuSans-62" x="63.476562"/>
      <use xlink:href="#DejaVuSans-72" x="126.953125"/>
     </g>
    </g>
    <g id="line2d_18">
     <path d="M 101 443.7395 
L 117 443.7395 
L 133 443.7395 
" style="fill: none; stroke: #ff7f0e; stroke-width: 1.5; stroke-linecap: square"/>
    </g>
    <g id="text_14">
     <!-- rf -->
     <g transform="translate(145.8 449.3395) scale(0.16 -0.16)">
      <defs>
       <path id="DejaVuSans-66" d="M 2375 4863 
L 2375 4384 
L 1825 4384 
Q 1516 4384 1395 4259 
Q 1275 4134 1275 3809 
L 1275 3500 
L 2222 3500 
L 2222 3053 
L 1275 3053 
L 1275 0 
L 697 0 
L 697 3053 
L 147 3053 
L 147 3500 
L 697 3500 
L 697 3744 
Q 697 4328 969 4595 
Q 1241 4863 1831 4863 
L 2375 4863 
z
" transform="scale(0.015625)"/>
      </defs>
      <use xlink:href="#DejaVuSans-72"/>
      <use xlink:href="#DejaVuSans-66" x="41.113281"/>
     </g>
    </g>
    <g id="line2d_19">
     <path d="M 101 467.2245 
L 117 467.2245 
L 133 467.2245 
" style="fill: none; stroke: #2ca02c; stroke-width: 1.5; stroke-linecap: square"/>
    </g>
    <g id="text_15">
     <!-- xgb -->
     <g transform="translate(145.8 472.8245) scale(0.16 -0.16)">
      <defs>
       <path id="DejaVuSans-78" d="M 3513 3500 
L 2247 1797 
L 3578 0 
L 2900 0 
L 1881 1375 
L 863 0 
L 184 0 
L 1544 1831 
L 300 3500 
L 978 3500 
L 1906 2253 
L 2834 3500 
L 3513 3500 
z
" transform="scale(0.015625)"/>
      </defs>
      <use xlink:href="#DejaVuSans-78"/>
      <use xlink:href="#DejaVuSans-67" x="59.179688"/>
      <use xlink:href="#DejaVuSans-62" x="122.65625"/>
     </g>
    </g>
   </g>
  </g>
 </g>
 <defs>
  <clipPath id="p65e9faabf9">
   <rect x="86.6" y="10.8" width="1054.6" height="479.752"/>
  </clipPath>
 </defs>
</svg>
