<?xml version="1.0" encoding="UTF-8" standalone="no"?>
<!DOCTYPE svg PUBLIC "-//W3C//DTD SVG 1.1//EN"
 "http://www.w3.org/Graphics/SVG/1.1/DTD/svg11.dtd">
<!-- Generated by graphviz version 10.0.1 (20240210.2158)
 -->
<!-- Pages: 1 -->
<svg width="1038pt" height="279pt"
 viewBox="0.00 0.00 1038.28 278.50" xmlns="http://www.w3.org/2000/svg" xmlns:xlink="http://www.w3.org/1999/xlink">
<g id="graph0" class="graph" transform="scale(1 1) rotate(0) translate(4 274.5)">
<polygon fill="white" stroke="none" points="-4,4 -4,-274.5 1034.28,-274.5 1034.28,4 -4,4"/>
<!-- 0 -->
<g id="node1" class="node">
<title>0</title>
<path fill="#fdf4d9" stroke="#fbe9b1" stroke-width="2" d="M493.22,-270.5C493.22,-270.5 463.22,-270.5 463.22,-270.5 457.22,-270.5 451.22,-264.5 451.22,-258.5 451.22,-258.5 451.22,-246.5 451.22,-246.5 451.22,-240.5 457.22,-234.5 463.22,-234.5 463.22,-234.5 493.22,-234.5 493.22,-234.5 499.22,-234.5 505.22,-240.5 505.22,-246.5 505.22,-246.5 505.22,-258.5 505.22,-258.5 505.22,-264.5 499.22,-270.5 493.22,-270.5"/>
<text text-anchor="middle" x="478.22" y="-249.38" font-family="Century Gothic" font-size="10.00">p286_R</text>
</g>
<!-- 1 -->
<g id="node2" class="node">
<title>1</title>
<path fill="#fdf4d9" stroke="#fbe9b1" stroke-width="2" d="M366.22,-182C366.22,-182 336.22,-182 336.22,-182 330.22,-182 324.22,-176 324.22,-170 324.22,-170 324.22,-158 324.22,-158 324.22,-152 330.22,-146 336.22,-146 336.22,-146 366.22,-146 366.22,-146 372.22,-146 378.22,-152 378.22,-158 378.22,-158 378.22,-170 378.22,-170 378.22,-176 372.22,-182 366.22,-182"/>
<text text-anchor="middle" x="351.22" y="-160.88" font-family="Century Gothic" font-size="10.00">p319_Q</text>
</g>
<!-- 0&#45;&gt;1 -->
<g id="edge1" class="edge">
<title>0&#45;&gt;1</title>
<path fill="none" stroke="#14bdeb" d="M451.91,-233.58C433.09,-220.76 407.55,-203.36 386.9,-189.3"/>
<polygon fill="#14bdeb" stroke="#14bdeb" points="388.99,-186.49 378.75,-183.75 385.05,-192.27 388.99,-186.49"/>
<text text-anchor="middle" x="437.47" y="-203.2" font-family="Century Gothic" font-size="14.00">yes</text>
</g>
<!-- 2 -->
<g id="node3" class="node">
<title>2</title>
<path fill="#fdf4d9" stroke="#fbe9b1" stroke-width="2" d="M654.22,-182C654.22,-182 624.22,-182 624.22,-182 618.22,-182 612.22,-176 612.22,-170 612.22,-170 612.22,-158 612.22,-158 612.22,-152 618.22,-146 624.22,-146 624.22,-146 654.22,-146 654.22,-146 660.22,-146 666.22,-152 666.22,-158 666.22,-158 666.22,-170 666.22,-170 666.22,-176 660.22,-182 654.22,-182"/>
<text text-anchor="middle" x="639.22" y="-160.88" font-family="Century Gothic" font-size="10.00">p265_Y</text>
</g>
<!-- 0&#45;&gt;2 -->
<g id="edge2" class="edge">
<title>0&#45;&gt;2</title>
<path fill="none" stroke="#f4562a" d="M505.9,-236.63C532.28,-222.46 572.21,-201.01 601.49,-185.27"/>
<polygon fill="#f4562a" stroke="#f4562a" points="602.88,-188.5 610.03,-180.68 599.57,-182.33 602.88,-188.5"/>
<text text-anchor="middle" x="582.22" y="-203.2" font-family="Century Gothic" font-size="14.00">no</text>
</g>
<!-- 3 -->
<g id="node4" class="node">
<title>3</title>
<path fill="#fdf4d9" stroke="#fbe9b1" stroke-width="2" d="M205.22,-109C205.22,-109 175.22,-109 175.22,-109 169.22,-109 163.22,-103 163.22,-97 163.22,-97 163.22,-85 163.22,-85 163.22,-79 169.22,-73 175.22,-73 175.22,-73 205.22,-73 205.22,-73 211.22,-73 217.22,-79 217.22,-85 217.22,-85 217.22,-97 217.22,-97 217.22,-103 211.22,-109 205.22,-109"/>
<text text-anchor="middle" x="190.22" y="-87.88" font-family="Century Gothic" font-size="10.00">p279_R</text>
</g>
<!-- 1&#45;&gt;3 -->
<g id="edge3" class="edge">
<title>1&#45;&gt;3</title>
<path fill="none" stroke="#14bdeb" d="M323.54,-150.79C297.28,-139.21 257.58,-121.71 228.33,-108.81"/>
<polygon fill="#14bdeb" stroke="#14bdeb" points="230.02,-105.73 219.46,-104.89 227.2,-112.13 230.02,-105.73"/>
</g>
<!-- 4 -->
<g id="node5" class="node">
<title>4</title>
<path fill="#fdf4d9" stroke="#fbe9b1" stroke-width="2" d="M366.22,-109C366.22,-109 336.22,-109 336.22,-109 330.22,-109 324.22,-103 324.22,-97 324.22,-97 324.22,-85 324.22,-85 324.22,-79 330.22,-73 336.22,-73 336.22,-73 366.22,-73 366.22,-73 372.22,-73 378.22,-79 378.22,-85 378.22,-85 378.22,-97 378.22,-97 378.22,-103 372.22,-109 366.22,-109"/>
<text text-anchor="middle" x="351.22" y="-87.88" font-family="Century Gothic" font-size="10.00">p181_H</text>
</g>
<!-- 1&#45;&gt;4 -->
<g id="edge4" class="edge">
<title>1&#45;&gt;4</title>
<path fill="none" stroke="#f4562a" d="M351.22,-145.08C351.22,-137.8 351.22,-129.19 351.22,-121.05"/>
<polygon fill="#f4562a" stroke="#f4562a" points="354.72,-121.18 351.22,-111.18 347.72,-121.18 354.72,-121.18"/>
</g>
<!-- 5 -->
<g id="node10" class="node">
<title>5</title>
<path fill="#fdf4d9" stroke="#fbe9b1" stroke-width="2" d="M654.22,-109C654.22,-109 624.22,-109 624.22,-109 618.22,-109 612.22,-103 612.22,-97 612.22,-97 612.22,-85 612.22,-85 612.22,-79 618.22,-73 624.22,-73 624.22,-73 654.22,-73 654.22,-73 660.22,-73 666.22,-79 666.22,-85 666.22,-85 666.22,-97 666.22,-97 666.22,-103 660.22,-109 654.22,-109"/>
<text text-anchor="middle" x="639.22" y="-87.88" font-family="Century Gothic" font-size="10.00">p168_S</text>
</g>
<!-- 2&#45;&gt;5 -->
<g id="edge9" class="edge">
<title>2&#45;&gt;5</title>
<path fill="none" stroke="#14bdeb" d="M639.22,-145.08C639.22,-137.8 639.22,-129.19 639.22,-121.05"/>
<polygon fill="#14bdeb" stroke="#14bdeb" points="642.72,-121.18 639.22,-111.18 635.72,-121.18 642.72,-121.18"/>
</g>
<!-- 6 -->
<g id="node11" class="node">
<title>6</title>
<path fill="#fdf4d9" stroke="#fbe9b1" stroke-width="2" d="M856.22,-109C856.22,-109 826.22,-109 826.22,-109 820.22,-109 814.22,-103 814.22,-97 814.22,-97 814.22,-85 814.22,-85 814.22,-79 820.22,-73 826.22,-73 826.22,-73 856.22,-73 856.22,-73 862.22,-73 868.22,-79 868.22,-85 868.22,-85 868.22,-97 868.22,-97 868.22,-103 862.22,-109 856.22,-109"/>
<text text-anchor="middle" x="841.22" y="-87.88" font-family="Century Gothic" font-size="10.00">p86_F</text>
</g>
<!-- 2&#45;&gt;6 -->
<g id="edge10" class="edge">
<title>2&#45;&gt;6</title>
<path fill="none" stroke="#f4562a" d="M666.88,-153.28C701.97,-140.94 762.67,-119.61 802.39,-105.65"/>
<polygon fill="#f4562a" stroke="#f4562a" points="803.54,-108.95 811.81,-102.34 801.22,-102.35 803.54,-108.95"/>
</g>
<!-- 7 -->
<g id="node6" class="node">
<title>7</title>
<ellipse fill="#ddfbd2" stroke="#b8f6a2" stroke-width="2" cx="55.22" cy="-18" rx="55.22" ry="18"/>
<text text-anchor="middle" x="55.22" y="-14.88" font-family="Century Gothic" font-size="10.00">leaf=3.20340133</text>
</g>
<!-- 3&#45;&gt;7 -->
<g id="edge5" class="edge">
<title>3&#45;&gt;7</title>
<path fill="none" stroke="#14bdeb" d="M162.25,-75.29C142.51,-64.91 115.82,-50.87 94.03,-39.41"/>
<polygon fill="#14bdeb" stroke="#14bdeb" points="95.91,-36.44 85.43,-34.89 92.65,-42.64 95.91,-36.44"/>
</g>
<!-- 8 -->
<g id="node7" class="node">
<title>8</title>
<ellipse fill="#ddfbd2" stroke="#b8f6a2" stroke-width="2" cx="190.22" cy="-18" rx="61.65" ry="18"/>
<text text-anchor="middle" x="190.22" y="-14.88" font-family="Century Gothic" font-size="10.00">leaf=0.0448505282</text>
</g>
<!-- 3&#45;&gt;8 -->
<g id="edge6" class="edge">
<title>3&#45;&gt;8</title>
<path fill="none" stroke="#f4562a" d="M190.22,-72.08C190.22,-64.8 190.22,-56.19 190.22,-48.05"/>
<polygon fill="#f4562a" stroke="#f4562a" points="193.72,-48.18 190.22,-38.18 186.72,-48.18 193.72,-48.18"/>
</g>
<!-- 9 -->
<g id="node8" class="node">
<title>9</title>
<ellipse fill="#ddfbd2" stroke="#b8f6a2" stroke-width="2" cx="325.22" cy="-18" rx="55.22" ry="18"/>
<text text-anchor="middle" x="325.22" y="-14.88" font-family="Century Gothic" font-size="10.00">leaf=5.40764999</text>
</g>
<!-- 4&#45;&gt;9 -->
<g id="edge7" class="edge">
<title>4&#45;&gt;9</title>
<path fill="none" stroke="#14bdeb" d="M344.66,-72.08C341.9,-64.54 338.62,-55.59 335.55,-47.2"/>
<polygon fill="#14bdeb" stroke="#14bdeb" points="338.94,-46.27 332.21,-38.09 332.36,-48.68 338.94,-46.27"/>
</g>
<!-- 10 -->
<g id="node9" class="node">
<title>10</title>
<ellipse fill="#ddfbd2" stroke="#b8f6a2" stroke-width="2" cx="453.22" cy="-18" rx="55.22" ry="18"/>
<text text-anchor="middle" x="453.22" y="-14.88" font-family="Century Gothic" font-size="10.00">leaf=8.17333126</text>
</g>
<!-- 4&#45;&gt;10 -->
<g id="edge8" class="edge">
<title>4&#45;&gt;10</title>
<path fill="none" stroke="#f4562a" d="M376.96,-72.08C390.19,-62.87 406.46,-51.55 420.57,-41.72"/>
<polygon fill="#f4562a" stroke="#f4562a" points="422.48,-44.66 428.69,-36.08 418.48,-38.92 422.48,-44.66"/>
</g>
<!-- 11 -->
<g id="node12" class="node">
<title>11</title>
<ellipse fill="#ddfbd2" stroke="#b8f6a2" stroke-width="2" cx="580.22" cy="-18" rx="53.84" ry="18"/>
<text text-anchor="middle" x="580.22" y="-14.88" font-family="Century Gothic" font-size="10.00">leaf=&#45;4.1848712</text>
</g>
<!-- 5&#45;&gt;11 -->
<g id="edge11" class="edge">
<title>5&#45;&gt;11</title>
<path fill="none" stroke="#14bdeb" d="M624.33,-72.08C617.47,-63.83 609.2,-53.87 601.68,-44.82"/>
<polygon fill="#14bdeb" stroke="#14bdeb" points="604.54,-42.79 595.46,-37.34 599.16,-47.27 604.54,-42.79"/>
</g>
<!-- 12 -->
<g id="node13" class="node">
<title>12</title>
<ellipse fill="#ddfbd2" stroke="#b8f6a2" stroke-width="2" cx="709.22" cy="-18" rx="57.06" ry="18"/>
<text text-anchor="middle" x="709.22" y="-14.88" font-family="Century Gothic" font-size="10.00">leaf=&#45;1.82612193</text>
</g>
<!-- 5&#45;&gt;12 -->
<g id="edge12" class="edge">
<title>5&#45;&gt;12</title>
<path fill="none" stroke="#f4562a" d="M656.88,-72.08C665.32,-63.53 675.55,-53.15 684.72,-43.85"/>
<polygon fill="#f4562a" stroke="#f4562a" points="687.17,-46.35 691.7,-36.77 682.19,-41.43 687.17,-46.35"/>
</g>
<!-- 13 -->
<g id="node14" class="node">
<title>13</title>
<ellipse fill="#ddfbd2" stroke="#b8f6a2" stroke-width="2" cx="841.22" cy="-18" rx="57.06" ry="18"/>
<text text-anchor="middle" x="841.22" y="-14.88" font-family="Century Gothic" font-size="10.00">leaf=&#45;6.87158728</text>
</g>
<!-- 6&#45;&gt;13 -->
<g id="edge13" class="edge">
<title>6&#45;&gt;13</title>
<path fill="none" stroke="#14bdeb" d="M841.22,-72.08C841.22,-64.8 841.22,-56.19 841.22,-48.05"/>
<polygon fill="#14bdeb" stroke="#14bdeb" points="844.72,-48.18 841.22,-38.18 837.72,-48.18 844.72,-48.18"/>
</g>
<!-- 14 -->
<g id="node15" class="node">
<title>14</title>
<ellipse fill="#ddfbd2" stroke="#b8f6a2" stroke-width="2" cx="973.22" cy="-18" rx="57.06" ry="18"/>
<text text-anchor="middle" x="973.22" y="-14.88" font-family="Century Gothic" font-size="10.00">leaf=&#45;9.91885567</text>
</g>
<!-- 6&#45;&gt;14 -->
<g id="edge14" class="edge">
<title>6&#45;&gt;14</title>
<path fill="none" stroke="#f4562a" d="M869.21,-74.94C888.34,-64.66 913.91,-50.9 934.92,-39.6"/>
<polygon fill="#f4562a" stroke="#f4562a" points="936.33,-42.82 943.48,-35 933.01,-36.65 936.33,-42.82"/>
</g>
</g>
</svg>
