<?xml version="1.0" encoding="UTF-8" standalone="no"?>
<!DOCTYPE svg PUBLIC "-//W3C//DTD SVG 1.1//EN"
 "http://www.w3.org/Graphics/SVG/1.1/DTD/svg11.dtd">
<!-- Generated by graphviz version 10.0.1 (20240210.2158)
 -->
<!-- Pages: 1 -->
<svg width="2210pt" height="425pt"
 viewBox="0.00 0.00 2209.73 424.50" xmlns="http://www.w3.org/2000/svg" xmlns:xlink="http://www.w3.org/1999/xlink">
<g id="graph0" class="graph" transform="scale(1 1) rotate(0) translate(4 420.5)">
<polygon fill="white" stroke="none" points="-4,4 -4,-420.5 2205.73,-420.5 2205.73,4 -4,4"/>
<!-- 0 -->
<g id="node1" class="node">
<title>0</title>
<path fill="#fdf4d9" stroke="#fbe9b1" stroke-width="2" d="M1102.2,-416.5C1102.2,-416.5 1045.7,-416.5 1045.7,-416.5 1039.7,-416.5 1033.7,-410.5 1033.7,-404.5 1033.7,-404.5 1033.7,-392.5 1033.7,-392.5 1033.7,-386.5 1039.7,-380.5 1045.7,-380.5 1045.7,-380.5 1102.2,-380.5 1102.2,-380.5 1108.2,-380.5 1114.2,-386.5 1114.2,-392.5 1114.2,-392.5 1114.2,-404.5 1114.2,-404.5 1114.2,-410.5 1108.2,-416.5 1102.2,-416.5"/>
<text text-anchor="middle" x="1073.95" y="-395.38" font-family="Century Gothic" font-size="10.00">p286_H2&lt;1.00</text>
</g>
<!-- 1 -->
<g id="node2" class="node">
<title>1</title>
<path fill="#fdf4d9" stroke="#fbe9b1" stroke-width="2" d="M841.7,-328C841.7,-328 776.2,-328 776.2,-328 770.2,-328 764.2,-322 764.2,-316 764.2,-316 764.2,-304 764.2,-304 764.2,-298 770.2,-292 776.2,-292 776.2,-292 841.7,-292 841.7,-292 847.7,-292 853.7,-298 853.7,-304 853.7,-304 853.7,-316 853.7,-316 853.7,-322 847.7,-328 841.7,-328"/>
<text text-anchor="middle" x="808.95" y="-306.88" font-family="Century Gothic" font-size="10.00">p319_NCI&lt;&#45;0.38</text>
</g>
<!-- 0&#45;&gt;1 -->
<g id="edge1" class="edge">
<title>0&#45;&gt;1</title>
<path fill="none" stroke="#14bdeb" d="M1032.83,-384.08C987.87,-369.4 915.52,-345.79 865.29,-329.39"/>
<polygon fill="#14bdeb" stroke="#14bdeb" points="866.64,-326.15 856.05,-326.37 864.47,-332.8 866.64,-326.15"/>
<text text-anchor="middle" x="977.2" y="-349.2" font-family="Century Gothic" font-size="14.00">yes</text>
</g>
<!-- 2 -->
<g id="node3" class="node">
<title>2</title>
<path fill="#fdf4d9" stroke="#fbe9b1" stroke-width="2" d="M1249.7,-328C1249.7,-328 1190.2,-328 1190.2,-328 1184.2,-328 1178.2,-322 1178.2,-316 1178.2,-316 1178.2,-304 1178.2,-304 1178.2,-298 1184.2,-292 1190.2,-292 1190.2,-292 1249.7,-292 1249.7,-292 1255.7,-292 1261.7,-298 1261.7,-304 1261.7,-304 1261.7,-316 1261.7,-316 1261.7,-322 1255.7,-328 1249.7,-328"/>
<text text-anchor="middle" x="1219.95" y="-306.88" font-family="Century Gothic" font-size="10.00">p265_H2&lt;&#45;0.72</text>
</g>
<!-- 0&#45;&gt;2 -->
<g id="edge2" class="edge">
<title>0&#45;&gt;2</title>
<path fill="none" stroke="#f4562a" d="M1104.2,-379.58C1126.12,-366.59 1155.99,-348.89 1179.9,-334.73"/>
<polygon fill="#f4562a" stroke="#f4562a" points="1181.61,-337.78 1188.43,-329.67 1178.04,-331.76 1181.61,-337.78"/>
<text text-anchor="middle" x="1169.95" y="-349.2" font-family="Century Gothic" font-size="14.00">no</text>
</g>
<!-- 3 -->
<g id="node4" class="node">
<title>3</title>
<path fill="#fdf4d9" stroke="#fbe9b1" stroke-width="2" d="M400.7,-255C400.7,-255 341.2,-255 341.2,-255 335.2,-255 329.2,-249 329.2,-243 329.2,-243 329.2,-231 329.2,-231 329.2,-225 335.2,-219 341.2,-219 341.2,-219 400.7,-219 400.7,-219 406.7,-219 412.7,-225 412.7,-231 412.7,-231 412.7,-243 412.7,-243 412.7,-249 406.7,-255 400.7,-255"/>
<text text-anchor="middle" x="370.95" y="-233.88" font-family="Century Gothic" font-size="10.00">p104_H2&lt;&#45;0.09</text>
</g>
<!-- 1&#45;&gt;3 -->
<g id="edge3" class="edge">
<title>1&#45;&gt;3</title>
<path fill="none" stroke="#14bdeb" d="M763.31,-301.6C681.85,-288.4 511.79,-260.83 424.77,-246.72"/>
<polygon fill="#14bdeb" stroke="#14bdeb" points="425.49,-243.3 415.06,-245.15 424.37,-250.21 425.49,-243.3"/>
</g>
<!-- 4 -->
<g id="node5" class="node">
<title>4</title>
<path fill="#fdf4d9" stroke="#fbe9b1" stroke-width="2" d="M841.7,-255C841.7,-255 776.2,-255 776.2,-255 770.2,-255 764.2,-249 764.2,-243 764.2,-243 764.2,-231 764.2,-231 764.2,-225 770.2,-219 776.2,-219 776.2,-219 841.7,-219 841.7,-219 847.7,-219 853.7,-225 853.7,-231 853.7,-231 853.7,-243 853.7,-243 853.7,-249 847.7,-255 841.7,-255"/>
<text text-anchor="middle" x="808.95" y="-233.88" font-family="Century Gothic" font-size="10.00">p181_NCI&lt;&#45;0.71</text>
</g>
<!-- 1&#45;&gt;4 -->
<g id="edge4" class="edge">
<title>1&#45;&gt;4</title>
<path fill="none" stroke="#f4562a" d="M808.95,-291.08C808.95,-283.8 808.95,-275.19 808.95,-267.05"/>
<polygon fill="#f4562a" stroke="#f4562a" points="812.45,-267.18 808.95,-257.18 805.45,-267.18 812.45,-267.18"/>
</g>
<!-- 5 -->
<g id="node30" class="node">
<title>5</title>
<path fill="#fdf4d9" stroke="#fbe9b1" stroke-width="2" d="M1248.2,-255C1248.2,-255 1191.7,-255 1191.7,-255 1185.7,-255 1179.7,-249 1179.7,-243 1179.7,-243 1179.7,-231 1179.7,-231 1179.7,-225 1185.7,-219 1191.7,-219 1191.7,-219 1248.2,-219 1248.2,-219 1254.2,-219 1260.2,-225 1260.2,-231 1260.2,-231 1260.2,-243 1260.2,-243 1260.2,-249 1254.2,-255 1248.2,-255"/>
<text text-anchor="middle" x="1219.95" y="-233.88" font-family="Century Gothic" font-size="10.00">p198_H3&lt;0.75</text>
</g>
<!-- 2&#45;&gt;5 -->
<g id="edge29" class="edge">
<title>2&#45;&gt;5</title>
<path fill="none" stroke="#14bdeb" d="M1219.95,-291.08C1219.95,-283.8 1219.95,-275.19 1219.95,-267.05"/>
<polygon fill="#14bdeb" stroke="#14bdeb" points="1223.45,-267.18 1219.95,-257.18 1216.45,-267.18 1223.45,-267.18"/>
</g>
<!-- 6 -->
<g id="node31" class="node">
<title>6</title>
<path fill="#fdf4d9" stroke="#fbe9b1" stroke-width="2" d="M1662.07,-255C1662.07,-255 1607.82,-255 1607.82,-255 1601.82,-255 1595.82,-249 1595.82,-243 1595.82,-243 1595.82,-231 1595.82,-231 1595.82,-225 1601.82,-219 1607.82,-219 1607.82,-219 1662.07,-219 1662.07,-219 1668.07,-219 1674.07,-225 1674.07,-231 1674.07,-231 1674.07,-243 1674.07,-243 1674.07,-249 1668.07,-255 1662.07,-255"/>
<text text-anchor="middle" x="1634.95" y="-233.88" font-family="Century Gothic" font-size="10.00">p86_H2&lt;&#45;0.66</text>
</g>
<!-- 2&#45;&gt;6 -->
<g id="edge30" class="edge">
<title>2&#45;&gt;6</title>
<path fill="none" stroke="#f4562a" d="M1262.41,-301.74C1339.26,-288.59 1501.1,-260.9 1583.86,-246.74"/>
<polygon fill="#f4562a" stroke="#f4562a" points="1584.23,-250.23 1593.5,-245.09 1583.05,-243.33 1584.23,-250.23"/>
</g>
<!-- 7 -->
<g id="node6" class="node">
<title>7</title>
<path fill="#fdf4d9" stroke="#fbe9b1" stroke-width="2" d="M160.07,-182C160.07,-182 99.82,-182 99.82,-182 93.82,-182 87.82,-176 87.82,-170 87.82,-170 87.82,-158 87.82,-158 87.82,-152 93.82,-146 99.82,-146 99.82,-146 160.07,-146 160.07,-146 166.07,-146 172.07,-152 172.07,-158 172.07,-158 172.07,-170 172.07,-170 172.07,-176 166.07,-182 160.07,-182"/>
<text text-anchor="middle" x="129.95" y="-160.88" font-family="Century Gothic" font-size="10.00">p96_NCI&lt;&#45;0.70</text>
</g>
<!-- 3&#45;&gt;7 -->
<g id="edge5" class="edge">
<title>3&#45;&gt;7</title>
<path fill="none" stroke="#14bdeb" d="M328.42,-223.47C288.14,-211.6 227.5,-193.74 183.85,-180.88"/>
<polygon fill="#14bdeb" stroke="#14bdeb" points="184.9,-177.54 174.32,-178.07 182.92,-184.25 184.9,-177.54"/>
</g>
<!-- 8 -->
<g id="node7" class="node">
<title>8</title>
<path fill="#fdf4d9" stroke="#fbe9b1" stroke-width="2" d="M398.07,-182C398.07,-182 343.82,-182 343.82,-182 337.82,-182 331.82,-176 331.82,-170 331.82,-170 331.82,-158 331.82,-158 331.82,-152 337.82,-146 343.82,-146 343.82,-146 398.07,-146 398.07,-146 404.07,-146 410.07,-152 410.07,-158 410.07,-158 410.07,-170 410.07,-170 410.07,-176 404.07,-182 398.07,-182"/>
<text text-anchor="middle" x="370.95" y="-160.88" font-family="Century Gothic" font-size="10.00">p94_H2&lt;&#45;0.06</text>
</g>
<!-- 3&#45;&gt;8 -->
<g id="edge6" class="edge">
<title>3&#45;&gt;8</title>
<path fill="none" stroke="#f4562a" d="M370.95,-218.08C370.95,-210.8 370.95,-202.19 370.95,-194.05"/>
<polygon fill="#f4562a" stroke="#f4562a" points="374.45,-194.18 370.95,-184.18 367.45,-194.18 374.45,-194.18"/>
</g>
<!-- 9 -->
<g id="node18" class="node">
<title>9</title>
<path fill="#fdf4d9" stroke="#fbe9b1" stroke-width="2" d="M796.7,-182C796.7,-182 737.2,-182 737.2,-182 731.2,-182 725.2,-176 725.2,-170 725.2,-170 725.2,-158 725.2,-158 725.2,-152 731.2,-146 737.2,-146 737.2,-146 796.7,-146 796.7,-146 802.7,-146 808.7,-152 808.7,-158 808.7,-158 808.7,-170 808.7,-170 808.7,-176 802.7,-182 796.7,-182"/>
<text text-anchor="middle" x="766.95" y="-160.88" font-family="Century Gothic" font-size="10.00">p269_H2&lt;&#45;0.06</text>
</g>
<!-- 4&#45;&gt;9 -->
<g id="edge17" class="edge">
<title>4&#45;&gt;9</title>
<path fill="none" stroke="#14bdeb" d="M798.35,-218.08C793.74,-210.29 788.23,-200.98 783.13,-192.35"/>
<polygon fill="#14bdeb" stroke="#14bdeb" points="786.27,-190.79 778.17,-183.97 780.25,-194.36 786.27,-190.79"/>
</g>
<!-- 10 -->
<g id="node19" class="node">
<title>10</title>
<path fill="#fdf4d9" stroke="#fbe9b1" stroke-width="2" d="M900.82,-182C900.82,-182 839.07,-182 839.07,-182 833.07,-182 827.07,-176 827.07,-170 827.07,-170 827.07,-158 827.07,-158 827.07,-152 833.07,-146 839.07,-146 839.07,-146 900.82,-146 900.82,-146 906.82,-146 912.82,-152 912.82,-158 912.82,-158 912.82,-170 912.82,-170 912.82,-176 906.82,-182 900.82,-182"/>
<text text-anchor="middle" x="869.95" y="-160.88" font-family="Century Gothic" font-size="10.00">p214_PKB&lt;9.21</text>
</g>
<!-- 4&#45;&gt;10 -->
<g id="edge18" class="edge">
<title>4&#45;&gt;10</title>
<path fill="none" stroke="#f4562a" d="M824.34,-218.08C831.33,-209.95 839.73,-200.17 847.41,-191.23"/>
<polygon fill="#f4562a" stroke="#f4562a" points="849.92,-193.68 853.78,-183.81 844.61,-189.12 849.92,-193.68"/>
</g>
<!-- 15 -->
<g id="node8" class="node">
<title>15</title>
<ellipse fill="#ddfbd2" stroke="#b8f6a2" stroke-width="2" cx="35.95" cy="-91" rx="35.95" ry="18"/>
<text text-anchor="middle" x="35.95" y="-87.88" font-family="Century Gothic" font-size="10.00">leaf=5.17</text>
</g>
<!-- 7&#45;&gt;15 -->
<g id="edge7" class="edge">
<title>7&#45;&gt;15</title>
<path fill="none" stroke="#14bdeb" d="M106.23,-145.08C93.5,-135.47 77.73,-123.56 64.35,-113.45"/>
<polygon fill="#14bdeb" stroke="#14bdeb" points="66.83,-110.94 56.75,-107.71 62.62,-116.53 66.83,-110.94"/>
</g>
<!-- 16 -->
<g id="node9" class="node">
<title>16</title>
<path fill="#fdf4d9" stroke="#fbe9b1" stroke-width="2" d="M158.2,-109C158.2,-109 101.7,-109 101.7,-109 95.7,-109 89.7,-103 89.7,-97 89.7,-97 89.7,-85 89.7,-85 89.7,-79 95.7,-73 101.7,-73 101.7,-73 158.2,-73 158.2,-73 164.2,-73 170.2,-79 170.2,-85 170.2,-85 170.2,-97 170.2,-97 170.2,-103 164.2,-109 158.2,-109"/>
<text text-anchor="middle" x="129.95" y="-87.88" font-family="Century Gothic" font-size="10.00">p261_H3&lt;0.75</text>
</g>
<!-- 7&#45;&gt;16 -->
<g id="edge8" class="edge">
<title>7&#45;&gt;16</title>
<path fill="none" stroke="#f4562a" d="M129.95,-145.08C129.95,-137.8 129.95,-129.19 129.95,-121.05"/>
<polygon fill="#f4562a" stroke="#f4562a" points="133.45,-121.18 129.95,-111.18 126.45,-121.18 133.45,-121.18"/>
</g>
<!-- 17 -->
<g id="node12" class="node">
<title>17</title>
<path fill="#fdf4d9" stroke="#fbe9b1" stroke-width="2" d="M338.82,-109C338.82,-109 277.07,-109 277.07,-109 271.07,-109 265.07,-103 265.07,-97 265.07,-97 265.07,-85 265.07,-85 265.07,-79 271.07,-73 277.07,-73 277.07,-73 338.82,-73 338.82,-73 344.82,-73 350.82,-79 350.82,-85 350.82,-85 350.82,-97 350.82,-97 350.82,-103 344.82,-109 338.82,-109"/>
<text text-anchor="middle" x="307.95" y="-87.88" font-family="Century Gothic" font-size="10.00">p122_PKB&lt;9.60</text>
</g>
<!-- 8&#45;&gt;17 -->
<g id="edge11" class="edge">
<title>8&#45;&gt;17</title>
<path fill="none" stroke="#14bdeb" d="M355.05,-145.08C347.83,-136.95 339.15,-127.17 331.22,-118.23"/>
<polygon fill="#14bdeb" stroke="#14bdeb" points="333.88,-115.95 324.63,-110.8 328.64,-120.6 333.88,-115.95"/>
</g>
<!-- 18 -->
<g id="node13" class="node">
<title>18</title>
<path fill="#fdf4d9" stroke="#fbe9b1" stroke-width="2" d="M437.2,-109C437.2,-109 380.7,-109 380.7,-109 374.7,-109 368.7,-103 368.7,-97 368.7,-97 368.7,-85 368.7,-85 368.7,-79 374.7,-73 380.7,-73 380.7,-73 437.2,-73 437.2,-73 443.2,-73 449.2,-79 449.2,-85 449.2,-85 449.2,-97 449.2,-97 449.2,-103 443.2,-109 437.2,-109"/>
<text text-anchor="middle" x="408.95" y="-87.88" font-family="Century Gothic" font-size="10.00">p84_PKB&lt;9.69</text>
</g>
<!-- 8&#45;&gt;18 -->
<g id="edge12" class="edge">
<title>8&#45;&gt;18</title>
<path fill="none" stroke="#f4562a" d="M380.54,-145.08C384.66,-137.37 389.58,-128.18 394.16,-119.63"/>
<polygon fill="#f4562a" stroke="#f4562a" points="397.15,-121.47 398.78,-111 390.97,-118.16 397.15,-121.47"/>
</g>
<!-- 29 -->
<g id="node10" class="node">
<title>29</title>
<ellipse fill="#ddfbd2" stroke="#b8f6a2" stroke-width="2" cx="39.95" cy="-18" rx="35.95" ry="18"/>
<text text-anchor="middle" x="39.95" y="-14.88" font-family="Century Gothic" font-size="10.00">leaf=3.02</text>
</g>
<!-- 16&#45;&gt;29 -->
<g id="edge9" class="edge">
<title>16&#45;&gt;29</title>
<path fill="none" stroke="#14bdeb" d="M107.24,-72.08C95.25,-62.63 80.45,-50.95 67.78,-40.95"/>
<polygon fill="#14bdeb" stroke="#14bdeb" points="70.21,-38.41 60.19,-34.97 65.87,-43.91 70.21,-38.41"/>
</g>
<!-- 30 -->
<g id="node11" class="node">
<title>30</title>
<ellipse fill="#ddfbd2" stroke="#b8f6a2" stroke-width="2" cx="129.95" cy="-18" rx="35.95" ry="18"/>
<text text-anchor="middle" x="129.95" y="-14.88" font-family="Century Gothic" font-size="10.00">leaf=4.31</text>
</g>
<!-- 16&#45;&gt;30 -->
<g id="edge10" class="edge">
<title>16&#45;&gt;30</title>
<path fill="none" stroke="#f4562a" d="M129.95,-72.08C129.95,-64.8 129.95,-56.19 129.95,-48.05"/>
<polygon fill="#f4562a" stroke="#f4562a" points="133.45,-48.18 129.95,-38.18 126.45,-48.18 133.45,-48.18"/>
</g>
<!-- 31 -->
<g id="node14" class="node">
<title>31</title>
<ellipse fill="#ddfbd2" stroke="#b8f6a2" stroke-width="2" cx="221.95" cy="-18" rx="37.78" ry="18"/>
<text text-anchor="middle" x="221.95" y="-14.88" font-family="Century Gothic" font-size="10.00">leaf=&#45;1.43</text>
</g>
<!-- 17&#45;&gt;31 -->
<g id="edge13" class="edge">
<title>17&#45;&gt;31</title>
<path fill="none" stroke="#14bdeb" d="M286.25,-72.08C275.06,-62.85 261.31,-51.5 249.4,-41.66"/>
<polygon fill="#14bdeb" stroke="#14bdeb" points="251.83,-39.13 241.89,-35.46 247.37,-44.53 251.83,-39.13"/>
</g>
<!-- 32 -->
<g id="node15" class="node">
<title>32</title>
<ellipse fill="#ddfbd2" stroke="#b8f6a2" stroke-width="2" cx="313.95" cy="-18" rx="35.95" ry="18"/>
<text text-anchor="middle" x="313.95" y="-14.88" font-family="Century Gothic" font-size="10.00">leaf=0.02</text>
</g>
<!-- 17&#45;&gt;32 -->
<g id="edge14" class="edge">
<title>17&#45;&gt;32</title>
<path fill="none" stroke="#f4562a" d="M309.46,-72.08C310.08,-64.8 310.8,-56.19 311.49,-48.05"/>
<polygon fill="#f4562a" stroke="#f4562a" points="314.97,-48.43 312.33,-38.17 308,-47.84 314.97,-48.43"/>
</g>
<!-- 33 -->
<g id="node16" class="node">
<title>33</title>
<ellipse fill="#ddfbd2" stroke="#b8f6a2" stroke-width="2" cx="403.95" cy="-18" rx="35.95" ry="18"/>
<text text-anchor="middle" x="403.95" y="-14.88" font-family="Century Gothic" font-size="10.00">leaf=0.22</text>
</g>
<!-- 18&#45;&gt;33 -->
<g id="edge15" class="edge">
<title>18&#45;&gt;33</title>
<path fill="none" stroke="#14bdeb" d="M407.69,-72.08C407.17,-64.8 406.57,-56.19 405.99,-48.05"/>
<polygon fill="#14bdeb" stroke="#14bdeb" points="409.49,-47.9 405.3,-38.17 402.51,-48.4 409.49,-47.9"/>
</g>
<!-- 34 -->
<g id="node17" class="node">
<title>34</title>
<ellipse fill="#ddfbd2" stroke="#b8f6a2" stroke-width="2" cx="493.95" cy="-18" rx="35.95" ry="18"/>
<text text-anchor="middle" x="493.95" y="-14.88" font-family="Century Gothic" font-size="10.00">leaf=3.79</text>
</g>
<!-- 18&#45;&gt;34 -->
<g id="edge16" class="edge">
<title>18&#45;&gt;34</title>
<path fill="none" stroke="#f4562a" d="M430.4,-72.08C441.53,-62.79 455.23,-51.34 467.06,-41.45"/>
<polygon fill="#f4562a" stroke="#f4562a" points="469.08,-44.33 474.51,-35.23 464.59,-38.96 469.08,-44.33"/>
</g>
<!-- 19 -->
<g id="node20" class="node">
<title>19</title>
<path fill="#fdf4d9" stroke="#fbe9b1" stroke-width="2" d="M697.2,-109C697.2,-109 640.7,-109 640.7,-109 634.7,-109 628.7,-103 628.7,-97 628.7,-97 628.7,-85 628.7,-85 628.7,-79 634.7,-73 640.7,-73 640.7,-73 697.2,-73 697.2,-73 703.2,-73 709.2,-79 709.2,-85 709.2,-85 709.2,-97 709.2,-97 709.2,-103 703.2,-109 697.2,-109"/>
<text text-anchor="middle" x="668.95" y="-87.88" font-family="Century Gothic" font-size="10.00">p261_H3&lt;0.75</text>
</g>
<!-- 9&#45;&gt;19 -->
<g id="edge19" class="edge">
<title>9&#45;&gt;19</title>
<path fill="none" stroke="#14bdeb" d="M742.22,-145.08C730.26,-136.42 715.73,-125.89 702.77,-116.5"/>
<polygon fill="#14bdeb" stroke="#14bdeb" points="705.05,-113.83 694.89,-110.8 700.94,-119.5 705.05,-113.83"/>
</g>
<!-- 20 -->
<g id="node21" class="node">
<title>20</title>
<path fill="#fdf4d9" stroke="#fbe9b1" stroke-width="2" d="M798.7,-109C798.7,-109 739.2,-109 739.2,-109 733.2,-109 727.2,-103 727.2,-97 727.2,-97 727.2,-85 727.2,-85 727.2,-79 733.2,-73 739.2,-73 739.2,-73 798.7,-73 798.7,-73 804.7,-73 810.7,-79 810.7,-85 810.7,-85 810.7,-97 810.7,-97 810.7,-103 804.7,-109 798.7,-109"/>
<text text-anchor="middle" x="768.95" y="-87.88" font-family="Century Gothic" font-size="10.00">p217_H2&lt;&#45;0.06</text>
</g>
<!-- 9&#45;&gt;20 -->
<g id="edge20" class="edge">
<title>9&#45;&gt;20</title>
<path fill="none" stroke="#f4562a" d="M767.45,-145.08C767.66,-137.8 767.9,-129.19 768.13,-121.05"/>
<polygon fill="#f4562a" stroke="#f4562a" points="771.62,-121.27 768.41,-111.18 764.63,-121.08 771.62,-121.27"/>
</g>
<!-- 21 -->
<g id="node26" class="node">
<title>21</title>
<ellipse fill="#ddfbd2" stroke="#b8f6a2" stroke-width="2" cx="866.95" cy="-91" rx="35.95" ry="18"/>
<text text-anchor="middle" x="866.95" y="-87.88" font-family="Century Gothic" font-size="10.00">leaf=4.06</text>
</g>
<!-- 10&#45;&gt;21 -->
<g id="edge25" class="edge">
<title>10&#45;&gt;21</title>
<path fill="none" stroke="#14bdeb" d="M869.19,-145.08C868.88,-137.8 868.52,-129.19 868.17,-121.05"/>
<polygon fill="#14bdeb" stroke="#14bdeb" points="871.68,-121.02 867.76,-111.18 864.68,-121.32 871.68,-121.02"/>
</g>
<!-- 22 -->
<g id="node27" class="node">
<title>22</title>
<path fill="#fdf4d9" stroke="#fbe9b1" stroke-width="2" d="M987.07,-109C987.07,-109 932.82,-109 932.82,-109 926.82,-109 920.82,-103 920.82,-97 920.82,-97 920.82,-85 920.82,-85 920.82,-79 926.82,-73 932.82,-73 932.82,-73 987.07,-73 987.07,-73 993.07,-73 999.07,-79 999.07,-85 999.07,-85 999.07,-97 999.07,-97 999.07,-103 993.07,-109 987.07,-109"/>
<text text-anchor="middle" x="959.95" y="-87.88" font-family="Century Gothic" font-size="10.00">p29_H2&lt;&#45;0.66</text>
</g>
<!-- 10&#45;&gt;22 -->
<g id="edge26" class="edge">
<title>10&#45;&gt;22</title>
<path fill="none" stroke="#f4562a" d="M892.66,-145.08C903.53,-136.51 916.72,-126.1 928.54,-116.78"/>
<polygon fill="#f4562a" stroke="#f4562a" points="930.37,-119.79 936.06,-110.85 926.04,-114.29 930.37,-119.79"/>
</g>
<!-- 35 -->
<g id="node22" class="node">
<title>35</title>
<ellipse fill="#ddfbd2" stroke="#b8f6a2" stroke-width="2" cx="583.95" cy="-18" rx="35.95" ry="18"/>
<text text-anchor="middle" x="583.95" y="-14.88" font-family="Century Gothic" font-size="10.00">leaf=6.73</text>
</g>
<!-- 19&#45;&gt;35 -->
<g id="edge21" class="edge">
<title>19&#45;&gt;35</title>
<path fill="none" stroke="#14bdeb" d="M647.5,-72.08C636.37,-62.79 622.66,-51.34 610.83,-41.45"/>
<polygon fill="#14bdeb" stroke="#14bdeb" points="613.3,-38.96 603.38,-35.23 608.81,-44.33 613.3,-38.96"/>
</g>
<!-- 36 -->
<g id="node23" class="node">
<title>36</title>
<ellipse fill="#ddfbd2" stroke="#b8f6a2" stroke-width="2" cx="673.95" cy="-18" rx="35.95" ry="18"/>
<text text-anchor="middle" x="673.95" y="-14.88" font-family="Century Gothic" font-size="10.00">leaf=7.65</text>
</g>
<!-- 19&#45;&gt;36 -->
<g id="edge22" class="edge">
<title>19&#45;&gt;36</title>
<path fill="none" stroke="#f4562a" d="M670.21,-72.08C670.72,-64.8 671.33,-56.19 671.9,-48.05"/>
<polygon fill="#f4562a" stroke="#f4562a" points="675.39,-48.4 672.6,-38.17 668.4,-47.9 675.39,-48.4"/>
</g>
<!-- 37 -->
<g id="node24" class="node">
<title>37</title>
<ellipse fill="#ddfbd2" stroke="#b8f6a2" stroke-width="2" cx="763.95" cy="-18" rx="35.95" ry="18"/>
<text text-anchor="middle" x="763.95" y="-14.88" font-family="Century Gothic" font-size="10.00">leaf=9.51</text>
</g>
<!-- 20&#45;&gt;37 -->
<g id="edge23" class="edge">
<title>20&#45;&gt;37</title>
<path fill="none" stroke="#14bdeb" d="M767.69,-72.08C767.17,-64.8 766.57,-56.19 765.99,-48.05"/>
<polygon fill="#14bdeb" stroke="#14bdeb" points="769.49,-47.9 765.3,-38.17 762.51,-48.4 769.49,-47.9"/>
</g>
<!-- 38 -->
<g id="node25" class="node">
<title>38</title>
<ellipse fill="#ddfbd2" stroke="#b8f6a2" stroke-width="2" cx="853.95" cy="-18" rx="35.95" ry="18"/>
<text text-anchor="middle" x="853.95" y="-14.88" font-family="Century Gothic" font-size="10.00">leaf=8.52</text>
</g>
<!-- 20&#45;&gt;38 -->
<g id="edge24" class="edge">
<title>20&#45;&gt;38</title>
<path fill="none" stroke="#f4562a" d="M790.4,-72.08C801.53,-62.79 815.23,-51.34 827.06,-41.45"/>
<polygon fill="#f4562a" stroke="#f4562a" points="829.08,-44.33 834.51,-35.23 824.59,-38.96 829.08,-44.33"/>
</g>
<!-- 39 -->
<g id="node28" class="node">
<title>39</title>
<ellipse fill="#ddfbd2" stroke="#b8f6a2" stroke-width="2" cx="943.95" cy="-18" rx="35.95" ry="18"/>
<text text-anchor="middle" x="943.95" y="-14.88" font-family="Century Gothic" font-size="10.00">leaf=4.06</text>
</g>
<!-- 22&#45;&gt;39 -->
<g id="edge27" class="edge">
<title>22&#45;&gt;39</title>
<path fill="none" stroke="#14bdeb" d="M955.91,-72.08C954.25,-64.71 952.28,-55.99 950.43,-47.76"/>
<polygon fill="#14bdeb" stroke="#14bdeb" points="953.87,-47.13 948.26,-38.14 947.04,-48.67 953.87,-47.13"/>
</g>
<!-- 40 -->
<g id="node29" class="node">
<title>40</title>
<ellipse fill="#ddfbd2" stroke="#b8f6a2" stroke-width="2" cx="1033.95" cy="-18" rx="35.95" ry="18"/>
<text text-anchor="middle" x="1033.95" y="-14.88" font-family="Century Gothic" font-size="10.00">leaf=6.30</text>
</g>
<!-- 22&#45;&gt;40 -->
<g id="edge28" class="edge">
<title>22&#45;&gt;40</title>
<path fill="none" stroke="#f4562a" d="M978.62,-72.08C987.99,-63.1 999.45,-52.1 1009.51,-42.45"/>
<polygon fill="#f4562a" stroke="#f4562a" points="1011.66,-45.23 1016.45,-35.78 1006.82,-40.18 1011.66,-45.23"/>
</g>
<!-- 11 -->
<g id="node32" class="node">
<title>11</title>
<ellipse fill="#ddfbd2" stroke="#b8f6a2" stroke-width="2" cx="1173.95" cy="-164" rx="37.78" ry="18"/>
<text text-anchor="middle" x="1173.95" y="-160.88" font-family="Century Gothic" font-size="10.00">leaf=&#45;4.60</text>
</g>
<!-- 5&#45;&gt;11 -->
<g id="edge31" class="edge">
<title>5&#45;&gt;11</title>
<path fill="none" stroke="#14bdeb" d="M1208.34,-218.08C1203.16,-210.08 1196.94,-200.49 1191.23,-191.67"/>
<polygon fill="#14bdeb" stroke="#14bdeb" points="1194.27,-189.94 1185.9,-183.45 1188.4,-193.74 1194.27,-189.94"/>
</g>
<!-- 12 -->
<g id="node33" class="node">
<title>12</title>
<path fill="#fdf4d9" stroke="#fbe9b1" stroke-width="2" d="M1303.82,-182C1303.82,-182 1242.07,-182 1242.07,-182 1236.07,-182 1230.07,-176 1230.07,-170 1230.07,-170 1230.07,-158 1230.07,-158 1230.07,-152 1236.07,-146 1242.07,-146 1242.07,-146 1303.82,-146 1303.82,-146 1309.82,-146 1315.82,-152 1315.82,-158 1315.82,-158 1315.82,-170 1315.82,-170 1315.82,-176 1309.82,-182 1303.82,-182"/>
<text text-anchor="middle" x="1272.95" y="-160.88" font-family="Century Gothic" font-size="10.00">p270_PKB&lt;9.11</text>
</g>
<!-- 5&#45;&gt;12 -->
<g id="edge32" class="edge">
<title>5&#45;&gt;12</title>
<path fill="none" stroke="#f4562a" d="M1233.32,-218.08C1239.27,-210.12 1246.39,-200.58 1252.95,-191.79"/>
<polygon fill="#f4562a" stroke="#f4562a" points="1255.68,-193.98 1258.86,-183.88 1250.07,-189.8 1255.68,-193.98"/>
</g>
<!-- 13 -->
<g id="node40" class="node">
<title>13</title>
<path fill="#fdf4d9" stroke="#fbe9b1" stroke-width="2" d="M1664.7,-182C1664.7,-182 1605.2,-182 1605.2,-182 1599.2,-182 1593.2,-176 1593.2,-170 1593.2,-170 1593.2,-158 1593.2,-158 1593.2,-152 1599.2,-146 1605.2,-146 1605.2,-146 1664.7,-146 1664.7,-146 1670.7,-146 1676.7,-152 1676.7,-158 1676.7,-158 1676.7,-170 1676.7,-170 1676.7,-176 1670.7,-182 1664.7,-182"/>
<text text-anchor="middle" x="1634.95" y="-160.88" font-family="Century Gothic" font-size="10.00">p109_H2&lt;&#45;0.09</text>
</g>
<!-- 6&#45;&gt;13 -->
<g id="edge39" class="edge">
<title>6&#45;&gt;13</title>
<path fill="none" stroke="#14bdeb" d="M1634.95,-218.08C1634.95,-210.8 1634.95,-202.19 1634.95,-194.05"/>
<polygon fill="#14bdeb" stroke="#14bdeb" points="1638.45,-194.18 1634.95,-184.18 1631.45,-194.18 1638.45,-194.18"/>
</g>
<!-- 14 -->
<g id="node41" class="node">
<title>14</title>
<path fill="#fdf4d9" stroke="#fbe9b1" stroke-width="2" d="M1953.07,-182C1953.07,-182 1892.82,-182 1892.82,-182 1886.82,-182 1880.82,-176 1880.82,-170 1880.82,-170 1880.82,-158 1880.82,-158 1880.82,-152 1886.82,-146 1892.82,-146 1892.82,-146 1953.07,-146 1953.07,-146 1959.07,-146 1965.07,-152 1965.07,-158 1965.07,-158 1965.07,-170 1965.07,-170 1965.07,-176 1959.07,-182 1953.07,-182"/>
<text text-anchor="middle" x="1922.95" y="-160.88" font-family="Century Gothic" font-size="10.00">p93_NCI&lt;&#45;0.70</text>
</g>
<!-- 6&#45;&gt;14 -->
<g id="edge40" class="edge">
<title>6&#45;&gt;14</title>
<path fill="none" stroke="#f4562a" d="M1674.99,-226.13C1725.56,-213.66 1812.76,-192.16 1869.12,-178.27"/>
<polygon fill="#f4562a" stroke="#f4562a" points="1869.62,-181.75 1878.49,-175.96 1867.94,-174.96 1869.62,-181.75"/>
</g>
<!-- 23 -->
<g id="node34" class="node">
<title>23</title>
<path fill="#fdf4d9" stroke="#fbe9b1" stroke-width="2" d="M1237.45,-109C1237.45,-109 1188.45,-109 1188.45,-109 1182.45,-109 1176.45,-103 1176.45,-97 1176.45,-97 1176.45,-85 1176.45,-85 1176.45,-79 1182.45,-73 1188.45,-73 1188.45,-73 1237.45,-73 1237.45,-73 1243.45,-73 1249.45,-79 1249.45,-85 1249.45,-85 1249.45,-97 1249.45,-97 1249.45,-103 1243.45,-109 1237.45,-109"/>
<text text-anchor="middle" x="1212.95" y="-87.88" font-family="Century Gothic" font-size="10.00">p1_H2&lt;&#45;0.09</text>
</g>
<!-- 12&#45;&gt;23 -->
<g id="edge33" class="edge">
<title>12&#45;&gt;23</title>
<path fill="none" stroke="#14bdeb" d="M1257.81,-145.08C1250.93,-136.95 1242.67,-127.17 1235.11,-118.23"/>
<polygon fill="#14bdeb" stroke="#14bdeb" points="1237.98,-116.2 1228.85,-110.82 1232.63,-120.72 1237.98,-116.2"/>
</g>
<!-- 24 -->
<g id="node35" class="node">
<title>24</title>
<path fill="#fdf4d9" stroke="#fbe9b1" stroke-width="2" d="M1344.7,-109C1344.7,-109 1279.2,-109 1279.2,-109 1273.2,-109 1267.2,-103 1267.2,-97 1267.2,-97 1267.2,-85 1267.2,-85 1267.2,-79 1273.2,-73 1279.2,-73 1279.2,-73 1344.7,-73 1344.7,-73 1350.7,-73 1356.7,-79 1356.7,-85 1356.7,-85 1356.7,-97 1356.7,-97 1356.7,-103 1350.7,-109 1344.7,-109"/>
<text text-anchor="middle" x="1311.95" y="-87.88" font-family="Century Gothic" font-size="10.00">p151_NCI&lt;&#45;0.71</text>
</g>
<!-- 12&#45;&gt;24 -->
<g id="edge34" class="edge">
<title>12&#45;&gt;24</title>
<path fill="none" stroke="#f4562a" d="M1282.79,-145.08C1287.02,-137.37 1292.07,-128.18 1296.77,-119.63"/>
<polygon fill="#f4562a" stroke="#f4562a" points="1299.77,-121.44 1301.52,-110.99 1293.63,-118.07 1299.77,-121.44"/>
</g>
<!-- 41 -->
<g id="node36" class="node">
<title>41</title>
<ellipse fill="#ddfbd2" stroke="#b8f6a2" stroke-width="2" cx="1123.95" cy="-18" rx="35.95" ry="18"/>
<text text-anchor="middle" x="1123.95" y="-14.88" font-family="Century Gothic" font-size="10.00">leaf=4.25</text>
</g>
<!-- 23&#45;&gt;41 -->
<g id="edge35" class="edge">
<title>23&#45;&gt;41</title>
<path fill="none" stroke="#14bdeb" d="M1190.49,-72.08C1178.64,-62.63 1164,-50.95 1151.47,-40.95"/>
<polygon fill="#14bdeb" stroke="#14bdeb" points="1153.97,-38.47 1143.97,-34.97 1149.61,-43.95 1153.97,-38.47"/>
</g>
<!-- 42 -->
<g id="node37" class="node">
<title>42</title>
<ellipse fill="#ddfbd2" stroke="#b8f6a2" stroke-width="2" cx="1213.95" cy="-18" rx="35.95" ry="18"/>
<text text-anchor="middle" x="1213.95" y="-14.88" font-family="Century Gothic" font-size="10.00">leaf=1.88</text>
</g>
<!-- 23&#45;&gt;42 -->
<g id="edge36" class="edge">
<title>23&#45;&gt;42</title>
<path fill="none" stroke="#f4562a" d="M1213.2,-72.08C1213.3,-64.8 1213.42,-56.19 1213.54,-48.05"/>
<polygon fill="#f4562a" stroke="#f4562a" points="1217.04,-48.23 1213.68,-38.18 1210.04,-48.13 1217.04,-48.23"/>
</g>
<!-- 43 -->
<g id="node38" class="node">
<title>43</title>
<ellipse fill="#ddfbd2" stroke="#b8f6a2" stroke-width="2" cx="1305.95" cy="-18" rx="37.78" ry="18"/>
<text text-anchor="middle" x="1305.95" y="-14.88" font-family="Century Gothic" font-size="10.00">leaf=&#45;0.60</text>
</g>
<!-- 24&#45;&gt;43 -->
<g id="edge37" class="edge">
<title>24&#45;&gt;43</title>
<path fill="none" stroke="#14bdeb" d="M1310.43,-72.08C1309.82,-64.8 1309.09,-56.19 1308.4,-48.05"/>
<polygon fill="#14bdeb" stroke="#14bdeb" points="1311.9,-47.84 1307.57,-38.17 1304.92,-48.43 1311.9,-47.84"/>
</g>
<!-- 44 -->
<g id="node39" class="node">
<title>44</title>
<ellipse fill="#ddfbd2" stroke="#b8f6a2" stroke-width="2" cx="1399.95" cy="-18" rx="37.78" ry="18"/>
<text text-anchor="middle" x="1399.95" y="-14.88" font-family="Century Gothic" font-size="10.00">leaf=&#45;2.36</text>
</g>
<!-- 24&#45;&gt;44 -->
<g id="edge38" class="edge">
<title>24&#45;&gt;44</title>
<path fill="none" stroke="#f4562a" d="M1334.15,-72.08C1345.6,-62.85 1359.67,-51.5 1371.86,-41.66"/>
<polygon fill="#f4562a" stroke="#f4562a" points="1373.97,-44.45 1379.56,-35.45 1369.58,-39 1373.97,-44.45"/>
</g>
<!-- 25 -->
<g id="node42" class="node">
<title>25</title>
<path fill="#fdf4d9" stroke="#fbe9b1" stroke-width="2" d="M1617.07,-109C1617.07,-109 1556.82,-109 1556.82,-109 1550.82,-109 1544.82,-103 1544.82,-97 1544.82,-97 1544.82,-85 1544.82,-85 1544.82,-79 1550.82,-73 1556.82,-73 1556.82,-73 1617.07,-73 1617.07,-73 1623.07,-73 1629.07,-79 1629.07,-85 1629.07,-85 1629.07,-97 1629.07,-97 1629.07,-103 1623.07,-109 1617.07,-109"/>
<text text-anchor="middle" x="1586.95" y="-87.88" font-family="Century Gothic" font-size="10.00">p84_NCI&lt;&#45;0.46</text>
</g>
<!-- 13&#45;&gt;25 -->
<g id="edge41" class="edge">
<title>13&#45;&gt;25</title>
<path fill="none" stroke="#14bdeb" d="M1622.83,-145.08C1617.51,-137.2 1611.13,-127.78 1605.25,-119.07"/>
<polygon fill="#14bdeb" stroke="#14bdeb" points="1608.24,-117.24 1599.74,-110.92 1602.44,-121.16 1608.24,-117.24"/>
</g>
<!-- 26 -->
<g id="node43" class="node">
<title>26</title>
<path fill="#fdf4d9" stroke="#fbe9b1" stroke-width="2" d="M1724.7,-109C1724.7,-109 1659.2,-109 1659.2,-109 1653.2,-109 1647.2,-103 1647.2,-97 1647.2,-97 1647.2,-85 1647.2,-85 1647.2,-79 1653.2,-73 1659.2,-73 1659.2,-73 1724.7,-73 1724.7,-73 1730.7,-73 1736.7,-79 1736.7,-85 1736.7,-85 1736.7,-97 1736.7,-97 1736.7,-103 1730.7,-109 1724.7,-109"/>
<text text-anchor="middle" x="1691.95" y="-87.88" font-family="Century Gothic" font-size="10.00">p113_NCI&lt;&#45;0.70</text>
</g>
<!-- 13&#45;&gt;26 -->
<g id="edge42" class="edge">
<title>13&#45;&gt;26</title>
<path fill="none" stroke="#f4562a" d="M1649.33,-145.08C1655.79,-137.03 1663.55,-127.37 1670.66,-118.51"/>
<polygon fill="#f4562a" stroke="#f4562a" points="1673.29,-120.83 1676.82,-110.84 1667.83,-116.45 1673.29,-120.83"/>
</g>
<!-- 27 -->
<g id="node48" class="node">
<title>27</title>
<path fill="#fdf4d9" stroke="#fbe9b1" stroke-width="2" d="M1951.2,-109C1951.2,-109 1894.7,-109 1894.7,-109 1888.7,-109 1882.7,-103 1882.7,-97 1882.7,-97 1882.7,-85 1882.7,-85 1882.7,-79 1888.7,-73 1894.7,-73 1894.7,-73 1951.2,-73 1951.2,-73 1957.2,-73 1963.2,-79 1963.2,-85 1963.2,-85 1963.2,-97 1963.2,-97 1963.2,-103 1957.2,-109 1951.2,-109"/>
<text text-anchor="middle" x="1922.95" y="-87.88" font-family="Century Gothic" font-size="10.00">p86_PKB&lt;9.13</text>
</g>
<!-- 14&#45;&gt;27 -->
<g id="edge47" class="edge">
<title>14&#45;&gt;27</title>
<path fill="none" stroke="#14bdeb" d="M1922.95,-145.08C1922.95,-137.8 1922.95,-129.19 1922.95,-121.05"/>
<polygon fill="#14bdeb" stroke="#14bdeb" points="1926.45,-121.18 1922.95,-111.18 1919.45,-121.18 1926.45,-121.18"/>
</g>
<!-- 28 -->
<g id="node49" class="node">
<title>28</title>
<path fill="#fdf4d9" stroke="#fbe9b1" stroke-width="2" d="M2100.07,-109C2100.07,-109 2039.82,-109 2039.82,-109 2033.82,-109 2027.82,-103 2027.82,-97 2027.82,-97 2027.82,-85 2027.82,-85 2027.82,-79 2033.82,-73 2039.82,-73 2039.82,-73 2100.07,-73 2100.07,-73 2106.07,-73 2112.07,-79 2112.07,-85 2112.07,-85 2112.07,-97 2112.07,-97 2112.07,-103 2106.07,-109 2100.07,-109"/>
<text text-anchor="middle" x="2069.95" y="-87.88" font-family="Century Gothic" font-size="10.00">p93_NCI&lt;&#45;0.36</text>
</g>
<!-- 14&#45;&gt;28 -->
<g id="edge48" class="edge">
<title>14&#45;&gt;28</title>
<path fill="none" stroke="#f4562a" d="M1960.04,-145.08C1979.02,-135.92 2002.33,-124.66 2022.59,-114.87"/>
<polygon fill="#f4562a" stroke="#f4562a" points="2024.02,-118.07 2031.5,-110.57 2020.97,-111.77 2024.02,-118.07"/>
</g>
<!-- 45 -->
<g id="node44" class="node">
<title>45</title>
<ellipse fill="#ddfbd2" stroke="#b8f6a2" stroke-width="2" cx="1493.95" cy="-18" rx="37.78" ry="18"/>
<text text-anchor="middle" x="1493.95" y="-14.88" font-family="Century Gothic" font-size="10.00">leaf=&#45;8.75</text>
</g>
<!-- 25&#45;&gt;45 -->
<g id="edge43" class="edge">
<title>25&#45;&gt;45</title>
<path fill="none" stroke="#14bdeb" d="M1563.48,-72.08C1551.18,-62.7 1536.01,-51.11 1522.98,-41.16"/>
<polygon fill="#14bdeb" stroke="#14bdeb" points="1525.22,-38.47 1515.14,-35.18 1520.97,-44.03 1525.22,-38.47"/>
</g>
<!-- 46 -->
<g id="node45" class="node">
<title>46</title>
<ellipse fill="#ddfbd2" stroke="#b8f6a2" stroke-width="2" cx="1590.95" cy="-18" rx="40.99" ry="18"/>
<text text-anchor="middle" x="1590.95" y="-14.88" font-family="Century Gothic" font-size="10.00">leaf=&#45;10.38</text>
</g>
<!-- 25&#45;&gt;46 -->
<g id="edge44" class="edge">
<title>25&#45;&gt;46</title>
<path fill="none" stroke="#f4562a" d="M1587.96,-72.08C1588.37,-64.8 1588.85,-56.19 1589.31,-48.05"/>
<polygon fill="#f4562a" stroke="#f4562a" points="1592.8,-48.36 1589.87,-38.18 1585.81,-47.96 1592.8,-48.36"/>
</g>
<!-- 47 -->
<g id="node46" class="node">
<title>47</title>
<ellipse fill="#ddfbd2" stroke="#b8f6a2" stroke-width="2" cx="1687.95" cy="-18" rx="37.78" ry="18"/>
<text text-anchor="middle" x="1687.95" y="-14.88" font-family="Century Gothic" font-size="10.00">leaf=&#45;6.28</text>
</g>
<!-- 26&#45;&gt;47 -->
<g id="edge45" class="edge">
<title>26&#45;&gt;47</title>
<path fill="none" stroke="#14bdeb" d="M1690.94,-72.08C1690.53,-64.8 1690.04,-56.19 1689.58,-48.05"/>
<polygon fill="#14bdeb" stroke="#14bdeb" points="1693.08,-47.96 1689.03,-38.18 1686.1,-48.36 1693.08,-47.96"/>
</g>
<!-- 48 -->
<g id="node47" class="node">
<title>48</title>
<ellipse fill="#ddfbd2" stroke="#b8f6a2" stroke-width="2" cx="1784.95" cy="-18" rx="40.99" ry="18"/>
<text text-anchor="middle" x="1784.95" y="-14.88" font-family="Century Gothic" font-size="10.00">leaf=&#45;10.16</text>
</g>
<!-- 26&#45;&gt;48 -->
<g id="edge46" class="edge">
<title>26&#45;&gt;48</title>
<path fill="none" stroke="#f4562a" d="M1715.41,-72.08C1727.63,-62.76 1742.67,-51.28 1755.64,-41.37"/>
<polygon fill="#f4562a" stroke="#f4562a" points="1757.62,-44.27 1763.44,-35.42 1753.37,-38.7 1757.62,-44.27"/>
</g>
<!-- 49 -->
<g id="node50" class="node">
<title>49</title>
<ellipse fill="#ddfbd2" stroke="#b8f6a2" stroke-width="2" cx="1881.95" cy="-18" rx="37.78" ry="18"/>
<text text-anchor="middle" x="1881.95" y="-14.88" font-family="Century Gothic" font-size="10.00">leaf=&#45;5.60</text>
</g>
<!-- 27&#45;&gt;49 -->
<g id="edge49" class="edge">
<title>27&#45;&gt;49</title>
<path fill="none" stroke="#14bdeb" d="M1912.6,-72.08C1908.03,-64.17 1902.56,-54.7 1897.52,-45.96"/>
<polygon fill="#14bdeb" stroke="#14bdeb" points="1900.65,-44.4 1892.62,-37.49 1894.59,-47.9 1900.65,-44.4"/>
</g>
<!-- 50 -->
<g id="node51" class="node">
<title>50</title>
<ellipse fill="#ddfbd2" stroke="#b8f6a2" stroke-width="2" cx="1975.95" cy="-18" rx="37.78" ry="18"/>
<text text-anchor="middle" x="1975.95" y="-14.88" font-family="Century Gothic" font-size="10.00">leaf=&#45;8.65</text>
</g>
<!-- 27&#45;&gt;50 -->
<g id="edge50" class="edge">
<title>27&#45;&gt;50</title>
<path fill="none" stroke="#f4562a" d="M1936.32,-72.08C1942.51,-63.79 1949.98,-53.78 1956.76,-44.71"/>
<polygon fill="#f4562a" stroke="#f4562a" points="1959.4,-47.01 1962.58,-36.9 1953.8,-42.82 1959.4,-47.01"/>
</g>
<!-- 51 -->
<g id="node52" class="node">
<title>51</title>
<ellipse fill="#ddfbd2" stroke="#b8f6a2" stroke-width="2" cx="2069.95" cy="-18" rx="37.78" ry="18"/>
<text text-anchor="middle" x="2069.95" y="-14.88" font-family="Century Gothic" font-size="10.00">leaf=&#45;4.18</text>
</g>
<!-- 28&#45;&gt;51 -->
<g id="edge51" class="edge">
<title>28&#45;&gt;51</title>
<path fill="none" stroke="#14bdeb" d="M2069.95,-72.08C2069.95,-64.8 2069.95,-56.19 2069.95,-48.05"/>
<polygon fill="#14bdeb" stroke="#14bdeb" points="2073.45,-48.18 2069.95,-38.18 2066.45,-48.18 2073.45,-48.18"/>
</g>
<!-- 52 -->
<g id="node53" class="node">
<title>52</title>
<ellipse fill="#ddfbd2" stroke="#b8f6a2" stroke-width="2" cx="2163.95" cy="-18" rx="37.78" ry="18"/>
<text text-anchor="middle" x="2163.95" y="-14.88" font-family="Century Gothic" font-size="10.00">leaf=&#45;6.48</text>
</g>
<!-- 28&#45;&gt;52 -->
<g id="edge52" class="edge">
<title>28&#45;&gt;52</title>
<path fill="none" stroke="#f4562a" d="M2093.67,-72.08C2106.18,-62.63 2121.65,-50.95 2134.88,-40.95"/>
<polygon fill="#f4562a" stroke="#f4562a" points="2136.97,-43.76 2142.84,-34.94 2132.75,-38.18 2136.97,-43.76"/>
</g>
</g>
</svg>
