<?xml version="1.0" encoding="UTF-8" standalone="no"?>
<!DOCTYPE svg PUBLIC "-//W3C//DTD SVG 1.1//EN"
 "http://www.w3.org/Graphics/SVG/1.1/DTD/svg11.dtd">
<!-- Generated by graphviz version 10.0.1 (20240210.2158)
 -->
<!-- Pages: 1 -->
<svg width="4168pt" height="425pt"
 viewBox="0.00 0.00 4168.28 424.50" xmlns="http://www.w3.org/2000/svg" xmlns:xlink="http://www.w3.org/1999/xlink">
<g id="graph0" class="graph" transform="scale(1 1) rotate(0) translate(4 420.5)">
<polygon fill="white" stroke="none" points="-4,4 -4,-420.5 4164.28,-420.5 4164.28,4 -4,4"/>
<!-- 0 -->
<g id="node1" class="node">
<title>0</title>
<path fill="#fdf4d9" stroke="#fbe9b1" stroke-width="2" d="M1905.47,-416.5C1905.47,-416.5 1806.97,-416.5 1806.97,-416.5 1800.97,-416.5 1794.97,-410.5 1794.97,-404.5 1794.97,-404.5 1794.97,-392.5 1794.97,-392.5 1794.97,-386.5 1800.97,-380.5 1806.97,-380.5 1806.97,-380.5 1905.47,-380.5 1905.47,-380.5 1911.47,-380.5 1917.47,-386.5 1917.47,-392.5 1917.47,-392.5 1917.47,-404.5 1917.47,-404.5 1917.47,-410.5 1911.47,-416.5 1905.47,-416.5"/>
<text text-anchor="middle" x="1856.22" y="-395.38" font-family="Century Gothic" font-size="10.00">p283_H2&lt;0.0599999987</text>
</g>
<!-- 1 -->
<g id="node2" class="node">
<title>1</title>
<path fill="#fdf4d9" stroke="#fbe9b1" stroke-width="2" d="M1566.35,-328C1566.35,-328 1464.1,-328 1464.1,-328 1458.1,-328 1452.1,-322 1452.1,-316 1452.1,-316 1452.1,-304 1452.1,-304 1452.1,-298 1458.1,-292 1464.1,-292 1464.1,-292 1566.35,-292 1566.35,-292 1572.35,-292 1578.35,-298 1578.35,-304 1578.35,-304 1578.35,-316 1578.35,-316 1578.35,-322 1572.35,-328 1566.35,-328"/>
<text text-anchor="middle" x="1515.22" y="-306.88" font-family="Century Gothic" font-size="10.00">p205_NCI&lt;&#45;0.579999983</text>
</g>
<!-- 0&#45;&gt;1 -->
<g id="edge1" class="edge">
<title>0&#45;&gt;1</title>
<path fill="none" stroke="#14bdeb" d="M1794.07,-381.74C1736.74,-367.19 1651.51,-345.57 1590.38,-330.06"/>
<polygon fill="#14bdeb" stroke="#14bdeb" points="1591.28,-326.68 1580.72,-327.62 1589.56,-333.47 1591.28,-326.68"/>
<text text-anchor="middle" x="1728.47" y="-349.2" font-family="Century Gothic" font-size="14.00">yes</text>
</g>
<!-- 2 -->
<g id="node3" class="node">
<title>2</title>
<path fill="#fdf4d9" stroke="#fbe9b1" stroke-width="2" d="M2565.35,-328C2565.35,-328 2469.1,-328 2469.1,-328 2463.1,-328 2457.1,-322 2457.1,-316 2457.1,-316 2457.1,-304 2457.1,-304 2457.1,-298 2463.1,-292 2469.1,-292 2469.1,-292 2565.35,-292 2565.35,-292 2571.35,-292 2577.35,-298 2577.35,-304 2577.35,-304 2577.35,-316 2577.35,-316 2577.35,-322 2571.35,-328 2565.35,-328"/>
<text text-anchor="middle" x="2517.22" y="-306.88" font-family="Century Gothic" font-size="10.00">p91_H2&lt;&#45;0.0900000036</text>
</g>
<!-- 0&#45;&gt;2 -->
<g id="edge2" class="edge">
<title>0&#45;&gt;2</title>
<path fill="none" stroke="#f4562a" d="M1918.41,-389.36C2041.29,-373.28 2314.59,-337.52 2445.12,-320.44"/>
<polygon fill="#f4562a" stroke="#f4562a" points="2445.2,-323.95 2454.66,-319.19 2444.29,-317.01 2445.2,-323.95"/>
<text text-anchor="middle" x="2255.22" y="-349.2" font-family="Century Gothic" font-size="14.00">no</text>
</g>
<!-- 3 -->
<g id="node4" class="node">
<title>3</title>
<path fill="#fdf4d9" stroke="#fbe9b1" stroke-width="2" d="M759.35,-255C759.35,-255 705.1,-255 705.1,-255 699.1,-255 693.1,-249 693.1,-243 693.1,-243 693.1,-231 693.1,-231 693.1,-225 699.1,-219 705.1,-219 705.1,-219 759.35,-219 759.35,-219 765.35,-219 771.35,-225 771.35,-231 771.35,-231 771.35,-243 771.35,-243 771.35,-249 765.35,-255 759.35,-255"/>
<text text-anchor="middle" x="732.22" y="-233.88" font-family="Century Gothic" font-size="10.00">p130_H2&lt;&#45;0.5</text>
</g>
<!-- 1&#45;&gt;3 -->
<g id="edge3" class="edge">
<title>1&#45;&gt;3</title>
<path fill="none" stroke="#14bdeb" d="M1451.14,-303.19C1299.6,-289.45 921.56,-255.17 783.63,-242.66"/>
<polygon fill="#14bdeb" stroke="#14bdeb" points="783.97,-239.18 773.7,-241.76 783.34,-246.15 783.97,-239.18"/>
</g>
<!-- 4 -->
<g id="node5" class="node">
<title>4</title>
<path fill="#fdf4d9" stroke="#fbe9b1" stroke-width="2" d="M1563.35,-255C1563.35,-255 1467.1,-255 1467.1,-255 1461.1,-255 1455.1,-249 1455.1,-243 1455.1,-243 1455.1,-231 1455.1,-231 1455.1,-225 1461.1,-219 1467.1,-219 1467.1,-219 1563.35,-219 1563.35,-219 1569.35,-219 1575.35,-225 1575.35,-231 1575.35,-231 1575.35,-243 1575.35,-243 1575.35,-249 1569.35,-255 1563.35,-255"/>
<text text-anchor="middle" x="1515.22" y="-233.88" font-family="Century Gothic" font-size="10.00">p91_H2&lt;&#45;0.0599999987</text>
</g>
<!-- 1&#45;&gt;4 -->
<g id="edge4" class="edge">
<title>1&#45;&gt;4</title>
<path fill="none" stroke="#f4562a" d="M1515.22,-291.08C1515.22,-283.8 1515.22,-275.19 1515.22,-267.05"/>
<polygon fill="#f4562a" stroke="#f4562a" points="1518.72,-267.18 1515.22,-257.18 1511.72,-267.18 1518.72,-267.18"/>
</g>
<!-- 5 -->
<g id="node34" class="node">
<title>5</title>
<path fill="#fdf4d9" stroke="#fbe9b1" stroke-width="2" d="M2562.72,-255C2562.72,-255 2471.72,-255 2471.72,-255 2465.72,-255 2459.72,-249 2459.72,-243 2459.72,-243 2459.72,-231 2459.72,-231 2459.72,-225 2465.72,-219 2471.72,-219 2471.72,-219 2562.72,-219 2562.72,-219 2568.72,-219 2574.72,-225 2574.72,-231 2574.72,-231 2574.72,-243 2574.72,-243 2574.72,-249 2568.72,-255 2562.72,-255"/>
<text text-anchor="middle" x="2517.22" y="-233.88" font-family="Century Gothic" font-size="10.00">p83_H2&lt;&#45;0.660000026</text>
</g>
<!-- 2&#45;&gt;5 -->
<g id="edge33" class="edge">
<title>2&#45;&gt;5</title>
<path fill="none" stroke="#14bdeb" d="M2517.22,-291.08C2517.22,-283.8 2517.22,-275.19 2517.22,-267.05"/>
<polygon fill="#14bdeb" stroke="#14bdeb" points="2520.72,-267.18 2517.22,-257.18 2513.72,-267.18 2520.72,-267.18"/>
</g>
<!-- 6 -->
<g id="node35" class="node">
<title>6</title>
<path fill="#fdf4d9" stroke="#fbe9b1" stroke-width="2" d="M3414.85,-255C3414.85,-255 3309.6,-255 3309.6,-255 3303.6,-255 3297.6,-249 3297.6,-243 3297.6,-243 3297.6,-231 3297.6,-231 3297.6,-225 3303.6,-219 3309.6,-219 3309.6,-219 3414.85,-219 3414.85,-219 3420.85,-219 3426.85,-225 3426.85,-231 3426.85,-231 3426.85,-243 3426.85,-243 3426.85,-249 3420.85,-255 3414.85,-255"/>
<text text-anchor="middle" x="3362.22" y="-233.88" font-family="Century Gothic" font-size="10.00">p289_MASS&lt;0.469999999</text>
</g>
<!-- 2&#45;&gt;6 -->
<g id="edge34" class="edge">
<title>2&#45;&gt;6</title>
<path fill="none" stroke="#f4562a" d="M2578.33,-303.87C2729.25,-291.18 3119.4,-258.4 3285.51,-244.45"/>
<polygon fill="#f4562a" stroke="#f4562a" points="3285.42,-247.97 3295.09,-243.64 3284.83,-240.99 3285.42,-247.97"/>
</g>
<!-- 7 -->
<g id="node6" class="node">
<title>7</title>
<path fill="#fdf4d9" stroke="#fbe9b1" stroke-width="2" d="M434.35,-182C434.35,-182 332.1,-182 332.1,-182 326.1,-182 320.1,-176 320.1,-170 320.1,-170 320.1,-158 320.1,-158 320.1,-152 326.1,-146 332.1,-146 332.1,-146 434.35,-146 434.35,-146 440.35,-146 446.35,-152 446.35,-158 446.35,-158 446.35,-170 446.35,-170 446.35,-176 440.35,-182 434.35,-182"/>
<text text-anchor="middle" x="383.22" y="-160.88" font-family="Century Gothic" font-size="10.00">p178_NCI&lt;&#45;0.680000007</text>
</g>
<!-- 3&#45;&gt;7 -->
<g id="edge5" class="edge">
<title>3&#45;&gt;7</title>
<path fill="none" stroke="#14bdeb" d="M692.19,-227.86C635.34,-216.29 530.18,-194.9 458.49,-180.31"/>
<polygon fill="#14bdeb" stroke="#14bdeb" points="459.26,-176.9 448.76,-178.33 457.86,-183.76 459.26,-176.9"/>
</g>
<!-- 8 -->
<g id="node7" class="node">
<title>8</title>
<path fill="#fdf4d9" stroke="#fbe9b1" stroke-width="2" d="M780.72,-182C780.72,-182 683.72,-182 683.72,-182 677.72,-182 671.72,-176 671.72,-170 671.72,-170 671.72,-158 671.72,-158 671.72,-152 677.72,-146 683.72,-146 683.72,-146 780.72,-146 780.72,-146 786.72,-146 792.72,-152 792.72,-158 792.72,-158 792.72,-170 792.72,-170 792.72,-176 786.72,-182 780.72,-182"/>
<text text-anchor="middle" x="732.22" y="-160.88" font-family="Century Gothic" font-size="10.00">p14_NCI&lt;&#45;0.319999993</text>
</g>
<!-- 3&#45;&gt;8 -->
<g id="edge6" class="edge">
<title>3&#45;&gt;8</title>
<path fill="none" stroke="#f4562a" d="M732.22,-218.08C732.22,-210.8 732.22,-202.19 732.22,-194.05"/>
<polygon fill="#f4562a" stroke="#f4562a" points="735.72,-194.18 732.22,-184.18 728.72,-194.18 735.72,-194.18"/>
</g>
<!-- 9 -->
<g id="node20" class="node">
<title>9</title>
<path fill="#fdf4d9" stroke="#fbe9b1" stroke-width="2" d="M1464.97,-182C1464.97,-182 1363.47,-182 1363.47,-182 1357.47,-182 1351.47,-176 1351.47,-170 1351.47,-170 1351.47,-158 1351.47,-158 1351.47,-152 1357.47,-146 1363.47,-146 1363.47,-146 1464.97,-146 1464.97,-146 1470.97,-146 1476.97,-152 1476.97,-158 1476.97,-158 1476.97,-170 1476.97,-170 1476.97,-176 1470.97,-182 1464.97,-182"/>
<text text-anchor="middle" x="1414.22" y="-160.88" font-family="Century Gothic" font-size="10.00">p202_H2&lt;&#45;0.0900000036</text>
</g>
<!-- 4&#45;&gt;9 -->
<g id="edge19" class="edge">
<title>4&#45;&gt;9</title>
<path fill="none" stroke="#14bdeb" d="M1489.73,-218.08C1477.41,-209.42 1462.44,-198.89 1449.08,-189.5"/>
<polygon fill="#14bdeb" stroke="#14bdeb" points="1451.13,-186.67 1440.94,-183.78 1447.11,-192.4 1451.13,-186.67"/>
</g>
<!-- 10 -->
<g id="node21" class="node">
<title>10</title>
<path fill="#fdf4d9" stroke="#fbe9b1" stroke-width="2" d="M1712.72,-182C1712.72,-182 1615.72,-182 1615.72,-182 1609.72,-182 1603.72,-176 1603.72,-170 1603.72,-170 1603.72,-158 1603.72,-158 1603.72,-152 1609.72,-146 1615.72,-146 1615.72,-146 1712.72,-146 1712.72,-146 1718.72,-146 1724.72,-152 1724.72,-158 1724.72,-158 1724.72,-170 1724.72,-170 1724.72,-176 1718.72,-182 1712.72,-182"/>
<text text-anchor="middle" x="1664.22" y="-160.88" font-family="Century Gothic" font-size="10.00">p84_NCI&lt;&#45;0.680000007</text>
</g>
<!-- 4&#45;&gt;10 -->
<g id="edge20" class="edge">
<title>4&#45;&gt;10</title>
<path fill="none" stroke="#f4562a" d="M1552.82,-218.08C1572.14,-208.88 1595.9,-197.56 1616.5,-187.74"/>
<polygon fill="#f4562a" stroke="#f4562a" points="1617.75,-191.02 1625.27,-183.56 1614.73,-184.7 1617.75,-191.02"/>
</g>
<!-- 15 -->
<g id="node8" class="node">
<title>15</title>
<path fill="#fdf4d9" stroke="#fbe9b1" stroke-width="2" d="M233.97,-109C233.97,-109 132.47,-109 132.47,-109 126.47,-109 120.47,-103 120.47,-97 120.47,-97 120.47,-85 120.47,-85 120.47,-79 126.47,-73 132.47,-73 132.47,-73 233.97,-73 233.97,-73 239.97,-73 245.97,-79 245.97,-85 245.97,-85 245.97,-97 245.97,-97 245.97,-103 239.97,-109 233.97,-109"/>
<text text-anchor="middle" x="183.22" y="-87.88" font-family="Century Gothic" font-size="10.00">p266_H2&lt;&#45;0.0599999987</text>
</g>
<!-- 7&#45;&gt;15 -->
<g id="edge7" class="edge">
<title>7&#45;&gt;15</title>
<path fill="none" stroke="#14bdeb" d="M332.75,-145.08C305.87,-135.54 272.59,-123.73 244.26,-113.67"/>
<polygon fill="#14bdeb" stroke="#14bdeb" points="245.69,-110.46 235.1,-110.42 243.35,-117.06 245.69,-110.46"/>
</g>
<!-- 16 -->
<g id="node9" class="node">
<title>16</title>
<path fill="#fdf4d9" stroke="#fbe9b1" stroke-width="2" d="M435.85,-109C435.85,-109 330.6,-109 330.6,-109 324.6,-109 318.6,-103 318.6,-97 318.6,-97 318.6,-85 318.6,-85 318.6,-79 324.6,-73 330.6,-73 330.6,-73 435.85,-73 435.85,-73 441.85,-73 447.85,-79 447.85,-85 447.85,-85 447.85,-97 447.85,-97 447.85,-103 441.85,-109 435.85,-109"/>
<text text-anchor="middle" x="383.22" y="-87.88" font-family="Century Gothic" font-size="10.00">p289_MASS&lt;0.469999999</text>
</g>
<!-- 7&#45;&gt;16 -->
<g id="edge8" class="edge">
<title>7&#45;&gt;16</title>
<path fill="none" stroke="#f4562a" d="M383.22,-145.08C383.22,-137.8 383.22,-129.19 383.22,-121.05"/>
<polygon fill="#f4562a" stroke="#f4562a" points="386.72,-121.18 383.22,-111.18 379.72,-121.18 386.72,-121.18"/>
</g>
<!-- 17 -->
<g id="node14" class="node">
<title>17</title>
<path fill="#fdf4d9" stroke="#fbe9b1" stroke-width="2" d="M740.35,-109C740.35,-109 644.1,-109 644.1,-109 638.1,-109 632.1,-103 632.1,-97 632.1,-97 632.1,-85 632.1,-85 632.1,-79 638.1,-73 644.1,-73 644.1,-73 740.35,-73 740.35,-73 746.35,-73 752.35,-79 752.35,-85 752.35,-85 752.35,-97 752.35,-97 752.35,-103 746.35,-109 740.35,-109"/>
<text text-anchor="middle" x="692.22" y="-87.88" font-family="Century Gothic" font-size="10.00">p88_H2&lt;&#45;0.0599999987</text>
</g>
<!-- 8&#45;&gt;17 -->
<g id="edge13" class="edge">
<title>8&#45;&gt;17</title>
<path fill="none" stroke="#14bdeb" d="M722.13,-145.08C717.78,-137.37 712.61,-128.18 707.79,-119.63"/>
<polygon fill="#14bdeb" stroke="#14bdeb" points="710.87,-117.98 702.92,-110.98 704.77,-121.41 710.87,-117.98"/>
</g>
<!-- 18 -->
<g id="node15" class="node">
<title>18</title>
<path fill="#fdf4d9" stroke="#fbe9b1" stroke-width="2" d="M868.1,-109C868.1,-109 782.35,-109 782.35,-109 776.35,-109 770.35,-103 770.35,-97 770.35,-97 770.35,-85 770.35,-85 770.35,-79 776.35,-73 782.35,-73 782.35,-73 868.1,-73 868.1,-73 874.1,-73 880.1,-79 880.1,-85 880.1,-85 880.1,-97 880.1,-97 880.1,-103 874.1,-109 868.1,-109"/>
<text text-anchor="middle" x="825.22" y="-87.88" font-family="Century Gothic" font-size="10.00">p2_H2&lt;&#45;0.340000004</text>
</g>
<!-- 8&#45;&gt;18 -->
<g id="edge14" class="edge">
<title>8&#45;&gt;18</title>
<path fill="none" stroke="#f4562a" d="M755.69,-145.08C766.92,-136.51 780.56,-126.1 792.77,-116.78"/>
<polygon fill="#f4562a" stroke="#f4562a" points="794.73,-119.68 800.56,-110.83 790.49,-114.12 794.73,-119.68"/>
</g>
<!-- 31 -->
<g id="node10" class="node">
<title>31</title>
<ellipse fill="#ddfbd2" stroke="#b8f6a2" stroke-width="2" cx="55.22" cy="-18" rx="55.22" ry="18"/>
<text text-anchor="middle" x="55.22" y="-14.88" font-family="Century Gothic" font-size="10.00">leaf=6.38937473</text>
</g>
<!-- 15&#45;&gt;31 -->
<g id="edge9" class="edge">
<title>15&#45;&gt;31</title>
<path fill="none" stroke="#14bdeb" d="M150.92,-72.08C133.17,-62.24 111.08,-49.98 92.59,-39.73"/>
<polygon fill="#14bdeb" stroke="#14bdeb" points="94.5,-36.79 84.06,-35 91.11,-42.91 94.5,-36.79"/>
</g>
<!-- 32 -->
<g id="node11" class="node">
<title>32</title>
<ellipse fill="#ddfbd2" stroke="#b8f6a2" stroke-width="2" cx="183.22" cy="-18" rx="55.22" ry="18"/>
<text text-anchor="middle" x="183.22" y="-14.88" font-family="Century Gothic" font-size="10.00">leaf=7.96658278</text>
</g>
<!-- 15&#45;&gt;32 -->
<g id="edge10" class="edge">
<title>15&#45;&gt;32</title>
<path fill="none" stroke="#f4562a" d="M183.22,-72.08C183.22,-64.8 183.22,-56.19 183.22,-48.05"/>
<polygon fill="#f4562a" stroke="#f4562a" points="186.72,-48.18 183.22,-38.18 179.72,-48.18 186.72,-48.18"/>
</g>
<!-- 33 -->
<g id="node12" class="node">
<title>33</title>
<ellipse fill="#ddfbd2" stroke="#b8f6a2" stroke-width="2" cx="311.22" cy="-18" rx="55.22" ry="18"/>
<text text-anchor="middle" x="311.22" y="-14.88" font-family="Century Gothic" font-size="10.00">leaf=5.13548565</text>
</g>
<!-- 16&#45;&gt;33 -->
<g id="edge11" class="edge">
<title>16&#45;&gt;33</title>
<path fill="none" stroke="#14bdeb" d="M365.05,-72.08C356.29,-63.44 345.64,-52.94 336.13,-43.56"/>
<polygon fill="#14bdeb" stroke="#14bdeb" points="338.8,-41.28 329.22,-36.75 333.89,-46.27 338.8,-41.28"/>
</g>
<!-- 34 -->
<g id="node13" class="node">
<title>34</title>
<ellipse fill="#ddfbd2" stroke="#b8f6a2" stroke-width="2" cx="439.22" cy="-18" rx="55.22" ry="18"/>
<text text-anchor="middle" x="439.22" y="-14.88" font-family="Century Gothic" font-size="10.00">leaf=3.26073813</text>
</g>
<!-- 16&#45;&gt;34 -->
<g id="edge12" class="edge">
<title>16&#45;&gt;34</title>
<path fill="none" stroke="#f4562a" d="M397.35,-72.08C403.8,-63.91 411.55,-54.08 418.63,-45.11"/>
<polygon fill="#f4562a" stroke="#f4562a" points="421.29,-47.38 424.74,-37.36 415.8,-43.05 421.29,-47.38"/>
</g>
<!-- 35 -->
<g id="node16" class="node">
<title>35</title>
<ellipse fill="#ddfbd2" stroke="#b8f6a2" stroke-width="2" cx="567.22" cy="-18" rx="55.22" ry="18"/>
<text text-anchor="middle" x="567.22" y="-14.88" font-family="Century Gothic" font-size="10.00">leaf=5.44752455</text>
</g>
<!-- 17&#45;&gt;35 -->
<g id="edge15" class="edge">
<title>17&#45;&gt;35</title>
<path fill="none" stroke="#14bdeb" d="M660.68,-72.08C643.55,-62.35 622.27,-50.27 604.34,-40.09"/>
<polygon fill="#14bdeb" stroke="#14bdeb" points="606.25,-37.14 595.82,-35.25 602.79,-43.23 606.25,-37.14"/>
</g>
<!-- 36 -->
<g id="node17" class="node">
<title>36</title>
<ellipse fill="#ddfbd2" stroke="#b8f6a2" stroke-width="2" cx="695.22" cy="-18" rx="55.22" ry="18"/>
<text text-anchor="middle" x="695.22" y="-14.88" font-family="Century Gothic" font-size="10.00">leaf=3.87970781</text>
</g>
<!-- 17&#45;&gt;36 -->
<g id="edge16" class="edge">
<title>17&#45;&gt;36</title>
<path fill="none" stroke="#f4562a" d="M692.98,-72.08C693.29,-64.8 693.65,-56.19 693.99,-48.05"/>
<polygon fill="#f4562a" stroke="#f4562a" points="697.49,-48.32 694.41,-38.18 690.49,-48.02 697.49,-48.32"/>
</g>
<!-- 37 -->
<g id="node18" class="node">
<title>37</title>
<ellipse fill="#ddfbd2" stroke="#b8f6a2" stroke-width="2" cx="823.22" cy="-18" rx="55.22" ry="18"/>
<text text-anchor="middle" x="823.22" y="-14.88" font-family="Century Gothic" font-size="10.00">leaf=5.62437439</text>
</g>
<!-- 18&#45;&gt;37 -->
<g id="edge17" class="edge">
<title>18&#45;&gt;37</title>
<path fill="none" stroke="#14bdeb" d="M824.72,-72.08C824.51,-64.8 824.27,-56.19 824.04,-48.05"/>
<polygon fill="#14bdeb" stroke="#14bdeb" points="827.54,-48.08 823.76,-38.18 820.54,-48.27 827.54,-48.08"/>
</g>
<!-- 38 -->
<g id="node19" class="node">
<title>38</title>
<ellipse fill="#ddfbd2" stroke="#b8f6a2" stroke-width="2" cx="951.22" cy="-18" rx="55.22" ry="18"/>
<text text-anchor="middle" x="951.22" y="-14.88" font-family="Century Gothic" font-size="10.00">leaf=1.33477437</text>
</g>
<!-- 18&#45;&gt;38 -->
<g id="edge18" class="edge">
<title>18&#45;&gt;38</title>
<path fill="none" stroke="#f4562a" d="M857.02,-72.08C874.28,-62.35 895.73,-50.27 913.8,-40.09"/>
<polygon fill="#f4562a" stroke="#f4562a" points="915.4,-43.2 922.4,-35.24 911.97,-37.1 915.4,-43.2"/>
</g>
<!-- 19 -->
<g id="node22" class="node">
<title>19</title>
<path fill="#fdf4d9" stroke="#fbe9b1" stroke-width="2" d="M1257.85,-109C1257.85,-109 1164.6,-109 1164.6,-109 1158.6,-109 1152.6,-103 1152.6,-97 1152.6,-97 1152.6,-85 1152.6,-85 1152.6,-79 1158.6,-73 1164.6,-73 1164.6,-73 1257.85,-73 1257.85,-73 1263.85,-73 1269.85,-79 1269.85,-85 1269.85,-85 1269.85,-97 1269.85,-97 1269.85,-103 1263.85,-109 1257.85,-109"/>
<text text-anchor="middle" x="1211.22" y="-87.88" font-family="Century Gothic" font-size="10.00">p161_H2&lt;0.159999996</text>
</g>
<!-- 9&#45;&gt;19 -->
<g id="edge21" class="edge">
<title>9&#45;&gt;19</title>
<path fill="none" stroke="#14bdeb" d="M1363,-145.08C1335.71,-135.54 1301.94,-123.73 1273.18,-113.67"/>
<polygon fill="#14bdeb" stroke="#14bdeb" points="1274.45,-110.41 1263.86,-110.41 1272.14,-117.02 1274.45,-110.41"/>
</g>
<!-- 20 -->
<g id="node23" class="node">
<title>20</title>
<path fill="#fdf4d9" stroke="#fbe9b1" stroke-width="2" d="M1460.85,-109C1460.85,-109 1367.6,-109 1367.6,-109 1361.6,-109 1355.6,-103 1355.6,-97 1355.6,-97 1355.6,-85 1355.6,-85 1355.6,-79 1361.6,-73 1367.6,-73 1367.6,-73 1460.85,-73 1460.85,-73 1466.85,-73 1472.85,-79 1472.85,-85 1472.85,-85 1472.85,-97 1472.85,-97 1472.85,-103 1466.85,-109 1460.85,-109"/>
<text text-anchor="middle" x="1414.22" y="-87.88" font-family="Century Gothic" font-size="10.00">p149_H2&lt;0.159999996</text>
</g>
<!-- 9&#45;&gt;20 -->
<g id="edge22" class="edge">
<title>9&#45;&gt;20</title>
<path fill="none" stroke="#f4562a" d="M1414.22,-145.08C1414.22,-137.8 1414.22,-129.19 1414.22,-121.05"/>
<polygon fill="#f4562a" stroke="#f4562a" points="1417.72,-121.18 1414.22,-111.18 1410.72,-121.18 1417.72,-121.18"/>
</g>
<!-- 21 -->
<g id="node28" class="node">
<title>21</title>
<path fill="#fdf4d9" stroke="#fbe9b1" stroke-width="2" d="M1715.35,-109C1715.35,-109 1613.1,-109 1613.1,-109 1607.1,-109 1601.1,-103 1601.1,-97 1601.1,-97 1601.1,-85 1601.1,-85 1601.1,-79 1607.1,-73 1613.1,-73 1613.1,-73 1715.35,-73 1715.35,-73 1721.35,-73 1727.35,-79 1727.35,-85 1727.35,-85 1727.35,-97 1727.35,-97 1727.35,-103 1721.35,-109 1715.35,-109"/>
<text text-anchor="middle" x="1664.22" y="-87.88" font-family="Century Gothic" font-size="10.00">p119_NCI&lt;&#45;0.680000007</text>
</g>
<!-- 10&#45;&gt;21 -->
<g id="edge27" class="edge">
<title>10&#45;&gt;21</title>
<path fill="none" stroke="#14bdeb" d="M1664.22,-145.08C1664.22,-137.8 1664.22,-129.19 1664.22,-121.05"/>
<polygon fill="#14bdeb" stroke="#14bdeb" points="1667.72,-121.18 1664.22,-111.18 1660.72,-121.18 1667.72,-121.18"/>
</g>
<!-- 22 -->
<g id="node29" class="node">
<title>22</title>
<path fill="#fdf4d9" stroke="#fbe9b1" stroke-width="2" d="M1911.85,-109C1911.85,-109 1806.6,-109 1806.6,-109 1800.6,-109 1794.6,-103 1794.6,-97 1794.6,-97 1794.6,-85 1794.6,-85 1794.6,-79 1800.6,-73 1806.6,-73 1806.6,-73 1911.85,-73 1911.85,-73 1917.85,-73 1923.85,-79 1923.85,-85 1923.85,-85 1923.85,-97 1923.85,-97 1923.85,-103 1917.85,-109 1911.85,-109"/>
<text text-anchor="middle" x="1859.22" y="-87.88" font-family="Century Gothic" font-size="10.00">p276_MASS&lt;0.699999988</text>
</g>
<!-- 10&#45;&gt;22 -->
<g id="edge28" class="edge">
<title>10&#45;&gt;22</title>
<path fill="none" stroke="#f4562a" d="M1713.43,-145.08C1739.52,-135.58 1771.8,-123.83 1799.34,-113.8"/>
<polygon fill="#f4562a" stroke="#f4562a" points="1800.41,-117.14 1808.61,-110.43 1798.01,-110.56 1800.41,-117.14"/>
</g>
<!-- 39 -->
<g id="node24" class="node">
<title>39</title>
<ellipse fill="#ddfbd2" stroke="#b8f6a2" stroke-width="2" cx="1081.22" cy="-18" rx="57.06" ry="18"/>
<text text-anchor="middle" x="1081.22" y="-14.88" font-family="Century Gothic" font-size="10.00">leaf=&#45;1.75340354</text>
</g>
<!-- 19&#45;&gt;39 -->
<g id="edge23" class="edge">
<title>19&#45;&gt;39</title>
<path fill="none" stroke="#14bdeb" d="M1178.42,-72.08C1160.52,-62.31 1138.27,-50.16 1119.57,-39.94"/>
<polygon fill="#14bdeb" stroke="#14bdeb" points="1121.38,-36.95 1110.93,-35.22 1118.03,-43.09 1121.38,-36.95"/>
</g>
<!-- 40 -->
<g id="node25" class="node">
<title>40</title>
<ellipse fill="#ddfbd2" stroke="#b8f6a2" stroke-width="2" cx="1211.22" cy="-18" rx="55.22" ry="18"/>
<text text-anchor="middle" x="1211.22" y="-14.88" font-family="Century Gothic" font-size="10.00">leaf=1.60215223</text>
</g>
<!-- 19&#45;&gt;40 -->
<g id="edge24" class="edge">
<title>19&#45;&gt;40</title>
<path fill="none" stroke="#f4562a" d="M1211.22,-72.08C1211.22,-64.8 1211.22,-56.19 1211.22,-48.05"/>
<polygon fill="#f4562a" stroke="#f4562a" points="1214.72,-48.18 1211.22,-38.18 1207.72,-48.18 1214.72,-48.18"/>
</g>
<!-- 41 -->
<g id="node26" class="node">
<title>41</title>
<ellipse fill="#ddfbd2" stroke="#b8f6a2" stroke-width="2" cx="1341.22" cy="-18" rx="57.06" ry="18"/>
<text text-anchor="middle" x="1341.22" y="-14.88" font-family="Century Gothic" font-size="10.00">leaf=&#45;3.82078719</text>
</g>
<!-- 20&#45;&gt;41 -->
<g id="edge25" class="edge">
<title>20&#45;&gt;41</title>
<path fill="none" stroke="#14bdeb" d="M1395.8,-72.08C1386.98,-63.5 1376.27,-53.09 1366.69,-43.77"/>
<polygon fill="#14bdeb" stroke="#14bdeb" points="1369.32,-41.45 1359.72,-36.99 1364.44,-46.47 1369.32,-41.45"/>
</g>
<!-- 42 -->
<g id="node27" class="node">
<title>42</title>
<ellipse fill="#ddfbd2" stroke="#b8f6a2" stroke-width="2" cx="1473.22" cy="-18" rx="57.06" ry="18"/>
<text text-anchor="middle" x="1473.22" y="-14.88" font-family="Century Gothic" font-size="10.00">leaf=&#45;8.04637527</text>
</g>
<!-- 20&#45;&gt;42 -->
<g id="edge26" class="edge">
<title>20&#45;&gt;42</title>
<path fill="none" stroke="#f4562a" d="M1429.11,-72.08C1435.97,-63.83 1444.24,-53.87 1451.76,-44.82"/>
<polygon fill="#f4562a" stroke="#f4562a" points="1454.28,-47.27 1457.98,-37.34 1448.9,-42.79 1454.28,-47.27"/>
</g>
<!-- 43 -->
<g id="node30" class="node">
<title>43</title>
<ellipse fill="#ddfbd2" stroke="#b8f6a2" stroke-width="2" cx="1603.22" cy="-18" rx="55.22" ry="18"/>
<text text-anchor="middle" x="1603.22" y="-14.88" font-family="Century Gothic" font-size="10.00">leaf=4.28366041</text>
</g>
<!-- 21&#45;&gt;43 -->
<g id="edge29" class="edge">
<title>21&#45;&gt;43</title>
<path fill="none" stroke="#14bdeb" d="M1648.83,-72.08C1641.73,-63.83 1633.18,-53.87 1625.41,-44.82"/>
<polygon fill="#14bdeb" stroke="#14bdeb" points="1628.14,-42.63 1618.96,-37.32 1622.83,-47.19 1628.14,-42.63"/>
</g>
<!-- 44 -->
<g id="node31" class="node">
<title>44</title>
<ellipse fill="#ddfbd2" stroke="#b8f6a2" stroke-width="2" cx="1731.22" cy="-18" rx="55.22" ry="18"/>
<text text-anchor="middle" x="1731.22" y="-14.88" font-family="Century Gothic" font-size="10.00">leaf=2.74312449</text>
</g>
<!-- 21&#45;&gt;44 -->
<g id="edge30" class="edge">
<title>21&#45;&gt;44</title>
<path fill="none" stroke="#f4562a" d="M1681.13,-72.08C1689,-63.74 1698.51,-53.66 1707.12,-44.54"/>
<polygon fill="#f4562a" stroke="#f4562a" points="1709.66,-46.95 1713.97,-37.28 1704.56,-42.15 1709.66,-46.95"/>
</g>
<!-- 45 -->
<g id="node32" class="node">
<title>45</title>
<ellipse fill="#ddfbd2" stroke="#b8f6a2" stroke-width="2" cx="1859.22" cy="-18" rx="55.22" ry="18"/>
<text text-anchor="middle" x="1859.22" y="-14.88" font-family="Century Gothic" font-size="10.00">leaf=2.18762469</text>
</g>
<!-- 22&#45;&gt;45 -->
<g id="edge31" class="edge">
<title>22&#45;&gt;45</title>
<path fill="none" stroke="#14bdeb" d="M1859.22,-72.08C1859.22,-64.8 1859.22,-56.19 1859.22,-48.05"/>
<polygon fill="#14bdeb" stroke="#14bdeb" points="1862.72,-48.18 1859.22,-38.18 1855.72,-48.18 1862.72,-48.18"/>
</g>
<!-- 46 -->
<g id="node33" class="node">
<title>46</title>
<ellipse fill="#ddfbd2" stroke="#b8f6a2" stroke-width="2" cx="1989.22" cy="-18" rx="57.06" ry="18"/>
<text text-anchor="middle" x="1989.22" y="-14.88" font-family="Century Gothic" font-size="10.00">leaf=&#45;0.48500061</text>
</g>
<!-- 22&#45;&gt;46 -->
<g id="edge32" class="edge">
<title>22&#45;&gt;46</title>
<path fill="none" stroke="#f4562a" d="M1892.03,-72.08C1909.92,-62.31 1932.18,-50.16 1950.87,-39.94"/>
<polygon fill="#f4562a" stroke="#f4562a" points="1952.42,-43.09 1959.51,-35.22 1949.06,-36.95 1952.42,-43.09"/>
</g>
<!-- 11 -->
<g id="node36" class="node">
<title>11</title>
<path fill="#fdf4d9" stroke="#fbe9b1" stroke-width="2" d="M2462.97,-182C2462.97,-182 2361.47,-182 2361.47,-182 2355.47,-182 2349.47,-176 2349.47,-170 2349.47,-170 2349.47,-158 2349.47,-158 2349.47,-152 2355.47,-146 2361.47,-146 2361.47,-146 2462.97,-146 2462.97,-146 2468.97,-146 2474.97,-152 2474.97,-158 2474.97,-158 2474.97,-170 2474.97,-170 2474.97,-176 2468.97,-182 2462.97,-182"/>
<text text-anchor="middle" x="2412.22" y="-160.88" font-family="Century Gothic" font-size="10.00">p106_H2&lt;&#45;0.0900000036</text>
</g>
<!-- 5&#45;&gt;11 -->
<g id="edge35" class="edge">
<title>5&#45;&gt;11</title>
<path fill="none" stroke="#14bdeb" d="M2490.72,-218.08C2477.79,-209.34 2462.04,-198.69 2448.05,-189.23"/>
<polygon fill="#14bdeb" stroke="#14bdeb" points="2450.21,-186.46 2439.96,-183.76 2446.29,-192.26 2450.21,-186.46"/>
</g>
<!-- 12 -->
<g id="node37" class="node">
<title>12</title>
<path fill="#fdf4d9" stroke="#fbe9b1" stroke-width="2" d="M2755.85,-182C2755.85,-182 2662.6,-182 2662.6,-182 2656.6,-182 2650.6,-176 2650.6,-170 2650.6,-170 2650.6,-158 2650.6,-158 2650.6,-152 2656.6,-146 2662.6,-146 2662.6,-146 2755.85,-146 2755.85,-146 2761.85,-146 2767.85,-152 2767.85,-158 2767.85,-158 2767.85,-170 2767.85,-170 2767.85,-176 2761.85,-182 2755.85,-182"/>
<text text-anchor="middle" x="2709.22" y="-160.88" font-family="Century Gothic" font-size="10.00">p87_H2&lt;0.0599999987</text>
</g>
<!-- 5&#45;&gt;12 -->
<g id="edge36" class="edge">
<title>5&#45;&gt;12</title>
<path fill="none" stroke="#f4562a" d="M2565.67,-218.08C2591.37,-208.58 2623.14,-196.83 2650.26,-186.8"/>
<polygon fill="#f4562a" stroke="#f4562a" points="2651.2,-190.19 2659.37,-183.44 2648.77,-183.62 2651.2,-190.19"/>
</g>
<!-- 13 -->
<g id="node50" class="node">
<title>13</title>
<path fill="#fdf4d9" stroke="#fbe9b1" stroke-width="2" d="M3412.22,-182C3412.22,-182 3312.22,-182 3312.22,-182 3306.22,-182 3300.22,-176 3300.22,-170 3300.22,-170 3300.22,-158 3300.22,-158 3300.22,-152 3306.22,-146 3312.22,-146 3312.22,-146 3412.22,-146 3412.22,-146 3418.22,-146 3424.22,-152 3424.22,-158 3424.22,-158 3424.22,-170 3424.22,-170 3424.22,-176 3418.22,-182 3412.22,-182"/>
<text text-anchor="middle" x="3362.22" y="-160.88" font-family="Century Gothic" font-size="10.00">p95_MASS&lt;0.469999999</text>
</g>
<!-- 6&#45;&gt;13 -->
<g id="edge49" class="edge">
<title>6&#45;&gt;13</title>
<path fill="none" stroke="#14bdeb" d="M3362.22,-218.08C3362.22,-210.8 3362.22,-202.19 3362.22,-194.05"/>
<polygon fill="#14bdeb" stroke="#14bdeb" points="3365.72,-194.18 3362.22,-184.18 3358.72,-194.18 3365.72,-194.18"/>
</g>
<!-- 14 -->
<g id="node51" class="node">
<title>14</title>
<path fill="#fdf4d9" stroke="#fbe9b1" stroke-width="2" d="M3815.35,-182C3815.35,-182 3719.1,-182 3719.1,-182 3713.1,-182 3707.1,-176 3707.1,-170 3707.1,-170 3707.1,-158 3707.1,-158 3707.1,-152 3713.1,-146 3719.1,-146 3719.1,-146 3815.35,-146 3815.35,-146 3821.35,-146 3827.35,-152 3827.35,-158 3827.35,-158 3827.35,-170 3827.35,-170 3827.35,-176 3821.35,-182 3815.35,-182"/>
<text text-anchor="middle" x="3767.22" y="-160.88" font-family="Century Gothic" font-size="10.00">p130_H2&lt;&#45;0.660000026</text>
</g>
<!-- 6&#45;&gt;14 -->
<g id="edge50" class="edge">
<title>6&#45;&gt;14</title>
<path fill="none" stroke="#f4562a" d="M3427.74,-224.51C3500.89,-211.69 3618.92,-191 3694.77,-177.7"/>
<polygon fill="#f4562a" stroke="#f4562a" points="3695.37,-181.15 3704.61,-175.98 3694.16,-174.26 3695.37,-181.15"/>
</g>
<!-- 23 -->
<g id="node38" class="node">
<title>23</title>
<path fill="#fdf4d9" stroke="#fbe9b1" stroke-width="2" d="M2301.72,-109C2301.72,-109 2204.72,-109 2204.72,-109 2198.72,-109 2192.72,-103 2192.72,-97 2192.72,-97 2192.72,-85 2192.72,-85 2192.72,-79 2198.72,-73 2204.72,-73 2204.72,-73 2301.72,-73 2301.72,-73 2307.72,-73 2313.72,-79 2313.72,-85 2313.72,-85 2313.72,-97 2313.72,-97 2313.72,-103 2307.72,-109 2301.72,-109"/>
<text text-anchor="middle" x="2253.22" y="-87.88" font-family="Century Gothic" font-size="10.00">p81_NCI&lt;&#45;0.460000008</text>
</g>
<!-- 11&#45;&gt;23 -->
<g id="edge37" class="edge">
<title>11&#45;&gt;23</title>
<path fill="none" stroke="#14bdeb" d="M2372.1,-145.08C2351.29,-135.79 2325.67,-124.35 2303.54,-114.47"/>
<polygon fill="#14bdeb" stroke="#14bdeb" points="2305.27,-111.41 2294.71,-110.53 2302.42,-117.8 2305.27,-111.41"/>
</g>
<!-- 24 -->
<g id="node39" class="node">
<title>24</title>
<path fill="#fdf4d9" stroke="#fbe9b1" stroke-width="2" d="M2463.35,-109C2463.35,-109 2361.1,-109 2361.1,-109 2355.1,-109 2349.1,-103 2349.1,-97 2349.1,-97 2349.1,-85 2349.1,-85 2349.1,-79 2355.1,-73 2361.1,-73 2361.1,-73 2463.35,-73 2463.35,-73 2469.35,-73 2475.35,-79 2475.35,-85 2475.35,-85 2475.35,-97 2475.35,-97 2475.35,-103 2469.35,-109 2463.35,-109"/>
<text text-anchor="middle" x="2412.22" y="-87.88" font-family="Century Gothic" font-size="10.00">p110_NCI&lt;&#45;0.810000002</text>
</g>
<!-- 11&#45;&gt;24 -->
<g id="edge38" class="edge">
<title>11&#45;&gt;24</title>
<path fill="none" stroke="#f4562a" d="M2412.22,-145.08C2412.22,-137.8 2412.22,-129.19 2412.22,-121.05"/>
<polygon fill="#f4562a" stroke="#f4562a" points="2415.72,-121.18 2412.22,-111.18 2408.72,-121.18 2415.72,-121.18"/>
</g>
<!-- 25 -->
<g id="node44" class="node">
<title>25</title>
<path fill="#fdf4d9" stroke="#fbe9b1" stroke-width="2" d="M2757.72,-109C2757.72,-109 2660.72,-109 2660.72,-109 2654.72,-109 2648.72,-103 2648.72,-97 2648.72,-97 2648.72,-85 2648.72,-85 2648.72,-79 2654.72,-73 2660.72,-73 2660.72,-73 2757.72,-73 2757.72,-73 2763.72,-73 2769.72,-79 2769.72,-85 2769.72,-85 2769.72,-97 2769.72,-97 2769.72,-103 2763.72,-109 2757.72,-109"/>
<text text-anchor="middle" x="2709.22" y="-87.88" font-family="Century Gothic" font-size="10.00">p39_NCI&lt;&#45;0.319999993</text>
</g>
<!-- 12&#45;&gt;25 -->
<g id="edge43" class="edge">
<title>12&#45;&gt;25</title>
<path fill="none" stroke="#14bdeb" d="M2709.22,-145.08C2709.22,-137.8 2709.22,-129.19 2709.22,-121.05"/>
<polygon fill="#14bdeb" stroke="#14bdeb" points="2712.72,-121.18 2709.22,-111.18 2705.72,-121.18 2712.72,-121.18"/>
</g>
<!-- 26 -->
<g id="node45" class="node">
<title>26</title>
<path fill="#fdf4d9" stroke="#fbe9b1" stroke-width="2" d="M2959.85,-109C2959.85,-109 2866.6,-109 2866.6,-109 2860.6,-109 2854.6,-103 2854.6,-97 2854.6,-97 2854.6,-85 2854.6,-85 2854.6,-79 2860.6,-73 2866.6,-73 2866.6,-73 2959.85,-73 2959.85,-73 2965.85,-73 2971.85,-79 2971.85,-85 2971.85,-85 2971.85,-97 2971.85,-97 2971.85,-103 2965.85,-109 2959.85,-109"/>
<text text-anchor="middle" x="2913.22" y="-87.88" font-family="Century Gothic" font-size="10.00">p348_H2&lt;0.119999997</text>
</g>
<!-- 12&#45;&gt;26 -->
<g id="edge44" class="edge">
<title>12&#45;&gt;26</title>
<path fill="none" stroke="#f4562a" d="M2760.7,-145.08C2788.12,-135.54 2822.06,-123.73 2850.96,-113.67"/>
<polygon fill="#f4562a" stroke="#f4562a" points="2852.04,-117 2860.33,-110.41 2849.74,-110.39 2852.04,-117"/>
</g>
<!-- 47 -->
<g id="node40" class="node">
<title>47</title>
<ellipse fill="#ddfbd2" stroke="#b8f6a2" stroke-width="2" cx="2121.22" cy="-18" rx="57.06" ry="18"/>
<text text-anchor="middle" x="2121.22" y="-14.88" font-family="Century Gothic" font-size="10.00">leaf=&#45;9.75720501</text>
</g>
<!-- 23&#45;&gt;47 -->
<g id="edge39" class="edge">
<title>23&#45;&gt;47</title>
<path fill="none" stroke="#14bdeb" d="M2219.91,-72.08C2201.53,-62.19 2178.61,-49.87 2159.49,-39.59"/>
<polygon fill="#14bdeb" stroke="#14bdeb" points="2161.4,-36.64 2150.93,-34.98 2158.08,-42.8 2161.4,-36.64"/>
</g>
<!-- 48 -->
<g id="node41" class="node">
<title>48</title>
<ellipse fill="#ddfbd2" stroke="#b8f6a2" stroke-width="2" cx="2253.22" cy="-18" rx="57.06" ry="18"/>
<text text-anchor="middle" x="2253.22" y="-14.88" font-family="Century Gothic" font-size="10.00">leaf=&#45;11.2686644</text>
</g>
<!-- 23&#45;&gt;48 -->
<g id="edge40" class="edge">
<title>23&#45;&gt;48</title>
<path fill="none" stroke="#f4562a" d="M2253.22,-72.08C2253.22,-64.8 2253.22,-56.19 2253.22,-48.05"/>
<polygon fill="#f4562a" stroke="#f4562a" points="2256.72,-48.18 2253.22,-38.18 2249.72,-48.18 2256.72,-48.18"/>
</g>
<!-- 49 -->
<g id="node42" class="node">
<title>49</title>
<ellipse fill="#ddfbd2" stroke="#b8f6a2" stroke-width="2" cx="2385.22" cy="-18" rx="57.06" ry="18"/>
<text text-anchor="middle" x="2385.22" y="-14.88" font-family="Century Gothic" font-size="10.00">leaf=&#45;7.30895948</text>
</g>
<!-- 24&#45;&gt;49 -->
<g id="edge41" class="edge">
<title>24&#45;&gt;49</title>
<path fill="none" stroke="#14bdeb" d="M2405.41,-72.08C2402.54,-64.54 2399.13,-55.59 2395.94,-47.2"/>
<polygon fill="#14bdeb" stroke="#14bdeb" points="2399.3,-46.18 2392.48,-38.08 2392.76,-48.67 2399.3,-46.18"/>
</g>
<!-- 50 -->
<g id="node43" class="node">
<title>50</title>
<ellipse fill="#ddfbd2" stroke="#b8f6a2" stroke-width="2" cx="2517.22" cy="-18" rx="57.06" ry="18"/>
<text text-anchor="middle" x="2517.22" y="-14.88" font-family="Century Gothic" font-size="10.00">leaf=&#45;11.3756256</text>
</g>
<!-- 24&#45;&gt;50 -->
<g id="edge42" class="edge">
<title>24&#45;&gt;50</title>
<path fill="none" stroke="#f4562a" d="M2438.72,-72.08C2452.47,-62.78 2469.41,-51.33 2484.03,-41.44"/>
<polygon fill="#f4562a" stroke="#f4562a" points="2485.67,-44.56 2491.99,-36.06 2481.75,-38.76 2485.67,-44.56"/>
</g>
<!-- 51 -->
<g id="node46" class="node">
<title>51</title>
<ellipse fill="#ddfbd2" stroke="#b8f6a2" stroke-width="2" cx="2649.22" cy="-18" rx="57.06" ry="18"/>
<text text-anchor="middle" x="2649.22" y="-14.88" font-family="Century Gothic" font-size="10.00">leaf=&#45;10.6864958</text>
</g>
<!-- 25&#45;&gt;51 -->
<g id="edge45" class="edge">
<title>25&#45;&gt;51</title>
<path fill="none" stroke="#14bdeb" d="M2694.08,-72.08C2687.1,-63.83 2678.69,-53.87 2671.04,-44.82"/>
<polygon fill="#14bdeb" stroke="#14bdeb" points="2673.84,-42.71 2664.71,-37.33 2668.49,-47.23 2673.84,-42.71"/>
</g>
<!-- 52 -->
<g id="node47" class="node">
<title>52</title>
<ellipse fill="#ddfbd2" stroke="#b8f6a2" stroke-width="2" cx="2781.22" cy="-18" rx="57.06" ry="18"/>
<text text-anchor="middle" x="2781.22" y="-14.88" font-family="Century Gothic" font-size="10.00">leaf=&#45;4.00062561</text>
</g>
<!-- 25&#45;&gt;52 -->
<g id="edge46" class="edge">
<title>25&#45;&gt;52</title>
<path fill="none" stroke="#f4562a" d="M2727.39,-72.08C2736.15,-63.44 2746.8,-52.94 2756.31,-43.56"/>
<polygon fill="#f4562a" stroke="#f4562a" points="2758.55,-46.27 2763.22,-36.75 2753.64,-41.28 2758.55,-46.27"/>
</g>
<!-- 53 -->
<g id="node48" class="node">
<title>53</title>
<ellipse fill="#ddfbd2" stroke="#b8f6a2" stroke-width="2" cx="2913.22" cy="-18" rx="57.06" ry="18"/>
<text text-anchor="middle" x="2913.22" y="-14.88" font-family="Century Gothic" font-size="10.00">leaf=&#45;6.26070023</text>
</g>
<!-- 26&#45;&gt;53 -->
<g id="edge47" class="edge">
<title>26&#45;&gt;53</title>
<path fill="none" stroke="#14bdeb" d="M2913.22,-72.08C2913.22,-64.8 2913.22,-56.19 2913.22,-48.05"/>
<polygon fill="#14bdeb" stroke="#14bdeb" points="2916.72,-48.18 2913.22,-38.18 2909.72,-48.18 2916.72,-48.18"/>
</g>
<!-- 54 -->
<g id="node49" class="node">
<title>54</title>
<ellipse fill="#ddfbd2" stroke="#b8f6a2" stroke-width="2" cx="3045.22" cy="-18" rx="57.06" ry="18"/>
<text text-anchor="middle" x="3045.22" y="-14.88" font-family="Century Gothic" font-size="10.00">leaf=&#45;8.17102814</text>
</g>
<!-- 26&#45;&gt;54 -->
<g id="edge48" class="edge">
<title>26&#45;&gt;54</title>
<path fill="none" stroke="#f4562a" d="M2946.53,-72.08C2964.92,-62.19 2987.83,-49.87 3006.95,-39.59"/>
<polygon fill="#f4562a" stroke="#f4562a" points="3008.36,-42.8 3015.51,-34.98 3005.04,-36.64 3008.36,-42.8"/>
</g>
<!-- 27 -->
<g id="node52" class="node">
<title>27</title>
<path fill="#fdf4d9" stroke="#fbe9b1" stroke-width="2" d="M3349.85,-109C3349.85,-109 3256.6,-109 3256.6,-109 3250.6,-109 3244.6,-103 3244.6,-97 3244.6,-97 3244.6,-85 3244.6,-85 3244.6,-79 3250.6,-73 3256.6,-73 3256.6,-73 3349.85,-73 3349.85,-73 3355.85,-73 3361.85,-79 3361.85,-85 3361.85,-85 3361.85,-97 3361.85,-97 3361.85,-103 3355.85,-109 3349.85,-109"/>
<text text-anchor="middle" x="3303.22" y="-87.88" font-family="Century Gothic" font-size="10.00">p119_H2&lt;0.159999996</text>
</g>
<!-- 13&#45;&gt;27 -->
<g id="edge51" class="edge">
<title>13&#45;&gt;27</title>
<path fill="none" stroke="#14bdeb" d="M3347.33,-145.08C3340.64,-137.03 3332.61,-127.37 3325.25,-118.51"/>
<polygon fill="#14bdeb" stroke="#14bdeb" points="3327.95,-116.28 3318.87,-110.83 3322.57,-120.76 3327.95,-116.28"/>
</g>
<!-- 28 -->
<g id="node53" class="node">
<title>28</title>
<path fill="#fdf4d9" stroke="#fbe9b1" stroke-width="2" d="M3459.72,-109C3459.72,-109 3410.72,-109 3410.72,-109 3404.72,-109 3398.72,-103 3398.72,-97 3398.72,-97 3398.72,-85 3398.72,-85 3398.72,-79 3404.72,-73 3410.72,-73 3410.72,-73 3459.72,-73 3459.72,-73 3465.72,-73 3471.72,-79 3471.72,-85 3471.72,-85 3471.72,-97 3471.72,-97 3471.72,-103 3465.72,-109 3459.72,-109"/>
<text text-anchor="middle" x="3435.22" y="-87.88" font-family="Century Gothic" font-size="10.00">p97_H2&lt;&#45;0.5</text>
</g>
<!-- 13&#45;&gt;28 -->
<g id="edge52" class="edge">
<title>13&#45;&gt;28</title>
<path fill="none" stroke="#f4562a" d="M3380.64,-145.08C3389.11,-136.84 3399.33,-126.91 3408.61,-117.88"/>
<polygon fill="#f4562a" stroke="#f4562a" points="3410.99,-120.45 3415.72,-110.97 3406.11,-115.43 3410.99,-120.45"/>
</g>
<!-- 29 -->
<g id="node58" class="node">
<title>29</title>
<path fill="#fdf4d9" stroke="#fbe9b1" stroke-width="2" d="M3818.35,-109C3818.35,-109 3716.1,-109 3716.1,-109 3710.1,-109 3704.1,-103 3704.1,-97 3704.1,-97 3704.1,-85 3704.1,-85 3704.1,-79 3710.1,-73 3716.1,-73 3716.1,-73 3818.35,-73 3818.35,-73 3824.35,-73 3830.35,-79 3830.35,-85 3830.35,-85 3830.35,-97 3830.35,-97 3830.35,-103 3824.35,-109 3818.35,-109"/>
<text text-anchor="middle" x="3767.22" y="-87.88" font-family="Century Gothic" font-size="10.00">p278_NCI&lt;&#45;0.610000014</text>
</g>
<!-- 14&#45;&gt;29 -->
<g id="edge57" class="edge">
<title>14&#45;&gt;29</title>
<path fill="none" stroke="#14bdeb" d="M3767.22,-145.08C3767.22,-137.8 3767.22,-129.19 3767.22,-121.05"/>
<polygon fill="#14bdeb" stroke="#14bdeb" points="3770.72,-121.18 3767.22,-111.18 3763.72,-121.18 3770.72,-121.18"/>
</g>
<!-- 30 -->
<g id="node59" class="node">
<title>30</title>
<path fill="#fdf4d9" stroke="#fbe9b1" stroke-width="2" d="M4019.35,-109C4019.35,-109 3923.1,-109 3923.1,-109 3917.1,-109 3911.1,-103 3911.1,-97 3911.1,-97 3911.1,-85 3911.1,-85 3911.1,-79 3917.1,-73 3923.1,-73 3923.1,-73 4019.35,-73 4019.35,-73 4025.35,-73 4031.35,-79 4031.35,-85 4031.35,-85 4031.35,-97 4031.35,-97 4031.35,-103 4025.35,-109 4019.35,-109"/>
<text text-anchor="middle" x="3971.22" y="-87.88" font-family="Century Gothic" font-size="10.00">p16_H2&lt;&#45;0.0599999987</text>
</g>
<!-- 14&#45;&gt;30 -->
<g id="edge58" class="edge">
<title>14&#45;&gt;30</title>
<path fill="none" stroke="#f4562a" d="M3818.7,-145.08C3846.12,-135.54 3880.06,-123.73 3908.96,-113.67"/>
<polygon fill="#f4562a" stroke="#f4562a" points="3910.04,-117 3918.33,-110.41 3907.74,-110.39 3910.04,-117"/>
</g>
<!-- 55 -->
<g id="node54" class="node">
<title>55</title>
<ellipse fill="#ddfbd2" stroke="#b8f6a2" stroke-width="2" cx="3175.22" cy="-18" rx="55.22" ry="18"/>
<text text-anchor="middle" x="3175.22" y="-14.88" font-family="Century Gothic" font-size="10.00">leaf=1.45770776</text>
</g>
<!-- 27&#45;&gt;55 -->
<g id="edge53" class="edge">
<title>27&#45;&gt;55</title>
<path fill="none" stroke="#14bdeb" d="M3270.92,-72.08C3253.17,-62.24 3231.08,-49.98 3212.59,-39.73"/>
<polygon fill="#14bdeb" stroke="#14bdeb" points="3214.5,-36.79 3204.06,-35 3211.11,-42.91 3214.5,-36.79"/>
</g>
<!-- 56 -->
<g id="node55" class="node">
<title>56</title>
<ellipse fill="#ddfbd2" stroke="#b8f6a2" stroke-width="2" cx="3303.22" cy="-18" rx="55.22" ry="18"/>
<text text-anchor="middle" x="3303.22" y="-14.88" font-family="Century Gothic" font-size="10.00">leaf=3.13206673</text>
</g>
<!-- 27&#45;&gt;56 -->
<g id="edge54" class="edge">
<title>27&#45;&gt;56</title>
<path fill="none" stroke="#f4562a" d="M3303.22,-72.08C3303.22,-64.8 3303.22,-56.19 3303.22,-48.05"/>
<polygon fill="#f4562a" stroke="#f4562a" points="3306.72,-48.18 3303.22,-38.18 3299.72,-48.18 3306.72,-48.18"/>
</g>
<!-- 57 -->
<g id="node56" class="node">
<title>57</title>
<ellipse fill="#ddfbd2" stroke="#b8f6a2" stroke-width="2" cx="3435.22" cy="-18" rx="58.43" ry="18"/>
<text text-anchor="middle" x="3435.22" y="-14.88" font-family="Century Gothic" font-size="10.00">leaf=0.849374413</text>
</g>
<!-- 28&#45;&gt;57 -->
<g id="edge55" class="edge">
<title>28&#45;&gt;57</title>
<path fill="none" stroke="#14bdeb" d="M3435.22,-72.08C3435.22,-64.8 3435.22,-56.19 3435.22,-48.05"/>
<polygon fill="#14bdeb" stroke="#14bdeb" points="3438.72,-48.18 3435.22,-38.18 3431.72,-48.18 3438.72,-48.18"/>
</g>
<!-- 58 -->
<g id="node57" class="node">
<title>58</title>
<ellipse fill="#ddfbd2" stroke="#b8f6a2" stroke-width="2" cx="3572.22" cy="-18" rx="60.27" ry="18"/>
<text text-anchor="middle" x="3572.22" y="-14.88" font-family="Century Gothic" font-size="10.00">leaf=&#45;0.857978523</text>
</g>
<!-- 28&#45;&gt;58 -->
<g id="edge56" class="edge">
<title>28&#45;&gt;58</title>
<path fill="none" stroke="#f4562a" d="M3469.79,-72.08C3488.83,-62.22 3512.54,-49.93 3532.35,-39.66"/>
<polygon fill="#f4562a" stroke="#f4562a" points="3533.7,-42.9 3540.97,-35.2 3530.48,-36.69 3533.7,-42.9"/>
</g>
<!-- 59 -->
<g id="node60" class="node">
<title>59</title>
<ellipse fill="#ddfbd2" stroke="#b8f6a2" stroke-width="2" cx="3707.22" cy="-18" rx="57.06" ry="18"/>
<text text-anchor="middle" x="3707.22" y="-14.88" font-family="Century Gothic" font-size="10.00">leaf=&#45;3.28588223</text>
</g>
<!-- 29&#45;&gt;59 -->
<g id="edge59" class="edge">
<title>29&#45;&gt;59</title>
<path fill="none" stroke="#14bdeb" d="M3752.08,-72.08C3745.1,-63.83 3736.69,-53.87 3729.04,-44.82"/>
<polygon fill="#14bdeb" stroke="#14bdeb" points="3731.84,-42.71 3722.71,-37.33 3726.49,-47.23 3731.84,-42.71"/>
</g>
<!-- 60 -->
<g id="node61" class="node">
<title>60</title>
<ellipse fill="#ddfbd2" stroke="#b8f6a2" stroke-width="2" cx="3839.22" cy="-18" rx="57.06" ry="18"/>
<text text-anchor="middle" x="3839.22" y="-14.88" font-family="Century Gothic" font-size="10.00">leaf=&#45;2.24793315</text>
</g>
<!-- 29&#45;&gt;60 -->
<g id="edge60" class="edge">
<title>29&#45;&gt;60</title>
<path fill="none" stroke="#f4562a" d="M3785.39,-72.08C3794.15,-63.44 3804.8,-52.94 3814.31,-43.56"/>
<polygon fill="#f4562a" stroke="#f4562a" points="3816.55,-46.27 3821.22,-36.75 3811.64,-41.28 3816.55,-46.27"/>
</g>
<!-- 61 -->
<g id="node62" class="node">
<title>61</title>
<ellipse fill="#ddfbd2" stroke="#b8f6a2" stroke-width="2" cx="3971.22" cy="-18" rx="57.06" ry="18"/>
<text text-anchor="middle" x="3971.22" y="-14.88" font-family="Century Gothic" font-size="10.00">leaf=&#45;5.68254852</text>
</g>
<!-- 30&#45;&gt;61 -->
<g id="edge61" class="edge">
<title>30&#45;&gt;61</title>
<path fill="none" stroke="#14bdeb" d="M3971.22,-72.08C3971.22,-64.8 3971.22,-56.19 3971.22,-48.05"/>
<polygon fill="#14bdeb" stroke="#14bdeb" points="3974.72,-48.18 3971.22,-38.18 3967.72,-48.18 3974.72,-48.18"/>
</g>
<!-- 62 -->
<g id="node63" class="node">
<title>62</title>
<ellipse fill="#ddfbd2" stroke="#b8f6a2" stroke-width="2" cx="4103.22" cy="-18" rx="57.06" ry="18"/>
<text text-anchor="middle" x="4103.22" y="-14.88" font-family="Century Gothic" font-size="10.00">leaf=&#45;4.73562622</text>
</g>
<!-- 30&#45;&gt;62 -->
<g id="edge62" class="edge">
<title>30&#45;&gt;62</title>
<path fill="none" stroke="#f4562a" d="M4004.53,-72.08C4022.92,-62.19 4045.83,-49.87 4064.95,-39.59"/>
<polygon fill="#f4562a" stroke="#f4562a" points="4066.36,-42.8 4073.51,-34.98 4063.04,-36.64 4066.36,-42.8"/>
</g>
</g>
</svg>
