<?xml version="1.0" encoding="utf-8" standalone="no"?>
<!DOCTYPE svg PUBLIC "-//W3C//DTD SVG 1.1//EN"
  "http://www.w3.org/Graphics/SVG/1.1/DTD/svg11.dtd">
<svg xmlns:xlink="http://www.w3.org/1999/xlink" width="1152pt" height="576pt" viewBox="0 0 1152 576" xmlns="http://www.w3.org/2000/svg" version="1.1">
 <metadata>
  <rdf:RDF xmlns:dc="http://purl.org/dc/elements/1.1/" xmlns:cc="http://creativecommons.org/ns#" xmlns:rdf="http://www.w3.org/1999/02/22-rdf-syntax-ns#">
   <cc:Work>
    <dc:type rdf:resource="http://purl.org/dc/dcmitype/StillImage"/>
    <dc:date>2025-03-26T16:21:54.582026</dc:date>
    <dc:format>image/svg+xml</dc:format>
    <dc:creator>
     <cc:Agent>
      <dc:title>Matplotlib v3.7.1, https://matplotlib.org/</dc:title>
     </cc:Agent>
    </dc:creator>
   </cc:Work>
  </rdf:RDF>
 </metadata>
 <defs>
  <style type="text/css">*{stroke-linejoin: round; stroke-linecap: butt}</style>
 </defs>
 <g id="figure_1">
  <g id="patch_1">
   <path d="M 0 576 
L 1152 576 
L 1152 0 
L 0 0 
z
" style="fill: #ffffff"/>
  </g>
  <g id="axes_1">
   <g id="patch_2">
    <path d="M 99.11 489.832 
L 1141.2 489.832 
L 1141.2 10.8 
L 99.11 10.8 
z
" style="fill: #ffffff"/>
   </g>
   <g id="PolyCollection_1">
    <defs>
     <path id="m2936ab524b" d="M 146.477727 -499.39107 
L 146.477727 -404.782746 
L 185.950833 -355.816836 
L 225.423939 -414.006667 
L 264.897045 -404.511052 
L 304.370152 -387.521287 
L 343.843258 -422.778985 
L 383.316364 -476.560787 
L 422.78947 -369.547867 
L 462.262576 -434.933028 
L 501.735682 -426.995832 
L 541.208788 -418.340768 
L 580.681894 -429.096768 
L 620.155 -422.688974 
L 659.628106 -403.663265 
L 699.101212 -346.356037 
L 738.574318 -365.056836 
L 778.047424 -424.842546 
L 817.52053 -374.611313 
L 856.993636 -377.317962 
L 896.466742 -379.325735 
L 935.939848 -404.062132 
L 975.412955 -378.098219 
L 1014.886061 -327.256506 
L 1054.359167 -309.610985 
L 1093.832273 -353.596113 
L 1093.832273 -436.894832 
L 1093.832273 -436.894832 
L 1054.359167 -428.660951 
L 1014.886061 -485.551103 
L 975.412955 -468.332996 
L 935.939848 -477.811262 
L 896.466742 -477.535611 
L 856.993636 -448.499014 
L 817.52053 -461.41164 
L 778.047424 -449.240579 
L 738.574318 -461.943819 
L 699.101212 -467.563421 
L 659.628106 -489.759328 
L 620.155 -501.441594 
L 580.681894 -487.25459 
L 541.208788 -537.633297 
L 501.735682 -506.987386 
L 462.262576 -506.820393 
L 422.78947 -491.176331 
L 383.316364 -528.365342 
L 343.843258 -489.739725 
L 304.370152 -472.497446 
L 264.897045 -479.828219 
L 225.423939 -453.32541 
L 185.950833 -456.162981 
L 146.477727 -499.39107 
z
" style="stroke: #1f77b4; stroke-opacity: 0.2"/>
    </defs>
    <g clip-path="url(#p3a68647091)">
     <use xlink:href="#m2936ab524b" x="0" y="576" style="fill: #1f77b4; fill-opacity: 0.2; stroke: #1f77b4; stroke-opacity: 0.2"/>
    </g>
   </g>
   <g id="PolyCollection_2">
    <defs>
     <path id="m84ba97d560" d="M 146.477727 -482.409352 
L 146.477727 -400.716649 
L 185.950833 -295.16617 
L 225.423939 -269.857314 
L 264.897045 -327.575469 
L 304.370152 -359.472346 
L 343.843258 -358.605879 
L 383.316364 -370.0333 
L 422.78947 -318.864595 
L 462.262576 -414.464254 
L 501.735682 -384.450396 
L 541.208788 -366.766534 
L 580.681894 -357.675383 
L 620.155 -316.948074 
L 659.628106 -367.539728 
L 699.101212 -370.128227 
L 738.574318 -338.765894 
L 778.047424 -353.850077 
L 817.52053 -317.054514 
L 856.993636 -323.59733 
L 896.466742 -337.017863 
L 935.939848 -404.602376 
L 975.412955 -339.936228 
L 1014.886061 -367.471927 
L 1054.359167 -353.799721 
L 1093.832273 -337.360444 
L 1093.832273 -432.505009 
L 1093.832273 -432.505009 
L 1054.359167 -436.1312 
L 1014.886061 -426.340867 
L 975.412955 -486.959104 
L 935.939848 -506.467133 
L 896.466742 -460.864901 
L 856.993636 -459.358305 
L 817.52053 -416.597389 
L 778.047424 -430.385674 
L 738.574318 -420.225724 
L 699.101212 -461.337317 
L 659.628106 -462.095583 
L 620.155 -445.408516 
L 580.681894 -407.267264 
L 541.208788 -445.632625 
L 501.735682 -487.226904 
L 462.262576 -459.355994 
L 422.78947 -443.122181 
L 383.316364 -463.744947 
L 343.843258 -446.754969 
L 304.370152 -420.148371 
L 264.897045 -402.859551 
L 225.423939 -404.906186 
L 185.950833 -430.221883 
L 146.477727 -482.409352 
z
" style="stroke: #ff7f0e; stroke-opacity: 0.2"/>
    </defs>
    <g clip-path="url(#p3a68647091)">
     <use xlink:href="#m84ba97d560" x="0" y="576" style="fill: #ff7f0e; fill-opacity: 0.2; stroke: #ff7f0e; stroke-opacity: 0.2"/>
    </g>
   </g>
   <g id="PolyCollection_3">
    <defs>
     <path id="mb69be87c82" d="M 146.477727 -432.900811 
L 146.477727 -338.973866 
L 185.950833 -265.712836 
L 225.423939 -249.922493 
L 264.897045 -268.066106 
L 304.370152 -269.705091 
L 343.843258 -313.470201 
L 383.316364 -328.72835 
L 422.78947 -274.774933 
L 462.262576 -322.350761 
L 501.735682 -294.543977 
L 541.208788 -302.619266 
L 580.681894 -234.062052 
L 620.155 -287.910305 
L 659.628106 -274.112455 
L 699.101212 -281.265365 
L 738.574318 -252.667699 
L 778.047424 -268.130095 
L 817.52053 -267.68758 
L 856.993636 -238.162564 
L 896.466742 -254.26761 
L 935.939848 -276.45077 
L 975.412955 -274.482992 
L 1014.886061 -285.617903 
L 1054.359167 -305.297434 
L 1093.832273 -253.833596 
L 1093.832273 -349.352944 
L 1093.832273 -349.352944 
L 1054.359167 -386.057018 
L 1014.886061 -351.520832 
L 975.412955 -388.922506 
L 935.939848 -386.327699 
L 896.466742 -329.499946 
L 856.993636 -354.458542 
L 817.52053 -336.427302 
L 778.047424 -362.802701 
L 738.574318 -360.299551 
L 699.101212 -370.489266 
L 659.628106 -376.198195 
L 620.155 -363.484876 
L 580.681894 -365.204014 
L 541.208788 -376.762747 
L 501.735682 -419.573038 
L 462.262576 -384.821678 
L 422.78947 -372.040399 
L 383.316364 -418.57145 
L 343.843258 -375.992149 
L 304.370152 -325.071465 
L 264.897045 -370.601968 
L 225.423939 -345.133311 
L 185.950833 -368.892482 
L 146.477727 -432.900811 
z
" style="stroke: #2ca02c; stroke-opacity: 0.2"/>
    </defs>
    <g clip-path="url(#p3a68647091)">
     <use xlink:href="#mb69be87c82" x="0" y="576" style="fill: #2ca02c; fill-opacity: 0.2; stroke: #2ca02c; stroke-opacity: 0.2"/>
    </g>
   </g>
   <g id="PolyCollection_4">
    <defs>
     <path id="m9de2d619ef" d="M 146.477727 -382.855536 
L 146.477727 -251.378317 
L 185.950833 -241.469613 
L 225.423939 -186.398742 
L 264.897045 -178.70283 
L 304.370152 -193.968058 
L 343.843258 -258.710705 
L 383.316364 -311.833781 
L 422.78947 -189.447336 
L 462.262576 -203.243071 
L 501.735682 -245.670368 
L 541.208788 -228.205335 
L 580.681894 -245.403954 
L 620.155 -230.810637 
L 659.628106 -222.101782 
L 699.101212 -232.304674 
L 738.574318 -194.157801 
L 778.047424 -199.841393 
L 817.52053 -169.773112 
L 856.993636 -242.869809 
L 896.466742 -174.940689 
L 935.939848 -196.364318 
L 975.412955 -173.836717 
L 1014.886061 -165.921815 
L 1054.359167 -130.131456 
L 1093.832273 -150.78166 
L 1093.832273 -244.346577 
L 1093.832273 -244.346577 
L 1054.359167 -212.719843 
L 1014.886061 -264.675443 
L 975.412955 -301.194561 
L 935.939848 -331.027654 
L 896.466742 -309.614214 
L 856.993636 -318.576162 
L 817.52053 -291.838221 
L 778.047424 -373.386154 
L 738.574318 -358.420476 
L 699.101212 -301.918033 
L 659.628106 -309.693824 
L 620.155 -276.098479 
L 580.681894 -367.304206 
L 541.208788 -367.867302 
L 501.735682 -365.843507 
L 462.262576 -366.857462 
L 422.78947 -336.218581 
L 383.316364 -397.336079 
L 343.843258 -337.629906 
L 304.370152 -309.185558 
L 264.897045 -284.998119 
L 225.423939 -274.206396 
L 185.950833 -295.29464 
L 146.477727 -382.855536 
z
" style="stroke: #d62728; stroke-opacity: 0.2"/>
    </defs>
    <g clip-path="url(#p3a68647091)">
     <use xlink:href="#m9de2d619ef" x="0" y="576" style="fill: #d62728; fill-opacity: 0.2; stroke: #d62728; stroke-opacity: 0.2"/>
    </g>
   </g>
   <g id="PolyCollection_5">
    <defs>
     <path id="m8c2d3d46cb" d="M 146.477727 -399.384452 
L 146.477727 -249.710616 
L 185.950833 -210.237447 
L 225.423939 -179.279322 
L 264.897045 -199.943444 
L 304.370152 -256.710657 
L 343.843258 -319.048353 
L 383.316364 -236.907317 
L 422.78947 -196.491361 
L 462.262576 -299.080165 
L 501.735682 -259.259044 
L 541.208788 -246.975618 
L 580.681894 -267.724505 
L 620.155 -234.183237 
L 659.628106 -275.613735 
L 699.101212 -252.076318 
L 738.574318 -248.374573 
L 778.047424 -228.473001 
L 817.52053 -239.201055 
L 856.993636 -190.284818 
L 896.466742 -206.955504 
L 935.939848 -267.808194 
L 975.412955 -248.961914 
L 1014.886061 -299.811518 
L 1054.359167 -206.832258 
L 1093.832273 -242.648618 
L 1093.832273 -342.559562 
L 1093.832273 -342.559562 
L 1054.359167 -286.806313 
L 1014.886061 -369.953697 
L 975.412955 -347.025053 
L 935.939848 -339.33725 
L 896.466742 -317.569445 
L 856.993636 -342.50294 
L 817.52053 -358.13709 
L 778.047424 -391.292674 
L 738.574318 -352.301433 
L 699.101212 -358.801565 
L 659.628106 -331.716767 
L 620.155 -295.608427 
L 580.681894 -335.597411 
L 541.208788 -314.783437 
L 501.735682 -341.645275 
L 462.262576 -384.047647 
L 422.78947 -345.068564 
L 383.316364 -365.450336 
L 343.843258 -417.685088 
L 304.370152 -355.251164 
L 264.897045 -328.781479 
L 225.423939 -315.624493 
L 185.950833 -325.263811 
L 146.477727 -399.384452 
z
" style="stroke: #9467bd; stroke-opacity: 0.2"/>
    </defs>
    <g clip-path="url(#p3a68647091)">
     <use xlink:href="#m8c2d3d46cb" x="0" y="576" style="fill: #9467bd; fill-opacity: 0.2; stroke: #9467bd; stroke-opacity: 0.2"/>
    </g>
   </g>
   <g id="PolyCollection_6">
    <defs>
     <path id="m862157748c" d="M 146.477727 -365.047762 
L 146.477727 -289.773592 
L 185.950833 -237.862381 
L 225.423939 -258.287495 
L 264.897045 -243.697568 
L 304.370152 -257.79437 
L 343.843258 -288.890276 
L 383.316364 -317.215153 
L 422.78947 -264.286468 
L 462.262576 -288.56692 
L 501.735682 -257.505115 
L 541.208788 -272.652581 
L 580.681894 -249.336932 
L 620.155 -237.083927 
L 659.628106 -262.643293 
L 699.101212 -258.739243 
L 738.574318 -235.467018 
L 778.047424 -249.868906 
L 817.52053 -229.524218 
L 856.993636 -225.528032 
L 896.466742 -251.003421 
L 935.939848 -261.38881 
L 975.412955 -267.082001 
L 1014.886061 -241.700836 
L 1054.359167 -222.130757 
L 1093.832273 -218.954164 
L 1093.832273 -306.534054 
L 1093.832273 -306.534054 
L 1054.359167 -290.052657 
L 1014.886061 -303.76292 
L 975.412955 -314.646225 
L 935.939848 -344.264683 
L 896.466742 -279.466579 
L 856.993636 -282.951539 
L 817.52053 -293.310547 
L 778.047424 -300.174267 
L 738.574318 -289.893767 
L 699.101212 -316.535792 
L 659.628106 -333.202681 
L 620.155 -281.279101 
L 580.681894 -285.871415 
L 541.208788 -310.738045 
L 501.735682 -317.031493 
L 462.262576 -320.551635 
L 422.78947 -322.366436 
L 383.316364 -351.043772 
L 343.843258 -336.953223 
L 304.370152 -331.418395 
L 264.897045 -315.851986 
L 225.423939 -302.221478 
L 185.950833 -299.969535 
L 146.477727 -365.047762 
z
" style="stroke: #8c564b; stroke-opacity: 0.2"/>
    </defs>
    <g clip-path="url(#p3a68647091)">
     <use xlink:href="#m862157748c" x="0" y="576" style="fill: #8c564b; fill-opacity: 0.2; stroke: #8c564b; stroke-opacity: 0.2"/>
    </g>
   </g>
   <g id="PolyCollection_7">
    <defs>
     <path id="m94d3b43479" d="M 146.477727 -499.614096 
L 146.477727 -404.217968 
L 185.950833 -356.412263 
L 225.423939 -420.688913 
L 264.897045 -399.470794 
L 304.370152 -389.316426 
L 343.843258 -418.42323 
L 383.316364 -471.574989 
L 422.78947 -372.613624 
L 462.262576 -439.029113 
L 501.735682 -429.436954 
L 541.208788 -424.718021 
L 580.681894 -437.629405 
L 620.155 -425.201105 
L 659.628106 -408.455157 
L 699.101212 -356.768086 
L 738.574318 -371.723059 
L 778.047424 -419.382384 
L 817.52053 -387.576075 
L 856.993636 -392.54384 
L 896.466742 -382.678981 
L 935.939848 -408.001514 
L 975.412955 -381.892464 
L 1014.886061 -329.066709 
L 1054.359167 -318.226496 
L 1093.832273 -354.383871 
L 1093.832273 -430.132968 
L 1093.832273 -430.132968 
L 1054.359167 -416.207781 
L 1014.886061 -473.496899 
L 975.412955 -470.19745 
L 935.939848 -485.193069 
L 896.466742 -474.699384 
L 856.993636 -444.141931 
L 817.52053 -457.665933 
L 778.047424 -444.989344 
L 738.574318 -450.037212 
L 699.101212 -473.973878 
L 659.628106 -489.261121 
L 620.155 -504.898356 
L 580.681894 -500.087987 
L 541.208788 -543.425818 
L 501.735682 -505.411668 
L 462.262576 -517.767052 
L 422.78947 -498.314899 
L 383.316364 -529.342412 
L 343.843258 -499.581424 
L 304.370152 -475.214618 
L 264.897045 -482.850434 
L 225.423939 -457.567961 
L 185.950833 -444.85649 
L 146.477727 -499.614096 
z
" style="stroke: #e377c2; stroke-opacity: 0.2"/>
    </defs>
    <g clip-path="url(#p3a68647091)">
     <use xlink:href="#m94d3b43479" x="0" y="576" style="fill: #e377c2; fill-opacity: 0.2; stroke: #e377c2; stroke-opacity: 0.2"/>
    </g>
   </g>
   <g id="PolyCollection_8">
    <defs>
     <path id="mc8e3d74e6d" d="M 146.477727 -299.377003 
L 146.477727 -212.287256 
L 185.950833 -134.91214 
L 225.423939 -145.032612 
L 264.897045 -156.83536 
L 304.370152 -164.734205 
L 343.843258 -171.877781 
L 383.316364 -195.827691 
L 422.78947 -158.43046 
L 462.262576 -178.899392 
L 501.735682 -187.310228 
L 541.208788 -160.647082 
L 580.681894 -109.884152 
L 620.155 -183.422149 
L 659.628106 -152.216033 
L 699.101212 -181.116722 
L 738.574318 -127.644559 
L 778.047424 -144.685367 
L 817.52053 -136.907616 
L 856.993636 -133.644956 
L 896.466742 -107.942182 
L 935.939848 -174.451385 
L 975.412955 -146.189822 
L 1014.886061 -160.079492 
L 1054.359167 -179.166795 
L 1093.832273 -146.294742 
L 1093.832273 -240.572457 
L 1093.832273 -240.572457 
L 1054.359167 -263.860336 
L 1014.886061 -252.004547 
L 975.412955 -282.884173 
L 935.939848 -267.152177 
L 896.466742 -225.843585 
L 856.993636 -255.31577 
L 817.52053 -193.095218 
L 778.047424 -247.121539 
L 738.574318 -243.95379 
L 699.101212 -245.917107 
L 659.628106 -263.563104 
L 620.155 -240.568349 
L 580.681894 -221.644316 
L 541.208788 -228.000386 
L 501.735682 -281.467365 
L 462.262576 -297.981797 
L 422.78947 -237.336779 
L 383.316364 -288.524381 
L 343.843258 -254.31174 
L 304.370152 -242.569717 
L 264.897045 -267.948737 
L 225.423939 -257.695881 
L 185.950833 -236.535022 
L 146.477727 -299.377003 
z
" style="stroke: #7f7f7f; stroke-opacity: 0.2"/>
    </defs>
    <g clip-path="url(#p3a68647091)">
     <use xlink:href="#mc8e3d74e6d" x="0" y="576" style="fill: #7f7f7f; fill-opacity: 0.2; stroke: #7f7f7f; stroke-opacity: 0.2"/>
    </g>
   </g>
   <g id="matplotlib.axis_1">
    <g id="xtick_1">
     <g id="line2d_1">
      <defs>
       <path id="m5ecbc6b5b3" d="M 0 0 
L 0 3.5 
" style="stroke: #000000; stroke-width: 0.8"/>
      </defs>
      <g>
       <use xlink:href="#m5ecbc6b5b3" x="126.741174" y="489.832" style="stroke: #000000; stroke-width: 0.8"/>
      </g>
     </g>
     <g id="text_1">
      <!-- 0 -->
      <g transform="translate(120.378674 512.028875) scale(0.2 -0.2)">
       <defs>
        <path id="DejaVuSans-30" d="M 2034 4250 
Q 1547 4250 1301 3770 
Q 1056 3291 1056 2328 
Q 1056 1369 1301 889 
Q 1547 409 2034 409 
Q 2525 409 2770 889 
Q 3016 1369 3016 2328 
Q 3016 3291 2770 3770 
Q 2525 4250 2034 4250 
z
M 2034 4750 
Q 2819 4750 3233 4129 
Q 3647 3509 3647 2328 
Q 3647 1150 3233 529 
Q 2819 -91 2034 -91 
Q 1250 -91 836 529 
Q 422 1150 422 2328 
Q 422 3509 836 4129 
Q 1250 4750 2034 4750 
z
" transform="scale(0.015625)"/>
       </defs>
       <use xlink:href="#DejaVuSans-30"/>
      </g>
     </g>
    </g>
    <g id="xtick_2">
     <g id="line2d_2">
      <g>
       <use xlink:href="#m5ecbc6b5b3" x="324.106705" y="489.832" style="stroke: #000000; stroke-width: 0.8"/>
      </g>
     </g>
     <g id="text_2">
      <!-- 10 -->
      <g transform="translate(311.381705 512.028875) scale(0.2 -0.2)">
       <defs>
        <path id="DejaVuSans-31" d="M 794 531 
L 1825 531 
L 1825 4091 
L 703 3866 
L 703 4441 
L 1819 4666 
L 2450 4666 
L 2450 531 
L 3481 531 
L 3481 0 
L 794 0 
L 794 531 
z
" transform="scale(0.015625)"/>
       </defs>
       <use xlink:href="#DejaVuSans-31"/>
       <use xlink:href="#DejaVuSans-30" x="63.623047"/>
      </g>
     </g>
    </g>
    <g id="xtick_3">
     <g id="line2d_3">
      <g>
       <use xlink:href="#m5ecbc6b5b3" x="521.472235" y="489.832" style="stroke: #000000; stroke-width: 0.8"/>
      </g>
     </g>
     <g id="text_3">
      <!-- 20 -->
      <g transform="translate(508.747235 512.028875) scale(0.2 -0.2)">
       <defs>
        <path id="DejaVuSans-32" d="M 1228 531 
L 3431 531 
L 3431 0 
L 469 0 
L 469 531 
Q 828 903 1448 1529 
Q 2069 2156 2228 2338 
Q 2531 2678 2651 2914 
Q 2772 3150 2772 3378 
Q 2772 3750 2511 3984 
Q 2250 4219 1831 4219 
Q 1534 4219 1204 4116 
Q 875 4013 500 3803 
L 500 4441 
Q 881 4594 1212 4672 
Q 1544 4750 1819 4750 
Q 2544 4750 2975 4387 
Q 3406 4025 3406 3419 
Q 3406 3131 3298 2873 
Q 3191 2616 2906 2266 
Q 2828 2175 2409 1742 
Q 1991 1309 1228 531 
z
" transform="scale(0.015625)"/>
       </defs>
       <use xlink:href="#DejaVuSans-32"/>
       <use xlink:href="#DejaVuSans-30" x="63.623047"/>
      </g>
     </g>
    </g>
    <g id="xtick_4">
     <g id="line2d_4">
      <g>
       <use xlink:href="#m5ecbc6b5b3" x="718.837765" y="489.832" style="stroke: #000000; stroke-width: 0.8"/>
      </g>
     </g>
     <g id="text_4">
      <!-- 30 -->
      <g transform="translate(706.112765 512.028875) scale(0.2 -0.2)">
       <defs>
        <path id="DejaVuSans-33" d="M 2597 2516 
Q 3050 2419 3304 2112 
Q 3559 1806 3559 1356 
Q 3559 666 3084 287 
Q 2609 -91 1734 -91 
Q 1441 -91 1130 -33 
Q 819 25 488 141 
L 488 750 
Q 750 597 1062 519 
Q 1375 441 1716 441 
Q 2309 441 2620 675 
Q 2931 909 2931 1356 
Q 2931 1769 2642 2001 
Q 2353 2234 1838 2234 
L 1294 2234 
L 1294 2753 
L 1863 2753 
Q 2328 2753 2575 2939 
Q 2822 3125 2822 3475 
Q 2822 3834 2567 4026 
Q 2313 4219 1838 4219 
Q 1578 4219 1281 4162 
Q 984 4106 628 3988 
L 628 4550 
Q 988 4650 1302 4700 
Q 1616 4750 1894 4750 
Q 2613 4750 3031 4423 
Q 3450 4097 3450 3541 
Q 3450 3153 3228 2886 
Q 3006 2619 2597 2516 
z
" transform="scale(0.015625)"/>
       </defs>
       <use xlink:href="#DejaVuSans-33"/>
       <use xlink:href="#DejaVuSans-30" x="63.623047"/>
      </g>
     </g>
    </g>
    <g id="xtick_5">
     <g id="line2d_5">
      <g>
       <use xlink:href="#m5ecbc6b5b3" x="916.203295" y="489.832" style="stroke: #000000; stroke-width: 0.8"/>
      </g>
     </g>
     <g id="text_5">
      <!-- 40 -->
      <g transform="translate(903.478295 512.028875) scale(0.2 -0.2)">
       <defs>
        <path id="DejaVuSans-34" d="M 2419 4116 
L 825 1625 
L 2419 1625 
L 2419 4116 
z
M 2253 4666 
L 3047 4666 
L 3047 1625 
L 3713 1625 
L 3713 1100 
L 3047 1100 
L 3047 0 
L 2419 0 
L 2419 1100 
L 313 1100 
L 313 1709 
L 2253 4666 
z
" transform="scale(0.015625)"/>
       </defs>
       <use xlink:href="#DejaVuSans-34"/>
       <use xlink:href="#DejaVuSans-30" x="63.623047"/>
      </g>
     </g>
    </g>
    <g id="xtick_6">
     <g id="line2d_6">
      <g>
       <use xlink:href="#m5ecbc6b5b3" x="1113.568826" y="489.832" style="stroke: #000000; stroke-width: 0.8"/>
      </g>
     </g>
     <g id="text_6">
      <!-- 50 -->
      <g transform="translate(1100.843826 512.028875) scale(0.2 -0.2)">
       <defs>
        <path id="DejaVuSans-35" d="M 691 4666 
L 3169 4666 
L 3169 4134 
L 1269 4134 
L 1269 2991 
Q 1406 3038 1543 3061 
Q 1681 3084 1819 3084 
Q 2600 3084 3056 2656 
Q 3513 2228 3513 1497 
Q 3513 744 3044 326 
Q 2575 -91 1722 -91 
Q 1428 -91 1123 -41 
Q 819 9 494 109 
L 494 744 
Q 775 591 1075 516 
Q 1375 441 1709 441 
Q 2250 441 2565 725 
Q 2881 1009 2881 1497 
Q 2881 1984 2565 2268 
Q 2250 2553 1709 2553 
Q 1456 2553 1204 2497 
Q 953 2441 691 2322 
L 691 4666 
z
" transform="scale(0.015625)"/>
       </defs>
       <use xlink:href="#DejaVuSans-35"/>
       <use xlink:href="#DejaVuSans-30" x="63.623047"/>
      </g>
     </g>
    </g>
    <g id="text_7">
     <!-- Percentile Threshold -->
     <g transform="translate(518.375313 535.385125) scale(0.2 -0.2)">
      <defs>
       <path id="DejaVuSans-50" d="M 1259 4147 
L 1259 2394 
L 2053 2394 
Q 2494 2394 2734 2622 
Q 2975 2850 2975 3272 
Q 2975 3691 2734 3919 
Q 2494 4147 2053 4147 
L 1259 4147 
z
M 628 4666 
L 2053 4666 
Q 2838 4666 3239 4311 
Q 3641 3956 3641 3272 
Q 3641 2581 3239 2228 
Q 2838 1875 2053 1875 
L 1259 1875 
L 1259 0 
L 628 0 
L 628 4666 
z
" transform="scale(0.015625)"/>
       <path id="DejaVuSans-65" d="M 3597 1894 
L 3597 1613 
L 953 1613 
Q 991 1019 1311 708 
Q 1631 397 2203 397 
Q 2534 397 2845 478 
Q 3156 559 3463 722 
L 3463 178 
Q 3153 47 2828 -22 
Q 2503 -91 2169 -91 
Q 1331 -91 842 396 
Q 353 884 353 1716 
Q 353 2575 817 3079 
Q 1281 3584 2069 3584 
Q 2775 3584 3186 3129 
Q 3597 2675 3597 1894 
z
M 3022 2063 
Q 3016 2534 2758 2815 
Q 2500 3097 2075 3097 
Q 1594 3097 1305 2825 
Q 1016 2553 972 2059 
L 3022 2063 
z
" transform="scale(0.015625)"/>
       <path id="DejaVuSans-72" d="M 2631 2963 
Q 2534 3019 2420 3045 
Q 2306 3072 2169 3072 
Q 1681 3072 1420 2755 
Q 1159 2438 1159 1844 
L 1159 0 
L 581 0 
L 581 3500 
L 1159 3500 
L 1159 2956 
Q 1341 3275 1631 3429 
Q 1922 3584 2338 3584 
Q 2397 3584 2469 3576 
Q 2541 3569 2628 3553 
L 2631 2963 
z
" transform="scale(0.015625)"/>
       <path id="DejaVuSans-63" d="M 3122 3366 
L 3122 2828 
Q 2878 2963 2633 3030 
Q 2388 3097 2138 3097 
Q 1578 3097 1268 2742 
Q 959 2388 959 1747 
Q 959 1106 1268 751 
Q 1578 397 2138 397 
Q 2388 397 2633 464 
Q 2878 531 3122 666 
L 3122 134 
Q 2881 22 2623 -34 
Q 2366 -91 2075 -91 
Q 1284 -91 818 406 
Q 353 903 353 1747 
Q 353 2603 823 3093 
Q 1294 3584 2113 3584 
Q 2378 3584 2631 3529 
Q 2884 3475 3122 3366 
z
" transform="scale(0.015625)"/>
       <path id="DejaVuSans-6e" d="M 3513 2113 
L 3513 0 
L 2938 0 
L 2938 2094 
Q 2938 2591 2744 2837 
Q 2550 3084 2163 3084 
Q 1697 3084 1428 2787 
Q 1159 2491 1159 1978 
L 1159 0 
L 581 0 
L 581 3500 
L 1159 3500 
L 1159 2956 
Q 1366 3272 1645 3428 
Q 1925 3584 2291 3584 
Q 2894 3584 3203 3211 
Q 3513 2838 3513 2113 
z
" transform="scale(0.015625)"/>
       <path id="DejaVuSans-74" d="M 1172 4494 
L 1172 3500 
L 2356 3500 
L 2356 3053 
L 1172 3053 
L 1172 1153 
Q 1172 725 1289 603 
Q 1406 481 1766 481 
L 2356 481 
L 2356 0 
L 1766 0 
Q 1100 0 847 248 
Q 594 497 594 1153 
L 594 3053 
L 172 3053 
L 172 3500 
L 594 3500 
L 594 4494 
L 1172 4494 
z
" transform="scale(0.015625)"/>
       <path id="DejaVuSans-69" d="M 603 3500 
L 1178 3500 
L 1178 0 
L 603 0 
L 603 3500 
z
M 603 4863 
L 1178 4863 
L 1178 4134 
L 603 4134 
L 603 4863 
z
" transform="scale(0.015625)"/>
       <path id="DejaVuSans-6c" d="M 603 4863 
L 1178 4863 
L 1178 0 
L 603 0 
L 603 4863 
z
" transform="scale(0.015625)"/>
       <path id="DejaVuSans-20" transform="scale(0.015625)"/>
       <path id="DejaVuSans-54" d="M -19 4666 
L 3928 4666 
L 3928 4134 
L 2272 4134 
L 2272 0 
L 1638 0 
L 1638 4134 
L -19 4134 
L -19 4666 
z
" transform="scale(0.015625)"/>
       <path id="DejaVuSans-68" d="M 3513 2113 
L 3513 0 
L 2938 0 
L 2938 2094 
Q 2938 2591 2744 2837 
Q 2550 3084 2163 3084 
Q 1697 3084 1428 2787 
Q 1159 2491 1159 1978 
L 1159 0 
L 581 0 
L 581 4863 
L 1159 4863 
L 1159 2956 
Q 1366 3272 1645 3428 
Q 1925 3584 2291 3584 
Q 2894 3584 3203 3211 
Q 3513 2838 3513 2113 
z
" transform="scale(0.015625)"/>
       <path id="DejaVuSans-73" d="M 2834 3397 
L 2834 2853 
Q 2591 2978 2328 3040 
Q 2066 3103 1784 3103 
Q 1356 3103 1142 2972 
Q 928 2841 928 2578 
Q 928 2378 1081 2264 
Q 1234 2150 1697 2047 
L 1894 2003 
Q 2506 1872 2764 1633 
Q 3022 1394 3022 966 
Q 3022 478 2636 193 
Q 2250 -91 1575 -91 
Q 1294 -91 989 -36 
Q 684 19 347 128 
L 347 722 
Q 666 556 975 473 
Q 1284 391 1588 391 
Q 1994 391 2212 530 
Q 2431 669 2431 922 
Q 2431 1156 2273 1281 
Q 2116 1406 1581 1522 
L 1381 1569 
Q 847 1681 609 1914 
Q 372 2147 372 2553 
Q 372 3047 722 3315 
Q 1072 3584 1716 3584 
Q 2034 3584 2315 3537 
Q 2597 3491 2834 3397 
z
" transform="scale(0.015625)"/>
       <path id="DejaVuSans-6f" d="M 1959 3097 
Q 1497 3097 1228 2736 
Q 959 2375 959 1747 
Q 959 1119 1226 758 
Q 1494 397 1959 397 
Q 2419 397 2687 759 
Q 2956 1122 2956 1747 
Q 2956 2369 2687 2733 
Q 2419 3097 1959 3097 
z
M 1959 3584 
Q 2709 3584 3137 3096 
Q 3566 2609 3566 1747 
Q 3566 888 3137 398 
Q 2709 -91 1959 -91 
Q 1206 -91 779 398 
Q 353 888 353 1747 
Q 353 2609 779 3096 
Q 1206 3584 1959 3584 
z
" transform="scale(0.015625)"/>
       <path id="DejaVuSans-64" d="M 2906 2969 
L 2906 4863 
L 3481 4863 
L 3481 0 
L 2906 0 
L 2906 525 
Q 2725 213 2448 61 
Q 2172 -91 1784 -91 
Q 1150 -91 751 415 
Q 353 922 353 1747 
Q 353 2572 751 3078 
Q 1150 3584 1784 3584 
Q 2172 3584 2448 3432 
Q 2725 3281 2906 2969 
z
M 947 1747 
Q 947 1113 1208 752 
Q 1469 391 1925 391 
Q 2381 391 2643 752 
Q 2906 1113 2906 1747 
Q 2906 2381 2643 2742 
Q 2381 3103 1925 3103 
Q 1469 3103 1208 2742 
Q 947 2381 947 1747 
z
" transform="scale(0.015625)"/>
      </defs>
      <use xlink:href="#DejaVuSans-50"/>
      <use xlink:href="#DejaVuSans-65" x="56.677734"/>
      <use xlink:href="#DejaVuSans-72" x="118.201172"/>
      <use xlink:href="#DejaVuSans-63" x="157.064453"/>
      <use xlink:href="#DejaVuSans-65" x="212.044922"/>
      <use xlink:href="#DejaVuSans-6e" x="273.568359"/>
      <use xlink:href="#DejaVuSans-74" x="336.947266"/>
      <use xlink:href="#DejaVuSans-69" x="376.15625"/>
      <use xlink:href="#DejaVuSans-6c" x="403.939453"/>
      <use xlink:href="#DejaVuSans-65" x="431.722656"/>
      <use xlink:href="#DejaVuSans-20" x="493.246094"/>
      <use xlink:href="#DejaVuSans-54" x="525.033203"/>
      <use xlink:href="#DejaVuSans-68" x="586.117188"/>
      <use xlink:href="#DejaVuSans-72" x="649.496094"/>
      <use xlink:href="#DejaVuSans-65" x="688.359375"/>
      <use xlink:href="#DejaVuSans-73" x="749.882812"/>
      <use xlink:href="#DejaVuSans-68" x="801.982422"/>
      <use xlink:href="#DejaVuSans-6f" x="865.361328"/>
      <use xlink:href="#DejaVuSans-6c" x="926.542969"/>
      <use xlink:href="#DejaVuSans-64" x="954.326172"/>
     </g>
     <!-- (Using "max_mean" Threshold Handling) -->
     <g transform="translate(416.625313 557.78075) scale(0.2 -0.2)">
      <defs>
       <path id="DejaVuSans-28" d="M 1984 4856 
Q 1566 4138 1362 3434 
Q 1159 2731 1159 2009 
Q 1159 1288 1364 580 
Q 1569 -128 1984 -844 
L 1484 -844 
Q 1016 -109 783 600 
Q 550 1309 550 2009 
Q 550 2706 781 3412 
Q 1013 4119 1484 4856 
L 1984 4856 
z
" transform="scale(0.015625)"/>
       <path id="DejaVuSans-55" d="M 556 4666 
L 1191 4666 
L 1191 1831 
Q 1191 1081 1462 751 
Q 1734 422 2344 422 
Q 2950 422 3222 751 
Q 3494 1081 3494 1831 
L 3494 4666 
L 4128 4666 
L 4128 1753 
Q 4128 841 3676 375 
Q 3225 -91 2344 -91 
Q 1459 -91 1007 375 
Q 556 841 556 1753 
L 556 4666 
z
" transform="scale(0.015625)"/>
       <path id="DejaVuSans-67" d="M 2906 1791 
Q 2906 2416 2648 2759 
Q 2391 3103 1925 3103 
Q 1463 3103 1205 2759 
Q 947 2416 947 1791 
Q 947 1169 1205 825 
Q 1463 481 1925 481 
Q 2391 481 2648 825 
Q 2906 1169 2906 1791 
z
M 3481 434 
Q 3481 -459 3084 -895 
Q 2688 -1331 1869 -1331 
Q 1566 -1331 1297 -1286 
Q 1028 -1241 775 -1147 
L 775 -588 
Q 1028 -725 1275 -790 
Q 1522 -856 1778 -856 
Q 2344 -856 2625 -561 
Q 2906 -266 2906 331 
L 2906 616 
Q 2728 306 2450 153 
Q 2172 0 1784 0 
Q 1141 0 747 490 
Q 353 981 353 1791 
Q 353 2603 747 3093 
Q 1141 3584 1784 3584 
Q 2172 3584 2450 3431 
Q 2728 3278 2906 2969 
L 2906 3500 
L 3481 3500 
L 3481 434 
z
" transform="scale(0.015625)"/>
       <path id="DejaVuSans-22" d="M 1147 4666 
L 1147 2931 
L 616 2931 
L 616 4666 
L 1147 4666 
z
M 2328 4666 
L 2328 2931 
L 1797 2931 
L 1797 4666 
L 2328 4666 
z
" transform="scale(0.015625)"/>
       <path id="DejaVuSans-6d" d="M 3328 2828 
Q 3544 3216 3844 3400 
Q 4144 3584 4550 3584 
Q 5097 3584 5394 3201 
Q 5691 2819 5691 2113 
L 5691 0 
L 5113 0 
L 5113 2094 
Q 5113 2597 4934 2840 
Q 4756 3084 4391 3084 
Q 3944 3084 3684 2787 
Q 3425 2491 3425 1978 
L 3425 0 
L 2847 0 
L 2847 2094 
Q 2847 2600 2669 2842 
Q 2491 3084 2119 3084 
Q 1678 3084 1418 2786 
Q 1159 2488 1159 1978 
L 1159 0 
L 581 0 
L 581 3500 
L 1159 3500 
L 1159 2956 
Q 1356 3278 1631 3431 
Q 1906 3584 2284 3584 
Q 2666 3584 2933 3390 
Q 3200 3197 3328 2828 
z
" transform="scale(0.015625)"/>
       <path id="DejaVuSans-61" d="M 2194 1759 
Q 1497 1759 1228 1600 
Q 959 1441 959 1056 
Q 959 750 1161 570 
Q 1363 391 1709 391 
Q 2188 391 2477 730 
Q 2766 1069 2766 1631 
L 2766 1759 
L 2194 1759 
z
M 3341 1997 
L 3341 0 
L 2766 0 
L 2766 531 
Q 2569 213 2275 61 
Q 1981 -91 1556 -91 
Q 1019 -91 701 211 
Q 384 513 384 1019 
Q 384 1609 779 1909 
Q 1175 2209 1959 2209 
L 2766 2209 
L 2766 2266 
Q 2766 2663 2505 2880 
Q 2244 3097 1772 3097 
Q 1472 3097 1187 3025 
Q 903 2953 641 2809 
L 641 3341 
Q 956 3463 1253 3523 
Q 1550 3584 1831 3584 
Q 2591 3584 2966 3190 
Q 3341 2797 3341 1997 
z
" transform="scale(0.015625)"/>
       <path id="DejaVuSans-78" d="M 3513 3500 
L 2247 1797 
L 3578 0 
L 2900 0 
L 1881 1375 
L 863 0 
L 184 0 
L 1544 1831 
L 300 3500 
L 978 3500 
L 1906 2253 
L 2834 3500 
L 3513 3500 
z
" transform="scale(0.015625)"/>
       <path id="DejaVuSans-5f" d="M 3263 -1063 
L 3263 -1509 
L -63 -1509 
L -63 -1063 
L 3263 -1063 
z
" transform="scale(0.015625)"/>
       <path id="DejaVuSans-48" d="M 628 4666 
L 1259 4666 
L 1259 2753 
L 3553 2753 
L 3553 4666 
L 4184 4666 
L 4184 0 
L 3553 0 
L 3553 2222 
L 1259 2222 
L 1259 0 
L 628 0 
L 628 4666 
z
" transform="scale(0.015625)"/>
       <path id="DejaVuSans-29" d="M 513 4856 
L 1013 4856 
Q 1481 4119 1714 3412 
Q 1947 2706 1947 2009 
Q 1947 1309 1714 600 
Q 1481 -109 1013 -844 
L 513 -844 
Q 928 -128 1133 580 
Q 1338 1288 1338 2009 
Q 1338 2731 1133 3434 
Q 928 4138 513 4856 
z
" transform="scale(0.015625)"/>
      </defs>
      <use xlink:href="#DejaVuSans-28"/>
      <use xlink:href="#DejaVuSans-55" x="39.013672"/>
      <use xlink:href="#DejaVuSans-73" x="112.207031"/>
      <use xlink:href="#DejaVuSans-69" x="164.306641"/>
      <use xlink:href="#DejaVuSans-6e" x="192.089844"/>
      <use xlink:href="#DejaVuSans-67" x="255.46875"/>
      <use xlink:href="#DejaVuSans-20" x="318.945312"/>
      <use xlink:href="#DejaVuSans-22" x="350.732422"/>
      <use xlink:href="#DejaVuSans-6d" x="396.728516"/>
      <use xlink:href="#DejaVuSans-61" x="494.140625"/>
      <use xlink:href="#DejaVuSans-78" x="555.419922"/>
      <use xlink:href="#DejaVuSans-5f" x="614.599609"/>
      <use xlink:href="#DejaVuSans-6d" x="664.599609"/>
      <use xlink:href="#DejaVuSans-65" x="762.011719"/>
      <use xlink:href="#DejaVuSans-61" x="823.535156"/>
      <use xlink:href="#DejaVuSans-6e" x="884.814453"/>
      <use xlink:href="#DejaVuSans-22" x="948.193359"/>
      <use xlink:href="#DejaVuSans-20" x="994.189453"/>
      <use xlink:href="#DejaVuSans-54" x="1025.976562"/>
      <use xlink:href="#DejaVuSans-68" x="1087.060547"/>
      <use xlink:href="#DejaVuSans-72" x="1150.439453"/>
      <use xlink:href="#DejaVuSans-65" x="1189.302734"/>
      <use xlink:href="#DejaVuSans-73" x="1250.826172"/>
      <use xlink:href="#DejaVuSans-68" x="1302.925781"/>
      <use xlink:href="#DejaVuSans-6f" x="1366.304688"/>
      <use xlink:href="#DejaVuSans-6c" x="1427.486328"/>
      <use xlink:href="#DejaVuSans-64" x="1455.269531"/>
      <use xlink:href="#DejaVuSans-20" x="1518.746094"/>
      <use xlink:href="#DejaVuSans-48" x="1550.533203"/>
      <use xlink:href="#DejaVuSans-61" x="1625.728516"/>
      <use xlink:href="#DejaVuSans-6e" x="1687.007812"/>
      <use xlink:href="#DejaVuSans-64" x="1750.386719"/>
      <use xlink:href="#DejaVuSans-6c" x="1813.863281"/>
      <use xlink:href="#DejaVuSans-69" x="1841.646484"/>
      <use xlink:href="#DejaVuSans-6e" x="1869.429688"/>
      <use xlink:href="#DejaVuSans-67" x="1932.808594"/>
      <use xlink:href="#DejaVuSans-29" x="1996.285156"/>
     </g>
    </g>
   </g>
   <g id="matplotlib.axis_2">
    <g id="ytick_1">
     <g id="line2d_7">
      <defs>
       <path id="m33c4007402" d="M 0 0 
L -3.5 0 
" style="stroke: #000000; stroke-width: 0.8"/>
      </defs>
      <g>
       <use xlink:href="#m33c4007402" x="99.11" y="436.074118" style="stroke: #000000; stroke-width: 0.8"/>
      </g>
     </g>
     <g id="text_8">
      <!-- 0.019 -->
      <g transform="translate(34.85375 443.672555) scale(0.2 -0.2)">
       <defs>
        <path id="DejaVuSans-2e" d="M 684 794 
L 1344 794 
L 1344 0 
L 684 0 
L 684 794 
z
" transform="scale(0.015625)"/>
        <path id="DejaVuSans-39" d="M 703 97 
L 703 672 
Q 941 559 1184 500 
Q 1428 441 1663 441 
Q 2288 441 2617 861 
Q 2947 1281 2994 2138 
Q 2813 1869 2534 1725 
Q 2256 1581 1919 1581 
Q 1219 1581 811 2004 
Q 403 2428 403 3163 
Q 403 3881 828 4315 
Q 1253 4750 1959 4750 
Q 2769 4750 3195 4129 
Q 3622 3509 3622 2328 
Q 3622 1225 3098 567 
Q 2575 -91 1691 -91 
Q 1453 -91 1209 -44 
Q 966 3 703 97 
z
M 1959 2075 
Q 2384 2075 2632 2365 
Q 2881 2656 2881 3163 
Q 2881 3666 2632 3958 
Q 2384 4250 1959 4250 
Q 1534 4250 1286 3958 
Q 1038 3666 1038 3163 
Q 1038 2656 1286 2365 
Q 1534 2075 1959 2075 
z
" transform="scale(0.015625)"/>
       </defs>
       <use xlink:href="#DejaVuSans-30"/>
       <use xlink:href="#DejaVuSans-2e" x="63.623047"/>
       <use xlink:href="#DejaVuSans-30" x="95.410156"/>
       <use xlink:href="#DejaVuSans-31" x="159.033203"/>
       <use xlink:href="#DejaVuSans-39" x="222.65625"/>
      </g>
     </g>
    </g>
    <g id="ytick_2">
     <g id="line2d_8">
      <g>
       <use xlink:href="#m33c4007402" x="99.11" y="341.092952" style="stroke: #000000; stroke-width: 0.8"/>
      </g>
     </g>
     <g id="text_9">
      <!-- 0.020 -->
      <g transform="translate(34.85375 348.69139) scale(0.2 -0.2)">
       <use xlink:href="#DejaVuSans-30"/>
       <use xlink:href="#DejaVuSans-2e" x="63.623047"/>
       <use xlink:href="#DejaVuSans-30" x="95.410156"/>
       <use xlink:href="#DejaVuSans-32" x="159.033203"/>
       <use xlink:href="#DejaVuSans-30" x="222.65625"/>
      </g>
     </g>
    </g>
    <g id="ytick_3">
     <g id="line2d_9">
      <g>
       <use xlink:href="#m33c4007402" x="99.11" y="246.111787" style="stroke: #000000; stroke-width: 0.8"/>
      </g>
     </g>
     <g id="text_10">
      <!-- 0.021 -->
      <g transform="translate(34.85375 253.710225) scale(0.2 -0.2)">
       <use xlink:href="#DejaVuSans-30"/>
       <use xlink:href="#DejaVuSans-2e" x="63.623047"/>
       <use xlink:href="#DejaVuSans-30" x="95.410156"/>
       <use xlink:href="#DejaVuSans-32" x="159.033203"/>
       <use xlink:href="#DejaVuSans-31" x="222.65625"/>
      </g>
     </g>
    </g>
    <g id="ytick_4">
     <g id="line2d_10">
      <g>
       <use xlink:href="#m33c4007402" x="99.11" y="151.130622" style="stroke: #000000; stroke-width: 0.8"/>
      </g>
     </g>
     <g id="text_11">
      <!-- 0.022 -->
      <g transform="translate(34.85375 158.72906) scale(0.2 -0.2)">
       <use xlink:href="#DejaVuSans-30"/>
       <use xlink:href="#DejaVuSans-2e" x="63.623047"/>
       <use xlink:href="#DejaVuSans-30" x="95.410156"/>
       <use xlink:href="#DejaVuSans-32" x="159.033203"/>
       <use xlink:href="#DejaVuSans-32" x="222.65625"/>
      </g>
     </g>
    </g>
    <g id="ytick_5">
     <g id="line2d_11">
      <g>
       <use xlink:href="#m33c4007402" x="99.11" y="56.149457" style="stroke: #000000; stroke-width: 0.8"/>
      </g>
     </g>
     <g id="text_12">
      <!-- 0.023 -->
      <g transform="translate(34.85375 63.747895) scale(0.2 -0.2)">
       <use xlink:href="#DejaVuSans-30"/>
       <use xlink:href="#DejaVuSans-2e" x="63.623047"/>
       <use xlink:href="#DejaVuSans-30" x="95.410156"/>
       <use xlink:href="#DejaVuSans-32" x="159.033203"/>
       <use xlink:href="#DejaVuSans-33" x="222.65625"/>
      </g>
     </g>
    </g>
    <g id="text_13">
     <!-- MAPE -->
     <g transform="translate(26.694375 278.133188) rotate(-90) scale(0.2 -0.2)">
      <defs>
       <path id="DejaVuSans-4d" d="M 628 4666 
L 1569 4666 
L 2759 1491 
L 3956 4666 
L 4897 4666 
L 4897 0 
L 4281 0 
L 4281 4097 
L 3078 897 
L 2444 897 
L 1241 4097 
L 1241 0 
L 628 0 
L 628 4666 
z
" transform="scale(0.015625)"/>
       <path id="DejaVuSans-41" d="M 2188 4044 
L 1331 1722 
L 3047 1722 
L 2188 4044 
z
M 1831 4666 
L 2547 4666 
L 4325 0 
L 3669 0 
L 3244 1197 
L 1141 1197 
L 716 0 
L 50 0 
L 1831 4666 
z
" transform="scale(0.015625)"/>
       <path id="DejaVuSans-45" d="M 628 4666 
L 3578 4666 
L 3578 4134 
L 1259 4134 
L 1259 2753 
L 3481 2753 
L 3481 2222 
L 1259 2222 
L 1259 531 
L 3634 531 
L 3634 0 
L 628 0 
L 628 4666 
z
" transform="scale(0.015625)"/>
      </defs>
      <use xlink:href="#DejaVuSans-4d"/>
      <use xlink:href="#DejaVuSans-41" x="86.279297"/>
      <use xlink:href="#DejaVuSans-50" x="154.6875"/>
      <use xlink:href="#DejaVuSans-45" x="214.990234"/>
     </g>
    </g>
   </g>
   <g id="line2d_12">
    <path d="M 146.477727 122.949394 
L 185.950833 173.324523 
L 225.423939 141.462331 
L 264.897045 134.286852 
L 304.370152 149.50521 
L 343.843258 119.635723 
L 383.316364 77.208412 
L 422.78947 140.615637 
L 462.262576 100.703792 
L 501.735682 103.47368 
L 541.208788 100.139905 
L 580.681894 117.272781 
L 620.155 112.653198 
L 659.628106 129.702571 
L 699.101212 170.945419 
L 738.574318 161.734921 
L 778.047424 138.729486 
L 817.52053 155.941529 
L 856.993636 165.957546 
L 896.466742 154.198783 
L 935.939848 133.813292 
L 975.412955 151.913964 
L 1014.886061 171.918422 
L 1054.359167 208.656566 
L 1093.832273 185.259666 
" clip-path="url(#p3a68647091)" style="fill: none; stroke: #1f77b4; stroke-width: 1.5; stroke-linecap: square"/>
   </g>
   <g id="line2d_13">
    <path d="M 146.477727 137.613409 
L 185.950833 207.177504 
L 225.423939 225.763165 
L 264.897045 211.248349 
L 304.370152 189.332031 
L 343.843258 169.857599 
L 383.316364 156.407095 
L 422.78947 196.857405 
L 462.262576 138.865467 
L 501.735682 142.134639 
L 541.208788 171.714038 
L 580.681894 197.015042 
L 620.155 198.035329 
L 659.628106 160.963595 
L 699.101212 162.187554 
L 738.574318 201.363137 
L 778.047424 185.287448 
L 817.52053 209.694568 
L 856.993636 185.905158 
L 896.466742 166.855783 
L 935.939848 128.758901 
L 975.412955 166.463384 
L 1014.886061 173.697941 
L 1054.359167 177.770322 
L 1093.832273 189.373411 
" clip-path="url(#p3a68647091)" style="fill: none; stroke: #ff7f0e; stroke-width: 1.5; stroke-linecap: square"/>
   </g>
   <g id="line2d_14">
    <path d="M 146.477727 189.604991 
L 185.950833 260.197051 
L 225.423939 283.560423 
L 264.897045 257.594377 
L 304.370152 279.870848 
L 343.843258 229.891031 
L 383.316364 205.569663 
L 422.78947 257.174497 
L 462.262576 223.292768 
L 501.735682 217.202148 
L 541.208788 234.643888 
L 580.681894 278.001397 
L 620.155 252.439955 
L 659.628106 248.779112 
L 699.101212 244.121125 
L 738.574318 269.71353 
L 778.047424 266.86742 
L 817.52053 274.194758 
L 856.993636 287.142178 
L 896.466742 284.414905 
L 935.939848 239.689731 
L 975.412955 248.451822 
L 1014.886061 257.44456 
L 1054.359167 231.187713 
L 1093.832273 281.089599 
" clip-path="url(#p3a68647091)" style="fill: none; stroke: #2ca02c; stroke-width: 1.5; stroke-linecap: square"/>
   </g>
   <g id="line2d_15">
    <path d="M 146.477727 262.275334 
L 185.950833 306.594131 
L 225.423939 347.01669 
L 264.897045 343.152334 
L 304.370152 320.226176 
L 343.843258 281.459503 
L 383.316364 220.790109 
L 422.78947 308.321063 
L 462.262576 294.490602 
L 501.735682 272.11 
L 541.208788 271.357987 
L 580.681894 267.156337 
L 620.155 322.545442 
L 659.628106 309.721639 
L 699.101212 310.991474 
L 738.574318 303.772652 
L 778.047424 294.112466 
L 817.52053 343.418155 
L 856.993636 297.244328 
L 896.466742 336.898695 
L 935.939848 308.407084 
L 975.412955 335.116453 
L 1014.886061 361.073301 
L 1054.359167 399.879249 
L 1093.832273 379.971197 
" clip-path="url(#p3a68647091)" style="fill: none; stroke: #d62728; stroke-width: 1.5; stroke-linecap: square"/>
   </g>
   <g id="line2d_16">
    <path d="M 146.477727 256.975299 
L 185.950833 308.335233 
L 225.423939 328.250851 
L 264.897045 305.280674 
L 304.370152 282.976422 
L 343.843258 204.579879 
L 383.316364 274.051142 
L 422.78947 308.161059 
L 462.262576 234.869764 
L 501.735682 279.836572 
L 541.208788 300.434121 
L 580.681894 274.222599 
L 620.155 306.98202 
L 659.628106 270.763113 
L 699.101212 269.792984 
L 738.574318 276.197472 
L 778.047424 262.303768 
L 817.52053 277.530123 
L 856.993636 312.392156 
L 896.466742 308.654098 
L 935.939848 274.280846 
L 975.412955 275.060001 
L 1014.886061 242.189709 
L 1054.359167 331.399186 
L 1093.832273 286.306691 
" clip-path="url(#p3a68647091)" style="fill: none; stroke: #9467bd; stroke-width: 1.5; stroke-linecap: square"/>
   </g>
   <g id="line2d_17">
    <path d="M 146.477727 249.293297 
L 185.950833 308.595828 
L 225.423939 295.692974 
L 264.897045 297.768502 
L 304.370152 284.36378 
L 343.843258 262.271696 
L 383.316364 240.718696 
L 422.78947 281.583233 
L 462.262576 271.459291 
L 501.735682 288.451804 
L 541.208788 283.918537 
L 580.681894 307.424651 
L 620.155 317.199664 
L 659.628106 279.827601 
L 699.101212 287.011027 
L 738.574318 310.371631 
L 778.047424 301.079704 
L 817.52053 311.271698 
L 856.993636 325.985111 
L 896.466742 309.957183 
L 935.939848 279.474584 
L 975.412955 290.451344 
L 1014.886061 304.425429 
L 1054.359167 321.038527 
L 1093.832273 315.593701 
" clip-path="url(#p3a68647091)" style="fill: none; stroke: #8c564b; stroke-width: 1.5; stroke-linecap: square"/>
   </g>
   <g id="line2d_18">
    <path d="M 146.477727 121.816361 
L 185.950833 174.15092 
L 225.423939 135.007174 
L 264.897045 132.957301 
L 304.370152 148.90144 
L 343.843258 117.951783 
L 383.316364 81.753662 
L 422.78947 138.361679 
L 462.262576 97.015767 
L 501.735682 106.047466 
L 541.208788 96.944313 
L 580.681894 106.535161 
L 620.155 109.24633 
L 659.628106 126.810318 
L 699.101212 160.61443 
L 738.574318 164.446583 
L 778.047424 143.19746 
L 817.52053 153.372935 
L 856.993636 159.251347 
L 896.466742 152.15454 
L 935.939848 133.789231 
L 975.412955 148.936815 
L 1014.886061 175.025746 
L 1054.359167 208.479752 
L 1093.832273 185.385412 
" clip-path="url(#p3a68647091)" style="fill: none; stroke: #e377c2; stroke-width: 1.5; stroke-linecap: square"/>
   </g>
   <g id="line2d_19">
    <path d="M 146.477727 319.951047 
L 185.950833 391.432541 
L 225.423939 381.340901 
L 264.897045 363.904004 
L 304.370152 378.02939 
L 343.843258 362.26347 
L 383.316364 334.172706 
L 422.78947 383.474745 
L 462.262576 347.015592 
L 501.735682 341.061762 
L 541.208788 381.340086 
L 580.681894 410.906142 
L 620.155 366.357071 
L 659.628106 368.213917 
L 699.101212 363.025857 
L 738.574318 396.033783 
L 778.047424 384.402733 
L 817.52053 409.695859 
L 856.993636 386.28616 
L 896.466742 407.645052 
L 935.939848 353.686912 
L 975.412955 364.189741 
L 1014.886061 367.08491 
L 1054.359167 357.867296 
L 1093.832273 384.431694 
" clip-path="url(#p3a68647091)" style="fill: none; stroke: #7f7f7f; stroke-width: 1.5; stroke-linecap: square"/>
   </g>
   <g id="line2d_20"/>
   <g id="line2d_21"/>
   <g id="line2d_22"/>
   <g id="line2d_23"/>
   <g id="line2d_24"/>
   <g id="line2d_25"/>
   <g id="line2d_26"/>
   <g id="line2d_27"/>
   <g id="patch_3">
    <path d="M 99.11 489.832 
L 99.11 10.8 
" style="fill: none; stroke: #000000; stroke-width: 0.8; stroke-linejoin: miter; stroke-linecap: square"/>
   </g>
   <g id="patch_4">
    <path d="M 1141.2 489.832 
L 1141.2 10.8 
" style="fill: none; stroke: #000000; stroke-width: 0.8; stroke-linejoin: miter; stroke-linecap: square"/>
   </g>
   <g id="patch_5">
    <path d="M 99.11 489.832 
L 1141.2 489.832 
" style="fill: none; stroke: #000000; stroke-width: 0.8; stroke-linejoin: miter; stroke-linecap: square"/>
   </g>
   <g id="patch_6">
    <path d="M 99.11 10.8 
L 1141.2 10.8 
" style="fill: none; stroke: #000000; stroke-width: 0.8; stroke-linejoin: miter; stroke-linecap: square"/>
   </g>
   <g id="legend_1">
    <g id="patch_7">
     <path d="M 110.31 481.832 
L 306.5475 481.832 
Q 309.7475 481.832 309.7475 478.632 
L 309.7475 290.572 
Q 309.7475 287.372 306.5475 287.372 
L 110.31 287.372 
Q 107.11 287.372 107.11 290.572 
L 107.11 478.632 
Q 107.11 481.832 110.31 481.832 
z
" style="fill: #ffffff; opacity: 0.8; stroke: #cccccc; stroke-linejoin: miter"/>
    </g>
    <g id="line2d_28">
     <path d="M 113.51 300.3295 
L 129.51 300.3295 
L 145.51 300.3295 
" style="fill: none; stroke: #1f77b4; stroke-width: 1.5; stroke-linecap: square"/>
    </g>
    <g id="text_14">
     <!-- BayesianRidge -->
     <g transform="translate(158.31 305.9295) scale(0.16 -0.16)">
      <defs>
       <path id="DejaVuSans-42" d="M 1259 2228 
L 1259 519 
L 2272 519 
Q 2781 519 3026 730 
Q 3272 941 3272 1375 
Q 3272 1813 3026 2020 
Q 2781 2228 2272 2228 
L 1259 2228 
z
M 1259 4147 
L 1259 2741 
L 2194 2741 
Q 2656 2741 2882 2914 
Q 3109 3088 3109 3444 
Q 3109 3797 2882 3972 
Q 2656 4147 2194 4147 
L 1259 4147 
z
M 628 4666 
L 2241 4666 
Q 2963 4666 3353 4366 
Q 3744 4066 3744 3513 
Q 3744 3084 3544 2831 
Q 3344 2578 2956 2516 
Q 3422 2416 3680 2098 
Q 3938 1781 3938 1306 
Q 3938 681 3513 340 
Q 3088 0 2303 0 
L 628 0 
L 628 4666 
z
" transform="scale(0.015625)"/>
       <path id="DejaVuSans-79" d="M 2059 -325 
Q 1816 -950 1584 -1140 
Q 1353 -1331 966 -1331 
L 506 -1331 
L 506 -850 
L 844 -850 
Q 1081 -850 1212 -737 
Q 1344 -625 1503 -206 
L 1606 56 
L 191 3500 
L 800 3500 
L 1894 763 
L 2988 3500 
L 3597 3500 
L 2059 -325 
z
" transform="scale(0.015625)"/>
       <path id="DejaVuSans-52" d="M 2841 2188 
Q 3044 2119 3236 1894 
Q 3428 1669 3622 1275 
L 4263 0 
L 3584 0 
L 2988 1197 
Q 2756 1666 2539 1819 
Q 2322 1972 1947 1972 
L 1259 1972 
L 1259 0 
L 628 0 
L 628 4666 
L 2053 4666 
Q 2853 4666 3247 4331 
Q 3641 3997 3641 3322 
Q 3641 2881 3436 2590 
Q 3231 2300 2841 2188 
z
M 1259 4147 
L 1259 2491 
L 2053 2491 
Q 2509 2491 2742 2702 
Q 2975 2913 2975 3322 
Q 2975 3731 2742 3939 
Q 2509 4147 2053 4147 
L 1259 4147 
z
" transform="scale(0.015625)"/>
      </defs>
      <use xlink:href="#DejaVuSans-42"/>
      <use xlink:href="#DejaVuSans-61" x="68.603516"/>
      <use xlink:href="#DejaVuSans-79" x="129.882812"/>
      <use xlink:href="#DejaVuSans-65" x="189.0625"/>
      <use xlink:href="#DejaVuSans-73" x="250.585938"/>
      <use xlink:href="#DejaVuSans-69" x="302.685547"/>
      <use xlink:href="#DejaVuSans-61" x="330.46875"/>
      <use xlink:href="#DejaVuSans-6e" x="391.748047"/>
      <use xlink:href="#DejaVuSans-52" x="455.126953"/>
      <use xlink:href="#DejaVuSans-69" x="524.609375"/>
      <use xlink:href="#DejaVuSans-64" x="552.392578"/>
      <use xlink:href="#DejaVuSans-67" x="615.869141"/>
      <use xlink:href="#DejaVuSans-65" x="679.345703"/>
     </g>
    </g>
    <g id="line2d_29">
     <path d="M 113.51 323.8145 
L 129.51 323.8145 
L 145.51 323.8145 
" style="fill: none; stroke: #ff7f0e; stroke-width: 1.5; stroke-linecap: square"/>
    </g>
    <g id="text_15">
     <!-- rf -->
     <g transform="translate(158.31 329.4145) scale(0.16 -0.16)">
      <defs>
       <path id="DejaVuSans-66" d="M 2375 4863 
L 2375 4384 
L 1825 4384 
Q 1516 4384 1395 4259 
Q 1275 4134 1275 3809 
L 1275 3500 
L 2222 3500 
L 2222 3053 
L 1275 3053 
L 1275 0 
L 697 0 
L 697 3053 
L 147 3053 
L 147 3500 
L 697 3500 
L 697 3744 
Q 697 4328 969 4595 
Q 1241 4863 1831 4863 
L 2375 4863 
z
" transform="scale(0.015625)"/>
      </defs>
      <use xlink:href="#DejaVuSans-72"/>
      <use xlink:href="#DejaVuSans-66" x="41.113281"/>
     </g>
    </g>
    <g id="line2d_30">
     <path d="M 113.51 347.2995 
L 129.51 347.2995 
L 145.51 347.2995 
" style="fill: none; stroke: #2ca02c; stroke-width: 1.5; stroke-linecap: square"/>
    </g>
    <g id="text_16">
     <!-- gbr -->
     <g transform="translate(158.31 352.8995) scale(0.16 -0.16)">
      <defs>
       <path id="DejaVuSans-62" d="M 3116 1747 
Q 3116 2381 2855 2742 
Q 2594 3103 2138 3103 
Q 1681 3103 1420 2742 
Q 1159 2381 1159 1747 
Q 1159 1113 1420 752 
Q 1681 391 2138 391 
Q 2594 391 2855 752 
Q 3116 1113 3116 1747 
z
M 1159 2969 
Q 1341 3281 1617 3432 
Q 1894 3584 2278 3584 
Q 2916 3584 3314 3078 
Q 3713 2572 3713 1747 
Q 3713 922 3314 415 
Q 2916 -91 2278 -91 
Q 1894 -91 1617 61 
Q 1341 213 1159 525 
L 1159 0 
L 581 0 
L 581 4863 
L 1159 4863 
L 1159 2969 
z
" transform="scale(0.015625)"/>
      </defs>
      <use xlink:href="#DejaVuSans-67"/>
      <use xlink:href="#DejaVuSans-62" x="63.476562"/>
      <use xlink:href="#DejaVuSans-72" x="126.953125"/>
     </g>
    </g>
    <g id="line2d_31">
     <path d="M 113.51 370.7845 
L 129.51 370.7845 
L 145.51 370.7845 
" style="fill: none; stroke: #d62728; stroke-width: 1.5; stroke-linecap: square"/>
    </g>
    <g id="text_17">
     <!-- xgb -->
     <g transform="translate(158.31 376.3845) scale(0.16 -0.16)">
      <use xlink:href="#DejaVuSans-78"/>
      <use xlink:href="#DejaVuSans-67" x="59.179688"/>
      <use xlink:href="#DejaVuSans-62" x="122.65625"/>
     </g>
    </g>
    <g id="line2d_32">
     <path d="M 113.51 394.2695 
L 129.51 394.2695 
L 145.51 394.2695 
" style="fill: none; stroke: #9467bd; stroke-width: 1.5; stroke-linecap: square"/>
    </g>
    <g id="text_18">
     <!-- gbr_gs -->
     <g transform="translate(158.31 399.8695) scale(0.16 -0.16)">
      <use xlink:href="#DejaVuSans-67"/>
      <use xlink:href="#DejaVuSans-62" x="63.476562"/>
      <use xlink:href="#DejaVuSans-72" x="126.953125"/>
      <use xlink:href="#DejaVuSans-5f" x="168.066406"/>
      <use xlink:href="#DejaVuSans-67" x="218.066406"/>
      <use xlink:href="#DejaVuSans-73" x="281.542969"/>
     </g>
    </g>
    <g id="line2d_33">
     <path d="M 113.51 418.1995 
L 129.51 418.1995 
L 145.51 418.1995 
" style="fill: none; stroke: #8c564b; stroke-width: 1.5; stroke-linecap: square"/>
    </g>
    <g id="text_19">
     <!-- rf_gs -->
     <g transform="translate(158.31 423.7995) scale(0.16 -0.16)">
      <use xlink:href="#DejaVuSans-72"/>
      <use xlink:href="#DejaVuSans-66" x="41.113281"/>
      <use xlink:href="#DejaVuSans-5f" x="76.318359"/>
      <use xlink:href="#DejaVuSans-67" x="126.318359"/>
      <use xlink:href="#DejaVuSans-73" x="189.794922"/>
     </g>
    </g>
    <g id="line2d_34">
     <path d="M 113.51 442.1295 
L 129.51 442.1295 
L 145.51 442.1295 
" style="fill: none; stroke: #e377c2; stroke-width: 1.5; stroke-linecap: square"/>
    </g>
    <g id="text_20">
     <!-- BayesianRidge_gs -->
     <g transform="translate(158.31 447.7295) scale(0.16 -0.16)">
      <use xlink:href="#DejaVuSans-42"/>
      <use xlink:href="#DejaVuSans-61" x="68.603516"/>
      <use xlink:href="#DejaVuSans-79" x="129.882812"/>
      <use xlink:href="#DejaVuSans-65" x="189.0625"/>
      <use xlink:href="#DejaVuSans-73" x="250.585938"/>
      <use xlink:href="#DejaVuSans-69" x="302.685547"/>
      <use xlink:href="#DejaVuSans-61" x="330.46875"/>
      <use xlink:href="#DejaVuSans-6e" x="391.748047"/>
      <use xlink:href="#DejaVuSans-52" x="455.126953"/>
      <use xlink:href="#DejaVuSans-69" x="524.609375"/>
      <use xlink:href="#DejaVuSans-64" x="552.392578"/>
      <use xlink:href="#DejaVuSans-67" x="615.869141"/>
      <use xlink:href="#DejaVuSans-65" x="679.345703"/>
      <use xlink:href="#DejaVuSans-5f" x="740.869141"/>
      <use xlink:href="#DejaVuSans-67" x="790.869141"/>
      <use xlink:href="#DejaVuSans-73" x="854.345703"/>
     </g>
    </g>
    <g id="line2d_35">
     <path d="M 113.51 466.0595 
L 129.51 466.0595 
L 145.51 466.0595 
" style="fill: none; stroke: #7f7f7f; stroke-width: 1.5; stroke-linecap: square"/>
    </g>
    <g id="text_21">
     <!-- xgb_gs -->
     <g transform="translate(158.31 471.6595) scale(0.16 -0.16)">
      <use xlink:href="#DejaVuSans-78"/>
      <use xlink:href="#DejaVuSans-67" x="59.179688"/>
      <use xlink:href="#DejaVuSans-62" x="122.65625"/>
      <use xlink:href="#DejaVuSans-5f" x="186.132812"/>
      <use xlink:href="#DejaVuSans-67" x="236.132812"/>
      <use xlink:href="#DejaVuSans-73" x="299.609375"/>
     </g>
    </g>
   </g>
  </g>
 </g>
 <defs>
  <clipPath id="p3a68647091">
   <rect x="99.11" y="10.8" width="1042.09" height="479.032"/>
  </clipPath>
 </defs>
</svg>
