<?xml version="1.0" encoding="utf-8" standalone="no"?>
<!DOCTYPE svg PUBLIC "-//W3C//DTD SVG 1.1//EN"
  "http://www.w3.org/Graphics/SVG/1.1/DTD/svg11.dtd">
<svg xmlns:xlink="http://www.w3.org/1999/xlink" width="1152pt" height="576pt" viewBox="0 0 1152 576" xmlns="http://www.w3.org/2000/svg" version="1.1">
 <metadata>
  <rdf:RDF xmlns:dc="http://purl.org/dc/elements/1.1/" xmlns:cc="http://creativecommons.org/ns#" xmlns:rdf="http://www.w3.org/1999/02/22-rdf-syntax-ns#">
   <cc:Work>
    <dc:type rdf:resource="http://purl.org/dc/dcmitype/StillImage"/>
    <dc:date>2025-03-26T16:23:05.914514</dc:date>
    <dc:format>image/svg+xml</dc:format>
    <dc:creator>
     <cc:Agent>
      <dc:title>Matplotlib v3.7.1, https://matplotlib.org/</dc:title>
     </cc:Agent>
    </dc:creator>
   </cc:Work>
  </rdf:RDF>
 </metadata>
 <defs>
  <style type="text/css">*{stroke-linejoin: round; stroke-linecap: butt}</style>
 </defs>
 <g id="figure_1">
  <g id="patch_1">
   <path d="M 0 576 
L 1152 576 
L 1152 0 
L 0 0 
z
" style="fill: #ffffff"/>
  </g>
  <g id="axes_1">
   <g id="patch_2">
    <path d="M 67.34 490.552 
L 1141.2 490.552 
L 1141.2 10.8 
L 67.34 10.8 
z
" style="fill: #ffffff"/>
   </g>
   <g id="PolyCollection_1">
    <defs>
     <path id="m55d882ce40" d="M 116.151818 -151.34944 
L 116.151818 -126.361785 
L 156.828333 -125.264186 
L 197.504848 -118.050071 
L 238.181364 -117.235586 
L 278.857879 -122.727018 
L 319.534394 -121.707123 
L 360.210909 -135.572746 
L 400.887424 -148.824558 
L 441.563939 -155.773495 
L 482.240455 -166.147634 
L 522.91697 -171.974513 
L 563.593485 -177.353539 
L 604.27 -215.533484 
L 644.946515 -222.08091 
L 685.62303 -231.671043 
L 726.299545 -238.385839 
L 766.976061 -248.745416 
L 807.652576 -257.861038 
L 848.329091 -252.207654 
L 889.005606 -270.84911 
L 929.682121 -303.608944 
L 970.358636 -298.482805 
L 1011.035152 -298.939861 
L 1051.711667 -297.416645 
L 1092.388182 -321.946134 
L 1092.388182 -508.991501 
L 1092.388182 -508.991501 
L 1051.711667 -501.629167 
L 1011.035152 -515.609317 
L 970.358636 -430.087681 
L 929.682121 -414.756037 
L 889.005606 -405.043301 
L 848.329091 -331.093434 
L 807.652576 -330.615042 
L 766.976061 -337.635686 
L 726.299545 -319.846349 
L 685.62303 -310.621789 
L 644.946515 -266.824707 
L 604.27 -275.27464 
L 563.593485 -234.803431 
L 522.91697 -219.223763 
L 482.240455 -193.91123 
L 441.563939 -221.902886 
L 400.887424 -210.703534 
L 360.210909 -198.739649 
L 319.534394 -186.086829 
L 278.857879 -189.687276 
L 238.181364 -169.090912 
L 197.504848 -159.606806 
L 156.828333 -140.522849 
L 116.151818 -151.34944 
z
" style="stroke: #1f77b4; stroke-opacity: 0.2"/>
    </defs>
    <g clip-path="url(#p7ad18718af)">
     <use xlink:href="#m55d882ce40" x="0" y="576" style="fill: #1f77b4; fill-opacity: 0.2; stroke: #1f77b4; stroke-opacity: 0.2"/>
    </g>
   </g>
   <g id="PolyCollection_2">
    <defs>
     <path id="m3f3ab3bda9" d="M 116.151818 -165.72342 
L 116.151818 -142.309303 
L 156.828333 -145.555063 
L 197.504848 -149.076433 
L 238.181364 -148.909381 
L 278.857879 -162.108109 
L 319.534394 -168.17924 
L 360.210909 -187.252161 
L 400.887424 -193.067365 
L 441.563939 -187.342236 
L 482.240455 -187.748511 
L 522.91697 -199.573217 
L 563.593485 -213.638701 
L 604.27 -235.165405 
L 644.946515 -234.84787 
L 685.62303 -252.99794 
L 726.299545 -246.791604 
L 766.976061 -267.057895 
L 807.652576 -286.65799 
L 848.329091 -280.086846 
L 889.005606 -316.822349 
L 929.682121 -324.927774 
L 970.358636 -323.939604 
L 1011.035152 -329.146959 
L 1051.711667 -316.103272 
L 1092.388182 -336.826157 
L 1092.388182 -429.236388 
L 1092.388182 -429.236388 
L 1051.711667 -423.734309 
L 1011.035152 -454.199418 
L 970.358636 -411.251003 
L 929.682121 -453.361855 
L 889.005606 -450.795315 
L 848.329091 -357.091639 
L 807.652576 -305.238869 
L 766.976061 -301.462342 
L 726.299545 -305.377445 
L 685.62303 -284.254107 
L 644.946515 -272.52785 
L 604.27 -264.209338 
L 563.593485 -228.168751 
L 522.91697 -220.987577 
L 482.240455 -203.677085 
L 441.563939 -220.724179 
L 400.887424 -221.752803 
L 360.210909 -211.385113 
L 319.534394 -197.17087 
L 278.857879 -205.942756 
L 238.181364 -184.523306 
L 197.504848 -193.915744 
L 156.828333 -158.874556 
L 116.151818 -165.72342 
z
" style="stroke: #ff7f0e; stroke-opacity: 0.2"/>
    </defs>
    <g clip-path="url(#p7ad18718af)">
     <use xlink:href="#m3f3ab3bda9" x="0" y="576" style="fill: #ff7f0e; fill-opacity: 0.2; stroke: #ff7f0e; stroke-opacity: 0.2"/>
    </g>
   </g>
   <g id="PolyCollection_3">
    <defs>
     <path id="m6728028c1e" d="M 116.151818 -189.698887 
L 116.151818 -170.868973 
L 156.828333 -161.567226 
L 197.504848 -157.083302 
L 238.181364 -148.97279 
L 278.857879 -158.327685 
L 319.534394 -169.398165 
L 360.210909 -186.648524 
L 400.887424 -185.943798 
L 441.563939 -190.878995 
L 482.240455 -189.646454 
L 522.91697 -203.529224 
L 563.593485 -226.519856 
L 604.27 -249.857339 
L 644.946515 -263.855866 
L 685.62303 -270.277047 
L 726.299545 -281.117053 
L 766.976061 -286.21044 
L 807.652576 -314.095886 
L 848.329091 -313.254365 
L 889.005606 -329.719684 
L 929.682121 -343.73942 
L 970.358636 -344.879611 
L 1011.035152 -368.677278 
L 1051.711667 -358.448436 
L 1092.388182 -379.837432 
L 1092.388182 -533.458253 
L 1092.388182 -533.458253 
L 1051.711667 -543.393091 
L 1011.035152 -539.607863 
L 970.358636 -454.884768 
L 929.682121 -434.496178 
L 889.005606 -432.339751 
L 848.329091 -375.177512 
L 807.652576 -386.472869 
L 766.976061 -347.810681 
L 726.299545 -362.810362 
L 685.62303 -332.69014 
L 644.946515 -312.892998 
L 604.27 -331.347985 
L 563.593485 -305.000458 
L 522.91697 -253.672866 
L 482.240455 -232.763223 
L 441.563939 -245.385739 
L 400.887424 -240.568832 
L 360.210909 -225.538462 
L 319.534394 -240.062819 
L 278.857879 -229.120853 
L 238.181364 -206.961692 
L 197.504848 -192.476127 
L 156.828333 -170.199009 
L 116.151818 -189.698887 
z
" style="stroke: #2ca02c; stroke-opacity: 0.2"/>
    </defs>
    <g clip-path="url(#p7ad18718af)">
     <use xlink:href="#m6728028c1e" x="0" y="576" style="fill: #2ca02c; fill-opacity: 0.2; stroke: #2ca02c; stroke-opacity: 0.2"/>
    </g>
   </g>
   <g id="PolyCollection_4">
    <defs>
     <path id="ma6fb041c2a" d="M 116.151818 -183.024816 
L 116.151818 -147.843731 
L 156.828333 -132.711234 
L 197.504848 -126.626907 
L 238.181364 -123.319415 
L 278.857879 -134.1463 
L 319.534394 -135.69759 
L 360.210909 -156.487802 
L 400.887424 -148.42245 
L 441.563939 -178.8224 
L 482.240455 -166.186854 
L 522.91697 -181.968274 
L 563.593485 -207.352389 
L 604.27 -234.541133 
L 644.946515 -227.226285 
L 685.62303 -259.639234 
L 726.299545 -235.551995 
L 766.976061 -248.555352 
L 807.652576 -289.848847 
L 848.329091 -278.719516 
L 889.005606 -285.957765 
L 929.682121 -306.455648 
L 970.358636 -298.146487 
L 1011.035152 -297.333632 
L 1051.711667 -322.791868 
L 1092.388182 -309.506429 
L 1092.388182 -431.49029 
L 1092.388182 -431.49029 
L 1051.711667 -431.891865 
L 1011.035152 -462.392169 
L 970.358636 -450.725816 
L 929.682121 -468.752354 
L 889.005606 -445.744543 
L 848.329091 -346.444959 
L 807.652576 -347.60069 
L 766.976061 -321.980299 
L 726.299545 -353.254335 
L 685.62303 -315.24189 
L 644.946515 -277.411713 
L 604.27 -273.078531 
L 563.593485 -269.063515 
L 522.91697 -225.228747 
L 482.240455 -207.419015 
L 441.563939 -233.655048 
L 400.887424 -218.131672 
L 360.210909 -210.221147 
L 319.534394 -198.109039 
L 278.857879 -221.644445 
L 238.181364 -171.618655 
L 197.504848 -169.839963 
L 156.828333 -158.84202 
L 116.151818 -183.024816 
z
" style="stroke: #d62728; stroke-opacity: 0.2"/>
    </defs>
    <g clip-path="url(#p7ad18718af)">
     <use xlink:href="#ma6fb041c2a" x="0" y="576" style="fill: #d62728; fill-opacity: 0.2; stroke: #d62728; stroke-opacity: 0.2"/>
    </g>
   </g>
   <g id="PolyCollection_5">
    <defs>
     <path id="ma8b31f6d09" d="M 116.151818 -134.401108 
L 116.151818 -115.090332 
L 156.828333 -117.341091 
L 197.504848 -108.479641 
L 238.181364 -107.254909 
L 278.857879 -111.652574 
L 319.534394 -118.6659 
L 360.210909 -130.662498 
L 400.887424 -138.873875 
L 441.563939 -145.334873 
L 482.240455 -156.728827 
L 522.91697 -161.281973 
L 563.593485 -165.911825 
L 604.27 -201.829239 
L 644.946515 -212.070295 
L 685.62303 -225.750402 
L 726.299545 -227.368611 
L 766.976061 -236.453991 
L 807.652576 -240.956407 
L 848.329091 -231.773697 
L 889.005606 -255.697927 
L 929.682121 -284.262476 
L 970.358636 -280.119889 
L 1011.035152 -290.987874 
L 1051.711667 -277.009043 
L 1092.388182 -288.798276 
L 1092.388182 -458.840204 
L 1092.388182 -458.840204 
L 1051.711667 -456.923672 
L 1011.035152 -473.240052 
L 970.358636 -404.851107 
L 929.682121 -394.117026 
L 889.005606 -384.603914 
L 848.329091 -314.607297 
L 807.652576 -326.172781 
L 766.976061 -326.113486 
L 726.299545 -318.256228 
L 685.62303 -294.355638 
L 644.946515 -258.014213 
L 604.27 -263.393266 
L 563.593485 -223.78339 
L 522.91697 -209.24343 
L 482.240455 -190.285252 
L 441.563939 -220.086031 
L 400.887424 -204.539349 
L 360.210909 -201.481142 
L 319.534394 -182.394199 
L 278.857879 -180.10775 
L 238.181364 -157.846012 
L 197.504848 -149.882094 
L 156.828333 -131.409727 
L 116.151818 -134.401108 
z
" style="stroke: #9467bd; stroke-opacity: 0.2"/>
    </defs>
    <g clip-path="url(#p7ad18718af)">
     <use xlink:href="#ma8b31f6d09" x="0" y="576" style="fill: #9467bd; fill-opacity: 0.2; stroke: #9467bd; stroke-opacity: 0.2"/>
    </g>
   </g>
   <g id="PolyCollection_6">
    <defs>
     <path id="mb62ba245c4" d="M 116.151818 -165.072357 
L 116.151818 -141.148729 
L 156.828333 -145.349625 
L 197.504848 -150.684969 
L 238.181364 -146.896134 
L 278.857879 -161.213584 
L 319.534394 -165.055954 
L 360.210909 -187.406199 
L 400.887424 -192.016406 
L 441.563939 -187.653987 
L 482.240455 -188.028782 
L 522.91697 -199.022739 
L 563.593485 -214.00811 
L 604.27 -235.347577 
L 644.946515 -236.235226 
L 685.62303 -254.617324 
L 726.299545 -247.664287 
L 766.976061 -267.336222 
L 807.652576 -281.981928 
L 848.329091 -277.988192 
L 889.005606 -309.603233 
L 929.682121 -320.641861 
L 970.358636 -320.830955 
L 1011.035152 -326.093175 
L 1051.711667 -309.400295 
L 1092.388182 -332.067069 
L 1092.388182 -426.991311 
L 1092.388182 -426.991311 
L 1051.711667 -419.260379 
L 1011.035152 -451.203632 
L 970.358636 -407.004909 
L 929.682121 -457.074608 
L 889.005606 -451.00399 
L 848.329091 -357.288676 
L 807.652576 -305.158788 
L 766.976061 -296.188354 
L 726.299545 -306.849766 
L 685.62303 -284.089928 
L 644.946515 -273.335133 
L 604.27 -264.946816 
L 563.593485 -229.411859 
L 522.91697 -218.701236 
L 482.240455 -202.862146 
L 441.563939 -220.973967 
L 400.887424 -219.698043 
L 360.210909 -209.323288 
L 319.534394 -194.85872 
L 278.857879 -204.521848 
L 238.181364 -185.982367 
L 197.504848 -200.26276 
L 156.828333 -160.845979 
L 116.151818 -165.072357 
z
" style="stroke: #8c564b; stroke-opacity: 0.2"/>
    </defs>
    <g clip-path="url(#p7ad18718af)">
     <use xlink:href="#mb62ba245c4" x="0" y="576" style="fill: #8c564b; fill-opacity: 0.2; stroke: #8c564b; stroke-opacity: 0.2"/>
    </g>
   </g>
   <g id="PolyCollection_7">
    <defs>
     <path id="m3045adc15d" d="M 116.151818 -158.369234 
L 116.151818 -137.473608 
L 156.828333 -135.319954 
L 197.504848 -126.595985 
L 238.181364 -130.847424 
L 278.857879 -141.854877 
L 319.534394 -148.138777 
L 360.210909 -163.963678 
L 400.887424 -167.606855 
L 441.563939 -174.505988 
L 482.240455 -160.796781 
L 522.91697 -187.033362 
L 563.593485 -204.869849 
L 604.27 -227.181458 
L 644.946515 -223.920157 
L 685.62303 -235.289424 
L 726.299545 -217.828677 
L 766.976061 -234.622407 
L 807.652576 -255.2061 
L 848.329091 -254.933154 
L 889.005606 -281.075231 
L 929.682121 -296.162516 
L 970.358636 -291.225538 
L 1011.035152 -302.44125 
L 1051.711667 -279.870531 
L 1092.388182 -294.830642 
L 1092.388182 -385.704359 
L 1092.388182 -385.704359 
L 1051.711667 -380.305285 
L 1011.035152 -410.073061 
L 970.358636 -374.987153 
L 929.682121 -382.685014 
L 889.005606 -370.620199 
L 848.329091 -300.651317 
L 807.652576 -294.075316 
L 766.976061 -289.510253 
L 726.299545 -293.251284 
L 685.62303 -274.418373 
L 644.946515 -271.170864 
L 604.27 -259.818918 
L 563.593485 -234.968191 
L 522.91697 -224.744686 
L 482.240455 -191.376895 
L 441.563939 -217.22291 
L 400.887424 -199.803593 
L 360.210909 -189.813698 
L 319.534394 -193.614909 
L 278.857879 -190.756124 
L 238.181364 -169.156538 
L 197.504848 -170.734757 
L 156.828333 -150.898742 
L 116.151818 -158.369234 
z
" style="stroke: #e377c2; stroke-opacity: 0.2"/>
    </defs>
    <g clip-path="url(#p7ad18718af)">
     <use xlink:href="#m3045adc15d" x="0" y="576" style="fill: #e377c2; fill-opacity: 0.2; stroke: #e377c2; stroke-opacity: 0.2"/>
    </g>
   </g>
   <g id="PolyCollection_8">
    <defs>
     <path id="m217dafbf2a" d="M 116.151818 -166.154009 
L 116.151818 -136.815255 
L 156.828333 -143.899517 
L 197.504848 -135.862174 
L 238.181364 -144.980621 
L 278.857879 -154.348892 
L 319.534394 -162.08346 
L 360.210909 -162.979879 
L 400.887424 -178.607776 
L 441.563939 -181.844233 
L 482.240455 -166.255897 
L 522.91697 -191.139836 
L 563.593485 -198.422322 
L 604.27 -230.896191 
L 644.946515 -226.075276 
L 685.62303 -245.656285 
L 726.299545 -217.686923 
L 766.976061 -221.863748 
L 807.652576 -257.560295 
L 848.329091 -267.093332 
L 889.005606 -298.642389 
L 929.682121 -305.530156 
L 970.358636 -290.466711 
L 1011.035152 -302.004024 
L 1051.711667 -293.761741 
L 1092.388182 -307.757811 
L 1092.388182 -401.227167 
L 1092.388182 -401.227167 
L 1051.711667 -404.972309 
L 1011.035152 -423.170514 
L 970.358636 -353.820383 
L 929.682121 -385.267383 
L 889.005606 -383.629905 
L 848.329091 -323.186445 
L 807.652576 -314.54193 
L 766.976061 -309.694529 
L 726.299545 -273.959437 
L 685.62303 -276.034545 
L 644.946515 -254.974374 
L 604.27 -261.49909 
L 563.593485 -218.907731 
L 522.91697 -219.281821 
L 482.240455 -203.491256 
L 441.563939 -226.865684 
L 400.887424 -203.580792 
L 360.210909 -211.134 
L 319.534394 -208.082152 
L 278.857879 -179.521226 
L 238.181364 -181.151717 
L 197.504848 -176.32145 
L 156.828333 -156.42603 
L 116.151818 -166.154009 
z
" style="stroke: #7f7f7f; stroke-opacity: 0.2"/>
    </defs>
    <g clip-path="url(#p7ad18718af)">
     <use xlink:href="#m217dafbf2a" x="0" y="576" style="fill: #7f7f7f; fill-opacity: 0.2; stroke: #7f7f7f; stroke-opacity: 0.2"/>
    </g>
   </g>
   <g id="matplotlib.axis_1">
    <g id="xtick_1">
     <g id="line2d_1">
      <defs>
       <path id="mda3e639b56" d="M 0 0 
L 0 3.5 
" style="stroke: #000000; stroke-width: 0.8"/>
      </defs>
      <g>
       <use xlink:href="#mda3e639b56" x="95.813561" y="490.552" style="stroke: #000000; stroke-width: 0.8"/>
      </g>
     </g>
     <g id="text_1">
      <!-- 0 -->
      <g transform="translate(89.451061 512.748875) scale(0.2 -0.2)">
       <defs>
        <path id="DejaVuSans-30" d="M 2034 4250 
Q 1547 4250 1301 3770 
Q 1056 3291 1056 2328 
Q 1056 1369 1301 889 
Q 1547 409 2034 409 
Q 2525 409 2770 889 
Q 3016 1369 3016 2328 
Q 3016 3291 2770 3770 
Q 2525 4250 2034 4250 
z
M 2034 4750 
Q 2819 4750 3233 4129 
Q 3647 3509 3647 2328 
Q 3647 1150 3233 529 
Q 2819 -91 2034 -91 
Q 1250 -91 836 529 
Q 422 1150 422 2328 
Q 422 3509 836 4129 
Q 1250 4750 2034 4750 
z
" transform="scale(0.015625)"/>
       </defs>
       <use xlink:href="#DejaVuSans-30"/>
      </g>
     </g>
    </g>
    <g id="xtick_2">
     <g id="line2d_2">
      <g>
       <use xlink:href="#mda3e639b56" x="299.196136" y="490.552" style="stroke: #000000; stroke-width: 0.8"/>
      </g>
     </g>
     <g id="text_2">
      <!-- 10 -->
      <g transform="translate(286.471136 512.748875) scale(0.2 -0.2)">
       <defs>
        <path id="DejaVuSans-31" d="M 794 531 
L 1825 531 
L 1825 4091 
L 703 3866 
L 703 4441 
L 1819 4666 
L 2450 4666 
L 2450 531 
L 3481 531 
L 3481 0 
L 794 0 
L 794 531 
z
" transform="scale(0.015625)"/>
       </defs>
       <use xlink:href="#DejaVuSans-31"/>
       <use xlink:href="#DejaVuSans-30" x="63.623047"/>
      </g>
     </g>
    </g>
    <g id="xtick_3">
     <g id="line2d_3">
      <g>
       <use xlink:href="#mda3e639b56" x="502.578712" y="490.552" style="stroke: #000000; stroke-width: 0.8"/>
      </g>
     </g>
     <g id="text_3">
      <!-- 20 -->
      <g transform="translate(489.853712 512.748875) scale(0.2 -0.2)">
       <defs>
        <path id="DejaVuSans-32" d="M 1228 531 
L 3431 531 
L 3431 0 
L 469 0 
L 469 531 
Q 828 903 1448 1529 
Q 2069 2156 2228 2338 
Q 2531 2678 2651 2914 
Q 2772 3150 2772 3378 
Q 2772 3750 2511 3984 
Q 2250 4219 1831 4219 
Q 1534 4219 1204 4116 
Q 875 4013 500 3803 
L 500 4441 
Q 881 4594 1212 4672 
Q 1544 4750 1819 4750 
Q 2544 4750 2975 4387 
Q 3406 4025 3406 3419 
Q 3406 3131 3298 2873 
Q 3191 2616 2906 2266 
Q 2828 2175 2409 1742 
Q 1991 1309 1228 531 
z
" transform="scale(0.015625)"/>
       </defs>
       <use xlink:href="#DejaVuSans-32"/>
       <use xlink:href="#DejaVuSans-30" x="63.623047"/>
      </g>
     </g>
    </g>
    <g id="xtick_4">
     <g id="line2d_4">
      <g>
       <use xlink:href="#mda3e639b56" x="705.961288" y="490.552" style="stroke: #000000; stroke-width: 0.8"/>
      </g>
     </g>
     <g id="text_4">
      <!-- 30 -->
      <g transform="translate(693.236288 512.748875) scale(0.2 -0.2)">
       <defs>
        <path id="DejaVuSans-33" d="M 2597 2516 
Q 3050 2419 3304 2112 
Q 3559 1806 3559 1356 
Q 3559 666 3084 287 
Q 2609 -91 1734 -91 
Q 1441 -91 1130 -33 
Q 819 25 488 141 
L 488 750 
Q 750 597 1062 519 
Q 1375 441 1716 441 
Q 2309 441 2620 675 
Q 2931 909 2931 1356 
Q 2931 1769 2642 2001 
Q 2353 2234 1838 2234 
L 1294 2234 
L 1294 2753 
L 1863 2753 
Q 2328 2753 2575 2939 
Q 2822 3125 2822 3475 
Q 2822 3834 2567 4026 
Q 2313 4219 1838 4219 
Q 1578 4219 1281 4162 
Q 984 4106 628 3988 
L 628 4550 
Q 988 4650 1302 4700 
Q 1616 4750 1894 4750 
Q 2613 4750 3031 4423 
Q 3450 4097 3450 3541 
Q 3450 3153 3228 2886 
Q 3006 2619 2597 2516 
z
" transform="scale(0.015625)"/>
       </defs>
       <use xlink:href="#DejaVuSans-33"/>
       <use xlink:href="#DejaVuSans-30" x="63.623047"/>
      </g>
     </g>
    </g>
    <g id="xtick_5">
     <g id="line2d_5">
      <g>
       <use xlink:href="#mda3e639b56" x="909.343864" y="490.552" style="stroke: #000000; stroke-width: 0.8"/>
      </g>
     </g>
     <g id="text_5">
      <!-- 40 -->
      <g transform="translate(896.618864 512.748875) scale(0.2 -0.2)">
       <defs>
        <path id="DejaVuSans-34" d="M 2419 4116 
L 825 1625 
L 2419 1625 
L 2419 4116 
z
M 2253 4666 
L 3047 4666 
L 3047 1625 
L 3713 1625 
L 3713 1100 
L 3047 1100 
L 3047 0 
L 2419 0 
L 2419 1100 
L 313 1100 
L 313 1709 
L 2253 4666 
z
" transform="scale(0.015625)"/>
       </defs>
       <use xlink:href="#DejaVuSans-34"/>
       <use xlink:href="#DejaVuSans-30" x="63.623047"/>
      </g>
     </g>
    </g>
    <g id="xtick_6">
     <g id="line2d_6">
      <g>
       <use xlink:href="#mda3e639b56" x="1112.726439" y="490.552" style="stroke: #000000; stroke-width: 0.8"/>
      </g>
     </g>
     <g id="text_6">
      <!-- 50 -->
      <g transform="translate(1100.001439 512.748875) scale(0.2 -0.2)">
       <defs>
        <path id="DejaVuSans-35" d="M 691 4666 
L 3169 4666 
L 3169 4134 
L 1269 4134 
L 1269 2991 
Q 1406 3038 1543 3061 
Q 1681 3084 1819 3084 
Q 2600 3084 3056 2656 
Q 3513 2228 3513 1497 
Q 3513 744 3044 326 
Q 2575 -91 1722 -91 
Q 1428 -91 1123 -41 
Q 819 9 494 109 
L 494 744 
Q 775 591 1075 516 
Q 1375 441 1709 441 
Q 2250 441 2565 725 
Q 2881 1009 2881 1497 
Q 2881 1984 2565 2268 
Q 2250 2553 1709 2553 
Q 1456 2553 1204 2497 
Q 953 2441 691 2322 
L 691 4666 
z
" transform="scale(0.015625)"/>
       </defs>
       <use xlink:href="#DejaVuSans-35"/>
       <use xlink:href="#DejaVuSans-30" x="63.623047"/>
      </g>
     </g>
    </g>
    <g id="text_7">
     <!-- Percentile Threshold -->
     <g transform="translate(502.490313 536.105125) scale(0.2 -0.2)">
      <defs>
       <path id="DejaVuSans-50" d="M 1259 4147 
L 1259 2394 
L 2053 2394 
Q 2494 2394 2734 2622 
Q 2975 2850 2975 3272 
Q 2975 3691 2734 3919 
Q 2494 4147 2053 4147 
L 1259 4147 
z
M 628 4666 
L 2053 4666 
Q 2838 4666 3239 4311 
Q 3641 3956 3641 3272 
Q 3641 2581 3239 2228 
Q 2838 1875 2053 1875 
L 1259 1875 
L 1259 0 
L 628 0 
L 628 4666 
z
" transform="scale(0.015625)"/>
       <path id="DejaVuSans-65" d="M 3597 1894 
L 3597 1613 
L 953 1613 
Q 991 1019 1311 708 
Q 1631 397 2203 397 
Q 2534 397 2845 478 
Q 3156 559 3463 722 
L 3463 178 
Q 3153 47 2828 -22 
Q 2503 -91 2169 -91 
Q 1331 -91 842 396 
Q 353 884 353 1716 
Q 353 2575 817 3079 
Q 1281 3584 2069 3584 
Q 2775 3584 3186 3129 
Q 3597 2675 3597 1894 
z
M 3022 2063 
Q 3016 2534 2758 2815 
Q 2500 3097 2075 3097 
Q 1594 3097 1305 2825 
Q 1016 2553 972 2059 
L 3022 2063 
z
" transform="scale(0.015625)"/>
       <path id="DejaVuSans-72" d="M 2631 2963 
Q 2534 3019 2420 3045 
Q 2306 3072 2169 3072 
Q 1681 3072 1420 2755 
Q 1159 2438 1159 1844 
L 1159 0 
L 581 0 
L 581 3500 
L 1159 3500 
L 1159 2956 
Q 1341 3275 1631 3429 
Q 1922 3584 2338 3584 
Q 2397 3584 2469 3576 
Q 2541 3569 2628 3553 
L 2631 2963 
z
" transform="scale(0.015625)"/>
       <path id="DejaVuSans-63" d="M 3122 3366 
L 3122 2828 
Q 2878 2963 2633 3030 
Q 2388 3097 2138 3097 
Q 1578 3097 1268 2742 
Q 959 2388 959 1747 
Q 959 1106 1268 751 
Q 1578 397 2138 397 
Q 2388 397 2633 464 
Q 2878 531 3122 666 
L 3122 134 
Q 2881 22 2623 -34 
Q 2366 -91 2075 -91 
Q 1284 -91 818 406 
Q 353 903 353 1747 
Q 353 2603 823 3093 
Q 1294 3584 2113 3584 
Q 2378 3584 2631 3529 
Q 2884 3475 3122 3366 
z
" transform="scale(0.015625)"/>
       <path id="DejaVuSans-6e" d="M 3513 2113 
L 3513 0 
L 2938 0 
L 2938 2094 
Q 2938 2591 2744 2837 
Q 2550 3084 2163 3084 
Q 1697 3084 1428 2787 
Q 1159 2491 1159 1978 
L 1159 0 
L 581 0 
L 581 3500 
L 1159 3500 
L 1159 2956 
Q 1366 3272 1645 3428 
Q 1925 3584 2291 3584 
Q 2894 3584 3203 3211 
Q 3513 2838 3513 2113 
z
" transform="scale(0.015625)"/>
       <path id="DejaVuSans-74" d="M 1172 4494 
L 1172 3500 
L 2356 3500 
L 2356 3053 
L 1172 3053 
L 1172 1153 
Q 1172 725 1289 603 
Q 1406 481 1766 481 
L 2356 481 
L 2356 0 
L 1766 0 
Q 1100 0 847 248 
Q 594 497 594 1153 
L 594 3053 
L 172 3053 
L 172 3500 
L 594 3500 
L 594 4494 
L 1172 4494 
z
" transform="scale(0.015625)"/>
       <path id="DejaVuSans-69" d="M 603 3500 
L 1178 3500 
L 1178 0 
L 603 0 
L 603 3500 
z
M 603 4863 
L 1178 4863 
L 1178 4134 
L 603 4134 
L 603 4863 
z
" transform="scale(0.015625)"/>
       <path id="DejaVuSans-6c" d="M 603 4863 
L 1178 4863 
L 1178 0 
L 603 0 
L 603 4863 
z
" transform="scale(0.015625)"/>
       <path id="DejaVuSans-20" transform="scale(0.015625)"/>
       <path id="DejaVuSans-54" d="M -19 4666 
L 3928 4666 
L 3928 4134 
L 2272 4134 
L 2272 0 
L 1638 0 
L 1638 4134 
L -19 4134 
L -19 4666 
z
" transform="scale(0.015625)"/>
       <path id="DejaVuSans-68" d="M 3513 2113 
L 3513 0 
L 2938 0 
L 2938 2094 
Q 2938 2591 2744 2837 
Q 2550 3084 2163 3084 
Q 1697 3084 1428 2787 
Q 1159 2491 1159 1978 
L 1159 0 
L 581 0 
L 581 4863 
L 1159 4863 
L 1159 2956 
Q 1366 3272 1645 3428 
Q 1925 3584 2291 3584 
Q 2894 3584 3203 3211 
Q 3513 2838 3513 2113 
z
" transform="scale(0.015625)"/>
       <path id="DejaVuSans-73" d="M 2834 3397 
L 2834 2853 
Q 2591 2978 2328 3040 
Q 2066 3103 1784 3103 
Q 1356 3103 1142 2972 
Q 928 2841 928 2578 
Q 928 2378 1081 2264 
Q 1234 2150 1697 2047 
L 1894 2003 
Q 2506 1872 2764 1633 
Q 3022 1394 3022 966 
Q 3022 478 2636 193 
Q 2250 -91 1575 -91 
Q 1294 -91 989 -36 
Q 684 19 347 128 
L 347 722 
Q 666 556 975 473 
Q 1284 391 1588 391 
Q 1994 391 2212 530 
Q 2431 669 2431 922 
Q 2431 1156 2273 1281 
Q 2116 1406 1581 1522 
L 1381 1569 
Q 847 1681 609 1914 
Q 372 2147 372 2553 
Q 372 3047 722 3315 
Q 1072 3584 1716 3584 
Q 2034 3584 2315 3537 
Q 2597 3491 2834 3397 
z
" transform="scale(0.015625)"/>
       <path id="DejaVuSans-6f" d="M 1959 3097 
Q 1497 3097 1228 2736 
Q 959 2375 959 1747 
Q 959 1119 1226 758 
Q 1494 397 1959 397 
Q 2419 397 2687 759 
Q 2956 1122 2956 1747 
Q 2956 2369 2687 2733 
Q 2419 3097 1959 3097 
z
M 1959 3584 
Q 2709 3584 3137 3096 
Q 3566 2609 3566 1747 
Q 3566 888 3137 398 
Q 2709 -91 1959 -91 
Q 1206 -91 779 398 
Q 353 888 353 1747 
Q 353 2609 779 3096 
Q 1206 3584 1959 3584 
z
" transform="scale(0.015625)"/>
       <path id="DejaVuSans-64" d="M 2906 2969 
L 2906 4863 
L 3481 4863 
L 3481 0 
L 2906 0 
L 2906 525 
Q 2725 213 2448 61 
Q 2172 -91 1784 -91 
Q 1150 -91 751 415 
Q 353 922 353 1747 
Q 353 2572 751 3078 
Q 1150 3584 1784 3584 
Q 2172 3584 2448 3432 
Q 2725 3281 2906 2969 
z
M 947 1747 
Q 947 1113 1208 752 
Q 1469 391 1925 391 
Q 2381 391 2643 752 
Q 2906 1113 2906 1747 
Q 2906 2381 2643 2742 
Q 2381 3103 1925 3103 
Q 1469 3103 1208 2742 
Q 947 2381 947 1747 
z
" transform="scale(0.015625)"/>
      </defs>
      <use xlink:href="#DejaVuSans-50"/>
      <use xlink:href="#DejaVuSans-65" x="56.677734"/>
      <use xlink:href="#DejaVuSans-72" x="118.201172"/>
      <use xlink:href="#DejaVuSans-63" x="157.064453"/>
      <use xlink:href="#DejaVuSans-65" x="212.044922"/>
      <use xlink:href="#DejaVuSans-6e" x="273.568359"/>
      <use xlink:href="#DejaVuSans-74" x="336.947266"/>
      <use xlink:href="#DejaVuSans-69" x="376.15625"/>
      <use xlink:href="#DejaVuSans-6c" x="403.939453"/>
      <use xlink:href="#DejaVuSans-65" x="431.722656"/>
      <use xlink:href="#DejaVuSans-20" x="493.246094"/>
      <use xlink:href="#DejaVuSans-54" x="525.033203"/>
      <use xlink:href="#DejaVuSans-68" x="586.117188"/>
      <use xlink:href="#DejaVuSans-72" x="649.496094"/>
      <use xlink:href="#DejaVuSans-65" x="688.359375"/>
      <use xlink:href="#DejaVuSans-73" x="749.882812"/>
      <use xlink:href="#DejaVuSans-68" x="801.982422"/>
      <use xlink:href="#DejaVuSans-6f" x="865.361328"/>
      <use xlink:href="#DejaVuSans-6c" x="926.542969"/>
      <use xlink:href="#DejaVuSans-64" x="954.326172"/>
     </g>
     <!-- (Using "merge" Threshold Handling) -->
     <g transform="translate(423.555938 558.50075) scale(0.2 -0.2)">
      <defs>
       <path id="DejaVuSans-28" d="M 1984 4856 
Q 1566 4138 1362 3434 
Q 1159 2731 1159 2009 
Q 1159 1288 1364 580 
Q 1569 -128 1984 -844 
L 1484 -844 
Q 1016 -109 783 600 
Q 550 1309 550 2009 
Q 550 2706 781 3412 
Q 1013 4119 1484 4856 
L 1984 4856 
z
" transform="scale(0.015625)"/>
       <path id="DejaVuSans-55" d="M 556 4666 
L 1191 4666 
L 1191 1831 
Q 1191 1081 1462 751 
Q 1734 422 2344 422 
Q 2950 422 3222 751 
Q 3494 1081 3494 1831 
L 3494 4666 
L 4128 4666 
L 4128 1753 
Q 4128 841 3676 375 
Q 3225 -91 2344 -91 
Q 1459 -91 1007 375 
Q 556 841 556 1753 
L 556 4666 
z
" transform="scale(0.015625)"/>
       <path id="DejaVuSans-67" d="M 2906 1791 
Q 2906 2416 2648 2759 
Q 2391 3103 1925 3103 
Q 1463 3103 1205 2759 
Q 947 2416 947 1791 
Q 947 1169 1205 825 
Q 1463 481 1925 481 
Q 2391 481 2648 825 
Q 2906 1169 2906 1791 
z
M 3481 434 
Q 3481 -459 3084 -895 
Q 2688 -1331 1869 -1331 
Q 1566 -1331 1297 -1286 
Q 1028 -1241 775 -1147 
L 775 -588 
Q 1028 -725 1275 -790 
Q 1522 -856 1778 -856 
Q 2344 -856 2625 -561 
Q 2906 -266 2906 331 
L 2906 616 
Q 2728 306 2450 153 
Q 2172 0 1784 0 
Q 1141 0 747 490 
Q 353 981 353 1791 
Q 353 2603 747 3093 
Q 1141 3584 1784 3584 
Q 2172 3584 2450 3431 
Q 2728 3278 2906 2969 
L 2906 3500 
L 3481 3500 
L 3481 434 
z
" transform="scale(0.015625)"/>
       <path id="DejaVuSans-22" d="M 1147 4666 
L 1147 2931 
L 616 2931 
L 616 4666 
L 1147 4666 
z
M 2328 4666 
L 2328 2931 
L 1797 2931 
L 1797 4666 
L 2328 4666 
z
" transform="scale(0.015625)"/>
       <path id="DejaVuSans-6d" d="M 3328 2828 
Q 3544 3216 3844 3400 
Q 4144 3584 4550 3584 
Q 5097 3584 5394 3201 
Q 5691 2819 5691 2113 
L 5691 0 
L 5113 0 
L 5113 2094 
Q 5113 2597 4934 2840 
Q 4756 3084 4391 3084 
Q 3944 3084 3684 2787 
Q 3425 2491 3425 1978 
L 3425 0 
L 2847 0 
L 2847 2094 
Q 2847 2600 2669 2842 
Q 2491 3084 2119 3084 
Q 1678 3084 1418 2786 
Q 1159 2488 1159 1978 
L 1159 0 
L 581 0 
L 581 3500 
L 1159 3500 
L 1159 2956 
Q 1356 3278 1631 3431 
Q 1906 3584 2284 3584 
Q 2666 3584 2933 3390 
Q 3200 3197 3328 2828 
z
" transform="scale(0.015625)"/>
       <path id="DejaVuSans-48" d="M 628 4666 
L 1259 4666 
L 1259 2753 
L 3553 2753 
L 3553 4666 
L 4184 4666 
L 4184 0 
L 3553 0 
L 3553 2222 
L 1259 2222 
L 1259 0 
L 628 0 
L 628 4666 
z
" transform="scale(0.015625)"/>
       <path id="DejaVuSans-61" d="M 2194 1759 
Q 1497 1759 1228 1600 
Q 959 1441 959 1056 
Q 959 750 1161 570 
Q 1363 391 1709 391 
Q 2188 391 2477 730 
Q 2766 1069 2766 1631 
L 2766 1759 
L 2194 1759 
z
M 3341 1997 
L 3341 0 
L 2766 0 
L 2766 531 
Q 2569 213 2275 61 
Q 1981 -91 1556 -91 
Q 1019 -91 701 211 
Q 384 513 384 1019 
Q 384 1609 779 1909 
Q 1175 2209 1959 2209 
L 2766 2209 
L 2766 2266 
Q 2766 2663 2505 2880 
Q 2244 3097 1772 3097 
Q 1472 3097 1187 3025 
Q 903 2953 641 2809 
L 641 3341 
Q 956 3463 1253 3523 
Q 1550 3584 1831 3584 
Q 2591 3584 2966 3190 
Q 3341 2797 3341 1997 
z
" transform="scale(0.015625)"/>
       <path id="DejaVuSans-29" d="M 513 4856 
L 1013 4856 
Q 1481 4119 1714 3412 
Q 1947 2706 1947 2009 
Q 1947 1309 1714 600 
Q 1481 -109 1013 -844 
L 513 -844 
Q 928 -128 1133 580 
Q 1338 1288 1338 2009 
Q 1338 2731 1133 3434 
Q 928 4138 513 4856 
z
" transform="scale(0.015625)"/>
      </defs>
      <use xlink:href="#DejaVuSans-28"/>
      <use xlink:href="#DejaVuSans-55" x="39.013672"/>
      <use xlink:href="#DejaVuSans-73" x="112.207031"/>
      <use xlink:href="#DejaVuSans-69" x="164.306641"/>
      <use xlink:href="#DejaVuSans-6e" x="192.089844"/>
      <use xlink:href="#DejaVuSans-67" x="255.46875"/>
      <use xlink:href="#DejaVuSans-20" x="318.945312"/>
      <use xlink:href="#DejaVuSans-22" x="350.732422"/>
      <use xlink:href="#DejaVuSans-6d" x="396.728516"/>
      <use xlink:href="#DejaVuSans-65" x="494.140625"/>
      <use xlink:href="#DejaVuSans-72" x="555.664062"/>
      <use xlink:href="#DejaVuSans-67" x="595.027344"/>
      <use xlink:href="#DejaVuSans-65" x="658.503906"/>
      <use xlink:href="#DejaVuSans-22" x="720.027344"/>
      <use xlink:href="#DejaVuSans-20" x="766.023438"/>
      <use xlink:href="#DejaVuSans-54" x="797.810547"/>
      <use xlink:href="#DejaVuSans-68" x="858.894531"/>
      <use xlink:href="#DejaVuSans-72" x="922.273438"/>
      <use xlink:href="#DejaVuSans-65" x="961.136719"/>
      <use xlink:href="#DejaVuSans-73" x="1022.660156"/>
      <use xlink:href="#DejaVuSans-68" x="1074.759766"/>
      <use xlink:href="#DejaVuSans-6f" x="1138.138672"/>
      <use xlink:href="#DejaVuSans-6c" x="1199.320312"/>
      <use xlink:href="#DejaVuSans-64" x="1227.103516"/>
      <use xlink:href="#DejaVuSans-20" x="1290.580078"/>
      <use xlink:href="#DejaVuSans-48" x="1322.367188"/>
      <use xlink:href="#DejaVuSans-61" x="1397.5625"/>
      <use xlink:href="#DejaVuSans-6e" x="1458.841797"/>
      <use xlink:href="#DejaVuSans-64" x="1522.220703"/>
      <use xlink:href="#DejaVuSans-6c" x="1585.697266"/>
      <use xlink:href="#DejaVuSans-69" x="1613.480469"/>
      <use xlink:href="#DejaVuSans-6e" x="1641.263672"/>
      <use xlink:href="#DejaVuSans-67" x="1704.642578"/>
      <use xlink:href="#DejaVuSans-29" x="1768.119141"/>
     </g>
    </g>
   </g>
   <g id="matplotlib.axis_2">
    <g id="ytick_1">
     <g id="line2d_7">
      <defs>
       <path id="m3eb2576741" d="M 0 0 
L -3.5 0 
" style="stroke: #000000; stroke-width: 0.8"/>
      </defs>
      <g>
       <use xlink:href="#m3eb2576741" x="67.34" y="485.169432" style="stroke: #000000; stroke-width: 0.8"/>
      </g>
     </g>
     <g id="text_8">
      <!-- 14 -->
      <g transform="translate(34.89 492.76787) scale(0.2 -0.2)">
       <use xlink:href="#DejaVuSans-31"/>
       <use xlink:href="#DejaVuSans-34" x="63.623047"/>
      </g>
     </g>
    </g>
    <g id="ytick_2">
     <g id="line2d_8">
      <g>
       <use xlink:href="#m3eb2576741" x="67.34" y="429.542045" style="stroke: #000000; stroke-width: 0.8"/>
      </g>
     </g>
     <g id="text_9">
      <!-- 16 -->
      <g transform="translate(34.89 437.140483) scale(0.2 -0.2)">
       <defs>
        <path id="DejaVuSans-36" d="M 2113 2584 
Q 1688 2584 1439 2293 
Q 1191 2003 1191 1497 
Q 1191 994 1439 701 
Q 1688 409 2113 409 
Q 2538 409 2786 701 
Q 3034 994 3034 1497 
Q 3034 2003 2786 2293 
Q 2538 2584 2113 2584 
z
M 3366 4563 
L 3366 3988 
Q 3128 4100 2886 4159 
Q 2644 4219 2406 4219 
Q 1781 4219 1451 3797 
Q 1122 3375 1075 2522 
Q 1259 2794 1537 2939 
Q 1816 3084 2150 3084 
Q 2853 3084 3261 2657 
Q 3669 2231 3669 1497 
Q 3669 778 3244 343 
Q 2819 -91 2113 -91 
Q 1303 -91 875 529 
Q 447 1150 447 2328 
Q 447 3434 972 4092 
Q 1497 4750 2381 4750 
Q 2619 4750 2861 4703 
Q 3103 4656 3366 4563 
z
" transform="scale(0.015625)"/>
       </defs>
       <use xlink:href="#DejaVuSans-31"/>
       <use xlink:href="#DejaVuSans-36" x="63.623047"/>
      </g>
     </g>
    </g>
    <g id="ytick_3">
     <g id="line2d_9">
      <g>
       <use xlink:href="#m3eb2576741" x="67.34" y="373.914658" style="stroke: #000000; stroke-width: 0.8"/>
      </g>
     </g>
     <g id="text_10">
      <!-- 18 -->
      <g transform="translate(34.89 381.513096) scale(0.2 -0.2)">
       <defs>
        <path id="DejaVuSans-38" d="M 2034 2216 
Q 1584 2216 1326 1975 
Q 1069 1734 1069 1313 
Q 1069 891 1326 650 
Q 1584 409 2034 409 
Q 2484 409 2743 651 
Q 3003 894 3003 1313 
Q 3003 1734 2745 1975 
Q 2488 2216 2034 2216 
z
M 1403 2484 
Q 997 2584 770 2862 
Q 544 3141 544 3541 
Q 544 4100 942 4425 
Q 1341 4750 2034 4750 
Q 2731 4750 3128 4425 
Q 3525 4100 3525 3541 
Q 3525 3141 3298 2862 
Q 3072 2584 2669 2484 
Q 3125 2378 3379 2068 
Q 3634 1759 3634 1313 
Q 3634 634 3220 271 
Q 2806 -91 2034 -91 
Q 1263 -91 848 271 
Q 434 634 434 1313 
Q 434 1759 690 2068 
Q 947 2378 1403 2484 
z
M 1172 3481 
Q 1172 3119 1398 2916 
Q 1625 2713 2034 2713 
Q 2441 2713 2670 2916 
Q 2900 3119 2900 3481 
Q 2900 3844 2670 4047 
Q 2441 4250 2034 4250 
Q 1625 4250 1398 4047 
Q 1172 3844 1172 3481 
z
" transform="scale(0.015625)"/>
       </defs>
       <use xlink:href="#DejaVuSans-31"/>
       <use xlink:href="#DejaVuSans-38" x="63.623047"/>
      </g>
     </g>
    </g>
    <g id="ytick_4">
     <g id="line2d_10">
      <g>
       <use xlink:href="#m3eb2576741" x="67.34" y="318.287272" style="stroke: #000000; stroke-width: 0.8"/>
      </g>
     </g>
     <g id="text_11">
      <!-- 20 -->
      <g transform="translate(34.89 325.885709) scale(0.2 -0.2)">
       <use xlink:href="#DejaVuSans-32"/>
       <use xlink:href="#DejaVuSans-30" x="63.623047"/>
      </g>
     </g>
    </g>
    <g id="ytick_5">
     <g id="line2d_11">
      <g>
       <use xlink:href="#m3eb2576741" x="67.34" y="262.659885" style="stroke: #000000; stroke-width: 0.8"/>
      </g>
     </g>
     <g id="text_12">
      <!-- 22 -->
      <g transform="translate(34.89 270.258322) scale(0.2 -0.2)">
       <use xlink:href="#DejaVuSans-32"/>
       <use xlink:href="#DejaVuSans-32" x="63.623047"/>
      </g>
     </g>
    </g>
    <g id="ytick_6">
     <g id="line2d_12">
      <g>
       <use xlink:href="#m3eb2576741" x="67.34" y="207.032498" style="stroke: #000000; stroke-width: 0.8"/>
      </g>
     </g>
     <g id="text_13">
      <!-- 24 -->
      <g transform="translate(34.89 214.630935) scale(0.2 -0.2)">
       <use xlink:href="#DejaVuSans-32"/>
       <use xlink:href="#DejaVuSans-34" x="63.623047"/>
      </g>
     </g>
    </g>
    <g id="ytick_7">
     <g id="line2d_13">
      <g>
       <use xlink:href="#m3eb2576741" x="67.34" y="151.405111" style="stroke: #000000; stroke-width: 0.8"/>
      </g>
     </g>
     <g id="text_14">
      <!-- 26 -->
      <g transform="translate(34.89 159.003549) scale(0.2 -0.2)">
       <use xlink:href="#DejaVuSans-32"/>
       <use xlink:href="#DejaVuSans-36" x="63.623047"/>
      </g>
     </g>
    </g>
    <g id="ytick_8">
     <g id="line2d_14">
      <g>
       <use xlink:href="#m3eb2576741" x="67.34" y="95.777724" style="stroke: #000000; stroke-width: 0.8"/>
      </g>
     </g>
     <g id="text_15">
      <!-- 28 -->
      <g transform="translate(34.89 103.376162) scale(0.2 -0.2)">
       <use xlink:href="#DejaVuSans-32"/>
       <use xlink:href="#DejaVuSans-38" x="63.623047"/>
      </g>
     </g>
    </g>
    <g id="ytick_9">
     <g id="line2d_15">
      <g>
       <use xlink:href="#m3eb2576741" x="67.34" y="40.150337" style="stroke: #000000; stroke-width: 0.8"/>
      </g>
     </g>
     <g id="text_16">
      <!-- 30 -->
      <g transform="translate(34.89 47.748775) scale(0.2 -0.2)">
       <use xlink:href="#DejaVuSans-33"/>
       <use xlink:href="#DejaVuSans-30" x="63.623047"/>
      </g>
     </g>
    </g>
    <g id="text_17">
     <!-- RMSE -->
     <g transform="translate(26.730625 278.91975) rotate(-90) scale(0.2 -0.2)">
      <defs>
       <path id="DejaVuSans-52" d="M 2841 2188 
Q 3044 2119 3236 1894 
Q 3428 1669 3622 1275 
L 4263 0 
L 3584 0 
L 2988 1197 
Q 2756 1666 2539 1819 
Q 2322 1972 1947 1972 
L 1259 1972 
L 1259 0 
L 628 0 
L 628 4666 
L 2053 4666 
Q 2853 4666 3247 4331 
Q 3641 3997 3641 3322 
Q 3641 2881 3436 2590 
Q 3231 2300 2841 2188 
z
M 1259 4147 
L 1259 2491 
L 2053 2491 
Q 2509 2491 2742 2702 
Q 2975 2913 2975 3322 
Q 2975 3731 2742 3939 
Q 2509 4147 2053 4147 
L 1259 4147 
z
" transform="scale(0.015625)"/>
       <path id="DejaVuSans-4d" d="M 628 4666 
L 1569 4666 
L 2759 1491 
L 3956 4666 
L 4897 4666 
L 4897 0 
L 4281 0 
L 4281 4097 
L 3078 897 
L 2444 897 
L 1241 4097 
L 1241 0 
L 628 0 
L 628 4666 
z
" transform="scale(0.015625)"/>
       <path id="DejaVuSans-53" d="M 3425 4513 
L 3425 3897 
Q 3066 4069 2747 4153 
Q 2428 4238 2131 4238 
Q 1616 4238 1336 4038 
Q 1056 3838 1056 3469 
Q 1056 3159 1242 3001 
Q 1428 2844 1947 2747 
L 2328 2669 
Q 3034 2534 3370 2195 
Q 3706 1856 3706 1288 
Q 3706 609 3251 259 
Q 2797 -91 1919 -91 
Q 1588 -91 1214 -16 
Q 841 59 441 206 
L 441 856 
Q 825 641 1194 531 
Q 1563 422 1919 422 
Q 2459 422 2753 634 
Q 3047 847 3047 1241 
Q 3047 1584 2836 1778 
Q 2625 1972 2144 2069 
L 1759 2144 
Q 1053 2284 737 2584 
Q 422 2884 422 3419 
Q 422 4038 858 4394 
Q 1294 4750 2059 4750 
Q 2388 4750 2728 4690 
Q 3069 4631 3425 4513 
z
" transform="scale(0.015625)"/>
       <path id="DejaVuSans-45" d="M 628 4666 
L 3578 4666 
L 3578 4134 
L 1259 4134 
L 1259 2753 
L 3481 2753 
L 3481 2222 
L 1259 2222 
L 1259 531 
L 3634 531 
L 3634 0 
L 628 0 
L 628 4666 
z
" transform="scale(0.015625)"/>
      </defs>
      <use xlink:href="#DejaVuSans-52"/>
      <use xlink:href="#DejaVuSans-4d" x="69.482422"/>
      <use xlink:href="#DejaVuSans-53" x="155.761719"/>
      <use xlink:href="#DejaVuSans-45" x="219.238281"/>
     </g>
    </g>
   </g>
   <g id="line2d_16">
    <path d="M 116.151818 437.617172 
L 156.828333 442.74528 
L 197.504848 437.95679 
L 238.181364 433.148042 
L 278.857879 422.890002 
L 319.534394 425.423517 
L 360.210909 410.155035 
L 400.887424 397.009794 
L 441.563939 388.159107 
L 482.240455 397.24554 
L 522.91697 380.355282 
L 563.593485 372.682102 
L 604.27 333.881684 
L 644.946515 331.622157 
L 685.62303 304.487764 
L 726.299545 296.114862 
L 766.976061 283.928768 
L 807.652576 278.923228 
L 848.329091 285.469901 
L 889.005606 238.496052 
L 929.682121 217.652861 
L 970.358636 217.311947 
L 1011.035152 173.752606 
L 1051.711667 182.280103 
L 1092.388182 174.275431 
" clip-path="url(#p7ad18718af)" style="fill: none; stroke: #1f77b4; stroke-width: 1.5; stroke-linecap: square"/>
   </g>
   <g id="line2d_17">
    <path d="M 116.151818 421.256809 
L 156.828333 424.108685 
L 197.504848 404.43388 
L 238.181364 412.173011 
L 278.857879 392.739975 
L 319.534394 394.211324 
L 360.210909 376.549427 
L 400.887424 369.25125 
L 441.563939 375.746198 
L 482.240455 380.287926 
L 522.91697 364.773357 
L 563.593485 355.405152 
L 604.27 326.217734 
L 644.946515 322.315317 
L 685.62303 306.542331 
L 726.299545 301.767674 
L 766.976061 292.472794 
L 807.652576 279.805297 
L 848.329091 263.372857 
L 889.005606 199.672132 
L 929.682121 188.361005 
L 970.358636 207.863504 
L 1011.035152 183.050098 
L 1051.711667 206.084751 
L 1092.388182 195.959225 
" clip-path="url(#p7ad18718af)" style="fill: none; stroke: #ff7f0e; stroke-width: 1.5; stroke-linecap: square"/>
   </g>
   <g id="line2d_18">
    <path d="M 116.151818 395.571591 
L 156.828333 410.518181 
L 197.504848 401.985234 
L 238.181364 402.14624 
L 278.857879 386.520187 
L 319.534394 375.852589 
L 360.210909 368.138793 
L 400.887424 363.651701 
L 441.563939 357.325025 
L 482.240455 366.435906 
L 522.91697 345.398132 
L 563.593485 311.696314 
L 604.27 291.351508 
L 644.946515 285.824793 
L 685.62303 269.673405 
L 726.299545 250.930909 
L 766.976061 254.803628 
L 807.652576 224.643352 
L 848.329091 234.50119 
L 889.005606 191.322328 
L 929.682121 184.397939 
L 970.358636 171.201763 
L 1011.035152 125.156352 
L 1051.711667 133.019328 
L 1092.388182 120.433114 
" clip-path="url(#p7ad18718af)" style="fill: none; stroke: #2ca02c; stroke-width: 1.5; stroke-linecap: square"/>
   </g>
   <g id="line2d_19">
    <path d="M 116.151818 409.307885 
L 156.828333 430.518788 
L 197.504848 428.730965 
L 238.181364 431.221284 
L 278.857879 403.162223 
L 319.534394 411.188836 
L 360.210909 391.550814 
L 400.887424 395.279474 
L 441.563939 369.956879 
L 482.240455 389.120331 
L 522.91697 371.972994 
L 563.593485 337.818874 
L 604.27 322.140612 
L 644.946515 324.643746 
L 685.62303 287.944871 
L 726.299545 281.21122 
L 766.976061 285.811334 
L 807.652576 258.727743 
L 848.329091 261.893433 
L 889.005606 206.003384 
L 929.682121 183.622565 
L 970.358636 204.956733 
L 1011.035152 193.610773 
L 1051.711667 200.017873 
L 1092.388182 204.396948 
" clip-path="url(#p7ad18718af)" style="fill: none; stroke: #d62728; stroke-width: 1.5; stroke-linecap: square"/>
   </g>
   <g id="line2d_20">
    <path d="M 116.151818 451.406796 
L 156.828333 451.733617 
L 197.504848 447.89446 
L 238.181364 444.375032 
L 278.857879 434.379756 
L 319.534394 427.908765 
L 360.210909 413.200636 
L 400.887424 404.234573 
L 441.563939 394.401991 
L 482.240455 403.836386 
L 522.91697 388.694917 
L 563.593485 383.13968 
L 604.27 345.18237 
L 644.946515 341.701895 
L 685.62303 314.863698 
L 726.299545 301.814574 
L 766.976061 292.19377 
L 807.652576 288.964116 
L 848.329091 301.819977 
L 889.005606 254.849547 
L 929.682121 237.768943 
L 970.358636 227.786656 
L 1011.035152 194.330895 
L 1051.711667 209.093317 
L 1092.388182 204.86648 
" clip-path="url(#p7ad18718af)" style="fill: none; stroke: #9467bd; stroke-width: 1.5; stroke-linecap: square"/>
   </g>
   <g id="line2d_21">
    <path d="M 116.151818 421.788884 
L 156.828333 423.503153 
L 197.504848 404.023447 
L 238.181364 412.507084 
L 278.857879 393.535534 
L 319.534394 395.325935 
L 360.210909 377.511089 
L 400.887424 370.049585 
L 441.563939 375.413938 
L 482.240455 380.686509 
L 522.91697 366.674535 
L 563.593485 354.772906 
L 604.27 326.84229 
L 644.946515 322.154661 
L 685.62303 306.787105 
L 726.299545 301.678752 
L 766.976061 293.144262 
L 807.652576 282.00018 
L 848.329091 264.740876 
L 889.005606 201.723985 
L 929.682121 190.856315 
L 970.358636 210.91802 
L 1011.035152 186.81112 
L 1051.711667 209.626119 
L 1092.388182 199.29955 
" clip-path="url(#p7ad18718af)" style="fill: none; stroke: #8c564b; stroke-width: 1.5; stroke-linecap: square"/>
   </g>
   <g id="line2d_22">
    <path d="M 116.151818 427.594409 
L 156.828333 433.267768 
L 197.504848 426.756863 
L 238.181364 429.418683 
L 278.857879 411.166279 
L 319.534394 405.325043 
L 360.210909 398.191223 
L 400.887424 391.37409 
L 441.563939 381.692315 
L 482.240455 399.783779 
L 522.91697 369.097056 
L 563.593485 356.056367 
L 604.27 330.397606 
L 644.946515 327.544742 
L 685.62303 321.226283 
L 726.299545 321.889192 
L 766.976061 316.071576 
L 807.652576 302.294251 
L 848.329091 300.28721 
L 889.005606 251.706732 
L 929.682121 236.297628 
L 970.358636 242.927138 
L 1011.035152 220.752407 
L 1051.711667 245.623185 
L 1092.388182 235.092197 
" clip-path="url(#p7ad18718af)" style="fill: none; stroke: #e377c2; stroke-width: 1.5; stroke-linecap: square"/>
   </g>
   <g id="line2d_23">
    <path d="M 116.151818 425.233456 
L 156.828333 425.692245 
L 197.504848 420.770932 
L 238.181364 415.684775 
L 278.857879 409.853614 
L 319.534394 391.309418 
L 360.210909 386.371525 
L 400.887424 383.310849 
L 441.563939 371.971925 
L 482.240455 390.673233 
L 522.91697 370.967801 
L 563.593485 367.734425 
L 604.27 330.472817 
L 644.946515 335.728011 
L 685.62303 313.478586 
L 726.299545 329.472656 
L 766.976061 313.882493 
L 807.652576 287.804194 
L 848.329091 280.186483 
L 889.005606 234.027415 
L 929.682121 229.223185 
L 970.358636 252.002342 
L 1011.035152 219.97636 
L 1051.711667 226.466144 
L 1092.388182 219.379001 
" clip-path="url(#p7ad18718af)" style="fill: none; stroke: #7f7f7f; stroke-width: 1.5; stroke-linecap: square"/>
   </g>
   <g id="line2d_24"/>
   <g id="line2d_25"/>
   <g id="line2d_26"/>
   <g id="line2d_27"/>
   <g id="line2d_28"/>
   <g id="line2d_29"/>
   <g id="line2d_30"/>
   <g id="line2d_31"/>
   <g id="patch_3">
    <path d="M 67.34 490.552 
L 67.34 10.8 
" style="fill: none; stroke: #000000; stroke-width: 0.8; stroke-linejoin: miter; stroke-linecap: square"/>
   </g>
   <g id="patch_4">
    <path d="M 1141.2 490.552 
L 1141.2 10.8 
" style="fill: none; stroke: #000000; stroke-width: 0.8; stroke-linejoin: miter; stroke-linecap: square"/>
   </g>
   <g id="patch_5">
    <path d="M 67.34 490.552 
L 1141.2 490.552 
" style="fill: none; stroke: #000000; stroke-width: 0.8; stroke-linejoin: miter; stroke-linecap: square"/>
   </g>
   <g id="patch_6">
    <path d="M 67.34 10.8 
L 1141.2 10.8 
" style="fill: none; stroke: #000000; stroke-width: 0.8; stroke-linejoin: miter; stroke-linecap: square"/>
   </g>
   <g id="legend_1">
    <g id="patch_7">
     <path d="M 78.54 482.552 
L 274.7775 482.552 
Q 277.9775 482.552 277.9775 479.352 
L 277.9775 291.292 
Q 277.9775 288.092 274.7775 288.092 
L 78.54 288.092 
Q 75.34 288.092 75.34 291.292 
L 75.34 479.352 
Q 75.34 482.552 78.54 482.552 
z
" style="fill: #ffffff; opacity: 0.8; stroke: #cccccc; stroke-linejoin: miter"/>
    </g>
    <g id="line2d_32">
     <path d="M 81.74 301.0495 
L 97.74 301.0495 
L 113.74 301.0495 
" style="fill: none; stroke: #1f77b4; stroke-width: 1.5; stroke-linecap: square"/>
    </g>
    <g id="text_18">
     <!-- gbr -->
     <g transform="translate(126.54 306.6495) scale(0.16 -0.16)">
      <defs>
       <path id="DejaVuSans-62" d="M 3116 1747 
Q 3116 2381 2855 2742 
Q 2594 3103 2138 3103 
Q 1681 3103 1420 2742 
Q 1159 2381 1159 1747 
Q 1159 1113 1420 752 
Q 1681 391 2138 391 
Q 2594 391 2855 752 
Q 3116 1113 3116 1747 
z
M 1159 2969 
Q 1341 3281 1617 3432 
Q 1894 3584 2278 3584 
Q 2916 3584 3314 3078 
Q 3713 2572 3713 1747 
Q 3713 922 3314 415 
Q 2916 -91 2278 -91 
Q 1894 -91 1617 61 
Q 1341 213 1159 525 
L 1159 0 
L 581 0 
L 581 4863 
L 1159 4863 
L 1159 2969 
z
" transform="scale(0.015625)"/>
      </defs>
      <use xlink:href="#DejaVuSans-67"/>
      <use xlink:href="#DejaVuSans-62" x="63.476562"/>
      <use xlink:href="#DejaVuSans-72" x="126.953125"/>
     </g>
    </g>
    <g id="line2d_33">
     <path d="M 81.74 324.5345 
L 97.74 324.5345 
L 113.74 324.5345 
" style="fill: none; stroke: #ff7f0e; stroke-width: 1.5; stroke-linecap: square"/>
    </g>
    <g id="text_19">
     <!-- BayesianRidge -->
     <g transform="translate(126.54 330.1345) scale(0.16 -0.16)">
      <defs>
       <path id="DejaVuSans-42" d="M 1259 2228 
L 1259 519 
L 2272 519 
Q 2781 519 3026 730 
Q 3272 941 3272 1375 
Q 3272 1813 3026 2020 
Q 2781 2228 2272 2228 
L 1259 2228 
z
M 1259 4147 
L 1259 2741 
L 2194 2741 
Q 2656 2741 2882 2914 
Q 3109 3088 3109 3444 
Q 3109 3797 2882 3972 
Q 2656 4147 2194 4147 
L 1259 4147 
z
M 628 4666 
L 2241 4666 
Q 2963 4666 3353 4366 
Q 3744 4066 3744 3513 
Q 3744 3084 3544 2831 
Q 3344 2578 2956 2516 
Q 3422 2416 3680 2098 
Q 3938 1781 3938 1306 
Q 3938 681 3513 340 
Q 3088 0 2303 0 
L 628 0 
L 628 4666 
z
" transform="scale(0.015625)"/>
       <path id="DejaVuSans-79" d="M 2059 -325 
Q 1816 -950 1584 -1140 
Q 1353 -1331 966 -1331 
L 506 -1331 
L 506 -850 
L 844 -850 
Q 1081 -850 1212 -737 
Q 1344 -625 1503 -206 
L 1606 56 
L 191 3500 
L 800 3500 
L 1894 763 
L 2988 3500 
L 3597 3500 
L 2059 -325 
z
" transform="scale(0.015625)"/>
      </defs>
      <use xlink:href="#DejaVuSans-42"/>
      <use xlink:href="#DejaVuSans-61" x="68.603516"/>
      <use xlink:href="#DejaVuSans-79" x="129.882812"/>
      <use xlink:href="#DejaVuSans-65" x="189.0625"/>
      <use xlink:href="#DejaVuSans-73" x="250.585938"/>
      <use xlink:href="#DejaVuSans-69" x="302.685547"/>
      <use xlink:href="#DejaVuSans-61" x="330.46875"/>
      <use xlink:href="#DejaVuSans-6e" x="391.748047"/>
      <use xlink:href="#DejaVuSans-52" x="455.126953"/>
      <use xlink:href="#DejaVuSans-69" x="524.609375"/>
      <use xlink:href="#DejaVuSans-64" x="552.392578"/>
      <use xlink:href="#DejaVuSans-67" x="615.869141"/>
      <use xlink:href="#DejaVuSans-65" x="679.345703"/>
     </g>
    </g>
    <g id="line2d_34">
     <path d="M 81.74 348.0195 
L 97.74 348.0195 
L 113.74 348.0195 
" style="fill: none; stroke: #2ca02c; stroke-width: 1.5; stroke-linecap: square"/>
    </g>
    <g id="text_20">
     <!-- rf -->
     <g transform="translate(126.54 353.6195) scale(0.16 -0.16)">
      <defs>
       <path id="DejaVuSans-66" d="M 2375 4863 
L 2375 4384 
L 1825 4384 
Q 1516 4384 1395 4259 
Q 1275 4134 1275 3809 
L 1275 3500 
L 2222 3500 
L 2222 3053 
L 1275 3053 
L 1275 0 
L 697 0 
L 697 3053 
L 147 3053 
L 147 3500 
L 697 3500 
L 697 3744 
Q 697 4328 969 4595 
Q 1241 4863 1831 4863 
L 2375 4863 
z
" transform="scale(0.015625)"/>
      </defs>
      <use xlink:href="#DejaVuSans-72"/>
      <use xlink:href="#DejaVuSans-66" x="41.113281"/>
     </g>
    </g>
    <g id="line2d_35">
     <path d="M 81.74 371.5045 
L 97.74 371.5045 
L 113.74 371.5045 
" style="fill: none; stroke: #d62728; stroke-width: 1.5; stroke-linecap: square"/>
    </g>
    <g id="text_21">
     <!-- xgb -->
     <g transform="translate(126.54 377.1045) scale(0.16 -0.16)">
      <defs>
       <path id="DejaVuSans-78" d="M 3513 3500 
L 2247 1797 
L 3578 0 
L 2900 0 
L 1881 1375 
L 863 0 
L 184 0 
L 1544 1831 
L 300 3500 
L 978 3500 
L 1906 2253 
L 2834 3500 
L 3513 3500 
z
" transform="scale(0.015625)"/>
      </defs>
      <use xlink:href="#DejaVuSans-78"/>
      <use xlink:href="#DejaVuSans-67" x="59.179688"/>
      <use xlink:href="#DejaVuSans-62" x="122.65625"/>
     </g>
    </g>
    <g id="line2d_36">
     <path d="M 81.74 394.9895 
L 97.74 394.9895 
L 113.74 394.9895 
" style="fill: none; stroke: #9467bd; stroke-width: 1.5; stroke-linecap: square"/>
    </g>
    <g id="text_22">
     <!-- xgb_gs -->
     <g transform="translate(126.54 400.5895) scale(0.16 -0.16)">
      <defs>
       <path id="DejaVuSans-5f" d="M 3263 -1063 
L 3263 -1509 
L -63 -1509 
L -63 -1063 
L 3263 -1063 
z
" transform="scale(0.015625)"/>
      </defs>
      <use xlink:href="#DejaVuSans-78"/>
      <use xlink:href="#DejaVuSans-67" x="59.179688"/>
      <use xlink:href="#DejaVuSans-62" x="122.65625"/>
      <use xlink:href="#DejaVuSans-5f" x="186.132812"/>
      <use xlink:href="#DejaVuSans-67" x="236.132812"/>
      <use xlink:href="#DejaVuSans-73" x="299.609375"/>
     </g>
    </g>
    <g id="line2d_37">
     <path d="M 81.74 418.9195 
L 97.74 418.9195 
L 113.74 418.9195 
" style="fill: none; stroke: #8c564b; stroke-width: 1.5; stroke-linecap: square"/>
    </g>
    <g id="text_23">
     <!-- BayesianRidge_gs -->
     <g transform="translate(126.54 424.5195) scale(0.16 -0.16)">
      <use xlink:href="#DejaVuSans-42"/>
      <use xlink:href="#DejaVuSans-61" x="68.603516"/>
      <use xlink:href="#DejaVuSans-79" x="129.882812"/>
      <use xlink:href="#DejaVuSans-65" x="189.0625"/>
      <use xlink:href="#DejaVuSans-73" x="250.585938"/>
      <use xlink:href="#DejaVuSans-69" x="302.685547"/>
      <use xlink:href="#DejaVuSans-61" x="330.46875"/>
      <use xlink:href="#DejaVuSans-6e" x="391.748047"/>
      <use xlink:href="#DejaVuSans-52" x="455.126953"/>
      <use xlink:href="#DejaVuSans-69" x="524.609375"/>
      <use xlink:href="#DejaVuSans-64" x="552.392578"/>
      <use xlink:href="#DejaVuSans-67" x="615.869141"/>
      <use xlink:href="#DejaVuSans-65" x="679.345703"/>
      <use xlink:href="#DejaVuSans-5f" x="740.869141"/>
      <use xlink:href="#DejaVuSans-67" x="790.869141"/>
      <use xlink:href="#DejaVuSans-73" x="854.345703"/>
     </g>
    </g>
    <g id="line2d_38">
     <path d="M 81.74 442.8495 
L 97.74 442.8495 
L 113.74 442.8495 
" style="fill: none; stroke: #e377c2; stroke-width: 1.5; stroke-linecap: square"/>
    </g>
    <g id="text_24">
     <!-- rf_gs -->
     <g transform="translate(126.54 448.4495) scale(0.16 -0.16)">
      <use xlink:href="#DejaVuSans-72"/>
      <use xlink:href="#DejaVuSans-66" x="41.113281"/>
      <use xlink:href="#DejaVuSans-5f" x="76.318359"/>
      <use xlink:href="#DejaVuSans-67" x="126.318359"/>
      <use xlink:href="#DejaVuSans-73" x="189.794922"/>
     </g>
    </g>
    <g id="line2d_39">
     <path d="M 81.74 466.7795 
L 97.74 466.7795 
L 113.74 466.7795 
" style="fill: none; stroke: #7f7f7f; stroke-width: 1.5; stroke-linecap: square"/>
    </g>
    <g id="text_25">
     <!-- gbr_gs -->
     <g transform="translate(126.54 472.3795) scale(0.16 -0.16)">
      <use xlink:href="#DejaVuSans-67"/>
      <use xlink:href="#DejaVuSans-62" x="63.476562"/>
      <use xlink:href="#DejaVuSans-72" x="126.953125"/>
      <use xlink:href="#DejaVuSans-5f" x="168.066406"/>
      <use xlink:href="#DejaVuSans-67" x="218.066406"/>
      <use xlink:href="#DejaVuSans-73" x="281.542969"/>
     </g>
    </g>
   </g>
  </g>
 </g>
 <defs>
  <clipPath id="p7ad18718af">
   <rect x="67.34" y="10.8" width="1073.86" height="479.752"/>
  </clipPath>
 </defs>
</svg>
