<?xml version="1.0" encoding="utf-8" standalone="no"?>
<!DOCTYPE svg PUBLIC "-//W3C//DTD SVG 1.1//EN"
  "http://www.w3.org/Graphics/SVG/1.1/DTD/svg11.dtd">
<svg xmlns:xlink="http://www.w3.org/1999/xlink" width="1152pt" height="576pt" viewBox="0 0 1152 576" xmlns="http://www.w3.org/2000/svg" version="1.1">
 <metadata>
  <rdf:RDF xmlns:dc="http://purl.org/dc/elements/1.1/" xmlns:cc="http://creativecommons.org/ns#" xmlns:rdf="http://www.w3.org/1999/02/22-rdf-syntax-ns#">
   <cc:Work>
    <dc:type rdf:resource="http://purl.org/dc/dcmitype/StillImage"/>
    <dc:date>2025-03-26T16:20:51.708694</dc:date>
    <dc:format>image/svg+xml</dc:format>
    <dc:creator>
     <cc:Agent>
      <dc:title>Matplotlib v3.7.1, https://matplotlib.org/</dc:title>
     </cc:Agent>
    </dc:creator>
   </cc:Work>
  </rdf:RDF>
 </metadata>
 <defs>
  <style type="text/css">*{stroke-linejoin: round; stroke-linecap: butt}</style>
 </defs>
 <g id="figure_1">
  <g id="patch_1">
   <path d="M 0 576 
L 1152 576 
L 1152 0 
L 0 0 
z
" style="fill: #ffffff"/>
  </g>
  <g id="axes_1">
   <g id="patch_2">
    <path d="M 86.42 489.832 
L 1141.2 489.832 
L 1141.2 10.8 
L 86.42 10.8 
z
" style="fill: #ffffff"/>
   </g>
   <g id="PolyCollection_1">
    <defs>
     <path id="mbd488c8686" d="M 134.364545 -354.420561 
L 134.364545 -262.92009 
L 174.318333 -242.106337 
L 214.272121 -307.842638 
L 254.225909 -293.788166 
L 294.179697 -302.971966 
L 334.133485 -256.484952 
L 374.087273 -216.387999 
L 414.041061 -222.1801 
L 453.994848 -258.158337 
L 493.948636 -166.545199 
L 533.902424 -158.047621 
L 573.856212 -294.674459 
L 613.81 -229.288324 
L 653.763788 -267.579952 
L 693.717576 -271.228478 
L 733.671364 -301.498105 
L 773.625152 -272.718421 
L 813.578939 -290.505179 
L 853.532727 -323.442492 
L 893.486515 -289.990061 
L 933.440303 -282.71592 
L 973.394091 -298.682581 
L 1013.347879 -298.843117 
L 1053.301667 -336.658396 
L 1093.255455 -332.94905 
L 1093.255455 -409.154931 
L 1093.255455 -409.154931 
L 1053.301667 -417.209725 
L 1013.347879 -410.740541 
L 973.394091 -397.856299 
L 933.440303 -376.674525 
L 893.486515 -373.527669 
L 853.532727 -389.48271 
L 813.578939 -394.104256 
L 773.625152 -372.470699 
L 733.671364 -412.556841 
L 693.717576 -405.473113 
L 653.763788 -359.908909 
L 613.81 -327.294039 
L 573.856212 -330.516514 
L 533.902424 -351.194483 
L 493.948636 -321.935291 
L 453.994848 -319.992409 
L 414.041061 -361.715323 
L 374.087273 -309.538201 
L 334.133485 -330.531528 
L 294.179697 -367.86955 
L 254.225909 -340.04049 
L 214.272121 -352.886454 
L 174.318333 -352.073518 
L 134.364545 -354.420561 
z
" style="stroke: #1f77b4; stroke-opacity: 0.2"/>
    </defs>
    <g clip-path="url(#pb11c5cb452)">
     <use xlink:href="#mbd488c8686" x="0" y="576" style="fill: #1f77b4; fill-opacity: 0.2; stroke: #1f77b4; stroke-opacity: 0.2"/>
    </g>
   </g>
   <g id="PolyCollection_2">
    <defs>
     <path id="m2ffe98a98d" d="M 134.364545 -272.567811 
L 134.364545 -211.947588 
L 174.318333 -219.033061 
L 214.272121 -224.184623 
L 254.225909 -244.253398 
L 294.179697 -230.297659 
L 334.133485 -164.926661 
L 374.087273 -123.084112 
L 414.041061 -167.005407 
L 453.994848 -198.549197 
L 493.948636 -107.942182 
L 533.902424 -123.263096 
L 573.856212 -237.572598 
L 613.81 -137.593083 
L 653.763788 -177.104459 
L 693.717576 -196.643634 
L 733.671364 -169.105968 
L 773.625152 -151.099715 
L 813.578939 -242.520915 
L 853.532727 -255.215091 
L 893.486515 -233.428186 
L 933.440303 -207.743756 
L 973.394091 -183.414573 
L 1013.347879 -223.799 
L 1053.301667 -204.346161 
L 1093.255455 -216.557956 
L 1093.255455 -336.917047 
L 1093.255455 -336.917047 
L 1053.301667 -323.501074 
L 1013.347879 -310.043442 
L 973.394091 -352.991838 
L 933.440303 -286.498274 
L 893.486515 -322.320656 
L 853.532727 -337.484451 
L 813.578939 -345.210216 
L 773.625152 -323.708296 
L 733.671364 -327.395906 
L 693.717576 -292.96381 
L 653.763788 -254.989912 
L 613.81 -317.844964 
L 573.856212 -310.948596 
L 533.902424 -259.725211 
L 493.948636 -246.118774 
L 453.994848 -231.675239 
L 414.041061 -299.113779 
L 374.087273 -278.680491 
L 334.133485 -275.793115 
L 294.179697 -287.142434 
L 254.225909 -294.625811 
L 214.272121 -365.432997 
L 174.318333 -339.118311 
L 134.364545 -272.567811 
z
" style="stroke: #ff7f0e; stroke-opacity: 0.2"/>
    </defs>
    <g clip-path="url(#pb11c5cb452)">
     <use xlink:href="#m2ffe98a98d" x="0" y="576" style="fill: #ff7f0e; fill-opacity: 0.2; stroke: #ff7f0e; stroke-opacity: 0.2"/>
    </g>
   </g>
   <g id="PolyCollection_3">
    <defs>
     <path id="md38f863724" d="M 134.364545 -377.538225 
L 134.364545 -261.22034 
L 174.318333 -329.026358 
L 214.272121 -378.659171 
L 254.225909 -347.572879 
L 294.179697 -384.249498 
L 334.133485 -341.220791 
L 374.087273 -262.47641 
L 414.041061 -313.551502 
L 453.994848 -326.580787 
L 493.948636 -233.643425 
L 533.902424 -269.254657 
L 573.856212 -370.113599 
L 613.81 -259.299114 
L 653.763788 -332.022501 
L 693.717576 -342.797322 
L 733.671364 -340.595776 
L 773.625152 -293.86992 
L 813.578939 -391.003797 
L 853.532727 -396.684473 
L 893.486515 -373.887666 
L 933.440303 -324.040387 
L 973.394091 -341.255828 
L 1013.347879 -333.926357 
L 1053.301667 -288.87617 
L 1093.255455 -317.023534 
L 1093.255455 -468.057395 
L 1093.255455 -468.057395 
L 1053.301667 -448.675385 
L 1013.347879 -442.946401 
L 973.394091 -485.640624 
L 933.440303 -456.110732 
L 893.486515 -450.674896 
L 853.532727 -479.488324 
L 813.578939 -459.104606 
L 773.625152 -448.796846 
L 733.671364 -496.588461 
L 693.717576 -417.111736 
L 653.763788 -425.956497 
L 613.81 -421.992439 
L 573.856212 -474.248499 
L 533.902424 -385.003295 
L 493.948636 -374.24523 
L 453.994848 -422.452552 
L 414.041061 -428.330239 
L 374.087273 -403.360615 
L 334.133485 -414.236406 
L 294.179697 -457.672159 
L 254.225909 -413.267461 
L 214.272121 -448.134864 
L 174.318333 -415.994776 
L 134.364545 -377.538225 
z
" style="stroke: #2ca02c; stroke-opacity: 0.2"/>
    </defs>
    <g clip-path="url(#pb11c5cb452)">
     <use xlink:href="#md38f863724" x="0" y="576" style="fill: #2ca02c; fill-opacity: 0.2; stroke: #2ca02c; stroke-opacity: 0.2"/>
    </g>
   </g>
   <g id="PolyCollection_4">
    <defs>
     <path id="mbb7932762c" d="M 134.364545 -347.403294 
L 134.364545 -137.742956 
L 174.318333 -257.744045 
L 214.272121 -308.113487 
L 254.225909 -310.400215 
L 294.179697 -294.914342 
L 334.133485 -214.724994 
L 374.087273 -132.889495 
L 414.041061 -184.448702 
L 453.994848 -233.959756 
L 493.948636 -136.718371 
L 533.902424 -120.617762 
L 573.856212 -245.32938 
L 613.81 -295.488559 
L 653.763788 -323.364923 
L 693.717576 -322.553933 
L 733.671364 -265.173113 
L 773.625152 -255.306302 
L 813.578939 -299.019262 
L 853.532727 -299.773027 
L 893.486515 -291.371659 
L 933.440303 -289.835905 
L 973.394091 -306.72327 
L 1013.347879 -303.027355 
L 1053.301667 -321.535547 
L 1093.255455 -323.074065 
L 1093.255455 -461.423416 
L 1093.255455 -461.423416 
L 1053.301667 -464.320679 
L 1013.347879 -448.281404 
L 973.394091 -458.634296 
L 933.440303 -448.167539 
L 893.486515 -408.412723 
L 853.532727 -406.379986 
L 813.578939 -461.851475 
L 773.625152 -425.088843 
L 733.671364 -436.475883 
L 693.717576 -413.877975 
L 653.763788 -350.061067 
L 613.81 -386.338835 
L 573.856212 -319.419538 
L 533.902424 -348.632351 
L 493.948636 -341.988076 
L 453.994848 -375.311088 
L 414.041061 -351.968821 
L 374.087273 -284.209164 
L 334.133485 -378.060623 
L 294.179697 -391.521464 
L 254.225909 -406.604503 
L 214.272121 -390.735781 
L 174.318333 -356.085632 
L 134.364545 -347.403294 
z
" style="stroke: #d62728; stroke-opacity: 0.2"/>
    </defs>
    <g clip-path="url(#pb11c5cb452)">
     <use xlink:href="#mbb7932762c" x="0" y="576" style="fill: #d62728; fill-opacity: 0.2; stroke: #d62728; stroke-opacity: 0.2"/>
    </g>
   </g>
   <g id="PolyCollection_5">
    <defs>
     <path id="m3ace043145" d="M 134.364545 -366.386379 
L 134.364545 -230.242015 
L 174.318333 -221.195671 
L 214.272121 -321.18844 
L 254.225909 -235.851094 
L 294.179697 -275.250218 
L 334.133485 -144.854395 
L 374.087273 -121.601554 
L 414.041061 -218.883854 
L 453.994848 -230.535433 
L 493.948636 -156.304659 
L 533.902424 -193.793282 
L 573.856212 -297.5802 
L 613.81 -258.76295 
L 653.763788 -261.983154 
L 693.717576 -248.998013 
L 733.671364 -290.261439 
L 773.625152 -271.622054 
L 813.578939 -289.000388 
L 853.532727 -327.306678 
L 893.486515 -326.6968 
L 933.440303 -287.804057 
L 973.394091 -304.256191 
L 1013.347879 -246.986495 
L 1053.301667 -306.530928 
L 1093.255455 -276.639376 
L 1093.255455 -383.705675 
L 1093.255455 -383.705675 
L 1053.301667 -401.147443 
L 1013.347879 -338.823755 
L 973.394091 -373.97118 
L 933.440303 -371.978342 
L 893.486515 -395.380171 
L 853.532727 -428.687164 
L 813.578939 -414.616726 
L 773.625152 -402.707869 
L 733.671364 -394.643054 
L 693.717576 -352.061152 
L 653.763788 -349.186188 
L 613.81 -356.183741 
L 573.856212 -343.110787 
L 533.902424 -372.581588 
L 493.948636 -330.075816 
L 453.994848 -365.040136 
L 414.041061 -363.132918 
L 374.087273 -424.517684 
L 334.133485 -274.61947 
L 294.179697 -369.825955 
L 254.225909 -354.319544 
L 214.272121 -390.356476 
L 174.318333 -373.422027 
L 134.364545 -366.386379 
z
" style="stroke: #9467bd; stroke-opacity: 0.2"/>
    </defs>
    <g clip-path="url(#pb11c5cb452)">
     <use xlink:href="#m3ace043145" x="0" y="576" style="fill: #9467bd; fill-opacity: 0.2; stroke: #9467bd; stroke-opacity: 0.2"/>
    </g>
   </g>
   <g id="PolyCollection_6">
    <defs>
     <path id="ma09329ebf0" d="M 134.364545 -322.049877 
L 134.364545 -245.214919 
L 174.318333 -286.260685 
L 214.272121 -296.842563 
L 254.225909 -271.94743 
L 294.179697 -275.69326 
L 334.133485 -236.203966 
L 374.087273 -220.157624 
L 414.041061 -250.225314 
L 453.994848 -293.060038 
L 493.948636 -200.947537 
L 533.902424 -197.309447 
L 573.856212 -317.333189 
L 613.81 -306.26909 
L 653.763788 -279.081952 
L 693.717576 -300.666441 
L 733.671364 -335.516193 
L 773.625152 -301.873717 
L 813.578939 -340.272343 
L 853.532727 -374.571335 
L 893.486515 -324.365284 
L 933.440303 -298.52459 
L 973.394091 -317.401213 
L 1013.347879 -320.92947 
L 1053.301667 -337.93809 
L 1093.255455 -326.849684 
L 1093.255455 -424.440418 
L 1093.255455 -424.440418 
L 1053.301667 -401.359219 
L 1013.347879 -391.264185 
L 973.394091 -407.958634 
L 933.440303 -406.831242 
L 893.486515 -394.403717 
L 853.532727 -418.646191 
L 813.578939 -390.876821 
L 773.625152 -387.026497 
L 733.671364 -419.384747 
L 693.717576 -389.561757 
L 653.763788 -359.838759 
L 613.81 -360.574372 
L 573.856212 -376.02098 
L 533.902424 -350.881087 
L 493.948636 -339.280547 
L 453.994848 -340.1775 
L 414.041061 -345.646862 
L 374.087273 -336.751446 
L 334.133485 -328.68334 
L 294.179697 -359.545573 
L 254.225909 -363.294058 
L 214.272121 -371.728869 
L 174.318333 -347.917734 
L 134.364545 -322.049877 
z
" style="stroke: #8c564b; stroke-opacity: 0.2"/>
    </defs>
    <g clip-path="url(#pb11c5cb452)">
     <use xlink:href="#ma09329ebf0" x="0" y="576" style="fill: #8c564b; fill-opacity: 0.2; stroke: #8c564b; stroke-opacity: 0.2"/>
    </g>
   </g>
   <g id="PolyCollection_7">
    <defs>
     <path id="md667e7ef9a" d="M 134.364545 -351.891906 
L 134.364545 -262.175634 
L 174.318333 -248.678668 
L 214.272121 -309.022692 
L 254.225909 -296.687488 
L 294.179697 -302.087735 
L 334.133485 -255.999432 
L 374.087273 -214.26753 
L 414.041061 -231.437811 
L 453.994848 -258.745899 
L 493.948636 -173.783396 
L 533.902424 -156.540543 
L 573.856212 -294.565175 
L 613.81 -234.686608 
L 653.763788 -271.338352 
L 693.717576 -268.896159 
L 733.671364 -307.907648 
L 773.625152 -280.671327 
L 813.578939 -294.688065 
L 853.532727 -328.706585 
L 893.486515 -297.084853 
L 933.440303 -287.306017 
L 973.394091 -303.655465 
L 1013.347879 -303.515369 
L 1053.301667 -344.753129 
L 1093.255455 -339.187235 
L 1093.255455 -410.336051 
L 1093.255455 -410.336051 
L 1053.301667 -419.636301 
L 1013.347879 -408.795121 
L 973.394091 -396.014653 
L 933.440303 -377.68676 
L 893.486515 -369.542033 
L 853.532727 -390.716257 
L 813.578939 -389.793606 
L 773.625152 -374.801594 
L 733.671364 -407.066568 
L 693.717576 -401.186537 
L 653.763788 -361.855809 
L 613.81 -330.228153 
L 573.856212 -330.895652 
L 533.902424 -350.759882 
L 493.948636 -320.450459 
L 453.994848 -318.301076 
L 414.041061 -375.153258 
L 374.087273 -316.939625 
L 334.133485 -328.517506 
L 294.179697 -367.610638 
L 254.225909 -343.566448 
L 214.272121 -352.808041 
L 174.318333 -361.544295 
L 134.364545 -351.891906 
z
" style="stroke: #e377c2; stroke-opacity: 0.2"/>
    </defs>
    <g clip-path="url(#pb11c5cb452)">
     <use xlink:href="#md667e7ef9a" x="0" y="576" style="fill: #e377c2; fill-opacity: 0.2; stroke: #e377c2; stroke-opacity: 0.2"/>
    </g>
   </g>
   <g id="PolyCollection_8">
    <defs>
     <path id="ma609da9c2d" d="M 134.364545 -430.744686 
L 134.364545 -311.324632 
L 174.318333 -392.31721 
L 214.272121 -403.965618 
L 254.225909 -380.92973 
L 294.179697 -389.854256 
L 334.133485 -379.892843 
L 374.087273 -278.26361 
L 414.041061 -367.302706 
L 453.994848 -347.219975 
L 493.948636 -293.857171 
L 533.902424 -361.737274 
L 573.856212 -415.718494 
L 613.81 -341.115835 
L 653.763788 -374.978952 
L 693.717576 -372.987648 
L 733.671364 -374.799019 
L 773.625152 -358.806175 
L 813.578939 -425.354854 
L 853.532727 -434.4806 
L 893.486515 -425.749892 
L 933.440303 -383.609339 
L 973.394091 -397.801246 
L 1013.347879 -384.690875 
L 1053.301667 -346.458777 
L 1093.255455 -367.959763 
L 1093.255455 -510.137406 
L 1093.255455 -510.137406 
L 1053.301667 -488.111375 
L 1013.347879 -487.537287 
L 973.394091 -543.425818 
L 933.440303 -479.3872 
L 893.486515 -491.087438 
L 853.532727 -506.072598 
L 813.578939 -499.129363 
L 773.625152 -496.565413 
L 733.671364 -529.755105 
L 693.717576 -458.557707 
L 653.763788 -463.686461 
L 613.81 -446.977875 
L 573.856212 -521.208404 
L 533.902424 -439.805625 
L 493.948636 -405.885853 
L 453.994848 -476.331505 
L 414.041061 -479.392056 
L 374.087273 -455.452401 
L 334.133485 -450.247411 
L 294.179697 -491.639527 
L 254.225909 -455.059107 
L 214.272121 -488.189197 
L 174.318333 -479.294685 
L 134.364545 -430.744686 
z
" style="stroke: #7f7f7f; stroke-opacity: 0.2"/>
    </defs>
    <g clip-path="url(#pb11c5cb452)">
     <use xlink:href="#ma609da9c2d" x="0" y="576" style="fill: #7f7f7f; fill-opacity: 0.2; stroke: #7f7f7f; stroke-opacity: 0.2"/>
    </g>
   </g>
   <g id="matplotlib.axis_1">
    <g id="xtick_1">
     <g id="line2d_1">
      <defs>
       <path id="m446c69b81a" d="M 0 0 
L 0 3.5 
" style="stroke: #000000; stroke-width: 0.8"/>
      </defs>
      <g>
       <use xlink:href="#m446c69b81a" x="114.387652" y="489.832" style="stroke: #000000; stroke-width: 0.8"/>
      </g>
     </g>
     <g id="text_1">
      <!-- 0 -->
      <g transform="translate(108.025152 512.028875) scale(0.2 -0.2)">
       <defs>
        <path id="DejaVuSans-30" d="M 2034 4250 
Q 1547 4250 1301 3770 
Q 1056 3291 1056 2328 
Q 1056 1369 1301 889 
Q 1547 409 2034 409 
Q 2525 409 2770 889 
Q 3016 1369 3016 2328 
Q 3016 3291 2770 3770 
Q 2525 4250 2034 4250 
z
M 2034 4750 
Q 2819 4750 3233 4129 
Q 3647 3509 3647 2328 
Q 3647 1150 3233 529 
Q 2819 -91 2034 -91 
Q 1250 -91 836 529 
Q 422 1150 422 2328 
Q 422 3509 836 4129 
Q 1250 4750 2034 4750 
z
" transform="scale(0.015625)"/>
       </defs>
       <use xlink:href="#DejaVuSans-30"/>
      </g>
     </g>
    </g>
    <g id="xtick_2">
     <g id="line2d_2">
      <g>
       <use xlink:href="#m446c69b81a" x="314.156591" y="489.832" style="stroke: #000000; stroke-width: 0.8"/>
      </g>
     </g>
     <g id="text_2">
      <!-- 10 -->
      <g transform="translate(301.431591 512.028875) scale(0.2 -0.2)">
       <defs>
        <path id="DejaVuSans-31" d="M 794 531 
L 1825 531 
L 1825 4091 
L 703 3866 
L 703 4441 
L 1819 4666 
L 2450 4666 
L 2450 531 
L 3481 531 
L 3481 0 
L 794 0 
L 794 531 
z
" transform="scale(0.015625)"/>
       </defs>
       <use xlink:href="#DejaVuSans-31"/>
       <use xlink:href="#DejaVuSans-30" x="63.623047"/>
      </g>
     </g>
    </g>
    <g id="xtick_3">
     <g id="line2d_3">
      <g>
       <use xlink:href="#m446c69b81a" x="513.92553" y="489.832" style="stroke: #000000; stroke-width: 0.8"/>
      </g>
     </g>
     <g id="text_3">
      <!-- 20 -->
      <g transform="translate(501.20053 512.028875) scale(0.2 -0.2)">
       <defs>
        <path id="DejaVuSans-32" d="M 1228 531 
L 3431 531 
L 3431 0 
L 469 0 
L 469 531 
Q 828 903 1448 1529 
Q 2069 2156 2228 2338 
Q 2531 2678 2651 2914 
Q 2772 3150 2772 3378 
Q 2772 3750 2511 3984 
Q 2250 4219 1831 4219 
Q 1534 4219 1204 4116 
Q 875 4013 500 3803 
L 500 4441 
Q 881 4594 1212 4672 
Q 1544 4750 1819 4750 
Q 2544 4750 2975 4387 
Q 3406 4025 3406 3419 
Q 3406 3131 3298 2873 
Q 3191 2616 2906 2266 
Q 2828 2175 2409 1742 
Q 1991 1309 1228 531 
z
" transform="scale(0.015625)"/>
       </defs>
       <use xlink:href="#DejaVuSans-32"/>
       <use xlink:href="#DejaVuSans-30" x="63.623047"/>
      </g>
     </g>
    </g>
    <g id="xtick_4">
     <g id="line2d_4">
      <g>
       <use xlink:href="#m446c69b81a" x="713.69447" y="489.832" style="stroke: #000000; stroke-width: 0.8"/>
      </g>
     </g>
     <g id="text_4">
      <!-- 30 -->
      <g transform="translate(700.96947 512.028875) scale(0.2 -0.2)">
       <defs>
        <path id="DejaVuSans-33" d="M 2597 2516 
Q 3050 2419 3304 2112 
Q 3559 1806 3559 1356 
Q 3559 666 3084 287 
Q 2609 -91 1734 -91 
Q 1441 -91 1130 -33 
Q 819 25 488 141 
L 488 750 
Q 750 597 1062 519 
Q 1375 441 1716 441 
Q 2309 441 2620 675 
Q 2931 909 2931 1356 
Q 2931 1769 2642 2001 
Q 2353 2234 1838 2234 
L 1294 2234 
L 1294 2753 
L 1863 2753 
Q 2328 2753 2575 2939 
Q 2822 3125 2822 3475 
Q 2822 3834 2567 4026 
Q 2313 4219 1838 4219 
Q 1578 4219 1281 4162 
Q 984 4106 628 3988 
L 628 4550 
Q 988 4650 1302 4700 
Q 1616 4750 1894 4750 
Q 2613 4750 3031 4423 
Q 3450 4097 3450 3541 
Q 3450 3153 3228 2886 
Q 3006 2619 2597 2516 
z
" transform="scale(0.015625)"/>
       </defs>
       <use xlink:href="#DejaVuSans-33"/>
       <use xlink:href="#DejaVuSans-30" x="63.623047"/>
      </g>
     </g>
    </g>
    <g id="xtick_5">
     <g id="line2d_5">
      <g>
       <use xlink:href="#m446c69b81a" x="913.463409" y="489.832" style="stroke: #000000; stroke-width: 0.8"/>
      </g>
     </g>
     <g id="text_5">
      <!-- 40 -->
      <g transform="translate(900.738409 512.028875) scale(0.2 -0.2)">
       <defs>
        <path id="DejaVuSans-34" d="M 2419 4116 
L 825 1625 
L 2419 1625 
L 2419 4116 
z
M 2253 4666 
L 3047 4666 
L 3047 1625 
L 3713 1625 
L 3713 1100 
L 3047 1100 
L 3047 0 
L 2419 0 
L 2419 1100 
L 313 1100 
L 313 1709 
L 2253 4666 
z
" transform="scale(0.015625)"/>
       </defs>
       <use xlink:href="#DejaVuSans-34"/>
       <use xlink:href="#DejaVuSans-30" x="63.623047"/>
      </g>
     </g>
    </g>
    <g id="xtick_6">
     <g id="line2d_6">
      <g>
       <use xlink:href="#m446c69b81a" x="1113.232348" y="489.832" style="stroke: #000000; stroke-width: 0.8"/>
      </g>
     </g>
     <g id="text_6">
      <!-- 50 -->
      <g transform="translate(1100.507348 512.028875) scale(0.2 -0.2)">
       <defs>
        <path id="DejaVuSans-35" d="M 691 4666 
L 3169 4666 
L 3169 4134 
L 1269 4134 
L 1269 2991 
Q 1406 3038 1543 3061 
Q 1681 3084 1819 3084 
Q 2600 3084 3056 2656 
Q 3513 2228 3513 1497 
Q 3513 744 3044 326 
Q 2575 -91 1722 -91 
Q 1428 -91 1123 -41 
Q 819 9 494 109 
L 494 744 
Q 775 591 1075 516 
Q 1375 441 1709 441 
Q 2250 441 2565 725 
Q 2881 1009 2881 1497 
Q 2881 1984 2565 2268 
Q 2250 2553 1709 2553 
Q 1456 2553 1204 2497 
Q 953 2441 691 2322 
L 691 4666 
z
" transform="scale(0.015625)"/>
       </defs>
       <use xlink:href="#DejaVuSans-35"/>
       <use xlink:href="#DejaVuSans-30" x="63.623047"/>
      </g>
     </g>
    </g>
    <g id="text_7">
     <!-- Percentile Threshold -->
     <g transform="translate(512.030312 535.385125) scale(0.2 -0.2)">
      <defs>
       <path id="DejaVuSans-50" d="M 1259 4147 
L 1259 2394 
L 2053 2394 
Q 2494 2394 2734 2622 
Q 2975 2850 2975 3272 
Q 2975 3691 2734 3919 
Q 2494 4147 2053 4147 
L 1259 4147 
z
M 628 4666 
L 2053 4666 
Q 2838 4666 3239 4311 
Q 3641 3956 3641 3272 
Q 3641 2581 3239 2228 
Q 2838 1875 2053 1875 
L 1259 1875 
L 1259 0 
L 628 0 
L 628 4666 
z
" transform="scale(0.015625)"/>
       <path id="DejaVuSans-65" d="M 3597 1894 
L 3597 1613 
L 953 1613 
Q 991 1019 1311 708 
Q 1631 397 2203 397 
Q 2534 397 2845 478 
Q 3156 559 3463 722 
L 3463 178 
Q 3153 47 2828 -22 
Q 2503 -91 2169 -91 
Q 1331 -91 842 396 
Q 353 884 353 1716 
Q 353 2575 817 3079 
Q 1281 3584 2069 3584 
Q 2775 3584 3186 3129 
Q 3597 2675 3597 1894 
z
M 3022 2063 
Q 3016 2534 2758 2815 
Q 2500 3097 2075 3097 
Q 1594 3097 1305 2825 
Q 1016 2553 972 2059 
L 3022 2063 
z
" transform="scale(0.015625)"/>
       <path id="DejaVuSans-72" d="M 2631 2963 
Q 2534 3019 2420 3045 
Q 2306 3072 2169 3072 
Q 1681 3072 1420 2755 
Q 1159 2438 1159 1844 
L 1159 0 
L 581 0 
L 581 3500 
L 1159 3500 
L 1159 2956 
Q 1341 3275 1631 3429 
Q 1922 3584 2338 3584 
Q 2397 3584 2469 3576 
Q 2541 3569 2628 3553 
L 2631 2963 
z
" transform="scale(0.015625)"/>
       <path id="DejaVuSans-63" d="M 3122 3366 
L 3122 2828 
Q 2878 2963 2633 3030 
Q 2388 3097 2138 3097 
Q 1578 3097 1268 2742 
Q 959 2388 959 1747 
Q 959 1106 1268 751 
Q 1578 397 2138 397 
Q 2388 397 2633 464 
Q 2878 531 3122 666 
L 3122 134 
Q 2881 22 2623 -34 
Q 2366 -91 2075 -91 
Q 1284 -91 818 406 
Q 353 903 353 1747 
Q 353 2603 823 3093 
Q 1294 3584 2113 3584 
Q 2378 3584 2631 3529 
Q 2884 3475 3122 3366 
z
" transform="scale(0.015625)"/>
       <path id="DejaVuSans-6e" d="M 3513 2113 
L 3513 0 
L 2938 0 
L 2938 2094 
Q 2938 2591 2744 2837 
Q 2550 3084 2163 3084 
Q 1697 3084 1428 2787 
Q 1159 2491 1159 1978 
L 1159 0 
L 581 0 
L 581 3500 
L 1159 3500 
L 1159 2956 
Q 1366 3272 1645 3428 
Q 1925 3584 2291 3584 
Q 2894 3584 3203 3211 
Q 3513 2838 3513 2113 
z
" transform="scale(0.015625)"/>
       <path id="DejaVuSans-74" d="M 1172 4494 
L 1172 3500 
L 2356 3500 
L 2356 3053 
L 1172 3053 
L 1172 1153 
Q 1172 725 1289 603 
Q 1406 481 1766 481 
L 2356 481 
L 2356 0 
L 1766 0 
Q 1100 0 847 248 
Q 594 497 594 1153 
L 594 3053 
L 172 3053 
L 172 3500 
L 594 3500 
L 594 4494 
L 1172 4494 
z
" transform="scale(0.015625)"/>
       <path id="DejaVuSans-69" d="M 603 3500 
L 1178 3500 
L 1178 0 
L 603 0 
L 603 3500 
z
M 603 4863 
L 1178 4863 
L 1178 4134 
L 603 4134 
L 603 4863 
z
" transform="scale(0.015625)"/>
       <path id="DejaVuSans-6c" d="M 603 4863 
L 1178 4863 
L 1178 0 
L 603 0 
L 603 4863 
z
" transform="scale(0.015625)"/>
       <path id="DejaVuSans-20" transform="scale(0.015625)"/>
       <path id="DejaVuSans-54" d="M -19 4666 
L 3928 4666 
L 3928 4134 
L 2272 4134 
L 2272 0 
L 1638 0 
L 1638 4134 
L -19 4134 
L -19 4666 
z
" transform="scale(0.015625)"/>
       <path id="DejaVuSans-68" d="M 3513 2113 
L 3513 0 
L 2938 0 
L 2938 2094 
Q 2938 2591 2744 2837 
Q 2550 3084 2163 3084 
Q 1697 3084 1428 2787 
Q 1159 2491 1159 1978 
L 1159 0 
L 581 0 
L 581 4863 
L 1159 4863 
L 1159 2956 
Q 1366 3272 1645 3428 
Q 1925 3584 2291 3584 
Q 2894 3584 3203 3211 
Q 3513 2838 3513 2113 
z
" transform="scale(0.015625)"/>
       <path id="DejaVuSans-73" d="M 2834 3397 
L 2834 2853 
Q 2591 2978 2328 3040 
Q 2066 3103 1784 3103 
Q 1356 3103 1142 2972 
Q 928 2841 928 2578 
Q 928 2378 1081 2264 
Q 1234 2150 1697 2047 
L 1894 2003 
Q 2506 1872 2764 1633 
Q 3022 1394 3022 966 
Q 3022 478 2636 193 
Q 2250 -91 1575 -91 
Q 1294 -91 989 -36 
Q 684 19 347 128 
L 347 722 
Q 666 556 975 473 
Q 1284 391 1588 391 
Q 1994 391 2212 530 
Q 2431 669 2431 922 
Q 2431 1156 2273 1281 
Q 2116 1406 1581 1522 
L 1381 1569 
Q 847 1681 609 1914 
Q 372 2147 372 2553 
Q 372 3047 722 3315 
Q 1072 3584 1716 3584 
Q 2034 3584 2315 3537 
Q 2597 3491 2834 3397 
z
" transform="scale(0.015625)"/>
       <path id="DejaVuSans-6f" d="M 1959 3097 
Q 1497 3097 1228 2736 
Q 959 2375 959 1747 
Q 959 1119 1226 758 
Q 1494 397 1959 397 
Q 2419 397 2687 759 
Q 2956 1122 2956 1747 
Q 2956 2369 2687 2733 
Q 2419 3097 1959 3097 
z
M 1959 3584 
Q 2709 3584 3137 3096 
Q 3566 2609 3566 1747 
Q 3566 888 3137 398 
Q 2709 -91 1959 -91 
Q 1206 -91 779 398 
Q 353 888 353 1747 
Q 353 2609 779 3096 
Q 1206 3584 1959 3584 
z
" transform="scale(0.015625)"/>
       <path id="DejaVuSans-64" d="M 2906 2969 
L 2906 4863 
L 3481 4863 
L 3481 0 
L 2906 0 
L 2906 525 
Q 2725 213 2448 61 
Q 2172 -91 1784 -91 
Q 1150 -91 751 415 
Q 353 922 353 1747 
Q 353 2572 751 3078 
Q 1150 3584 1784 3584 
Q 2172 3584 2448 3432 
Q 2725 3281 2906 2969 
z
M 947 1747 
Q 947 1113 1208 752 
Q 1469 391 1925 391 
Q 2381 391 2643 752 
Q 2906 1113 2906 1747 
Q 2906 2381 2643 2742 
Q 2381 3103 1925 3103 
Q 1469 3103 1208 2742 
Q 947 2381 947 1747 
z
" transform="scale(0.015625)"/>
      </defs>
      <use xlink:href="#DejaVuSans-50"/>
      <use xlink:href="#DejaVuSans-65" x="56.677734"/>
      <use xlink:href="#DejaVuSans-72" x="118.201172"/>
      <use xlink:href="#DejaVuSans-63" x="157.064453"/>
      <use xlink:href="#DejaVuSans-65" x="212.044922"/>
      <use xlink:href="#DejaVuSans-6e" x="273.568359"/>
      <use xlink:href="#DejaVuSans-74" x="336.947266"/>
      <use xlink:href="#DejaVuSans-69" x="376.15625"/>
      <use xlink:href="#DejaVuSans-6c" x="403.939453"/>
      <use xlink:href="#DejaVuSans-65" x="431.722656"/>
      <use xlink:href="#DejaVuSans-20" x="493.246094"/>
      <use xlink:href="#DejaVuSans-54" x="525.033203"/>
      <use xlink:href="#DejaVuSans-68" x="586.117188"/>
      <use xlink:href="#DejaVuSans-72" x="649.496094"/>
      <use xlink:href="#DejaVuSans-65" x="688.359375"/>
      <use xlink:href="#DejaVuSans-73" x="749.882812"/>
      <use xlink:href="#DejaVuSans-68" x="801.982422"/>
      <use xlink:href="#DejaVuSans-6f" x="865.361328"/>
      <use xlink:href="#DejaVuSans-6c" x="926.542969"/>
      <use xlink:href="#DejaVuSans-64" x="954.326172"/>
     </g>
     <!-- (Using "max_mean" Threshold Handling) -->
     <g transform="translate(410.280312 557.78075) scale(0.2 -0.2)">
      <defs>
       <path id="DejaVuSans-28" d="M 1984 4856 
Q 1566 4138 1362 3434 
Q 1159 2731 1159 2009 
Q 1159 1288 1364 580 
Q 1569 -128 1984 -844 
L 1484 -844 
Q 1016 -109 783 600 
Q 550 1309 550 2009 
Q 550 2706 781 3412 
Q 1013 4119 1484 4856 
L 1984 4856 
z
" transform="scale(0.015625)"/>
       <path id="DejaVuSans-55" d="M 556 4666 
L 1191 4666 
L 1191 1831 
Q 1191 1081 1462 751 
Q 1734 422 2344 422 
Q 2950 422 3222 751 
Q 3494 1081 3494 1831 
L 3494 4666 
L 4128 4666 
L 4128 1753 
Q 4128 841 3676 375 
Q 3225 -91 2344 -91 
Q 1459 -91 1007 375 
Q 556 841 556 1753 
L 556 4666 
z
" transform="scale(0.015625)"/>
       <path id="DejaVuSans-67" d="M 2906 1791 
Q 2906 2416 2648 2759 
Q 2391 3103 1925 3103 
Q 1463 3103 1205 2759 
Q 947 2416 947 1791 
Q 947 1169 1205 825 
Q 1463 481 1925 481 
Q 2391 481 2648 825 
Q 2906 1169 2906 1791 
z
M 3481 434 
Q 3481 -459 3084 -895 
Q 2688 -1331 1869 -1331 
Q 1566 -1331 1297 -1286 
Q 1028 -1241 775 -1147 
L 775 -588 
Q 1028 -725 1275 -790 
Q 1522 -856 1778 -856 
Q 2344 -856 2625 -561 
Q 2906 -266 2906 331 
L 2906 616 
Q 2728 306 2450 153 
Q 2172 0 1784 0 
Q 1141 0 747 490 
Q 353 981 353 1791 
Q 353 2603 747 3093 
Q 1141 3584 1784 3584 
Q 2172 3584 2450 3431 
Q 2728 3278 2906 2969 
L 2906 3500 
L 3481 3500 
L 3481 434 
z
" transform="scale(0.015625)"/>
       <path id="DejaVuSans-22" d="M 1147 4666 
L 1147 2931 
L 616 2931 
L 616 4666 
L 1147 4666 
z
M 2328 4666 
L 2328 2931 
L 1797 2931 
L 1797 4666 
L 2328 4666 
z
" transform="scale(0.015625)"/>
       <path id="DejaVuSans-6d" d="M 3328 2828 
Q 3544 3216 3844 3400 
Q 4144 3584 4550 3584 
Q 5097 3584 5394 3201 
Q 5691 2819 5691 2113 
L 5691 0 
L 5113 0 
L 5113 2094 
Q 5113 2597 4934 2840 
Q 4756 3084 4391 3084 
Q 3944 3084 3684 2787 
Q 3425 2491 3425 1978 
L 3425 0 
L 2847 0 
L 2847 2094 
Q 2847 2600 2669 2842 
Q 2491 3084 2119 3084 
Q 1678 3084 1418 2786 
Q 1159 2488 1159 1978 
L 1159 0 
L 581 0 
L 581 3500 
L 1159 3500 
L 1159 2956 
Q 1356 3278 1631 3431 
Q 1906 3584 2284 3584 
Q 2666 3584 2933 3390 
Q 3200 3197 3328 2828 
z
" transform="scale(0.015625)"/>
       <path id="DejaVuSans-61" d="M 2194 1759 
Q 1497 1759 1228 1600 
Q 959 1441 959 1056 
Q 959 750 1161 570 
Q 1363 391 1709 391 
Q 2188 391 2477 730 
Q 2766 1069 2766 1631 
L 2766 1759 
L 2194 1759 
z
M 3341 1997 
L 3341 0 
L 2766 0 
L 2766 531 
Q 2569 213 2275 61 
Q 1981 -91 1556 -91 
Q 1019 -91 701 211 
Q 384 513 384 1019 
Q 384 1609 779 1909 
Q 1175 2209 1959 2209 
L 2766 2209 
L 2766 2266 
Q 2766 2663 2505 2880 
Q 2244 3097 1772 3097 
Q 1472 3097 1187 3025 
Q 903 2953 641 2809 
L 641 3341 
Q 956 3463 1253 3523 
Q 1550 3584 1831 3584 
Q 2591 3584 2966 3190 
Q 3341 2797 3341 1997 
z
" transform="scale(0.015625)"/>
       <path id="DejaVuSans-78" d="M 3513 3500 
L 2247 1797 
L 3578 0 
L 2900 0 
L 1881 1375 
L 863 0 
L 184 0 
L 1544 1831 
L 300 3500 
L 978 3500 
L 1906 2253 
L 2834 3500 
L 3513 3500 
z
" transform="scale(0.015625)"/>
       <path id="DejaVuSans-5f" d="M 3263 -1063 
L 3263 -1509 
L -63 -1509 
L -63 -1063 
L 3263 -1063 
z
" transform="scale(0.015625)"/>
       <path id="DejaVuSans-48" d="M 628 4666 
L 1259 4666 
L 1259 2753 
L 3553 2753 
L 3553 4666 
L 4184 4666 
L 4184 0 
L 3553 0 
L 3553 2222 
L 1259 2222 
L 1259 0 
L 628 0 
L 628 4666 
z
" transform="scale(0.015625)"/>
       <path id="DejaVuSans-29" d="M 513 4856 
L 1013 4856 
Q 1481 4119 1714 3412 
Q 1947 2706 1947 2009 
Q 1947 1309 1714 600 
Q 1481 -109 1013 -844 
L 513 -844 
Q 928 -128 1133 580 
Q 1338 1288 1338 2009 
Q 1338 2731 1133 3434 
Q 928 4138 513 4856 
z
" transform="scale(0.015625)"/>
      </defs>
      <use xlink:href="#DejaVuSans-28"/>
      <use xlink:href="#DejaVuSans-55" x="39.013672"/>
      <use xlink:href="#DejaVuSans-73" x="112.207031"/>
      <use xlink:href="#DejaVuSans-69" x="164.306641"/>
      <use xlink:href="#DejaVuSans-6e" x="192.089844"/>
      <use xlink:href="#DejaVuSans-67" x="255.46875"/>
      <use xlink:href="#DejaVuSans-20" x="318.945312"/>
      <use xlink:href="#DejaVuSans-22" x="350.732422"/>
      <use xlink:href="#DejaVuSans-6d" x="396.728516"/>
      <use xlink:href="#DejaVuSans-61" x="494.140625"/>
      <use xlink:href="#DejaVuSans-78" x="555.419922"/>
      <use xlink:href="#DejaVuSans-5f" x="614.599609"/>
      <use xlink:href="#DejaVuSans-6d" x="664.599609"/>
      <use xlink:href="#DejaVuSans-65" x="762.011719"/>
      <use xlink:href="#DejaVuSans-61" x="823.535156"/>
      <use xlink:href="#DejaVuSans-6e" x="884.814453"/>
      <use xlink:href="#DejaVuSans-22" x="948.193359"/>
      <use xlink:href="#DejaVuSans-20" x="994.189453"/>
      <use xlink:href="#DejaVuSans-54" x="1025.976562"/>
      <use xlink:href="#DejaVuSans-68" x="1087.060547"/>
      <use xlink:href="#DejaVuSans-72" x="1150.439453"/>
      <use xlink:href="#DejaVuSans-65" x="1189.302734"/>
      <use xlink:href="#DejaVuSans-73" x="1250.826172"/>
      <use xlink:href="#DejaVuSans-68" x="1302.925781"/>
      <use xlink:href="#DejaVuSans-6f" x="1366.304688"/>
      <use xlink:href="#DejaVuSans-6c" x="1427.486328"/>
      <use xlink:href="#DejaVuSans-64" x="1455.269531"/>
      <use xlink:href="#DejaVuSans-20" x="1518.746094"/>
      <use xlink:href="#DejaVuSans-48" x="1550.533203"/>
      <use xlink:href="#DejaVuSans-61" x="1625.728516"/>
      <use xlink:href="#DejaVuSans-6e" x="1687.007812"/>
      <use xlink:href="#DejaVuSans-64" x="1750.386719"/>
      <use xlink:href="#DejaVuSans-6c" x="1813.863281"/>
      <use xlink:href="#DejaVuSans-69" x="1841.646484"/>
      <use xlink:href="#DejaVuSans-6e" x="1869.429688"/>
      <use xlink:href="#DejaVuSans-67" x="1932.808594"/>
      <use xlink:href="#DejaVuSans-29" x="1996.285156"/>
     </g>
    </g>
   </g>
   <g id="matplotlib.axis_2">
    <g id="ytick_1">
     <g id="line2d_7">
      <defs>
       <path id="m7297981dfd" d="M 0 0 
L -3.5 0 
" style="stroke: #000000; stroke-width: 0.8"/>
      </defs>
      <g>
       <use xlink:href="#m7297981dfd" x="86.42" y="442.653951" style="stroke: #000000; stroke-width: 0.8"/>
      </g>
     </g>
     <g id="text_8">
      <!-- 0.88 -->
      <g transform="translate(34.88875 450.252388) scale(0.2 -0.2)">
       <defs>
        <path id="DejaVuSans-2e" d="M 684 794 
L 1344 794 
L 1344 0 
L 684 0 
L 684 794 
z
" transform="scale(0.015625)"/>
        <path id="DejaVuSans-38" d="M 2034 2216 
Q 1584 2216 1326 1975 
Q 1069 1734 1069 1313 
Q 1069 891 1326 650 
Q 1584 409 2034 409 
Q 2484 409 2743 651 
Q 3003 894 3003 1313 
Q 3003 1734 2745 1975 
Q 2488 2216 2034 2216 
z
M 1403 2484 
Q 997 2584 770 2862 
Q 544 3141 544 3541 
Q 544 4100 942 4425 
Q 1341 4750 2034 4750 
Q 2731 4750 3128 4425 
Q 3525 4100 3525 3541 
Q 3525 3141 3298 2862 
Q 3072 2584 2669 2484 
Q 3125 2378 3379 2068 
Q 3634 1759 3634 1313 
Q 3634 634 3220 271 
Q 2806 -91 2034 -91 
Q 1263 -91 848 271 
Q 434 634 434 1313 
Q 434 1759 690 2068 
Q 947 2378 1403 2484 
z
M 1172 3481 
Q 1172 3119 1398 2916 
Q 1625 2713 2034 2713 
Q 2441 2713 2670 2916 
Q 2900 3119 2900 3481 
Q 2900 3844 2670 4047 
Q 2441 4250 2034 4250 
Q 1625 4250 1398 4047 
Q 1172 3844 1172 3481 
z
" transform="scale(0.015625)"/>
       </defs>
       <use xlink:href="#DejaVuSans-30"/>
       <use xlink:href="#DejaVuSans-2e" x="63.623047"/>
       <use xlink:href="#DejaVuSans-38" x="95.410156"/>
       <use xlink:href="#DejaVuSans-38" x="159.033203"/>
      </g>
     </g>
    </g>
    <g id="ytick_2">
     <g id="line2d_8">
      <g>
       <use xlink:href="#m7297981dfd" x="86.42" y="361.709401" style="stroke: #000000; stroke-width: 0.8"/>
      </g>
     </g>
     <g id="text_9">
      <!-- 0.89 -->
      <g transform="translate(34.88875 369.307838) scale(0.2 -0.2)">
       <defs>
        <path id="DejaVuSans-39" d="M 703 97 
L 703 672 
Q 941 559 1184 500 
Q 1428 441 1663 441 
Q 2288 441 2617 861 
Q 2947 1281 2994 2138 
Q 2813 1869 2534 1725 
Q 2256 1581 1919 1581 
Q 1219 1581 811 2004 
Q 403 2428 403 3163 
Q 403 3881 828 4315 
Q 1253 4750 1959 4750 
Q 2769 4750 3195 4129 
Q 3622 3509 3622 2328 
Q 3622 1225 3098 567 
Q 2575 -91 1691 -91 
Q 1453 -91 1209 -44 
Q 966 3 703 97 
z
M 1959 2075 
Q 2384 2075 2632 2365 
Q 2881 2656 2881 3163 
Q 2881 3666 2632 3958 
Q 2384 4250 1959 4250 
Q 1534 4250 1286 3958 
Q 1038 3666 1038 3163 
Q 1038 2656 1286 2365 
Q 1534 2075 1959 2075 
z
" transform="scale(0.015625)"/>
       </defs>
       <use xlink:href="#DejaVuSans-30"/>
       <use xlink:href="#DejaVuSans-2e" x="63.623047"/>
       <use xlink:href="#DejaVuSans-38" x="95.410156"/>
       <use xlink:href="#DejaVuSans-39" x="159.033203"/>
      </g>
     </g>
    </g>
    <g id="ytick_3">
     <g id="line2d_9">
      <g>
       <use xlink:href="#m7297981dfd" x="86.42" y="280.76485" style="stroke: #000000; stroke-width: 0.8"/>
      </g>
     </g>
     <g id="text_10">
      <!-- 0.90 -->
      <g transform="translate(34.88875 288.363288) scale(0.2 -0.2)">
       <use xlink:href="#DejaVuSans-30"/>
       <use xlink:href="#DejaVuSans-2e" x="63.623047"/>
       <use xlink:href="#DejaVuSans-39" x="95.410156"/>
       <use xlink:href="#DejaVuSans-30" x="159.033203"/>
      </g>
     </g>
    </g>
    <g id="ytick_4">
     <g id="line2d_10">
      <g>
       <use xlink:href="#m7297981dfd" x="86.42" y="199.8203" style="stroke: #000000; stroke-width: 0.8"/>
      </g>
     </g>
     <g id="text_11">
      <!-- 0.91 -->
      <g transform="translate(34.88875 207.418738) scale(0.2 -0.2)">
       <use xlink:href="#DejaVuSans-30"/>
       <use xlink:href="#DejaVuSans-2e" x="63.623047"/>
       <use xlink:href="#DejaVuSans-39" x="95.410156"/>
       <use xlink:href="#DejaVuSans-31" x="159.033203"/>
      </g>
     </g>
    </g>
    <g id="ytick_5">
     <g id="line2d_11">
      <g>
       <use xlink:href="#m7297981dfd" x="86.42" y="118.87575" style="stroke: #000000; stroke-width: 0.8"/>
      </g>
     </g>
     <g id="text_12">
      <!-- 0.92 -->
      <g transform="translate(34.88875 126.474188) scale(0.2 -0.2)">
       <use xlink:href="#DejaVuSans-30"/>
       <use xlink:href="#DejaVuSans-2e" x="63.623047"/>
       <use xlink:href="#DejaVuSans-39" x="95.410156"/>
       <use xlink:href="#DejaVuSans-32" x="159.033203"/>
      </g>
     </g>
    </g>
    <g id="ytick_6">
     <g id="line2d_12">
      <g>
       <use xlink:href="#m7297981dfd" x="86.42" y="37.9312" style="stroke: #000000; stroke-width: 0.8"/>
      </g>
     </g>
     <g id="text_13">
      <!-- 0.93 -->
      <g transform="translate(34.88875 45.529637) scale(0.2 -0.2)">
       <use xlink:href="#DejaVuSans-30"/>
       <use xlink:href="#DejaVuSans-2e" x="63.623047"/>
       <use xlink:href="#DejaVuSans-39" x="95.410156"/>
       <use xlink:href="#DejaVuSans-33" x="159.033203"/>
      </g>
     </g>
    </g>
    <g id="text_14">
     <!-- R2 -->
     <g transform="translate(26.729375 263.626938) rotate(-90) scale(0.2 -0.2)">
      <defs>
       <path id="DejaVuSans-52" d="M 2841 2188 
Q 3044 2119 3236 1894 
Q 3428 1669 3622 1275 
L 4263 0 
L 3584 0 
L 2988 1197 
Q 2756 1666 2539 1819 
Q 2322 1972 1947 1972 
L 1259 1972 
L 1259 0 
L 628 0 
L 628 4666 
L 2053 4666 
Q 2853 4666 3247 4331 
Q 3641 3997 3641 3322 
Q 3641 2881 3436 2590 
Q 3231 2300 2841 2188 
z
M 1259 4147 
L 1259 2491 
L 2053 2491 
Q 2509 2491 2742 2702 
Q 2975 2913 2975 3322 
Q 2975 3731 2742 3939 
Q 2509 4147 2053 4147 
L 1259 4147 
z
" transform="scale(0.015625)"/>
      </defs>
      <use xlink:href="#DejaVuSans-52"/>
      <use xlink:href="#DejaVuSans-32" x="69.482422"/>
     </g>
    </g>
   </g>
   <g id="line2d_13">
    <path d="M 134.364545 268.892013 
L 174.318333 270.136777 
L 214.272121 243.580362 
L 254.225909 259.540144 
L 294.179697 240.152431 
L 334.133485 284.144099 
L 374.087273 306.024221 
L 414.041061 284.963949 
L 453.994848 286.535707 
L 493.948636 331.107358 
L 533.902424 309.929134 
L 573.856212 263.265862 
L 613.81 292.058917 
L 653.763788 263.968215 
L 693.717576 231.984085 
L 733.671364 218.949068 
L 773.625152 247.548531 
L 813.578939 230.595173 
L 853.532727 218.817925 
L 893.486515 239.77928 
L 933.440303 246.304778 
L 973.394091 219.479008 
L 1013.347879 224.3945 
L 1053.301667 196.816171 
L 1093.255455 202.424362 
" clip-path="url(#pb11c5cb452)" style="fill: none; stroke: #1f77b4; stroke-width: 1.5; stroke-linecap: square"/>
   </g>
   <g id="line2d_14">
    <path d="M 134.364545 334.04607 
L 174.318333 302.473999 
L 214.272121 284.963823 
L 254.225909 305.465533 
L 294.179697 314.445477 
L 334.133485 353.966455 
L 374.087273 374.535704 
L 414.041061 340.911176 
L 453.994848 361.088793 
L 493.948636 399.954184 
L 533.902424 373.224653 
L 573.856212 306.95053 
L 613.81 344.539618 
L 653.763788 358.59152 
L 693.717576 337.800192 
L 733.671364 317.308892 
L 773.625152 327.521374 
L 813.578939 282.339559 
L 853.532727 279.386652 
L 893.486515 304.026934 
L 933.440303 328.920807 
L 973.394091 303.375438 
L 1013.347879 305.649022 
L 1053.301667 305.387221 
L 1093.255455 296.140722 
" clip-path="url(#pb11c5cb452)" style="fill: none; stroke: #ff7f0e; stroke-width: 1.5; stroke-linecap: square"/>
   </g>
   <g id="line2d_15">
    <path d="M 134.364545 260.827826 
L 174.318333 201.848838 
L 214.272121 163.113749 
L 254.225909 196.985228 
L 294.179697 147.924476 
L 334.133485 205.526977 
L 374.087273 239.508343 
L 414.041061 196.598073 
L 453.994848 191.780216 
L 493.948636 259.100709 
L 533.902424 244.653973 
L 573.856212 152.655387 
L 613.81 229.548395 
L 653.763788 195.750134 
L 693.717576 196.076039 
L 733.671364 154.033851 
L 773.625152 204.042929 
L 813.578939 144.80107 
L 853.532727 132.848343 
L 893.486515 156.523692 
L 933.440303 184.965051 
L 973.394091 160.183949 
L 1013.347879 185.30601 
L 1053.301667 201.092937 
L 1093.255455 173.4874 
" clip-path="url(#pb11c5cb452)" style="fill: none; stroke: #2ca02c; stroke-width: 1.5; stroke-linecap: square"/>
   </g>
   <g id="line2d_16">
    <path d="M 134.364545 323.634873 
L 174.318333 272.410375 
L 214.272121 226.575866 
L 254.225909 218.557492 
L 294.179697 229.429121 
L 334.133485 277.964969 
L 374.087273 366.214446 
L 414.041061 304.008637 
L 453.994848 278.623136 
L 493.948636 332.729743 
L 533.902424 329.909039 
L 573.856212 287.229735 
L 613.81 236.072828 
L 653.763788 239.283527 
L 693.717576 211.588147 
L 733.671364 225.164476 
L 773.625152 235.800231 
L 813.578939 193.432638 
L 853.532727 220.602198 
L 893.486515 221.949535 
L 933.440303 206.6928 
L 973.394091 190.514121 
L 1013.347879 201.403588 
L 1053.301667 186.109636 
L 1093.255455 186.228487 
" clip-path="url(#pb11c5cb452)" style="fill: none; stroke: #d62728; stroke-width: 1.5; stroke-linecap: square"/>
   </g>
   <g id="line2d_17">
    <path d="M 134.364545 271.624889 
L 174.318333 284.463211 
L 214.272121 221.546654 
L 254.225909 271.15699 
L 294.179697 248.867347 
L 334.133485 367.242169 
L 374.087273 279.505694 
L 414.041061 275.475787 
L 453.994848 276.593746 
L 493.948636 329.104796 
L 533.902424 281.437671 
L 573.856212 255.346075 
L 613.81 259.823218 
L 653.763788 268.109845 
L 693.717576 273.262486 
L 733.671364 230.170607 
L 773.625152 245.419137 
L 813.578939 220.737399 
L 853.532727 199.47522 
L 893.486515 211.700963 
L 933.440303 249.385818 
L 973.394091 239.445172 
L 1013.347879 279.829302 
L 1053.301667 218.53176 
L 1093.255455 244.184602 
" clip-path="url(#pb11c5cb452)" style="fill: none; stroke: #9467bd; stroke-width: 1.5; stroke-linecap: square"/>
   </g>
   <g id="line2d_18">
    <path d="M 134.364545 290.012248 
L 174.318333 260.037619 
L 214.272121 237.156551 
L 254.225909 257.324062 
L 294.179697 254.738357 
L 334.133485 289.705782 
L 374.087273 294.217198 
L 414.041061 278.062437 
L 453.994848 262.329218 
L 493.948636 304.31955 
L 533.902424 297.093906 
L 573.856212 224.657258 
L 613.81 238.820529 
L 653.763788 260.981111 
L 693.717576 229.419104 
L 733.671364 200.34012 
L 773.625152 230.228825 
L 813.578939 210.751354 
L 853.532727 182.321228 
L 893.486515 216.709245 
L 933.440303 219.69489 
L 973.394091 206.217231 
L 1013.347879 219.537462 
L 1053.301667 201.10977 
L 1093.255455 200.882776 
" clip-path="url(#pb11c5cb452)" style="fill: none; stroke: #8c564b; stroke-width: 1.5; stroke-linecap: square"/>
   </g>
   <g id="line2d_19">
    <path d="M 134.364545 267.404747 
L 174.318333 268.183255 
L 214.272121 241.643577 
L 254.225909 257.246147 
L 294.179697 241.080737 
L 334.133485 283.660564 
L 374.087273 301.38784 
L 414.041061 281.247645 
L 453.994848 286.378941 
L 493.948636 326.33902 
L 533.902424 311.126135 
L 573.856212 262.395592 
L 613.81 290.960777 
L 653.763788 261.644796 
L 693.717576 236.060403 
L 733.671364 217.01853 
L 773.625152 242.891742 
L 813.578939 230.35813 
L 853.532727 217.658162 
L 893.486515 238.964556 
L 933.440303 244.653367 
L 973.394091 219.848021 
L 1013.347879 219.583112 
L 1053.301667 194.276166 
L 1093.255455 200.006514 
" clip-path="url(#pb11c5cb452)" style="fill: none; stroke: #e377c2; stroke-width: 1.5; stroke-linecap: square"/>
   </g>
   <g id="line2d_20">
    <path d="M 134.364545 204.102431 
L 174.318333 141.164982 
L 214.272121 132.55493 
L 254.225909 156.275676 
L 294.179697 122.940556 
L 334.133485 163.411967 
L 374.087273 201.403498 
L 414.041061 148.508248 
L 453.994848 149.750058 
L 493.948636 220.273942 
L 533.902424 171.199381 
L 573.856212 104.175402 
L 613.81 176.485945 
L 653.763788 159.264412 
L 693.717576 164.23931 
L 733.671364 118.484013 
L 773.625152 147.254105 
L 813.578939 106.23301 
L 853.532727 104.12583 
L 893.486515 112.436884 
L 933.440303 141.531876 
L 973.394091 107.105699 
L 1013.347879 141.203296 
L 1053.301667 153.335027 
L 1093.255455 127.711351 
" clip-path="url(#pb11c5cb452)" style="fill: none; stroke: #7f7f7f; stroke-width: 1.5; stroke-linecap: square"/>
   </g>
   <g id="line2d_21"/>
   <g id="line2d_22"/>
   <g id="line2d_23"/>
   <g id="line2d_24"/>
   <g id="line2d_25"/>
   <g id="line2d_26"/>
   <g id="line2d_27"/>
   <g id="line2d_28"/>
   <g id="patch_3">
    <path d="M 86.42 489.832 
L 86.42 10.8 
" style="fill: none; stroke: #000000; stroke-width: 0.8; stroke-linejoin: miter; stroke-linecap: square"/>
   </g>
   <g id="patch_4">
    <path d="M 1141.2 489.832 
L 1141.2 10.8 
" style="fill: none; stroke: #000000; stroke-width: 0.8; stroke-linejoin: miter; stroke-linecap: square"/>
   </g>
   <g id="patch_5">
    <path d="M 86.42 489.832 
L 1141.2 489.832 
" style="fill: none; stroke: #000000; stroke-width: 0.8; stroke-linejoin: miter; stroke-linecap: square"/>
   </g>
   <g id="patch_6">
    <path d="M 86.42 10.8 
L 1141.2 10.8 
" style="fill: none; stroke: #000000; stroke-width: 0.8; stroke-linejoin: miter; stroke-linecap: square"/>
   </g>
   <g id="legend_1">
    <g id="patch_7">
     <path d="M 97.62 481.832 
L 293.8575 481.832 
Q 297.0575 481.832 297.0575 478.632 
L 297.0575 290.572 
Q 297.0575 287.372 293.8575 287.372 
L 97.62 287.372 
Q 94.42 287.372 94.42 290.572 
L 94.42 478.632 
Q 94.42 481.832 97.62 481.832 
z
" style="fill: #ffffff; opacity: 0.8; stroke: #cccccc; stroke-linejoin: miter"/>
    </g>
    <g id="line2d_29">
     <path d="M 100.82 300.3295 
L 116.82 300.3295 
L 132.82 300.3295 
" style="fill: none; stroke: #1f77b4; stroke-width: 1.5; stroke-linecap: square"/>
    </g>
    <g id="text_15">
     <!-- BayesianRidge -->
     <g transform="translate(145.62 305.9295) scale(0.16 -0.16)">
      <defs>
       <path id="DejaVuSans-42" d="M 1259 2228 
L 1259 519 
L 2272 519 
Q 2781 519 3026 730 
Q 3272 941 3272 1375 
Q 3272 1813 3026 2020 
Q 2781 2228 2272 2228 
L 1259 2228 
z
M 1259 4147 
L 1259 2741 
L 2194 2741 
Q 2656 2741 2882 2914 
Q 3109 3088 3109 3444 
Q 3109 3797 2882 3972 
Q 2656 4147 2194 4147 
L 1259 4147 
z
M 628 4666 
L 2241 4666 
Q 2963 4666 3353 4366 
Q 3744 4066 3744 3513 
Q 3744 3084 3544 2831 
Q 3344 2578 2956 2516 
Q 3422 2416 3680 2098 
Q 3938 1781 3938 1306 
Q 3938 681 3513 340 
Q 3088 0 2303 0 
L 628 0 
L 628 4666 
z
" transform="scale(0.015625)"/>
       <path id="DejaVuSans-79" d="M 2059 -325 
Q 1816 -950 1584 -1140 
Q 1353 -1331 966 -1331 
L 506 -1331 
L 506 -850 
L 844 -850 
Q 1081 -850 1212 -737 
Q 1344 -625 1503 -206 
L 1606 56 
L 191 3500 
L 800 3500 
L 1894 763 
L 2988 3500 
L 3597 3500 
L 2059 -325 
z
" transform="scale(0.015625)"/>
      </defs>
      <use xlink:href="#DejaVuSans-42"/>
      <use xlink:href="#DejaVuSans-61" x="68.603516"/>
      <use xlink:href="#DejaVuSans-79" x="129.882812"/>
      <use xlink:href="#DejaVuSans-65" x="189.0625"/>
      <use xlink:href="#DejaVuSans-73" x="250.585938"/>
      <use xlink:href="#DejaVuSans-69" x="302.685547"/>
      <use xlink:href="#DejaVuSans-61" x="330.46875"/>
      <use xlink:href="#DejaVuSans-6e" x="391.748047"/>
      <use xlink:href="#DejaVuSans-52" x="455.126953"/>
      <use xlink:href="#DejaVuSans-69" x="524.609375"/>
      <use xlink:href="#DejaVuSans-64" x="552.392578"/>
      <use xlink:href="#DejaVuSans-67" x="615.869141"/>
      <use xlink:href="#DejaVuSans-65" x="679.345703"/>
     </g>
    </g>
    <g id="line2d_30">
     <path d="M 100.82 323.8145 
L 116.82 323.8145 
L 132.82 323.8145 
" style="fill: none; stroke: #ff7f0e; stroke-width: 1.5; stroke-linecap: square"/>
    </g>
    <g id="text_16">
     <!-- rf -->
     <g transform="translate(145.62 329.4145) scale(0.16 -0.16)">
      <defs>
       <path id="DejaVuSans-66" d="M 2375 4863 
L 2375 4384 
L 1825 4384 
Q 1516 4384 1395 4259 
Q 1275 4134 1275 3809 
L 1275 3500 
L 2222 3500 
L 2222 3053 
L 1275 3053 
L 1275 0 
L 697 0 
L 697 3053 
L 147 3053 
L 147 3500 
L 697 3500 
L 697 3744 
Q 697 4328 969 4595 
Q 1241 4863 1831 4863 
L 2375 4863 
z
" transform="scale(0.015625)"/>
      </defs>
      <use xlink:href="#DejaVuSans-72"/>
      <use xlink:href="#DejaVuSans-66" x="41.113281"/>
     </g>
    </g>
    <g id="line2d_31">
     <path d="M 100.82 347.2995 
L 116.82 347.2995 
L 132.82 347.2995 
" style="fill: none; stroke: #2ca02c; stroke-width: 1.5; stroke-linecap: square"/>
    </g>
    <g id="text_17">
     <!-- gbr -->
     <g transform="translate(145.62 352.8995) scale(0.16 -0.16)">
      <defs>
       <path id="DejaVuSans-62" d="M 3116 1747 
Q 3116 2381 2855 2742 
Q 2594 3103 2138 3103 
Q 1681 3103 1420 2742 
Q 1159 2381 1159 1747 
Q 1159 1113 1420 752 
Q 1681 391 2138 391 
Q 2594 391 2855 752 
Q 3116 1113 3116 1747 
z
M 1159 2969 
Q 1341 3281 1617 3432 
Q 1894 3584 2278 3584 
Q 2916 3584 3314 3078 
Q 3713 2572 3713 1747 
Q 3713 922 3314 415 
Q 2916 -91 2278 -91 
Q 1894 -91 1617 61 
Q 1341 213 1159 525 
L 1159 0 
L 581 0 
L 581 4863 
L 1159 4863 
L 1159 2969 
z
" transform="scale(0.015625)"/>
      </defs>
      <use xlink:href="#DejaVuSans-67"/>
      <use xlink:href="#DejaVuSans-62" x="63.476562"/>
      <use xlink:href="#DejaVuSans-72" x="126.953125"/>
     </g>
    </g>
    <g id="line2d_32">
     <path d="M 100.82 370.7845 
L 116.82 370.7845 
L 132.82 370.7845 
" style="fill: none; stroke: #d62728; stroke-width: 1.5; stroke-linecap: square"/>
    </g>
    <g id="text_18">
     <!-- xgb -->
     <g transform="translate(145.62 376.3845) scale(0.16 -0.16)">
      <use xlink:href="#DejaVuSans-78"/>
      <use xlink:href="#DejaVuSans-67" x="59.179688"/>
      <use xlink:href="#DejaVuSans-62" x="122.65625"/>
     </g>
    </g>
    <g id="line2d_33">
     <path d="M 100.82 394.2695 
L 116.82 394.2695 
L 132.82 394.2695 
" style="fill: none; stroke: #9467bd; stroke-width: 1.5; stroke-linecap: square"/>
    </g>
    <g id="text_19">
     <!-- gbr_gs -->
     <g transform="translate(145.62 399.8695) scale(0.16 -0.16)">
      <use xlink:href="#DejaVuSans-67"/>
      <use xlink:href="#DejaVuSans-62" x="63.476562"/>
      <use xlink:href="#DejaVuSans-72" x="126.953125"/>
      <use xlink:href="#DejaVuSans-5f" x="168.066406"/>
      <use xlink:href="#DejaVuSans-67" x="218.066406"/>
      <use xlink:href="#DejaVuSans-73" x="281.542969"/>
     </g>
    </g>
    <g id="line2d_34">
     <path d="M 100.82 418.1995 
L 116.82 418.1995 
L 132.82 418.1995 
" style="fill: none; stroke: #8c564b; stroke-width: 1.5; stroke-linecap: square"/>
    </g>
    <g id="text_20">
     <!-- rf_gs -->
     <g transform="translate(145.62 423.7995) scale(0.16 -0.16)">
      <use xlink:href="#DejaVuSans-72"/>
      <use xlink:href="#DejaVuSans-66" x="41.113281"/>
      <use xlink:href="#DejaVuSans-5f" x="76.318359"/>
      <use xlink:href="#DejaVuSans-67" x="126.318359"/>
      <use xlink:href="#DejaVuSans-73" x="189.794922"/>
     </g>
    </g>
    <g id="line2d_35">
     <path d="M 100.82 442.1295 
L 116.82 442.1295 
L 132.82 442.1295 
" style="fill: none; stroke: #e377c2; stroke-width: 1.5; stroke-linecap: square"/>
    </g>
    <g id="text_21">
     <!-- BayesianRidge_gs -->
     <g transform="translate(145.62 447.7295) scale(0.16 -0.16)">
      <use xlink:href="#DejaVuSans-42"/>
      <use xlink:href="#DejaVuSans-61" x="68.603516"/>
      <use xlink:href="#DejaVuSans-79" x="129.882812"/>
      <use xlink:href="#DejaVuSans-65" x="189.0625"/>
      <use xlink:href="#DejaVuSans-73" x="250.585938"/>
      <use xlink:href="#DejaVuSans-69" x="302.685547"/>
      <use xlink:href="#DejaVuSans-61" x="330.46875"/>
      <use xlink:href="#DejaVuSans-6e" x="391.748047"/>
      <use xlink:href="#DejaVuSans-52" x="455.126953"/>
      <use xlink:href="#DejaVuSans-69" x="524.609375"/>
      <use xlink:href="#DejaVuSans-64" x="552.392578"/>
      <use xlink:href="#DejaVuSans-67" x="615.869141"/>
      <use xlink:href="#DejaVuSans-65" x="679.345703"/>
      <use xlink:href="#DejaVuSans-5f" x="740.869141"/>
      <use xlink:href="#DejaVuSans-67" x="790.869141"/>
      <use xlink:href="#DejaVuSans-73" x="854.345703"/>
     </g>
    </g>
    <g id="line2d_36">
     <path d="M 100.82 466.0595 
L 116.82 466.0595 
L 132.82 466.0595 
" style="fill: none; stroke: #7f7f7f; stroke-width: 1.5; stroke-linecap: square"/>
    </g>
    <g id="text_22">
     <!-- xgb_gs -->
     <g transform="translate(145.62 471.6595) scale(0.16 -0.16)">
      <use xlink:href="#DejaVuSans-78"/>
      <use xlink:href="#DejaVuSans-67" x="59.179688"/>
      <use xlink:href="#DejaVuSans-62" x="122.65625"/>
      <use xlink:href="#DejaVuSans-5f" x="186.132812"/>
      <use xlink:href="#DejaVuSans-67" x="236.132812"/>
      <use xlink:href="#DejaVuSans-73" x="299.609375"/>
     </g>
    </g>
   </g>
  </g>
 </g>
 <defs>
  <clipPath id="pb11c5cb452">
   <rect x="86.42" y="10.8" width="1054.78" height="479.032"/>
  </clipPath>
 </defs>
</svg>
