<?xml version="1.0" encoding="utf-8" standalone="no"?>
<!DOCTYPE svg PUBLIC "-//W3C//DTD SVG 1.1//EN"
  "http://www.w3.org/Graphics/SVG/1.1/DTD/svg11.dtd">
<svg xmlns:xlink="http://www.w3.org/1999/xlink" width="1152pt" height="576pt" viewBox="0 0 1152 576" xmlns="http://www.w3.org/2000/svg" version="1.1">
 <metadata>
  <rdf:RDF xmlns:dc="http://purl.org/dc/elements/1.1/" xmlns:cc="http://creativecommons.org/ns#" xmlns:rdf="http://www.w3.org/1999/02/22-rdf-syntax-ns#">
   <cc:Work>
    <dc:type rdf:resource="http://purl.org/dc/dcmitype/StillImage"/>
    <dc:date>2025-03-26T16:26:23.875790</dc:date>
    <dc:format>image/svg+xml</dc:format>
    <dc:creator>
     <cc:Agent>
      <dc:title>Matplotlib v3.7.1, https://matplotlib.org/</dc:title>
     </cc:Agent>
    </dc:creator>
   </cc:Work>
  </rdf:RDF>
 </metadata>
 <defs>
  <style type="text/css">*{stroke-linejoin: round; stroke-linecap: butt}</style>
 </defs>
 <g id="figure_1">
  <g id="patch_1">
   <path d="M 0 576 
L 1152 576 
L 1152 0 
L 0 0 
z
" style="fill: #ffffff"/>
  </g>
  <g id="axes_1">
   <g id="patch_2">
    <path d="M 86.42 490.552 
L 1141.2 490.552 
L 1141.2 10.8 
L 86.42 10.8 
z
" style="fill: #ffffff"/>
   </g>
   <g id="PolyCollection_1">
    <defs>
     <path id="m7ef1cc1fec" d="M 134.364545 -272.408095 
L 134.364545 -207.251194 
L 190.769893 -146.083112 
L 247.175241 -160.865355 
L 303.580588 -159.19974 
L 359.985936 -157.874954 
L 416.391283 -107.254909 
L 472.796631 -167.200475 
L 529.201979 -178.218299 
L 585.607326 -170.652123 
L 642.012674 -166.494608 
L 698.418021 -171.278687 
L 754.823369 -166.394902 
L 811.228717 -198.97653 
L 867.634064 -208.437431 
L 924.039412 -168.598453 
L 980.444759 -209.245562 
L 1036.850107 -168.025466 
L 1093.255455 -194.980682 
L 1093.255455 -245.005742 
L 1093.255455 -245.005742 
L 1036.850107 -240.23372 
L 980.444759 -240.872289 
L 924.039412 -241.070129 
L 867.634064 -291.584605 
L 811.228717 -274.940116 
L 754.823369 -252.579685 
L 698.418021 -231.083954 
L 642.012674 -231.514594 
L 585.607326 -260.030519 
L 529.201979 -240.2671 
L 472.796631 -284.892385 
L 416.391283 -208.991225 
L 359.985936 -225.12479 
L 303.580588 -221.067677 
L 247.175241 -218.632339 
L 190.769893 -215.227948 
L 134.364545 -272.408095 
z
" style="stroke: #1f77b4; stroke-opacity: 0.2"/>
    </defs>
    <g clip-path="url(#p8cd02af183)">
     <use xlink:href="#m7ef1cc1fec" x="0" y="576" style="fill: #1f77b4; fill-opacity: 0.2; stroke: #1f77b4; stroke-opacity: 0.2"/>
    </g>
   </g>
   <g id="PolyCollection_2">
    <defs>
     <path id="m7850589d73" d="M 134.364545 -360.725647 
L 134.364545 -290.018154 
L 190.769893 -275.677141 
L 247.175241 -284.3283 
L 303.580588 -300.714934 
L 359.985936 -292.996601 
L 416.391283 -251.660615 
L 472.796631 -262.938035 
L 529.201979 -284.125929 
L 585.607326 -268.152172 
L 642.012674 -251.076401 
L 698.418021 -278.649933 
L 754.823369 -285.117287 
L 811.228717 -348.687396 
L 867.634064 -309.350055 
L 924.039412 -311.760464 
L 980.444759 -301.612188 
L 1036.850107 -265.228788 
L 1093.255455 -305.524149 
L 1093.255455 -375.303709 
L 1093.255455 -375.303709 
L 1036.850107 -323.77934 
L 980.444759 -343.241888 
L 924.039412 -374.110052 
L 867.634064 -361.149023 
L 811.228717 -424.92531 
L 754.823369 -355.762678 
L 698.418021 -318.014954 
L 642.012674 -362.013751 
L 585.607326 -363.784039 
L 529.201979 -339.40607 
L 472.796631 -380.818194 
L 416.391283 -365.686423 
L 359.985936 -349.671831 
L 303.580588 -322.025404 
L 247.175241 -357.116335 
L 190.769893 -339.613567 
L 134.364545 -360.725647 
z
" style="stroke: #ff7f0e; stroke-opacity: 0.2"/>
    </defs>
    <g clip-path="url(#p8cd02af183)">
     <use xlink:href="#m7850589d73" x="0" y="576" style="fill: #ff7f0e; fill-opacity: 0.2; stroke: #ff7f0e; stroke-opacity: 0.2"/>
    </g>
   </g>
   <g id="PolyCollection_3">
    <defs>
     <path id="me24d289979" d="M 134.364545 -315.474135 
L 134.364545 -268.526303 
L 190.769893 -218.661312 
L 247.175241 -252.551414 
L 303.580588 -247.558998 
L 359.985936 -211.628243 
L 416.391283 -191.215954 
L 472.796631 -237.734123 
L 529.201979 -215.64897 
L 585.607326 -252.772728 
L 642.012674 -271.559912 
L 698.418021 -233.238456 
L 754.823369 -209.356592 
L 811.228717 -230.636626 
L 867.634064 -293.184456 
L 924.039412 -248.553326 
L 980.444759 -262.321865 
L 1036.850107 -249.695449 
L 1093.255455 -206.498563 
L 1093.255455 -325.301258 
L 1093.255455 -325.301258 
L 1036.850107 -306.57224 
L 980.444759 -334.179069 
L 924.039412 -401.469747 
L 867.634064 -342.839478 
L 811.228717 -332.069188 
L 754.823369 -274.776675 
L 698.418021 -265.298654 
L 642.012674 -319.327293 
L 585.607326 -331.661581 
L 529.201979 -288.592033 
L 472.796631 -321.625541 
L 416.391283 -300.445745 
L 359.985936 -313.750693 
L 303.580588 -298.198226 
L 247.175241 -362.227358 
L 190.769893 -313.647738 
L 134.364545 -315.474135 
z
" style="stroke: #2ca02c; stroke-opacity: 0.2"/>
    </defs>
    <g clip-path="url(#p8cd02af183)">
     <use xlink:href="#me24d289979" x="0" y="576" style="fill: #2ca02c; fill-opacity: 0.2; stroke: #2ca02c; stroke-opacity: 0.2"/>
    </g>
   </g>
   <g id="PolyCollection_4">
    <defs>
     <path id="m6d00196ca0" d="M 134.364545 -489.42405 
L 134.364545 -420.182242 
L 190.769893 -392.268249 
L 247.175241 -391.198925 
L 303.580588 -392.040639 
L 359.985936 -382.146867 
L 416.391283 -385.766905 
L 472.796631 -408.588578 
L 529.201979 -417.214237 
L 585.607326 -409.803319 
L 642.012674 -394.999256 
L 698.418021 -400.933065 
L 754.823369 -403.962668 
L 811.228717 -409.744332 
L 867.634064 -420.750675 
L 924.039412 -390.609331 
L 980.444759 -378.274089 
L 1036.850107 -407.8682 
L 1093.255455 -419.640404 
L 1093.255455 -520.083912 
L 1093.255455 -520.083912 
L 1036.850107 -493.450674 
L 980.444759 -441.699543 
L 924.039412 -523.813545 
L 867.634064 -490.826923 
L 811.228717 -476.247539 
L 754.823369 -500.732248 
L 698.418021 -450.23637 
L 642.012674 -501.025509 
L 585.607326 -499.216076 
L 529.201979 -485.189219 
L 472.796631 -543.393091 
L 416.391283 -522.763294 
L 359.985936 -468.024682 
L 303.580588 -425.777482 
L 247.175241 -458.603181 
L 190.769893 -443.591582 
L 134.364545 -489.42405 
z
" style="stroke: #d62728; stroke-opacity: 0.2"/>
    </defs>
    <g clip-path="url(#p8cd02af183)">
     <use xlink:href="#m6d00196ca0" x="0" y="576" style="fill: #d62728; fill-opacity: 0.2; stroke: #d62728; stroke-opacity: 0.2"/>
    </g>
   </g>
   <g id="PolyCollection_5">
    <defs>
     <path id="mf968f8f89b" d="M 134.364545 -327.146891 
L 134.364545 -262.064528 
L 190.769893 -286.945945 
L 247.175241 -255.916428 
L 303.580588 -260.535103 
L 359.985936 -277.88816 
L 416.391283 -245.493474 
L 472.796631 -260.256065 
L 529.201979 -233.333549 
L 585.607326 -245.683491 
L 642.012674 -281.206061 
L 698.418021 -283.672032 
L 754.823369 -258.251464 
L 811.228717 -291.781886 
L 867.634064 -271.271802 
L 924.039412 -258.702161 
L 980.444759 -262.577292 
L 1036.850107 -272.212813 
L 1093.255455 -291.754651 
L 1093.255455 -349.865676 
L 1093.255455 -349.865676 
L 1036.850107 -358.57565 
L 980.444759 -309.727403 
L 924.039412 -350.923333 
L 867.634064 -341.177041 
L 811.228717 -366.086651 
L 754.823369 -309.538079 
L 698.418021 -343.15165 
L 642.012674 -341.067866 
L 585.607326 -300.979296 
L 529.201979 -324.180556 
L 472.796631 -379.122057 
L 416.391283 -338.733553 
L 359.985936 -338.830043 
L 303.580588 -359.775541 
L 247.175241 -315.464138 
L 190.769893 -334.943823 
L 134.364545 -327.146891 
z
" style="stroke: #9467bd; stroke-opacity: 0.2"/>
    </defs>
    <g clip-path="url(#p8cd02af183)">
     <use xlink:href="#mf968f8f89b" x="0" y="576" style="fill: #9467bd; fill-opacity: 0.2; stroke: #9467bd; stroke-opacity: 0.2"/>
    </g>
   </g>
   <g id="PolyCollection_6">
    <defs>
     <path id="m1b17d1eaca" d="M 134.364545 -275.125769 
L 134.364545 -199.15805 
L 190.769893 -180.359261 
L 247.175241 -154.081231 
L 303.580588 -168.398034 
L 359.985936 -157.343904 
L 416.391283 -138.236562 
L 472.796631 -160.411259 
L 529.201979 -147.878388 
L 585.607326 -184.569914 
L 642.012674 -174.126413 
L 698.418021 -155.372872 
L 754.823369 -157.872262 
L 811.228717 -179.370701 
L 867.634064 -185.685512 
L 924.039412 -166.80194 
L 980.444759 -169.182725 
L 1036.850107 -168.185596 
L 1093.255455 -171.058704 
L 1093.255455 -248.000938 
L 1093.255455 -248.000938 
L 1036.850107 -230.611699 
L 980.444759 -199.301981 
L 924.039412 -219.315995 
L 867.634064 -233.161696 
L 811.228717 -234.613953 
L 754.823369 -218.363317 
L 698.418021 -271.504158 
L 642.012674 -258.33175 
L 585.607326 -274.587818 
L 529.201979 -240.913901 
L 472.796631 -272.945084 
L 416.391283 -245.529903 
L 359.985936 -187.930873 
L 303.580588 -266.726442 
L 247.175241 -240.357524 
L 190.769893 -235.225499 
L 134.364545 -275.125769 
z
" style="stroke: #8c564b; stroke-opacity: 0.2"/>
    </defs>
    <g clip-path="url(#p8cd02af183)">
     <use xlink:href="#m1b17d1eaca" x="0" y="576" style="fill: #8c564b; fill-opacity: 0.2; stroke: #8c564b; stroke-opacity: 0.2"/>
    </g>
   </g>
   <g id="PolyCollection_7">
    <defs>
     <path id="mcf66ea2e32" d="M 134.364545 -319.834117 
L 134.364545 -239.788245 
L 190.769893 -191.881222 
L 247.175241 -221.78575 
L 303.580588 -159.442321 
L 359.985936 -160.898195 
L 416.391283 -183.850165 
L 472.796631 -179.909074 
L 529.201979 -184.350611 
L 585.607326 -219.418024 
L 642.012674 -209.119161 
L 698.418021 -232.818313 
L 754.823369 -168.553839 
L 811.228717 -219.344931 
L 867.634064 -192.989097 
L 924.039412 -200.298789 
L 980.444759 -198.113818 
L 1036.850107 -171.338677 
L 1093.255455 -166.076547 
L 1093.255455 -263.135093 
L 1093.255455 -263.135093 
L 1036.850107 -284.852152 
L 980.444759 -256.224899 
L 924.039412 -251.353943 
L 867.634064 -272.635314 
L 811.228717 -274.657025 
L 754.823369 -239.662215 
L 698.418021 -306.227578 
L 642.012674 -279.322057 
L 585.607326 -297.966422 
L 529.201979 -271.910395 
L 472.796631 -277.981197 
L 416.391283 -257.962499 
L 359.985936 -223.639267 
L 303.580588 -260.682841 
L 247.175241 -267.076202 
L 190.769893 -247.776808 
L 134.364545 -319.834117 
z
" style="stroke: #e377c2; stroke-opacity: 0.2"/>
    </defs>
    <g clip-path="url(#p8cd02af183)">
     <use xlink:href="#mcf66ea2e32" x="0" y="576" style="fill: #e377c2; fill-opacity: 0.2; stroke: #e377c2; stroke-opacity: 0.2"/>
    </g>
   </g>
   <g id="PolyCollection_8">
    <defs>
     <path id="m2df607573a" d="M 134.364545 -493.02749 
L 134.364545 -413.501914 
L 190.769893 -400.506786 
L 247.175241 -372.505481 
L 303.580588 -373.843078 
L 359.985936 -387.333684 
L 416.391283 -387.581779 
L 472.796631 -396.285346 
L 529.201979 -382.408192 
L 585.607326 -400.68414 
L 642.012674 -377.587368 
L 698.418021 -418.226763 
L 754.823369 -410.229844 
L 811.228717 -406.609034 
L 867.634064 -411.892298 
L 924.039412 -381.29432 
L 980.444759 -397.472479 
L 1036.850107 -394.990762 
L 1093.255455 -398.034291 
L 1093.255455 -487.658588 
L 1093.255455 -487.658588 
L 1036.850107 -511.706228 
L 980.444759 -482.293227 
L 924.039412 -437.104491 
L 867.634064 -479.398425 
L 811.228717 -491.653128 
L 754.823369 -467.363837 
L 698.418021 -512.819839 
L 642.012674 -475.432648 
L 585.607326 -445.566986 
L 529.201979 -509.816232 
L 472.796631 -484.416679 
L 416.391283 -435.205715 
L 359.985936 -498.63533 
L 303.580588 -505.27765 
L 247.175241 -484.552215 
L 190.769893 -472.423296 
L 134.364545 -493.02749 
z
" style="stroke: #7f7f7f; stroke-opacity: 0.2"/>
    </defs>
    <g clip-path="url(#p8cd02af183)">
     <use xlink:href="#m2df607573a" x="0" y="576" style="fill: #7f7f7f; fill-opacity: 0.2; stroke: #7f7f7f; stroke-opacity: 0.2"/>
    </g>
   </g>
   <g id="matplotlib.axis_1">
    <g id="xtick_1">
     <g id="line2d_1">
      <defs>
       <path id="m418e641206" d="M 0 0 
L 0 3.5 
" style="stroke: #000000; stroke-width: 0.8"/>
      </defs>
      <g>
       <use xlink:href="#m418e641206" x="106.161872" y="490.552" style="stroke: #000000; stroke-width: 0.8"/>
      </g>
     </g>
     <g id="text_1">
      <!-- 0 -->
      <g transform="translate(99.799372 512.748875) scale(0.2 -0.2)">
       <defs>
        <path id="DejaVuSans-30" d="M 2034 4250 
Q 1547 4250 1301 3770 
Q 1056 3291 1056 2328 
Q 1056 1369 1301 889 
Q 1547 409 2034 409 
Q 2525 409 2770 889 
Q 3016 1369 3016 2328 
Q 3016 3291 2770 3770 
Q 2525 4250 2034 4250 
z
M 2034 4750 
Q 2819 4750 3233 4129 
Q 3647 3509 3647 2328 
Q 3647 1150 3233 529 
Q 2819 -91 2034 -91 
Q 1250 -91 836 529 
Q 422 1150 422 2328 
Q 422 3509 836 4129 
Q 1250 4750 2034 4750 
z
" transform="scale(0.015625)"/>
       </defs>
       <use xlink:href="#DejaVuSans-30"/>
      </g>
     </g>
    </g>
    <g id="xtick_2">
     <g id="line2d_2">
      <g>
       <use xlink:href="#m418e641206" x="247.175241" y="490.552" style="stroke: #000000; stroke-width: 0.8"/>
      </g>
     </g>
     <g id="text_2">
      <!-- 5 -->
      <g transform="translate(240.812741 512.748875) scale(0.2 -0.2)">
       <defs>
        <path id="DejaVuSans-35" d="M 691 4666 
L 3169 4666 
L 3169 4134 
L 1269 4134 
L 1269 2991 
Q 1406 3038 1543 3061 
Q 1681 3084 1819 3084 
Q 2600 3084 3056 2656 
Q 3513 2228 3513 1497 
Q 3513 744 3044 326 
Q 2575 -91 1722 -91 
Q 1428 -91 1123 -41 
Q 819 9 494 109 
L 494 744 
Q 775 591 1075 516 
Q 1375 441 1709 441 
Q 2250 441 2565 725 
Q 2881 1009 2881 1497 
Q 2881 1984 2565 2268 
Q 2250 2553 1709 2553 
Q 1456 2553 1204 2497 
Q 953 2441 691 2322 
L 691 4666 
z
" transform="scale(0.015625)"/>
       </defs>
       <use xlink:href="#DejaVuSans-35"/>
      </g>
     </g>
    </g>
    <g id="xtick_3">
     <g id="line2d_3">
      <g>
       <use xlink:href="#m418e641206" x="388.18861" y="490.552" style="stroke: #000000; stroke-width: 0.8"/>
      </g>
     </g>
     <g id="text_3">
      <!-- 10 -->
      <g transform="translate(375.46361 512.748875) scale(0.2 -0.2)">
       <defs>
        <path id="DejaVuSans-31" d="M 794 531 
L 1825 531 
L 1825 4091 
L 703 3866 
L 703 4441 
L 1819 4666 
L 2450 4666 
L 2450 531 
L 3481 531 
L 3481 0 
L 794 0 
L 794 531 
z
" transform="scale(0.015625)"/>
       </defs>
       <use xlink:href="#DejaVuSans-31"/>
       <use xlink:href="#DejaVuSans-30" x="63.623047"/>
      </g>
     </g>
    </g>
    <g id="xtick_4">
     <g id="line2d_4">
      <g>
       <use xlink:href="#m418e641206" x="529.201979" y="490.552" style="stroke: #000000; stroke-width: 0.8"/>
      </g>
     </g>
     <g id="text_4">
      <!-- 15 -->
      <g transform="translate(516.476979 512.748875) scale(0.2 -0.2)">
       <use xlink:href="#DejaVuSans-31"/>
       <use xlink:href="#DejaVuSans-35" x="63.623047"/>
      </g>
     </g>
    </g>
    <g id="xtick_5">
     <g id="line2d_5">
      <g>
       <use xlink:href="#m418e641206" x="670.215348" y="490.552" style="stroke: #000000; stroke-width: 0.8"/>
      </g>
     </g>
     <g id="text_5">
      <!-- 20 -->
      <g transform="translate(657.490348 512.748875) scale(0.2 -0.2)">
       <defs>
        <path id="DejaVuSans-32" d="M 1228 531 
L 3431 531 
L 3431 0 
L 469 0 
L 469 531 
Q 828 903 1448 1529 
Q 2069 2156 2228 2338 
Q 2531 2678 2651 2914 
Q 2772 3150 2772 3378 
Q 2772 3750 2511 3984 
Q 2250 4219 1831 4219 
Q 1534 4219 1204 4116 
Q 875 4013 500 3803 
L 500 4441 
Q 881 4594 1212 4672 
Q 1544 4750 1819 4750 
Q 2544 4750 2975 4387 
Q 3406 4025 3406 3419 
Q 3406 3131 3298 2873 
Q 3191 2616 2906 2266 
Q 2828 2175 2409 1742 
Q 1991 1309 1228 531 
z
" transform="scale(0.015625)"/>
       </defs>
       <use xlink:href="#DejaVuSans-32"/>
       <use xlink:href="#DejaVuSans-30" x="63.623047"/>
      </g>
     </g>
    </g>
    <g id="xtick_6">
     <g id="line2d_6">
      <g>
       <use xlink:href="#m418e641206" x="811.228717" y="490.552" style="stroke: #000000; stroke-width: 0.8"/>
      </g>
     </g>
     <g id="text_6">
      <!-- 25 -->
      <g transform="translate(798.503717 512.748875) scale(0.2 -0.2)">
       <use xlink:href="#DejaVuSans-32"/>
       <use xlink:href="#DejaVuSans-35" x="63.623047"/>
      </g>
     </g>
    </g>
    <g id="xtick_7">
     <g id="line2d_7">
      <g>
       <use xlink:href="#m418e641206" x="952.242086" y="490.552" style="stroke: #000000; stroke-width: 0.8"/>
      </g>
     </g>
     <g id="text_7">
      <!-- 30 -->
      <g transform="translate(939.517086 512.748875) scale(0.2 -0.2)">
       <defs>
        <path id="DejaVuSans-33" d="M 2597 2516 
Q 3050 2419 3304 2112 
Q 3559 1806 3559 1356 
Q 3559 666 3084 287 
Q 2609 -91 1734 -91 
Q 1441 -91 1130 -33 
Q 819 25 488 141 
L 488 750 
Q 750 597 1062 519 
Q 1375 441 1716 441 
Q 2309 441 2620 675 
Q 2931 909 2931 1356 
Q 2931 1769 2642 2001 
Q 2353 2234 1838 2234 
L 1294 2234 
L 1294 2753 
L 1863 2753 
Q 2328 2753 2575 2939 
Q 2822 3125 2822 3475 
Q 2822 3834 2567 4026 
Q 2313 4219 1838 4219 
Q 1578 4219 1281 4162 
Q 984 4106 628 3988 
L 628 4550 
Q 988 4650 1302 4700 
Q 1616 4750 1894 4750 
Q 2613 4750 3031 4423 
Q 3450 4097 3450 3541 
Q 3450 3153 3228 2886 
Q 3006 2619 2597 2516 
z
" transform="scale(0.015625)"/>
       </defs>
       <use xlink:href="#DejaVuSans-33"/>
       <use xlink:href="#DejaVuSans-30" x="63.623047"/>
      </g>
     </g>
    </g>
    <g id="xtick_8">
     <g id="line2d_8">
      <g>
       <use xlink:href="#m418e641206" x="1093.255455" y="490.552" style="stroke: #000000; stroke-width: 0.8"/>
      </g>
     </g>
     <g id="text_8">
      <!-- 35 -->
      <g transform="translate(1080.530455 512.748875) scale(0.2 -0.2)">
       <use xlink:href="#DejaVuSans-33"/>
       <use xlink:href="#DejaVuSans-35" x="63.623047"/>
      </g>
     </g>
    </g>
    <g id="text_9">
     <!-- Percentile Threshold -->
     <g transform="translate(512.030312 536.105125) scale(0.2 -0.2)">
      <defs>
       <path id="DejaVuSans-50" d="M 1259 4147 
L 1259 2394 
L 2053 2394 
Q 2494 2394 2734 2622 
Q 2975 2850 2975 3272 
Q 2975 3691 2734 3919 
Q 2494 4147 2053 4147 
L 1259 4147 
z
M 628 4666 
L 2053 4666 
Q 2838 4666 3239 4311 
Q 3641 3956 3641 3272 
Q 3641 2581 3239 2228 
Q 2838 1875 2053 1875 
L 1259 1875 
L 1259 0 
L 628 0 
L 628 4666 
z
" transform="scale(0.015625)"/>
       <path id="DejaVuSans-65" d="M 3597 1894 
L 3597 1613 
L 953 1613 
Q 991 1019 1311 708 
Q 1631 397 2203 397 
Q 2534 397 2845 478 
Q 3156 559 3463 722 
L 3463 178 
Q 3153 47 2828 -22 
Q 2503 -91 2169 -91 
Q 1331 -91 842 396 
Q 353 884 353 1716 
Q 353 2575 817 3079 
Q 1281 3584 2069 3584 
Q 2775 3584 3186 3129 
Q 3597 2675 3597 1894 
z
M 3022 2063 
Q 3016 2534 2758 2815 
Q 2500 3097 2075 3097 
Q 1594 3097 1305 2825 
Q 1016 2553 972 2059 
L 3022 2063 
z
" transform="scale(0.015625)"/>
       <path id="DejaVuSans-72" d="M 2631 2963 
Q 2534 3019 2420 3045 
Q 2306 3072 2169 3072 
Q 1681 3072 1420 2755 
Q 1159 2438 1159 1844 
L 1159 0 
L 581 0 
L 581 3500 
L 1159 3500 
L 1159 2956 
Q 1341 3275 1631 3429 
Q 1922 3584 2338 3584 
Q 2397 3584 2469 3576 
Q 2541 3569 2628 3553 
L 2631 2963 
z
" transform="scale(0.015625)"/>
       <path id="DejaVuSans-63" d="M 3122 3366 
L 3122 2828 
Q 2878 2963 2633 3030 
Q 2388 3097 2138 3097 
Q 1578 3097 1268 2742 
Q 959 2388 959 1747 
Q 959 1106 1268 751 
Q 1578 397 2138 397 
Q 2388 397 2633 464 
Q 2878 531 3122 666 
L 3122 134 
Q 2881 22 2623 -34 
Q 2366 -91 2075 -91 
Q 1284 -91 818 406 
Q 353 903 353 1747 
Q 353 2603 823 3093 
Q 1294 3584 2113 3584 
Q 2378 3584 2631 3529 
Q 2884 3475 3122 3366 
z
" transform="scale(0.015625)"/>
       <path id="DejaVuSans-6e" d="M 3513 2113 
L 3513 0 
L 2938 0 
L 2938 2094 
Q 2938 2591 2744 2837 
Q 2550 3084 2163 3084 
Q 1697 3084 1428 2787 
Q 1159 2491 1159 1978 
L 1159 0 
L 581 0 
L 581 3500 
L 1159 3500 
L 1159 2956 
Q 1366 3272 1645 3428 
Q 1925 3584 2291 3584 
Q 2894 3584 3203 3211 
Q 3513 2838 3513 2113 
z
" transform="scale(0.015625)"/>
       <path id="DejaVuSans-74" d="M 1172 4494 
L 1172 3500 
L 2356 3500 
L 2356 3053 
L 1172 3053 
L 1172 1153 
Q 1172 725 1289 603 
Q 1406 481 1766 481 
L 2356 481 
L 2356 0 
L 1766 0 
Q 1100 0 847 248 
Q 594 497 594 1153 
L 594 3053 
L 172 3053 
L 172 3500 
L 594 3500 
L 594 4494 
L 1172 4494 
z
" transform="scale(0.015625)"/>
       <path id="DejaVuSans-69" d="M 603 3500 
L 1178 3500 
L 1178 0 
L 603 0 
L 603 3500 
z
M 603 4863 
L 1178 4863 
L 1178 4134 
L 603 4134 
L 603 4863 
z
" transform="scale(0.015625)"/>
       <path id="DejaVuSans-6c" d="M 603 4863 
L 1178 4863 
L 1178 0 
L 603 0 
L 603 4863 
z
" transform="scale(0.015625)"/>
       <path id="DejaVuSans-20" transform="scale(0.015625)"/>
       <path id="DejaVuSans-54" d="M -19 4666 
L 3928 4666 
L 3928 4134 
L 2272 4134 
L 2272 0 
L 1638 0 
L 1638 4134 
L -19 4134 
L -19 4666 
z
" transform="scale(0.015625)"/>
       <path id="DejaVuSans-68" d="M 3513 2113 
L 3513 0 
L 2938 0 
L 2938 2094 
Q 2938 2591 2744 2837 
Q 2550 3084 2163 3084 
Q 1697 3084 1428 2787 
Q 1159 2491 1159 1978 
L 1159 0 
L 581 0 
L 581 4863 
L 1159 4863 
L 1159 2956 
Q 1366 3272 1645 3428 
Q 1925 3584 2291 3584 
Q 2894 3584 3203 3211 
Q 3513 2838 3513 2113 
z
" transform="scale(0.015625)"/>
       <path id="DejaVuSans-73" d="M 2834 3397 
L 2834 2853 
Q 2591 2978 2328 3040 
Q 2066 3103 1784 3103 
Q 1356 3103 1142 2972 
Q 928 2841 928 2578 
Q 928 2378 1081 2264 
Q 1234 2150 1697 2047 
L 1894 2003 
Q 2506 1872 2764 1633 
Q 3022 1394 3022 966 
Q 3022 478 2636 193 
Q 2250 -91 1575 -91 
Q 1294 -91 989 -36 
Q 684 19 347 128 
L 347 722 
Q 666 556 975 473 
Q 1284 391 1588 391 
Q 1994 391 2212 530 
Q 2431 669 2431 922 
Q 2431 1156 2273 1281 
Q 2116 1406 1581 1522 
L 1381 1569 
Q 847 1681 609 1914 
Q 372 2147 372 2553 
Q 372 3047 722 3315 
Q 1072 3584 1716 3584 
Q 2034 3584 2315 3537 
Q 2597 3491 2834 3397 
z
" transform="scale(0.015625)"/>
       <path id="DejaVuSans-6f" d="M 1959 3097 
Q 1497 3097 1228 2736 
Q 959 2375 959 1747 
Q 959 1119 1226 758 
Q 1494 397 1959 397 
Q 2419 397 2687 759 
Q 2956 1122 2956 1747 
Q 2956 2369 2687 2733 
Q 2419 3097 1959 3097 
z
M 1959 3584 
Q 2709 3584 3137 3096 
Q 3566 2609 3566 1747 
Q 3566 888 3137 398 
Q 2709 -91 1959 -91 
Q 1206 -91 779 398 
Q 353 888 353 1747 
Q 353 2609 779 3096 
Q 1206 3584 1959 3584 
z
" transform="scale(0.015625)"/>
       <path id="DejaVuSans-64" d="M 2906 2969 
L 2906 4863 
L 3481 4863 
L 3481 0 
L 2906 0 
L 2906 525 
Q 2725 213 2448 61 
Q 2172 -91 1784 -91 
Q 1150 -91 751 415 
Q 353 922 353 1747 
Q 353 2572 751 3078 
Q 1150 3584 1784 3584 
Q 2172 3584 2448 3432 
Q 2725 3281 2906 2969 
z
M 947 1747 
Q 947 1113 1208 752 
Q 1469 391 1925 391 
Q 2381 391 2643 752 
Q 2906 1113 2906 1747 
Q 2906 2381 2643 2742 
Q 2381 3103 1925 3103 
Q 1469 3103 1208 2742 
Q 947 2381 947 1747 
z
" transform="scale(0.015625)"/>
      </defs>
      <use xlink:href="#DejaVuSans-50"/>
      <use xlink:href="#DejaVuSans-65" x="56.677734"/>
      <use xlink:href="#DejaVuSans-72" x="118.201172"/>
      <use xlink:href="#DejaVuSans-63" x="157.064453"/>
      <use xlink:href="#DejaVuSans-65" x="212.044922"/>
      <use xlink:href="#DejaVuSans-6e" x="273.568359"/>
      <use xlink:href="#DejaVuSans-74" x="336.947266"/>
      <use xlink:href="#DejaVuSans-69" x="376.15625"/>
      <use xlink:href="#DejaVuSans-6c" x="403.939453"/>
      <use xlink:href="#DejaVuSans-65" x="431.722656"/>
      <use xlink:href="#DejaVuSans-20" x="493.246094"/>
      <use xlink:href="#DejaVuSans-54" x="525.033203"/>
      <use xlink:href="#DejaVuSans-68" x="586.117188"/>
      <use xlink:href="#DejaVuSans-72" x="649.496094"/>
      <use xlink:href="#DejaVuSans-65" x="688.359375"/>
      <use xlink:href="#DejaVuSans-73" x="749.882812"/>
      <use xlink:href="#DejaVuSans-68" x="801.982422"/>
      <use xlink:href="#DejaVuSans-6f" x="865.361328"/>
      <use xlink:href="#DejaVuSans-6c" x="926.542969"/>
      <use xlink:href="#DejaVuSans-64" x="954.326172"/>
     </g>
     <!-- (Using "random" Threshold Handling) -->
     <g transform="translate(426.642812 558.50075) scale(0.2 -0.2)">
      <defs>
       <path id="DejaVuSans-28" d="M 1984 4856 
Q 1566 4138 1362 3434 
Q 1159 2731 1159 2009 
Q 1159 1288 1364 580 
Q 1569 -128 1984 -844 
L 1484 -844 
Q 1016 -109 783 600 
Q 550 1309 550 2009 
Q 550 2706 781 3412 
Q 1013 4119 1484 4856 
L 1984 4856 
z
" transform="scale(0.015625)"/>
       <path id="DejaVuSans-55" d="M 556 4666 
L 1191 4666 
L 1191 1831 
Q 1191 1081 1462 751 
Q 1734 422 2344 422 
Q 2950 422 3222 751 
Q 3494 1081 3494 1831 
L 3494 4666 
L 4128 4666 
L 4128 1753 
Q 4128 841 3676 375 
Q 3225 -91 2344 -91 
Q 1459 -91 1007 375 
Q 556 841 556 1753 
L 556 4666 
z
" transform="scale(0.015625)"/>
       <path id="DejaVuSans-67" d="M 2906 1791 
Q 2906 2416 2648 2759 
Q 2391 3103 1925 3103 
Q 1463 3103 1205 2759 
Q 947 2416 947 1791 
Q 947 1169 1205 825 
Q 1463 481 1925 481 
Q 2391 481 2648 825 
Q 2906 1169 2906 1791 
z
M 3481 434 
Q 3481 -459 3084 -895 
Q 2688 -1331 1869 -1331 
Q 1566 -1331 1297 -1286 
Q 1028 -1241 775 -1147 
L 775 -588 
Q 1028 -725 1275 -790 
Q 1522 -856 1778 -856 
Q 2344 -856 2625 -561 
Q 2906 -266 2906 331 
L 2906 616 
Q 2728 306 2450 153 
Q 2172 0 1784 0 
Q 1141 0 747 490 
Q 353 981 353 1791 
Q 353 2603 747 3093 
Q 1141 3584 1784 3584 
Q 2172 3584 2450 3431 
Q 2728 3278 2906 2969 
L 2906 3500 
L 3481 3500 
L 3481 434 
z
" transform="scale(0.015625)"/>
       <path id="DejaVuSans-22" d="M 1147 4666 
L 1147 2931 
L 616 2931 
L 616 4666 
L 1147 4666 
z
M 2328 4666 
L 2328 2931 
L 1797 2931 
L 1797 4666 
L 2328 4666 
z
" transform="scale(0.015625)"/>
       <path id="DejaVuSans-61" d="M 2194 1759 
Q 1497 1759 1228 1600 
Q 959 1441 959 1056 
Q 959 750 1161 570 
Q 1363 391 1709 391 
Q 2188 391 2477 730 
Q 2766 1069 2766 1631 
L 2766 1759 
L 2194 1759 
z
M 3341 1997 
L 3341 0 
L 2766 0 
L 2766 531 
Q 2569 213 2275 61 
Q 1981 -91 1556 -91 
Q 1019 -91 701 211 
Q 384 513 384 1019 
Q 384 1609 779 1909 
Q 1175 2209 1959 2209 
L 2766 2209 
L 2766 2266 
Q 2766 2663 2505 2880 
Q 2244 3097 1772 3097 
Q 1472 3097 1187 3025 
Q 903 2953 641 2809 
L 641 3341 
Q 956 3463 1253 3523 
Q 1550 3584 1831 3584 
Q 2591 3584 2966 3190 
Q 3341 2797 3341 1997 
z
" transform="scale(0.015625)"/>
       <path id="DejaVuSans-6d" d="M 3328 2828 
Q 3544 3216 3844 3400 
Q 4144 3584 4550 3584 
Q 5097 3584 5394 3201 
Q 5691 2819 5691 2113 
L 5691 0 
L 5113 0 
L 5113 2094 
Q 5113 2597 4934 2840 
Q 4756 3084 4391 3084 
Q 3944 3084 3684 2787 
Q 3425 2491 3425 1978 
L 3425 0 
L 2847 0 
L 2847 2094 
Q 2847 2600 2669 2842 
Q 2491 3084 2119 3084 
Q 1678 3084 1418 2786 
Q 1159 2488 1159 1978 
L 1159 0 
L 581 0 
L 581 3500 
L 1159 3500 
L 1159 2956 
Q 1356 3278 1631 3431 
Q 1906 3584 2284 3584 
Q 2666 3584 2933 3390 
Q 3200 3197 3328 2828 
z
" transform="scale(0.015625)"/>
       <path id="DejaVuSans-48" d="M 628 4666 
L 1259 4666 
L 1259 2753 
L 3553 2753 
L 3553 4666 
L 4184 4666 
L 4184 0 
L 3553 0 
L 3553 2222 
L 1259 2222 
L 1259 0 
L 628 0 
L 628 4666 
z
" transform="scale(0.015625)"/>
       <path id="DejaVuSans-29" d="M 513 4856 
L 1013 4856 
Q 1481 4119 1714 3412 
Q 1947 2706 1947 2009 
Q 1947 1309 1714 600 
Q 1481 -109 1013 -844 
L 513 -844 
Q 928 -128 1133 580 
Q 1338 1288 1338 2009 
Q 1338 2731 1133 3434 
Q 928 4138 513 4856 
z
" transform="scale(0.015625)"/>
      </defs>
      <use xlink:href="#DejaVuSans-28"/>
      <use xlink:href="#DejaVuSans-55" x="39.013672"/>
      <use xlink:href="#DejaVuSans-73" x="112.207031"/>
      <use xlink:href="#DejaVuSans-69" x="164.306641"/>
      <use xlink:href="#DejaVuSans-6e" x="192.089844"/>
      <use xlink:href="#DejaVuSans-67" x="255.46875"/>
      <use xlink:href="#DejaVuSans-20" x="318.945312"/>
      <use xlink:href="#DejaVuSans-22" x="350.732422"/>
      <use xlink:href="#DejaVuSans-72" x="396.728516"/>
      <use xlink:href="#DejaVuSans-61" x="437.841797"/>
      <use xlink:href="#DejaVuSans-6e" x="499.121094"/>
      <use xlink:href="#DejaVuSans-64" x="562.5"/>
      <use xlink:href="#DejaVuSans-6f" x="625.976562"/>
      <use xlink:href="#DejaVuSans-6d" x="687.158203"/>
      <use xlink:href="#DejaVuSans-22" x="784.570312"/>
      <use xlink:href="#DejaVuSans-20" x="830.566406"/>
      <use xlink:href="#DejaVuSans-54" x="862.353516"/>
      <use xlink:href="#DejaVuSans-68" x="923.4375"/>
      <use xlink:href="#DejaVuSans-72" x="986.816406"/>
      <use xlink:href="#DejaVuSans-65" x="1025.679688"/>
      <use xlink:href="#DejaVuSans-73" x="1087.203125"/>
      <use xlink:href="#DejaVuSans-68" x="1139.302734"/>
      <use xlink:href="#DejaVuSans-6f" x="1202.681641"/>
      <use xlink:href="#DejaVuSans-6c" x="1263.863281"/>
      <use xlink:href="#DejaVuSans-64" x="1291.646484"/>
      <use xlink:href="#DejaVuSans-20" x="1355.123047"/>
      <use xlink:href="#DejaVuSans-48" x="1386.910156"/>
      <use xlink:href="#DejaVuSans-61" x="1462.105469"/>
      <use xlink:href="#DejaVuSans-6e" x="1523.384766"/>
      <use xlink:href="#DejaVuSans-64" x="1586.763672"/>
      <use xlink:href="#DejaVuSans-6c" x="1650.240234"/>
      <use xlink:href="#DejaVuSans-69" x="1678.023438"/>
      <use xlink:href="#DejaVuSans-6e" x="1705.806641"/>
      <use xlink:href="#DejaVuSans-67" x="1769.185547"/>
      <use xlink:href="#DejaVuSans-29" x="1832.662109"/>
     </g>
    </g>
   </g>
   <g id="matplotlib.axis_2">
    <g id="ytick_1">
     <g id="line2d_9">
      <defs>
       <path id="m08fe616a93" d="M 0 0 
L -3.5 0 
" style="stroke: #000000; stroke-width: 0.8"/>
      </defs>
      <g>
       <use xlink:href="#m08fe616a93" x="86.42" y="446.303221" style="stroke: #000000; stroke-width: 0.8"/>
      </g>
     </g>
     <g id="text_10">
      <!-- 8.0 -->
      <g transform="translate(47.61375 453.901658) scale(0.2 -0.2)">
       <defs>
        <path id="DejaVuSans-38" d="M 2034 2216 
Q 1584 2216 1326 1975 
Q 1069 1734 1069 1313 
Q 1069 891 1326 650 
Q 1584 409 2034 409 
Q 2484 409 2743 651 
Q 3003 894 3003 1313 
Q 3003 1734 2745 1975 
Q 2488 2216 2034 2216 
z
M 1403 2484 
Q 997 2584 770 2862 
Q 544 3141 544 3541 
Q 544 4100 942 4425 
Q 1341 4750 2034 4750 
Q 2731 4750 3128 4425 
Q 3525 4100 3525 3541 
Q 3525 3141 3298 2862 
Q 3072 2584 2669 2484 
Q 3125 2378 3379 2068 
Q 3634 1759 3634 1313 
Q 3634 634 3220 271 
Q 2806 -91 2034 -91 
Q 1263 -91 848 271 
Q 434 634 434 1313 
Q 434 1759 690 2068 
Q 947 2378 1403 2484 
z
M 1172 3481 
Q 1172 3119 1398 2916 
Q 1625 2713 2034 2713 
Q 2441 2713 2670 2916 
Q 2900 3119 2900 3481 
Q 2900 3844 2670 4047 
Q 2441 4250 2034 4250 
Q 1625 4250 1398 4047 
Q 1172 3844 1172 3481 
z
" transform="scale(0.015625)"/>
        <path id="DejaVuSans-2e" d="M 684 794 
L 1344 794 
L 1344 0 
L 684 0 
L 684 794 
z
" transform="scale(0.015625)"/>
       </defs>
       <use xlink:href="#DejaVuSans-38"/>
       <use xlink:href="#DejaVuSans-2e" x="63.623047"/>
       <use xlink:href="#DejaVuSans-30" x="95.410156"/>
      </g>
     </g>
    </g>
    <g id="ytick_2">
     <g id="line2d_10">
      <g>
       <use xlink:href="#m08fe616a93" x="86.42" y="376.987161" style="stroke: #000000; stroke-width: 0.8"/>
      </g>
     </g>
     <g id="text_11">
      <!-- 8.5 -->
      <g transform="translate(47.61375 384.585599) scale(0.2 -0.2)">
       <use xlink:href="#DejaVuSans-38"/>
       <use xlink:href="#DejaVuSans-2e" x="63.623047"/>
       <use xlink:href="#DejaVuSans-35" x="95.410156"/>
      </g>
     </g>
    </g>
    <g id="ytick_3">
     <g id="line2d_11">
      <g>
       <use xlink:href="#m08fe616a93" x="86.42" y="307.671101" style="stroke: #000000; stroke-width: 0.8"/>
      </g>
     </g>
     <g id="text_12">
      <!-- 9.0 -->
      <g transform="translate(47.61375 315.269539) scale(0.2 -0.2)">
       <defs>
        <path id="DejaVuSans-39" d="M 703 97 
L 703 672 
Q 941 559 1184 500 
Q 1428 441 1663 441 
Q 2288 441 2617 861 
Q 2947 1281 2994 2138 
Q 2813 1869 2534 1725 
Q 2256 1581 1919 1581 
Q 1219 1581 811 2004 
Q 403 2428 403 3163 
Q 403 3881 828 4315 
Q 1253 4750 1959 4750 
Q 2769 4750 3195 4129 
Q 3622 3509 3622 2328 
Q 3622 1225 3098 567 
Q 2575 -91 1691 -91 
Q 1453 -91 1209 -44 
Q 966 3 703 97 
z
M 1959 2075 
Q 2384 2075 2632 2365 
Q 2881 2656 2881 3163 
Q 2881 3666 2632 3958 
Q 2384 4250 1959 4250 
Q 1534 4250 1286 3958 
Q 1038 3666 1038 3163 
Q 1038 2656 1286 2365 
Q 1534 2075 1959 2075 
z
" transform="scale(0.015625)"/>
       </defs>
       <use xlink:href="#DejaVuSans-39"/>
       <use xlink:href="#DejaVuSans-2e" x="63.623047"/>
       <use xlink:href="#DejaVuSans-30" x="95.410156"/>
      </g>
     </g>
    </g>
    <g id="ytick_4">
     <g id="line2d_12">
      <g>
       <use xlink:href="#m08fe616a93" x="86.42" y="238.355041" style="stroke: #000000; stroke-width: 0.8"/>
      </g>
     </g>
     <g id="text_13">
      <!-- 9.5 -->
      <g transform="translate(47.61375 245.953479) scale(0.2 -0.2)">
       <use xlink:href="#DejaVuSans-39"/>
       <use xlink:href="#DejaVuSans-2e" x="63.623047"/>
       <use xlink:href="#DejaVuSans-35" x="95.410156"/>
      </g>
     </g>
    </g>
    <g id="ytick_5">
     <g id="line2d_13">
      <g>
       <use xlink:href="#m08fe616a93" x="86.42" y="169.038981" style="stroke: #000000; stroke-width: 0.8"/>
      </g>
     </g>
     <g id="text_14">
      <!-- 10.0 -->
      <g transform="translate(34.88875 176.637419) scale(0.2 -0.2)">
       <use xlink:href="#DejaVuSans-31"/>
       <use xlink:href="#DejaVuSans-30" x="63.623047"/>
       <use xlink:href="#DejaVuSans-2e" x="127.246094"/>
       <use xlink:href="#DejaVuSans-30" x="159.033203"/>
      </g>
     </g>
    </g>
    <g id="ytick_6">
     <g id="line2d_14">
      <g>
       <use xlink:href="#m08fe616a93" x="86.42" y="99.722921" style="stroke: #000000; stroke-width: 0.8"/>
      </g>
     </g>
     <g id="text_15">
      <!-- 10.5 -->
      <g transform="translate(34.88875 107.321359) scale(0.2 -0.2)">
       <use xlink:href="#DejaVuSans-31"/>
       <use xlink:href="#DejaVuSans-30" x="63.623047"/>
       <use xlink:href="#DejaVuSans-2e" x="127.246094"/>
       <use xlink:href="#DejaVuSans-35" x="159.033203"/>
      </g>
     </g>
    </g>
    <g id="ytick_7">
     <g id="line2d_15">
      <g>
       <use xlink:href="#m08fe616a93" x="86.42" y="30.406861" style="stroke: #000000; stroke-width: 0.8"/>
      </g>
     </g>
     <g id="text_16">
      <!-- 11.0 -->
      <g transform="translate(34.88875 38.005299) scale(0.2 -0.2)">
       <use xlink:href="#DejaVuSans-31"/>
       <use xlink:href="#DejaVuSans-31" x="63.623047"/>
       <use xlink:href="#DejaVuSans-2e" x="127.246094"/>
       <use xlink:href="#DejaVuSans-30" x="159.033203"/>
      </g>
     </g>
    </g>
    <g id="text_17">
     <!-- RMSE -->
     <g transform="translate(26.729375 278.91975) rotate(-90) scale(0.2 -0.2)">
      <defs>
       <path id="DejaVuSans-52" d="M 2841 2188 
Q 3044 2119 3236 1894 
Q 3428 1669 3622 1275 
L 4263 0 
L 3584 0 
L 2988 1197 
Q 2756 1666 2539 1819 
Q 2322 1972 1947 1972 
L 1259 1972 
L 1259 0 
L 628 0 
L 628 4666 
L 2053 4666 
Q 2853 4666 3247 4331 
Q 3641 3997 3641 3322 
Q 3641 2881 3436 2590 
Q 3231 2300 2841 2188 
z
M 1259 4147 
L 1259 2491 
L 2053 2491 
Q 2509 2491 2742 2702 
Q 2975 2913 2975 3322 
Q 2975 3731 2742 3939 
Q 2509 4147 2053 4147 
L 1259 4147 
z
" transform="scale(0.015625)"/>
       <path id="DejaVuSans-4d" d="M 628 4666 
L 1569 4666 
L 2759 1491 
L 3956 4666 
L 4897 4666 
L 4897 0 
L 4281 0 
L 4281 4097 
L 3078 897 
L 2444 897 
L 1241 4097 
L 1241 0 
L 628 0 
L 628 4666 
z
" transform="scale(0.015625)"/>
       <path id="DejaVuSans-53" d="M 3425 4513 
L 3425 3897 
Q 3066 4069 2747 4153 
Q 2428 4238 2131 4238 
Q 1616 4238 1336 4038 
Q 1056 3838 1056 3469 
Q 1056 3159 1242 3001 
Q 1428 2844 1947 2747 
L 2328 2669 
Q 3034 2534 3370 2195 
Q 3706 1856 3706 1288 
Q 3706 609 3251 259 
Q 2797 -91 1919 -91 
Q 1588 -91 1214 -16 
Q 841 59 441 206 
L 441 856 
Q 825 641 1194 531 
Q 1563 422 1919 422 
Q 2459 422 2753 634 
Q 3047 847 3047 1241 
Q 3047 1584 2836 1778 
Q 2625 1972 2144 2069 
L 1759 2144 
Q 1053 2284 737 2584 
Q 422 2884 422 3419 
Q 422 4038 858 4394 
Q 1294 4750 2059 4750 
Q 2388 4750 2728 4690 
Q 3069 4631 3425 4513 
z
" transform="scale(0.015625)"/>
       <path id="DejaVuSans-45" d="M 628 4666 
L 3578 4666 
L 3578 4134 
L 1259 4134 
L 1259 2753 
L 3481 2753 
L 3481 2222 
L 1259 2222 
L 1259 531 
L 3634 531 
L 3634 0 
L 628 0 
L 628 4666 
z
" transform="scale(0.015625)"/>
      </defs>
      <use xlink:href="#DejaVuSans-52"/>
      <use xlink:href="#DejaVuSans-4d" x="69.482422"/>
      <use xlink:href="#DejaVuSans-53" x="155.761719"/>
      <use xlink:href="#DejaVuSans-45" x="219.238281"/>
     </g>
    </g>
   </g>
   <g id="line2d_16">
    <path d="M 134.364545 337.826626 
L 190.769893 391.375034 
L 247.175241 388.494402 
L 303.580588 385.961605 
L 359.985936 386.561056 
L 416.391283 417.203294 
L 472.796631 355.932281 
L 529.201979 370.606521 
L 585.607326 364.506295 
L 642.012674 378.338042 
L 698.418021 370.201925 
L 754.823369 366.887262 
L 811.228717 339.038194 
L 867.634064 326.774036 
L 924.039412 369.078437 
L 980.444759 350.781091 
L 1036.850107 365.944181 
L 1093.255455 358.120084 
" clip-path="url(#p8cd02af183)" style="fill: none; stroke: #1f77b4; stroke-width: 1.5; stroke-linecap: square"/>
   </g>
   <g id="line2d_17">
    <path d="M 134.364545 250.042053 
L 190.769893 268.316958 
L 247.175241 259.811129 
L 303.580588 264.506533 
L 359.985936 256.944727 
L 416.391283 270.372485 
L 472.796631 261.396238 
L 529.201979 264.781105 
L 585.607326 262.640008 
L 642.012674 271.23934 
L 698.418021 279.132192 
L 754.823369 257.513234 
L 811.228717 192.529662 
L 867.634064 239.938587 
L 924.039412 233.771617 
L 980.444759 252.418827 
L 1036.850107 278.879016 
L 1093.255455 236.059192 
" clip-path="url(#p8cd02af183)" style="fill: none; stroke: #ff7f0e; stroke-width: 1.5; stroke-linecap: square"/>
   </g>
   <g id="line2d_18">
    <path d="M 134.364545 281.746218 
L 190.769893 309.658883 
L 247.175241 275.137254 
L 303.580588 301.707871 
L 359.985936 313.197236 
L 416.391283 335.345812 
L 472.796631 297.05606 
L 529.201979 323.420197 
L 585.607326 280.417303 
L 642.012674 281.053864 
L 698.418021 327.769053 
L 754.823369 336.611842 
L 811.228717 289.419323 
L 867.634064 260.136234 
L 924.039412 252.975348 
L 980.444759 279.367655 
L 1036.850107 297.939771 
L 1093.255455 305.410346 
" clip-path="url(#p8cd02af183)" style="fill: none; stroke: #2ca02c; stroke-width: 1.5; stroke-linecap: square"/>
   </g>
   <g id="line2d_19">
    <path d="M 134.364545 120.170215 
L 190.769893 155.294341 
L 247.175241 147.606249 
L 303.580588 168.181241 
L 359.985936 152.276087 
L 416.391283 124.456554 
L 472.796631 113.809906 
L 529.201979 132.145193 
L 585.607326 122.894734 
L 642.012674 128.853327 
L 698.418021 149.982862 
L 754.823369 120.931469 
L 811.228717 130.557306 
L 867.634064 125.010118 
L 924.039412 126.847478 
L 980.444759 169.343755 
L 1036.850107 121.718352 
L 1093.255455 108.863399 
" clip-path="url(#p8cd02af183)" style="fill: none; stroke: #d62728; stroke-width: 1.5; stroke-linecap: square"/>
   </g>
   <g id="line2d_20">
    <path d="M 134.364545 283.929975 
L 190.769893 266.81958 
L 247.175241 292.840121 
L 303.580588 271.489085 
L 359.985936 266.985357 
L 416.391283 287.49306 
L 472.796631 269.835277 
L 529.201979 290.085125 
L 585.607326 303.608935 
L 642.012674 266.186756 
L 698.418021 265.69747 
L 754.823369 290.605694 
L 811.228717 251.144379 
L 867.634064 277.376618 
L 924.039412 271.932603 
L 980.444759 289.580907 
L 1036.850107 268.509378 
L 1093.255455 255.863505 
" clip-path="url(#p8cd02af183)" style="fill: none; stroke: #9467bd; stroke-width: 1.5; stroke-linecap: square"/>
   </g>
   <g id="line2d_21">
    <path d="M 134.364545 339.567086 
L 190.769893 367.576316 
L 247.175241 382.632622 
L 303.580588 363.518139 
L 359.985936 404.280004 
L 416.391283 385.584019 
L 472.796631 371.822128 
L 529.201979 383.947828 
L 585.607326 355.051964 
L 642.012674 360.047397 
L 698.418021 370.608539 
L 754.823369 390.812367 
L 811.228717 369.122765 
L 867.634064 366.51732 
L 924.039412 384.237383 
L 980.444759 391.746861 
L 1036.850107 376.601353 
L 1093.255455 367.491351 
" clip-path="url(#p8cd02af183)" style="fill: none; stroke: #8c564b; stroke-width: 1.5; stroke-linecap: square"/>
   </g>
   <g id="line2d_22">
    <path d="M 134.364545 300.27692 
L 190.769893 352.668868 
L 247.175241 333.982948 
L 303.580588 370.31163 
L 359.985936 385.37038 
L 416.391283 357.553975 
L 472.796631 351.633586 
L 529.201979 346.410485 
L 585.607326 322.000273 
L 642.012674 332.853872 
L 698.418021 308.142076 
L 754.823369 370.220323 
L 811.228717 324.654185 
L 867.634064 341.68892 
L 924.039412 350.149945 
L 980.444759 349.351866 
L 1036.850107 344.069789 
L 1093.255455 361.407881 
" clip-path="url(#p8cd02af183)" style="fill: none; stroke: #e377c2; stroke-width: 1.5; stroke-linecap: square"/>
   </g>
   <g id="line2d_23">
    <path d="M 134.364545 124.094951 
L 190.769893 139.952628 
L 247.175241 147.367717 
L 303.580588 139.631252 
L 359.985936 136.681569 
L 416.391283 165.813217 
L 472.796631 142.998332 
L 529.201979 124.456363 
L 585.607326 155.190512 
L 642.012674 150.594717 
L 698.418021 114.052673 
L 754.823369 136.53333 
L 811.228717 135.89282 
L 867.634064 132.403903 
L 924.039412 166.03472 
L 980.444759 138.032752 
L 1036.850107 125.96161 
L 1093.255455 134.272089 
" clip-path="url(#p8cd02af183)" style="fill: none; stroke: #7f7f7f; stroke-width: 1.5; stroke-linecap: square"/>
   </g>
   <g id="line2d_24"/>
   <g id="line2d_25"/>
   <g id="line2d_26"/>
   <g id="line2d_27"/>
   <g id="line2d_28"/>
   <g id="line2d_29"/>
   <g id="line2d_30"/>
   <g id="line2d_31"/>
   <g id="patch_3">
    <path d="M 86.42 490.552 
L 86.42 10.8 
" style="fill: none; stroke: #000000; stroke-width: 0.8; stroke-linejoin: miter; stroke-linecap: square"/>
   </g>
   <g id="patch_4">
    <path d="M 1141.2 490.552 
L 1141.2 10.8 
" style="fill: none; stroke: #000000; stroke-width: 0.8; stroke-linejoin: miter; stroke-linecap: square"/>
   </g>
   <g id="patch_5">
    <path d="M 86.42 490.552 
L 1141.2 490.552 
" style="fill: none; stroke: #000000; stroke-width: 0.8; stroke-linejoin: miter; stroke-linecap: square"/>
   </g>
   <g id="patch_6">
    <path d="M 86.42 10.8 
L 1141.2 10.8 
" style="fill: none; stroke: #000000; stroke-width: 0.8; stroke-linejoin: miter; stroke-linecap: square"/>
   </g>
   <g id="legend_1">
    <g id="patch_7">
     <path d="M 97.62 482.552 
L 293.8575 482.552 
Q 297.0575 482.552 297.0575 479.352 
L 297.0575 291.292 
Q 297.0575 288.092 293.8575 288.092 
L 97.62 288.092 
Q 94.42 288.092 94.42 291.292 
L 94.42 479.352 
Q 94.42 482.552 97.62 482.552 
z
" style="fill: #ffffff; opacity: 0.8; stroke: #cccccc; stroke-linejoin: miter"/>
    </g>
    <g id="line2d_32">
     <path d="M 100.82 301.0495 
L 116.82 301.0495 
L 132.82 301.0495 
" style="fill: none; stroke: #1f77b4; stroke-width: 1.5; stroke-linecap: square"/>
    </g>
    <g id="text_18">
     <!-- gbr -->
     <g transform="translate(145.62 306.6495) scale(0.16 -0.16)">
      <defs>
       <path id="DejaVuSans-62" d="M 3116 1747 
Q 3116 2381 2855 2742 
Q 2594 3103 2138 3103 
Q 1681 3103 1420 2742 
Q 1159 2381 1159 1747 
Q 1159 1113 1420 752 
Q 1681 391 2138 391 
Q 2594 391 2855 752 
Q 3116 1113 3116 1747 
z
M 1159 2969 
Q 1341 3281 1617 3432 
Q 1894 3584 2278 3584 
Q 2916 3584 3314 3078 
Q 3713 2572 3713 1747 
Q 3713 922 3314 415 
Q 2916 -91 2278 -91 
Q 1894 -91 1617 61 
Q 1341 213 1159 525 
L 1159 0 
L 581 0 
L 581 4863 
L 1159 4863 
L 1159 2969 
z
" transform="scale(0.015625)"/>
      </defs>
      <use xlink:href="#DejaVuSans-67"/>
      <use xlink:href="#DejaVuSans-62" x="63.476562"/>
      <use xlink:href="#DejaVuSans-72" x="126.953125"/>
     </g>
    </g>
    <g id="line2d_33">
     <path d="M 100.82 324.5345 
L 116.82 324.5345 
L 132.82 324.5345 
" style="fill: none; stroke: #ff7f0e; stroke-width: 1.5; stroke-linecap: square"/>
    </g>
    <g id="text_19">
     <!-- rf -->
     <g transform="translate(145.62 330.1345) scale(0.16 -0.16)">
      <defs>
       <path id="DejaVuSans-66" d="M 2375 4863 
L 2375 4384 
L 1825 4384 
Q 1516 4384 1395 4259 
Q 1275 4134 1275 3809 
L 1275 3500 
L 2222 3500 
L 2222 3053 
L 1275 3053 
L 1275 0 
L 697 0 
L 697 3053 
L 147 3053 
L 147 3500 
L 697 3500 
L 697 3744 
Q 697 4328 969 4595 
Q 1241 4863 1831 4863 
L 2375 4863 
z
" transform="scale(0.015625)"/>
      </defs>
      <use xlink:href="#DejaVuSans-72"/>
      <use xlink:href="#DejaVuSans-66" x="41.113281"/>
     </g>
    </g>
    <g id="line2d_34">
     <path d="M 100.82 348.0195 
L 116.82 348.0195 
L 132.82 348.0195 
" style="fill: none; stroke: #2ca02c; stroke-width: 1.5; stroke-linecap: square"/>
    </g>
    <g id="text_20">
     <!-- xgb -->
     <g transform="translate(145.62 353.6195) scale(0.16 -0.16)">
      <defs>
       <path id="DejaVuSans-78" d="M 3513 3500 
L 2247 1797 
L 3578 0 
L 2900 0 
L 1881 1375 
L 863 0 
L 184 0 
L 1544 1831 
L 300 3500 
L 978 3500 
L 1906 2253 
L 2834 3500 
L 3513 3500 
z
" transform="scale(0.015625)"/>
      </defs>
      <use xlink:href="#DejaVuSans-78"/>
      <use xlink:href="#DejaVuSans-67" x="59.179688"/>
      <use xlink:href="#DejaVuSans-62" x="122.65625"/>
     </g>
    </g>
    <g id="line2d_35">
     <path d="M 100.82 371.5045 
L 116.82 371.5045 
L 132.82 371.5045 
" style="fill: none; stroke: #d62728; stroke-width: 1.5; stroke-linecap: square"/>
    </g>
    <g id="text_21">
     <!-- BayesianRidge -->
     <g transform="translate(145.62 377.1045) scale(0.16 -0.16)">
      <defs>
       <path id="DejaVuSans-42" d="M 1259 2228 
L 1259 519 
L 2272 519 
Q 2781 519 3026 730 
Q 3272 941 3272 1375 
Q 3272 1813 3026 2020 
Q 2781 2228 2272 2228 
L 1259 2228 
z
M 1259 4147 
L 1259 2741 
L 2194 2741 
Q 2656 2741 2882 2914 
Q 3109 3088 3109 3444 
Q 3109 3797 2882 3972 
Q 2656 4147 2194 4147 
L 1259 4147 
z
M 628 4666 
L 2241 4666 
Q 2963 4666 3353 4366 
Q 3744 4066 3744 3513 
Q 3744 3084 3544 2831 
Q 3344 2578 2956 2516 
Q 3422 2416 3680 2098 
Q 3938 1781 3938 1306 
Q 3938 681 3513 340 
Q 3088 0 2303 0 
L 628 0 
L 628 4666 
z
" transform="scale(0.015625)"/>
       <path id="DejaVuSans-79" d="M 2059 -325 
Q 1816 -950 1584 -1140 
Q 1353 -1331 966 -1331 
L 506 -1331 
L 506 -850 
L 844 -850 
Q 1081 -850 1212 -737 
Q 1344 -625 1503 -206 
L 1606 56 
L 191 3500 
L 800 3500 
L 1894 763 
L 2988 3500 
L 3597 3500 
L 2059 -325 
z
" transform="scale(0.015625)"/>
      </defs>
      <use xlink:href="#DejaVuSans-42"/>
      <use xlink:href="#DejaVuSans-61" x="68.603516"/>
      <use xlink:href="#DejaVuSans-79" x="129.882812"/>
      <use xlink:href="#DejaVuSans-65" x="189.0625"/>
      <use xlink:href="#DejaVuSans-73" x="250.585938"/>
      <use xlink:href="#DejaVuSans-69" x="302.685547"/>
      <use xlink:href="#DejaVuSans-61" x="330.46875"/>
      <use xlink:href="#DejaVuSans-6e" x="391.748047"/>
      <use xlink:href="#DejaVuSans-52" x="455.126953"/>
      <use xlink:href="#DejaVuSans-69" x="524.609375"/>
      <use xlink:href="#DejaVuSans-64" x="552.392578"/>
      <use xlink:href="#DejaVuSans-67" x="615.869141"/>
      <use xlink:href="#DejaVuSans-65" x="679.345703"/>
     </g>
    </g>
    <g id="line2d_36">
     <path d="M 100.82 394.9895 
L 116.82 394.9895 
L 132.82 394.9895 
" style="fill: none; stroke: #9467bd; stroke-width: 1.5; stroke-linecap: square"/>
    </g>
    <g id="text_22">
     <!-- rf_gs -->
     <g transform="translate(145.62 400.5895) scale(0.16 -0.16)">
      <defs>
       <path id="DejaVuSans-5f" d="M 3263 -1063 
L 3263 -1509 
L -63 -1509 
L -63 -1063 
L 3263 -1063 
z
" transform="scale(0.015625)"/>
      </defs>
      <use xlink:href="#DejaVuSans-72"/>
      <use xlink:href="#DejaVuSans-66" x="41.113281"/>
      <use xlink:href="#DejaVuSans-5f" x="76.318359"/>
      <use xlink:href="#DejaVuSans-67" x="126.318359"/>
      <use xlink:href="#DejaVuSans-73" x="189.794922"/>
     </g>
    </g>
    <g id="line2d_37">
     <path d="M 100.82 418.9195 
L 116.82 418.9195 
L 132.82 418.9195 
" style="fill: none; stroke: #8c564b; stroke-width: 1.5; stroke-linecap: square"/>
    </g>
    <g id="text_23">
     <!-- xgb_gs -->
     <g transform="translate(145.62 424.5195) scale(0.16 -0.16)">
      <use xlink:href="#DejaVuSans-78"/>
      <use xlink:href="#DejaVuSans-67" x="59.179688"/>
      <use xlink:href="#DejaVuSans-62" x="122.65625"/>
      <use xlink:href="#DejaVuSans-5f" x="186.132812"/>
      <use xlink:href="#DejaVuSans-67" x="236.132812"/>
      <use xlink:href="#DejaVuSans-73" x="299.609375"/>
     </g>
    </g>
    <g id="line2d_38">
     <path d="M 100.82 442.8495 
L 116.82 442.8495 
L 132.82 442.8495 
" style="fill: none; stroke: #e377c2; stroke-width: 1.5; stroke-linecap: square"/>
    </g>
    <g id="text_24">
     <!-- gbr_gs -->
     <g transform="translate(145.62 448.4495) scale(0.16 -0.16)">
      <use xlink:href="#DejaVuSans-67"/>
      <use xlink:href="#DejaVuSans-62" x="63.476562"/>
      <use xlink:href="#DejaVuSans-72" x="126.953125"/>
      <use xlink:href="#DejaVuSans-5f" x="168.066406"/>
      <use xlink:href="#DejaVuSans-67" x="218.066406"/>
      <use xlink:href="#DejaVuSans-73" x="281.542969"/>
     </g>
    </g>
    <g id="line2d_39">
     <path d="M 100.82 466.7795 
L 116.82 466.7795 
L 132.82 466.7795 
" style="fill: none; stroke: #7f7f7f; stroke-width: 1.5; stroke-linecap: square"/>
    </g>
    <g id="text_25">
     <!-- BayesianRidge_gs -->
     <g transform="translate(145.62 472.3795) scale(0.16 -0.16)">
      <use xlink:href="#DejaVuSans-42"/>
      <use xlink:href="#DejaVuSans-61" x="68.603516"/>
      <use xlink:href="#DejaVuSans-79" x="129.882812"/>
      <use xlink:href="#DejaVuSans-65" x="189.0625"/>
      <use xlink:href="#DejaVuSans-73" x="250.585938"/>
      <use xlink:href="#DejaVuSans-69" x="302.685547"/>
      <use xlink:href="#DejaVuSans-61" x="330.46875"/>
      <use xlink:href="#DejaVuSans-6e" x="391.748047"/>
      <use xlink:href="#DejaVuSans-52" x="455.126953"/>
      <use xlink:href="#DejaVuSans-69" x="524.609375"/>
      <use xlink:href="#DejaVuSans-64" x="552.392578"/>
      <use xlink:href="#DejaVuSans-67" x="615.869141"/>
      <use xlink:href="#DejaVuSans-65" x="679.345703"/>
      <use xlink:href="#DejaVuSans-5f" x="740.869141"/>
      <use xlink:href="#DejaVuSans-67" x="790.869141"/>
      <use xlink:href="#DejaVuSans-73" x="854.345703"/>
     </g>
    </g>
   </g>
  </g>
 </g>
 <defs>
  <clipPath id="p8cd02af183">
   <rect x="86.42" y="10.8" width="1054.78" height="479.752"/>
  </clipPath>
 </defs>
</svg>
