<?xml version="1.0" encoding="utf-8" standalone="no"?>
<!DOCTYPE svg PUBLIC "-//W3C//DTD SVG 1.1//EN"
  "http://www.w3.org/Graphics/SVG/1.1/DTD/svg11.dtd">
<svg xmlns:xlink="http://www.w3.org/1999/xlink" width="1152pt" height="576pt" viewBox="0 0 1152 576" xmlns="http://www.w3.org/2000/svg" version="1.1">
 <metadata>
  <rdf:RDF xmlns:dc="http://purl.org/dc/elements/1.1/" xmlns:cc="http://creativecommons.org/ns#" xmlns:rdf="http://www.w3.org/1999/02/22-rdf-syntax-ns#">
   <cc:Work>
    <dc:type rdf:resource="http://purl.org/dc/dcmitype/StillImage"/>
    <dc:date>2024-08-27T10:32:56.707413</dc:date>
    <dc:format>image/svg+xml</dc:format>
    <dc:creator>
     <cc:Agent>
      <dc:title>Matplotlib v3.7.1, https://matplotlib.org/</dc:title>
     </cc:Agent>
    </dc:creator>
   </cc:Work>
  </rdf:RDF>
 </metadata>
 <defs>
  <style type="text/css">*{stroke-linejoin: round; stroke-linecap: butt}</style>
 </defs>
 <g id="figure_1">
  <g id="patch_1">
   <path d="M 0 576 
L 1152 576 
L 1152 0 
L 0 0 
z
" style="fill: #ffffff"/>
  </g>
  <g id="axes_1">
   <g id="patch_2">
    <path d="M 67.34 489.832 
L 1141.2 489.832 
L 1141.2 10.8 
L 67.34 10.8 
z
" style="fill: #ffffff"/>
   </g>
   <g id="PolyCollection_1">
    <defs>
     <path id="m97b5cfd5e0" d="M 116.151818 -145.590093 
L 116.151818 -124.68443 
L 136.922805 -108.81141 
L 157.693791 -115.432747 
L 178.464778 -122.142239 
L 199.235764 -120.130718 
L 220.00675 -113.2234 
L 240.777737 -113.803394 
L 261.548723 -117.659417 
L 282.31971 -133.439683 
L 303.090696 -122.109687 
L 323.861683 -129.633326 
L 344.632669 -132.510619 
L 365.403656 -128.426802 
L 386.174642 -124.72727 
L 406.945629 -126.215506 
L 427.716615 -124.770898 
L 448.487602 -121.488455 
L 469.258588 -115.283073 
L 490.029574 -141.580828 
L 510.800561 -134.024012 
L 531.571547 -134.999703 
L 552.342534 -145.490705 
L 573.11352 -126.941789 
L 593.884507 -127.913801 
L 614.655493 -133.578451 
L 635.42648 -129.832749 
L 656.197466 -129.681653 
L 676.968453 -133.070585 
L 697.739439 -135.586681 
L 718.510426 -123.33749 
L 739.281412 -128.152751 
L 760.052398 -131.858224 
L 780.823385 -120.924329 
L 801.594371 -134.027593 
L 822.365358 -137.794833 
L 843.136344 -122.948647 
L 863.907331 -117.93028 
L 884.678317 -138.822993 
L 905.449304 -138.777477 
L 926.22029 -122.067366 
L 946.991277 -121.724756 
L 967.762263 -121.115944 
L 988.53325 -121.505323 
L 1009.304236 -120.793784 
L 1030.075222 -121.325885 
L 1050.846209 -121.505323 
L 1071.617195 -121.719804 
L 1092.388182 -121.724756 
L 1092.388182 -151.062156 
L 1092.388182 -151.062156 
L 1071.617195 -151.404196 
L 1050.846209 -151.426998 
L 1030.075222 -151.431379 
L 1009.304236 -151.404766 
L 988.53325 -151.404196 
L 967.762263 -151.070404 
L 946.991277 -151.228942 
L 926.22029 -151.404766 
L 905.449304 -150.966807 
L 884.678317 -152.269309 
L 863.907331 -145.082914 
L 843.136344 -163.747483 
L 822.365358 -156.691189 
L 801.594371 -151.650624 
L 780.823385 -141.092925 
L 760.052398 -146.490109 
L 739.281412 -136.97426 
L 718.510426 -134.717251 
L 697.739439 -154.242755 
L 676.968453 -153.735146 
L 656.197466 -150.567863 
L 635.42648 -150.322178 
L 614.655493 -152.626467 
L 593.884507 -147.333825 
L 573.11352 -145.931289 
L 552.342534 -154.737505 
L 531.571547 -159.250084 
L 510.800561 -155.090512 
L 490.029574 -162.265604 
L 469.258588 -145.650341 
L 448.487602 -141.284363 
L 427.716615 -147.266875 
L 406.945629 -143.005051 
L 386.174642 -137.603754 
L 365.403656 -141.559226 
L 344.632669 -151.983904 
L 323.861683 -151.74951 
L 303.090696 -149.42478 
L 282.31971 -156.454304 
L 261.548723 -136.195484 
L 240.777737 -133.811188 
L 220.00675 -124.066571 
L 199.235764 -144.780083 
L 178.464778 -134.104804 
L 157.693791 -129.653435 
L 136.922805 -139.164515 
L 116.151818 -145.590093 
z
" style="stroke: #f77189; stroke-opacity: 0.2"/>
    </defs>
    <g clip-path="url(#pe33f35c00a)">
     <use xlink:href="#m97b5cfd5e0" x="0" y="576" style="fill: #f77189; fill-opacity: 0.2; stroke: #f77189; stroke-opacity: 0.2"/>
    </g>
   </g>
   <g id="PolyCollection_2">
    <defs>
     <path id="mb4b1e2f806" d="M 116.151818 -156.981195 
L 116.151818 -138.15503 
L 136.922805 -123.335788 
L 157.693791 -129.955162 
L 178.464778 -128.813077 
L 199.235764 -127.261386 
L 220.00675 -127.054687 
L 240.777737 -129.122223 
L 261.548723 -129.335861 
L 282.31971 -148.602215 
L 303.090696 -137.772613 
L 323.861683 -140.314371 
L 344.632669 -142.924745 
L 365.403656 -135.109379 
L 386.174642 -135.451213 
L 406.945629 -128.360078 
L 427.716615 -137.383186 
L 448.487602 -131.899297 
L 469.258588 -143.448366 
L 490.029574 -159.488247 
L 510.800561 -150.942492 
L 531.571547 -157.497625 
L 552.342534 -162.991931 
L 573.11352 -147.449016 
L 593.884507 -147.057513 
L 614.655493 -148.117761 
L 635.42648 -152.128354 
L 656.197466 -151.251718 
L 676.968453 -152.303285 
L 697.739439 -156.986649 
L 718.510426 -141.037867 
L 739.281412 -138.754984 
L 760.052398 -144.919685 
L 780.823385 -141.761879 
L 801.594371 -151.761668 
L 822.365358 -151.298989 
L 843.136344 -155.330303 
L 863.907331 -149.668947 
L 884.678317 -147.11191 
L 905.449304 -154.202148 
L 926.22029 -148.323251 
L 946.991277 -148.536448 
L 967.762263 -148.899462 
L 988.53325 -148.910628 
L 1009.304236 -148.279959 
L 1030.075222 -148.463985 
L 1050.846209 -148.536448 
L 1071.617195 -148.647978 
L 1092.388182 -148.986581 
L 1092.388182 -165.866636 
L 1092.388182 -165.866636 
L 1071.617195 -165.943427 
L 1050.846209 -166.35657 
L 1030.075222 -166.312169 
L 1009.304236 -167.177648 
L 988.53325 -165.911875 
L 967.762263 -167.101701 
L 946.991277 -166.35657 
L 926.22029 -167.143877 
L 905.449304 -171.346482 
L 884.678317 -166.709505 
L 863.907331 -174.009415 
L 843.136344 -175.202712 
L 822.365358 -178.365412 
L 801.594371 -177.697021 
L 780.823385 -157.945789 
L 760.052398 -171.443023 
L 739.281412 -168.011258 
L 718.510426 -167.462803 
L 697.739439 -174.377394 
L 676.968453 -173.88674 
L 656.197466 -175.008839 
L 635.42648 -175.58176 
L 614.655493 -173.819783 
L 593.884507 -174.252348 
L 573.11352 -169.523244 
L 552.342534 -193.619798 
L 531.571547 -194.960305 
L 510.800561 -187.899038 
L 490.029574 -177.794749 
L 469.258588 -168.242017 
L 448.487602 -161.731253 
L 427.716615 -156.452025 
L 406.945629 -163.876902 
L 386.174642 -156.718133 
L 365.403656 -160.521806 
L 344.632669 -173.731026 
L 323.861683 -157.233626 
L 303.090696 -157.726297 
L 282.31971 -168.768328 
L 261.548723 -167.068167 
L 240.777737 -146.802371 
L 220.00675 -139.608785 
L 199.235764 -145.838767 
L 178.464778 -141.549676 
L 157.693791 -134.780734 
L 136.922805 -141.535294 
L 116.151818 -156.981195 
z
" style="stroke: #e18632; stroke-opacity: 0.2"/>
    </defs>
    <g clip-path="url(#pe33f35c00a)">
     <use xlink:href="#mb4b1e2f806" x="0" y="576" style="fill: #e18632; fill-opacity: 0.2; stroke: #e18632; stroke-opacity: 0.2"/>
    </g>
   </g>
   <g id="PolyCollection_3">
    <defs>
     <path id="mc2e4c55f61" d="M 116.151818 -179.769992 
L 116.151818 -147.739699 
L 136.922805 -148.295274 
L 157.693791 -137.873722 
L 178.464778 -153.521906 
L 199.235764 -140.533303 
L 220.00675 -145.612958 
L 240.777737 -140.776422 
L 261.548723 -149.25446 
L 282.31971 -155.502025 
L 303.090696 -153.287208 
L 323.861683 -152.506501 
L 344.632669 -158.333441 
L 365.403656 -151.506524 
L 386.174642 -145.563293 
L 406.945629 -153.183521 
L 427.716615 -148.9618 
L 448.487602 -148.140281 
L 469.258588 -160.173723 
L 490.029574 -171.805297 
L 510.800561 -156.341269 
L 531.571547 -166.639618 
L 552.342534 -175.220073 
L 573.11352 -146.744228 
L 593.884507 -145.599391 
L 614.655493 -148.431977 
L 635.42648 -151.121993 
L 656.197466 -152.305753 
L 676.968453 -155.375589 
L 697.739439 -152.12199 
L 718.510426 -145.105191 
L 739.281412 -146.532679 
L 760.052398 -147.775757 
L 780.823385 -145.520081 
L 801.594371 -159.581385 
L 822.365358 -161.49081 
L 843.136344 -148.430388 
L 863.907331 -151.910133 
L 884.678317 -160.420951 
L 905.449304 -162.980054 
L 926.22029 -155.136332 
L 946.991277 -153.498161 
L 967.762263 -152.385517 
L 988.53325 -155.874534 
L 1009.304236 -155.136332 
L 1030.075222 -154.3748 
L 1050.846209 -154.748223 
L 1071.617195 -152.392874 
L 1092.388182 -154.3748 
L 1092.388182 -188.959719 
L 1092.388182 -188.959719 
L 1071.617195 -189.453339 
L 1050.846209 -187.971082 
L 1030.075222 -189.343798 
L 1009.304236 -187.954041 
L 988.53325 -189.452902 
L 967.762263 -186.195986 
L 946.991277 -189.092242 
L 926.22029 -189.470379 
L 905.449304 -187.23594 
L 884.678317 -185.133786 
L 863.907331 -182.983376 
L 843.136344 -192.606688 
L 822.365358 -181.645709 
L 801.594371 -179.498618 
L 780.823385 -169.280901 
L 760.052398 -167.749958 
L 739.281412 -172.933487 
L 718.510426 -169.228542 
L 697.739439 -185.45958 
L 676.968453 -183.226893 
L 656.197466 -185.678968 
L 635.42648 -184.015202 
L 614.655493 -182.879591 
L 593.884507 -173.432695 
L 573.11352 -172.653324 
L 552.342534 -187.899861 
L 531.571547 -188.854463 
L 510.800561 -188.703652 
L 490.029574 -201.204998 
L 469.258588 -180.733682 
L 448.487602 -170.097047 
L 427.716615 -161.154508 
L 406.945629 -164.057574 
L 386.174642 -162.850496 
L 365.403656 -174.925903 
L 344.632669 -178.711545 
L 323.861683 -176.717237 
L 303.090696 -175.261896 
L 282.31971 -178.003466 
L 261.548723 -160.424953 
L 240.777737 -162.100836 
L 220.00675 -152.992214 
L 199.235764 -157.148088 
L 178.464778 -169.855893 
L 157.693791 -158.063717 
L 136.922805 -163.504631 
L 116.151818 -179.769992 
z
" style="stroke: #b59a32; stroke-opacity: 0.2"/>
    </defs>
    <g clip-path="url(#pe33f35c00a)">
     <use xlink:href="#mc2e4c55f61" x="0" y="576" style="fill: #b59a32; fill-opacity: 0.2; stroke: #b59a32; stroke-opacity: 0.2"/>
    </g>
   </g>
   <g id="PolyCollection_4">
    <defs>
     <path id="mb89c614522" d="M 116.151818 -142.194773 
L 116.151818 -128.26584 
L 136.922805 -109.651256 
L 157.693791 -115.357976 
L 178.464778 -107.942182 
L 199.235764 -126.846013 
L 220.00675 -114.991065 
L 240.777737 -118.856569 
L 261.548723 -132.005936 
L 282.31971 -118.721093 
L 303.090696 -129.192042 
L 323.861683 -129.926783 
L 344.632669 -128.781979 
L 365.403656 -136.60999 
L 386.174642 -133.544318 
L 406.945629 -148.552262 
L 427.716615 -135.303636 
L 448.487602 -122.784459 
L 469.258588 -139.039751 
L 490.029574 -151.561405 
L 510.800561 -136.094789 
L 531.571547 -136.312096 
L 552.342534 -147.17838 
L 573.11352 -140.312856 
L 593.884507 -136.426254 
L 614.655493 -142.441119 
L 635.42648 -145.719382 
L 656.197466 -149.650302 
L 676.968453 -143.431482 
L 697.739439 -151.390553 
L 718.510426 -127.228053 
L 739.281412 -135.077964 
L 760.052398 -119.917288 
L 780.823385 -117.16865 
L 801.594371 -133.615046 
L 822.365358 -124.819693 
L 843.136344 -138.110236 
L 863.907331 -129.377495 
L 884.678317 -120.465525 
L 905.449304 -114.873478 
L 926.22029 -127.225566 
L 946.991277 -128.880612 
L 967.762263 -122.617638 
L 988.53325 -128.598685 
L 1009.304236 -128.056704 
L 1030.075222 -128.598685 
L 1050.846209 -128.593605 
L 1071.617195 -128.598685 
L 1092.388182 -129.429822 
L 1092.388182 -164.477841 
L 1092.388182 -164.477841 
L 1071.617195 -164.98349 
L 1050.846209 -163.931071 
L 1030.075222 -164.477841 
L 1009.304236 -166.055103 
L 988.53325 -164.465532 
L 967.762263 -158.212807 
L 946.991277 -165.499855 
L 926.22029 -164.429442 
L 905.449304 -151.891351 
L 884.678317 -159.52905 
L 863.907331 -171.165136 
L 843.136344 -163.936744 
L 822.365358 -150.191541 
L 801.594371 -161.777352 
L 780.823385 -141.763105 
L 760.052398 -154.856648 
L 739.281412 -162.802981 
L 718.510426 -162.552269 
L 697.739439 -172.565045 
L 676.968453 -164.98344 
L 656.197466 -163.831248 
L 635.42648 -163.591191 
L 614.655493 -162.565606 
L 593.884507 -159.130634 
L 573.11352 -158.639465 
L 552.342534 -166.092949 
L 531.571547 -166.807239 
L 510.800561 -163.276901 
L 490.029574 -178.514869 
L 469.258588 -159.755987 
L 448.487602 -159.39272 
L 427.716615 -154.649729 
L 406.945629 -176.735541 
L 386.174642 -152.202457 
L 365.403656 -156.212084 
L 344.632669 -159.560635 
L 323.861683 -150.739168 
L 303.090696 -154.099272 
L 282.31971 -145.472158 
L 261.548723 -139.031157 
L 240.777737 -137.248182 
L 220.00675 -143.125152 
L 199.235764 -144.710667 
L 178.464778 -132.181071 
L 157.693791 -131.843408 
L 136.922805 -134.428202 
L 116.151818 -142.194773 
z
" style="stroke: #8ba731; stroke-opacity: 0.2"/>
    </defs>
    <g clip-path="url(#pe33f35c00a)">
     <use xlink:href="#mb89c614522" x="0" y="576" style="fill: #8ba731; fill-opacity: 0.2; stroke: #8ba731; stroke-opacity: 0.2"/>
    </g>
   </g>
   <g id="PolyCollection_5">
    <defs>
     <path id="m8f9b08728f" d="M 116.151818 -311.861529 
L 116.151818 -239.286388 
L 136.922805 -262.576893 
L 157.693791 -236.226317 
L 178.464778 -266.101054 
L 199.235764 -261.344848 
L 220.00675 -220.185881 
L 240.777737 -247.478095 
L 261.548723 -249.289546 
L 282.31971 -286.146226 
L 303.090696 -266.543356 
L 323.861683 -282.712003 
L 344.632669 -289.836628 
L 365.403656 -253.648973 
L 386.174642 -267.810828 
L 406.945629 -261.150284 
L 427.716615 -264.557679 
L 448.487602 -275.114917 
L 469.258588 -288.656054 
L 490.029574 -306.928327 
L 510.800561 -293.924219 
L 531.571547 -290.440501 
L 552.342534 -292.884344 
L 573.11352 -260.176085 
L 593.884507 -260.453757 
L 614.655493 -262.886223 
L 635.42648 -261.303085 
L 656.197466 -259.686476 
L 676.968453 -264.38359 
L 697.739439 -273.193658 
L 718.510426 -263.435281 
L 739.281412 -261.107023 
L 760.052398 -260.344756 
L 780.823385 -240.490903 
L 801.594371 -250.498437 
L 822.365358 -259.712124 
L 843.136344 -250.409801 
L 863.907331 -254.067865 
L 884.678317 -279.998023 
L 905.449304 -266.313866 
L 926.22029 -234.825651 
L 946.991277 -232.453658 
L 967.762263 -232.460443 
L 988.53325 -234.962168 
L 1009.304236 -232.460443 
L 1030.075222 -236.356662 
L 1050.846209 -236.872898 
L 1071.617195 -235.660884 
L 1092.388182 -237.169943 
L 1092.388182 -313.668347 
L 1092.388182 -313.668347 
L 1071.617195 -314.335311 
L 1050.846209 -314.070683 
L 1030.075222 -314.335311 
L 1009.304236 -312.58047 
L 988.53325 -315.547325 
L 967.762263 -309.075968 
L 946.991277 -311.141656 
L 926.22029 -314.342097 
L 905.449304 -315.159027 
L 884.678317 -315.264609 
L 863.907331 -334.564172 
L 843.136344 -324.64314 
L 822.365358 -314.134729 
L 801.594371 -291.192409 
L 780.823385 -282.053556 
L 760.052398 -291.149649 
L 739.281412 -299.53145 
L 718.510426 -293.88699 
L 697.739439 -311.541132 
L 676.968453 -310.78311 
L 656.197466 -308.977568 
L 635.42648 -309.651469 
L 614.655493 -311.249782 
L 593.884507 -308.583466 
L 573.11352 -305.677806 
L 552.342534 -329.71069 
L 531.571547 -313.641464 
L 510.800561 -334.17778 
L 490.029574 -351.831006 
L 469.258588 -333.58599 
L 448.487602 -328.358251 
L 427.716615 -302.984964 
L 406.945629 -297.870879 
L 386.174642 -297.355169 
L 365.403656 -293.554186 
L 344.632669 -344.126238 
L 323.861683 -319.787591 
L 303.090696 -336.404794 
L 282.31971 -337.218864 
L 261.548723 -275.559719 
L 240.777737 -287.5136 
L 220.00675 -265.760114 
L 199.235764 -295.383029 
L 178.464778 -291.648903 
L 157.693791 -276.523113 
L 136.922805 -281.890157 
L 116.151818 -311.861529 
z
" style="stroke: #32b258; stroke-opacity: 0.2"/>
    </defs>
    <g clip-path="url(#pe33f35c00a)">
     <use xlink:href="#m8f9b08728f" x="0" y="576" style="fill: #32b258; fill-opacity: 0.2; stroke: #32b258; stroke-opacity: 0.2"/>
    </g>
   </g>
   <g id="PolyCollection_6">
    <defs>
     <path id="m9683a82e53" d="M 116.151818 -254.026989 
L 116.151818 -216.583819 
L 136.922805 -208.873679 
L 157.693791 -211.717334 
L 178.464778 -221.448049 
L 199.235764 -208.311132 
L 220.00675 -209.453516 
L 240.777737 -204.851274 
L 261.548723 -222.396537 
L 282.31971 -222.038969 
L 303.090696 -213.081103 
L 323.861683 -220.34356 
L 344.632669 -217.027844 
L 365.403656 -214.903311 
L 386.174642 -212.580859 
L 406.945629 -219.941228 
L 427.716615 -213.242936 
L 448.487602 -211.869681 
L 469.258588 -223.914845 
L 490.029574 -232.425405 
L 510.800561 -217.9948 
L 531.571547 -215.9066 
L 552.342534 -227.541806 
L 573.11352 -222.78693 
L 593.884507 -222.326312 
L 614.655493 -223.281365 
L 635.42648 -228.929655 
L 656.197466 -230.404065 
L 676.968453 -228.487769 
L 697.739439 -223.15197 
L 718.510426 -217.32604 
L 739.281412 -221.493032 
L 760.052398 -221.789798 
L 780.823385 -217.66972 
L 801.594371 -213.33276 
L 822.365358 -215.482519 
L 843.136344 -222.753796 
L 863.907331 -217.80979 
L 884.678317 -229.695198 
L 905.449304 -219.220977 
L 926.22029 -228.431297 
L 946.991277 -228.062023 
L 967.762263 -225.713121 
L 988.53325 -228.591357 
L 1009.304236 -228.058021 
L 1030.075222 -228.002136 
L 1050.846209 -227.900002 
L 1071.617195 -227.999632 
L 1092.388182 -228.162197 
L 1092.388182 -259.511671 
L 1092.388182 -259.511671 
L 1071.617195 -263.456039 
L 1050.846209 -261.019912 
L 1030.075222 -260.922242 
L 1009.304236 -260.330517 
L 988.53325 -259.671731 
L 967.762263 -260.859974 
L 946.991277 -260.922242 
L 926.22029 -259.2533 
L 905.449304 -262.96694 
L 884.678317 -261.871216 
L 863.907331 -248.847779 
L 843.136344 -257.586227 
L 822.365358 -256.134111 
L 801.594371 -248.067576 
L 780.823385 -247.652694 
L 760.052398 -251.138037 
L 739.281412 -244.960644 
L 718.510426 -243.179138 
L 697.739439 -254.113569 
L 676.968453 -256.275857 
L 656.197466 -256.327051 
L 635.42648 -256.069127 
L 614.655493 -254.974341 
L 593.884507 -252.969849 
L 573.11352 -252.032145 
L 552.342534 -257.823471 
L 531.571547 -259.244725 
L 510.800561 -254.535391 
L 490.029574 -271.128705 
L 469.258588 -245.598097 
L 448.487602 -238.641001 
L 427.716615 -243.683246 
L 406.945629 -240.615967 
L 386.174642 -231.055417 
L 365.403656 -249.625433 
L 344.632669 -251.243928 
L 323.861683 -241.883916 
L 303.090696 -247.812922 
L 282.31971 -250.715197 
L 261.548723 -254.251303 
L 240.777737 -246.870698 
L 220.00675 -260.352482 
L 199.235764 -257.366421 
L 178.464778 -243.296912 
L 157.693791 -224.281266 
L 136.922805 -228.532378 
L 116.151818 -254.026989 
z
" style="stroke: #35ae95; stroke-opacity: 0.2"/>
    </defs>
    <g clip-path="url(#pe33f35c00a)">
     <use xlink:href="#m9683a82e53" x="0" y="576" style="fill: #35ae95; fill-opacity: 0.2; stroke: #35ae95; stroke-opacity: 0.2"/>
    </g>
   </g>
   <g id="PolyCollection_7">
    <defs>
     <path id="m7cf881f8b6" d="M 116.151818 -388.795139 
L 116.151818 -379.362985 
L 136.922805 -369.898836 
L 157.693791 -367.490671 
L 178.464778 -372.227988 
L 199.235764 -370.234131 
L 220.00675 -369.159623 
L 240.777737 -370.575086 
L 261.548723 -373.4534 
L 282.31971 -378.353997 
L 303.090696 -379.712277 
L 323.861683 -388.733816 
L 344.632669 -383.082329 
L 365.403656 -385.165884 
L 386.174642 -371.535404 
L 406.945629 -377.838365 
L 427.716615 -371.738159 
L 448.487602 -370.095821 
L 469.258588 -376.772157 
L 490.029574 -389.430403 
L 510.800561 -386.828951 
L 531.571547 -382.850633 
L 552.342534 -390.833849 
L 573.11352 -386.878496 
L 593.884507 -385.836656 
L 614.655493 -387.629871 
L 635.42648 -391.134741 
L 656.197466 -388.202115 
L 676.968453 -388.718011 
L 697.739439 -389.525653 
L 718.510426 -379.825617 
L 739.281412 -383.653442 
L 760.052398 -381.232158 
L 780.823385 -378.917678 
L 801.594371 -380.07376 
L 822.365358 -383.770573 
L 843.136344 -380.4399 
L 863.907331 -375.329238 
L 884.678317 -383.279621 
L 905.449304 -386.099044 
L 926.22029 -376.511812 
L 946.991277 -377.655487 
L 967.762263 -377.763126 
L 988.53325 -377.738623 
L 1009.304236 -377.126588 
L 1030.075222 -377.259294 
L 1050.846209 -377.016965 
L 1071.617195 -376.511812 
L 1092.388182 -377.650454 
L 1092.388182 -395.776416 
L 1092.388182 -395.776416 
L 1071.617195 -395.695359 
L 1050.846209 -395.666794 
L 1030.075222 -395.339222 
L 1009.304236 -395.341963 
L 988.53325 -395.693281 
L 967.762263 -395.711162 
L 946.991277 -395.585737 
L 926.22029 -395.341963 
L 905.449304 -396.456553 
L 884.678317 -394.331148 
L 863.907331 -400.887174 
L 843.136344 -403.337287 
L 822.365358 -400.773592 
L 801.594371 -396.874777 
L 780.823385 -399.351535 
L 760.052398 -396.868361 
L 739.281412 -397.696451 
L 718.510426 -395.748233 
L 697.739439 -403.981981 
L 676.968453 -402.801003 
L 656.197466 -404.45504 
L 635.42648 -404.951985 
L 614.655493 -402.614626 
L 593.884507 -395.035811 
L 573.11352 -395.100643 
L 552.342534 -399.549943 
L 531.571547 -401.411871 
L 510.800561 -401.363042 
L 490.029574 -408.041959 
L 469.258588 -405.05964 
L 448.487602 -395.98058 
L 427.716615 -402.097532 
L 406.945629 -399.140617 
L 386.174642 -391.56015 
L 365.403656 -395.776009 
L 344.632669 -402.935094 
L 323.861683 -395.525507 
L 303.090696 -401.23824 
L 282.31971 -404.68721 
L 261.548723 -390.072825 
L 240.777737 -385.721966 
L 220.00675 -376.864248 
L 199.235764 -392.854208 
L 178.464778 -382.168823 
L 157.693791 -379.98732 
L 136.922805 -393.288354 
L 116.151818 -388.795139 
z
" style="stroke: #37abb2; stroke-opacity: 0.2"/>
    </defs>
    <g clip-path="url(#pe33f35c00a)">
     <use xlink:href="#m7cf881f8b6" x="0" y="576" style="fill: #37abb2; fill-opacity: 0.2; stroke: #37abb2; stroke-opacity: 0.2"/>
    </g>
   </g>
   <g id="PolyCollection_8">
    <defs>
     <path id="m6d51a929d6" d="M 116.151818 -388.667244 
L 116.151818 -379.538899 
L 136.922805 -370.119374 
L 157.693791 -367.540132 
L 178.464778 -372.111109 
L 199.235764 -369.754368 
L 220.00675 -369.231557 
L 240.777737 -370.537202 
L 261.548723 -373.349993 
L 282.31971 -378.829842 
L 303.090696 -380.392588 
L 323.861683 -389.011692 
L 344.632669 -384.558546 
L 365.403656 -385.039778 
L 386.174642 -372.134635 
L 406.945629 -377.882152 
L 427.716615 -372.832136 
L 448.487602 -370.149253 
L 469.258588 -377.644451 
L 490.029574 -389.388418 
L 510.800561 -386.565954 
L 531.571547 -382.744028 
L 552.342534 -390.186411 
L 573.11352 -387.188123 
L 593.884507 -385.904433 
L 614.655493 -387.16807 
L 635.42648 -390.516534 
L 656.197466 -388.332977 
L 676.968453 -388.464497 
L 697.739439 -389.375123 
L 718.510426 -379.619774 
L 739.281412 -383.318486 
L 760.052398 -381.234058 
L 780.823385 -378.914548 
L 801.594371 -380.337825 
L 822.365358 -384.373437 
L 843.136344 -380.456141 
L 863.907331 -376.027076 
L 884.678317 -383.101474 
L 905.449304 -385.725809 
L 926.22029 -377.119981 
L 946.991277 -377.612327 
L 967.762263 -377.664309 
L 988.53325 -376.387787 
L 1009.304236 -377.12001 
L 1030.075222 -377.118873 
L 1050.846209 -377.849958 
L 1071.617195 -377.006383 
L 1092.388182 -377.476459 
L 1092.388182 -395.761185 
L 1092.388182 -395.761185 
L 1071.617195 -396.021057 
L 1050.846209 -395.652616 
L 1030.075222 -395.29 
L 1009.304236 -395.649833 
L 988.53325 -395.648695 
L 967.762263 -395.947898 
L 946.991277 -395.652616 
L 926.22029 -395.648695 
L 905.449304 -396.49728 
L 884.678317 -394.432332 
L 863.907331 -401.040367 
L 843.136344 -402.885835 
L 822.365358 -400.416967 
L 801.594371 -396.776615 
L 780.823385 -399.591308 
L 760.052398 -397.680323 
L 739.281412 -398.200891 
L 718.510426 -396.281972 
L 697.739439 -404.107183 
L 676.968453 -403.306253 
L 656.197466 -404.406705 
L 635.42648 -404.931473 
L 614.655493 -402.557221 
L 593.884507 -395.567792 
L 573.11352 -394.972575 
L 552.342534 -399.586113 
L 531.571547 -401.328402 
L 510.800561 -401.221355 
L 490.029574 -406.633734 
L 469.258588 -405.381097 
L 448.487602 -396.235865 
L 427.716615 -400.54571 
L 406.945629 -399.101759 
L 386.174642 -391.399053 
L 365.403656 -396.192905 
L 344.632669 -403.994868 
L 323.861683 -395.480265 
L 303.090696 -401.104027 
L 282.31971 -406.10395 
L 261.548723 -390.060111 
L 240.777737 -386.122447 
L 220.00675 -376.668456 
L 199.235764 -394.291973 
L 178.464778 -382.084929 
L 157.693791 -379.442709 
L 136.922805 -394.221129 
L 116.151818 -388.667244 
z
" style="stroke: #39a7d6; stroke-opacity: 0.2"/>
    </defs>
    <g clip-path="url(#pe33f35c00a)">
     <use xlink:href="#m6d51a929d6" x="0" y="576" style="fill: #39a7d6; fill-opacity: 0.2; stroke: #39a7d6; stroke-opacity: 0.2"/>
    </g>
   </g>
   <g id="PolyCollection_9">
    <defs>
     <path id="m7e636bf5ea" d="M 116.151818 -332.260092 
L 116.151818 -272.139947 
L 136.922805 -286.471828 
L 157.693791 -275.402599 
L 178.464778 -301.565396 
L 199.235764 -288.138339 
L 220.00675 -245.18323 
L 240.777737 -280.602769 
L 261.548723 -282.455968 
L 282.31971 -307.298736 
L 303.090696 -299.859813 
L 323.861683 -298.840238 
L 344.632669 -304.675273 
L 365.403656 -278.740661 
L 386.174642 -290.08683 
L 406.945629 -306.23033 
L 427.716615 -291.393689 
L 448.487602 -306.119067 
L 469.258588 -319.97467 
L 490.029574 -347.886287 
L 510.800561 -317.592978 
L 531.571547 -296.009461 
L 552.342534 -302.03357 
L 573.11352 -285.354665 
L 593.884507 -283.396056 
L 614.655493 -281.675714 
L 635.42648 -299.69088 
L 656.197466 -301.337604 
L 676.968453 -305.663486 
L 697.739439 -301.584436 
L 718.510426 -289.481336 
L 739.281412 -291.648008 
L 760.052398 -297.07746 
L 780.823385 -276.425388 
L 801.594371 -258.134716 
L 822.365358 -277.358612 
L 843.136344 -257.146333 
L 863.907331 -273.40334 
L 884.678317 -307.945486 
L 905.449304 -295.912534 
L 926.22029 -257.248413 
L 946.991277 -256.383671 
L 967.762263 -256.383671 
L 988.53325 -258.03738 
L 1009.304236 -256.220248 
L 1030.075222 -259.680986 
L 1050.846209 -259.395184 
L 1071.617195 -259.395184 
L 1092.388182 -259.500305 
L 1092.388182 -348.201066 
L 1092.388182 -348.201066 
L 1071.617195 -350.064662 
L 1050.846209 -347.627457 
L 1030.075222 -348.201066 
L 1009.304236 -350.645368 
L 988.53325 -348.210901 
L 967.762263 -348.619813 
L 946.991277 -350.638271 
L 926.22029 -347.910631 
L 905.449304 -365.945972 
L 884.678317 -356.196891 
L 863.907331 -365.204035 
L 843.136344 -353.325321 
L 822.365358 -365.03155 
L 801.594371 -313.191837 
L 780.823385 -334.899677 
L 760.052398 -314.18237 
L 739.281412 -324.116565 
L 718.510426 -323.050904 
L 697.739439 -348.621455 
L 676.968453 -345.844175 
L 656.197466 -348.979972 
L 635.42648 -344.603338 
L 614.655493 -343.162603 
L 593.884507 -342.234582 
L 573.11352 -356.929377 
L 552.342534 -355.517333 
L 531.571547 -342.259215 
L 510.800561 -367.428459 
L 490.029574 -394.022576 
L 469.258588 -366.886112 
L 448.487602 -370.560323 
L 427.716615 -341.448493 
L 406.945629 -334.410238 
L 386.174642 -325.564117 
L 365.403656 -316.335433 
L 344.632669 -367.929201 
L 323.861683 -345.921997 
L 303.090696 -357.960318 
L 282.31971 -348.639162 
L 261.548723 -313.915751 
L 240.777737 -325.539636 
L 220.00675 -292.681987 
L 199.235764 -326.516578 
L 178.464778 -342.925462 
L 157.693791 -292.662642 
L 136.922805 -323.001641 
L 116.151818 -332.260092 
z
" style="stroke: #8f93f4; stroke-opacity: 0.2"/>
    </defs>
    <g clip-path="url(#pe33f35c00a)">
     <use xlink:href="#m7e636bf5ea" x="0" y="576" style="fill: #8f93f4; fill-opacity: 0.2; stroke: #8f93f4; stroke-opacity: 0.2"/>
    </g>
   </g>
   <g id="PolyCollection_10">
    <defs>
     <path id="m93f8b891fa" d="M 116.151818 -456.539145 
L 116.151818 -422.057622 
L 136.922805 -411.378053 
L 157.693791 -409.252531 
L 178.464778 -418.909225 
L 199.235764 -406.457534 
L 220.00675 -410.348104 
L 240.777737 -414.403165 
L 261.548723 -408.578285 
L 282.31971 -415.497444 
L 303.090696 -430.472512 
L 323.861683 -422.284282 
L 344.632669 -425.009131 
L 365.403656 -424.234146 
L 386.174642 -415.400241 
L 406.945629 -433.010973 
L 427.716615 -423.617616 
L 448.487602 -415.237611 
L 469.258588 -430.486773 
L 490.029574 -438.255681 
L 510.800561 -429.214436 
L 531.571547 -437.891294 
L 552.342534 -448.458204 
L 573.11352 -433.667316 
L 593.884507 -437.63235 
L 614.655493 -436.653513 
L 635.42648 -445.637731 
L 656.197466 -440.711338 
L 676.968453 -449.320885 
L 697.739439 -440.686661 
L 718.510426 -437.614593 
L 739.281412 -440.149894 
L 760.052398 -432.911575 
L 780.823385 -444.241055 
L 801.594371 -436.114216 
L 822.365358 -421.53101 
L 843.136344 -441.677392 
L 863.907331 -438.836149 
L 884.678317 -429.520577 
L 905.449304 -448.174642 
L 926.22029 -444.137404 
L 946.991277 -443.088102 
L 967.762263 -448.273331 
L 988.53325 -443.428635 
L 1009.304236 -442.716268 
L 1030.075222 -443.502962 
L 1050.846209 -443.078849 
L 1071.617195 -443.156974 
L 1092.388182 -443.156974 
L 1092.388182 -464.690057 
L 1092.388182 -464.690057 
L 1071.617195 -463.995909 
L 1050.846209 -464.393988 
L 1030.075222 -464.341783 
L 1009.304236 -463.994284 
L 988.53325 -463.964015 
L 967.762263 -463.995909 
L 946.991277 -465.03678 
L 926.22029 -464.393988 
L 905.449304 -471.286779 
L 884.678317 -453.263511 
L 863.907331 -459.371988 
L 843.136344 -470.326688 
L 822.365358 -444.124412 
L 801.594371 -450.063728 
L 780.823385 -467.800788 
L 760.052398 -456.904336 
L 739.281412 -457.258218 
L 718.510426 -454.344227 
L 697.739439 -468.56313 
L 676.968453 -470.62303 
L 656.197466 -468.552825 
L 635.42648 -470.895353 
L 614.655493 -468.529087 
L 593.884507 -454.421624 
L 573.11352 -452.927234 
L 552.342534 -468.621104 
L 531.571547 -465.716022 
L 510.800561 -457.161276 
L 490.029574 -476.499486 
L 469.258588 -455.542009 
L 448.487602 -443.334065 
L 427.716615 -448.448436 
L 406.945629 -454.94371 
L 386.174642 -439.205262 
L 365.403656 -442.858809 
L 344.632669 -446.881396 
L 323.861683 -441.384377 
L 303.090696 -452.005017 
L 282.31971 -437.235724 
L 261.548723 -427.703612 
L 240.777737 -435.762432 
L 220.00675 -424.572867 
L 199.235764 -433.380409 
L 178.464778 -436.462509 
L 157.693791 -419.083787 
L 136.922805 -435.425611 
L 116.151818 -456.539145 
z
" style="stroke: #db70f4; stroke-opacity: 0.2"/>
    </defs>
    <g clip-path="url(#pe33f35c00a)">
     <use xlink:href="#m93f8b891fa" x="0" y="576" style="fill: #db70f4; fill-opacity: 0.2; stroke: #db70f4; stroke-opacity: 0.2"/>
    </g>
   </g>
   <g id="PolyCollection_11">
    <defs>
     <path id="m8394dc71dc" d="M 116.151818 -488.501879 
L 116.151818 -462.568645 
L 136.922805 -469.218572 
L 157.693791 -467.9397 
L 178.464778 -448.688801 
L 199.235764 -458.869666 
L 220.00675 -460.278922 
L 240.777737 -442.608195 
L 261.548723 -443.114999 
L 282.31971 -469.289283 
L 303.090696 -445.620356 
L 323.861683 -470.603455 
L 344.632669 -478.234346 
L 365.403656 -457.809643 
L 386.174642 -463.12212 
L 406.945629 -474.471154 
L 427.716615 -466.333536 
L 448.487602 -469.166142 
L 469.258588 -483.090458 
L 490.029574 -493.397131 
L 510.800561 -453.301994 
L 531.571547 -485.825868 
L 552.342534 -475.382487 
L 573.11352 -477.790949 
L 593.884507 -471.723799 
L 614.655493 -475.815305 
L 635.42648 -473.201894 
L 656.197466 -474.035504 
L 676.968453 -468.413905 
L 697.739439 -470.843446 
L 718.510426 -462.800552 
L 739.281412 -466.39597 
L 760.052398 -469.401994 
L 780.823385 -462.024922 
L 801.594371 -473.123058 
L 822.365358 -456.172872 
L 843.136344 -476.392386 
L 863.907331 -471.883851 
L 884.678317 -470.91976 
L 905.449304 -457.873888 
L 926.22029 -472.292026 
L 946.991277 -470.854338 
L 967.762263 -470.847714 
L 988.53325 -472.380609 
L 1009.304236 -472.30226 
L 1030.075222 -472.300251 
L 1050.846209 -471.892901 
L 1071.617195 -471.236362 
L 1092.388182 -471.741115 
L 1092.388182 -508.797177 
L 1092.388182 -508.797177 
L 1071.617195 -506.242998 
L 1050.846209 -505.812642 
L 1030.075222 -507.328188 
L 1009.304236 -508.305504 
L 988.53325 -507.338422 
L 967.762263 -505.322122 
L 946.991277 -506.301869 
L 926.22029 -507.737547 
L 905.449304 -500.061312 
L 884.678317 -521.536864 
L 863.907331 -521.689396 
L 843.136344 -515.599325 
L 822.365358 -490.794506 
L 801.594371 -498.462211 
L 780.823385 -496.448401 
L 760.052398 -491.762547 
L 739.281412 -488.347668 
L 718.510426 -489.994221 
L 697.739439 -491.167258 
L 676.968453 -492.676376 
L 656.197466 -488.89553 
L 635.42648 -496.290632 
L 614.655493 -492.349689 
L 593.884507 -501.666092 
L 573.11352 -506.800169 
L 552.342534 -505.863931 
L 531.571547 -505.53184 
L 510.800561 -518.856094 
L 490.029574 -543.425818 
L 469.258588 -538.072149 
L 448.487602 -508.849461 
L 427.716615 -518.589842 
L 406.945629 -520.737654 
L 386.174642 -494.368788 
L 365.403656 -526.991999 
L 344.632669 -490.537454 
L 323.861683 -493.865016 
L 303.090696 -489.462746 
L 282.31971 -508.392619 
L 261.548723 -489.440232 
L 240.777737 -482.368496 
L 220.00675 -528.692237 
L 199.235764 -494.151167 
L 178.464778 -499.714436 
L 157.693791 -492.243578 
L 136.922805 -514.300958 
L 116.151818 -488.501879 
z
" style="stroke: #f667c6; stroke-opacity: 0.2"/>
    </defs>
    <g clip-path="url(#pe33f35c00a)">
     <use xlink:href="#m8394dc71dc" x="0" y="576" style="fill: #f667c6; fill-opacity: 0.2; stroke: #f667c6; stroke-opacity: 0.2"/>
    </g>
   </g>
   <g id="matplotlib.axis_1">
    <g id="xtick_1">
     <g id="line2d_1">
      <defs>
       <path id="m76adb81ffe" d="M 0 0 
L 0 3.5 
" style="stroke: #000000; stroke-width: 0.8"/>
      </defs>
      <g>
       <use xlink:href="#m76adb81ffe" x="105.766325" y="489.832" style="stroke: #000000; stroke-width: 0.8"/>
      </g>
     </g>
     <g id="text_1">
      <!-- 0 -->
      <g transform="translate(99.403825 512.028875) scale(0.2 -0.2)">
       <defs>
        <path id="DejaVuSans-30" d="M 2034 4250 
Q 1547 4250 1301 3770 
Q 1056 3291 1056 2328 
Q 1056 1369 1301 889 
Q 1547 409 2034 409 
Q 2525 409 2770 889 
Q 3016 1369 3016 2328 
Q 3016 3291 2770 3770 
Q 2525 4250 2034 4250 
z
M 2034 4750 
Q 2819 4750 3233 4129 
Q 3647 3509 3647 2328 
Q 3647 1150 3233 529 
Q 2819 -91 2034 -91 
Q 1250 -91 836 529 
Q 422 1150 422 2328 
Q 422 3509 836 4129 
Q 1250 4750 2034 4750 
z
" transform="scale(0.015625)"/>
       </defs>
       <use xlink:href="#DejaVuSans-30"/>
      </g>
     </g>
    </g>
    <g id="xtick_2">
     <g id="line2d_2">
      <g>
       <use xlink:href="#m76adb81ffe" x="313.47619" y="489.832" style="stroke: #000000; stroke-width: 0.8"/>
      </g>
     </g>
     <g id="text_2">
      <!-- 20 -->
      <g transform="translate(300.75119 512.028875) scale(0.2 -0.2)">
       <defs>
        <path id="DejaVuSans-32" d="M 1228 531 
L 3431 531 
L 3431 0 
L 469 0 
L 469 531 
Q 828 903 1448 1529 
Q 2069 2156 2228 2338 
Q 2531 2678 2651 2914 
Q 2772 3150 2772 3378 
Q 2772 3750 2511 3984 
Q 2250 4219 1831 4219 
Q 1534 4219 1204 4116 
Q 875 4013 500 3803 
L 500 4441 
Q 881 4594 1212 4672 
Q 1544 4750 1819 4750 
Q 2544 4750 2975 4387 
Q 3406 4025 3406 3419 
Q 3406 3131 3298 2873 
Q 3191 2616 2906 2266 
Q 2828 2175 2409 1742 
Q 1991 1309 1228 531 
z
" transform="scale(0.015625)"/>
       </defs>
       <use xlink:href="#DejaVuSans-32"/>
       <use xlink:href="#DejaVuSans-30" x="63.623047"/>
      </g>
     </g>
    </g>
    <g id="xtick_3">
     <g id="line2d_3">
      <g>
       <use xlink:href="#m76adb81ffe" x="521.186054" y="489.832" style="stroke: #000000; stroke-width: 0.8"/>
      </g>
     </g>
     <g id="text_3">
      <!-- 40 -->
      <g transform="translate(508.461054 512.028875) scale(0.2 -0.2)">
       <defs>
        <path id="DejaVuSans-34" d="M 2419 4116 
L 825 1625 
L 2419 1625 
L 2419 4116 
z
M 2253 4666 
L 3047 4666 
L 3047 1625 
L 3713 1625 
L 3713 1100 
L 3047 1100 
L 3047 0 
L 2419 0 
L 2419 1100 
L 313 1100 
L 313 1709 
L 2253 4666 
z
" transform="scale(0.015625)"/>
       </defs>
       <use xlink:href="#DejaVuSans-34"/>
       <use xlink:href="#DejaVuSans-30" x="63.623047"/>
      </g>
     </g>
    </g>
    <g id="xtick_4">
     <g id="line2d_4">
      <g>
       <use xlink:href="#m76adb81ffe" x="728.895919" y="489.832" style="stroke: #000000; stroke-width: 0.8"/>
      </g>
     </g>
     <g id="text_4">
      <!-- 60 -->
      <g transform="translate(716.170919 512.028875) scale(0.2 -0.2)">
       <defs>
        <path id="DejaVuSans-36" d="M 2113 2584 
Q 1688 2584 1439 2293 
Q 1191 2003 1191 1497 
Q 1191 994 1439 701 
Q 1688 409 2113 409 
Q 2538 409 2786 701 
Q 3034 994 3034 1497 
Q 3034 2003 2786 2293 
Q 2538 2584 2113 2584 
z
M 3366 4563 
L 3366 3988 
Q 3128 4100 2886 4159 
Q 2644 4219 2406 4219 
Q 1781 4219 1451 3797 
Q 1122 3375 1075 2522 
Q 1259 2794 1537 2939 
Q 1816 3084 2150 3084 
Q 2853 3084 3261 2657 
Q 3669 2231 3669 1497 
Q 3669 778 3244 343 
Q 2819 -91 2113 -91 
Q 1303 -91 875 529 
Q 447 1150 447 2328 
Q 447 3434 972 4092 
Q 1497 4750 2381 4750 
Q 2619 4750 2861 4703 
Q 3103 4656 3366 4563 
z
" transform="scale(0.015625)"/>
       </defs>
       <use xlink:href="#DejaVuSans-36"/>
       <use xlink:href="#DejaVuSans-30" x="63.623047"/>
      </g>
     </g>
    </g>
    <g id="xtick_5">
     <g id="line2d_5">
      <g>
       <use xlink:href="#m76adb81ffe" x="936.605783" y="489.832" style="stroke: #000000; stroke-width: 0.8"/>
      </g>
     </g>
     <g id="text_5">
      <!-- 80 -->
      <g transform="translate(923.880783 512.028875) scale(0.2 -0.2)">
       <defs>
        <path id="DejaVuSans-38" d="M 2034 2216 
Q 1584 2216 1326 1975 
Q 1069 1734 1069 1313 
Q 1069 891 1326 650 
Q 1584 409 2034 409 
Q 2484 409 2743 651 
Q 3003 894 3003 1313 
Q 3003 1734 2745 1975 
Q 2488 2216 2034 2216 
z
M 1403 2484 
Q 997 2584 770 2862 
Q 544 3141 544 3541 
Q 544 4100 942 4425 
Q 1341 4750 2034 4750 
Q 2731 4750 3128 4425 
Q 3525 4100 3525 3541 
Q 3525 3141 3298 2862 
Q 3072 2584 2669 2484 
Q 3125 2378 3379 2068 
Q 3634 1759 3634 1313 
Q 3634 634 3220 271 
Q 2806 -91 2034 -91 
Q 1263 -91 848 271 
Q 434 634 434 1313 
Q 434 1759 690 2068 
Q 947 2378 1403 2484 
z
M 1172 3481 
Q 1172 3119 1398 2916 
Q 1625 2713 2034 2713 
Q 2441 2713 2670 2916 
Q 2900 3119 2900 3481 
Q 2900 3844 2670 4047 
Q 2441 4250 2034 4250 
Q 1625 4250 1398 4047 
Q 1172 3844 1172 3481 
z
" transform="scale(0.015625)"/>
       </defs>
       <use xlink:href="#DejaVuSans-38"/>
       <use xlink:href="#DejaVuSans-30" x="63.623047"/>
      </g>
     </g>
    </g>
    <g id="text_6">
     <!-- Percentile Threshold -->
     <g transform="translate(502.490313 535.385125) scale(0.2 -0.2)">
      <defs>
       <path id="DejaVuSans-50" d="M 1259 4147 
L 1259 2394 
L 2053 2394 
Q 2494 2394 2734 2622 
Q 2975 2850 2975 3272 
Q 2975 3691 2734 3919 
Q 2494 4147 2053 4147 
L 1259 4147 
z
M 628 4666 
L 2053 4666 
Q 2838 4666 3239 4311 
Q 3641 3956 3641 3272 
Q 3641 2581 3239 2228 
Q 2838 1875 2053 1875 
L 1259 1875 
L 1259 0 
L 628 0 
L 628 4666 
z
" transform="scale(0.015625)"/>
       <path id="DejaVuSans-65" d="M 3597 1894 
L 3597 1613 
L 953 1613 
Q 991 1019 1311 708 
Q 1631 397 2203 397 
Q 2534 397 2845 478 
Q 3156 559 3463 722 
L 3463 178 
Q 3153 47 2828 -22 
Q 2503 -91 2169 -91 
Q 1331 -91 842 396 
Q 353 884 353 1716 
Q 353 2575 817 3079 
Q 1281 3584 2069 3584 
Q 2775 3584 3186 3129 
Q 3597 2675 3597 1894 
z
M 3022 2063 
Q 3016 2534 2758 2815 
Q 2500 3097 2075 3097 
Q 1594 3097 1305 2825 
Q 1016 2553 972 2059 
L 3022 2063 
z
" transform="scale(0.015625)"/>
       <path id="DejaVuSans-72" d="M 2631 2963 
Q 2534 3019 2420 3045 
Q 2306 3072 2169 3072 
Q 1681 3072 1420 2755 
Q 1159 2438 1159 1844 
L 1159 0 
L 581 0 
L 581 3500 
L 1159 3500 
L 1159 2956 
Q 1341 3275 1631 3429 
Q 1922 3584 2338 3584 
Q 2397 3584 2469 3576 
Q 2541 3569 2628 3553 
L 2631 2963 
z
" transform="scale(0.015625)"/>
       <path id="DejaVuSans-63" d="M 3122 3366 
L 3122 2828 
Q 2878 2963 2633 3030 
Q 2388 3097 2138 3097 
Q 1578 3097 1268 2742 
Q 959 2388 959 1747 
Q 959 1106 1268 751 
Q 1578 397 2138 397 
Q 2388 397 2633 464 
Q 2878 531 3122 666 
L 3122 134 
Q 2881 22 2623 -34 
Q 2366 -91 2075 -91 
Q 1284 -91 818 406 
Q 353 903 353 1747 
Q 353 2603 823 3093 
Q 1294 3584 2113 3584 
Q 2378 3584 2631 3529 
Q 2884 3475 3122 3366 
z
" transform="scale(0.015625)"/>
       <path id="DejaVuSans-6e" d="M 3513 2113 
L 3513 0 
L 2938 0 
L 2938 2094 
Q 2938 2591 2744 2837 
Q 2550 3084 2163 3084 
Q 1697 3084 1428 2787 
Q 1159 2491 1159 1978 
L 1159 0 
L 581 0 
L 581 3500 
L 1159 3500 
L 1159 2956 
Q 1366 3272 1645 3428 
Q 1925 3584 2291 3584 
Q 2894 3584 3203 3211 
Q 3513 2838 3513 2113 
z
" transform="scale(0.015625)"/>
       <path id="DejaVuSans-74" d="M 1172 4494 
L 1172 3500 
L 2356 3500 
L 2356 3053 
L 1172 3053 
L 1172 1153 
Q 1172 725 1289 603 
Q 1406 481 1766 481 
L 2356 481 
L 2356 0 
L 1766 0 
Q 1100 0 847 248 
Q 594 497 594 1153 
L 594 3053 
L 172 3053 
L 172 3500 
L 594 3500 
L 594 4494 
L 1172 4494 
z
" transform="scale(0.015625)"/>
       <path id="DejaVuSans-69" d="M 603 3500 
L 1178 3500 
L 1178 0 
L 603 0 
L 603 3500 
z
M 603 4863 
L 1178 4863 
L 1178 4134 
L 603 4134 
L 603 4863 
z
" transform="scale(0.015625)"/>
       <path id="DejaVuSans-6c" d="M 603 4863 
L 1178 4863 
L 1178 0 
L 603 0 
L 603 4863 
z
" transform="scale(0.015625)"/>
       <path id="DejaVuSans-20" transform="scale(0.015625)"/>
       <path id="DejaVuSans-54" d="M -19 4666 
L 3928 4666 
L 3928 4134 
L 2272 4134 
L 2272 0 
L 1638 0 
L 1638 4134 
L -19 4134 
L -19 4666 
z
" transform="scale(0.015625)"/>
       <path id="DejaVuSans-68" d="M 3513 2113 
L 3513 0 
L 2938 0 
L 2938 2094 
Q 2938 2591 2744 2837 
Q 2550 3084 2163 3084 
Q 1697 3084 1428 2787 
Q 1159 2491 1159 1978 
L 1159 0 
L 581 0 
L 581 4863 
L 1159 4863 
L 1159 2956 
Q 1366 3272 1645 3428 
Q 1925 3584 2291 3584 
Q 2894 3584 3203 3211 
Q 3513 2838 3513 2113 
z
" transform="scale(0.015625)"/>
       <path id="DejaVuSans-73" d="M 2834 3397 
L 2834 2853 
Q 2591 2978 2328 3040 
Q 2066 3103 1784 3103 
Q 1356 3103 1142 2972 
Q 928 2841 928 2578 
Q 928 2378 1081 2264 
Q 1234 2150 1697 2047 
L 1894 2003 
Q 2506 1872 2764 1633 
Q 3022 1394 3022 966 
Q 3022 478 2636 193 
Q 2250 -91 1575 -91 
Q 1294 -91 989 -36 
Q 684 19 347 128 
L 347 722 
Q 666 556 975 473 
Q 1284 391 1588 391 
Q 1994 391 2212 530 
Q 2431 669 2431 922 
Q 2431 1156 2273 1281 
Q 2116 1406 1581 1522 
L 1381 1569 
Q 847 1681 609 1914 
Q 372 2147 372 2553 
Q 372 3047 722 3315 
Q 1072 3584 1716 3584 
Q 2034 3584 2315 3537 
Q 2597 3491 2834 3397 
z
" transform="scale(0.015625)"/>
       <path id="DejaVuSans-6f" d="M 1959 3097 
Q 1497 3097 1228 2736 
Q 959 2375 959 1747 
Q 959 1119 1226 758 
Q 1494 397 1959 397 
Q 2419 397 2687 759 
Q 2956 1122 2956 1747 
Q 2956 2369 2687 2733 
Q 2419 3097 1959 3097 
z
M 1959 3584 
Q 2709 3584 3137 3096 
Q 3566 2609 3566 1747 
Q 3566 888 3137 398 
Q 2709 -91 1959 -91 
Q 1206 -91 779 398 
Q 353 888 353 1747 
Q 353 2609 779 3096 
Q 1206 3584 1959 3584 
z
" transform="scale(0.015625)"/>
       <path id="DejaVuSans-64" d="M 2906 2969 
L 2906 4863 
L 3481 4863 
L 3481 0 
L 2906 0 
L 2906 525 
Q 2725 213 2448 61 
Q 2172 -91 1784 -91 
Q 1150 -91 751 415 
Q 353 922 353 1747 
Q 353 2572 751 3078 
Q 1150 3584 1784 3584 
Q 2172 3584 2448 3432 
Q 2725 3281 2906 2969 
z
M 947 1747 
Q 947 1113 1208 752 
Q 1469 391 1925 391 
Q 2381 391 2643 752 
Q 2906 1113 2906 1747 
Q 2906 2381 2643 2742 
Q 2381 3103 1925 3103 
Q 1469 3103 1208 2742 
Q 947 2381 947 1747 
z
" transform="scale(0.015625)"/>
      </defs>
      <use xlink:href="#DejaVuSans-50"/>
      <use xlink:href="#DejaVuSans-65" x="56.677734"/>
      <use xlink:href="#DejaVuSans-72" x="118.201172"/>
      <use xlink:href="#DejaVuSans-63" x="157.064453"/>
      <use xlink:href="#DejaVuSans-65" x="212.044922"/>
      <use xlink:href="#DejaVuSans-6e" x="273.568359"/>
      <use xlink:href="#DejaVuSans-74" x="336.947266"/>
      <use xlink:href="#DejaVuSans-69" x="376.15625"/>
      <use xlink:href="#DejaVuSans-6c" x="403.939453"/>
      <use xlink:href="#DejaVuSans-65" x="431.722656"/>
      <use xlink:href="#DejaVuSans-20" x="493.246094"/>
      <use xlink:href="#DejaVuSans-54" x="525.033203"/>
      <use xlink:href="#DejaVuSans-68" x="586.117188"/>
      <use xlink:href="#DejaVuSans-72" x="649.496094"/>
      <use xlink:href="#DejaVuSans-65" x="688.359375"/>
      <use xlink:href="#DejaVuSans-73" x="749.882812"/>
      <use xlink:href="#DejaVuSans-68" x="801.982422"/>
      <use xlink:href="#DejaVuSans-6f" x="865.361328"/>
      <use xlink:href="#DejaVuSans-6c" x="926.542969"/>
      <use xlink:href="#DejaVuSans-64" x="954.326172"/>
     </g>
     <!-- (Using "max_mean" Threshold Handling) -->
     <g transform="translate(400.740313 557.78075) scale(0.2 -0.2)">
      <defs>
       <path id="DejaVuSans-28" d="M 1984 4856 
Q 1566 4138 1362 3434 
Q 1159 2731 1159 2009 
Q 1159 1288 1364 580 
Q 1569 -128 1984 -844 
L 1484 -844 
Q 1016 -109 783 600 
Q 550 1309 550 2009 
Q 550 2706 781 3412 
Q 1013 4119 1484 4856 
L 1984 4856 
z
" transform="scale(0.015625)"/>
       <path id="DejaVuSans-55" d="M 556 4666 
L 1191 4666 
L 1191 1831 
Q 1191 1081 1462 751 
Q 1734 422 2344 422 
Q 2950 422 3222 751 
Q 3494 1081 3494 1831 
L 3494 4666 
L 4128 4666 
L 4128 1753 
Q 4128 841 3676 375 
Q 3225 -91 2344 -91 
Q 1459 -91 1007 375 
Q 556 841 556 1753 
L 556 4666 
z
" transform="scale(0.015625)"/>
       <path id="DejaVuSans-67" d="M 2906 1791 
Q 2906 2416 2648 2759 
Q 2391 3103 1925 3103 
Q 1463 3103 1205 2759 
Q 947 2416 947 1791 
Q 947 1169 1205 825 
Q 1463 481 1925 481 
Q 2391 481 2648 825 
Q 2906 1169 2906 1791 
z
M 3481 434 
Q 3481 -459 3084 -895 
Q 2688 -1331 1869 -1331 
Q 1566 -1331 1297 -1286 
Q 1028 -1241 775 -1147 
L 775 -588 
Q 1028 -725 1275 -790 
Q 1522 -856 1778 -856 
Q 2344 -856 2625 -561 
Q 2906 -266 2906 331 
L 2906 616 
Q 2728 306 2450 153 
Q 2172 0 1784 0 
Q 1141 0 747 490 
Q 353 981 353 1791 
Q 353 2603 747 3093 
Q 1141 3584 1784 3584 
Q 2172 3584 2450 3431 
Q 2728 3278 2906 2969 
L 2906 3500 
L 3481 3500 
L 3481 434 
z
" transform="scale(0.015625)"/>
       <path id="DejaVuSans-22" d="M 1147 4666 
L 1147 2931 
L 616 2931 
L 616 4666 
L 1147 4666 
z
M 2328 4666 
L 2328 2931 
L 1797 2931 
L 1797 4666 
L 2328 4666 
z
" transform="scale(0.015625)"/>
       <path id="DejaVuSans-6d" d="M 3328 2828 
Q 3544 3216 3844 3400 
Q 4144 3584 4550 3584 
Q 5097 3584 5394 3201 
Q 5691 2819 5691 2113 
L 5691 0 
L 5113 0 
L 5113 2094 
Q 5113 2597 4934 2840 
Q 4756 3084 4391 3084 
Q 3944 3084 3684 2787 
Q 3425 2491 3425 1978 
L 3425 0 
L 2847 0 
L 2847 2094 
Q 2847 2600 2669 2842 
Q 2491 3084 2119 3084 
Q 1678 3084 1418 2786 
Q 1159 2488 1159 1978 
L 1159 0 
L 581 0 
L 581 3500 
L 1159 3500 
L 1159 2956 
Q 1356 3278 1631 3431 
Q 1906 3584 2284 3584 
Q 2666 3584 2933 3390 
Q 3200 3197 3328 2828 
z
" transform="scale(0.015625)"/>
       <path id="DejaVuSans-61" d="M 2194 1759 
Q 1497 1759 1228 1600 
Q 959 1441 959 1056 
Q 959 750 1161 570 
Q 1363 391 1709 391 
Q 2188 391 2477 730 
Q 2766 1069 2766 1631 
L 2766 1759 
L 2194 1759 
z
M 3341 1997 
L 3341 0 
L 2766 0 
L 2766 531 
Q 2569 213 2275 61 
Q 1981 -91 1556 -91 
Q 1019 -91 701 211 
Q 384 513 384 1019 
Q 384 1609 779 1909 
Q 1175 2209 1959 2209 
L 2766 2209 
L 2766 2266 
Q 2766 2663 2505 2880 
Q 2244 3097 1772 3097 
Q 1472 3097 1187 3025 
Q 903 2953 641 2809 
L 641 3341 
Q 956 3463 1253 3523 
Q 1550 3584 1831 3584 
Q 2591 3584 2966 3190 
Q 3341 2797 3341 1997 
z
" transform="scale(0.015625)"/>
       <path id="DejaVuSans-78" d="M 3513 3500 
L 2247 1797 
L 3578 0 
L 2900 0 
L 1881 1375 
L 863 0 
L 184 0 
L 1544 1831 
L 300 3500 
L 978 3500 
L 1906 2253 
L 2834 3500 
L 3513 3500 
z
" transform="scale(0.015625)"/>
       <path id="DejaVuSans-5f" d="M 3263 -1063 
L 3263 -1509 
L -63 -1509 
L -63 -1063 
L 3263 -1063 
z
" transform="scale(0.015625)"/>
       <path id="DejaVuSans-48" d="M 628 4666 
L 1259 4666 
L 1259 2753 
L 3553 2753 
L 3553 4666 
L 4184 4666 
L 4184 0 
L 3553 0 
L 3553 2222 
L 1259 2222 
L 1259 0 
L 628 0 
L 628 4666 
z
" transform="scale(0.015625)"/>
       <path id="DejaVuSans-29" d="M 513 4856 
L 1013 4856 
Q 1481 4119 1714 3412 
Q 1947 2706 1947 2009 
Q 1947 1309 1714 600 
Q 1481 -109 1013 -844 
L 513 -844 
Q 928 -128 1133 580 
Q 1338 1288 1338 2009 
Q 1338 2731 1133 3434 
Q 928 4138 513 4856 
z
" transform="scale(0.015625)"/>
      </defs>
      <use xlink:href="#DejaVuSans-28"/>
      <use xlink:href="#DejaVuSans-55" x="39.013672"/>
      <use xlink:href="#DejaVuSans-73" x="112.207031"/>
      <use xlink:href="#DejaVuSans-69" x="164.306641"/>
      <use xlink:href="#DejaVuSans-6e" x="192.089844"/>
      <use xlink:href="#DejaVuSans-67" x="255.46875"/>
      <use xlink:href="#DejaVuSans-20" x="318.945312"/>
      <use xlink:href="#DejaVuSans-22" x="350.732422"/>
      <use xlink:href="#DejaVuSans-6d" x="396.728516"/>
      <use xlink:href="#DejaVuSans-61" x="494.140625"/>
      <use xlink:href="#DejaVuSans-78" x="555.419922"/>
      <use xlink:href="#DejaVuSans-5f" x="614.599609"/>
      <use xlink:href="#DejaVuSans-6d" x="664.599609"/>
      <use xlink:href="#DejaVuSans-65" x="762.011719"/>
      <use xlink:href="#DejaVuSans-61" x="823.535156"/>
      <use xlink:href="#DejaVuSans-6e" x="884.814453"/>
      <use xlink:href="#DejaVuSans-22" x="948.193359"/>
      <use xlink:href="#DejaVuSans-20" x="994.189453"/>
      <use xlink:href="#DejaVuSans-54" x="1025.976562"/>
      <use xlink:href="#DejaVuSans-68" x="1087.060547"/>
      <use xlink:href="#DejaVuSans-72" x="1150.439453"/>
      <use xlink:href="#DejaVuSans-65" x="1189.302734"/>
      <use xlink:href="#DejaVuSans-73" x="1250.826172"/>
      <use xlink:href="#DejaVuSans-68" x="1302.925781"/>
      <use xlink:href="#DejaVuSans-6f" x="1366.304688"/>
      <use xlink:href="#DejaVuSans-6c" x="1427.486328"/>
      <use xlink:href="#DejaVuSans-64" x="1455.269531"/>
      <use xlink:href="#DejaVuSans-20" x="1518.746094"/>
      <use xlink:href="#DejaVuSans-48" x="1550.533203"/>
      <use xlink:href="#DejaVuSans-61" x="1625.728516"/>
      <use xlink:href="#DejaVuSans-6e" x="1687.007812"/>
      <use xlink:href="#DejaVuSans-64" x="1750.386719"/>
      <use xlink:href="#DejaVuSans-6c" x="1813.863281"/>
      <use xlink:href="#DejaVuSans-69" x="1841.646484"/>
      <use xlink:href="#DejaVuSans-6e" x="1869.429688"/>
      <use xlink:href="#DejaVuSans-67" x="1932.808594"/>
      <use xlink:href="#DejaVuSans-29" x="1996.285156"/>
     </g>
    </g>
   </g>
   <g id="matplotlib.axis_2">
    <g id="ytick_1">
     <g id="line2d_6">
      <defs>
       <path id="m7005e55112" d="M 0 0 
L -3.5 0 
" style="stroke: #000000; stroke-width: 0.8"/>
      </defs>
      <g>
       <use xlink:href="#m7005e55112" x="67.34" y="483.780854" style="stroke: #000000; stroke-width: 0.8"/>
      </g>
     </g>
     <g id="text_7">
      <!-- 5 -->
      <g transform="translate(47.615 491.379292) scale(0.2 -0.2)">
       <defs>
        <path id="DejaVuSans-35" d="M 691 4666 
L 3169 4666 
L 3169 4134 
L 1269 4134 
L 1269 2991 
Q 1406 3038 1543 3061 
Q 1681 3084 1819 3084 
Q 2600 3084 3056 2656 
Q 3513 2228 3513 1497 
Q 3513 744 3044 326 
Q 2575 -91 1722 -91 
Q 1428 -91 1123 -41 
Q 819 9 494 109 
L 494 744 
Q 775 591 1075 516 
Q 1375 441 1709 441 
Q 2250 441 2565 725 
Q 2881 1009 2881 1497 
Q 2881 1984 2565 2268 
Q 2250 2553 1709 2553 
Q 1456 2553 1204 2497 
Q 953 2441 691 2322 
L 691 4666 
z
" transform="scale(0.015625)"/>
       </defs>
       <use xlink:href="#DejaVuSans-35"/>
      </g>
     </g>
    </g>
    <g id="ytick_2">
     <g id="line2d_7">
      <g>
       <use xlink:href="#m7005e55112" x="67.34" y="401.376095" style="stroke: #000000; stroke-width: 0.8"/>
      </g>
     </g>
     <g id="text_8">
      <!-- 6 -->
      <g transform="translate(47.615 408.974532) scale(0.2 -0.2)">
       <use xlink:href="#DejaVuSans-36"/>
      </g>
     </g>
    </g>
    <g id="ytick_3">
     <g id="line2d_8">
      <g>
       <use xlink:href="#m7005e55112" x="67.34" y="318.971335" style="stroke: #000000; stroke-width: 0.8"/>
      </g>
     </g>
     <g id="text_9">
      <!-- 7 -->
      <g transform="translate(47.615 326.569773) scale(0.2 -0.2)">
       <defs>
        <path id="DejaVuSans-37" d="M 525 4666 
L 3525 4666 
L 3525 4397 
L 1831 0 
L 1172 0 
L 2766 4134 
L 525 4134 
L 525 4666 
z
" transform="scale(0.015625)"/>
       </defs>
       <use xlink:href="#DejaVuSans-37"/>
      </g>
     </g>
    </g>
    <g id="ytick_4">
     <g id="line2d_9">
      <g>
       <use xlink:href="#m7005e55112" x="67.34" y="236.566576" style="stroke: #000000; stroke-width: 0.8"/>
      </g>
     </g>
     <g id="text_10">
      <!-- 8 -->
      <g transform="translate(47.615 244.165014) scale(0.2 -0.2)">
       <use xlink:href="#DejaVuSans-38"/>
      </g>
     </g>
    </g>
    <g id="ytick_5">
     <g id="line2d_10">
      <g>
       <use xlink:href="#m7005e55112" x="67.34" y="154.161817" style="stroke: #000000; stroke-width: 0.8"/>
      </g>
     </g>
     <g id="text_11">
      <!-- 9 -->
      <g transform="translate(47.615 161.760254) scale(0.2 -0.2)">
       <defs>
        <path id="DejaVuSans-39" d="M 703 97 
L 703 672 
Q 941 559 1184 500 
Q 1428 441 1663 441 
Q 2288 441 2617 861 
Q 2947 1281 2994 2138 
Q 2813 1869 2534 1725 
Q 2256 1581 1919 1581 
Q 1219 1581 811 2004 
Q 403 2428 403 3163 
Q 403 3881 828 4315 
Q 1253 4750 1959 4750 
Q 2769 4750 3195 4129 
Q 3622 3509 3622 2328 
Q 3622 1225 3098 567 
Q 2575 -91 1691 -91 
Q 1453 -91 1209 -44 
Q 966 3 703 97 
z
M 1959 2075 
Q 2384 2075 2632 2365 
Q 2881 2656 2881 3163 
Q 2881 3666 2632 3958 
Q 2384 4250 1959 4250 
Q 1534 4250 1286 3958 
Q 1038 3666 1038 3163 
Q 1038 2656 1286 2365 
Q 1534 2075 1959 2075 
z
" transform="scale(0.015625)"/>
       </defs>
       <use xlink:href="#DejaVuSans-39"/>
      </g>
     </g>
    </g>
    <g id="ytick_6">
     <g id="line2d_11">
      <g>
       <use xlink:href="#m7005e55112" x="67.34" y="71.757057" style="stroke: #000000; stroke-width: 0.8"/>
      </g>
     </g>
     <g id="text_12">
      <!-- 10 -->
      <g transform="translate(34.89 79.355495) scale(0.2 -0.2)">
       <defs>
        <path id="DejaVuSans-31" d="M 794 531 
L 1825 531 
L 1825 4091 
L 703 3866 
L 703 4441 
L 1819 4666 
L 2450 4666 
L 2450 531 
L 3481 531 
L 3481 0 
L 794 0 
L 794 531 
z
" transform="scale(0.015625)"/>
       </defs>
       <use xlink:href="#DejaVuSans-31"/>
       <use xlink:href="#DejaVuSans-30" x="63.623047"/>
      </g>
     </g>
    </g>
    <g id="text_13">
     <!-- MAE -->
     <g transform="translate(26.730625 272.1035) rotate(-90) scale(0.2 -0.2)">
      <defs>
       <path id="DejaVuSans-4d" d="M 628 4666 
L 1569 4666 
L 2759 1491 
L 3956 4666 
L 4897 4666 
L 4897 0 
L 4281 0 
L 4281 4097 
L 3078 897 
L 2444 897 
L 1241 4097 
L 1241 0 
L 628 0 
L 628 4666 
z
" transform="scale(0.015625)"/>
       <path id="DejaVuSans-41" d="M 2188 4044 
L 1331 1722 
L 3047 1722 
L 2188 4044 
z
M 1831 4666 
L 2547 4666 
L 4325 0 
L 3669 0 
L 3244 1197 
L 1141 1197 
L 716 0 
L 50 0 
L 1831 4666 
z
" transform="scale(0.015625)"/>
       <path id="DejaVuSans-45" d="M 628 4666 
L 3578 4666 
L 3578 4134 
L 1259 4134 
L 1259 2753 
L 3481 2753 
L 3481 2222 
L 1259 2222 
L 1259 531 
L 3634 531 
L 3634 0 
L 628 0 
L 628 4666 
z
" transform="scale(0.015625)"/>
      </defs>
      <use xlink:href="#DejaVuSans-4d"/>
      <use xlink:href="#DejaVuSans-41" x="86.279297"/>
      <use xlink:href="#DejaVuSans-45" x="154.6875"/>
     </g>
    </g>
   </g>
   <g id="line2d_12">
    <path d="M 116.151818 440.142466 
L 136.922805 452.930099 
L 157.693791 453.610219 
L 178.464778 448.039133 
L 199.235764 446.801203 
L 220.00675 457.328661 
L 240.777737 451.873127 
L 261.548723 449.632383 
L 282.31971 431.418315 
L 303.090696 440.821173 
L 323.861683 435.100063 
L 344.632669 434.280357 
L 365.403656 440.254282 
L 386.174642 445.882476 
L 406.945629 441.220364 
L 427.716615 439.616491 
L 448.487602 445.049896 
L 469.258588 446.20393 
L 490.029574 424.597964 
L 510.800561 431.236819 
L 531.571547 429.66878 
L 552.342534 425.87412 
L 573.11352 440.223469 
L 593.884507 440.317142 
L 614.655493 433.16804 
L 635.42648 436.055928 
L 656.197466 436.203848 
L 676.968453 432.973578 
L 697.739439 431.505948 
L 718.510426 446.369668 
L 739.281412 443.582699 
L 760.052398 437.384357 
L 780.823385 444.003611 
L 801.594371 432.343668 
L 822.365358 427.555249 
L 843.136344 431.810647 
L 863.907331 442.051768 
L 884.678317 430.583478 
L 905.449304 430.921228 
L 926.22029 437.131386 
L 946.991277 437.131386 
L 967.762263 437.935073 
L 988.53325 437.131386 
L 1009.304236 437.131386 
L 1030.075222 437.131386 
L 1050.846209 437.131386 
L 1071.617195 437.131386 
L 1092.388182 437.131386 
" clip-path="url(#pe33f35c00a)" style="fill: none; stroke: #f77189; stroke-width: 1.5; stroke-linecap: square"/>
   </g>
   <g id="line2d_13">
    <path d="M 116.151818 428.959938 
L 136.922805 443.223597 
L 157.693791 443.719286 
L 178.464778 440.312578 
L 199.235764 439.222639 
L 220.00675 442.793154 
L 240.777737 436.316543 
L 261.548723 430.172608 
L 282.31971 417.715829 
L 303.090696 428.389072 
L 323.861683 427.082395 
L 344.632669 419.54376 
L 365.403656 426.621099 
L 386.174642 429.610651 
L 406.945629 430.737305 
L 427.716615 428.698174 
L 448.487602 430.772362 
L 469.258588 420.154808 
L 490.029574 408.844389 
L 510.800561 410.077829 
L 531.571547 400.620821 
L 552.342534 400.693921 
L 573.11352 418.039439 
L 593.884507 416.138393 
L 614.655493 414.465784 
L 635.42648 412.120855 
L 656.197466 413.246323 
L 676.968453 412.788569 
L 697.739439 410.274949 
L 718.510426 421.561617 
L 739.281412 422.223581 
L 760.052398 418.94583 
L 780.823385 425.722619 
L 801.594371 412.627969 
L 822.365358 412.169972 
L 843.136344 410.83363 
L 863.907331 414.83783 
L 884.678317 419.921483 
L 905.449304 414.282188 
L 926.22029 419.768236 
L 946.991277 419.768236 
L 967.762263 418.903628 
L 988.53325 419.768236 
L 1009.304236 419.768236 
L 1030.075222 419.768236 
L 1050.846209 419.768236 
L 1071.617195 419.768236 
L 1092.388182 419.768236 
" clip-path="url(#pe33f35c00a)" style="fill: none; stroke: #e18632; stroke-width: 1.5; stroke-linecap: square"/>
   </g>
   <g id="line2d_14">
    <path d="M 116.151818 412.119804 
L 136.922805 420.667598 
L 157.693791 428.506926 
L 178.464778 414.117657 
L 199.235764 428.059781 
L 220.00675 426.681003 
L 240.777737 424.20273 
L 261.548723 421.296807 
L 282.31971 409.65619 
L 303.090696 412.163899 
L 323.861683 412.140518 
L 344.632669 407.696436 
L 365.403656 412.936065 
L 386.174642 421.983117 
L 406.945629 417.525075 
L 427.716615 420.747849 
L 448.487602 415.693078 
L 469.258588 405.780605 
L 490.029574 389.972241 
L 510.800561 402.793601 
L 531.571547 397.556328 
L 552.342534 394.439818 
L 573.11352 416.485313 
L 593.884507 416.483957 
L 614.655493 410.441714 
L 635.42648 407.577807 
L 656.197466 407.010413 
L 676.968453 405.778967 
L 697.739439 406.631683 
L 718.510426 419.022067 
L 739.281412 416.669901 
L 760.052398 417.70269 
L 780.823385 417.796447 
L 801.594371 405.712644 
L 822.365358 403.713635 
L 843.136344 405.285969 
L 863.907331 407.715278 
L 884.678317 402.529951 
L 905.449304 402.19071 
L 926.22029 403.314494 
L 946.991277 403.314494 
L 967.762263 406.35224 
L 988.53325 403.314494 
L 1009.304236 403.314494 
L 1030.075222 403.314494 
L 1050.846209 403.314494 
L 1071.617195 403.314494 
L 1092.388182 403.314494 
" clip-path="url(#pe33f35c00a)" style="fill: none; stroke: #b59a32; stroke-width: 1.5; stroke-linecap: square"/>
   </g>
   <g id="line2d_15">
    <path d="M 116.151818 440.467672 
L 136.922805 455.289843 
L 157.693791 451.759629 
L 178.464778 455.938373 
L 199.235764 440.087117 
L 220.00675 446.971855 
L 240.777737 448.362443 
L 261.548723 440.545176 
L 282.31971 442.524141 
L 303.090696 432.690189 
L 323.861683 433.912041 
L 344.632669 432.178096 
L 365.403656 430.211545 
L 386.174642 433.630887 
L 406.945629 413.39923 
L 427.716615 432.251982 
L 448.487602 435.392679 
L 469.258588 426.479294 
L 490.029574 412.026377 
L 510.800561 426.686418 
L 531.571547 425.013366 
L 552.342534 419.429041 
L 573.11352 427.02888 
L 593.884507 427.999756 
L 614.655493 423.488795 
L 635.42648 421.244875 
L 656.197466 419.518717 
L 676.968453 421.547798 
L 697.739439 415.232721 
L 718.510426 432.667078 
L 739.281412 429.772896 
L 760.052398 441.015681 
L 780.823385 445.927732 
L 801.594371 429.033996 
L 822.365358 437.608919 
L 843.136344 425.891145 
L 863.907331 426.189872 
L 884.678317 437.969679 
L 905.449304 444.256384 
L 926.22029 429.859468 
L 946.991277 429.859468 
L 967.762263 437.094607 
L 988.53325 429.859468 
L 1009.304236 429.859468 
L 1030.075222 429.859468 
L 1050.846209 429.859468 
L 1071.617195 429.859468 
L 1092.388182 429.859468 
" clip-path="url(#pe33f35c00a)" style="fill: none; stroke: #8ba731; stroke-width: 1.5; stroke-linecap: square"/>
   </g>
   <g id="line2d_16">
    <path d="M 116.151818 298.581661 
L 136.922805 305.57354 
L 157.693791 319.661272 
L 178.464778 299.423357 
L 199.235764 299.072921 
L 220.00675 333.073027 
L 240.777737 307.950445 
L 261.548723 313.079598 
L 282.31971 266.881251 
L 303.090696 274.594826 
L 323.861683 277.15469 
L 344.632669 258.96015 
L 365.403656 300.300685 
L 386.174642 295.540333 
L 406.945629 295.770702 
L 427.716615 291.683425 
L 448.487602 278.047957 
L 469.258588 266.135959 
L 490.029574 249.82742 
L 510.800561 262.765089 
L 531.571547 273.301983 
L 552.342534 262.625189 
L 573.11352 289.454527 
L 593.884507 288.506683 
L 614.655493 286.745506 
L 635.42648 288.97785 
L 656.197466 287.52137 
L 676.968453 284.399637 
L 697.739439 281.61526 
L 718.510426 296.395705 
L 739.281412 295.913319 
L 760.052398 300.419882 
L 780.823385 315.993986 
L 801.594371 302.106457 
L 822.365358 286.288084 
L 843.136344 286.589367 
L 863.907331 274.895277 
L 884.678317 275.881441 
L 905.449304 283.5506 
L 926.22029 298.312079 
L 946.991277 298.312079 
L 967.762263 300.377766 
L 988.53325 298.312079 
L 1009.304236 298.312079 
L 1030.075222 298.312079 
L 1050.846209 298.312079 
L 1071.617195 298.312079 
L 1092.388182 298.312079 
" clip-path="url(#pe33f35c00a)" style="fill: none; stroke: #32b258; stroke-width: 1.5; stroke-linecap: square"/>
   </g>
   <g id="line2d_17">
    <path d="M 116.151818 342.899713 
L 136.922805 356.220863 
L 157.693791 357.476386 
L 178.464778 343.791507 
L 199.235764 347.707082 
L 220.00675 344.90695 
L 240.777737 350.73818 
L 261.548723 340.896711 
L 282.31971 340.628393 
L 303.090696 345.682145 
L 323.861683 346.430304 
L 344.632669 344.547854 
L 365.403656 344.037316 
L 386.174642 354.305042 
L 406.945629 346.365232 
L 427.716615 348.38864 
L 448.487602 350.715999 
L 469.258588 341.752094 
L 490.029574 324.22484 
L 510.800561 338.725523 
L 531.571547 339.438589 
L 552.342534 334.831954 
L 573.11352 339.084471 
L 593.884507 339.266508 
L 614.655493 337.264714 
L 635.42648 334.536819 
L 656.197466 333.641625 
L 676.968453 333.951323 
L 697.739439 338.567523 
L 718.510426 346.675551 
L 739.281412 342.457146 
L 760.052398 340.245536 
L 780.823385 344.794187 
L 801.594371 344.926821 
L 822.365358 341.231467 
L 843.136344 337.553133 
L 863.907331 341.596279 
L 884.678317 331.655743 
L 905.449304 335.959679 
L 926.22029 333.859884 
L 946.991277 333.859884 
L 967.762263 334.673808 
L 988.53325 333.859884 
L 1009.304236 333.859884 
L 1030.075222 333.859884 
L 1050.846209 333.859884 
L 1071.617195 333.859884 
L 1092.388182 333.859884 
" clip-path="url(#pe33f35c00a)" style="fill: none; stroke: #35ae95; stroke-width: 1.5; stroke-linecap: square"/>
   </g>
   <g id="line2d_18">
    <path d="M 116.151818 191.721831 
L 136.922805 195.03692 
L 157.693791 201.910803 
L 178.464778 199.000181 
L 199.235764 194.485404 
L 220.00675 202.961956 
L 240.777737 198.494086 
L 261.548723 194.496524 
L 282.31971 185.623835 
L 303.090696 184.803483 
L 323.861683 183.17429 
L 344.632669 181.848368 
L 365.403656 186.01327 
L 386.174642 194.02863 
L 406.945629 187.51054 
L 427.716615 190.383619 
L 448.487602 193.709348 
L 469.258588 185.115593 
L 490.029574 177.99757 
L 510.800561 181.626082 
L 531.571547 183.321231 
L 552.342534 180.688909 
L 573.11352 184.644763 
L 593.884507 185.723667 
L 614.655493 181.108414 
L 635.42648 177.81701 
L 656.197466 179.788546 
L 676.968453 179.933749 
L 697.739439 178.906913 
L 718.510426 188.891787 
L 739.281412 186.420679 
L 760.052398 187.750757 
L 780.823385 186.225711 
L 801.594371 187.497467 
L 822.365358 183.393146 
L 843.136344 183.265867 
L 863.907331 186.939122 
L 884.678317 187.234077 
L 905.449304 184.73589 
L 926.22029 188.237567 
L 946.991277 188.237567 
L 967.762263 187.583905 
L 988.53325 188.237567 
L 1009.304236 188.237567 
L 1030.075222 188.237567 
L 1050.846209 188.237567 
L 1071.617195 188.237567 
L 1092.388182 188.237567 
" clip-path="url(#pe33f35c00a)" style="fill: none; stroke: #37abb2; stroke-width: 1.5; stroke-linecap: square"/>
   </g>
   <g id="line2d_19">
    <path d="M 116.151818 191.727991 
L 136.922805 195.013469 
L 157.693791 201.925825 
L 178.464778 199.025356 
L 199.235764 194.524529 
L 220.00675 202.975127 
L 240.777737 198.513127 
L 261.548723 194.512023 
L 282.31971 185.640362 
L 303.090696 184.804561 
L 323.861683 183.173623 
L 344.632669 181.82188 
L 365.403656 186.014603 
L 386.174642 194.067667 
L 406.945629 187.501263 
L 427.716615 190.391112 
L 448.487602 193.68317 
L 469.258588 185.118498 
L 490.029574 178.040215 
L 510.800561 181.616414 
L 531.571547 183.332106 
L 552.342534 180.6824 
L 573.11352 184.670106 
L 593.884507 185.749198 
L 614.655493 181.133733 
L 635.42648 177.853481 
L 656.197466 179.81736 
L 676.968453 179.960983 
L 697.739439 178.94026 
L 718.510426 188.91991 
L 739.281412 186.424123 
L 760.052398 187.742662 
L 780.823385 186.206412 
L 801.594371 187.482074 
L 822.365358 183.412474 
L 843.136344 183.237624 
L 863.907331 187.008487 
L 884.678317 187.226709 
L 905.449304 184.735306 
L 926.22029 188.27154 
L 946.991277 188.27154 
L 967.762263 187.613614 
L 988.53325 188.27154 
L 1009.304236 188.27154 
L 1030.075222 188.27154 
L 1050.846209 188.27154 
L 1071.617195 188.27154 
L 1092.388182 188.27154 
" clip-path="url(#pe33f35c00a)" style="fill: none; stroke: #39a7d6; stroke-width: 1.5; stroke-linecap: square"/>
   </g>
   <g id="line2d_20">
    <path d="M 116.151818 274.762157 
L 136.922805 272.166599 
L 157.693791 291.801977 
L 178.464778 255.799377 
L 199.235764 266.797318 
L 220.00675 305.516076 
L 240.777737 275.829907 
L 261.548723 279.818281 
L 282.31971 250.519634 
L 303.090696 246.422003 
L 323.861683 253.44608 
L 344.632669 239.372758 
L 365.403656 274.432845 
L 386.174642 268.904414 
L 406.945629 255.418072 
L 427.716615 255.804869 
L 448.487602 237.930684 
L 469.258588 233.755988 
L 490.029574 206.222632 
L 510.800561 234.86113 
L 531.571547 256.223136 
L 552.342534 245.321677 
L 573.11352 254.21958 
L 593.884507 262.800248 
L 614.655493 264.055834 
L 635.42648 253.39316 
L 656.197466 248.709412 
L 676.968453 245.678728 
L 697.739439 249.647488 
L 718.510426 269.600098 
L 739.281412 269.249735 
L 760.052398 270.090705 
L 780.823385 274.141669 
L 801.594371 287.35253 
L 822.365358 249.768322 
L 843.136344 264.582866 
L 863.907331 249.362004 
L 884.678317 240.383012 
L 905.449304 244.000992 
L 926.22029 269.424955 
L 946.991277 269.424955 
L 967.762263 270.164842 
L 988.53325 269.424955 
L 1009.304236 269.424955 
L 1030.075222 269.424955 
L 1050.846209 269.424955 
L 1071.617195 269.424955 
L 1092.388182 269.424955 
" clip-path="url(#pe33f35c00a)" style="fill: none; stroke: #8f93f4; stroke-width: 1.5; stroke-linecap: square"/>
   </g>
   <g id="line2d_21">
    <path d="M 116.151818 136.141614 
L 136.922805 152.836411 
L 157.693791 161.776392 
L 178.464778 149.099422 
L 199.235764 155.884594 
L 220.00675 157.654567 
L 240.777737 150.992466 
L 261.548723 157.603055 
L 282.31971 148.358653 
L 303.090696 134.879964 
L 323.861683 143.824803 
L 344.632669 140.564853 
L 365.403656 143.502162 
L 386.174642 151.128093 
L 406.945629 132.027359 
L 427.716615 140.400924 
L 448.487602 146.47662 
L 469.258588 132.799119 
L 490.029574 119.349734 
L 510.800561 130.441972 
L 531.571547 124.433538 
L 552.342534 117.590831 
L 573.11352 132.272824 
L 593.884507 128.512644 
L 614.655493 124.735329 
L 635.42648 118.811258 
L 656.197466 122.533316 
L 676.968453 117.869154 
L 697.739439 122.609941 
L 718.510426 130.563808 
L 739.281412 127.082268 
L 760.052398 130.949874 
L 780.823385 118.915509 
L 801.594371 132.583187 
L 822.365358 141.541588 
L 843.136344 121.381615 
L 863.907331 127.707409 
L 884.678317 135.459025 
L 905.449304 115.828475 
L 926.22029 121.760407 
L 946.991277 121.760407 
L 967.762263 119.692443 
L 988.53325 121.760407 
L 1009.304236 121.760407 
L 1030.075222 121.760407 
L 1050.846209 121.760407 
L 1071.617195 121.760407 
L 1092.388182 121.760407 
" clip-path="url(#pe33f35c00a)" style="fill: none; stroke: #db70f4; stroke-width: 1.5; stroke-linecap: square"/>
   </g>
   <g id="line2d_22">
    <path d="M 116.151818 100.590464 
L 136.922805 84.152725 
L 157.693791 95.908361 
L 178.464778 96.829079 
L 199.235764 101.429569 
L 220.00675 84.843751 
L 240.777737 113.293922 
L 261.548723 107.00277 
L 282.31971 84.25064 
L 303.090696 104.671473 
L 323.861683 94.614947 
L 344.632669 91.988149 
L 365.403656 87.757214 
L 386.174642 96.948885 
L 406.945629 76.429891 
L 427.716615 82.011024 
L 448.487602 86.951989 
L 469.258588 65.286659 
L 490.029574 57.306607 
L 510.800561 87.99984 
L 531.571547 80.923542 
L 552.342534 84.993847 
L 573.11352 84.705267 
L 593.884507 88.622713 
L 614.655493 92.260164 
L 635.42648 92.901189 
L 656.197466 95.224246 
L 676.968453 96.700273 
L 697.739439 95.396503 
L 718.510426 100.487827 
L 739.281412 98.250222 
L 760.052398 94.643546 
L 780.823385 96.29805 
L 801.594371 90.808698 
L 822.365358 101.607154 
L 843.136344 82.2377 
L 863.907331 81.491728 
L 884.678317 76.60851 
L 905.449304 97.421061 
L 926.22029 88.264506 
L 946.991277 88.264506 
L 967.762263 90.28513 
L 988.53325 88.264506 
L 1009.304236 88.264506 
L 1030.075222 88.264506 
L 1050.846209 88.264506 
L 1071.617195 88.264506 
L 1092.388182 88.264506 
" clip-path="url(#pe33f35c00a)" style="fill: none; stroke: #f667c6; stroke-width: 1.5; stroke-linecap: square"/>
   </g>
   <g id="line2d_23"/>
   <g id="line2d_24"/>
   <g id="line2d_25"/>
   <g id="line2d_26"/>
   <g id="line2d_27"/>
   <g id="line2d_28"/>
   <g id="line2d_29"/>
   <g id="line2d_30"/>
   <g id="line2d_31"/>
   <g id="line2d_32"/>
   <g id="line2d_33"/>
   <g id="patch_3">
    <path d="M 67.34 489.832 
L 67.34 10.8 
" style="fill: none; stroke: #000000; stroke-width: 0.8; stroke-linejoin: miter; stroke-linecap: square"/>
   </g>
   <g id="patch_4">
    <path d="M 1141.2 489.832 
L 1141.2 10.8 
" style="fill: none; stroke: #000000; stroke-width: 0.8; stroke-linejoin: miter; stroke-linecap: square"/>
   </g>
   <g id="patch_5">
    <path d="M 67.34 489.832 
L 1141.2 489.832 
" style="fill: none; stroke: #000000; stroke-width: 0.8; stroke-linejoin: miter; stroke-linecap: square"/>
   </g>
   <g id="patch_6">
    <path d="M 67.34 10.8 
L 1141.2 10.8 
" style="fill: none; stroke: #000000; stroke-width: 0.8; stroke-linejoin: miter; stroke-linecap: square"/>
   </g>
   <g id="legend_1">
    <g id="patch_7">
     <path d="M 78.54 481.832 
L 248.285 481.832 
Q 251.485 481.832 251.485 478.632 
L 251.485 221.897 
Q 251.485 218.697 248.285 218.697 
L 78.54 218.697 
Q 75.34 218.697 75.34 221.897 
L 75.34 478.632 
Q 75.34 481.832 78.54 481.832 
z
" style="fill: #ffffff; opacity: 0.8; stroke: #cccccc; stroke-linejoin: miter"/>
    </g>
    <g id="line2d_34">
     <path d="M 81.74 231.6545 
L 97.74 231.6545 
L 113.74 231.6545 
" style="fill: none; stroke: #f77189; stroke-width: 1.5; stroke-linecap: square"/>
    </g>
    <g id="text_14">
     <!-- gbr -->
     <g transform="translate(126.54 237.2545) scale(0.16 -0.16)">
      <defs>
       <path id="DejaVuSans-62" d="M 3116 1747 
Q 3116 2381 2855 2742 
Q 2594 3103 2138 3103 
Q 1681 3103 1420 2742 
Q 1159 2381 1159 1747 
Q 1159 1113 1420 752 
Q 1681 391 2138 391 
Q 2594 391 2855 752 
Q 3116 1113 3116 1747 
z
M 1159 2969 
Q 1341 3281 1617 3432 
Q 1894 3584 2278 3584 
Q 2916 3584 3314 3078 
Q 3713 2572 3713 1747 
Q 3713 922 3314 415 
Q 2916 -91 2278 -91 
Q 1894 -91 1617 61 
Q 1341 213 1159 525 
L 1159 0 
L 581 0 
L 581 4863 
L 1159 4863 
L 1159 2969 
z
" transform="scale(0.015625)"/>
      </defs>
      <use xlink:href="#DejaVuSans-67"/>
      <use xlink:href="#DejaVuSans-62" x="63.476562"/>
      <use xlink:href="#DejaVuSans-72" x="126.953125"/>
     </g>
    </g>
    <g id="line2d_35">
     <path d="M 81.74 255.1395 
L 97.74 255.1395 
L 113.74 255.1395 
" style="fill: none; stroke: #e18632; stroke-width: 1.5; stroke-linecap: square"/>
    </g>
    <g id="text_15">
     <!-- lgbm -->
     <g transform="translate(126.54 260.7395) scale(0.16 -0.16)">
      <use xlink:href="#DejaVuSans-6c"/>
      <use xlink:href="#DejaVuSans-67" x="27.783203"/>
      <use xlink:href="#DejaVuSans-62" x="91.259766"/>
      <use xlink:href="#DejaVuSans-6d" x="154.736328"/>
     </g>
    </g>
    <g id="line2d_36">
     <path d="M 81.74 278.6245 
L 97.74 278.6245 
L 113.74 278.6245 
" style="fill: none; stroke: #b59a32; stroke-width: 1.5; stroke-linecap: square"/>
    </g>
    <g id="text_16">
     <!-- rf -->
     <g transform="translate(126.54 284.2245) scale(0.16 -0.16)">
      <defs>
       <path id="DejaVuSans-66" d="M 2375 4863 
L 2375 4384 
L 1825 4384 
Q 1516 4384 1395 4259 
Q 1275 4134 1275 3809 
L 1275 3500 
L 2222 3500 
L 2222 3053 
L 1275 3053 
L 1275 0 
L 697 0 
L 697 3053 
L 147 3053 
L 147 3500 
L 697 3500 
L 697 3744 
Q 697 4328 969 4595 
Q 1241 4863 1831 4863 
L 2375 4863 
z
" transform="scale(0.015625)"/>
      </defs>
      <use xlink:href="#DejaVuSans-72"/>
      <use xlink:href="#DejaVuSans-66" x="41.113281"/>
     </g>
    </g>
    <g id="line2d_37">
     <path d="M 81.74 302.1095 
L 97.74 302.1095 
L 113.74 302.1095 
" style="fill: none; stroke: #8ba731; stroke-width: 1.5; stroke-linecap: square"/>
    </g>
    <g id="text_17">
     <!-- xgb -->
     <g transform="translate(126.54 307.7095) scale(0.16 -0.16)">
      <use xlink:href="#DejaVuSans-78"/>
      <use xlink:href="#DejaVuSans-67" x="59.179688"/>
      <use xlink:href="#DejaVuSans-62" x="122.65625"/>
     </g>
    </g>
    <g id="line2d_38">
     <path d="M 81.74 325.5945 
L 97.74 325.5945 
L 113.74 325.5945 
" style="fill: none; stroke: #32b258; stroke-width: 1.5; stroke-linecap: square"/>
    </g>
    <g id="text_18">
     <!-- et -->
     <g transform="translate(126.54 331.1945) scale(0.16 -0.16)">
      <use xlink:href="#DejaVuSans-65"/>
      <use xlink:href="#DejaVuSans-74" x="61.523438"/>
     </g>
    </g>
    <g id="line2d_39">
     <path d="M 81.74 349.0795 
L 97.74 349.0795 
L 113.74 349.0795 
" style="fill: none; stroke: #35ae95; stroke-width: 1.5; stroke-linecap: square"/>
    </g>
    <g id="text_19">
     <!-- BayesianRidge -->
     <g transform="translate(126.54 354.6795) scale(0.16 -0.16)">
      <defs>
       <path id="DejaVuSans-42" d="M 1259 2228 
L 1259 519 
L 2272 519 
Q 2781 519 3026 730 
Q 3272 941 3272 1375 
Q 3272 1813 3026 2020 
Q 2781 2228 2272 2228 
L 1259 2228 
z
M 1259 4147 
L 1259 2741 
L 2194 2741 
Q 2656 2741 2882 2914 
Q 3109 3088 3109 3444 
Q 3109 3797 2882 3972 
Q 2656 4147 2194 4147 
L 1259 4147 
z
M 628 4666 
L 2241 4666 
Q 2963 4666 3353 4366 
Q 3744 4066 3744 3513 
Q 3744 3084 3544 2831 
Q 3344 2578 2956 2516 
Q 3422 2416 3680 2098 
Q 3938 1781 3938 1306 
Q 3938 681 3513 340 
Q 3088 0 2303 0 
L 628 0 
L 628 4666 
z
" transform="scale(0.015625)"/>
       <path id="DejaVuSans-79" d="M 2059 -325 
Q 1816 -950 1584 -1140 
Q 1353 -1331 966 -1331 
L 506 -1331 
L 506 -850 
L 844 -850 
Q 1081 -850 1212 -737 
Q 1344 -625 1503 -206 
L 1606 56 
L 191 3500 
L 800 3500 
L 1894 763 
L 2988 3500 
L 3597 3500 
L 2059 -325 
z
" transform="scale(0.015625)"/>
       <path id="DejaVuSans-52" d="M 2841 2188 
Q 3044 2119 3236 1894 
Q 3428 1669 3622 1275 
L 4263 0 
L 3584 0 
L 2988 1197 
Q 2756 1666 2539 1819 
Q 2322 1972 1947 1972 
L 1259 1972 
L 1259 0 
L 628 0 
L 628 4666 
L 2053 4666 
Q 2853 4666 3247 4331 
Q 3641 3997 3641 3322 
Q 3641 2881 3436 2590 
Q 3231 2300 2841 2188 
z
M 1259 4147 
L 1259 2491 
L 2053 2491 
Q 2509 2491 2742 2702 
Q 2975 2913 2975 3322 
Q 2975 3731 2742 3939 
Q 2509 4147 2053 4147 
L 1259 4147 
z
" transform="scale(0.015625)"/>
      </defs>
      <use xlink:href="#DejaVuSans-42"/>
      <use xlink:href="#DejaVuSans-61" x="68.603516"/>
      <use xlink:href="#DejaVuSans-79" x="129.882812"/>
      <use xlink:href="#DejaVuSans-65" x="189.0625"/>
      <use xlink:href="#DejaVuSans-73" x="250.585938"/>
      <use xlink:href="#DejaVuSans-69" x="302.685547"/>
      <use xlink:href="#DejaVuSans-61" x="330.46875"/>
      <use xlink:href="#DejaVuSans-6e" x="391.748047"/>
      <use xlink:href="#DejaVuSans-52" x="455.126953"/>
      <use xlink:href="#DejaVuSans-69" x="524.609375"/>
      <use xlink:href="#DejaVuSans-64" x="552.392578"/>
      <use xlink:href="#DejaVuSans-67" x="615.869141"/>
      <use xlink:href="#DejaVuSans-65" x="679.345703"/>
     </g>
    </g>
    <g id="line2d_40">
     <path d="M 81.74 372.5645 
L 97.74 372.5645 
L 113.74 372.5645 
" style="fill: none; stroke: #37abb2; stroke-width: 1.5; stroke-linecap: square"/>
    </g>
    <g id="text_20">
     <!-- LassoLars -->
     <g transform="translate(126.54 378.1645) scale(0.16 -0.16)">
      <defs>
       <path id="DejaVuSans-4c" d="M 628 4666 
L 1259 4666 
L 1259 531 
L 3531 531 
L 3531 0 
L 628 0 
L 628 4666 
z
" transform="scale(0.015625)"/>
      </defs>
      <use xlink:href="#DejaVuSans-4c"/>
      <use xlink:href="#DejaVuSans-61" x="55.712891"/>
      <use xlink:href="#DejaVuSans-73" x="116.992188"/>
      <use xlink:href="#DejaVuSans-73" x="169.091797"/>
      <use xlink:href="#DejaVuSans-6f" x="221.191406"/>
      <use xlink:href="#DejaVuSans-4c" x="282.373047"/>
      <use xlink:href="#DejaVuSans-61" x="338.085938"/>
      <use xlink:href="#DejaVuSans-72" x="399.365234"/>
      <use xlink:href="#DejaVuSans-73" x="440.478516"/>
     </g>
    </g>
    <g id="line2d_41">
     <path d="M 81.74 396.0495 
L 97.74 396.0495 
L 113.74 396.0495 
" style="fill: none; stroke: #39a7d6; stroke-width: 1.5; stroke-linecap: square"/>
    </g>
    <g id="text_21">
     <!-- Lasso -->
     <g transform="translate(126.54 401.6495) scale(0.16 -0.16)">
      <use xlink:href="#DejaVuSans-4c"/>
      <use xlink:href="#DejaVuSans-61" x="55.712891"/>
      <use xlink:href="#DejaVuSans-73" x="116.992188"/>
      <use xlink:href="#DejaVuSans-73" x="169.091797"/>
      <use xlink:href="#DejaVuSans-6f" x="221.191406"/>
     </g>
    </g>
    <g id="line2d_42">
     <path d="M 81.74 419.5345 
L 97.74 419.5345 
L 113.74 419.5345 
" style="fill: none; stroke: #8f93f4; stroke-width: 1.5; stroke-linecap: square"/>
    </g>
    <g id="text_22">
     <!-- dt -->
     <g transform="translate(126.54 425.1345) scale(0.16 -0.16)">
      <use xlink:href="#DejaVuSans-64"/>
      <use xlink:href="#DejaVuSans-74" x="63.476562"/>
     </g>
    </g>
    <g id="line2d_43">
     <path d="M 81.74 443.0195 
L 97.74 443.0195 
L 113.74 443.0195 
" style="fill: none; stroke: #db70f4; stroke-width: 1.5; stroke-linecap: square"/>
    </g>
    <g id="text_23">
     <!-- Adaboost -->
     <g transform="translate(126.54 448.6195) scale(0.16 -0.16)">
      <use xlink:href="#DejaVuSans-41"/>
      <use xlink:href="#DejaVuSans-64" x="66.658203"/>
      <use xlink:href="#DejaVuSans-61" x="130.134766"/>
      <use xlink:href="#DejaVuSans-62" x="191.414062"/>
      <use xlink:href="#DejaVuSans-6f" x="254.890625"/>
      <use xlink:href="#DejaVuSans-6f" x="316.072266"/>
      <use xlink:href="#DejaVuSans-73" x="377.253906"/>
      <use xlink:href="#DejaVuSans-74" x="429.353516"/>
     </g>
    </g>
    <g id="line2d_44">
     <path d="M 81.74 466.5045 
L 97.74 466.5045 
L 113.74 466.5045 
" style="fill: none; stroke: #f667c6; stroke-width: 1.5; stroke-linecap: square"/>
    </g>
    <g id="text_24">
     <!-- HubR -->
     <g transform="translate(126.54 472.1045) scale(0.16 -0.16)">
      <defs>
       <path id="DejaVuSans-75" d="M 544 1381 
L 544 3500 
L 1119 3500 
L 1119 1403 
Q 1119 906 1312 657 
Q 1506 409 1894 409 
Q 2359 409 2629 706 
Q 2900 1003 2900 1516 
L 2900 3500 
L 3475 3500 
L 3475 0 
L 2900 0 
L 2900 538 
Q 2691 219 2414 64 
Q 2138 -91 1772 -91 
Q 1169 -91 856 284 
Q 544 659 544 1381 
z
M 1991 3584 
L 1991 3584 
z
" transform="scale(0.015625)"/>
      </defs>
      <use xlink:href="#DejaVuSans-48"/>
      <use xlink:href="#DejaVuSans-75" x="75.195312"/>
      <use xlink:href="#DejaVuSans-62" x="138.574219"/>
      <use xlink:href="#DejaVuSans-52" x="202.050781"/>
     </g>
    </g>
   </g>
  </g>
 </g>
 <defs>
  <clipPath id="pe33f35c00a">
   <rect x="67.34" y="10.8" width="1073.86" height="479.032"/>
  </clipPath>
 </defs>
</svg>
