<?xml version="1.0" encoding="utf-8" standalone="no"?>
<!DOCTYPE svg PUBLIC "-//W3C//DTD SVG 1.1//EN"
  "http://www.w3.org/Graphics/SVG/1.1/DTD/svg11.dtd">
<svg xmlns:xlink="http://www.w3.org/1999/xlink" width="1152pt" height="576pt" viewBox="0 0 1152 576" xmlns="http://www.w3.org/2000/svg" version="1.1">
 <metadata>
  <rdf:RDF xmlns:dc="http://purl.org/dc/elements/1.1/" xmlns:cc="http://creativecommons.org/ns#" xmlns:rdf="http://www.w3.org/1999/02/22-rdf-syntax-ns#">
   <cc:Work>
    <dc:type rdf:resource="http://purl.org/dc/dcmitype/StillImage"/>
    <dc:date>2024-08-27T10:33:23.558900</dc:date>
    <dc:format>image/svg+xml</dc:format>
    <dc:creator>
     <cc:Agent>
      <dc:title>Matplotlib v3.7.1, https://matplotlib.org/</dc:title>
     </cc:Agent>
    </dc:creator>
   </cc:Work>
  </rdf:RDF>
 </metadata>
 <defs>
  <style type="text/css">*{stroke-linejoin: round; stroke-linecap: butt}</style>
 </defs>
 <g id="figure_1">
  <g id="patch_1">
   <path d="M 0 576 
L 1152 576 
L 1152 0 
L 0 0 
z
" style="fill: #ffffff"/>
  </g>
  <g id="axes_1">
   <g id="patch_2">
    <path d="M 99.11 489.832 
L 1141.2 489.832 
L 1141.2 10.8 
L 99.11 10.8 
z
" style="fill: #ffffff"/>
   </g>
   <g id="PolyCollection_1">
    <defs>
     <path id="me130f4cfbf" d="M 146.477727 -146.376684 
L 146.477727 -126.613192 
L 166.634207 -108.901307 
L 186.790687 -115.371551 
L 206.947166 -123.982993 
L 227.103646 -121.195545 
L 247.260126 -111.637824 
L 267.416605 -114.380018 
L 287.573085 -116.632793 
L 307.729565 -132.34049 
L 327.886044 -119.490844 
L 348.042524 -127.718999 
L 368.199004 -131.241434 
L 388.355484 -125.582747 
L 408.511963 -123.368338 
L 428.668443 -124.374354 
L 448.824923 -122.227269 
L 468.981402 -119.531894 
L 489.137882 -111.755084 
L 509.294362 -141.549693 
L 529.450841 -132.468837 
L 549.607321 -132.293167 
L 569.763801 -144.478439 
L 589.92028 -126.216416 
L 610.07676 -127.630228 
L 630.23324 -132.606057 
L 650.38972 -129.662473 
L 670.546199 -129.771879 
L 690.702679 -133.01881 
L 710.859159 -135.089333 
L 731.015638 -121.576531 
L 751.172118 -125.577828 
L 771.328598 -130.361105 
L 791.485077 -121.629378 
L 811.641557 -133.178433 
L 831.798037 -137.276566 
L 851.954516 -121.385944 
L 872.110996 -117.182203 
L 892.267476 -137.008376 
L 912.423956 -137.394156 
L 932.580435 -121.403411 
L 952.736915 -120.721208 
L 972.893395 -119.868604 
L 993.049874 -120.371564 
L 1013.206354 -119.381025 
L 1033.362834 -121.420743 
L 1053.519313 -120.619422 
L 1073.675793 -120.72747 
L 1093.832273 -121.52352 
L 1093.832273 -150.01115 
L 1093.832273 -150.01115 
L 1073.675793 -150.056457 
L 1053.519313 -149.817831 
L 1033.362834 -150.010854 
L 1013.206354 -149.964081 
L 993.049874 -149.019146 
L 972.893395 -149.605104 
L 952.736915 -149.858668 
L 932.580435 -150.010854 
L 912.423956 -149.740766 
L 892.267476 -150.340654 
L 872.110996 -146.203928 
L 851.954516 -161.930863 
L 831.798037 -157.101642 
L 811.641557 -150.97865 
L 791.485077 -140.69776 
L 771.328598 -146.123023 
L 751.172118 -136.296033 
L 731.015638 -133.833303 
L 710.859159 -153.73939 
L 690.702679 -153.854035 
L 670.546199 -150.634753 
L 650.38972 -150.447432 
L 630.23324 -151.499101 
L 610.07676 -147.646358 
L 589.92028 -147.62045 
L 569.763801 -151.921577 
L 549.607321 -158.107016 
L 529.450841 -155.815967 
L 509.294362 -161.590306 
L 489.137882 -145.708642 
L 468.981402 -142.751875 
L 448.824923 -148.697537 
L 428.668443 -143.520689 
L 408.511963 -137.077604 
L 388.355484 -140.704552 
L 368.199004 -154.980282 
L 348.042524 -152.20714 
L 327.886044 -147.959072 
L 307.729565 -154.365332 
L 287.573085 -134.962295 
L 267.416605 -133.169387 
L 247.260126 -122.038666 
L 227.103646 -145.832052 
L 206.947166 -134.55188 
L 186.790687 -129.925663 
L 166.634207 -137.769027 
L 146.477727 -146.376684 
z
" style="stroke: #f77189; stroke-opacity: 0.2"/>
    </defs>
    <g clip-path="url(#p4a4c8a2dcc)">
     <use xlink:href="#me130f4cfbf" x="0" y="576" style="fill: #f77189; fill-opacity: 0.2; stroke: #f77189; stroke-opacity: 0.2"/>
    </g>
   </g>
   <g id="PolyCollection_2">
    <defs>
     <path id="m83d07ebbd1" d="M 146.477727 -157.239594 
L 146.477727 -138.949689 
L 166.634207 -122.539987 
L 186.790687 -129.920902 
L 206.947166 -129.36329 
L 227.103646 -128.884373 
L 247.260126 -127.548517 
L 267.416605 -129.015732 
L 287.573085 -128.387563 
L 307.729565 -148.117611 
L 327.886044 -137.39296 
L 348.042524 -140.433661 
L 368.199004 -141.440372 
L 388.355484 -134.811022 
L 408.511963 -133.838823 
L 428.668443 -126.107307 
L 448.824923 -135.702969 
L 468.981402 -130.744956 
L 489.137882 -141.608197 
L 509.294362 -158.653665 
L 529.450841 -149.060418 
L 549.607321 -154.428393 
L 569.763801 -160.149013 
L 589.92028 -145.718498 
L 610.07676 -144.972113 
L 630.23324 -146.333736 
L 650.38972 -150.912953 
L 670.546199 -149.269944 
L 690.702679 -151.126827 
L 710.859159 -154.461812 
L 731.015638 -137.423953 
L 751.172118 -137.376992 
L 771.328598 -141.908448 
L 791.485077 -137.583918 
L 811.641557 -149.89784 
L 831.798037 -148.642987 
L 851.954516 -154.252726 
L 872.110996 -146.704801 
L 892.267476 -145.241337 
L 912.423956 -151.598596 
L 932.580435 -147.740229 
L 952.736915 -147.53847 
L 972.893395 -148.341227 
L 993.049874 -147.53847 
L 1013.206354 -147.736591 
L 1033.362834 -147.53847 
L 1053.519313 -147.53847 
L 1073.675793 -147.736591 
L 1093.832273 -147.639364 
L 1093.832273 -164.300472 
L 1093.832273 -164.300472 
L 1073.675793 -164.965354 
L 1053.519313 -164.302994 
L 1033.362834 -164.302994 
L 1013.206354 -164.401366 
L 993.049874 -164.401366 
L 972.893395 -166.129049 
L 952.736915 -165.025835 
L 932.580435 -165.023313 
L 912.423956 -170.732613 
L 892.267476 -164.822263 
L 872.110996 -172.446867 
L 851.954516 -173.104132 
L 831.798037 -180.749196 
L 811.641557 -179.406217 
L 791.485077 -157.569791 
L 771.328598 -170.441335 
L 751.172118 -169.842335 
L 731.015638 -170.909734 
L 710.859159 -176.154357 
L 690.702679 -175.912235 
L 670.546199 -175.176514 
L 650.38972 -176.114989 
L 630.23324 -176.033137 
L 610.07676 -174.63188 
L 589.92028 -171.564058 
L 569.763801 -192.851551 
L 549.607321 -196.629489 
L 529.450841 -187.905274 
L 509.294362 -176.90386 
L 489.137882 -167.639028 
L 468.981402 -160.35313 
L 448.824923 -156.288478 
L 428.668443 -161.795645 
L 408.511963 -156.26877 
L 388.355484 -159.717447 
L 368.199004 -173.234227 
L 348.042524 -156.571629 
L 327.886044 -158.05734 
L 307.729565 -166.741269 
L 287.573085 -168.966028 
L 267.416605 -148.681553 
L 247.260126 -139.79007 
L 227.103646 -146.889892 
L 206.947166 -141.890407 
L 186.790687 -136.048346 
L 166.634207 -140.326782 
L 146.477727 -157.239594 
z
" style="stroke: #e18632; stroke-opacity: 0.2"/>
    </defs>
    <g clip-path="url(#p4a4c8a2dcc)">
     <use xlink:href="#m83d07ebbd1" x="0" y="576" style="fill: #e18632; fill-opacity: 0.2; stroke: #e18632; stroke-opacity: 0.2"/>
    </g>
   </g>
   <g id="PolyCollection_3">
    <defs>
     <path id="m4dc398458e" d="M 146.477727 -174.817079 
L 146.477727 -142.140596 
L 166.634207 -144.015149 
L 186.790687 -133.033216 
L 206.947166 -150.04178 
L 227.103646 -136.308071 
L 247.260126 -139.427426 
L 267.416605 -136.847998 
L 287.573085 -144.278368 
L 307.729565 -149.962712 
L 327.886044 -150.251678 
L 348.042524 -147.682523 
L 368.199004 -153.671389 
L 388.355484 -145.121839 
L 408.511963 -139.251526 
L 428.668443 -145.282191 
L 448.824923 -142.099612 
L 468.981402 -142.191639 
L 489.137882 -154.898837 
L 509.294362 -166.669125 
L 529.450841 -149.746895 
L 549.607321 -158.548505 
L 569.763801 -169.615611 
L 589.92028 -142.30224 
L 610.07676 -140.558667 
L 630.23324 -142.876155 
L 650.38972 -147.308268 
L 670.546199 -148.102844 
L 690.702679 -152.741291 
L 710.859159 -147.325472 
L 731.015638 -139.105522 
L 751.172118 -142.933235 
L 771.328598 -143.778483 
L 791.485077 -141.162994 
L 811.641557 -156.464051 
L 831.798037 -158.251872 
L 851.954516 -143.045712 
L 872.110996 -146.198183 
L 892.267476 -154.947269 
L 912.423956 -157.589252 
L 932.580435 -149.244554 
L 952.736915 -149.794945 
L 972.893395 -147.397526 
L 993.049874 -148.144072 
L 1013.206354 -148.086054 
L 1033.362834 -149.802139 
L 1053.519313 -148.457387 
L 1073.675793 -149.135064 
L 1093.832273 -147.857814 
L 1093.832273 -183.408487 
L 1093.832273 -183.408487 
L 1073.675793 -182.847669 
L 1053.519313 -182.908926 
L 1033.362834 -182.301524 
L 1013.206354 -183.453988 
L 993.049874 -182.23885 
L 972.893395 -179.746732 
L 952.736915 -182.846419 
L 932.580435 -182.126992 
L 912.423956 -178.552416 
L 892.267476 -179.760821 
L 872.110996 -178.003496 
L 851.954516 -188.256163 
L 831.798037 -177.6433 
L 811.641557 -174.808665 
L 791.485077 -163.2769 
L 771.328598 -162.467292 
L 751.172118 -166.675438 
L 731.015638 -162.317678 
L 710.859159 -180.332766 
L 690.702679 -177.800651 
L 670.546199 -180.35464 
L 650.38972 -177.917488 
L 630.23324 -176.818311 
L 610.07676 -169.413612 
L 589.92028 -168.489526 
L 569.763801 -181.842316 
L 549.607321 -183.133145 
L 529.450841 -184.83907 
L 509.294362 -195.312858 
L 489.137882 -177.833272 
L 468.981402 -165.088839 
L 448.824923 -157.01246 
L 428.668443 -159.070323 
L 408.511963 -158.517722 
L 388.355484 -171.699509 
L 368.199004 -175.969964 
L 348.042524 -172.271123 
L 327.886044 -171.74097 
L 307.729565 -176.014933 
L 287.573085 -156.349491 
L 267.416605 -157.368701 
L 247.260126 -147.731458 
L 227.103646 -152.894596 
L 206.947166 -169.038159 
L 186.790687 -153.09439 
L 166.634207 -159.270212 
L 146.477727 -174.817079 
z
" style="stroke: #b59a32; stroke-opacity: 0.2"/>
    </defs>
    <g clip-path="url(#p4a4c8a2dcc)">
     <use xlink:href="#m4dc398458e" x="0" y="576" style="fill: #b59a32; fill-opacity: 0.2; stroke: #b59a32; stroke-opacity: 0.2"/>
    </g>
   </g>
   <g id="PolyCollection_4">
    <defs>
     <path id="m9cb2fc2c02" d="M 146.477727 -142.814553 
L 146.477727 -128.113006 
L 166.634207 -108.281563 
L 186.790687 -116.821444 
L 206.947166 -107.942182 
L 227.103646 -127.496827 
L 247.260126 -115.299597 
L 267.416605 -118.263022 
L 287.573085 -132.588072 
L 307.729565 -118.559067 
L 327.886044 -128.839417 
L 348.042524 -128.962696 
L 368.199004 -126.914443 
L 388.355484 -135.782326 
L 408.511963 -134.01433 
L 428.668443 -146.440415 
L 448.824923 -131.956857 
L 468.981402 -121.447772 
L 489.137882 -136.092445 
L 509.294362 -152.956874 
L 529.450841 -135.396094 
L 549.607321 -131.027239 
L 569.763801 -142.827321 
L 589.92028 -138.035803 
L 610.07676 -133.457484 
L 630.23324 -138.528098 
L 650.38972 -143.557963 
L 670.546199 -147.097503 
L 690.702679 -140.929927 
L 710.859159 -147.524936 
L 731.015638 -123.725375 
L 751.172118 -130.628709 
L 771.328598 -116.86096 
L 791.485077 -115.544843 
L 811.641557 -134.026865 
L 831.798037 -128.295744 
L 851.954516 -136.982695 
L 872.110996 -126.774377 
L 892.267476 -117.196702 
L 912.423956 -113.059292 
L 932.580435 -127.969835 
L 952.736915 -128.502659 
L 972.893395 -122.70017 
L 993.049874 -127.791401 
L 1013.206354 -128.956112 
L 1033.362834 -128.502659 
L 1053.519313 -128.501372 
L 1073.675793 -127.91966 
L 1093.832273 -129.034196 
L 1093.832273 -161.679009 
L 1093.832273 -161.679009 
L 1073.675793 -160.592336 
L 1053.519313 -160.562027 
L 1033.362834 -160.444108 
L 1013.206354 -162.202574 
L 993.049874 -160.447056 
L 972.893395 -155.901435 
L 952.736915 -160.444108 
L 932.580435 -160.562027 
L 912.423956 -149.30751 
L 892.267476 -156.125246 
L 872.110996 -171.851137 
L 851.954516 -163.033937 
L 831.798037 -148.898214 
L 811.641557 -158.673909 
L 791.485077 -141.899281 
L 771.328598 -156.749769 
L 751.172118 -164.022712 
L 731.015638 -164.290313 
L 710.859159 -175.168858 
L 690.702679 -165.72799 
L 670.546199 -164.663806 
L 650.38972 -164.773765 
L 630.23324 -163.291466 
L 610.07676 -160.607547 
L 589.92028 -160.236267 
L 569.763801 -167.443217 
L 549.607321 -165.539969 
L 529.450841 -163.914907 
L 509.294362 -176.518543 
L 489.137882 -160.700312 
L 468.981402 -158.552264 
L 448.824923 -154.578602 
L 428.668443 -176.027567 
L 408.511963 -149.816328 
L 388.355484 -154.802573 
L 368.199004 -161.401011 
L 348.042524 -151.7896 
L 327.886044 -153.537795 
L 307.729565 -145.712034 
L 287.573085 -138.491429 
L 267.416605 -136.048638 
L 247.260126 -140.693016 
L 227.103646 -145.587784 
L 206.947166 -131.935821 
L 186.790687 -132.476611 
L 166.634207 -134.533425 
L 146.477727 -142.814553 
z
" style="stroke: #8ba731; stroke-opacity: 0.2"/>
    </defs>
    <g clip-path="url(#p4a4c8a2dcc)">
     <use xlink:href="#m9cb2fc2c02" x="0" y="576" style="fill: #8ba731; fill-opacity: 0.2; stroke: #8ba731; stroke-opacity: 0.2"/>
    </g>
   </g>
   <g id="PolyCollection_5">
    <defs>
     <path id="me8242035e9" d="M 146.477727 -306.985196 
L 146.477727 -233.255529 
L 166.634207 -259.577401 
L 186.790687 -231.159022 
L 206.947166 -267.264467 
L 227.103646 -262.555699 
L 247.260126 -212.336877 
L 267.416605 -245.329104 
L 287.573085 -243.633315 
L 307.729565 -287.5741 
L 327.886044 -264.397953 
L 348.042524 -285.073258 
L 368.199004 -288.382006 
L 388.355484 -248.521573 
L 408.511963 -259.960482 
L 428.668443 -261.059652 
L 448.824923 -263.893186 
L 468.981402 -272.570554 
L 489.137882 -285.990984 
L 509.294362 -303.649682 
L 529.450841 -293.140732 
L 549.607321 -288.395273 
L 569.763801 -290.827024 
L 589.92028 -261.636721 
L 610.07676 -261.714641 
L 630.23324 -262.339892 
L 650.38972 -260.12202 
L 670.546199 -262.879776 
L 690.702679 -264.047548 
L 710.859159 -276.278643 
L 731.015638 -264.29964 
L 751.172118 -262.46098 
L 771.328598 -261.245404 
L 791.485077 -239.801079 
L 811.641557 -251.017543 
L 831.798037 -263.183458 
L 851.954516 -250.141083 
L 872.110996 -251.24262 
L 892.267476 -278.080347 
L 912.423956 -261.777413 
L 932.580435 -233.140193 
L 952.736915 -230.917194 
L 972.893395 -232.776988 
L 993.049874 -232.817049 
L 1013.206354 -232.808804 
L 1033.362834 -232.786028 
L 1053.519313 -235.370677 
L 1073.675793 -230.55558 
L 1093.832273 -237.228019 
L 1093.832273 -313.222937 
L 1093.832273 -313.222937 
L 1073.675793 -311.305101 
L 1053.519313 -311.305101 
L 1033.362834 -313.413964 
L 1013.206354 -310.14339 
L 993.049874 -311.305101 
L 972.893395 -307.820899 
L 952.736915 -313.205752 
L 932.580435 -311.305101 
L 912.423956 -312.815663 
L 892.267476 -314.591796 
L 872.110996 -336.423546 
L 851.954516 -325.814758 
L 831.798037 -312.791123 
L 811.641557 -289.462693 
L 791.485077 -281.624507 
L 771.328598 -289.365018 
L 751.172118 -297.973842 
L 731.015638 -291.401975 
L 710.859159 -309.774412 
L 690.702679 -311.349093 
L 670.546199 -307.975313 
L 650.38972 -309.544837 
L 630.23324 -310.467896 
L 610.07676 -307.983243 
L 589.92028 -306.386106 
L 569.763801 -328.732807 
L 549.607321 -313.673313 
L 529.450841 -333.852507 
L 509.294362 -354.63357 
L 489.137882 -337.355484 
L 468.981402 -329.997836 
L 448.824923 -301.562976 
L 428.668443 -294.101016 
L 408.511963 -293.861487 
L 388.355484 -291.287259 
L 368.199004 -348.631212 
L 348.042524 -321.712629 
L 327.886044 -337.563815 
L 307.729565 -339.12251 
L 287.573085 -274.32325 
L 267.416605 -289.833228 
L 247.260126 -262.656928 
L 227.103646 -294.642624 
L 206.947166 -295.673779 
L 186.790687 -279.497379 
L 166.634207 -280.623516 
L 146.477727 -306.985196 
z
" style="stroke: #32b258; stroke-opacity: 0.2"/>
    </defs>
    <g clip-path="url(#p4a4c8a2dcc)">
     <use xlink:href="#me8242035e9" x="0" y="576" style="fill: #32b258; fill-opacity: 0.2; stroke: #32b258; stroke-opacity: 0.2"/>
    </g>
   </g>
   <g id="PolyCollection_6">
    <defs>
     <path id="m6e71a9c183" d="M 146.477727 -257.010135 
L 146.477727 -218.744719 
L 166.634207 -208.306919 
L 186.790687 -212.008918 
L 206.947166 -223.735698 
L 227.103646 -209.314829 
L 247.260126 -211.010044 
L 267.416605 -203.711549 
L 287.573085 -222.543488 
L 307.729565 -223.292284 
L 327.886044 -212.05575 
L 348.042524 -220.103455 
L 368.199004 -217.678518 
L 388.355484 -216.1459 
L 408.511963 -213.340279 
L 428.668443 -219.686834 
L 448.824923 -213.068796 
L 468.981402 -211.507891 
L 489.137882 -223.590784 
L 509.294362 -232.953023 
L 529.450841 -219.129168 
L 549.607321 -217.677331 
L 569.763801 -226.156841 
L 589.92028 -223.271339 
L 610.07676 -222.376674 
L 630.23324 -224.566494 
L 650.38972 -228.586942 
L 670.546199 -229.75961 
L 690.702679 -229.67001 
L 710.859159 -224.156194 
L 731.015638 -216.150071 
L 751.172118 -221.29562 
L 771.328598 -220.96814 
L 791.485077 -217.643383 
L 811.641557 -213.360373 
L 831.798037 -216.652997 
L 851.954516 -223.394213 
L 872.110996 -217.283086 
L 892.267476 -230.787339 
L 912.423956 -220.909409 
L 932.580435 -228.596848 
L 952.736915 -228.595551 
L 972.893395 -226.149566 
L 993.049874 -228.595551 
L 1013.206354 -229.418155 
L 1033.362834 -229.416858 
L 1053.519313 -228.596848 
L 1073.675793 -228.836841 
L 1093.832273 -228.532117 
L 1093.832273 -261.207413 
L 1093.832273 -261.207413 
L 1073.675793 -261.155529 
L 1053.519313 -261.207413 
L 1033.362834 -260.354754 
L 1013.206354 -261.226648 
L 993.049874 -259.471718 
L 972.893395 -259.664135 
L 952.736915 -259.664135 
L 932.580435 -259.646953 
L 912.423956 -264.246809 
L 892.267476 -261.379365 
L 872.110996 -250.424899 
L 851.954516 -257.609008 
L 831.798037 -258.315129 
L 811.641557 -249.249292 
L 791.485077 -249.894058 
L 771.328598 -252.03362 
L 751.172118 -246.470761 
L 731.015638 -244.693375 
L 710.859159 -257.010753 
L 690.702679 -256.576077 
L 670.546199 -256.138394 
L 650.38972 -257.056601 
L 630.23324 -255.065366 
L 610.07676 -253.821611 
L 589.92028 -252.318817 
L 569.763801 -258.3769 
L 549.607321 -258.86886 
L 529.450841 -257.583707 
L 509.294362 -274.897033 
L 489.137882 -248.612478 
L 468.981402 -241.902412 
L 448.824923 -245.910047 
L 428.668443 -241.931706 
L 408.511963 -232.952759 
L 388.355484 -253.897195 
L 368.199004 -254.556324 
L 348.042524 -243.861495 
L 327.886044 -248.83246 
L 307.729565 -253.460627 
L 287.573085 -258.683424 
L 267.416605 -256.264113 
L 247.260126 -263.441213 
L 227.103646 -260.385974 
L 206.947166 -243.669478 
L 186.790687 -225.357788 
L 166.634207 -228.026166 
L 146.477727 -257.010135 
z
" style="stroke: #35ae95; stroke-opacity: 0.2"/>
    </defs>
    <g clip-path="url(#p4a4c8a2dcc)">
     <use xlink:href="#m6e71a9c183" x="0" y="576" style="fill: #35ae95; fill-opacity: 0.2; stroke: #35ae95; stroke-opacity: 0.2"/>
    </g>
   </g>
   <g id="PolyCollection_7">
    <defs>
     <path id="mbbb34af071" d="M 146.477727 -386.420972 
L 146.477727 -377.398027 
L 166.634207 -365.441096 
L 186.790687 -362.274746 
L 206.947166 -367.813248 
L 227.103646 -365.034093 
L 247.260126 -364.788403 
L 267.416605 -366.477413 
L 287.573085 -370.304951 
L 307.729565 -374.372782 
L 327.886044 -377.385696 
L 348.042524 -383.469454 
L 368.199004 -379.188585 
L 388.355484 -380.831429 
L 408.511963 -369.254543 
L 428.668443 -373.921297 
L 448.824923 -368.732869 
L 468.981402 -366.708914 
L 489.137882 -373.390928 
L 509.294362 -385.247894 
L 529.450841 -381.384431 
L 549.607321 -378.492205 
L 569.763801 -386.10171 
L 589.92028 -381.753454 
L 610.07676 -380.390015 
L 630.23324 -381.721073 
L 650.38972 -385.23475 
L 670.546199 -382.357566 
L 690.702679 -383.049759 
L 710.859159 -384.31264 
L 731.015638 -375.36055 
L 751.172118 -377.296619 
L 771.328598 -374.452178 
L 791.485077 -375.113023 
L 811.641557 -375.459515 
L 831.798037 -379.148366 
L 851.954516 -374.558483 
L 872.110996 -368.951793 
L 892.267476 -378.496845 
L 912.423956 -380.827461 
L 932.580435 -372.031215 
L 952.736915 -371.08289 
L 972.893395 -372.325584 
L 993.049874 -371.096545 
L 1013.206354 -370.550362 
L 1033.362834 -371.08289 
L 1053.519313 -371.295178 
L 1073.675793 -371.295178 
L 1093.832273 -371.08289 
L 1093.832273 -392.233369 
L 1093.832273 -392.233369 
L 1073.675793 -392.477344 
L 1053.519313 -392.630975 
L 1033.362834 -392.626009 
L 1013.206354 -392.435814 
L 993.049874 -392.619128 
L 972.893395 -392.714348 
L 952.736915 -392.282271 
L 932.580435 -392.274899 
L 912.423956 -392.856739 
L 892.267476 -390.772528 
L 872.110996 -400.800272 
L 851.954516 -399.536392 
L 831.798037 -397.257294 
L 811.641557 -393.362379 
L 791.485077 -398.318862 
L 771.328598 -394.224718 
L 751.172118 -394.545093 
L 731.015638 -392.897116 
L 710.859159 -400.571572 
L 690.702679 -400.60921 
L 670.546199 -401.573201 
L 650.38972 -401.069295 
L 630.23324 -399.568976 
L 610.07676 -392.732562 
L 589.92028 -392.607145 
L 569.763801 -396.617379 
L 549.607321 -397.838972 
L 529.450841 -398.100548 
L 509.294362 -403.201425 
L 489.137882 -403.177985 
L 468.981402 -393.401742 
L 448.824923 -400.061072 
L 428.668443 -393.896976 
L 408.511963 -387.625712 
L 388.355484 -394.465069 
L 368.199004 -405.365123 
L 348.042524 -392.305384 
L 327.886044 -398.075465 
L 307.729565 -403.093497 
L 287.573085 -387.787737 
L 267.416605 -383.809176 
L 247.260126 -370.695219 
L 227.103646 -388.668405 
L 206.947166 -378.052682 
L 186.790687 -376.167619 
L 166.634207 -388.004384 
L 146.477727 -386.420972 
z
" style="stroke: #37abb2; stroke-opacity: 0.2"/>
    </defs>
    <g clip-path="url(#p4a4c8a2dcc)">
     <use xlink:href="#mbbb34af071" x="0" y="576" style="fill: #37abb2; fill-opacity: 0.2; stroke: #37abb2; stroke-opacity: 0.2"/>
    </g>
   </g>
   <g id="PolyCollection_8">
    <defs>
     <path id="ma2913cc91c" d="M 146.477727 -386.381535 
L 146.477727 -377.409905 
L 166.634207 -364.57925 
L 186.790687 -362.486493 
L 206.947166 -367.579202 
L 227.103646 -364.095799 
L 247.260126 -364.816123 
L 267.416605 -366.488207 
L 287.573085 -370.274961 
L 307.729565 -373.888697 
L 327.886044 -377.926839 
L 348.042524 -383.871198 
L 368.199004 -380.525977 
L 388.355484 -380.665391 
L 408.511963 -368.901619 
L 428.668443 -373.104467 
L 448.824923 -367.407157 
L 468.981402 -366.42243 
L 489.137882 -373.574452 
L 509.294362 -385.911879 
L 529.450841 -381.301574 
L 549.607321 -378.486409 
L 569.763801 -386.116458 
L 589.92028 -381.999181 
L 610.07676 -380.784729 
L 630.23324 -381.700308 
L 650.38972 -384.932764 
L 670.546199 -381.324417 
L 690.702679 -383.206648 
L 710.859159 -383.834145 
L 731.015638 -374.523006 
L 751.172118 -377.727858 
L 771.328598 -374.896466 
L 791.485077 -373.962112 
L 811.641557 -375.390318 
L 831.798037 -378.904408 
L 851.954516 -374.168041 
L 872.110996 -370.396256 
L 892.267476 -378.561695 
L 912.423956 -380.496597 
L 932.580435 -371.688008 
L 952.736915 -371.284981 
L 972.893395 -372.337941 
L 993.049874 -371.497372 
L 1013.206354 -371.692896 
L 1033.362834 -372.251384 
L 1053.519313 -372.026443 
L 1073.675793 -371.487174 
L 1093.832273 -370.530079 
L 1093.832273 -392.3664 
L 1093.832273 -392.3664 
L 1073.675793 -392.239934 
L 1053.519313 -392.583679 
L 1033.362834 -392.211912 
L 1013.206354 -392.969838 
L 993.049874 -392.97026 
L 972.893395 -392.368045 
L 952.736915 -392.3664 
L 932.580435 -392.774315 
L 912.423956 -392.317038 
L 892.267476 -390.801736 
L 872.110996 -399.722959 
L 851.954516 -399.011683 
L 831.798037 -396.508795 
L 811.641557 -393.16467 
L 791.485077 -398.352996 
L 771.328598 -394.893073 
L 751.172118 -394.529551 
L 731.015638 -393.210284 
L 710.859159 -401.491694 
L 690.702679 -400.572474 
L 670.546199 -401.120755 
L 650.38972 -401.001215 
L 630.23324 -399.524525 
L 610.07676 -393.238358 
L 589.92028 -393.080273 
L 569.763801 -396.593736 
L 549.607321 -397.650792 
L 529.450841 -397.995363 
L 509.294362 -402.575665 
L 489.137882 -402.370689 
L 468.981402 -393.384531 
L 448.824923 -397.743992 
L 428.668443 -393.090821 
L 408.511963 -388.09101 
L 388.355484 -393.744784 
L 368.199004 -405.524022 
L 348.042524 -392.226727 
L 327.886044 -399.151206 
L 307.729565 -401.608035 
L 287.573085 -388.340022 
L 267.416605 -383.85561 
L 247.260126 -371.153032 
L 227.103646 -388.101884 
L 206.947166 -378.079255 
L 186.790687 -376.2293 
L 166.634207 -388.959704 
L 146.477727 -386.381535 
z
" style="stroke: #39a7d6; stroke-opacity: 0.2"/>
    </defs>
    <g clip-path="url(#p4a4c8a2dcc)">
     <use xlink:href="#ma2913cc91c" x="0" y="576" style="fill: #39a7d6; fill-opacity: 0.2; stroke: #39a7d6; stroke-opacity: 0.2"/>
    </g>
   </g>
   <g id="PolyCollection_9">
    <defs>
     <path id="ma248ce24da" d="M 146.477727 -330.261817 
L 146.477727 -268.531286 
L 166.634207 -280.228493 
L 186.790687 -272.157336 
L 206.947166 -301.171731 
L 227.103646 -289.390115 
L 247.260126 -237.420505 
L 267.416605 -280.352265 
L 287.573085 -274.723668 
L 307.729565 -308.629788 
L 327.886044 -293.579079 
L 348.042524 -300.796308 
L 368.199004 -304.751285 
L 388.355484 -275.5747 
L 408.511963 -286.445693 
L 428.668443 -303.188039 
L 448.824923 -291.991316 
L 468.981402 -302.535734 
L 489.137882 -315.771734 
L 509.294362 -344.797845 
L 529.450841 -314.429273 
L 549.607321 -296.318748 
L 569.763801 -305.000232 
L 589.92028 -287.727752 
L 610.07676 -286.271849 
L 630.23324 -283.788465 
L 650.38972 -301.503192 
L 670.546199 -307.045583 
L 690.702679 -309.323058 
L 710.859159 -299.235408 
L 731.015638 -286.750296 
L 751.172118 -292.455383 
L 771.328598 -298.586262 
L 791.485077 -276.348963 
L 811.641557 -261.181802 
L 831.798037 -280.140038 
L 851.954516 -258.800446 
L 872.110996 -272.574278 
L 892.267476 -306.207844 
L 912.423956 -291.628105 
L 932.580435 -251.232894 
L 952.736915 -256.800477 
L 972.893395 -254.641322 
L 993.049874 -254.575533 
L 1013.206354 -255.409743 
L 1033.362834 -254.641322 
L 1053.519313 -254.543697 
L 1073.675793 -253.300791 
L 1093.832273 -256.576468 
L 1093.832273 -346.901696 
L 1093.832273 -346.901696 
L 1073.675793 -345.786599 
L 1053.519313 -347.853728 
L 1033.362834 -347.945753 
L 1013.206354 -345.765302 
L 993.049874 -347.945753 
L 972.893395 -346.289162 
L 952.736915 -346.875598 
L 932.580435 -346.875598 
L 912.423956 -364.530544 
L 892.267476 -354.404804 
L 872.110996 -361.176926 
L 851.954516 -354.766699 
L 831.798037 -369.085321 
L 811.641557 -311.21015 
L 791.485077 -328.866262 
L 771.328598 -312.825875 
L 751.172118 -319.642064 
L 731.015638 -322.075242 
L 710.859159 -345.99438 
L 690.702679 -342.448634 
L 670.546199 -347.49255 
L 650.38972 -343.598848 
L 630.23324 -341.81508 
L 610.07676 -341.617345 
L 589.92028 -358.37368 
L 569.763801 -356.089354 
L 549.607321 -336.471871 
L 529.450841 -369.59905 
L 509.294362 -396.769746 
L 489.137882 -369.406746 
L 468.981402 -367.588907 
L 448.824923 -337.570417 
L 428.668443 -337.322789 
L 408.511963 -321.542737 
L 388.355484 -316.337479 
L 368.199004 -371.534845 
L 348.042524 -345.922876 
L 327.886044 -365.545835 
L 307.729565 -353.365594 
L 287.573085 -310.47547 
L 267.416605 -327.007379 
L 247.260126 -290.033706 
L 227.103646 -330.04954 
L 206.947166 -345.39727 
L 186.790687 -294.841778 
L 166.634207 -322.862332 
L 146.477727 -330.261817 
z
" style="stroke: #8f93f4; stroke-opacity: 0.2"/>
    </defs>
    <g clip-path="url(#p4a4c8a2dcc)">
     <use xlink:href="#ma248ce24da" x="0" y="576" style="fill: #8f93f4; fill-opacity: 0.2; stroke: #8f93f4; stroke-opacity: 0.2"/>
    </g>
   </g>
   <g id="PolyCollection_10">
    <defs>
     <path id="mebbfb15dfc" d="M 146.477727 -440.611152 
L 146.477727 -407.494589 
L 166.634207 -396.067332 
L 186.790687 -391.707586 
L 206.947166 -401.824062 
L 227.103646 -389.489306 
L 247.260126 -393.900729 
L 267.416605 -398.673218 
L 287.573085 -392.904223 
L 307.729565 -398.034229 
L 327.886044 -412.424518 
L 348.042524 -403.340297 
L 368.199004 -407.978846 
L 388.355484 -406.538374 
L 408.511963 -398.264029 
L 428.668443 -415.778396 
L 448.824923 -406.525698 
L 468.981402 -397.56736 
L 489.137882 -413.335434 
L 509.294362 -421.710742 
L 529.450841 -411.695264 
L 549.607321 -420.083635 
L 569.763801 -431.287918 
L 589.92028 -417.729302 
L 610.07676 -421.750466 
L 630.23324 -419.681257 
L 650.38972 -430.123968 
L 670.546199 -425.409842 
L 690.702679 -432.546177 
L 710.859159 -424.975579 
L 731.015638 -420.896298 
L 751.172118 -422.588244 
L 771.328598 -416.016434 
L 791.485077 -425.917248 
L 811.641557 -419.561644 
L 831.798037 -403.966082 
L 851.954516 -423.425305 
L 872.110996 -419.520395 
L 892.267476 -412.923373 
L 912.423956 -429.398277 
L 932.580435 -424.016837 
L 952.736915 -423.3477 
L 972.893395 -429.263192 
L 993.049874 -424.017232 
L 1013.206354 -424.001447 
L 1033.362834 -422.90517 
L 1053.519313 -424.001447 
L 1073.675793 -424.292464 
L 1093.832273 -424.001447 
L 1093.832273 -446.486334 
L 1093.832273 -446.486334 
L 1073.675793 -446.488107 
L 1053.519313 -446.488107 
L 1033.362834 -446.02802 
L 1013.206354 -446.415386 
L 993.049874 -446.41716 
L 972.893395 -446.029793 
L 952.736915 -446.41716 
L 932.580435 -447.070907 
L 912.423956 -452.153084 
L 892.267476 -432.648491 
L 872.110996 -442.51573 
L 851.954516 -453.080078 
L 831.798037 -428.320454 
L 811.641557 -432.047879 
L 791.485077 -452.32226 
L 771.328598 -440.309596 
L 751.172118 -440.845376 
L 731.015638 -438.815792 
L 710.859159 -451.195392 
L 690.702679 -452.551949 
L 670.546199 -450.992797 
L 650.38972 -452.808841 
L 630.23324 -449.237062 
L 610.07676 -440.699974 
L 589.92028 -437.579159 
L 569.763801 -451.916821 
L 549.607321 -446.001117 
L 529.450841 -440.617585 
L 509.294362 -457.862694 
L 489.137882 -437.67118 
L 468.981402 -427.545601 
L 448.824923 -431.160115 
L 428.668443 -437.893404 
L 408.511963 -423.464168 
L 388.355484 -425.82607 
L 368.199004 -432.262785 
L 348.042524 -425.161863 
L 327.886044 -435.960288 
L 307.729565 -423.352093 
L 287.573085 -410.805562 
L 267.416605 -419.357482 
L 247.260126 -407.347958 
L 227.103646 -415.823322 
L 206.947166 -420.13806 
L 186.790687 -401.167939 
L 166.634207 -417.269905 
L 146.477727 -440.611152 
z
" style="stroke: #db70f4; stroke-opacity: 0.2"/>
    </defs>
    <g clip-path="url(#p4a4c8a2dcc)">
     <use xlink:href="#mebbfb15dfc" x="0" y="576" style="fill: #db70f4; fill-opacity: 0.2; stroke: #db70f4; stroke-opacity: 0.2"/>
    </g>
   </g>
   <g id="PolyCollection_11">
    <defs>
     <path id="m42ad48e1e0" d="M 146.477727 -492.060203 
L 146.477727 -464.515196 
L 166.634207 -466.880391 
L 186.790687 -464.733344 
L 206.947166 -445.920906 
L 227.103646 -457.944133 
L 247.260126 -456.985219 
L 267.416605 -437.229424 
L 287.573085 -436.897206 
L 307.729565 -468.526242 
L 327.886044 -442.954606 
L 348.042524 -467.629291 
L 368.199004 -477.320284 
L 388.355484 -457.629045 
L 408.511963 -462.604046 
L 428.668443 -474.387032 
L 448.824923 -466.811263 
L 468.981402 -467.38808 
L 489.137882 -484.771779 
L 509.294362 -494.37138 
L 529.450841 -452.478647 
L 549.607321 -481.670298 
L 569.763801 -473.017314 
L 589.92028 -476.078916 
L 610.07676 -469.776397 
L 630.23324 -471.329278 
L 650.38972 -470.299347 
L 670.546199 -470.050145 
L 690.702679 -466.446218 
L 710.859159 -470.436983 
L 731.015638 -458.724596 
L 751.172118 -462.862554 
L 771.328598 -462.949472 
L 791.485077 -458.4729 
L 811.641557 -469.918532 
L 831.798037 -452.842921 
L 851.954516 -479.082334 
L 872.110996 -470.894053 
L 892.267476 -472.073062 
L 912.423956 -455.421864 
L 932.580435 -470.726648 
L 952.736915 -470.071227 
L 972.893395 -468.308605 
L 993.049874 -469.854733 
L 1013.206354 -470.074578 
L 1033.362834 -469.988765 
L 1053.519313 -470.51466 
L 1073.675793 -470.076778 
L 1093.832273 -470.726648 
L 1093.832273 -501.807151 
L 1093.832273 -501.807151 
L 1073.675793 -501.807151 
L 1053.519313 -502.23869 
L 1033.362834 -502.679066 
L 1013.206354 -501.362352 
L 993.049874 -502.679232 
L 972.893395 -500.198944 
L 952.736915 -502.241035 
L 932.580435 -502.241035 
L 912.423956 -496.159535 
L 892.267476 -518.187722 
L 872.110996 -520.062778 
L 851.954516 -512.486658 
L 831.798037 -492.722405 
L 811.641557 -494.118874 
L 791.485077 -497.661555 
L 771.328598 -487.265503 
L 751.172118 -484.599558 
L 731.015638 -487.025188 
L 710.859159 -488.5228 
L 690.702679 -490.331151 
L 670.546199 -485.465247 
L 650.38972 -491.964884 
L 630.23324 -489.989735 
L 610.07676 -498.162834 
L 589.92028 -503.224298 
L 569.763801 -502.150893 
L 549.607321 -499.28625 
L 529.450841 -513.341824 
L 509.294362 -543.425818 
L 489.137882 -533.551267 
L 468.981402 -505.817416 
L 448.824923 -518.327464 
L 428.668443 -519.941514 
L 408.511963 -492.866271 
L 388.355484 -524.136286 
L 368.199004 -492.0502 
L 348.042524 -492.176098 
L 327.886044 -483.721911 
L 307.729565 -506.536825 
L 287.573085 -487.276938 
L 267.416605 -485.028259 
L 247.260126 -528.554319 
L 227.103646 -491.04919 
L 206.947166 -496.489981 
L 186.790687 -489.754123 
L 166.634207 -512.21526 
L 146.477727 -492.060203 
z
" style="stroke: #f667c6; stroke-opacity: 0.2"/>
    </defs>
    <g clip-path="url(#p4a4c8a2dcc)">
     <use xlink:href="#m42ad48e1e0" x="0" y="576" style="fill: #f667c6; fill-opacity: 0.2; stroke: #f667c6; stroke-opacity: 0.2"/>
    </g>
   </g>
   <g id="matplotlib.axis_1">
    <g id="xtick_1">
     <g id="line2d_1">
      <defs>
       <path id="m1ba08ef27d" d="M 0 0 
L 0 3.5 
" style="stroke: #000000; stroke-width: 0.8"/>
      </defs>
      <g>
       <use xlink:href="#m1ba08ef27d" x="136.399487" y="489.832" style="stroke: #000000; stroke-width: 0.8"/>
      </g>
     </g>
     <g id="text_1">
      <!-- 0 -->
      <g transform="translate(130.036987 512.028875) scale(0.2 -0.2)">
       <defs>
        <path id="DejaVuSans-30" d="M 2034 4250 
Q 1547 4250 1301 3770 
Q 1056 3291 1056 2328 
Q 1056 1369 1301 889 
Q 1547 409 2034 409 
Q 2525 409 2770 889 
Q 3016 1369 3016 2328 
Q 3016 3291 2770 3770 
Q 2525 4250 2034 4250 
z
M 2034 4750 
Q 2819 4750 3233 4129 
Q 3647 3509 3647 2328 
Q 3647 1150 3233 529 
Q 2819 -91 2034 -91 
Q 1250 -91 836 529 
Q 422 1150 422 2328 
Q 422 3509 836 4129 
Q 1250 4750 2034 4750 
z
" transform="scale(0.015625)"/>
       </defs>
       <use xlink:href="#DejaVuSans-30"/>
      </g>
     </g>
    </g>
    <g id="xtick_2">
     <g id="line2d_2">
      <g>
       <use xlink:href="#m1ba08ef27d" x="337.964284" y="489.832" style="stroke: #000000; stroke-width: 0.8"/>
      </g>
     </g>
     <g id="text_2">
      <!-- 20 -->
      <g transform="translate(325.239284 512.028875) scale(0.2 -0.2)">
       <defs>
        <path id="DejaVuSans-32" d="M 1228 531 
L 3431 531 
L 3431 0 
L 469 0 
L 469 531 
Q 828 903 1448 1529 
Q 2069 2156 2228 2338 
Q 2531 2678 2651 2914 
Q 2772 3150 2772 3378 
Q 2772 3750 2511 3984 
Q 2250 4219 1831 4219 
Q 1534 4219 1204 4116 
Q 875 4013 500 3803 
L 500 4441 
Q 881 4594 1212 4672 
Q 1544 4750 1819 4750 
Q 2544 4750 2975 4387 
Q 3406 4025 3406 3419 
Q 3406 3131 3298 2873 
Q 3191 2616 2906 2266 
Q 2828 2175 2409 1742 
Q 1991 1309 1228 531 
z
" transform="scale(0.015625)"/>
       </defs>
       <use xlink:href="#DejaVuSans-32"/>
       <use xlink:href="#DejaVuSans-30" x="63.623047"/>
      </g>
     </g>
    </g>
    <g id="xtick_3">
     <g id="line2d_3">
      <g>
       <use xlink:href="#m1ba08ef27d" x="539.529081" y="489.832" style="stroke: #000000; stroke-width: 0.8"/>
      </g>
     </g>
     <g id="text_3">
      <!-- 40 -->
      <g transform="translate(526.804081 512.028875) scale(0.2 -0.2)">
       <defs>
        <path id="DejaVuSans-34" d="M 2419 4116 
L 825 1625 
L 2419 1625 
L 2419 4116 
z
M 2253 4666 
L 3047 4666 
L 3047 1625 
L 3713 1625 
L 3713 1100 
L 3047 1100 
L 3047 0 
L 2419 0 
L 2419 1100 
L 313 1100 
L 313 1709 
L 2253 4666 
z
" transform="scale(0.015625)"/>
       </defs>
       <use xlink:href="#DejaVuSans-34"/>
       <use xlink:href="#DejaVuSans-30" x="63.623047"/>
      </g>
     </g>
    </g>
    <g id="xtick_4">
     <g id="line2d_4">
      <g>
       <use xlink:href="#m1ba08ef27d" x="741.093878" y="489.832" style="stroke: #000000; stroke-width: 0.8"/>
      </g>
     </g>
     <g id="text_4">
      <!-- 60 -->
      <g transform="translate(728.368878 512.028875) scale(0.2 -0.2)">
       <defs>
        <path id="DejaVuSans-36" d="M 2113 2584 
Q 1688 2584 1439 2293 
Q 1191 2003 1191 1497 
Q 1191 994 1439 701 
Q 1688 409 2113 409 
Q 2538 409 2786 701 
Q 3034 994 3034 1497 
Q 3034 2003 2786 2293 
Q 2538 2584 2113 2584 
z
M 3366 4563 
L 3366 3988 
Q 3128 4100 2886 4159 
Q 2644 4219 2406 4219 
Q 1781 4219 1451 3797 
Q 1122 3375 1075 2522 
Q 1259 2794 1537 2939 
Q 1816 3084 2150 3084 
Q 2853 3084 3261 2657 
Q 3669 2231 3669 1497 
Q 3669 778 3244 343 
Q 2819 -91 2113 -91 
Q 1303 -91 875 529 
Q 447 1150 447 2328 
Q 447 3434 972 4092 
Q 1497 4750 2381 4750 
Q 2619 4750 2861 4703 
Q 3103 4656 3366 4563 
z
" transform="scale(0.015625)"/>
       </defs>
       <use xlink:href="#DejaVuSans-36"/>
       <use xlink:href="#DejaVuSans-30" x="63.623047"/>
      </g>
     </g>
    </g>
    <g id="xtick_5">
     <g id="line2d_5">
      <g>
       <use xlink:href="#m1ba08ef27d" x="942.658675" y="489.832" style="stroke: #000000; stroke-width: 0.8"/>
      </g>
     </g>
     <g id="text_5">
      <!-- 80 -->
      <g transform="translate(929.933675 512.028875) scale(0.2 -0.2)">
       <defs>
        <path id="DejaVuSans-38" d="M 2034 2216 
Q 1584 2216 1326 1975 
Q 1069 1734 1069 1313 
Q 1069 891 1326 650 
Q 1584 409 2034 409 
Q 2484 409 2743 651 
Q 3003 894 3003 1313 
Q 3003 1734 2745 1975 
Q 2488 2216 2034 2216 
z
M 1403 2484 
Q 997 2584 770 2862 
Q 544 3141 544 3541 
Q 544 4100 942 4425 
Q 1341 4750 2034 4750 
Q 2731 4750 3128 4425 
Q 3525 4100 3525 3541 
Q 3525 3141 3298 2862 
Q 3072 2584 2669 2484 
Q 3125 2378 3379 2068 
Q 3634 1759 3634 1313 
Q 3634 634 3220 271 
Q 2806 -91 2034 -91 
Q 1263 -91 848 271 
Q 434 634 434 1313 
Q 434 1759 690 2068 
Q 947 2378 1403 2484 
z
M 1172 3481 
Q 1172 3119 1398 2916 
Q 1625 2713 2034 2713 
Q 2441 2713 2670 2916 
Q 2900 3119 2900 3481 
Q 2900 3844 2670 4047 
Q 2441 4250 2034 4250 
Q 1625 4250 1398 4047 
Q 1172 3844 1172 3481 
z
" transform="scale(0.015625)"/>
       </defs>
       <use xlink:href="#DejaVuSans-38"/>
       <use xlink:href="#DejaVuSans-30" x="63.623047"/>
      </g>
     </g>
    </g>
    <g id="text_6">
     <!-- Percentile Threshold -->
     <g transform="translate(518.375313 535.385125) scale(0.2 -0.2)">
      <defs>
       <path id="DejaVuSans-50" d="M 1259 4147 
L 1259 2394 
L 2053 2394 
Q 2494 2394 2734 2622 
Q 2975 2850 2975 3272 
Q 2975 3691 2734 3919 
Q 2494 4147 2053 4147 
L 1259 4147 
z
M 628 4666 
L 2053 4666 
Q 2838 4666 3239 4311 
Q 3641 3956 3641 3272 
Q 3641 2581 3239 2228 
Q 2838 1875 2053 1875 
L 1259 1875 
L 1259 0 
L 628 0 
L 628 4666 
z
" transform="scale(0.015625)"/>
       <path id="DejaVuSans-65" d="M 3597 1894 
L 3597 1613 
L 953 1613 
Q 991 1019 1311 708 
Q 1631 397 2203 397 
Q 2534 397 2845 478 
Q 3156 559 3463 722 
L 3463 178 
Q 3153 47 2828 -22 
Q 2503 -91 2169 -91 
Q 1331 -91 842 396 
Q 353 884 353 1716 
Q 353 2575 817 3079 
Q 1281 3584 2069 3584 
Q 2775 3584 3186 3129 
Q 3597 2675 3597 1894 
z
M 3022 2063 
Q 3016 2534 2758 2815 
Q 2500 3097 2075 3097 
Q 1594 3097 1305 2825 
Q 1016 2553 972 2059 
L 3022 2063 
z
" transform="scale(0.015625)"/>
       <path id="DejaVuSans-72" d="M 2631 2963 
Q 2534 3019 2420 3045 
Q 2306 3072 2169 3072 
Q 1681 3072 1420 2755 
Q 1159 2438 1159 1844 
L 1159 0 
L 581 0 
L 581 3500 
L 1159 3500 
L 1159 2956 
Q 1341 3275 1631 3429 
Q 1922 3584 2338 3584 
Q 2397 3584 2469 3576 
Q 2541 3569 2628 3553 
L 2631 2963 
z
" transform="scale(0.015625)"/>
       <path id="DejaVuSans-63" d="M 3122 3366 
L 3122 2828 
Q 2878 2963 2633 3030 
Q 2388 3097 2138 3097 
Q 1578 3097 1268 2742 
Q 959 2388 959 1747 
Q 959 1106 1268 751 
Q 1578 397 2138 397 
Q 2388 397 2633 464 
Q 2878 531 3122 666 
L 3122 134 
Q 2881 22 2623 -34 
Q 2366 -91 2075 -91 
Q 1284 -91 818 406 
Q 353 903 353 1747 
Q 353 2603 823 3093 
Q 1294 3584 2113 3584 
Q 2378 3584 2631 3529 
Q 2884 3475 3122 3366 
z
" transform="scale(0.015625)"/>
       <path id="DejaVuSans-6e" d="M 3513 2113 
L 3513 0 
L 2938 0 
L 2938 2094 
Q 2938 2591 2744 2837 
Q 2550 3084 2163 3084 
Q 1697 3084 1428 2787 
Q 1159 2491 1159 1978 
L 1159 0 
L 581 0 
L 581 3500 
L 1159 3500 
L 1159 2956 
Q 1366 3272 1645 3428 
Q 1925 3584 2291 3584 
Q 2894 3584 3203 3211 
Q 3513 2838 3513 2113 
z
" transform="scale(0.015625)"/>
       <path id="DejaVuSans-74" d="M 1172 4494 
L 1172 3500 
L 2356 3500 
L 2356 3053 
L 1172 3053 
L 1172 1153 
Q 1172 725 1289 603 
Q 1406 481 1766 481 
L 2356 481 
L 2356 0 
L 1766 0 
Q 1100 0 847 248 
Q 594 497 594 1153 
L 594 3053 
L 172 3053 
L 172 3500 
L 594 3500 
L 594 4494 
L 1172 4494 
z
" transform="scale(0.015625)"/>
       <path id="DejaVuSans-69" d="M 603 3500 
L 1178 3500 
L 1178 0 
L 603 0 
L 603 3500 
z
M 603 4863 
L 1178 4863 
L 1178 4134 
L 603 4134 
L 603 4863 
z
" transform="scale(0.015625)"/>
       <path id="DejaVuSans-6c" d="M 603 4863 
L 1178 4863 
L 1178 0 
L 603 0 
L 603 4863 
z
" transform="scale(0.015625)"/>
       <path id="DejaVuSans-20" transform="scale(0.015625)"/>
       <path id="DejaVuSans-54" d="M -19 4666 
L 3928 4666 
L 3928 4134 
L 2272 4134 
L 2272 0 
L 1638 0 
L 1638 4134 
L -19 4134 
L -19 4666 
z
" transform="scale(0.015625)"/>
       <path id="DejaVuSans-68" d="M 3513 2113 
L 3513 0 
L 2938 0 
L 2938 2094 
Q 2938 2591 2744 2837 
Q 2550 3084 2163 3084 
Q 1697 3084 1428 2787 
Q 1159 2491 1159 1978 
L 1159 0 
L 581 0 
L 581 4863 
L 1159 4863 
L 1159 2956 
Q 1366 3272 1645 3428 
Q 1925 3584 2291 3584 
Q 2894 3584 3203 3211 
Q 3513 2838 3513 2113 
z
" transform="scale(0.015625)"/>
       <path id="DejaVuSans-73" d="M 2834 3397 
L 2834 2853 
Q 2591 2978 2328 3040 
Q 2066 3103 1784 3103 
Q 1356 3103 1142 2972 
Q 928 2841 928 2578 
Q 928 2378 1081 2264 
Q 1234 2150 1697 2047 
L 1894 2003 
Q 2506 1872 2764 1633 
Q 3022 1394 3022 966 
Q 3022 478 2636 193 
Q 2250 -91 1575 -91 
Q 1294 -91 989 -36 
Q 684 19 347 128 
L 347 722 
Q 666 556 975 473 
Q 1284 391 1588 391 
Q 1994 391 2212 530 
Q 2431 669 2431 922 
Q 2431 1156 2273 1281 
Q 2116 1406 1581 1522 
L 1381 1569 
Q 847 1681 609 1914 
Q 372 2147 372 2553 
Q 372 3047 722 3315 
Q 1072 3584 1716 3584 
Q 2034 3584 2315 3537 
Q 2597 3491 2834 3397 
z
" transform="scale(0.015625)"/>
       <path id="DejaVuSans-6f" d="M 1959 3097 
Q 1497 3097 1228 2736 
Q 959 2375 959 1747 
Q 959 1119 1226 758 
Q 1494 397 1959 397 
Q 2419 397 2687 759 
Q 2956 1122 2956 1747 
Q 2956 2369 2687 2733 
Q 2419 3097 1959 3097 
z
M 1959 3584 
Q 2709 3584 3137 3096 
Q 3566 2609 3566 1747 
Q 3566 888 3137 398 
Q 2709 -91 1959 -91 
Q 1206 -91 779 398 
Q 353 888 353 1747 
Q 353 2609 779 3096 
Q 1206 3584 1959 3584 
z
" transform="scale(0.015625)"/>
       <path id="DejaVuSans-64" d="M 2906 2969 
L 2906 4863 
L 3481 4863 
L 3481 0 
L 2906 0 
L 2906 525 
Q 2725 213 2448 61 
Q 2172 -91 1784 -91 
Q 1150 -91 751 415 
Q 353 922 353 1747 
Q 353 2572 751 3078 
Q 1150 3584 1784 3584 
Q 2172 3584 2448 3432 
Q 2725 3281 2906 2969 
z
M 947 1747 
Q 947 1113 1208 752 
Q 1469 391 1925 391 
Q 2381 391 2643 752 
Q 2906 1113 2906 1747 
Q 2906 2381 2643 2742 
Q 2381 3103 1925 3103 
Q 1469 3103 1208 2742 
Q 947 2381 947 1747 
z
" transform="scale(0.015625)"/>
      </defs>
      <use xlink:href="#DejaVuSans-50"/>
      <use xlink:href="#DejaVuSans-65" x="56.677734"/>
      <use xlink:href="#DejaVuSans-72" x="118.201172"/>
      <use xlink:href="#DejaVuSans-63" x="157.064453"/>
      <use xlink:href="#DejaVuSans-65" x="212.044922"/>
      <use xlink:href="#DejaVuSans-6e" x="273.568359"/>
      <use xlink:href="#DejaVuSans-74" x="336.947266"/>
      <use xlink:href="#DejaVuSans-69" x="376.15625"/>
      <use xlink:href="#DejaVuSans-6c" x="403.939453"/>
      <use xlink:href="#DejaVuSans-65" x="431.722656"/>
      <use xlink:href="#DejaVuSans-20" x="493.246094"/>
      <use xlink:href="#DejaVuSans-54" x="525.033203"/>
      <use xlink:href="#DejaVuSans-68" x="586.117188"/>
      <use xlink:href="#DejaVuSans-72" x="649.496094"/>
      <use xlink:href="#DejaVuSans-65" x="688.359375"/>
      <use xlink:href="#DejaVuSans-73" x="749.882812"/>
      <use xlink:href="#DejaVuSans-68" x="801.982422"/>
      <use xlink:href="#DejaVuSans-6f" x="865.361328"/>
      <use xlink:href="#DejaVuSans-6c" x="926.542969"/>
      <use xlink:href="#DejaVuSans-64" x="954.326172"/>
     </g>
     <!-- (Using "max_mean" Threshold Handling) -->
     <g transform="translate(416.625313 557.78075) scale(0.2 -0.2)">
      <defs>
       <path id="DejaVuSans-28" d="M 1984 4856 
Q 1566 4138 1362 3434 
Q 1159 2731 1159 2009 
Q 1159 1288 1364 580 
Q 1569 -128 1984 -844 
L 1484 -844 
Q 1016 -109 783 600 
Q 550 1309 550 2009 
Q 550 2706 781 3412 
Q 1013 4119 1484 4856 
L 1984 4856 
z
" transform="scale(0.015625)"/>
       <path id="DejaVuSans-55" d="M 556 4666 
L 1191 4666 
L 1191 1831 
Q 1191 1081 1462 751 
Q 1734 422 2344 422 
Q 2950 422 3222 751 
Q 3494 1081 3494 1831 
L 3494 4666 
L 4128 4666 
L 4128 1753 
Q 4128 841 3676 375 
Q 3225 -91 2344 -91 
Q 1459 -91 1007 375 
Q 556 841 556 1753 
L 556 4666 
z
" transform="scale(0.015625)"/>
       <path id="DejaVuSans-67" d="M 2906 1791 
Q 2906 2416 2648 2759 
Q 2391 3103 1925 3103 
Q 1463 3103 1205 2759 
Q 947 2416 947 1791 
Q 947 1169 1205 825 
Q 1463 481 1925 481 
Q 2391 481 2648 825 
Q 2906 1169 2906 1791 
z
M 3481 434 
Q 3481 -459 3084 -895 
Q 2688 -1331 1869 -1331 
Q 1566 -1331 1297 -1286 
Q 1028 -1241 775 -1147 
L 775 -588 
Q 1028 -725 1275 -790 
Q 1522 -856 1778 -856 
Q 2344 -856 2625 -561 
Q 2906 -266 2906 331 
L 2906 616 
Q 2728 306 2450 153 
Q 2172 0 1784 0 
Q 1141 0 747 490 
Q 353 981 353 1791 
Q 353 2603 747 3093 
Q 1141 3584 1784 3584 
Q 2172 3584 2450 3431 
Q 2728 3278 2906 2969 
L 2906 3500 
L 3481 3500 
L 3481 434 
z
" transform="scale(0.015625)"/>
       <path id="DejaVuSans-22" d="M 1147 4666 
L 1147 2931 
L 616 2931 
L 616 4666 
L 1147 4666 
z
M 2328 4666 
L 2328 2931 
L 1797 2931 
L 1797 4666 
L 2328 4666 
z
" transform="scale(0.015625)"/>
       <path id="DejaVuSans-6d" d="M 3328 2828 
Q 3544 3216 3844 3400 
Q 4144 3584 4550 3584 
Q 5097 3584 5394 3201 
Q 5691 2819 5691 2113 
L 5691 0 
L 5113 0 
L 5113 2094 
Q 5113 2597 4934 2840 
Q 4756 3084 4391 3084 
Q 3944 3084 3684 2787 
Q 3425 2491 3425 1978 
L 3425 0 
L 2847 0 
L 2847 2094 
Q 2847 2600 2669 2842 
Q 2491 3084 2119 3084 
Q 1678 3084 1418 2786 
Q 1159 2488 1159 1978 
L 1159 0 
L 581 0 
L 581 3500 
L 1159 3500 
L 1159 2956 
Q 1356 3278 1631 3431 
Q 1906 3584 2284 3584 
Q 2666 3584 2933 3390 
Q 3200 3197 3328 2828 
z
" transform="scale(0.015625)"/>
       <path id="DejaVuSans-61" d="M 2194 1759 
Q 1497 1759 1228 1600 
Q 959 1441 959 1056 
Q 959 750 1161 570 
Q 1363 391 1709 391 
Q 2188 391 2477 730 
Q 2766 1069 2766 1631 
L 2766 1759 
L 2194 1759 
z
M 3341 1997 
L 3341 0 
L 2766 0 
L 2766 531 
Q 2569 213 2275 61 
Q 1981 -91 1556 -91 
Q 1019 -91 701 211 
Q 384 513 384 1019 
Q 384 1609 779 1909 
Q 1175 2209 1959 2209 
L 2766 2209 
L 2766 2266 
Q 2766 2663 2505 2880 
Q 2244 3097 1772 3097 
Q 1472 3097 1187 3025 
Q 903 2953 641 2809 
L 641 3341 
Q 956 3463 1253 3523 
Q 1550 3584 1831 3584 
Q 2591 3584 2966 3190 
Q 3341 2797 3341 1997 
z
" transform="scale(0.015625)"/>
       <path id="DejaVuSans-78" d="M 3513 3500 
L 2247 1797 
L 3578 0 
L 2900 0 
L 1881 1375 
L 863 0 
L 184 0 
L 1544 1831 
L 300 3500 
L 978 3500 
L 1906 2253 
L 2834 3500 
L 3513 3500 
z
" transform="scale(0.015625)"/>
       <path id="DejaVuSans-5f" d="M 3263 -1063 
L 3263 -1509 
L -63 -1509 
L -63 -1063 
L 3263 -1063 
z
" transform="scale(0.015625)"/>
       <path id="DejaVuSans-48" d="M 628 4666 
L 1259 4666 
L 1259 2753 
L 3553 2753 
L 3553 4666 
L 4184 4666 
L 4184 0 
L 3553 0 
L 3553 2222 
L 1259 2222 
L 1259 0 
L 628 0 
L 628 4666 
z
" transform="scale(0.015625)"/>
       <path id="DejaVuSans-29" d="M 513 4856 
L 1013 4856 
Q 1481 4119 1714 3412 
Q 1947 2706 1947 2009 
Q 1947 1309 1714 600 
Q 1481 -109 1013 -844 
L 513 -844 
Q 928 -128 1133 580 
Q 1338 1288 1338 2009 
Q 1338 2731 1133 3434 
Q 928 4138 513 4856 
z
" transform="scale(0.015625)"/>
      </defs>
      <use xlink:href="#DejaVuSans-28"/>
      <use xlink:href="#DejaVuSans-55" x="39.013672"/>
      <use xlink:href="#DejaVuSans-73" x="112.207031"/>
      <use xlink:href="#DejaVuSans-69" x="164.306641"/>
      <use xlink:href="#DejaVuSans-6e" x="192.089844"/>
      <use xlink:href="#DejaVuSans-67" x="255.46875"/>
      <use xlink:href="#DejaVuSans-20" x="318.945312"/>
      <use xlink:href="#DejaVuSans-22" x="350.732422"/>
      <use xlink:href="#DejaVuSans-6d" x="396.728516"/>
      <use xlink:href="#DejaVuSans-61" x="494.140625"/>
      <use xlink:href="#DejaVuSans-78" x="555.419922"/>
      <use xlink:href="#DejaVuSans-5f" x="614.599609"/>
      <use xlink:href="#DejaVuSans-6d" x="664.599609"/>
      <use xlink:href="#DejaVuSans-65" x="762.011719"/>
      <use xlink:href="#DejaVuSans-61" x="823.535156"/>
      <use xlink:href="#DejaVuSans-6e" x="884.814453"/>
      <use xlink:href="#DejaVuSans-22" x="948.193359"/>
      <use xlink:href="#DejaVuSans-20" x="994.189453"/>
      <use xlink:href="#DejaVuSans-54" x="1025.976562"/>
      <use xlink:href="#DejaVuSans-68" x="1087.060547"/>
      <use xlink:href="#DejaVuSans-72" x="1150.439453"/>
      <use xlink:href="#DejaVuSans-65" x="1189.302734"/>
      <use xlink:href="#DejaVuSans-73" x="1250.826172"/>
      <use xlink:href="#DejaVuSans-68" x="1302.925781"/>
      <use xlink:href="#DejaVuSans-6f" x="1366.304688"/>
      <use xlink:href="#DejaVuSans-6c" x="1427.486328"/>
      <use xlink:href="#DejaVuSans-64" x="1455.269531"/>
      <use xlink:href="#DejaVuSans-20" x="1518.746094"/>
      <use xlink:href="#DejaVuSans-48" x="1550.533203"/>
      <use xlink:href="#DejaVuSans-61" x="1625.728516"/>
      <use xlink:href="#DejaVuSans-6e" x="1687.007812"/>
      <use xlink:href="#DejaVuSans-64" x="1750.386719"/>
      <use xlink:href="#DejaVuSans-6c" x="1813.863281"/>
      <use xlink:href="#DejaVuSans-69" x="1841.646484"/>
      <use xlink:href="#DejaVuSans-6e" x="1869.429688"/>
      <use xlink:href="#DejaVuSans-67" x="1932.808594"/>
      <use xlink:href="#DejaVuSans-29" x="1996.285156"/>
     </g>
    </g>
   </g>
   <g id="matplotlib.axis_2">
    <g id="ytick_1">
     <g id="line2d_6">
      <defs>
       <path id="m1c44425d85" d="M 0 0 
L -3.5 0 
" style="stroke: #000000; stroke-width: 0.8"/>
      </defs>
      <g>
       <use xlink:href="#m1c44425d85" x="99.11" y="443.207831" style="stroke: #000000; stroke-width: 0.8"/>
      </g>
     </g>
     <g id="text_7">
      <!-- 0.012 -->
      <g transform="translate(34.85375 450.806269) scale(0.2 -0.2)">
       <defs>
        <path id="DejaVuSans-2e" d="M 684 794 
L 1344 794 
L 1344 0 
L 684 0 
L 684 794 
z
" transform="scale(0.015625)"/>
        <path id="DejaVuSans-31" d="M 794 531 
L 1825 531 
L 1825 4091 
L 703 3866 
L 703 4441 
L 1819 4666 
L 2450 4666 
L 2450 531 
L 3481 531 
L 3481 0 
L 794 0 
L 794 531 
z
" transform="scale(0.015625)"/>
       </defs>
       <use xlink:href="#DejaVuSans-30"/>
       <use xlink:href="#DejaVuSans-2e" x="63.623047"/>
       <use xlink:href="#DejaVuSans-30" x="95.410156"/>
       <use xlink:href="#DejaVuSans-31" x="159.033203"/>
       <use xlink:href="#DejaVuSans-32" x="222.65625"/>
      </g>
     </g>
    </g>
    <g id="ytick_2">
     <g id="line2d_7">
      <g>
       <use xlink:href="#m1c44425d85" x="99.11" y="368.62991" style="stroke: #000000; stroke-width: 0.8"/>
      </g>
     </g>
     <g id="text_8">
      <!-- 0.014 -->
      <g transform="translate(34.85375 376.228347) scale(0.2 -0.2)">
       <use xlink:href="#DejaVuSans-30"/>
       <use xlink:href="#DejaVuSans-2e" x="63.623047"/>
       <use xlink:href="#DejaVuSans-30" x="95.410156"/>
       <use xlink:href="#DejaVuSans-31" x="159.033203"/>
       <use xlink:href="#DejaVuSans-34" x="222.65625"/>
      </g>
     </g>
    </g>
    <g id="ytick_3">
     <g id="line2d_8">
      <g>
       <use xlink:href="#m1c44425d85" x="99.11" y="294.051989" style="stroke: #000000; stroke-width: 0.8"/>
      </g>
     </g>
     <g id="text_9">
      <!-- 0.016 -->
      <g transform="translate(34.85375 301.650426) scale(0.2 -0.2)">
       <use xlink:href="#DejaVuSans-30"/>
       <use xlink:href="#DejaVuSans-2e" x="63.623047"/>
       <use xlink:href="#DejaVuSans-30" x="95.410156"/>
       <use xlink:href="#DejaVuSans-31" x="159.033203"/>
       <use xlink:href="#DejaVuSans-36" x="222.65625"/>
      </g>
     </g>
    </g>
    <g id="ytick_4">
     <g id="line2d_9">
      <g>
       <use xlink:href="#m1c44425d85" x="99.11" y="219.474067" style="stroke: #000000; stroke-width: 0.8"/>
      </g>
     </g>
     <g id="text_10">
      <!-- 0.018 -->
      <g transform="translate(34.85375 227.072505) scale(0.2 -0.2)">
       <use xlink:href="#DejaVuSans-30"/>
       <use xlink:href="#DejaVuSans-2e" x="63.623047"/>
       <use xlink:href="#DejaVuSans-30" x="95.410156"/>
       <use xlink:href="#DejaVuSans-31" x="159.033203"/>
       <use xlink:href="#DejaVuSans-38" x="222.65625"/>
      </g>
     </g>
    </g>
    <g id="ytick_5">
     <g id="line2d_10">
      <g>
       <use xlink:href="#m1c44425d85" x="99.11" y="144.896146" style="stroke: #000000; stroke-width: 0.8"/>
      </g>
     </g>
     <g id="text_11">
      <!-- 0.020 -->
      <g transform="translate(34.85375 152.494584) scale(0.2 -0.2)">
       <use xlink:href="#DejaVuSans-30"/>
       <use xlink:href="#DejaVuSans-2e" x="63.623047"/>
       <use xlink:href="#DejaVuSans-30" x="95.410156"/>
       <use xlink:href="#DejaVuSans-32" x="159.033203"/>
       <use xlink:href="#DejaVuSans-30" x="222.65625"/>
      </g>
     </g>
    </g>
    <g id="ytick_6">
     <g id="line2d_11">
      <g>
       <use xlink:href="#m1c44425d85" x="99.11" y="70.318225" style="stroke: #000000; stroke-width: 0.8"/>
      </g>
     </g>
     <g id="text_12">
      <!-- 0.022 -->
      <g transform="translate(34.85375 77.916662) scale(0.2 -0.2)">
       <use xlink:href="#DejaVuSans-30"/>
       <use xlink:href="#DejaVuSans-2e" x="63.623047"/>
       <use xlink:href="#DejaVuSans-30" x="95.410156"/>
       <use xlink:href="#DejaVuSans-32" x="159.033203"/>
       <use xlink:href="#DejaVuSans-32" x="222.65625"/>
      </g>
     </g>
    </g>
    <g id="text_13">
     <!-- MAPE -->
     <g transform="translate(26.694375 278.133188) rotate(-90) scale(0.2 -0.2)">
      <defs>
       <path id="DejaVuSans-4d" d="M 628 4666 
L 1569 4666 
L 2759 1491 
L 3956 4666 
L 4897 4666 
L 4897 0 
L 4281 0 
L 4281 4097 
L 3078 897 
L 2444 897 
L 1241 4097 
L 1241 0 
L 628 0 
L 628 4666 
z
" transform="scale(0.015625)"/>
       <path id="DejaVuSans-41" d="M 2188 4044 
L 1331 1722 
L 3047 1722 
L 2188 4044 
z
M 1831 4666 
L 2547 4666 
L 4325 0 
L 3669 0 
L 3244 1197 
L 1141 1197 
L 716 0 
L 50 0 
L 1831 4666 
z
" transform="scale(0.015625)"/>
       <path id="DejaVuSans-45" d="M 628 4666 
L 3578 4666 
L 3578 4134 
L 1259 4134 
L 1259 2753 
L 3481 2753 
L 3481 2222 
L 1259 2222 
L 1259 531 
L 3634 531 
L 3634 0 
L 628 0 
L 628 4666 
z
" transform="scale(0.015625)"/>
      </defs>
      <use xlink:href="#DejaVuSans-4d"/>
      <use xlink:href="#DejaVuSans-41" x="86.279297"/>
      <use xlink:href="#DejaVuSans-50" x="154.6875"/>
      <use xlink:href="#DejaVuSans-45" x="214.990234"/>
     </g>
    </g>
   </g>
   <g id="line2d_12">
    <path d="M 146.477727 438.597349 
L 166.634207 452.816821 
L 186.790687 454.344501 
L 206.947166 446.964265 
L 227.103646 445.631427 
L 247.260126 459.188809 
L 267.416605 452.164165 
L 287.573085 450.14447 
L 307.729565 432.586009 
L 327.886044 442.226102 
L 348.042524 435.798834 
L 368.199004 433.638375 
L 388.355484 441.438579 
L 408.511963 446.80693 
L 428.668443 442.339451 
L 448.824923 440.368084 
L 468.981402 446.379611 
L 489.137882 447.051886 
L 509.294362 423.846441 
L 529.450841 431.727716 
L 549.607321 430.854388 
L 569.763801 427.436665 
L 589.92028 439.87984 
L 610.07676 440.590776 
L 630.23324 434.284756 
L 650.38972 436.520874 
L 670.546199 436.696428 
L 690.702679 433.394958 
L 710.859159 432.166578 
L 731.015638 447.74428 
L 751.172118 444.965913 
L 771.328598 438.569511 
L 791.485077 444.541086 
L 811.641557 433.176066 
L 831.798037 427.584965 
L 851.954516 432.463649 
L 872.110996 443.155448 
L 892.267476 432.446248 
L 912.423956 432.294248 
L 932.580435 438.107583 
L 952.736915 438.107583 
L 972.893395 439.504168 
L 993.049874 438.107583 
L 1013.206354 438.107583 
L 1033.362834 438.107583 
L 1053.519313 438.107583 
L 1073.675793 438.107583 
L 1093.832273 438.107583 
" clip-path="url(#p4a4c8a2dcc)" style="fill: none; stroke: #f77189; stroke-width: 1.5; stroke-linecap: square"/>
   </g>
   <g id="line2d_13">
    <path d="M 146.477727 428.458554 
L 166.634207 443.252981 
L 186.790687 443.413578 
L 206.947166 439.782824 
L 227.103646 438.09896 
L 247.260126 442.467639 
L 267.416605 435.836397 
L 287.573085 429.348401 
L 307.729565 418.519912 
L 327.886044 428.27485 
L 348.042524 427.794514 
L 368.199004 419.732088 
L 388.355484 427.311944 
L 408.511963 430.114953 
L 428.668443 431.895459 
L 448.824923 429.566108 
L 468.981402 432.251588 
L 489.137882 421.166157 
L 509.294362 409.114506 
L 529.450841 411.149891 
L 549.607321 402.342636 
L 569.763801 402.68808 
L 589.92028 418.610403 
L 610.07676 416.638807 
L 630.23324 415.313948 
L 650.38972 412.734569 
L 670.546199 413.875502 
L 690.702679 413.228944 
L 710.859159 410.85107 
L 731.015638 423.054865 
L 751.172118 423.727243 
L 771.328598 420.949838 
L 791.485077 427.690239 
L 811.641557 413.93134 
L 831.798037 412.777044 
L 851.954516 411.992017 
L 872.110996 416.340132 
L 892.267476 421.516528 
L 912.423956 415.334893 
L 932.580435 421.113651 
L 952.736915 421.113651 
L 972.893395 419.951671 
L 993.049874 421.113651 
L 1013.206354 421.113651 
L 1033.362834 421.113651 
L 1053.519313 421.113651 
L 1073.675793 421.113651 
L 1093.832273 421.113651 
" clip-path="url(#p4a4c8a2dcc)" style="fill: none; stroke: #e18632; stroke-width: 1.5; stroke-linecap: square"/>
   </g>
   <g id="line2d_14">
    <path d="M 146.477727 416.009751 
L 166.634207 425.280286 
L 186.790687 432.931458 
L 206.947166 416.798805 
L 227.103646 432.120656 
L 247.260126 432.291426 
L 267.416605 428.745564 
L 287.573085 425.932718 
L 307.729565 413.742815 
L 327.886044 415.83899 
L 348.042524 416.29638 
L 368.199004 411.606446 
L 388.355484 417.904147 
L 408.511963 427.230716 
L 428.668443 423.442564 
L 448.824923 426.04688 
L 468.981402 420.712658 
L 489.137882 410.553015 
L 509.294362 394.754473 
L 529.450841 407.892457 
L 549.607321 404.064763 
L 569.763801 400.312195 
L 589.92028 420.578061 
L 610.07676 420.944148 
L 630.23324 416.075724 
L 650.38972 412.697291 
L 670.546199 411.902715 
L 690.702679 410.657452 
L 710.859159 411.553546 
L 731.015638 424.706506 
L 751.172118 421.804628 
L 771.328598 422.96191 
L 791.485077 422.847564 
L 811.641557 410.886666 
L 831.798037 407.657771 
L 851.954516 410.349062 
L 872.110996 413.364703 
L 892.267476 408.27001 
L 912.423956 407.784994 
L 932.580435 409.126224 
L 952.736915 409.126224 
L 972.893395 412.178966 
L 993.049874 409.126224 
L 1013.206354 409.126224 
L 1033.362834 409.126224 
L 1053.519313 409.126224 
L 1073.675793 409.126224 
L 1093.832273 409.126224 
" clip-path="url(#p4a4c8a2dcc)" style="fill: none; stroke: #b59a32; stroke-width: 1.5; stroke-linecap: square"/>
   </g>
   <g id="line2d_15">
    <path d="M 146.477727 440.442325 
L 166.634207 455.743915 
L 186.790687 451.06582 
L 206.947166 456.064268 
L 227.103646 439.37732 
L 247.260126 448.102674 
L 267.416605 448.915849 
L 287.573085 440.047538 
L 307.729565 443.976702 
L 327.886044 433.360824 
L 348.042524 433.820706 
L 368.199004 432.375583 
L 388.355484 431.3001 
L 408.511963 434.557662 
L 428.668443 415.430161 
L 448.824923 433.649824 
L 468.981402 437.508377 
L 489.137882 427.384188 
L 509.294362 412.177917 
L 529.450841 427.100811 
L 549.607321 427.065816 
L 569.763801 420.995481 
L 589.92028 427.575236 
L 610.07676 428.956807 
L 630.23324 425.356999 
L 650.38972 422.679761 
L 670.546199 420.831084 
L 690.702679 423.224691 
L 710.859159 416.033081 
L 731.015638 434.123897 
L 751.172118 431.681516 
L 771.328598 443.098266 
L 791.485077 447.840475 
L 811.641557 431.14542 
L 831.798037 437.770039 
L 851.954516 427.16874 
L 872.110996 427.86718 
L 892.267476 441.178693 
L 912.423956 446.097584 
L 932.580435 431.916766 
L 952.736915 431.916766 
L 972.893395 438.924573 
L 993.049874 431.916766 
L 1013.206354 431.916766 
L 1033.362834 431.916766 
L 1053.519313 431.916766 
L 1073.675793 431.916766 
L 1093.832273 431.916766 
" clip-path="url(#p4a4c8a2dcc)" style="fill: none; stroke: #8ba731; stroke-width: 1.5; stroke-linecap: square"/>
   </g>
   <g id="line2d_16">
    <path d="M 146.477727 302.242188 
L 166.634207 307.921032 
L 186.790687 321.300308 
L 206.947166 296.190226 
L 227.103646 297.357236 
L 247.260126 338.503097 
L 267.416605 308.718908 
L 287.573085 316.937768 
L 307.729565 265.613197 
L 327.886044 275.337401 
L 348.042524 275.422667 
L 368.199004 257.270638 
L 388.355484 302.166105 
L 408.511963 299.43356 
L 428.668443 298.912768 
L 448.824923 292.623105 
L 468.981402 280.012237 
L 489.137882 265.349462 
L 509.294362 250.376984 
L 529.450841 263.480216 
L 549.607321 274.786772 
L 569.763801 264.698312 
L 589.92028 289.331642 
L 610.07676 288.71274 
L 630.23324 287.488135 
L 650.38972 289.683668 
L 670.546199 288.328338 
L 690.702679 284.621018 
L 710.859159 282.327476 
L 731.015638 297.64493 
L 751.172118 297.114058 
L 771.328598 301.519637 
L 791.485077 317.078619 
L 811.641557 303.988616 
L 831.798037 286.211836 
L 851.954516 286.970807 
L 872.110996 275.554113 
L 892.267476 277.645303 
L 912.423956 286.121977 
L 932.580435 301.005497 
L 952.736915 301.005497 
L 972.893395 302.800448 
L 993.049874 301.005497 
L 1013.206354 301.005497 
L 1033.362834 301.005497 
L 1053.519313 301.005497 
L 1073.675793 301.005497 
L 1093.832273 301.005497 
" clip-path="url(#p4a4c8a2dcc)" style="fill: none; stroke: #32b258; stroke-width: 1.5; stroke-linecap: square"/>
   </g>
   <g id="line2d_17">
    <path d="M 146.477727 340.506347 
L 166.634207 356.778045 
L 186.790687 357.297531 
L 206.947166 342.299823 
L 227.103646 345.638914 
L 247.260126 343.242153 
L 267.416605 349.148766 
L 287.573085 338.95811 
L 307.729565 338.966292 
L 327.886044 345.507653 
L 348.042524 345.442106 
L 368.199004 343.133743 
L 388.355484 342.342099 
L 408.511963 352.827688 
L 428.668443 346.529899 
L 448.824923 346.930937 
L 468.981402 349.353886 
L 489.137882 340.012345 
L 509.294362 321.395012 
L 529.450841 337.596282 
L 549.607321 339.278367 
L 569.763801 334.930801 
L 589.92028 338.41924 
L 610.07676 338.635199 
L 630.23324 336.912118 
L 650.38972 333.956275 
L 670.546199 333.055917 
L 690.702679 333.051492 
L 710.859159 337.138393 
L 731.015638 346.483522 
L 751.172118 342.257839 
L 771.328598 340.288953 
L 791.485077 344.115716 
L 811.641557 344.769367 
L 831.798037 339.374584 
L 851.954516 336.841823 
L 872.110996 340.706011 
L 892.267476 331.266523 
L 912.423956 335.099558 
L 932.580435 333.280323 
L 952.736915 333.280323 
L 972.893395 334.083389 
L 993.049874 333.280323 
L 1013.206354 333.280323 
L 1033.362834 333.280323 
L 1053.519313 333.280323 
L 1073.675793 333.280323 
L 1093.832273 333.280323 
" clip-path="url(#p4a4c8a2dcc)" style="fill: none; stroke: #35ae95; stroke-width: 1.5; stroke-linecap: square"/>
   </g>
   <g id="line2d_18">
    <path d="M 146.477727 194.148969 
L 166.634207 199.916718 
L 186.790687 206.501176 
L 206.947166 203.217238 
L 227.103646 199.412977 
L 247.260126 207.98377 
L 267.416605 202.160186 
L 287.573085 197.330015 
L 307.729565 188.975322 
L 327.886044 187.897198 
L 348.042524 187.436789 
L 368.199004 183.738145 
L 388.355484 189.182487 
L 408.511963 196.937787 
L 428.668443 192.367074 
L 448.824923 193.918694 
L 468.981402 197.349958 
L 489.137882 188.075591 
L 509.294362 181.306341 
L 529.450841 185.820993 
L 549.607321 187.532404 
L 569.763801 184.938515 
L 589.92028 188.338949 
L 610.07676 189.445339 
L 630.23324 185.352635 
L 650.38972 182.259332 
L 670.546199 184.08069 
L 690.702679 184.146402 
L 710.859159 183.194941 
L 731.015638 193.077243 
L 751.172118 190.666565 
L 771.328598 192.319579 
L 791.485077 189.257129 
L 811.641557 191.834299 
L 831.798037 187.44233 
L 851.954516 187.99721 
L 872.110996 190.853566 
L 892.267476 191.48267 
L 912.423956 189.411136 
L 932.580435 192.58514 
L 952.736915 192.58514 
L 972.893395 191.744929 
L 993.049874 192.58514 
L 1013.206354 192.58514 
L 1033.362834 192.58514 
L 1053.519313 192.58514 
L 1073.675793 192.58514 
L 1093.832273 192.58514 
" clip-path="url(#p4a4c8a2dcc)" style="fill: none; stroke: #37abb2; stroke-width: 1.5; stroke-linecap: square"/>
   </g>
   <g id="line2d_19">
    <path d="M 146.477727 194.154367 
L 166.634207 199.890057 
L 186.790687 206.515351 
L 206.947166 203.240106 
L 227.103646 199.451984 
L 247.260126 208.000217 
L 267.416605 202.174592 
L 287.573085 197.340447 
L 307.729565 188.992611 
L 327.886044 187.897631 
L 348.042524 187.436742 
L 368.199004 183.709694 
L 388.355484 189.185811 
L 408.511963 196.979258 
L 428.668443 192.354503 
L 448.824923 193.922952 
L 468.981402 197.320909 
L 489.137882 188.076738 
L 509.294362 181.351663 
L 529.450841 185.81108 
L 549.607321 187.544169 
L 569.763801 184.932589 
L 589.92028 188.360968 
L 610.07676 189.468319 
L 630.23324 185.376043 
L 650.38972 182.295209 
L 670.546199 184.108425 
L 690.702679 184.170883 
L 710.859159 183.226863 
L 731.015638 193.103078 
L 751.172118 190.668163 
L 771.328598 192.305949 
L 791.485077 189.232848 
L 811.641557 191.819423 
L 831.798037 187.459845 
L 851.954516 187.967817 
L 872.110996 190.923735 
L 892.267476 191.47373 
L 912.423956 189.410819 
L 932.580435 192.617617 
L 952.736915 192.617617 
L 972.893395 191.774946 
L 993.049874 192.617617 
L 1013.206354 192.617617 
L 1033.362834 192.617617 
L 1053.519313 192.617617 
L 1073.675793 192.617617 
L 1093.832273 192.617617 
" clip-path="url(#p4a4c8a2dcc)" style="fill: none; stroke: #39a7d6; stroke-width: 1.5; stroke-linecap: square"/>
   </g>
   <g id="line2d_20">
    <path d="M 146.477727 277.863722 
L 166.634207 274.964806 
L 186.790687 293.354965 
L 206.947166 253.352938 
L 227.103646 265.587092 
L 247.260126 311.055696 
L 267.416605 275.142049 
L 287.573085 285.136537 
L 307.729565 247.568804 
L 327.886044 243.950749 
L 348.042524 251.399699 
L 368.199004 238.830601 
L 388.355484 275.029312 
L 408.511963 273.061842 
L 428.668443 257.261205 
L 448.824923 256.919101 
L 468.981402 240.481391 
L 489.137882 234.653343 
L 509.294362 205.576809 
L 529.450841 236.65432 
L 549.607321 258.667561 
L 569.763801 245.722378 
L 589.92028 253.993391 
L 610.07676 262.951477 
L 630.23324 264.009961 
L 650.38972 254.136028 
L 670.546199 249.331921 
L 690.702679 246.085437 
L 710.859159 250.630258 
L 731.015638 272.06448 
L 751.172118 270.571889 
L 771.328598 270.549708 
L 791.485077 275.324866 
L 811.641557 287.814933 
L 831.798037 250.684995 
L 851.954516 264.477002 
L 872.110996 251.283232 
L 892.267476 242.804579 
L 912.423956 246.008129 
L 932.580435 271.829401 
L 952.736915 271.829401 
L 972.893395 272.415837 
L 993.049874 271.829401 
L 1013.206354 271.829401 
L 1033.362834 271.829401 
L 1053.519313 271.829401 
L 1073.675793 271.829401 
L 1093.832273 271.829401 
" clip-path="url(#p4a4c8a2dcc)" style="fill: none; stroke: #8f93f4; stroke-width: 1.5; stroke-linecap: square"/>
   </g>
   <g id="line2d_21">
    <path d="M 146.477727 151.869439 
L 166.634207 169.752017 
L 186.790687 179.350831 
L 206.947166 165.299973 
L 227.103646 173.603445 
L 247.260126 174.534533 
L 267.416605 167.044955 
L 287.573085 173.925487 
L 307.729565 164.826472 
L 327.886044 152.22233 
L 348.042524 161.185161 
L 368.199004 156.906788 
L 388.355484 161.211397 
L 408.511963 167.296497 
L 428.668443 149.349619 
L 448.824923 157.372354 
L 468.981402 163.5258 
L 489.137882 150.058864 
L 509.294362 136.593582 
L 529.450841 147.471629 
L 549.607321 142.496273 
L 569.763801 134.681267 
L 589.92028 148.009423 
L 610.07676 143.824732 
L 630.23324 141.267989 
L 650.38972 135.546975 
L 670.546199 138.647094 
L 690.702679 134.294844 
L 710.859159 138.948632 
L 731.015638 146.39606 
L 751.172118 143.739755 
L 771.328598 148.066022 
L 791.485077 136.180529 
L 811.641557 150.052271 
L 831.798037 158.407023 
L 851.954516 138.822566 
L 872.110996 146.369285 
L 892.267476 154.274735 
L 912.423956 134.750259 
L 932.580435 140.051042 
L 952.736915 140.051042 
L 972.893395 138.125159 
L 993.049874 140.051042 
L 1013.206354 140.051042 
L 1033.362834 140.051042 
L 1053.519313 140.051042 
L 1073.675793 140.051042 
L 1093.832273 140.051042 
" clip-path="url(#p4a4c8a2dcc)" style="fill: none; stroke: #db70f4; stroke-width: 1.5; stroke-linecap: square"/>
   </g>
   <g id="line2d_22">
    <path d="M 146.477727 98.068457 
L 166.634207 85.889919 
L 186.790687 98.75459 
L 206.947166 99.535152 
L 227.103646 102.775612 
L 247.260126 87.228696 
L 267.416605 114.867775 
L 287.573085 110.79468 
L 307.729565 85.921811 
L 327.886044 108.609084 
L 348.042524 95.30878 
L 368.199004 91.553815 
L 388.355484 87.273608 
L 408.511963 99.083512 
L 428.668443 79.148382 
L 448.824923 83.058039 
L 468.981402 88.741246 
L 489.137882 65.499001 
L 509.294362 56.561065 
L 529.450841 89.201641 
L 549.607321 85.759914 
L 569.763801 88.680123 
L 589.92028 87.592975 
L 610.07676 91.467678 
L 630.23324 95.339956 
L 650.38972 95.994225 
L 670.546199 98.135804 
L 690.702679 98.714314 
L 710.859159 96.512813 
L 731.015638 103.466768 
L 751.172118 101.865446 
L 771.328598 99.196378 
L 791.485077 97.605803 
L 811.641557 94.0166 
L 831.798037 102.325913 
L 851.954516 81.692413 
L 872.110996 80.823831 
L 892.267476 79.167088 
L 912.423956 99.8084 
L 932.580435 91.302222 
L 952.736915 91.302222 
L 972.893395 93.720265 
L 993.049874 91.302222 
L 1013.206354 91.302222 
L 1033.362834 91.302222 
L 1053.519313 91.302222 
L 1073.675793 91.302222 
L 1093.832273 91.302222 
" clip-path="url(#p4a4c8a2dcc)" style="fill: none; stroke: #f667c6; stroke-width: 1.5; stroke-linecap: square"/>
   </g>
   <g id="line2d_23"/>
   <g id="line2d_24"/>
   <g id="line2d_25"/>
   <g id="line2d_26"/>
   <g id="line2d_27"/>
   <g id="line2d_28"/>
   <g id="line2d_29"/>
   <g id="line2d_30"/>
   <g id="line2d_31"/>
   <g id="line2d_32"/>
   <g id="line2d_33"/>
   <g id="patch_3">
    <path d="M 99.11 489.832 
L 99.11 10.8 
" style="fill: none; stroke: #000000; stroke-width: 0.8; stroke-linejoin: miter; stroke-linecap: square"/>
   </g>
   <g id="patch_4">
    <path d="M 1141.2 489.832 
L 1141.2 10.8 
" style="fill: none; stroke: #000000; stroke-width: 0.8; stroke-linejoin: miter; stroke-linecap: square"/>
   </g>
   <g id="patch_5">
    <path d="M 99.11 489.832 
L 1141.2 489.832 
" style="fill: none; stroke: #000000; stroke-width: 0.8; stroke-linejoin: miter; stroke-linecap: square"/>
   </g>
   <g id="patch_6">
    <path d="M 99.11 10.8 
L 1141.2 10.8 
" style="fill: none; stroke: #000000; stroke-width: 0.8; stroke-linejoin: miter; stroke-linecap: square"/>
   </g>
   <g id="legend_1">
    <g id="patch_7">
     <path d="M 110.31 481.832 
L 280.055 481.832 
Q 283.255 481.832 283.255 478.632 
L 283.255 221.897 
Q 283.255 218.697 280.055 218.697 
L 110.31 218.697 
Q 107.11 218.697 107.11 221.897 
L 107.11 478.632 
Q 107.11 481.832 110.31 481.832 
z
" style="fill: #ffffff; opacity: 0.8; stroke: #cccccc; stroke-linejoin: miter"/>
    </g>
    <g id="line2d_34">
     <path d="M 113.51 231.6545 
L 129.51 231.6545 
L 145.51 231.6545 
" style="fill: none; stroke: #f77189; stroke-width: 1.5; stroke-linecap: square"/>
    </g>
    <g id="text_14">
     <!-- gbr -->
     <g transform="translate(158.31 237.2545) scale(0.16 -0.16)">
      <defs>
       <path id="DejaVuSans-62" d="M 3116 1747 
Q 3116 2381 2855 2742 
Q 2594 3103 2138 3103 
Q 1681 3103 1420 2742 
Q 1159 2381 1159 1747 
Q 1159 1113 1420 752 
Q 1681 391 2138 391 
Q 2594 391 2855 752 
Q 3116 1113 3116 1747 
z
M 1159 2969 
Q 1341 3281 1617 3432 
Q 1894 3584 2278 3584 
Q 2916 3584 3314 3078 
Q 3713 2572 3713 1747 
Q 3713 922 3314 415 
Q 2916 -91 2278 -91 
Q 1894 -91 1617 61 
Q 1341 213 1159 525 
L 1159 0 
L 581 0 
L 581 4863 
L 1159 4863 
L 1159 2969 
z
" transform="scale(0.015625)"/>
      </defs>
      <use xlink:href="#DejaVuSans-67"/>
      <use xlink:href="#DejaVuSans-62" x="63.476562"/>
      <use xlink:href="#DejaVuSans-72" x="126.953125"/>
     </g>
    </g>
    <g id="line2d_35">
     <path d="M 113.51 255.1395 
L 129.51 255.1395 
L 145.51 255.1395 
" style="fill: none; stroke: #e18632; stroke-width: 1.5; stroke-linecap: square"/>
    </g>
    <g id="text_15">
     <!-- lgbm -->
     <g transform="translate(158.31 260.7395) scale(0.16 -0.16)">
      <use xlink:href="#DejaVuSans-6c"/>
      <use xlink:href="#DejaVuSans-67" x="27.783203"/>
      <use xlink:href="#DejaVuSans-62" x="91.259766"/>
      <use xlink:href="#DejaVuSans-6d" x="154.736328"/>
     </g>
    </g>
    <g id="line2d_36">
     <path d="M 113.51 278.6245 
L 129.51 278.6245 
L 145.51 278.6245 
" style="fill: none; stroke: #b59a32; stroke-width: 1.5; stroke-linecap: square"/>
    </g>
    <g id="text_16">
     <!-- rf -->
     <g transform="translate(158.31 284.2245) scale(0.16 -0.16)">
      <defs>
       <path id="DejaVuSans-66" d="M 2375 4863 
L 2375 4384 
L 1825 4384 
Q 1516 4384 1395 4259 
Q 1275 4134 1275 3809 
L 1275 3500 
L 2222 3500 
L 2222 3053 
L 1275 3053 
L 1275 0 
L 697 0 
L 697 3053 
L 147 3053 
L 147 3500 
L 697 3500 
L 697 3744 
Q 697 4328 969 4595 
Q 1241 4863 1831 4863 
L 2375 4863 
z
" transform="scale(0.015625)"/>
      </defs>
      <use xlink:href="#DejaVuSans-72"/>
      <use xlink:href="#DejaVuSans-66" x="41.113281"/>
     </g>
    </g>
    <g id="line2d_37">
     <path d="M 113.51 302.1095 
L 129.51 302.1095 
L 145.51 302.1095 
" style="fill: none; stroke: #8ba731; stroke-width: 1.5; stroke-linecap: square"/>
    </g>
    <g id="text_17">
     <!-- xgb -->
     <g transform="translate(158.31 307.7095) scale(0.16 -0.16)">
      <use xlink:href="#DejaVuSans-78"/>
      <use xlink:href="#DejaVuSans-67" x="59.179688"/>
      <use xlink:href="#DejaVuSans-62" x="122.65625"/>
     </g>
    </g>
    <g id="line2d_38">
     <path d="M 113.51 325.5945 
L 129.51 325.5945 
L 145.51 325.5945 
" style="fill: none; stroke: #32b258; stroke-width: 1.5; stroke-linecap: square"/>
    </g>
    <g id="text_18">
     <!-- et -->
     <g transform="translate(158.31 331.1945) scale(0.16 -0.16)">
      <use xlink:href="#DejaVuSans-65"/>
      <use xlink:href="#DejaVuSans-74" x="61.523438"/>
     </g>
    </g>
    <g id="line2d_39">
     <path d="M 113.51 349.0795 
L 129.51 349.0795 
L 145.51 349.0795 
" style="fill: none; stroke: #35ae95; stroke-width: 1.5; stroke-linecap: square"/>
    </g>
    <g id="text_19">
     <!-- BayesianRidge -->
     <g transform="translate(158.31 354.6795) scale(0.16 -0.16)">
      <defs>
       <path id="DejaVuSans-42" d="M 1259 2228 
L 1259 519 
L 2272 519 
Q 2781 519 3026 730 
Q 3272 941 3272 1375 
Q 3272 1813 3026 2020 
Q 2781 2228 2272 2228 
L 1259 2228 
z
M 1259 4147 
L 1259 2741 
L 2194 2741 
Q 2656 2741 2882 2914 
Q 3109 3088 3109 3444 
Q 3109 3797 2882 3972 
Q 2656 4147 2194 4147 
L 1259 4147 
z
M 628 4666 
L 2241 4666 
Q 2963 4666 3353 4366 
Q 3744 4066 3744 3513 
Q 3744 3084 3544 2831 
Q 3344 2578 2956 2516 
Q 3422 2416 3680 2098 
Q 3938 1781 3938 1306 
Q 3938 681 3513 340 
Q 3088 0 2303 0 
L 628 0 
L 628 4666 
z
" transform="scale(0.015625)"/>
       <path id="DejaVuSans-79" d="M 2059 -325 
Q 1816 -950 1584 -1140 
Q 1353 -1331 966 -1331 
L 506 -1331 
L 506 -850 
L 844 -850 
Q 1081 -850 1212 -737 
Q 1344 -625 1503 -206 
L 1606 56 
L 191 3500 
L 800 3500 
L 1894 763 
L 2988 3500 
L 3597 3500 
L 2059 -325 
z
" transform="scale(0.015625)"/>
       <path id="DejaVuSans-52" d="M 2841 2188 
Q 3044 2119 3236 1894 
Q 3428 1669 3622 1275 
L 4263 0 
L 3584 0 
L 2988 1197 
Q 2756 1666 2539 1819 
Q 2322 1972 1947 1972 
L 1259 1972 
L 1259 0 
L 628 0 
L 628 4666 
L 2053 4666 
Q 2853 4666 3247 4331 
Q 3641 3997 3641 3322 
Q 3641 2881 3436 2590 
Q 3231 2300 2841 2188 
z
M 1259 4147 
L 1259 2491 
L 2053 2491 
Q 2509 2491 2742 2702 
Q 2975 2913 2975 3322 
Q 2975 3731 2742 3939 
Q 2509 4147 2053 4147 
L 1259 4147 
z
" transform="scale(0.015625)"/>
      </defs>
      <use xlink:href="#DejaVuSans-42"/>
      <use xlink:href="#DejaVuSans-61" x="68.603516"/>
      <use xlink:href="#DejaVuSans-79" x="129.882812"/>
      <use xlink:href="#DejaVuSans-65" x="189.0625"/>
      <use xlink:href="#DejaVuSans-73" x="250.585938"/>
      <use xlink:href="#DejaVuSans-69" x="302.685547"/>
      <use xlink:href="#DejaVuSans-61" x="330.46875"/>
      <use xlink:href="#DejaVuSans-6e" x="391.748047"/>
      <use xlink:href="#DejaVuSans-52" x="455.126953"/>
      <use xlink:href="#DejaVuSans-69" x="524.609375"/>
      <use xlink:href="#DejaVuSans-64" x="552.392578"/>
      <use xlink:href="#DejaVuSans-67" x="615.869141"/>
      <use xlink:href="#DejaVuSans-65" x="679.345703"/>
     </g>
    </g>
    <g id="line2d_40">
     <path d="M 113.51 372.5645 
L 129.51 372.5645 
L 145.51 372.5645 
" style="fill: none; stroke: #37abb2; stroke-width: 1.5; stroke-linecap: square"/>
    </g>
    <g id="text_20">
     <!-- LassoLars -->
     <g transform="translate(158.31 378.1645) scale(0.16 -0.16)">
      <defs>
       <path id="DejaVuSans-4c" d="M 628 4666 
L 1259 4666 
L 1259 531 
L 3531 531 
L 3531 0 
L 628 0 
L 628 4666 
z
" transform="scale(0.015625)"/>
      </defs>
      <use xlink:href="#DejaVuSans-4c"/>
      <use xlink:href="#DejaVuSans-61" x="55.712891"/>
      <use xlink:href="#DejaVuSans-73" x="116.992188"/>
      <use xlink:href="#DejaVuSans-73" x="169.091797"/>
      <use xlink:href="#DejaVuSans-6f" x="221.191406"/>
      <use xlink:href="#DejaVuSans-4c" x="282.373047"/>
      <use xlink:href="#DejaVuSans-61" x="338.085938"/>
      <use xlink:href="#DejaVuSans-72" x="399.365234"/>
      <use xlink:href="#DejaVuSans-73" x="440.478516"/>
     </g>
    </g>
    <g id="line2d_41">
     <path d="M 113.51 396.0495 
L 129.51 396.0495 
L 145.51 396.0495 
" style="fill: none; stroke: #39a7d6; stroke-width: 1.5; stroke-linecap: square"/>
    </g>
    <g id="text_21">
     <!-- Lasso -->
     <g transform="translate(158.31 401.6495) scale(0.16 -0.16)">
      <use xlink:href="#DejaVuSans-4c"/>
      <use xlink:href="#DejaVuSans-61" x="55.712891"/>
      <use xlink:href="#DejaVuSans-73" x="116.992188"/>
      <use xlink:href="#DejaVuSans-73" x="169.091797"/>
      <use xlink:href="#DejaVuSans-6f" x="221.191406"/>
     </g>
    </g>
    <g id="line2d_42">
     <path d="M 113.51 419.5345 
L 129.51 419.5345 
L 145.51 419.5345 
" style="fill: none; stroke: #8f93f4; stroke-width: 1.5; stroke-linecap: square"/>
    </g>
    <g id="text_22">
     <!-- dt -->
     <g transform="translate(158.31 425.1345) scale(0.16 -0.16)">
      <use xlink:href="#DejaVuSans-64"/>
      <use xlink:href="#DejaVuSans-74" x="63.476562"/>
     </g>
    </g>
    <g id="line2d_43">
     <path d="M 113.51 443.0195 
L 129.51 443.0195 
L 145.51 443.0195 
" style="fill: none; stroke: #db70f4; stroke-width: 1.5; stroke-linecap: square"/>
    </g>
    <g id="text_23">
     <!-- Adaboost -->
     <g transform="translate(158.31 448.6195) scale(0.16 -0.16)">
      <use xlink:href="#DejaVuSans-41"/>
      <use xlink:href="#DejaVuSans-64" x="66.658203"/>
      <use xlink:href="#DejaVuSans-61" x="130.134766"/>
      <use xlink:href="#DejaVuSans-62" x="191.414062"/>
      <use xlink:href="#DejaVuSans-6f" x="254.890625"/>
      <use xlink:href="#DejaVuSans-6f" x="316.072266"/>
      <use xlink:href="#DejaVuSans-73" x="377.253906"/>
      <use xlink:href="#DejaVuSans-74" x="429.353516"/>
     </g>
    </g>
    <g id="line2d_44">
     <path d="M 113.51 466.5045 
L 129.51 466.5045 
L 145.51 466.5045 
" style="fill: none; stroke: #f667c6; stroke-width: 1.5; stroke-linecap: square"/>
    </g>
    <g id="text_24">
     <!-- HubR -->
     <g transform="translate(158.31 472.1045) scale(0.16 -0.16)">
      <defs>
       <path id="DejaVuSans-75" d="M 544 1381 
L 544 3500 
L 1119 3500 
L 1119 1403 
Q 1119 906 1312 657 
Q 1506 409 1894 409 
Q 2359 409 2629 706 
Q 2900 1003 2900 1516 
L 2900 3500 
L 3475 3500 
L 3475 0 
L 2900 0 
L 2900 538 
Q 2691 219 2414 64 
Q 2138 -91 1772 -91 
Q 1169 -91 856 284 
Q 544 659 544 1381 
z
M 1991 3584 
L 1991 3584 
z
" transform="scale(0.015625)"/>
      </defs>
      <use xlink:href="#DejaVuSans-48"/>
      <use xlink:href="#DejaVuSans-75" x="75.195312"/>
      <use xlink:href="#DejaVuSans-62" x="138.574219"/>
      <use xlink:href="#DejaVuSans-52" x="202.050781"/>
     </g>
    </g>
   </g>
  </g>
 </g>
 <defs>
  <clipPath id="p4a4c8a2dcc">
   <rect x="99.11" y="10.8" width="1042.09" height="479.032"/>
  </clipPath>
 </defs>
</svg>
