<?xml version="1.0" encoding="utf-8" standalone="no"?>
<!DOCTYPE svg PUBLIC "-//W3C//DTD SVG 1.1//EN"
  "http://www.w3.org/Graphics/SVG/1.1/DTD/svg11.dtd">
<svg xmlns:xlink="http://www.w3.org/1999/xlink" width="1152pt" height="576pt" viewBox="0 0 1152 576" xmlns="http://www.w3.org/2000/svg" version="1.1">
 <metadata>
  <rdf:RDF xmlns:dc="http://purl.org/dc/elements/1.1/" xmlns:cc="http://creativecommons.org/ns#" xmlns:rdf="http://www.w3.org/1999/02/22-rdf-syntax-ns#">
   <cc:Work>
    <dc:type rdf:resource="http://purl.org/dc/dcmitype/StillImage"/>
    <dc:date>2024-08-27T10:32:45.029016</dc:date>
    <dc:format>image/svg+xml</dc:format>
    <dc:creator>
     <cc:Agent>
      <dc:title>Matplotlib v3.7.1, https://matplotlib.org/</dc:title>
     </cc:Agent>
    </dc:creator>
   </cc:Work>
  </rdf:RDF>
 </metadata>
 <defs>
  <style type="text/css">*{stroke-linejoin: round; stroke-linecap: butt}</style>
 </defs>
 <g id="figure_1">
  <g id="patch_1">
   <path d="M 0 576 
L 1152 576 
L 1152 0 
L 0 0 
z
" style="fill: #ffffff"/>
  </g>
  <g id="axes_1">
   <g id="patch_2">
    <path d="M 86.42 490.552 
L 1141.2 490.552 
L 1141.2 10.8 
L 86.42 10.8 
z
" style="fill: #ffffff"/>
   </g>
   <g id="PolyCollection_1">
    <defs>
     <path id="maa8427142f" d="M 134.364545 -509.300987 
L 134.364545 -484.537174 
L 154.76648 -512.560594 
L 175.168414 -524.626533 
L 195.570348 -516.635074 
L 215.972282 -523.131709 
L 236.374217 -510.949332 
L 256.776151 -513.573553 
L 277.178085 -516.502251 
L 297.580019 -506.189278 
L 317.981954 -511.75567 
L 338.383888 -482.389457 
L 358.785822 -508.849518 
L 379.187756 -492.673525 
L 399.589691 -477.122815 
L 419.991625 -514.111108 
L 440.393559 -510.192579 
L 460.795493 -467.952931 
L 481.197427 -509.040064 
L 501.599362 -504.489006 
L 522.001296 -506.346627 
L 542.40323 -486.487672 
L 562.805164 -512.624931 
L 583.207099 -510.017792 
L 603.609033 -505.276405 
L 624.010967 -510.099028 
L 644.412901 -499.538164 
L 664.814836 -510.223325 
L 685.21677 -517.165526 
L 705.618704 -503.891998 
L 726.020638 -515.704113 
L 746.422573 -509.584422 
L 766.824507 -514.526838 
L 787.226441 -500.355895 
L 807.628375 -517.582472 
L 828.030309 -488.660831 
L 848.432244 -476.73371 
L 868.834178 -505.440918 
L 889.236112 -499.130093 
L 909.638046 -508.586078 
L 930.039981 -499.718191 
L 950.441915 -502.386384 
L 970.843849 -504.369045 
L 991.245783 -492.7031 
L 1011.647718 -499.718286 
L 1032.049652 -502.254989 
L 1052.451586 -488.39793 
L 1072.85352 -503.846539 
L 1093.255455 -489.057213 
L 1093.255455 -526.535483 
L 1093.255455 -526.535483 
L 1072.85352 -531.17565 
L 1052.451586 -517.077164 
L 1032.049652 -522.616647 
L 1011.647718 -527.280405 
L 991.245783 -519.376979 
L 970.843849 -519.249546 
L 950.441915 -521.011223 
L 930.039981 -526.082713 
L 909.638046 -520.558992 
L 889.236112 -516.816398 
L 868.834178 -522.147769 
L 848.432244 -510.723816 
L 828.030309 -526.250919 
L 807.628375 -531.644654 
L 787.226441 -526.252245 
L 766.824507 -534.686781 
L 746.422573 -527.432084 
L 726.020638 -534.821541 
L 705.618704 -530.073404 
L 685.21677 -524.91412 
L 664.814836 -526.798682 
L 644.412901 -519.986461 
L 624.010967 -529.3416 
L 603.609033 -528.203906 
L 583.207099 -526.458772 
L 562.805164 -530.027294 
L 542.40323 -523.657806 
L 522.001296 -517.148762 
L 501.599362 -531.330714 
L 481.197427 -528.876135 
L 460.795493 -526.398704 
L 440.393559 -525.071931 
L 419.991625 -532.11935 
L 399.589691 -515.529614 
L 379.187756 -523.972308 
L 358.785822 -520.286236 
L 338.383888 -526.875797 
L 317.981954 -530.091843 
L 297.580019 -532.587918 
L 277.178085 -533.478174 
L 256.776151 -536.483597 
L 236.374217 -543.393091 
L 215.972282 -529.906407 
L 195.570348 -531.282029 
L 175.168414 -533.745196 
L 154.76648 -533.115017 
L 134.364545 -509.300987 
z
" style="stroke: #f77189; stroke-opacity: 0.2"/>
    </defs>
    <g clip-path="url(#pd45bf20d31)">
     <use xlink:href="#maa8427142f" x="0" y="576" style="fill: #f77189; fill-opacity: 0.2; stroke: #f77189; stroke-opacity: 0.2"/>
    </g>
   </g>
   <g id="PolyCollection_2">
    <defs>
     <path id="m282b23c4f5" d="M 134.364545 -492.233816 
L 134.364545 -455.102483 
L 154.76648 -477.596292 
L 175.168414 -489.930651 
L 195.570348 -487.257019 
L 215.972282 -491.520899 
L 236.374217 -467.833912 
L 256.776151 -491.792098 
L 277.178085 -495.868571 
L 297.580019 -483.287201 
L 317.981954 -484.730887 
L 338.383888 -454.661023 
L 358.785822 -476.039834 
L 379.187756 -457.105622 
L 399.589691 -450.532791 
L 419.991625 -483.113566 
L 440.393559 -488.285969 
L 460.795493 -445.305798 
L 481.197427 -481.071959 
L 501.599362 -481.613624 
L 522.001296 -479.580087 
L 542.40323 -461.005498 
L 562.805164 -480.908546 
L 583.207099 -489.063563 
L 603.609033 -488.067154 
L 624.010967 -473.499207 
L 644.412901 -470.866005 
L 664.814836 -487.111414 
L 685.21677 -491.820702 
L 705.618704 -472.521561 
L 726.020638 -493.309837 
L 746.422573 -484.795096 
L 766.824507 -480.13144 
L 787.226441 -463.121921 
L 807.628375 -485.795718 
L 828.030309 -452.026994 
L 848.432244 -441.320851 
L 868.834178 -466.09583 
L 889.236112 -465.492303 
L 909.638046 -468.223924 
L 930.039981 -450.137053 
L 950.441915 -455.445372 
L 970.843849 -474.186693 
L 991.245783 -456.593057 
L 1011.647718 -460.400713 
L 1032.049652 -463.44001 
L 1052.451586 -455.267672 
L 1072.85352 -468.069801 
L 1093.255455 -452.93354 
L 1093.255455 -499.80704 
L 1093.255455 -499.80704 
L 1072.85352 -499.45763 
L 1052.451586 -480.846559 
L 1032.049652 -494.95981 
L 1011.647718 -502.225597 
L 991.245783 -484.38922 
L 970.843849 -500.162056 
L 950.441915 -491.887063 
L 930.039981 -496.161633 
L 909.638046 -490.414177 
L 889.236112 -499.156062 
L 868.834178 -496.600902 
L 848.432244 -482.060142 
L 828.030309 -494.363221 
L 807.628375 -498.123859 
L 787.226441 -495.770898 
L 766.824507 -504.833098 
L 746.422573 -501.628987 
L 726.020638 -513.405949 
L 705.618704 -500.941284 
L 685.21677 -504.710983 
L 664.814836 -501.622495 
L 644.412901 -495.509871 
L 624.010967 -501.141395 
L 603.609033 -505.124238 
L 583.207099 -495.181362 
L 562.805164 -500.370969 
L 542.40323 -491.145794 
L 522.001296 -487.795375 
L 501.599362 -501.761095 
L 481.197427 -499.25489 
L 460.795493 -503.599351 
L 440.393559 -502.237533 
L 419.991625 -500.573001 
L 399.589691 -493.64204 
L 379.187756 -485.329517 
L 358.785822 -495.218614 
L 338.383888 -500.993992 
L 317.981954 -506.16023 
L 297.580019 -511.273292 
L 277.178085 -506.188255 
L 256.776151 -513.304274 
L 236.374217 -514.70239 
L 215.972282 -502.715573 
L 195.570348 -507.094737 
L 175.168414 -504.73987 
L 154.76648 -507.784332 
L 134.364545 -492.233816 
z
" style="stroke: #e18632; stroke-opacity: 0.2"/>
    </defs>
    <g clip-path="url(#pd45bf20d31)">
     <use xlink:href="#m282b23c4f5" x="0" y="576" style="fill: #e18632; fill-opacity: 0.2; stroke: #e18632; stroke-opacity: 0.2"/>
    </g>
   </g>
   <g id="PolyCollection_3">
    <defs>
     <path id="m90f1c54ef9" d="M 134.364545 -510.600375 
L 134.364545 -488.418051 
L 154.76648 -505.551473 
L 175.168414 -517.945605 
L 195.570348 -513.048122 
L 215.972282 -522.674322 
L 236.374217 -493.255867 
L 256.776151 -522.817374 
L 277.178085 -521.969659 
L 297.580019 -518.60385 
L 317.981954 -514.277122 
L 338.383888 -499.487502 
L 358.785822 -504.470386 
L 379.187756 -501.076212 
L 399.589691 -488.57749 
L 419.991625 -506.58519 
L 440.393559 -511.322839 
L 460.795493 -488.070496 
L 481.197427 -508.491254 
L 501.599362 -508.993686 
L 522.001296 -511.789218 
L 542.40323 -488.209629 
L 562.805164 -506.156462 
L 583.207099 -519.326643 
L 603.609033 -513.989113 
L 624.010967 -507.703035 
L 644.412901 -498.357936 
L 664.814836 -515.302719 
L 685.21677 -518.682054 
L 705.618704 -508.233331 
L 726.020638 -516.312814 
L 746.422573 -512.081889 
L 766.824507 -508.747914 
L 787.226441 -504.105511 
L 807.628375 -518.435193 
L 828.030309 -493.222941 
L 848.432244 -485.368776 
L 868.834178 -485.847148 
L 889.236112 -497.38349 
L 909.638046 -511.298292 
L 930.039981 -492.698213 
L 950.441915 -504.950799 
L 970.843849 -507.04337 
L 991.245783 -502.371015 
L 1011.647718 -492.752254 
L 1032.049652 -502.986271 
L 1052.451586 -496.631452 
L 1072.85352 -499.324416 
L 1093.255455 -491.190776 
L 1093.255455 -524.352128 
L 1093.255455 -524.352128 
L 1072.85352 -527.088838 
L 1052.451586 -523.530417 
L 1032.049652 -520.599098 
L 1011.647718 -517.541014 
L 991.245783 -519.017246 
L 970.843849 -527.357466 
L 950.441915 -518.46413 
L 930.039981 -523.344617 
L 909.638046 -520.591979 
L 889.236112 -518.868327 
L 868.834178 -520.16374 
L 848.432244 -514.551502 
L 828.030309 -534.572127 
L 807.628375 -531.864266 
L 787.226441 -529.482447 
L 766.824507 -533.658674 
L 746.422573 -526.90583 
L 726.020638 -532.948477 
L 705.618704 -528.383991 
L 685.21677 -535.670496 
L 664.814836 -530.381033 
L 644.412901 -520.971032 
L 624.010967 -527.919417 
L 603.609033 -527.765331 
L 583.207099 -531.092444 
L 562.805164 -522.963965 
L 542.40323 -521.785793 
L 522.001296 -525.180471 
L 501.599362 -521.277229 
L 481.197427 -522.580473 
L 460.795493 -528.208344 
L 440.393559 -523.087914 
L 419.991625 -530.380197 
L 399.589691 -531.714782 
L 379.187756 -521.621816 
L 358.785822 -531.579768 
L 338.383888 -530.235882 
L 317.981954 -524.55058 
L 297.580019 -533.346315 
L 277.178085 -531.830438 
L 256.776151 -530.680187 
L 236.374217 -531.814848 
L 215.972282 -529.98116 
L 195.570348 -527.123291 
L 175.168414 -533.372753 
L 154.76648 -528.206217 
L 134.364545 -510.600375 
z
" style="stroke: #b59a32; stroke-opacity: 0.2"/>
    </defs>
    <g clip-path="url(#pd45bf20d31)">
     <use xlink:href="#m90f1c54ef9" x="0" y="576" style="fill: #b59a32; fill-opacity: 0.2; stroke: #b59a32; stroke-opacity: 0.2"/>
    </g>
   </g>
   <g id="PolyCollection_4">
    <defs>
     <path id="m666940b092" d="M 134.364545 -490.501408 
L 134.364545 -474.694569 
L 154.76648 -490.141072 
L 175.168414 -490.681802 
L 195.570348 -494.298797 
L 215.972282 -501.062158 
L 236.374217 -493.208115 
L 256.776151 -505.129057 
L 277.178085 -509.42001 
L 297.580019 -491.75156 
L 317.981954 -488.525471 
L 338.383888 -482.377739 
L 358.785822 -492.79835 
L 379.187756 -472.972344 
L 399.589691 -464.304983 
L 419.991625 -480.857699 
L 440.393559 -490.31356 
L 460.795493 -459.539028 
L 481.197427 -494.739999 
L 501.599362 -481.280095 
L 522.001296 -471.663832 
L 542.40323 -467.006788 
L 562.805164 -487.722356 
L 583.207099 -498.310967 
L 603.609033 -495.637944 
L 624.010967 -495.821331 
L 644.412901 -483.238692 
L 664.814836 -484.622387 
L 685.21677 -495.659371 
L 705.618704 -492.615169 
L 726.020638 -495.53464 
L 746.422573 -482.632149 
L 766.824507 -501.52921 
L 787.226441 -484.922025 
L 807.628375 -493.885554 
L 828.030309 -456.238473 
L 848.432244 -443.029554 
L 868.834178 -477.647812 
L 889.236112 -469.52672 
L 909.638046 -486.534671 
L 930.039981 -468.629185 
L 950.441915 -477.070549 
L 970.843849 -481.695773 
L 991.245783 -472.887639 
L 1011.647718 -455.146566 
L 1032.049652 -478.803947 
L 1052.451586 -476.19809 
L 1072.85352 -457.165287 
L 1093.255455 -446.956259 
L 1093.255455 -496.699801 
L 1093.255455 -496.699801 
L 1072.85352 -495.006774 
L 1052.451586 -504.165306 
L 1032.049652 -506.656852 
L 1011.647718 -492.256148 
L 991.245783 -501.472629 
L 970.843849 -504.878938 
L 950.441915 -501.829891 
L 930.039981 -503.499623 
L 909.638046 -496.859986 
L 889.236112 -503.52301 
L 868.834178 -515.80314 
L 848.432244 -497.737057 
L 828.030309 -507.358137 
L 807.628375 -514.197849 
L 787.226441 -521.839579 
L 766.824507 -515.957059 
L 746.422573 -504.635078 
L 726.020638 -517.389037 
L 705.618704 -501.986198 
L 685.21677 -513.66848 
L 664.814836 -510.418865 
L 644.412901 -507.882283 
L 624.010967 -519.252857 
L 603.609033 -513.440364 
L 583.207099 -512.510832 
L 562.805164 -498.302388 
L 542.40323 -501.843062 
L 522.001296 -494.325504 
L 501.599362 -507.565869 
L 481.197427 -518.264048 
L 460.795493 -504.940912 
L 440.393559 -510.317398 
L 419.991625 -513.149606 
L 399.589691 -497.645518 
L 379.187756 -512.594197 
L 358.785822 -517.562754 
L 338.383888 -514.07837 
L 317.981954 -507.501002 
L 297.580019 -512.893892 
L 277.178085 -523.217209 
L 256.776151 -514.434856 
L 236.374217 -522.539425 
L 215.972282 -516.050049 
L 195.570348 -514.798487 
L 175.168414 -509.493964 
L 154.76648 -514.819629 
L 134.364545 -490.501408 
z
" style="stroke: #8ba731; stroke-opacity: 0.2"/>
    </defs>
    <g clip-path="url(#pd45bf20d31)">
     <use xlink:href="#m666940b092" x="0" y="576" style="fill: #8ba731; fill-opacity: 0.2; stroke: #8ba731; stroke-opacity: 0.2"/>
    </g>
   </g>
   <g id="PolyCollection_5">
    <defs>
     <path id="mabec490cdb" d="M 134.364545 -371.786356 
L 134.364545 -241.660167 
L 154.76648 -287.249343 
L 175.168414 -244.061457 
L 195.570348 -236.1446 
L 215.972282 -270.582962 
L 236.374217 -280.704948 
L 256.776151 -317.139727 
L 277.178085 -315.092885 
L 297.580019 -263.448967 
L 317.981954 -275.802295 
L 338.383888 -220.922659 
L 358.785822 -219.370308 
L 379.187756 -230.043529 
L 399.589691 -170.020978 
L 419.991625 -258.71703 
L 440.393559 -275.294647 
L 460.795493 -216.066699 
L 481.197427 -191.337939 
L 501.599362 -277.526328 
L 522.001296 -275.846204 
L 542.40323 -239.322125 
L 562.805164 -238.406756 
L 583.207099 -278.313011 
L 603.609033 -302.366344 
L 624.010967 -194.20688 
L 644.412901 -230.12511 
L 664.814836 -286.114643 
L 685.21677 -274.251245 
L 705.618704 -212.87163 
L 726.020638 -310.848169 
L 746.422573 -294.862348 
L 766.824507 -327.422977 
L 787.226441 -215.46385 
L 807.628375 -266.411028 
L 828.030309 -261.328256 
L 848.432244 -252.684619 
L 868.834178 -260.693768 
L 889.236112 -230.771996 
L 909.638046 -277.417093 
L 930.039981 -225.302166 
L 950.441915 -249.009971 
L 970.843849 -274.206805 
L 991.245783 -273.319315 
L 1011.647718 -295.023371 
L 1032.049652 -220.60314 
L 1052.451586 -263.365764 
L 1072.85352 -286.343421 
L 1093.255455 -183.57998 
L 1093.255455 -297.398301 
L 1093.255455 -297.398301 
L 1072.85352 -389.717736 
L 1052.451586 -346.976351 
L 1032.049652 -319.571449 
L 1011.647718 -384.459012 
L 991.245783 -359.045864 
L 970.843849 -385.346238 
L 950.441915 -326.365704 
L 930.039981 -353.259222 
L 909.638046 -383.073657 
L 889.236112 -347.749661 
L 868.834178 -348.50942 
L 848.432244 -372.122323 
L 828.030309 -339.223158 
L 807.628375 -323.340824 
L 787.226441 -348.328571 
L 766.824507 -372.807791 
L 746.422573 -349.157493 
L 726.020638 -413.082481 
L 705.618704 -364.989328 
L 685.21677 -386.635035 
L 664.814836 -383.950232 
L 644.412901 -314.224338 
L 624.010967 -330.381612 
L 603.609033 -344.302468 
L 583.207099 -376.151456 
L 562.805164 -371.327901 
L 542.40323 -298.066033 
L 522.001296 -351.69982 
L 501.599362 -331.653645 
L 481.197427 -326.092469 
L 460.795493 -406.127126 
L 440.393559 -338.294288 
L 419.991625 -302.605798 
L 399.589691 -288.808302 
L 379.187756 -318.290634 
L 358.785822 -321.554968 
L 338.383888 -391.383314 
L 317.981954 -378.378883 
L 297.580019 -359.841173 
L 277.178085 -392.838587 
L 256.776151 -348.401226 
L 236.374217 -375.493872 
L 215.972282 -324.993838 
L 195.570348 -329.588217 
L 175.168414 -353.31746 
L 154.76648 -404.041181 
L 134.364545 -371.786356 
z
" style="stroke: #32b258; stroke-opacity: 0.2"/>
    </defs>
    <g clip-path="url(#pd45bf20d31)">
     <use xlink:href="#mabec490cdb" x="0" y="576" style="fill: #32b258; fill-opacity: 0.2; stroke: #32b258; stroke-opacity: 0.2"/>
    </g>
   </g>
   <g id="PolyCollection_6">
    <defs>
     <path id="m33b268ccfd" d="M 134.364545 -449.041417 
L 134.364545 -424.740933 
L 154.76648 -453.982369 
L 175.168414 -459.25166 
L 195.570348 -467.74003 
L 215.972282 -458.74566 
L 236.374217 -431.572888 
L 256.776151 -451.391298 
L 277.178085 -448.966308 
L 297.580019 -449.646422 
L 317.981954 -451.289293 
L 338.383888 -420.757282 
L 358.785822 -436.614234 
L 379.187756 -431.784992 
L 399.589691 -424.168808 
L 419.991625 -442.072463 
L 440.393559 -454.181253 
L 460.795493 -417.901878 
L 481.197427 -436.454465 
L 501.599362 -447.901231 
L 522.001296 -430.13215 
L 542.40323 -421.168305 
L 562.805164 -422.978747 
L 583.207099 -449.760536 
L 603.609033 -457.235731 
L 624.010967 -447.092934 
L 644.412901 -424.926699 
L 664.814836 -450.507321 
L 685.21677 -452.839878 
L 705.618704 -456.574567 
L 726.020638 -463.564458 
L 746.422573 -446.036739 
L 766.824507 -465.111893 
L 787.226441 -453.115809 
L 807.628375 -465.041198 
L 828.030309 -423.551416 
L 848.432244 -412.579384 
L 868.834178 -420.020278 
L 889.236112 -443.325088 
L 909.638046 -454.65506 
L 930.039981 -443.478901 
L 950.441915 -436.241177 
L 970.843849 -445.310238 
L 991.245783 -446.777024 
L 1011.647718 -429.763499 
L 1032.049652 -459.273943 
L 1052.451586 -424.889111 
L 1072.85352 -435.722602 
L 1093.255455 -431.450036 
L 1093.255455 -471.139962 
L 1093.255455 -471.139962 
L 1072.85352 -470.778031 
L 1052.451586 -464.706259 
L 1032.049652 -471.541726 
L 1011.647718 -466.724505 
L 991.245783 -466.895132 
L 970.843849 -470.79717 
L 950.441915 -470.029314 
L 930.039981 -471.751898 
L 909.638046 -470.725143 
L 889.236112 -473.910831 
L 868.834178 -474.958386 
L 848.432244 -456.88751 
L 828.030309 -484.045974 
L 807.628375 -479.619013 
L 787.226441 -481.551913 
L 766.824507 -490.122611 
L 746.422573 -473.652614 
L 726.020638 -473.007062 
L 705.618704 -469.107901 
L 685.21677 -476.196526 
L 664.814836 -470.782388 
L 644.412901 -470.751607 
L 624.010967 -467.711932 
L 603.609033 -481.624689 
L 583.207099 -475.440016 
L 562.805164 -473.805922 
L 542.40323 -472.170204 
L 522.001296 -472.32854 
L 501.599362 -468.941522 
L 481.197427 -469.536963 
L 460.795493 -461.788199 
L 440.393559 -482.954953 
L 419.991625 -480.372256 
L 399.589691 -470.335854 
L 379.187756 -475.788932 
L 358.785822 -465.865529 
L 338.383888 -467.457816 
L 317.981954 -471.804841 
L 297.580019 -473.652639 
L 277.178085 -478.479327 
L 256.776151 -477.733919 
L 236.374217 -476.053762 
L 215.972282 -480.164749 
L 195.570348 -486.888367 
L 175.168414 -474.77395 
L 154.76648 -480.631668 
L 134.364545 -449.041417 
z
" style="stroke: #35ae95; stroke-opacity: 0.2"/>
    </defs>
    <g clip-path="url(#pd45bf20d31)">
     <use xlink:href="#m33b268ccfd" x="0" y="576" style="fill: #35ae95; fill-opacity: 0.2; stroke: #35ae95; stroke-opacity: 0.2"/>
    </g>
   </g>
   <g id="PolyCollection_7">
    <defs>
     <path id="m57100aa3c2" d="M 134.364545 -410.439109 
L 134.364545 -375.579086 
L 154.76648 -383.417702 
L 175.168414 -421.7407 
L 195.570348 -409.229407 
L 215.972282 -407.397755 
L 236.374217 -377.935739 
L 256.776151 -420.356496 
L 277.178085 -414.386799 
L 297.580019 -411.202127 
L 317.981954 -406.181824 
L 338.383888 -342.657781 
L 358.785822 -391.332403 
L 379.187756 -385.61079 
L 399.589691 -366.050067 
L 419.991625 -399.524189 
L 440.393559 -393.788158 
L 460.795493 -360.379517 
L 481.197427 -405.432316 
L 501.599362 -410.034585 
L 522.001296 -402.570089 
L 542.40323 -371.812762 
L 562.805164 -390.684726 
L 583.207099 -400.777256 
L 603.609033 -395.705303 
L 624.010967 -373.941365 
L 644.412901 -374.547219 
L 664.814836 -397.015675 
L 685.21677 -407.540137 
L 705.618704 -395.106979 
L 726.020638 -405.586102 
L 746.422573 -399.285381 
L 766.824507 -401.865926 
L 787.226441 -375.579388 
L 807.628375 -404.922938 
L 828.030309 -379.299161 
L 848.432244 -362.356051 
L 868.834178 -346.033412 
L 889.236112 -373.966088 
L 909.638046 -392.341757 
L 930.039981 -374.708482 
L 950.441915 -392.08286 
L 970.843849 -382.06819 
L 991.245783 -399.239752 
L 1011.647718 -365.410685 
L 1032.049652 -399.14528 
L 1052.451586 -384.274277 
L 1072.85352 -386.538461 
L 1093.255455 -359.188499 
L 1093.255455 -412.86955 
L 1093.255455 -412.86955 
L 1072.85352 -425.692396 
L 1052.451586 -414.012948 
L 1032.049652 -426.274072 
L 1011.647718 -407.624834 
L 991.245783 -408.268737 
L 970.843849 -418.486533 
L 950.441915 -413.47888 
L 930.039981 -418.797743 
L 909.638046 -419.940498 
L 889.236112 -410.251999 
L 868.834178 -417.397835 
L 848.432244 -415.953032 
L 828.030309 -425.339844 
L 807.628375 -427.802589 
L 787.226441 -429.356361 
L 766.824507 -432.514293 
L 746.422573 -424.461853 
L 726.020638 -423.697153 
L 705.618704 -416.310898 
L 685.21677 -420.701245 
L 664.814836 -418.664156 
L 644.412901 -415.795757 
L 624.010967 -423.741003 
L 603.609033 -424.612147 
L 583.207099 -420.475083 
L 562.805164 -429.921965 
L 542.40323 -420.090214 
L 522.001296 -421.089036 
L 501.599362 -424.654146 
L 481.197427 -419.380327 
L 460.795493 -424.795547 
L 440.393559 -420.788238 
L 419.991625 -438.382224 
L 399.589691 -424.495962 
L 379.187756 -417.781356 
L 358.785822 -428.685681 
L 338.383888 -422.478432 
L 317.981954 -433.05148 
L 297.580019 -431.650912 
L 277.178085 -437.924736 
L 256.776151 -431.600489 
L 236.374217 -435.552483 
L 215.972282 -430.43621 
L 195.570348 -439.98493 
L 175.168414 -431.230134 
L 154.76648 -434.440351 
L 134.364545 -410.439109 
z
" style="stroke: #37abb2; stroke-opacity: 0.2"/>
    </defs>
    <g clip-path="url(#pd45bf20d31)">
     <use xlink:href="#m57100aa3c2" x="0" y="576" style="fill: #37abb2; fill-opacity: 0.2; stroke: #37abb2; stroke-opacity: 0.2"/>
    </g>
   </g>
   <g id="PolyCollection_8">
    <defs>
     <path id="me7f70020f3" d="M 134.364545 -424.245593 
L 134.364545 -404.640688 
L 154.76648 -410.789562 
L 175.168414 -427.537607 
L 195.570348 -422.869858 
L 215.972282 -425.955568 
L 236.374217 -412.512384 
L 256.776151 -428.985428 
L 277.178085 -418.833756 
L 297.580019 -423.406309 
L 317.981954 -426.04677 
L 338.383888 -373.279656 
L 358.785822 -401.237413 
L 379.187756 -400.698352 
L 399.589691 -381.926349 
L 419.991625 -412.314834 
L 440.393559 -402.20884 
L 460.795493 -375.03462 
L 481.197427 -409.833649 
L 501.599362 -413.502933 
L 522.001296 -402.345081 
L 542.40323 -386.446026 
L 562.805164 -392.850457 
L 583.207099 -406.908324 
L 603.609033 -416.47552 
L 624.010967 -400.406309 
L 644.412901 -399.941881 
L 664.814836 -400.77966 
L 685.21677 -411.913032 
L 705.618704 -395.036827 
L 726.020638 -414.191915 
L 746.422573 -401.793228 
L 766.824507 -407.190608 
L 787.226441 -405.740732 
L 807.628375 -413.947896 
L 828.030309 -381.941095 
L 848.432244 -379.14144 
L 868.834178 -375.2183 
L 889.236112 -379.081424 
L 909.638046 -401.69957 
L 930.039981 -384.628523 
L 950.441915 -395.881546 
L 970.843849 -402.05997 
L 991.245783 -394.263576 
L 1011.647718 -385.75733 
L 1032.049652 -390.103794 
L 1052.451586 -389.588535 
L 1072.85352 -403.491469 
L 1093.255455 -394.04844 
L 1093.255455 -427.882158 
L 1093.255455 -427.882158 
L 1072.85352 -421.696068 
L 1052.451586 -421.129978 
L 1032.049652 -420.981465 
L 1011.647718 -416.28523 
L 991.245783 -410.716217 
L 970.843849 -424.19812 
L 950.441915 -415.013498 
L 930.039981 -422.149894 
L 909.638046 -416.666575 
L 889.236112 -410.599826 
L 868.834178 -416.00737 
L 848.432244 -399.496428 
L 828.030309 -427.158814 
L 807.628375 -426.370002 
L 787.226441 -425.720879 
L 766.824507 -434.122574 
L 746.422573 -419.509442 
L 726.020638 -429.677622 
L 705.618704 -419.529338 
L 685.21677 -430.491083 
L 664.814836 -426.866291 
L 644.412901 -425.050792 
L 624.010967 -426.050336 
L 603.609033 -426.46614 
L 583.207099 -423.204851 
L 562.805164 -424.388605 
L 542.40323 -419.842752 
L 522.001296 -426.472153 
L 501.599362 -431.738688 
L 481.197427 -425.149341 
L 460.795493 -416.557513 
L 440.393559 -424.643436 
L 419.991625 -434.161803 
L 399.589691 -429.53335 
L 379.187756 -431.588242 
L 358.785822 -421.654571 
L 338.383888 -431.073202 
L 317.981954 -432.503161 
L 297.580019 -434.82532 
L 277.178085 -435.641289 
L 256.776151 -438.230029 
L 236.374217 -436.009315 
L 215.972282 -431.47184 
L 195.570348 -441.009519 
L 175.168414 -439.930948 
L 154.76648 -439.090412 
L 134.364545 -424.245593 
z
" style="stroke: #39a7d6; stroke-opacity: 0.2"/>
    </defs>
    <g clip-path="url(#pd45bf20d31)">
     <use xlink:href="#me7f70020f3" x="0" y="576" style="fill: #39a7d6; fill-opacity: 0.2; stroke: #39a7d6; stroke-opacity: 0.2"/>
    </g>
   </g>
   <g id="PolyCollection_9">
    <defs>
     <path id="m821ba074b6" d="M 134.364545 -423.035318 
L 134.364545 -403.618134 
L 154.76648 -408.54284 
L 175.168414 -427.158615 
L 195.570348 -423.305518 
L 215.972282 -425.459026 
L 236.374217 -412.355566 
L 256.776151 -429.246372 
L 277.178085 -417.985008 
L 297.580019 -423.661766 
L 317.981954 -425.849403 
L 338.383888 -368.829875 
L 358.785822 -400.547734 
L 379.187756 -400.409289 
L 399.589691 -379.435394 
L 419.991625 -413.020257 
L 440.393559 -401.574272 
L 460.795493 -374.430031 
L 481.197427 -409.852751 
L 501.599362 -413.434556 
L 522.001296 -403.085619 
L 542.40323 -383.32438 
L 562.805164 -392.441288 
L 583.207099 -407.441648 
L 603.609033 -416.836219 
L 624.010967 -399.482454 
L 644.412901 -399.737534 
L 664.814836 -401.19872 
L 685.21677 -411.872123 
L 705.618704 -393.764078 
L 726.020638 -414.089843 
L 746.422573 -401.490725 
L 766.824507 -405.391555 
L 787.226441 -404.796113 
L 807.628375 -414.0819 
L 828.030309 -381.77633 
L 848.432244 -378.969319 
L 868.834178 -375.073191 
L 889.236112 -380.23083 
L 909.638046 -401.947166 
L 930.039981 -381.726043 
L 950.441915 -395.830602 
L 970.843849 -402.650654 
L 991.245783 -393.362498 
L 1011.647718 -385.710861 
L 1032.049652 -389.986069 
L 1052.451586 -390.694296 
L 1072.85352 -403.594795 
L 1093.255455 -392.810129 
L 1093.255455 -426.51403 
L 1093.255455 -426.51403 
L 1072.85352 -421.784949 
L 1052.451586 -421.259869 
L 1032.049652 -420.946038 
L 1011.647718 -415.042914 
L 991.245783 -410.782558 
L 970.843849 -424.751052 
L 950.441915 -415.252825 
L 930.039981 -422.104877 
L 909.638046 -415.848526 
L 889.236112 -409.65234 
L 868.834178 -415.967671 
L 848.432244 -399.969029 
L 828.030309 -426.950488 
L 807.628375 -426.29612 
L 787.226441 -425.642771 
L 766.824507 -434.077625 
L 746.422573 -418.845578 
L 726.020638 -429.331816 
L 705.618704 -419.245607 
L 685.21677 -430.440301 
L 664.814836 -426.029478 
L 644.412901 -424.825253 
L 624.010967 -426.337211 
L 603.609033 -426.731782 
L 583.207099 -423.399723 
L 562.805164 -424.355896 
L 542.40323 -419.955445 
L 522.001296 -426.656188 
L 501.599362 -432.072931 
L 481.197427 -425.592682 
L 460.795493 -416.85963 
L 440.393559 -425.78313 
L 419.991625 -434.52569 
L 399.589691 -429.493611 
L 379.187756 -430.622906 
L 358.785822 -421.33706 
L 338.383888 -431.936089 
L 317.981954 -432.631721 
L 297.580019 -434.758489 
L 277.178085 -435.561259 
L 256.776151 -438.207391 
L 236.374217 -436.562841 
L 215.972282 -431.368301 
L 195.570348 -440.538035 
L 175.168414 -440.066681 
L 154.76648 -439.003241 
L 134.364545 -423.035318 
z
" style="stroke: #8f93f4; stroke-opacity: 0.2"/>
    </defs>
    <g clip-path="url(#pd45bf20d31)">
     <use xlink:href="#m821ba074b6" x="0" y="576" style="fill: #8f93f4; fill-opacity: 0.2; stroke: #8f93f4; stroke-opacity: 0.2"/>
    </g>
   </g>
   <g id="PolyCollection_10">
    <defs>
     <path id="m18982f633d" d="M 134.364545 -316.641771 
L 134.364545 -195.136742 
L 154.76648 -262.841634 
L 175.168414 -230.621018 
L 195.570348 -211.110941 
L 215.972282 -242.780831 
L 236.374217 -233.905735 
L 256.776151 -281.562101 
L 277.178085 -257.458527 
L 297.580019 -240.41891 
L 317.981954 -249.967622 
L 338.383888 -167.455209 
L 358.785822 -196.967366 
L 379.187756 -190.838277 
L 399.589691 -158.09525 
L 419.991625 -231.958145 
L 440.393559 -225.50572 
L 460.795493 -208.068633 
L 481.197427 -193.7548 
L 501.599362 -228.020363 
L 522.001296 -242.168977 
L 542.40323 -189.543973 
L 562.805164 -200.790891 
L 583.207099 -254.761472 
L 603.609033 -290.40582 
L 624.010967 -169.34744 
L 644.412901 -214.454967 
L 664.814836 -247.101633 
L 685.21677 -241.731161 
L 705.618704 -173.120449 
L 726.020638 -282.163727 
L 746.422573 -257.236356 
L 766.824507 -295.822379 
L 787.226441 -187.874148 
L 807.628375 -227.232847 
L 828.030309 -218.418721 
L 848.432244 -212.144809 
L 868.834178 -221.356725 
L 889.236112 -169.145335 
L 909.638046 -242.059195 
L 930.039981 -196.377718 
L 950.441915 -187.316173 
L 970.843849 -221.949132 
L 991.245783 -225.116465 
L 1011.647718 -268.453488 
L 1032.049652 -196.175746 
L 1052.451586 -231.98307 
L 1072.85352 -262.096346 
L 1093.255455 -107.254909 
L 1093.255455 -268.608981 
L 1093.255455 -268.608981 
L 1072.85352 -367.80201 
L 1052.451586 -330.932831 
L 1032.049652 -298.072343 
L 1011.647718 -363.234972 
L 991.245783 -323.269381 
L 970.843849 -342.848449 
L 950.441915 -293.54147 
L 930.039981 -321.615725 
L 909.638046 -346.979968 
L 889.236112 -314.134824 
L 868.834178 -317.602201 
L 848.432244 -334.564687 
L 828.030309 -307.112426 
L 807.628375 -292.802036 
L 787.226441 -299.696027 
L 766.824507 -358.403207 
L 746.422573 -311.682882 
L 726.020638 -379.65516 
L 705.618704 -335.294513 
L 685.21677 -337.098934 
L 664.814836 -337.286347 
L 644.412901 -307.709464 
L 624.010967 -300.504776 
L 603.609033 -318.921707 
L 583.207099 -358.323037 
L 562.805164 -357.418552 
L 542.40323 -232.485902 
L 522.001296 -319.95384 
L 501.599362 -300.558595 
L 481.197427 -303.980154 
L 460.795493 -380.870561 
L 440.393559 -313.477143 
L 419.991625 -279.437048 
L 399.589691 -268.575381 
L 379.187756 -291.291285 
L 358.785822 -291.249968 
L 338.383888 -355.972099 
L 317.981954 -356.424746 
L 297.580019 -346.333062 
L 277.178085 -338.369156 
L 256.776151 -314.402603 
L 236.374217 -336.08539 
L 215.972282 -292.301707 
L 195.570348 -288.923541 
L 175.168414 -338.41389 
L 154.76648 -386.728596 
L 134.364545 -316.641771 
z
" style="stroke: #db70f4; stroke-opacity: 0.2"/>
    </defs>
    <g clip-path="url(#pd45bf20d31)">
     <use xlink:href="#m18982f633d" x="0" y="576" style="fill: #db70f4; fill-opacity: 0.2; stroke: #db70f4; stroke-opacity: 0.2"/>
    </g>
   </g>
   <g id="PolyCollection_11">
    <defs>
     <path id="mfdc829eede" d="M 134.364545 -285.936587 
L 134.364545 -254.942551 
L 154.76648 -260.490715 
L 175.168414 -251.471328 
L 195.570348 -273.345933 
L 215.972282 -283.444432 
L 236.374217 -249.378041 
L 256.776151 -268.998723 
L 277.178085 -270.191892 
L 297.580019 -271.170165 
L 317.981954 -260.496405 
L 338.383888 -215.9156 
L 358.785822 -247.149929 
L 379.187756 -225.795714 
L 399.589691 -188.702047 
L 419.991625 -249.697985 
L 440.393559 -263.182435 
L 460.795493 -202.855236 
L 481.197427 -213.578351 
L 501.599362 -256.96461 
L 522.001296 -183.766187 
L 542.40323 -185.737444 
L 562.805164 -210.803758 
L 583.207099 -249.555387 
L 603.609033 -275.144165 
L 624.010967 -217.252035 
L 644.412901 -219.815575 
L 664.814836 -253.364799 
L 685.21677 -263.024966 
L 705.618704 -252.582624 
L 726.020638 -251.638049 
L 746.422573 -246.101065 
L 766.824507 -271.946241 
L 787.226441 -243.354581 
L 807.628375 -277.076827 
L 828.030309 -219.559866 
L 848.432244 -204.202671 
L 868.834178 -209.34005 
L 889.236112 -261.898513 
L 909.638046 -233.748133 
L 930.039981 -226.40397 
L 950.441915 -229.666373 
L 970.843849 -237.316516 
L 991.245783 -269.895005 
L 1011.647718 -174.020161 
L 1032.049652 -222.11912 
L 1052.451586 -191.782316 
L 1072.85352 -232.900676 
L 1093.255455 -189.985992 
L 1093.255455 -285.339623 
L 1093.255455 -285.339623 
L 1072.85352 -278.321744 
L 1052.451586 -285.948273 
L 1032.049652 -283.4506 
L 1011.647718 -287.104882 
L 991.245783 -286.254158 
L 970.843849 -305.295813 
L 950.441915 -299.763778 
L 930.039981 -290.709793 
L 909.638046 -291.500341 
L 889.236112 -302.957834 
L 868.834178 -312.089405 
L 848.432244 -244.778146 
L 828.030309 -291.973468 
L 807.628375 -306.605808 
L 787.226441 -307.439398 
L 766.824507 -309.885897 
L 746.422573 -310.7201 
L 726.020638 -276.865365 
L 705.618704 -298.205837 
L 685.21677 -329.234797 
L 664.814836 -292.676417 
L 644.412901 -285.63327 
L 624.010967 -286.412168 
L 603.609033 -314.746915 
L 583.207099 -278.71871 
L 562.805164 -295.620368 
L 542.40323 -283.259732 
L 522.001296 -280.740781 
L 501.599362 -296.055159 
L 481.197427 -283.550584 
L 460.795493 -285.06502 
L 440.393559 -303.834611 
L 419.991625 -311.388516 
L 399.589691 -275.803148 
L 379.187756 -293.751237 
L 358.785822 -290.591017 
L 338.383888 -310.602102 
L 317.981954 -305.526812 
L 297.580019 -306.601399 
L 277.178085 -332.909377 
L 256.776151 -309.954132 
L 236.374217 -312.196348 
L 215.972282 -312.208178 
L 195.570348 -334.309776 
L 175.168414 -309.109082 
L 154.76648 -343.234915 
L 134.364545 -285.936587 
z
" style="stroke: #f667c6; stroke-opacity: 0.2"/>
    </defs>
    <g clip-path="url(#pd45bf20d31)">
     <use xlink:href="#mfdc829eede" x="0" y="576" style="fill: #f667c6; fill-opacity: 0.2; stroke: #f667c6; stroke-opacity: 0.2"/>
    </g>
   </g>
   <g id="matplotlib.axis_1">
    <g id="xtick_1">
     <g id="line2d_1">
      <defs>
       <path id="m4c23f8c13a" d="M 0 0 
L 0 3.5 
" style="stroke: #000000; stroke-width: 0.8"/>
      </defs>
      <g>
       <use xlink:href="#m4c23f8c13a" x="124.163578" y="490.552" style="stroke: #000000; stroke-width: 0.8"/>
      </g>
     </g>
     <g id="text_1">
      <!-- 0 -->
      <g transform="translate(117.801078 512.748875) scale(0.2 -0.2)">
       <defs>
        <path id="DejaVuSans-30" d="M 2034 4250 
Q 1547 4250 1301 3770 
Q 1056 3291 1056 2328 
Q 1056 1369 1301 889 
Q 1547 409 2034 409 
Q 2525 409 2770 889 
Q 3016 1369 3016 2328 
Q 3016 3291 2770 3770 
Q 2525 4250 2034 4250 
z
M 2034 4750 
Q 2819 4750 3233 4129 
Q 3647 3509 3647 2328 
Q 3647 1150 3233 529 
Q 2819 -91 2034 -91 
Q 1250 -91 836 529 
Q 422 1150 422 2328 
Q 422 3509 836 4129 
Q 1250 4750 2034 4750 
z
" transform="scale(0.015625)"/>
       </defs>
       <use xlink:href="#DejaVuSans-30"/>
      </g>
     </g>
    </g>
    <g id="xtick_2">
     <g id="line2d_2">
      <g>
       <use xlink:href="#m4c23f8c13a" x="328.182921" y="490.552" style="stroke: #000000; stroke-width: 0.8"/>
      </g>
     </g>
     <g id="text_2">
      <!-- 20 -->
      <g transform="translate(315.457921 512.748875) scale(0.2 -0.2)">
       <defs>
        <path id="DejaVuSans-32" d="M 1228 531 
L 3431 531 
L 3431 0 
L 469 0 
L 469 531 
Q 828 903 1448 1529 
Q 2069 2156 2228 2338 
Q 2531 2678 2651 2914 
Q 2772 3150 2772 3378 
Q 2772 3750 2511 3984 
Q 2250 4219 1831 4219 
Q 1534 4219 1204 4116 
Q 875 4013 500 3803 
L 500 4441 
Q 881 4594 1212 4672 
Q 1544 4750 1819 4750 
Q 2544 4750 2975 4387 
Q 3406 4025 3406 3419 
Q 3406 3131 3298 2873 
Q 3191 2616 2906 2266 
Q 2828 2175 2409 1742 
Q 1991 1309 1228 531 
z
" transform="scale(0.015625)"/>
       </defs>
       <use xlink:href="#DejaVuSans-32"/>
       <use xlink:href="#DejaVuSans-30" x="63.623047"/>
      </g>
     </g>
    </g>
    <g id="xtick_3">
     <g id="line2d_3">
      <g>
       <use xlink:href="#m4c23f8c13a" x="532.202263" y="490.552" style="stroke: #000000; stroke-width: 0.8"/>
      </g>
     </g>
     <g id="text_3">
      <!-- 40 -->
      <g transform="translate(519.477263 512.748875) scale(0.2 -0.2)">
       <defs>
        <path id="DejaVuSans-34" d="M 2419 4116 
L 825 1625 
L 2419 1625 
L 2419 4116 
z
M 2253 4666 
L 3047 4666 
L 3047 1625 
L 3713 1625 
L 3713 1100 
L 3047 1100 
L 3047 0 
L 2419 0 
L 2419 1100 
L 313 1100 
L 313 1709 
L 2253 4666 
z
" transform="scale(0.015625)"/>
       </defs>
       <use xlink:href="#DejaVuSans-34"/>
       <use xlink:href="#DejaVuSans-30" x="63.623047"/>
      </g>
     </g>
    </g>
    <g id="xtick_4">
     <g id="line2d_4">
      <g>
       <use xlink:href="#m4c23f8c13a" x="736.221605" y="490.552" style="stroke: #000000; stroke-width: 0.8"/>
      </g>
     </g>
     <g id="text_4">
      <!-- 60 -->
      <g transform="translate(723.496605 512.748875) scale(0.2 -0.2)">
       <defs>
        <path id="DejaVuSans-36" d="M 2113 2584 
Q 1688 2584 1439 2293 
Q 1191 2003 1191 1497 
Q 1191 994 1439 701 
Q 1688 409 2113 409 
Q 2538 409 2786 701 
Q 3034 994 3034 1497 
Q 3034 2003 2786 2293 
Q 2538 2584 2113 2584 
z
M 3366 4563 
L 3366 3988 
Q 3128 4100 2886 4159 
Q 2644 4219 2406 4219 
Q 1781 4219 1451 3797 
Q 1122 3375 1075 2522 
Q 1259 2794 1537 2939 
Q 1816 3084 2150 3084 
Q 2853 3084 3261 2657 
Q 3669 2231 3669 1497 
Q 3669 778 3244 343 
Q 2819 -91 2113 -91 
Q 1303 -91 875 529 
Q 447 1150 447 2328 
Q 447 3434 972 4092 
Q 1497 4750 2381 4750 
Q 2619 4750 2861 4703 
Q 3103 4656 3366 4563 
z
" transform="scale(0.015625)"/>
       </defs>
       <use xlink:href="#DejaVuSans-36"/>
       <use xlink:href="#DejaVuSans-30" x="63.623047"/>
      </g>
     </g>
    </g>
    <g id="xtick_5">
     <g id="line2d_5">
      <g>
       <use xlink:href="#m4c23f8c13a" x="940.240948" y="490.552" style="stroke: #000000; stroke-width: 0.8"/>
      </g>
     </g>
     <g id="text_5">
      <!-- 80 -->
      <g transform="translate(927.515948 512.748875) scale(0.2 -0.2)">
       <defs>
        <path id="DejaVuSans-38" d="M 2034 2216 
Q 1584 2216 1326 1975 
Q 1069 1734 1069 1313 
Q 1069 891 1326 650 
Q 1584 409 2034 409 
Q 2484 409 2743 651 
Q 3003 894 3003 1313 
Q 3003 1734 2745 1975 
Q 2488 2216 2034 2216 
z
M 1403 2484 
Q 997 2584 770 2862 
Q 544 3141 544 3541 
Q 544 4100 942 4425 
Q 1341 4750 2034 4750 
Q 2731 4750 3128 4425 
Q 3525 4100 3525 3541 
Q 3525 3141 3298 2862 
Q 3072 2584 2669 2484 
Q 3125 2378 3379 2068 
Q 3634 1759 3634 1313 
Q 3634 634 3220 271 
Q 2806 -91 2034 -91 
Q 1263 -91 848 271 
Q 434 634 434 1313 
Q 434 1759 690 2068 
Q 947 2378 1403 2484 
z
M 1172 3481 
Q 1172 3119 1398 2916 
Q 1625 2713 2034 2713 
Q 2441 2713 2670 2916 
Q 2900 3119 2900 3481 
Q 2900 3844 2670 4047 
Q 2441 4250 2034 4250 
Q 1625 4250 1398 4047 
Q 1172 3844 1172 3481 
z
" transform="scale(0.015625)"/>
       </defs>
       <use xlink:href="#DejaVuSans-38"/>
       <use xlink:href="#DejaVuSans-30" x="63.623047"/>
      </g>
     </g>
    </g>
    <g id="text_6">
     <!-- Percentile Threshold -->
     <g transform="translate(512.030312 536.105125) scale(0.2 -0.2)">
      <defs>
       <path id="DejaVuSans-50" d="M 1259 4147 
L 1259 2394 
L 2053 2394 
Q 2494 2394 2734 2622 
Q 2975 2850 2975 3272 
Q 2975 3691 2734 3919 
Q 2494 4147 2053 4147 
L 1259 4147 
z
M 628 4666 
L 2053 4666 
Q 2838 4666 3239 4311 
Q 3641 3956 3641 3272 
Q 3641 2581 3239 2228 
Q 2838 1875 2053 1875 
L 1259 1875 
L 1259 0 
L 628 0 
L 628 4666 
z
" transform="scale(0.015625)"/>
       <path id="DejaVuSans-65" d="M 3597 1894 
L 3597 1613 
L 953 1613 
Q 991 1019 1311 708 
Q 1631 397 2203 397 
Q 2534 397 2845 478 
Q 3156 559 3463 722 
L 3463 178 
Q 3153 47 2828 -22 
Q 2503 -91 2169 -91 
Q 1331 -91 842 396 
Q 353 884 353 1716 
Q 353 2575 817 3079 
Q 1281 3584 2069 3584 
Q 2775 3584 3186 3129 
Q 3597 2675 3597 1894 
z
M 3022 2063 
Q 3016 2534 2758 2815 
Q 2500 3097 2075 3097 
Q 1594 3097 1305 2825 
Q 1016 2553 972 2059 
L 3022 2063 
z
" transform="scale(0.015625)"/>
       <path id="DejaVuSans-72" d="M 2631 2963 
Q 2534 3019 2420 3045 
Q 2306 3072 2169 3072 
Q 1681 3072 1420 2755 
Q 1159 2438 1159 1844 
L 1159 0 
L 581 0 
L 581 3500 
L 1159 3500 
L 1159 2956 
Q 1341 3275 1631 3429 
Q 1922 3584 2338 3584 
Q 2397 3584 2469 3576 
Q 2541 3569 2628 3553 
L 2631 2963 
z
" transform="scale(0.015625)"/>
       <path id="DejaVuSans-63" d="M 3122 3366 
L 3122 2828 
Q 2878 2963 2633 3030 
Q 2388 3097 2138 3097 
Q 1578 3097 1268 2742 
Q 959 2388 959 1747 
Q 959 1106 1268 751 
Q 1578 397 2138 397 
Q 2388 397 2633 464 
Q 2878 531 3122 666 
L 3122 134 
Q 2881 22 2623 -34 
Q 2366 -91 2075 -91 
Q 1284 -91 818 406 
Q 353 903 353 1747 
Q 353 2603 823 3093 
Q 1294 3584 2113 3584 
Q 2378 3584 2631 3529 
Q 2884 3475 3122 3366 
z
" transform="scale(0.015625)"/>
       <path id="DejaVuSans-6e" d="M 3513 2113 
L 3513 0 
L 2938 0 
L 2938 2094 
Q 2938 2591 2744 2837 
Q 2550 3084 2163 3084 
Q 1697 3084 1428 2787 
Q 1159 2491 1159 1978 
L 1159 0 
L 581 0 
L 581 3500 
L 1159 3500 
L 1159 2956 
Q 1366 3272 1645 3428 
Q 1925 3584 2291 3584 
Q 2894 3584 3203 3211 
Q 3513 2838 3513 2113 
z
" transform="scale(0.015625)"/>
       <path id="DejaVuSans-74" d="M 1172 4494 
L 1172 3500 
L 2356 3500 
L 2356 3053 
L 1172 3053 
L 1172 1153 
Q 1172 725 1289 603 
Q 1406 481 1766 481 
L 2356 481 
L 2356 0 
L 1766 0 
Q 1100 0 847 248 
Q 594 497 594 1153 
L 594 3053 
L 172 3053 
L 172 3500 
L 594 3500 
L 594 4494 
L 1172 4494 
z
" transform="scale(0.015625)"/>
       <path id="DejaVuSans-69" d="M 603 3500 
L 1178 3500 
L 1178 0 
L 603 0 
L 603 3500 
z
M 603 4863 
L 1178 4863 
L 1178 4134 
L 603 4134 
L 603 4863 
z
" transform="scale(0.015625)"/>
       <path id="DejaVuSans-6c" d="M 603 4863 
L 1178 4863 
L 1178 0 
L 603 0 
L 603 4863 
z
" transform="scale(0.015625)"/>
       <path id="DejaVuSans-20" transform="scale(0.015625)"/>
       <path id="DejaVuSans-54" d="M -19 4666 
L 3928 4666 
L 3928 4134 
L 2272 4134 
L 2272 0 
L 1638 0 
L 1638 4134 
L -19 4134 
L -19 4666 
z
" transform="scale(0.015625)"/>
       <path id="DejaVuSans-68" d="M 3513 2113 
L 3513 0 
L 2938 0 
L 2938 2094 
Q 2938 2591 2744 2837 
Q 2550 3084 2163 3084 
Q 1697 3084 1428 2787 
Q 1159 2491 1159 1978 
L 1159 0 
L 581 0 
L 581 4863 
L 1159 4863 
L 1159 2956 
Q 1366 3272 1645 3428 
Q 1925 3584 2291 3584 
Q 2894 3584 3203 3211 
Q 3513 2838 3513 2113 
z
" transform="scale(0.015625)"/>
       <path id="DejaVuSans-73" d="M 2834 3397 
L 2834 2853 
Q 2591 2978 2328 3040 
Q 2066 3103 1784 3103 
Q 1356 3103 1142 2972 
Q 928 2841 928 2578 
Q 928 2378 1081 2264 
Q 1234 2150 1697 2047 
L 1894 2003 
Q 2506 1872 2764 1633 
Q 3022 1394 3022 966 
Q 3022 478 2636 193 
Q 2250 -91 1575 -91 
Q 1294 -91 989 -36 
Q 684 19 347 128 
L 347 722 
Q 666 556 975 473 
Q 1284 391 1588 391 
Q 1994 391 2212 530 
Q 2431 669 2431 922 
Q 2431 1156 2273 1281 
Q 2116 1406 1581 1522 
L 1381 1569 
Q 847 1681 609 1914 
Q 372 2147 372 2553 
Q 372 3047 722 3315 
Q 1072 3584 1716 3584 
Q 2034 3584 2315 3537 
Q 2597 3491 2834 3397 
z
" transform="scale(0.015625)"/>
       <path id="DejaVuSans-6f" d="M 1959 3097 
Q 1497 3097 1228 2736 
Q 959 2375 959 1747 
Q 959 1119 1226 758 
Q 1494 397 1959 397 
Q 2419 397 2687 759 
Q 2956 1122 2956 1747 
Q 2956 2369 2687 2733 
Q 2419 3097 1959 3097 
z
M 1959 3584 
Q 2709 3584 3137 3096 
Q 3566 2609 3566 1747 
Q 3566 888 3137 398 
Q 2709 -91 1959 -91 
Q 1206 -91 779 398 
Q 353 888 353 1747 
Q 353 2609 779 3096 
Q 1206 3584 1959 3584 
z
" transform="scale(0.015625)"/>
       <path id="DejaVuSans-64" d="M 2906 2969 
L 2906 4863 
L 3481 4863 
L 3481 0 
L 2906 0 
L 2906 525 
Q 2725 213 2448 61 
Q 2172 -91 1784 -91 
Q 1150 -91 751 415 
Q 353 922 353 1747 
Q 353 2572 751 3078 
Q 1150 3584 1784 3584 
Q 2172 3584 2448 3432 
Q 2725 3281 2906 2969 
z
M 947 1747 
Q 947 1113 1208 752 
Q 1469 391 1925 391 
Q 2381 391 2643 752 
Q 2906 1113 2906 1747 
Q 2906 2381 2643 2742 
Q 2381 3103 1925 3103 
Q 1469 3103 1208 2742 
Q 947 2381 947 1747 
z
" transform="scale(0.015625)"/>
      </defs>
      <use xlink:href="#DejaVuSans-50"/>
      <use xlink:href="#DejaVuSans-65" x="56.677734"/>
      <use xlink:href="#DejaVuSans-72" x="118.201172"/>
      <use xlink:href="#DejaVuSans-63" x="157.064453"/>
      <use xlink:href="#DejaVuSans-65" x="212.044922"/>
      <use xlink:href="#DejaVuSans-6e" x="273.568359"/>
      <use xlink:href="#DejaVuSans-74" x="336.947266"/>
      <use xlink:href="#DejaVuSans-69" x="376.15625"/>
      <use xlink:href="#DejaVuSans-6c" x="403.939453"/>
      <use xlink:href="#DejaVuSans-65" x="431.722656"/>
      <use xlink:href="#DejaVuSans-20" x="493.246094"/>
      <use xlink:href="#DejaVuSans-54" x="525.033203"/>
      <use xlink:href="#DejaVuSans-68" x="586.117188"/>
      <use xlink:href="#DejaVuSans-72" x="649.496094"/>
      <use xlink:href="#DejaVuSans-65" x="688.359375"/>
      <use xlink:href="#DejaVuSans-73" x="749.882812"/>
      <use xlink:href="#DejaVuSans-68" x="801.982422"/>
      <use xlink:href="#DejaVuSans-6f" x="865.361328"/>
      <use xlink:href="#DejaVuSans-6c" x="926.542969"/>
      <use xlink:href="#DejaVuSans-64" x="954.326172"/>
     </g>
     <!-- (Using "random" Threshold Handling) -->
     <g transform="translate(426.642812 558.50075) scale(0.2 -0.2)">
      <defs>
       <path id="DejaVuSans-28" d="M 1984 4856 
Q 1566 4138 1362 3434 
Q 1159 2731 1159 2009 
Q 1159 1288 1364 580 
Q 1569 -128 1984 -844 
L 1484 -844 
Q 1016 -109 783 600 
Q 550 1309 550 2009 
Q 550 2706 781 3412 
Q 1013 4119 1484 4856 
L 1984 4856 
z
" transform="scale(0.015625)"/>
       <path id="DejaVuSans-55" d="M 556 4666 
L 1191 4666 
L 1191 1831 
Q 1191 1081 1462 751 
Q 1734 422 2344 422 
Q 2950 422 3222 751 
Q 3494 1081 3494 1831 
L 3494 4666 
L 4128 4666 
L 4128 1753 
Q 4128 841 3676 375 
Q 3225 -91 2344 -91 
Q 1459 -91 1007 375 
Q 556 841 556 1753 
L 556 4666 
z
" transform="scale(0.015625)"/>
       <path id="DejaVuSans-67" d="M 2906 1791 
Q 2906 2416 2648 2759 
Q 2391 3103 1925 3103 
Q 1463 3103 1205 2759 
Q 947 2416 947 1791 
Q 947 1169 1205 825 
Q 1463 481 1925 481 
Q 2391 481 2648 825 
Q 2906 1169 2906 1791 
z
M 3481 434 
Q 3481 -459 3084 -895 
Q 2688 -1331 1869 -1331 
Q 1566 -1331 1297 -1286 
Q 1028 -1241 775 -1147 
L 775 -588 
Q 1028 -725 1275 -790 
Q 1522 -856 1778 -856 
Q 2344 -856 2625 -561 
Q 2906 -266 2906 331 
L 2906 616 
Q 2728 306 2450 153 
Q 2172 0 1784 0 
Q 1141 0 747 490 
Q 353 981 353 1791 
Q 353 2603 747 3093 
Q 1141 3584 1784 3584 
Q 2172 3584 2450 3431 
Q 2728 3278 2906 2969 
L 2906 3500 
L 3481 3500 
L 3481 434 
z
" transform="scale(0.015625)"/>
       <path id="DejaVuSans-22" d="M 1147 4666 
L 1147 2931 
L 616 2931 
L 616 4666 
L 1147 4666 
z
M 2328 4666 
L 2328 2931 
L 1797 2931 
L 1797 4666 
L 2328 4666 
z
" transform="scale(0.015625)"/>
       <path id="DejaVuSans-61" d="M 2194 1759 
Q 1497 1759 1228 1600 
Q 959 1441 959 1056 
Q 959 750 1161 570 
Q 1363 391 1709 391 
Q 2188 391 2477 730 
Q 2766 1069 2766 1631 
L 2766 1759 
L 2194 1759 
z
M 3341 1997 
L 3341 0 
L 2766 0 
L 2766 531 
Q 2569 213 2275 61 
Q 1981 -91 1556 -91 
Q 1019 -91 701 211 
Q 384 513 384 1019 
Q 384 1609 779 1909 
Q 1175 2209 1959 2209 
L 2766 2209 
L 2766 2266 
Q 2766 2663 2505 2880 
Q 2244 3097 1772 3097 
Q 1472 3097 1187 3025 
Q 903 2953 641 2809 
L 641 3341 
Q 956 3463 1253 3523 
Q 1550 3584 1831 3584 
Q 2591 3584 2966 3190 
Q 3341 2797 3341 1997 
z
" transform="scale(0.015625)"/>
       <path id="DejaVuSans-6d" d="M 3328 2828 
Q 3544 3216 3844 3400 
Q 4144 3584 4550 3584 
Q 5097 3584 5394 3201 
Q 5691 2819 5691 2113 
L 5691 0 
L 5113 0 
L 5113 2094 
Q 5113 2597 4934 2840 
Q 4756 3084 4391 3084 
Q 3944 3084 3684 2787 
Q 3425 2491 3425 1978 
L 3425 0 
L 2847 0 
L 2847 2094 
Q 2847 2600 2669 2842 
Q 2491 3084 2119 3084 
Q 1678 3084 1418 2786 
Q 1159 2488 1159 1978 
L 1159 0 
L 581 0 
L 581 3500 
L 1159 3500 
L 1159 2956 
Q 1356 3278 1631 3431 
Q 1906 3584 2284 3584 
Q 2666 3584 2933 3390 
Q 3200 3197 3328 2828 
z
" transform="scale(0.015625)"/>
       <path id="DejaVuSans-48" d="M 628 4666 
L 1259 4666 
L 1259 2753 
L 3553 2753 
L 3553 4666 
L 4184 4666 
L 4184 0 
L 3553 0 
L 3553 2222 
L 1259 2222 
L 1259 0 
L 628 0 
L 628 4666 
z
" transform="scale(0.015625)"/>
       <path id="DejaVuSans-29" d="M 513 4856 
L 1013 4856 
Q 1481 4119 1714 3412 
Q 1947 2706 1947 2009 
Q 1947 1309 1714 600 
Q 1481 -109 1013 -844 
L 513 -844 
Q 928 -128 1133 580 
Q 1338 1288 1338 2009 
Q 1338 2731 1133 3434 
Q 928 4138 513 4856 
z
" transform="scale(0.015625)"/>
      </defs>
      <use xlink:href="#DejaVuSans-28"/>
      <use xlink:href="#DejaVuSans-55" x="39.013672"/>
      <use xlink:href="#DejaVuSans-73" x="112.207031"/>
      <use xlink:href="#DejaVuSans-69" x="164.306641"/>
      <use xlink:href="#DejaVuSans-6e" x="192.089844"/>
      <use xlink:href="#DejaVuSans-67" x="255.46875"/>
      <use xlink:href="#DejaVuSans-20" x="318.945312"/>
      <use xlink:href="#DejaVuSans-22" x="350.732422"/>
      <use xlink:href="#DejaVuSans-72" x="396.728516"/>
      <use xlink:href="#DejaVuSans-61" x="437.841797"/>
      <use xlink:href="#DejaVuSans-6e" x="499.121094"/>
      <use xlink:href="#DejaVuSans-64" x="562.5"/>
      <use xlink:href="#DejaVuSans-6f" x="625.976562"/>
      <use xlink:href="#DejaVuSans-6d" x="687.158203"/>
      <use xlink:href="#DejaVuSans-22" x="784.570312"/>
      <use xlink:href="#DejaVuSans-20" x="830.566406"/>
      <use xlink:href="#DejaVuSans-54" x="862.353516"/>
      <use xlink:href="#DejaVuSans-68" x="923.4375"/>
      <use xlink:href="#DejaVuSans-72" x="986.816406"/>
      <use xlink:href="#DejaVuSans-65" x="1025.679688"/>
      <use xlink:href="#DejaVuSans-73" x="1087.203125"/>
      <use xlink:href="#DejaVuSans-68" x="1139.302734"/>
      <use xlink:href="#DejaVuSans-6f" x="1202.681641"/>
      <use xlink:href="#DejaVuSans-6c" x="1263.863281"/>
      <use xlink:href="#DejaVuSans-64" x="1291.646484"/>
      <use xlink:href="#DejaVuSans-20" x="1355.123047"/>
      <use xlink:href="#DejaVuSans-48" x="1386.910156"/>
      <use xlink:href="#DejaVuSans-61" x="1462.105469"/>
      <use xlink:href="#DejaVuSans-6e" x="1523.384766"/>
      <use xlink:href="#DejaVuSans-64" x="1586.763672"/>
      <use xlink:href="#DejaVuSans-6c" x="1650.240234"/>
      <use xlink:href="#DejaVuSans-69" x="1678.023438"/>
      <use xlink:href="#DejaVuSans-6e" x="1705.806641"/>
      <use xlink:href="#DejaVuSans-67" x="1769.185547"/>
      <use xlink:href="#DejaVuSans-29" x="1832.662109"/>
     </g>
    </g>
   </g>
   <g id="matplotlib.axis_2">
    <g id="ytick_1">
     <g id="line2d_6">
      <defs>
       <path id="mc18412259f" d="M 0 0 
L -3.5 0 
" style="stroke: #000000; stroke-width: 0.8"/>
      </defs>
      <g>
       <use xlink:href="#mc18412259f" x="86.42" y="425.269262" style="stroke: #000000; stroke-width: 0.8"/>
      </g>
     </g>
     <g id="text_7">
      <!-- 0.88 -->
      <g transform="translate(34.88875 432.867699) scale(0.2 -0.2)">
       <defs>
        <path id="DejaVuSans-2e" d="M 684 794 
L 1344 794 
L 1344 0 
L 684 0 
L 684 794 
z
" transform="scale(0.015625)"/>
       </defs>
       <use xlink:href="#DejaVuSans-30"/>
       <use xlink:href="#DejaVuSans-2e" x="63.623047"/>
       <use xlink:href="#DejaVuSans-38" x="95.410156"/>
       <use xlink:href="#DejaVuSans-38" x="159.033203"/>
      </g>
     </g>
    </g>
    <g id="ytick_2">
     <g id="line2d_7">
      <g>
       <use xlink:href="#mc18412259f" x="86.42" y="341.194647" style="stroke: #000000; stroke-width: 0.8"/>
      </g>
     </g>
     <g id="text_8">
      <!-- 0.90 -->
      <g transform="translate(34.88875 348.793085) scale(0.2 -0.2)">
       <defs>
        <path id="DejaVuSans-39" d="M 703 97 
L 703 672 
Q 941 559 1184 500 
Q 1428 441 1663 441 
Q 2288 441 2617 861 
Q 2947 1281 2994 2138 
Q 2813 1869 2534 1725 
Q 2256 1581 1919 1581 
Q 1219 1581 811 2004 
Q 403 2428 403 3163 
Q 403 3881 828 4315 
Q 1253 4750 1959 4750 
Q 2769 4750 3195 4129 
Q 3622 3509 3622 2328 
Q 3622 1225 3098 567 
Q 2575 -91 1691 -91 
Q 1453 -91 1209 -44 
Q 966 3 703 97 
z
M 1959 2075 
Q 2384 2075 2632 2365 
Q 2881 2656 2881 3163 
Q 2881 3666 2632 3958 
Q 2384 4250 1959 4250 
Q 1534 4250 1286 3958 
Q 1038 3666 1038 3163 
Q 1038 2656 1286 2365 
Q 1534 2075 1959 2075 
z
" transform="scale(0.015625)"/>
       </defs>
       <use xlink:href="#DejaVuSans-30"/>
       <use xlink:href="#DejaVuSans-2e" x="63.623047"/>
       <use xlink:href="#DejaVuSans-39" x="95.410156"/>
       <use xlink:href="#DejaVuSans-30" x="159.033203"/>
      </g>
     </g>
    </g>
    <g id="ytick_3">
     <g id="line2d_8">
      <g>
       <use xlink:href="#mc18412259f" x="86.42" y="257.120033" style="stroke: #000000; stroke-width: 0.8"/>
      </g>
     </g>
     <g id="text_9">
      <!-- 0.92 -->
      <g transform="translate(34.88875 264.718471) scale(0.2 -0.2)">
       <use xlink:href="#DejaVuSans-30"/>
       <use xlink:href="#DejaVuSans-2e" x="63.623047"/>
       <use xlink:href="#DejaVuSans-39" x="95.410156"/>
       <use xlink:href="#DejaVuSans-32" x="159.033203"/>
      </g>
     </g>
    </g>
    <g id="ytick_4">
     <g id="line2d_9">
      <g>
       <use xlink:href="#mc18412259f" x="86.42" y="173.045419" style="stroke: #000000; stroke-width: 0.8"/>
      </g>
     </g>
     <g id="text_10">
      <!-- 0.94 -->
      <g transform="translate(34.88875 180.643857) scale(0.2 -0.2)">
       <use xlink:href="#DejaVuSans-30"/>
       <use xlink:href="#DejaVuSans-2e" x="63.623047"/>
       <use xlink:href="#DejaVuSans-39" x="95.410156"/>
       <use xlink:href="#DejaVuSans-34" x="159.033203"/>
      </g>
     </g>
    </g>
    <g id="ytick_5">
     <g id="line2d_10">
      <g>
       <use xlink:href="#mc18412259f" x="86.42" y="88.970805" style="stroke: #000000; stroke-width: 0.8"/>
      </g>
     </g>
     <g id="text_11">
      <!-- 0.96 -->
      <g transform="translate(34.88875 96.569243) scale(0.2 -0.2)">
       <use xlink:href="#DejaVuSans-30"/>
       <use xlink:href="#DejaVuSans-2e" x="63.623047"/>
       <use xlink:href="#DejaVuSans-39" x="95.410156"/>
       <use xlink:href="#DejaVuSans-36" x="159.033203"/>
      </g>
     </g>
    </g>
    <g id="text_12">
     <!-- R2 -->
     <g transform="translate(26.729375 263.986938) rotate(-90) scale(0.2 -0.2)">
      <defs>
       <path id="DejaVuSans-52" d="M 2841 2188 
Q 3044 2119 3236 1894 
Q 3428 1669 3622 1275 
L 4263 0 
L 3584 0 
L 2988 1197 
Q 2756 1666 2539 1819 
Q 2322 1972 1947 1972 
L 1259 1972 
L 1259 0 
L 628 0 
L 628 4666 
L 2053 4666 
Q 2853 4666 3247 4331 
Q 3641 3997 3641 3322 
Q 3641 2881 3436 2590 
Q 3231 2300 2841 2188 
z
M 1259 4147 
L 1259 2491 
L 2053 2491 
Q 2509 2491 2742 2702 
Q 2975 2913 2975 3322 
Q 2975 3731 2742 3939 
Q 2509 4147 2053 4147 
L 1259 4147 
z
" transform="scale(0.015625)"/>
      </defs>
      <use xlink:href="#DejaVuSans-52"/>
      <use xlink:href="#DejaVuSans-32" x="69.482422"/>
     </g>
    </g>
   </g>
   <g id="line2d_11">
    <path d="M 134.364545 79.397762 
L 154.76648 52.138129 
L 175.168414 46.817634 
L 195.570348 51.897562 
L 215.972282 48.934971 
L 236.374217 46.65839 
L 256.776151 50.18566 
L 277.178085 51.311727 
L 297.580019 53.942543 
L 317.981954 55.30363 
L 338.383888 69.895029 
L 358.785822 61.836182 
L 379.187756 65.793698 
L 399.589691 80.329856 
L 419.991625 52.735701 
L 440.393559 58.973152 
L 460.795493 70.412093 
L 481.197427 56.359913 
L 501.599362 57.546486 
L 522.001296 64.296835 
L 542.40323 69.494188 
L 562.805164 54.693611 
L 583.207099 58.199737 
L 603.609033 58.720771 
L 624.010967 55.556881 
L 644.412901 66.168317 
L 664.814836 58.014039 
L 685.21677 54.538793 
L 705.618704 59.028111 
L 726.020638 49.946847 
L 746.422573 58.29451 
L 766.824507 51.38059 
L 787.226441 61.917069 
L 807.628375 51.545517 
L 828.030309 65.375205 
L 848.432244 81.771583 
L 868.834178 63.697552 
L 889.236112 68.034337 
L 909.638046 60.865899 
L 930.039981 60.545514 
L 950.441915 65.391143 
L 970.843849 64.124655 
L 991.245783 69.107386 
L 1011.647718 61.072862 
L 1032.049652 64.206389 
L 1052.451586 72.211745 
L 1072.85352 56.423888 
L 1093.255455 67.781732 
" clip-path="url(#pd45bf20d31)" style="fill: none; stroke: #f77189; stroke-width: 1.5; stroke-linecap: square"/>
   </g>
   <g id="line2d_12">
    <path d="M 134.364545 103.515148 
L 154.76648 81.87548 
L 175.168414 78.674368 
L 195.570348 78.826438 
L 215.972282 78.514462 
L 236.374217 84.131943 
L 256.776151 72.1861 
L 277.178085 74.905613 
L 297.580019 76.21641 
L 317.981954 80.93783 
L 338.383888 96.169556 
L 358.785822 90.425048 
L 379.187756 102.672446 
L 399.589691 100.307307 
L 419.991625 83.898825 
L 440.393559 81.286038 
L 460.795493 95.6124 
L 481.197427 86.459426 
L 501.599362 84.54137 
L 522.001296 92.704616 
L 542.40323 98.247736 
L 562.805164 86.079221 
L 583.207099 83.948635 
L 603.609033 79.358415 
L 624.010967 87.281105 
L 644.412901 90.844523 
L 664.814836 82.077205 
L 685.21677 78.062442 
L 705.618704 88.769123 
L 726.020638 71.654898 
L 746.422573 82.216083 
L 766.824507 82.444121 
L 787.226441 96.136683 
L 807.628375 84.445957 
L 828.030309 101.944223 
L 848.432244 115.667277 
L 868.834178 95.505098 
L 889.236112 92.703572 
L 909.638046 95.626021 
L 930.039981 98.483764 
L 950.441915 101.051054 
L 970.843849 87.761792 
L 991.245783 105.444052 
L 1011.647718 91.006912 
L 1032.049652 98.235824 
L 1052.451586 106.863994 
L 1072.85352 92.229957 
L 1093.255455 98.27215 
" clip-path="url(#pd45bf20d31)" style="fill: none; stroke: #e18632; stroke-width: 1.5; stroke-linecap: square"/>
   </g>
   <g id="line2d_13">
    <path d="M 134.364545 76.513887 
L 154.76648 56.818397 
L 175.168414 50.469618 
L 195.570348 55.122069 
L 215.972282 49.87756 
L 236.374217 60.355705 
L 256.776151 49.176518 
L 277.178085 49.189895 
L 297.580019 49.784136 
L 317.981954 55.577944 
L 338.383888 60.922535 
L 358.785822 58.266518 
L 379.187756 62.812104 
L 399.589691 65.846891 
L 419.991625 56.886263 
L 440.393559 58.582242 
L 460.795493 63.754466 
L 481.197427 59.562399 
L 501.599362 60.841592 
L 522.001296 56.945725 
L 542.40323 69.68191 
L 562.805164 61.439787 
L 583.207099 50.257316 
L 603.609033 54.806132 
L 624.010967 57.647997 
L 644.412901 64.264954 
L 664.814836 52.825157 
L 685.21677 48.202706 
L 705.618704 56.855841 
L 726.020638 52.257451 
L 746.422573 56.854862 
L 766.824507 54.717191 
L 787.226441 58.897119 
L 807.628375 50.087884 
L 828.030309 58.065099 
L 848.432244 76.392822 
L 868.834178 71.756433 
L 889.236112 67.877491 
L 909.638046 60.275248 
L 930.039981 66.43662 
L 950.441915 64.509444 
L 970.843849 58.671789 
L 991.245783 65.782694 
L 1011.647718 70.133815 
L 1032.049652 62.972535 
L 1052.451586 64.998322 
L 1072.85352 59.465519 
L 1093.255455 67.123267 
" clip-path="url(#pd45bf20d31)" style="fill: none; stroke: #b59a32; stroke-width: 1.5; stroke-linecap: square"/>
   </g>
   <g id="line2d_14">
    <path d="M 134.364545 93.48342 
L 154.76648 74.869602 
L 175.168414 75.560348 
L 195.570348 70.211253 
L 215.972282 67.464432 
L 236.374217 67.518261 
L 256.776151 65.935415 
L 277.178085 59.9655 
L 297.580019 72.394481 
L 317.981954 78.082617 
L 338.383888 77.59741 
L 358.785822 70.18572 
L 379.187756 80.871746 
L 399.589691 95.797799 
L 419.991625 79.561642 
L 440.393559 77.19369 
L 460.795493 88.05637 
L 481.197427 68.217145 
L 501.599362 82.595587 
L 522.001296 92.122352 
L 542.40323 89.353222 
L 562.805164 82.627405 
L 583.207099 71.204323 
L 603.609033 71.079582 
L 624.010967 70.271537 
L 644.412901 78.262428 
L 664.814836 79.039112 
L 685.21677 70.708551 
L 705.618704 79.213908 
L 726.020638 69.538161 
L 746.422573 82.244219 
L 766.824507 66.353821 
L 787.226441 69.953234 
L 807.628375 71.259201 
L 828.030309 89.024815 
L 848.432244 102.906029 
L 868.834178 79.620873 
L 889.236112 89.542991 
L 909.638046 84.187709 
L 930.039981 90.32582 
L 950.441915 84.971428 
L 970.843849 81.941762 
L 991.245783 88.273786 
L 1011.647718 101.913635 
L 1032.049652 84.806322 
L 1052.451586 85.79949 
L 1072.85352 96.092099 
L 1093.255455 101.126642 
" clip-path="url(#pd45bf20d31)" style="fill: none; stroke: #8ba731; stroke-width: 1.5; stroke-linecap: square"/>
   </g>
   <g id="line2d_15">
    <path d="M 134.364545 272.942727 
L 154.76648 230.385473 
L 175.168414 280.130744 
L 195.570348 293.339791 
L 215.972282 279.634315 
L 236.374217 245.34172 
L 256.776151 243.035126 
L 277.178085 227.759702 
L 297.580019 265.354909 
L 317.981954 252.729151 
L 338.383888 263.99009 
L 358.785822 304.258639 
L 379.187756 303.118244 
L 399.589691 347.34118 
L 419.991625 294.528986 
L 440.393559 266.408134 
L 460.795493 255.96854 
L 481.197427 314.180428 
L 501.599362 271.635488 
L 522.001296 264.134628 
L 542.40323 304.643661 
L 562.805164 265.572419 
L 583.207099 247.743191 
L 603.609033 253.634288 
L 624.010967 303.346454 
L 644.412901 304.189998 
L 664.814836 241.27009 
L 685.21677 249.32117 
L 705.618704 275.366746 
L 726.020638 215.173058 
L 746.422573 253.583181 
L 766.824507 223.549735 
L 787.226441 288.437619 
L 807.628375 278.165171 
L 828.030309 276.461465 
L 848.432244 268.2677 
L 868.834178 276.661329 
L 889.236112 287.126759 
L 909.638046 245.781568 
L 930.039981 283.95803 
L 950.441915 283.849464 
L 970.843849 246.793084 
L 991.245783 262.272551 
L 1011.647718 231.304967 
L 1032.049652 302.695623 
L 1052.451586 272.449994 
L 1072.85352 236.233438 
L 1093.255455 330.777008 
" clip-path="url(#pd45bf20d31)" style="fill: none; stroke: #32b258; stroke-width: 1.5; stroke-linecap: square"/>
   </g>
   <g id="line2d_16">
    <path d="M 134.364545 138.53008 
L 154.76648 106.769509 
L 175.168414 108.692602 
L 195.570348 98.917446 
L 215.972282 106.892105 
L 236.374217 120.335661 
L 256.776151 109.076033 
L 277.178085 110.38669 
L 297.580019 112.858309 
L 317.981954 114.550145 
L 338.383888 127.681658 
L 358.785822 124.076938 
L 379.187756 117.992406 
L 399.589691 125.924031 
L 419.991625 113.169806 
L 440.393559 107.284446 
L 460.795493 133.350465 
L 481.197427 122.038533 
L 501.599362 117.570598 
L 522.001296 124.314273 
L 542.40323 125.512246 
L 562.805164 125.039958 
L 583.207099 113.315885 
L 603.609033 106.887032 
L 624.010967 118.915607 
L 644.412901 127.012309 
L 664.814836 114.843709 
L 685.21677 109.398695 
L 705.618704 113.913735 
L 726.020638 108.596805 
L 746.422573 117.581247 
L 766.824507 98.187594 
L 787.226441 107.108874 
L 807.628375 103.968583 
L 828.030309 119.312459 
L 848.432244 140.909145 
L 868.834178 127.779831 
L 889.236112 117.622046 
L 909.638046 112.447062 
L 930.039981 117.011406 
L 950.441915 121.142136 
L 970.843849 117.487942 
L 991.245783 118.614115 
L 1011.647718 126.347623 
L 1032.049652 110.82872 
L 1052.451586 127.734204 
L 1072.85352 119.276647 
L 1093.255455 124.663515 
" clip-path="url(#pd45bf20d31)" style="fill: none; stroke: #35ae95; stroke-width: 1.5; stroke-linecap: square"/>
   </g>
   <g id="line2d_17">
    <path d="M 134.364545 183.435563 
L 154.76648 164.154601 
L 175.168414 150.014086 
L 195.570348 151.692838 
L 215.972282 157.211327 
L 236.374217 167.814682 
L 256.776151 149.664744 
L 277.178085 148.766804 
L 297.580019 153.619811 
L 317.981954 156.607612 
L 338.383888 186.704478 
L 358.785822 166.062739 
L 379.187756 170.728939 
L 399.589691 178.193557 
L 419.991625 157.726467 
L 440.393559 169.022157 
L 460.795493 174.346294 
L 481.197427 163.288248 
L 501.599362 158.042617 
L 522.001296 163.464437 
L 542.40323 176.779022 
L 562.805164 164.871662 
L 583.207099 165.364822 
L 603.609033 166.899483 
L 624.010967 173.785809 
L 644.412901 178.125793 
L 664.814836 166.823676 
L 685.21677 161.722217 
L 705.618704 169.881536 
L 726.020638 162.446131 
L 746.422573 164.359835 
L 766.824507 162.165071 
L 787.226441 171.851442 
L 807.628375 159.385858 
L 828.030309 170.771927 
L 848.432244 188.350971 
L 868.834178 193.233902 
L 889.236112 183.689366 
L 909.638046 171.554553 
L 930.039981 175.845056 
L 950.441915 172.700112 
L 970.843849 172.725052 
L 991.245783 172.80768 
L 1011.647718 188.896086 
L 1032.049652 164.479677 
L 1052.451586 176.996873 
L 1072.85352 168.621591 
L 1093.255455 190.454432 
" clip-path="url(#pd45bf20d31)" style="fill: none; stroke: #37abb2; stroke-width: 1.5; stroke-linecap: square"/>
   </g>
   <g id="line2d_18">
    <path d="M 134.364545 161.545407 
L 154.76648 149.495122 
L 175.168414 142.194501 
L 195.570348 143.891815 
L 215.972282 147.286296 
L 236.374217 150.984196 
L 256.776151 142.291865 
L 277.178085 147.166089 
L 297.580019 146.875818 
L 317.981954 146.271742 
L 338.383888 171.35203 
L 358.785822 164.438037 
L 379.187756 159.017405 
L 399.589691 170.864313 
L 419.991625 152.334651 
L 440.393559 162.347805 
L 460.795493 174.472476 
L 481.197427 157.962463 
L 501.599362 153.969692 
L 522.001296 159.300288 
L 542.40323 170.660296 
L 562.805164 166.080267 
L 583.207099 160.642382 
L 603.609033 154.067826 
L 624.010967 160.557292 
L 644.412901 162.576463 
L 664.814836 162.382994 
L 685.21677 154.697308 
L 705.618704 168.839387 
L 726.020638 154.271866 
L 746.422573 165.473701 
L 766.824507 155.360985 
L 787.226441 159.749716 
L 807.628375 155.854421 
L 828.030309 166.823836 
L 848.432244 186.334954 
L 868.834178 177.792311 
L 889.236112 181.075301 
L 909.638046 167.061237 
L 930.039981 170.847209 
L 950.441915 170.89907 
L 970.843849 162.278999 
L 991.245783 173.459642 
L 1011.647718 173.576004 
L 1032.049652 169.785795 
L 1052.451586 170.023343 
L 1072.85352 161.951356 
L 1093.255455 165.95743 
" clip-path="url(#pd45bf20d31)" style="fill: none; stroke: #39a7d6; stroke-width: 1.5; stroke-linecap: square"/>
   </g>
   <g id="line2d_19">
    <path d="M 134.364545 161.585904 
L 154.76648 149.535422 
L 175.168414 142.215224 
L 195.570348 143.938869 
L 215.972282 147.312464 
L 236.374217 151.020146 
L 256.776151 142.328582 
L 277.178085 147.180697 
L 297.580019 146.936203 
L 317.981954 146.283257 
L 338.383888 171.400163 
L 358.785822 164.472073 
L 379.187756 159.05091 
L 399.589691 170.913153 
L 419.991625 152.356849 
L 440.393559 162.372363 
L 460.795493 174.494626 
L 481.197427 158.014206 
L 501.599362 154.014972 
L 522.001296 159.314634 
L 542.40323 170.69182 
L 562.805164 166.115335 
L 583.207099 160.656048 
L 603.609033 154.109818 
L 624.010967 160.624079 
L 644.412901 162.621529 
L 664.814836 162.438924 
L 685.21677 154.74157 
L 705.618704 168.890779 
L 726.020638 154.281403 
L 746.422573 165.516226 
L 766.824507 155.388861 
L 787.226441 159.820031 
L 807.628375 155.91087 
L 828.030309 166.879549 
L 848.432244 186.37416 
L 868.834178 177.798966 
L 889.236112 181.100017 
L 909.638046 167.100026 
L 930.039981 170.876459 
L 950.441915 170.952788 
L 970.843849 162.299147 
L 991.245783 173.488763 
L 1011.647718 173.621659 
L 1032.049652 169.853333 
L 1052.451586 170.025054 
L 1072.85352 162.000748 
L 1093.255455 165.992863 
" clip-path="url(#pd45bf20d31)" style="fill: none; stroke: #8f93f4; stroke-width: 1.5; stroke-linecap: square"/>
   </g>
   <g id="line2d_20">
    <path d="M 134.364545 325.43851 
L 154.76648 252.825878 
L 175.168414 293.699232 
L 195.570348 326.730234 
L 215.972282 310.43403 
L 236.374217 292.353186 
L 256.776151 276.980598 
L 277.178085 275.749761 
L 297.580019 281.055307 
L 317.981954 275.824546 
L 338.383888 309.418674 
L 358.785822 329.894053 
L 379.187756 337.540132 
L 399.589691 372.371953 
L 419.991625 320.995929 
L 440.393559 305.264754 
L 460.795493 278.173835 
L 481.197427 326.871135 
L 501.599362 307.377362 
L 522.001296 299.918776 
L 542.40323 364.899734 
L 562.805164 295.268788 
L 583.207099 268.750057 
L 603.609033 271.186686 
L 624.010967 337.998955 
L 644.412901 313.403822 
L 664.814836 276.884478 
L 685.21677 288.056025 
L 705.618704 314.218248 
L 726.020638 241.210653 
L 746.422573 289.668265 
L 766.824507 246.734373 
L 787.226441 326.18469 
L 807.628375 313.201884 
L 828.030309 313.234427 
L 848.432244 310.503168 
L 868.834178 305.577991 
L 889.236112 337.659325 
L 909.638046 280.826908 
L 930.039981 320.085344 
L 950.441915 328.172335 
L 970.843849 297.5665 
L 991.245783 303.926248 
L 1011.647718 260.58383 
L 1032.049652 325.081077 
L 1052.451586 302.138928 
L 1072.85352 261.39107 
L 1093.255455 378.378044 
" clip-path="url(#pd45bf20d31)" style="fill: none; stroke: #db70f4; stroke-width: 1.5; stroke-linecap: square"/>
   </g>
   <g id="line2d_21">
    <path d="M 134.364545 304.715488 
L 154.76648 273.772768 
L 175.168414 291.281135 
L 195.570348 272.009421 
L 215.972282 275.701049 
L 236.374217 296.424303 
L 256.776151 286.080909 
L 277.178085 274.324403 
L 297.580019 285.156926 
L 317.981954 290.634627 
L 338.383888 306.755262 
L 358.785822 304.298872 
L 379.187756 310.785929 
L 399.589691 341.331291 
L 419.991625 297.758804 
L 440.393559 290.400525 
L 460.795493 329.596643 
L 481.197427 323.493558 
L 501.599362 297.920436 
L 522.001296 338.143441 
L 542.40323 331.446648 
L 562.805164 314.323222 
L 583.207099 309.998455 
L 603.609033 279.988677 
L 624.010967 323.677483 
L 644.412901 324.131209 
L 664.814836 303.761897 
L 685.21677 280.711261 
L 705.618704 298.398962 
L 726.020638 312.309036 
L 746.422573 299.342809 
L 766.824507 284.490089 
L 787.226441 299.496416 
L 807.628375 284.53465 
L 828.030309 319.893891 
L 848.432244 350.577306 
L 868.834178 315.607025 
L 889.236112 293.805449 
L 909.638046 309.010452 
L 930.039981 313.127342 
L 950.441915 307.810284 
L 970.843849 307.224683 
L 991.245783 298.169891 
L 1011.647718 335.853483 
L 1032.049652 322.01775 
L 1052.451586 330.177921 
L 1072.85352 322.169404 
L 1093.255455 334.955069 
" clip-path="url(#pd45bf20d31)" style="fill: none; stroke: #f667c6; stroke-width: 1.5; stroke-linecap: square"/>
   </g>
   <g id="line2d_22"/>
   <g id="line2d_23"/>
   <g id="line2d_24"/>
   <g id="line2d_25"/>
   <g id="line2d_26"/>
   <g id="line2d_27"/>
   <g id="line2d_28"/>
   <g id="line2d_29"/>
   <g id="line2d_30"/>
   <g id="line2d_31"/>
   <g id="line2d_32"/>
   <g id="patch_3">
    <path d="M 86.42 490.552 
L 86.42 10.8 
" style="fill: none; stroke: #000000; stroke-width: 0.8; stroke-linejoin: miter; stroke-linecap: square"/>
   </g>
   <g id="patch_4">
    <path d="M 1141.2 490.552 
L 1141.2 10.8 
" style="fill: none; stroke: #000000; stroke-width: 0.8; stroke-linejoin: miter; stroke-linecap: square"/>
   </g>
   <g id="patch_5">
    <path d="M 86.42 490.552 
L 1141.2 490.552 
" style="fill: none; stroke: #000000; stroke-width: 0.8; stroke-linejoin: miter; stroke-linecap: square"/>
   </g>
   <g id="patch_6">
    <path d="M 86.42 10.8 
L 1141.2 10.8 
" style="fill: none; stroke: #000000; stroke-width: 0.8; stroke-linejoin: miter; stroke-linecap: square"/>
   </g>
   <g id="legend_1">
    <g id="patch_7">
     <path d="M 97.62 482.552 
L 267.365 482.552 
Q 270.565 482.552 270.565 479.352 
L 270.565 222.617 
Q 270.565 219.417 267.365 219.417 
L 97.62 219.417 
Q 94.42 219.417 94.42 222.617 
L 94.42 479.352 
Q 94.42 482.552 97.62 482.552 
z
" style="fill: #ffffff; opacity: 0.8; stroke: #cccccc; stroke-linejoin: miter"/>
    </g>
    <g id="line2d_33">
     <path d="M 100.82 232.3745 
L 116.82 232.3745 
L 132.82 232.3745 
" style="fill: none; stroke: #f77189; stroke-width: 1.5; stroke-linecap: square"/>
    </g>
    <g id="text_13">
     <!-- gbr -->
     <g transform="translate(145.62 237.9745) scale(0.16 -0.16)">
      <defs>
       <path id="DejaVuSans-62" d="M 3116 1747 
Q 3116 2381 2855 2742 
Q 2594 3103 2138 3103 
Q 1681 3103 1420 2742 
Q 1159 2381 1159 1747 
Q 1159 1113 1420 752 
Q 1681 391 2138 391 
Q 2594 391 2855 752 
Q 3116 1113 3116 1747 
z
M 1159 2969 
Q 1341 3281 1617 3432 
Q 1894 3584 2278 3584 
Q 2916 3584 3314 3078 
Q 3713 2572 3713 1747 
Q 3713 922 3314 415 
Q 2916 -91 2278 -91 
Q 1894 -91 1617 61 
Q 1341 213 1159 525 
L 1159 0 
L 581 0 
L 581 4863 
L 1159 4863 
L 1159 2969 
z
" transform="scale(0.015625)"/>
      </defs>
      <use xlink:href="#DejaVuSans-67"/>
      <use xlink:href="#DejaVuSans-62" x="63.476562"/>
      <use xlink:href="#DejaVuSans-72" x="126.953125"/>
     </g>
    </g>
    <g id="line2d_34">
     <path d="M 100.82 255.8595 
L 116.82 255.8595 
L 132.82 255.8595 
" style="fill: none; stroke: #e18632; stroke-width: 1.5; stroke-linecap: square"/>
    </g>
    <g id="text_14">
     <!-- rf -->
     <g transform="translate(145.62 261.4595) scale(0.16 -0.16)">
      <defs>
       <path id="DejaVuSans-66" d="M 2375 4863 
L 2375 4384 
L 1825 4384 
Q 1516 4384 1395 4259 
Q 1275 4134 1275 3809 
L 1275 3500 
L 2222 3500 
L 2222 3053 
L 1275 3053 
L 1275 0 
L 697 0 
L 697 3053 
L 147 3053 
L 147 3500 
L 697 3500 
L 697 3744 
Q 697 4328 969 4595 
Q 1241 4863 1831 4863 
L 2375 4863 
z
" transform="scale(0.015625)"/>
      </defs>
      <use xlink:href="#DejaVuSans-72"/>
      <use xlink:href="#DejaVuSans-66" x="41.113281"/>
     </g>
    </g>
    <g id="line2d_35">
     <path d="M 100.82 279.3445 
L 116.82 279.3445 
L 132.82 279.3445 
" style="fill: none; stroke: #b59a32; stroke-width: 1.5; stroke-linecap: square"/>
    </g>
    <g id="text_15">
     <!-- lgbm -->
     <g transform="translate(145.62 284.9445) scale(0.16 -0.16)">
      <use xlink:href="#DejaVuSans-6c"/>
      <use xlink:href="#DejaVuSans-67" x="27.783203"/>
      <use xlink:href="#DejaVuSans-62" x="91.259766"/>
      <use xlink:href="#DejaVuSans-6d" x="154.736328"/>
     </g>
    </g>
    <g id="line2d_36">
     <path d="M 100.82 302.8295 
L 116.82 302.8295 
L 132.82 302.8295 
" style="fill: none; stroke: #8ba731; stroke-width: 1.5; stroke-linecap: square"/>
    </g>
    <g id="text_16">
     <!-- xgb -->
     <g transform="translate(145.62 308.4295) scale(0.16 -0.16)">
      <defs>
       <path id="DejaVuSans-78" d="M 3513 3500 
L 2247 1797 
L 3578 0 
L 2900 0 
L 1881 1375 
L 863 0 
L 184 0 
L 1544 1831 
L 300 3500 
L 978 3500 
L 1906 2253 
L 2834 3500 
L 3513 3500 
z
" transform="scale(0.015625)"/>
      </defs>
      <use xlink:href="#DejaVuSans-78"/>
      <use xlink:href="#DejaVuSans-67" x="59.179688"/>
      <use xlink:href="#DejaVuSans-62" x="122.65625"/>
     </g>
    </g>
    <g id="line2d_37">
     <path d="M 100.82 326.3145 
L 116.82 326.3145 
L 132.82 326.3145 
" style="fill: none; stroke: #32b258; stroke-width: 1.5; stroke-linecap: square"/>
    </g>
    <g id="text_17">
     <!-- et -->
     <g transform="translate(145.62 331.9145) scale(0.16 -0.16)">
      <use xlink:href="#DejaVuSans-65"/>
      <use xlink:href="#DejaVuSans-74" x="61.523438"/>
     </g>
    </g>
    <g id="line2d_38">
     <path d="M 100.82 349.7995 
L 116.82 349.7995 
L 132.82 349.7995 
" style="fill: none; stroke: #35ae95; stroke-width: 1.5; stroke-linecap: square"/>
    </g>
    <g id="text_18">
     <!-- BayesianRidge -->
     <g transform="translate(145.62 355.3995) scale(0.16 -0.16)">
      <defs>
       <path id="DejaVuSans-42" d="M 1259 2228 
L 1259 519 
L 2272 519 
Q 2781 519 3026 730 
Q 3272 941 3272 1375 
Q 3272 1813 3026 2020 
Q 2781 2228 2272 2228 
L 1259 2228 
z
M 1259 4147 
L 1259 2741 
L 2194 2741 
Q 2656 2741 2882 2914 
Q 3109 3088 3109 3444 
Q 3109 3797 2882 3972 
Q 2656 4147 2194 4147 
L 1259 4147 
z
M 628 4666 
L 2241 4666 
Q 2963 4666 3353 4366 
Q 3744 4066 3744 3513 
Q 3744 3084 3544 2831 
Q 3344 2578 2956 2516 
Q 3422 2416 3680 2098 
Q 3938 1781 3938 1306 
Q 3938 681 3513 340 
Q 3088 0 2303 0 
L 628 0 
L 628 4666 
z
" transform="scale(0.015625)"/>
       <path id="DejaVuSans-79" d="M 2059 -325 
Q 1816 -950 1584 -1140 
Q 1353 -1331 966 -1331 
L 506 -1331 
L 506 -850 
L 844 -850 
Q 1081 -850 1212 -737 
Q 1344 -625 1503 -206 
L 1606 56 
L 191 3500 
L 800 3500 
L 1894 763 
L 2988 3500 
L 3597 3500 
L 2059 -325 
z
" transform="scale(0.015625)"/>
      </defs>
      <use xlink:href="#DejaVuSans-42"/>
      <use xlink:href="#DejaVuSans-61" x="68.603516"/>
      <use xlink:href="#DejaVuSans-79" x="129.882812"/>
      <use xlink:href="#DejaVuSans-65" x="189.0625"/>
      <use xlink:href="#DejaVuSans-73" x="250.585938"/>
      <use xlink:href="#DejaVuSans-69" x="302.685547"/>
      <use xlink:href="#DejaVuSans-61" x="330.46875"/>
      <use xlink:href="#DejaVuSans-6e" x="391.748047"/>
      <use xlink:href="#DejaVuSans-52" x="455.126953"/>
      <use xlink:href="#DejaVuSans-69" x="524.609375"/>
      <use xlink:href="#DejaVuSans-64" x="552.392578"/>
      <use xlink:href="#DejaVuSans-67" x="615.869141"/>
      <use xlink:href="#DejaVuSans-65" x="679.345703"/>
     </g>
    </g>
    <g id="line2d_39">
     <path d="M 100.82 373.2845 
L 116.82 373.2845 
L 132.82 373.2845 
" style="fill: none; stroke: #37abb2; stroke-width: 1.5; stroke-linecap: square"/>
    </g>
    <g id="text_19">
     <!-- Adaboost -->
     <g transform="translate(145.62 378.8845) scale(0.16 -0.16)">
      <defs>
       <path id="DejaVuSans-41" d="M 2188 4044 
L 1331 1722 
L 3047 1722 
L 2188 4044 
z
M 1831 4666 
L 2547 4666 
L 4325 0 
L 3669 0 
L 3244 1197 
L 1141 1197 
L 716 0 
L 50 0 
L 1831 4666 
z
" transform="scale(0.015625)"/>
      </defs>
      <use xlink:href="#DejaVuSans-41"/>
      <use xlink:href="#DejaVuSans-64" x="66.658203"/>
      <use xlink:href="#DejaVuSans-61" x="130.134766"/>
      <use xlink:href="#DejaVuSans-62" x="191.414062"/>
      <use xlink:href="#DejaVuSans-6f" x="254.890625"/>
      <use xlink:href="#DejaVuSans-6f" x="316.072266"/>
      <use xlink:href="#DejaVuSans-73" x="377.253906"/>
      <use xlink:href="#DejaVuSans-74" x="429.353516"/>
     </g>
    </g>
    <g id="line2d_40">
     <path d="M 100.82 396.7695 
L 116.82 396.7695 
L 132.82 396.7695 
" style="fill: none; stroke: #39a7d6; stroke-width: 1.5; stroke-linecap: square"/>
    </g>
    <g id="text_20">
     <!-- Lasso -->
     <g transform="translate(145.62 402.3695) scale(0.16 -0.16)">
      <defs>
       <path id="DejaVuSans-4c" d="M 628 4666 
L 1259 4666 
L 1259 531 
L 3531 531 
L 3531 0 
L 628 0 
L 628 4666 
z
" transform="scale(0.015625)"/>
      </defs>
      <use xlink:href="#DejaVuSans-4c"/>
      <use xlink:href="#DejaVuSans-61" x="55.712891"/>
      <use xlink:href="#DejaVuSans-73" x="116.992188"/>
      <use xlink:href="#DejaVuSans-73" x="169.091797"/>
      <use xlink:href="#DejaVuSans-6f" x="221.191406"/>
     </g>
    </g>
    <g id="line2d_41">
     <path d="M 100.82 420.2545 
L 116.82 420.2545 
L 132.82 420.2545 
" style="fill: none; stroke: #8f93f4; stroke-width: 1.5; stroke-linecap: square"/>
    </g>
    <g id="text_21">
     <!-- LassoLars -->
     <g transform="translate(145.62 425.8545) scale(0.16 -0.16)">
      <use xlink:href="#DejaVuSans-4c"/>
      <use xlink:href="#DejaVuSans-61" x="55.712891"/>
      <use xlink:href="#DejaVuSans-73" x="116.992188"/>
      <use xlink:href="#DejaVuSans-73" x="169.091797"/>
      <use xlink:href="#DejaVuSans-6f" x="221.191406"/>
      <use xlink:href="#DejaVuSans-4c" x="282.373047"/>
      <use xlink:href="#DejaVuSans-61" x="338.085938"/>
      <use xlink:href="#DejaVuSans-72" x="399.365234"/>
      <use xlink:href="#DejaVuSans-73" x="440.478516"/>
     </g>
    </g>
    <g id="line2d_42">
     <path d="M 100.82 443.7395 
L 116.82 443.7395 
L 132.82 443.7395 
" style="fill: none; stroke: #db70f4; stroke-width: 1.5; stroke-linecap: square"/>
    </g>
    <g id="text_22">
     <!-- dt -->
     <g transform="translate(145.62 449.3395) scale(0.16 -0.16)">
      <use xlink:href="#DejaVuSans-64"/>
      <use xlink:href="#DejaVuSans-74" x="63.476562"/>
     </g>
    </g>
    <g id="line2d_43">
     <path d="M 100.82 467.2245 
L 116.82 467.2245 
L 132.82 467.2245 
" style="fill: none; stroke: #f667c6; stroke-width: 1.5; stroke-linecap: square"/>
    </g>
    <g id="text_23">
     <!-- HubR -->
     <g transform="translate(145.62 472.8245) scale(0.16 -0.16)">
      <defs>
       <path id="DejaVuSans-75" d="M 544 1381 
L 544 3500 
L 1119 3500 
L 1119 1403 
Q 1119 906 1312 657 
Q 1506 409 1894 409 
Q 2359 409 2629 706 
Q 2900 1003 2900 1516 
L 2900 3500 
L 3475 3500 
L 3475 0 
L 2900 0 
L 2900 538 
Q 2691 219 2414 64 
Q 2138 -91 1772 -91 
Q 1169 -91 856 284 
Q 544 659 544 1381 
z
M 1991 3584 
L 1991 3584 
z
" transform="scale(0.015625)"/>
      </defs>
      <use xlink:href="#DejaVuSans-48"/>
      <use xlink:href="#DejaVuSans-75" x="75.195312"/>
      <use xlink:href="#DejaVuSans-62" x="138.574219"/>
      <use xlink:href="#DejaVuSans-52" x="202.050781"/>
     </g>
    </g>
   </g>
  </g>
 </g>
 <defs>
  <clipPath id="pd45bf20d31">
   <rect x="86.42" y="10.8" width="1054.78" height="479.752"/>
  </clipPath>
 </defs>
</svg>
