<?xml version="1.0" encoding="utf-8" standalone="no"?>
<!DOCTYPE svg PUBLIC "-//W3C//DTD SVG 1.1//EN"
  "http://www.w3.org/Graphics/SVG/1.1/DTD/svg11.dtd">
<svg xmlns:xlink="http://www.w3.org/1999/xlink" width="1152pt" height="576pt" viewBox="0 0 1152 576" xmlns="http://www.w3.org/2000/svg" version="1.1">
 <metadata>
  <rdf:RDF xmlns:dc="http://purl.org/dc/elements/1.1/" xmlns:cc="http://creativecommons.org/ns#" xmlns:rdf="http://www.w3.org/1999/02/22-rdf-syntax-ns#">
   <cc:Work>
    <dc:type rdf:resource="http://purl.org/dc/dcmitype/StillImage"/>
    <dc:date>2024-08-27T10:34:31.270040</dc:date>
    <dc:format>image/svg+xml</dc:format>
    <dc:creator>
     <cc:Agent>
      <dc:title>Matplotlib v3.7.1, https://matplotlib.org/</dc:title>
     </cc:Agent>
    </dc:creator>
   </cc:Work>
  </rdf:RDF>
 </metadata>
 <defs>
  <style type="text/css">*{stroke-linejoin: round; stroke-linecap: butt}</style>
 </defs>
 <g id="figure_1">
  <g id="patch_1">
   <path d="M 0 576 
L 1152 576 
L 1152 0 
L 0 0 
z
" style="fill: #ffffff"/>
  </g>
  <g id="axes_1">
   <g id="patch_2">
    <path d="M 67.34 490.552 
L 1141.2 490.552 
L 1141.2 10.8 
L 67.34 10.8 
z
" style="fill: #ffffff"/>
   </g>
   <g id="PolyCollection_1">
    <defs>
     <path id="m4c4671cc20" d="M 116.151818 -169.256533 
L 116.151818 -143.684942 
L 136.922805 -119.670522 
L 157.693791 -126.463189 
L 178.464778 -125.369439 
L 199.235764 -123.982079 
L 220.00675 -107.254909 
L 240.777737 -128.336297 
L 261.548723 -133.085729 
L 282.31971 -129.307254 
L 303.090696 -128.241746 
L 323.861683 -132.054858 
L 344.632669 -129.12738 
L 365.403656 -138.57181 
L 386.174642 -143.7373 
L 406.945629 -127.77546 
L 427.716615 -144.344958 
L 448.487602 -129.624266 
L 469.258588 -139.229984 
L 490.029574 -120.727501 
L 510.800561 -141.323339 
L 531.571547 -136.093134 
L 552.342534 -132.962867 
L 573.11352 -127.39989 
L 593.884507 -129.373575 
L 614.655493 -130.546762 
L 635.42648 -132.786132 
L 656.197466 -133.840217 
L 676.968453 -124.946822 
L 697.739439 -132.831043 
L 718.510426 -118.99972 
L 739.281412 -127.197815 
L 760.052398 -118.877777 
L 780.823385 -141.317439 
L 801.594371 -126.374906 
L 822.365358 -137.711851 
L 843.136344 -147.218165 
L 863.907331 -134.438869 
L 884.678317 -137.276238 
L 905.449304 -132.883121 
L 926.22029 -124.88254 
L 946.991277 -134.649137 
L 967.762263 -133.461895 
L 988.53325 -139.042284 
L 1009.304236 -128.580374 
L 1030.075222 -141.618297 
L 1050.846209 -144.838765 
L 1071.617195 -125.569643 
L 1092.388182 -127.581833 
L 1092.388182 -166.098947 
L 1092.388182 -166.098947 
L 1071.617195 -143.325657 
L 1050.846209 -168.480377 
L 1030.075222 -153.468989 
L 1009.304236 -150.75562 
L 988.53325 -182.82857 
L 967.762263 -166.100767 
L 946.991277 -163.969435 
L 926.22029 -158.959355 
L 905.449304 -162.648871 
L 884.678317 -166.536836 
L 863.907331 -166.473891 
L 843.136344 -169.035596 
L 822.365358 -156.479826 
L 801.594371 -160.265839 
L 780.823385 -154.008517 
L 760.052398 -159.248524 
L 739.281412 -151.449889 
L 718.510426 -148.279248 
L 697.739439 -149.892472 
L 676.968453 -154.977752 
L 656.197466 -171.087281 
L 635.42648 -182.025566 
L 614.655493 -144.836454 
L 593.884507 -178.684115 
L 573.11352 -152.191533 
L 552.342534 -154.984055 
L 531.571547 -183.350594 
L 510.800561 -171.995038 
L 490.029574 -160.515989 
L 469.258588 -158.466136 
L 448.487602 -157.278146 
L 427.716615 -156.907636 
L 406.945629 -157.955945 
L 386.174642 -177.064266 
L 365.403656 -170.414497 
L 344.632669 -161.682342 
L 323.861683 -152.6952 
L 303.090696 -154.007422 
L 282.31971 -164.588298 
L 261.548723 -157.071082 
L 240.777737 -176.033046 
L 220.00675 -147.355883 
L 199.235764 -150.510689 
L 178.464778 -149.391201 
L 157.693791 -146.166131 
L 136.922805 -148.402453 
L 116.151818 -169.256533 
z
" style="stroke: #f77189; stroke-opacity: 0.2"/>
    </defs>
    <g clip-path="url(#p109fb70379)">
     <use xlink:href="#m4c4671cc20" x="0" y="576" style="fill: #f77189; fill-opacity: 0.2; stroke: #f77189; stroke-opacity: 0.2"/>
    </g>
   </g>
   <g id="PolyCollection_2">
    <defs>
     <path id="maddfe729ee" d="M 116.151818 -203.631922 
L 116.151818 -177.614696 
L 136.922805 -171.039394 
L 157.693791 -173.47065 
L 178.464778 -180.435073 
L 199.235764 -177.660818 
L 220.00675 -162.734732 
L 240.777737 -167.022242 
L 261.548723 -174.408687 
L 282.31971 -167.273499 
L 303.090696 -160.563041 
L 323.861683 -171.820991 
L 344.632669 -173.733013 
L 365.403656 -200.184089 
L 386.174642 -184.476624 
L 406.945629 -185.366528 
L 427.716615 -181.004306 
L 448.487602 -168.633408 
L 469.258588 -182.286367 
L 490.029574 -160.450702 
L 510.800561 -182.609479 
L 531.571547 -181.326857 
L 552.342534 -182.798981 
L 573.11352 -171.062593 
L 593.884507 -168.6811 
L 614.655493 -178.614322 
L 635.42648 -175.815439 
L 656.197466 -179.704011 
L 676.968453 -163.445593 
L 697.739439 -172.185819 
L 718.510426 -159.844377 
L 739.281412 -166.540909 
L 760.052398 -168.954385 
L 780.823385 -190.41043 
L 801.594371 -184.375244 
L 822.365358 -177.929365 
L 843.136344 -196.868279 
L 863.907331 -177.134791 
L 884.678317 -173.642003 
L 905.449304 -178.726677 
L 926.22029 -182.211551 
L 946.991277 -176.432795 
L 967.762263 -172.327576 
L 988.53325 -190.691648 
L 1009.304236 -166.126144 
L 1030.075222 -186.983195 
L 1050.846209 -187.811673 
L 1071.617195 -168.518302 
L 1092.388182 -168.55517 
L 1092.388182 -216.435654 
L 1092.388182 -216.435654 
L 1071.617195 -219.057042 
L 1050.846209 -223.7588 
L 1030.075222 -201.050383 
L 1009.304236 -199.188838 
L 988.53325 -244.656965 
L 967.762263 -208.5514 
L 946.991277 -242.825429 
L 926.22029 -212.074666 
L 905.449304 -211.848794 
L 884.678317 -221.237492 
L 863.907331 -217.825547 
L 843.136344 -212.710609 
L 822.365358 -212.440863 
L 801.594371 -213.882441 
L 780.823385 -217.61222 
L 760.052398 -217.680976 
L 739.281412 -197.742942 
L 718.510426 -188.066242 
L 697.739439 -197.651708 
L 676.968453 -198.592621 
L 656.197466 -209.536757 
L 635.42648 -208.714758 
L 614.655493 -200.67107 
L 593.884507 -201.431597 
L 573.11352 -193.480125 
L 552.342534 -213.13593 
L 531.571547 -221.995818 
L 510.800561 -220.800528 
L 490.029574 -209.489659 
L 469.258588 -210.105227 
L 448.487602 -189.707972 
L 427.716615 -197.046082 
L 406.945629 -209.005301 
L 386.174642 -203.845408 
L 365.403656 -227.538122 
L 344.632669 -201.85662 
L 323.861683 -186.710088 
L 303.090696 -203.073211 
L 282.31971 -205.950087 
L 261.548723 -196.139592 
L 240.777737 -211.770554 
L 220.00675 -205.717476 
L 199.235764 -199.789506 
L 178.464778 -188.716249 
L 157.693791 -201.020181 
L 136.922805 -195.975521 
L 116.151818 -203.631922 
z
" style="stroke: #e18632; stroke-opacity: 0.2"/>
    </defs>
    <g clip-path="url(#p109fb70379)">
     <use xlink:href="#maddfe729ee" x="0" y="576" style="fill: #e18632; fill-opacity: 0.2; stroke: #e18632; stroke-opacity: 0.2"/>
    </g>
   </g>
   <g id="PolyCollection_3">
    <defs>
     <path id="m577a51faa2" d="M 116.151818 -162.931836 
L 116.151818 -141.303508 
L 136.922805 -134.752331 
L 157.693791 -127.553036 
L 178.464778 -142.511514 
L 199.235764 -132.757152 
L 220.00675 -131.637397 
L 240.777737 -138.13635 
L 261.548723 -130.98662 
L 282.31971 -128.227389 
L 303.090696 -133.375106 
L 323.861683 -124.856299 
L 344.632669 -120.870675 
L 365.403656 -137.710641 
L 386.174642 -129.837441 
L 406.945629 -138.04294 
L 427.716615 -139.539263 
L 448.487602 -128.614818 
L 469.258588 -146.158546 
L 490.029574 -145.03191 
L 510.800561 -127.679551 
L 531.571547 -144.194449 
L 552.342534 -142.698788 
L 573.11352 -123.83165 
L 593.884507 -133.345718 
L 614.655493 -132.389944 
L 635.42648 -134.10791 
L 656.197466 -133.96697 
L 676.968453 -118.395182 
L 697.739439 -124.402509 
L 718.510426 -119.688257 
L 739.281412 -131.309798 
L 760.052398 -124.598751 
L 780.823385 -138.567455 
L 801.594371 -133.48036 
L 822.365358 -128.492285 
L 843.136344 -136.462302 
L 863.907331 -142.486007 
L 884.678317 -134.363532 
L 905.449304 -138.052948 
L 926.22029 -130.961992 
L 946.991277 -132.460402 
L 967.762263 -126.083384 
L 988.53325 -132.999755 
L 1009.304236 -137.146343 
L 1030.075222 -140.708177 
L 1050.846209 -139.02462 
L 1071.617195 -124.530277 
L 1092.388182 -137.123105 
L 1092.388182 -157.60654 
L 1092.388182 -157.60654 
L 1071.617195 -154.721029 
L 1050.846209 -158.493705 
L 1030.075222 -151.881635 
L 1009.304236 -167.863981 
L 988.53325 -170.079208 
L 967.762263 -161.869899 
L 946.991277 -173.433923 
L 926.22029 -180.718113 
L 905.449304 -157.821987 
L 884.678317 -167.304749 
L 863.907331 -166.494786 
L 843.136344 -154.229424 
L 822.365358 -150.312287 
L 801.594371 -157.257115 
L 780.823385 -151.84455 
L 760.052398 -167.91404 
L 739.281412 -151.579591 
L 718.510426 -159.412044 
L 697.739439 -150.681325 
L 676.968453 -151.599928 
L 656.197466 -158.561105 
L 635.42648 -164.756813 
L 614.655493 -162.627318 
L 593.884507 -166.142584 
L 573.11352 -151.495303 
L 552.342534 -171.937925 
L 531.571547 -202.630052 
L 510.800561 -158.373733 
L 490.029574 -159.796139 
L 469.258588 -159.97313 
L 448.487602 -146.257076 
L 427.716615 -156.732859 
L 406.945629 -174.246832 
L 386.174642 -178.098612 
L 365.403656 -161.776542 
L 344.632669 -155.815826 
L 323.861683 -141.556666 
L 303.090696 -159.302339 
L 282.31971 -157.427362 
L 261.548723 -152.498277 
L 240.777737 -162.350045 
L 220.00675 -183.984283 
L 199.235764 -154.944105 
L 178.464778 -161.070503 
L 157.693791 -157.608226 
L 136.922805 -150.313393 
L 116.151818 -162.931836 
z
" style="stroke: #b59a32; stroke-opacity: 0.2"/>
    </defs>
    <g clip-path="url(#p109fb70379)">
     <use xlink:href="#m577a51faa2" x="0" y="576" style="fill: #b59a32; fill-opacity: 0.2; stroke: #b59a32; stroke-opacity: 0.2"/>
    </g>
   </g>
   <g id="PolyCollection_4">
    <defs>
     <path id="m3e20df9139" d="M 116.151818 -186.361508 
L 116.151818 -167.679195 
L 136.922805 -146.499632 
L 157.693791 -162.695083 
L 178.464778 -159.709908 
L 199.235764 -144.910195 
L 220.00675 -137.79548 
L 240.777737 -156.546342 
L 261.548723 -148.340961 
L 282.31971 -162.044681 
L 303.090696 -169.623562 
L 323.861683 -154.137264 
L 344.632669 -145.150932 
L 365.403656 -151.238716 
L 386.174642 -177.254587 
L 406.945629 -159.178698 
L 427.716615 -164.064883 
L 448.487602 -160.342646 
L 469.258588 -144.38812 
L 490.029574 -170.531264 
L 510.800561 -165.235441 
L 531.571547 -157.831149 
L 552.342534 -170.768542 
L 573.11352 -151.639574 
L 593.884507 -151.966614 
L 614.655493 -147.48673 
L 635.42648 -161.312075 
L 656.197466 -162.773038 
L 676.968453 -144.363671 
L 697.739439 -161.662276 
L 718.510426 -140.508618 
L 739.281412 -169.101154 
L 760.052398 -144.447215 
L 780.823385 -136.221707 
L 801.594371 -146.600449 
L 822.365358 -168.561734 
L 843.136344 -166.863599 
L 863.907331 -151.949183 
L 884.678317 -160.11868 
L 905.449304 -158.336263 
L 926.22029 -159.796697 
L 946.991277 -164.682516 
L 967.762263 -157.593199 
L 988.53325 -154.635377 
L 1009.304236 -164.936234 
L 1030.075222 -166.00468 
L 1050.846209 -155.327238 
L 1071.617195 -169.593734 
L 1092.388182 -174.921567 
L 1092.388182 -212.450419 
L 1092.388182 -212.450419 
L 1071.617195 -209.631123 
L 1050.846209 -205.742667 
L 1030.075222 -194.482436 
L 1009.304236 -231.220721 
L 988.53325 -194.726996 
L 967.762263 -195.635065 
L 946.991277 -195.167006 
L 926.22029 -220.214444 
L 905.449304 -199.081002 
L 884.678317 -199.669581 
L 863.907331 -187.355719 
L 843.136344 -211.506908 
L 822.365358 -202.996244 
L 801.594371 -196.267458 
L 780.823385 -166.27544 
L 760.052398 -169.721069 
L 739.281412 -185.424483 
L 718.510426 -188.966854 
L 697.739439 -189.55457 
L 676.968453 -189.604895 
L 656.197466 -197.629689 
L 635.42648 -188.043908 
L 614.655493 -175.485417 
L 593.884507 -199.663071 
L 573.11352 -185.413837 
L 552.342534 -200.294723 
L 531.571547 -225.241983 
L 510.800561 -223.851075 
L 490.029574 -191.769312 
L 469.258588 -189.67267 
L 448.487602 -183.177982 
L 427.716615 -194.691813 
L 406.945629 -219.226542 
L 386.174642 -196.27203 
L 365.403656 -193.960305 
L 344.632669 -169.424145 
L 323.861683 -165.689886 
L 303.090696 -187.807252 
L 282.31971 -194.072699 
L 261.548723 -175.293683 
L 240.777737 -188.034414 
L 220.00675 -181.021571 
L 199.235764 -185.486846 
L 178.464778 -179.456732 
L 157.693791 -203.257549 
L 136.922805 -187.153123 
L 116.151818 -186.361508 
z
" style="stroke: #8ba731; stroke-opacity: 0.2"/>
    </defs>
    <g clip-path="url(#p109fb70379)">
     <use xlink:href="#m3e20df9139" x="0" y="576" style="fill: #8ba731; fill-opacity: 0.2; stroke: #8ba731; stroke-opacity: 0.2"/>
    </g>
   </g>
   <g id="PolyCollection_5">
    <defs>
     <path id="m017ea60af3" d="M 116.151818 -439.325536 
L 116.151818 -314.041376 
L 136.922805 -303.063204 
L 157.693791 -364.893009 
L 178.464778 -390.192784 
L 199.235764 -368.482331 
L 220.00675 -333.084035 
L 240.777737 -379.227228 
L 261.548723 -328.066434 
L 282.31971 -344.254725 
L 303.090696 -335.424589 
L 323.861683 -322.763386 
L 344.632669 -380.26214 
L 365.403656 -400.394736 
L 386.174642 -390.776448 
L 406.945629 -410.435866 
L 427.716615 -380.666374 
L 448.487602 -294.95766 
L 469.258588 -395.60565 
L 490.029574 -348.62471 
L 510.800561 -349.333101 
L 531.571547 -352.476577 
L 552.342534 -329.022585 
L 573.11352 -302.244713 
L 593.884507 -349.5872 
L 614.655493 -375.634902 
L 635.42648 -383.102065 
L 656.197466 -333.921557 
L 676.968453 -320.393555 
L 697.739439 -336.81185 
L 718.510426 -301.017131 
L 739.281412 -356.483384 
L 760.052398 -326.334656 
L 780.823385 -354.198803 
L 801.594371 -360.305072 
L 822.365358 -345.303825 
L 843.136344 -338.979125 
L 863.907331 -359.184586 
L 884.678317 -359.037788 
L 905.449304 -339.903301 
L 926.22029 -353.021529 
L 946.991277 -364.009526 
L 967.762263 -296.146596 
L 988.53325 -333.36366 
L 1009.304236 -313.346934 
L 1030.075222 -364.279002 
L 1050.846209 -331.203339 
L 1071.617195 -291.986302 
L 1092.388182 -370.920334 
L 1092.388182 -472.746302 
L 1092.388182 -472.746302 
L 1071.617195 -428.479524 
L 1050.846209 -392.583933 
L 1030.075222 -401.565526 
L 1009.304236 -402.978135 
L 988.53325 -424.78577 
L 967.762263 -425.32966 
L 946.991277 -418.523043 
L 926.22029 -427.13016 
L 905.449304 -375.590804 
L 884.678317 -443.421554 
L 863.907331 -442.428078 
L 843.136344 -394.251389 
L 822.365358 -391.879866 
L 801.594371 -443.746134 
L 780.823385 -430.481436 
L 760.052398 -379.306183 
L 739.281412 -400.945839 
L 718.510426 -393.134689 
L 697.739439 -402.201477 
L 676.968453 -399.571996 
L 656.197466 -395.950891 
L 635.42648 -434.53667 
L 614.655493 -425.524142 
L 593.884507 -396.342253 
L 573.11352 -387.800604 
L 552.342534 -427.223832 
L 531.571547 -457.433323 
L 510.800561 -429.993635 
L 490.029574 -400.938114 
L 469.258588 -430.680013 
L 448.487602 -394.87508 
L 427.716615 -409.714751 
L 406.945629 -454.779075 
L 386.174642 -445.736298 
L 365.403656 -457.678309 
L 344.632669 -439.673975 
L 323.861683 -401.767802 
L 303.090696 -409.035974 
L 282.31971 -443.43059 
L 261.548723 -382.121352 
L 240.777737 -397.625376 
L 220.00675 -387.790238 
L 199.235764 -421.863163 
L 178.464778 -423.470828 
L 157.693791 -428.990436 
L 136.922805 -381.632199 
L 116.151818 -439.325536 
z
" style="stroke: #32b258; stroke-opacity: 0.2"/>
    </defs>
    <g clip-path="url(#p109fb70379)">
     <use xlink:href="#m017ea60af3" x="0" y="576" style="fill: #32b258; fill-opacity: 0.2; stroke: #32b258; stroke-opacity: 0.2"/>
    </g>
   </g>
   <g id="PolyCollection_6">
    <defs>
     <path id="mc434eb38db" d="M 116.151818 -253.507997 
L 116.151818 -228.270051 
L 136.922805 -215.386026 
L 157.693791 -214.848322 
L 178.464778 -215.66763 
L 199.235764 -212.134041 
L 220.00675 -212.121582 
L 240.777737 -222.170372 
L 261.548723 -225.867494 
L 282.31971 -223.482757 
L 303.090696 -217.490018 
L 323.861683 -218.828507 
L 344.632669 -220.733006 
L 365.403656 -222.81364 
L 386.174642 -227.170273 
L 406.945629 -215.499808 
L 427.716615 -209.934689 
L 448.487602 -222.146868 
L 469.258588 -226.487551 
L 490.029574 -227.043528 
L 510.800561 -210.865602 
L 531.571547 -228.299197 
L 552.342534 -222.957363 
L 573.11352 -216.284193 
L 593.884507 -210.52828 
L 614.655493 -219.1878 
L 635.42648 -217.985955 
L 656.197466 -229.328615 
L 676.968453 -208.745512 
L 697.739439 -202.574822 
L 718.510426 -219.662985 
L 739.281412 -215.068794 
L 760.052398 -193.00653 
L 780.823385 -207.368015 
L 801.594371 -208.845024 
L 822.365358 -202.548648 
L 843.136344 -233.843278 
L 863.907331 -223.536824 
L 884.678317 -206.733081 
L 905.449304 -206.608581 
L 926.22029 -209.973165 
L 946.991277 -216.892571 
L 967.762263 -214.112428 
L 988.53325 -212.324782 
L 1009.304236 -224.339136 
L 1030.075222 -214.491973 
L 1050.846209 -227.739742 
L 1071.617195 -221.041217 
L 1092.388182 -225.161461 
L 1092.388182 -253.408965 
L 1092.388182 -253.408965 
L 1071.617195 -249.263916 
L 1050.846209 -256.105052 
L 1030.075222 -235.480996 
L 1009.304236 -258.813539 
L 988.53325 -254.727845 
L 967.762263 -252.417436 
L 946.991277 -246.109206 
L 926.22029 -269.302724 
L 905.449304 -253.135914 
L 884.678317 -249.744661 
L 863.907331 -265.159134 
L 843.136344 -270.898049 
L 822.365358 -254.417883 
L 801.594371 -247.09798 
L 780.823385 -240.630133 
L 760.052398 -237.29211 
L 739.281412 -256.895908 
L 718.510426 -249.703329 
L 697.739439 -239.824361 
L 676.968453 -240.335158 
L 656.197466 -253.091343 
L 635.42648 -267.327033 
L 614.655493 -259.301024 
L 593.884507 -261.090473 
L 573.11352 -259.953569 
L 552.342534 -263.087219 
L 531.571547 -259.3618 
L 510.800561 -277.271747 
L 490.029574 -245.189027 
L 469.258588 -265.505025 
L 448.487602 -257.995631 
L 427.716615 -234.3093 
L 406.945629 -269.691045 
L 386.174642 -255.53753 
L 365.403656 -247.962054 
L 344.632669 -257.568786 
L 323.861683 -238.557719 
L 303.090696 -259.316982 
L 282.31971 -256.77823 
L 261.548723 -251.533649 
L 240.777737 -274.060497 
L 220.00675 -270.026187 
L 199.235764 -245.567613 
L 178.464778 -228.907009 
L 157.693791 -242.56421 
L 136.922805 -236.044716 
L 116.151818 -253.507997 
z
" style="stroke: #35ae95; stroke-opacity: 0.2"/>
    </defs>
    <g clip-path="url(#p109fb70379)">
     <use xlink:href="#mc434eb38db" x="0" y="576" style="fill: #35ae95; fill-opacity: 0.2; stroke: #35ae95; stroke-opacity: 0.2"/>
    </g>
   </g>
   <g id="PolyCollection_7">
    <defs>
     <path id="m50069da53e" d="M 116.151818 -331.713565 
L 116.151818 -304.287146 
L 136.922805 -296.779397 
L 157.693791 -299.882213 
L 178.464778 -296.046068 
L 199.235764 -307.095484 
L 220.00675 -298.276532 
L 240.777737 -296.761432 
L 261.548723 -291.014189 
L 282.31971 -300.469538 
L 303.090696 -291.960319 
L 323.861683 -299.739156 
L 344.632669 -292.610736 
L 365.403656 -309.422934 
L 386.174642 -303.150653 
L 406.945629 -290.734939 
L 427.716615 -303.298847 
L 448.487602 -293.651585 
L 469.258588 -306.9473 
L 490.029574 -295.362444 
L 510.800561 -297.311392 
L 531.571547 -303.618713 
L 552.342534 -293.196598 
L 573.11352 -303.307078 
L 593.884507 -307.269369 
L 614.655493 -306.428608 
L 635.42648 -313.899532 
L 656.197466 -310.353652 
L 676.968453 -301.015457 
L 697.739439 -294.867466 
L 718.510426 -299.707907 
L 739.281412 -302.305978 
L 760.052398 -284.349278 
L 780.823385 -298.870048 
L 801.594371 -309.913367 
L 822.365358 -300.332996 
L 843.136344 -298.695751 
L 863.907331 -303.37957 
L 884.678317 -301.795341 
L 905.449304 -298.240271 
L 926.22029 -302.976038 
L 946.991277 -306.035531 
L 967.762263 -300.631022 
L 988.53325 -302.020663 
L 1009.304236 -310.693722 
L 1030.075222 -289.74565 
L 1050.846209 -314.311633 
L 1071.617195 -305.852002 
L 1092.388182 -306.097981 
L 1092.388182 -343.443508 
L 1092.388182 -343.443508 
L 1071.617195 -316.19071 
L 1050.846209 -326.543332 
L 1030.075222 -317.143355 
L 1009.304236 -332.960784 
L 988.53325 -319.845089 
L 967.762263 -330.598877 
L 946.991277 -321.114464 
L 926.22029 -326.030422 
L 905.449304 -337.278906 
L 884.678317 -324.091504 
L 863.907331 -322.966217 
L 843.136344 -322.485624 
L 822.365358 -330.632387 
L 801.594371 -328.754337 
L 780.823385 -332.749085 
L 760.052398 -327.139321 
L 739.281412 -319.363428 
L 718.510426 -327.5118 
L 697.739439 -319.793739 
L 676.968453 -321.101408 
L 656.197466 -325.244025 
L 635.42648 -342.140256 
L 614.655493 -332.613639 
L 593.884507 -335.420359 
L 573.11352 -327.278836 
L 552.342534 -312.887962 
L 531.571547 -336.852761 
L 510.800561 -322.168317 
L 490.029574 -315.880734 
L 469.258588 -320.760501 
L 448.487602 -309.403665 
L 427.716615 -320.322403 
L 406.945629 -326.342138 
L 386.174642 -334.055354 
L 365.403656 -320.526229 
L 344.632669 -320.075465 
L 323.861683 -325.209185 
L 303.090696 -313.650591 
L 282.31971 -323.674588 
L 261.548723 -312.911237 
L 240.777737 -324.17516 
L 220.00675 -341.745372 
L 199.235764 -314.553319 
L 178.464778 -313.750847 
L 157.693791 -312.987169 
L 136.922805 -323.384987 
L 116.151818 -331.713565 
z
" style="stroke: #37abb2; stroke-opacity: 0.2"/>
    </defs>
    <g clip-path="url(#p109fb70379)">
     <use xlink:href="#m50069da53e" x="0" y="576" style="fill: #37abb2; fill-opacity: 0.2; stroke: #37abb2; stroke-opacity: 0.2"/>
    </g>
   </g>
   <g id="PolyCollection_8">
    <defs>
     <path id="ma4592c44b0" d="M 116.151818 -305.355592 
L 116.151818 -298.439708 
L 136.922805 -288.291181 
L 157.693791 -294.442923 
L 178.464778 -294.101246 
L 199.235764 -297.537295 
L 220.00675 -294.77247 
L 240.777737 -297.700252 
L 261.548723 -298.355947 
L 282.31971 -298.308242 
L 303.090696 -290.256535 
L 323.861683 -299.665235 
L 344.632669 -303.943518 
L 365.403656 -300.161983 
L 386.174642 -300.366119 
L 406.945629 -301.713038 
L 427.716615 -306.074259 
L 448.487602 -304.466206 
L 469.258588 -302.055944 
L 490.029574 -299.093696 
L 510.800561 -298.376619 
L 531.571547 -305.819298 
L 552.342534 -296.735743 
L 573.11352 -300.442242 
L 593.884507 -297.87249 
L 614.655493 -299.88124 
L 635.42648 -305.725511 
L 656.197466 -303.844964 
L 676.968453 -296.763024 
L 697.739439 -307.338031 
L 718.510426 -297.678081 
L 739.281412 -307.838208 
L 760.052398 -292.679832 
L 780.823385 -303.373762 
L 801.594371 -307.892427 
L 822.365358 -303.635475 
L 843.136344 -308.630435 
L 863.907331 -301.929485 
L 884.678317 -310.663922 
L 905.449304 -302.335414 
L 926.22029 -303.543443 
L 946.991277 -308.619259 
L 967.762263 -294.237698 
L 988.53325 -309.247771 
L 1009.304236 -302.275943 
L 1030.075222 -302.241096 
L 1050.846209 -310.081668 
L 1071.617195 -297.736035 
L 1092.388182 -295.05521 
L 1092.388182 -325.487642 
L 1092.388182 -325.487642 
L 1071.617195 -319.721065 
L 1050.846209 -331.367347 
L 1030.075222 -317.211209 
L 1009.304236 -325.42523 
L 988.53325 -338.959215 
L 967.762263 -313.310039 
L 946.991277 -325.467217 
L 926.22029 -327.088693 
L 905.449304 -331.506594 
L 884.678317 -330.13671 
L 863.907331 -324.033194 
L 843.136344 -334.659108 
L 822.365358 -324.11781 
L 801.594371 -327.771253 
L 780.823385 -319.078103 
L 760.052398 -328.871456 
L 739.281412 -325.464343 
L 718.510426 -322.266248 
L 697.739439 -320.82221 
L 676.968453 -321.664236 
L 656.197466 -323.702329 
L 635.42648 -324.532055 
L 614.655493 -317.433557 
L 593.884507 -318.426012 
L 573.11352 -327.361711 
L 552.342534 -323.848496 
L 531.571547 -330.665223 
L 510.800561 -329.857546 
L 490.029574 -311.739261 
L 469.258588 -318.25473 
L 448.487602 -321.580369 
L 427.716615 -320.923884 
L 406.945629 -319.220635 
L 386.174642 -330.260395 
L 365.403656 -318.665538 
L 344.632669 -317.282562 
L 323.861683 -309.880224 
L 303.090696 -308.87779 
L 282.31971 -310.94972 
L 261.548723 -310.382057 
L 240.777737 -311.991159 
L 220.00675 -319.865526 
L 199.235764 -307.41898 
L 178.464778 -309.24239 
L 157.693791 -306.624393 
L 136.922805 -307.22321 
L 116.151818 -305.355592 
z
" style="stroke: #39a7d6; stroke-opacity: 0.2"/>
    </defs>
    <g clip-path="url(#p109fb70379)">
     <use xlink:href="#ma4592c44b0" x="0" y="576" style="fill: #39a7d6; fill-opacity: 0.2; stroke: #39a7d6; stroke-opacity: 0.2"/>
    </g>
   </g>
   <g id="PolyCollection_9">
    <defs>
     <path id="m82f3b11053" d="M 116.151818 -305.103236 
L 116.151818 -298.306523 
L 136.922805 -289.167861 
L 157.693791 -294.667217 
L 178.464778 -294.514105 
L 199.235764 -298.013952 
L 220.00675 -294.93877 
L 240.777737 -297.123812 
L 261.548723 -298.568279 
L 282.31971 -298.890176 
L 303.090696 -290.88858 
L 323.861683 -299.445478 
L 344.632669 -303.847141 
L 365.403656 -300.229567 
L 386.174642 -299.671783 
L 406.945629 -300.446427 
L 427.716615 -306.27518 
L 448.487602 -304.974388 
L 469.258588 -301.970512 
L 490.029574 -299.633537 
L 510.800561 -298.733974 
L 531.571547 -305.103694 
L 552.342534 -297.454319 
L 573.11352 -299.750508 
L 593.884507 -297.779147 
L 614.655493 -300.132115 
L 635.42648 -305.667391 
L 656.197466 -303.725239 
L 676.968453 -296.856864 
L 697.739439 -307.324357 
L 718.510426 -297.815226 
L 739.281412 -307.972851 
L 760.052398 -292.624437 
L 780.823385 -302.794237 
L 801.594371 -308.163792 
L 822.365358 -304.19056 
L 843.136344 -307.971849 
L 863.907331 -301.955493 
L 884.678317 -310.525141 
L 905.449304 -301.604812 
L 926.22029 -303.562529 
L 946.991277 -308.688222 
L 967.762263 -294.22906 
L 988.53325 -309.124489 
L 1009.304236 -301.907944 
L 1030.075222 -302.492341 
L 1050.846209 -309.307192 
L 1071.617195 -298.399413 
L 1092.388182 -294.920952 
L 1092.388182 -325.191201 
L 1092.388182 -325.191201 
L 1071.617195 -320.718247 
L 1050.846209 -332.614365 
L 1030.075222 -317.402652 
L 1009.304236 -326.254728 
L 988.53325 -339.20839 
L 967.762263 -312.976902 
L 946.991277 -325.882832 
L 926.22029 -328.348646 
L 905.449304 -332.315153 
L 884.678317 -329.665712 
L 863.907331 -323.485592 
L 843.136344 -334.961581 
L 822.365358 -324.648807 
L 801.594371 -328.258547 
L 780.823385 -318.410772 
L 760.052398 -326.67863 
L 739.281412 -326.104138 
L 718.510426 -321.904244 
L 697.739439 -320.631912 
L 676.968453 -320.931614 
L 656.197466 -323.564784 
L 635.42648 -323.776571 
L 614.655493 -318.429496 
L 593.884507 -317.354388 
L 573.11352 -327.28916 
L 552.342534 -324.262486 
L 531.571547 -329.51417 
L 510.800561 -328.794646 
L 490.029574 -311.146663 
L 469.258588 -317.632487 
L 448.487602 -321.948499 
L 427.716615 -320.969938 
L 406.945629 -319.272495 
L 386.174642 -330.269862 
L 365.403656 -318.681225 
L 344.632669 -317.702139 
L 323.861683 -309.958538 
L 303.090696 -308.016595 
L 282.31971 -311.918119 
L 261.548723 -310.251419 
L 240.777737 -312.254537 
L 220.00675 -319.688294 
L 199.235764 -307.592982 
L 178.464778 -309.341127 
L 157.693791 -307.152104 
L 136.922805 -307.49153 
L 116.151818 -305.103236 
z
" style="stroke: #8f93f4; stroke-opacity: 0.2"/>
    </defs>
    <g clip-path="url(#p109fb70379)">
     <use xlink:href="#m82f3b11053" x="0" y="576" style="fill: #8f93f4; fill-opacity: 0.2; stroke: #8f93f4; stroke-opacity: 0.2"/>
    </g>
   </g>
   <g id="PolyCollection_10">
    <defs>
     <path id="mc17f6f13a4" d="M 116.151818 -481.838692 
L 116.151818 -368.623888 
L 136.922805 -322.771606 
L 157.693791 -374.964439 
L 178.464778 -428.392314 
L 199.235764 -397.053749 
L 220.00675 -382.269827 
L 240.777737 -420.851991 
L 261.548723 -395.167418 
L 282.31971 -363.830279 
L 303.090696 -362.386746 
L 323.861683 -367.282616 
L 344.632669 -401.965244 
L 365.403656 -429.009456 
L 386.174642 -412.367468 
L 406.945629 -439.962607 
L 427.716615 -405.643041 
L 448.487602 -327.441111 
L 469.258588 -411.80446 
L 490.029574 -378.427438 
L 510.800561 -390.638143 
L 531.571547 -404.395028 
L 552.342534 -355.719539 
L 573.11352 -328.096452 
L 593.884507 -379.171548 
L 614.655493 -414.942441 
L 635.42648 -394.223292 
L 656.197466 -399.349647 
L 676.968453 -377.38597 
L 697.739439 -372.360831 
L 718.510426 -345.612259 
L 739.281412 -399.548642 
L 760.052398 -356.993967 
L 780.823385 -417.559837 
L 801.594371 -399.828791 
L 822.365358 -379.138379 
L 843.136344 -381.119194 
L 863.907331 -393.03804 
L 884.678317 -392.612813 
L 905.449304 -369.977193 
L 926.22029 -378.923375 
L 946.991277 -393.015869 
L 967.762263 -344.978762 
L 988.53325 -375.55767 
L 1009.304236 -357.430783 
L 1030.075222 -384.359045 
L 1050.846209 -354.969806 
L 1071.617195 -321.687139 
L 1092.388182 -409.518855 
L 1092.388182 -518.480786 
L 1092.388182 -518.480786 
L 1071.617195 -464.102706 
L 1050.846209 -448.47063 
L 1030.075222 -429.04696 
L 1009.304236 -430.483892 
L 988.53325 -481.79279 
L 967.762263 -466.610933 
L 946.991277 -472.126328 
L 926.22029 -472.969399 
L 905.449304 -423.101697 
L 884.678317 -500.465761 
L 863.907331 -464.039921 
L 843.136344 -440.791106 
L 822.365358 -441.758777 
L 801.594371 -469.183135 
L 780.823385 -468.018754 
L 760.052398 -413.312895 
L 739.281412 -453.938884 
L 718.510426 -418.101394 
L 697.739439 -444.670138 
L 676.968453 -439.935072 
L 656.197466 -419.300286 
L 635.42648 -440.862969 
L 614.655493 -483.773687 
L 593.884507 -422.476875 
L 573.11352 -418.256943 
L 552.342534 -461.315361 
L 531.571547 -507.078857 
L 510.800561 -477.14237 
L 490.029574 -459.44799 
L 469.258588 -468.45757 
L 448.487602 -426.776809 
L 427.716615 -457.934483 
L 406.945629 -475.110787 
L 386.174642 -477.311428 
L 365.403656 -493.727733 
L 344.632669 -465.303649 
L 323.861683 -431.869757 
L 303.090696 -431.63521 
L 282.31971 -466.58948 
L 261.548723 -431.915043 
L 240.777737 -436.124054 
L 220.00675 -447.599464 
L 199.235764 -455.938591 
L 178.464778 -479.289679 
L 157.693791 -447.48634 
L 136.922805 -413.591435 
L 116.151818 -481.838692 
z
" style="stroke: #db70f4; stroke-opacity: 0.2"/>
    </defs>
    <g clip-path="url(#p109fb70379)">
     <use xlink:href="#mc17f6f13a4" x="0" y="576" style="fill: #db70f4; fill-opacity: 0.2; stroke: #db70f4; stroke-opacity: 0.2"/>
    </g>
   </g>
   <g id="PolyCollection_11">
    <defs>
     <path id="mf615994307" d="M 116.151818 -471.423347 
L 116.151818 -438.131202 
L 136.922805 -412.170494 
L 157.693791 -428.770651 
L 178.464778 -416.269586 
L 199.235764 -427.984645 
L 220.00675 -431.968219 
L 240.777737 -438.635398 
L 261.548723 -419.537174 
L 282.31971 -434.332556 
L 303.090696 -444.690694 
L 323.861683 -439.507883 
L 344.632669 -439.714309 
L 365.403656 -461.171858 
L 386.174642 -453.003958 
L 406.945629 -439.837191 
L 427.716615 -438.833787 
L 448.487602 -448.107208 
L 469.258588 -457.366044 
L 490.029574 -437.232507 
L 510.800561 -457.475691 
L 531.571547 -452.706275 
L 552.342534 -453.869817 
L 573.11352 -456.121161 
L 593.884507 -434.735678 
L 614.655493 -455.792668 
L 635.42648 -456.775738 
L 656.197466 -448.364096 
L 676.968453 -422.190103 
L 697.739439 -434.785952 
L 718.510426 -454.000452 
L 739.281412 -441.760711 
L 760.052398 -430.635146 
L 780.823385 -442.787233 
L 801.594371 -447.802634 
L 822.365358 -437.465723 
L 843.136344 -458.387336 
L 863.907331 -432.692794 
L 884.678317 -425.915802 
L 905.449304 -437.180875 
L 926.22029 -441.882005 
L 946.991277 -442.743035 
L 967.762263 -434.511111 
L 988.53325 -440.822915 
L 1009.304236 -443.844108 
L 1030.075222 -440.205615 
L 1050.846209 -448.089914 
L 1071.617195 -459.208501 
L 1092.388182 -458.76855 
L 1092.388182 -505.35864 
L 1092.388182 -505.35864 
L 1071.617195 -507.557241 
L 1050.846209 -504.119894 
L 1030.075222 -504.594847 
L 1009.304236 -502.552463 
L 988.53325 -462.753883 
L 967.762263 -474.019043 
L 946.991277 -465.607047 
L 926.22029 -488.947663 
L 905.449304 -500.134861 
L 884.678317 -459.588201 
L 863.907331 -496.753264 
L 843.136344 -513.958055 
L 822.365358 -498.344924 
L 801.594371 -481.042077 
L 780.823385 -472.705264 
L 760.052398 -466.167968 
L 739.281412 -494.566295 
L 718.510426 -510.544378 
L 697.739439 -463.160829 
L 676.968453 -464.465657 
L 656.197466 -497.096436 
L 635.42648 -508.892044 
L 614.655493 -505.677026 
L 593.884507 -461.364486 
L 573.11352 -491.84486 
L 552.342534 -484.921435 
L 531.571547 -498.331715 
L 510.800561 -543.393091 
L 490.029574 -478.584418 
L 469.258588 -504.487304 
L 448.487602 -496.898694 
L 427.716615 -446.975772 
L 406.945629 -495.48022 
L 386.174642 -505.87694 
L 365.403656 -486.276328 
L 344.632669 -474.27995 
L 323.861683 -455.31098 
L 303.090696 -479.562991 
L 282.31971 -475.454271 
L 261.548723 -460.424403 
L 240.777737 -497.91569 
L 220.00675 -488.42107 
L 199.235764 -457.458763 
L 178.464778 -456.119285 
L 157.693791 -484.944113 
L 136.922805 -459.840897 
L 116.151818 -471.423347 
z
" style="stroke: #f667c6; stroke-opacity: 0.2"/>
    </defs>
    <g clip-path="url(#p109fb70379)">
     <use xlink:href="#mf615994307" x="0" y="576" style="fill: #f667c6; fill-opacity: 0.2; stroke: #f667c6; stroke-opacity: 0.2"/>
    </g>
   </g>
   <g id="matplotlib.axis_1">
    <g id="xtick_1">
     <g id="line2d_1">
      <defs>
       <path id="mc3521cd4d8" d="M 0 0 
L 0 3.5 
" style="stroke: #000000; stroke-width: 0.8"/>
      </defs>
      <g>
       <use xlink:href="#mc3521cd4d8" x="105.766325" y="490.552" style="stroke: #000000; stroke-width: 0.8"/>
      </g>
     </g>
     <g id="text_1">
      <!-- 0 -->
      <g transform="translate(99.403825 512.748875) scale(0.2 -0.2)">
       <defs>
        <path id="DejaVuSans-30" d="M 2034 4250 
Q 1547 4250 1301 3770 
Q 1056 3291 1056 2328 
Q 1056 1369 1301 889 
Q 1547 409 2034 409 
Q 2525 409 2770 889 
Q 3016 1369 3016 2328 
Q 3016 3291 2770 3770 
Q 2525 4250 2034 4250 
z
M 2034 4750 
Q 2819 4750 3233 4129 
Q 3647 3509 3647 2328 
Q 3647 1150 3233 529 
Q 2819 -91 2034 -91 
Q 1250 -91 836 529 
Q 422 1150 422 2328 
Q 422 3509 836 4129 
Q 1250 4750 2034 4750 
z
" transform="scale(0.015625)"/>
       </defs>
       <use xlink:href="#DejaVuSans-30"/>
      </g>
     </g>
    </g>
    <g id="xtick_2">
     <g id="line2d_2">
      <g>
       <use xlink:href="#mc3521cd4d8" x="313.47619" y="490.552" style="stroke: #000000; stroke-width: 0.8"/>
      </g>
     </g>
     <g id="text_2">
      <!-- 20 -->
      <g transform="translate(300.75119 512.748875) scale(0.2 -0.2)">
       <defs>
        <path id="DejaVuSans-32" d="M 1228 531 
L 3431 531 
L 3431 0 
L 469 0 
L 469 531 
Q 828 903 1448 1529 
Q 2069 2156 2228 2338 
Q 2531 2678 2651 2914 
Q 2772 3150 2772 3378 
Q 2772 3750 2511 3984 
Q 2250 4219 1831 4219 
Q 1534 4219 1204 4116 
Q 875 4013 500 3803 
L 500 4441 
Q 881 4594 1212 4672 
Q 1544 4750 1819 4750 
Q 2544 4750 2975 4387 
Q 3406 4025 3406 3419 
Q 3406 3131 3298 2873 
Q 3191 2616 2906 2266 
Q 2828 2175 2409 1742 
Q 1991 1309 1228 531 
z
" transform="scale(0.015625)"/>
       </defs>
       <use xlink:href="#DejaVuSans-32"/>
       <use xlink:href="#DejaVuSans-30" x="63.623047"/>
      </g>
     </g>
    </g>
    <g id="xtick_3">
     <g id="line2d_3">
      <g>
       <use xlink:href="#mc3521cd4d8" x="521.186054" y="490.552" style="stroke: #000000; stroke-width: 0.8"/>
      </g>
     </g>
     <g id="text_3">
      <!-- 40 -->
      <g transform="translate(508.461054 512.748875) scale(0.2 -0.2)">
       <defs>
        <path id="DejaVuSans-34" d="M 2419 4116 
L 825 1625 
L 2419 1625 
L 2419 4116 
z
M 2253 4666 
L 3047 4666 
L 3047 1625 
L 3713 1625 
L 3713 1100 
L 3047 1100 
L 3047 0 
L 2419 0 
L 2419 1100 
L 313 1100 
L 313 1709 
L 2253 4666 
z
" transform="scale(0.015625)"/>
       </defs>
       <use xlink:href="#DejaVuSans-34"/>
       <use xlink:href="#DejaVuSans-30" x="63.623047"/>
      </g>
     </g>
    </g>
    <g id="xtick_4">
     <g id="line2d_4">
      <g>
       <use xlink:href="#mc3521cd4d8" x="728.895919" y="490.552" style="stroke: #000000; stroke-width: 0.8"/>
      </g>
     </g>
     <g id="text_4">
      <!-- 60 -->
      <g transform="translate(716.170919 512.748875) scale(0.2 -0.2)">
       <defs>
        <path id="DejaVuSans-36" d="M 2113 2584 
Q 1688 2584 1439 2293 
Q 1191 2003 1191 1497 
Q 1191 994 1439 701 
Q 1688 409 2113 409 
Q 2538 409 2786 701 
Q 3034 994 3034 1497 
Q 3034 2003 2786 2293 
Q 2538 2584 2113 2584 
z
M 3366 4563 
L 3366 3988 
Q 3128 4100 2886 4159 
Q 2644 4219 2406 4219 
Q 1781 4219 1451 3797 
Q 1122 3375 1075 2522 
Q 1259 2794 1537 2939 
Q 1816 3084 2150 3084 
Q 2853 3084 3261 2657 
Q 3669 2231 3669 1497 
Q 3669 778 3244 343 
Q 2819 -91 2113 -91 
Q 1303 -91 875 529 
Q 447 1150 447 2328 
Q 447 3434 972 4092 
Q 1497 4750 2381 4750 
Q 2619 4750 2861 4703 
Q 3103 4656 3366 4563 
z
" transform="scale(0.015625)"/>
       </defs>
       <use xlink:href="#DejaVuSans-36"/>
       <use xlink:href="#DejaVuSans-30" x="63.623047"/>
      </g>
     </g>
    </g>
    <g id="xtick_5">
     <g id="line2d_5">
      <g>
       <use xlink:href="#mc3521cd4d8" x="936.605783" y="490.552" style="stroke: #000000; stroke-width: 0.8"/>
      </g>
     </g>
     <g id="text_5">
      <!-- 80 -->
      <g transform="translate(923.880783 512.748875) scale(0.2 -0.2)">
       <defs>
        <path id="DejaVuSans-38" d="M 2034 2216 
Q 1584 2216 1326 1975 
Q 1069 1734 1069 1313 
Q 1069 891 1326 650 
Q 1584 409 2034 409 
Q 2484 409 2743 651 
Q 3003 894 3003 1313 
Q 3003 1734 2745 1975 
Q 2488 2216 2034 2216 
z
M 1403 2484 
Q 997 2584 770 2862 
Q 544 3141 544 3541 
Q 544 4100 942 4425 
Q 1341 4750 2034 4750 
Q 2731 4750 3128 4425 
Q 3525 4100 3525 3541 
Q 3525 3141 3298 2862 
Q 3072 2584 2669 2484 
Q 3125 2378 3379 2068 
Q 3634 1759 3634 1313 
Q 3634 634 3220 271 
Q 2806 -91 2034 -91 
Q 1263 -91 848 271 
Q 434 634 434 1313 
Q 434 1759 690 2068 
Q 947 2378 1403 2484 
z
M 1172 3481 
Q 1172 3119 1398 2916 
Q 1625 2713 2034 2713 
Q 2441 2713 2670 2916 
Q 2900 3119 2900 3481 
Q 2900 3844 2670 4047 
Q 2441 4250 2034 4250 
Q 1625 4250 1398 4047 
Q 1172 3844 1172 3481 
z
" transform="scale(0.015625)"/>
       </defs>
       <use xlink:href="#DejaVuSans-38"/>
       <use xlink:href="#DejaVuSans-30" x="63.623047"/>
      </g>
     </g>
    </g>
    <g id="text_6">
     <!-- Percentile Threshold -->
     <g transform="translate(502.490313 536.105125) scale(0.2 -0.2)">
      <defs>
       <path id="DejaVuSans-50" d="M 1259 4147 
L 1259 2394 
L 2053 2394 
Q 2494 2394 2734 2622 
Q 2975 2850 2975 3272 
Q 2975 3691 2734 3919 
Q 2494 4147 2053 4147 
L 1259 4147 
z
M 628 4666 
L 2053 4666 
Q 2838 4666 3239 4311 
Q 3641 3956 3641 3272 
Q 3641 2581 3239 2228 
Q 2838 1875 2053 1875 
L 1259 1875 
L 1259 0 
L 628 0 
L 628 4666 
z
" transform="scale(0.015625)"/>
       <path id="DejaVuSans-65" d="M 3597 1894 
L 3597 1613 
L 953 1613 
Q 991 1019 1311 708 
Q 1631 397 2203 397 
Q 2534 397 2845 478 
Q 3156 559 3463 722 
L 3463 178 
Q 3153 47 2828 -22 
Q 2503 -91 2169 -91 
Q 1331 -91 842 396 
Q 353 884 353 1716 
Q 353 2575 817 3079 
Q 1281 3584 2069 3584 
Q 2775 3584 3186 3129 
Q 3597 2675 3597 1894 
z
M 3022 2063 
Q 3016 2534 2758 2815 
Q 2500 3097 2075 3097 
Q 1594 3097 1305 2825 
Q 1016 2553 972 2059 
L 3022 2063 
z
" transform="scale(0.015625)"/>
       <path id="DejaVuSans-72" d="M 2631 2963 
Q 2534 3019 2420 3045 
Q 2306 3072 2169 3072 
Q 1681 3072 1420 2755 
Q 1159 2438 1159 1844 
L 1159 0 
L 581 0 
L 581 3500 
L 1159 3500 
L 1159 2956 
Q 1341 3275 1631 3429 
Q 1922 3584 2338 3584 
Q 2397 3584 2469 3576 
Q 2541 3569 2628 3553 
L 2631 2963 
z
" transform="scale(0.015625)"/>
       <path id="DejaVuSans-63" d="M 3122 3366 
L 3122 2828 
Q 2878 2963 2633 3030 
Q 2388 3097 2138 3097 
Q 1578 3097 1268 2742 
Q 959 2388 959 1747 
Q 959 1106 1268 751 
Q 1578 397 2138 397 
Q 2388 397 2633 464 
Q 2878 531 3122 666 
L 3122 134 
Q 2881 22 2623 -34 
Q 2366 -91 2075 -91 
Q 1284 -91 818 406 
Q 353 903 353 1747 
Q 353 2603 823 3093 
Q 1294 3584 2113 3584 
Q 2378 3584 2631 3529 
Q 2884 3475 3122 3366 
z
" transform="scale(0.015625)"/>
       <path id="DejaVuSans-6e" d="M 3513 2113 
L 3513 0 
L 2938 0 
L 2938 2094 
Q 2938 2591 2744 2837 
Q 2550 3084 2163 3084 
Q 1697 3084 1428 2787 
Q 1159 2491 1159 1978 
L 1159 0 
L 581 0 
L 581 3500 
L 1159 3500 
L 1159 2956 
Q 1366 3272 1645 3428 
Q 1925 3584 2291 3584 
Q 2894 3584 3203 3211 
Q 3513 2838 3513 2113 
z
" transform="scale(0.015625)"/>
       <path id="DejaVuSans-74" d="M 1172 4494 
L 1172 3500 
L 2356 3500 
L 2356 3053 
L 1172 3053 
L 1172 1153 
Q 1172 725 1289 603 
Q 1406 481 1766 481 
L 2356 481 
L 2356 0 
L 1766 0 
Q 1100 0 847 248 
Q 594 497 594 1153 
L 594 3053 
L 172 3053 
L 172 3500 
L 594 3500 
L 594 4494 
L 1172 4494 
z
" transform="scale(0.015625)"/>
       <path id="DejaVuSans-69" d="M 603 3500 
L 1178 3500 
L 1178 0 
L 603 0 
L 603 3500 
z
M 603 4863 
L 1178 4863 
L 1178 4134 
L 603 4134 
L 603 4863 
z
" transform="scale(0.015625)"/>
       <path id="DejaVuSans-6c" d="M 603 4863 
L 1178 4863 
L 1178 0 
L 603 0 
L 603 4863 
z
" transform="scale(0.015625)"/>
       <path id="DejaVuSans-20" transform="scale(0.015625)"/>
       <path id="DejaVuSans-54" d="M -19 4666 
L 3928 4666 
L 3928 4134 
L 2272 4134 
L 2272 0 
L 1638 0 
L 1638 4134 
L -19 4134 
L -19 4666 
z
" transform="scale(0.015625)"/>
       <path id="DejaVuSans-68" d="M 3513 2113 
L 3513 0 
L 2938 0 
L 2938 2094 
Q 2938 2591 2744 2837 
Q 2550 3084 2163 3084 
Q 1697 3084 1428 2787 
Q 1159 2491 1159 1978 
L 1159 0 
L 581 0 
L 581 4863 
L 1159 4863 
L 1159 2956 
Q 1366 3272 1645 3428 
Q 1925 3584 2291 3584 
Q 2894 3584 3203 3211 
Q 3513 2838 3513 2113 
z
" transform="scale(0.015625)"/>
       <path id="DejaVuSans-73" d="M 2834 3397 
L 2834 2853 
Q 2591 2978 2328 3040 
Q 2066 3103 1784 3103 
Q 1356 3103 1142 2972 
Q 928 2841 928 2578 
Q 928 2378 1081 2264 
Q 1234 2150 1697 2047 
L 1894 2003 
Q 2506 1872 2764 1633 
Q 3022 1394 3022 966 
Q 3022 478 2636 193 
Q 2250 -91 1575 -91 
Q 1294 -91 989 -36 
Q 684 19 347 128 
L 347 722 
Q 666 556 975 473 
Q 1284 391 1588 391 
Q 1994 391 2212 530 
Q 2431 669 2431 922 
Q 2431 1156 2273 1281 
Q 2116 1406 1581 1522 
L 1381 1569 
Q 847 1681 609 1914 
Q 372 2147 372 2553 
Q 372 3047 722 3315 
Q 1072 3584 1716 3584 
Q 2034 3584 2315 3537 
Q 2597 3491 2834 3397 
z
" transform="scale(0.015625)"/>
       <path id="DejaVuSans-6f" d="M 1959 3097 
Q 1497 3097 1228 2736 
Q 959 2375 959 1747 
Q 959 1119 1226 758 
Q 1494 397 1959 397 
Q 2419 397 2687 759 
Q 2956 1122 2956 1747 
Q 2956 2369 2687 2733 
Q 2419 3097 1959 3097 
z
M 1959 3584 
Q 2709 3584 3137 3096 
Q 3566 2609 3566 1747 
Q 3566 888 3137 398 
Q 2709 -91 1959 -91 
Q 1206 -91 779 398 
Q 353 888 353 1747 
Q 353 2609 779 3096 
Q 1206 3584 1959 3584 
z
" transform="scale(0.015625)"/>
       <path id="DejaVuSans-64" d="M 2906 2969 
L 2906 4863 
L 3481 4863 
L 3481 0 
L 2906 0 
L 2906 525 
Q 2725 213 2448 61 
Q 2172 -91 1784 -91 
Q 1150 -91 751 415 
Q 353 922 353 1747 
Q 353 2572 751 3078 
Q 1150 3584 1784 3584 
Q 2172 3584 2448 3432 
Q 2725 3281 2906 2969 
z
M 947 1747 
Q 947 1113 1208 752 
Q 1469 391 1925 391 
Q 2381 391 2643 752 
Q 2906 1113 2906 1747 
Q 2906 2381 2643 2742 
Q 2381 3103 1925 3103 
Q 1469 3103 1208 2742 
Q 947 2381 947 1747 
z
" transform="scale(0.015625)"/>
      </defs>
      <use xlink:href="#DejaVuSans-50"/>
      <use xlink:href="#DejaVuSans-65" x="56.677734"/>
      <use xlink:href="#DejaVuSans-72" x="118.201172"/>
      <use xlink:href="#DejaVuSans-63" x="157.064453"/>
      <use xlink:href="#DejaVuSans-65" x="212.044922"/>
      <use xlink:href="#DejaVuSans-6e" x="273.568359"/>
      <use xlink:href="#DejaVuSans-74" x="336.947266"/>
      <use xlink:href="#DejaVuSans-69" x="376.15625"/>
      <use xlink:href="#DejaVuSans-6c" x="403.939453"/>
      <use xlink:href="#DejaVuSans-65" x="431.722656"/>
      <use xlink:href="#DejaVuSans-20" x="493.246094"/>
      <use xlink:href="#DejaVuSans-54" x="525.033203"/>
      <use xlink:href="#DejaVuSans-68" x="586.117188"/>
      <use xlink:href="#DejaVuSans-72" x="649.496094"/>
      <use xlink:href="#DejaVuSans-65" x="688.359375"/>
      <use xlink:href="#DejaVuSans-73" x="749.882812"/>
      <use xlink:href="#DejaVuSans-68" x="801.982422"/>
      <use xlink:href="#DejaVuSans-6f" x="865.361328"/>
      <use xlink:href="#DejaVuSans-6c" x="926.542969"/>
      <use xlink:href="#DejaVuSans-64" x="954.326172"/>
     </g>
     <!-- (Using "random" Threshold Handling) -->
     <g transform="translate(417.102813 558.50075) scale(0.2 -0.2)">
      <defs>
       <path id="DejaVuSans-28" d="M 1984 4856 
Q 1566 4138 1362 3434 
Q 1159 2731 1159 2009 
Q 1159 1288 1364 580 
Q 1569 -128 1984 -844 
L 1484 -844 
Q 1016 -109 783 600 
Q 550 1309 550 2009 
Q 550 2706 781 3412 
Q 1013 4119 1484 4856 
L 1984 4856 
z
" transform="scale(0.015625)"/>
       <path id="DejaVuSans-55" d="M 556 4666 
L 1191 4666 
L 1191 1831 
Q 1191 1081 1462 751 
Q 1734 422 2344 422 
Q 2950 422 3222 751 
Q 3494 1081 3494 1831 
L 3494 4666 
L 4128 4666 
L 4128 1753 
Q 4128 841 3676 375 
Q 3225 -91 2344 -91 
Q 1459 -91 1007 375 
Q 556 841 556 1753 
L 556 4666 
z
" transform="scale(0.015625)"/>
       <path id="DejaVuSans-67" d="M 2906 1791 
Q 2906 2416 2648 2759 
Q 2391 3103 1925 3103 
Q 1463 3103 1205 2759 
Q 947 2416 947 1791 
Q 947 1169 1205 825 
Q 1463 481 1925 481 
Q 2391 481 2648 825 
Q 2906 1169 2906 1791 
z
M 3481 434 
Q 3481 -459 3084 -895 
Q 2688 -1331 1869 -1331 
Q 1566 -1331 1297 -1286 
Q 1028 -1241 775 -1147 
L 775 -588 
Q 1028 -725 1275 -790 
Q 1522 -856 1778 -856 
Q 2344 -856 2625 -561 
Q 2906 -266 2906 331 
L 2906 616 
Q 2728 306 2450 153 
Q 2172 0 1784 0 
Q 1141 0 747 490 
Q 353 981 353 1791 
Q 353 2603 747 3093 
Q 1141 3584 1784 3584 
Q 2172 3584 2450 3431 
Q 2728 3278 2906 2969 
L 2906 3500 
L 3481 3500 
L 3481 434 
z
" transform="scale(0.015625)"/>
       <path id="DejaVuSans-22" d="M 1147 4666 
L 1147 2931 
L 616 2931 
L 616 4666 
L 1147 4666 
z
M 2328 4666 
L 2328 2931 
L 1797 2931 
L 1797 4666 
L 2328 4666 
z
" transform="scale(0.015625)"/>
       <path id="DejaVuSans-61" d="M 2194 1759 
Q 1497 1759 1228 1600 
Q 959 1441 959 1056 
Q 959 750 1161 570 
Q 1363 391 1709 391 
Q 2188 391 2477 730 
Q 2766 1069 2766 1631 
L 2766 1759 
L 2194 1759 
z
M 3341 1997 
L 3341 0 
L 2766 0 
L 2766 531 
Q 2569 213 2275 61 
Q 1981 -91 1556 -91 
Q 1019 -91 701 211 
Q 384 513 384 1019 
Q 384 1609 779 1909 
Q 1175 2209 1959 2209 
L 2766 2209 
L 2766 2266 
Q 2766 2663 2505 2880 
Q 2244 3097 1772 3097 
Q 1472 3097 1187 3025 
Q 903 2953 641 2809 
L 641 3341 
Q 956 3463 1253 3523 
Q 1550 3584 1831 3584 
Q 2591 3584 2966 3190 
Q 3341 2797 3341 1997 
z
" transform="scale(0.015625)"/>
       <path id="DejaVuSans-6d" d="M 3328 2828 
Q 3544 3216 3844 3400 
Q 4144 3584 4550 3584 
Q 5097 3584 5394 3201 
Q 5691 2819 5691 2113 
L 5691 0 
L 5113 0 
L 5113 2094 
Q 5113 2597 4934 2840 
Q 4756 3084 4391 3084 
Q 3944 3084 3684 2787 
Q 3425 2491 3425 1978 
L 3425 0 
L 2847 0 
L 2847 2094 
Q 2847 2600 2669 2842 
Q 2491 3084 2119 3084 
Q 1678 3084 1418 2786 
Q 1159 2488 1159 1978 
L 1159 0 
L 581 0 
L 581 3500 
L 1159 3500 
L 1159 2956 
Q 1356 3278 1631 3431 
Q 1906 3584 2284 3584 
Q 2666 3584 2933 3390 
Q 3200 3197 3328 2828 
z
" transform="scale(0.015625)"/>
       <path id="DejaVuSans-48" d="M 628 4666 
L 1259 4666 
L 1259 2753 
L 3553 2753 
L 3553 4666 
L 4184 4666 
L 4184 0 
L 3553 0 
L 3553 2222 
L 1259 2222 
L 1259 0 
L 628 0 
L 628 4666 
z
" transform="scale(0.015625)"/>
       <path id="DejaVuSans-29" d="M 513 4856 
L 1013 4856 
Q 1481 4119 1714 3412 
Q 1947 2706 1947 2009 
Q 1947 1309 1714 600 
Q 1481 -109 1013 -844 
L 513 -844 
Q 928 -128 1133 580 
Q 1338 1288 1338 2009 
Q 1338 2731 1133 3434 
Q 928 4138 513 4856 
z
" transform="scale(0.015625)"/>
      </defs>
      <use xlink:href="#DejaVuSans-28"/>
      <use xlink:href="#DejaVuSans-55" x="39.013672"/>
      <use xlink:href="#DejaVuSans-73" x="112.207031"/>
      <use xlink:href="#DejaVuSans-69" x="164.306641"/>
      <use xlink:href="#DejaVuSans-6e" x="192.089844"/>
      <use xlink:href="#DejaVuSans-67" x="255.46875"/>
      <use xlink:href="#DejaVuSans-20" x="318.945312"/>
      <use xlink:href="#DejaVuSans-22" x="350.732422"/>
      <use xlink:href="#DejaVuSans-72" x="396.728516"/>
      <use xlink:href="#DejaVuSans-61" x="437.841797"/>
      <use xlink:href="#DejaVuSans-6e" x="499.121094"/>
      <use xlink:href="#DejaVuSans-64" x="562.5"/>
      <use xlink:href="#DejaVuSans-6f" x="625.976562"/>
      <use xlink:href="#DejaVuSans-6d" x="687.158203"/>
      <use xlink:href="#DejaVuSans-22" x="784.570312"/>
      <use xlink:href="#DejaVuSans-20" x="830.566406"/>
      <use xlink:href="#DejaVuSans-54" x="862.353516"/>
      <use xlink:href="#DejaVuSans-68" x="923.4375"/>
      <use xlink:href="#DejaVuSans-72" x="986.816406"/>
      <use xlink:href="#DejaVuSans-65" x="1025.679688"/>
      <use xlink:href="#DejaVuSans-73" x="1087.203125"/>
      <use xlink:href="#DejaVuSans-68" x="1139.302734"/>
      <use xlink:href="#DejaVuSans-6f" x="1202.681641"/>
      <use xlink:href="#DejaVuSans-6c" x="1263.863281"/>
      <use xlink:href="#DejaVuSans-64" x="1291.646484"/>
      <use xlink:href="#DejaVuSans-20" x="1355.123047"/>
      <use xlink:href="#DejaVuSans-48" x="1386.910156"/>
      <use xlink:href="#DejaVuSans-61" x="1462.105469"/>
      <use xlink:href="#DejaVuSans-6e" x="1523.384766"/>
      <use xlink:href="#DejaVuSans-64" x="1586.763672"/>
      <use xlink:href="#DejaVuSans-6c" x="1650.240234"/>
      <use xlink:href="#DejaVuSans-69" x="1678.023438"/>
      <use xlink:href="#DejaVuSans-6e" x="1705.806641"/>
      <use xlink:href="#DejaVuSans-67" x="1769.185547"/>
      <use xlink:href="#DejaVuSans-29" x="1832.662109"/>
     </g>
    </g>
   </g>
   <g id="matplotlib.axis_2">
    <g id="ytick_1">
     <g id="line2d_6">
      <defs>
       <path id="m198ccfdb98" d="M 0 0 
L -3.5 0 
" style="stroke: #000000; stroke-width: 0.8"/>
      </defs>
      <g>
       <use xlink:href="#m198ccfdb98" x="67.34" y="462.198928" style="stroke: #000000; stroke-width: 0.8"/>
      </g>
     </g>
     <g id="text_7">
      <!-- 8 -->
      <g transform="translate(47.615 469.797365) scale(0.2 -0.2)">
       <use xlink:href="#DejaVuSans-38"/>
      </g>
     </g>
    </g>
    <g id="ytick_2">
     <g id="line2d_7">
      <g>
       <use xlink:href="#m198ccfdb98" x="67.34" y="408.199951" style="stroke: #000000; stroke-width: 0.8"/>
      </g>
     </g>
     <g id="text_8">
      <!-- 9 -->
      <g transform="translate(47.615 415.798388) scale(0.2 -0.2)">
       <defs>
        <path id="DejaVuSans-39" d="M 703 97 
L 703 672 
Q 941 559 1184 500 
Q 1428 441 1663 441 
Q 2288 441 2617 861 
Q 2947 1281 2994 2138 
Q 2813 1869 2534 1725 
Q 2256 1581 1919 1581 
Q 1219 1581 811 2004 
Q 403 2428 403 3163 
Q 403 3881 828 4315 
Q 1253 4750 1959 4750 
Q 2769 4750 3195 4129 
Q 3622 3509 3622 2328 
Q 3622 1225 3098 567 
Q 2575 -91 1691 -91 
Q 1453 -91 1209 -44 
Q 966 3 703 97 
z
M 1959 2075 
Q 2384 2075 2632 2365 
Q 2881 2656 2881 3163 
Q 2881 3666 2632 3958 
Q 2384 4250 1959 4250 
Q 1534 4250 1286 3958 
Q 1038 3666 1038 3163 
Q 1038 2656 1286 2365 
Q 1534 2075 1959 2075 
z
" transform="scale(0.015625)"/>
       </defs>
       <use xlink:href="#DejaVuSans-39"/>
      </g>
     </g>
    </g>
    <g id="ytick_3">
     <g id="line2d_8">
      <g>
       <use xlink:href="#m198ccfdb98" x="67.34" y="354.200974" style="stroke: #000000; stroke-width: 0.8"/>
      </g>
     </g>
     <g id="text_9">
      <!-- 10 -->
      <g transform="translate(34.89 361.799411) scale(0.2 -0.2)">
       <defs>
        <path id="DejaVuSans-31" d="M 794 531 
L 1825 531 
L 1825 4091 
L 703 3866 
L 703 4441 
L 1819 4666 
L 2450 4666 
L 2450 531 
L 3481 531 
L 3481 0 
L 794 0 
L 794 531 
z
" transform="scale(0.015625)"/>
       </defs>
       <use xlink:href="#DejaVuSans-31"/>
       <use xlink:href="#DejaVuSans-30" x="63.623047"/>
      </g>
     </g>
    </g>
    <g id="ytick_4">
     <g id="line2d_9">
      <g>
       <use xlink:href="#m198ccfdb98" x="67.34" y="300.201996" style="stroke: #000000; stroke-width: 0.8"/>
      </g>
     </g>
     <g id="text_10">
      <!-- 11 -->
      <g transform="translate(34.89 307.800434) scale(0.2 -0.2)">
       <use xlink:href="#DejaVuSans-31"/>
       <use xlink:href="#DejaVuSans-31" x="63.623047"/>
      </g>
     </g>
    </g>
    <g id="ytick_5">
     <g id="line2d_10">
      <g>
       <use xlink:href="#m198ccfdb98" x="67.34" y="246.203019" style="stroke: #000000; stroke-width: 0.8"/>
      </g>
     </g>
     <g id="text_11">
      <!-- 12 -->
      <g transform="translate(34.89 253.801457) scale(0.2 -0.2)">
       <use xlink:href="#DejaVuSans-31"/>
       <use xlink:href="#DejaVuSans-32" x="63.623047"/>
      </g>
     </g>
    </g>
    <g id="ytick_6">
     <g id="line2d_11">
      <g>
       <use xlink:href="#m198ccfdb98" x="67.34" y="192.204042" style="stroke: #000000; stroke-width: 0.8"/>
      </g>
     </g>
     <g id="text_12">
      <!-- 13 -->
      <g transform="translate(34.89 199.80248) scale(0.2 -0.2)">
       <defs>
        <path id="DejaVuSans-33" d="M 2597 2516 
Q 3050 2419 3304 2112 
Q 3559 1806 3559 1356 
Q 3559 666 3084 287 
Q 2609 -91 1734 -91 
Q 1441 -91 1130 -33 
Q 819 25 488 141 
L 488 750 
Q 750 597 1062 519 
Q 1375 441 1716 441 
Q 2309 441 2620 675 
Q 2931 909 2931 1356 
Q 2931 1769 2642 2001 
Q 2353 2234 1838 2234 
L 1294 2234 
L 1294 2753 
L 1863 2753 
Q 2328 2753 2575 2939 
Q 2822 3125 2822 3475 
Q 2822 3834 2567 4026 
Q 2313 4219 1838 4219 
Q 1578 4219 1281 4162 
Q 984 4106 628 3988 
L 628 4550 
Q 988 4650 1302 4700 
Q 1616 4750 1894 4750 
Q 2613 4750 3031 4423 
Q 3450 4097 3450 3541 
Q 3450 3153 3228 2886 
Q 3006 2619 2597 2516 
z
" transform="scale(0.015625)"/>
       </defs>
       <use xlink:href="#DejaVuSans-31"/>
       <use xlink:href="#DejaVuSans-33" x="63.623047"/>
      </g>
     </g>
    </g>
    <g id="ytick_7">
     <g id="line2d_12">
      <g>
       <use xlink:href="#m198ccfdb98" x="67.34" y="138.205065" style="stroke: #000000; stroke-width: 0.8"/>
      </g>
     </g>
     <g id="text_13">
      <!-- 14 -->
      <g transform="translate(34.89 145.803502) scale(0.2 -0.2)">
       <use xlink:href="#DejaVuSans-31"/>
       <use xlink:href="#DejaVuSans-34" x="63.623047"/>
      </g>
     </g>
    </g>
    <g id="ytick_8">
     <g id="line2d_13">
      <g>
       <use xlink:href="#m198ccfdb98" x="67.34" y="84.206088" style="stroke: #000000; stroke-width: 0.8"/>
      </g>
     </g>
     <g id="text_14">
      <!-- 15 -->
      <g transform="translate(34.89 91.804525) scale(0.2 -0.2)">
       <defs>
        <path id="DejaVuSans-35" d="M 691 4666 
L 3169 4666 
L 3169 4134 
L 1269 4134 
L 1269 2991 
Q 1406 3038 1543 3061 
Q 1681 3084 1819 3084 
Q 2600 3084 3056 2656 
Q 3513 2228 3513 1497 
Q 3513 744 3044 326 
Q 2575 -91 1722 -91 
Q 1428 -91 1123 -41 
Q 819 9 494 109 
L 494 744 
Q 775 591 1075 516 
Q 1375 441 1709 441 
Q 2250 441 2565 725 
Q 2881 1009 2881 1497 
Q 2881 1984 2565 2268 
Q 2250 2553 1709 2553 
Q 1456 2553 1204 2497 
Q 953 2441 691 2322 
L 691 4666 
z
" transform="scale(0.015625)"/>
       </defs>
       <use xlink:href="#DejaVuSans-31"/>
       <use xlink:href="#DejaVuSans-35" x="63.623047"/>
      </g>
     </g>
    </g>
    <g id="ytick_9">
     <g id="line2d_14">
      <g>
       <use xlink:href="#m198ccfdb98" x="67.34" y="30.207111" style="stroke: #000000; stroke-width: 0.8"/>
      </g>
     </g>
     <g id="text_15">
      <!-- 16 -->
      <g transform="translate(34.89 37.805548) scale(0.2 -0.2)">
       <use xlink:href="#DejaVuSans-31"/>
       <use xlink:href="#DejaVuSans-36" x="63.623047"/>
      </g>
     </g>
    </g>
    <g id="text_16">
     <!-- RMSE -->
     <g transform="translate(26.730625 278.91975) rotate(-90) scale(0.2 -0.2)">
      <defs>
       <path id="DejaVuSans-52" d="M 2841 2188 
Q 3044 2119 3236 1894 
Q 3428 1669 3622 1275 
L 4263 0 
L 3584 0 
L 2988 1197 
Q 2756 1666 2539 1819 
Q 2322 1972 1947 1972 
L 1259 1972 
L 1259 0 
L 628 0 
L 628 4666 
L 2053 4666 
Q 2853 4666 3247 4331 
Q 3641 3997 3641 3322 
Q 3641 2881 3436 2590 
Q 3231 2300 2841 2188 
z
M 1259 4147 
L 1259 2491 
L 2053 2491 
Q 2509 2491 2742 2702 
Q 2975 2913 2975 3322 
Q 2975 3731 2742 3939 
Q 2509 4147 2053 4147 
L 1259 4147 
z
" transform="scale(0.015625)"/>
       <path id="DejaVuSans-4d" d="M 628 4666 
L 1569 4666 
L 2759 1491 
L 3956 4666 
L 4897 4666 
L 4897 0 
L 4281 0 
L 4281 4097 
L 3078 897 
L 2444 897 
L 1241 4097 
L 1241 0 
L 628 0 
L 628 4666 
z
" transform="scale(0.015625)"/>
       <path id="DejaVuSans-53" d="M 3425 4513 
L 3425 3897 
Q 3066 4069 2747 4153 
Q 2428 4238 2131 4238 
Q 1616 4238 1336 4038 
Q 1056 3838 1056 3469 
Q 1056 3159 1242 3001 
Q 1428 2844 1947 2747 
L 2328 2669 
Q 3034 2534 3370 2195 
Q 3706 1856 3706 1288 
Q 3706 609 3251 259 
Q 2797 -91 1919 -91 
Q 1588 -91 1214 -16 
Q 841 59 441 206 
L 441 856 
Q 825 641 1194 531 
Q 1563 422 1919 422 
Q 2459 422 2753 634 
Q 3047 847 3047 1241 
Q 3047 1584 2836 1778 
Q 2625 1972 2144 2069 
L 1759 2144 
Q 1053 2284 737 2584 
Q 422 2884 422 3419 
Q 422 4038 858 4394 
Q 1294 4750 2059 4750 
Q 2388 4750 2728 4690 
Q 3069 4631 3425 4513 
z
" transform="scale(0.015625)"/>
       <path id="DejaVuSans-45" d="M 628 4666 
L 3578 4666 
L 3578 4134 
L 1259 4134 
L 1259 2753 
L 3481 2753 
L 3481 2222 
L 1259 2222 
L 1259 531 
L 3634 531 
L 3634 0 
L 628 0 
L 628 4666 
z
" transform="scale(0.015625)"/>
      </defs>
      <use xlink:href="#DejaVuSans-52"/>
      <use xlink:href="#DejaVuSans-4d" x="69.482422"/>
      <use xlink:href="#DejaVuSans-53" x="155.761719"/>
      <use xlink:href="#DejaVuSans-45" x="219.238281"/>
     </g>
    </g>
   </g>
   <g id="line2d_15">
    <path d="M 116.151818 419.945912 
L 136.922805 440.803699 
L 157.693791 439.681656 
L 178.464778 438.695099 
L 199.235764 438.928594 
L 220.00675 450.864136 
L 240.777737 426.998295 
L 261.548723 432.714099 
L 282.31971 430.337983 
L 303.090696 435.725624 
L 323.861683 432.556504 
L 344.632669 431.2654 
L 365.403656 420.417833 
L 386.174642 415.640787 
L 406.945629 432.11889 
L 427.716615 424.991841 
L 448.487602 430.898058 
L 469.258588 427.850472 
L 490.029574 434.827683 
L 510.800561 418.855553 
L 531.571547 420.509402 
L 552.342534 433.556005 
L 573.11352 437.294013 
L 593.884507 425.20405 
L 614.655493 438.311637 
L 635.42648 419.025925 
L 656.197466 425.701817 
L 676.968453 436.657689 
L 697.739439 434.123527 
L 718.510426 442.810472 
L 739.281412 436.847969 
L 760.052398 439.576656 
L 780.823385 427.715977 
L 801.594371 433.123977 
L 822.365358 428.608251 
L 843.136344 416.765296 
L 863.907331 427.821657 
L 884.678317 424.320302 
L 905.449304 428.279033 
L 926.22029 432.26589 
L 946.991277 426.929871 
L 967.762263 426.962407 
L 988.53325 415.864193 
L 1009.304236 436.801302 
L 1030.075222 428.313859 
L 1050.846209 420.447348 
L 1071.617195 441.603735 
L 1092.388182 429.15961 
" clip-path="url(#p109fb70379)" style="fill: none; stroke: #f77189; stroke-width: 1.5; stroke-linecap: square"/>
   </g>
   <g id="line2d_16">
    <path d="M 116.151818 385.752702 
L 136.922805 392.871011 
L 157.693791 389.557882 
L 178.464778 391.386802 
L 199.235764 388.441382 
L 220.00675 393.671665 
L 240.777737 390.175302 
L 261.548723 391.493751 
L 282.31971 390.659766 
L 303.090696 394.009316 
L 323.861683 397.083682 
L 344.632669 388.662822 
L 365.403656 363.350893 
L 386.174642 381.817273 
L 406.945629 379.41516 
L 427.716615 386.678486 
L 448.487602 396.985067 
L 469.258588 380.3062 
L 490.029574 391.802098 
L 510.800561 372.141 
L 531.571547 375.571714 
L 552.342534 380.083139 
L 573.11352 394.420426 
L 593.884507 394.352042 
L 614.655493 386.767393 
L 635.42648 383.133366 
L 656.197466 383.481931 
L 676.968453 394.390157 
L 697.739439 390.677746 
L 718.510426 402.883746 
L 739.281412 394.059054 
L 760.052398 387.84007 
L 780.823385 372.908907 
L 801.594371 378.602299 
L 822.365358 381.635619 
L 843.136344 371.400055 
L 863.907331 381.001663 
L 884.678317 382.150237 
L 905.449304 380.838128 
L 926.22029 378.549207 
L 946.991277 372.424485 
L 967.762263 385.560512 
L 988.53325 361.462863 
L 1009.304236 393.60922 
L 1030.075222 381.848438 
L 1050.846209 371.873381 
L 1071.617195 386.294233 
L 1092.388182 384.187427 
" clip-path="url(#p109fb70379)" style="fill: none; stroke: #e18632; stroke-width: 1.5; stroke-linecap: square"/>
   </g>
   <g id="line2d_17">
    <path d="M 116.151818 426.248856 
L 136.922805 433.304039 
L 157.693791 434.404253 
L 178.464778 424.772016 
L 199.235764 433.288821 
L 220.00675 424.700043 
L 240.777737 427.432276 
L 261.548723 433.286278 
L 282.31971 433.472639 
L 303.090696 430.230068 
L 323.861683 442.685436 
L 344.632669 438.347285 
L 365.403656 426.422171 
L 386.174642 426.769185 
L 406.945629 423.488103 
L 427.716615 426.781642 
L 448.487602 438.368739 
L 469.258588 422.201838 
L 490.029574 424.371958 
L 510.800561 433.760533 
L 531.571547 408.775024 
L 552.342534 421.773857 
L 573.11352 438.449922 
L 593.884507 429.794008 
L 614.655493 429.765848 
L 635.42648 424.571247 
L 656.197466 429.820127 
L 676.968453 442.632829 
L 697.739439 439.753628 
L 718.510426 437.078218 
L 739.281412 436.841611 
L 760.052398 433.082687 
L 780.823385 430.880621 
L 801.594371 432.32083 
L 822.365358 435.947332 
L 843.136344 430.494735 
L 863.907331 422.142815 
L 884.678317 425.544687 
L 905.449304 428.113521 
L 926.22029 421.744893 
L 946.991277 424.824694 
L 967.762263 433.724782 
L 988.53325 427.539496 
L 1009.304236 425.362237 
L 1030.075222 429.938859 
L 1050.846209 426.905565 
L 1071.617195 436.295456 
L 1092.388182 428.565562 
" clip-path="url(#p109fb70379)" style="fill: none; stroke: #b59a32; stroke-width: 1.5; stroke-linecap: square"/>
   </g>
   <g id="line2d_18">
    <path d="M 116.151818 398.101878 
L 136.922805 408.974217 
L 157.693791 395.527603 
L 178.464778 405.877196 
L 199.235764 410.352451 
L 220.00675 418.979603 
L 240.777737 404.065257 
L 261.548723 414.334424 
L 282.31971 397.584249 
L 303.090696 397.832198 
L 323.861683 416.028359 
L 344.632669 419.472738 
L 365.403656 401.09065 
L 386.174642 389.684514 
L 406.945629 386.895258 
L 427.716615 397.175398 
L 448.487602 404.409474 
L 469.258588 407.319358 
L 490.029574 394.992658 
L 510.800561 383.252913 
L 531.571547 389.865512 
L 552.342534 392.508599 
L 573.11352 406.767257 
L 593.884507 405.375761 
L 614.655493 414.839788 
L 635.42648 402.196173 
L 656.197466 395.895363 
L 676.968453 409.026902 
L 697.739439 400.028749 
L 718.510426 413.189396 
L 739.281412 398.525529 
L 760.052398 418.914757 
L 780.823385 422.576772 
L 801.594371 404.46262 
L 822.365358 393.739181 
L 843.136344 385.167859 
L 863.907331 406.305335 
L 884.678317 396.909167 
L 905.449304 397.201525 
L 926.22029 387.853623 
L 946.991277 395.76487 
L 967.762263 399.311164 
L 988.53325 402.863008 
L 1009.304236 377.282641 
L 1030.075222 395.52424 
L 1050.846209 397.198689 
L 1071.617195 384.638702 
L 1092.388182 381.264383 
" clip-path="url(#p109fb70379)" style="fill: none; stroke: #8ba731; stroke-width: 1.5; stroke-linecap: square"/>
   </g>
   <g id="line2d_19">
    <path d="M 116.151818 198.495231 
L 136.922805 228.532401 
L 157.693791 181.068502 
L 178.464778 167.340599 
L 199.235764 183.197895 
L 220.00675 214.804732 
L 240.777737 188.125291 
L 261.548723 216.911207 
L 282.31971 180.029625 
L 303.090696 205.424073 
L 323.861683 214.572298 
L 344.632669 170.314044 
L 365.403656 149.786801 
L 386.174642 153.46831 
L 406.945629 145.541689 
L 427.716615 179.453125 
L 448.487602 232.874603 
L 469.258588 161.698643 
L 490.029574 198.316727 
L 510.800561 187.340331 
L 531.571547 174.648463 
L 552.342534 195.19994 
L 573.11352 231.707281 
L 593.884507 200.775499 
L 614.655493 177.886177 
L 635.42648 167.769394 
L 656.197466 212.143162 
L 676.968453 214.253451 
L 697.739439 203.996243 
L 718.510426 227.967847 
L 739.281412 201.180343 
L 760.052398 218.492214 
L 780.823385 182.559919 
L 801.594371 176.316334 
L 822.365358 204.932739 
L 843.136344 204.078333 
L 863.907331 178.307453 
L 884.678317 177.34026 
L 905.449304 218.159432 
L 926.22029 185.756848 
L 946.991277 183.168172 
L 967.762263 206.686506 
L 988.53325 192.218811 
L 1009.304236 223.938659 
L 1030.075222 194.686993 
L 1050.846209 211.447751 
L 1071.617195 223.221565 
L 1092.388182 160.618865 
" clip-path="url(#p109fb70379)" style="fill: none; stroke: #32b258; stroke-width: 1.5; stroke-linecap: square"/>
   </g>
   <g id="line2d_20">
    <path d="M 116.151818 335.165967 
L 136.922805 348.847261 
L 157.693791 345.852651 
L 178.464778 353.866873 
L 199.235764 347.671613 
L 220.00675 336.83555 
L 240.777737 332.688545 
L 261.548723 339.830373 
L 282.31971 336.227201 
L 303.090696 338.548149 
L 323.861683 346.778372 
L 344.632669 335.462485 
L 365.403656 339.211871 
L 386.174642 337.05117 
L 406.945629 337.766845 
L 427.716615 354.319687 
L 448.487602 335.768985 
L 469.258588 330.761817 
L 490.029574 339.575757 
L 510.800561 333.325693 
L 531.571547 335.330105 
L 552.342534 333.78278 
L 573.11352 341.739479 
L 593.884507 342.327825 
L 614.655493 336.954874 
L 635.42648 335.577288 
L 656.197466 336.387784 
L 676.968453 350.531429 
L 697.739439 353.724655 
L 718.510426 339.928808 
L 739.281412 341.018264 
L 760.052398 362.571293 
L 780.823385 350.619764 
L 801.594371 349.626295 
L 822.365358 343.372913 
L 843.136344 326.99178 
L 863.907331 329.197537 
L 884.678317 348.528708 
L 905.449304 345.056513 
L 926.22029 338.394126 
L 946.991277 345.439744 
L 967.762263 344.207033 
L 988.53325 345.47245 
L 1009.304236 334.472149 
L 1030.075222 350.542 
L 1050.846209 335.055159 
L 1071.617195 341.099979 
L 1092.388182 337.610012 
" clip-path="url(#p109fb70379)" style="fill: none; stroke: #35ae95; stroke-width: 1.5; stroke-linecap: square"/>
   </g>
   <g id="line2d_21">
    <path d="M 116.151818 255.718855 
L 136.922805 264.806213 
L 157.693791 270.094776 
L 178.464778 272.895218 
L 199.235764 265.057806 
L 220.00675 259.06821 
L 240.777737 266.807276 
L 261.548723 274.919097 
L 282.31971 264.340771 
L 303.090696 273.580721 
L 323.861683 263.447588 
L 344.632669 270.203051 
L 365.403656 260.937637 
L 386.174642 260.566841 
L 406.945629 266.667709 
L 427.716615 264.78923 
L 448.487602 274.422727 
L 469.258588 261.37095 
L 490.029574 270.060631 
L 510.800561 263.90041 
L 531.571547 257.502286 
L 552.342534 272.41296 
L 573.11352 261.51078 
L 593.884507 256.488317 
L 614.655493 257.128699 
L 635.42648 250.025363 
L 656.197466 257.463191 
L 676.968453 264.955397 
L 697.739439 268.511908 
L 718.510426 262.549659 
L 739.281412 265.11478 
L 760.052398 269.318498 
L 780.823385 259.608247 
L 801.594371 257.101297 
L 822.365358 261.558708 
L 843.136344 264.953032 
L 863.907331 262.406134 
L 884.678317 265.570908 
L 905.449304 258.558893 
L 926.22029 262.117317 
L 946.991277 263.027898 
L 967.762263 261.089265 
L 988.53325 266.548895 
L 1009.304236 254.646448 
L 1030.075222 273.10156 
L 1050.846209 255.304818 
L 1071.617195 265.594306 
L 1092.388182 252.588468 
" clip-path="url(#p109fb70379)" style="fill: none; stroke: #37abb2; stroke-width: 1.5; stroke-linecap: square"/>
   </g>
   <g id="line2d_22">
    <path d="M 116.151818 273.860578 
L 136.922805 277.162797 
L 157.693791 276.474658 
L 178.464778 274.809528 
L 199.235764 272.841385 
L 220.00675 270.83954 
L 240.777737 272.142352 
L 261.548723 272.459996 
L 282.31971 270.558285 
L 303.090696 276.793817 
L 323.861683 271.943274 
L 344.632669 264.936212 
L 365.403656 265.90343 
L 386.174642 262.301444 
L 406.945629 265.042316 
L 427.716615 262.023009 
L 448.487602 262.907472 
L 469.258588 266.169345 
L 490.029574 270.547989 
L 510.800561 263.890058 
L 531.571547 259.187757 
L 552.342534 266.009444 
L 573.11352 263.809593 
L 593.884507 269.017393 
L 614.655493 267.185219 
L 635.42648 261.141376 
L 656.197466 261.51342 
L 676.968453 267.602 
L 697.739439 262.502624 
L 718.510426 266.83809 
L 739.281412 259.017825 
L 760.052398 268.464447 
L 780.823385 266.103475 
L 801.594371 258.069297 
L 822.365358 262.534698 
L 843.136344 257.317183 
L 863.907331 263.021881 
L 884.678317 256.949354 
L 905.449304 260.110676 
L 926.22029 260.797625 
L 946.991277 259.842385 
L 967.762263 272.037988 
L 988.53325 253.605124 
L 1009.304236 262.907986 
L 1030.075222 265.852776 
L 1050.846209 255.991709 
L 1071.617195 268.041274 
L 1092.388182 265.608127 
" clip-path="url(#p109fb70379)" style="fill: none; stroke: #39a7d6; stroke-width: 1.5; stroke-linecap: square"/>
   </g>
   <g id="line2d_23">
    <path d="M 116.151818 273.818912 
L 136.922805 277.109683 
L 157.693791 276.44838 
L 178.464778 274.741329 
L 199.235764 272.808849 
L 220.00675 270.791329 
L 240.777737 272.088587 
L 261.548723 272.438807 
L 282.31971 270.474908 
L 303.090696 276.769648 
L 323.861683 271.867484 
L 344.632669 264.88474 
L 365.403656 265.858091 
L 386.174642 262.24461 
L 406.945629 265.003848 
L 427.716615 261.983885 
L 448.487602 262.884777 
L 469.258588 266.103191 
L 490.029574 270.47889 
L 510.800561 263.844426 
L 531.571547 259.139315 
L 552.342534 265.969133 
L 573.11352 263.77847 
L 593.884507 268.966193 
L 614.655493 267.111343 
L 635.42648 261.078705 
L 656.197466 261.443884 
L 676.968453 267.531172 
L 697.739439 262.442367 
L 718.510426 266.829392 
L 739.281412 258.940104 
L 760.052398 268.426503 
L 780.823385 266.015294 
L 801.594371 257.993374 
L 822.365358 262.464858 
L 843.136344 257.272096 
L 863.907331 263.002111 
L 884.678317 256.896023 
L 905.449304 260.07586 
L 926.22029 260.753842 
L 946.991277 259.751054 
L 967.762263 272.012669 
L 988.53325 253.559884 
L 1009.304236 262.856102 
L 1030.075222 265.78499 
L 1050.846209 255.980083 
L 1071.617195 267.986259 
L 1092.388182 265.555208 
" clip-path="url(#p109fb70379)" style="fill: none; stroke: #8f93f4; stroke-width: 1.5; stroke-linecap: square"/>
   </g>
   <g id="line2d_24">
    <path d="M 116.151818 149.750665 
L 136.922805 203.218578 
L 157.693791 161.776473 
L 178.464778 122.440521 
L 199.235764 151.163821 
L 220.00675 160.424623 
L 240.777737 147.355148 
L 261.548723 163.963093 
L 282.31971 161.905737 
L 303.090696 178.545178 
L 323.861683 173.913524 
L 344.632669 144.687083 
L 365.403656 114.713419 
L 386.174642 124.527593 
L 406.945629 118.935731 
L 427.716615 143.389676 
L 448.487602 201.890419 
L 469.258588 137.031434 
L 490.029574 156.16298 
L 510.800561 142.743779 
L 531.571547 120.423495 
L 552.342534 165.459842 
L 573.11352 202.966118 
L 593.884507 173.730736 
L 614.655493 129.617875 
L 635.42648 159.459256 
L 656.197466 165.786614 
L 676.968453 167.241971 
L 697.739439 165.666735 
L 718.510426 193.799685 
L 739.281412 153.269762 
L 760.052398 189.886137 
L 780.823385 134.746521 
L 801.594371 142.778575 
L 822.365358 163.987488 
L 843.136344 159.607703 
L 863.907331 148.528221 
L 884.678317 128.409172 
L 905.449304 177.354201 
L 926.22029 149.919851 
L 946.991277 142.210066 
L 967.762263 161.983065 
L 988.53325 142.188058 
L 1009.304236 188.006946 
L 1030.075222 170.569392 
L 1050.846209 168.447695 
L 1071.617195 186.933468 
L 1092.388182 115.719589 
" clip-path="url(#p109fb70379)" style="fill: none; stroke: #db70f4; stroke-width: 1.5; stroke-linecap: square"/>
   </g>
   <g id="line2d_25">
    <path d="M 116.151818 121.89327 
L 136.922805 140.796245 
L 157.693791 119.924819 
L 178.464778 139.292475 
L 199.235764 132.281615 
L 220.00675 115.615321 
L 240.777737 110.317639 
L 261.548723 135.33304 
L 282.31971 120.99835 
L 303.090696 113.05862 
L 323.861683 128.153795 
L 344.632669 118.99779 
L 365.403656 100.541906 
L 386.174642 98.759314 
L 406.945629 110.30992 
L 427.716615 133.15434 
L 448.487602 104.633755 
L 469.258588 93.977598 
L 490.029574 115.816089 
L 510.800561 82.847428 
L 531.571547 96.2081 
L 552.342534 106.335809 
L 573.11352 104.798319 
L 593.884507 129.445419 
L 614.655493 94.078225 
L 635.42648 91.615583 
L 656.197466 103.511527 
L 676.968453 134.241718 
L 697.739439 126.64609 
L 718.510426 93.520233 
L 739.281412 109.695441 
L 760.052398 127.16017 
L 780.823385 116.780752 
L 801.594371 111.732529 
L 822.365358 106.409541 
L 843.136344 90.988762 
L 863.907331 113.566046 
L 884.678317 133.332751 
L 905.449304 107.963795 
L 926.22029 109.787934 
L 946.991277 121.614207 
L 967.762263 121.480841 
L 988.53325 124.327209 
L 1009.304236 105.23896 
L 1030.075222 107.088936 
L 1050.846209 99.277363 
L 1071.617195 94.172226 
L 1092.388182 98.339007 
" clip-path="url(#p109fb70379)" style="fill: none; stroke: #f667c6; stroke-width: 1.5; stroke-linecap: square"/>
   </g>
   <g id="line2d_26"/>
   <g id="line2d_27"/>
   <g id="line2d_28"/>
   <g id="line2d_29"/>
   <g id="line2d_30"/>
   <g id="line2d_31"/>
   <g id="line2d_32"/>
   <g id="line2d_33"/>
   <g id="line2d_34"/>
   <g id="line2d_35"/>
   <g id="line2d_36"/>
   <g id="patch_3">
    <path d="M 67.34 490.552 
L 67.34 10.8 
" style="fill: none; stroke: #000000; stroke-width: 0.8; stroke-linejoin: miter; stroke-linecap: square"/>
   </g>
   <g id="patch_4">
    <path d="M 1141.2 490.552 
L 1141.2 10.8 
" style="fill: none; stroke: #000000; stroke-width: 0.8; stroke-linejoin: miter; stroke-linecap: square"/>
   </g>
   <g id="patch_5">
    <path d="M 67.34 490.552 
L 1141.2 490.552 
" style="fill: none; stroke: #000000; stroke-width: 0.8; stroke-linejoin: miter; stroke-linecap: square"/>
   </g>
   <g id="patch_6">
    <path d="M 67.34 10.8 
L 1141.2 10.8 
" style="fill: none; stroke: #000000; stroke-width: 0.8; stroke-linejoin: miter; stroke-linecap: square"/>
   </g>
   <g id="legend_1">
    <g id="patch_7">
     <path d="M 78.54 482.552 
L 248.285 482.552 
Q 251.485 482.552 251.485 479.352 
L 251.485 222.617 
Q 251.485 219.417 248.285 219.417 
L 78.54 219.417 
Q 75.34 219.417 75.34 222.617 
L 75.34 479.352 
Q 75.34 482.552 78.54 482.552 
z
" style="fill: #ffffff; opacity: 0.8; stroke: #cccccc; stroke-linejoin: miter"/>
    </g>
    <g id="line2d_37">
     <path d="M 81.74 232.3745 
L 97.74 232.3745 
L 113.74 232.3745 
" style="fill: none; stroke: #f77189; stroke-width: 1.5; stroke-linecap: square"/>
    </g>
    <g id="text_17">
     <!-- gbr -->
     <g transform="translate(126.54 237.9745) scale(0.16 -0.16)">
      <defs>
       <path id="DejaVuSans-62" d="M 3116 1747 
Q 3116 2381 2855 2742 
Q 2594 3103 2138 3103 
Q 1681 3103 1420 2742 
Q 1159 2381 1159 1747 
Q 1159 1113 1420 752 
Q 1681 391 2138 391 
Q 2594 391 2855 752 
Q 3116 1113 3116 1747 
z
M 1159 2969 
Q 1341 3281 1617 3432 
Q 1894 3584 2278 3584 
Q 2916 3584 3314 3078 
Q 3713 2572 3713 1747 
Q 3713 922 3314 415 
Q 2916 -91 2278 -91 
Q 1894 -91 1617 61 
Q 1341 213 1159 525 
L 1159 0 
L 581 0 
L 581 4863 
L 1159 4863 
L 1159 2969 
z
" transform="scale(0.015625)"/>
      </defs>
      <use xlink:href="#DejaVuSans-67"/>
      <use xlink:href="#DejaVuSans-62" x="63.476562"/>
      <use xlink:href="#DejaVuSans-72" x="126.953125"/>
     </g>
    </g>
    <g id="line2d_38">
     <path d="M 81.74 255.8595 
L 97.74 255.8595 
L 113.74 255.8595 
" style="fill: none; stroke: #e18632; stroke-width: 1.5; stroke-linecap: square"/>
    </g>
    <g id="text_18">
     <!-- rf -->
     <g transform="translate(126.54 261.4595) scale(0.16 -0.16)">
      <defs>
       <path id="DejaVuSans-66" d="M 2375 4863 
L 2375 4384 
L 1825 4384 
Q 1516 4384 1395 4259 
Q 1275 4134 1275 3809 
L 1275 3500 
L 2222 3500 
L 2222 3053 
L 1275 3053 
L 1275 0 
L 697 0 
L 697 3053 
L 147 3053 
L 147 3500 
L 697 3500 
L 697 3744 
Q 697 4328 969 4595 
Q 1241 4863 1831 4863 
L 2375 4863 
z
" transform="scale(0.015625)"/>
      </defs>
      <use xlink:href="#DejaVuSans-72"/>
      <use xlink:href="#DejaVuSans-66" x="41.113281"/>
     </g>
    </g>
    <g id="line2d_39">
     <path d="M 81.74 279.3445 
L 97.74 279.3445 
L 113.74 279.3445 
" style="fill: none; stroke: #b59a32; stroke-width: 1.5; stroke-linecap: square"/>
    </g>
    <g id="text_19">
     <!-- lgbm -->
     <g transform="translate(126.54 284.9445) scale(0.16 -0.16)">
      <use xlink:href="#DejaVuSans-6c"/>
      <use xlink:href="#DejaVuSans-67" x="27.783203"/>
      <use xlink:href="#DejaVuSans-62" x="91.259766"/>
      <use xlink:href="#DejaVuSans-6d" x="154.736328"/>
     </g>
    </g>
    <g id="line2d_40">
     <path d="M 81.74 302.8295 
L 97.74 302.8295 
L 113.74 302.8295 
" style="fill: none; stroke: #8ba731; stroke-width: 1.5; stroke-linecap: square"/>
    </g>
    <g id="text_20">
     <!-- xgb -->
     <g transform="translate(126.54 308.4295) scale(0.16 -0.16)">
      <defs>
       <path id="DejaVuSans-78" d="M 3513 3500 
L 2247 1797 
L 3578 0 
L 2900 0 
L 1881 1375 
L 863 0 
L 184 0 
L 1544 1831 
L 300 3500 
L 978 3500 
L 1906 2253 
L 2834 3500 
L 3513 3500 
z
" transform="scale(0.015625)"/>
      </defs>
      <use xlink:href="#DejaVuSans-78"/>
      <use xlink:href="#DejaVuSans-67" x="59.179688"/>
      <use xlink:href="#DejaVuSans-62" x="122.65625"/>
     </g>
    </g>
    <g id="line2d_41">
     <path d="M 81.74 326.3145 
L 97.74 326.3145 
L 113.74 326.3145 
" style="fill: none; stroke: #32b258; stroke-width: 1.5; stroke-linecap: square"/>
    </g>
    <g id="text_21">
     <!-- et -->
     <g transform="translate(126.54 331.9145) scale(0.16 -0.16)">
      <use xlink:href="#DejaVuSans-65"/>
      <use xlink:href="#DejaVuSans-74" x="61.523438"/>
     </g>
    </g>
    <g id="line2d_42">
     <path d="M 81.74 349.7995 
L 97.74 349.7995 
L 113.74 349.7995 
" style="fill: none; stroke: #35ae95; stroke-width: 1.5; stroke-linecap: square"/>
    </g>
    <g id="text_22">
     <!-- BayesianRidge -->
     <g transform="translate(126.54 355.3995) scale(0.16 -0.16)">
      <defs>
       <path id="DejaVuSans-42" d="M 1259 2228 
L 1259 519 
L 2272 519 
Q 2781 519 3026 730 
Q 3272 941 3272 1375 
Q 3272 1813 3026 2020 
Q 2781 2228 2272 2228 
L 1259 2228 
z
M 1259 4147 
L 1259 2741 
L 2194 2741 
Q 2656 2741 2882 2914 
Q 3109 3088 3109 3444 
Q 3109 3797 2882 3972 
Q 2656 4147 2194 4147 
L 1259 4147 
z
M 628 4666 
L 2241 4666 
Q 2963 4666 3353 4366 
Q 3744 4066 3744 3513 
Q 3744 3084 3544 2831 
Q 3344 2578 2956 2516 
Q 3422 2416 3680 2098 
Q 3938 1781 3938 1306 
Q 3938 681 3513 340 
Q 3088 0 2303 0 
L 628 0 
L 628 4666 
z
" transform="scale(0.015625)"/>
       <path id="DejaVuSans-79" d="M 2059 -325 
Q 1816 -950 1584 -1140 
Q 1353 -1331 966 -1331 
L 506 -1331 
L 506 -850 
L 844 -850 
Q 1081 -850 1212 -737 
Q 1344 -625 1503 -206 
L 1606 56 
L 191 3500 
L 800 3500 
L 1894 763 
L 2988 3500 
L 3597 3500 
L 2059 -325 
z
" transform="scale(0.015625)"/>
      </defs>
      <use xlink:href="#DejaVuSans-42"/>
      <use xlink:href="#DejaVuSans-61" x="68.603516"/>
      <use xlink:href="#DejaVuSans-79" x="129.882812"/>
      <use xlink:href="#DejaVuSans-65" x="189.0625"/>
      <use xlink:href="#DejaVuSans-73" x="250.585938"/>
      <use xlink:href="#DejaVuSans-69" x="302.685547"/>
      <use xlink:href="#DejaVuSans-61" x="330.46875"/>
      <use xlink:href="#DejaVuSans-6e" x="391.748047"/>
      <use xlink:href="#DejaVuSans-52" x="455.126953"/>
      <use xlink:href="#DejaVuSans-69" x="524.609375"/>
      <use xlink:href="#DejaVuSans-64" x="552.392578"/>
      <use xlink:href="#DejaVuSans-67" x="615.869141"/>
      <use xlink:href="#DejaVuSans-65" x="679.345703"/>
     </g>
    </g>
    <g id="line2d_43">
     <path d="M 81.74 373.2845 
L 97.74 373.2845 
L 113.74 373.2845 
" style="fill: none; stroke: #37abb2; stroke-width: 1.5; stroke-linecap: square"/>
    </g>
    <g id="text_23">
     <!-- Adaboost -->
     <g transform="translate(126.54 378.8845) scale(0.16 -0.16)">
      <defs>
       <path id="DejaVuSans-41" d="M 2188 4044 
L 1331 1722 
L 3047 1722 
L 2188 4044 
z
M 1831 4666 
L 2547 4666 
L 4325 0 
L 3669 0 
L 3244 1197 
L 1141 1197 
L 716 0 
L 50 0 
L 1831 4666 
z
" transform="scale(0.015625)"/>
      </defs>
      <use xlink:href="#DejaVuSans-41"/>
      <use xlink:href="#DejaVuSans-64" x="66.658203"/>
      <use xlink:href="#DejaVuSans-61" x="130.134766"/>
      <use xlink:href="#DejaVuSans-62" x="191.414062"/>
      <use xlink:href="#DejaVuSans-6f" x="254.890625"/>
      <use xlink:href="#DejaVuSans-6f" x="316.072266"/>
      <use xlink:href="#DejaVuSans-73" x="377.253906"/>
      <use xlink:href="#DejaVuSans-74" x="429.353516"/>
     </g>
    </g>
    <g id="line2d_44">
     <path d="M 81.74 396.7695 
L 97.74 396.7695 
L 113.74 396.7695 
" style="fill: none; stroke: #39a7d6; stroke-width: 1.5; stroke-linecap: square"/>
    </g>
    <g id="text_24">
     <!-- Lasso -->
     <g transform="translate(126.54 402.3695) scale(0.16 -0.16)">
      <defs>
       <path id="DejaVuSans-4c" d="M 628 4666 
L 1259 4666 
L 1259 531 
L 3531 531 
L 3531 0 
L 628 0 
L 628 4666 
z
" transform="scale(0.015625)"/>
      </defs>
      <use xlink:href="#DejaVuSans-4c"/>
      <use xlink:href="#DejaVuSans-61" x="55.712891"/>
      <use xlink:href="#DejaVuSans-73" x="116.992188"/>
      <use xlink:href="#DejaVuSans-73" x="169.091797"/>
      <use xlink:href="#DejaVuSans-6f" x="221.191406"/>
     </g>
    </g>
    <g id="line2d_45">
     <path d="M 81.74 420.2545 
L 97.74 420.2545 
L 113.74 420.2545 
" style="fill: none; stroke: #8f93f4; stroke-width: 1.5; stroke-linecap: square"/>
    </g>
    <g id="text_25">
     <!-- LassoLars -->
     <g transform="translate(126.54 425.8545) scale(0.16 -0.16)">
      <use xlink:href="#DejaVuSans-4c"/>
      <use xlink:href="#DejaVuSans-61" x="55.712891"/>
      <use xlink:href="#DejaVuSans-73" x="116.992188"/>
      <use xlink:href="#DejaVuSans-73" x="169.091797"/>
      <use xlink:href="#DejaVuSans-6f" x="221.191406"/>
      <use xlink:href="#DejaVuSans-4c" x="282.373047"/>
      <use xlink:href="#DejaVuSans-61" x="338.085938"/>
      <use xlink:href="#DejaVuSans-72" x="399.365234"/>
      <use xlink:href="#DejaVuSans-73" x="440.478516"/>
     </g>
    </g>
    <g id="line2d_46">
     <path d="M 81.74 443.7395 
L 97.74 443.7395 
L 113.74 443.7395 
" style="fill: none; stroke: #db70f4; stroke-width: 1.5; stroke-linecap: square"/>
    </g>
    <g id="text_26">
     <!-- dt -->
     <g transform="translate(126.54 449.3395) scale(0.16 -0.16)">
      <use xlink:href="#DejaVuSans-64"/>
      <use xlink:href="#DejaVuSans-74" x="63.476562"/>
     </g>
    </g>
    <g id="line2d_47">
     <path d="M 81.74 467.2245 
L 97.74 467.2245 
L 113.74 467.2245 
" style="fill: none; stroke: #f667c6; stroke-width: 1.5; stroke-linecap: square"/>
    </g>
    <g id="text_27">
     <!-- HubR -->
     <g transform="translate(126.54 472.8245) scale(0.16 -0.16)">
      <defs>
       <path id="DejaVuSans-75" d="M 544 1381 
L 544 3500 
L 1119 3500 
L 1119 1403 
Q 1119 906 1312 657 
Q 1506 409 1894 409 
Q 2359 409 2629 706 
Q 2900 1003 2900 1516 
L 2900 3500 
L 3475 3500 
L 3475 0 
L 2900 0 
L 2900 538 
Q 2691 219 2414 64 
Q 2138 -91 1772 -91 
Q 1169 -91 856 284 
Q 544 659 544 1381 
z
M 1991 3584 
L 1991 3584 
z
" transform="scale(0.015625)"/>
      </defs>
      <use xlink:href="#DejaVuSans-48"/>
      <use xlink:href="#DejaVuSans-75" x="75.195312"/>
      <use xlink:href="#DejaVuSans-62" x="138.574219"/>
      <use xlink:href="#DejaVuSans-52" x="202.050781"/>
     </g>
    </g>
   </g>
  </g>
 </g>
 <defs>
  <clipPath id="p109fb70379">
   <rect x="67.34" y="10.8" width="1073.86" height="479.752"/>
  </clipPath>
 </defs>
</svg>
