<?xml version="1.0" encoding="utf-8" standalone="no"?>
<!DOCTYPE svg PUBLIC "-//W3C//DTD SVG 1.1//EN"
  "http://www.w3.org/Graphics/SVG/1.1/DTD/svg11.dtd">
<svg xmlns:xlink="http://www.w3.org/1999/xlink" width="1152pt" height="576pt" viewBox="0 0 1152 576" xmlns="http://www.w3.org/2000/svg" version="1.1">
 <metadata>
  <rdf:RDF xmlns:dc="http://purl.org/dc/elements/1.1/" xmlns:cc="http://creativecommons.org/ns#" xmlns:rdf="http://www.w3.org/1999/02/22-rdf-syntax-ns#">
   <cc:Work>
    <dc:type rdf:resource="http://purl.org/dc/dcmitype/StillImage"/>
    <dc:date>2024-08-27T10:34:15.490535</dc:date>
    <dc:format>image/svg+xml</dc:format>
    <dc:creator>
     <cc:Agent>
      <dc:title>Matplotlib v3.7.1, https://matplotlib.org/</dc:title>
     </cc:Agent>
    </dc:creator>
   </cc:Work>
  </rdf:RDF>
 </metadata>
 <defs>
  <style type="text/css">*{stroke-linejoin: round; stroke-linecap: butt}</style>
 </defs>
 <g id="figure_1">
  <g id="patch_1">
   <path d="M 0 576 
L 1152 576 
L 1152 0 
L 0 0 
z
" style="fill: #ffffff"/>
  </g>
  <g id="axes_1">
   <g id="patch_2">
    <path d="M 67.34 489.832 
L 1141.2 489.832 
L 1141.2 17.936334 
L 67.34 17.936334 
z
" style="fill: #ffffff"/>
   </g>
   <g id="PolyCollection_1">
    <defs>
     <path id="m99efaabdd4" d="M 116.151818 -147.637115 
L 116.151818 -135.529554 
L 136.922805 -107.617803 
L 157.693791 -116.113343 
L 178.464778 -125.733364 
L 199.235764 -126.372887 
L 220.00675 -116.308883 
L 240.777737 -121.42356 
L 261.548723 -114.46994 
L 282.31971 -126.644068 
L 303.090696 -126.653624 
L 323.861683 -137.74446 
L 344.632669 -131.951903 
L 365.403656 -129.093153 
L 386.174642 -117.973232 
L 406.945629 -119.000152 
L 427.716615 -118.978031 
L 448.487602 -117.281467 
L 469.258588 -121.268928 
L 490.029574 -137.181762 
L 510.800561 -127.30994 
L 531.571547 -132.509809 
L 552.342534 -138.933401 
L 573.11352 -127.785833 
L 593.884507 -130.330952 
L 614.655493 -131.581181 
L 635.42648 -126.395787 
L 656.197466 -129.711094 
L 676.968453 -130.923576 
L 697.739439 -140.542903 
L 718.510426 -124.539246 
L 739.281412 -124.352141 
L 760.052398 -137.864283 
L 780.823385 -133.099234 
L 801.594371 -139.396247 
L 822.365358 -144.255007 
L 843.136344 -123.668209 
L 863.907331 -118.319975 
L 884.678317 -134.09184 
L 905.449304 -135.987545 
L 926.22029 -117.277632 
L 946.991277 -115.766865 
L 967.762263 -112.263803 
L 988.53325 -117.287431 
L 1009.304236 -115.939772 
L 1030.075222 -117.456495 
L 1050.846209 -117.287431 
L 1071.617195 -117.738238 
L 1092.388182 -116.221516 
L 1092.388182 -152.332198 
L 1092.388182 -152.332198 
L 1071.617195 -151.930412 
L 1050.846209 -150.805676 
L 1030.075222 -151.930412 
L 1009.304236 -150.805676 
L 988.53325 -152.322399 
L 967.762263 -149.259008 
L 946.991277 -151.146439 
L 926.22029 -151.548225 
L 905.449304 -152.522536 
L 884.678317 -153.94555 
L 863.907331 -154.618975 
L 843.136344 -171.087283 
L 822.365358 -168.210548 
L 801.594371 -160.738847 
L 780.823385 -146.767096 
L 760.052398 -148.625723 
L 739.281412 -146.83088 
L 718.510426 -148.847714 
L 697.739439 -155.503126 
L 676.968453 -155.9667 
L 656.197466 -149.613704 
L 635.42648 -149.741508 
L 614.655493 -156.11449 
L 593.884507 -155.749233 
L 573.11352 -154.959797 
L 552.342534 -161.705866 
L 531.571547 -156.965714 
L 510.800561 -151.997694 
L 490.029574 -169.351893 
L 469.258588 -151.219251 
L 448.487602 -142.810439 
L 427.716615 -153.921697 
L 406.945629 -152.462164 
L 386.174642 -143.462741 
L 365.403656 -159.852753 
L 344.632669 -170.747042 
L 323.861683 -158.710767 
L 303.090696 -154.959016 
L 282.31971 -162.734924 
L 261.548723 -147.335082 
L 240.777737 -145.432665 
L 220.00675 -134.408332 
L 199.235764 -162.368283 
L 178.464778 -147.873381 
L 157.693791 -136.15014 
L 136.922805 -139.628658 
L 116.151818 -147.637115 
z
" style="stroke: #f77189; stroke-opacity: 0.2"/>
    </defs>
    <g clip-path="url(#p62513b442f)">
     <use xlink:href="#m99efaabdd4" x="0" y="576" style="fill: #f77189; fill-opacity: 0.2; stroke: #f77189; stroke-opacity: 0.2"/>
    </g>
   </g>
   <g id="PolyCollection_2">
    <defs>
     <path id="m8411723238" d="M 116.151818 -150.811797 
L 116.151818 -132.717047 
L 136.922805 -120.307774 
L 157.693791 -116.880315 
L 178.464778 -124.455522 
L 199.235764 -116.727545 
L 220.00675 -122.971412 
L 240.777737 -122.933552 
L 261.548723 -121.386519 
L 282.31971 -141.921755 
L 303.090696 -132.180745 
L 323.861683 -137.486806 
L 344.632669 -139.883227 
L 365.403656 -136.455062 
L 386.174642 -127.189795 
L 406.945629 -120.916285 
L 427.716615 -116.940313 
L 448.487602 -121.033528 
L 469.258588 -139.587339 
L 490.029574 -149.818744 
L 510.800561 -129.914014 
L 531.571547 -137.868786 
L 552.342534 -139.738806 
L 573.11352 -135.575444 
L 593.884507 -140.391453 
L 614.655493 -133.330112 
L 635.42648 -137.941248 
L 656.197466 -135.601756 
L 676.968453 -131.433464 
L 697.739439 -141.502234 
L 718.510426 -129.687933 
L 739.281412 -128.604208 
L 760.052398 -128.714394 
L 780.823385 -127.102268 
L 801.594371 -132.559446 
L 822.365358 -128.642929 
L 843.136344 -146.957988 
L 863.907331 -135.706257 
L 884.678317 -137.304674 
L 905.449304 -133.982507 
L 926.22029 -131.309528 
L 946.991277 -131.489776 
L 967.762263 -135.988772 
L 988.53325 -131.875199 
L 1009.304236 -131.308277 
L 1030.075222 -131.570068 
L 1050.846209 -131.956766 
L 1071.617195 -131.570068 
L 1092.388182 -131.571975 
L 1092.388182 -151.420995 
L 1092.388182 -151.420995 
L 1071.617195 -151.235794 
L 1050.846209 -151.132279 
L 1030.075222 -150.921415 
L 1009.304236 -151.131028 
L 988.53325 -151.181053 
L 967.762263 -151.984256 
L 946.991277 -151.422246 
L 926.22029 -151.181053 
L 905.449304 -157.154448 
L 884.678317 -150.997062 
L 863.907331 -168.604693 
L 843.136344 -162.056725 
L 822.365358 -174.815919 
L 801.594371 -176.017103 
L 780.823385 -160.27105 
L 760.052398 -174.87608 
L 739.281412 -174.739151 
L 718.510426 -174.308907 
L 697.739439 -176.751937 
L 676.968453 -173.559144 
L 656.197466 -172.142926 
L 635.42648 -172.947453 
L 614.655493 -174.470382 
L 593.884507 -174.383807 
L 573.11352 -173.155968 
L 552.342534 -184.087618 
L 531.571547 -183.902238 
L 510.800561 -175.447793 
L 490.029574 -169.157171 
L 469.258588 -157.378298 
L 448.487602 -156.818988 
L 427.716615 -144.912396 
L 406.945629 -166.342046 
L 386.174642 -148.50119 
L 365.403656 -158.166073 
L 344.632669 -172.791388 
L 323.861683 -158.226352 
L 303.090696 -153.967116 
L 282.31971 -168.15223 
L 261.548723 -164.949447 
L 240.777737 -152.658829 
L 220.00675 -134.302977 
L 199.235764 -151.018771 
L 178.464778 -137.740911 
L 157.693791 -135.005502 
L 136.922805 -140.808708 
L 116.151818 -150.811797 
z
" style="stroke: #e18632; stroke-opacity: 0.2"/>
    </defs>
    <g clip-path="url(#p62513b442f)">
     <use xlink:href="#m8411723238" x="0" y="576" style="fill: #e18632; fill-opacity: 0.2; stroke: #e18632; stroke-opacity: 0.2"/>
    </g>
   </g>
   <g id="PolyCollection_3">
    <defs>
     <path id="me573424b78" d="M 116.151818 -201.572185 
L 116.151818 -170.93052 
L 136.922805 -165.909491 
L 157.693791 -152.829367 
L 178.464778 -170.40104 
L 199.235764 -153.337585 
L 220.00675 -161.646158 
L 240.777737 -155.337518 
L 261.548723 -164.251033 
L 282.31971 -174.661885 
L 303.090696 -184.914124 
L 323.861683 -182.838619 
L 344.632669 -181.852252 
L 365.403656 -177.586599 
L 386.174642 -159.130009 
L 406.945629 -154.637784 
L 427.716615 -152.882643 
L 448.487602 -168.488093 
L 469.258588 -177.754466 
L 490.029574 -180.507984 
L 510.800561 -175.838879 
L 531.571547 -186.341454 
L 552.342534 -183.896825 
L 573.11352 -171.745284 
L 593.884507 -172.144128 
L 614.655493 -170.220609 
L 635.42648 -173.579475 
L 656.197466 -174.68735 
L 676.968453 -171.574445 
L 697.739439 -179.05301 
L 718.510426 -169.180371 
L 739.281412 -170.273418 
L 760.052398 -168.624461 
L 780.823385 -171.282531 
L 801.594371 -180.535032 
L 822.365358 -183.57501 
L 843.136344 -177.10955 
L 863.907331 -171.947192 
L 884.678317 -178.162065 
L 905.449304 -177.592951 
L 926.22029 -172.748746 
L 946.991277 -172.758858 
L 967.762263 -170.212684 
L 988.53325 -172.755929 
L 1009.304236 -172.758858 
L 1030.075222 -174.05963 
L 1050.846209 -172.165238 
L 1071.617195 -173.22408 
L 1092.388182 -172.819567 
L 1092.388182 -202.404445 
L 1092.388182 -202.404445 
L 1071.617195 -203.998517 
L 1050.846209 -203.910608 
L 1030.075222 -203.866202 
L 1009.304236 -202.503277 
L 988.53325 -203.866482 
L 967.762263 -199.986364 
L 946.991277 -202.503277 
L 926.22029 -203.524202 
L 905.449304 -201.873567 
L 884.678317 -202.936534 
L 863.907331 -203.324673 
L 843.136344 -215.538426 
L 822.365358 -207.094829 
L 801.594371 -197.126482 
L 780.823385 -190.729638 
L 760.052398 -186.582185 
L 739.281412 -191.503639 
L 718.510426 -189.626637 
L 697.739439 -197.877888 
L 676.968453 -196.879286 
L 656.197466 -192.338511 
L 635.42648 -191.429962 
L 614.655493 -191.016582 
L 593.884507 -195.144868 
L 573.11352 -194.897526 
L 552.342534 -205.307486 
L 531.571547 -202.161259 
L 510.800561 -198.819193 
L 490.029574 -230.496553 
L 469.258588 -204.180811 
L 448.487602 -196.432865 
L 427.716615 -181.142173 
L 406.945629 -180.222683 
L 386.174642 -184.001202 
L 365.403656 -216.929837 
L 344.632669 -212.059375 
L 323.861683 -206.824483 
L 303.090696 -211.702641 
L 282.31971 -213.243028 
L 261.548723 -184.553923 
L 240.777737 -185.2943 
L 220.00675 -170.110547 
L 199.235764 -184.850591 
L 178.464778 -217.381341 
L 157.693791 -186.878116 
L 136.922805 -179.570947 
L 116.151818 -201.572185 
z
" style="stroke: #b59a32; stroke-opacity: 0.2"/>
    </defs>
    <g clip-path="url(#p62513b442f)">
     <use xlink:href="#me573424b78" x="0" y="576" style="fill: #b59a32; fill-opacity: 0.2; stroke: #b59a32; stroke-opacity: 0.2"/>
    </g>
   </g>
   <g id="PolyCollection_4">
    <defs>
     <path id="mbafeb79528" d="M 116.151818 -174.053985 
L 116.151818 -160.745747 
L 136.922805 -134.935736 
L 157.693791 -142.326409 
L 178.464778 -135.433897 
L 199.235764 -149.390015 
L 220.00675 -144.825133 
L 240.777737 -144.433757 
L 261.548723 -153.632842 
L 282.31971 -146.716148 
L 303.090696 -167.104786 
L 323.861683 -159.82282 
L 344.632669 -153.230061 
L 365.403656 -165.428813 
L 386.174642 -155.298354 
L 406.945629 -184.788237 
L 427.716615 -160.638064 
L 448.487602 -151.291805 
L 469.258588 -161.198735 
L 490.029574 -174.533207 
L 510.800561 -155.10033 
L 531.571547 -152.252164 
L 552.342534 -159.135884 
L 573.11352 -152.293529 
L 593.884507 -148.469431 
L 614.655493 -150.4751 
L 635.42648 -160.236981 
L 656.197466 -165.76111 
L 676.968453 -151.697965 
L 697.739439 -167.420896 
L 718.510426 -151.170422 
L 739.281412 -153.959593 
L 760.052398 -132.018296 
L 780.823385 -141.894011 
L 801.594371 -153.369743 
L 822.365358 -138.074239 
L 843.136344 -162.54384 
L 863.907331 -150.098014 
L 884.678317 -139.461253 
L 905.449304 -136.433876 
L 926.22029 -155.592991 
L 946.991277 -155.475586 
L 967.762263 -145.730323 
L 988.53325 -155.913515 
L 1009.304236 -155.29921 
L 1030.075222 -155.763826 
L 1050.846209 -155.76813 
L 1071.617195 -155.619734 
L 1092.388182 -156.237049 
L 1092.388182 -183.209404 
L 1092.388182 -183.209404 
L 1071.617195 -183.0604 
L 1050.846209 -183.08838 
L 1030.075222 -183.0604 
L 1009.304236 -182.941718 
L 988.53325 -182.942402 
L 967.762263 -180.965011 
L 946.991277 -181.312907 
L 926.22029 -181.340279 
L 905.449304 -167.244701 
L 884.678317 -176.603174 
L 863.907331 -210.047885 
L 843.136344 -193.858746 
L 822.365358 -173.59351 
L 801.594371 -185.846597 
L 780.823385 -181.270058 
L 760.052398 -194.317466 
L 739.281412 -201.51974 
L 718.510426 -201.73176 
L 697.739439 -207.872616 
L 676.968453 -191.329056 
L 656.197466 -192.768259 
L 635.42648 -191.598925 
L 614.655493 -189.500131 
L 593.884507 -192.117702 
L 573.11352 -190.567484 
L 552.342534 -210.787911 
L 531.571547 -203.431287 
L 510.800561 -195.603169 
L 490.029574 -209.520582 
L 469.258588 -196.150436 
L 448.487602 -192.280693 
L 427.716615 -181.665293 
L 406.945629 -205.478616 
L 386.174642 -178.72185 
L 365.403656 -194.884063 
L 344.632669 -199.000988 
L 323.861683 -196.154522 
L 303.090696 -181.725645 
L 282.31971 -194.344532 
L 261.548723 -187.228919 
L 240.777737 -177.158245 
L 220.00675 -190.053207 
L 199.235764 -182.45741 
L 178.464778 -172.342135 
L 157.693791 -177.581525 
L 136.922805 -173.657834 
L 116.151818 -174.053985 
z
" style="stroke: #8ba731; stroke-opacity: 0.2"/>
    </defs>
    <g clip-path="url(#p62513b442f)">
     <use xlink:href="#mbafeb79528" x="0" y="576" style="fill: #8ba731; fill-opacity: 0.2; stroke: #8ba731; stroke-opacity: 0.2"/>
    </g>
   </g>
   <g id="PolyCollection_5">
    <defs>
     <path id="mc1b3ed8aff" d="M 116.151818 -442.223515 
L 116.151818 -311.231505 
L 136.922805 -358.22975 
L 157.693791 -305.391445 
L 178.464778 -393.153477 
L 199.235764 -368.811479 
L 220.00675 -290.482088 
L 240.777737 -328.952039 
L 261.548723 -319.674083 
L 282.31971 -417.489796 
L 303.090696 -372.1382 
L 323.861683 -412.496305 
L 344.632669 -409.112201 
L 365.403656 -344.305095 
L 386.174642 -333.381311 
L 406.945629 -359.110709 
L 427.716615 -372.334051 
L 448.487602 -375.130652 
L 469.258588 -408.600674 
L 490.029574 -409.735111 
L 510.800561 -404.445309 
L 531.571547 -404.287057 
L 552.342534 -394.5918 
L 573.11352 -384.198183 
L 593.884507 -385.851957 
L 614.655493 -386.01143 
L 635.42648 -380.841566 
L 656.197466 -381.395588 
L 676.968453 -388.577531 
L 697.739439 -405.825182 
L 718.510426 -381.059488 
L 739.281412 -378.197155 
L 760.052398 -377.266467 
L 780.823385 -347.011332 
L 801.594371 -353.341523 
L 822.365358 -392.381095 
L 843.136344 -381.531276 
L 863.907331 -386.443865 
L 884.678317 -409.734503 
L 905.449304 -357.886132 
L 926.22029 -337.713896 
L 946.991277 -335.324486 
L 967.762263 -335.51366 
L 988.53325 -336.134015 
L 1009.304236 -337.680201 
L 1030.075222 -336.154773 
L 1050.846209 -338.980298 
L 1071.617195 -338.99148 
L 1092.388182 -338.980298 
L 1092.388182 -445.852166 
L 1092.388182 -445.852166 
L 1071.617195 -447.437945 
L 1050.846209 -450.036648 
L 1030.075222 -444.78593 
L 1009.304236 -448.489847 
L 988.53325 -444.626859 
L 967.762263 -441.755408 
L 946.991277 -445.864488 
L 926.22029 -447.411289 
L 905.449304 -452.027606 
L 884.678317 -450.555236 
L 863.907331 -473.389202 
L 843.136344 -468.548305 
L 822.365358 -445.741211 
L 801.594371 -424.418568 
L 780.823385 -418.590115 
L 760.052398 -416.415449 
L 739.281412 -431.10798 
L 718.510426 -426.227209 
L 697.739439 -429.072049 
L 676.968453 -440.500951 
L 656.197466 -437.401678 
L 635.42648 -435.906628 
L 614.655493 -441.665384 
L 593.884507 -439.68407 
L 573.11352 -442.546371 
L 552.342534 -462.644323 
L 531.571547 -447.441588 
L 510.800561 -449.901136 
L 490.029574 -474.989322 
L 469.258588 -468.199969 
L 448.487602 -471.95468 
L 427.716615 -445.369449 
L 406.945629 -423.281566 
L 386.174642 -426.228523 
L 365.403656 -432.400533 
L 344.632669 -500.600625 
L 323.861683 -441.393046 
L 303.090696 -484.785168 
L 282.31971 -490.263528 
L 261.548723 -384.76403 
L 240.777737 -407.553715 
L 220.00675 -363.263618 
L 199.235764 -439.674323 
L 178.464778 -460.256156 
L 157.693791 -411.044299 
L 136.922805 -399.096563 
L 116.151818 -442.223515 
z
" style="stroke: #32b258; stroke-opacity: 0.2"/>
    </defs>
    <g clip-path="url(#p62513b442f)">
     <use xlink:href="#mc1b3ed8aff" x="0" y="576" style="fill: #32b258; fill-opacity: 0.2; stroke: #32b258; stroke-opacity: 0.2"/>
    </g>
   </g>
   <g id="PolyCollection_6">
    <defs>
     <path id="mf7cbed50c1" d="M 116.151818 -252.436051 
L 116.151818 -222.725615 
L 136.922805 -216.321904 
L 157.693791 -207.857312 
L 178.464778 -222.919171 
L 199.235764 -206.869441 
L 220.00675 -211.940494 
L 240.777737 -208.5253 
L 261.548723 -219.649611 
L 282.31971 -225.298996 
L 303.090696 -217.404817 
L 323.861683 -219.90131 
L 344.632669 -215.957519 
L 365.403656 -215.432065 
L 386.174642 -211.325323 
L 406.945629 -214.802514 
L 427.716615 -204.896926 
L 448.487602 -215.052563 
L 469.258588 -227.354616 
L 490.029574 -239.906022 
L 510.800561 -214.275439 
L 531.571547 -212.235282 
L 552.342534 -221.953389 
L 573.11352 -222.272908 
L 593.884507 -215.073215 
L 614.655493 -219.385097 
L 635.42648 -220.278391 
L 656.197466 -224.346739 
L 676.968453 -219.185839 
L 697.739439 -222.451423 
L 718.510426 -216.606531 
L 739.281412 -218.212331 
L 760.052398 -216.293613 
L 780.823385 -224.122152 
L 801.594371 -209.176348 
L 822.365358 -210.624975 
L 843.136344 -228.992768 
L 863.907331 -219.885421 
L 884.678317 -224.45739 
L 905.449304 -220.137597 
L 926.22029 -224.871891 
L 946.991277 -223.628519 
L 967.762263 -224.964486 
L 988.53325 -223.982559 
L 1009.304236 -224.871891 
L 1030.075222 -224.305801 
L 1050.846209 -224.114748 
L 1071.617195 -224.309044 
L 1092.388182 -224.346343 
L 1092.388182 -252.11037 
L 1092.388182 -252.11037 
L 1071.617195 -252.26625 
L 1050.846209 -252.26625 
L 1030.075222 -252.26625 
L 1009.304236 -253.149873 
L 988.53325 -251.908174 
L 967.762263 -252.431082 
L 946.991277 -252.426127 
L 926.22029 -252.11037 
L 905.449304 -259.138992 
L 884.678317 -259.963855 
L 863.907331 -249.202165 
L 843.136344 -253.365053 
L 822.365358 -258.495576 
L 801.594371 -251.479266 
L 780.823385 -258.728492 
L 760.052398 -262.126035 
L 739.281412 -261.690823 
L 718.510426 -259.480314 
L 697.739439 -261.471412 
L 676.968453 -260.739066 
L 656.197466 -262.42889 
L 635.42648 -260.818813 
L 614.655493 -262.973913 
L 593.884507 -262.050325 
L 573.11352 -262.31698 
L 552.342534 -261.8475 
L 531.571547 -261.809039 
L 510.800561 -251.687219 
L 490.029574 -282.726267 
L 469.258588 -267.808509 
L 448.487602 -253.676832 
L 427.716615 -252.640061 
L 406.945629 -243.471257 
L 386.174642 -235.338304 
L 365.403656 -259.143096 
L 344.632669 -251.96835 
L 323.861683 -253.020581 
L 303.090696 -256.343753 
L 282.31971 -272.252097 
L 261.548723 -264.156402 
L 240.777737 -270.525811 
L 220.00675 -275.717482 
L 199.235764 -269.895099 
L 178.464778 -250.484216 
L 157.693791 -242.18463 
L 136.922805 -243.878639 
L 116.151818 -252.436051 
z
" style="stroke: #35ae95; stroke-opacity: 0.2"/>
    </defs>
    <g clip-path="url(#p62513b442f)">
     <use xlink:href="#mf7cbed50c1" x="0" y="576" style="fill: #35ae95; fill-opacity: 0.2; stroke: #35ae95; stroke-opacity: 0.2"/>
    </g>
   </g>
   <g id="PolyCollection_7">
    <defs>
     <path id="m42e30b3b5a" d="M 116.151818 -303.128587 
L 116.151818 -297.762635 
L 136.922805 -287.063331 
L 157.693791 -285.810622 
L 178.464778 -298.14209 
L 199.235764 -286.732766 
L 220.00675 -288.668484 
L 240.777737 -289.166847 
L 261.548723 -293.269496 
L 282.31971 -297.575109 
L 303.090696 -305.898901 
L 323.861683 -305.92551 
L 344.632669 -301.040822 
L 365.403656 -296.731005 
L 386.174642 -288.832485 
L 406.945629 -291.295711 
L 427.716615 -284.803115 
L 448.487602 -287.045083 
L 469.258588 -298.326522 
L 490.029574 -306.723569 
L 510.800561 -293.390325 
L 531.571547 -294.737969 
L 552.342534 -301.878529 
L 573.11352 -301.224159 
L 593.884507 -300.145257 
L 614.655493 -298.951764 
L 635.42648 -301.600209 
L 656.197466 -299.474513 
L 676.968453 -298.643082 
L 697.739439 -302.511767 
L 718.510426 -293.435471 
L 739.281412 -295.221961 
L 760.052398 -292.656671 
L 780.823385 -290.91358 
L 801.594371 -289.744253 
L 822.365358 -297.546119 
L 843.136344 -296.230339 
L 863.907331 -291.261349 
L 884.678317 -297.256986 
L 905.449304 -298.304311 
L 926.22029 -295.681121 
L 946.991277 -295.782919 
L 967.762263 -295.380558 
L 988.53325 -295.708599 
L 1009.304236 -295.766667 
L 1030.075222 -295.620915 
L 1050.846209 -295.707912 
L 1071.617195 -295.681121 
L 1092.388182 -295.473377 
L 1092.388182 -303.616186 
L 1092.388182 -303.616186 
L 1071.617195 -303.563025 
L 1050.846209 -303.812695 
L 1030.075222 -303.779554 
L 1009.304236 -303.776052 
L 988.53325 -303.616186 
L 967.762263 -303.625639 
L 946.991277 -303.530641 
L 926.22029 -303.531416 
L 905.449304 -310.136984 
L 884.678317 -311.663812 
L 863.907331 -311.202942 
L 843.136344 -309.882409 
L 822.365358 -308.118037 
L 801.594371 -309.157553 
L 780.823385 -319.802063 
L 760.052398 -309.896205 
L 739.281412 -309.088124 
L 718.510426 -307.050648 
L 697.739439 -311.040853 
L 676.968453 -309.319741 
L 656.197466 -311.097691 
L 635.42648 -311.029267 
L 614.655493 -311.453659 
L 593.884507 -310.556091 
L 573.11352 -309.834564 
L 552.342534 -316.353958 
L 531.571547 -317.570016 
L 510.800561 -315.470063 
L 490.029574 -324.295237 
L 469.258588 -318.961075 
L 448.487602 -309.233861 
L 427.716615 -310.660114 
L 406.945629 -311.865597 
L 386.174642 -310.017171 
L 365.403656 -314.403298 
L 344.632669 -328.562353 
L 323.861683 -315.261713 
L 303.090696 -318.800533 
L 282.31971 -317.488579 
L 261.548723 -314.089319 
L 240.777737 -309.756511 
L 220.00675 -296.312579 
L 199.235764 -312.465473 
L 178.464778 -300.69498 
L 157.693791 -300.868692 
L 136.922805 -317.26762 
L 116.151818 -303.128587 
z
" style="stroke: #37abb2; stroke-opacity: 0.2"/>
    </defs>
    <g clip-path="url(#p62513b442f)">
     <use xlink:href="#m42e30b3b5a" x="0" y="576" style="fill: #37abb2; fill-opacity: 0.2; stroke: #37abb2; stroke-opacity: 0.2"/>
    </g>
   </g>
   <g id="PolyCollection_8">
    <defs>
     <path id="me6c747b27f" d="M 116.151818 -303.116256 
L 116.151818 -297.764732 
L 136.922805 -286.409132 
L 157.693791 -285.363225 
L 178.464778 -298.116062 
L 199.235764 -286.762654 
L 220.00675 -288.623941 
L 240.777737 -289.124146 
L 261.548723 -292.69306 
L 282.31971 -297.549557 
L 303.090696 -305.977664 
L 323.861683 -306.029183 
L 344.632669 -299.402874 
L 365.403656 -296.947299 
L 386.174642 -288.447359 
L 406.945629 -291.044673 
L 427.716615 -285.309336 
L 448.487602 -287.022444 
L 469.258588 -298.823956 
L 490.029574 -306.549864 
L 510.800561 -292.587165 
L 531.571547 -294.534899 
L 552.342534 -302.179831 
L 573.11352 -301.076467 
L 593.884507 -299.987408 
L 614.655493 -298.892107 
L 635.42648 -301.051501 
L 656.197466 -299.467711 
L 676.968453 -298.724153 
L 697.739439 -302.216962 
L 718.510426 -293.197654 
L 739.281412 -295.881291 
L 760.052398 -292.742492 
L 780.823385 -289.459331 
L 801.594371 -289.884488 
L 822.365358 -297.879103 
L 843.136344 -296.870144 
L 863.907331 -292.222454 
L 884.678317 -296.932546 
L 905.449304 -298.30531 
L 926.22029 -295.188193 
L 946.991277 -295.668432 
L 967.762263 -295.721599 
L 988.53325 -295.5792 
L 1009.304236 -295.487679 
L 1030.075222 -295.669852 
L 1050.846209 -295.5792 
L 1071.617195 -295.5792 
L 1092.388182 -295.5792 
L 1092.388182 -303.813222 
L 1092.388182 -303.813222 
L 1071.617195 -303.465604 
L 1050.846209 -303.585366 
L 1030.075222 -303.560688 
L 1009.304236 -303.72733 
L 988.53325 -303.557124 
L 967.762263 -303.72733 
L 946.991277 -303.846509 
L 926.22029 -303.557124 
L 905.449304 -310.016216 
L 884.678317 -311.277207 
L 863.907331 -310.283708 
L 843.136344 -309.315248 
L 822.365358 -308.277775 
L 801.594371 -308.927149 
L 780.823385 -319.221637 
L 760.052398 -309.797588 
L 739.281412 -309.069503 
L 718.510426 -308.082561 
L 697.739439 -310.995703 
L 676.968453 -309.068426 
L 656.197466 -311.044587 
L 635.42648 -310.992454 
L 614.655493 -311.398895 
L 593.884507 -310.310242 
L 573.11352 -309.893457 
L 552.342534 -315.944229 
L 531.571547 -317.666827 
L 510.800561 -315.232663 
L 490.029574 -324.245929 
L 469.258588 -319.484561 
L 448.487602 -309.220679 
L 427.716615 -310.017176 
L 406.945629 -311.607617 
L 386.174642 -309.233986 
L 365.403656 -314.907217 
L 344.632669 -329.743885 
L 323.861683 -315.192217 
L 303.090696 -318.74787 
L 282.31971 -316.136371 
L 261.548723 -313.687852 
L 240.777737 -310.417163 
L 220.00675 -296.293939 
L 199.235764 -311.426674 
L 178.464778 -300.794212 
L 157.693791 -301.297122 
L 136.922805 -316.850866 
L 116.151818 -303.116256 
z
" style="stroke: #39a7d6; stroke-opacity: 0.2"/>
    </defs>
    <g clip-path="url(#p62513b442f)">
     <use xlink:href="#me6c747b27f" x="0" y="576" style="fill: #39a7d6; fill-opacity: 0.2; stroke: #39a7d6; stroke-opacity: 0.2"/>
    </g>
   </g>
   <g id="PolyCollection_9">
    <defs>
     <path id="mec0055aa3b" d="M 116.151818 -465.394532 
L 116.151818 -340.26859 
L 136.922805 -380.645939 
L 157.693791 -363.747284 
L 178.464778 -446.521772 
L 199.235764 -413.793105 
L 220.00675 -308.170295 
L 240.777737 -383.689472 
L 261.548723 -353.946051 
L 282.31971 -439.336148 
L 303.090696 -406.69302 
L 323.861683 -431.528417 
L 344.632669 -433.52077 
L 365.403656 -367.319823 
L 386.174642 -368.697943 
L 406.945629 -401.283906 
L 427.716615 -418.19905 
L 448.487602 -423.582786 
L 469.258588 -447.219643 
L 490.029574 -463.700248 
L 510.800561 -435.21532 
L 531.571547 -420.334384 
L 552.342534 -417.484561 
L 573.11352 -424.478253 
L 593.884507 -415.75031 
L 614.655493 -427.383745 
L 635.42648 -429.62504 
L 656.197466 -433.417344 
L 676.968453 -440.388643 
L 697.739439 -428.513279 
L 718.510426 -409.900144 
L 739.281412 -411.022912 
L 760.052398 -415.771951 
L 780.823385 -394.571421 
L 801.594371 -368.499638 
L 822.365358 -431.44993 
L 843.136344 -393.767799 
L 863.907331 -415.574569 
L 884.678317 -445.301338 
L 905.449304 -398.090932 
L 926.22029 -378.599962 
L 946.991277 -378.599962 
L 967.762263 -374.148736 
L 988.53325 -374.155329 
L 1009.304236 -378.240495 
L 1030.075222 -373.880752 
L 1050.846209 -378.599962 
L 1071.617195 -369.693559 
L 1092.388182 -379.409624 
L 1092.388182 -498.867683 
L 1092.388182 -498.867683 
L 1071.617195 -497.81011 
L 1050.846209 -493.507562 
L 1030.075222 -500.57797 
L 1009.304236 -498.883323 
L 988.53325 -495.217849 
L 967.762263 -491.621781 
L 946.991277 -496.094023 
L 926.22029 -497.782993 
L 905.449304 -507.352942 
L 884.678317 -505.100929 
L 863.907331 -495.74174 
L 843.136344 -502.546533 
L 822.365358 -504.168526 
L 801.594371 -451.504951 
L 780.823385 -470.897938 
L 760.052398 -463.149921 
L 739.281412 -459.015156 
L 718.510426 -467.78572 
L 697.739439 -479.594218 
L 676.968453 -482.512967 
L 656.197466 -480.544847 
L 635.42648 -467.167736 
L 614.655493 -466.140193 
L 593.884507 -493.067032 
L 573.11352 -512.495765 
L 552.342534 -493.46338 
L 531.571547 -481.658641 
L 510.800561 -478.072025 
L 490.029574 -536.613863 
L 469.258588 -510.477701 
L 448.487602 -525.485303 
L 427.716615 -468.573451 
L 406.945629 -458.815259 
L 386.174642 -454.960169 
L 365.403656 -464.07332 
L 344.632669 -520.073443 
L 323.861683 -476.851959 
L 303.090696 -505.081123 
L 282.31971 -512.396405 
L 261.548723 -420.51404 
L 240.777737 -450.40362 
L 220.00675 -400.693696 
L 199.235764 -477.913512 
L 178.464778 -523.891646 
L 157.693791 -430.918111 
L 136.922805 -459.232221 
L 116.151818 -465.394532 
z
" style="stroke: #8f93f4; stroke-opacity: 0.2"/>
    </defs>
    <g clip-path="url(#p62513b442f)">
     <use xlink:href="#mec0055aa3b" x="0" y="576" style="fill: #8f93f4; fill-opacity: 0.2; stroke: #8f93f4; stroke-opacity: 0.2"/>
    </g>
   </g>
   <g id="PolyCollection_10">
    <defs>
     <path id="mc2c9f3786c" d="M 116.151818 -338.436651 
L 116.151818 -315.310738 
L 136.922805 -300.887823 
L 157.693791 -294.505143 
L 178.464778 -308.03435 
L 199.235764 -295.795323 
L 220.00675 -302.770607 
L 240.777737 -293.158172 
L 261.548723 -301.076894 
L 282.31971 -302.604835 
L 303.090696 -322.546002 
L 323.861683 -312.746223 
L 344.632669 -311.800588 
L 365.403656 -311.069261 
L 386.174642 -299.523009 
L 406.945629 -309.71274 
L 427.716615 -311.309884 
L 448.487602 -298.041852 
L 469.258588 -314.515018 
L 490.029574 -320.478882 
L 510.800561 -310.81907 
L 531.571547 -321.783925 
L 552.342534 -338.207565 
L 573.11352 -315.023021 
L 593.884507 -327.676777 
L 614.655493 -319.577484 
L 635.42648 -327.999258 
L 656.197466 -320.999616 
L 676.968453 -327.039317 
L 697.739439 -322.923903 
L 718.510426 -319.744424 
L 739.281412 -324.899505 
L 760.052398 -314.455877 
L 780.823385 -325.878983 
L 801.594371 -316.220418 
L 822.365358 -303.452517 
L 843.136344 -325.386822 
L 863.907331 -319.551129 
L 884.678317 -320.120279 
L 905.449304 -334.791805 
L 926.22029 -333.866381 
L 946.991277 -333.973508 
L 967.762263 -331.234237 
L 988.53325 -333.864633 
L 1009.304236 -333.683693 
L 1030.075222 -333.753615 
L 1050.846209 -333.866381 
L 1071.617195 -333.753615 
L 1092.388182 -333.976327 
L 1092.388182 -348.025752 
L 1092.388182 -348.025752 
L 1071.617195 -347.897013 
L 1050.846209 -347.596157 
L 1030.075222 -348.078353 
L 1009.304236 -348.005432 
L 988.53325 -347.949614 
L 967.762263 -348.003563 
L 946.991277 -348.363965 
L 926.22029 -348.025752 
L 905.449304 -344.676557 
L 884.678317 -332.22269 
L 863.907331 -343.455945 
L 843.136344 -356.965489 
L 822.365358 -332.648905 
L 801.594371 -337.244238 
L 780.823385 -343.599336 
L 760.052398 -340.930039 
L 739.281412 -343.174359 
L 718.510426 -340.012287 
L 697.739439 -348.504513 
L 676.968453 -349.947832 
L 656.197466 -348.437516 
L 635.42648 -348.900821 
L 614.655493 -348.437516 
L 593.884507 -347.273477 
L 573.11352 -341.03453 
L 552.342534 -349.072273 
L 531.571547 -344.107463 
L 510.800561 -338.166245 
L 490.029574 -346.798551 
L 469.258588 -337.560381 
L 448.487602 -330.136484 
L 427.716615 -328.177457 
L 406.945629 -334.129112 
L 386.174642 -321.900745 
L 365.403656 -325.878813 
L 344.632669 -336.499899 
L 323.861683 -340.04727 
L 303.090696 -342.953354 
L 282.31971 -328.938425 
L 261.548723 -312.049317 
L 240.777737 -317.14517 
L 220.00675 -314.879125 
L 199.235764 -320.598108 
L 178.464778 -319.403729 
L 157.693791 -312.131928 
L 136.922805 -323.108899 
L 116.151818 -338.436651 
z
" style="stroke: #db70f4; stroke-opacity: 0.2"/>
    </defs>
    <g clip-path="url(#p62513b442f)">
     <use xlink:href="#mc2c9f3786c" x="0" y="576" style="fill: #db70f4; fill-opacity: 0.2; stroke: #db70f4; stroke-opacity: 0.2"/>
    </g>
   </g>
   <g id="PolyCollection_11">
    <defs>
     <path id="m9f41d5e2ab" d="M 116.151818 -475.51565 
L 116.151818 -440.832541 
L 136.922805 -443.984505 
L 157.693791 -440.722554 
L 178.464778 -449.166864 
L 199.235764 -435.428325 
L 220.00675 -438.673221 
L 240.777737 -420.455166 
L 261.548723 -431.557248 
L 282.31971 -452.838413 
L 303.090696 -428.893572 
L 323.861683 -440.346036 
L 344.632669 -446.73508 
L 365.403656 -430.321592 
L 386.174642 -443.914352 
L 406.945629 -439.063264 
L 427.716615 -432.489841 
L 448.487602 -436.095401 
L 469.258588 -454.888036 
L 490.029574 -465.157435 
L 510.800561 -428.38866 
L 531.571547 -448.143427 
L 552.342534 -450.485958 
L 573.11352 -450.892852 
L 593.884507 -440.760835 
L 614.655493 -442.418482 
L 635.42648 -442.815036 
L 656.197466 -440.827942 
L 676.968453 -434.619375 
L 697.739439 -444.080694 
L 718.510426 -422.414655 
L 739.281412 -429.20479 
L 760.052398 -434.768506 
L 780.823385 -421.344852 
L 801.594371 -430.743846 
L 822.365358 -421.058959 
L 843.136344 -441.445717 
L 863.907331 -444.386687 
L 884.678317 -447.258192 
L 905.449304 -436.164519 
L 926.22029 -437.855927 
L 946.991277 -438.472745 
L 967.762263 -437.545751 
L 988.53325 -438.380572 
L 1009.304236 -439.26467 
L 1030.075222 -438.889073 
L 1050.846209 -438.46445 
L 1071.617195 -437.855927 
L 1092.388182 -438.472745 
L 1092.388182 -459.656147 
L 1092.388182 -459.656147 
L 1071.617195 -459.523734 
L 1050.846209 -459.808744 
L 1030.075222 -460.282546 
L 1009.304236 -459.652234 
L 988.53325 -459.523734 
L 967.762263 -458.114968 
L 946.991277 -459.523734 
L 926.22029 -460.182733 
L 905.449304 -458.90687 
L 884.678317 -477.934887 
L 863.907331 -487.551389 
L 843.136344 -482.47487 
L 822.365358 -469.972873 
L 801.594371 -466.078776 
L 780.823385 -475.839262 
L 760.052398 -475.695796 
L 739.281412 -472.345875 
L 718.510426 -466.355746 
L 697.739439 -473.996973 
L 676.968453 -460.344068 
L 656.197466 -469.307739 
L 635.42648 -469.602864 
L 614.655493 -491.729869 
L 593.884507 -494.518319 
L 573.11352 -492.607707 
L 552.342534 -474.88143 
L 531.571547 -488.569549 
L 510.800561 -475.464412 
L 490.029574 -534.459266 
L 469.258588 -518.960176 
L 448.487602 -470.255034 
L 427.716615 -495.023965 
L 406.945629 -489.496771 
L 386.174642 -476.652367 
L 365.403656 -489.218507 
L 344.632669 -480.594358 
L 323.861683 -471.031132 
L 303.090696 -462.514171 
L 282.31971 -521.006375 
L 261.548723 -486.717609 
L 240.777737 -501.656444 
L 220.00675 -526.353786 
L 199.235764 -476.00701 
L 178.464778 -492.035396 
L 157.693791 -475.485245 
L 136.922805 -493.254224 
L 116.151818 -475.51565 
z
" style="stroke: #f667c6; stroke-opacity: 0.2"/>
    </defs>
    <g clip-path="url(#p62513b442f)">
     <use xlink:href="#m9f41d5e2ab" x="0" y="576" style="fill: #f667c6; fill-opacity: 0.2; stroke: #f667c6; stroke-opacity: 0.2"/>
    </g>
   </g>
   <g id="matplotlib.axis_1">
    <g id="xtick_1">
     <g id="line2d_1">
      <defs>
       <path id="m2b2d81384e" d="M 0 0 
L 0 3.5 
" style="stroke: #000000; stroke-width: 0.8"/>
      </defs>
      <g>
       <use xlink:href="#m2b2d81384e" x="105.766325" y="489.832" style="stroke: #000000; stroke-width: 0.8"/>
      </g>
     </g>
     <g id="text_1">
      <!-- 0 -->
      <g transform="translate(99.403825 512.028875) scale(0.2 -0.2)">
       <defs>
        <path id="DejaVuSans-30" d="M 2034 4250 
Q 1547 4250 1301 3770 
Q 1056 3291 1056 2328 
Q 1056 1369 1301 889 
Q 1547 409 2034 409 
Q 2525 409 2770 889 
Q 3016 1369 3016 2328 
Q 3016 3291 2770 3770 
Q 2525 4250 2034 4250 
z
M 2034 4750 
Q 2819 4750 3233 4129 
Q 3647 3509 3647 2328 
Q 3647 1150 3233 529 
Q 2819 -91 2034 -91 
Q 1250 -91 836 529 
Q 422 1150 422 2328 
Q 422 3509 836 4129 
Q 1250 4750 2034 4750 
z
" transform="scale(0.015625)"/>
       </defs>
       <use xlink:href="#DejaVuSans-30"/>
      </g>
     </g>
    </g>
    <g id="xtick_2">
     <g id="line2d_2">
      <g>
       <use xlink:href="#m2b2d81384e" x="313.47619" y="489.832" style="stroke: #000000; stroke-width: 0.8"/>
      </g>
     </g>
     <g id="text_2">
      <!-- 20 -->
      <g transform="translate(300.75119 512.028875) scale(0.2 -0.2)">
       <defs>
        <path id="DejaVuSans-32" d="M 1228 531 
L 3431 531 
L 3431 0 
L 469 0 
L 469 531 
Q 828 903 1448 1529 
Q 2069 2156 2228 2338 
Q 2531 2678 2651 2914 
Q 2772 3150 2772 3378 
Q 2772 3750 2511 3984 
Q 2250 4219 1831 4219 
Q 1534 4219 1204 4116 
Q 875 4013 500 3803 
L 500 4441 
Q 881 4594 1212 4672 
Q 1544 4750 1819 4750 
Q 2544 4750 2975 4387 
Q 3406 4025 3406 3419 
Q 3406 3131 3298 2873 
Q 3191 2616 2906 2266 
Q 2828 2175 2409 1742 
Q 1991 1309 1228 531 
z
" transform="scale(0.015625)"/>
       </defs>
       <use xlink:href="#DejaVuSans-32"/>
       <use xlink:href="#DejaVuSans-30" x="63.623047"/>
      </g>
     </g>
    </g>
    <g id="xtick_3">
     <g id="line2d_3">
      <g>
       <use xlink:href="#m2b2d81384e" x="521.186054" y="489.832" style="stroke: #000000; stroke-width: 0.8"/>
      </g>
     </g>
     <g id="text_3">
      <!-- 40 -->
      <g transform="translate(508.461054 512.028875) scale(0.2 -0.2)">
       <defs>
        <path id="DejaVuSans-34" d="M 2419 4116 
L 825 1625 
L 2419 1625 
L 2419 4116 
z
M 2253 4666 
L 3047 4666 
L 3047 1625 
L 3713 1625 
L 3713 1100 
L 3047 1100 
L 3047 0 
L 2419 0 
L 2419 1100 
L 313 1100 
L 313 1709 
L 2253 4666 
z
" transform="scale(0.015625)"/>
       </defs>
       <use xlink:href="#DejaVuSans-34"/>
       <use xlink:href="#DejaVuSans-30" x="63.623047"/>
      </g>
     </g>
    </g>
    <g id="xtick_4">
     <g id="line2d_4">
      <g>
       <use xlink:href="#m2b2d81384e" x="728.895919" y="489.832" style="stroke: #000000; stroke-width: 0.8"/>
      </g>
     </g>
     <g id="text_4">
      <!-- 60 -->
      <g transform="translate(716.170919 512.028875) scale(0.2 -0.2)">
       <defs>
        <path id="DejaVuSans-36" d="M 2113 2584 
Q 1688 2584 1439 2293 
Q 1191 2003 1191 1497 
Q 1191 994 1439 701 
Q 1688 409 2113 409 
Q 2538 409 2786 701 
Q 3034 994 3034 1497 
Q 3034 2003 2786 2293 
Q 2538 2584 2113 2584 
z
M 3366 4563 
L 3366 3988 
Q 3128 4100 2886 4159 
Q 2644 4219 2406 4219 
Q 1781 4219 1451 3797 
Q 1122 3375 1075 2522 
Q 1259 2794 1537 2939 
Q 1816 3084 2150 3084 
Q 2853 3084 3261 2657 
Q 3669 2231 3669 1497 
Q 3669 778 3244 343 
Q 2819 -91 2113 -91 
Q 1303 -91 875 529 
Q 447 1150 447 2328 
Q 447 3434 972 4092 
Q 1497 4750 2381 4750 
Q 2619 4750 2861 4703 
Q 3103 4656 3366 4563 
z
" transform="scale(0.015625)"/>
       </defs>
       <use xlink:href="#DejaVuSans-36"/>
       <use xlink:href="#DejaVuSans-30" x="63.623047"/>
      </g>
     </g>
    </g>
    <g id="xtick_5">
     <g id="line2d_5">
      <g>
       <use xlink:href="#m2b2d81384e" x="936.605783" y="489.832" style="stroke: #000000; stroke-width: 0.8"/>
      </g>
     </g>
     <g id="text_5">
      <!-- 80 -->
      <g transform="translate(923.880783 512.028875) scale(0.2 -0.2)">
       <defs>
        <path id="DejaVuSans-38" d="M 2034 2216 
Q 1584 2216 1326 1975 
Q 1069 1734 1069 1313 
Q 1069 891 1326 650 
Q 1584 409 2034 409 
Q 2484 409 2743 651 
Q 3003 894 3003 1313 
Q 3003 1734 2745 1975 
Q 2488 2216 2034 2216 
z
M 1403 2484 
Q 997 2584 770 2862 
Q 544 3141 544 3541 
Q 544 4100 942 4425 
Q 1341 4750 2034 4750 
Q 2731 4750 3128 4425 
Q 3525 4100 3525 3541 
Q 3525 3141 3298 2862 
Q 3072 2584 2669 2484 
Q 3125 2378 3379 2068 
Q 3634 1759 3634 1313 
Q 3634 634 3220 271 
Q 2806 -91 2034 -91 
Q 1263 -91 848 271 
Q 434 634 434 1313 
Q 434 1759 690 2068 
Q 947 2378 1403 2484 
z
M 1172 3481 
Q 1172 3119 1398 2916 
Q 1625 2713 2034 2713 
Q 2441 2713 2670 2916 
Q 2900 3119 2900 3481 
Q 2900 3844 2670 4047 
Q 2441 4250 2034 4250 
Q 1625 4250 1398 4047 
Q 1172 3844 1172 3481 
z
" transform="scale(0.015625)"/>
       </defs>
       <use xlink:href="#DejaVuSans-38"/>
       <use xlink:href="#DejaVuSans-30" x="63.623047"/>
      </g>
     </g>
    </g>
    <g id="text_6">
     <!-- Percentile Threshold -->
     <g transform="translate(502.490313 535.385125) scale(0.2 -0.2)">
      <defs>
       <path id="DejaVuSans-50" d="M 1259 4147 
L 1259 2394 
L 2053 2394 
Q 2494 2394 2734 2622 
Q 2975 2850 2975 3272 
Q 2975 3691 2734 3919 
Q 2494 4147 2053 4147 
L 1259 4147 
z
M 628 4666 
L 2053 4666 
Q 2838 4666 3239 4311 
Q 3641 3956 3641 3272 
Q 3641 2581 3239 2228 
Q 2838 1875 2053 1875 
L 1259 1875 
L 1259 0 
L 628 0 
L 628 4666 
z
" transform="scale(0.015625)"/>
       <path id="DejaVuSans-65" d="M 3597 1894 
L 3597 1613 
L 953 1613 
Q 991 1019 1311 708 
Q 1631 397 2203 397 
Q 2534 397 2845 478 
Q 3156 559 3463 722 
L 3463 178 
Q 3153 47 2828 -22 
Q 2503 -91 2169 -91 
Q 1331 -91 842 396 
Q 353 884 353 1716 
Q 353 2575 817 3079 
Q 1281 3584 2069 3584 
Q 2775 3584 3186 3129 
Q 3597 2675 3597 1894 
z
M 3022 2063 
Q 3016 2534 2758 2815 
Q 2500 3097 2075 3097 
Q 1594 3097 1305 2825 
Q 1016 2553 972 2059 
L 3022 2063 
z
" transform="scale(0.015625)"/>
       <path id="DejaVuSans-72" d="M 2631 2963 
Q 2534 3019 2420 3045 
Q 2306 3072 2169 3072 
Q 1681 3072 1420 2755 
Q 1159 2438 1159 1844 
L 1159 0 
L 581 0 
L 581 3500 
L 1159 3500 
L 1159 2956 
Q 1341 3275 1631 3429 
Q 1922 3584 2338 3584 
Q 2397 3584 2469 3576 
Q 2541 3569 2628 3553 
L 2631 2963 
z
" transform="scale(0.015625)"/>
       <path id="DejaVuSans-63" d="M 3122 3366 
L 3122 2828 
Q 2878 2963 2633 3030 
Q 2388 3097 2138 3097 
Q 1578 3097 1268 2742 
Q 959 2388 959 1747 
Q 959 1106 1268 751 
Q 1578 397 2138 397 
Q 2388 397 2633 464 
Q 2878 531 3122 666 
L 3122 134 
Q 2881 22 2623 -34 
Q 2366 -91 2075 -91 
Q 1284 -91 818 406 
Q 353 903 353 1747 
Q 353 2603 823 3093 
Q 1294 3584 2113 3584 
Q 2378 3584 2631 3529 
Q 2884 3475 3122 3366 
z
" transform="scale(0.015625)"/>
       <path id="DejaVuSans-6e" d="M 3513 2113 
L 3513 0 
L 2938 0 
L 2938 2094 
Q 2938 2591 2744 2837 
Q 2550 3084 2163 3084 
Q 1697 3084 1428 2787 
Q 1159 2491 1159 1978 
L 1159 0 
L 581 0 
L 581 3500 
L 1159 3500 
L 1159 2956 
Q 1366 3272 1645 3428 
Q 1925 3584 2291 3584 
Q 2894 3584 3203 3211 
Q 3513 2838 3513 2113 
z
" transform="scale(0.015625)"/>
       <path id="DejaVuSans-74" d="M 1172 4494 
L 1172 3500 
L 2356 3500 
L 2356 3053 
L 1172 3053 
L 1172 1153 
Q 1172 725 1289 603 
Q 1406 481 1766 481 
L 2356 481 
L 2356 0 
L 1766 0 
Q 1100 0 847 248 
Q 594 497 594 1153 
L 594 3053 
L 172 3053 
L 172 3500 
L 594 3500 
L 594 4494 
L 1172 4494 
z
" transform="scale(0.015625)"/>
       <path id="DejaVuSans-69" d="M 603 3500 
L 1178 3500 
L 1178 0 
L 603 0 
L 603 3500 
z
M 603 4863 
L 1178 4863 
L 1178 4134 
L 603 4134 
L 603 4863 
z
" transform="scale(0.015625)"/>
       <path id="DejaVuSans-6c" d="M 603 4863 
L 1178 4863 
L 1178 0 
L 603 0 
L 603 4863 
z
" transform="scale(0.015625)"/>
       <path id="DejaVuSans-20" transform="scale(0.015625)"/>
       <path id="DejaVuSans-54" d="M -19 4666 
L 3928 4666 
L 3928 4134 
L 2272 4134 
L 2272 0 
L 1638 0 
L 1638 4134 
L -19 4134 
L -19 4666 
z
" transform="scale(0.015625)"/>
       <path id="DejaVuSans-68" d="M 3513 2113 
L 3513 0 
L 2938 0 
L 2938 2094 
Q 2938 2591 2744 2837 
Q 2550 3084 2163 3084 
Q 1697 3084 1428 2787 
Q 1159 2491 1159 1978 
L 1159 0 
L 581 0 
L 581 4863 
L 1159 4863 
L 1159 2956 
Q 1366 3272 1645 3428 
Q 1925 3584 2291 3584 
Q 2894 3584 3203 3211 
Q 3513 2838 3513 2113 
z
" transform="scale(0.015625)"/>
       <path id="DejaVuSans-73" d="M 2834 3397 
L 2834 2853 
Q 2591 2978 2328 3040 
Q 2066 3103 1784 3103 
Q 1356 3103 1142 2972 
Q 928 2841 928 2578 
Q 928 2378 1081 2264 
Q 1234 2150 1697 2047 
L 1894 2003 
Q 2506 1872 2764 1633 
Q 3022 1394 3022 966 
Q 3022 478 2636 193 
Q 2250 -91 1575 -91 
Q 1294 -91 989 -36 
Q 684 19 347 128 
L 347 722 
Q 666 556 975 473 
Q 1284 391 1588 391 
Q 1994 391 2212 530 
Q 2431 669 2431 922 
Q 2431 1156 2273 1281 
Q 2116 1406 1581 1522 
L 1381 1569 
Q 847 1681 609 1914 
Q 372 2147 372 2553 
Q 372 3047 722 3315 
Q 1072 3584 1716 3584 
Q 2034 3584 2315 3537 
Q 2597 3491 2834 3397 
z
" transform="scale(0.015625)"/>
       <path id="DejaVuSans-6f" d="M 1959 3097 
Q 1497 3097 1228 2736 
Q 959 2375 959 1747 
Q 959 1119 1226 758 
Q 1494 397 1959 397 
Q 2419 397 2687 759 
Q 2956 1122 2956 1747 
Q 2956 2369 2687 2733 
Q 2419 3097 1959 3097 
z
M 1959 3584 
Q 2709 3584 3137 3096 
Q 3566 2609 3566 1747 
Q 3566 888 3137 398 
Q 2709 -91 1959 -91 
Q 1206 -91 779 398 
Q 353 888 353 1747 
Q 353 2609 779 3096 
Q 1206 3584 1959 3584 
z
" transform="scale(0.015625)"/>
       <path id="DejaVuSans-64" d="M 2906 2969 
L 2906 4863 
L 3481 4863 
L 3481 0 
L 2906 0 
L 2906 525 
Q 2725 213 2448 61 
Q 2172 -91 1784 -91 
Q 1150 -91 751 415 
Q 353 922 353 1747 
Q 353 2572 751 3078 
Q 1150 3584 1784 3584 
Q 2172 3584 2448 3432 
Q 2725 3281 2906 2969 
z
M 947 1747 
Q 947 1113 1208 752 
Q 1469 391 1925 391 
Q 2381 391 2643 752 
Q 2906 1113 2906 1747 
Q 2906 2381 2643 2742 
Q 2381 3103 1925 3103 
Q 1469 3103 1208 2742 
Q 947 2381 947 1747 
z
" transform="scale(0.015625)"/>
      </defs>
      <use xlink:href="#DejaVuSans-50"/>
      <use xlink:href="#DejaVuSans-65" x="56.677734"/>
      <use xlink:href="#DejaVuSans-72" x="118.201172"/>
      <use xlink:href="#DejaVuSans-63" x="157.064453"/>
      <use xlink:href="#DejaVuSans-65" x="212.044922"/>
      <use xlink:href="#DejaVuSans-6e" x="273.568359"/>
      <use xlink:href="#DejaVuSans-74" x="336.947266"/>
      <use xlink:href="#DejaVuSans-69" x="376.15625"/>
      <use xlink:href="#DejaVuSans-6c" x="403.939453"/>
      <use xlink:href="#DejaVuSans-65" x="431.722656"/>
      <use xlink:href="#DejaVuSans-20" x="493.246094"/>
      <use xlink:href="#DejaVuSans-54" x="525.033203"/>
      <use xlink:href="#DejaVuSans-68" x="586.117188"/>
      <use xlink:href="#DejaVuSans-72" x="649.496094"/>
      <use xlink:href="#DejaVuSans-65" x="688.359375"/>
      <use xlink:href="#DejaVuSans-73" x="749.882812"/>
      <use xlink:href="#DejaVuSans-68" x="801.982422"/>
      <use xlink:href="#DejaVuSans-6f" x="865.361328"/>
      <use xlink:href="#DejaVuSans-6c" x="926.542969"/>
      <use xlink:href="#DejaVuSans-64" x="954.326172"/>
     </g>
     <!-- (Using "max_mean" Threshold Handling) -->
     <g transform="translate(400.740313 557.78075) scale(0.2 -0.2)">
      <defs>
       <path id="DejaVuSans-28" d="M 1984 4856 
Q 1566 4138 1362 3434 
Q 1159 2731 1159 2009 
Q 1159 1288 1364 580 
Q 1569 -128 1984 -844 
L 1484 -844 
Q 1016 -109 783 600 
Q 550 1309 550 2009 
Q 550 2706 781 3412 
Q 1013 4119 1484 4856 
L 1984 4856 
z
" transform="scale(0.015625)"/>
       <path id="DejaVuSans-55" d="M 556 4666 
L 1191 4666 
L 1191 1831 
Q 1191 1081 1462 751 
Q 1734 422 2344 422 
Q 2950 422 3222 751 
Q 3494 1081 3494 1831 
L 3494 4666 
L 4128 4666 
L 4128 1753 
Q 4128 841 3676 375 
Q 3225 -91 2344 -91 
Q 1459 -91 1007 375 
Q 556 841 556 1753 
L 556 4666 
z
" transform="scale(0.015625)"/>
       <path id="DejaVuSans-67" d="M 2906 1791 
Q 2906 2416 2648 2759 
Q 2391 3103 1925 3103 
Q 1463 3103 1205 2759 
Q 947 2416 947 1791 
Q 947 1169 1205 825 
Q 1463 481 1925 481 
Q 2391 481 2648 825 
Q 2906 1169 2906 1791 
z
M 3481 434 
Q 3481 -459 3084 -895 
Q 2688 -1331 1869 -1331 
Q 1566 -1331 1297 -1286 
Q 1028 -1241 775 -1147 
L 775 -588 
Q 1028 -725 1275 -790 
Q 1522 -856 1778 -856 
Q 2344 -856 2625 -561 
Q 2906 -266 2906 331 
L 2906 616 
Q 2728 306 2450 153 
Q 2172 0 1784 0 
Q 1141 0 747 490 
Q 353 981 353 1791 
Q 353 2603 747 3093 
Q 1141 3584 1784 3584 
Q 2172 3584 2450 3431 
Q 2728 3278 2906 2969 
L 2906 3500 
L 3481 3500 
L 3481 434 
z
" transform="scale(0.015625)"/>
       <path id="DejaVuSans-22" d="M 1147 4666 
L 1147 2931 
L 616 2931 
L 616 4666 
L 1147 4666 
z
M 2328 4666 
L 2328 2931 
L 1797 2931 
L 1797 4666 
L 2328 4666 
z
" transform="scale(0.015625)"/>
       <path id="DejaVuSans-6d" d="M 3328 2828 
Q 3544 3216 3844 3400 
Q 4144 3584 4550 3584 
Q 5097 3584 5394 3201 
Q 5691 2819 5691 2113 
L 5691 0 
L 5113 0 
L 5113 2094 
Q 5113 2597 4934 2840 
Q 4756 3084 4391 3084 
Q 3944 3084 3684 2787 
Q 3425 2491 3425 1978 
L 3425 0 
L 2847 0 
L 2847 2094 
Q 2847 2600 2669 2842 
Q 2491 3084 2119 3084 
Q 1678 3084 1418 2786 
Q 1159 2488 1159 1978 
L 1159 0 
L 581 0 
L 581 3500 
L 1159 3500 
L 1159 2956 
Q 1356 3278 1631 3431 
Q 1906 3584 2284 3584 
Q 2666 3584 2933 3390 
Q 3200 3197 3328 2828 
z
" transform="scale(0.015625)"/>
       <path id="DejaVuSans-61" d="M 2194 1759 
Q 1497 1759 1228 1600 
Q 959 1441 959 1056 
Q 959 750 1161 570 
Q 1363 391 1709 391 
Q 2188 391 2477 730 
Q 2766 1069 2766 1631 
L 2766 1759 
L 2194 1759 
z
M 3341 1997 
L 3341 0 
L 2766 0 
L 2766 531 
Q 2569 213 2275 61 
Q 1981 -91 1556 -91 
Q 1019 -91 701 211 
Q 384 513 384 1019 
Q 384 1609 779 1909 
Q 1175 2209 1959 2209 
L 2766 2209 
L 2766 2266 
Q 2766 2663 2505 2880 
Q 2244 3097 1772 3097 
Q 1472 3097 1187 3025 
Q 903 2953 641 2809 
L 641 3341 
Q 956 3463 1253 3523 
Q 1550 3584 1831 3584 
Q 2591 3584 2966 3190 
Q 3341 2797 3341 1997 
z
" transform="scale(0.015625)"/>
       <path id="DejaVuSans-78" d="M 3513 3500 
L 2247 1797 
L 3578 0 
L 2900 0 
L 1881 1375 
L 863 0 
L 184 0 
L 1544 1831 
L 300 3500 
L 978 3500 
L 1906 2253 
L 2834 3500 
L 3513 3500 
z
" transform="scale(0.015625)"/>
       <path id="DejaVuSans-5f" d="M 3263 -1063 
L 3263 -1509 
L -63 -1509 
L -63 -1063 
L 3263 -1063 
z
" transform="scale(0.015625)"/>
       <path id="DejaVuSans-48" d="M 628 4666 
L 1259 4666 
L 1259 2753 
L 3553 2753 
L 3553 4666 
L 4184 4666 
L 4184 0 
L 3553 0 
L 3553 2222 
L 1259 2222 
L 1259 0 
L 628 0 
L 628 4666 
z
" transform="scale(0.015625)"/>
       <path id="DejaVuSans-29" d="M 513 4856 
L 1013 4856 
Q 1481 4119 1714 3412 
Q 1947 2706 1947 2009 
Q 1947 1309 1714 600 
Q 1481 -109 1013 -844 
L 513 -844 
Q 928 -128 1133 580 
Q 1338 1288 1338 2009 
Q 1338 2731 1133 3434 
Q 928 4138 513 4856 
z
" transform="scale(0.015625)"/>
      </defs>
      <use xlink:href="#DejaVuSans-28"/>
      <use xlink:href="#DejaVuSans-55" x="39.013672"/>
      <use xlink:href="#DejaVuSans-73" x="112.207031"/>
      <use xlink:href="#DejaVuSans-69" x="164.306641"/>
      <use xlink:href="#DejaVuSans-6e" x="192.089844"/>
      <use xlink:href="#DejaVuSans-67" x="255.46875"/>
      <use xlink:href="#DejaVuSans-20" x="318.945312"/>
      <use xlink:href="#DejaVuSans-22" x="350.732422"/>
      <use xlink:href="#DejaVuSans-6d" x="396.728516"/>
      <use xlink:href="#DejaVuSans-61" x="494.140625"/>
      <use xlink:href="#DejaVuSans-78" x="555.419922"/>
      <use xlink:href="#DejaVuSans-5f" x="614.599609"/>
      <use xlink:href="#DejaVuSans-6d" x="664.599609"/>
      <use xlink:href="#DejaVuSans-65" x="762.011719"/>
      <use xlink:href="#DejaVuSans-61" x="823.535156"/>
      <use xlink:href="#DejaVuSans-6e" x="884.814453"/>
      <use xlink:href="#DejaVuSans-22" x="948.193359"/>
      <use xlink:href="#DejaVuSans-20" x="994.189453"/>
      <use xlink:href="#DejaVuSans-54" x="1025.976562"/>
      <use xlink:href="#DejaVuSans-68" x="1087.060547"/>
      <use xlink:href="#DejaVuSans-72" x="1150.439453"/>
      <use xlink:href="#DejaVuSans-65" x="1189.302734"/>
      <use xlink:href="#DejaVuSans-73" x="1250.826172"/>
      <use xlink:href="#DejaVuSans-68" x="1302.925781"/>
      <use xlink:href="#DejaVuSans-6f" x="1366.304688"/>
      <use xlink:href="#DejaVuSans-6c" x="1427.486328"/>
      <use xlink:href="#DejaVuSans-64" x="1455.269531"/>
      <use xlink:href="#DejaVuSans-20" x="1518.746094"/>
      <use xlink:href="#DejaVuSans-48" x="1550.533203"/>
      <use xlink:href="#DejaVuSans-61" x="1625.728516"/>
      <use xlink:href="#DejaVuSans-6e" x="1687.007812"/>
      <use xlink:href="#DejaVuSans-64" x="1750.386719"/>
      <use xlink:href="#DejaVuSans-6c" x="1813.863281"/>
      <use xlink:href="#DejaVuSans-69" x="1841.646484"/>
      <use xlink:href="#DejaVuSans-6e" x="1869.429688"/>
      <use xlink:href="#DejaVuSans-67" x="1932.808594"/>
      <use xlink:href="#DejaVuSans-29" x="1996.285156"/>
     </g>
    </g>
   </g>
   <g id="matplotlib.axis_2">
    <g id="ytick_1">
     <g id="line2d_6">
      <defs>
       <path id="m43e12db51b" d="M 0 0 
L -3.5 0 
" style="stroke: #000000; stroke-width: 0.8"/>
      </defs>
      <g>
       <use xlink:href="#m43e12db51b" x="67.34" y="475.157438" style="stroke: #000000; stroke-width: 0.8"/>
      </g>
     </g>
     <g id="text_7">
      <!-- 8 -->
      <g transform="translate(47.615 482.755875) scale(0.2 -0.2)">
       <use xlink:href="#DejaVuSans-38"/>
      </g>
     </g>
    </g>
    <g id="ytick_2">
     <g id="line2d_7">
      <g>
       <use xlink:href="#m43e12db51b" x="67.34" y="418.109025" style="stroke: #000000; stroke-width: 0.8"/>
      </g>
     </g>
     <g id="text_8">
      <!-- 9 -->
      <g transform="translate(47.615 425.707463) scale(0.2 -0.2)">
       <defs>
        <path id="DejaVuSans-39" d="M 703 97 
L 703 672 
Q 941 559 1184 500 
Q 1428 441 1663 441 
Q 2288 441 2617 861 
Q 2947 1281 2994 2138 
Q 2813 1869 2534 1725 
Q 2256 1581 1919 1581 
Q 1219 1581 811 2004 
Q 403 2428 403 3163 
Q 403 3881 828 4315 
Q 1253 4750 1959 4750 
Q 2769 4750 3195 4129 
Q 3622 3509 3622 2328 
Q 3622 1225 3098 567 
Q 2575 -91 1691 -91 
Q 1453 -91 1209 -44 
Q 966 3 703 97 
z
M 1959 2075 
Q 2384 2075 2632 2365 
Q 2881 2656 2881 3163 
Q 2881 3666 2632 3958 
Q 2384 4250 1959 4250 
Q 1534 4250 1286 3958 
Q 1038 3666 1038 3163 
Q 1038 2656 1286 2365 
Q 1534 2075 1959 2075 
z
" transform="scale(0.015625)"/>
       </defs>
       <use xlink:href="#DejaVuSans-39"/>
      </g>
     </g>
    </g>
    <g id="ytick_3">
     <g id="line2d_8">
      <g>
       <use xlink:href="#m43e12db51b" x="67.34" y="361.060613" style="stroke: #000000; stroke-width: 0.8"/>
      </g>
     </g>
     <g id="text_9">
      <!-- 10 -->
      <g transform="translate(34.89 368.65905) scale(0.2 -0.2)">
       <defs>
        <path id="DejaVuSans-31" d="M 794 531 
L 1825 531 
L 1825 4091 
L 703 3866 
L 703 4441 
L 1819 4666 
L 2450 4666 
L 2450 531 
L 3481 531 
L 3481 0 
L 794 0 
L 794 531 
z
" transform="scale(0.015625)"/>
       </defs>
       <use xlink:href="#DejaVuSans-31"/>
       <use xlink:href="#DejaVuSans-30" x="63.623047"/>
      </g>
     </g>
    </g>
    <g id="ytick_4">
     <g id="line2d_9">
      <g>
       <use xlink:href="#m43e12db51b" x="67.34" y="304.0122" style="stroke: #000000; stroke-width: 0.8"/>
      </g>
     </g>
     <g id="text_10">
      <!-- 11 -->
      <g transform="translate(34.89 311.610638) scale(0.2 -0.2)">
       <use xlink:href="#DejaVuSans-31"/>
       <use xlink:href="#DejaVuSans-31" x="63.623047"/>
      </g>
     </g>
    </g>
    <g id="ytick_5">
     <g id="line2d_10">
      <g>
       <use xlink:href="#m43e12db51b" x="67.34" y="246.963788" style="stroke: #000000; stroke-width: 0.8"/>
      </g>
     </g>
     <g id="text_11">
      <!-- 12 -->
      <g transform="translate(34.89 254.562225) scale(0.2 -0.2)">
       <use xlink:href="#DejaVuSans-31"/>
       <use xlink:href="#DejaVuSans-32" x="63.623047"/>
      </g>
     </g>
    </g>
    <g id="ytick_6">
     <g id="line2d_11">
      <g>
       <use xlink:href="#m43e12db51b" x="67.34" y="189.915375" style="stroke: #000000; stroke-width: 0.8"/>
      </g>
     </g>
     <g id="text_12">
      <!-- 13 -->
      <g transform="translate(34.89 197.513813) scale(0.2 -0.2)">
       <defs>
        <path id="DejaVuSans-33" d="M 2597 2516 
Q 3050 2419 3304 2112 
Q 3559 1806 3559 1356 
Q 3559 666 3084 287 
Q 2609 -91 1734 -91 
Q 1441 -91 1130 -33 
Q 819 25 488 141 
L 488 750 
Q 750 597 1062 519 
Q 1375 441 1716 441 
Q 2309 441 2620 675 
Q 2931 909 2931 1356 
Q 2931 1769 2642 2001 
Q 2353 2234 1838 2234 
L 1294 2234 
L 1294 2753 
L 1863 2753 
Q 2328 2753 2575 2939 
Q 2822 3125 2822 3475 
Q 2822 3834 2567 4026 
Q 2313 4219 1838 4219 
Q 1578 4219 1281 4162 
Q 984 4106 628 3988 
L 628 4550 
Q 988 4650 1302 4700 
Q 1616 4750 1894 4750 
Q 2613 4750 3031 4423 
Q 3450 4097 3450 3541 
Q 3450 3153 3228 2886 
Q 3006 2619 2597 2516 
z
" transform="scale(0.015625)"/>
       </defs>
       <use xlink:href="#DejaVuSans-31"/>
       <use xlink:href="#DejaVuSans-33" x="63.623047"/>
      </g>
     </g>
    </g>
    <g id="ytick_7">
     <g id="line2d_12">
      <g>
       <use xlink:href="#m43e12db51b" x="67.34" y="132.866963" style="stroke: #000000; stroke-width: 0.8"/>
      </g>
     </g>
     <g id="text_13">
      <!-- 14 -->
      <g transform="translate(34.89 140.4654) scale(0.2 -0.2)">
       <use xlink:href="#DejaVuSans-31"/>
       <use xlink:href="#DejaVuSans-34" x="63.623047"/>
      </g>
     </g>
    </g>
    <g id="ytick_8">
     <g id="line2d_13">
      <g>
       <use xlink:href="#m43e12db51b" x="67.34" y="75.81855" style="stroke: #000000; stroke-width: 0.8"/>
      </g>
     </g>
     <g id="text_14">
      <!-- 15 -->
      <g transform="translate(34.89 83.416988) scale(0.2 -0.2)">
       <defs>
        <path id="DejaVuSans-35" d="M 691 4666 
L 3169 4666 
L 3169 4134 
L 1269 4134 
L 1269 2991 
Q 1406 3038 1543 3061 
Q 1681 3084 1819 3084 
Q 2600 3084 3056 2656 
Q 3513 2228 3513 1497 
Q 3513 744 3044 326 
Q 2575 -91 1722 -91 
Q 1428 -91 1123 -41 
Q 819 9 494 109 
L 494 744 
Q 775 591 1075 516 
Q 1375 441 1709 441 
Q 2250 441 2565 725 
Q 2881 1009 2881 1497 
Q 2881 1984 2565 2268 
Q 2250 2553 1709 2553 
Q 1456 2553 1204 2497 
Q 953 2441 691 2322 
L 691 4666 
z
" transform="scale(0.015625)"/>
       </defs>
       <use xlink:href="#DejaVuSans-31"/>
       <use xlink:href="#DejaVuSans-35" x="63.623047"/>
      </g>
     </g>
    </g>
    <g id="ytick_9">
     <g id="line2d_14">
      <g>
       <use xlink:href="#m43e12db51b" x="67.34" y="18.770138" style="stroke: #000000; stroke-width: 0.8"/>
      </g>
     </g>
     <g id="text_15">
      <!-- 16 -->
      <g transform="translate(34.89 26.368575) scale(0.2 -0.2)">
       <use xlink:href="#DejaVuSans-31"/>
       <use xlink:href="#DejaVuSans-36" x="63.623047"/>
      </g>
     </g>
    </g>
    <g id="text_16">
     <!-- RMSE -->
     <g transform="translate(26.730625 282.127917) rotate(-90) scale(0.2 -0.2)">
      <defs>
       <path id="DejaVuSans-52" d="M 2841 2188 
Q 3044 2119 3236 1894 
Q 3428 1669 3622 1275 
L 4263 0 
L 3584 0 
L 2988 1197 
Q 2756 1666 2539 1819 
Q 2322 1972 1947 1972 
L 1259 1972 
L 1259 0 
L 628 0 
L 628 4666 
L 2053 4666 
Q 2853 4666 3247 4331 
Q 3641 3997 3641 3322 
Q 3641 2881 3436 2590 
Q 3231 2300 2841 2188 
z
M 1259 4147 
L 1259 2491 
L 2053 2491 
Q 2509 2491 2742 2702 
Q 2975 2913 2975 3322 
Q 2975 3731 2742 3939 
Q 2509 4147 2053 4147 
L 1259 4147 
z
" transform="scale(0.015625)"/>
       <path id="DejaVuSans-4d" d="M 628 4666 
L 1569 4666 
L 2759 1491 
L 3956 4666 
L 4897 4666 
L 4897 0 
L 4281 0 
L 4281 4097 
L 3078 897 
L 2444 897 
L 1241 4097 
L 1241 0 
L 628 0 
L 628 4666 
z
" transform="scale(0.015625)"/>
       <path id="DejaVuSans-53" d="M 3425 4513 
L 3425 3897 
Q 3066 4069 2747 4153 
Q 2428 4238 2131 4238 
Q 1616 4238 1336 4038 
Q 1056 3838 1056 3469 
Q 1056 3159 1242 3001 
Q 1428 2844 1947 2747 
L 2328 2669 
Q 3034 2534 3370 2195 
Q 3706 1856 3706 1288 
Q 3706 609 3251 259 
Q 2797 -91 1919 -91 
Q 1588 -91 1214 -16 
Q 841 59 441 206 
L 441 856 
Q 825 641 1194 531 
Q 1563 422 1919 422 
Q 2459 422 2753 634 
Q 3047 847 3047 1241 
Q 3047 1584 2836 1778 
Q 2625 1972 2144 2069 
L 1759 2144 
Q 1053 2284 737 2584 
Q 422 2884 422 3419 
Q 422 4038 858 4394 
Q 1294 4750 2059 4750 
Q 2388 4750 2728 4690 
Q 3069 4631 3425 4513 
z
" transform="scale(0.015625)"/>
       <path id="DejaVuSans-45" d="M 628 4666 
L 3578 4666 
L 3578 4134 
L 1259 4134 
L 1259 2753 
L 3481 2753 
L 3481 2222 
L 1259 2222 
L 1259 531 
L 3634 531 
L 3634 0 
L 628 0 
L 628 4666 
z
" transform="scale(0.015625)"/>
      </defs>
      <use xlink:href="#DejaVuSans-52"/>
      <use xlink:href="#DejaVuSans-4d" x="69.482422"/>
      <use xlink:href="#DejaVuSans-53" x="155.761719"/>
      <use xlink:href="#DejaVuSans-45" x="219.238281"/>
     </g>
    </g>
   </g>
   <g id="line2d_15">
    <path d="M 116.151818 434.874084 
L 136.922805 451.986143 
L 157.693791 449.630497 
L 178.464778 438.965908 
L 199.235764 432.938316 
L 220.00675 451.636493 
L 240.777737 442.821105 
L 261.548723 445.003567 
L 282.31971 429.933319 
L 303.090696 434.532748 
L 323.861683 428.23275 
L 344.632669 425.09895 
L 365.403656 431.348457 
L 386.174642 445.709957 
L 406.945629 439.32952 
L 427.716615 439.910323 
L 448.487602 443.586844 
L 469.258588 438.600175 
L 490.029574 422.581718 
L 510.800561 436.224914 
L 531.571547 431.891195 
L 552.342534 424.929094 
L 573.11352 434.377345 
L 593.884507 432.620789 
L 614.655493 432.078113 
L 635.42648 437.525745 
L 656.197466 436.08661 
L 676.968453 432.987133 
L 697.739439 427.971194 
L 718.510426 439.047231 
L 739.281412 439.746903 
L 760.052398 432.342681 
L 780.823385 435.669368 
L 801.594371 426.766026 
L 822.365358 421.41052 
L 843.136344 427.306096 
L 863.907331 438.201563 
L 884.678317 431.693773 
L 905.449304 432.294093 
L 926.22029 441.165675 
L 946.991277 441.165675 
L 967.762263 444.237062 
L 988.53325 441.165675 
L 1009.304236 441.165675 
L 1030.075222 441.165675 
L 1050.846209 441.165675 
L 1071.617195 441.165675 
L 1092.388182 441.165675 
" clip-path="url(#p62513b442f)" style="fill: none; stroke: #f77189; stroke-width: 1.5; stroke-linecap: square"/>
   </g>
   <g id="line2d_16">
    <path d="M 116.151818 435.180589 
L 136.922805 444.827029 
L 157.693791 449.228586 
L 178.464778 444.339227 
L 199.235764 442.624039 
L 220.00675 448.773051 
L 240.777737 438.136762 
L 261.548723 435.398822 
L 282.31971 420.411156 
L 303.090696 432.926069 
L 323.861683 428.041891 
L 344.632669 421.033434 
L 365.403656 428.687092 
L 386.174642 438.589498 
L 406.945629 435.956379 
L 427.716615 444.129893 
L 448.487602 440.146509 
L 469.258588 428.190531 
L 490.029574 416.185013 
L 510.800561 426.912299 
L 531.571547 418.895771 
L 552.342534 416.987078 
L 573.11352 423.136386 
L 593.884507 420.218633 
L 614.655493 424.467179 
L 635.42648 422.532837 
L 656.197466 423.77234 
L 676.968453 423.370594 
L 697.739439 417.912961 
L 718.510426 424.89811 
L 739.281412 425.968438 
L 760.052398 425.072893 
L 780.823385 432.309508 
L 801.594371 423.490045 
L 822.365358 424.641227 
L 843.136344 421.417779 
L 863.907331 424.315706 
L 884.678317 431.348373 
L 905.449304 429.976262 
L 926.22029 434.648499 
L 946.991277 434.648499 
L 967.762263 431.977106 
L 988.53325 434.648499 
L 1009.304236 434.648499 
L 1030.075222 434.648499 
L 1050.846209 434.648499 
L 1071.617195 434.648499 
L 1092.388182 434.648499 
" clip-path="url(#p62513b442f)" style="fill: none; stroke: #e18632; stroke-width: 1.5; stroke-linecap: square"/>
   </g>
   <g id="line2d_17">
    <path d="M 116.151818 391.595752 
L 136.922805 402.811979 
L 157.693791 408.279956 
L 178.464778 383.413807 
L 199.235764 406.234094 
L 220.00675 410.034372 
L 240.777737 405.409055 
L 261.548723 401.453651 
L 282.31971 381.501591 
L 303.090696 378.165435 
L 323.861683 381.467467 
L 344.632669 379.75902 
L 365.403656 379.535167 
L 386.174642 405.22502 
L 406.945629 409.336692 
L 427.716615 408.990258 
L 448.487602 393.539521 
L 469.258588 384.198691 
L 490.029574 370.497732 
L 510.800561 388.674411 
L 531.571547 382.509337 
L 552.342534 380.182546 
L 573.11352 393.322543 
L 593.884507 392.882579 
L 614.655493 397.028474 
L 635.42648 394.579352 
L 656.197466 393.341905 
L 676.968453 392.458893 
L 697.739439 388.074443 
L 718.510426 396.807931 
L 739.281412 395.685819 
L 760.052398 397.28396 
L 780.823385 395.345599 
L 801.594371 387.165734 
L 822.365358 382.012907 
L 843.136344 380.67923 
L 863.907331 388.298678 
L 884.678317 386.726394 
L 905.449304 387.319237 
L 926.22029 388.579946 
L 946.991277 388.579946 
L 967.762263 392.50419 
L 988.53325 388.579946 
L 1009.304236 388.579946 
L 1030.075222 388.579946 
L 1050.846209 388.579946 
L 1071.617195 388.579946 
L 1092.388182 388.579946 
" clip-path="url(#p62513b442f)" style="fill: none; stroke: #b59a32; stroke-width: 1.5; stroke-linecap: square"/>
   </g>
   <g id="line2d_18">
    <path d="M 116.151818 407.953731 
L 136.922805 422.15335 
L 157.693791 415.290997 
L 178.464778 421.78699 
L 199.235764 410.54583 
L 220.00675 411.118339 
L 240.777737 414.875957 
L 261.548723 405.096714 
L 282.31971 404.986778 
L 303.090696 401.328537 
L 323.861683 397.291152 
L 344.632669 400.032369 
L 365.403656 395.867066 
L 386.174642 408.302614 
L 406.945629 380.762097 
L 427.716615 404.960958 
L 448.487602 404.215863 
L 469.258588 397.015402 
L 490.029574 384.832178 
L 510.800561 403.439536 
L 531.571547 398.396483 
L 552.342534 392.551866 
L 573.11352 405.150128 
L 593.884507 406.381403 
L 614.655493 405.737818 
L 635.42648 400.328427 
L 656.197466 396.735316 
L 676.968453 405.142207 
L 697.739439 391.061427 
L 718.510426 401.96905 
L 739.281412 401.884922 
L 760.052398 416.631604 
L 780.823385 412.772011 
L 801.594371 405.66704 
L 822.365358 420.019766 
L 843.136344 397.582605 
L 863.907331 398.220947 
L 884.678317 419.247564 
L 905.449304 425.351637 
L 926.22029 407.459482 
L 946.991277 407.459482 
L 967.762263 412.428995 
L 988.53325 407.459482 
L 1009.304236 407.459482 
L 1030.075222 407.459482 
L 1050.846209 407.459482 
L 1071.617195 407.459482 
L 1092.388182 407.459482 
" clip-path="url(#p62513b442f)" style="fill: none; stroke: #8ba731; stroke-width: 1.5; stroke-linecap: square"/>
   </g>
   <g id="line2d_19">
    <path d="M 116.151818 197.652723 
L 136.922805 197.547367 
L 157.693791 214.309053 
L 178.464778 150.045016 
L 199.235764 174.905708 
L 220.00675 248.455107 
L 240.777737 206.131991 
L 261.548723 224.020224 
L 282.31971 126.855981 
L 303.090696 145.823241 
L 323.861683 150.187305 
L 344.632669 117.155957 
L 365.403656 182.062911 
L 386.174642 195.110688 
L 406.945629 186.931584 
L 427.716615 166.674083 
L 448.487602 154.033151 
L 469.258588 139.195971 
L 490.029574 133.83366 
L 510.800561 149.90778 
L 531.571547 151.164442 
L 552.342534 148.588832 
L 573.11352 161.951941 
L 593.884507 161.997264 
L 614.655493 162.882557 
L 635.42648 167.626718 
L 656.197466 167.523009 
L 676.968453 160.231136 
L 697.739439 158.072036 
L 718.510426 171.282898 
L 739.281412 172.33743 
L 760.052398 177.22684 
L 780.823385 192.023365 
L 801.594371 184.857698 
L 822.365358 158.219526 
L 843.136344 151.770372 
L 863.907331 143.454159 
L 884.678317 146.776127 
L 905.449304 163.207571 
L 926.22029 180.078012 
L 946.991277 180.078012 
L 967.762263 185.733893 
L 988.53325 180.078012 
L 1009.304236 180.078012 
L 1030.075222 180.078012 
L 1050.846209 180.078012 
L 1071.617195 180.078012 
L 1092.388182 180.078012 
" clip-path="url(#p62513b442f)" style="fill: none; stroke: #32b258; stroke-width: 1.5; stroke-linecap: square"/>
   </g>
   <g id="line2d_20">
    <path d="M 116.151818 338.926679 
L 136.922805 344.491617 
L 157.693791 352.117248 
L 178.464778 338.655095 
L 199.235764 339.90755 
L 220.00675 338.811643 
L 240.777737 339.628846 
L 261.548723 337.130736 
L 282.31971 328.449485 
L 303.090696 339.950608 
L 323.861683 339.850065 
L 344.632669 343.281645 
L 365.403656 339.368506 
L 386.174642 352.158684 
L 406.945629 347.090359 
L 427.716615 349.665843 
L 448.487602 344.036095 
L 469.258588 328.303382 
L 490.029574 314.683855 
L 510.800561 344.217187 
L 531.571547 338.075658 
L 552.342534 334.839077 
L 573.11352 334.083377 
L 593.884507 337.445613 
L 614.655493 335.157521 
L 635.42648 336.167726 
L 656.197466 333.900444 
L 676.968453 336.833439 
L 697.739439 335.38901 
L 718.510426 338.492828 
L 739.281412 335.180324 
L 760.052398 336.656097 
L 780.823385 335.225166 
L 801.594371 346.776508 
L 822.365358 341.80501 
L 843.136344 334.25472 
L 863.907331 338.361397 
L 884.678317 332.952294 
L 905.449304 336.341933 
L 926.22029 336.974041 
L 946.991277 336.974041 
L 967.762263 336.757194 
L 988.53325 336.974041 
L 1009.304236 336.974041 
L 1030.075222 336.974041 
L 1050.846209 336.974041 
L 1071.617195 336.974041 
L 1092.388182 336.974041 
" clip-path="url(#p62513b442f)" style="fill: none; stroke: #35ae95; stroke-width: 1.5; stroke-linecap: square"/>
   </g>
   <g id="line2d_21">
    <path d="M 116.151818 275.456061 
L 136.922805 274.457411 
L 157.693791 282.348277 
L 178.464778 276.631203 
L 199.235764 276.086929 
L 220.00675 283.497966 
L 240.777737 278.102505 
L 261.548723 273.54927 
L 282.31971 270.390749 
L 303.090696 263.490729 
L 323.861683 265.263005 
L 344.632669 261.764116 
L 365.403656 270.293712 
L 386.174642 276.986272 
L 406.945629 275.621037 
L 427.716615 279.767013 
L 448.487602 278.421222 
L 469.258588 267.08788 
L 490.029574 260.743913 
L 510.800561 272.194161 
L 531.571547 269.851862 
L 552.342534 267.132631 
L 573.11352 270.744453 
L 593.884507 270.647608 
L 614.655493 270.218402 
L 635.42648 269.552378 
L 656.197466 270.028729 
L 676.968453 271.436288 
L 697.739439 269.22369 
L 718.510426 275.845328 
L 739.281412 274.067951 
L 760.052398 274.630745 
L 780.823385 270.018564 
L 801.594371 275.835754 
L 822.365358 272.94949 
L 843.136344 272.379778 
L 863.907331 274.621998 
L 884.678317 272.135921 
L 905.449304 272.027975 
L 926.22029 276.158606 
L 946.991277 276.158606 
L 967.762263 276.009083 
L 988.53325 276.158606 
L 1009.304236 276.158606 
L 1030.075222 276.158606 
L 1050.846209 276.158606 
L 1071.617195 276.158606 
L 1092.388182 276.158606 
" clip-path="url(#p62513b442f)" style="fill: none; stroke: #37abb2; stroke-width: 1.5; stroke-linecap: square"/>
   </g>
   <g id="line2d_22">
    <path d="M 116.151818 275.49255 
L 136.922805 274.481953 
L 157.693791 282.408785 
L 178.464778 276.676049 
L 199.235764 276.152164 
L 220.00675 283.545666 
L 240.777737 278.125858 
L 261.548723 273.575338 
L 282.31971 270.445882 
L 303.090696 263.532862 
L 323.861683 265.299881 
L 344.632669 261.796256 
L 365.403656 270.352728 
L 386.174642 277.059938 
L 406.945629 275.667591 
L 427.716615 279.822866 
L 448.487602 278.44488 
L 469.258588 267.127072 
L 490.029574 260.810864 
L 510.800561 272.233874 
L 531.571547 269.899137 
L 552.342534 267.170764 
L 573.11352 270.791564 
L 593.884507 270.700542 
L 614.655493 270.260001 
L 635.42648 269.608663 
L 656.197466 270.082991 
L 676.968453 271.490312 
L 697.739439 269.276214 
L 718.510426 275.901675 
L 739.281412 274.110205 
L 760.052398 274.665223 
L 780.823385 270.04078 
L 801.594371 275.876282 
L 822.365358 273.001883 
L 843.136344 272.402441 
L 863.907331 274.687441 
L 884.678317 272.169245 
L 905.449304 272.061315 
L 926.22029 276.212986 
L 946.991277 276.212986 
L 967.762263 276.069843 
L 988.53325 276.212986 
L 1009.304236 276.212986 
L 1030.075222 276.212986 
L 1050.846209 276.212986 
L 1071.617195 276.212986 
L 1092.388182 276.212986 
" clip-path="url(#p62513b442f)" style="fill: none; stroke: #39a7d6; stroke-width: 1.5; stroke-linecap: square"/>
   </g>
   <g id="line2d_23">
    <path d="M 116.151818 169.439817 
L 136.922805 153.735602 
L 157.693791 177.273211 
L 178.464778 92.190887 
L 199.235764 132.416343 
L 220.00675 217.144967 
L 240.777737 161.910325 
L 261.548723 185.852213 
L 282.31971 103.161804 
L 303.090696 111.49228 
L 323.861683 123.038693 
L 344.632669 97.485192 
L 365.403656 155.83503 
L 386.174642 161.102554 
L 406.945629 147.107176 
L 427.716615 132.067428 
L 448.487602 105.448658 
L 469.258588 98.091545 
L 490.029574 73.773985 
L 510.800561 123.569158 
L 531.571547 125.509347 
L 552.342534 122.066341 
L 573.11352 114.611923 
L 593.884507 120.684179 
L 614.655493 129.991775 
L 635.42648 129.094681 
L 656.197466 118.402481 
L 676.968453 114.675473 
L 697.739439 121.508279 
L 718.510426 136.261101 
L 739.281412 140.281922 
L 760.052398 136.976197 
L 780.823385 141.420352 
L 801.594371 160.371404 
L 822.365358 112.894264 
L 843.136344 127.748125 
L 863.907331 115.734788 
L 884.678317 100.854865 
L 905.449304 116.477403 
L 926.22029 136.861347 
L 946.991277 136.861347 
L 967.762263 142.396961 
L 988.53325 136.861347 
L 1009.304236 136.861347 
L 1030.075222 136.861347 
L 1050.846209 136.861347 
L 1071.617195 136.861347 
L 1092.388182 136.861347 
" clip-path="url(#p62513b442f)" style="fill: none; stroke: #8f93f4; stroke-width: 1.5; stroke-linecap: square"/>
   </g>
   <g id="line2d_24">
    <path d="M 116.151818 248.972273 
L 136.922805 263.722153 
L 157.693791 272.009874 
L 178.464778 261.491922 
L 199.235764 268.306095 
L 220.00675 267.624587 
L 240.777737 269.180419 
L 261.548723 269.410303 
L 282.31971 259.14722 
L 303.090696 243.704788 
L 323.861683 250.996729 
L 344.632669 253.107565 
L 365.403656 257.80511 
L 386.174642 266.334247 
L 406.945629 253.859452 
L 427.716615 256.458401 
L 448.487602 261.702845 
L 469.258588 249.630798 
L 490.029574 242.696066 
L 510.800561 251.6978 
L 531.571547 242.453442 
L 552.342534 232.984838 
L 573.11352 246.042837 
L 593.884507 238.544251 
L 614.655493 242.28181 
L 635.42648 238.420727 
L 656.197466 241.786421 
L 676.968453 238.372915 
L 697.739439 240.329408 
L 718.510426 246.378182 
L 739.281412 242.346042 
L 760.052398 247.901753 
L 780.823385 240.194039 
L 801.594371 249.904652 
L 822.365358 258.088729 
L 843.136344 236.993479 
L 863.907331 244.168343 
L 884.678317 249.274884 
L 905.449304 236.266836 
L 926.22029 235.092003 
L 946.991277 235.092003 
L 967.762263 236.166811 
L 988.53325 235.092003 
L 1009.304236 235.092003 
L 1030.075222 235.092003 
L 1050.846209 235.092003 
L 1071.617195 235.092003 
L 1092.388182 235.092003 
" clip-path="url(#p62513b442f)" style="fill: none; stroke: #db70f4; stroke-width: 1.5; stroke-linecap: square"/>
   </g>
   <g id="line2d_25">
    <path d="M 116.151818 118.388521 
L 136.922805 106.697395 
L 157.693791 120.562797 
L 178.464778 104.361582 
L 199.235764 120.802584 
L 220.00675 101.790344 
L 240.777737 122.218031 
L 261.548723 114.905925 
L 282.31971 91.267102 
L 303.090696 129.651849 
L 323.861683 123.449638 
L 344.632669 113.659436 
L 365.403656 118.656049 
L 386.174642 115.44506 
L 406.945629 108.379438 
L 427.716615 112.409396 
L 448.487602 122.211046 
L 469.258588 87.312069 
L 490.029574 77.305513 
L 510.800561 122.784753 
L 531.571547 109.745816 
L 552.342534 116.349797 
L 573.11352 104.876054 
L 593.884507 110.928412 
L 614.655493 111.923423 
L 635.42648 118.660823 
L 656.197466 120.892525 
L 676.968453 127.694488 
L 697.739439 118.884129 
L 718.510426 132.960632 
L 739.281412 127.725982 
L 760.052398 120.779649 
L 780.823385 127.415829 
L 801.594371 127.173577 
L 822.365358 130.574057 
L 843.136344 113.544673 
L 863.907331 111.185571 
L 884.678317 112.424125 
L 905.449304 126.336002 
L 926.22029 126.47985 
L 946.991277 126.47985 
L 967.762263 128.173626 
L 988.53325 126.47985 
L 1009.304236 126.47985 
L 1030.075222 126.47985 
L 1050.846209 126.47985 
L 1071.617195 126.47985 
L 1092.388182 126.47985 
" clip-path="url(#p62513b442f)" style="fill: none; stroke: #f667c6; stroke-width: 1.5; stroke-linecap: square"/>
   </g>
   <g id="line2d_26"/>
   <g id="line2d_27"/>
   <g id="line2d_28"/>
   <g id="line2d_29"/>
   <g id="line2d_30"/>
   <g id="line2d_31"/>
   <g id="line2d_32"/>
   <g id="line2d_33"/>
   <g id="line2d_34"/>
   <g id="line2d_35"/>
   <g id="line2d_36"/>
   <g id="patch_3">
    <path d="M 67.34 489.832 
L 67.34 17.936334 
" style="fill: none; stroke: #000000; stroke-width: 0.8; stroke-linejoin: miter; stroke-linecap: square"/>
   </g>
   <g id="patch_4">
    <path d="M 1141.2 489.832 
L 1141.2 17.936334 
" style="fill: none; stroke: #000000; stroke-width: 0.8; stroke-linejoin: miter; stroke-linecap: square"/>
   </g>
   <g id="patch_5">
    <path d="M 67.34 489.832 
L 1141.2 489.832 
" style="fill: none; stroke: #000000; stroke-width: 0.8; stroke-linejoin: miter; stroke-linecap: square"/>
   </g>
   <g id="patch_6">
    <path d="M 67.34 17.936334 
L 1141.2 17.936334 
" style="fill: none; stroke: #000000; stroke-width: 0.8; stroke-linejoin: miter; stroke-linecap: square"/>
   </g>
   <g id="legend_1">
    <g id="patch_7">
     <path d="M 78.54 481.832 
L 248.285 481.832 
Q 251.485 481.832 251.485 478.632 
L 251.485 221.897 
Q 251.485 218.697 248.285 218.697 
L 78.54 218.697 
Q 75.34 218.697 75.34 221.897 
L 75.34 478.632 
Q 75.34 481.832 78.54 481.832 
z
" style="fill: #ffffff; opacity: 0.8; stroke: #cccccc; stroke-linejoin: miter"/>
    </g>
    <g id="line2d_37">
     <path d="M 81.74 231.6545 
L 97.74 231.6545 
L 113.74 231.6545 
" style="fill: none; stroke: #f77189; stroke-width: 1.5; stroke-linecap: square"/>
    </g>
    <g id="text_17">
     <!-- gbr -->
     <g transform="translate(126.54 237.2545) scale(0.16 -0.16)">
      <defs>
       <path id="DejaVuSans-62" d="M 3116 1747 
Q 3116 2381 2855 2742 
Q 2594 3103 2138 3103 
Q 1681 3103 1420 2742 
Q 1159 2381 1159 1747 
Q 1159 1113 1420 752 
Q 1681 391 2138 391 
Q 2594 391 2855 752 
Q 3116 1113 3116 1747 
z
M 1159 2969 
Q 1341 3281 1617 3432 
Q 1894 3584 2278 3584 
Q 2916 3584 3314 3078 
Q 3713 2572 3713 1747 
Q 3713 922 3314 415 
Q 2916 -91 2278 -91 
Q 1894 -91 1617 61 
Q 1341 213 1159 525 
L 1159 0 
L 581 0 
L 581 4863 
L 1159 4863 
L 1159 2969 
z
" transform="scale(0.015625)"/>
      </defs>
      <use xlink:href="#DejaVuSans-67"/>
      <use xlink:href="#DejaVuSans-62" x="63.476562"/>
      <use xlink:href="#DejaVuSans-72" x="126.953125"/>
     </g>
    </g>
    <g id="line2d_38">
     <path d="M 81.74 255.1395 
L 97.74 255.1395 
L 113.74 255.1395 
" style="fill: none; stroke: #e18632; stroke-width: 1.5; stroke-linecap: square"/>
    </g>
    <g id="text_18">
     <!-- lgbm -->
     <g transform="translate(126.54 260.7395) scale(0.16 -0.16)">
      <use xlink:href="#DejaVuSans-6c"/>
      <use xlink:href="#DejaVuSans-67" x="27.783203"/>
      <use xlink:href="#DejaVuSans-62" x="91.259766"/>
      <use xlink:href="#DejaVuSans-6d" x="154.736328"/>
     </g>
    </g>
    <g id="line2d_39">
     <path d="M 81.74 278.6245 
L 97.74 278.6245 
L 113.74 278.6245 
" style="fill: none; stroke: #b59a32; stroke-width: 1.5; stroke-linecap: square"/>
    </g>
    <g id="text_19">
     <!-- rf -->
     <g transform="translate(126.54 284.2245) scale(0.16 -0.16)">
      <defs>
       <path id="DejaVuSans-66" d="M 2375 4863 
L 2375 4384 
L 1825 4384 
Q 1516 4384 1395 4259 
Q 1275 4134 1275 3809 
L 1275 3500 
L 2222 3500 
L 2222 3053 
L 1275 3053 
L 1275 0 
L 697 0 
L 697 3053 
L 147 3053 
L 147 3500 
L 697 3500 
L 697 3744 
Q 697 4328 969 4595 
Q 1241 4863 1831 4863 
L 2375 4863 
z
" transform="scale(0.015625)"/>
      </defs>
      <use xlink:href="#DejaVuSans-72"/>
      <use xlink:href="#DejaVuSans-66" x="41.113281"/>
     </g>
    </g>
    <g id="line2d_40">
     <path d="M 81.74 302.1095 
L 97.74 302.1095 
L 113.74 302.1095 
" style="fill: none; stroke: #8ba731; stroke-width: 1.5; stroke-linecap: square"/>
    </g>
    <g id="text_20">
     <!-- xgb -->
     <g transform="translate(126.54 307.7095) scale(0.16 -0.16)">
      <use xlink:href="#DejaVuSans-78"/>
      <use xlink:href="#DejaVuSans-67" x="59.179688"/>
      <use xlink:href="#DejaVuSans-62" x="122.65625"/>
     </g>
    </g>
    <g id="line2d_41">
     <path d="M 81.74 325.5945 
L 97.74 325.5945 
L 113.74 325.5945 
" style="fill: none; stroke: #32b258; stroke-width: 1.5; stroke-linecap: square"/>
    </g>
    <g id="text_21">
     <!-- et -->
     <g transform="translate(126.54 331.1945) scale(0.16 -0.16)">
      <use xlink:href="#DejaVuSans-65"/>
      <use xlink:href="#DejaVuSans-74" x="61.523438"/>
     </g>
    </g>
    <g id="line2d_42">
     <path d="M 81.74 349.0795 
L 97.74 349.0795 
L 113.74 349.0795 
" style="fill: none; stroke: #35ae95; stroke-width: 1.5; stroke-linecap: square"/>
    </g>
    <g id="text_22">
     <!-- BayesianRidge -->
     <g transform="translate(126.54 354.6795) scale(0.16 -0.16)">
      <defs>
       <path id="DejaVuSans-42" d="M 1259 2228 
L 1259 519 
L 2272 519 
Q 2781 519 3026 730 
Q 3272 941 3272 1375 
Q 3272 1813 3026 2020 
Q 2781 2228 2272 2228 
L 1259 2228 
z
M 1259 4147 
L 1259 2741 
L 2194 2741 
Q 2656 2741 2882 2914 
Q 3109 3088 3109 3444 
Q 3109 3797 2882 3972 
Q 2656 4147 2194 4147 
L 1259 4147 
z
M 628 4666 
L 2241 4666 
Q 2963 4666 3353 4366 
Q 3744 4066 3744 3513 
Q 3744 3084 3544 2831 
Q 3344 2578 2956 2516 
Q 3422 2416 3680 2098 
Q 3938 1781 3938 1306 
Q 3938 681 3513 340 
Q 3088 0 2303 0 
L 628 0 
L 628 4666 
z
" transform="scale(0.015625)"/>
       <path id="DejaVuSans-79" d="M 2059 -325 
Q 1816 -950 1584 -1140 
Q 1353 -1331 966 -1331 
L 506 -1331 
L 506 -850 
L 844 -850 
Q 1081 -850 1212 -737 
Q 1344 -625 1503 -206 
L 1606 56 
L 191 3500 
L 800 3500 
L 1894 763 
L 2988 3500 
L 3597 3500 
L 2059 -325 
z
" transform="scale(0.015625)"/>
      </defs>
      <use xlink:href="#DejaVuSans-42"/>
      <use xlink:href="#DejaVuSans-61" x="68.603516"/>
      <use xlink:href="#DejaVuSans-79" x="129.882812"/>
      <use xlink:href="#DejaVuSans-65" x="189.0625"/>
      <use xlink:href="#DejaVuSans-73" x="250.585938"/>
      <use xlink:href="#DejaVuSans-69" x="302.685547"/>
      <use xlink:href="#DejaVuSans-61" x="330.46875"/>
      <use xlink:href="#DejaVuSans-6e" x="391.748047"/>
      <use xlink:href="#DejaVuSans-52" x="455.126953"/>
      <use xlink:href="#DejaVuSans-69" x="524.609375"/>
      <use xlink:href="#DejaVuSans-64" x="552.392578"/>
      <use xlink:href="#DejaVuSans-67" x="615.869141"/>
      <use xlink:href="#DejaVuSans-65" x="679.345703"/>
     </g>
    </g>
    <g id="line2d_43">
     <path d="M 81.74 372.5645 
L 97.74 372.5645 
L 113.74 372.5645 
" style="fill: none; stroke: #37abb2; stroke-width: 1.5; stroke-linecap: square"/>
    </g>
    <g id="text_23">
     <!-- LassoLars -->
     <g transform="translate(126.54 378.1645) scale(0.16 -0.16)">
      <defs>
       <path id="DejaVuSans-4c" d="M 628 4666 
L 1259 4666 
L 1259 531 
L 3531 531 
L 3531 0 
L 628 0 
L 628 4666 
z
" transform="scale(0.015625)"/>
      </defs>
      <use xlink:href="#DejaVuSans-4c"/>
      <use xlink:href="#DejaVuSans-61" x="55.712891"/>
      <use xlink:href="#DejaVuSans-73" x="116.992188"/>
      <use xlink:href="#DejaVuSans-73" x="169.091797"/>
      <use xlink:href="#DejaVuSans-6f" x="221.191406"/>
      <use xlink:href="#DejaVuSans-4c" x="282.373047"/>
      <use xlink:href="#DejaVuSans-61" x="338.085938"/>
      <use xlink:href="#DejaVuSans-72" x="399.365234"/>
      <use xlink:href="#DejaVuSans-73" x="440.478516"/>
     </g>
    </g>
    <g id="line2d_44">
     <path d="M 81.74 396.0495 
L 97.74 396.0495 
L 113.74 396.0495 
" style="fill: none; stroke: #39a7d6; stroke-width: 1.5; stroke-linecap: square"/>
    </g>
    <g id="text_24">
     <!-- Lasso -->
     <g transform="translate(126.54 401.6495) scale(0.16 -0.16)">
      <use xlink:href="#DejaVuSans-4c"/>
      <use xlink:href="#DejaVuSans-61" x="55.712891"/>
      <use xlink:href="#DejaVuSans-73" x="116.992188"/>
      <use xlink:href="#DejaVuSans-73" x="169.091797"/>
      <use xlink:href="#DejaVuSans-6f" x="221.191406"/>
     </g>
    </g>
    <g id="line2d_45">
     <path d="M 81.74 419.5345 
L 97.74 419.5345 
L 113.74 419.5345 
" style="fill: none; stroke: #8f93f4; stroke-width: 1.5; stroke-linecap: square"/>
    </g>
    <g id="text_25">
     <!-- dt -->
     <g transform="translate(126.54 425.1345) scale(0.16 -0.16)">
      <use xlink:href="#DejaVuSans-64"/>
      <use xlink:href="#DejaVuSans-74" x="63.476562"/>
     </g>
    </g>
    <g id="line2d_46">
     <path d="M 81.74 443.0195 
L 97.74 443.0195 
L 113.74 443.0195 
" style="fill: none; stroke: #db70f4; stroke-width: 1.5; stroke-linecap: square"/>
    </g>
    <g id="text_26">
     <!-- Adaboost -->
     <g transform="translate(126.54 448.6195) scale(0.16 -0.16)">
      <defs>
       <path id="DejaVuSans-41" d="M 2188 4044 
L 1331 1722 
L 3047 1722 
L 2188 4044 
z
M 1831 4666 
L 2547 4666 
L 4325 0 
L 3669 0 
L 3244 1197 
L 1141 1197 
L 716 0 
L 50 0 
L 1831 4666 
z
" transform="scale(0.015625)"/>
      </defs>
      <use xlink:href="#DejaVuSans-41"/>
      <use xlink:href="#DejaVuSans-64" x="66.658203"/>
      <use xlink:href="#DejaVuSans-61" x="130.134766"/>
      <use xlink:href="#DejaVuSans-62" x="191.414062"/>
      <use xlink:href="#DejaVuSans-6f" x="254.890625"/>
      <use xlink:href="#DejaVuSans-6f" x="316.072266"/>
      <use xlink:href="#DejaVuSans-73" x="377.253906"/>
      <use xlink:href="#DejaVuSans-74" x="429.353516"/>
     </g>
    </g>
    <g id="line2d_47">
     <path d="M 81.74 466.5045 
L 97.74 466.5045 
L 113.74 466.5045 
" style="fill: none; stroke: #f667c6; stroke-width: 1.5; stroke-linecap: square"/>
    </g>
    <g id="text_27">
     <!-- HubR -->
     <g transform="translate(126.54 472.1045) scale(0.16 -0.16)">
      <defs>
       <path id="DejaVuSans-75" d="M 544 1381 
L 544 3500 
L 1119 3500 
L 1119 1403 
Q 1119 906 1312 657 
Q 1506 409 1894 409 
Q 2359 409 2629 706 
Q 2900 1003 2900 1516 
L 2900 3500 
L 3475 3500 
L 3475 0 
L 2900 0 
L 2900 538 
Q 2691 219 2414 64 
Q 2138 -91 1772 -91 
Q 1169 -91 856 284 
Q 544 659 544 1381 
z
M 1991 3584 
L 1991 3584 
z
" transform="scale(0.015625)"/>
      </defs>
      <use xlink:href="#DejaVuSans-48"/>
      <use xlink:href="#DejaVuSans-75" x="75.195312"/>
      <use xlink:href="#DejaVuSans-62" x="138.574219"/>
      <use xlink:href="#DejaVuSans-52" x="202.050781"/>
     </g>
    </g>
   </g>
  </g>
 </g>
 <defs>
  <clipPath id="p62513b442f">
   <rect x="67.34" y="17.936334" width="1073.86" height="471.895666"/>
  </clipPath>
 </defs>
</svg>
