<?xml version="1.0" encoding="utf-8" standalone="no"?>
<!DOCTYPE svg PUBLIC "-//W3C//DTD SVG 1.1//EN"
  "http://www.w3.org/Graphics/SVG/1.1/DTD/svg11.dtd">
<svg xmlns:xlink="http://www.w3.org/1999/xlink" width="1152pt" height="576pt" viewBox="0 0 1152 576" xmlns="http://www.w3.org/2000/svg" version="1.1">
 <metadata>
  <rdf:RDF xmlns:dc="http://purl.org/dc/elements/1.1/" xmlns:cc="http://creativecommons.org/ns#" xmlns:rdf="http://www.w3.org/1999/02/22-rdf-syntax-ns#">
   <cc:Work>
    <dc:type rdf:resource="http://purl.org/dc/dcmitype/StillImage"/>
    <dc:date>2025-04-21T10:20:10.607456</dc:date>
    <dc:format>image/svg+xml</dc:format>
    <dc:creator>
     <cc:Agent>
      <dc:title>Matplotlib v3.7.1, https://matplotlib.org/</dc:title>
     </cc:Agent>
    </dc:creator>
   </cc:Work>
  </rdf:RDF>
 </metadata>
 <defs>
  <style type="text/css">*{stroke-linejoin: round; stroke-linecap: butt}</style>
 </defs>
 <g id="figure_1">
  <g id="patch_1">
   <path d="M 0 576 
L 1152 576 
L 1152 0 
L 0 0 
z
" style="fill: #ffffff"/>
  </g>
  <g id="axes_1">
   <g id="patch_2">
    <path d="M 67.34 489.832 
L 1141.2 489.832 
L 1141.2 14.906284 
L 67.34 14.906284 
z
" style="fill: #ffffff"/>
   </g>
   <g id="PolyCollection_1">
    <defs>
     <path id="md887013dc7" d="M 116.151818 -124.357831 
L 116.151818 -113.16307 
L 156.828333 -122.31914 
L 197.504848 -136.057526 
L 238.181364 -147.793854 
L 278.857879 -166.111922 
L 319.534394 -184.179506 
L 360.210909 -204.174438 
L 400.887424 -224.080198 
L 441.563939 -233.962438 
L 482.240455 -241.211109 
L 522.91697 -238.671473 
L 563.593485 -260.335653 
L 604.27 -290.94775 
L 644.946515 -295.852159 
L 685.62303 -320.93261 
L 726.299545 -325.499705 
L 766.976061 -307.701198 
L 807.652576 -327.804872 
L 848.329091 -338.137248 
L 889.005606 -324.357634 
L 929.682121 -316.569828 
L 970.358636 -316.569828 
L 1011.035152 -306.697082 
L 1051.711667 -309.446682 
L 1092.388182 -302.086553 
L 1092.388182 -383.998527 
L 1092.388182 -383.998527 
L 1051.711667 -381.19666 
L 1011.035152 -381.19666 
L 970.358636 -365.132124 
L 929.682121 -414.717718 
L 889.005606 -384.020533 
L 848.329091 -396.022802 
L 807.652576 -424.536438 
L 766.976061 -371.970445 
L 726.299545 -369.118713 
L 685.62303 -363.180085 
L 644.946515 -358.05517 
L 604.27 -312.923515 
L 563.593485 -292.128657 
L 522.91697 -289.641669 
L 482.240455 -307.232517 
L 441.563939 -312.893325 
L 400.887424 -261.599241 
L 360.210909 -257.406708 
L 319.534394 -225.730665 
L 278.857879 -184.940278 
L 238.181364 -171.160079 
L 197.504848 -161.074362 
L 156.828333 -135.209109 
L 116.151818 -124.357831 
z
" style="stroke: #f77189; stroke-opacity: 0.2"/>
    </defs>
    <g clip-path="url(#pbb0be6cd8e)">
     <use xlink:href="#md887013dc7" x="0" y="576" style="fill: #f77189; fill-opacity: 0.2; stroke: #f77189; stroke-opacity: 0.2"/>
    </g>
   </g>
   <g id="PolyCollection_2">
    <defs>
     <path id="m584767987c" d="M 116.151818 -116.331288 
L 116.151818 -107.755533 
L 156.828333 -116.125024 
L 197.504848 -130.012073 
L 238.181364 -148.616217 
L 278.857879 -170.258288 
L 319.534394 -195.312795 
L 360.210909 -191.715054 
L 400.887424 -210.194479 
L 441.563939 -222.744758 
L 482.240455 -224.436203 
L 522.91697 -232.616578 
L 563.593485 -242.636036 
L 604.27 -283.635544 
L 644.946515 -289.669585 
L 685.62303 -313.282173 
L 726.299545 -295.196397 
L 766.976061 -300.632133 
L 807.652576 -317.184917 
L 848.329091 -312.0016 
L 889.005606 -361.176644 
L 929.682121 -380.948984 
L 970.358636 -367.546526 
L 1011.035152 -333.181726 
L 1051.711667 -309.506292 
L 1092.388182 -304.335737 
L 1092.388182 -391.082225 
L 1092.388182 -391.082225 
L 1051.711667 -383.115673 
L 1011.035152 -383.115673 
L 970.358636 -381.577182 
L 929.682121 -381.577182 
L 889.005606 -384.502378 
L 848.329091 -353.505662 
L 807.652576 -334.061025 
L 766.976061 -345.551158 
L 726.299545 -347.982009 
L 685.62303 -347.778955 
L 644.946515 -347.178328 
L 604.27 -323.817829 
L 563.593485 -320.421316 
L 522.91697 -333.166018 
L 482.240455 -316.981682 
L 441.563939 -312.140256 
L 400.887424 -281.440393 
L 360.210909 -269.960637 
L 319.534394 -241.895736 
L 278.857879 -224.207391 
L 238.181364 -184.566024 
L 197.504848 -166.01658 
L 156.828333 -125.616059 
L 116.151818 -116.331288 
z
" style="stroke: #e18632; stroke-opacity: 0.2"/>
    </defs>
    <g clip-path="url(#pbb0be6cd8e)">
     <use xlink:href="#m584767987c" x="0" y="576" style="fill: #e18632; fill-opacity: 0.2; stroke: #e18632; stroke-opacity: 0.2"/>
    </g>
   </g>
   <g id="PolyCollection_3">
    <defs>
     <path id="mb9a23611b4" d="M 116.151818 -135.933321 
L 116.151818 -123.963662 
L 156.828333 -133.33625 
L 197.504848 -136.324499 
L 238.181364 -152.499948 
L 278.857879 -168.887059 
L 319.534394 -177.992742 
L 360.210909 -192.785327 
L 400.887424 -205.238795 
L 441.563939 -210.165852 
L 482.240455 -213.985691 
L 522.91697 -224.574491 
L 563.593485 -241.693485 
L 604.27 -255.697521 
L 644.946515 -256.711973 
L 685.62303 -283.595169 
L 726.299545 -284.192755 
L 766.976061 -289.931756 
L 807.652576 -301.582175 
L 848.329091 -307.45141 
L 889.005606 -288.589251 
L 929.682121 -289.453849 
L 970.358636 -289.453849 
L 1011.035152 -279.001407 
L 1051.711667 -269.204782 
L 1092.388182 -271.294263 
L 1092.388182 -339.031239 
L 1092.388182 -339.031239 
L 1051.711667 -348.289334 
L 1011.035152 -348.289334 
L 970.358636 -326.466276 
L 929.682121 -341.554944 
L 889.005606 -343.186428 
L 848.329091 -341.744507 
L 807.652576 -372.676729 
L 766.976061 -333.648598 
L 726.299545 -338.388348 
L 685.62303 -301.765323 
L 644.946515 -291.568254 
L 604.27 -293.391813 
L 563.593485 -272.060447 
L 522.91697 -279.261783 
L 482.240455 -267.655812 
L 441.563939 -273.724845 
L 400.887424 -256.506175 
L 360.210909 -231.717046 
L 319.534394 -204.046359 
L 278.857879 -199.271705 
L 238.181364 -182.350437 
L 197.504848 -165.106233 
L 156.828333 -141.928886 
L 116.151818 -135.933321 
z
" style="stroke: #b59a32; stroke-opacity: 0.2"/>
    </defs>
    <g clip-path="url(#pbb0be6cd8e)">
     <use xlink:href="#mb9a23611b4" x="0" y="576" style="fill: #b59a32; fill-opacity: 0.2; stroke: #b59a32; stroke-opacity: 0.2"/>
    </g>
   </g>
   <g id="PolyCollection_4">
    <defs>
     <path id="m53602c5f96" d="M 116.151818 -129.807654 
L 116.151818 -122.685816 
L 156.828333 -131.99871 
L 197.504848 -149.145937 
L 238.181364 -171.010036 
L 278.857879 -193.764762 
L 319.534394 -214.472704 
L 360.210909 -234.763665 
L 400.887424 -254.787188 
L 441.563939 -267.652896 
L 482.240455 -266.30353 
L 522.91697 -278.467675 
L 563.593485 -287.981497 
L 604.27 -313.932681 
L 644.946515 -332.477204 
L 685.62303 -349.626466 
L 726.299545 -317.558433 
L 766.976061 -322.44913 
L 807.652576 -338.448451 
L 848.329091 -347.628959 
L 889.005606 -351.845431 
L 929.682121 -355.112108 
L 970.358636 -355.112108 
L 1011.035152 -355.575026 
L 1051.711667 -363.623569 
L 1092.388182 -365.761319 
L 1092.388182 -397.976851 
L 1092.388182 -397.976851 
L 1051.711667 -391.618679 
L 1011.035152 -391.618679 
L 970.358636 -413.146883 
L 929.682121 -447.253848 
L 889.005606 -413.766064 
L 848.329091 -395.154886 
L 807.652576 -404.881636 
L 766.976061 -382.13955 
L 726.299545 -374.136371 
L 685.62303 -401.959466 
L 644.946515 -386.0451 
L 604.27 -367.567162 
L 563.593485 -334.359538 
L 522.91697 -352.227449 
L 482.240455 -340.201332 
L 441.563939 -343.841435 
L 400.887424 -305.586969 
L 360.210909 -287.437362 
L 319.534394 -258.264934 
L 278.857879 -233.097768 
L 238.181364 -202.181549 
L 197.504848 -180.918035 
L 156.828333 -145.032196 
L 116.151818 -129.807654 
z
" style="stroke: #8ba731; stroke-opacity: 0.2"/>
    </defs>
    <g clip-path="url(#pbb0be6cd8e)">
     <use xlink:href="#m53602c5f96" x="0" y="576" style="fill: #8ba731; fill-opacity: 0.2; stroke: #8ba731; stroke-opacity: 0.2"/>
    </g>
   </g>
   <g id="PolyCollection_5">
    <defs>
     <path id="ma2a1a79c91" d="M 116.151818 -139.809149 
L 116.151818 -129.848798 
L 156.828333 -137.176627 
L 197.504848 -145.451189 
L 238.181364 -165.126924 
L 278.857879 -192.738204 
L 319.534394 -215.016291 
L 360.210909 -237.410175 
L 400.887424 -244.116149 
L 441.563939 -253.219523 
L 482.240455 -248.800759 
L 522.91697 -264.393831 
L 563.593485 -286.805191 
L 604.27 -324.199841 
L 644.946515 -323.890038 
L 685.62303 -339.970955 
L 726.299545 -340.048021 
L 766.976061 -332.747086 
L 807.652576 -355.38537 
L 848.329091 -357.223968 
L 889.005606 -362.566829 
L 929.682121 -366.205316 
L 970.358636 -366.205316 
L 1011.035152 -350.735317 
L 1051.711667 -362.346111 
L 1092.388182 -362.905625 
L 1092.388182 -433.918847 
L 1092.388182 -433.918847 
L 1051.711667 -435.936569 
L 1011.035152 -435.936569 
L 970.358636 -434.155028 
L 929.682121 -464.558961 
L 889.005606 -434.461418 
L 848.329091 -411.399327 
L 807.652576 -399.969298 
L 766.976061 -371.867069 
L 726.299545 -364.692703 
L 685.62303 -378.879007 
L 644.946515 -382.4723 
L 604.27 -380.821611 
L 563.593485 -343.511417 
L 522.91697 -416.443587 
L 482.240455 -393.373482 
L 441.563939 -335.221487 
L 400.887424 -276.832257 
L 360.210909 -275.606599 
L 319.534394 -270.126425 
L 278.857879 -226.681596 
L 238.181364 -224.893079 
L 197.504848 -189.349684 
L 156.828333 -152.646304 
L 116.151818 -139.809149 
z
" style="stroke: #32b258; stroke-opacity: 0.2"/>
    </defs>
    <g clip-path="url(#pbb0be6cd8e)">
     <use xlink:href="#ma2a1a79c91" x="0" y="576" style="fill: #32b258; fill-opacity: 0.2; stroke: #32b258; stroke-opacity: 0.2"/>
    </g>
   </g>
   <g id="PolyCollection_6">
    <defs>
     <path id="mfa1f03dfea" d="M 116.151818 -168.621853 
L 116.151818 -148.037262 
L 156.828333 -150.045583 
L 197.504848 -206.322337 
L 238.181364 -239.272093 
L 278.857879 -250.641494 
L 319.534394 -298.965426 
L 360.210909 -295.401332 
L 400.887424 -327.76594 
L 441.563939 -319.368351 
L 482.240455 -351.670055 
L 522.91697 -392.909799 
L 563.593485 -365.087577 
L 604.27 -375.32636 
L 644.946515 -383.618227 
L 685.62303 -431.636574 
L 726.299545 -393.336342 
L 766.976061 -380.983751 
L 807.652576 -402.207396 
L 848.329091 -428.852565 
L 889.005606 -423.953509 
L 929.682121 -491.100905 
L 970.358636 -457.018544 
L 1011.035152 -391.941245 
L 1051.711667 -503.842666 
L 1092.388182 -466.175758 
L 1092.388182 -490.297695 
L 1092.388182 -490.297695 
L 1051.711667 -539.506183 
L 1011.035152 -539.506183 
L 970.358636 -491.100905 
L 929.682121 -503.074354 
L 889.005606 -489.069159 
L 848.329091 -451.253933 
L 807.652576 -419.635004 
L 766.976061 -478.672867 
L 726.299545 -407.970651 
L 685.62303 -460.742561 
L 644.946515 -474.723929 
L 604.27 -419.837285 
L 563.593485 -476.134937 
L 522.91697 -488.89699 
L 482.240455 -435.060045 
L 441.563939 -451.713155 
L 400.887424 -418.692313 
L 360.210909 -392.199855 
L 319.534394 -369.852957 
L 278.857879 -308.204105 
L 238.181364 -276.858315 
L 197.504848 -267.112542 
L 156.828333 -208.29339 
L 116.151818 -168.621853 
z
" style="stroke: #35ae95; stroke-opacity: 0.2"/>
    </defs>
    <g clip-path="url(#pbb0be6cd8e)">
     <use xlink:href="#mfa1f03dfea" x="0" y="576" style="fill: #35ae95; fill-opacity: 0.2; stroke: #35ae95; stroke-opacity: 0.2"/>
    </g>
   </g>
   <g id="PolyCollection_7">
    <defs>
     <path id="m82391787a6" d="M 116.151818 -146.556552 
L 116.151818 -135.365375 
L 156.828333 -138.288464 
L 197.504848 -187.4661 
L 238.181364 -215.009656 
L 278.857879 -236.133018 
L 319.534394 -273.102802 
L 360.210909 -274.390992 
L 400.887424 -299.774023 
L 441.563939 -299.90884 
L 482.240455 -319.67423 
L 522.91697 -329.320793 
L 563.593485 -347.58314 
L 604.27 -347.076079 
L 644.946515 -372.773574 
L 685.62303 -399.302279 
L 726.299545 -370.803744 
L 766.976061 -359.125952 
L 807.652576 -323.523479 
L 848.329091 -373.152042 
L 889.005606 -426.612526 
L 929.682121 -460.053301 
L 970.358636 -420.673052 
L 1011.035152 -393.177306 
L 1051.711667 -439.217885 
L 1092.388182 -443.628169 
L 1092.388182 -463.549357 
L 1092.388182 -463.549357 
L 1051.711667 -455.333772 
L 1011.035152 -439.217885 
L 970.358636 -467.34489 
L 929.682121 -467.34489 
L 889.005606 -442.491144 
L 848.329091 -410.313185 
L 807.652576 -366.849248 
L 766.976061 -407.922194 
L 726.299545 -378.357419 
L 685.62303 -417.75725 
L 644.946515 -403.69651 
L 604.27 -396.67941 
L 563.593485 -410.554623 
L 522.91697 -426.563495 
L 482.240455 -428.839191 
L 441.563939 -440.704685 
L 400.887424 -359.213307 
L 360.210909 -339.863161 
L 319.534394 -310.904094 
L 278.857879 -280.839757 
L 238.181364 -248.759794 
L 197.504848 -244.481089 
L 156.828333 -174.168316 
L 116.151818 -146.556552 
z
" style="stroke: #37abb2; stroke-opacity: 0.2"/>
    </defs>
    <g clip-path="url(#pbb0be6cd8e)">
     <use xlink:href="#m82391787a6" x="0" y="576" style="fill: #37abb2; fill-opacity: 0.2; stroke: #37abb2; stroke-opacity: 0.2"/>
    </g>
   </g>
   <g id="PolyCollection_8">
    <defs>
     <path id="m8546b76653" d="M 116.151818 -214.076705 
L 116.151818 -190.915718 
L 156.828333 -193.040453 
L 197.504848 -193.508819 
L 238.181364 -205.122121 
L 278.857879 -233.882332 
L 319.534394 -228.276008 
L 360.210909 -250.933127 
L 400.887424 -271.75254 
L 441.563939 -270.423347 
L 482.240455 -275.495036 
L 522.91697 -281.422038 
L 563.593485 -332.27095 
L 604.27 -337.514004 
L 644.946515 -372.227429 
L 685.62303 -389.463033 
L 726.299545 -366.430158 
L 766.976061 -370.527954 
L 807.652576 -363.140931 
L 848.329091 -369.333614 
L 889.005606 -359.491165 
L 929.682121 -344.990134 
L 970.358636 -344.990134 
L 1011.035152 -312.160849 
L 1051.711667 -316.246613 
L 1092.388182 -314.972077 
L 1092.388182 -408.378462 
L 1092.388182 -408.378462 
L 1051.711667 -434.990925 
L 1011.035152 -434.990925 
L 970.358636 -411.41902 
L 929.682121 -432.494044 
L 889.005606 -422.062424 
L 848.329091 -468.052191 
L 807.652576 -499.356601 
L 766.976061 -479.342452 
L 726.299545 -495.628268 
L 685.62303 -488.295337 
L 644.946515 -429.450165 
L 604.27 -457.082768 
L 563.593485 -401.78332 
L 522.91697 -442.80753 
L 482.240455 -414.177922 
L 441.563939 -387.952252 
L 400.887424 -345.34744 
L 360.210909 -295.106101 
L 319.534394 -275.935981 
L 278.857879 -274.866384 
L 238.181364 -250.623145 
L 197.504848 -215.375639 
L 156.828333 -209.493635 
L 116.151818 -214.076705 
z
" style="stroke: #39a7d6; stroke-opacity: 0.2"/>
    </defs>
    <g clip-path="url(#pbb0be6cd8e)">
     <use xlink:href="#m8546b76653" x="0" y="576" style="fill: #39a7d6; fill-opacity: 0.2; stroke: #39a7d6; stroke-opacity: 0.2"/>
    </g>
   </g>
   <g id="PolyCollection_9">
    <defs>
     <path id="mb464cc9f29" d="M 116.151818 -238.675251 
L 116.151818 -221.704266 
L 156.828333 -246.525093 
L 197.504848 -254.99161 
L 238.181364 -262.067071 
L 278.857879 -277.648451 
L 319.534394 -296.516091 
L 360.210909 -301.936483 
L 400.887424 -319.326737 
L 441.563939 -323.103818 
L 482.240455 -326.09123 
L 522.91697 -327.127542 
L 563.593485 -337.388693 
L 604.27 -334.669739 
L 644.946515 -357.851645 
L 685.62303 -370.729973 
L 726.299545 -365.662258 
L 766.976061 -345.275462 
L 807.652576 -376.158616 
L 848.329091 -362.638033 
L 889.005606 -373.900299 
L 929.682121 -374.009443 
L 970.358636 -374.009443 
L 1011.035152 -368.839497 
L 1051.711667 -372.452133 
L 1092.388182 -372.646813 
L 1092.388182 -386.570574 
L 1092.388182 -386.570574 
L 1051.711667 -393.503582 
L 1011.035152 -393.503582 
L 970.358636 -396.196085 
L 929.682121 -421.165385 
L 889.005606 -378.177701 
L 848.329091 -392.468153 
L 807.652576 -434.10286 
L 766.976061 -413.026111 
L 726.299545 -377.084954 
L 685.62303 -412.875353 
L 644.946515 -393.170115 
L 604.27 -382.256532 
L 563.593485 -357.091427 
L 522.91697 -347.665856 
L 482.240455 -358.953858 
L 441.563939 -344.380326 
L 400.887424 -354.948084 
L 360.210909 -335.40684 
L 319.534394 -327.987496 
L 278.857879 -300.147674 
L 238.181364 -283.639515 
L 197.504848 -271.085841 
L 156.828333 -259.035384 
L 116.151818 -238.675251 
z
" style="stroke: #8f93f4; stroke-opacity: 0.2"/>
    </defs>
    <g clip-path="url(#pbb0be6cd8e)">
     <use xlink:href="#mb464cc9f29" x="0" y="576" style="fill: #8f93f4; fill-opacity: 0.2; stroke: #8f93f4; stroke-opacity: 0.2"/>
    </g>
   </g>
   <g id="PolyCollection_10">
    <defs>
     <path id="me9ca79663d" d="M 116.151818 -236.919744 
L 116.151818 -227.597904 
L 156.828333 -229.314038 
L 197.504848 -236.748074 
L 238.181364 -250.607097 
L 278.857879 -264.747482 
L 319.534394 -275.416371 
L 360.210909 -286.517644 
L 400.887424 -307.376506 
L 441.563939 -314.338991 
L 482.240455 -323.240359 
L 522.91697 -320.185476 
L 563.593485 -311.125845 
L 604.27 -329.223388 
L 644.946515 -331.930929 
L 685.62303 -325.416395 
L 726.299545 -340.534468 
L 766.976061 -335.953855 
L 807.652576 -346.295521 
L 848.329091 -349.57437 
L 889.005606 -333.527013 
L 929.682121 -339.41547 
L 970.358636 -339.41547 
L 1011.035152 -342.02408 
L 1051.711667 -354.113003 
L 1092.388182 -353.834514 
L 1092.388182 -366.021881 
L 1092.388182 -366.021881 
L 1051.711667 -390.917172 
L 1011.035152 -390.917172 
L 970.358636 -366.880189 
L 929.682121 -377.301587 
L 889.005606 -352.080321 
L 848.329091 -360.737358 
L 807.652576 -378.251892 
L 766.976061 -399.478415 
L 726.299545 -370.47753 
L 685.62303 -359.649463 
L 644.946515 -370.095155 
L 604.27 -379.356597 
L 563.593485 -344.527258 
L 522.91697 -387.187154 
L 482.240455 -371.424425 
L 441.563939 -366.869241 
L 400.887424 -349.354507 
L 360.210909 -338.191451 
L 319.534394 -316.516936 
L 278.857879 -286.542091 
L 238.181364 -275.717705 
L 197.504848 -263.700957 
L 156.828333 -241.389009 
L 116.151818 -236.919744 
z
" style="stroke: #db70f4; stroke-opacity: 0.2"/>
    </defs>
    <g clip-path="url(#pbb0be6cd8e)">
     <use xlink:href="#me9ca79663d" x="0" y="576" style="fill: #db70f4; fill-opacity: 0.2; stroke: #db70f4; stroke-opacity: 0.2"/>
    </g>
   </g>
   <g id="PolyCollection_11">
    <defs>
     <path id="m8160e36482" d="M 116.151818 -237.163302 
L 116.151818 -227.714796 
L 156.828333 -229.629817 
L 197.504848 -236.877595 
L 238.181364 -250.613746 
L 278.857879 -264.973121 
L 319.534394 -275.578062 
L 360.210909 -286.527713 
L 400.887424 -307.343876 
L 441.563939 -313.916172 
L 482.240455 -323.24522 
L 522.91697 -319.594237 
L 563.593485 -311.098119 
L 604.27 -329.198574 
L 644.946515 -331.918262 
L 685.62303 -325.464161 
L 726.299545 -340.552951 
L 766.976061 -335.991177 
L 807.652576 -346.236727 
L 848.329091 -349.4814 
L 889.005606 -333.514372 
L 929.682121 -339.402252 
L 970.358636 -339.402252 
L 1011.035152 -342.096832 
L 1051.711667 -354.153128 
L 1092.388182 -353.87317 
L 1092.388182 -366.096021 
L 1092.388182 -366.096021 
L 1051.711667 -390.878352 
L 1011.035152 -390.878352 
L 970.358636 -366.769489 
L 929.682121 -377.264056 
L 889.005606 -352.070812 
L 848.329091 -360.730747 
L 807.652576 -378.242145 
L 766.976061 -399.453973 
L 726.299545 -370.412686 
L 685.62303 -359.69584 
L 644.946515 -370.054661 
L 604.27 -379.348382 
L 563.593485 -344.371578 
L 522.91697 -387.728007 
L 482.240455 -368.209173 
L 441.563939 -365.895479 
L 400.887424 -349.761474 
L 360.210909 -339.847259 
L 319.534394 -314.478044 
L 278.857879 -284.97086 
L 238.181364 -275.696402 
L 197.504848 -263.218811 
L 156.828333 -241.47248 
L 116.151818 -237.163302 
z
" style="stroke: #f667c6; stroke-opacity: 0.2"/>
    </defs>
    <g clip-path="url(#pbb0be6cd8e)">
     <use xlink:href="#m8160e36482" x="0" y="576" style="fill: #f667c6; fill-opacity: 0.2; stroke: #f667c6; stroke-opacity: 0.2"/>
    </g>
   </g>
   <g id="matplotlib.axis_1">
    <g id="xtick_1">
     <g id="line2d_1">
      <defs>
       <path id="m50a277a780" d="M 0 0 
L 0 3.5 
" style="stroke: #000000; stroke-width: 0.8"/>
      </defs>
      <g>
       <use xlink:href="#m50a277a780" x="95.813561" y="489.832" style="stroke: #000000; stroke-width: 0.8"/>
      </g>
     </g>
     <g id="text_1">
      <!-- 0 -->
      <g transform="translate(89.451061 512.028875) scale(0.2 -0.2)">
       <defs>
        <path id="DejaVuSans-30" d="M 2034 4250 
Q 1547 4250 1301 3770 
Q 1056 3291 1056 2328 
Q 1056 1369 1301 889 
Q 1547 409 2034 409 
Q 2525 409 2770 889 
Q 3016 1369 3016 2328 
Q 3016 3291 2770 3770 
Q 2525 4250 2034 4250 
z
M 2034 4750 
Q 2819 4750 3233 4129 
Q 3647 3509 3647 2328 
Q 3647 1150 3233 529 
Q 2819 -91 2034 -91 
Q 1250 -91 836 529 
Q 422 1150 422 2328 
Q 422 3509 836 4129 
Q 1250 4750 2034 4750 
z
" transform="scale(0.015625)"/>
       </defs>
       <use xlink:href="#DejaVuSans-30"/>
      </g>
     </g>
    </g>
    <g id="xtick_2">
     <g id="line2d_2">
      <g>
       <use xlink:href="#m50a277a780" x="299.196136" y="489.832" style="stroke: #000000; stroke-width: 0.8"/>
      </g>
     </g>
     <g id="text_2">
      <!-- 10 -->
      <g transform="translate(286.471136 512.028875) scale(0.2 -0.2)">
       <defs>
        <path id="DejaVuSans-31" d="M 794 531 
L 1825 531 
L 1825 4091 
L 703 3866 
L 703 4441 
L 1819 4666 
L 2450 4666 
L 2450 531 
L 3481 531 
L 3481 0 
L 794 0 
L 794 531 
z
" transform="scale(0.015625)"/>
       </defs>
       <use xlink:href="#DejaVuSans-31"/>
       <use xlink:href="#DejaVuSans-30" x="63.623047"/>
      </g>
     </g>
    </g>
    <g id="xtick_3">
     <g id="line2d_3">
      <g>
       <use xlink:href="#m50a277a780" x="502.578712" y="489.832" style="stroke: #000000; stroke-width: 0.8"/>
      </g>
     </g>
     <g id="text_3">
      <!-- 20 -->
      <g transform="translate(489.853712 512.028875) scale(0.2 -0.2)">
       <defs>
        <path id="DejaVuSans-32" d="M 1228 531 
L 3431 531 
L 3431 0 
L 469 0 
L 469 531 
Q 828 903 1448 1529 
Q 2069 2156 2228 2338 
Q 2531 2678 2651 2914 
Q 2772 3150 2772 3378 
Q 2772 3750 2511 3984 
Q 2250 4219 1831 4219 
Q 1534 4219 1204 4116 
Q 875 4013 500 3803 
L 500 4441 
Q 881 4594 1212 4672 
Q 1544 4750 1819 4750 
Q 2544 4750 2975 4387 
Q 3406 4025 3406 3419 
Q 3406 3131 3298 2873 
Q 3191 2616 2906 2266 
Q 2828 2175 2409 1742 
Q 1991 1309 1228 531 
z
" transform="scale(0.015625)"/>
       </defs>
       <use xlink:href="#DejaVuSans-32"/>
       <use xlink:href="#DejaVuSans-30" x="63.623047"/>
      </g>
     </g>
    </g>
    <g id="xtick_4">
     <g id="line2d_4">
      <g>
       <use xlink:href="#m50a277a780" x="705.961288" y="489.832" style="stroke: #000000; stroke-width: 0.8"/>
      </g>
     </g>
     <g id="text_4">
      <!-- 30 -->
      <g transform="translate(693.236288 512.028875) scale(0.2 -0.2)">
       <defs>
        <path id="DejaVuSans-33" d="M 2597 2516 
Q 3050 2419 3304 2112 
Q 3559 1806 3559 1356 
Q 3559 666 3084 287 
Q 2609 -91 1734 -91 
Q 1441 -91 1130 -33 
Q 819 25 488 141 
L 488 750 
Q 750 597 1062 519 
Q 1375 441 1716 441 
Q 2309 441 2620 675 
Q 2931 909 2931 1356 
Q 2931 1769 2642 2001 
Q 2353 2234 1838 2234 
L 1294 2234 
L 1294 2753 
L 1863 2753 
Q 2328 2753 2575 2939 
Q 2822 3125 2822 3475 
Q 2822 3834 2567 4026 
Q 2313 4219 1838 4219 
Q 1578 4219 1281 4162 
Q 984 4106 628 3988 
L 628 4550 
Q 988 4650 1302 4700 
Q 1616 4750 1894 4750 
Q 2613 4750 3031 4423 
Q 3450 4097 3450 3541 
Q 3450 3153 3228 2886 
Q 3006 2619 2597 2516 
z
" transform="scale(0.015625)"/>
       </defs>
       <use xlink:href="#DejaVuSans-33"/>
       <use xlink:href="#DejaVuSans-30" x="63.623047"/>
      </g>
     </g>
    </g>
    <g id="xtick_5">
     <g id="line2d_5">
      <g>
       <use xlink:href="#m50a277a780" x="909.343864" y="489.832" style="stroke: #000000; stroke-width: 0.8"/>
      </g>
     </g>
     <g id="text_5">
      <!-- 40 -->
      <g transform="translate(896.618864 512.028875) scale(0.2 -0.2)">
       <defs>
        <path id="DejaVuSans-34" d="M 2419 4116 
L 825 1625 
L 2419 1625 
L 2419 4116 
z
M 2253 4666 
L 3047 4666 
L 3047 1625 
L 3713 1625 
L 3713 1100 
L 3047 1100 
L 3047 0 
L 2419 0 
L 2419 1100 
L 313 1100 
L 313 1709 
L 2253 4666 
z
" transform="scale(0.015625)"/>
       </defs>
       <use xlink:href="#DejaVuSans-34"/>
       <use xlink:href="#DejaVuSans-30" x="63.623047"/>
      </g>
     </g>
    </g>
    <g id="xtick_6">
     <g id="line2d_6">
      <g>
       <use xlink:href="#m50a277a780" x="1112.726439" y="489.832" style="stroke: #000000; stroke-width: 0.8"/>
      </g>
     </g>
     <g id="text_6">
      <!-- 50 -->
      <g transform="translate(1100.001439 512.028875) scale(0.2 -0.2)">
       <defs>
        <path id="DejaVuSans-35" d="M 691 4666 
L 3169 4666 
L 3169 4134 
L 1269 4134 
L 1269 2991 
Q 1406 3038 1543 3061 
Q 1681 3084 1819 3084 
Q 2600 3084 3056 2656 
Q 3513 2228 3513 1497 
Q 3513 744 3044 326 
Q 2575 -91 1722 -91 
Q 1428 -91 1123 -41 
Q 819 9 494 109 
L 494 744 
Q 775 591 1075 516 
Q 1375 441 1709 441 
Q 2250 441 2565 725 
Q 2881 1009 2881 1497 
Q 2881 1984 2565 2268 
Q 2250 2553 1709 2553 
Q 1456 2553 1204 2497 
Q 953 2441 691 2322 
L 691 4666 
z
" transform="scale(0.015625)"/>
       </defs>
       <use xlink:href="#DejaVuSans-35"/>
       <use xlink:href="#DejaVuSans-30" x="63.623047"/>
      </g>
     </g>
    </g>
    <g id="text_7">
     <!-- Percentile Threshold -->
     <g transform="translate(502.490313 535.385125) scale(0.2 -0.2)">
      <defs>
       <path id="DejaVuSans-50" d="M 1259 4147 
L 1259 2394 
L 2053 2394 
Q 2494 2394 2734 2622 
Q 2975 2850 2975 3272 
Q 2975 3691 2734 3919 
Q 2494 4147 2053 4147 
L 1259 4147 
z
M 628 4666 
L 2053 4666 
Q 2838 4666 3239 4311 
Q 3641 3956 3641 3272 
Q 3641 2581 3239 2228 
Q 2838 1875 2053 1875 
L 1259 1875 
L 1259 0 
L 628 0 
L 628 4666 
z
" transform="scale(0.015625)"/>
       <path id="DejaVuSans-65" d="M 3597 1894 
L 3597 1613 
L 953 1613 
Q 991 1019 1311 708 
Q 1631 397 2203 397 
Q 2534 397 2845 478 
Q 3156 559 3463 722 
L 3463 178 
Q 3153 47 2828 -22 
Q 2503 -91 2169 -91 
Q 1331 -91 842 396 
Q 353 884 353 1716 
Q 353 2575 817 3079 
Q 1281 3584 2069 3584 
Q 2775 3584 3186 3129 
Q 3597 2675 3597 1894 
z
M 3022 2063 
Q 3016 2534 2758 2815 
Q 2500 3097 2075 3097 
Q 1594 3097 1305 2825 
Q 1016 2553 972 2059 
L 3022 2063 
z
" transform="scale(0.015625)"/>
       <path id="DejaVuSans-72" d="M 2631 2963 
Q 2534 3019 2420 3045 
Q 2306 3072 2169 3072 
Q 1681 3072 1420 2755 
Q 1159 2438 1159 1844 
L 1159 0 
L 581 0 
L 581 3500 
L 1159 3500 
L 1159 2956 
Q 1341 3275 1631 3429 
Q 1922 3584 2338 3584 
Q 2397 3584 2469 3576 
Q 2541 3569 2628 3553 
L 2631 2963 
z
" transform="scale(0.015625)"/>
       <path id="DejaVuSans-63" d="M 3122 3366 
L 3122 2828 
Q 2878 2963 2633 3030 
Q 2388 3097 2138 3097 
Q 1578 3097 1268 2742 
Q 959 2388 959 1747 
Q 959 1106 1268 751 
Q 1578 397 2138 397 
Q 2388 397 2633 464 
Q 2878 531 3122 666 
L 3122 134 
Q 2881 22 2623 -34 
Q 2366 -91 2075 -91 
Q 1284 -91 818 406 
Q 353 903 353 1747 
Q 353 2603 823 3093 
Q 1294 3584 2113 3584 
Q 2378 3584 2631 3529 
Q 2884 3475 3122 3366 
z
" transform="scale(0.015625)"/>
       <path id="DejaVuSans-6e" d="M 3513 2113 
L 3513 0 
L 2938 0 
L 2938 2094 
Q 2938 2591 2744 2837 
Q 2550 3084 2163 3084 
Q 1697 3084 1428 2787 
Q 1159 2491 1159 1978 
L 1159 0 
L 581 0 
L 581 3500 
L 1159 3500 
L 1159 2956 
Q 1366 3272 1645 3428 
Q 1925 3584 2291 3584 
Q 2894 3584 3203 3211 
Q 3513 2838 3513 2113 
z
" transform="scale(0.015625)"/>
       <path id="DejaVuSans-74" d="M 1172 4494 
L 1172 3500 
L 2356 3500 
L 2356 3053 
L 1172 3053 
L 1172 1153 
Q 1172 725 1289 603 
Q 1406 481 1766 481 
L 2356 481 
L 2356 0 
L 1766 0 
Q 1100 0 847 248 
Q 594 497 594 1153 
L 594 3053 
L 172 3053 
L 172 3500 
L 594 3500 
L 594 4494 
L 1172 4494 
z
" transform="scale(0.015625)"/>
       <path id="DejaVuSans-69" d="M 603 3500 
L 1178 3500 
L 1178 0 
L 603 0 
L 603 3500 
z
M 603 4863 
L 1178 4863 
L 1178 4134 
L 603 4134 
L 603 4863 
z
" transform="scale(0.015625)"/>
       <path id="DejaVuSans-6c" d="M 603 4863 
L 1178 4863 
L 1178 0 
L 603 0 
L 603 4863 
z
" transform="scale(0.015625)"/>
       <path id="DejaVuSans-20" transform="scale(0.015625)"/>
       <path id="DejaVuSans-54" d="M -19 4666 
L 3928 4666 
L 3928 4134 
L 2272 4134 
L 2272 0 
L 1638 0 
L 1638 4134 
L -19 4134 
L -19 4666 
z
" transform="scale(0.015625)"/>
       <path id="DejaVuSans-68" d="M 3513 2113 
L 3513 0 
L 2938 0 
L 2938 2094 
Q 2938 2591 2744 2837 
Q 2550 3084 2163 3084 
Q 1697 3084 1428 2787 
Q 1159 2491 1159 1978 
L 1159 0 
L 581 0 
L 581 4863 
L 1159 4863 
L 1159 2956 
Q 1366 3272 1645 3428 
Q 1925 3584 2291 3584 
Q 2894 3584 3203 3211 
Q 3513 2838 3513 2113 
z
" transform="scale(0.015625)"/>
       <path id="DejaVuSans-73" d="M 2834 3397 
L 2834 2853 
Q 2591 2978 2328 3040 
Q 2066 3103 1784 3103 
Q 1356 3103 1142 2972 
Q 928 2841 928 2578 
Q 928 2378 1081 2264 
Q 1234 2150 1697 2047 
L 1894 2003 
Q 2506 1872 2764 1633 
Q 3022 1394 3022 966 
Q 3022 478 2636 193 
Q 2250 -91 1575 -91 
Q 1294 -91 989 -36 
Q 684 19 347 128 
L 347 722 
Q 666 556 975 473 
Q 1284 391 1588 391 
Q 1994 391 2212 530 
Q 2431 669 2431 922 
Q 2431 1156 2273 1281 
Q 2116 1406 1581 1522 
L 1381 1569 
Q 847 1681 609 1914 
Q 372 2147 372 2553 
Q 372 3047 722 3315 
Q 1072 3584 1716 3584 
Q 2034 3584 2315 3537 
Q 2597 3491 2834 3397 
z
" transform="scale(0.015625)"/>
       <path id="DejaVuSans-6f" d="M 1959 3097 
Q 1497 3097 1228 2736 
Q 959 2375 959 1747 
Q 959 1119 1226 758 
Q 1494 397 1959 397 
Q 2419 397 2687 759 
Q 2956 1122 2956 1747 
Q 2956 2369 2687 2733 
Q 2419 3097 1959 3097 
z
M 1959 3584 
Q 2709 3584 3137 3096 
Q 3566 2609 3566 1747 
Q 3566 888 3137 398 
Q 2709 -91 1959 -91 
Q 1206 -91 779 398 
Q 353 888 353 1747 
Q 353 2609 779 3096 
Q 1206 3584 1959 3584 
z
" transform="scale(0.015625)"/>
       <path id="DejaVuSans-64" d="M 2906 2969 
L 2906 4863 
L 3481 4863 
L 3481 0 
L 2906 0 
L 2906 525 
Q 2725 213 2448 61 
Q 2172 -91 1784 -91 
Q 1150 -91 751 415 
Q 353 922 353 1747 
Q 353 2572 751 3078 
Q 1150 3584 1784 3584 
Q 2172 3584 2448 3432 
Q 2725 3281 2906 2969 
z
M 947 1747 
Q 947 1113 1208 752 
Q 1469 391 1925 391 
Q 2381 391 2643 752 
Q 2906 1113 2906 1747 
Q 2906 2381 2643 2742 
Q 2381 3103 1925 3103 
Q 1469 3103 1208 2742 
Q 947 2381 947 1747 
z
" transform="scale(0.015625)"/>
      </defs>
      <use xlink:href="#DejaVuSans-50"/>
      <use xlink:href="#DejaVuSans-65" x="56.677734"/>
      <use xlink:href="#DejaVuSans-72" x="118.201172"/>
      <use xlink:href="#DejaVuSans-63" x="157.064453"/>
      <use xlink:href="#DejaVuSans-65" x="212.044922"/>
      <use xlink:href="#DejaVuSans-6e" x="273.568359"/>
      <use xlink:href="#DejaVuSans-74" x="336.947266"/>
      <use xlink:href="#DejaVuSans-69" x="376.15625"/>
      <use xlink:href="#DejaVuSans-6c" x="403.939453"/>
      <use xlink:href="#DejaVuSans-65" x="431.722656"/>
      <use xlink:href="#DejaVuSans-20" x="493.246094"/>
      <use xlink:href="#DejaVuSans-54" x="525.033203"/>
      <use xlink:href="#DejaVuSans-68" x="586.117188"/>
      <use xlink:href="#DejaVuSans-72" x="649.496094"/>
      <use xlink:href="#DejaVuSans-65" x="688.359375"/>
      <use xlink:href="#DejaVuSans-73" x="749.882812"/>
      <use xlink:href="#DejaVuSans-68" x="801.982422"/>
      <use xlink:href="#DejaVuSans-6f" x="865.361328"/>
      <use xlink:href="#DejaVuSans-6c" x="926.542969"/>
      <use xlink:href="#DejaVuSans-64" x="954.326172"/>
     </g>
     <!-- (Using "leave_out" Threshold Handling) -->
     <g transform="translate(407.379375 557.78075) scale(0.2 -0.2)">
      <defs>
       <path id="DejaVuSans-28" d="M 1984 4856 
Q 1566 4138 1362 3434 
Q 1159 2731 1159 2009 
Q 1159 1288 1364 580 
Q 1569 -128 1984 -844 
L 1484 -844 
Q 1016 -109 783 600 
Q 550 1309 550 2009 
Q 550 2706 781 3412 
Q 1013 4119 1484 4856 
L 1984 4856 
z
" transform="scale(0.015625)"/>
       <path id="DejaVuSans-55" d="M 556 4666 
L 1191 4666 
L 1191 1831 
Q 1191 1081 1462 751 
Q 1734 422 2344 422 
Q 2950 422 3222 751 
Q 3494 1081 3494 1831 
L 3494 4666 
L 4128 4666 
L 4128 1753 
Q 4128 841 3676 375 
Q 3225 -91 2344 -91 
Q 1459 -91 1007 375 
Q 556 841 556 1753 
L 556 4666 
z
" transform="scale(0.015625)"/>
       <path id="DejaVuSans-67" d="M 2906 1791 
Q 2906 2416 2648 2759 
Q 2391 3103 1925 3103 
Q 1463 3103 1205 2759 
Q 947 2416 947 1791 
Q 947 1169 1205 825 
Q 1463 481 1925 481 
Q 2391 481 2648 825 
Q 2906 1169 2906 1791 
z
M 3481 434 
Q 3481 -459 3084 -895 
Q 2688 -1331 1869 -1331 
Q 1566 -1331 1297 -1286 
Q 1028 -1241 775 -1147 
L 775 -588 
Q 1028 -725 1275 -790 
Q 1522 -856 1778 -856 
Q 2344 -856 2625 -561 
Q 2906 -266 2906 331 
L 2906 616 
Q 2728 306 2450 153 
Q 2172 0 1784 0 
Q 1141 0 747 490 
Q 353 981 353 1791 
Q 353 2603 747 3093 
Q 1141 3584 1784 3584 
Q 2172 3584 2450 3431 
Q 2728 3278 2906 2969 
L 2906 3500 
L 3481 3500 
L 3481 434 
z
" transform="scale(0.015625)"/>
       <path id="DejaVuSans-22" d="M 1147 4666 
L 1147 2931 
L 616 2931 
L 616 4666 
L 1147 4666 
z
M 2328 4666 
L 2328 2931 
L 1797 2931 
L 1797 4666 
L 2328 4666 
z
" transform="scale(0.015625)"/>
       <path id="DejaVuSans-61" d="M 2194 1759 
Q 1497 1759 1228 1600 
Q 959 1441 959 1056 
Q 959 750 1161 570 
Q 1363 391 1709 391 
Q 2188 391 2477 730 
Q 2766 1069 2766 1631 
L 2766 1759 
L 2194 1759 
z
M 3341 1997 
L 3341 0 
L 2766 0 
L 2766 531 
Q 2569 213 2275 61 
Q 1981 -91 1556 -91 
Q 1019 -91 701 211 
Q 384 513 384 1019 
Q 384 1609 779 1909 
Q 1175 2209 1959 2209 
L 2766 2209 
L 2766 2266 
Q 2766 2663 2505 2880 
Q 2244 3097 1772 3097 
Q 1472 3097 1187 3025 
Q 903 2953 641 2809 
L 641 3341 
Q 956 3463 1253 3523 
Q 1550 3584 1831 3584 
Q 2591 3584 2966 3190 
Q 3341 2797 3341 1997 
z
" transform="scale(0.015625)"/>
       <path id="DejaVuSans-76" d="M 191 3500 
L 800 3500 
L 1894 563 
L 2988 3500 
L 3597 3500 
L 2284 0 
L 1503 0 
L 191 3500 
z
" transform="scale(0.015625)"/>
       <path id="DejaVuSans-5f" d="M 3263 -1063 
L 3263 -1509 
L -63 -1509 
L -63 -1063 
L 3263 -1063 
z
" transform="scale(0.015625)"/>
       <path id="DejaVuSans-75" d="M 544 1381 
L 544 3500 
L 1119 3500 
L 1119 1403 
Q 1119 906 1312 657 
Q 1506 409 1894 409 
Q 2359 409 2629 706 
Q 2900 1003 2900 1516 
L 2900 3500 
L 3475 3500 
L 3475 0 
L 2900 0 
L 2900 538 
Q 2691 219 2414 64 
Q 2138 -91 1772 -91 
Q 1169 -91 856 284 
Q 544 659 544 1381 
z
M 1991 3584 
L 1991 3584 
z
" transform="scale(0.015625)"/>
       <path id="DejaVuSans-48" d="M 628 4666 
L 1259 4666 
L 1259 2753 
L 3553 2753 
L 3553 4666 
L 4184 4666 
L 4184 0 
L 3553 0 
L 3553 2222 
L 1259 2222 
L 1259 0 
L 628 0 
L 628 4666 
z
" transform="scale(0.015625)"/>
       <path id="DejaVuSans-29" d="M 513 4856 
L 1013 4856 
Q 1481 4119 1714 3412 
Q 1947 2706 1947 2009 
Q 1947 1309 1714 600 
Q 1481 -109 1013 -844 
L 513 -844 
Q 928 -128 1133 580 
Q 1338 1288 1338 2009 
Q 1338 2731 1133 3434 
Q 928 4138 513 4856 
z
" transform="scale(0.015625)"/>
      </defs>
      <use xlink:href="#DejaVuSans-28"/>
      <use xlink:href="#DejaVuSans-55" x="39.013672"/>
      <use xlink:href="#DejaVuSans-73" x="112.207031"/>
      <use xlink:href="#DejaVuSans-69" x="164.306641"/>
      <use xlink:href="#DejaVuSans-6e" x="192.089844"/>
      <use xlink:href="#DejaVuSans-67" x="255.46875"/>
      <use xlink:href="#DejaVuSans-20" x="318.945312"/>
      <use xlink:href="#DejaVuSans-22" x="350.732422"/>
      <use xlink:href="#DejaVuSans-6c" x="396.728516"/>
      <use xlink:href="#DejaVuSans-65" x="424.511719"/>
      <use xlink:href="#DejaVuSans-61" x="486.035156"/>
      <use xlink:href="#DejaVuSans-76" x="547.314453"/>
      <use xlink:href="#DejaVuSans-65" x="606.494141"/>
      <use xlink:href="#DejaVuSans-5f" x="668.017578"/>
      <use xlink:href="#DejaVuSans-6f" x="718.017578"/>
      <use xlink:href="#DejaVuSans-75" x="779.199219"/>
      <use xlink:href="#DejaVuSans-74" x="842.578125"/>
      <use xlink:href="#DejaVuSans-22" x="881.787109"/>
      <use xlink:href="#DejaVuSans-20" x="927.783203"/>
      <use xlink:href="#DejaVuSans-54" x="959.570312"/>
      <use xlink:href="#DejaVuSans-68" x="1020.654297"/>
      <use xlink:href="#DejaVuSans-72" x="1084.033203"/>
      <use xlink:href="#DejaVuSans-65" x="1122.896484"/>
      <use xlink:href="#DejaVuSans-73" x="1184.419922"/>
      <use xlink:href="#DejaVuSans-68" x="1236.519531"/>
      <use xlink:href="#DejaVuSans-6f" x="1299.898438"/>
      <use xlink:href="#DejaVuSans-6c" x="1361.080078"/>
      <use xlink:href="#DejaVuSans-64" x="1388.863281"/>
      <use xlink:href="#DejaVuSans-20" x="1452.339844"/>
      <use xlink:href="#DejaVuSans-48" x="1484.126953"/>
      <use xlink:href="#DejaVuSans-61" x="1559.322266"/>
      <use xlink:href="#DejaVuSans-6e" x="1620.601562"/>
      <use xlink:href="#DejaVuSans-64" x="1683.980469"/>
      <use xlink:href="#DejaVuSans-6c" x="1747.457031"/>
      <use xlink:href="#DejaVuSans-69" x="1775.240234"/>
      <use xlink:href="#DejaVuSans-6e" x="1803.023438"/>
      <use xlink:href="#DejaVuSans-67" x="1866.402344"/>
      <use xlink:href="#DejaVuSans-29" x="1929.878906"/>
     </g>
    </g>
   </g>
   <g id="matplotlib.axis_2">
    <g id="ytick_1">
     <g id="line2d_7">
      <defs>
       <path id="mbe5f5b13e9" d="M 0 0 
L -3.5 0 
" style="stroke: #000000; stroke-width: 0.8"/>
      </defs>
      <g>
       <use xlink:href="#mbe5f5b13e9" x="67.34" y="458.710858" style="stroke: #000000; stroke-width: 0.8"/>
      </g>
     </g>
     <g id="text_8">
      <!-- 10 -->
      <g transform="translate(34.89 466.309295) scale(0.2 -0.2)">
       <use xlink:href="#DejaVuSans-31"/>
       <use xlink:href="#DejaVuSans-30" x="63.623047"/>
      </g>
     </g>
    </g>
    <g id="ytick_2">
     <g id="line2d_8">
      <g>
       <use xlink:href="#mbe5f5b13e9" x="67.34" y="403.745757" style="stroke: #000000; stroke-width: 0.8"/>
      </g>
     </g>
     <g id="text_9">
      <!-- 12 -->
      <g transform="translate(34.89 411.344194) scale(0.2 -0.2)">
       <use xlink:href="#DejaVuSans-31"/>
       <use xlink:href="#DejaVuSans-32" x="63.623047"/>
      </g>
     </g>
    </g>
    <g id="ytick_3">
     <g id="line2d_9">
      <g>
       <use xlink:href="#mbe5f5b13e9" x="67.34" y="348.780656" style="stroke: #000000; stroke-width: 0.8"/>
      </g>
     </g>
     <g id="text_10">
      <!-- 14 -->
      <g transform="translate(34.89 356.379093) scale(0.2 -0.2)">
       <use xlink:href="#DejaVuSans-31"/>
       <use xlink:href="#DejaVuSans-34" x="63.623047"/>
      </g>
     </g>
    </g>
    <g id="ytick_4">
     <g id="line2d_10">
      <g>
       <use xlink:href="#mbe5f5b13e9" x="67.34" y="293.815555" style="stroke: #000000; stroke-width: 0.8"/>
      </g>
     </g>
     <g id="text_11">
      <!-- 16 -->
      <g transform="translate(34.89 301.413992) scale(0.2 -0.2)">
       <defs>
        <path id="DejaVuSans-36" d="M 2113 2584 
Q 1688 2584 1439 2293 
Q 1191 2003 1191 1497 
Q 1191 994 1439 701 
Q 1688 409 2113 409 
Q 2538 409 2786 701 
Q 3034 994 3034 1497 
Q 3034 2003 2786 2293 
Q 2538 2584 2113 2584 
z
M 3366 4563 
L 3366 3988 
Q 3128 4100 2886 4159 
Q 2644 4219 2406 4219 
Q 1781 4219 1451 3797 
Q 1122 3375 1075 2522 
Q 1259 2794 1537 2939 
Q 1816 3084 2150 3084 
Q 2853 3084 3261 2657 
Q 3669 2231 3669 1497 
Q 3669 778 3244 343 
Q 2819 -91 2113 -91 
Q 1303 -91 875 529 
Q 447 1150 447 2328 
Q 447 3434 972 4092 
Q 1497 4750 2381 4750 
Q 2619 4750 2861 4703 
Q 3103 4656 3366 4563 
z
" transform="scale(0.015625)"/>
       </defs>
       <use xlink:href="#DejaVuSans-31"/>
       <use xlink:href="#DejaVuSans-36" x="63.623047"/>
      </g>
     </g>
    </g>
    <g id="ytick_5">
     <g id="line2d_11">
      <g>
       <use xlink:href="#mbe5f5b13e9" x="67.34" y="238.850454" style="stroke: #000000; stroke-width: 0.8"/>
      </g>
     </g>
     <g id="text_12">
      <!-- 18 -->
      <g transform="translate(34.89 246.448891) scale(0.2 -0.2)">
       <defs>
        <path id="DejaVuSans-38" d="M 2034 2216 
Q 1584 2216 1326 1975 
Q 1069 1734 1069 1313 
Q 1069 891 1326 650 
Q 1584 409 2034 409 
Q 2484 409 2743 651 
Q 3003 894 3003 1313 
Q 3003 1734 2745 1975 
Q 2488 2216 2034 2216 
z
M 1403 2484 
Q 997 2584 770 2862 
Q 544 3141 544 3541 
Q 544 4100 942 4425 
Q 1341 4750 2034 4750 
Q 2731 4750 3128 4425 
Q 3525 4100 3525 3541 
Q 3525 3141 3298 2862 
Q 3072 2584 2669 2484 
Q 3125 2378 3379 2068 
Q 3634 1759 3634 1313 
Q 3634 634 3220 271 
Q 2806 -91 2034 -91 
Q 1263 -91 848 271 
Q 434 634 434 1313 
Q 434 1759 690 2068 
Q 947 2378 1403 2484 
z
M 1172 3481 
Q 1172 3119 1398 2916 
Q 1625 2713 2034 2713 
Q 2441 2713 2670 2916 
Q 2900 3119 2900 3481 
Q 2900 3844 2670 4047 
Q 2441 4250 2034 4250 
Q 1625 4250 1398 4047 
Q 1172 3844 1172 3481 
z
" transform="scale(0.015625)"/>
       </defs>
       <use xlink:href="#DejaVuSans-31"/>
       <use xlink:href="#DejaVuSans-38" x="63.623047"/>
      </g>
     </g>
    </g>
    <g id="ytick_6">
     <g id="line2d_12">
      <g>
       <use xlink:href="#mbe5f5b13e9" x="67.34" y="183.885353" style="stroke: #000000; stroke-width: 0.8"/>
      </g>
     </g>
     <g id="text_13">
      <!-- 20 -->
      <g transform="translate(34.89 191.48379) scale(0.2 -0.2)">
       <use xlink:href="#DejaVuSans-32"/>
       <use xlink:href="#DejaVuSans-30" x="63.623047"/>
      </g>
     </g>
    </g>
    <g id="ytick_7">
     <g id="line2d_13">
      <g>
       <use xlink:href="#mbe5f5b13e9" x="67.34" y="128.920252" style="stroke: #000000; stroke-width: 0.8"/>
      </g>
     </g>
     <g id="text_14">
      <!-- 22 -->
      <g transform="translate(34.89 136.518689) scale(0.2 -0.2)">
       <use xlink:href="#DejaVuSans-32"/>
       <use xlink:href="#DejaVuSans-32" x="63.623047"/>
      </g>
     </g>
    </g>
    <g id="ytick_8">
     <g id="line2d_14">
      <g>
       <use xlink:href="#mbe5f5b13e9" x="67.34" y="73.955151" style="stroke: #000000; stroke-width: 0.8"/>
      </g>
     </g>
     <g id="text_15">
      <!-- 24 -->
      <g transform="translate(34.89 81.553588) scale(0.2 -0.2)">
       <use xlink:href="#DejaVuSans-32"/>
       <use xlink:href="#DejaVuSans-34" x="63.623047"/>
      </g>
     </g>
    </g>
    <g id="ytick_9">
     <g id="line2d_15">
      <g>
       <use xlink:href="#mbe5f5b13e9" x="67.34" y="18.99005" style="stroke: #000000; stroke-width: 0.8"/>
      </g>
     </g>
     <g id="text_16">
      <!-- 26 -->
      <g transform="translate(34.89 26.588487) scale(0.2 -0.2)">
       <use xlink:href="#DejaVuSans-32"/>
       <use xlink:href="#DejaVuSans-36" x="63.623047"/>
      </g>
     </g>
    </g>
    <g id="text_17">
     <!-- MAE -->
     <g transform="translate(26.730625 274.156642) rotate(-90) scale(0.2 -0.2)">
      <defs>
       <path id="DejaVuSans-4d" d="M 628 4666 
L 1569 4666 
L 2759 1491 
L 3956 4666 
L 4897 4666 
L 4897 0 
L 4281 0 
L 4281 4097 
L 3078 897 
L 2444 897 
L 1241 4097 
L 1241 0 
L 628 0 
L 628 4666 
z
" transform="scale(0.015625)"/>
       <path id="DejaVuSans-41" d="M 2188 4044 
L 1331 1722 
L 3047 1722 
L 2188 4044 
z
M 1831 4666 
L 2547 4666 
L 4325 0 
L 3669 0 
L 3244 1197 
L 1141 1197 
L 716 0 
L 50 0 
L 1831 4666 
z
" transform="scale(0.015625)"/>
       <path id="DejaVuSans-45" d="M 628 4666 
L 3578 4666 
L 3578 4134 
L 1259 4134 
L 1259 2753 
L 3481 2753 
L 3481 2222 
L 1259 2222 
L 1259 531 
L 3634 531 
L 3634 0 
L 628 0 
L 628 4666 
z
" transform="scale(0.015625)"/>
      </defs>
      <use xlink:href="#DejaVuSans-4d"/>
      <use xlink:href="#DejaVuSans-41" x="86.279297"/>
      <use xlink:href="#DejaVuSans-45" x="154.6875"/>
     </g>
    </g>
   </g>
   <g id="line2d_16">
    <path d="M 116.151818 457.14816 
L 156.828333 447.50917 
L 197.504848 425.775393 
L 238.181364 416.504628 
L 278.857879 399.787231 
L 319.534394 369.919962 
L 360.210909 346.471637 
L 400.887424 333.238758 
L 441.563939 309.440398 
L 482.240455 302.320945 
L 522.91697 311.071495 
L 563.593485 297.562305 
L 604.27 274.03884 
L 644.946515 250.740997 
L 685.62303 236.168142 
L 726.299545 225.641445 
L 766.976061 231.453678 
L 807.652576 199.829345 
L 848.329091 208.919975 
L 889.005606 221.810917 
L 929.682121 210.356227 
L 970.358636 235.149024 
L 1011.035152 232.053129 
L 1051.711667 230.678329 
L 1092.388182 232.95746 
" clip-path="url(#pbb0be6cd8e)" style="fill: none; stroke: #f77189; stroke-width: 1.5; stroke-linecap: square"/>
   </g>
   <g id="line2d_17">
    <path d="M 116.151818 464.143328 
L 156.828333 455.070683 
L 197.504848 427.28741 
L 238.181364 409.458182 
L 278.857879 376.793686 
L 319.534394 358.575938 
L 360.210909 351.063971 
L 400.887424 332.757421 
L 441.563939 311.14967 
L 482.240455 306.16765 
L 522.91697 295.430305 
L 563.593485 294.677796 
L 604.27 271.722127 
L 644.946515 251.297148 
L 685.62303 245.795355 
L 726.299545 253.539884 
L 766.976061 246.773019 
L 807.652576 250.377029 
L 848.329091 243.246369 
L 889.005606 203.160489 
L 929.682121 194.736917 
L 970.358636 201.438146 
L 1011.035152 217.8513 
L 1051.711667 229.689017 
L 1092.388182 228.291019 
" clip-path="url(#pbb0be6cd8e)" style="fill: none; stroke: #e18632; stroke-width: 1.5; stroke-linecap: square"/>
   </g>
   <g id="line2d_18">
    <path d="M 116.151818 446.234646 
L 156.828333 438.86137 
L 197.504848 425.708733 
L 238.181364 409.35953 
L 278.857879 392.394486 
L 319.534394 384.221548 
L 360.210909 365.543014 
L 400.887424 346.97492 
L 441.563939 340.493651 
L 482.240455 335.909997 
L 522.91697 328.470322 
L 563.593485 319.071158 
L 604.27 302.821318 
L 644.946515 299.132665 
L 685.62303 282.577675 
L 726.299545 261.03857 
L 766.976061 259.887271 
L 807.652576 238.870548 
L 848.329091 251.402041 
L 889.005606 260.112161 
L 929.682121 260.495604 
L 970.358636 268.039937 
L 1011.035152 262.354629 
L 1051.711667 267.252942 
L 1092.388182 270.837249 
" clip-path="url(#pbb0be6cd8e)" style="fill: none; stroke: #b59a32; stroke-width: 1.5; stroke-linecap: square"/>
   </g>
   <g id="line2d_19">
    <path d="M 116.151818 449.89035 
L 156.828333 438.393165 
L 197.504848 410.762718 
L 238.181364 389.469293 
L 278.857879 362.841092 
L 319.534394 336.186293 
L 360.210909 318.593703 
L 400.887424 296.442282 
L 441.563939 275.137257 
L 482.240455 276.276403 
L 522.91697 263.221535 
L 563.593485 264.224103 
L 604.27 239.161559 
L 644.946515 215.362881 
L 685.62303 200.207034 
L 726.299545 225.510378 
L 766.976061 219.43997 
L 807.652576 204.334957 
L 848.329091 204.608077 
L 889.005606 193.194252 
L 929.682121 174.817022 
L 970.358636 191.870504 
L 1011.035152 202.403148 
L 1051.711667 198.378876 
L 1092.388182 194.130915 
" clip-path="url(#pbb0be6cd8e)" style="fill: none; stroke: #8ba731; stroke-width: 1.5; stroke-linecap: square"/>
   </g>
   <g id="line2d_20">
    <path d="M 116.151818 441.030364 
L 156.828333 433.203902 
L 197.504848 410.435501 
L 238.181364 383.971493 
L 278.857879 363.651582 
L 319.534394 331.684848 
L 360.210909 321.288005 
L 400.887424 315.109481 
L 441.563939 289.531183 
L 482.240455 269.032096 
L 522.91697 248.576418 
L 563.593485 262.113887 
L 604.27 222.132094 
L 644.946515 217.881326 
L 685.62303 217.974625 
L 726.299545 221.698977 
L 766.976061 221.287414 
L 807.652576 198.322666 
L 848.329091 191.688352 
L 889.005606 177.485876 
L 929.682121 160.617861 
L 970.358636 175.819828 
L 1011.035152 182.664057 
L 1051.711667 176.85866 
L 1092.388182 177.587764 
" clip-path="url(#pbb0be6cd8e)" style="fill: none; stroke: #32b258; stroke-width: 1.5; stroke-linecap: square"/>
   </g>
   <g id="line2d_21">
    <path d="M 116.151818 415.643651 
L 156.828333 396.510631 
L 197.504848 338.902475 
L 238.181364 317.907781 
L 278.857879 295.483123 
L 319.534394 244.96352 
L 360.210909 235.443235 
L 400.887424 202.954122 
L 441.563939 197.141643 
L 482.240455 182.499714 
L 522.91697 137.740146 
L 563.593485 159.892887 
L 604.27 175.303142 
L 644.946515 144.691366 
L 685.62303 132.434117 
L 726.299545 175.683935 
L 766.976061 162.389802 
L 807.652576 165.0788 
L 848.329091 135.946751 
L 889.005606 119.488666 
L 929.682121 78.91237 
L 970.358636 101.940276 
L 1011.035152 110.276286 
L 1051.711667 54.325575 
L 1092.388182 97.763273 
" clip-path="url(#pbb0be6cd8e)" style="fill: none; stroke: #35ae95; stroke-width: 1.5; stroke-linecap: square"/>
   </g>
   <g id="line2d_22">
    <path d="M 116.151818 435.095411 
L 156.828333 419.604204 
L 197.504848 357.443098 
L 238.181364 344.257149 
L 278.857879 317.509813 
L 319.534394 282.044561 
L 360.210909 269.505151 
L 400.887424 246.763432 
L 441.563939 208.775781 
L 482.240455 206.24589 
L 522.91697 203.387224 
L 563.593485 197.51944 
L 604.27 202.809451 
L 644.946515 186.330393 
L 685.62303 166.108748 
L 726.299545 201.745229 
L 766.976061 196.866974 
L 807.652576 230.813636 
L 848.329091 184.267387 
L 889.005606 141.448165 
L 929.682121 112.300905 
L 970.358636 131.991029 
L 1011.035152 159.802405 
L 1051.711667 128.724172 
L 1092.388182 122.411237 
" clip-path="url(#pbb0be6cd8e)" style="fill: none; stroke: #37abb2; stroke-width: 1.5; stroke-linecap: square"/>
   </g>
   <g id="line2d_23">
    <path d="M 116.151818 373.505853 
L 156.828333 374.190172 
L 197.504848 371.033654 
L 238.181364 348.33644 
L 278.857879 320.533056 
L 319.534394 324.478885 
L 360.210909 304.935988 
L 400.887424 269.481457 
L 441.563939 257.023901 
L 482.240455 241.936339 
L 522.91697 225.657405 
L 563.593485 211.948575 
L 604.27 188.89535 
L 644.946515 177.90748 
L 685.62303 141.262274 
L 726.299545 138.367233 
L 766.976061 144.186983 
L 807.652576 144.751234 
L 848.329091 157.307097 
L 889.005606 185.223205 
L 929.682121 187.257911 
L 970.358636 197.795423 
L 1011.035152 202.424113 
L 1051.711667 200.381231 
L 1092.388182 214.32473 
" clip-path="url(#pbb0be6cd8e)" style="fill: none; stroke: #39a7d6; stroke-width: 1.5; stroke-linecap: square"/>
   </g>
   <g id="line2d_24">
    <path d="M 116.151818 344.972885 
L 156.828333 324.569345 
L 197.504848 312.613251 
L 238.181364 303.202246 
L 278.857879 287.646403 
L 319.534394 263.99426 
L 360.210909 258.723691 
L 400.887424 241.596938 
L 441.563939 242.414601 
L 482.240455 237.940599 
L 522.91697 237.067951 
L 563.593485 225.938972 
L 604.27 217.555947 
L 644.946515 200.48912 
L 685.62303 188.26798 
L 726.299545 205.720739 
L 766.976061 196.191635 
L 807.652576 170.869262 
L 848.329091 198.446907 
L 889.005606 199.961 
L 929.682121 178.412586 
L 970.358636 190.897236 
L 1011.035152 194.82846 
L 1051.711667 193.022142 
L 1092.388182 196.391307 
" clip-path="url(#pbb0be6cd8e)" style="fill: none; stroke: #8f93f4; stroke-width: 1.5; stroke-linecap: square"/>
   </g>
   <g id="line2d_25">
    <path d="M 116.151818 344.051169 
L 156.828333 340.256631 
L 197.504848 325.943818 
L 238.181364 312.999653 
L 278.857879 301.108775 
L 319.534394 280.836407 
L 360.210909 263.324877 
L 400.887424 249.439762 
L 441.563939 239.958685 
L 482.240455 231.157252 
L 522.91697 225.321917 
L 563.593485 250.202828 
L 604.27 224.745909 
L 644.946515 231.167029 
L 685.62303 232.675851 
L 726.299545 225.460183 
L 766.976061 213.101713 
L 807.652576 213.726294 
L 848.329091 220.844136 
L 889.005606 233.196333 
L 929.682121 217.641472 
L 970.358636 222.852171 
L 1011.035152 209.529374 
L 1051.711667 203.484912 
L 1092.388182 216.071803 
" clip-path="url(#pbb0be6cd8e)" style="fill: none; stroke: #db70f4; stroke-width: 1.5; stroke-linecap: square"/>
   </g>
   <g id="line2d_26">
    <path d="M 116.151818 344.049496 
L 156.828333 340.250552 
L 197.504848 325.94476 
L 238.181364 313.005406 
L 278.857879 301.107611 
L 319.534394 280.856846 
L 360.210909 263.325373 
L 400.887424 249.441672 
L 441.563939 240.135794 
L 482.240455 231.158945 
L 522.91697 225.425369 
L 563.593485 250.214205 
L 604.27 224.777699 
L 644.946515 231.210032 
L 685.62303 232.649649 
L 726.299545 225.476032 
L 766.976061 213.102294 
L 807.652576 213.760564 
L 848.329091 220.893927 
L 889.005606 233.207408 
L 929.682121 217.666846 
L 970.358636 222.914129 
L 1011.035152 209.512408 
L 1051.711667 203.48426 
L 1092.388182 216.015405 
" clip-path="url(#pbb0be6cd8e)" style="fill: none; stroke: #f667c6; stroke-width: 1.5; stroke-linecap: square"/>
   </g>
   <g id="line2d_27"/>
   <g id="line2d_28"/>
   <g id="line2d_29"/>
   <g id="line2d_30"/>
   <g id="line2d_31"/>
   <g id="line2d_32"/>
   <g id="line2d_33"/>
   <g id="line2d_34"/>
   <g id="line2d_35"/>
   <g id="line2d_36"/>
   <g id="line2d_37"/>
   <g id="patch_3">
    <path d="M 67.34 489.832 
L 67.34 14.906284 
" style="fill: none; stroke: #000000; stroke-width: 0.8; stroke-linejoin: miter; stroke-linecap: square"/>
   </g>
   <g id="patch_4">
    <path d="M 1141.2 489.832 
L 1141.2 14.906284 
" style="fill: none; stroke: #000000; stroke-width: 0.8; stroke-linejoin: miter; stroke-linecap: square"/>
   </g>
   <g id="patch_5">
    <path d="M 67.34 489.832 
L 1141.2 489.832 
" style="fill: none; stroke: #000000; stroke-width: 0.8; stroke-linejoin: miter; stroke-linecap: square"/>
   </g>
   <g id="patch_6">
    <path d="M 67.34 14.906284 
L 1141.2 14.906284 
" style="fill: none; stroke: #000000; stroke-width: 0.8; stroke-linejoin: miter; stroke-linecap: square"/>
   </g>
   <g id="legend_1">
    <g id="patch_7">
     <path d="M 78.54 481.832 
L 248.285 481.832 
Q 251.485 481.832 251.485 478.632 
L 251.485 221.897 
Q 251.485 218.697 248.285 218.697 
L 78.54 218.697 
Q 75.34 218.697 75.34 221.897 
L 75.34 478.632 
Q 75.34 481.832 78.54 481.832 
z
" style="fill: #ffffff; opacity: 0.8; stroke: #cccccc; stroke-linejoin: miter"/>
    </g>
    <g id="line2d_38">
     <path d="M 81.74 231.6545 
L 97.74 231.6545 
L 113.74 231.6545 
" style="fill: none; stroke: #f77189; stroke-width: 1.5; stroke-linecap: square"/>
    </g>
    <g id="text_18">
     <!-- gbr -->
     <g transform="translate(126.54 237.2545) scale(0.16 -0.16)">
      <defs>
       <path id="DejaVuSans-62" d="M 3116 1747 
Q 3116 2381 2855 2742 
Q 2594 3103 2138 3103 
Q 1681 3103 1420 2742 
Q 1159 2381 1159 1747 
Q 1159 1113 1420 752 
Q 1681 391 2138 391 
Q 2594 391 2855 752 
Q 3116 1113 3116 1747 
z
M 1159 2969 
Q 1341 3281 1617 3432 
Q 1894 3584 2278 3584 
Q 2916 3584 3314 3078 
Q 3713 2572 3713 1747 
Q 3713 922 3314 415 
Q 2916 -91 2278 -91 
Q 1894 -91 1617 61 
Q 1341 213 1159 525 
L 1159 0 
L 581 0 
L 581 4863 
L 1159 4863 
L 1159 2969 
z
" transform="scale(0.015625)"/>
      </defs>
      <use xlink:href="#DejaVuSans-67"/>
      <use xlink:href="#DejaVuSans-62" x="63.476562"/>
      <use xlink:href="#DejaVuSans-72" x="126.953125"/>
     </g>
    </g>
    <g id="line2d_39">
     <path d="M 81.74 255.1395 
L 97.74 255.1395 
L 113.74 255.1395 
" style="fill: none; stroke: #e18632; stroke-width: 1.5; stroke-linecap: square"/>
    </g>
    <g id="text_19">
     <!-- xgb -->
     <g transform="translate(126.54 260.7395) scale(0.16 -0.16)">
      <defs>
       <path id="DejaVuSans-78" d="M 3513 3500 
L 2247 1797 
L 3578 0 
L 2900 0 
L 1881 1375 
L 863 0 
L 184 0 
L 1544 1831 
L 300 3500 
L 978 3500 
L 1906 2253 
L 2834 3500 
L 3513 3500 
z
" transform="scale(0.015625)"/>
      </defs>
      <use xlink:href="#DejaVuSans-78"/>
      <use xlink:href="#DejaVuSans-67" x="59.179688"/>
      <use xlink:href="#DejaVuSans-62" x="122.65625"/>
     </g>
    </g>
    <g id="line2d_40">
     <path d="M 81.74 278.6245 
L 97.74 278.6245 
L 113.74 278.6245 
" style="fill: none; stroke: #b59a32; stroke-width: 1.5; stroke-linecap: square"/>
    </g>
    <g id="text_20">
     <!-- BayesianRidge -->
     <g transform="translate(126.54 284.2245) scale(0.16 -0.16)">
      <defs>
       <path id="DejaVuSans-42" d="M 1259 2228 
L 1259 519 
L 2272 519 
Q 2781 519 3026 730 
Q 3272 941 3272 1375 
Q 3272 1813 3026 2020 
Q 2781 2228 2272 2228 
L 1259 2228 
z
M 1259 4147 
L 1259 2741 
L 2194 2741 
Q 2656 2741 2882 2914 
Q 3109 3088 3109 3444 
Q 3109 3797 2882 3972 
Q 2656 4147 2194 4147 
L 1259 4147 
z
M 628 4666 
L 2241 4666 
Q 2963 4666 3353 4366 
Q 3744 4066 3744 3513 
Q 3744 3084 3544 2831 
Q 3344 2578 2956 2516 
Q 3422 2416 3680 2098 
Q 3938 1781 3938 1306 
Q 3938 681 3513 340 
Q 3088 0 2303 0 
L 628 0 
L 628 4666 
z
" transform="scale(0.015625)"/>
       <path id="DejaVuSans-79" d="M 2059 -325 
Q 1816 -950 1584 -1140 
Q 1353 -1331 966 -1331 
L 506 -1331 
L 506 -850 
L 844 -850 
Q 1081 -850 1212 -737 
Q 1344 -625 1503 -206 
L 1606 56 
L 191 3500 
L 800 3500 
L 1894 763 
L 2988 3500 
L 3597 3500 
L 2059 -325 
z
" transform="scale(0.015625)"/>
       <path id="DejaVuSans-52" d="M 2841 2188 
Q 3044 2119 3236 1894 
Q 3428 1669 3622 1275 
L 4263 0 
L 3584 0 
L 2988 1197 
Q 2756 1666 2539 1819 
Q 2322 1972 1947 1972 
L 1259 1972 
L 1259 0 
L 628 0 
L 628 4666 
L 2053 4666 
Q 2853 4666 3247 4331 
Q 3641 3997 3641 3322 
Q 3641 2881 3436 2590 
Q 3231 2300 2841 2188 
z
M 1259 4147 
L 1259 2491 
L 2053 2491 
Q 2509 2491 2742 2702 
Q 2975 2913 2975 3322 
Q 2975 3731 2742 3939 
Q 2509 4147 2053 4147 
L 1259 4147 
z
" transform="scale(0.015625)"/>
      </defs>
      <use xlink:href="#DejaVuSans-42"/>
      <use xlink:href="#DejaVuSans-61" x="68.603516"/>
      <use xlink:href="#DejaVuSans-79" x="129.882812"/>
      <use xlink:href="#DejaVuSans-65" x="189.0625"/>
      <use xlink:href="#DejaVuSans-73" x="250.585938"/>
      <use xlink:href="#DejaVuSans-69" x="302.685547"/>
      <use xlink:href="#DejaVuSans-61" x="330.46875"/>
      <use xlink:href="#DejaVuSans-6e" x="391.748047"/>
      <use xlink:href="#DejaVuSans-52" x="455.126953"/>
      <use xlink:href="#DejaVuSans-69" x="524.609375"/>
      <use xlink:href="#DejaVuSans-64" x="552.392578"/>
      <use xlink:href="#DejaVuSans-67" x="615.869141"/>
      <use xlink:href="#DejaVuSans-65" x="679.345703"/>
     </g>
    </g>
    <g id="line2d_41">
     <path d="M 81.74 302.1095 
L 97.74 302.1095 
L 113.74 302.1095 
" style="fill: none; stroke: #8ba731; stroke-width: 1.5; stroke-linecap: square"/>
    </g>
    <g id="text_21">
     <!-- rf -->
     <g transform="translate(126.54 307.7095) scale(0.16 -0.16)">
      <defs>
       <path id="DejaVuSans-66" d="M 2375 4863 
L 2375 4384 
L 1825 4384 
Q 1516 4384 1395 4259 
Q 1275 4134 1275 3809 
L 1275 3500 
L 2222 3500 
L 2222 3053 
L 1275 3053 
L 1275 0 
L 697 0 
L 697 3053 
L 147 3053 
L 147 3500 
L 697 3500 
L 697 3744 
Q 697 4328 969 4595 
Q 1241 4863 1831 4863 
L 2375 4863 
z
" transform="scale(0.015625)"/>
      </defs>
      <use xlink:href="#DejaVuSans-72"/>
      <use xlink:href="#DejaVuSans-66" x="41.113281"/>
     </g>
    </g>
    <g id="line2d_42">
     <path d="M 81.74 325.5945 
L 97.74 325.5945 
L 113.74 325.5945 
" style="fill: none; stroke: #32b258; stroke-width: 1.5; stroke-linecap: square"/>
    </g>
    <g id="text_22">
     <!-- lgbm -->
     <g transform="translate(126.54 331.1945) scale(0.16 -0.16)">
      <defs>
       <path id="DejaVuSans-6d" d="M 3328 2828 
Q 3544 3216 3844 3400 
Q 4144 3584 4550 3584 
Q 5097 3584 5394 3201 
Q 5691 2819 5691 2113 
L 5691 0 
L 5113 0 
L 5113 2094 
Q 5113 2597 4934 2840 
Q 4756 3084 4391 3084 
Q 3944 3084 3684 2787 
Q 3425 2491 3425 1978 
L 3425 0 
L 2847 0 
L 2847 2094 
Q 2847 2600 2669 2842 
Q 2491 3084 2119 3084 
Q 1678 3084 1418 2786 
Q 1159 2488 1159 1978 
L 1159 0 
L 581 0 
L 581 3500 
L 1159 3500 
L 1159 2956 
Q 1356 3278 1631 3431 
Q 1906 3584 2284 3584 
Q 2666 3584 2933 3390 
Q 3200 3197 3328 2828 
z
" transform="scale(0.015625)"/>
      </defs>
      <use xlink:href="#DejaVuSans-6c"/>
      <use xlink:href="#DejaVuSans-67" x="27.783203"/>
      <use xlink:href="#DejaVuSans-62" x="91.259766"/>
      <use xlink:href="#DejaVuSans-6d" x="154.736328"/>
     </g>
    </g>
    <g id="line2d_43">
     <path d="M 81.74 349.0795 
L 97.74 349.0795 
L 113.74 349.0795 
" style="fill: none; stroke: #35ae95; stroke-width: 1.5; stroke-linecap: square"/>
    </g>
    <g id="text_23">
     <!-- dt -->
     <g transform="translate(126.54 354.6795) scale(0.16 -0.16)">
      <use xlink:href="#DejaVuSans-64"/>
      <use xlink:href="#DejaVuSans-74" x="63.476562"/>
     </g>
    </g>
    <g id="line2d_44">
     <path d="M 81.74 372.5645 
L 97.74 372.5645 
L 113.74 372.5645 
" style="fill: none; stroke: #37abb2; stroke-width: 1.5; stroke-linecap: square"/>
    </g>
    <g id="text_24">
     <!-- et -->
     <g transform="translate(126.54 378.1645) scale(0.16 -0.16)">
      <use xlink:href="#DejaVuSans-65"/>
      <use xlink:href="#DejaVuSans-74" x="61.523438"/>
     </g>
    </g>
    <g id="line2d_45">
     <path d="M 81.74 396.0495 
L 97.74 396.0495 
L 113.74 396.0495 
" style="fill: none; stroke: #39a7d6; stroke-width: 1.5; stroke-linecap: square"/>
    </g>
    <g id="text_25">
     <!-- HubR -->
     <g transform="translate(126.54 401.6495) scale(0.16 -0.16)">
      <use xlink:href="#DejaVuSans-48"/>
      <use xlink:href="#DejaVuSans-75" x="75.195312"/>
      <use xlink:href="#DejaVuSans-62" x="138.574219"/>
      <use xlink:href="#DejaVuSans-52" x="202.050781"/>
     </g>
    </g>
    <g id="line2d_46">
     <path d="M 81.74 419.5345 
L 97.74 419.5345 
L 113.74 419.5345 
" style="fill: none; stroke: #8f93f4; stroke-width: 1.5; stroke-linecap: square"/>
    </g>
    <g id="text_26">
     <!-- Adaboost -->
     <g transform="translate(126.54 425.1345) scale(0.16 -0.16)">
      <use xlink:href="#DejaVuSans-41"/>
      <use xlink:href="#DejaVuSans-64" x="66.658203"/>
      <use xlink:href="#DejaVuSans-61" x="130.134766"/>
      <use xlink:href="#DejaVuSans-62" x="191.414062"/>
      <use xlink:href="#DejaVuSans-6f" x="254.890625"/>
      <use xlink:href="#DejaVuSans-6f" x="316.072266"/>
      <use xlink:href="#DejaVuSans-73" x="377.253906"/>
      <use xlink:href="#DejaVuSans-74" x="429.353516"/>
     </g>
    </g>
    <g id="line2d_47">
     <path d="M 81.74 443.0195 
L 97.74 443.0195 
L 113.74 443.0195 
" style="fill: none; stroke: #db70f4; stroke-width: 1.5; stroke-linecap: square"/>
    </g>
    <g id="text_27">
     <!-- LassoLars -->
     <g transform="translate(126.54 448.6195) scale(0.16 -0.16)">
      <defs>
       <path id="DejaVuSans-4c" d="M 628 4666 
L 1259 4666 
L 1259 531 
L 3531 531 
L 3531 0 
L 628 0 
L 628 4666 
z
" transform="scale(0.015625)"/>
      </defs>
      <use xlink:href="#DejaVuSans-4c"/>
      <use xlink:href="#DejaVuSans-61" x="55.712891"/>
      <use xlink:href="#DejaVuSans-73" x="116.992188"/>
      <use xlink:href="#DejaVuSans-73" x="169.091797"/>
      <use xlink:href="#DejaVuSans-6f" x="221.191406"/>
      <use xlink:href="#DejaVuSans-4c" x="282.373047"/>
      <use xlink:href="#DejaVuSans-61" x="338.085938"/>
      <use xlink:href="#DejaVuSans-72" x="399.365234"/>
      <use xlink:href="#DejaVuSans-73" x="440.478516"/>
     </g>
    </g>
    <g id="line2d_48">
     <path d="M 81.74 466.5045 
L 97.74 466.5045 
L 113.74 466.5045 
" style="fill: none; stroke: #f667c6; stroke-width: 1.5; stroke-linecap: square"/>
    </g>
    <g id="text_28">
     <!-- Lasso -->
     <g transform="translate(126.54 472.1045) scale(0.16 -0.16)">
      <use xlink:href="#DejaVuSans-4c"/>
      <use xlink:href="#DejaVuSans-61" x="55.712891"/>
      <use xlink:href="#DejaVuSans-73" x="116.992188"/>
      <use xlink:href="#DejaVuSans-73" x="169.091797"/>
      <use xlink:href="#DejaVuSans-6f" x="221.191406"/>
     </g>
    </g>
   </g>
  </g>
 </g>
 <defs>
  <clipPath id="pbb0be6cd8e">
   <rect x="67.34" y="14.906284" width="1073.86" height="474.925716"/>
  </clipPath>
 </defs>
</svg>
