<?xml version="1.0" encoding="utf-8" standalone="no"?>
<!DOCTYPE svg PUBLIC "-//W3C//DTD SVG 1.1//EN"
  "http://www.w3.org/Graphics/SVG/1.1/DTD/svg11.dtd">
<svg xmlns:xlink="http://www.w3.org/1999/xlink" width="1152pt" height="576pt" viewBox="0 0 1152 576" xmlns="http://www.w3.org/2000/svg" version="1.1">
 <metadata>
  <rdf:RDF xmlns:dc="http://purl.org/dc/elements/1.1/" xmlns:cc="http://creativecommons.org/ns#" xmlns:rdf="http://www.w3.org/1999/02/22-rdf-syntax-ns#">
   <cc:Work>
    <dc:type rdf:resource="http://purl.org/dc/dcmitype/StillImage"/>
    <dc:date>2025-03-19T22:49:21.495891</dc:date>
    <dc:format>image/svg+xml</dc:format>
    <dc:creator>
     <cc:Agent>
      <dc:title>Matplotlib v3.9.2, https://matplotlib.org/</dc:title>
     </cc:Agent>
    </dc:creator>
   </cc:Work>
  </rdf:RDF>
 </metadata>
 <defs>
  <style type="text/css">*{stroke-linejoin: round; stroke-linecap: butt}</style>
 </defs>
 <g id="figure_1">
  <g id="patch_1">
   <path d="M 0 576 
L 1152 576 
L 1152 0 
L 0 0 
z
" style="fill: #ffffff"/>
  </g>
  <g id="axes_1">
   <g id="patch_2">
    <path d="M 86.69 490.552 
L 1141.2 490.552 
L 1141.2 10.8 
L 86.69 10.8 
z
" style="fill: #ffffff"/>
   </g>
   <g id="PolyCollection_1">
    <defs>
     <path id="m795833e0c6" d="M 134.622273 -115.465604 
L 134.622273 -111.204933 
L 155.018985 -112.584618 
L 175.415696 -112.384009 
L 195.812408 -114.532098 
L 216.20912 -119.997866 
L 236.605832 -117.80803 
L 257.002544 -121.377327 
L 277.399255 -125.156889 
L 297.795967 -125.156771 
L 318.192679 -125.947493 
L 338.589391 -130.670098 
L 358.986103 -130.751638 
L 379.382814 -135.044694 
L 399.779526 -138.754366 
L 420.176238 -137.170143 
L 440.57295 -144.278223 
L 460.969662 -144.949373 
L 481.366373 -146.995514 
L 501.763085 -150.968096 
L 522.159797 -158.083719 
L 542.556509 -160.831295 
L 562.953221 -161.982453 
L 583.349932 -164.367355 
L 603.746644 -161.666361 
L 624.143356 -177.281145 
L 644.540068 -176.845532 
L 664.936779 -171.623877 
L 685.333491 -177.165663 
L 705.730203 -178.660496 
L 726.126915 -175.358777 
L 746.523627 -177.395258 
L 766.920338 -179.612164 
L 787.31705 -179.249638 
L 807.713762 -183.853724 
L 828.110474 -181.01639 
L 848.507186 -189.308191 
L 868.903897 -191.699205 
L 889.300609 -211.9131 
L 909.697321 -212.273975 
L 930.094033 -212.577458 
L 950.490745 -205.991891 
L 970.887456 -224.759719 
L 991.284168 -227.555209 
L 1011.68088 -229.544831 
L 1032.077592 -252.967326 
L 1052.474304 -264.496434 
L 1072.871015 -309.926356 
L 1093.267727 -316.555568 
L 1093.267727 -543.393091 
L 1093.267727 -543.393091 
L 1072.871015 -465.365404 
L 1052.474304 -404.641778 
L 1032.077592 -393.758411 
L 1011.68088 -388.497161 
L 991.284168 -387.167737 
L 970.887456 -387.776778 
L 950.490745 -371.508355 
L 930.094033 -300.061237 
L 909.697321 -299.838356 
L 889.300609 -277.374007 
L 868.903897 -271.877558 
L 848.507186 -274.852424 
L 828.110474 -268.963176 
L 807.713762 -268.803766 
L 787.31705 -257.34218 
L 766.920338 -260.424749 
L 746.523627 -250.567681 
L 726.126915 -252.584067 
L 705.730203 -253.304541 
L 685.333491 -250.575825 
L 664.936779 -246.974707 
L 644.540068 -248.843193 
L 624.143356 -251.183861 
L 603.746644 -233.185314 
L 583.349932 -202.243377 
L 562.953221 -191.09818 
L 542.556509 -217.500447 
L 522.159797 -184.044004 
L 501.763085 -176.699909 
L 481.366373 -166.693468 
L 460.969662 -161.130969 
L 440.57295 -155.556462 
L 420.176238 -153.321154 
L 399.779526 -160.562701 
L 379.382814 -154.117362 
L 358.986103 -151.615224 
L 338.589391 -150.841143 
L 318.192679 -147.845177 
L 297.795967 -142.663088 
L 277.399255 -133.678172 
L 257.002544 -131.834652 
L 236.605832 -126.672593 
L 216.20912 -125.156395 
L 195.812408 -122.308952 
L 175.415696 -115.924337 
L 155.018985 -117.065799 
L 134.622273 -115.465604 
z
" style="stroke: #1f77b4; stroke-opacity: 0.2"/>
    </defs>
    <g clip-path="url(#p0d5ac4a906)">
     <use xlink:href="#m795833e0c6" x="0" y="576" style="fill: #1f77b4; fill-opacity: 0.2; stroke: #1f77b4; stroke-opacity: 0.2"/>
    </g>
   </g>
   <g id="PolyCollection_2">
    <defs>
     <path id="m4b92a3c41e" d="M 134.622273 -112.113871 
L 134.622273 -107.34357 
L 155.018985 -107.254909 
L 175.415696 -108.691334 
L 195.812408 -109.702434 
L 216.20912 -114.314058 
L 236.605832 -112.886226 
L 257.002544 -114.300424 
L 277.399255 -118.560935 
L 297.795967 -123.519848 
L 318.192679 -123.097459 
L 338.589391 -126.739154 
L 358.986103 -125.154086 
L 379.382814 -130.081201 
L 399.779526 -132.147268 
L 420.176238 -132.436587 
L 440.57295 -139.264359 
L 460.969662 -142.654407 
L 481.366373 -141.332792 
L 501.763085 -145.931138 
L 522.159797 -147.236 
L 542.556509 -150.499952 
L 562.953221 -152.516963 
L 583.349932 -155.133431 
L 603.746644 -155.332998 
L 624.143356 -173.076993 
L 644.540068 -170.465037 
L 664.936779 -170.455393 
L 685.333491 -170.194048 
L 705.730203 -169.784567 
L 726.126915 -168.73833 
L 746.523627 -172.639163 
L 766.920338 -175.00161 
L 787.31705 -171.889932 
L 807.713762 -176.19664 
L 828.110474 -176.735714 
L 848.507186 -186.234736 
L 868.903897 -188.00402 
L 889.300609 -200.319547 
L 909.697321 -200.805324 
L 930.094033 -197.827441 
L 950.490745 -196.698597 
L 970.887456 -212.845921 
L 991.284168 -216.919029 
L 1011.68088 -216.935654 
L 1032.077592 -226.559247 
L 1052.474304 -238.033576 
L 1072.871015 -269.808695 
L 1093.267727 -276.049028 
L 1093.267727 -526.86813 
L 1093.267727 -526.86813 
L 1072.871015 -411.752528 
L 1052.474304 -376.949702 
L 1032.077592 -371.95485 
L 1011.68088 -370.56662 
L 991.284168 -370.524258 
L 970.887456 -368.432675 
L 950.490745 -353.8874 
L 930.094033 -292.347001 
L 909.697321 -290.008057 
L 889.300609 -260.495998 
L 868.903897 -257.428073 
L 848.507186 -262.634934 
L 828.110474 -255.101117 
L 807.713762 -254.677933 
L 787.31705 -211.159756 
L 766.920338 -212.108392 
L 746.523627 -207.081034 
L 726.126915 -207.726004 
L 705.730203 -207.925475 
L 685.333491 -206.939786 
L 664.936779 -217.757122 
L 644.540068 -217.760767 
L 624.143356 -216.973591 
L 603.746644 -205.387952 
L 583.349932 -194.723442 
L 562.953221 -173.015906 
L 542.556509 -183.800256 
L 522.159797 -175.142199 
L 501.763085 -169.107815 
L 481.366373 -155.436493 
L 460.969662 -152.947749 
L 440.57295 -151.020625 
L 420.176238 -152.823634 
L 399.779526 -158.223332 
L 379.382814 -145.417757 
L 358.986103 -147.218446 
L 338.589391 -148.853849 
L 318.192679 -142.870937 
L 297.795967 -140.907789 
L 277.399255 -132.194385 
L 257.002544 -131.351066 
L 236.605832 -125.011634 
L 216.20912 -126.366505 
L 195.812408 -117.351226 
L 175.415696 -114.875632 
L 155.018985 -112.730509 
L 134.622273 -112.113871 
z
" style="stroke: #ff7f0e; stroke-opacity: 0.2"/>
    </defs>
    <g clip-path="url(#p0d5ac4a906)">
     <use xlink:href="#m4b92a3c41e" x="0" y="576" style="fill: #ff7f0e; fill-opacity: 0.2; stroke: #ff7f0e; stroke-opacity: 0.2"/>
    </g>
   </g>
   <g id="PolyCollection_3">
    <defs>
     <path id="m5af32c0a78" d="M 134.622273 -112.725069 
L 134.622273 -107.506231 
L 155.018985 -107.40769 
L 175.415696 -108.817497 
L 195.812408 -109.711929 
L 216.20912 -115.358455 
L 236.605832 -115.123972 
L 257.002544 -117.446014 
L 277.399255 -119.017141 
L 297.795967 -121.760406 
L 318.192679 -123.184739 
L 338.589391 -129.308592 
L 358.986103 -124.340867 
L 379.382814 -130.523692 
L 399.779526 -131.067832 
L 420.176238 -135.769735 
L 440.57295 -142.303146 
L 460.969662 -141.354997 
L 481.366373 -141.394564 
L 501.763085 -144.068618 
L 522.159797 -146.30438 
L 542.556509 -154.949303 
L 562.953221 -155.002853 
L 583.349932 -159.094515 
L 603.746644 -156.20245 
L 624.143356 -172.683522 
L 644.540068 -170.838897 
L 664.936779 -168.293758 
L 685.333491 -170.983668 
L 705.730203 -172.490135 
L 726.126915 -174.560637 
L 746.523627 -171.103629 
L 766.920338 -172.17884 
L 787.31705 -178.584678 
L 807.713762 -178.718785 
L 828.110474 -175.070882 
L 848.507186 -181.884814 
L 868.903897 -188.800874 
L 889.300609 -207.294166 
L 909.697321 -206.450595 
L 930.094033 -204.122076 
L 950.490745 -200.796725 
L 970.887456 -214.10562 
L 991.284168 -217.161456 
L 1011.68088 -217.283633 
L 1032.077592 -235.492775 
L 1052.474304 -248.08306 
L 1072.871015 -284.220277 
L 1093.267727 -294.502478 
L 1093.267727 -509.814741 
L 1093.267727 -509.814741 
L 1072.871015 -427.323829 
L 1052.474304 -375.666281 
L 1032.077592 -369.284136 
L 1011.68088 -362.266074 
L 991.284168 -358.805532 
L 970.887456 -366.371302 
L 950.490745 -351.853133 
L 930.094033 -299.042822 
L 909.697321 -302.0447 
L 889.300609 -268.80015 
L 868.903897 -261.817224 
L 848.507186 -259.973489 
L 828.110474 -262.043159 
L 807.713762 -263.978804 
L 787.31705 -242.927453 
L 766.920338 -238.515722 
L 746.523627 -234.617215 
L 726.126915 -235.885283 
L 705.730203 -236.452739 
L 685.333491 -233.766079 
L 664.936779 -240.002648 
L 644.540068 -239.824894 
L 624.143356 -239.26801 
L 603.746644 -222.646591 
L 583.349932 -217.578948 
L 562.953221 -177.923213 
L 542.556509 -205.817921 
L 522.159797 -173.707375 
L 501.763085 -168.546102 
L 481.366373 -158.882318 
L 460.969662 -153.931132 
L 440.57295 -154.861306 
L 420.176238 -148.53454 
L 399.779526 -158.026038 
L 379.382814 -143.286452 
L 358.986103 -144.471366 
L 338.589391 -151.158903 
L 318.192679 -143.371061 
L 297.795967 -139.027419 
L 277.399255 -133.122247 
L 257.002544 -129.546635 
L 236.605832 -125.860159 
L 216.20912 -124.791266 
L 195.812408 -116.260774 
L 175.415696 -115.080899 
L 155.018985 -113.177053 
L 134.622273 -112.725069 
z
" style="stroke: #2ca02c; stroke-opacity: 0.2"/>
    </defs>
    <g clip-path="url(#p0d5ac4a906)">
     <use xlink:href="#m5af32c0a78" x="0" y="576" style="fill: #2ca02c; fill-opacity: 0.2; stroke: #2ca02c; stroke-opacity: 0.2"/>
    </g>
   </g>
   <g id="PolyCollection_4">
    <defs>
     <path id="ma6948d95c4" d="M 134.622273 -130.163689 
L 134.622273 -123.701751 
L 155.018985 -122.175582 
L 175.415696 -123.784623 
L 195.812408 -125.893916 
L 216.20912 -131.63557 
L 236.605832 -133.16176 
L 257.002544 -132.950339 
L 277.399255 -137.755765 
L 297.795967 -142.751137 
L 318.192679 -138.714063 
L 338.589391 -147.529476 
L 358.986103 -146.60029 
L 379.382814 -146.101779 
L 399.779526 -155.399924 
L 420.176238 -156.653373 
L 440.57295 -163.872282 
L 460.969662 -165.397559 
L 481.366373 -164.794381 
L 501.763085 -159.891093 
L 522.159797 -155.596134 
L 542.556509 -156.661389 
L 562.953221 -160.241161 
L 583.349932 -163.110998 
L 603.746644 -163.462351 
L 624.143356 -179.090105 
L 644.540068 -179.187161 
L 664.936779 -174.872573 
L 685.333491 -183.055306 
L 705.730203 -180.06381 
L 726.126915 -181.662354 
L 746.523627 -181.752674 
L 766.920338 -183.11549 
L 787.31705 -179.284276 
L 807.713762 -189.302632 
L 828.110474 -192.047246 
L 848.507186 -197.320383 
L 868.903897 -193.123678 
L 889.300609 -207.748599 
L 909.697321 -212.37642 
L 930.094033 -201.34714 
L 950.490745 -197.286116 
L 970.887456 -200.183991 
L 991.284168 -199.625895 
L 1011.68088 -202.051836 
L 1032.077592 -209.755642 
L 1052.474304 -220.225259 
L 1072.871015 -237.188315 
L 1093.267727 -247.587591 
L 1093.267727 -467.801286 
L 1093.267727 -467.801286 
L 1072.871015 -366.809759 
L 1052.474304 -350.973291 
L 1032.077592 -339.694636 
L 1011.68088 -336.964073 
L 991.284168 -339.475619 
L 970.887456 -341.974206 
L 950.490745 -335.635386 
L 930.094033 -295.603992 
L 909.697321 -302.74818 
L 889.300609 -300.926941 
L 868.903897 -295.03776 
L 848.507186 -260.817188 
L 828.110474 -260.318634 
L 807.713762 -262.674193 
L 787.31705 -268.150392 
L 766.920338 -261.775367 
L 746.523627 -258.230309 
L 726.126915 -257.438669 
L 705.730203 -255.663764 
L 685.333491 -257.333519 
L 664.936779 -235.458457 
L 644.540068 -237.560633 
L 624.143356 -237.728936 
L 603.746644 -225.057772 
L 583.349932 -195.538468 
L 562.953221 -188.778828 
L 542.556509 -195.968505 
L 522.159797 -188.492499 
L 501.763085 -195.632598 
L 481.366373 -186.247404 
L 460.969662 -190.042243 
L 440.57295 -180.85386 
L 420.176238 -181.769381 
L 399.779526 -188.652431 
L 379.382814 -172.535735 
L 358.986103 -176.791424 
L 338.589391 -173.944341 
L 318.192679 -162.936077 
L 297.795967 -163.76045 
L 277.399255 -153.911788 
L 257.002544 -156.422 
L 236.605832 -146.935928 
L 216.20912 -146.06211 
L 195.812408 -140.88077 
L 175.415696 -133.704331 
L 155.018985 -131.694935 
L 134.622273 -130.163689 
z
" style="stroke: #d62728; stroke-opacity: 0.2"/>
    </defs>
    <g clip-path="url(#p0d5ac4a906)">
     <use xlink:href="#ma6948d95c4" x="0" y="576" style="fill: #d62728; fill-opacity: 0.2; stroke: #d62728; stroke-opacity: 0.2"/>
    </g>
   </g>
   <g id="matplotlib.axis_1">
    <g id="xtick_1">
     <g id="line2d_1">
      <defs>
       <path id="me4b5cd763a" d="M 0 0 
L 0 3.5 
" style="stroke: #000000; stroke-width: 0.8"/>
      </defs>
      <g>
       <use xlink:href="#me4b5cd763a" x="124.423917" y="490.552" style="stroke: #000000; stroke-width: 0.8"/>
      </g>
     </g>
     <g id="text_1">
      <!-- 0 -->
      <g transform="translate(118.061417 512.748875) scale(0.2 -0.2)">
       <defs>
        <path id="DejaVuSans-30" d="M 2034 4250 
Q 1547 4250 1301 3770 
Q 1056 3291 1056 2328 
Q 1056 1369 1301 889 
Q 1547 409 2034 409 
Q 2525 409 2770 889 
Q 3016 1369 3016 2328 
Q 3016 3291 2770 3770 
Q 2525 4250 2034 4250 
z
M 2034 4750 
Q 2819 4750 3233 4129 
Q 3647 3509 3647 2328 
Q 3647 1150 3233 529 
Q 2819 -91 2034 -91 
Q 1250 -91 836 529 
Q 422 1150 422 2328 
Q 422 3509 836 4129 
Q 1250 4750 2034 4750 
z
" transform="scale(0.015625)"/>
       </defs>
       <use xlink:href="#DejaVuSans-30"/>
      </g>
     </g>
    </g>
    <g id="xtick_2">
     <g id="line2d_2">
      <g>
       <use xlink:href="#me4b5cd763a" x="328.391035" y="490.552" style="stroke: #000000; stroke-width: 0.8"/>
      </g>
     </g>
     <g id="text_2">
      <!-- 20 -->
      <g transform="translate(315.666035 512.748875) scale(0.2 -0.2)">
       <defs>
        <path id="DejaVuSans-32" d="M 1228 531 
L 3431 531 
L 3431 0 
L 469 0 
L 469 531 
Q 828 903 1448 1529 
Q 2069 2156 2228 2338 
Q 2531 2678 2651 2914 
Q 2772 3150 2772 3378 
Q 2772 3750 2511 3984 
Q 2250 4219 1831 4219 
Q 1534 4219 1204 4116 
Q 875 4013 500 3803 
L 500 4441 
Q 881 4594 1212 4672 
Q 1544 4750 1819 4750 
Q 2544 4750 2975 4387 
Q 3406 4025 3406 3419 
Q 3406 3131 3298 2873 
Q 3191 2616 2906 2266 
Q 2828 2175 2409 1742 
Q 1991 1309 1228 531 
z
" transform="scale(0.015625)"/>
       </defs>
       <use xlink:href="#DejaVuSans-32"/>
       <use xlink:href="#DejaVuSans-30" x="63.623047"/>
      </g>
     </g>
    </g>
    <g id="xtick_3">
     <g id="line2d_3">
      <g>
       <use xlink:href="#me4b5cd763a" x="532.358153" y="490.552" style="stroke: #000000; stroke-width: 0.8"/>
      </g>
     </g>
     <g id="text_3">
      <!-- 40 -->
      <g transform="translate(519.633153 512.748875) scale(0.2 -0.2)">
       <defs>
        <path id="DejaVuSans-34" d="M 2419 4116 
L 825 1625 
L 2419 1625 
L 2419 4116 
z
M 2253 4666 
L 3047 4666 
L 3047 1625 
L 3713 1625 
L 3713 1100 
L 3047 1100 
L 3047 0 
L 2419 0 
L 2419 1100 
L 313 1100 
L 313 1709 
L 2253 4666 
z
" transform="scale(0.015625)"/>
       </defs>
       <use xlink:href="#DejaVuSans-34"/>
       <use xlink:href="#DejaVuSans-30" x="63.623047"/>
      </g>
     </g>
    </g>
    <g id="xtick_4">
     <g id="line2d_4">
      <g>
       <use xlink:href="#me4b5cd763a" x="736.325271" y="490.552" style="stroke: #000000; stroke-width: 0.8"/>
      </g>
     </g>
     <g id="text_4">
      <!-- 60 -->
      <g transform="translate(723.600271 512.748875) scale(0.2 -0.2)">
       <defs>
        <path id="DejaVuSans-36" d="M 2113 2584 
Q 1688 2584 1439 2293 
Q 1191 2003 1191 1497 
Q 1191 994 1439 701 
Q 1688 409 2113 409 
Q 2538 409 2786 701 
Q 3034 994 3034 1497 
Q 3034 2003 2786 2293 
Q 2538 2584 2113 2584 
z
M 3366 4563 
L 3366 3988 
Q 3128 4100 2886 4159 
Q 2644 4219 2406 4219 
Q 1781 4219 1451 3797 
Q 1122 3375 1075 2522 
Q 1259 2794 1537 2939 
Q 1816 3084 2150 3084 
Q 2853 3084 3261 2657 
Q 3669 2231 3669 1497 
Q 3669 778 3244 343 
Q 2819 -91 2113 -91 
Q 1303 -91 875 529 
Q 447 1150 447 2328 
Q 447 3434 972 4092 
Q 1497 4750 2381 4750 
Q 2619 4750 2861 4703 
Q 3103 4656 3366 4563 
z
" transform="scale(0.015625)"/>
       </defs>
       <use xlink:href="#DejaVuSans-36"/>
       <use xlink:href="#DejaVuSans-30" x="63.623047"/>
      </g>
     </g>
    </g>
    <g id="xtick_5">
     <g id="line2d_5">
      <g>
       <use xlink:href="#me4b5cd763a" x="940.292389" y="490.552" style="stroke: #000000; stroke-width: 0.8"/>
      </g>
     </g>
     <g id="text_5">
      <!-- 80 -->
      <g transform="translate(927.567389 512.748875) scale(0.2 -0.2)">
       <defs>
        <path id="DejaVuSans-38" d="M 2034 2216 
Q 1584 2216 1326 1975 
Q 1069 1734 1069 1313 
Q 1069 891 1326 650 
Q 1584 409 2034 409 
Q 2484 409 2743 651 
Q 3003 894 3003 1313 
Q 3003 1734 2745 1975 
Q 2488 2216 2034 2216 
z
M 1403 2484 
Q 997 2584 770 2862 
Q 544 3141 544 3541 
Q 544 4100 942 4425 
Q 1341 4750 2034 4750 
Q 2731 4750 3128 4425 
Q 3525 4100 3525 3541 
Q 3525 3141 3298 2862 
Q 3072 2584 2669 2484 
Q 3125 2378 3379 2068 
Q 3634 1759 3634 1313 
Q 3634 634 3220 271 
Q 2806 -91 2034 -91 
Q 1263 -91 848 271 
Q 434 634 434 1313 
Q 434 1759 690 2068 
Q 947 2378 1403 2484 
z
M 1172 3481 
Q 1172 3119 1398 2916 
Q 1625 2713 2034 2713 
Q 2441 2713 2670 2916 
Q 2900 3119 2900 3481 
Q 2900 3844 2670 4047 
Q 2441 4250 2034 4250 
Q 1625 4250 1398 4047 
Q 1172 3844 1172 3481 
z
" transform="scale(0.015625)"/>
       </defs>
       <use xlink:href="#DejaVuSans-38"/>
       <use xlink:href="#DejaVuSans-30" x="63.623047"/>
      </g>
     </g>
    </g>
    <g id="text_6">
     <!-- Percentile Threshold -->
     <g transform="translate(512.165312 536.105125) scale(0.2 -0.2)">
      <defs>
       <path id="DejaVuSans-50" d="M 1259 4147 
L 1259 2394 
L 2053 2394 
Q 2494 2394 2734 2622 
Q 2975 2850 2975 3272 
Q 2975 3691 2734 3919 
Q 2494 4147 2053 4147 
L 1259 4147 
z
M 628 4666 
L 2053 4666 
Q 2838 4666 3239 4311 
Q 3641 3956 3641 3272 
Q 3641 2581 3239 2228 
Q 2838 1875 2053 1875 
L 1259 1875 
L 1259 0 
L 628 0 
L 628 4666 
z
" transform="scale(0.015625)"/>
       <path id="DejaVuSans-65" d="M 3597 1894 
L 3597 1613 
L 953 1613 
Q 991 1019 1311 708 
Q 1631 397 2203 397 
Q 2534 397 2845 478 
Q 3156 559 3463 722 
L 3463 178 
Q 3153 47 2828 -22 
Q 2503 -91 2169 -91 
Q 1331 -91 842 396 
Q 353 884 353 1716 
Q 353 2575 817 3079 
Q 1281 3584 2069 3584 
Q 2775 3584 3186 3129 
Q 3597 2675 3597 1894 
z
M 3022 2063 
Q 3016 2534 2758 2815 
Q 2500 3097 2075 3097 
Q 1594 3097 1305 2825 
Q 1016 2553 972 2059 
L 3022 2063 
z
" transform="scale(0.015625)"/>
       <path id="DejaVuSans-72" d="M 2631 2963 
Q 2534 3019 2420 3045 
Q 2306 3072 2169 3072 
Q 1681 3072 1420 2755 
Q 1159 2438 1159 1844 
L 1159 0 
L 581 0 
L 581 3500 
L 1159 3500 
L 1159 2956 
Q 1341 3275 1631 3429 
Q 1922 3584 2338 3584 
Q 2397 3584 2469 3576 
Q 2541 3569 2628 3553 
L 2631 2963 
z
" transform="scale(0.015625)"/>
       <path id="DejaVuSans-63" d="M 3122 3366 
L 3122 2828 
Q 2878 2963 2633 3030 
Q 2388 3097 2138 3097 
Q 1578 3097 1268 2742 
Q 959 2388 959 1747 
Q 959 1106 1268 751 
Q 1578 397 2138 397 
Q 2388 397 2633 464 
Q 2878 531 3122 666 
L 3122 134 
Q 2881 22 2623 -34 
Q 2366 -91 2075 -91 
Q 1284 -91 818 406 
Q 353 903 353 1747 
Q 353 2603 823 3093 
Q 1294 3584 2113 3584 
Q 2378 3584 2631 3529 
Q 2884 3475 3122 3366 
z
" transform="scale(0.015625)"/>
       <path id="DejaVuSans-6e" d="M 3513 2113 
L 3513 0 
L 2938 0 
L 2938 2094 
Q 2938 2591 2744 2837 
Q 2550 3084 2163 3084 
Q 1697 3084 1428 2787 
Q 1159 2491 1159 1978 
L 1159 0 
L 581 0 
L 581 3500 
L 1159 3500 
L 1159 2956 
Q 1366 3272 1645 3428 
Q 1925 3584 2291 3584 
Q 2894 3584 3203 3211 
Q 3513 2838 3513 2113 
z
" transform="scale(0.015625)"/>
       <path id="DejaVuSans-74" d="M 1172 4494 
L 1172 3500 
L 2356 3500 
L 2356 3053 
L 1172 3053 
L 1172 1153 
Q 1172 725 1289 603 
Q 1406 481 1766 481 
L 2356 481 
L 2356 0 
L 1766 0 
Q 1100 0 847 248 
Q 594 497 594 1153 
L 594 3053 
L 172 3053 
L 172 3500 
L 594 3500 
L 594 4494 
L 1172 4494 
z
" transform="scale(0.015625)"/>
       <path id="DejaVuSans-69" d="M 603 3500 
L 1178 3500 
L 1178 0 
L 603 0 
L 603 3500 
z
M 603 4863 
L 1178 4863 
L 1178 4134 
L 603 4134 
L 603 4863 
z
" transform="scale(0.015625)"/>
       <path id="DejaVuSans-6c" d="M 603 4863 
L 1178 4863 
L 1178 0 
L 603 0 
L 603 4863 
z
" transform="scale(0.015625)"/>
       <path id="DejaVuSans-20" transform="scale(0.015625)"/>
       <path id="DejaVuSans-54" d="M -19 4666 
L 3928 4666 
L 3928 4134 
L 2272 4134 
L 2272 0 
L 1638 0 
L 1638 4134 
L -19 4134 
L -19 4666 
z
" transform="scale(0.015625)"/>
       <path id="DejaVuSans-68" d="M 3513 2113 
L 3513 0 
L 2938 0 
L 2938 2094 
Q 2938 2591 2744 2837 
Q 2550 3084 2163 3084 
Q 1697 3084 1428 2787 
Q 1159 2491 1159 1978 
L 1159 0 
L 581 0 
L 581 4863 
L 1159 4863 
L 1159 2956 
Q 1366 3272 1645 3428 
Q 1925 3584 2291 3584 
Q 2894 3584 3203 3211 
Q 3513 2838 3513 2113 
z
" transform="scale(0.015625)"/>
       <path id="DejaVuSans-73" d="M 2834 3397 
L 2834 2853 
Q 2591 2978 2328 3040 
Q 2066 3103 1784 3103 
Q 1356 3103 1142 2972 
Q 928 2841 928 2578 
Q 928 2378 1081 2264 
Q 1234 2150 1697 2047 
L 1894 2003 
Q 2506 1872 2764 1633 
Q 3022 1394 3022 966 
Q 3022 478 2636 193 
Q 2250 -91 1575 -91 
Q 1294 -91 989 -36 
Q 684 19 347 128 
L 347 722 
Q 666 556 975 473 
Q 1284 391 1588 391 
Q 1994 391 2212 530 
Q 2431 669 2431 922 
Q 2431 1156 2273 1281 
Q 2116 1406 1581 1522 
L 1381 1569 
Q 847 1681 609 1914 
Q 372 2147 372 2553 
Q 372 3047 722 3315 
Q 1072 3584 1716 3584 
Q 2034 3584 2315 3537 
Q 2597 3491 2834 3397 
z
" transform="scale(0.015625)"/>
       <path id="DejaVuSans-6f" d="M 1959 3097 
Q 1497 3097 1228 2736 
Q 959 2375 959 1747 
Q 959 1119 1226 758 
Q 1494 397 1959 397 
Q 2419 397 2687 759 
Q 2956 1122 2956 1747 
Q 2956 2369 2687 2733 
Q 2419 3097 1959 3097 
z
M 1959 3584 
Q 2709 3584 3137 3096 
Q 3566 2609 3566 1747 
Q 3566 888 3137 398 
Q 2709 -91 1959 -91 
Q 1206 -91 779 398 
Q 353 888 353 1747 
Q 353 2609 779 3096 
Q 1206 3584 1959 3584 
z
" transform="scale(0.015625)"/>
       <path id="DejaVuSans-64" d="M 2906 2969 
L 2906 4863 
L 3481 4863 
L 3481 0 
L 2906 0 
L 2906 525 
Q 2725 213 2448 61 
Q 2172 -91 1784 -91 
Q 1150 -91 751 415 
Q 353 922 353 1747 
Q 353 2572 751 3078 
Q 1150 3584 1784 3584 
Q 2172 3584 2448 3432 
Q 2725 3281 2906 2969 
z
M 947 1747 
Q 947 1113 1208 752 
Q 1469 391 1925 391 
Q 2381 391 2643 752 
Q 2906 1113 2906 1747 
Q 2906 2381 2643 2742 
Q 2381 3103 1925 3103 
Q 1469 3103 1208 2742 
Q 947 2381 947 1747 
z
" transform="scale(0.015625)"/>
      </defs>
      <use xlink:href="#DejaVuSans-50"/>
      <use xlink:href="#DejaVuSans-65" x="56.677734"/>
      <use xlink:href="#DejaVuSans-72" x="118.201172"/>
      <use xlink:href="#DejaVuSans-63" x="157.064453"/>
      <use xlink:href="#DejaVuSans-65" x="212.044922"/>
      <use xlink:href="#DejaVuSans-6e" x="273.568359"/>
      <use xlink:href="#DejaVuSans-74" x="336.947266"/>
      <use xlink:href="#DejaVuSans-69" x="376.15625"/>
      <use xlink:href="#DejaVuSans-6c" x="403.939453"/>
      <use xlink:href="#DejaVuSans-65" x="431.722656"/>
      <use xlink:href="#DejaVuSans-20" x="493.246094"/>
      <use xlink:href="#DejaVuSans-54" x="525.033203"/>
      <use xlink:href="#DejaVuSans-68" x="586.117188"/>
      <use xlink:href="#DejaVuSans-72" x="649.496094"/>
      <use xlink:href="#DejaVuSans-65" x="688.359375"/>
      <use xlink:href="#DejaVuSans-73" x="749.882812"/>
      <use xlink:href="#DejaVuSans-68" x="801.982422"/>
      <use xlink:href="#DejaVuSans-6f" x="865.361328"/>
      <use xlink:href="#DejaVuSans-6c" x="926.542969"/>
      <use xlink:href="#DejaVuSans-64" x="954.326172"/>
     </g>
     <!-- (Using "merge" Threshold Handling) -->
     <g transform="translate(433.230937 558.50075) scale(0.2 -0.2)">
      <defs>
       <path id="DejaVuSans-28" d="M 1984 4856 
Q 1566 4138 1362 3434 
Q 1159 2731 1159 2009 
Q 1159 1288 1364 580 
Q 1569 -128 1984 -844 
L 1484 -844 
Q 1016 -109 783 600 
Q 550 1309 550 2009 
Q 550 2706 781 3412 
Q 1013 4119 1484 4856 
L 1984 4856 
z
" transform="scale(0.015625)"/>
       <path id="DejaVuSans-55" d="M 556 4666 
L 1191 4666 
L 1191 1831 
Q 1191 1081 1462 751 
Q 1734 422 2344 422 
Q 2950 422 3222 751 
Q 3494 1081 3494 1831 
L 3494 4666 
L 4128 4666 
L 4128 1753 
Q 4128 841 3676 375 
Q 3225 -91 2344 -91 
Q 1459 -91 1007 375 
Q 556 841 556 1753 
L 556 4666 
z
" transform="scale(0.015625)"/>
       <path id="DejaVuSans-67" d="M 2906 1791 
Q 2906 2416 2648 2759 
Q 2391 3103 1925 3103 
Q 1463 3103 1205 2759 
Q 947 2416 947 1791 
Q 947 1169 1205 825 
Q 1463 481 1925 481 
Q 2391 481 2648 825 
Q 2906 1169 2906 1791 
z
M 3481 434 
Q 3481 -459 3084 -895 
Q 2688 -1331 1869 -1331 
Q 1566 -1331 1297 -1286 
Q 1028 -1241 775 -1147 
L 775 -588 
Q 1028 -725 1275 -790 
Q 1522 -856 1778 -856 
Q 2344 -856 2625 -561 
Q 2906 -266 2906 331 
L 2906 616 
Q 2728 306 2450 153 
Q 2172 0 1784 0 
Q 1141 0 747 490 
Q 353 981 353 1791 
Q 353 2603 747 3093 
Q 1141 3584 1784 3584 
Q 2172 3584 2450 3431 
Q 2728 3278 2906 2969 
L 2906 3500 
L 3481 3500 
L 3481 434 
z
" transform="scale(0.015625)"/>
       <path id="DejaVuSans-22" d="M 1147 4666 
L 1147 2931 
L 616 2931 
L 616 4666 
L 1147 4666 
z
M 2328 4666 
L 2328 2931 
L 1797 2931 
L 1797 4666 
L 2328 4666 
z
" transform="scale(0.015625)"/>
       <path id="DejaVuSans-6d" d="M 3328 2828 
Q 3544 3216 3844 3400 
Q 4144 3584 4550 3584 
Q 5097 3584 5394 3201 
Q 5691 2819 5691 2113 
L 5691 0 
L 5113 0 
L 5113 2094 
Q 5113 2597 4934 2840 
Q 4756 3084 4391 3084 
Q 3944 3084 3684 2787 
Q 3425 2491 3425 1978 
L 3425 0 
L 2847 0 
L 2847 2094 
Q 2847 2600 2669 2842 
Q 2491 3084 2119 3084 
Q 1678 3084 1418 2786 
Q 1159 2488 1159 1978 
L 1159 0 
L 581 0 
L 581 3500 
L 1159 3500 
L 1159 2956 
Q 1356 3278 1631 3431 
Q 1906 3584 2284 3584 
Q 2666 3584 2933 3390 
Q 3200 3197 3328 2828 
z
" transform="scale(0.015625)"/>
       <path id="DejaVuSans-48" d="M 628 4666 
L 1259 4666 
L 1259 2753 
L 3553 2753 
L 3553 4666 
L 4184 4666 
L 4184 0 
L 3553 0 
L 3553 2222 
L 1259 2222 
L 1259 0 
L 628 0 
L 628 4666 
z
" transform="scale(0.015625)"/>
       <path id="DejaVuSans-61" d="M 2194 1759 
Q 1497 1759 1228 1600 
Q 959 1441 959 1056 
Q 959 750 1161 570 
Q 1363 391 1709 391 
Q 2188 391 2477 730 
Q 2766 1069 2766 1631 
L 2766 1759 
L 2194 1759 
z
M 3341 1997 
L 3341 0 
L 2766 0 
L 2766 531 
Q 2569 213 2275 61 
Q 1981 -91 1556 -91 
Q 1019 -91 701 211 
Q 384 513 384 1019 
Q 384 1609 779 1909 
Q 1175 2209 1959 2209 
L 2766 2209 
L 2766 2266 
Q 2766 2663 2505 2880 
Q 2244 3097 1772 3097 
Q 1472 3097 1187 3025 
Q 903 2953 641 2809 
L 641 3341 
Q 956 3463 1253 3523 
Q 1550 3584 1831 3584 
Q 2591 3584 2966 3190 
Q 3341 2797 3341 1997 
z
" transform="scale(0.015625)"/>
       <path id="DejaVuSans-29" d="M 513 4856 
L 1013 4856 
Q 1481 4119 1714 3412 
Q 1947 2706 1947 2009 
Q 1947 1309 1714 600 
Q 1481 -109 1013 -844 
L 513 -844 
Q 928 -128 1133 580 
Q 1338 1288 1338 2009 
Q 1338 2731 1133 3434 
Q 928 4138 513 4856 
z
" transform="scale(0.015625)"/>
      </defs>
      <use xlink:href="#DejaVuSans-28"/>
      <use xlink:href="#DejaVuSans-55" x="39.013672"/>
      <use xlink:href="#DejaVuSans-73" x="112.207031"/>
      <use xlink:href="#DejaVuSans-69" x="164.306641"/>
      <use xlink:href="#DejaVuSans-6e" x="192.089844"/>
      <use xlink:href="#DejaVuSans-67" x="255.46875"/>
      <use xlink:href="#DejaVuSans-20" x="318.945312"/>
      <use xlink:href="#DejaVuSans-22" x="350.732422"/>
      <use xlink:href="#DejaVuSans-6d" x="396.728516"/>
      <use xlink:href="#DejaVuSans-65" x="494.140625"/>
      <use xlink:href="#DejaVuSans-72" x="555.664062"/>
      <use xlink:href="#DejaVuSans-67" x="595.027344"/>
      <use xlink:href="#DejaVuSans-65" x="658.503906"/>
      <use xlink:href="#DejaVuSans-22" x="720.027344"/>
      <use xlink:href="#DejaVuSans-20" x="766.023438"/>
      <use xlink:href="#DejaVuSans-54" x="797.810547"/>
      <use xlink:href="#DejaVuSans-68" x="858.894531"/>
      <use xlink:href="#DejaVuSans-72" x="922.273438"/>
      <use xlink:href="#DejaVuSans-65" x="961.136719"/>
      <use xlink:href="#DejaVuSans-73" x="1022.660156"/>
      <use xlink:href="#DejaVuSans-68" x="1074.759766"/>
      <use xlink:href="#DejaVuSans-6f" x="1138.138672"/>
      <use xlink:href="#DejaVuSans-6c" x="1199.320312"/>
      <use xlink:href="#DejaVuSans-64" x="1227.103516"/>
      <use xlink:href="#DejaVuSans-20" x="1290.580078"/>
      <use xlink:href="#DejaVuSans-48" x="1322.367188"/>
      <use xlink:href="#DejaVuSans-61" x="1397.5625"/>
      <use xlink:href="#DejaVuSans-6e" x="1458.841797"/>
      <use xlink:href="#DejaVuSans-64" x="1522.220703"/>
      <use xlink:href="#DejaVuSans-6c" x="1585.697266"/>
      <use xlink:href="#DejaVuSans-69" x="1613.480469"/>
      <use xlink:href="#DejaVuSans-6e" x="1641.263672"/>
      <use xlink:href="#DejaVuSans-67" x="1704.642578"/>
      <use xlink:href="#DejaVuSans-29" x="1768.119141"/>
     </g>
    </g>
   </g>
   <g id="matplotlib.axis_2">
    <g id="ytick_1">
     <g id="line2d_6">
      <defs>
       <path id="m4482e29de9" d="M 0 0 
L -3.5 0 
" style="stroke: #000000; stroke-width: 0.8"/>
      </defs>
      <g>
       <use xlink:href="#m4482e29de9" x="86.69" y="478.357647" style="stroke: #000000; stroke-width: 0.8"/>
      </g>
     </g>
     <g id="text_7">
      <!-- 0.01 -->
      <g transform="translate(35.15875 485.956085) scale(0.2 -0.2)">
       <defs>
        <path id="DejaVuSans-2e" d="M 684 794 
L 1344 794 
L 1344 0 
L 684 0 
L 684 794 
z
" transform="scale(0.015625)"/>
        <path id="DejaVuSans-31" d="M 794 531 
L 1825 531 
L 1825 4091 
L 703 3866 
L 703 4441 
L 1819 4666 
L 2450 4666 
L 2450 531 
L 3481 531 
L 3481 0 
L 794 0 
L 794 531 
z
" transform="scale(0.015625)"/>
       </defs>
       <use xlink:href="#DejaVuSans-30"/>
       <use xlink:href="#DejaVuSans-2e" x="63.623047"/>
       <use xlink:href="#DejaVuSans-30" x="95.410156"/>
       <use xlink:href="#DejaVuSans-31" x="159.033203"/>
      </g>
     </g>
    </g>
    <g id="ytick_2">
     <g id="line2d_7">
      <g>
       <use xlink:href="#m4482e29de9" x="86.69" y="417.194285" style="stroke: #000000; stroke-width: 0.8"/>
      </g>
     </g>
     <g id="text_8">
      <!-- 0.02 -->
      <g transform="translate(35.15875 424.792723) scale(0.2 -0.2)">
       <use xlink:href="#DejaVuSans-30"/>
       <use xlink:href="#DejaVuSans-2e" x="63.623047"/>
       <use xlink:href="#DejaVuSans-30" x="95.410156"/>
       <use xlink:href="#DejaVuSans-32" x="159.033203"/>
      </g>
     </g>
    </g>
    <g id="ytick_3">
     <g id="line2d_8">
      <g>
       <use xlink:href="#m4482e29de9" x="86.69" y="356.030924" style="stroke: #000000; stroke-width: 0.8"/>
      </g>
     </g>
     <g id="text_9">
      <!-- 0.03 -->
      <g transform="translate(35.15875 363.629361) scale(0.2 -0.2)">
       <defs>
        <path id="DejaVuSans-33" d="M 2597 2516 
Q 3050 2419 3304 2112 
Q 3559 1806 3559 1356 
Q 3559 666 3084 287 
Q 2609 -91 1734 -91 
Q 1441 -91 1130 -33 
Q 819 25 488 141 
L 488 750 
Q 750 597 1062 519 
Q 1375 441 1716 441 
Q 2309 441 2620 675 
Q 2931 909 2931 1356 
Q 2931 1769 2642 2001 
Q 2353 2234 1838 2234 
L 1294 2234 
L 1294 2753 
L 1863 2753 
Q 2328 2753 2575 2939 
Q 2822 3125 2822 3475 
Q 2822 3834 2567 4026 
Q 2313 4219 1838 4219 
Q 1578 4219 1281 4162 
Q 984 4106 628 3988 
L 628 4550 
Q 988 4650 1302 4700 
Q 1616 4750 1894 4750 
Q 2613 4750 3031 4423 
Q 3450 4097 3450 3541 
Q 3450 3153 3228 2886 
Q 3006 2619 2597 2516 
z
" transform="scale(0.015625)"/>
       </defs>
       <use xlink:href="#DejaVuSans-30"/>
       <use xlink:href="#DejaVuSans-2e" x="63.623047"/>
       <use xlink:href="#DejaVuSans-30" x="95.410156"/>
       <use xlink:href="#DejaVuSans-33" x="159.033203"/>
      </g>
     </g>
    </g>
    <g id="ytick_4">
     <g id="line2d_9">
      <g>
       <use xlink:href="#m4482e29de9" x="86.69" y="294.867562" style="stroke: #000000; stroke-width: 0.8"/>
      </g>
     </g>
     <g id="text_10">
      <!-- 0.04 -->
      <g transform="translate(35.15875 302.466) scale(0.2 -0.2)">
       <use xlink:href="#DejaVuSans-30"/>
       <use xlink:href="#DejaVuSans-2e" x="63.623047"/>
       <use xlink:href="#DejaVuSans-30" x="95.410156"/>
       <use xlink:href="#DejaVuSans-34" x="159.033203"/>
      </g>
     </g>
    </g>
    <g id="ytick_5">
     <g id="line2d_10">
      <g>
       <use xlink:href="#m4482e29de9" x="86.69" y="233.704201" style="stroke: #000000; stroke-width: 0.8"/>
      </g>
     </g>
     <g id="text_11">
      <!-- 0.05 -->
      <g transform="translate(35.15875 241.302638) scale(0.2 -0.2)">
       <defs>
        <path id="DejaVuSans-35" d="M 691 4666 
L 3169 4666 
L 3169 4134 
L 1269 4134 
L 1269 2991 
Q 1406 3038 1543 3061 
Q 1681 3084 1819 3084 
Q 2600 3084 3056 2656 
Q 3513 2228 3513 1497 
Q 3513 744 3044 326 
Q 2575 -91 1722 -91 
Q 1428 -91 1123 -41 
Q 819 9 494 109 
L 494 744 
Q 775 591 1075 516 
Q 1375 441 1709 441 
Q 2250 441 2565 725 
Q 2881 1009 2881 1497 
Q 2881 1984 2565 2268 
Q 2250 2553 1709 2553 
Q 1456 2553 1204 2497 
Q 953 2441 691 2322 
L 691 4666 
z
" transform="scale(0.015625)"/>
       </defs>
       <use xlink:href="#DejaVuSans-30"/>
       <use xlink:href="#DejaVuSans-2e" x="63.623047"/>
       <use xlink:href="#DejaVuSans-30" x="95.410156"/>
       <use xlink:href="#DejaVuSans-35" x="159.033203"/>
      </g>
     </g>
    </g>
    <g id="ytick_6">
     <g id="line2d_11">
      <g>
       <use xlink:href="#m4482e29de9" x="86.69" y="172.540839" style="stroke: #000000; stroke-width: 0.8"/>
      </g>
     </g>
     <g id="text_12">
      <!-- 0.06 -->
      <g transform="translate(35.15875 180.139277) scale(0.2 -0.2)">
       <use xlink:href="#DejaVuSans-30"/>
       <use xlink:href="#DejaVuSans-2e" x="63.623047"/>
       <use xlink:href="#DejaVuSans-30" x="95.410156"/>
       <use xlink:href="#DejaVuSans-36" x="159.033203"/>
      </g>
     </g>
    </g>
    <g id="ytick_7">
     <g id="line2d_12">
      <g>
       <use xlink:href="#m4482e29de9" x="86.69" y="111.377478" style="stroke: #000000; stroke-width: 0.8"/>
      </g>
     </g>
     <g id="text_13">
      <!-- 0.07 -->
      <g transform="translate(35.15875 118.975915) scale(0.2 -0.2)">
       <defs>
        <path id="DejaVuSans-37" d="M 525 4666 
L 3525 4666 
L 3525 4397 
L 1831 0 
L 1172 0 
L 2766 4134 
L 525 4134 
L 525 4666 
z
" transform="scale(0.015625)"/>
       </defs>
       <use xlink:href="#DejaVuSans-30"/>
       <use xlink:href="#DejaVuSans-2e" x="63.623047"/>
       <use xlink:href="#DejaVuSans-30" x="95.410156"/>
       <use xlink:href="#DejaVuSans-37" x="159.033203"/>
      </g>
     </g>
    </g>
    <g id="ytick_8">
     <g id="line2d_13">
      <g>
       <use xlink:href="#m4482e29de9" x="86.69" y="50.214116" style="stroke: #000000; stroke-width: 0.8"/>
      </g>
     </g>
     <g id="text_14">
      <!-- 0.08 -->
      <g transform="translate(35.15875 57.812554) scale(0.2 -0.2)">
       <use xlink:href="#DejaVuSans-30"/>
       <use xlink:href="#DejaVuSans-2e" x="63.623047"/>
       <use xlink:href="#DejaVuSans-30" x="95.410156"/>
       <use xlink:href="#DejaVuSans-38" x="159.033203"/>
      </g>
     </g>
    </g>
    <g id="text_15">
     <!-- MAPE -->
     <g transform="translate(26.999375 278.493188) rotate(-90) scale(0.2 -0.2)">
      <defs>
       <path id="DejaVuSans-4d" d="M 628 4666 
L 1569 4666 
L 2759 1491 
L 3956 4666 
L 4897 4666 
L 4897 0 
L 4281 0 
L 4281 4097 
L 3078 897 
L 2444 897 
L 1241 4097 
L 1241 0 
L 628 0 
L 628 4666 
z
" transform="scale(0.015625)"/>
       <path id="DejaVuSans-41" d="M 2188 4044 
L 1331 1722 
L 3047 1722 
L 2188 4044 
z
M 1831 4666 
L 2547 4666 
L 4325 0 
L 3669 0 
L 3244 1197 
L 1141 1197 
L 716 0 
L 50 0 
L 1831 4666 
z
" transform="scale(0.015625)"/>
       <path id="DejaVuSans-45" d="M 628 4666 
L 3578 4666 
L 3578 4134 
L 1259 4134 
L 1259 2753 
L 3481 2753 
L 3481 2222 
L 1259 2222 
L 1259 531 
L 3634 531 
L 3634 0 
L 628 0 
L 628 4666 
z
" transform="scale(0.015625)"/>
      </defs>
      <use xlink:href="#DejaVuSans-4d"/>
      <use xlink:href="#DejaVuSans-41" x="86.279297"/>
      <use xlink:href="#DejaVuSans-50" x="154.6875"/>
      <use xlink:href="#DejaVuSans-45" x="214.990234"/>
     </g>
    </g>
   </g>
   <g id="line2d_14">
    <path d="M 134.622273 462.594565 
L 155.018985 461.332684 
L 175.415696 461.870347 
L 195.812408 458.400509 
L 216.20912 453.387594 
L 236.605832 453.547311 
L 257.002544 449.50079 
L 277.399255 446.846883 
L 297.795967 442.74293 
L 318.192679 440.217802 
L 338.589391 434.520397 
L 358.986103 434.814503 
L 379.382814 431.020029 
L 399.779526 427.706643 
L 420.176238 430.106962 
L 440.57295 426.302087 
L 460.969662 422.774338 
L 481.366373 417.686024 
L 501.763085 411.409267 
L 522.159797 405.407167 
L 542.556509 392.795698 
L 562.953221 401.887505 
L 583.349932 392.699189 
L 603.746644 382.661529 
L 624.143356 364.235658 
L 644.540068 365.356139 
L 664.936779 365.941733 
L 685.333491 364.933154 
L 705.730203 364.754619 
L 726.126915 364.886073 
L 746.523627 365.00906 
L 766.920338 359.70456 
L 787.31705 361.357001 
L 807.713762 354.526994 
L 828.110474 358.699437 
L 848.507186 347.399626 
L 868.903897 344.770184 
L 889.300609 334.476308 
L 909.697321 326.463792 
L 930.094033 326.427663 
L 950.490745 305.343696 
L 970.887456 286.727638 
L 991.284168 284.50708 
L 1011.68088 283.512269 
L 1032.077592 266.936402 
L 1052.474304 254.512667 
L 1072.871015 185.478024 
L 1093.267727 155.61792 
" clip-path="url(#p0d5ac4a906)" style="fill: none; stroke: #1f77b4; stroke-width: 1.5; stroke-linecap: square"/>
   </g>
   <g id="line2d_15">
    <path d="M 134.622273 466.283712 
L 155.018985 466.647212 
L 175.415696 464.997378 
L 195.812408 463.038191 
L 216.20912 455.945886 
L 236.605832 456.938827 
L 257.002544 453.779364 
L 277.399255 451.111505 
L 297.795967 443.937754 
L 318.192679 444.34259 
L 338.589391 437.856614 
L 358.986103 440.489287 
L 379.382814 438.493001 
L 399.779526 432.383079 
L 420.176238 433.526069 
L 440.57295 431.020447 
L 460.969662 427.959234 
L 481.366373 427.294309 
L 501.763085 418.553606 
L 522.159797 417.020116 
L 542.556509 410.485117 
L 562.953221 414.167486 
L 583.349932 401.344413 
L 603.746644 398.51586 
L 624.143356 380.710747 
L 644.540068 381.583584 
L 664.936779 382.276995 
L 685.333491 387.425461 
L 705.730203 387.246106 
L 726.126915 387.291647 
L 746.523627 386.353569 
L 766.920338 382.118782 
L 787.31705 384.994006 
L 807.713762 367.651671 
L 828.110474 368.360921 
L 848.507186 356.841947 
L 868.903897 356.295296 
L 889.300609 349.97529 
L 909.697321 340.443812 
L 930.094033 339.717672 
L 950.490745 318.272562 
L 970.887456 300.526839 
L 991.284168 296.926244 
L 1011.68088 297.727263 
L 1032.077592 289.413926 
L 1052.474304 279.473548 
L 1072.871015 239.421291 
L 1093.267727 192.191561 
" clip-path="url(#p0d5ac4a906)" style="fill: none; stroke: #ff7f0e; stroke-width: 1.5; stroke-linecap: square"/>
   </g>
   <g id="line2d_16">
    <path d="M 134.622273 465.931807 
L 155.018985 465.855899 
L 175.415696 464.850846 
L 195.812408 463.148266 
L 216.20912 456.010201 
L 236.605832 455.435215 
L 257.002544 453.054076 
L 277.399255 450.02518 
L 297.795967 445.309714 
L 318.192679 443.591065 
L 338.589391 436.366683 
L 358.986103 441.240223 
L 379.382814 439.085146 
L 399.779526 432.599218 
L 420.176238 433.612277 
L 440.57295 426.986711 
L 460.969662 427.923851 
L 481.366373 424.769316 
L 501.763085 419.295502 
L 522.159797 417.683018 
L 542.556509 397.274227 
L 562.953221 410.719552 
L 583.349932 389.600883 
L 603.746644 386.804712 
L 624.143356 371.599591 
L 644.540068 372.071309 
L 664.936779 372.917197 
L 685.333491 376.111577 
L 705.730203 375.358344 
L 726.126915 374.114406 
L 746.523627 375.695289 
L 766.920338 371.382719 
L 787.31705 367.528966 
L 807.713762 360.107316 
L 828.110474 363.082986 
L 848.507186 358.315735 
L 868.903897 354.112601 
L 889.300609 340.584982 
L 909.697321 331.291239 
L 930.094033 331.682505 
L 950.490745 317.395881 
L 970.887456 301.219574 
L 991.284168 300.302475 
L 1011.68088 299.737953 
L 1032.077592 287.388878 
L 1052.474304 277.6867 
L 1072.871015 219.39778 
L 1093.267727 179.940579 
" clip-path="url(#p0d5ac4a906)" style="fill: none; stroke: #2ca02c; stroke-width: 1.5; stroke-linecap: square"/>
   </g>
   <g id="line2d_17">
    <path d="M 134.622273 449.487159 
L 155.018985 449.39654 
L 175.415696 448.062372 
L 195.812408 444.211232 
L 216.20912 437.350426 
L 236.605832 436.056059 
L 257.002544 432.221447 
L 277.399255 429.788567 
L 297.795967 422.925857 
L 318.192679 426.235264 
L 338.589391 414.822455 
L 358.986103 414.398267 
L 379.382814 417.047135 
L 399.779526 405.866773 
L 420.176238 406.49261 
L 440.57295 403.974114 
L 460.969662 398.320171 
L 481.366373 399.661675 
L 501.763085 399.871662 
L 522.159797 405.957673 
L 542.556509 403.65786 
L 562.953221 402.60423 
L 583.349932 397.954774 
L 603.746644 386.525919 
L 624.143356 369.189214 
L 644.540068 369.064752 
L 664.936779 369.311489 
L 685.333491 360.420775 
L 705.730203 360.445694 
L 726.126915 359.355605 
L 746.523627 358.399981 
L 766.920338 354.009975 
L 787.31705 354.790542 
L 807.713762 353.448096 
L 828.110474 351.971201 
L 848.507186 347.023352 
L 868.903897 336.09823 
L 889.300609 328.024298 
L 909.697321 322.757813 
L 930.094033 334.696579 
L 950.490745 321.537134 
L 970.887456 320.21613 
L 991.284168 320.317151 
L 1011.68088 319.559806 
L 1032.077592 313.550905 
L 1052.474304 301.753283 
L 1072.871015 279.280397 
L 1093.267727 236.944226 
" clip-path="url(#p0d5ac4a906)" style="fill: none; stroke: #d62728; stroke-width: 1.5; stroke-linecap: square"/>
   </g>
   <g id="line2d_18"/>
   <g id="line2d_19"/>
   <g id="line2d_20"/>
   <g id="line2d_21"/>
   <g id="patch_3">
    <path d="M 86.69 490.552 
L 86.69 10.8 
" style="fill: none; stroke: #000000; stroke-width: 0.8; stroke-linejoin: miter; stroke-linecap: square"/>
   </g>
   <g id="patch_4">
    <path d="M 1141.2 490.552 
L 1141.2 10.8 
" style="fill: none; stroke: #000000; stroke-width: 0.8; stroke-linejoin: miter; stroke-linecap: square"/>
   </g>
   <g id="patch_5">
    <path d="M 86.69 490.552 
L 1141.2 490.552 
" style="fill: none; stroke: #000000; stroke-width: 0.8; stroke-linejoin: miter; stroke-linecap: square"/>
   </g>
   <g id="patch_6">
    <path d="M 86.69 10.8 
L 1141.2 10.8 
" style="fill: none; stroke: #000000; stroke-width: 0.8; stroke-linejoin: miter; stroke-linecap: square"/>
   </g>
   <g id="legend_1">
    <g id="patch_7">
     <path d="M 97.89 482.552 
L 267.635 482.552 
Q 270.835 482.552 270.835 479.352 
L 270.835 387.012 
Q 270.835 383.812 267.635 383.812 
L 97.89 383.812 
Q 94.69 383.812 94.69 387.012 
L 94.69 479.352 
Q 94.69 482.552 97.89 482.552 
z
" style="fill: #ffffff; opacity: 0.8; stroke: #cccccc; stroke-linejoin: miter"/>
    </g>
    <g id="line2d_22">
     <path d="M 101.09 396.7695 
L 117.09 396.7695 
L 133.09 396.7695 
" style="fill: none; stroke: #1f77b4; stroke-width: 1.5; stroke-linecap: square"/>
    </g>
    <g id="text_16">
     <!-- rf -->
     <g transform="translate(145.89 402.3695) scale(0.16 -0.16)">
      <defs>
       <path id="DejaVuSans-66" d="M 2375 4863 
L 2375 4384 
L 1825 4384 
Q 1516 4384 1395 4259 
Q 1275 4134 1275 3809 
L 1275 3500 
L 2222 3500 
L 2222 3053 
L 1275 3053 
L 1275 0 
L 697 0 
L 697 3053 
L 147 3053 
L 147 3500 
L 697 3500 
L 697 3744 
Q 697 4328 969 4595 
Q 1241 4863 1831 4863 
L 2375 4863 
z
" transform="scale(0.015625)"/>
      </defs>
      <use xlink:href="#DejaVuSans-72"/>
      <use xlink:href="#DejaVuSans-66" x="41.113281"/>
     </g>
    </g>
    <g id="line2d_23">
     <path d="M 101.09 420.2545 
L 117.09 420.2545 
L 133.09 420.2545 
" style="fill: none; stroke: #ff7f0e; stroke-width: 1.5; stroke-linecap: square"/>
    </g>
    <g id="text_17">
     <!-- xgb -->
     <g transform="translate(145.89 425.8545) scale(0.16 -0.16)">
      <defs>
       <path id="DejaVuSans-78" d="M 3513 3500 
L 2247 1797 
L 3578 0 
L 2900 0 
L 1881 1375 
L 863 0 
L 184 0 
L 1544 1831 
L 300 3500 
L 978 3500 
L 1906 2253 
L 2834 3500 
L 3513 3500 
z
" transform="scale(0.015625)"/>
       <path id="DejaVuSans-62" d="M 3116 1747 
Q 3116 2381 2855 2742 
Q 2594 3103 2138 3103 
Q 1681 3103 1420 2742 
Q 1159 2381 1159 1747 
Q 1159 1113 1420 752 
Q 1681 391 2138 391 
Q 2594 391 2855 752 
Q 3116 1113 3116 1747 
z
M 1159 2969 
Q 1341 3281 1617 3432 
Q 1894 3584 2278 3584 
Q 2916 3584 3314 3078 
Q 3713 2572 3713 1747 
Q 3713 922 3314 415 
Q 2916 -91 2278 -91 
Q 1894 -91 1617 61 
Q 1341 213 1159 525 
L 1159 0 
L 581 0 
L 581 4863 
L 1159 4863 
L 1159 2969 
z
" transform="scale(0.015625)"/>
      </defs>
      <use xlink:href="#DejaVuSans-78"/>
      <use xlink:href="#DejaVuSans-67" x="59.179688"/>
      <use xlink:href="#DejaVuSans-62" x="122.65625"/>
     </g>
    </g>
    <g id="line2d_24">
     <path d="M 101.09 443.7395 
L 117.09 443.7395 
L 133.09 443.7395 
" style="fill: none; stroke: #2ca02c; stroke-width: 1.5; stroke-linecap: square"/>
    </g>
    <g id="text_18">
     <!-- gbr -->
     <g transform="translate(145.89 449.3395) scale(0.16 -0.16)">
      <use xlink:href="#DejaVuSans-67"/>
      <use xlink:href="#DejaVuSans-62" x="63.476562"/>
      <use xlink:href="#DejaVuSans-72" x="126.953125"/>
     </g>
    </g>
    <g id="line2d_25">
     <path d="M 101.09 467.2245 
L 117.09 467.2245 
L 133.09 467.2245 
" style="fill: none; stroke: #d62728; stroke-width: 1.5; stroke-linecap: square"/>
    </g>
    <g id="text_19">
     <!-- BayesianRidge -->
     <g transform="translate(145.89 472.8245) scale(0.16 -0.16)">
      <defs>
       <path id="DejaVuSans-42" d="M 1259 2228 
L 1259 519 
L 2272 519 
Q 2781 519 3026 730 
Q 3272 941 3272 1375 
Q 3272 1813 3026 2020 
Q 2781 2228 2272 2228 
L 1259 2228 
z
M 1259 4147 
L 1259 2741 
L 2194 2741 
Q 2656 2741 2882 2914 
Q 3109 3088 3109 3444 
Q 3109 3797 2882 3972 
Q 2656 4147 2194 4147 
L 1259 4147 
z
M 628 4666 
L 2241 4666 
Q 2963 4666 3353 4366 
Q 3744 4066 3744 3513 
Q 3744 3084 3544 2831 
Q 3344 2578 2956 2516 
Q 3422 2416 3680 2098 
Q 3938 1781 3938 1306 
Q 3938 681 3513 340 
Q 3088 0 2303 0 
L 628 0 
L 628 4666 
z
" transform="scale(0.015625)"/>
       <path id="DejaVuSans-79" d="M 2059 -325 
Q 1816 -950 1584 -1140 
Q 1353 -1331 966 -1331 
L 506 -1331 
L 506 -850 
L 844 -850 
Q 1081 -850 1212 -737 
Q 1344 -625 1503 -206 
L 1606 56 
L 191 3500 
L 800 3500 
L 1894 763 
L 2988 3500 
L 3597 3500 
L 2059 -325 
z
" transform="scale(0.015625)"/>
       <path id="DejaVuSans-52" d="M 2841 2188 
Q 3044 2119 3236 1894 
Q 3428 1669 3622 1275 
L 4263 0 
L 3584 0 
L 2988 1197 
Q 2756 1666 2539 1819 
Q 2322 1972 1947 1972 
L 1259 1972 
L 1259 0 
L 628 0 
L 628 4666 
L 2053 4666 
Q 2853 4666 3247 4331 
Q 3641 3997 3641 3322 
Q 3641 2881 3436 2590 
Q 3231 2300 2841 2188 
z
M 1259 4147 
L 1259 2491 
L 2053 2491 
Q 2509 2491 2742 2702 
Q 2975 2913 2975 3322 
Q 2975 3731 2742 3939 
Q 2509 4147 2053 4147 
L 1259 4147 
z
" transform="scale(0.015625)"/>
      </defs>
      <use xlink:href="#DejaVuSans-42"/>
      <use xlink:href="#DejaVuSans-61" x="68.603516"/>
      <use xlink:href="#DejaVuSans-79" x="129.882812"/>
      <use xlink:href="#DejaVuSans-65" x="189.0625"/>
      <use xlink:href="#DejaVuSans-73" x="250.585938"/>
      <use xlink:href="#DejaVuSans-69" x="302.685547"/>
      <use xlink:href="#DejaVuSans-61" x="330.46875"/>
      <use xlink:href="#DejaVuSans-6e" x="391.748047"/>
      <use xlink:href="#DejaVuSans-52" x="455.126953"/>
      <use xlink:href="#DejaVuSans-69" x="524.609375"/>
      <use xlink:href="#DejaVuSans-64" x="552.392578"/>
      <use xlink:href="#DejaVuSans-67" x="615.869141"/>
      <use xlink:href="#DejaVuSans-65" x="679.345703"/>
     </g>
    </g>
   </g>
  </g>
 </g>
 <defs>
  <clipPath id="p0d5ac4a906">
   <rect x="86.69" y="10.8" width="1054.51" height="479.752"/>
  </clipPath>
 </defs>
</svg>
