<?xml version="1.0" encoding="utf-8" standalone="no"?>
<!DOCTYPE svg PUBLIC "-//W3C//DTD SVG 1.1//EN"
  "http://www.w3.org/Graphics/SVG/1.1/DTD/svg11.dtd">
<svg xmlns:xlink="http://www.w3.org/1999/xlink" width="1152pt" height="576pt" viewBox="0 0 1152 576" xmlns="http://www.w3.org/2000/svg" version="1.1">
 <metadata>
  <rdf:RDF xmlns:dc="http://purl.org/dc/elements/1.1/" xmlns:cc="http://creativecommons.org/ns#" xmlns:rdf="http://www.w3.org/1999/02/22-rdf-syntax-ns#">
   <cc:Work>
    <dc:type rdf:resource="http://purl.org/dc/dcmitype/StillImage"/>
    <dc:date>2025-03-19T22:49:41.979614</dc:date>
    <dc:format>image/svg+xml</dc:format>
    <dc:creator>
     <cc:Agent>
      <dc:title>Matplotlib v3.9.2, https://matplotlib.org/</dc:title>
     </cc:Agent>
    </dc:creator>
   </cc:Work>
  </rdf:RDF>
 </metadata>
 <defs>
  <style type="text/css">*{stroke-linejoin: round; stroke-linecap: butt}</style>
 </defs>
 <g id="figure_1">
  <g id="patch_1">
   <path d="M 0 576 
L 1152 576 
L 1152 0 
L 0 0 
z
" style="fill: #ffffff"/>
  </g>
  <g id="axes_1">
   <g id="patch_2">
    <path d="M 80.21 490.552 
L 1141.2 490.552 
L 1141.2 10.8 
L 80.21 10.8 
z
" style="fill: #ffffff"/>
   </g>
   <g id="PolyCollection_1">
    <defs>
     <path id="mfe0edb402b" d="M 128.436818 -359.781518 
L 128.436818 -251.407765 
L 148.958868 -259.394374 
L 169.480919 -230.90474 
L 190.002969 -256.80969 
L 210.525019 -263.601223 
L 231.04707 -213.374173 
L 251.56912 -244.367668 
L 272.09117 -226.900369 
L 292.613221 -223.153563 
L 313.135271 -282.428138 
L 333.657321 -259.542833 
L 354.179371 -239.047294 
L 374.701422 -279.312618 
L 395.223472 -244.071621 
L 415.745522 -266.589761 
L 436.267573 -239.216087 
L 456.789623 -246.116765 
L 477.311673 -275.064568 
L 497.833723 -258.626227 
L 518.355774 -267.137099 
L 538.877824 -268.899632 
L 559.399874 -270.426844 
L 579.921925 -296.753086 
L 600.443975 -282.552507 
L 620.966025 -267.148076 
L 641.488075 -246.752198 
L 662.010126 -284.6146 
L 682.532176 -198.909499 
L 703.054226 -273.592306 
L 723.576277 -250.70236 
L 744.098327 -237.742718 
L 764.620377 -273.675735 
L 785.142427 -271.507518 
L 805.664478 -257.825146 
L 826.186528 -294.398377 
L 846.708578 -273.905771 
L 867.230629 -281.650828 
L 887.752679 -305.135262 
L 908.274729 -273.213052 
L 928.796779 -299.347 
L 949.31883 -256.61501 
L 969.84088 -244.379308 
L 990.36293 -233.799295 
L 1010.884981 -300.395394 
L 1031.407031 -278.166039 
L 1051.929081 -290.091673 
L 1072.451132 -297.597542 
L 1092.973182 -280.514305 
L 1092.973182 -427.100644 
L 1092.973182 -427.100644 
L 1072.451132 -424.088777 
L 1051.929081 -376.576541 
L 1031.407031 -376.029265 
L 1010.884981 -410.360416 
L 990.36293 -398.071279 
L 969.84088 -395.555444 
L 949.31883 -308.936158 
L 928.796779 -361.143322 
L 908.274729 -324.416415 
L 887.752679 -384.70108 
L 867.230629 -322.001931 
L 846.708578 -387.041458 
L 826.186528 -364.283856 
L 805.664478 -322.38919 
L 785.142427 -512.785972 
L 764.620377 -296.048955 
L 744.098327 -331.991009 
L 723.576277 -330.376176 
L 703.054226 -364.30435 
L 682.532176 -311.833363 
L 662.010126 -454.017033 
L 641.488075 -395.341615 
L 620.966025 -352.98933 
L 600.443975 -364.476896 
L 579.921925 -428.243997 
L 559.399874 -364.195467 
L 538.877824 -336.089491 
L 518.355774 -328.199821 
L 497.833723 -317.226303 
L 477.311673 -319.789301 
L 456.789623 -342.457526 
L 436.267573 -284.666819 
L 415.745522 -357.734328 
L 395.223472 -314.488195 
L 374.701422 -363.95036 
L 354.179371 -308.337541 
L 333.657321 -319.213783 
L 313.135271 -306.397278 
L 292.613221 -267.730675 
L 272.09117 -306.367628 
L 251.56912 -364.335453 
L 231.04707 -327.602131 
L 210.525019 -322.689993 
L 190.002969 -341.506607 
L 169.480919 -282.12755 
L 148.958868 -332.720937 
L 128.436818 -359.781518 
z
" style="stroke: #1f77b4; stroke-opacity: 0.2"/>
    </defs>
    <g clip-path="url(#pb7c68290dc)">
     <use xlink:href="#mfe0edb402b" x="0" y="576" style="fill: #1f77b4; fill-opacity: 0.2; stroke: #1f77b4; stroke-opacity: 0.2"/>
    </g>
   </g>
   <g id="PolyCollection_2">
    <defs>
     <path id="mc203b8ac43" d="M 128.436818 -285.672816 
L 128.436818 -195.927972 
L 148.958868 -160.89239 
L 169.480919 -132.607931 
L 190.002969 -174.567878 
L 210.525019 -122.138163 
L 231.04707 -113.612044 
L 251.56912 -132.07351 
L 272.09117 -139.861374 
L 292.613221 -156.553992 
L 313.135271 -140.6722 
L 333.657321 -136.312568 
L 354.179371 -145.986865 
L 374.701422 -144.740601 
L 395.223472 -156.655671 
L 415.745522 -157.340024 
L 436.267573 -139.110083 
L 456.789623 -144.307511 
L 477.311673 -151.775302 
L 497.833723 -137.640256 
L 518.355774 -141.040094 
L 538.877824 -161.34952 
L 559.399874 -170.245394 
L 579.921925 -185.572788 
L 600.443975 -160.278695 
L 620.966025 -141.633036 
L 641.488075 -154.560778 
L 662.010126 -176.964246 
L 682.532176 -176.65289 
L 703.054226 -164.302912 
L 723.576277 -158.247114 
L 744.098327 -130.844128 
L 764.620377 -137.287192 
L 785.142427 -139.674299 
L 805.664478 -152.753177 
L 826.186528 -162.381463 
L 846.708578 -182.628571 
L 867.230629 -162.355987 
L 887.752679 -186.352574 
L 908.274729 -179.191103 
L 928.796779 -162.641304 
L 949.31883 -169.933732 
L 969.84088 -133.906625 
L 990.36293 -107.254909 
L 1010.884981 -160.701703 
L 1031.407031 -137.666326 
L 1051.929081 -151.522504 
L 1072.451132 -157.809924 
L 1092.973182 -151.423872 
L 1092.973182 -288.174315 
L 1092.973182 -288.174315 
L 1072.451132 -287.205285 
L 1051.929081 -229.108016 
L 1031.407031 -274.041544 
L 1010.884981 -233.268196 
L 990.36293 -264.747016 
L 969.84088 -250.634947 
L 949.31883 -204.27341 
L 928.796779 -283.613431 
L 908.274729 -244.043565 
L 887.752679 -257.649099 
L 867.230629 -227.343245 
L 846.708578 -289.64525 
L 826.186528 -215.811455 
L 805.664478 -200.443453 
L 785.142427 -268.348243 
L 764.620377 -215.731576 
L 744.098327 -238.171208 
L 723.576277 -286.542907 
L 703.054226 -235.589796 
L 682.532176 -222.817127 
L 662.010126 -343.395027 
L 641.488075 -246.441072 
L 620.966025 -195.141797 
L 600.443975 -207.712793 
L 579.921925 -254.082208 
L 559.399874 -201.425719 
L 538.877824 -237.087521 
L 518.355774 -217.493202 
L 497.833723 -213.35489 
L 477.311673 -211.898701 
L 456.789623 -189.571069 
L 436.267573 -172.418835 
L 415.745522 -207.417861 
L 395.223472 -205.834894 
L 374.701422 -206.111182 
L 354.179371 -187.980602 
L 333.657321 -236.617239 
L 313.135271 -236.15223 
L 292.613221 -241.951587 
L 272.09117 -204.970663 
L 251.56912 -240.298117 
L 231.04707 -213.896041 
L 210.525019 -154.918899 
L 190.002969 -232.58976 
L 169.480919 -193.922523 
L 148.958868 -189.662038 
L 128.436818 -285.672816 
z
" style="stroke: #ff7f0e; stroke-opacity: 0.2"/>
    </defs>
    <g clip-path="url(#pb7c68290dc)">
     <use xlink:href="#mc203b8ac43" x="0" y="576" style="fill: #ff7f0e; fill-opacity: 0.2; stroke: #ff7f0e; stroke-opacity: 0.2"/>
    </g>
   </g>
   <g id="PolyCollection_3">
    <defs>
     <path id="m1e0f770ec2" d="M 128.436818 -346.814237 
L 128.436818 -247.013977 
L 148.958868 -179.0016 
L 169.480919 -199.847354 
L 190.002969 -145.951518 
L 210.525019 -131.890924 
L 231.04707 -160.208344 
L 251.56912 -161.437168 
L 272.09117 -182.47537 
L 292.613221 -201.128921 
L 313.135271 -171.288983 
L 333.657321 -215.180203 
L 354.179371 -159.763242 
L 374.701422 -211.259207 
L 395.223472 -164.813015 
L 415.745522 -193.620051 
L 436.267573 -176.254508 
L 456.789623 -170.395457 
L 477.311673 -150.411534 
L 497.833723 -160.308265 
L 518.355774 -184.748 
L 538.877824 -215.624507 
L 559.399874 -194.121136 
L 579.921925 -230.66093 
L 600.443975 -189.218931 
L 620.966025 -200.363599 
L 641.488075 -175.650227 
L 662.010126 -242.99801 
L 682.532176 -212.598611 
L 703.054226 -216.569024 
L 723.576277 -186.267623 
L 744.098327 -151.864457 
L 764.620377 -177.583047 
L 785.142427 -171.684759 
L 805.664478 -157.621696 
L 826.186528 -187.458307 
L 846.708578 -227.257083 
L 867.230629 -186.867999 
L 887.752679 -217.389811 
L 908.274729 -178.227207 
L 928.796779 -236.494463 
L 949.31883 -190.189131 
L 969.84088 -190.957403 
L 990.36293 -203.255547 
L 1010.884981 -224.093209 
L 1031.407031 -185.315586 
L 1051.929081 -197.088562 
L 1072.451132 -200.429267 
L 1092.973182 -186.567743 
L 1092.973182 -317.794988 
L 1092.973182 -317.794988 
L 1072.451132 -303.192224 
L 1051.929081 -296.612067 
L 1031.407031 -309.17468 
L 1010.884981 -328.623169 
L 990.36293 -291.335448 
L 969.84088 -334.009355 
L 949.31883 -250.196086 
L 928.796779 -353.397423 
L 908.274729 -279.281738 
L 887.752679 -336.95271 
L 867.230629 -262.754558 
L 846.708578 -352.293909 
L 826.186528 -313.088196 
L 805.664478 -234.092493 
L 785.142427 -288.66972 
L 764.620377 -288.795393 
L 744.098327 -268.035898 
L 723.576277 -309.321349 
L 703.054226 -295.995111 
L 682.532176 -271.287607 
L 662.010126 -359.187618 
L 641.488075 -271.432772 
L 620.966025 -269.004021 
L 600.443975 -266.503493 
L 579.921925 -255.358297 
L 559.399874 -264.723973 
L 538.877824 -337.170641 
L 518.355774 -262.906689 
L 497.833723 -260.55851 
L 477.311673 -230.798465 
L 456.789623 -247.705556 
L 436.267573 -257.325326 
L 415.745522 -246.214007 
L 395.223472 -271.142178 
L 374.701422 -244.269013 
L 354.179371 -221.413406 
L 333.657321 -271.002784 
L 313.135271 -250.771859 
L 292.613221 -275.470946 
L 272.09117 -234.396153 
L 251.56912 -241.537521 
L 231.04707 -233.937036 
L 210.525019 -181.386914 
L 190.002969 -238.925997 
L 169.480919 -228.972115 
L 148.958868 -239.103668 
L 128.436818 -346.814237 
z
" style="stroke: #2ca02c; stroke-opacity: 0.2"/>
    </defs>
    <g clip-path="url(#pb7c68290dc)">
     <use xlink:href="#m1e0f770ec2" x="0" y="576" style="fill: #2ca02c; fill-opacity: 0.2; stroke: #2ca02c; stroke-opacity: 0.2"/>
    </g>
   </g>
   <g id="PolyCollection_4">
    <defs>
     <path id="m1b05876367" d="M 128.436818 -543.393091 
L 128.436818 -441.399329 
L 148.958868 -400.009254 
L 169.480919 -382.920079 
L 190.002969 -393.695206 
L 210.525019 -389.870494 
L 231.04707 -382.714735 
L 251.56912 -396.908033 
L 272.09117 -383.631247 
L 292.613221 -392.447407 
L 313.135271 -385.668568 
L 333.657321 -440.451352 
L 354.179371 -421.775069 
L 374.701422 -398.137678 
L 395.223472 -400.637617 
L 415.745522 -389.255183 
L 436.267573 -399.660201 
L 456.789623 -379.222384 
L 477.311673 -413.227747 
L 497.833723 -375.827321 
L 518.355774 -426.299179 
L 538.877824 -434.826194 
L 559.399874 -412.318584 
L 579.921925 -420.984839 
L 600.443975 -415.299207 
L 620.966025 -425.095452 
L 641.488075 -400.837101 
L 662.010126 -420.814281 
L 682.532176 -408.412196 
L 703.054226 -387.863575 
L 723.576277 -407.359497 
L 744.098327 -476.469791 
L 764.620377 -411.893916 
L 785.142427 -384.115471 
L 805.664478 -396.451318 
L 826.186528 -394.525187 
L 846.708578 -434.363083 
L 867.230629 -399.842592 
L 887.752679 -382.37977 
L 908.274729 -382.506624 
L 928.796779 -405.526521 
L 949.31883 -455.116265 
L 969.84088 -393.832249 
L 990.36293 -374.573521 
L 1010.884981 -408.991011 
L 1031.407031 -412.780675 
L 1051.929081 -439.337839 
L 1072.451132 -420.680059 
L 1092.973182 -390.988459 
L 1092.973182 -528.361483 
L 1092.973182 -528.361483 
L 1072.451132 -505.450138 
L 1051.929081 -542.599473 
L 1031.407031 -512.045963 
L 1010.884981 -481.850078 
L 990.36293 -490.600979 
L 969.84088 -510.358361 
L 949.31883 -493.279952 
L 928.796779 -480.715046 
L 908.274729 -436.528652 
L 887.752679 -469.740044 
L 867.230629 -540.907737 
L 846.708578 -504.214684 
L 826.186528 -480.920275 
L 805.664478 -448.32113 
L 785.142427 -509.417556 
L 764.620377 -524.142349 
L 744.098327 -531.568565 
L 723.576277 -527.642245 
L 703.054226 -521.139264 
L 682.532176 -510.31574 
L 662.010126 -470.47232 
L 641.488075 -463.598557 
L 620.966025 -481.768277 
L 600.443975 -493.973031 
L 579.921925 -517.223976 
L 559.399874 -528.784264 
L 538.877824 -534.763811 
L 518.355774 -509.649369 
L 497.833723 -481.3018 
L 477.311673 -483.610543 
L 456.789623 -511.618157 
L 436.267573 -482.120515 
L 415.745522 -440.252799 
L 395.223472 -463.619698 
L 374.701422 -489.606489 
L 354.179371 -449.251917 
L 333.657321 -516.514863 
L 313.135271 -466.722874 
L 292.613221 -435.797295 
L 272.09117 -501.611019 
L 251.56912 -476.824324 
L 231.04707 -422.801865 
L 210.525019 -490.130939 
L 190.002969 -489.148276 
L 169.480919 -460.986354 
L 148.958868 -452.598362 
L 128.436818 -543.393091 
z
" style="stroke: #d62728; stroke-opacity: 0.2"/>
    </defs>
    <g clip-path="url(#pb7c68290dc)">
     <use xlink:href="#m1b05876367" x="0" y="576" style="fill: #d62728; fill-opacity: 0.2; stroke: #d62728; stroke-opacity: 0.2"/>
    </g>
   </g>
   <g id="matplotlib.axis_1">
    <g id="xtick_1">
     <g id="line2d_1">
      <defs>
       <path id="m927b1e2d33" d="M 0 0 
L 0 3.5 
" style="stroke: #000000; stroke-width: 0.8"/>
      </defs>
      <g>
       <use xlink:href="#m927b1e2d33" x="118.175793" y="490.552" style="stroke: #000000; stroke-width: 0.8"/>
      </g>
     </g>
     <g id="text_1">
      <!-- 0 -->
      <g transform="translate(111.813293 512.748875) scale(0.2 -0.2)">
       <defs>
        <path id="DejaVuSans-30" d="M 2034 4250 
Q 1547 4250 1301 3770 
Q 1056 3291 1056 2328 
Q 1056 1369 1301 889 
Q 1547 409 2034 409 
Q 2525 409 2770 889 
Q 3016 1369 3016 2328 
Q 3016 3291 2770 3770 
Q 2525 4250 2034 4250 
z
M 2034 4750 
Q 2819 4750 3233 4129 
Q 3647 3509 3647 2328 
Q 3647 1150 3233 529 
Q 2819 -91 2034 -91 
Q 1250 -91 836 529 
Q 422 1150 422 2328 
Q 422 3509 836 4129 
Q 1250 4750 2034 4750 
z
" transform="scale(0.015625)"/>
       </defs>
       <use xlink:href="#DejaVuSans-30"/>
      </g>
     </g>
    </g>
    <g id="xtick_2">
     <g id="line2d_2">
      <g>
       <use xlink:href="#m927b1e2d33" x="323.396296" y="490.552" style="stroke: #000000; stroke-width: 0.8"/>
      </g>
     </g>
     <g id="text_2">
      <!-- 20 -->
      <g transform="translate(310.671296 512.748875) scale(0.2 -0.2)">
       <defs>
        <path id="DejaVuSans-32" d="M 1228 531 
L 3431 531 
L 3431 0 
L 469 0 
L 469 531 
Q 828 903 1448 1529 
Q 2069 2156 2228 2338 
Q 2531 2678 2651 2914 
Q 2772 3150 2772 3378 
Q 2772 3750 2511 3984 
Q 2250 4219 1831 4219 
Q 1534 4219 1204 4116 
Q 875 4013 500 3803 
L 500 4441 
Q 881 4594 1212 4672 
Q 1544 4750 1819 4750 
Q 2544 4750 2975 4387 
Q 3406 4025 3406 3419 
Q 3406 3131 3298 2873 
Q 3191 2616 2906 2266 
Q 2828 2175 2409 1742 
Q 1991 1309 1228 531 
z
" transform="scale(0.015625)"/>
       </defs>
       <use xlink:href="#DejaVuSans-32"/>
       <use xlink:href="#DejaVuSans-30" x="63.623047"/>
      </g>
     </g>
    </g>
    <g id="xtick_3">
     <g id="line2d_3">
      <g>
       <use xlink:href="#m927b1e2d33" x="528.616799" y="490.552" style="stroke: #000000; stroke-width: 0.8"/>
      </g>
     </g>
     <g id="text_3">
      <!-- 40 -->
      <g transform="translate(515.891799 512.748875) scale(0.2 -0.2)">
       <defs>
        <path id="DejaVuSans-34" d="M 2419 4116 
L 825 1625 
L 2419 1625 
L 2419 4116 
z
M 2253 4666 
L 3047 4666 
L 3047 1625 
L 3713 1625 
L 3713 1100 
L 3047 1100 
L 3047 0 
L 2419 0 
L 2419 1100 
L 313 1100 
L 313 1709 
L 2253 4666 
z
" transform="scale(0.015625)"/>
       </defs>
       <use xlink:href="#DejaVuSans-34"/>
       <use xlink:href="#DejaVuSans-30" x="63.623047"/>
      </g>
     </g>
    </g>
    <g id="xtick_4">
     <g id="line2d_4">
      <g>
       <use xlink:href="#m927b1e2d33" x="733.837302" y="490.552" style="stroke: #000000; stroke-width: 0.8"/>
      </g>
     </g>
     <g id="text_4">
      <!-- 60 -->
      <g transform="translate(721.112302 512.748875) scale(0.2 -0.2)">
       <defs>
        <path id="DejaVuSans-36" d="M 2113 2584 
Q 1688 2584 1439 2293 
Q 1191 2003 1191 1497 
Q 1191 994 1439 701 
Q 1688 409 2113 409 
Q 2538 409 2786 701 
Q 3034 994 3034 1497 
Q 3034 2003 2786 2293 
Q 2538 2584 2113 2584 
z
M 3366 4563 
L 3366 3988 
Q 3128 4100 2886 4159 
Q 2644 4219 2406 4219 
Q 1781 4219 1451 3797 
Q 1122 3375 1075 2522 
Q 1259 2794 1537 2939 
Q 1816 3084 2150 3084 
Q 2853 3084 3261 2657 
Q 3669 2231 3669 1497 
Q 3669 778 3244 343 
Q 2819 -91 2113 -91 
Q 1303 -91 875 529 
Q 447 1150 447 2328 
Q 447 3434 972 4092 
Q 1497 4750 2381 4750 
Q 2619 4750 2861 4703 
Q 3103 4656 3366 4563 
z
" transform="scale(0.015625)"/>
       </defs>
       <use xlink:href="#DejaVuSans-36"/>
       <use xlink:href="#DejaVuSans-30" x="63.623047"/>
      </g>
     </g>
    </g>
    <g id="xtick_5">
     <g id="line2d_5">
      <g>
       <use xlink:href="#m927b1e2d33" x="939.057805" y="490.552" style="stroke: #000000; stroke-width: 0.8"/>
      </g>
     </g>
     <g id="text_5">
      <!-- 80 -->
      <g transform="translate(926.332805 512.748875) scale(0.2 -0.2)">
       <defs>
        <path id="DejaVuSans-38" d="M 2034 2216 
Q 1584 2216 1326 1975 
Q 1069 1734 1069 1313 
Q 1069 891 1326 650 
Q 1584 409 2034 409 
Q 2484 409 2743 651 
Q 3003 894 3003 1313 
Q 3003 1734 2745 1975 
Q 2488 2216 2034 2216 
z
M 1403 2484 
Q 997 2584 770 2862 
Q 544 3141 544 3541 
Q 544 4100 942 4425 
Q 1341 4750 2034 4750 
Q 2731 4750 3128 4425 
Q 3525 4100 3525 3541 
Q 3525 3141 3298 2862 
Q 3072 2584 2669 2484 
Q 3125 2378 3379 2068 
Q 3634 1759 3634 1313 
Q 3634 634 3220 271 
Q 2806 -91 2034 -91 
Q 1263 -91 848 271 
Q 434 634 434 1313 
Q 434 1759 690 2068 
Q 947 2378 1403 2484 
z
M 1172 3481 
Q 1172 3119 1398 2916 
Q 1625 2713 2034 2713 
Q 2441 2713 2670 2916 
Q 2900 3119 2900 3481 
Q 2900 3844 2670 4047 
Q 2441 4250 2034 4250 
Q 1625 4250 1398 4047 
Q 1172 3844 1172 3481 
z
" transform="scale(0.015625)"/>
       </defs>
       <use xlink:href="#DejaVuSans-38"/>
       <use xlink:href="#DejaVuSans-30" x="63.623047"/>
      </g>
     </g>
    </g>
    <g id="text_6">
     <!-- Percentile Threshold -->
     <g transform="translate(508.925313 536.105125) scale(0.2 -0.2)">
      <defs>
       <path id="DejaVuSans-50" d="M 1259 4147 
L 1259 2394 
L 2053 2394 
Q 2494 2394 2734 2622 
Q 2975 2850 2975 3272 
Q 2975 3691 2734 3919 
Q 2494 4147 2053 4147 
L 1259 4147 
z
M 628 4666 
L 2053 4666 
Q 2838 4666 3239 4311 
Q 3641 3956 3641 3272 
Q 3641 2581 3239 2228 
Q 2838 1875 2053 1875 
L 1259 1875 
L 1259 0 
L 628 0 
L 628 4666 
z
" transform="scale(0.015625)"/>
       <path id="DejaVuSans-65" d="M 3597 1894 
L 3597 1613 
L 953 1613 
Q 991 1019 1311 708 
Q 1631 397 2203 397 
Q 2534 397 2845 478 
Q 3156 559 3463 722 
L 3463 178 
Q 3153 47 2828 -22 
Q 2503 -91 2169 -91 
Q 1331 -91 842 396 
Q 353 884 353 1716 
Q 353 2575 817 3079 
Q 1281 3584 2069 3584 
Q 2775 3584 3186 3129 
Q 3597 2675 3597 1894 
z
M 3022 2063 
Q 3016 2534 2758 2815 
Q 2500 3097 2075 3097 
Q 1594 3097 1305 2825 
Q 1016 2553 972 2059 
L 3022 2063 
z
" transform="scale(0.015625)"/>
       <path id="DejaVuSans-72" d="M 2631 2963 
Q 2534 3019 2420 3045 
Q 2306 3072 2169 3072 
Q 1681 3072 1420 2755 
Q 1159 2438 1159 1844 
L 1159 0 
L 581 0 
L 581 3500 
L 1159 3500 
L 1159 2956 
Q 1341 3275 1631 3429 
Q 1922 3584 2338 3584 
Q 2397 3584 2469 3576 
Q 2541 3569 2628 3553 
L 2631 2963 
z
" transform="scale(0.015625)"/>
       <path id="DejaVuSans-63" d="M 3122 3366 
L 3122 2828 
Q 2878 2963 2633 3030 
Q 2388 3097 2138 3097 
Q 1578 3097 1268 2742 
Q 959 2388 959 1747 
Q 959 1106 1268 751 
Q 1578 397 2138 397 
Q 2388 397 2633 464 
Q 2878 531 3122 666 
L 3122 134 
Q 2881 22 2623 -34 
Q 2366 -91 2075 -91 
Q 1284 -91 818 406 
Q 353 903 353 1747 
Q 353 2603 823 3093 
Q 1294 3584 2113 3584 
Q 2378 3584 2631 3529 
Q 2884 3475 3122 3366 
z
" transform="scale(0.015625)"/>
       <path id="DejaVuSans-6e" d="M 3513 2113 
L 3513 0 
L 2938 0 
L 2938 2094 
Q 2938 2591 2744 2837 
Q 2550 3084 2163 3084 
Q 1697 3084 1428 2787 
Q 1159 2491 1159 1978 
L 1159 0 
L 581 0 
L 581 3500 
L 1159 3500 
L 1159 2956 
Q 1366 3272 1645 3428 
Q 1925 3584 2291 3584 
Q 2894 3584 3203 3211 
Q 3513 2838 3513 2113 
z
" transform="scale(0.015625)"/>
       <path id="DejaVuSans-74" d="M 1172 4494 
L 1172 3500 
L 2356 3500 
L 2356 3053 
L 1172 3053 
L 1172 1153 
Q 1172 725 1289 603 
Q 1406 481 1766 481 
L 2356 481 
L 2356 0 
L 1766 0 
Q 1100 0 847 248 
Q 594 497 594 1153 
L 594 3053 
L 172 3053 
L 172 3500 
L 594 3500 
L 594 4494 
L 1172 4494 
z
" transform="scale(0.015625)"/>
       <path id="DejaVuSans-69" d="M 603 3500 
L 1178 3500 
L 1178 0 
L 603 0 
L 603 3500 
z
M 603 4863 
L 1178 4863 
L 1178 4134 
L 603 4134 
L 603 4863 
z
" transform="scale(0.015625)"/>
       <path id="DejaVuSans-6c" d="M 603 4863 
L 1178 4863 
L 1178 0 
L 603 0 
L 603 4863 
z
" transform="scale(0.015625)"/>
       <path id="DejaVuSans-20" transform="scale(0.015625)"/>
       <path id="DejaVuSans-54" d="M -19 4666 
L 3928 4666 
L 3928 4134 
L 2272 4134 
L 2272 0 
L 1638 0 
L 1638 4134 
L -19 4134 
L -19 4666 
z
" transform="scale(0.015625)"/>
       <path id="DejaVuSans-68" d="M 3513 2113 
L 3513 0 
L 2938 0 
L 2938 2094 
Q 2938 2591 2744 2837 
Q 2550 3084 2163 3084 
Q 1697 3084 1428 2787 
Q 1159 2491 1159 1978 
L 1159 0 
L 581 0 
L 581 4863 
L 1159 4863 
L 1159 2956 
Q 1366 3272 1645 3428 
Q 1925 3584 2291 3584 
Q 2894 3584 3203 3211 
Q 3513 2838 3513 2113 
z
" transform="scale(0.015625)"/>
       <path id="DejaVuSans-73" d="M 2834 3397 
L 2834 2853 
Q 2591 2978 2328 3040 
Q 2066 3103 1784 3103 
Q 1356 3103 1142 2972 
Q 928 2841 928 2578 
Q 928 2378 1081 2264 
Q 1234 2150 1697 2047 
L 1894 2003 
Q 2506 1872 2764 1633 
Q 3022 1394 3022 966 
Q 3022 478 2636 193 
Q 2250 -91 1575 -91 
Q 1294 -91 989 -36 
Q 684 19 347 128 
L 347 722 
Q 666 556 975 473 
Q 1284 391 1588 391 
Q 1994 391 2212 530 
Q 2431 669 2431 922 
Q 2431 1156 2273 1281 
Q 2116 1406 1581 1522 
L 1381 1569 
Q 847 1681 609 1914 
Q 372 2147 372 2553 
Q 372 3047 722 3315 
Q 1072 3584 1716 3584 
Q 2034 3584 2315 3537 
Q 2597 3491 2834 3397 
z
" transform="scale(0.015625)"/>
       <path id="DejaVuSans-6f" d="M 1959 3097 
Q 1497 3097 1228 2736 
Q 959 2375 959 1747 
Q 959 1119 1226 758 
Q 1494 397 1959 397 
Q 2419 397 2687 759 
Q 2956 1122 2956 1747 
Q 2956 2369 2687 2733 
Q 2419 3097 1959 3097 
z
M 1959 3584 
Q 2709 3584 3137 3096 
Q 3566 2609 3566 1747 
Q 3566 888 3137 398 
Q 2709 -91 1959 -91 
Q 1206 -91 779 398 
Q 353 888 353 1747 
Q 353 2609 779 3096 
Q 1206 3584 1959 3584 
z
" transform="scale(0.015625)"/>
       <path id="DejaVuSans-64" d="M 2906 2969 
L 2906 4863 
L 3481 4863 
L 3481 0 
L 2906 0 
L 2906 525 
Q 2725 213 2448 61 
Q 2172 -91 1784 -91 
Q 1150 -91 751 415 
Q 353 922 353 1747 
Q 353 2572 751 3078 
Q 1150 3584 1784 3584 
Q 2172 3584 2448 3432 
Q 2725 3281 2906 2969 
z
M 947 1747 
Q 947 1113 1208 752 
Q 1469 391 1925 391 
Q 2381 391 2643 752 
Q 2906 1113 2906 1747 
Q 2906 2381 2643 2742 
Q 2381 3103 1925 3103 
Q 1469 3103 1208 2742 
Q 947 2381 947 1747 
z
" transform="scale(0.015625)"/>
      </defs>
      <use xlink:href="#DejaVuSans-50"/>
      <use xlink:href="#DejaVuSans-65" x="56.677734"/>
      <use xlink:href="#DejaVuSans-72" x="118.201172"/>
      <use xlink:href="#DejaVuSans-63" x="157.064453"/>
      <use xlink:href="#DejaVuSans-65" x="212.044922"/>
      <use xlink:href="#DejaVuSans-6e" x="273.568359"/>
      <use xlink:href="#DejaVuSans-74" x="336.947266"/>
      <use xlink:href="#DejaVuSans-69" x="376.15625"/>
      <use xlink:href="#DejaVuSans-6c" x="403.939453"/>
      <use xlink:href="#DejaVuSans-65" x="431.722656"/>
      <use xlink:href="#DejaVuSans-20" x="493.246094"/>
      <use xlink:href="#DejaVuSans-54" x="525.033203"/>
      <use xlink:href="#DejaVuSans-68" x="586.117188"/>
      <use xlink:href="#DejaVuSans-72" x="649.496094"/>
      <use xlink:href="#DejaVuSans-65" x="688.359375"/>
      <use xlink:href="#DejaVuSans-73" x="749.882812"/>
      <use xlink:href="#DejaVuSans-68" x="801.982422"/>
      <use xlink:href="#DejaVuSans-6f" x="865.361328"/>
      <use xlink:href="#DejaVuSans-6c" x="926.542969"/>
      <use xlink:href="#DejaVuSans-64" x="954.326172"/>
     </g>
     <!-- (Using "random" Threshold Handling) -->
     <g transform="translate(423.537813 558.50075) scale(0.2 -0.2)">
      <defs>
       <path id="DejaVuSans-28" d="M 1984 4856 
Q 1566 4138 1362 3434 
Q 1159 2731 1159 2009 
Q 1159 1288 1364 580 
Q 1569 -128 1984 -844 
L 1484 -844 
Q 1016 -109 783 600 
Q 550 1309 550 2009 
Q 550 2706 781 3412 
Q 1013 4119 1484 4856 
L 1984 4856 
z
" transform="scale(0.015625)"/>
       <path id="DejaVuSans-55" d="M 556 4666 
L 1191 4666 
L 1191 1831 
Q 1191 1081 1462 751 
Q 1734 422 2344 422 
Q 2950 422 3222 751 
Q 3494 1081 3494 1831 
L 3494 4666 
L 4128 4666 
L 4128 1753 
Q 4128 841 3676 375 
Q 3225 -91 2344 -91 
Q 1459 -91 1007 375 
Q 556 841 556 1753 
L 556 4666 
z
" transform="scale(0.015625)"/>
       <path id="DejaVuSans-67" d="M 2906 1791 
Q 2906 2416 2648 2759 
Q 2391 3103 1925 3103 
Q 1463 3103 1205 2759 
Q 947 2416 947 1791 
Q 947 1169 1205 825 
Q 1463 481 1925 481 
Q 2391 481 2648 825 
Q 2906 1169 2906 1791 
z
M 3481 434 
Q 3481 -459 3084 -895 
Q 2688 -1331 1869 -1331 
Q 1566 -1331 1297 -1286 
Q 1028 -1241 775 -1147 
L 775 -588 
Q 1028 -725 1275 -790 
Q 1522 -856 1778 -856 
Q 2344 -856 2625 -561 
Q 2906 -266 2906 331 
L 2906 616 
Q 2728 306 2450 153 
Q 2172 0 1784 0 
Q 1141 0 747 490 
Q 353 981 353 1791 
Q 353 2603 747 3093 
Q 1141 3584 1784 3584 
Q 2172 3584 2450 3431 
Q 2728 3278 2906 2969 
L 2906 3500 
L 3481 3500 
L 3481 434 
z
" transform="scale(0.015625)"/>
       <path id="DejaVuSans-22" d="M 1147 4666 
L 1147 2931 
L 616 2931 
L 616 4666 
L 1147 4666 
z
M 2328 4666 
L 2328 2931 
L 1797 2931 
L 1797 4666 
L 2328 4666 
z
" transform="scale(0.015625)"/>
       <path id="DejaVuSans-61" d="M 2194 1759 
Q 1497 1759 1228 1600 
Q 959 1441 959 1056 
Q 959 750 1161 570 
Q 1363 391 1709 391 
Q 2188 391 2477 730 
Q 2766 1069 2766 1631 
L 2766 1759 
L 2194 1759 
z
M 3341 1997 
L 3341 0 
L 2766 0 
L 2766 531 
Q 2569 213 2275 61 
Q 1981 -91 1556 -91 
Q 1019 -91 701 211 
Q 384 513 384 1019 
Q 384 1609 779 1909 
Q 1175 2209 1959 2209 
L 2766 2209 
L 2766 2266 
Q 2766 2663 2505 2880 
Q 2244 3097 1772 3097 
Q 1472 3097 1187 3025 
Q 903 2953 641 2809 
L 641 3341 
Q 956 3463 1253 3523 
Q 1550 3584 1831 3584 
Q 2591 3584 2966 3190 
Q 3341 2797 3341 1997 
z
" transform="scale(0.015625)"/>
       <path id="DejaVuSans-6d" d="M 3328 2828 
Q 3544 3216 3844 3400 
Q 4144 3584 4550 3584 
Q 5097 3584 5394 3201 
Q 5691 2819 5691 2113 
L 5691 0 
L 5113 0 
L 5113 2094 
Q 5113 2597 4934 2840 
Q 4756 3084 4391 3084 
Q 3944 3084 3684 2787 
Q 3425 2491 3425 1978 
L 3425 0 
L 2847 0 
L 2847 2094 
Q 2847 2600 2669 2842 
Q 2491 3084 2119 3084 
Q 1678 3084 1418 2786 
Q 1159 2488 1159 1978 
L 1159 0 
L 581 0 
L 581 3500 
L 1159 3500 
L 1159 2956 
Q 1356 3278 1631 3431 
Q 1906 3584 2284 3584 
Q 2666 3584 2933 3390 
Q 3200 3197 3328 2828 
z
" transform="scale(0.015625)"/>
       <path id="DejaVuSans-48" d="M 628 4666 
L 1259 4666 
L 1259 2753 
L 3553 2753 
L 3553 4666 
L 4184 4666 
L 4184 0 
L 3553 0 
L 3553 2222 
L 1259 2222 
L 1259 0 
L 628 0 
L 628 4666 
z
" transform="scale(0.015625)"/>
       <path id="DejaVuSans-29" d="M 513 4856 
L 1013 4856 
Q 1481 4119 1714 3412 
Q 1947 2706 1947 2009 
Q 1947 1309 1714 600 
Q 1481 -109 1013 -844 
L 513 -844 
Q 928 -128 1133 580 
Q 1338 1288 1338 2009 
Q 1338 2731 1133 3434 
Q 928 4138 513 4856 
z
" transform="scale(0.015625)"/>
      </defs>
      <use xlink:href="#DejaVuSans-28"/>
      <use xlink:href="#DejaVuSans-55" x="39.013672"/>
      <use xlink:href="#DejaVuSans-73" x="112.207031"/>
      <use xlink:href="#DejaVuSans-69" x="164.306641"/>
      <use xlink:href="#DejaVuSans-6e" x="192.089844"/>
      <use xlink:href="#DejaVuSans-67" x="255.46875"/>
      <use xlink:href="#DejaVuSans-20" x="318.945312"/>
      <use xlink:href="#DejaVuSans-22" x="350.732422"/>
      <use xlink:href="#DejaVuSans-72" x="396.728516"/>
      <use xlink:href="#DejaVuSans-61" x="437.841797"/>
      <use xlink:href="#DejaVuSans-6e" x="499.121094"/>
      <use xlink:href="#DejaVuSans-64" x="562.5"/>
      <use xlink:href="#DejaVuSans-6f" x="625.976562"/>
      <use xlink:href="#DejaVuSans-6d" x="687.158203"/>
      <use xlink:href="#DejaVuSans-22" x="784.570312"/>
      <use xlink:href="#DejaVuSans-20" x="830.566406"/>
      <use xlink:href="#DejaVuSans-54" x="862.353516"/>
      <use xlink:href="#DejaVuSans-68" x="923.4375"/>
      <use xlink:href="#DejaVuSans-72" x="986.816406"/>
      <use xlink:href="#DejaVuSans-65" x="1025.679688"/>
      <use xlink:href="#DejaVuSans-73" x="1087.203125"/>
      <use xlink:href="#DejaVuSans-68" x="1139.302734"/>
      <use xlink:href="#DejaVuSans-6f" x="1202.681641"/>
      <use xlink:href="#DejaVuSans-6c" x="1263.863281"/>
      <use xlink:href="#DejaVuSans-64" x="1291.646484"/>
      <use xlink:href="#DejaVuSans-20" x="1355.123047"/>
      <use xlink:href="#DejaVuSans-48" x="1386.910156"/>
      <use xlink:href="#DejaVuSans-61" x="1462.105469"/>
      <use xlink:href="#DejaVuSans-6e" x="1523.384766"/>
      <use xlink:href="#DejaVuSans-64" x="1586.763672"/>
      <use xlink:href="#DejaVuSans-6c" x="1650.240234"/>
      <use xlink:href="#DejaVuSans-69" x="1678.023438"/>
      <use xlink:href="#DejaVuSans-6e" x="1705.806641"/>
      <use xlink:href="#DejaVuSans-67" x="1769.185547"/>
      <use xlink:href="#DejaVuSans-29" x="1832.662109"/>
     </g>
    </g>
   </g>
   <g id="matplotlib.axis_2">
    <g id="ytick_1">
     <g id="line2d_6">
      <defs>
       <path id="md940e8907b" d="M 0 0 
L -3.5 0 
" style="stroke: #000000; stroke-width: 0.8"/>
      </defs>
      <g>
       <use xlink:href="#md940e8907b" x="80.21" y="465.600781" style="stroke: #000000; stroke-width: 0.8"/>
      </g>
     </g>
     <g id="text_7">
      <!-- 70 -->
      <g transform="translate(47.76 473.199218) scale(0.2 -0.2)">
       <defs>
        <path id="DejaVuSans-37" d="M 525 4666 
L 3525 4666 
L 3525 4397 
L 1831 0 
L 1172 0 
L 2766 4134 
L 525 4134 
L 525 4666 
z
" transform="scale(0.015625)"/>
       </defs>
       <use xlink:href="#DejaVuSans-37"/>
       <use xlink:href="#DejaVuSans-30" x="63.623047"/>
      </g>
     </g>
    </g>
    <g id="ytick_2">
     <g id="line2d_7">
      <g>
       <use xlink:href="#md940e8907b" x="80.21" y="386.414598" style="stroke: #000000; stroke-width: 0.8"/>
      </g>
     </g>
     <g id="text_8">
      <!-- 80 -->
      <g transform="translate(47.76 394.013036) scale(0.2 -0.2)">
       <use xlink:href="#DejaVuSans-38"/>
       <use xlink:href="#DejaVuSans-30" x="63.623047"/>
      </g>
     </g>
    </g>
    <g id="ytick_3">
     <g id="line2d_8">
      <g>
       <use xlink:href="#md940e8907b" x="80.21" y="307.228416" style="stroke: #000000; stroke-width: 0.8"/>
      </g>
     </g>
     <g id="text_9">
      <!-- 90 -->
      <g transform="translate(47.76 314.826854) scale(0.2 -0.2)">
       <defs>
        <path id="DejaVuSans-39" d="M 703 97 
L 703 672 
Q 941 559 1184 500 
Q 1428 441 1663 441 
Q 2288 441 2617 861 
Q 2947 1281 2994 2138 
Q 2813 1869 2534 1725 
Q 2256 1581 1919 1581 
Q 1219 1581 811 2004 
Q 403 2428 403 3163 
Q 403 3881 828 4315 
Q 1253 4750 1959 4750 
Q 2769 4750 3195 4129 
Q 3622 3509 3622 2328 
Q 3622 1225 3098 567 
Q 2575 -91 1691 -91 
Q 1453 -91 1209 -44 
Q 966 3 703 97 
z
M 1959 2075 
Q 2384 2075 2632 2365 
Q 2881 2656 2881 3163 
Q 2881 3666 2632 3958 
Q 2384 4250 1959 4250 
Q 1534 4250 1286 3958 
Q 1038 3666 1038 3163 
Q 1038 2656 1286 2365 
Q 1534 2075 1959 2075 
z
" transform="scale(0.015625)"/>
       </defs>
       <use xlink:href="#DejaVuSans-39"/>
       <use xlink:href="#DejaVuSans-30" x="63.623047"/>
      </g>
     </g>
    </g>
    <g id="ytick_4">
     <g id="line2d_9">
      <g>
       <use xlink:href="#md940e8907b" x="80.21" y="228.042234" style="stroke: #000000; stroke-width: 0.8"/>
      </g>
     </g>
     <g id="text_10">
      <!-- 100 -->
      <g transform="translate(35.035 235.640671) scale(0.2 -0.2)">
       <defs>
        <path id="DejaVuSans-31" d="M 794 531 
L 1825 531 
L 1825 4091 
L 703 3866 
L 703 4441 
L 1819 4666 
L 2450 4666 
L 2450 531 
L 3481 531 
L 3481 0 
L 794 0 
L 794 531 
z
" transform="scale(0.015625)"/>
       </defs>
       <use xlink:href="#DejaVuSans-31"/>
       <use xlink:href="#DejaVuSans-30" x="63.623047"/>
       <use xlink:href="#DejaVuSans-30" x="127.246094"/>
      </g>
     </g>
    </g>
    <g id="ytick_5">
     <g id="line2d_10">
      <g>
       <use xlink:href="#md940e8907b" x="80.21" y="148.856051" style="stroke: #000000; stroke-width: 0.8"/>
      </g>
     </g>
     <g id="text_11">
      <!-- 110 -->
      <g transform="translate(35.035 156.454489) scale(0.2 -0.2)">
       <use xlink:href="#DejaVuSans-31"/>
       <use xlink:href="#DejaVuSans-31" x="63.623047"/>
       <use xlink:href="#DejaVuSans-30" x="127.246094"/>
      </g>
     </g>
    </g>
    <g id="ytick_6">
     <g id="line2d_11">
      <g>
       <use xlink:href="#md940e8907b" x="80.21" y="69.669869" style="stroke: #000000; stroke-width: 0.8"/>
      </g>
     </g>
     <g id="text_12">
      <!-- 120 -->
      <g transform="translate(35.035 77.268307) scale(0.2 -0.2)">
       <use xlink:href="#DejaVuSans-31"/>
       <use xlink:href="#DejaVuSans-32" x="63.623047"/>
       <use xlink:href="#DejaVuSans-30" x="127.246094"/>
      </g>
     </g>
    </g>
    <g id="text_13">
     <!-- MSE -->
     <g transform="translate(26.875625 271.971313) rotate(-90) scale(0.2 -0.2)">
      <defs>
       <path id="DejaVuSans-4d" d="M 628 4666 
L 1569 4666 
L 2759 1491 
L 3956 4666 
L 4897 4666 
L 4897 0 
L 4281 0 
L 4281 4097 
L 3078 897 
L 2444 897 
L 1241 4097 
L 1241 0 
L 628 0 
L 628 4666 
z
" transform="scale(0.015625)"/>
       <path id="DejaVuSans-53" d="M 3425 4513 
L 3425 3897 
Q 3066 4069 2747 4153 
Q 2428 4238 2131 4238 
Q 1616 4238 1336 4038 
Q 1056 3838 1056 3469 
Q 1056 3159 1242 3001 
Q 1428 2844 1947 2747 
L 2328 2669 
Q 3034 2534 3370 2195 
Q 3706 1856 3706 1288 
Q 3706 609 3251 259 
Q 2797 -91 1919 -91 
Q 1588 -91 1214 -16 
Q 841 59 441 206 
L 441 856 
Q 825 641 1194 531 
Q 1563 422 1919 422 
Q 2459 422 2753 634 
Q 3047 847 3047 1241 
Q 3047 1584 2836 1778 
Q 2625 1972 2144 2069 
L 1759 2144 
Q 1053 2284 737 2584 
Q 422 2884 422 3419 
Q 422 4038 858 4394 
Q 1294 4750 2059 4750 
Q 2388 4750 2728 4690 
Q 3069 4631 3425 4513 
z
" transform="scale(0.015625)"/>
       <path id="DejaVuSans-45" d="M 628 4666 
L 3578 4666 
L 3578 4134 
L 1259 4134 
L 1259 2753 
L 3481 2753 
L 3481 2222 
L 1259 2222 
L 1259 531 
L 3634 531 
L 3634 0 
L 628 0 
L 628 4666 
z
" transform="scale(0.015625)"/>
      </defs>
      <use xlink:href="#DejaVuSans-4d"/>
      <use xlink:href="#DejaVuSans-53" x="86.279297"/>
      <use xlink:href="#DejaVuSans-45" x="149.755859"/>
     </g>
    </g>
   </g>
   <g id="line2d_12">
    <path d="M 128.436818 268.366994 
L 148.958868 282.479187 
L 169.480919 319.489183 
L 190.002969 277.709267 
L 210.525019 285.597362 
L 231.04707 308.281636 
L 251.56912 282.940519 
L 272.09117 304.932953 
L 292.613221 330.981505 
L 313.135271 282.001274 
L 333.657321 283.957926 
L 354.179371 303.595322 
L 374.701422 256.506869 
L 395.223472 296.815734 
L 415.745522 268.94436 
L 436.267573 313.444603 
L 456.789623 288.81935 
L 477.311673 279.588325 
L 497.833723 286.392373 
L 518.355774 283.018112 
L 538.877824 272.793669 
L 559.399874 261.380432 
L 579.921925 222.419081 
L 600.443975 259.913779 
L 620.966025 264.691245 
L 641.488075 270.822894 
L 662.010126 218.487048 
L 682.532176 331.706323 
L 703.054226 262.019239 
L 723.576277 296.926391 
L 744.098327 291.470778 
L 764.620377 288.746114 
L 785.142427 220.330688 
L 805.664478 283.360628 
L 826.186528 246.867463 
L 846.708578 245.931218 
L 867.230629 273.58535 
L 887.752679 231.726311 
L 908.274729 278.324913 
L 928.796779 247.672183 
L 949.31883 291.67059 
L 969.84088 263.175288 
L 990.36293 276.904232 
L 1010.884981 226.754245 
L 1031.407031 247.328719 
L 1051.929081 249.576439 
L 1072.451132 226.669756 
L 1092.973182 222.742995 
" clip-path="url(#pb7c68290dc)" style="fill: none; stroke: #1f77b4; stroke-width: 1.5; stroke-linecap: square"/>
   </g>
   <g id="line2d_13">
    <path d="M 128.436818 335.508188 
L 148.958868 399.70787 
L 169.480919 417.738239 
L 190.002969 376.392816 
L 210.525019 436.951307 
L 231.04707 412.245957 
L 251.56912 399.618166 
L 272.09117 406.440372 
L 292.613221 382.40494 
L 313.135271 391.06607 
L 333.657321 394.877522 
L 354.179371 409.623725 
L 374.701422 400.062436 
L 395.223472 394.971531 
L 415.745522 390.399041 
L 436.267573 420.955825 
L 456.789623 407.902142 
L 477.311673 393.595504 
L 497.833723 402.582614 
L 518.355774 398.460192 
L 538.877824 377.747296 
L 559.399874 387.746346 
L 579.921925 354.138554 
L 600.443975 391.890077 
L 620.966025 409.146651 
L 641.488075 383.268545 
L 662.010126 329.080212 
L 682.532176 375.887005 
L 703.054226 379.045977 
L 723.576277 365.102352 
L 744.098327 398.232948 
L 764.620377 397.496124 
L 785.142427 376.199317 
L 805.664478 399.128012 
L 826.186528 385.244078 
L 846.708578 342.120756 
L 867.230629 384.234423 
L 887.752679 360.300279 
L 908.274729 366.382146 
L 928.796779 354.062563 
L 949.31883 387.181651 
L 969.84088 389.16172 
L 990.36293 400.912904 
L 1010.884981 379.274516 
L 1031.407031 381.559652 
L 1051.929081 387.098933 
L 1072.451132 365.251118 
L 1092.973182 367.295895 
" clip-path="url(#pb7c68290dc)" style="fill: none; stroke: #ff7f0e; stroke-width: 1.5; stroke-linecap: square"/>
   </g>
   <g id="line2d_14">
    <path d="M 128.436818 281.599178 
L 148.958868 369.89209 
L 169.480919 361.593956 
L 190.002969 387.511086 
L 210.525019 418.743323 
L 231.04707 382.637031 
L 251.56912 377.36478 
L 272.09117 365.685878 
L 292.613221 337.394675 
L 313.135271 361.12946 
L 333.657321 330.881559 
L 354.179371 386.043622 
L 374.701422 348.063423 
L 395.223472 358.426139 
L 415.745522 356.08859 
L 436.267573 361.626139 
L 456.789623 365.183058 
L 477.311673 385.418269 
L 497.833723 358.446 
L 518.355774 351.336896 
L 538.877824 302.036747 
L 559.399874 344.377427 
L 579.921925 333.434399 
L 600.443975 344.057585 
L 620.966025 339.688082 
L 641.488075 352.189285 
L 662.010126 276.58858 
L 682.532176 334.695167 
L 703.054226 323.054578 
L 723.576277 332.385597 
L 744.098327 356.575619 
L 764.620377 337.690879 
L 785.142427 346.259795 
L 805.664478 382.517102 
L 826.186528 325.697727 
L 846.708578 287.731688 
L 867.230629 347.703296 
L 887.752679 302.459445 
L 908.274729 347.678919 
L 928.796779 280.035095 
L 949.31883 354.94905 
L 969.84088 325.367768 
L 990.36293 331.610023 
L 1010.884981 308.200991 
L 1031.407031 333.880849 
L 1051.929081 334.897312 
L 1072.451132 328.280518 
L 1092.973182 323.233361 
" clip-path="url(#pb7c68290dc)" style="fill: none; stroke: #2ca02c; stroke-width: 1.5; stroke-linecap: square"/>
   </g>
   <g id="line2d_15">
    <path d="M 128.436818 87.00986 
L 148.958868 149.630717 
L 169.480919 154.039044 
L 190.002969 135.765347 
L 210.525019 141.79322 
L 231.04707 171.838927 
L 251.56912 144.14545 
L 272.09117 135.048132 
L 292.613221 160.811485 
L 313.135271 153.810986 
L 333.657321 99.00261 
L 354.179371 141.87898 
L 374.701422 138.884513 
L 395.223472 144.736425 
L 415.745522 162.500385 
L 436.267573 135.583077 
L 456.789623 130.297286 
L 477.311673 134.136578 
L 497.833723 146.501193 
L 518.355774 107.628514 
L 538.877824 93.258332 
L 559.399874 110.984278 
L 579.921925 108.351793 
L 600.443975 122.474138 
L 620.966025 125.004528 
L 641.488075 145.549313 
L 662.010126 131.88221 
L 682.532176 115.838218 
L 703.054226 137.702856 
L 723.576277 110.204111 
L 744.098327 74.935948 
L 764.620377 109.158849 
L 785.142427 142.310894 
L 805.664478 153.694252 
L 826.186528 134.325088 
L 846.708578 111.122634 
L 867.230629 113.706363 
L 887.752679 150.50499 
L 908.274729 169.836165 
L 928.796779 133.278929 
L 949.31883 100.04274 
L 969.84088 125.210658 
L 990.36293 149.279765 
L 1010.884981 133.481852 
L 1031.407031 115.156198 
L 1051.929081 85.031344 
L 1072.451132 115.29283 
L 1092.973182 122.32704 
" clip-path="url(#pb7c68290dc)" style="fill: none; stroke: #d62728; stroke-width: 1.5; stroke-linecap: square"/>
   </g>
   <g id="line2d_16"/>
   <g id="line2d_17"/>
   <g id="line2d_18"/>
   <g id="line2d_19"/>
   <g id="patch_3">
    <path d="M 80.21 490.552 
L 80.21 10.8 
" style="fill: none; stroke: #000000; stroke-width: 0.8; stroke-linejoin: miter; stroke-linecap: square"/>
   </g>
   <g id="patch_4">
    <path d="M 1141.2 490.552 
L 1141.2 10.8 
" style="fill: none; stroke: #000000; stroke-width: 0.8; stroke-linejoin: miter; stroke-linecap: square"/>
   </g>
   <g id="patch_5">
    <path d="M 80.21 490.552 
L 1141.2 490.552 
" style="fill: none; stroke: #000000; stroke-width: 0.8; stroke-linejoin: miter; stroke-linecap: square"/>
   </g>
   <g id="patch_6">
    <path d="M 80.21 10.8 
L 1141.2 10.8 
" style="fill: none; stroke: #000000; stroke-width: 0.8; stroke-linejoin: miter; stroke-linecap: square"/>
   </g>
   <g id="legend_1">
    <g id="patch_7">
     <path d="M 91.41 482.552 
L 261.155 482.552 
Q 264.355 482.552 264.355 479.352 
L 264.355 387.012 
Q 264.355 383.812 261.155 383.812 
L 91.41 383.812 
Q 88.21 383.812 88.21 387.012 
L 88.21 479.352 
Q 88.21 482.552 91.41 482.552 
z
" style="fill: #ffffff; opacity: 0.8; stroke: #cccccc; stroke-linejoin: miter"/>
    </g>
    <g id="line2d_20">
     <path d="M 94.61 396.7695 
L 110.61 396.7695 
L 126.61 396.7695 
" style="fill: none; stroke: #1f77b4; stroke-width: 1.5; stroke-linecap: square"/>
    </g>
    <g id="text_14">
     <!-- rf -->
     <g transform="translate(139.41 402.3695) scale(0.16 -0.16)">
      <defs>
       <path id="DejaVuSans-66" d="M 2375 4863 
L 2375 4384 
L 1825 4384 
Q 1516 4384 1395 4259 
Q 1275 4134 1275 3809 
L 1275 3500 
L 2222 3500 
L 2222 3053 
L 1275 3053 
L 1275 0 
L 697 0 
L 697 3053 
L 147 3053 
L 147 3500 
L 697 3500 
L 697 3744 
Q 697 4328 969 4595 
Q 1241 4863 1831 4863 
L 2375 4863 
z
" transform="scale(0.015625)"/>
      </defs>
      <use xlink:href="#DejaVuSans-72"/>
      <use xlink:href="#DejaVuSans-66" x="41.113281"/>
     </g>
    </g>
    <g id="line2d_21">
     <path d="M 94.61 420.2545 
L 110.61 420.2545 
L 126.61 420.2545 
" style="fill: none; stroke: #ff7f0e; stroke-width: 1.5; stroke-linecap: square"/>
    </g>
    <g id="text_15">
     <!-- xgb -->
     <g transform="translate(139.41 425.8545) scale(0.16 -0.16)">
      <defs>
       <path id="DejaVuSans-78" d="M 3513 3500 
L 2247 1797 
L 3578 0 
L 2900 0 
L 1881 1375 
L 863 0 
L 184 0 
L 1544 1831 
L 300 3500 
L 978 3500 
L 1906 2253 
L 2834 3500 
L 3513 3500 
z
" transform="scale(0.015625)"/>
       <path id="DejaVuSans-62" d="M 3116 1747 
Q 3116 2381 2855 2742 
Q 2594 3103 2138 3103 
Q 1681 3103 1420 2742 
Q 1159 2381 1159 1747 
Q 1159 1113 1420 752 
Q 1681 391 2138 391 
Q 2594 391 2855 752 
Q 3116 1113 3116 1747 
z
M 1159 2969 
Q 1341 3281 1617 3432 
Q 1894 3584 2278 3584 
Q 2916 3584 3314 3078 
Q 3713 2572 3713 1747 
Q 3713 922 3314 415 
Q 2916 -91 2278 -91 
Q 1894 -91 1617 61 
Q 1341 213 1159 525 
L 1159 0 
L 581 0 
L 581 4863 
L 1159 4863 
L 1159 2969 
z
" transform="scale(0.015625)"/>
      </defs>
      <use xlink:href="#DejaVuSans-78"/>
      <use xlink:href="#DejaVuSans-67" x="59.179688"/>
      <use xlink:href="#DejaVuSans-62" x="122.65625"/>
     </g>
    </g>
    <g id="line2d_22">
     <path d="M 94.61 443.7395 
L 110.61 443.7395 
L 126.61 443.7395 
" style="fill: none; stroke: #2ca02c; stroke-width: 1.5; stroke-linecap: square"/>
    </g>
    <g id="text_16">
     <!-- gbr -->
     <g transform="translate(139.41 449.3395) scale(0.16 -0.16)">
      <use xlink:href="#DejaVuSans-67"/>
      <use xlink:href="#DejaVuSans-62" x="63.476562"/>
      <use xlink:href="#DejaVuSans-72" x="126.953125"/>
     </g>
    </g>
    <g id="line2d_23">
     <path d="M 94.61 467.2245 
L 110.61 467.2245 
L 126.61 467.2245 
" style="fill: none; stroke: #d62728; stroke-width: 1.5; stroke-linecap: square"/>
    </g>
    <g id="text_17">
     <!-- BayesianRidge -->
     <g transform="translate(139.41 472.8245) scale(0.16 -0.16)">
      <defs>
       <path id="DejaVuSans-42" d="M 1259 2228 
L 1259 519 
L 2272 519 
Q 2781 519 3026 730 
Q 3272 941 3272 1375 
Q 3272 1813 3026 2020 
Q 2781 2228 2272 2228 
L 1259 2228 
z
M 1259 4147 
L 1259 2741 
L 2194 2741 
Q 2656 2741 2882 2914 
Q 3109 3088 3109 3444 
Q 3109 3797 2882 3972 
Q 2656 4147 2194 4147 
L 1259 4147 
z
M 628 4666 
L 2241 4666 
Q 2963 4666 3353 4366 
Q 3744 4066 3744 3513 
Q 3744 3084 3544 2831 
Q 3344 2578 2956 2516 
Q 3422 2416 3680 2098 
Q 3938 1781 3938 1306 
Q 3938 681 3513 340 
Q 3088 0 2303 0 
L 628 0 
L 628 4666 
z
" transform="scale(0.015625)"/>
       <path id="DejaVuSans-79" d="M 2059 -325 
Q 1816 -950 1584 -1140 
Q 1353 -1331 966 -1331 
L 506 -1331 
L 506 -850 
L 844 -850 
Q 1081 -850 1212 -737 
Q 1344 -625 1503 -206 
L 1606 56 
L 191 3500 
L 800 3500 
L 1894 763 
L 2988 3500 
L 3597 3500 
L 2059 -325 
z
" transform="scale(0.015625)"/>
       <path id="DejaVuSans-52" d="M 2841 2188 
Q 3044 2119 3236 1894 
Q 3428 1669 3622 1275 
L 4263 0 
L 3584 0 
L 2988 1197 
Q 2756 1666 2539 1819 
Q 2322 1972 1947 1972 
L 1259 1972 
L 1259 0 
L 628 0 
L 628 4666 
L 2053 4666 
Q 2853 4666 3247 4331 
Q 3641 3997 3641 3322 
Q 3641 2881 3436 2590 
Q 3231 2300 2841 2188 
z
M 1259 4147 
L 1259 2491 
L 2053 2491 
Q 2509 2491 2742 2702 
Q 2975 2913 2975 3322 
Q 2975 3731 2742 3939 
Q 2509 4147 2053 4147 
L 1259 4147 
z
" transform="scale(0.015625)"/>
      </defs>
      <use xlink:href="#DejaVuSans-42"/>
      <use xlink:href="#DejaVuSans-61" x="68.603516"/>
      <use xlink:href="#DejaVuSans-79" x="129.882812"/>
      <use xlink:href="#DejaVuSans-65" x="189.0625"/>
      <use xlink:href="#DejaVuSans-73" x="250.585938"/>
      <use xlink:href="#DejaVuSans-69" x="302.685547"/>
      <use xlink:href="#DejaVuSans-61" x="330.46875"/>
      <use xlink:href="#DejaVuSans-6e" x="391.748047"/>
      <use xlink:href="#DejaVuSans-52" x="455.126953"/>
      <use xlink:href="#DejaVuSans-69" x="524.609375"/>
      <use xlink:href="#DejaVuSans-64" x="552.392578"/>
      <use xlink:href="#DejaVuSans-67" x="615.869141"/>
      <use xlink:href="#DejaVuSans-65" x="679.345703"/>
     </g>
    </g>
   </g>
  </g>
 </g>
 <defs>
  <clipPath id="pb7c68290dc">
   <rect x="80.21" y="10.8" width="1060.99" height="479.752"/>
  </clipPath>
 </defs>
</svg>
