<?xml version="1.0" encoding="utf-8" standalone="no"?>
<!DOCTYPE svg PUBLIC "-//W3C//DTD SVG 1.1//EN"
  "http://www.w3.org/Graphics/SVG/1.1/DTD/svg11.dtd">
<svg xmlns:xlink="http://www.w3.org/1999/xlink" width="1152pt" height="576pt" viewBox="0 0 1152 576" xmlns="http://www.w3.org/2000/svg" version="1.1">
 <metadata>
  <rdf:RDF xmlns:dc="http://purl.org/dc/elements/1.1/" xmlns:cc="http://creativecommons.org/ns#" xmlns:rdf="http://www.w3.org/1999/02/22-rdf-syntax-ns#">
   <cc:Work>
    <dc:type rdf:resource="http://purl.org/dc/dcmitype/StillImage"/>
    <dc:date>2025-03-19T22:49:34.625636</dc:date>
    <dc:format>image/svg+xml</dc:format>
    <dc:creator>
     <cc:Agent>
      <dc:title>Matplotlib v3.9.2, https://matplotlib.org/</dc:title>
     </cc:Agent>
    </dc:creator>
   </cc:Work>
  </rdf:RDF>
 </metadata>
 <defs>
  <style type="text/css">*{stroke-linejoin: round; stroke-linecap: butt}</style>
 </defs>
 <g id="figure_1">
  <g id="patch_1">
   <path d="M 0 576 
L 1152 576 
L 1152 0 
L 0 0 
z
" style="fill: #ffffff"/>
  </g>
  <g id="axes_1">
   <g id="patch_2">
    <path d="M 92.99 490.552 
L 1141.2 490.552 
L 1141.2 17.468042 
L 92.99 17.468042 
z
" style="fill: #ffffff"/>
   </g>
   <g id="PolyCollection_1">
    <defs>
     <path id="m7ba77a259c" d="M 140.635909 -112.22877 
L 140.635909 -109.990143 
L 160.910764 -110.341671 
L 181.185619 -109.992944 
L 201.460474 -110.370827 
L 221.735329 -113.164405 
L 242.010184 -112.390765 
L 262.285039 -113.093383 
L 282.559894 -113.583596 
L 302.834749 -112.858655 
L 323.109603 -114.041131 
L 343.384458 -117.235079 
L 363.659313 -116.606562 
L 383.934168 -118.495341 
L 404.209023 -120.413228 
L 424.483878 -119.997558 
L 444.758733 -121.742102 
L 465.033588 -121.076839 
L 485.308443 -122.630693 
L 505.583298 -123.926047 
L 525.858153 -126.770052 
L 546.133008 -129.081095 
L 566.407863 -129.274865 
L 586.682718 -130.410264 
L 606.957573 -128.067898 
L 627.232427 -134.6889 
L 647.507282 -133.477442 
L 667.782137 -133.028694 
L 688.056992 -133.786667 
L 708.331847 -134.052975 
L 728.606702 -134.604838 
L 748.881557 -133.791597 
L 769.156412 -137.007467 
L 789.431267 -137.714456 
L 809.706122 -139.620965 
L 829.980977 -136.95423 
L 850.255832 -146.463167 
L 870.530687 -149.200496 
L 890.805542 -162.607763 
L 911.080397 -162.05377 
L 931.355251 -158.678117 
L 951.630106 -155.405918 
L 971.904961 -166.721076 
L 992.179816 -166.111225 
L 1012.454671 -169.143524 
L 1032.729526 -182.158595 
L 1053.004381 -189.455895 
L 1073.279236 -239.567335 
L 1093.554091 -244.204173 
L 1093.554091 -519.808904 
L 1093.554091 -519.808904 
L 1073.279236 -378.653782 
L 1053.004381 -324.259965 
L 1032.729526 -314.342476 
L 1012.454671 -312.273891 
L 992.179816 -312.040477 
L 971.904961 -310.838294 
L 951.630106 -298.777002 
L 931.355251 -210.578558 
L 911.080397 -212.385237 
L 890.805542 -191.728954 
L 870.530687 -192.339015 
L 850.255832 -214.596686 
L 829.980977 -208.689105 
L 809.706122 -210.192567 
L 789.431267 -181.887908 
L 769.156412 -183.269703 
L 748.881557 -179.715748 
L 728.606702 -179.573805 
L 708.331847 -179.812521 
L 688.056992 -179.2791 
L 667.782137 -190.204115 
L 647.507282 -190.240556 
L 627.232427 -188.173059 
L 606.957573 -181.125514 
L 586.682718 -156.677143 
L 566.407863 -148.914739 
L 546.133008 -169.46547 
L 525.858153 -141.666505 
L 505.583298 -137.807507 
L 485.308443 -131.105318 
L 465.033588 -129.856229 
L 444.758733 -128.11362 
L 424.483878 -126.837142 
L 404.209023 -130.722616 
L 383.934168 -125.888607 
L 363.659313 -125.9388 
L 343.384458 -126.084097 
L 323.109603 -123.838412 
L 302.834749 -120.322196 
L 282.559894 -115.417538 
L 262.285039 -116.335353 
L 242.010184 -114.782262 
L 221.735329 -114.736147 
L 201.460474 -112.031289 
L 181.185619 -111.06814 
L 160.910764 -111.622849 
L 140.635909 -112.22877 
z
" style="stroke: #1f77b4; stroke-opacity: 0.2"/>
    </defs>
    <g clip-path="url(#p5d69722b3d)">
     <use xlink:href="#m7ba77a259c" x="0" y="576" style="fill: #1f77b4; fill-opacity: 0.2; stroke: #1f77b4; stroke-opacity: 0.2"/>
    </g>
   </g>
   <g id="PolyCollection_2">
    <defs>
     <path id="m0638bce6fe" d="M 140.635909 -110.369424 
L 140.635909 -108.221878 
L 160.910764 -107.433338 
L 181.185619 -106.951816 
L 201.460474 -107.532616 
L 221.735329 -109.033831 
L 242.010184 -109.088517 
L 262.285039 -109.054874 
L 282.559894 -109.463303 
L 302.834749 -111.164498 
L 323.109603 -111.3366 
L 343.384458 -114.085811 
L 363.659313 -112.558332 
L 383.934168 -114.581419 
L 404.209023 -115.644284 
L 424.483878 -114.81851 
L 444.758733 -117.168368 
L 465.033588 -118.469524 
L 485.308443 -118.1165 
L 505.583298 -118.779789 
L 525.858153 -118.876092 
L 546.133008 -121.324913 
L 566.407863 -123.177231 
L 586.682718 -123.599773 
L 606.957573 -123.251977 
L 627.232427 -130.769819 
L 647.507282 -129.092674 
L 667.782137 -129.312744 
L 688.056992 -129.905485 
L 708.331847 -129.625481 
L 728.606702 -129.675374 
L 748.881557 -130.885497 
L 769.156412 -132.205724 
L 789.431267 -131.460263 
L 809.706122 -133.203351 
L 829.980977 -133.792963 
L 850.255832 -143.56443 
L 870.530687 -146.019386 
L 890.805542 -150.932747 
L 911.080397 -151.037345 
L 931.355251 -149.175599 
L 951.630106 -149.00386 
L 971.904961 -158.076643 
L 992.179816 -159.499609 
L 1012.454671 -161.008836 
L 1032.729526 -166.289372 
L 1053.004381 -169.203425 
L 1073.279236 -193.272807 
L 1093.554091 -197.860669 
L 1093.554091 -537.028142 
L 1093.554091 -537.028142 
L 1073.279236 -320.723555 
L 1053.004381 -295.417333 
L 1032.729526 -290.247346 
L 1012.454671 -288.802451 
L 992.179816 -289.142002 
L 971.904961 -292.835949 
L 951.630106 -278.389591 
L 931.355251 -212.746325 
L 911.080397 -212.373688 
L 890.805542 -185.703667 
L 870.530687 -185.244814 
L 850.255832 -208.310306 
L 829.980977 -204.236371 
L 809.706122 -202.171271 
L 789.431267 -151.3157 
L 769.156412 -154.027005 
L 748.881557 -151.023162 
L 728.606702 -150.915307 
L 708.331847 -151.136486 
L 688.056992 -151.020021 
L 667.782137 -161.374106 
L 647.507282 -162.645398 
L 627.232427 -159.950319 
L 606.957573 -153.831308 
L 586.682718 -151.4028 
L 566.407863 -136.815533 
L 546.133008 -142.880154 
L 525.858153 -137.180002 
L 505.583298 -130.136928 
L 485.308443 -126.618281 
L 465.033588 -123.693994 
L 444.758733 -125.337422 
L 424.483878 -125.637996 
L 404.209023 -130.442988 
L 383.934168 -121.949534 
L 363.659313 -121.84547 
L 343.384458 -123.877926 
L 323.109603 -121.366712 
L 302.834749 -119.11019 
L 282.559894 -114.820481 
L 262.285039 -114.29915 
L 242.010184 -112.890534 
L 221.735329 -113.314299 
L 201.460474 -109.74886 
L 181.185619 -109.362135 
L 160.910764 -108.909458 
L 140.635909 -110.369424 
z
" style="stroke: #ff7f0e; stroke-opacity: 0.2"/>
    </defs>
    <g clip-path="url(#p5d69722b3d)">
     <use xlink:href="#m0638bce6fe" x="0" y="576" style="fill: #ff7f0e; fill-opacity: 0.2; stroke: #ff7f0e; stroke-opacity: 0.2"/>
    </g>
   </g>
   <g id="PolyCollection_3">
    <defs>
     <path id="m4c157ff93f" d="M 140.635909 -111.353725 
L 140.635909 -109.126909 
L 160.910764 -107.75152 
L 181.185619 -108.211832 
L 201.460474 -108.331249 
L 221.735329 -110.386167 
L 242.010184 -110.606129 
L 262.285039 -110.952057 
L 282.559894 -110.481697 
L 302.834749 -111.125901 
L 323.109603 -112.648571 
L 343.384458 -115.283936 
L 363.659313 -112.574286 
L 383.934168 -115.291147 
L 404.209023 -116.540198 
L 424.483878 -118.772935 
L 444.758733 -119.924363 
L 465.033588 -118.763219 
L 485.308443 -119.356959 
L 505.583298 -120.263816 
L 525.858153 -120.773638 
L 546.133008 -125.646215 
L 566.407863 -125.994394 
L 586.682718 -127.251077 
L 606.957573 -125.391684 
L 627.232427 -132.078528 
L 647.507282 -131.586602 
L 667.782137 -129.789879 
L 688.056992 -131.286997 
L 708.331847 -131.685725 
L 728.606702 -132.797272 
L 748.881557 -129.804403 
L 769.156412 -133.85033 
L 789.431267 -137.102363 
L 809.706122 -137.013218 
L 829.980977 -135.9927 
L 850.255832 -141.849685 
L 870.530687 -145.223293 
L 890.805542 -156.562646 
L 911.080397 -155.998606 
L 931.355251 -152.284957 
L 951.630106 -148.136605 
L 971.904961 -159.952858 
L 992.179816 -160.623756 
L 1012.454671 -160.849411 
L 1032.729526 -171.543434 
L 1053.004381 -180.678795 
L 1073.279236 -219.553048 
L 1093.554091 -226.06304 
L 1093.554091 -507.857565 
L 1093.554091 -507.857565 
L 1073.279236 -326.311908 
L 1053.004381 -281.168516 
L 1032.729526 -282.598216 
L 1012.454671 -274.891607 
L 992.179816 -278.360525 
L 971.904961 -271.923301 
L 951.630106 -266.063598 
L 931.355251 -211.724073 
L 911.080397 -214.024861 
L 890.805542 -187.565536 
L 870.530687 -180.140739 
L 850.255832 -206.84175 
L 829.980977 -208.270502 
L 809.706122 -206.383642 
L 789.431267 -163.521737 
L 769.156412 -162.019559 
L 748.881557 -160.782998 
L 728.606702 -160.603554 
L 708.331847 -160.743979 
L 688.056992 -159.64057 
L 667.782137 -188.161383 
L 647.507282 -189.710182 
L 627.232427 -188.558579 
L 606.957573 -178.695092 
L 586.682718 -180.069237 
L 566.407863 -139.134257 
L 546.133008 -163.907287 
L 525.858153 -137.466127 
L 505.583298 -131.847857 
L 485.308443 -127.393624 
L 465.033588 -125.811228 
L 444.758733 -126.446631 
L 424.483878 -125.430013 
L 404.209023 -129.180127 
L 383.934168 -120.27249 
L 363.659313 -122.646442 
L 343.384458 -126.031293 
L 323.109603 -121.565643 
L 302.834749 -119.42502 
L 282.559894 -115.587891 
L 262.285039 -114.697735 
L 242.010184 -113.156363 
L 221.735329 -114.011121 
L 201.460474 -110.400875 
L 181.185619 -110.002114 
L 160.910764 -110.27339 
L 140.635909 -111.353725 
z
" style="stroke: #2ca02c; stroke-opacity: 0.2"/>
    </defs>
    <g clip-path="url(#p5d69722b3d)">
     <use xlink:href="#m4c157ff93f" x="0" y="576" style="fill: #2ca02c; fill-opacity: 0.2; stroke: #2ca02c; stroke-opacity: 0.2"/>
    </g>
   </g>
   <g id="PolyCollection_4">
    <defs>
     <path id="m6061caa80b" d="M 140.635909 -116.882411 
L 140.635909 -114.315906 
L 160.910764 -113.511129 
L 181.185619 -113.353705 
L 201.460474 -114.3724 
L 221.735329 -115.549756 
L 242.010184 -115.774101 
L 262.285039 -116.518006 
L 282.559894 -116.928126 
L 302.834749 -119.080026 
L 323.109603 -116.422706 
L 343.384458 -121.606799 
L 363.659313 -120.044178 
L 383.934168 -120.277094 
L 404.209023 -124.114589 
L 424.483878 -125.125468 
L 444.758733 -126.871112 
L 465.033588 -128.033548 
L 485.308443 -128.183904 
L 505.583298 -126.628579 
L 525.858153 -125.206927 
L 546.133008 -124.640774 
L 566.407863 -126.809815 
L 586.682718 -128.447168 
L 606.957573 -128.384026 
L 627.232427 -136.104801 
L 647.507282 -136.119158 
L 667.782137 -136.176518 
L 688.056992 -136.120802 
L 708.331847 -137.380097 
L 728.606702 -136.99666 
L 748.881557 -137.033315 
L 769.156412 -139.930886 
L 789.431267 -137.675256 
L 809.706122 -141.737477 
L 829.980977 -145.47589 
L 850.255832 -151.657654 
L 870.530687 -150.136746 
L 890.805542 -157.448845 
L 911.080397 -156.265593 
L 931.355251 -152.510589 
L 951.630106 -151.339111 
L 971.904961 -151.043954 
L 992.179816 -151.297951 
L 1012.454671 -151.931193 
L 1032.729526 -154.07108 
L 1053.004381 -156.241785 
L 1073.279236 -175.492088 
L 1093.554091 -180.881577 
L 1093.554091 -438.57642 
L 1093.554091 -438.57642 
L 1073.279236 -284.237242 
L 1053.004381 -265.316286 
L 1032.729526 -260.139493 
L 1012.454671 -260.092545 
L 992.179816 -258.046514 
L 971.904961 -257.821799 
L 951.630106 -260.18315 
L 931.355251 -215.501527 
L 911.080397 -221.670366 
L 890.805542 -222.977433 
L 870.530687 -218.407958 
L 850.255832 -197.464863 
L 829.980977 -193.886789 
L 809.706122 -193.942296 
L 789.431267 -186.299385 
L 769.156412 -185.506514 
L 748.881557 -180.034939 
L 728.606702 -180.650999 
L 708.331847 -177.740903 
L 688.056992 -178.299398 
L 667.782137 -171.386826 
L 647.507282 -172.023294 
L 627.232427 -171.900672 
L 606.957573 -161.727759 
L 586.682718 -148.132737 
L 566.407863 -143.68777 
L 546.133008 -148.449101 
L 525.858153 -143.634228 
L 505.583298 -142.523404 
L 485.308443 -138.117154 
L 465.033588 -140.251148 
L 444.758733 -136.54695 
L 424.483878 -138.390022 
L 404.209023 -141.526846 
L 383.934168 -131.170011 
L 363.659313 -132.112743 
L 343.384458 -130.413403 
L 323.109603 -126.846718 
L 302.834749 -127.30659 
L 282.559894 -122.4202 
L 262.285039 -123.213175 
L 242.010184 -119.596032 
L 221.735329 -121.300229 
L 201.460474 -117.701248 
L 181.185619 -116.45918 
L 160.910764 -116.482053 
L 140.635909 -116.882411 
z
" style="stroke: #d62728; stroke-opacity: 0.2"/>
    </defs>
    <g clip-path="url(#p5d69722b3d)">
     <use xlink:href="#m6061caa80b" x="0" y="576" style="fill: #d62728; fill-opacity: 0.2; stroke: #d62728; stroke-opacity: 0.2"/>
    </g>
   </g>
   <g id="matplotlib.axis_1">
    <g id="xtick_1">
     <g id="line2d_1">
      <defs>
       <path id="ma94174249d" d="M 0 0 
L 0 3.5 
" style="stroke: #000000; stroke-width: 0.8"/>
      </defs>
      <g>
       <use xlink:href="#ma94174249d" x="130.498482" y="490.552" style="stroke: #000000; stroke-width: 0.8"/>
      </g>
     </g>
     <g id="text_1">
      <!-- 0 -->
      <g transform="translate(124.135982 512.748875) scale(0.2 -0.2)">
       <defs>
        <path id="DejaVuSans-30" d="M 2034 4250 
Q 1547 4250 1301 3770 
Q 1056 3291 1056 2328 
Q 1056 1369 1301 889 
Q 1547 409 2034 409 
Q 2525 409 2770 889 
Q 3016 1369 3016 2328 
Q 3016 3291 2770 3770 
Q 2525 4250 2034 4250 
z
M 2034 4750 
Q 2819 4750 3233 4129 
Q 3647 3509 3647 2328 
Q 3647 1150 3233 529 
Q 2819 -91 2034 -91 
Q 1250 -91 836 529 
Q 422 1150 422 2328 
Q 422 3509 836 4129 
Q 1250 4750 2034 4750 
z
" transform="scale(0.015625)"/>
       </defs>
       <use xlink:href="#DejaVuSans-30"/>
      </g>
     </g>
    </g>
    <g id="xtick_2">
     <g id="line2d_2">
      <g>
       <use xlink:href="#ma94174249d" x="333.247031" y="490.552" style="stroke: #000000; stroke-width: 0.8"/>
      </g>
     </g>
     <g id="text_2">
      <!-- 20 -->
      <g transform="translate(320.522031 512.748875) scale(0.2 -0.2)">
       <defs>
        <path id="DejaVuSans-32" d="M 1228 531 
L 3431 531 
L 3431 0 
L 469 0 
L 469 531 
Q 828 903 1448 1529 
Q 2069 2156 2228 2338 
Q 2531 2678 2651 2914 
Q 2772 3150 2772 3378 
Q 2772 3750 2511 3984 
Q 2250 4219 1831 4219 
Q 1534 4219 1204 4116 
Q 875 4013 500 3803 
L 500 4441 
Q 881 4594 1212 4672 
Q 1544 4750 1819 4750 
Q 2544 4750 2975 4387 
Q 3406 4025 3406 3419 
Q 3406 3131 3298 2873 
Q 3191 2616 2906 2266 
Q 2828 2175 2409 1742 
Q 1991 1309 1228 531 
z
" transform="scale(0.015625)"/>
       </defs>
       <use xlink:href="#DejaVuSans-32"/>
       <use xlink:href="#DejaVuSans-30" x="63.623047"/>
      </g>
     </g>
    </g>
    <g id="xtick_3">
     <g id="line2d_3">
      <g>
       <use xlink:href="#ma94174249d" x="535.99558" y="490.552" style="stroke: #000000; stroke-width: 0.8"/>
      </g>
     </g>
     <g id="text_3">
      <!-- 40 -->
      <g transform="translate(523.27058 512.748875) scale(0.2 -0.2)">
       <defs>
        <path id="DejaVuSans-34" d="M 2419 4116 
L 825 1625 
L 2419 1625 
L 2419 4116 
z
M 2253 4666 
L 3047 4666 
L 3047 1625 
L 3713 1625 
L 3713 1100 
L 3047 1100 
L 3047 0 
L 2419 0 
L 2419 1100 
L 313 1100 
L 313 1709 
L 2253 4666 
z
" transform="scale(0.015625)"/>
       </defs>
       <use xlink:href="#DejaVuSans-34"/>
       <use xlink:href="#DejaVuSans-30" x="63.623047"/>
      </g>
     </g>
    </g>
    <g id="xtick_4">
     <g id="line2d_4">
      <g>
       <use xlink:href="#ma94174249d" x="738.74413" y="490.552" style="stroke: #000000; stroke-width: 0.8"/>
      </g>
     </g>
     <g id="text_4">
      <!-- 60 -->
      <g transform="translate(726.01913 512.748875) scale(0.2 -0.2)">
       <defs>
        <path id="DejaVuSans-36" d="M 2113 2584 
Q 1688 2584 1439 2293 
Q 1191 2003 1191 1497 
Q 1191 994 1439 701 
Q 1688 409 2113 409 
Q 2538 409 2786 701 
Q 3034 994 3034 1497 
Q 3034 2003 2786 2293 
Q 2538 2584 2113 2584 
z
M 3366 4563 
L 3366 3988 
Q 3128 4100 2886 4159 
Q 2644 4219 2406 4219 
Q 1781 4219 1451 3797 
Q 1122 3375 1075 2522 
Q 1259 2794 1537 2939 
Q 1816 3084 2150 3084 
Q 2853 3084 3261 2657 
Q 3669 2231 3669 1497 
Q 3669 778 3244 343 
Q 2819 -91 2113 -91 
Q 1303 -91 875 529 
Q 447 1150 447 2328 
Q 447 3434 972 4092 
Q 1497 4750 2381 4750 
Q 2619 4750 2861 4703 
Q 3103 4656 3366 4563 
z
" transform="scale(0.015625)"/>
       </defs>
       <use xlink:href="#DejaVuSans-36"/>
       <use xlink:href="#DejaVuSans-30" x="63.623047"/>
      </g>
     </g>
    </g>
    <g id="xtick_5">
     <g id="line2d_5">
      <g>
       <use xlink:href="#ma94174249d" x="941.492679" y="490.552" style="stroke: #000000; stroke-width: 0.8"/>
      </g>
     </g>
     <g id="text_5">
      <!-- 80 -->
      <g transform="translate(928.767679 512.748875) scale(0.2 -0.2)">
       <defs>
        <path id="DejaVuSans-38" d="M 2034 2216 
Q 1584 2216 1326 1975 
Q 1069 1734 1069 1313 
Q 1069 891 1326 650 
Q 1584 409 2034 409 
Q 2484 409 2743 651 
Q 3003 894 3003 1313 
Q 3003 1734 2745 1975 
Q 2488 2216 2034 2216 
z
M 1403 2484 
Q 997 2584 770 2862 
Q 544 3141 544 3541 
Q 544 4100 942 4425 
Q 1341 4750 2034 4750 
Q 2731 4750 3128 4425 
Q 3525 4100 3525 3541 
Q 3525 3141 3298 2862 
Q 3072 2584 2669 2484 
Q 3125 2378 3379 2068 
Q 3634 1759 3634 1313 
Q 3634 634 3220 271 
Q 2806 -91 2034 -91 
Q 1263 -91 848 271 
Q 434 634 434 1313 
Q 434 1759 690 2068 
Q 947 2378 1403 2484 
z
M 1172 3481 
Q 1172 3119 1398 2916 
Q 1625 2713 2034 2713 
Q 2441 2713 2670 2916 
Q 2900 3119 2900 3481 
Q 2900 3844 2670 4047 
Q 2441 4250 2034 4250 
Q 1625 4250 1398 4047 
Q 1172 3844 1172 3481 
z
" transform="scale(0.015625)"/>
       </defs>
       <use xlink:href="#DejaVuSans-38"/>
       <use xlink:href="#DejaVuSans-30" x="63.623047"/>
      </g>
     </g>
    </g>
    <g id="text_6">
     <!-- Percentile Threshold -->
     <g transform="translate(515.315312 536.105125) scale(0.2 -0.2)">
      <defs>
       <path id="DejaVuSans-50" d="M 1259 4147 
L 1259 2394 
L 2053 2394 
Q 2494 2394 2734 2622 
Q 2975 2850 2975 3272 
Q 2975 3691 2734 3919 
Q 2494 4147 2053 4147 
L 1259 4147 
z
M 628 4666 
L 2053 4666 
Q 2838 4666 3239 4311 
Q 3641 3956 3641 3272 
Q 3641 2581 3239 2228 
Q 2838 1875 2053 1875 
L 1259 1875 
L 1259 0 
L 628 0 
L 628 4666 
z
" transform="scale(0.015625)"/>
       <path id="DejaVuSans-65" d="M 3597 1894 
L 3597 1613 
L 953 1613 
Q 991 1019 1311 708 
Q 1631 397 2203 397 
Q 2534 397 2845 478 
Q 3156 559 3463 722 
L 3463 178 
Q 3153 47 2828 -22 
Q 2503 -91 2169 -91 
Q 1331 -91 842 396 
Q 353 884 353 1716 
Q 353 2575 817 3079 
Q 1281 3584 2069 3584 
Q 2775 3584 3186 3129 
Q 3597 2675 3597 1894 
z
M 3022 2063 
Q 3016 2534 2758 2815 
Q 2500 3097 2075 3097 
Q 1594 3097 1305 2825 
Q 1016 2553 972 2059 
L 3022 2063 
z
" transform="scale(0.015625)"/>
       <path id="DejaVuSans-72" d="M 2631 2963 
Q 2534 3019 2420 3045 
Q 2306 3072 2169 3072 
Q 1681 3072 1420 2755 
Q 1159 2438 1159 1844 
L 1159 0 
L 581 0 
L 581 3500 
L 1159 3500 
L 1159 2956 
Q 1341 3275 1631 3429 
Q 1922 3584 2338 3584 
Q 2397 3584 2469 3576 
Q 2541 3569 2628 3553 
L 2631 2963 
z
" transform="scale(0.015625)"/>
       <path id="DejaVuSans-63" d="M 3122 3366 
L 3122 2828 
Q 2878 2963 2633 3030 
Q 2388 3097 2138 3097 
Q 1578 3097 1268 2742 
Q 959 2388 959 1747 
Q 959 1106 1268 751 
Q 1578 397 2138 397 
Q 2388 397 2633 464 
Q 2878 531 3122 666 
L 3122 134 
Q 2881 22 2623 -34 
Q 2366 -91 2075 -91 
Q 1284 -91 818 406 
Q 353 903 353 1747 
Q 353 2603 823 3093 
Q 1294 3584 2113 3584 
Q 2378 3584 2631 3529 
Q 2884 3475 3122 3366 
z
" transform="scale(0.015625)"/>
       <path id="DejaVuSans-6e" d="M 3513 2113 
L 3513 0 
L 2938 0 
L 2938 2094 
Q 2938 2591 2744 2837 
Q 2550 3084 2163 3084 
Q 1697 3084 1428 2787 
Q 1159 2491 1159 1978 
L 1159 0 
L 581 0 
L 581 3500 
L 1159 3500 
L 1159 2956 
Q 1366 3272 1645 3428 
Q 1925 3584 2291 3584 
Q 2894 3584 3203 3211 
Q 3513 2838 3513 2113 
z
" transform="scale(0.015625)"/>
       <path id="DejaVuSans-74" d="M 1172 4494 
L 1172 3500 
L 2356 3500 
L 2356 3053 
L 1172 3053 
L 1172 1153 
Q 1172 725 1289 603 
Q 1406 481 1766 481 
L 2356 481 
L 2356 0 
L 1766 0 
Q 1100 0 847 248 
Q 594 497 594 1153 
L 594 3053 
L 172 3053 
L 172 3500 
L 594 3500 
L 594 4494 
L 1172 4494 
z
" transform="scale(0.015625)"/>
       <path id="DejaVuSans-69" d="M 603 3500 
L 1178 3500 
L 1178 0 
L 603 0 
L 603 3500 
z
M 603 4863 
L 1178 4863 
L 1178 4134 
L 603 4134 
L 603 4863 
z
" transform="scale(0.015625)"/>
       <path id="DejaVuSans-6c" d="M 603 4863 
L 1178 4863 
L 1178 0 
L 603 0 
L 603 4863 
z
" transform="scale(0.015625)"/>
       <path id="DejaVuSans-20" transform="scale(0.015625)"/>
       <path id="DejaVuSans-54" d="M -19 4666 
L 3928 4666 
L 3928 4134 
L 2272 4134 
L 2272 0 
L 1638 0 
L 1638 4134 
L -19 4134 
L -19 4666 
z
" transform="scale(0.015625)"/>
       <path id="DejaVuSans-68" d="M 3513 2113 
L 3513 0 
L 2938 0 
L 2938 2094 
Q 2938 2591 2744 2837 
Q 2550 3084 2163 3084 
Q 1697 3084 1428 2787 
Q 1159 2491 1159 1978 
L 1159 0 
L 581 0 
L 581 4863 
L 1159 4863 
L 1159 2956 
Q 1366 3272 1645 3428 
Q 1925 3584 2291 3584 
Q 2894 3584 3203 3211 
Q 3513 2838 3513 2113 
z
" transform="scale(0.015625)"/>
       <path id="DejaVuSans-73" d="M 2834 3397 
L 2834 2853 
Q 2591 2978 2328 3040 
Q 2066 3103 1784 3103 
Q 1356 3103 1142 2972 
Q 928 2841 928 2578 
Q 928 2378 1081 2264 
Q 1234 2150 1697 2047 
L 1894 2003 
Q 2506 1872 2764 1633 
Q 3022 1394 3022 966 
Q 3022 478 2636 193 
Q 2250 -91 1575 -91 
Q 1294 -91 989 -36 
Q 684 19 347 128 
L 347 722 
Q 666 556 975 473 
Q 1284 391 1588 391 
Q 1994 391 2212 530 
Q 2431 669 2431 922 
Q 2431 1156 2273 1281 
Q 2116 1406 1581 1522 
L 1381 1569 
Q 847 1681 609 1914 
Q 372 2147 372 2553 
Q 372 3047 722 3315 
Q 1072 3584 1716 3584 
Q 2034 3584 2315 3537 
Q 2597 3491 2834 3397 
z
" transform="scale(0.015625)"/>
       <path id="DejaVuSans-6f" d="M 1959 3097 
Q 1497 3097 1228 2736 
Q 959 2375 959 1747 
Q 959 1119 1226 758 
Q 1494 397 1959 397 
Q 2419 397 2687 759 
Q 2956 1122 2956 1747 
Q 2956 2369 2687 2733 
Q 2419 3097 1959 3097 
z
M 1959 3584 
Q 2709 3584 3137 3096 
Q 3566 2609 3566 1747 
Q 3566 888 3137 398 
Q 2709 -91 1959 -91 
Q 1206 -91 779 398 
Q 353 888 353 1747 
Q 353 2609 779 3096 
Q 1206 3584 1959 3584 
z
" transform="scale(0.015625)"/>
       <path id="DejaVuSans-64" d="M 2906 2969 
L 2906 4863 
L 3481 4863 
L 3481 0 
L 2906 0 
L 2906 525 
Q 2725 213 2448 61 
Q 2172 -91 1784 -91 
Q 1150 -91 751 415 
Q 353 922 353 1747 
Q 353 2572 751 3078 
Q 1150 3584 1784 3584 
Q 2172 3584 2448 3432 
Q 2725 3281 2906 2969 
z
M 947 1747 
Q 947 1113 1208 752 
Q 1469 391 1925 391 
Q 2381 391 2643 752 
Q 2906 1113 2906 1747 
Q 2906 2381 2643 2742 
Q 2381 3103 1925 3103 
Q 1469 3103 1208 2742 
Q 947 2381 947 1747 
z
" transform="scale(0.015625)"/>
      </defs>
      <use xlink:href="#DejaVuSans-50"/>
      <use xlink:href="#DejaVuSans-65" x="56.677734"/>
      <use xlink:href="#DejaVuSans-72" x="118.201172"/>
      <use xlink:href="#DejaVuSans-63" x="157.064453"/>
      <use xlink:href="#DejaVuSans-65" x="212.044922"/>
      <use xlink:href="#DejaVuSans-6e" x="273.568359"/>
      <use xlink:href="#DejaVuSans-74" x="336.947266"/>
      <use xlink:href="#DejaVuSans-69" x="376.15625"/>
      <use xlink:href="#DejaVuSans-6c" x="403.939453"/>
      <use xlink:href="#DejaVuSans-65" x="431.722656"/>
      <use xlink:href="#DejaVuSans-20" x="493.246094"/>
      <use xlink:href="#DejaVuSans-54" x="525.033203"/>
      <use xlink:href="#DejaVuSans-68" x="586.117188"/>
      <use xlink:href="#DejaVuSans-72" x="649.496094"/>
      <use xlink:href="#DejaVuSans-65" x="688.359375"/>
      <use xlink:href="#DejaVuSans-73" x="749.882812"/>
      <use xlink:href="#DejaVuSans-68" x="801.982422"/>
      <use xlink:href="#DejaVuSans-6f" x="865.361328"/>
      <use xlink:href="#DejaVuSans-6c" x="926.542969"/>
      <use xlink:href="#DejaVuSans-64" x="954.326172"/>
     </g>
     <!-- (Using "merge" Threshold Handling) -->
     <g transform="translate(436.380937 558.50075) scale(0.2 -0.2)">
      <defs>
       <path id="DejaVuSans-28" d="M 1984 4856 
Q 1566 4138 1362 3434 
Q 1159 2731 1159 2009 
Q 1159 1288 1364 580 
Q 1569 -128 1984 -844 
L 1484 -844 
Q 1016 -109 783 600 
Q 550 1309 550 2009 
Q 550 2706 781 3412 
Q 1013 4119 1484 4856 
L 1984 4856 
z
" transform="scale(0.015625)"/>
       <path id="DejaVuSans-55" d="M 556 4666 
L 1191 4666 
L 1191 1831 
Q 1191 1081 1462 751 
Q 1734 422 2344 422 
Q 2950 422 3222 751 
Q 3494 1081 3494 1831 
L 3494 4666 
L 4128 4666 
L 4128 1753 
Q 4128 841 3676 375 
Q 3225 -91 2344 -91 
Q 1459 -91 1007 375 
Q 556 841 556 1753 
L 556 4666 
z
" transform="scale(0.015625)"/>
       <path id="DejaVuSans-67" d="M 2906 1791 
Q 2906 2416 2648 2759 
Q 2391 3103 1925 3103 
Q 1463 3103 1205 2759 
Q 947 2416 947 1791 
Q 947 1169 1205 825 
Q 1463 481 1925 481 
Q 2391 481 2648 825 
Q 2906 1169 2906 1791 
z
M 3481 434 
Q 3481 -459 3084 -895 
Q 2688 -1331 1869 -1331 
Q 1566 -1331 1297 -1286 
Q 1028 -1241 775 -1147 
L 775 -588 
Q 1028 -725 1275 -790 
Q 1522 -856 1778 -856 
Q 2344 -856 2625 -561 
Q 2906 -266 2906 331 
L 2906 616 
Q 2728 306 2450 153 
Q 2172 0 1784 0 
Q 1141 0 747 490 
Q 353 981 353 1791 
Q 353 2603 747 3093 
Q 1141 3584 1784 3584 
Q 2172 3584 2450 3431 
Q 2728 3278 2906 2969 
L 2906 3500 
L 3481 3500 
L 3481 434 
z
" transform="scale(0.015625)"/>
       <path id="DejaVuSans-22" d="M 1147 4666 
L 1147 2931 
L 616 2931 
L 616 4666 
L 1147 4666 
z
M 2328 4666 
L 2328 2931 
L 1797 2931 
L 1797 4666 
L 2328 4666 
z
" transform="scale(0.015625)"/>
       <path id="DejaVuSans-6d" d="M 3328 2828 
Q 3544 3216 3844 3400 
Q 4144 3584 4550 3584 
Q 5097 3584 5394 3201 
Q 5691 2819 5691 2113 
L 5691 0 
L 5113 0 
L 5113 2094 
Q 5113 2597 4934 2840 
Q 4756 3084 4391 3084 
Q 3944 3084 3684 2787 
Q 3425 2491 3425 1978 
L 3425 0 
L 2847 0 
L 2847 2094 
Q 2847 2600 2669 2842 
Q 2491 3084 2119 3084 
Q 1678 3084 1418 2786 
Q 1159 2488 1159 1978 
L 1159 0 
L 581 0 
L 581 3500 
L 1159 3500 
L 1159 2956 
Q 1356 3278 1631 3431 
Q 1906 3584 2284 3584 
Q 2666 3584 2933 3390 
Q 3200 3197 3328 2828 
z
" transform="scale(0.015625)"/>
       <path id="DejaVuSans-48" d="M 628 4666 
L 1259 4666 
L 1259 2753 
L 3553 2753 
L 3553 4666 
L 4184 4666 
L 4184 0 
L 3553 0 
L 3553 2222 
L 1259 2222 
L 1259 0 
L 628 0 
L 628 4666 
z
" transform="scale(0.015625)"/>
       <path id="DejaVuSans-61" d="M 2194 1759 
Q 1497 1759 1228 1600 
Q 959 1441 959 1056 
Q 959 750 1161 570 
Q 1363 391 1709 391 
Q 2188 391 2477 730 
Q 2766 1069 2766 1631 
L 2766 1759 
L 2194 1759 
z
M 3341 1997 
L 3341 0 
L 2766 0 
L 2766 531 
Q 2569 213 2275 61 
Q 1981 -91 1556 -91 
Q 1019 -91 701 211 
Q 384 513 384 1019 
Q 384 1609 779 1909 
Q 1175 2209 1959 2209 
L 2766 2209 
L 2766 2266 
Q 2766 2663 2505 2880 
Q 2244 3097 1772 3097 
Q 1472 3097 1187 3025 
Q 903 2953 641 2809 
L 641 3341 
Q 956 3463 1253 3523 
Q 1550 3584 1831 3584 
Q 2591 3584 2966 3190 
Q 3341 2797 3341 1997 
z
" transform="scale(0.015625)"/>
       <path id="DejaVuSans-29" d="M 513 4856 
L 1013 4856 
Q 1481 4119 1714 3412 
Q 1947 2706 1947 2009 
Q 1947 1309 1714 600 
Q 1481 -109 1013 -844 
L 513 -844 
Q 928 -128 1133 580 
Q 1338 1288 1338 2009 
Q 1338 2731 1133 3434 
Q 928 4138 513 4856 
z
" transform="scale(0.015625)"/>
      </defs>
      <use xlink:href="#DejaVuSans-28"/>
      <use xlink:href="#DejaVuSans-55" x="39.013672"/>
      <use xlink:href="#DejaVuSans-73" x="112.207031"/>
      <use xlink:href="#DejaVuSans-69" x="164.306641"/>
      <use xlink:href="#DejaVuSans-6e" x="192.089844"/>
      <use xlink:href="#DejaVuSans-67" x="255.46875"/>
      <use xlink:href="#DejaVuSans-20" x="318.945312"/>
      <use xlink:href="#DejaVuSans-22" x="350.732422"/>
      <use xlink:href="#DejaVuSans-6d" x="396.728516"/>
      <use xlink:href="#DejaVuSans-65" x="494.140625"/>
      <use xlink:href="#DejaVuSans-72" x="555.664062"/>
      <use xlink:href="#DejaVuSans-67" x="595.027344"/>
      <use xlink:href="#DejaVuSans-65" x="658.503906"/>
      <use xlink:href="#DejaVuSans-22" x="720.027344"/>
      <use xlink:href="#DejaVuSans-20" x="766.023438"/>
      <use xlink:href="#DejaVuSans-54" x="797.810547"/>
      <use xlink:href="#DejaVuSans-68" x="858.894531"/>
      <use xlink:href="#DejaVuSans-72" x="922.273438"/>
      <use xlink:href="#DejaVuSans-65" x="961.136719"/>
      <use xlink:href="#DejaVuSans-73" x="1022.660156"/>
      <use xlink:href="#DejaVuSans-68" x="1074.759766"/>
      <use xlink:href="#DejaVuSans-6f" x="1138.138672"/>
      <use xlink:href="#DejaVuSans-6c" x="1199.320312"/>
      <use xlink:href="#DejaVuSans-64" x="1227.103516"/>
      <use xlink:href="#DejaVuSans-20" x="1290.580078"/>
      <use xlink:href="#DejaVuSans-48" x="1322.367188"/>
      <use xlink:href="#DejaVuSans-61" x="1397.5625"/>
      <use xlink:href="#DejaVuSans-6e" x="1458.841797"/>
      <use xlink:href="#DejaVuSans-64" x="1522.220703"/>
      <use xlink:href="#DejaVuSans-6c" x="1585.697266"/>
      <use xlink:href="#DejaVuSans-69" x="1613.480469"/>
      <use xlink:href="#DejaVuSans-6e" x="1641.263672"/>
      <use xlink:href="#DejaVuSans-67" x="1704.642578"/>
      <use xlink:href="#DejaVuSans-29" x="1768.119141"/>
     </g>
    </g>
   </g>
   <g id="matplotlib.axis_2">
    <g id="ytick_1">
     <g id="line2d_6">
      <defs>
       <path id="m1206b057d4" d="M 0 0 
L -3.5 0 
" style="stroke: #000000; stroke-width: 0.8"/>
      </defs>
      <g>
       <use xlink:href="#m1206b057d4" x="92.99" y="482.68422" style="stroke: #000000; stroke-width: 0.8"/>
      </g>
     </g>
     <g id="text_7">
      <!-- 0 -->
      <g transform="translate(73.265 490.282658) scale(0.2 -0.2)">
       <use xlink:href="#DejaVuSans-30"/>
      </g>
     </g>
    </g>
    <g id="ytick_2">
     <g id="line2d_7">
      <g>
       <use xlink:href="#m1206b057d4" x="92.99" y="389.908067" style="stroke: #000000; stroke-width: 0.8"/>
      </g>
     </g>
     <g id="text_8">
      <!-- 500 -->
      <g transform="translate(47.815 397.506504) scale(0.2 -0.2)">
       <defs>
        <path id="DejaVuSans-35" d="M 691 4666 
L 3169 4666 
L 3169 4134 
L 1269 4134 
L 1269 2991 
Q 1406 3038 1543 3061 
Q 1681 3084 1819 3084 
Q 2600 3084 3056 2656 
Q 3513 2228 3513 1497 
Q 3513 744 3044 326 
Q 2575 -91 1722 -91 
Q 1428 -91 1123 -41 
Q 819 9 494 109 
L 494 744 
Q 775 591 1075 516 
Q 1375 441 1709 441 
Q 2250 441 2565 725 
Q 2881 1009 2881 1497 
Q 2881 1984 2565 2268 
Q 2250 2553 1709 2553 
Q 1456 2553 1204 2497 
Q 953 2441 691 2322 
L 691 4666 
z
" transform="scale(0.015625)"/>
       </defs>
       <use xlink:href="#DejaVuSans-35"/>
       <use xlink:href="#DejaVuSans-30" x="63.623047"/>
       <use xlink:href="#DejaVuSans-30" x="127.246094"/>
      </g>
     </g>
    </g>
    <g id="ytick_3">
     <g id="line2d_8">
      <g>
       <use xlink:href="#m1206b057d4" x="92.99" y="297.131913" style="stroke: #000000; stroke-width: 0.8"/>
      </g>
     </g>
     <g id="text_9">
      <!-- 1000 -->
      <g transform="translate(35.09 304.730351) scale(0.2 -0.2)">
       <defs>
        <path id="DejaVuSans-31" d="M 794 531 
L 1825 531 
L 1825 4091 
L 703 3866 
L 703 4441 
L 1819 4666 
L 2450 4666 
L 2450 531 
L 3481 531 
L 3481 0 
L 794 0 
L 794 531 
z
" transform="scale(0.015625)"/>
       </defs>
       <use xlink:href="#DejaVuSans-31"/>
       <use xlink:href="#DejaVuSans-30" x="63.623047"/>
       <use xlink:href="#DejaVuSans-30" x="127.246094"/>
       <use xlink:href="#DejaVuSans-30" x="190.869141"/>
      </g>
     </g>
    </g>
    <g id="ytick_4">
     <g id="line2d_9">
      <g>
       <use xlink:href="#m1206b057d4" x="92.99" y="204.35576" style="stroke: #000000; stroke-width: 0.8"/>
      </g>
     </g>
     <g id="text_10">
      <!-- 1500 -->
      <g transform="translate(35.09 211.954197) scale(0.2 -0.2)">
       <use xlink:href="#DejaVuSans-31"/>
       <use xlink:href="#DejaVuSans-35" x="63.623047"/>
       <use xlink:href="#DejaVuSans-30" x="127.246094"/>
       <use xlink:href="#DejaVuSans-30" x="190.869141"/>
      </g>
     </g>
    </g>
    <g id="ytick_5">
     <g id="line2d_10">
      <g>
       <use xlink:href="#m1206b057d4" x="92.99" y="111.579606" style="stroke: #000000; stroke-width: 0.8"/>
      </g>
     </g>
     <g id="text_11">
      <!-- 2000 -->
      <g transform="translate(35.09 119.178044) scale(0.2 -0.2)">
       <use xlink:href="#DejaVuSans-32"/>
       <use xlink:href="#DejaVuSans-30" x="63.623047"/>
       <use xlink:href="#DejaVuSans-30" x="127.246094"/>
       <use xlink:href="#DejaVuSans-30" x="190.869141"/>
      </g>
     </g>
    </g>
    <g id="ytick_6">
     <g id="line2d_11">
      <g>
       <use xlink:href="#m1206b057d4" x="92.99" y="18.803452" style="stroke: #000000; stroke-width: 0.8"/>
      </g>
     </g>
     <g id="text_12">
      <!-- 2500 -->
      <g transform="translate(35.09 26.40189) scale(0.2 -0.2)">
       <use xlink:href="#DejaVuSans-32"/>
       <use xlink:href="#DejaVuSans-35" x="63.623047"/>
       <use xlink:href="#DejaVuSans-30" x="127.246094"/>
       <use xlink:href="#DejaVuSans-30" x="190.869141"/>
      </g>
     </g>
    </g>
    <g id="text_13">
     <!-- MSE -->
     <g transform="translate(26.930625 275.305334) rotate(-90) scale(0.2 -0.2)">
      <defs>
       <path id="DejaVuSans-4d" d="M 628 4666 
L 1569 4666 
L 2759 1491 
L 3956 4666 
L 4897 4666 
L 4897 0 
L 4281 0 
L 4281 4097 
L 3078 897 
L 2444 897 
L 1241 4097 
L 1241 0 
L 628 0 
L 628 4666 
z
" transform="scale(0.015625)"/>
       <path id="DejaVuSans-53" d="M 3425 4513 
L 3425 3897 
Q 3066 4069 2747 4153 
Q 2428 4238 2131 4238 
Q 1616 4238 1336 4038 
Q 1056 3838 1056 3469 
Q 1056 3159 1242 3001 
Q 1428 2844 1947 2747 
L 2328 2669 
Q 3034 2534 3370 2195 
Q 3706 1856 3706 1288 
Q 3706 609 3251 259 
Q 2797 -91 1919 -91 
Q 1588 -91 1214 -16 
Q 841 59 441 206 
L 441 856 
Q 825 641 1194 531 
Q 1563 422 1919 422 
Q 2459 422 2753 634 
Q 3047 847 3047 1241 
Q 3047 1584 2836 1778 
Q 2625 1972 2144 2069 
L 1759 2144 
Q 1053 2284 737 2584 
Q 422 2884 422 3419 
Q 422 4038 858 4394 
Q 1294 4750 2059 4750 
Q 2388 4750 2728 4690 
Q 3069 4631 3425 4513 
z
" transform="scale(0.015625)"/>
       <path id="DejaVuSans-45" d="M 628 4666 
L 3578 4666 
L 3578 4134 
L 1259 4134 
L 1259 2753 
L 3481 2753 
L 3481 2222 
L 1259 2222 
L 1259 531 
L 3634 531 
L 3634 0 
L 628 0 
L 628 4666 
z
" transform="scale(0.015625)"/>
      </defs>
      <use xlink:href="#DejaVuSans-4d"/>
      <use xlink:href="#DejaVuSans-53" x="86.279297"/>
      <use xlink:href="#DejaVuSans-45" x="149.755859"/>
     </g>
    </g>
   </g>
   <g id="line2d_12">
    <path d="M 140.635909 464.771985 
L 160.910764 465.02102 
L 181.185619 465.419011 
L 201.460474 464.809562 
L 221.735329 462.044264 
L 242.010184 462.377242 
L 262.285039 461.400154 
L 282.559894 461.620133 
L 302.834749 459.799348 
L 323.109603 457.781779 
L 343.384458 454.345128 
L 363.659313 454.770671 
L 383.934168 453.441971 
L 404.209023 450.948226 
L 424.483878 452.401426 
L 444.758733 451.116158 
L 465.033588 450.645081 
L 485.308443 448.832927 
L 505.583298 444.963383 
L 525.858153 441.889999 
L 546.133008 430.582434 
L 566.407863 438.872554 
L 586.682718 433.672367 
L 606.957573 426.291566 
L 627.232427 416.861885 
L 647.507282 417.686113 
L 667.782137 418.179868 
L 688.056992 420.914547 
L 708.331847 420.867741 
L 728.606702 420.798251 
L 748.881557 420.871453 
L 769.156412 417.877867 
L 789.431267 418.834129 
L 809.706122 407.240272 
L 829.980977 409.897904 
L 850.255832 400.077927 
L 870.530687 405.744743 
L 890.805542 399.502115 
L 911.080397 393.434254 
L 931.355251 397.238423 
L 951.630106 368.617655 
L 971.904961 354.040418 
L 992.179816 353.785319 
L 1012.454671 353.381307 
L 1032.729526 344.048471 
L 1053.004381 335.789296 
L 1073.279236 265.707476 
L 1093.554091 216.528795 
" clip-path="url(#p5d69722b3d)" style="fill: none; stroke: #1f77b4; stroke-width: 1.5; stroke-linecap: square"/>
   </g>
   <g id="line2d_13">
    <path d="M 140.635909 466.719886 
L 160.910764 467.945199 
L 181.185619 467.961042 
L 201.460474 467.354252 
L 221.735329 464.886692 
L 242.010184 465.038406 
L 262.285039 464.337878 
L 282.559894 464.169091 
L 302.834749 460.936219 
L 323.109603 460.617232 
L 343.384458 456.908482 
L 363.659313 458.948648 
L 383.934168 458.017468 
L 404.209023 454.036695 
L 424.483878 455.87243 
L 444.758733 454.994139 
L 465.033588 454.905911 
L 485.308443 453.888149 
L 505.583298 451.473939 
L 525.858153 449.323518 
L 546.133008 445.230797 
L 566.407863 446.979789 
L 586.682718 439.871831 
L 606.957573 439.49617 
L 627.232427 430.793686 
L 647.507282 431.422824 
L 667.782137 431.752538 
L 688.056992 435.5365 
L 708.331847 435.509154 
L 728.606702 435.602775 
L 748.881557 435.3242 
L 769.156412 433.412123 
L 789.431267 435.129003 
L 809.706122 415.123947 
L 829.980977 414.907375 
L 850.255832 407.752078 
L 870.530687 412.890669 
L 890.805542 411.474467 
L 911.080397 402.487966 
L 931.355251 402.098289 
L 951.630106 380.039016 
L 971.904961 365.095986 
L 992.179816 364.514903 
L 1012.454671 364.234437 
L 1032.729526 361.910207 
L 1053.004381 357.124587 
L 1073.279236 323.705375 
L 1093.554091 243.085122 
" clip-path="url(#p5d69722b3d)" style="fill: none; stroke: #ff7f0e; stroke-width: 1.5; stroke-linecap: square"/>
   </g>
   <g id="line2d_14">
    <path d="M 140.635909 465.848963 
L 160.910764 466.962259 
L 181.185619 467.079213 
L 201.460474 466.490144 
L 221.735329 463.961104 
L 242.010184 463.876224 
L 262.285039 463.26236 
L 282.559894 462.972246 
L 302.834749 460.95411 
L 323.109603 459.399979 
L 343.384458 455.36319 
L 363.659313 458.681331 
L 383.934168 458.245584 
L 404.209023 453.616769 
L 424.483878 453.696598 
L 444.758733 452.751215 
L 465.033588 454.226274 
L 485.308443 452.235261 
L 505.583298 449.720929 
L 525.858153 447.934618 
L 546.133008 431.224161 
L 566.407863 444.926216 
L 586.682718 424.622462 
L 606.957573 426.776466 
L 627.232427 418.763695 
L 647.507282 419.44122 
L 667.782137 420.338151 
L 688.056992 431.173783 
L 708.331847 431.013745 
L 728.606702 430.490169 
L 748.881557 431.475069 
L 769.156412 428.383946 
L 789.431267 426.282024 
L 809.706122 409.711926 
L 829.980977 410.55519 
L 850.255832 407.9499 
L 870.530687 413.179793 
L 890.805542 405.84357 
L 911.080397 398.668525 
L 931.355251 401.333774 
L 951.630106 384.153378 
L 971.904961 369.933484 
L 992.179816 369.82214 
L 1012.454671 369.682353 
L 1032.729526 361.405111 
L 1053.004381 355.670078 
L 1073.279236 303.072381 
L 1093.554091 236.377329 
" clip-path="url(#p5d69722b3d)" style="fill: none; stroke: #2ca02c; stroke-width: 1.5; stroke-linecap: square"/>
   </g>
   <g id="line2d_15">
    <path d="M 140.635909 460.516546 
L 160.910764 461.078348 
L 181.185619 461.315526 
L 201.460474 460.163665 
L 221.735329 457.832555 
L 242.010184 458.188929 
L 262.285039 456.327168 
L 282.559894 455.981112 
L 302.834749 452.782397 
L 323.109603 455.06862 
L 343.384458 449.919463 
L 363.659313 450.297574 
L 383.934168 450.611492 
L 404.209023 444.074225 
L 424.483878 444.461112 
L 444.758733 444.718332 
L 465.033588 441.767772 
L 485.308443 442.379122 
L 505.583298 442.390478 
L 525.858153 443.224567 
L 546.133008 441.685947 
L 566.407863 441.509585 
L 586.682718 439.278094 
L 606.957573 433.649669 
L 627.232427 421.935952 
L 647.507282 422.331749 
L 667.782137 422.283294 
L 688.056992 418.408532 
L 708.331847 418.38723 
L 728.606702 418.016354 
L 748.881557 417.542507 
L 769.156412 413.641376 
L 789.431267 414.01268 
L 809.706122 409.565729 
L 829.980977 408.216158 
L 850.255832 401.858651 
L 870.530687 393.829455 
L 890.805542 390.689941 
L 911.080397 390.322092 
L 931.355251 396.620434 
L 951.630106 382.580271 
L 971.904961 382.892542 
L 992.179816 383.166781 
L 1012.454671 382.910402 
L 1032.729526 381.048556 
L 1053.004381 375.025725 
L 1073.279236 352.172783 
L 1093.554091 296.219923 
" clip-path="url(#p5d69722b3d)" style="fill: none; stroke: #d62728; stroke-width: 1.5; stroke-linecap: square"/>
   </g>
   <g id="line2d_16"/>
   <g id="line2d_17"/>
   <g id="line2d_18"/>
   <g id="line2d_19"/>
   <g id="patch_3">
    <path d="M 92.99 490.552 
L 92.99 17.468042 
" style="fill: none; stroke: #000000; stroke-width: 0.8; stroke-linejoin: miter; stroke-linecap: square"/>
   </g>
   <g id="patch_4">
    <path d="M 1141.2 490.552 
L 1141.2 17.468042 
" style="fill: none; stroke: #000000; stroke-width: 0.8; stroke-linejoin: miter; stroke-linecap: square"/>
   </g>
   <g id="patch_5">
    <path d="M 92.99 490.552 
L 1141.2 490.552 
" style="fill: none; stroke: #000000; stroke-width: 0.8; stroke-linejoin: miter; stroke-linecap: square"/>
   </g>
   <g id="patch_6">
    <path d="M 92.99 17.468042 
L 1141.2 17.468042 
" style="fill: none; stroke: #000000; stroke-width: 0.8; stroke-linejoin: miter; stroke-linecap: square"/>
   </g>
   <g id="legend_1">
    <g id="patch_7">
     <path d="M 104.19 482.552 
L 273.935 482.552 
Q 277.135 482.552 277.135 479.352 
L 277.135 387.012 
Q 277.135 383.812 273.935 383.812 
L 104.19 383.812 
Q 100.99 383.812 100.99 387.012 
L 100.99 479.352 
Q 100.99 482.552 104.19 482.552 
z
" style="fill: #ffffff; opacity: 0.8; stroke: #cccccc; stroke-linejoin: miter"/>
    </g>
    <g id="line2d_20">
     <path d="M 107.39 396.7695 
L 123.39 396.7695 
L 139.39 396.7695 
" style="fill: none; stroke: #1f77b4; stroke-width: 1.5; stroke-linecap: square"/>
    </g>
    <g id="text_14">
     <!-- rf -->
     <g transform="translate(152.19 402.3695) scale(0.16 -0.16)">
      <defs>
       <path id="DejaVuSans-66" d="M 2375 4863 
L 2375 4384 
L 1825 4384 
Q 1516 4384 1395 4259 
Q 1275 4134 1275 3809 
L 1275 3500 
L 2222 3500 
L 2222 3053 
L 1275 3053 
L 1275 0 
L 697 0 
L 697 3053 
L 147 3053 
L 147 3500 
L 697 3500 
L 697 3744 
Q 697 4328 969 4595 
Q 1241 4863 1831 4863 
L 2375 4863 
z
" transform="scale(0.015625)"/>
      </defs>
      <use xlink:href="#DejaVuSans-72"/>
      <use xlink:href="#DejaVuSans-66" x="41.113281"/>
     </g>
    </g>
    <g id="line2d_21">
     <path d="M 107.39 420.2545 
L 123.39 420.2545 
L 139.39 420.2545 
" style="fill: none; stroke: #ff7f0e; stroke-width: 1.5; stroke-linecap: square"/>
    </g>
    <g id="text_15">
     <!-- xgb -->
     <g transform="translate(152.19 425.8545) scale(0.16 -0.16)">
      <defs>
       <path id="DejaVuSans-78" d="M 3513 3500 
L 2247 1797 
L 3578 0 
L 2900 0 
L 1881 1375 
L 863 0 
L 184 0 
L 1544 1831 
L 300 3500 
L 978 3500 
L 1906 2253 
L 2834 3500 
L 3513 3500 
z
" transform="scale(0.015625)"/>
       <path id="DejaVuSans-62" d="M 3116 1747 
Q 3116 2381 2855 2742 
Q 2594 3103 2138 3103 
Q 1681 3103 1420 2742 
Q 1159 2381 1159 1747 
Q 1159 1113 1420 752 
Q 1681 391 2138 391 
Q 2594 391 2855 752 
Q 3116 1113 3116 1747 
z
M 1159 2969 
Q 1341 3281 1617 3432 
Q 1894 3584 2278 3584 
Q 2916 3584 3314 3078 
Q 3713 2572 3713 1747 
Q 3713 922 3314 415 
Q 2916 -91 2278 -91 
Q 1894 -91 1617 61 
Q 1341 213 1159 525 
L 1159 0 
L 581 0 
L 581 4863 
L 1159 4863 
L 1159 2969 
z
" transform="scale(0.015625)"/>
      </defs>
      <use xlink:href="#DejaVuSans-78"/>
      <use xlink:href="#DejaVuSans-67" x="59.179688"/>
      <use xlink:href="#DejaVuSans-62" x="122.65625"/>
     </g>
    </g>
    <g id="line2d_22">
     <path d="M 107.39 443.7395 
L 123.39 443.7395 
L 139.39 443.7395 
" style="fill: none; stroke: #2ca02c; stroke-width: 1.5; stroke-linecap: square"/>
    </g>
    <g id="text_16">
     <!-- gbr -->
     <g transform="translate(152.19 449.3395) scale(0.16 -0.16)">
      <use xlink:href="#DejaVuSans-67"/>
      <use xlink:href="#DejaVuSans-62" x="63.476562"/>
      <use xlink:href="#DejaVuSans-72" x="126.953125"/>
     </g>
    </g>
    <g id="line2d_23">
     <path d="M 107.39 467.2245 
L 123.39 467.2245 
L 139.39 467.2245 
" style="fill: none; stroke: #d62728; stroke-width: 1.5; stroke-linecap: square"/>
    </g>
    <g id="text_17">
     <!-- BayesianRidge -->
     <g transform="translate(152.19 472.8245) scale(0.16 -0.16)">
      <defs>
       <path id="DejaVuSans-42" d="M 1259 2228 
L 1259 519 
L 2272 519 
Q 2781 519 3026 730 
Q 3272 941 3272 1375 
Q 3272 1813 3026 2020 
Q 2781 2228 2272 2228 
L 1259 2228 
z
M 1259 4147 
L 1259 2741 
L 2194 2741 
Q 2656 2741 2882 2914 
Q 3109 3088 3109 3444 
Q 3109 3797 2882 3972 
Q 2656 4147 2194 4147 
L 1259 4147 
z
M 628 4666 
L 2241 4666 
Q 2963 4666 3353 4366 
Q 3744 4066 3744 3513 
Q 3744 3084 3544 2831 
Q 3344 2578 2956 2516 
Q 3422 2416 3680 2098 
Q 3938 1781 3938 1306 
Q 3938 681 3513 340 
Q 3088 0 2303 0 
L 628 0 
L 628 4666 
z
" transform="scale(0.015625)"/>
       <path id="DejaVuSans-79" d="M 2059 -325 
Q 1816 -950 1584 -1140 
Q 1353 -1331 966 -1331 
L 506 -1331 
L 506 -850 
L 844 -850 
Q 1081 -850 1212 -737 
Q 1344 -625 1503 -206 
L 1606 56 
L 191 3500 
L 800 3500 
L 1894 763 
L 2988 3500 
L 3597 3500 
L 2059 -325 
z
" transform="scale(0.015625)"/>
       <path id="DejaVuSans-52" d="M 2841 2188 
Q 3044 2119 3236 1894 
Q 3428 1669 3622 1275 
L 4263 0 
L 3584 0 
L 2988 1197 
Q 2756 1666 2539 1819 
Q 2322 1972 1947 1972 
L 1259 1972 
L 1259 0 
L 628 0 
L 628 4666 
L 2053 4666 
Q 2853 4666 3247 4331 
Q 3641 3997 3641 3322 
Q 3641 2881 3436 2590 
Q 3231 2300 2841 2188 
z
M 1259 4147 
L 1259 2491 
L 2053 2491 
Q 2509 2491 2742 2702 
Q 2975 2913 2975 3322 
Q 2975 3731 2742 3939 
Q 2509 4147 2053 4147 
L 1259 4147 
z
" transform="scale(0.015625)"/>
      </defs>
      <use xlink:href="#DejaVuSans-42"/>
      <use xlink:href="#DejaVuSans-61" x="68.603516"/>
      <use xlink:href="#DejaVuSans-79" x="129.882812"/>
      <use xlink:href="#DejaVuSans-65" x="189.0625"/>
      <use xlink:href="#DejaVuSans-73" x="250.585938"/>
      <use xlink:href="#DejaVuSans-69" x="302.685547"/>
      <use xlink:href="#DejaVuSans-61" x="330.46875"/>
      <use xlink:href="#DejaVuSans-6e" x="391.748047"/>
      <use xlink:href="#DejaVuSans-52" x="455.126953"/>
      <use xlink:href="#DejaVuSans-69" x="524.609375"/>
      <use xlink:href="#DejaVuSans-64" x="552.392578"/>
      <use xlink:href="#DejaVuSans-67" x="615.869141"/>
      <use xlink:href="#DejaVuSans-65" x="679.345703"/>
     </g>
    </g>
   </g>
  </g>
 </g>
 <defs>
  <clipPath id="p5d69722b3d">
   <rect x="92.99" y="17.468042" width="1048.21" height="473.083958"/>
  </clipPath>
 </defs>
</svg>
