<?xml version="1.0" encoding="utf-8" standalone="no"?>
<!DOCTYPE svg PUBLIC "-//W3C//DTD SVG 1.1//EN"
  "http://www.w3.org/Graphics/SVG/1.1/DTD/svg11.dtd">
<svg xmlns:xlink="http://www.w3.org/1999/xlink" width="1152pt" height="576pt" viewBox="0 0 1152 576" xmlns="http://www.w3.org/2000/svg" version="1.1">
 <metadata>
  <rdf:RDF xmlns:dc="http://purl.org/dc/elements/1.1/" xmlns:cc="http://creativecommons.org/ns#" xmlns:rdf="http://www.w3.org/1999/02/22-rdf-syntax-ns#">
   <cc:Work>
    <dc:type rdf:resource="http://purl.org/dc/dcmitype/StillImage"/>
    <dc:date>2025-03-19T22:49:02.870799</dc:date>
    <dc:format>image/svg+xml</dc:format>
    <dc:creator>
     <cc:Agent>
      <dc:title>Matplotlib v3.9.2, https://matplotlib.org/</dc:title>
     </cc:Agent>
    </dc:creator>
   </cc:Work>
  </rdf:RDF>
 </metadata>
 <defs>
  <style type="text/css">*{stroke-linejoin: round; stroke-linecap: butt}</style>
 </defs>
 <g id="figure_1">
  <g id="patch_1">
   <path d="M 0 576 
L 1152 576 
L 1152 0 
L 0 0 
z
" style="fill: #ffffff"/>
  </g>
  <g id="axes_1">
   <g id="patch_2">
    <path d="M 99.38 490.552 
L 1141.2 490.552 
L 1141.2 10.8 
L 99.38 10.8 
z
" style="fill: #ffffff"/>
   </g>
   <g id="PolyCollection_1">
    <defs>
     <path id="md39cec0059" d="M 146.735455 -420.7974 
L 146.735455 -313.479951 
L 166.886712 -365.993026 
L 187.037969 -427.012801 
L 207.189226 -372.248269 
L 227.340484 -406.830787 
L 247.491741 -388.277637 
L 267.642998 -374.548269 
L 287.794255 -400.396278 
L 307.945513 -390.219799 
L 328.09677 -389.470929 
L 348.248027 -399.19588 
L 368.399284 -412.99408 
L 388.550542 -366.887403 
L 408.701799 -305.009067 
L 428.853056 -369.672753 
L 449.004313 -353.625499 
L 469.155571 -361.057209 
L 489.306828 -321.842559 
L 509.458085 -352.516885 
L 529.609342 -392.762676 
L 549.7606 -389.057288 
L 569.911857 -354.181863 
L 590.063114 -319.86583 
L 610.214371 -396.42911 
L 630.365629 -362.921545 
L 650.516886 -295.654052 
L 670.668143 -313.676226 
L 690.8194 -384.366522 
L 710.970658 -328.645176 
L 731.121915 -368.529793 
L 751.273172 -336.868159 
L 771.424429 -365.219318 
L 791.575687 -249.153477 
L 811.726944 -364.82137 
L 831.878201 -205.985503 
L 852.029458 -335.113499 
L 872.180716 -328.993671 
L 892.331973 -311.163662 
L 912.48323 -237.733139 
L 932.634487 -335.72617 
L 952.785745 -369.594065 
L 972.937002 -320.781238 
L 993.088259 -350.167268 
L 1013.239516 -286.892723 
L 1033.390774 -301.022654 
L 1053.542031 -291.291899 
L 1073.693288 -318.691432 
L 1093.844545 -314.238695 
L 1093.844545 -414.748612 
L 1093.844545 -414.748612 
L 1073.693288 -376.949768 
L 1053.542031 -380.428879 
L 1033.390774 -394.501101 
L 1013.239516 -384.152523 
L 993.088259 -423.466256 
L 972.937002 -422.02842 
L 952.785745 -443.156019 
L 932.634487 -375.616769 
L 912.48323 -422.657461 
L 892.331973 -392.107095 
L 872.180716 -415.506594 
L 852.029458 -403.497545 
L 831.878201 -412.309903 
L 811.726944 -436.813278 
L 791.575687 -412.689857 
L 771.424429 -431.66312 
L 751.273172 -405.95424 
L 731.121915 -435.936515 
L 710.970658 -403.774214 
L 690.8194 -466.192828 
L 670.668143 -405.453167 
L 650.516886 -437.038133 
L 630.365629 -426.779616 
L 610.214371 -419.863453 
L 590.063114 -391.133715 
L 569.911857 -435.100523 
L 549.7606 -421.458837 
L 529.609342 -436.022072 
L 509.458085 -430.82584 
L 489.306828 -396.02539 
L 469.155571 -443.835883 
L 449.004313 -451.624169 
L 428.853056 -409.95001 
L 408.701799 -441.345011 
L 388.550542 -428.907606 
L 368.399284 -459.519401 
L 348.248027 -448.078672 
L 328.09677 -414.219649 
L 307.945513 -458.927685 
L 287.794255 -432.675643 
L 267.642998 -444.113742 
L 247.491741 -475.755937 
L 227.340484 -448.438262 
L 207.189226 -444.951938 
L 187.037969 -461.85736 
L 166.886712 -437.052764 
L 146.735455 -420.7974 
z
" style="stroke: #1f77b4; stroke-opacity: 0.2"/>
    </defs>
    <g clip-path="url(#p115e032188)">
     <use xlink:href="#md39cec0059" x="0" y="576" style="fill: #1f77b4; fill-opacity: 0.2; stroke: #1f77b4; stroke-opacity: 0.2"/>
    </g>
   </g>
   <g id="PolyCollection_2">
    <defs>
     <path id="m11be69dd36" d="M 146.735455 -446.252708 
L 146.735455 -365.878869 
L 166.886712 -469.127941 
L 187.037969 -489.110646 
L 207.189226 -446.774038 
L 227.340484 -513.026379 
L 247.491741 -462.511442 
L 267.642998 -457.639235 
L 287.794255 -463.469915 
L 307.945513 -416.118072 
L 328.09677 -440.144129 
L 348.248027 -468.067618 
L 368.399284 -481.549213 
L 388.550542 -463.865032 
L 408.701799 -387.154302 
L 428.853056 -457.053326 
L 449.004313 -443.673394 
L 469.155571 -474.98821 
L 489.306828 -421.723381 
L 509.458085 -436.281449 
L 529.609342 -452.726972 
L 549.7606 -437.280186 
L 569.911857 -466.805065 
L 590.063114 -389.74517 
L 610.214371 -479.698732 
L 630.365629 -461.526324 
L 650.516886 -377.147101 
L 670.668143 -387.205008 
L 690.8194 -442.09987 
L 710.970658 -400.548663 
L 731.121915 -413.940501 
L 751.273172 -407.122472 
L 771.424429 -448.988021 
L 791.575687 -417.301782 
L 811.726944 -462.044709 
L 831.878201 -322.952297 
L 852.029458 -415.921699 
L 872.180716 -412.804515 
L 892.331973 -395.111986 
L 912.48323 -301.713978 
L 932.634487 -401.130702 
L 952.785745 -463.15529 
L 972.937002 -440.12928 
L 993.088259 -434.741509 
L 1013.239516 -422.714336 
L 1033.390774 -386.035751 
L 1053.542031 -413.016356 
L 1073.693288 -417.936336 
L 1093.844545 -402.04349 
L 1093.844545 -497.854088 
L 1093.844545 -497.854088 
L 1073.693288 -473.033231 
L 1053.542031 -479.094962 
L 1033.390774 -498.622913 
L 1013.239516 -481.319345 
L 993.088259 -523.084688 
L 972.937002 -486.480883 
L 952.785745 -505.264347 
L 932.634487 -473.668833 
L 912.48323 -477.450087 
L 892.331973 -479.670004 
L 872.180716 -487.608968 
L 852.029458 -465.682879 
L 831.878201 -498.849719 
L 811.726944 -506.99135 
L 791.575687 -490.066934 
L 771.424429 -490.373967 
L 751.273172 -494.802064 
L 731.121915 -489.726405 
L 710.970658 -478.780788 
L 690.8194 -479.304117 
L 670.668143 -465.69627 
L 650.516886 -507.113842 
L 630.365629 -516.898606 
L 610.214371 -504.436223 
L 590.063114 -471.313967 
L 569.911857 -503.643815 
L 549.7606 -492.121707 
L 529.609342 -517.704653 
L 509.458085 -510.917228 
L 489.306828 -472.865208 
L 469.155571 -497.506425 
L 449.004313 -519.28251 
L 428.853056 -485.672988 
L 408.701799 -491.994484 
L 388.550542 -511.288647 
L 368.399284 -524.974083 
L 348.248027 -524.424741 
L 328.09677 -500.478673 
L 307.945513 -501.965263 
L 287.794255 -499.543173 
L 267.642998 -511.220248 
L 247.491741 -543.393091 
L 227.340484 -532.123562 
L 207.189226 -493.300277 
L 187.037969 -521.206423 
L 166.886712 -495.214686 
L 146.735455 -446.252708 
z
" style="stroke: #ff7f0e; stroke-opacity: 0.2"/>
    </defs>
    <g clip-path="url(#p115e032188)">
     <use xlink:href="#m11be69dd36" x="0" y="576" style="fill: #ff7f0e; fill-opacity: 0.2; stroke: #ff7f0e; stroke-opacity: 0.2"/>
    </g>
   </g>
   <g id="PolyCollection_3">
    <defs>
     <path id="md7656cd503" d="M 146.735455 -411.253461 
L 146.735455 -324.812932 
L 166.886712 -428.803245 
L 187.037969 -460.182606 
L 207.189226 -442.107934 
L 227.340484 -500.342866 
L 247.491741 -452.395163 
L 267.642998 -461.919181 
L 287.794255 -443.038844 
L 307.945513 -383.240768 
L 328.09677 -419.477598 
L 348.248027 -433.181852 
L 368.399284 -467.897799 
L 388.550542 -432.923717 
L 408.701799 -349.496417 
L 428.853056 -431.164667 
L 449.004313 -401.033015 
L 469.155571 -441.278659 
L 489.306828 -412.010174 
L 509.458085 -388.271197 
L 529.609342 -430.09889 
L 549.7606 -377.043918 
L 569.911857 -433.372571 
L 590.063114 -366.090688 
L 610.214371 -439.882819 
L 630.365629 -409.327505 
L 650.516886 -337.435189 
L 670.668143 -361.358828 
L 690.8194 -409.304846 
L 710.970658 -374.65667 
L 731.121915 -388.409151 
L 751.273172 -381.480111 
L 771.424429 -433.159499 
L 791.575687 -404.579488 
L 811.726944 -446.112913 
L 831.878201 -234.594569 
L 852.029458 -364.790798 
L 872.180716 -377.233376 
L 892.331973 -366.35949 
L 912.48323 -254.757772 
L 932.634487 -348.025485 
L 952.785745 -418.489983 
L 972.937002 -379.44904 
L 993.088259 -410.86569 
L 1013.239516 -373.704487 
L 1033.390774 -371.637807 
L 1053.542031 -353.038487 
L 1073.693288 -398.432264 
L 1093.844545 -330.73641 
L 1093.844545 -472.401054 
L 1093.844545 -472.401054 
L 1073.693288 -439.108651 
L 1053.542031 -447.762085 
L 1033.390774 -474.613386 
L 1013.239516 -447.302675 
L 993.088259 -457.502797 
L 972.937002 -462.332118 
L 952.785745 -491.470554 
L 932.634487 -422.529916 
L 912.48323 -483.556164 
L 892.331973 -449.724787 
L 872.180716 -469.35862 
L 852.029458 -441.069601 
L 831.878201 -482.392248 
L 811.726944 -495.694217 
L 791.575687 -480.937352 
L 771.424429 -453.110276 
L 751.273172 -472.801476 
L 731.121915 -476.278017 
L 710.970658 -446.237671 
L 690.8194 -464.546885 
L 670.668143 -433.296701 
L 650.516886 -488.434888 
L 630.365629 -488.545812 
L 610.214371 -492.309107 
L 590.063114 -466.625123 
L 569.911857 -488.076045 
L 549.7606 -458.052387 
L 529.609342 -488.256699 
L 509.458085 -497.27995 
L 489.306828 -478.227972 
L 469.155571 -481.722851 
L 449.004313 -496.013629 
L 428.853056 -464.934628 
L 408.701799 -471.580661 
L 388.550542 -476.335334 
L 368.399284 -513.584951 
L 348.248027 -475.351018 
L 328.09677 -491.091754 
L 307.945513 -467.512673 
L 287.794255 -470.354642 
L 267.642998 -484.699068 
L 247.491741 -511.553011 
L 227.340484 -528.882102 
L 207.189226 -512.056546 
L 187.037969 -484.956368 
L 166.886712 -494.781104 
L 146.735455 -411.253461 
z
" style="stroke: #2ca02c; stroke-opacity: 0.2"/>
    </defs>
    <g clip-path="url(#p115e032188)">
     <use xlink:href="#md7656cd503" x="0" y="576" style="fill: #2ca02c; fill-opacity: 0.2; stroke: #2ca02c; stroke-opacity: 0.2"/>
    </g>
   </g>
   <g id="PolyCollection_4">
    <defs>
     <path id="m0eccaafa17" d="M 146.735455 -269.087525 
L 146.735455 -191.380355 
L 166.886712 -277.429677 
L 187.037969 -320.518232 
L 207.189226 -270.350405 
L 227.340484 -301.368938 
L 247.491741 -305.717379 
L 267.642998 -282.876085 
L 287.794255 -243.935405 
L 307.945513 -245.916379 
L 328.09677 -290.427505 
L 348.248027 -289.826159 
L 368.399284 -293.906249 
L 388.550542 -279.447195 
L 408.701799 -207.021183 
L 428.853056 -279.043473 
L 449.004313 -234.254539 
L 469.155571 -263.850533 
L 489.306828 -226.534091 
L 509.458085 -220.712909 
L 529.609342 -272.167127 
L 549.7606 -244.250985 
L 569.911857 -254.471661 
L 590.063114 -206.884911 
L 610.214371 -287.145011 
L 630.365629 -298.850055 
L 650.516886 -164.998569 
L 670.668143 -264.410847 
L 690.8194 -215.299927 
L 710.970658 -211.697311 
L 731.121915 -249.528743 
L 751.273172 -164.452572 
L 771.424429 -202.91701 
L 791.575687 -239.468481 
L 811.726944 -260.75489 
L 831.878201 -197.927036 
L 852.029458 -253.252907 
L 872.180716 -212.742018 
L 892.331973 -281.217231 
L 912.48323 -107.254909 
L 932.634487 -271.185423 
L 952.785745 -248.65357 
L 972.937002 -267.41264 
L 993.088259 -263.753347 
L 1013.239516 -242.967141 
L 1033.390774 -240.928308 
L 1053.542031 -201.503856 
L 1073.693288 -240.081134 
L 1093.844545 -226.702251 
L 1093.844545 -338.966966 
L 1093.844545 -338.966966 
L 1073.693288 -305.922358 
L 1053.542031 -271.036035 
L 1033.390774 -298.62099 
L 1013.239516 -322.721855 
L 993.088259 -328.33806 
L 972.937002 -303.103677 
L 952.785745 -317.471571 
L 932.634487 -331.52553 
L 912.48323 -332.458645 
L 892.331973 -352.898747 
L 872.180716 -316.496779 
L 852.029458 -310.183465 
L 831.878201 -317.151959 
L 811.726944 -343.737377 
L 791.575687 -346.160978 
L 771.424429 -336.285546 
L 751.273172 -298.377479 
L 731.121915 -299.949166 
L 710.970658 -338.522054 
L 690.8194 -316.924218 
L 670.668143 -312.533878 
L 650.516886 -351.692197 
L 630.365629 -352.499987 
L 610.214371 -336.788947 
L 590.063114 -320.66606 
L 569.911857 -344.89075 
L 549.7606 -312.069852 
L 529.609342 -313.015158 
L 509.458085 -337.219681 
L 489.306828 -293.689706 
L 469.155571 -332.915722 
L 449.004313 -320.176965 
L 428.853056 -325.132364 
L 408.701799 -336.926502 
L 388.550542 -343.137898 
L 368.399284 -339.661931 
L 348.248027 -327.389933 
L 328.09677 -321.834403 
L 307.945513 -351.819388 
L 287.794255 -318.414927 
L 267.642998 -332.21061 
L 247.491741 -366.56884 
L 227.340484 -352.626468 
L 207.189226 -342.117532 
L 187.037969 -356.064633 
L 166.886712 -343.959409 
L 146.735455 -269.087525 
z
" style="stroke: #d62728; stroke-opacity: 0.2"/>
    </defs>
    <g clip-path="url(#p115e032188)">
     <use xlink:href="#m0eccaafa17" x="0" y="576" style="fill: #d62728; fill-opacity: 0.2; stroke: #d62728; stroke-opacity: 0.2"/>
    </g>
   </g>
   <g id="matplotlib.axis_1">
    <g id="xtick_1">
     <g id="line2d_1">
      <defs>
       <path id="mf2e2ee0388" d="M 0 0 
L 0 3.5 
" style="stroke: #000000; stroke-width: 0.8"/>
      </defs>
      <g>
       <use xlink:href="#mf2e2ee0388" x="136.659826" y="490.552" style="stroke: #000000; stroke-width: 0.8"/>
      </g>
     </g>
     <g id="text_1">
      <!-- 0 -->
      <g transform="translate(130.297326 512.748875) scale(0.2 -0.2)">
       <defs>
        <path id="DejaVuSans-30" d="M 2034 4250 
Q 1547 4250 1301 3770 
Q 1056 3291 1056 2328 
Q 1056 1369 1301 889 
Q 1547 409 2034 409 
Q 2525 409 2770 889 
Q 3016 1369 3016 2328 
Q 3016 3291 2770 3770 
Q 2525 4250 2034 4250 
z
M 2034 4750 
Q 2819 4750 3233 4129 
Q 3647 3509 3647 2328 
Q 3647 1150 3233 529 
Q 2819 -91 2034 -91 
Q 1250 -91 836 529 
Q 422 1150 422 2328 
Q 422 3509 836 4129 
Q 1250 4750 2034 4750 
z
" transform="scale(0.015625)"/>
       </defs>
       <use xlink:href="#DejaVuSans-30"/>
      </g>
     </g>
    </g>
    <g id="xtick_2">
     <g id="line2d_2">
      <g>
       <use xlink:href="#mf2e2ee0388" x="338.172398" y="490.552" style="stroke: #000000; stroke-width: 0.8"/>
      </g>
     </g>
     <g id="text_2">
      <!-- 20 -->
      <g transform="translate(325.447398 512.748875) scale(0.2 -0.2)">
       <defs>
        <path id="DejaVuSans-32" d="M 1228 531 
L 3431 531 
L 3431 0 
L 469 0 
L 469 531 
Q 828 903 1448 1529 
Q 2069 2156 2228 2338 
Q 2531 2678 2651 2914 
Q 2772 3150 2772 3378 
Q 2772 3750 2511 3984 
Q 2250 4219 1831 4219 
Q 1534 4219 1204 4116 
Q 875 4013 500 3803 
L 500 4441 
Q 881 4594 1212 4672 
Q 1544 4750 1819 4750 
Q 2544 4750 2975 4387 
Q 3406 4025 3406 3419 
Q 3406 3131 3298 2873 
Q 3191 2616 2906 2266 
Q 2828 2175 2409 1742 
Q 1991 1309 1228 531 
z
" transform="scale(0.015625)"/>
       </defs>
       <use xlink:href="#DejaVuSans-32"/>
       <use xlink:href="#DejaVuSans-30" x="63.623047"/>
      </g>
     </g>
    </g>
    <g id="xtick_3">
     <g id="line2d_3">
      <g>
       <use xlink:href="#mf2e2ee0388" x="539.684971" y="490.552" style="stroke: #000000; stroke-width: 0.8"/>
      </g>
     </g>
     <g id="text_3">
      <!-- 40 -->
      <g transform="translate(526.959971 512.748875) scale(0.2 -0.2)">
       <defs>
        <path id="DejaVuSans-34" d="M 2419 4116 
L 825 1625 
L 2419 1625 
L 2419 4116 
z
M 2253 4666 
L 3047 4666 
L 3047 1625 
L 3713 1625 
L 3713 1100 
L 3047 1100 
L 3047 0 
L 2419 0 
L 2419 1100 
L 313 1100 
L 313 1709 
L 2253 4666 
z
" transform="scale(0.015625)"/>
       </defs>
       <use xlink:href="#DejaVuSans-34"/>
       <use xlink:href="#DejaVuSans-30" x="63.623047"/>
      </g>
     </g>
    </g>
    <g id="xtick_4">
     <g id="line2d_4">
      <g>
       <use xlink:href="#mf2e2ee0388" x="741.197544" y="490.552" style="stroke: #000000; stroke-width: 0.8"/>
      </g>
     </g>
     <g id="text_4">
      <!-- 60 -->
      <g transform="translate(728.472544 512.748875) scale(0.2 -0.2)">
       <defs>
        <path id="DejaVuSans-36" d="M 2113 2584 
Q 1688 2584 1439 2293 
Q 1191 2003 1191 1497 
Q 1191 994 1439 701 
Q 1688 409 2113 409 
Q 2538 409 2786 701 
Q 3034 994 3034 1497 
Q 3034 2003 2786 2293 
Q 2538 2584 2113 2584 
z
M 3366 4563 
L 3366 3988 
Q 3128 4100 2886 4159 
Q 2644 4219 2406 4219 
Q 1781 4219 1451 3797 
Q 1122 3375 1075 2522 
Q 1259 2794 1537 2939 
Q 1816 3084 2150 3084 
Q 2853 3084 3261 2657 
Q 3669 2231 3669 1497 
Q 3669 778 3244 343 
Q 2819 -91 2113 -91 
Q 1303 -91 875 529 
Q 447 1150 447 2328 
Q 447 3434 972 4092 
Q 1497 4750 2381 4750 
Q 2619 4750 2861 4703 
Q 3103 4656 3366 4563 
z
" transform="scale(0.015625)"/>
       </defs>
       <use xlink:href="#DejaVuSans-36"/>
       <use xlink:href="#DejaVuSans-30" x="63.623047"/>
      </g>
     </g>
    </g>
    <g id="xtick_5">
     <g id="line2d_5">
      <g>
       <use xlink:href="#mf2e2ee0388" x="942.710116" y="490.552" style="stroke: #000000; stroke-width: 0.8"/>
      </g>
     </g>
     <g id="text_5">
      <!-- 80 -->
      <g transform="translate(929.985116 512.748875) scale(0.2 -0.2)">
       <defs>
        <path id="DejaVuSans-38" d="M 2034 2216 
Q 1584 2216 1326 1975 
Q 1069 1734 1069 1313 
Q 1069 891 1326 650 
Q 1584 409 2034 409 
Q 2484 409 2743 651 
Q 3003 894 3003 1313 
Q 3003 1734 2745 1975 
Q 2488 2216 2034 2216 
z
M 1403 2484 
Q 997 2584 770 2862 
Q 544 3141 544 3541 
Q 544 4100 942 4425 
Q 1341 4750 2034 4750 
Q 2731 4750 3128 4425 
Q 3525 4100 3525 3541 
Q 3525 3141 3298 2862 
Q 3072 2584 2669 2484 
Q 3125 2378 3379 2068 
Q 3634 1759 3634 1313 
Q 3634 634 3220 271 
Q 2806 -91 2034 -91 
Q 1263 -91 848 271 
Q 434 634 434 1313 
Q 434 1759 690 2068 
Q 947 2378 1403 2484 
z
M 1172 3481 
Q 1172 3119 1398 2916 
Q 1625 2713 2034 2713 
Q 2441 2713 2670 2916 
Q 2900 3119 2900 3481 
Q 2900 3844 2670 4047 
Q 2441 4250 2034 4250 
Q 1625 4250 1398 4047 
Q 1172 3844 1172 3481 
z
" transform="scale(0.015625)"/>
       </defs>
       <use xlink:href="#DejaVuSans-38"/>
       <use xlink:href="#DejaVuSans-30" x="63.623047"/>
      </g>
     </g>
    </g>
    <g id="text_6">
     <!-- Percentile Threshold -->
     <g transform="translate(518.510313 536.105125) scale(0.2 -0.2)">
      <defs>
       <path id="DejaVuSans-50" d="M 1259 4147 
L 1259 2394 
L 2053 2394 
Q 2494 2394 2734 2622 
Q 2975 2850 2975 3272 
Q 2975 3691 2734 3919 
Q 2494 4147 2053 4147 
L 1259 4147 
z
M 628 4666 
L 2053 4666 
Q 2838 4666 3239 4311 
Q 3641 3956 3641 3272 
Q 3641 2581 3239 2228 
Q 2838 1875 2053 1875 
L 1259 1875 
L 1259 0 
L 628 0 
L 628 4666 
z
" transform="scale(0.015625)"/>
       <path id="DejaVuSans-65" d="M 3597 1894 
L 3597 1613 
L 953 1613 
Q 991 1019 1311 708 
Q 1631 397 2203 397 
Q 2534 397 2845 478 
Q 3156 559 3463 722 
L 3463 178 
Q 3153 47 2828 -22 
Q 2503 -91 2169 -91 
Q 1331 -91 842 396 
Q 353 884 353 1716 
Q 353 2575 817 3079 
Q 1281 3584 2069 3584 
Q 2775 3584 3186 3129 
Q 3597 2675 3597 1894 
z
M 3022 2063 
Q 3016 2534 2758 2815 
Q 2500 3097 2075 3097 
Q 1594 3097 1305 2825 
Q 1016 2553 972 2059 
L 3022 2063 
z
" transform="scale(0.015625)"/>
       <path id="DejaVuSans-72" d="M 2631 2963 
Q 2534 3019 2420 3045 
Q 2306 3072 2169 3072 
Q 1681 3072 1420 2755 
Q 1159 2438 1159 1844 
L 1159 0 
L 581 0 
L 581 3500 
L 1159 3500 
L 1159 2956 
Q 1341 3275 1631 3429 
Q 1922 3584 2338 3584 
Q 2397 3584 2469 3576 
Q 2541 3569 2628 3553 
L 2631 2963 
z
" transform="scale(0.015625)"/>
       <path id="DejaVuSans-63" d="M 3122 3366 
L 3122 2828 
Q 2878 2963 2633 3030 
Q 2388 3097 2138 3097 
Q 1578 3097 1268 2742 
Q 959 2388 959 1747 
Q 959 1106 1268 751 
Q 1578 397 2138 397 
Q 2388 397 2633 464 
Q 2878 531 3122 666 
L 3122 134 
Q 2881 22 2623 -34 
Q 2366 -91 2075 -91 
Q 1284 -91 818 406 
Q 353 903 353 1747 
Q 353 2603 823 3093 
Q 1294 3584 2113 3584 
Q 2378 3584 2631 3529 
Q 2884 3475 3122 3366 
z
" transform="scale(0.015625)"/>
       <path id="DejaVuSans-6e" d="M 3513 2113 
L 3513 0 
L 2938 0 
L 2938 2094 
Q 2938 2591 2744 2837 
Q 2550 3084 2163 3084 
Q 1697 3084 1428 2787 
Q 1159 2491 1159 1978 
L 1159 0 
L 581 0 
L 581 3500 
L 1159 3500 
L 1159 2956 
Q 1366 3272 1645 3428 
Q 1925 3584 2291 3584 
Q 2894 3584 3203 3211 
Q 3513 2838 3513 2113 
z
" transform="scale(0.015625)"/>
       <path id="DejaVuSans-74" d="M 1172 4494 
L 1172 3500 
L 2356 3500 
L 2356 3053 
L 1172 3053 
L 1172 1153 
Q 1172 725 1289 603 
Q 1406 481 1766 481 
L 2356 481 
L 2356 0 
L 1766 0 
Q 1100 0 847 248 
Q 594 497 594 1153 
L 594 3053 
L 172 3053 
L 172 3500 
L 594 3500 
L 594 4494 
L 1172 4494 
z
" transform="scale(0.015625)"/>
       <path id="DejaVuSans-69" d="M 603 3500 
L 1178 3500 
L 1178 0 
L 603 0 
L 603 3500 
z
M 603 4863 
L 1178 4863 
L 1178 4134 
L 603 4134 
L 603 4863 
z
" transform="scale(0.015625)"/>
       <path id="DejaVuSans-6c" d="M 603 4863 
L 1178 4863 
L 1178 0 
L 603 0 
L 603 4863 
z
" transform="scale(0.015625)"/>
       <path id="DejaVuSans-20" transform="scale(0.015625)"/>
       <path id="DejaVuSans-54" d="M -19 4666 
L 3928 4666 
L 3928 4134 
L 2272 4134 
L 2272 0 
L 1638 0 
L 1638 4134 
L -19 4134 
L -19 4666 
z
" transform="scale(0.015625)"/>
       <path id="DejaVuSans-68" d="M 3513 2113 
L 3513 0 
L 2938 0 
L 2938 2094 
Q 2938 2591 2744 2837 
Q 2550 3084 2163 3084 
Q 1697 3084 1428 2787 
Q 1159 2491 1159 1978 
L 1159 0 
L 581 0 
L 581 4863 
L 1159 4863 
L 1159 2956 
Q 1366 3272 1645 3428 
Q 1925 3584 2291 3584 
Q 2894 3584 3203 3211 
Q 3513 2838 3513 2113 
z
" transform="scale(0.015625)"/>
       <path id="DejaVuSans-73" d="M 2834 3397 
L 2834 2853 
Q 2591 2978 2328 3040 
Q 2066 3103 1784 3103 
Q 1356 3103 1142 2972 
Q 928 2841 928 2578 
Q 928 2378 1081 2264 
Q 1234 2150 1697 2047 
L 1894 2003 
Q 2506 1872 2764 1633 
Q 3022 1394 3022 966 
Q 3022 478 2636 193 
Q 2250 -91 1575 -91 
Q 1294 -91 989 -36 
Q 684 19 347 128 
L 347 722 
Q 666 556 975 473 
Q 1284 391 1588 391 
Q 1994 391 2212 530 
Q 2431 669 2431 922 
Q 2431 1156 2273 1281 
Q 2116 1406 1581 1522 
L 1381 1569 
Q 847 1681 609 1914 
Q 372 2147 372 2553 
Q 372 3047 722 3315 
Q 1072 3584 1716 3584 
Q 2034 3584 2315 3537 
Q 2597 3491 2834 3397 
z
" transform="scale(0.015625)"/>
       <path id="DejaVuSans-6f" d="M 1959 3097 
Q 1497 3097 1228 2736 
Q 959 2375 959 1747 
Q 959 1119 1226 758 
Q 1494 397 1959 397 
Q 2419 397 2687 759 
Q 2956 1122 2956 1747 
Q 2956 2369 2687 2733 
Q 2419 3097 1959 3097 
z
M 1959 3584 
Q 2709 3584 3137 3096 
Q 3566 2609 3566 1747 
Q 3566 888 3137 398 
Q 2709 -91 1959 -91 
Q 1206 -91 779 398 
Q 353 888 353 1747 
Q 353 2609 779 3096 
Q 1206 3584 1959 3584 
z
" transform="scale(0.015625)"/>
       <path id="DejaVuSans-64" d="M 2906 2969 
L 2906 4863 
L 3481 4863 
L 3481 0 
L 2906 0 
L 2906 525 
Q 2725 213 2448 61 
Q 2172 -91 1784 -91 
Q 1150 -91 751 415 
Q 353 922 353 1747 
Q 353 2572 751 3078 
Q 1150 3584 1784 3584 
Q 2172 3584 2448 3432 
Q 2725 3281 2906 2969 
z
M 947 1747 
Q 947 1113 1208 752 
Q 1469 391 1925 391 
Q 2381 391 2643 752 
Q 2906 1113 2906 1747 
Q 2906 2381 2643 2742 
Q 2381 3103 1925 3103 
Q 1469 3103 1208 2742 
Q 947 2381 947 1747 
z
" transform="scale(0.015625)"/>
      </defs>
      <use xlink:href="#DejaVuSans-50"/>
      <use xlink:href="#DejaVuSans-65" x="56.677734"/>
      <use xlink:href="#DejaVuSans-72" x="118.201172"/>
      <use xlink:href="#DejaVuSans-63" x="157.064453"/>
      <use xlink:href="#DejaVuSans-65" x="212.044922"/>
      <use xlink:href="#DejaVuSans-6e" x="273.568359"/>
      <use xlink:href="#DejaVuSans-74" x="336.947266"/>
      <use xlink:href="#DejaVuSans-69" x="376.15625"/>
      <use xlink:href="#DejaVuSans-6c" x="403.939453"/>
      <use xlink:href="#DejaVuSans-65" x="431.722656"/>
      <use xlink:href="#DejaVuSans-20" x="493.246094"/>
      <use xlink:href="#DejaVuSans-54" x="525.033203"/>
      <use xlink:href="#DejaVuSans-68" x="586.117188"/>
      <use xlink:href="#DejaVuSans-72" x="649.496094"/>
      <use xlink:href="#DejaVuSans-65" x="688.359375"/>
      <use xlink:href="#DejaVuSans-73" x="749.882812"/>
      <use xlink:href="#DejaVuSans-68" x="801.982422"/>
      <use xlink:href="#DejaVuSans-6f" x="865.361328"/>
      <use xlink:href="#DejaVuSans-6c" x="926.542969"/>
      <use xlink:href="#DejaVuSans-64" x="954.326172"/>
     </g>
     <!-- (Using "random" Threshold Handling) -->
     <g transform="translate(433.122813 558.50075) scale(0.2 -0.2)">
      <defs>
       <path id="DejaVuSans-28" d="M 1984 4856 
Q 1566 4138 1362 3434 
Q 1159 2731 1159 2009 
Q 1159 1288 1364 580 
Q 1569 -128 1984 -844 
L 1484 -844 
Q 1016 -109 783 600 
Q 550 1309 550 2009 
Q 550 2706 781 3412 
Q 1013 4119 1484 4856 
L 1984 4856 
z
" transform="scale(0.015625)"/>
       <path id="DejaVuSans-55" d="M 556 4666 
L 1191 4666 
L 1191 1831 
Q 1191 1081 1462 751 
Q 1734 422 2344 422 
Q 2950 422 3222 751 
Q 3494 1081 3494 1831 
L 3494 4666 
L 4128 4666 
L 4128 1753 
Q 4128 841 3676 375 
Q 3225 -91 2344 -91 
Q 1459 -91 1007 375 
Q 556 841 556 1753 
L 556 4666 
z
" transform="scale(0.015625)"/>
       <path id="DejaVuSans-67" d="M 2906 1791 
Q 2906 2416 2648 2759 
Q 2391 3103 1925 3103 
Q 1463 3103 1205 2759 
Q 947 2416 947 1791 
Q 947 1169 1205 825 
Q 1463 481 1925 481 
Q 2391 481 2648 825 
Q 2906 1169 2906 1791 
z
M 3481 434 
Q 3481 -459 3084 -895 
Q 2688 -1331 1869 -1331 
Q 1566 -1331 1297 -1286 
Q 1028 -1241 775 -1147 
L 775 -588 
Q 1028 -725 1275 -790 
Q 1522 -856 1778 -856 
Q 2344 -856 2625 -561 
Q 2906 -266 2906 331 
L 2906 616 
Q 2728 306 2450 153 
Q 2172 0 1784 0 
Q 1141 0 747 490 
Q 353 981 353 1791 
Q 353 2603 747 3093 
Q 1141 3584 1784 3584 
Q 2172 3584 2450 3431 
Q 2728 3278 2906 2969 
L 2906 3500 
L 3481 3500 
L 3481 434 
z
" transform="scale(0.015625)"/>
       <path id="DejaVuSans-22" d="M 1147 4666 
L 1147 2931 
L 616 2931 
L 616 4666 
L 1147 4666 
z
M 2328 4666 
L 2328 2931 
L 1797 2931 
L 1797 4666 
L 2328 4666 
z
" transform="scale(0.015625)"/>
       <path id="DejaVuSans-61" d="M 2194 1759 
Q 1497 1759 1228 1600 
Q 959 1441 959 1056 
Q 959 750 1161 570 
Q 1363 391 1709 391 
Q 2188 391 2477 730 
Q 2766 1069 2766 1631 
L 2766 1759 
L 2194 1759 
z
M 3341 1997 
L 3341 0 
L 2766 0 
L 2766 531 
Q 2569 213 2275 61 
Q 1981 -91 1556 -91 
Q 1019 -91 701 211 
Q 384 513 384 1019 
Q 384 1609 779 1909 
Q 1175 2209 1959 2209 
L 2766 2209 
L 2766 2266 
Q 2766 2663 2505 2880 
Q 2244 3097 1772 3097 
Q 1472 3097 1187 3025 
Q 903 2953 641 2809 
L 641 3341 
Q 956 3463 1253 3523 
Q 1550 3584 1831 3584 
Q 2591 3584 2966 3190 
Q 3341 2797 3341 1997 
z
" transform="scale(0.015625)"/>
       <path id="DejaVuSans-6d" d="M 3328 2828 
Q 3544 3216 3844 3400 
Q 4144 3584 4550 3584 
Q 5097 3584 5394 3201 
Q 5691 2819 5691 2113 
L 5691 0 
L 5113 0 
L 5113 2094 
Q 5113 2597 4934 2840 
Q 4756 3084 4391 3084 
Q 3944 3084 3684 2787 
Q 3425 2491 3425 1978 
L 3425 0 
L 2847 0 
L 2847 2094 
Q 2847 2600 2669 2842 
Q 2491 3084 2119 3084 
Q 1678 3084 1418 2786 
Q 1159 2488 1159 1978 
L 1159 0 
L 581 0 
L 581 3500 
L 1159 3500 
L 1159 2956 
Q 1356 3278 1631 3431 
Q 1906 3584 2284 3584 
Q 2666 3584 2933 3390 
Q 3200 3197 3328 2828 
z
" transform="scale(0.015625)"/>
       <path id="DejaVuSans-48" d="M 628 4666 
L 1259 4666 
L 1259 2753 
L 3553 2753 
L 3553 4666 
L 4184 4666 
L 4184 0 
L 3553 0 
L 3553 2222 
L 1259 2222 
L 1259 0 
L 628 0 
L 628 4666 
z
" transform="scale(0.015625)"/>
       <path id="DejaVuSans-29" d="M 513 4856 
L 1013 4856 
Q 1481 4119 1714 3412 
Q 1947 2706 1947 2009 
Q 1947 1309 1714 600 
Q 1481 -109 1013 -844 
L 513 -844 
Q 928 -128 1133 580 
Q 1338 1288 1338 2009 
Q 1338 2731 1133 3434 
Q 928 4138 513 4856 
z
" transform="scale(0.015625)"/>
      </defs>
      <use xlink:href="#DejaVuSans-28"/>
      <use xlink:href="#DejaVuSans-55" x="39.013672"/>
      <use xlink:href="#DejaVuSans-73" x="112.207031"/>
      <use xlink:href="#DejaVuSans-69" x="164.306641"/>
      <use xlink:href="#DejaVuSans-6e" x="192.089844"/>
      <use xlink:href="#DejaVuSans-67" x="255.46875"/>
      <use xlink:href="#DejaVuSans-20" x="318.945312"/>
      <use xlink:href="#DejaVuSans-22" x="350.732422"/>
      <use xlink:href="#DejaVuSans-72" x="396.728516"/>
      <use xlink:href="#DejaVuSans-61" x="437.841797"/>
      <use xlink:href="#DejaVuSans-6e" x="499.121094"/>
      <use xlink:href="#DejaVuSans-64" x="562.5"/>
      <use xlink:href="#DejaVuSans-6f" x="625.976562"/>
      <use xlink:href="#DejaVuSans-6d" x="687.158203"/>
      <use xlink:href="#DejaVuSans-22" x="784.570312"/>
      <use xlink:href="#DejaVuSans-20" x="830.566406"/>
      <use xlink:href="#DejaVuSans-54" x="862.353516"/>
      <use xlink:href="#DejaVuSans-68" x="923.4375"/>
      <use xlink:href="#DejaVuSans-72" x="986.816406"/>
      <use xlink:href="#DejaVuSans-65" x="1025.679688"/>
      <use xlink:href="#DejaVuSans-73" x="1087.203125"/>
      <use xlink:href="#DejaVuSans-68" x="1139.302734"/>
      <use xlink:href="#DejaVuSans-6f" x="1202.681641"/>
      <use xlink:href="#DejaVuSans-6c" x="1263.863281"/>
      <use xlink:href="#DejaVuSans-64" x="1291.646484"/>
      <use xlink:href="#DejaVuSans-20" x="1355.123047"/>
      <use xlink:href="#DejaVuSans-48" x="1386.910156"/>
      <use xlink:href="#DejaVuSans-61" x="1462.105469"/>
      <use xlink:href="#DejaVuSans-6e" x="1523.384766"/>
      <use xlink:href="#DejaVuSans-64" x="1586.763672"/>
      <use xlink:href="#DejaVuSans-6c" x="1650.240234"/>
      <use xlink:href="#DejaVuSans-69" x="1678.023438"/>
      <use xlink:href="#DejaVuSans-6e" x="1705.806641"/>
      <use xlink:href="#DejaVuSans-67" x="1769.185547"/>
      <use xlink:href="#DejaVuSans-29" x="1832.662109"/>
     </g>
    </g>
   </g>
   <g id="matplotlib.axis_2">
    <g id="ytick_1">
     <g id="line2d_6">
      <defs>
       <path id="m07ebae1375" d="M 0 0 
L -3.5 0 
" style="stroke: #000000; stroke-width: 0.8"/>
      </defs>
      <g>
       <use xlink:href="#m07ebae1375" x="99.38" y="457.391659" style="stroke: #000000; stroke-width: 0.8"/>
      </g>
     </g>
     <g id="text_7">
      <!-- 0.940 -->
      <g transform="translate(35.12375 464.990097) scale(0.2 -0.2)">
       <defs>
        <path id="DejaVuSans-2e" d="M 684 794 
L 1344 794 
L 1344 0 
L 684 0 
L 684 794 
z
" transform="scale(0.015625)"/>
        <path id="DejaVuSans-39" d="M 703 97 
L 703 672 
Q 941 559 1184 500 
Q 1428 441 1663 441 
Q 2288 441 2617 861 
Q 2947 1281 2994 2138 
Q 2813 1869 2534 1725 
Q 2256 1581 1919 1581 
Q 1219 1581 811 2004 
Q 403 2428 403 3163 
Q 403 3881 828 4315 
Q 1253 4750 1959 4750 
Q 2769 4750 3195 4129 
Q 3622 3509 3622 2328 
Q 3622 1225 3098 567 
Q 2575 -91 1691 -91 
Q 1453 -91 1209 -44 
Q 966 3 703 97 
z
M 1959 2075 
Q 2384 2075 2632 2365 
Q 2881 2656 2881 3163 
Q 2881 3666 2632 3958 
Q 2384 4250 1959 4250 
Q 1534 4250 1286 3958 
Q 1038 3666 1038 3163 
Q 1038 2656 1286 2365 
Q 1534 2075 1959 2075 
z
" transform="scale(0.015625)"/>
       </defs>
       <use xlink:href="#DejaVuSans-30"/>
       <use xlink:href="#DejaVuSans-2e" x="63.623047"/>
       <use xlink:href="#DejaVuSans-39" x="95.410156"/>
       <use xlink:href="#DejaVuSans-34" x="159.033203"/>
       <use xlink:href="#DejaVuSans-30" x="222.65625"/>
      </g>
     </g>
    </g>
    <g id="ytick_2">
     <g id="line2d_7">
      <g>
       <use xlink:href="#m07ebae1375" x="99.38" y="392.507074" style="stroke: #000000; stroke-width: 0.8"/>
      </g>
     </g>
     <g id="text_8">
      <!-- 0.945 -->
      <g transform="translate(35.12375 400.105511) scale(0.2 -0.2)">
       <defs>
        <path id="DejaVuSans-35" d="M 691 4666 
L 3169 4666 
L 3169 4134 
L 1269 4134 
L 1269 2991 
Q 1406 3038 1543 3061 
Q 1681 3084 1819 3084 
Q 2600 3084 3056 2656 
Q 3513 2228 3513 1497 
Q 3513 744 3044 326 
Q 2575 -91 1722 -91 
Q 1428 -91 1123 -41 
Q 819 9 494 109 
L 494 744 
Q 775 591 1075 516 
Q 1375 441 1709 441 
Q 2250 441 2565 725 
Q 2881 1009 2881 1497 
Q 2881 1984 2565 2268 
Q 2250 2553 1709 2553 
Q 1456 2553 1204 2497 
Q 953 2441 691 2322 
L 691 4666 
z
" transform="scale(0.015625)"/>
       </defs>
       <use xlink:href="#DejaVuSans-30"/>
       <use xlink:href="#DejaVuSans-2e" x="63.623047"/>
       <use xlink:href="#DejaVuSans-39" x="95.410156"/>
       <use xlink:href="#DejaVuSans-34" x="159.033203"/>
       <use xlink:href="#DejaVuSans-35" x="222.65625"/>
      </g>
     </g>
    </g>
    <g id="ytick_3">
     <g id="line2d_8">
      <g>
       <use xlink:href="#m07ebae1375" x="99.38" y="327.622488" style="stroke: #000000; stroke-width: 0.8"/>
      </g>
     </g>
     <g id="text_9">
      <!-- 0.950 -->
      <g transform="translate(35.12375 335.220926) scale(0.2 -0.2)">
       <use xlink:href="#DejaVuSans-30"/>
       <use xlink:href="#DejaVuSans-2e" x="63.623047"/>
       <use xlink:href="#DejaVuSans-39" x="95.410156"/>
       <use xlink:href="#DejaVuSans-35" x="159.033203"/>
       <use xlink:href="#DejaVuSans-30" x="222.65625"/>
      </g>
     </g>
    </g>
    <g id="ytick_4">
     <g id="line2d_9">
      <g>
       <use xlink:href="#m07ebae1375" x="99.38" y="262.737903" style="stroke: #000000; stroke-width: 0.8"/>
      </g>
     </g>
     <g id="text_10">
      <!-- 0.955 -->
      <g transform="translate(35.12375 270.33634) scale(0.2 -0.2)">
       <use xlink:href="#DejaVuSans-30"/>
       <use xlink:href="#DejaVuSans-2e" x="63.623047"/>
       <use xlink:href="#DejaVuSans-39" x="95.410156"/>
       <use xlink:href="#DejaVuSans-35" x="159.033203"/>
       <use xlink:href="#DejaVuSans-35" x="222.65625"/>
      </g>
     </g>
    </g>
    <g id="ytick_5">
     <g id="line2d_10">
      <g>
       <use xlink:href="#m07ebae1375" x="99.38" y="197.853317" style="stroke: #000000; stroke-width: 0.8"/>
      </g>
     </g>
     <g id="text_11">
      <!-- 0.960 -->
      <g transform="translate(35.12375 205.451755) scale(0.2 -0.2)">
       <use xlink:href="#DejaVuSans-30"/>
       <use xlink:href="#DejaVuSans-2e" x="63.623047"/>
       <use xlink:href="#DejaVuSans-39" x="95.410156"/>
       <use xlink:href="#DejaVuSans-36" x="159.033203"/>
       <use xlink:href="#DejaVuSans-30" x="222.65625"/>
      </g>
     </g>
    </g>
    <g id="ytick_6">
     <g id="line2d_11">
      <g>
       <use xlink:href="#m07ebae1375" x="99.38" y="132.968732" style="stroke: #000000; stroke-width: 0.8"/>
      </g>
     </g>
     <g id="text_12">
      <!-- 0.965 -->
      <g transform="translate(35.12375 140.567169) scale(0.2 -0.2)">
       <use xlink:href="#DejaVuSans-30"/>
       <use xlink:href="#DejaVuSans-2e" x="63.623047"/>
       <use xlink:href="#DejaVuSans-39" x="95.410156"/>
       <use xlink:href="#DejaVuSans-36" x="159.033203"/>
       <use xlink:href="#DejaVuSans-35" x="222.65625"/>
      </g>
     </g>
    </g>
    <g id="ytick_7">
     <g id="line2d_12">
      <g>
       <use xlink:href="#m07ebae1375" x="99.38" y="68.084146" style="stroke: #000000; stroke-width: 0.8"/>
      </g>
     </g>
     <g id="text_13">
      <!-- 0.970 -->
      <g transform="translate(35.12375 75.682584) scale(0.2 -0.2)">
       <defs>
        <path id="DejaVuSans-37" d="M 525 4666 
L 3525 4666 
L 3525 4397 
L 1831 0 
L 1172 0 
L 2766 4134 
L 525 4134 
L 525 4666 
z
" transform="scale(0.015625)"/>
       </defs>
       <use xlink:href="#DejaVuSans-30"/>
       <use xlink:href="#DejaVuSans-2e" x="63.623047"/>
       <use xlink:href="#DejaVuSans-39" x="95.410156"/>
       <use xlink:href="#DejaVuSans-37" x="159.033203"/>
       <use xlink:href="#DejaVuSans-30" x="222.65625"/>
      </g>
     </g>
    </g>
    <g id="text_14">
     <!-- R2 -->
     <g transform="translate(26.964375 263.986938) rotate(-90) scale(0.2 -0.2)">
      <defs>
       <path id="DejaVuSans-52" d="M 2841 2188 
Q 3044 2119 3236 1894 
Q 3428 1669 3622 1275 
L 4263 0 
L 3584 0 
L 2988 1197 
Q 2756 1666 2539 1819 
Q 2322 1972 1947 1972 
L 1259 1972 
L 1259 0 
L 628 0 
L 628 4666 
L 2053 4666 
Q 2853 4666 3247 4331 
Q 3641 3997 3641 3322 
Q 3641 2881 3436 2590 
Q 3231 2300 2841 2188 
z
M 1259 4147 
L 1259 2491 
L 2053 2491 
Q 2509 2491 2742 2702 
Q 2975 2913 2975 3322 
Q 2975 3731 2742 3939 
Q 2509 4147 2053 4147 
L 1259 4147 
z
" transform="scale(0.015625)"/>
      </defs>
      <use xlink:href="#DejaVuSans-52"/>
      <use xlink:href="#DejaVuSans-32" x="69.482422"/>
     </g>
    </g>
   </g>
   <g id="line2d_13">
    <path d="M 146.735455 211.537606 
L 166.886712 167.877176 
L 187.037969 130.918747 
L 207.189226 167.399896 
L 227.340484 145.766267 
L 247.491741 143.661291 
L 267.642998 164.604818 
L 287.794255 158.160137 
L 307.945513 152.761047 
L 328.09677 173.783419 
L 348.248027 152.885355 
L 368.399284 139.741127 
L 388.550542 179.840659 
L 408.701799 189.597253 
L 428.853056 185.036593 
L 449.004313 168.171509 
L 469.155571 167.786131 
L 489.306828 211.398694 
L 509.458085 183.810761 
L 529.609342 161.064765 
L 549.7606 171.541743 
L 569.911857 179.163503 
L 590.063114 221.540845 
L 610.214371 167.259088 
L 630.365629 178.53931 
L 650.516886 205.705044 
L 670.668143 218.466152 
L 690.8194 146.609053 
L 710.970658 214.799606 
L 731.121915 178.262416 
L 751.273172 198.934516 
L 771.424429 167.713857 
L 791.575687 228.590913 
L 811.726944 170.656327 
L 831.878201 244.240993 
L 852.029458 207.844114 
L 872.180716 199.889053 
L 892.331973 218.610045 
L 912.48323 233.541802 
L 932.634487 221.855624 
L 952.785745 168.753502 
L 972.937002 204.76473 
L 993.088259 182.800121 
L 1013.239516 237.956571 
L 1033.390774 229.021628 
L 1053.542031 241.803241 
L 1073.693288 225.097588 
L 1093.844545 215.643944 
" clip-path="url(#p115e032188)" style="fill: none; stroke: #1f77b4; stroke-width: 1.5; stroke-linecap: square"/>
   </g>
   <g id="line2d_14">
    <path d="M 146.735455 168.455795 
L 166.886712 92.620465 
L 187.037969 69.167839 
L 207.189226 105.997541 
L 227.340484 53.74763 
L 247.491741 76.682408 
L 267.642998 87.992273 
L 287.794255 93.798225 
L 307.945513 117.449135 
L 328.09677 101.646435 
L 348.248027 77.250348 
L 368.399284 73.610518 
L 388.550542 89.872296 
L 408.701799 129.805137 
L 428.853056 104.502649 
L 449.004313 90.750585 
L 469.155571 89.518375 
L 489.306828 127.885218 
L 509.458085 97.851555 
L 529.609342 89.411888 
L 549.7606 112.626685 
L 569.911857 89.955111 
L 590.063114 143.373071 
L 610.214371 84.23569 
L 630.365629 82.621418 
L 650.516886 125.410302 
L 670.668143 143.202126 
L 690.8194 115.407994 
L 710.970658 133.92771 
L 731.121915 127.096485 
L 751.273172 119.712535 
L 771.424429 102.693883 
L 791.575687 120.937441 
L 811.726944 89.529534 
L 831.878201 141.199888 
L 852.029458 135.466528 
L 872.180716 123.612612 
L 892.331973 134.272716 
L 912.48323 170.486222 
L 932.634487 138.600233 
L 952.785745 92.495278 
L 972.937002 110.281815 
L 993.088259 91.174517 
L 1013.239516 121.831284 
L 1033.390774 125.750547 
L 1053.542031 130.625476 
L 1073.693288 129.62588 
L 1093.844545 128.039831 
" clip-path="url(#p115e032188)" style="fill: none; stroke: #ff7f0e; stroke-width: 1.5; stroke-linecap: square"/>
   </g>
   <g id="line2d_15">
    <path d="M 146.735455 209.873741 
L 166.886712 108.126097 
L 187.037969 102.90426 
L 207.189226 95.514101 
L 227.340484 61.044097 
L 247.491741 96.352068 
L 267.642998 101.663857 
L 287.794255 120.390798 
L 307.945513 151.182614 
L 328.09677 121.375801 
L 348.248027 123.417708 
L 368.399284 83.343533 
L 388.550542 123.531321 
L 408.701799 156.272089 
L 428.853056 127.488915 
L 449.004313 123.857485 
L 469.155571 111.467993 
L 489.306828 129.788814 
L 509.458085 127.05526 
L 529.609342 117.272528 
L 549.7606 159.71133 
L 569.911857 114.926641 
L 590.063114 152.759953 
L 610.214371 112.444079 
L 630.365629 125.121926 
L 650.516886 147.519007 
L 670.668143 175.711779 
L 690.8194 142.450724 
L 710.970658 166.255318 
L 731.121915 147.281481 
L 751.273172 145.311064 
L 771.424429 133.501149 
L 791.575687 135.151485 
L 811.726944 103.824836 
L 831.878201 190.273479 
L 852.029458 173.10194 
L 872.180716 152.501577 
L 892.331973 166.44811 
L 912.48323 196.171365 
L 932.634487 189.865983 
L 952.785745 117.498255 
L 972.937002 151.920804 
L 993.088259 140.747527 
L 1013.239516 163.91219 
L 1033.390774 152.355503 
L 1053.542031 175.640391 
L 1073.693288 155.418644 
L 1093.844545 169.542383 
" clip-path="url(#p115e032188)" style="fill: none; stroke: #2ca02c; stroke-width: 1.5; stroke-linecap: square"/>
   </g>
   <g id="line2d_16">
    <path d="M 146.735455 343.888265 
L 166.886712 262.13437 
L 187.037969 239.171969 
L 207.189226 273.390535 
L 227.340484 246.582564 
L 247.491741 236.006881 
L 267.642998 268.689002 
L 287.794255 296.32658 
L 307.945513 263.508026 
L 328.09677 272.142804 
L 348.248027 265.86816 
L 368.399284 258.74218 
L 388.550542 262.021089 
L 408.701799 299.444445 
L 428.853056 275.015528 
L 449.004313 293.30588 
L 469.155571 279.123442 
L 489.306828 309.895034 
L 509.458085 290.346693 
L 529.609342 284.047964 
L 549.7606 297.598588 
L 569.911857 274.440862 
L 590.063114 312.279115 
L 610.214371 262.110613 
L 630.365629 248.115823 
L 650.516886 298.317321 
L 670.668143 285.661369 
L 690.8194 312.206867 
L 710.970658 302.445936 
L 731.121915 300.731546 
L 751.273172 337.404157 
L 771.424429 299.128729 
L 791.575687 282.262267 
L 811.726944 265.184554 
L 831.878201 309.64831 
L 852.029458 291.56178 
L 872.180716 310.481626 
L 892.331973 255.679294 
L 912.48323 323.704974 
L 932.634487 274.254727 
L 952.785745 288.873532 
L 972.937002 290.75872 
L 993.088259 279.943379 
L 1013.239516 294.062485 
L 1033.390774 304.813165 
L 1053.542031 337.718211 
L 1073.693288 304.15018 
L 1093.844545 296.080789 
" clip-path="url(#p115e032188)" style="fill: none; stroke: #d62728; stroke-width: 1.5; stroke-linecap: square"/>
   </g>
   <g id="line2d_17"/>
   <g id="line2d_18"/>
   <g id="line2d_19"/>
   <g id="line2d_20"/>
   <g id="patch_3">
    <path d="M 99.38 490.552 
L 99.38 10.8 
" style="fill: none; stroke: #000000; stroke-width: 0.8; stroke-linejoin: miter; stroke-linecap: square"/>
   </g>
   <g id="patch_4">
    <path d="M 1141.2 490.552 
L 1141.2 10.8 
" style="fill: none; stroke: #000000; stroke-width: 0.8; stroke-linejoin: miter; stroke-linecap: square"/>
   </g>
   <g id="patch_5">
    <path d="M 99.38 490.552 
L 1141.2 490.552 
" style="fill: none; stroke: #000000; stroke-width: 0.8; stroke-linejoin: miter; stroke-linecap: square"/>
   </g>
   <g id="patch_6">
    <path d="M 99.38 10.8 
L 1141.2 10.8 
" style="fill: none; stroke: #000000; stroke-width: 0.8; stroke-linejoin: miter; stroke-linecap: square"/>
   </g>
   <g id="legend_1">
    <g id="patch_7">
     <path d="M 110.58 482.552 
L 280.325 482.552 
Q 283.525 482.552 283.525 479.352 
L 283.525 387.012 
Q 283.525 383.812 280.325 383.812 
L 110.58 383.812 
Q 107.38 383.812 107.38 387.012 
L 107.38 479.352 
Q 107.38 482.552 110.58 482.552 
z
" style="fill: #ffffff; opacity: 0.8; stroke: #cccccc; stroke-linejoin: miter"/>
    </g>
    <g id="line2d_21">
     <path d="M 113.78 396.7695 
L 129.78 396.7695 
L 145.78 396.7695 
" style="fill: none; stroke: #1f77b4; stroke-width: 1.5; stroke-linecap: square"/>
    </g>
    <g id="text_15">
     <!-- rf -->
     <g transform="translate(158.58 402.3695) scale(0.16 -0.16)">
      <defs>
       <path id="DejaVuSans-66" d="M 2375 4863 
L 2375 4384 
L 1825 4384 
Q 1516 4384 1395 4259 
Q 1275 4134 1275 3809 
L 1275 3500 
L 2222 3500 
L 2222 3053 
L 1275 3053 
L 1275 0 
L 697 0 
L 697 3053 
L 147 3053 
L 147 3500 
L 697 3500 
L 697 3744 
Q 697 4328 969 4595 
Q 1241 4863 1831 4863 
L 2375 4863 
z
" transform="scale(0.015625)"/>
      </defs>
      <use xlink:href="#DejaVuSans-72"/>
      <use xlink:href="#DejaVuSans-66" x="41.113281"/>
     </g>
    </g>
    <g id="line2d_22">
     <path d="M 113.78 420.2545 
L 129.78 420.2545 
L 145.78 420.2545 
" style="fill: none; stroke: #ff7f0e; stroke-width: 1.5; stroke-linecap: square"/>
    </g>
    <g id="text_16">
     <!-- xgb -->
     <g transform="translate(158.58 425.8545) scale(0.16 -0.16)">
      <defs>
       <path id="DejaVuSans-78" d="M 3513 3500 
L 2247 1797 
L 3578 0 
L 2900 0 
L 1881 1375 
L 863 0 
L 184 0 
L 1544 1831 
L 300 3500 
L 978 3500 
L 1906 2253 
L 2834 3500 
L 3513 3500 
z
" transform="scale(0.015625)"/>
       <path id="DejaVuSans-62" d="M 3116 1747 
Q 3116 2381 2855 2742 
Q 2594 3103 2138 3103 
Q 1681 3103 1420 2742 
Q 1159 2381 1159 1747 
Q 1159 1113 1420 752 
Q 1681 391 2138 391 
Q 2594 391 2855 752 
Q 3116 1113 3116 1747 
z
M 1159 2969 
Q 1341 3281 1617 3432 
Q 1894 3584 2278 3584 
Q 2916 3584 3314 3078 
Q 3713 2572 3713 1747 
Q 3713 922 3314 415 
Q 2916 -91 2278 -91 
Q 1894 -91 1617 61 
Q 1341 213 1159 525 
L 1159 0 
L 581 0 
L 581 4863 
L 1159 4863 
L 1159 2969 
z
" transform="scale(0.015625)"/>
      </defs>
      <use xlink:href="#DejaVuSans-78"/>
      <use xlink:href="#DejaVuSans-67" x="59.179688"/>
      <use xlink:href="#DejaVuSans-62" x="122.65625"/>
     </g>
    </g>
    <g id="line2d_23">
     <path d="M 113.78 443.7395 
L 129.78 443.7395 
L 145.78 443.7395 
" style="fill: none; stroke: #2ca02c; stroke-width: 1.5; stroke-linecap: square"/>
    </g>
    <g id="text_17">
     <!-- gbr -->
     <g transform="translate(158.58 449.3395) scale(0.16 -0.16)">
      <use xlink:href="#DejaVuSans-67"/>
      <use xlink:href="#DejaVuSans-62" x="63.476562"/>
      <use xlink:href="#DejaVuSans-72" x="126.953125"/>
     </g>
    </g>
    <g id="line2d_24">
     <path d="M 113.78 467.2245 
L 129.78 467.2245 
L 145.78 467.2245 
" style="fill: none; stroke: #d62728; stroke-width: 1.5; stroke-linecap: square"/>
    </g>
    <g id="text_18">
     <!-- BayesianRidge -->
     <g transform="translate(158.58 472.8245) scale(0.16 -0.16)">
      <defs>
       <path id="DejaVuSans-42" d="M 1259 2228 
L 1259 519 
L 2272 519 
Q 2781 519 3026 730 
Q 3272 941 3272 1375 
Q 3272 1813 3026 2020 
Q 2781 2228 2272 2228 
L 1259 2228 
z
M 1259 4147 
L 1259 2741 
L 2194 2741 
Q 2656 2741 2882 2914 
Q 3109 3088 3109 3444 
Q 3109 3797 2882 3972 
Q 2656 4147 2194 4147 
L 1259 4147 
z
M 628 4666 
L 2241 4666 
Q 2963 4666 3353 4366 
Q 3744 4066 3744 3513 
Q 3744 3084 3544 2831 
Q 3344 2578 2956 2516 
Q 3422 2416 3680 2098 
Q 3938 1781 3938 1306 
Q 3938 681 3513 340 
Q 3088 0 2303 0 
L 628 0 
L 628 4666 
z
" transform="scale(0.015625)"/>
       <path id="DejaVuSans-79" d="M 2059 -325 
Q 1816 -950 1584 -1140 
Q 1353 -1331 966 -1331 
L 506 -1331 
L 506 -850 
L 844 -850 
Q 1081 -850 1212 -737 
Q 1344 -625 1503 -206 
L 1606 56 
L 191 3500 
L 800 3500 
L 1894 763 
L 2988 3500 
L 3597 3500 
L 2059 -325 
z
" transform="scale(0.015625)"/>
      </defs>
      <use xlink:href="#DejaVuSans-42"/>
      <use xlink:href="#DejaVuSans-61" x="68.603516"/>
      <use xlink:href="#DejaVuSans-79" x="129.882812"/>
      <use xlink:href="#DejaVuSans-65" x="189.0625"/>
      <use xlink:href="#DejaVuSans-73" x="250.585938"/>
      <use xlink:href="#DejaVuSans-69" x="302.685547"/>
      <use xlink:href="#DejaVuSans-61" x="330.46875"/>
      <use xlink:href="#DejaVuSans-6e" x="391.748047"/>
      <use xlink:href="#DejaVuSans-52" x="455.126953"/>
      <use xlink:href="#DejaVuSans-69" x="524.609375"/>
      <use xlink:href="#DejaVuSans-64" x="552.392578"/>
      <use xlink:href="#DejaVuSans-67" x="615.869141"/>
      <use xlink:href="#DejaVuSans-65" x="679.345703"/>
     </g>
    </g>
   </g>
  </g>
 </g>
 <defs>
  <clipPath id="p115e032188">
   <rect x="99.38" y="10.8" width="1041.82" height="479.752"/>
  </clipPath>
 </defs>
</svg>
