<?xml version="1.0" encoding="utf-8" standalone="no"?>
<!DOCTYPE svg PUBLIC "-//W3C//DTD SVG 1.1//EN"
  "http://www.w3.org/Graphics/SVG/1.1/DTD/svg11.dtd">
<svg xmlns:xlink="http://www.w3.org/1999/xlink" width="1152pt" height="576pt" viewBox="0 0 1152 576" xmlns="http://www.w3.org/2000/svg" version="1.1">
 <metadata>
  <rdf:RDF xmlns:dc="http://purl.org/dc/elements/1.1/" xmlns:cc="http://creativecommons.org/ns#" xmlns:rdf="http://www.w3.org/1999/02/22-rdf-syntax-ns#">
   <cc:Work>
    <dc:type rdf:resource="http://purl.org/dc/dcmitype/StillImage"/>
    <dc:date>2024-08-27T10:33:13.078924</dc:date>
    <dc:format>image/svg+xml</dc:format>
    <dc:creator>
     <cc:Agent>
      <dc:title>Matplotlib v3.7.1, https://matplotlib.org/</dc:title>
     </cc:Agent>
    </dc:creator>
   </cc:Work>
  </rdf:RDF>
 </metadata>
 <defs>
  <style type="text/css">*{stroke-linejoin: round; stroke-linecap: butt}</style>
 </defs>
 <g id="figure_1">
  <g id="patch_1">
   <path d="M 0 576 
L 1152 576 
L 1152 0 
L 0 0 
z
" style="fill: #ffffff"/>
  </g>
  <g id="axes_1">
   <g id="patch_2">
    <path d="M 67.34 490.552 
L 1141.2 490.552 
L 1141.2 10.8 
L 67.34 10.8 
z
" style="fill: #ffffff"/>
   </g>
   <g id="PolyCollection_1">
    <defs>
     <path id="ma3ac2a106d" d="M 116.151818 -157.064873 
L 116.151818 -130.784866 
L 136.922805 -113.003676 
L 157.693791 -121.880677 
L 178.464778 -122.668336 
L 199.235764 -120.281223 
L 220.00675 -107.254909 
L 240.777737 -124.350647 
L 261.548723 -121.90945 
L 282.31971 -118.686132 
L 303.090696 -128.674742 
L 323.861683 -125.520352 
L 344.632669 -122.3071 
L 365.403656 -130.6651 
L 386.174642 -137.556801 
L 406.945629 -119.156967 
L 427.716615 -132.480831 
L 448.487602 -128.937505 
L 469.258588 -126.011628 
L 490.029574 -116.043765 
L 510.800561 -133.337171 
L 531.571547 -131.482639 
L 552.342534 -131.109943 
L 573.11352 -128.59311 
L 593.884507 -121.941687 
L 614.655493 -129.283971 
L 635.42648 -135.692079 
L 656.197466 -129.332162 
L 676.968453 -129.232701 
L 697.739439 -134.457666 
L 718.510426 -113.710372 
L 739.281412 -126.404319 
L 760.052398 -124.395134 
L 780.823385 -135.288425 
L 801.594371 -123.43315 
L 822.365358 -131.946196 
L 843.136344 -138.996963 
L 863.907331 -128.696744 
L 884.678317 -130.499488 
L 905.449304 -134.247533 
L 926.22029 -123.297874 
L 946.991277 -134.273979 
L 967.762263 -131.847018 
L 988.53325 -138.797972 
L 1009.304236 -126.969902 
L 1030.075222 -131.652714 
L 1050.846209 -132.07896 
L 1071.617195 -120.771882 
L 1092.388182 -126.112477 
L 1092.388182 -153.575649 
L 1092.388182 -153.575649 
L 1071.617195 -132.707012 
L 1050.846209 -149.231295 
L 1030.075222 -140.201875 
L 1009.304236 -134.570825 
L 988.53325 -164.597284 
L 967.762263 -146.208784 
L 946.991277 -148.22205 
L 926.22029 -155.331868 
L 905.449304 -144.639241 
L 884.678317 -152.123619 
L 863.907331 -162.039253 
L 843.136344 -157.779727 
L 822.365358 -148.623368 
L 801.594371 -147.449963 
L 780.823385 -147.532029 
L 760.052398 -145.864618 
L 739.281412 -136.870371 
L 718.510426 -134.732346 
L 697.739439 -142.271869 
L 676.968453 -134.448394 
L 656.197466 -152.787349 
L 635.42648 -158.085378 
L 614.655493 -135.189254 
L 593.884507 -155.013438 
L 573.11352 -143.163652 
L 552.342534 -148.022825 
L 531.571547 -166.67205 
L 510.800561 -155.12334 
L 490.029574 -144.096862 
L 469.258588 -139.488534 
L 448.487602 -144.487296 
L 427.716615 -147.624873 
L 406.945629 -143.180847 
L 386.174642 -155.800166 
L 365.403656 -149.83869 
L 344.632669 -146.956001 
L 323.861683 -140.184195 
L 303.090696 -140.363867 
L 282.31971 -147.940926 
L 261.548723 -145.687557 
L 240.777737 -151.774228 
L 220.00675 -134.178421 
L 199.235764 -134.907007 
L 178.464778 -135.971087 
L 157.693791 -134.46959 
L 136.922805 -137.031446 
L 116.151818 -157.064873 
z
" style="stroke: #f77189; stroke-opacity: 0.2"/>
    </defs>
    <g clip-path="url(#p82653b8793)">
     <use xlink:href="#ma3ac2a106d" x="0" y="576" style="fill: #f77189; fill-opacity: 0.2; stroke: #f77189; stroke-opacity: 0.2"/>
    </g>
   </g>
   <g id="PolyCollection_2">
    <defs>
     <path id="m8b077f760d" d="M 116.151818 -184.189903 
L 116.151818 -151.257332 
L 136.922805 -151.262987 
L 157.693791 -151.428102 
L 178.464778 -155.722331 
L 199.235764 -153.551942 
L 220.00675 -143.691573 
L 240.777737 -146.034579 
L 261.548723 -152.953857 
L 282.31971 -147.221918 
L 303.090696 -150.92409 
L 323.861683 -153.744344 
L 344.632669 -148.498487 
L 365.403656 -168.849406 
L 386.174642 -161.044883 
L 406.945629 -159.128476 
L 427.716615 -159.871758 
L 448.487602 -149.718477 
L 469.258588 -162.999468 
L 490.029574 -142.068019 
L 510.800561 -161.030266 
L 531.571547 -166.130388 
L 552.342534 -161.146852 
L 573.11352 -152.607199 
L 593.884507 -157.725702 
L 614.655493 -160.39615 
L 635.42648 -166.296283 
L 656.197466 -154.612206 
L 676.968453 -147.508498 
L 697.739439 -157.164329 
L 718.510426 -151.682581 
L 739.281412 -154.355514 
L 760.052398 -156.624635 
L 780.823385 -165.893029 
L 801.594371 -165.950582 
L 822.365358 -158.514313 
L 843.136344 -169.568107 
L 863.907331 -164.102354 
L 884.678317 -158.169274 
L 905.449304 -164.68368 
L 926.22029 -161.592855 
L 946.991277 -154.818384 
L 967.762263 -155.333882 
L 988.53325 -170.921615 
L 1009.304236 -148.312209 
L 1030.075222 -161.05926 
L 1050.846209 -162.816279 
L 1071.617195 -149.690893 
L 1092.388182 -151.019713 
L 1092.388182 -186.576755 
L 1092.388182 -186.576755 
L 1071.617195 -176.159303 
L 1050.846209 -187.482304 
L 1030.075222 -173.882151 
L 1009.304236 -175.882229 
L 988.53325 -200.752727 
L 967.762263 -172.694533 
L 946.991277 -188.427006 
L 926.22029 -185.511465 
L 905.449304 -185.763961 
L 884.678317 -197.086824 
L 863.907331 -190.634989 
L 843.136344 -189.159792 
L 822.365358 -183.786228 
L 801.594371 -178.791138 
L 780.823385 -179.088836 
L 760.052398 -182.400303 
L 739.281412 -177.081779 
L 718.510426 -160.958517 
L 697.739439 -173.77302 
L 676.968453 -166.161829 
L 656.197466 -176.948659 
L 635.42648 -180.825936 
L 614.655493 -170.632311 
L 593.884507 -173.858212 
L 573.11352 -165.102868 
L 552.342534 -175.87356 
L 531.571547 -189.717845 
L 510.800561 -186.48579 
L 490.029574 -176.342164 
L 469.258588 -180.142566 
L 448.487602 -164.672795 
L 427.716615 -181.177214 
L 406.945629 -176.930274 
L 386.174642 -181.401989 
L 365.403656 -186.45444 
L 344.632669 -174.161373 
L 323.861683 -160.409343 
L 303.090696 -173.812523 
L 282.31971 -169.16345 
L 261.548723 -162.884115 
L 240.777737 -177.583833 
L 220.00675 -177.320141 
L 199.235764 -164.548775 
L 178.464778 -166.223597 
L 157.693791 -172.121141 
L 136.922805 -172.467557 
L 116.151818 -184.189903 
z
" style="stroke: #e18632; stroke-opacity: 0.2"/>
    </defs>
    <g clip-path="url(#p82653b8793)">
     <use xlink:href="#m8b077f760d" x="0" y="576" style="fill: #e18632; fill-opacity: 0.2; stroke: #e18632; stroke-opacity: 0.2"/>
    </g>
   </g>
   <g id="PolyCollection_3">
    <defs>
     <path id="m38ddc428d3" d="M 116.151818 -162.76762 
L 116.151818 -137.906212 
L 136.922805 -128.959963 
L 157.693791 -130.873778 
L 178.464778 -145.848867 
L 199.235764 -132.872129 
L 220.00675 -141.233412 
L 240.777737 -140.951439 
L 261.548723 -138.728261 
L 282.31971 -132.706259 
L 303.090696 -136.283725 
L 323.861683 -128.485684 
L 344.632669 -126.506684 
L 365.403656 -139.372904 
L 386.174642 -132.973084 
L 406.945629 -138.017487 
L 427.716615 -142.319784 
L 448.487602 -134.737044 
L 469.258588 -143.748101 
L 490.029574 -146.89016 
L 510.800561 -138.318442 
L 531.571547 -152.736388 
L 552.342534 -143.310194 
L 573.11352 -128.037044 
L 593.884507 -136.825707 
L 614.655493 -136.293987 
L 635.42648 -144.532778 
L 656.197466 -135.09124 
L 676.968453 -124.011783 
L 697.739439 -133.674195 
L 718.510426 -130.356432 
L 739.281412 -140.191595 
L 760.052398 -135.705616 
L 780.823385 -144.168701 
L 801.594371 -142.125736 
L 822.365358 -134.229662 
L 843.136344 -142.321519 
L 863.907331 -149.399969 
L 884.678317 -139.219293 
L 905.449304 -142.987459 
L 926.22029 -139.956087 
L 946.991277 -135.19571 
L 967.762263 -135.620934 
L 988.53325 -140.362911 
L 1009.304236 -142.973079 
L 1030.075222 -137.402977 
L 1050.846209 -139.179224 
L 1071.617195 -130.744156 
L 1092.388182 -135.188409 
L 1092.388182 -160.040375 
L 1092.388182 -160.040375 
L 1071.617195 -154.536209 
L 1050.846209 -151.003406 
L 1030.075222 -157.503808 
L 1009.304236 -165.886199 
L 988.53325 -158.010342 
L 967.762263 -159.640605 
L 946.991277 -162.329528 
L 926.22029 -170.587772 
L 905.449304 -155.41468 
L 884.678317 -165.354171 
L 863.907331 -169.462243 
L 843.136344 -158.659196 
L 822.365358 -150.279216 
L 801.594371 -160.004808 
L 780.823385 -157.376783 
L 760.052398 -168.74616 
L 739.281412 -154.792625 
L 718.510426 -159.205869 
L 697.739439 -155.547863 
L 676.968453 -153.099201 
L 656.197466 -155.183542 
L 635.42648 -162.300993 
L 614.655493 -159.395798 
L 593.884507 -164.345189 
L 573.11352 -153.541002 
L 552.342534 -168.220629 
L 531.571547 -199.263448 
L 510.800561 -157.889754 
L 490.029574 -156.96792 
L 469.258588 -158.845511 
L 448.487602 -146.607796 
L 427.716615 -158.28356 
L 406.945629 -171.393735 
L 386.174642 -177.012444 
L 365.403656 -159.569578 
L 344.632669 -151.380641 
L 323.861683 -145.307039 
L 303.090696 -158.772162 
L 282.31971 -149.82013 
L 261.548723 -154.548402 
L 240.777737 -153.744491 
L 220.00675 -178.453734 
L 199.235764 -150.74795 
L 178.464778 -161.179747 
L 157.693791 -156.539279 
L 136.922805 -152.032002 
L 116.151818 -162.76762 
z
" style="stroke: #b59a32; stroke-opacity: 0.2"/>
    </defs>
    <g clip-path="url(#p82653b8793)">
     <use xlink:href="#m38ddc428d3" x="0" y="576" style="fill: #b59a32; fill-opacity: 0.2; stroke: #b59a32; stroke-opacity: 0.2"/>
    </g>
   </g>
   <g id="PolyCollection_4">
    <defs>
     <path id="mfd22e9706f" d="M 116.151818 -150.394385 
L 116.151818 -132.637527 
L 136.922805 -116.823056 
L 157.693791 -130.23096 
L 178.464778 -133.125464 
L 199.235764 -118.516064 
L 220.00675 -118.427978 
L 240.777737 -126.581686 
L 261.548723 -114.99008 
L 282.31971 -133.065617 
L 303.090696 -139.081991 
L 323.861683 -128.137952 
L 344.632669 -115.656387 
L 365.403656 -129.900043 
L 386.174642 -141.821933 
L 406.945629 -131.909564 
L 427.716615 -136.592193 
L 448.487602 -138.771049 
L 469.258588 -119.082484 
L 490.029574 -141.195795 
L 510.800561 -134.032863 
L 531.571547 -132.991605 
L 552.342534 -138.597275 
L 573.11352 -126.457288 
L 593.884507 -128.081467 
L 614.655493 -117.322335 
L 635.42648 -141.068903 
L 656.197466 -138.352315 
L 676.968453 -127.199786 
L 697.739439 -143.615208 
L 718.510426 -118.305069 
L 739.281412 -136.123183 
L 760.052398 -127.634563 
L 780.823385 -114.972193 
L 801.594371 -118.597923 
L 822.365358 -132.558916 
L 843.136344 -136.568794 
L 863.907331 -131.593765 
L 884.678317 -137.446493 
L 905.449304 -134.736243 
L 926.22029 -137.745096 
L 946.991277 -137.241397 
L 967.762263 -136.639258 
L 988.53325 -133.408783 
L 1009.304236 -143.767085 
L 1030.075222 -138.452332 
L 1050.846209 -127.407009 
L 1071.617195 -139.784983 
L 1092.388182 -134.68339 
L 1092.388182 -169.228482 
L 1092.388182 -169.228482 
L 1071.617195 -163.269862 
L 1050.846209 -159.818073 
L 1030.075222 -154.661357 
L 1009.304236 -172.651242 
L 988.53325 -156.3054 
L 967.762263 -156.563074 
L 946.991277 -154.283178 
L 926.22029 -179.447304 
L 905.449304 -167.668927 
L 884.678317 -166.880314 
L 863.907331 -156.41981 
L 843.136344 -165.135225 
L 822.365358 -171.044561 
L 801.594371 -159.991852 
L 780.823385 -145.756337 
L 760.052398 -140.256723 
L 739.281412 -142.253575 
L 718.510426 -161.705848 
L 697.739439 -157.282009 
L 676.968453 -150.134027 
L 656.197466 -160.167315 
L 635.42648 -157.305135 
L 614.655493 -143.970985 
L 593.884507 -152.865577 
L 573.11352 -143.611211 
L 552.342534 -164.885816 
L 531.571547 -183.545386 
L 510.800561 -189.91751 
L 490.029574 -159.488187 
L 469.258588 -153.401791 
L 448.487602 -145.918382 
L 427.716615 -161.119708 
L 406.945629 -173.687631 
L 386.174642 -165.280802 
L 365.403656 -170.357614 
L 344.632669 -135.394197 
L 323.861683 -137.24923 
L 303.090696 -148.218703 
L 282.31971 -151.932749 
L 261.548723 -142.313804 
L 240.777737 -150.314926 
L 220.00675 -141.442722 
L 199.235764 -145.170272 
L 178.464778 -142.569396 
L 157.693791 -149.32588 
L 136.922805 -142.562576 
L 116.151818 -150.394385 
z
" style="stroke: #8ba731; stroke-opacity: 0.2"/>
    </defs>
    <g clip-path="url(#p82653b8793)">
     <use xlink:href="#mfd22e9706f" x="0" y="576" style="fill: #8ba731; fill-opacity: 0.2; stroke: #8ba731; stroke-opacity: 0.2"/>
    </g>
   </g>
   <g id="PolyCollection_5">
    <defs>
     <path id="m3581946db5" d="M 116.151818 -310.241148 
L 116.151818 -232.596365 
L 136.922805 -227.800858 
L 157.693791 -261.690851 
L 178.464778 -276.613951 
L 199.235764 -255.75456 
L 220.00675 -230.299804 
L 240.777737 -260.069935 
L 261.548723 -242.548427 
L 282.31971 -234.705341 
L 303.090696 -254.089429 
L 323.861683 -241.397967 
L 344.632669 -255.078997 
L 365.403656 -276.04825 
L 386.174642 -261.377139 
L 406.945629 -280.801919 
L 427.716615 -270.430099 
L 448.487602 -217.509522 
L 469.258588 -295.343606 
L 490.029574 -246.594211 
L 510.800561 -259.084035 
L 531.571547 -256.204318 
L 552.342534 -250.137212 
L 573.11352 -229.730087 
L 593.884507 -258.679127 
L 614.655493 -258.853133 
L 635.42648 -274.858671 
L 656.197466 -241.372772 
L 676.968453 -238.677101 
L 697.739439 -254.797605 
L 718.510426 -227.106099 
L 739.281412 -255.625231 
L 760.052398 -253.394324 
L 780.823385 -262.361607 
L 801.594371 -250.707805 
L 822.365358 -256.381907 
L 843.136344 -252.521685 
L 863.907331 -248.636637 
L 884.678317 -255.231841 
L 905.449304 -252.936444 
L 926.22029 -265.633533 
L 946.991277 -266.252518 
L 967.762263 -229.351561 
L 988.53325 -253.729368 
L 1009.304236 -245.334842 
L 1030.075222 -259.361463 
L 1050.846209 -233.206329 
L 1071.617195 -229.89513 
L 1092.388182 -267.978647 
L 1092.388182 -315.920769 
L 1092.388182 -315.920769 
L 1071.617195 -270.20915 
L 1050.846209 -286.37913 
L 1030.075222 -293.863366 
L 1009.304236 -291.806299 
L 988.53325 -284.415637 
L 967.762263 -284.701718 
L 946.991277 -278.821385 
L 926.22029 -306.542792 
L 905.449304 -287.023523 
L 884.678317 -309.27101 
L 863.907331 -299.989395 
L 843.136344 -278.596667 
L 822.365358 -275.595689 
L 801.594371 -285.107249 
L 780.823385 -293.086311 
L 760.052398 -279.849507 
L 739.281412 -284.355732 
L 718.510426 -269.608804 
L 697.739439 -284.082994 
L 676.968453 -285.727082 
L 656.197466 -288.049722 
L 635.42648 -305.325059 
L 614.655493 -299.27534 
L 593.884507 -273.370962 
L 573.11352 -256.980337 
L 552.342534 -303.898521 
L 531.571547 -318.705601 
L 510.800561 -318.283848 
L 490.029574 -281.452284 
L 469.258588 -305.825613 
L 448.487602 -270.818376 
L 427.716615 -296.412084 
L 406.945629 -300.167369 
L 386.174642 -316.310744 
L 365.403656 -312.87598 
L 344.632669 -295.734251 
L 323.861683 -287.735158 
L 303.090696 -293.496495 
L 282.31971 -305.391696 
L 261.548723 -270.388355 
L 240.777737 -278.631443 
L 220.00675 -271.565481 
L 199.235764 -279.579423 
L 178.464778 -297.526911 
L 157.693791 -288.560476 
L 136.922805 -277.264979 
L 116.151818 -310.241148 
z
" style="stroke: #32b258; stroke-opacity: 0.2"/>
    </defs>
    <g clip-path="url(#p82653b8793)">
     <use xlink:href="#m3581946db5" x="0" y="576" style="fill: #32b258; fill-opacity: 0.2; stroke: #32b258; stroke-opacity: 0.2"/>
    </g>
   </g>
   <g id="PolyCollection_6">
    <defs>
     <path id="md27df59350" d="M 116.151818 -247.157851 
L 116.151818 -210.87447 
L 136.922805 -201.969507 
L 157.693791 -213.567993 
L 178.464778 -207.086505 
L 199.235764 -205.753143 
L 220.00675 -216.573557 
L 240.777737 -211.891593 
L 261.548723 -217.216025 
L 282.31971 -219.968357 
L 303.090696 -218.019907 
L 323.861683 -213.214019 
L 344.632669 -215.106018 
L 365.403656 -215.856773 
L 386.174642 -226.906681 
L 406.945629 -216.942275 
L 427.716615 -207.996114 
L 448.487602 -216.926839 
L 469.258588 -217.923264 
L 490.029574 -220.461718 
L 510.800561 -216.846625 
L 531.571547 -228.676891 
L 552.342534 -226.697449 
L 573.11352 -221.840607 
L 593.884507 -215.399425 
L 614.655493 -220.071908 
L 635.42648 -218.462144 
L 656.197466 -231.34141 
L 676.968453 -224.221398 
L 697.739439 -212.737759 
L 718.510426 -213.052784 
L 739.281412 -215.838354 
L 760.052398 -206.374677 
L 780.823385 -212.32998 
L 801.594371 -208.144441 
L 822.365358 -206.412752 
L 843.136344 -231.039515 
L 863.907331 -228.816944 
L 884.678317 -211.346797 
L 905.449304 -215.945188 
L 926.22029 -213.005749 
L 946.991277 -226.030041 
L 967.762263 -210.118182 
L 988.53325 -214.110558 
L 1009.304236 -227.319308 
L 1030.075222 -213.421467 
L 1050.846209 -225.950383 
L 1071.617195 -221.666928 
L 1092.388182 -222.953123 
L 1092.388182 -248.571219 
L 1092.388182 -248.571219 
L 1071.617195 -234.398862 
L 1050.846209 -244.544932 
L 1030.075222 -230.102139 
L 1009.304236 -253.137357 
L 988.53325 -247.521825 
L 967.762263 -246.892738 
L 946.991277 -240.063826 
L 926.22029 -259.98934 
L 905.449304 -254.009293 
L 884.678317 -243.59106 
L 863.907331 -254.722375 
L 843.136344 -266.125567 
L 822.365358 -239.241156 
L 801.594371 -238.713837 
L 780.823385 -240.41144 
L 760.052398 -225.565627 
L 739.281412 -244.746681 
L 718.510426 -243.504857 
L 697.739439 -236.118592 
L 676.968453 -236.072575 
L 656.197466 -258.139345 
L 635.42648 -261.377387 
L 614.655493 -248.886584 
L 593.884507 -250.739843 
L 573.11352 -257.432786 
L 552.342534 -261.950844 
L 531.571547 -250.11842 
L 510.800561 -276.439878 
L 490.029574 -239.165118 
L 469.258588 -250.516709 
L 448.487602 -255.353202 
L 427.716615 -229.518505 
L 406.945629 -255.346127 
L 386.174642 -243.132951 
L 365.403656 -242.509043 
L 344.632669 -240.19221 
L 323.861683 -223.068539 
L 303.090696 -244.381152 
L 282.31971 -236.886554 
L 261.548723 -246.858803 
L 240.777737 -252.69134 
L 220.00675 -254.087668 
L 199.235764 -232.077903 
L 178.464778 -221.903473 
L 157.693791 -229.468164 
L 136.922805 -219.350682 
L 116.151818 -247.157851 
z
" style="stroke: #35ae95; stroke-opacity: 0.2"/>
    </defs>
    <g clip-path="url(#p82653b8793)">
     <use xlink:href="#md27df59350" x="0" y="576" style="fill: #35ae95; fill-opacity: 0.2; stroke: #35ae95; stroke-opacity: 0.2"/>
    </g>
   </g>
   <g id="PolyCollection_7">
    <defs>
     <path id="m2de2494b01" d="M 116.151818 -432.082842 
L 116.151818 -402.125411 
L 136.922805 -394.092058 
L 157.693791 -399.798136 
L 178.464778 -402.321992 
L 199.235764 -399.382472 
L 220.00675 -399.326848 
L 240.777737 -399.993087 
L 261.548723 -393.150671 
L 282.31971 -395.267378 
L 303.090696 -389.07582 
L 323.861683 -409.92186 
L 344.632669 -401.762861 
L 365.403656 -406.409463 
L 386.174642 -408.063719 
L 406.945629 -389.765636 
L 427.716615 -403.629334 
L 448.487602 -398.95645 
L 469.258588 -404.035794 
L 490.029574 -397.127915 
L 510.800561 -412.453895 
L 531.571547 -414.928501 
L 552.342534 -397.92846 
L 573.11352 -403.590936 
L 593.884507 -403.1439 
L 614.655493 -414.022677 
L 635.42648 -414.645053 
L 656.197466 -402.983945 
L 676.968453 -412.234299 
L 697.739439 -395.180747 
L 718.510426 -402.865681 
L 739.281412 -403.708901 
L 760.052398 -388.316456 
L 780.823385 -401.652899 
L 801.594371 -408.042624 
L 822.365358 -405.7211 
L 843.136344 -400.160377 
L 863.907331 -406.62796 
L 884.678317 -398.60971 
L 905.449304 -408.333107 
L 926.22029 -406.511541 
L 946.991277 -409.107146 
L 967.762263 -402.585121 
L 988.53325 -404.097925 
L 1009.304236 -414.852292 
L 1030.075222 -394.036255 
L 1050.846209 -410.785495 
L 1071.617195 -401.804975 
L 1092.388182 -417.623518 
L 1092.388182 -437.012625 
L 1092.388182 -437.012625 
L 1071.617195 -413.761842 
L 1050.846209 -426.842448 
L 1030.075222 -413.92285 
L 1009.304236 -434.92449 
L 988.53325 -418.562539 
L 967.762263 -425.896196 
L 946.991277 -426.066197 
L 926.22029 -422.208177 
L 905.449304 -441.088263 
L 884.678317 -412.464858 
L 863.907331 -424.979882 
L 843.136344 -429.122751 
L 822.365358 -424.56971 
L 801.594371 -434.757182 
L 780.823385 -427.828154 
L 760.052398 -416.693582 
L 739.281412 -423.09845 
L 718.510426 -419.398789 
L 697.739439 -424.45832 
L 676.968453 -421.773697 
L 656.197466 -425.87961 
L 635.42648 -441.664037 
L 614.655493 -427.195324 
L 593.884507 -425.06923 
L 573.11352 -421.559886 
L 552.342534 -418.133324 
L 531.571547 -437.019753 
L 510.800561 -428.524505 
L 490.029574 -416.101618 
L 469.258588 -418.324889 
L 448.487602 -409.218514 
L 427.716615 -426.472623 
L 406.945629 -420.283625 
L 386.174642 -430.600642 
L 365.403656 -425.458134 
L 344.632669 -422.906943 
L 323.861683 -424.346553 
L 303.090696 -411.881807 
L 282.31971 -423.764268 
L 261.548723 -414.826873 
L 240.777737 -414.313329 
L 220.00675 -431.627731 
L 199.235764 -419.191308 
L 178.464778 -417.840307 
L 157.693791 -407.004411 
L 136.922805 -422.329895 
L 116.151818 -432.082842 
z
" style="stroke: #37abb2; stroke-opacity: 0.2"/>
    </defs>
    <g clip-path="url(#p82653b8793)">
     <use xlink:href="#m2de2494b01" x="0" y="576" style="fill: #37abb2; fill-opacity: 0.2; stroke: #37abb2; stroke-opacity: 0.2"/>
    </g>
   </g>
   <g id="PolyCollection_8">
    <defs>
     <path id="m7c864a895d" d="M 116.151818 -384.684987 
L 116.151818 -370.009634 
L 136.922805 -361.740703 
L 157.693791 -368.364287 
L 178.464778 -366.589309 
L 199.235764 -368.742491 
L 220.00675 -368.375281 
L 240.777737 -372.680093 
L 261.548723 -371.858902 
L 282.31971 -372.607906 
L 303.090696 -366.467345 
L 323.861683 -371.958952 
L 344.632669 -378.532014 
L 365.403656 -376.459566 
L 386.174642 -374.738156 
L 406.945629 -380.349973 
L 427.716615 -381.95089 
L 448.487602 -380.351149 
L 469.258588 -375.599107 
L 490.029574 -373.37556 
L 510.800561 -375.241992 
L 531.571547 -381.344823 
L 552.342534 -374.353167 
L 573.11352 -373.494549 
L 593.884507 -372.222595 
L 614.655493 -374.672555 
L 635.42648 -378.865599 
L 656.197466 -379.2478 
L 676.968453 -371.075758 
L 697.739439 -381.207587 
L 718.510426 -375.218183 
L 739.281412 -383.301029 
L 760.052398 -371.20807 
L 780.823385 -372.213342 
L 801.594371 -382.715045 
L 822.365358 -379.54341 
L 843.136344 -382.079871 
L 863.907331 -377.974096 
L 884.678317 -386.666349 
L 905.449304 -379.326536 
L 926.22029 -374.84419 
L 946.991277 -377.242629 
L 967.762263 -371.378376 
L 988.53325 -382.066103 
L 1009.304236 -376.661268 
L 1030.075222 -376.099519 
L 1050.846209 -385.515252 
L 1071.617195 -370.766414 
L 1092.388182 -372.946567 
L 1092.388182 -399.275843 
L 1092.388182 -399.275843 
L 1071.617195 -387.535759 
L 1050.846209 -399.827742 
L 1030.075222 -391.695105 
L 1009.304236 -394.186552 
L 988.53325 -403.249586 
L 967.762263 -383.903174 
L 946.991277 -395.044451 
L 926.22029 -392.004551 
L 905.449304 -403.652481 
L 884.678317 -407.223054 
L 863.907331 -399.749681 
L 843.136344 -407.677472 
L 822.365358 -393.522373 
L 801.594371 -399.912862 
L 780.823385 -391.969789 
L 760.052398 -404.638097 
L 739.281412 -395.37445 
L 718.510426 -392.10831 
L 697.739439 -391.022859 
L 676.968453 -391.378577 
L 656.197466 -394.835178 
L 635.42648 -393.744751 
L 614.655493 -385.384505 
L 593.884507 -387.858398 
L 573.11352 -397.56432 
L 552.342534 -397.197267 
L 531.571547 -408.462762 
L 510.800561 -409.461329 
L 490.029574 -384.853798 
L 469.258588 -383.965592 
L 448.487602 -390.877783 
L 427.716615 -396.967296 
L 406.945629 -390.068989 
L 386.174642 -404.377357 
L 365.403656 -393.522182 
L 344.632669 -387.144872 
L 323.861683 -382.749716 
L 303.090696 -378.84533 
L 282.31971 -380.752016 
L 261.548723 -374.552228 
L 240.777737 -383.590707 
L 220.00675 -389.3293 
L 199.235764 -378.289335 
L 178.464778 -381.812883 
L 157.693791 -377.221049 
L 136.922805 -377.386068 
L 116.151818 -384.684987 
z
" style="stroke: #39a7d6; stroke-opacity: 0.2"/>
    </defs>
    <g clip-path="url(#p82653b8793)">
     <use xlink:href="#m7c864a895d" x="0" y="576" style="fill: #39a7d6; fill-opacity: 0.2; stroke: #39a7d6; stroke-opacity: 0.2"/>
    </g>
   </g>
   <g id="PolyCollection_9">
    <defs>
     <path id="m98ad883f29" d="M 116.151818 -384.685114 
L 116.151818 -370.034014 
L 136.922805 -360.372067 
L 157.693791 -368.560859 
L 178.464778 -366.591205 
L 199.235764 -368.243917 
L 220.00675 -368.556088 
L 240.777737 -372.766492 
L 261.548723 -371.933606 
L 282.31971 -372.614281 
L 303.090696 -366.277748 
L 323.861683 -371.995157 
L 344.632669 -378.051678 
L 365.403656 -376.457556 
L 386.174642 -375.566279 
L 406.945629 -380.726428 
L 427.716615 -381.325016 
L 448.487602 -380.025331 
L 469.258588 -375.489921 
L 490.029574 -373.110682 
L 510.800561 -375.276737 
L 531.571547 -381.365721 
L 552.342534 -374.301688 
L 573.11352 -373.747348 
L 593.884507 -372.176672 
L 614.655493 -374.485812 
L 635.42648 -379.075966 
L 656.197466 -380.034011 
L 676.968453 -371.192969 
L 697.739439 -381.971022 
L 718.510426 -375.523193 
L 739.281412 -381.811563 
L 760.052398 -371.035739 
L 780.823385 -372.390555 
L 801.594371 -383.167477 
L 822.365358 -378.802674 
L 843.136344 -382.872251 
L 863.907331 -377.922077 
L 884.678317 -386.607414 
L 905.449304 -380.18524 
L 926.22029 -374.224406 
L 946.991277 -377.720339 
L 967.762263 -371.960744 
L 988.53325 -381.750007 
L 1009.304236 -377.161242 
L 1030.075222 -376.518214 
L 1050.846209 -385.641904 
L 1071.617195 -371.155576 
L 1092.388182 -370.4395 
L 1092.388182 -398.744754 
L 1092.388182 -398.744754 
L 1071.617195 -388.575074 
L 1050.846209 -399.493924 
L 1030.075222 -392.193819 
L 1009.304236 -393.467487 
L 988.53325 -402.552211 
L 967.762263 -383.958087 
L 946.991277 -394.483856 
L 926.22029 -392.631308 
L 905.449304 -403.606314 
L 884.678317 -406.73077 
L 863.907331 -399.497645 
L 843.136344 -407.204554 
L 822.365358 -393.146492 
L 801.594371 -399.831635 
L 780.823385 -392.73251 
L 760.052398 -404.409447 
L 739.281412 -395.704021 
L 718.510426 -392.836213 
L 697.739439 -390.97064 
L 676.968453 -390.742273 
L 656.197466 -395.314653 
L 635.42648 -393.717047 
L 614.655493 -385.531335 
L 593.884507 -388.329795 
L 573.11352 -397.549112 
L 552.342534 -397.744154 
L 531.571547 -407.719566 
L 510.800561 -409.740791 
L 490.029574 -384.87846 
L 469.258588 -383.80524 
L 448.487602 -390.999467 
L 427.716615 -396.847342 
L 406.945629 -390.949418 
L 386.174642 -405.084332 
L 365.403656 -393.950222 
L 344.632669 -386.519711 
L 323.861683 -383.50494 
L 303.090696 -379.101545 
L 282.31971 -380.78267 
L 261.548723 -374.502382 
L 240.777737 -383.838067 
L 220.00675 -388.612597 
L 199.235764 -378.438792 
L 178.464778 -382.740134 
L 157.693791 -377.151011 
L 136.922805 -377.905618 
L 116.151818 -384.685114 
z
" style="stroke: #8f93f4; stroke-opacity: 0.2"/>
    </defs>
    <g clip-path="url(#p82653b8793)">
     <use xlink:href="#m98ad883f29" x="0" y="576" style="fill: #8f93f4; fill-opacity: 0.2; stroke: #8f93f4; stroke-opacity: 0.2"/>
    </g>
   </g>
   <g id="PolyCollection_10">
    <defs>
     <path id="mf520d890ec" d="M 116.151818 -333.98826 
L 116.151818 -272.220338 
L 136.922805 -245.285999 
L 157.693791 -278.734466 
L 178.464778 -294.162528 
L 199.235764 -285.734392 
L 220.00675 -270.857437 
L 240.777737 -296.428572 
L 261.548723 -289.822882 
L 282.31971 -264.338102 
L 303.090696 -270.055821 
L 323.861683 -276.741717 
L 344.632669 -279.706633 
L 365.403656 -303.50391 
L 386.174642 -276.93402 
L 406.945629 -310.832445 
L 427.716615 -299.103679 
L 448.487602 -235.70454 
L 469.258588 -308.722587 
L 490.029574 -276.796882 
L 510.800561 -287.191245 
L 531.571547 -297.928392 
L 552.342534 -275.548368 
L 573.11352 -258.444562 
L 593.884507 -281.131924 
L 614.655493 -293.577829 
L 635.42648 -274.240175 
L 656.197466 -295.042988 
L 676.968453 -276.656227 
L 697.739439 -288.549425 
L 718.510426 -262.512599 
L 739.281412 -291.048846 
L 760.052398 -273.424386 
L 780.823385 -301.823294 
L 801.594371 -282.752611 
L 822.365358 -279.412648 
L 843.136344 -286.392661 
L 863.907331 -275.712226 
L 884.678317 -281.363121 
L 905.449304 -269.97881 
L 926.22029 -290.043852 
L 946.991277 -296.064966 
L 967.762263 -265.882072 
L 988.53325 -281.787105 
L 1009.304236 -272.657157 
L 1030.075222 -274.897932 
L 1050.846209 -248.75068 
L 1071.617195 -256.92914 
L 1092.388182 -293.943715 
L 1092.388182 -349.835672 
L 1092.388182 -349.835672 
L 1071.617195 -307.104817 
L 1050.846209 -327.092817 
L 1030.075222 -316.736141 
L 1009.304236 -309.0889 
L 988.53325 -324.590163 
L 967.762263 -316.326935 
L 946.991277 -317.908171 
L 926.22029 -344.449252 
L 905.449304 -327.615232 
L 884.678317 -347.091168 
L 863.907331 -331.788204 
L 843.136344 -325.469673 
L 822.365358 -304.663021 
L 801.594371 -309.459247 
L 780.823385 -326.41235 
L 760.052398 -306.320198 
L 739.281412 -326.106913 
L 718.510426 -294.53261 
L 697.739439 -320.596394 
L 676.968453 -326.568976 
L 656.197466 -312.211647 
L 635.42648 -311.156996 
L 614.655493 -342.801117 
L 593.884507 -307.889578 
L 573.11352 -297.916082 
L 552.342534 -319.232483 
L 531.571547 -368.475975 
L 510.800561 -363.884068 
L 490.029574 -315.835774 
L 469.258588 -335.651206 
L 448.487602 -309.399889 
L 427.716615 -334.528144 
L 406.945629 -325.078923 
L 386.174642 -335.128711 
L 365.403656 -351.732999 
L 344.632669 -321.752395 
L 323.861683 -317.554902 
L 303.090696 -306.883674 
L 282.31971 -328.688041 
L 261.548723 -312.080363 
L 240.777737 -315.631625 
L 220.00675 -320.889372 
L 199.235764 -322.968735 
L 178.464778 -342.734792 
L 157.693791 -307.56993 
L 136.922805 -307.94891 
L 116.151818 -333.98826 
z
" style="stroke: #db70f4; stroke-opacity: 0.2"/>
    </defs>
    <g clip-path="url(#p82653b8793)">
     <use xlink:href="#mf520d890ec" x="0" y="576" style="fill: #db70f4; fill-opacity: 0.2; stroke: #db70f4; stroke-opacity: 0.2"/>
    </g>
   </g>
   <g id="PolyCollection_11">
    <defs>
     <path id="mca2b46d3e0" d="M 116.151818 -475.373443 
L 116.151818 -447.988685 
L 136.922805 -416.516807 
L 157.693791 -449.0086 
L 178.464778 -440.976382 
L 199.235764 -444.884246 
L 220.00675 -453.369795 
L 240.777737 -450.061687 
L 261.548723 -446.316658 
L 282.31971 -459.59266 
L 303.090696 -460.866516 
L 323.861683 -451.248286 
L 344.632669 -452.40829 
L 365.403656 -469.358765 
L 386.174642 -475.411935 
L 406.945629 -466.239692 
L 427.716615 -455.038967 
L 448.487602 -458.40853 
L 469.258588 -470.148769 
L 490.029574 -446.882734 
L 510.800561 -482.577524 
L 531.571547 -472.704643 
L 552.342534 -472.151676 
L 573.11352 -483.914865 
L 593.884507 -450.187966 
L 614.655493 -462.562565 
L 635.42648 -472.399708 
L 656.197466 -475.737193 
L 676.968453 -445.384168 
L 697.739439 -456.298145 
L 718.510426 -480.631066 
L 739.281412 -462.268258 
L 760.052398 -454.117852 
L 780.823385 -457.117469 
L 801.594371 -467.229086 
L 822.365358 -463.423705 
L 843.136344 -471.737942 
L 863.907331 -451.148187 
L 884.678317 -452.725334 
L 905.449304 -461.995679 
L 926.22029 -468.877358 
L 946.991277 -467.170773 
L 967.762263 -460.63302 
L 988.53325 -456.901111 
L 1009.304236 -447.033733 
L 1030.075222 -459.871071 
L 1050.846209 -471.702777 
L 1071.617195 -487.549619 
L 1092.388182 -460.179408 
L 1092.388182 -514.219934 
L 1092.388182 -514.219934 
L 1071.617195 -513.291808 
L 1050.846209 -505.413587 
L 1030.075222 -501.776768 
L 1009.304236 -503.020147 
L 988.53325 -479.408073 
L 967.762263 -491.264775 
L 946.991277 -490.462571 
L 926.22029 -491.367259 
L 905.449304 -504.358951 
L 884.678317 -486.160702 
L 863.907331 -510.122668 
L 843.136344 -525.366162 
L 822.365358 -507.1992 
L 801.594371 -489.355431 
L 780.823385 -495.751096 
L 760.052398 -476.730705 
L 739.281412 -510.3121 
L 718.510426 -511.818367 
L 697.739439 -487.859304 
L 676.968453 -495.522693 
L 656.197466 -503.736256 
L 635.42648 -535.564882 
L 614.655493 -522.517614 
L 593.884507 -476.115947 
L 573.11352 -504.205354 
L 552.342534 -511.484347 
L 531.571547 -514.188119 
L 510.800561 -543.393091 
L 490.029574 -486.842296 
L 469.258588 -521.770633 
L 448.487602 -504.679791 
L 427.716615 -481.959577 
L 406.945629 -508.305383 
L 386.174642 -508.465592 
L 365.403656 -496.578877 
L 344.632669 -492.950138 
L 323.861683 -483.016822 
L 303.090696 -494.026907 
L 282.31971 -471.285435 
L 261.548723 -482.723362 
L 240.777737 -490.024682 
L 220.00675 -500.431831 
L 199.235764 -462.649817 
L 178.464778 -470.604803 
L 157.693791 -491.739809 
L 136.922805 -469.462401 
L 116.151818 -475.373443 
z
" style="stroke: #f667c6; stroke-opacity: 0.2"/>
    </defs>
    <g clip-path="url(#p82653b8793)">
     <use xlink:href="#mca2b46d3e0" x="0" y="576" style="fill: #f667c6; fill-opacity: 0.2; stroke: #f667c6; stroke-opacity: 0.2"/>
    </g>
   </g>
   <g id="matplotlib.axis_1">
    <g id="xtick_1">
     <g id="line2d_1">
      <defs>
       <path id="m43f64573e3" d="M 0 0 
L 0 3.5 
" style="stroke: #000000; stroke-width: 0.8"/>
      </defs>
      <g>
       <use xlink:href="#m43f64573e3" x="105.766325" y="490.552" style="stroke: #000000; stroke-width: 0.8"/>
      </g>
     </g>
     <g id="text_1">
      <!-- 0 -->
      <g transform="translate(99.403825 512.748875) scale(0.2 -0.2)">
       <defs>
        <path id="DejaVuSans-30" d="M 2034 4250 
Q 1547 4250 1301 3770 
Q 1056 3291 1056 2328 
Q 1056 1369 1301 889 
Q 1547 409 2034 409 
Q 2525 409 2770 889 
Q 3016 1369 3016 2328 
Q 3016 3291 2770 3770 
Q 2525 4250 2034 4250 
z
M 2034 4750 
Q 2819 4750 3233 4129 
Q 3647 3509 3647 2328 
Q 3647 1150 3233 529 
Q 2819 -91 2034 -91 
Q 1250 -91 836 529 
Q 422 1150 422 2328 
Q 422 3509 836 4129 
Q 1250 4750 2034 4750 
z
" transform="scale(0.015625)"/>
       </defs>
       <use xlink:href="#DejaVuSans-30"/>
      </g>
     </g>
    </g>
    <g id="xtick_2">
     <g id="line2d_2">
      <g>
       <use xlink:href="#m43f64573e3" x="313.47619" y="490.552" style="stroke: #000000; stroke-width: 0.8"/>
      </g>
     </g>
     <g id="text_2">
      <!-- 20 -->
      <g transform="translate(300.75119 512.748875) scale(0.2 -0.2)">
       <defs>
        <path id="DejaVuSans-32" d="M 1228 531 
L 3431 531 
L 3431 0 
L 469 0 
L 469 531 
Q 828 903 1448 1529 
Q 2069 2156 2228 2338 
Q 2531 2678 2651 2914 
Q 2772 3150 2772 3378 
Q 2772 3750 2511 3984 
Q 2250 4219 1831 4219 
Q 1534 4219 1204 4116 
Q 875 4013 500 3803 
L 500 4441 
Q 881 4594 1212 4672 
Q 1544 4750 1819 4750 
Q 2544 4750 2975 4387 
Q 3406 4025 3406 3419 
Q 3406 3131 3298 2873 
Q 3191 2616 2906 2266 
Q 2828 2175 2409 1742 
Q 1991 1309 1228 531 
z
" transform="scale(0.015625)"/>
       </defs>
       <use xlink:href="#DejaVuSans-32"/>
       <use xlink:href="#DejaVuSans-30" x="63.623047"/>
      </g>
     </g>
    </g>
    <g id="xtick_3">
     <g id="line2d_3">
      <g>
       <use xlink:href="#m43f64573e3" x="521.186054" y="490.552" style="stroke: #000000; stroke-width: 0.8"/>
      </g>
     </g>
     <g id="text_3">
      <!-- 40 -->
      <g transform="translate(508.461054 512.748875) scale(0.2 -0.2)">
       <defs>
        <path id="DejaVuSans-34" d="M 2419 4116 
L 825 1625 
L 2419 1625 
L 2419 4116 
z
M 2253 4666 
L 3047 4666 
L 3047 1625 
L 3713 1625 
L 3713 1100 
L 3047 1100 
L 3047 0 
L 2419 0 
L 2419 1100 
L 313 1100 
L 313 1709 
L 2253 4666 
z
" transform="scale(0.015625)"/>
       </defs>
       <use xlink:href="#DejaVuSans-34"/>
       <use xlink:href="#DejaVuSans-30" x="63.623047"/>
      </g>
     </g>
    </g>
    <g id="xtick_4">
     <g id="line2d_4">
      <g>
       <use xlink:href="#m43f64573e3" x="728.895919" y="490.552" style="stroke: #000000; stroke-width: 0.8"/>
      </g>
     </g>
     <g id="text_4">
      <!-- 60 -->
      <g transform="translate(716.170919 512.748875) scale(0.2 -0.2)">
       <defs>
        <path id="DejaVuSans-36" d="M 2113 2584 
Q 1688 2584 1439 2293 
Q 1191 2003 1191 1497 
Q 1191 994 1439 701 
Q 1688 409 2113 409 
Q 2538 409 2786 701 
Q 3034 994 3034 1497 
Q 3034 2003 2786 2293 
Q 2538 2584 2113 2584 
z
M 3366 4563 
L 3366 3988 
Q 3128 4100 2886 4159 
Q 2644 4219 2406 4219 
Q 1781 4219 1451 3797 
Q 1122 3375 1075 2522 
Q 1259 2794 1537 2939 
Q 1816 3084 2150 3084 
Q 2853 3084 3261 2657 
Q 3669 2231 3669 1497 
Q 3669 778 3244 343 
Q 2819 -91 2113 -91 
Q 1303 -91 875 529 
Q 447 1150 447 2328 
Q 447 3434 972 4092 
Q 1497 4750 2381 4750 
Q 2619 4750 2861 4703 
Q 3103 4656 3366 4563 
z
" transform="scale(0.015625)"/>
       </defs>
       <use xlink:href="#DejaVuSans-36"/>
       <use xlink:href="#DejaVuSans-30" x="63.623047"/>
      </g>
     </g>
    </g>
    <g id="xtick_5">
     <g id="line2d_5">
      <g>
       <use xlink:href="#m43f64573e3" x="936.605783" y="490.552" style="stroke: #000000; stroke-width: 0.8"/>
      </g>
     </g>
     <g id="text_5">
      <!-- 80 -->
      <g transform="translate(923.880783 512.748875) scale(0.2 -0.2)">
       <defs>
        <path id="DejaVuSans-38" d="M 2034 2216 
Q 1584 2216 1326 1975 
Q 1069 1734 1069 1313 
Q 1069 891 1326 650 
Q 1584 409 2034 409 
Q 2484 409 2743 651 
Q 3003 894 3003 1313 
Q 3003 1734 2745 1975 
Q 2488 2216 2034 2216 
z
M 1403 2484 
Q 997 2584 770 2862 
Q 544 3141 544 3541 
Q 544 4100 942 4425 
Q 1341 4750 2034 4750 
Q 2731 4750 3128 4425 
Q 3525 4100 3525 3541 
Q 3525 3141 3298 2862 
Q 3072 2584 2669 2484 
Q 3125 2378 3379 2068 
Q 3634 1759 3634 1313 
Q 3634 634 3220 271 
Q 2806 -91 2034 -91 
Q 1263 -91 848 271 
Q 434 634 434 1313 
Q 434 1759 690 2068 
Q 947 2378 1403 2484 
z
M 1172 3481 
Q 1172 3119 1398 2916 
Q 1625 2713 2034 2713 
Q 2441 2713 2670 2916 
Q 2900 3119 2900 3481 
Q 2900 3844 2670 4047 
Q 2441 4250 2034 4250 
Q 1625 4250 1398 4047 
Q 1172 3844 1172 3481 
z
" transform="scale(0.015625)"/>
       </defs>
       <use xlink:href="#DejaVuSans-38"/>
       <use xlink:href="#DejaVuSans-30" x="63.623047"/>
      </g>
     </g>
    </g>
    <g id="text_6">
     <!-- Percentile Threshold -->
     <g transform="translate(502.490313 536.105125) scale(0.2 -0.2)">
      <defs>
       <path id="DejaVuSans-50" d="M 1259 4147 
L 1259 2394 
L 2053 2394 
Q 2494 2394 2734 2622 
Q 2975 2850 2975 3272 
Q 2975 3691 2734 3919 
Q 2494 4147 2053 4147 
L 1259 4147 
z
M 628 4666 
L 2053 4666 
Q 2838 4666 3239 4311 
Q 3641 3956 3641 3272 
Q 3641 2581 3239 2228 
Q 2838 1875 2053 1875 
L 1259 1875 
L 1259 0 
L 628 0 
L 628 4666 
z
" transform="scale(0.015625)"/>
       <path id="DejaVuSans-65" d="M 3597 1894 
L 3597 1613 
L 953 1613 
Q 991 1019 1311 708 
Q 1631 397 2203 397 
Q 2534 397 2845 478 
Q 3156 559 3463 722 
L 3463 178 
Q 3153 47 2828 -22 
Q 2503 -91 2169 -91 
Q 1331 -91 842 396 
Q 353 884 353 1716 
Q 353 2575 817 3079 
Q 1281 3584 2069 3584 
Q 2775 3584 3186 3129 
Q 3597 2675 3597 1894 
z
M 3022 2063 
Q 3016 2534 2758 2815 
Q 2500 3097 2075 3097 
Q 1594 3097 1305 2825 
Q 1016 2553 972 2059 
L 3022 2063 
z
" transform="scale(0.015625)"/>
       <path id="DejaVuSans-72" d="M 2631 2963 
Q 2534 3019 2420 3045 
Q 2306 3072 2169 3072 
Q 1681 3072 1420 2755 
Q 1159 2438 1159 1844 
L 1159 0 
L 581 0 
L 581 3500 
L 1159 3500 
L 1159 2956 
Q 1341 3275 1631 3429 
Q 1922 3584 2338 3584 
Q 2397 3584 2469 3576 
Q 2541 3569 2628 3553 
L 2631 2963 
z
" transform="scale(0.015625)"/>
       <path id="DejaVuSans-63" d="M 3122 3366 
L 3122 2828 
Q 2878 2963 2633 3030 
Q 2388 3097 2138 3097 
Q 1578 3097 1268 2742 
Q 959 2388 959 1747 
Q 959 1106 1268 751 
Q 1578 397 2138 397 
Q 2388 397 2633 464 
Q 2878 531 3122 666 
L 3122 134 
Q 2881 22 2623 -34 
Q 2366 -91 2075 -91 
Q 1284 -91 818 406 
Q 353 903 353 1747 
Q 353 2603 823 3093 
Q 1294 3584 2113 3584 
Q 2378 3584 2631 3529 
Q 2884 3475 3122 3366 
z
" transform="scale(0.015625)"/>
       <path id="DejaVuSans-6e" d="M 3513 2113 
L 3513 0 
L 2938 0 
L 2938 2094 
Q 2938 2591 2744 2837 
Q 2550 3084 2163 3084 
Q 1697 3084 1428 2787 
Q 1159 2491 1159 1978 
L 1159 0 
L 581 0 
L 581 3500 
L 1159 3500 
L 1159 2956 
Q 1366 3272 1645 3428 
Q 1925 3584 2291 3584 
Q 2894 3584 3203 3211 
Q 3513 2838 3513 2113 
z
" transform="scale(0.015625)"/>
       <path id="DejaVuSans-74" d="M 1172 4494 
L 1172 3500 
L 2356 3500 
L 2356 3053 
L 1172 3053 
L 1172 1153 
Q 1172 725 1289 603 
Q 1406 481 1766 481 
L 2356 481 
L 2356 0 
L 1766 0 
Q 1100 0 847 248 
Q 594 497 594 1153 
L 594 3053 
L 172 3053 
L 172 3500 
L 594 3500 
L 594 4494 
L 1172 4494 
z
" transform="scale(0.015625)"/>
       <path id="DejaVuSans-69" d="M 603 3500 
L 1178 3500 
L 1178 0 
L 603 0 
L 603 3500 
z
M 603 4863 
L 1178 4863 
L 1178 4134 
L 603 4134 
L 603 4863 
z
" transform="scale(0.015625)"/>
       <path id="DejaVuSans-6c" d="M 603 4863 
L 1178 4863 
L 1178 0 
L 603 0 
L 603 4863 
z
" transform="scale(0.015625)"/>
       <path id="DejaVuSans-20" transform="scale(0.015625)"/>
       <path id="DejaVuSans-54" d="M -19 4666 
L 3928 4666 
L 3928 4134 
L 2272 4134 
L 2272 0 
L 1638 0 
L 1638 4134 
L -19 4134 
L -19 4666 
z
" transform="scale(0.015625)"/>
       <path id="DejaVuSans-68" d="M 3513 2113 
L 3513 0 
L 2938 0 
L 2938 2094 
Q 2938 2591 2744 2837 
Q 2550 3084 2163 3084 
Q 1697 3084 1428 2787 
Q 1159 2491 1159 1978 
L 1159 0 
L 581 0 
L 581 4863 
L 1159 4863 
L 1159 2956 
Q 1366 3272 1645 3428 
Q 1925 3584 2291 3584 
Q 2894 3584 3203 3211 
Q 3513 2838 3513 2113 
z
" transform="scale(0.015625)"/>
       <path id="DejaVuSans-73" d="M 2834 3397 
L 2834 2853 
Q 2591 2978 2328 3040 
Q 2066 3103 1784 3103 
Q 1356 3103 1142 2972 
Q 928 2841 928 2578 
Q 928 2378 1081 2264 
Q 1234 2150 1697 2047 
L 1894 2003 
Q 2506 1872 2764 1633 
Q 3022 1394 3022 966 
Q 3022 478 2636 193 
Q 2250 -91 1575 -91 
Q 1294 -91 989 -36 
Q 684 19 347 128 
L 347 722 
Q 666 556 975 473 
Q 1284 391 1588 391 
Q 1994 391 2212 530 
Q 2431 669 2431 922 
Q 2431 1156 2273 1281 
Q 2116 1406 1581 1522 
L 1381 1569 
Q 847 1681 609 1914 
Q 372 2147 372 2553 
Q 372 3047 722 3315 
Q 1072 3584 1716 3584 
Q 2034 3584 2315 3537 
Q 2597 3491 2834 3397 
z
" transform="scale(0.015625)"/>
       <path id="DejaVuSans-6f" d="M 1959 3097 
Q 1497 3097 1228 2736 
Q 959 2375 959 1747 
Q 959 1119 1226 758 
Q 1494 397 1959 397 
Q 2419 397 2687 759 
Q 2956 1122 2956 1747 
Q 2956 2369 2687 2733 
Q 2419 3097 1959 3097 
z
M 1959 3584 
Q 2709 3584 3137 3096 
Q 3566 2609 3566 1747 
Q 3566 888 3137 398 
Q 2709 -91 1959 -91 
Q 1206 -91 779 398 
Q 353 888 353 1747 
Q 353 2609 779 3096 
Q 1206 3584 1959 3584 
z
" transform="scale(0.015625)"/>
       <path id="DejaVuSans-64" d="M 2906 2969 
L 2906 4863 
L 3481 4863 
L 3481 0 
L 2906 0 
L 2906 525 
Q 2725 213 2448 61 
Q 2172 -91 1784 -91 
Q 1150 -91 751 415 
Q 353 922 353 1747 
Q 353 2572 751 3078 
Q 1150 3584 1784 3584 
Q 2172 3584 2448 3432 
Q 2725 3281 2906 2969 
z
M 947 1747 
Q 947 1113 1208 752 
Q 1469 391 1925 391 
Q 2381 391 2643 752 
Q 2906 1113 2906 1747 
Q 2906 2381 2643 2742 
Q 2381 3103 1925 3103 
Q 1469 3103 1208 2742 
Q 947 2381 947 1747 
z
" transform="scale(0.015625)"/>
      </defs>
      <use xlink:href="#DejaVuSans-50"/>
      <use xlink:href="#DejaVuSans-65" x="56.677734"/>
      <use xlink:href="#DejaVuSans-72" x="118.201172"/>
      <use xlink:href="#DejaVuSans-63" x="157.064453"/>
      <use xlink:href="#DejaVuSans-65" x="212.044922"/>
      <use xlink:href="#DejaVuSans-6e" x="273.568359"/>
      <use xlink:href="#DejaVuSans-74" x="336.947266"/>
      <use xlink:href="#DejaVuSans-69" x="376.15625"/>
      <use xlink:href="#DejaVuSans-6c" x="403.939453"/>
      <use xlink:href="#DejaVuSans-65" x="431.722656"/>
      <use xlink:href="#DejaVuSans-20" x="493.246094"/>
      <use xlink:href="#DejaVuSans-54" x="525.033203"/>
      <use xlink:href="#DejaVuSans-68" x="586.117188"/>
      <use xlink:href="#DejaVuSans-72" x="649.496094"/>
      <use xlink:href="#DejaVuSans-65" x="688.359375"/>
      <use xlink:href="#DejaVuSans-73" x="749.882812"/>
      <use xlink:href="#DejaVuSans-68" x="801.982422"/>
      <use xlink:href="#DejaVuSans-6f" x="865.361328"/>
      <use xlink:href="#DejaVuSans-6c" x="926.542969"/>
      <use xlink:href="#DejaVuSans-64" x="954.326172"/>
     </g>
     <!-- (Using "random" Threshold Handling) -->
     <g transform="translate(417.102813 558.50075) scale(0.2 -0.2)">
      <defs>
       <path id="DejaVuSans-28" d="M 1984 4856 
Q 1566 4138 1362 3434 
Q 1159 2731 1159 2009 
Q 1159 1288 1364 580 
Q 1569 -128 1984 -844 
L 1484 -844 
Q 1016 -109 783 600 
Q 550 1309 550 2009 
Q 550 2706 781 3412 
Q 1013 4119 1484 4856 
L 1984 4856 
z
" transform="scale(0.015625)"/>
       <path id="DejaVuSans-55" d="M 556 4666 
L 1191 4666 
L 1191 1831 
Q 1191 1081 1462 751 
Q 1734 422 2344 422 
Q 2950 422 3222 751 
Q 3494 1081 3494 1831 
L 3494 4666 
L 4128 4666 
L 4128 1753 
Q 4128 841 3676 375 
Q 3225 -91 2344 -91 
Q 1459 -91 1007 375 
Q 556 841 556 1753 
L 556 4666 
z
" transform="scale(0.015625)"/>
       <path id="DejaVuSans-67" d="M 2906 1791 
Q 2906 2416 2648 2759 
Q 2391 3103 1925 3103 
Q 1463 3103 1205 2759 
Q 947 2416 947 1791 
Q 947 1169 1205 825 
Q 1463 481 1925 481 
Q 2391 481 2648 825 
Q 2906 1169 2906 1791 
z
M 3481 434 
Q 3481 -459 3084 -895 
Q 2688 -1331 1869 -1331 
Q 1566 -1331 1297 -1286 
Q 1028 -1241 775 -1147 
L 775 -588 
Q 1028 -725 1275 -790 
Q 1522 -856 1778 -856 
Q 2344 -856 2625 -561 
Q 2906 -266 2906 331 
L 2906 616 
Q 2728 306 2450 153 
Q 2172 0 1784 0 
Q 1141 0 747 490 
Q 353 981 353 1791 
Q 353 2603 747 3093 
Q 1141 3584 1784 3584 
Q 2172 3584 2450 3431 
Q 2728 3278 2906 2969 
L 2906 3500 
L 3481 3500 
L 3481 434 
z
" transform="scale(0.015625)"/>
       <path id="DejaVuSans-22" d="M 1147 4666 
L 1147 2931 
L 616 2931 
L 616 4666 
L 1147 4666 
z
M 2328 4666 
L 2328 2931 
L 1797 2931 
L 1797 4666 
L 2328 4666 
z
" transform="scale(0.015625)"/>
       <path id="DejaVuSans-61" d="M 2194 1759 
Q 1497 1759 1228 1600 
Q 959 1441 959 1056 
Q 959 750 1161 570 
Q 1363 391 1709 391 
Q 2188 391 2477 730 
Q 2766 1069 2766 1631 
L 2766 1759 
L 2194 1759 
z
M 3341 1997 
L 3341 0 
L 2766 0 
L 2766 531 
Q 2569 213 2275 61 
Q 1981 -91 1556 -91 
Q 1019 -91 701 211 
Q 384 513 384 1019 
Q 384 1609 779 1909 
Q 1175 2209 1959 2209 
L 2766 2209 
L 2766 2266 
Q 2766 2663 2505 2880 
Q 2244 3097 1772 3097 
Q 1472 3097 1187 3025 
Q 903 2953 641 2809 
L 641 3341 
Q 956 3463 1253 3523 
Q 1550 3584 1831 3584 
Q 2591 3584 2966 3190 
Q 3341 2797 3341 1997 
z
" transform="scale(0.015625)"/>
       <path id="DejaVuSans-6d" d="M 3328 2828 
Q 3544 3216 3844 3400 
Q 4144 3584 4550 3584 
Q 5097 3584 5394 3201 
Q 5691 2819 5691 2113 
L 5691 0 
L 5113 0 
L 5113 2094 
Q 5113 2597 4934 2840 
Q 4756 3084 4391 3084 
Q 3944 3084 3684 2787 
Q 3425 2491 3425 1978 
L 3425 0 
L 2847 0 
L 2847 2094 
Q 2847 2600 2669 2842 
Q 2491 3084 2119 3084 
Q 1678 3084 1418 2786 
Q 1159 2488 1159 1978 
L 1159 0 
L 581 0 
L 581 3500 
L 1159 3500 
L 1159 2956 
Q 1356 3278 1631 3431 
Q 1906 3584 2284 3584 
Q 2666 3584 2933 3390 
Q 3200 3197 3328 2828 
z
" transform="scale(0.015625)"/>
       <path id="DejaVuSans-48" d="M 628 4666 
L 1259 4666 
L 1259 2753 
L 3553 2753 
L 3553 4666 
L 4184 4666 
L 4184 0 
L 3553 0 
L 3553 2222 
L 1259 2222 
L 1259 0 
L 628 0 
L 628 4666 
z
" transform="scale(0.015625)"/>
       <path id="DejaVuSans-29" d="M 513 4856 
L 1013 4856 
Q 1481 4119 1714 3412 
Q 1947 2706 1947 2009 
Q 1947 1309 1714 600 
Q 1481 -109 1013 -844 
L 513 -844 
Q 928 -128 1133 580 
Q 1338 1288 1338 2009 
Q 1338 2731 1133 3434 
Q 928 4138 513 4856 
z
" transform="scale(0.015625)"/>
      </defs>
      <use xlink:href="#DejaVuSans-28"/>
      <use xlink:href="#DejaVuSans-55" x="39.013672"/>
      <use xlink:href="#DejaVuSans-73" x="112.207031"/>
      <use xlink:href="#DejaVuSans-69" x="164.306641"/>
      <use xlink:href="#DejaVuSans-6e" x="192.089844"/>
      <use xlink:href="#DejaVuSans-67" x="255.46875"/>
      <use xlink:href="#DejaVuSans-20" x="318.945312"/>
      <use xlink:href="#DejaVuSans-22" x="350.732422"/>
      <use xlink:href="#DejaVuSans-72" x="396.728516"/>
      <use xlink:href="#DejaVuSans-61" x="437.841797"/>
      <use xlink:href="#DejaVuSans-6e" x="499.121094"/>
      <use xlink:href="#DejaVuSans-64" x="562.5"/>
      <use xlink:href="#DejaVuSans-6f" x="625.976562"/>
      <use xlink:href="#DejaVuSans-6d" x="687.158203"/>
      <use xlink:href="#DejaVuSans-22" x="784.570312"/>
      <use xlink:href="#DejaVuSans-20" x="830.566406"/>
      <use xlink:href="#DejaVuSans-54" x="862.353516"/>
      <use xlink:href="#DejaVuSans-68" x="923.4375"/>
      <use xlink:href="#DejaVuSans-72" x="986.816406"/>
      <use xlink:href="#DejaVuSans-65" x="1025.679688"/>
      <use xlink:href="#DejaVuSans-73" x="1087.203125"/>
      <use xlink:href="#DejaVuSans-68" x="1139.302734"/>
      <use xlink:href="#DejaVuSans-6f" x="1202.681641"/>
      <use xlink:href="#DejaVuSans-6c" x="1263.863281"/>
      <use xlink:href="#DejaVuSans-64" x="1291.646484"/>
      <use xlink:href="#DejaVuSans-20" x="1355.123047"/>
      <use xlink:href="#DejaVuSans-48" x="1386.910156"/>
      <use xlink:href="#DejaVuSans-61" x="1462.105469"/>
      <use xlink:href="#DejaVuSans-6e" x="1523.384766"/>
      <use xlink:href="#DejaVuSans-64" x="1586.763672"/>
      <use xlink:href="#DejaVuSans-6c" x="1650.240234"/>
      <use xlink:href="#DejaVuSans-69" x="1678.023438"/>
      <use xlink:href="#DejaVuSans-6e" x="1705.806641"/>
      <use xlink:href="#DejaVuSans-67" x="1769.185547"/>
      <use xlink:href="#DejaVuSans-29" x="1832.662109"/>
     </g>
    </g>
   </g>
   <g id="matplotlib.axis_2">
    <g id="ytick_1">
     <g id="line2d_6">
      <defs>
       <path id="m3f6257c223" d="M 0 0 
L -3.5 0 
" style="stroke: #000000; stroke-width: 0.8"/>
      </defs>
      <g>
       <use xlink:href="#m3f6257c223" x="67.34" y="475.051173" style="stroke: #000000; stroke-width: 0.8"/>
      </g>
     </g>
     <g id="text_7">
      <!-- 5 -->
      <g transform="translate(47.615 482.64961) scale(0.2 -0.2)">
       <defs>
        <path id="DejaVuSans-35" d="M 691 4666 
L 3169 4666 
L 3169 4134 
L 1269 4134 
L 1269 2991 
Q 1406 3038 1543 3061 
Q 1681 3084 1819 3084 
Q 2600 3084 3056 2656 
Q 3513 2228 3513 1497 
Q 3513 744 3044 326 
Q 2575 -91 1722 -91 
Q 1428 -91 1123 -41 
Q 819 9 494 109 
L 494 744 
Q 775 591 1075 516 
Q 1375 441 1709 441 
Q 2250 441 2565 725 
Q 2881 1009 2881 1497 
Q 2881 1984 2565 2268 
Q 2250 2553 1709 2553 
Q 1456 2553 1204 2497 
Q 953 2441 691 2322 
L 691 4666 
z
" transform="scale(0.015625)"/>
       </defs>
       <use xlink:href="#DejaVuSans-35"/>
      </g>
     </g>
    </g>
    <g id="ytick_2">
     <g id="line2d_7">
      <g>
       <use xlink:href="#m3f6257c223" x="67.34" y="396.983365" style="stroke: #000000; stroke-width: 0.8"/>
      </g>
     </g>
     <g id="text_8">
      <!-- 6 -->
      <g transform="translate(47.615 404.581803) scale(0.2 -0.2)">
       <use xlink:href="#DejaVuSans-36"/>
      </g>
     </g>
    </g>
    <g id="ytick_3">
     <g id="line2d_8">
      <g>
       <use xlink:href="#m3f6257c223" x="67.34" y="318.915557" style="stroke: #000000; stroke-width: 0.8"/>
      </g>
     </g>
     <g id="text_9">
      <!-- 7 -->
      <g transform="translate(47.615 326.513995) scale(0.2 -0.2)">
       <defs>
        <path id="DejaVuSans-37" d="M 525 4666 
L 3525 4666 
L 3525 4397 
L 1831 0 
L 1172 0 
L 2766 4134 
L 525 4134 
L 525 4666 
z
" transform="scale(0.015625)"/>
       </defs>
       <use xlink:href="#DejaVuSans-37"/>
      </g>
     </g>
    </g>
    <g id="ytick_4">
     <g id="line2d_9">
      <g>
       <use xlink:href="#m3f6257c223" x="67.34" y="240.847749" style="stroke: #000000; stroke-width: 0.8"/>
      </g>
     </g>
     <g id="text_10">
      <!-- 8 -->
      <g transform="translate(47.615 248.446187) scale(0.2 -0.2)">
       <use xlink:href="#DejaVuSans-38"/>
      </g>
     </g>
    </g>
    <g id="ytick_5">
     <g id="line2d_10">
      <g>
       <use xlink:href="#m3f6257c223" x="67.34" y="162.779941" style="stroke: #000000; stroke-width: 0.8"/>
      </g>
     </g>
     <g id="text_11">
      <!-- 9 -->
      <g transform="translate(47.615 170.378379) scale(0.2 -0.2)">
       <defs>
        <path id="DejaVuSans-39" d="M 703 97 
L 703 672 
Q 941 559 1184 500 
Q 1428 441 1663 441 
Q 2288 441 2617 861 
Q 2947 1281 2994 2138 
Q 2813 1869 2534 1725 
Q 2256 1581 1919 1581 
Q 1219 1581 811 2004 
Q 403 2428 403 3163 
Q 403 3881 828 4315 
Q 1253 4750 1959 4750 
Q 2769 4750 3195 4129 
Q 3622 3509 3622 2328 
Q 3622 1225 3098 567 
Q 2575 -91 1691 -91 
Q 1453 -91 1209 -44 
Q 966 3 703 97 
z
M 1959 2075 
Q 2384 2075 2632 2365 
Q 2881 2656 2881 3163 
Q 2881 3666 2632 3958 
Q 2384 4250 1959 4250 
Q 1534 4250 1286 3958 
Q 1038 3666 1038 3163 
Q 1038 2656 1286 2365 
Q 1534 2075 1959 2075 
z
" transform="scale(0.015625)"/>
       </defs>
       <use xlink:href="#DejaVuSans-39"/>
      </g>
     </g>
    </g>
    <g id="ytick_6">
     <g id="line2d_11">
      <g>
       <use xlink:href="#m3f6257c223" x="67.34" y="84.712133" style="stroke: #000000; stroke-width: 0.8"/>
      </g>
     </g>
     <g id="text_12">
      <!-- 10 -->
      <g transform="translate(34.89 92.310571) scale(0.2 -0.2)">
       <defs>
        <path id="DejaVuSans-31" d="M 794 531 
L 1825 531 
L 1825 4091 
L 703 3866 
L 703 4441 
L 1819 4666 
L 2450 4666 
L 2450 531 
L 3481 531 
L 3481 0 
L 794 0 
L 794 531 
z
" transform="scale(0.015625)"/>
       </defs>
       <use xlink:href="#DejaVuSans-31"/>
       <use xlink:href="#DejaVuSans-30" x="63.623047"/>
      </g>
     </g>
    </g>
    <g id="text_13">
     <!-- MAE -->
     <g transform="translate(26.730625 272.4635) rotate(-90) scale(0.2 -0.2)">
      <defs>
       <path id="DejaVuSans-4d" d="M 628 4666 
L 1569 4666 
L 2759 1491 
L 3956 4666 
L 4897 4666 
L 4897 0 
L 4281 0 
L 4281 4097 
L 3078 897 
L 2444 897 
L 1241 4097 
L 1241 0 
L 628 0 
L 628 4666 
z
" transform="scale(0.015625)"/>
       <path id="DejaVuSans-41" d="M 2188 4044 
L 1331 1722 
L 3047 1722 
L 2188 4044 
z
M 1831 4666 
L 2547 4666 
L 4325 0 
L 3669 0 
L 3244 1197 
L 1141 1197 
L 716 0 
L 50 0 
L 1831 4666 
z
" transform="scale(0.015625)"/>
       <path id="DejaVuSans-45" d="M 628 4666 
L 3578 4666 
L 3578 4134 
L 1259 4134 
L 1259 2753 
L 3481 2753 
L 3481 2222 
L 1259 2222 
L 1259 531 
L 3634 531 
L 3634 0 
L 628 0 
L 628 4666 
z
" transform="scale(0.015625)"/>
      </defs>
      <use xlink:href="#DejaVuSans-4d"/>
      <use xlink:href="#DejaVuSans-41" x="86.279297"/>
      <use xlink:href="#DejaVuSans-45" x="154.6875"/>
     </g>
    </g>
   </g>
   <g id="line2d_12">
    <path d="M 116.151818 431.920638 
L 136.922805 449.79103 
L 157.693791 448.135438 
L 178.464778 446.801276 
L 199.235764 448.320938 
L 220.00675 457.136327 
L 240.777737 438.127664 
L 261.548723 442.063548 
L 282.31971 443.593128 
L 303.090696 441.305025 
L 323.861683 442.45591 
L 344.632669 441.793421 
L 365.403656 435.279696 
L 386.174642 429.512132 
L 406.945629 445.117752 
L 427.716615 434.465726 
L 448.487602 438.93335 
L 469.258588 443.351228 
L 490.029574 444.810703 
L 510.800561 432.859995 
L 531.571547 428.824183 
L 552.342534 436.108956 
L 573.11352 440.539825 
L 593.884507 438.886693 
L 614.655493 443.762614 
L 635.42648 429.106335 
L 656.197466 436.730064 
L 676.968453 444.221791 
L 697.739439 437.90628 
L 718.510426 451.443897 
L 739.281412 444.238638 
L 760.052398 442.323613 
L 780.823385 434.818259 
L 801.594371 440.361656 
L 822.365358 434.498601 
L 843.136344 426.931037 
L 863.907331 432.340281 
L 884.678317 433.586254 
L 905.449304 436.77846 
L 926.22029 435.883043 
L 946.991277 434.76788 
L 967.762263 438.251343 
L 988.53325 424.13476 
L 1009.304236 445.086931 
L 1030.075222 439.355794 
L 1050.846209 435.346215 
L 1071.617195 448.873235 
L 1092.388182 436.381366 
" clip-path="url(#p82653b8793)" style="fill: none; stroke: #f77189; stroke-width: 1.5; stroke-linecap: square"/>
   </g>
   <g id="line2d_13">
    <path d="M 116.151818 407.382662 
L 136.922805 414.203922 
L 157.693791 414.499621 
L 178.464778 415.372135 
L 199.235764 416.903445 
L 220.00675 417.387639 
L 240.777737 416.299214 
L 261.548723 418.417984 
L 282.31971 418.285736 
L 303.090696 413.631994 
L 323.861683 419.115254 
L 344.632669 415.269978 
L 365.403656 398.674956 
L 386.174642 405.481026 
L 406.945629 408.502704 
L 427.716615 406.253929 
L 448.487602 419.065603 
L 469.258588 404.090782 
L 490.029574 415.312555 
L 510.800561 400.608813 
L 531.571547 400.853069 
L 552.342534 407.39221 
L 573.11352 418.070053 
L 593.884507 411.445968 
L 614.655493 410.483072 
L 635.42648 402.655051 
L 656.197466 411.442184 
L 676.968453 418.480268 
L 697.739439 411.201606 
L 718.510426 419.274845 
L 739.281412 411.14094 
L 760.052398 408.693933 
L 780.823385 403.316008 
L 801.594371 403.984756 
L 822.365358 405.948979 
L 843.136344 396.866311 
L 863.907331 399.957009 
L 884.678317 401.833581 
L 905.449304 401.620719 
L 926.22029 402.242066 
L 946.991277 407.013852 
L 967.762263 412.264292 
L 988.53325 391.010416 
L 1009.304236 412.860232 
L 1030.075222 408.237921 
L 1050.846209 401.806232 
L 1071.617195 414.889299 
L 1092.388182 408.313548 
" clip-path="url(#p82653b8793)" style="fill: none; stroke: #e18632; stroke-width: 1.5; stroke-linecap: square"/>
   </g>
   <g id="line2d_14">
    <path d="M 116.151818 425.701133 
L 136.922805 437.395514 
L 157.693791 432.510499 
L 178.464778 423.28195 
L 199.235764 434.255144 
L 220.00675 420.961457 
L 240.777737 430.193289 
L 261.548723 429.944845 
L 282.31971 434.960393 
L 303.090696 429.54129 
L 323.861683 439.553826 
L 344.632669 436.974428 
L 365.403656 426.448698 
L 386.174642 426.390817 
L 406.945629 423.294221 
L 427.716615 425.174645 
L 448.487602 435.616513 
L 469.258588 425.377803 
L 490.029574 424.02392 
L 510.800561 428.13145 
L 531.571547 407.125845 
L 552.342534 422.340844 
L 573.11352 435.026499 
L 593.884507 426.855851 
L 614.655493 428.296381 
L 635.42648 421.904646 
L 656.197466 430.890017 
L 676.968453 437.466468 
L 697.739439 433.181542 
L 718.510426 433.256414 
L 739.281412 429.755768 
L 760.052398 426.514422 
L 780.823385 426.388222 
L 801.594371 426.010727 
L 822.365358 433.001762 
L 843.136344 425.615422 
L 863.907331 416.688498 
L 884.678317 422.967683 
L 905.449304 426.668099 
L 926.22029 421.439813 
L 946.991277 427.855552 
L 967.762263 430.740657 
L 988.53325 427.960227 
L 1009.304236 422.588428 
L 1030.075222 429.564013 
L 1050.846209 430.316134 
L 1071.617195 433.112837 
L 1092.388182 428.310894 
" clip-path="url(#p82653b8793)" style="fill: none; stroke: #b59a32; stroke-width: 1.5; stroke-linecap: square"/>
   </g>
   <g id="line2d_15">
    <path d="M 116.151818 434.800225 
L 136.922805 445.700914 
L 157.693791 437.927554 
L 178.464778 438.152564 
L 199.235764 444.368894 
L 220.00675 448.161703 
L 240.777737 438.353237 
L 261.548723 448.663413 
L 282.31971 432.553676 
L 303.090696 432.33897 
L 323.861683 443.85734 
L 344.632669 450.65388 
L 365.403656 425.871172 
L 386.174642 423.839841 
L 406.945629 421.567298 
L 427.716615 426.844502 
L 448.487602 433.733708 
L 469.258588 439.299887 
L 490.029574 426.008404 
L 510.800561 416.335136 
L 531.571547 421.951484 
L 552.342534 425.306561 
L 573.11352 440.991157 
L 593.884507 437.400925 
L 614.655493 445.142765 
L 635.42648 426.330028 
L 656.197466 427.320296 
L 676.968453 438.050207 
L 697.739439 425.958739 
L 718.510426 437.360801 
L 739.281412 436.553257 
L 760.052398 442.008526 
L 780.823385 445.460717 
L 801.594371 437.487587 
L 822.365358 425.299296 
L 843.136344 423.392875 
L 863.907331 432.120939 
L 884.678317 423.814873 
L 905.449304 425.388058 
L 926.22029 420.896395 
L 946.991277 429.970707 
L 967.762263 430.36044 
L 988.53325 431.142817 
L 1009.304236 417.795244 
L 1030.075222 429.11295 
L 1050.846209 432.718448 
L 1071.617195 425.337382 
L 1092.388182 424.393037 
" clip-path="url(#p82653b8793)" style="fill: none; stroke: #8ba731; stroke-width: 1.5; stroke-linecap: square"/>
   </g>
   <g id="line2d_16">
    <path d="M 116.151818 300.962944 
L 136.922805 325.311152 
L 157.693791 301.610351 
L 178.464778 289.825145 
L 199.235764 308.549602 
L 220.00675 322.940562 
L 240.777737 306.170576 
L 261.548723 319.29147 
L 282.31971 306.491543 
L 303.090696 301.678944 
L 323.861683 312.123098 
L 344.632669 302.177045 
L 365.403656 281.723705 
L 386.174642 285.382962 
L 406.945629 284.828061 
L 427.716615 290.122651 
L 448.487602 331.955732 
L 469.258588 275.571403 
L 490.029574 309.876334 
L 510.800561 293.115591 
L 531.571547 290.162053 
L 552.342534 299.465651 
L 573.11352 332.866938 
L 593.884507 309.854098 
L 614.655493 297.171189 
L 635.42648 285.909751 
L 656.197466 313.813114 
L 676.968453 311.663917 
L 697.739439 306.384876 
L 718.510426 327.465911 
L 739.281412 306.507157 
L 760.052398 310.155991 
L 780.823385 298.088458 
L 801.594371 308.235888 
L 822.365358 310.552696 
L 843.136344 309.23505 
L 863.907331 298.461849 
L 884.678317 293.390969 
L 905.449304 308.623649 
L 926.22029 289.911837 
L 946.991277 303.363757 
L 967.762263 315.797796 
L 988.53325 307.111074 
L 1009.304236 309.636952 
L 1030.075222 299.537873 
L 1050.846209 316.142335 
L 1071.617195 324.540042 
L 1092.388182 283.583028 
" clip-path="url(#p82653b8793)" style="fill: none; stroke: #32b258; stroke-width: 1.5; stroke-linecap: square"/>
   </g>
   <g id="line2d_17">
    <path d="M 116.151818 348.707412 
L 136.922805 364.690643 
L 157.693791 354.970336 
L 178.464778 361.090821 
L 199.235764 357.555031 
L 220.00675 341.896905 
L 240.777737 347.73481 
L 261.548723 346.724815 
L 282.31971 347.474696 
L 303.090696 344.718061 
L 323.861683 358.534748 
L 344.632669 348.996087 
L 365.403656 347.183277 
L 386.174642 341.068162 
L 406.945629 342.951717 
L 427.716615 357.170393 
L 448.487602 341.414054 
L 469.258588 341.980683 
L 490.029574 346.803089 
L 510.800561 332.11117 
L 531.571547 337.487925 
L 552.342534 332.034611 
L 573.11352 338.882173 
L 593.884507 343.342962 
L 614.655493 340.9613 
L 635.42648 336.76478 
L 656.197466 334.930925 
L 676.968453 346.214634 
L 697.739439 352.407386 
L 718.510426 348.274376 
L 739.281412 347.170665 
L 760.052398 359.823096 
L 780.823385 348.6749 
L 801.594371 351.945919 
L 822.365358 350.567411 
L 843.136344 329.756683 
L 863.907331 333.422415 
L 884.678317 349.049613 
L 905.449304 342.581155 
L 926.22029 342.466027 
L 946.991277 342.796776 
L 967.762263 349.504749 
L 988.53325 347.19844 
L 1009.304236 335.953442 
L 1030.075222 354.591598 
L 1050.846209 340.413369 
L 1071.617195 348.015002 
L 1092.388182 340.211757 
" clip-path="url(#p82653b8793)" style="fill: none; stroke: #35ae95; stroke-width: 1.5; stroke-linecap: square"/>
   </g>
   <g id="line2d_18">
    <path d="M 116.151818 155.002925 
L 136.922805 167.234821 
L 157.693791 172.989954 
L 178.464778 166.91446 
L 199.235764 166.080706 
L 220.00675 160.562813 
L 240.777737 168.747084 
L 261.548723 171.78487 
L 282.31971 167.019171 
L 303.090696 174.52723 
L 323.861683 158.846347 
L 344.632669 164.489781 
L 365.403656 161.188183 
L 386.174642 157.09483 
L 406.945629 170.751912 
L 427.716615 161.54251 
L 448.487602 171.386734 
L 469.258588 164.797786 
L 490.029574 168.130153 
L 510.800561 155.165137 
L 531.571547 150.756727 
L 552.342534 167.082364 
L 573.11352 164.014366 
L 593.884507 162.581441 
L 614.655493 155.496651 
L 635.42648 149.942325 
L 656.197466 160.688985 
L 676.968453 158.941268 
L 697.739439 166.032908 
L 718.510426 164.75486 
L 739.281412 161.945415 
L 760.052398 171.84347 
L 780.823385 161.264344 
L 801.594371 155.787534 
L 822.365358 161.044917 
L 843.136344 160.554815 
L 863.907331 160.146709 
L 884.678317 169.950199 
L 905.449304 150.944133 
L 926.22029 162.602834 
L 946.991277 159.438361 
L 967.762263 162.427511 
L 988.53325 165.185571 
L 1009.304236 151.325299 
L 1030.075222 172.394791 
L 1050.846209 157.991165 
L 1071.617195 168.105626 
L 1092.388182 149.334097 
" clip-path="url(#p82653b8793)" style="fill: none; stroke: #37abb2; stroke-width: 1.5; stroke-linecap: square"/>
   </g>
   <g id="line2d_19">
    <path d="M 116.151818 198.369229 
L 136.922805 206.217298 
L 157.693791 203.250126 
L 178.464778 201.974032 
L 199.235764 202.519143 
L 220.00675 199.925066 
L 240.777737 197.989212 
L 261.548723 202.760472 
L 282.31971 199.38259 
L 303.090696 203.151879 
L 323.861683 199.372005 
L 344.632669 193.346638 
L 365.403656 190.7906 
L 386.174642 189.050774 
L 406.945629 191.090296 
L 427.716615 186.446928 
L 448.487602 190.314947 
L 469.258588 196.569131 
L 490.029574 196.979314 
L 510.800561 185.624606 
L 531.571547 181.572149 
L 552.342534 191.303749 
L 573.11352 191.506323 
L 593.884507 195.581739 
L 614.655493 196.103918 
L 635.42648 189.695583 
L 656.197466 187.782766 
L 676.968453 196.532088 
L 697.739439 189.46257 
L 718.510426 192.835998 
L 739.281412 186.756502 
L 760.052398 190.439875 
L 780.823385 194.306704 
L 801.594371 184.526248 
L 822.365358 189.968998 
L 843.136344 182.734871 
L 863.907331 187.139142 
L 884.678317 181.41966 
L 905.449304 184.627569 
L 926.22029 193.096276 
L 946.991277 190.796927 
L 967.762263 197.916318 
L 988.53325 183.732868 
L 1009.304236 190.943838 
L 1030.075222 192.52046 
L 1050.846209 184.044371 
L 1071.617195 197.136471 
L 1092.388182 190.663394 
" clip-path="url(#p82653b8793)" style="fill: none; stroke: #39a7d6; stroke-width: 1.5; stroke-linecap: square"/>
   </g>
   <g id="line2d_20">
    <path d="M 116.151818 198.363542 
L 136.922805 206.215094 
L 157.693791 203.234859 
L 178.464778 201.971001 
L 199.235764 202.52945 
L 220.00675 199.897362 
L 240.777737 197.957918 
L 261.548723 202.753527 
L 282.31971 199.301239 
L 303.090696 203.192691 
L 323.861683 199.341791 
L 344.632669 193.316401 
L 365.403656 190.776818 
L 386.174642 189.036335 
L 406.945629 191.092599 
L 427.716615 186.450055 
L 448.487602 190.334132 
L 469.258588 196.547909 
L 490.029574 196.97205 
L 510.800561 185.590686 
L 531.571547 181.533548 
L 552.342534 191.276517 
L 573.11352 191.490207 
L 593.884507 195.586701 
L 614.655493 196.059837 
L 635.42648 189.690137 
L 656.197466 187.736419 
L 676.968453 196.498959 
L 697.739439 189.419693 
L 718.510426 192.881122 
L 739.281412 186.696696 
L 760.052398 190.456529 
L 780.823385 194.211059 
L 801.594371 184.501798 
L 822.365358 189.92905 
L 843.136344 182.737822 
L 863.907331 187.151048 
L 884.678317 181.394975 
L 905.449304 184.62977 
L 926.22029 193.130766 
L 946.991277 190.731182 
L 967.762263 197.937315 
L 988.53325 183.70747 
L 1009.304236 190.941578 
L 1030.075222 192.476441 
L 1050.846209 184.056937 
L 1071.617195 197.103989 
L 1092.388182 190.654115 
" clip-path="url(#p82653b8793)" style="fill: none; stroke: #8f93f4; stroke-width: 1.5; stroke-linecap: square"/>
   </g>
   <g id="line2d_21">
    <path d="M 116.151818 269.721385 
L 136.922805 300.768467 
L 157.693791 281.534327 
L 178.464778 255.083111 
L 199.235764 273.64844 
L 220.00675 279.552192 
L 240.777737 269.603819 
L 261.548723 275.634886 
L 282.31971 281.739351 
L 303.090696 286.749351 
L 323.861683 278.416737 
L 344.632669 276.092636 
L 365.403656 244.385477 
L 386.174642 267.75236 
L 406.945629 257.363007 
L 427.716615 259.822582 
L 448.487602 303.791677 
L 469.258588 252.439814 
L 490.029574 277.063615 
L 510.800561 250.833478 
L 531.571547 242.787959 
L 552.342534 276.433824 
L 573.11352 297.939533 
L 593.884507 282.678864 
L 614.655493 259.159579 
L 635.42648 281.35005 
L 656.197466 272.051104 
L 676.968453 275.082079 
L 697.739439 273.084964 
L 718.510426 297.596992 
L 739.281412 267.827058 
L 760.052398 288.918962 
L 780.823385 262.603625 
L 801.594371 278.483043 
L 822.365358 285.076603 
L 843.136344 269.875659 
L 863.907331 271.695151 
L 884.678317 260.632699 
L 905.449304 278.758816 
L 926.22029 257.445502 
L 946.991277 268.921159 
L 967.762263 280.010827 
L 988.53325 272.833269 
L 1009.304236 285.938496 
L 1030.075222 280.696886 
L 1050.846209 283.390634 
L 1071.617195 293.311198 
L 1092.388182 252.058288 
" clip-path="url(#p82653b8793)" style="fill: none; stroke: #db70f4; stroke-width: 1.5; stroke-linecap: square"/>
   </g>
   <g id="line2d_22">
    <path d="M 116.151818 113.948867 
L 136.922805 135.481625 
L 157.693791 105.948976 
L 178.464778 120.62023 
L 199.235764 122.519247 
L 220.00675 97.755649 
L 240.777737 104.750878 
L 261.548723 111.609635 
L 282.31971 110.447634 
L 303.090696 97.829801 
L 323.861683 108.677316 
L 344.632669 103.157409 
L 365.403656 92.43909 
L 386.174642 83.871339 
L 406.945629 91.51261 
L 427.716615 106.839862 
L 448.487602 93.116808 
L 469.258588 81.972401 
L 490.029574 109.078952 
L 510.800561 67.726771 
L 531.571547 80.650256 
L 552.342534 83.731826 
L 573.11352 81.968106 
L 593.884507 113.138633 
L 614.655493 80.493367 
L 635.42648 73.891339 
L 656.197466 85.421363 
L 676.968453 106.412503 
L 697.739439 104.67627 
L 718.510426 79.206849 
L 739.281412 90.146535 
L 760.052398 110.36103 
L 780.823385 98.592738 
L 801.594371 97.018053 
L 822.365358 88.606981 
L 843.136344 77.029355 
L 863.907331 93.976274 
L 884.678317 107.430395 
L 905.449304 93.639159 
L 926.22029 94.465196 
L 946.991277 97.183328 
L 967.762263 99.834567 
L 988.53325 106.979116 
L 1009.304236 99.870812 
L 1030.075222 94.088984 
L 1050.846209 84.889912 
L 1071.617195 77.837546 
L 1092.388182 90.289476 
" clip-path="url(#p82653b8793)" style="fill: none; stroke: #f667c6; stroke-width: 1.5; stroke-linecap: square"/>
   </g>
   <g id="line2d_23"/>
   <g id="line2d_24"/>
   <g id="line2d_25"/>
   <g id="line2d_26"/>
   <g id="line2d_27"/>
   <g id="line2d_28"/>
   <g id="line2d_29"/>
   <g id="line2d_30"/>
   <g id="line2d_31"/>
   <g id="line2d_32"/>
   <g id="line2d_33"/>
   <g id="patch_3">
    <path d="M 67.34 490.552 
L 67.34 10.8 
" style="fill: none; stroke: #000000; stroke-width: 0.8; stroke-linejoin: miter; stroke-linecap: square"/>
   </g>
   <g id="patch_4">
    <path d="M 1141.2 490.552 
L 1141.2 10.8 
" style="fill: none; stroke: #000000; stroke-width: 0.8; stroke-linejoin: miter; stroke-linecap: square"/>
   </g>
   <g id="patch_5">
    <path d="M 67.34 490.552 
L 1141.2 490.552 
" style="fill: none; stroke: #000000; stroke-width: 0.8; stroke-linejoin: miter; stroke-linecap: square"/>
   </g>
   <g id="patch_6">
    <path d="M 67.34 10.8 
L 1141.2 10.8 
" style="fill: none; stroke: #000000; stroke-width: 0.8; stroke-linejoin: miter; stroke-linecap: square"/>
   </g>
   <g id="legend_1">
    <g id="patch_7">
     <path d="M 78.54 482.552 
L 248.285 482.552 
Q 251.485 482.552 251.485 479.352 
L 251.485 222.617 
Q 251.485 219.417 248.285 219.417 
L 78.54 219.417 
Q 75.34 219.417 75.34 222.617 
L 75.34 479.352 
Q 75.34 482.552 78.54 482.552 
z
" style="fill: #ffffff; opacity: 0.8; stroke: #cccccc; stroke-linejoin: miter"/>
    </g>
    <g id="line2d_34">
     <path d="M 81.74 232.3745 
L 97.74 232.3745 
L 113.74 232.3745 
" style="fill: none; stroke: #f77189; stroke-width: 1.5; stroke-linecap: square"/>
    </g>
    <g id="text_14">
     <!-- gbr -->
     <g transform="translate(126.54 237.9745) scale(0.16 -0.16)">
      <defs>
       <path id="DejaVuSans-62" d="M 3116 1747 
Q 3116 2381 2855 2742 
Q 2594 3103 2138 3103 
Q 1681 3103 1420 2742 
Q 1159 2381 1159 1747 
Q 1159 1113 1420 752 
Q 1681 391 2138 391 
Q 2594 391 2855 752 
Q 3116 1113 3116 1747 
z
M 1159 2969 
Q 1341 3281 1617 3432 
Q 1894 3584 2278 3584 
Q 2916 3584 3314 3078 
Q 3713 2572 3713 1747 
Q 3713 922 3314 415 
Q 2916 -91 2278 -91 
Q 1894 -91 1617 61 
Q 1341 213 1159 525 
L 1159 0 
L 581 0 
L 581 4863 
L 1159 4863 
L 1159 2969 
z
" transform="scale(0.015625)"/>
      </defs>
      <use xlink:href="#DejaVuSans-67"/>
      <use xlink:href="#DejaVuSans-62" x="63.476562"/>
      <use xlink:href="#DejaVuSans-72" x="126.953125"/>
     </g>
    </g>
    <g id="line2d_35">
     <path d="M 81.74 255.8595 
L 97.74 255.8595 
L 113.74 255.8595 
" style="fill: none; stroke: #e18632; stroke-width: 1.5; stroke-linecap: square"/>
    </g>
    <g id="text_15">
     <!-- rf -->
     <g transform="translate(126.54 261.4595) scale(0.16 -0.16)">
      <defs>
       <path id="DejaVuSans-66" d="M 2375 4863 
L 2375 4384 
L 1825 4384 
Q 1516 4384 1395 4259 
Q 1275 4134 1275 3809 
L 1275 3500 
L 2222 3500 
L 2222 3053 
L 1275 3053 
L 1275 0 
L 697 0 
L 697 3053 
L 147 3053 
L 147 3500 
L 697 3500 
L 697 3744 
Q 697 4328 969 4595 
Q 1241 4863 1831 4863 
L 2375 4863 
z
" transform="scale(0.015625)"/>
      </defs>
      <use xlink:href="#DejaVuSans-72"/>
      <use xlink:href="#DejaVuSans-66" x="41.113281"/>
     </g>
    </g>
    <g id="line2d_36">
     <path d="M 81.74 279.3445 
L 97.74 279.3445 
L 113.74 279.3445 
" style="fill: none; stroke: #b59a32; stroke-width: 1.5; stroke-linecap: square"/>
    </g>
    <g id="text_16">
     <!-- lgbm -->
     <g transform="translate(126.54 284.9445) scale(0.16 -0.16)">
      <use xlink:href="#DejaVuSans-6c"/>
      <use xlink:href="#DejaVuSans-67" x="27.783203"/>
      <use xlink:href="#DejaVuSans-62" x="91.259766"/>
      <use xlink:href="#DejaVuSans-6d" x="154.736328"/>
     </g>
    </g>
    <g id="line2d_37">
     <path d="M 81.74 302.8295 
L 97.74 302.8295 
L 113.74 302.8295 
" style="fill: none; stroke: #8ba731; stroke-width: 1.5; stroke-linecap: square"/>
    </g>
    <g id="text_17">
     <!-- xgb -->
     <g transform="translate(126.54 308.4295) scale(0.16 -0.16)">
      <defs>
       <path id="DejaVuSans-78" d="M 3513 3500 
L 2247 1797 
L 3578 0 
L 2900 0 
L 1881 1375 
L 863 0 
L 184 0 
L 1544 1831 
L 300 3500 
L 978 3500 
L 1906 2253 
L 2834 3500 
L 3513 3500 
z
" transform="scale(0.015625)"/>
      </defs>
      <use xlink:href="#DejaVuSans-78"/>
      <use xlink:href="#DejaVuSans-67" x="59.179688"/>
      <use xlink:href="#DejaVuSans-62" x="122.65625"/>
     </g>
    </g>
    <g id="line2d_38">
     <path d="M 81.74 326.3145 
L 97.74 326.3145 
L 113.74 326.3145 
" style="fill: none; stroke: #32b258; stroke-width: 1.5; stroke-linecap: square"/>
    </g>
    <g id="text_18">
     <!-- et -->
     <g transform="translate(126.54 331.9145) scale(0.16 -0.16)">
      <use xlink:href="#DejaVuSans-65"/>
      <use xlink:href="#DejaVuSans-74" x="61.523438"/>
     </g>
    </g>
    <g id="line2d_39">
     <path d="M 81.74 349.7995 
L 97.74 349.7995 
L 113.74 349.7995 
" style="fill: none; stroke: #35ae95; stroke-width: 1.5; stroke-linecap: square"/>
    </g>
    <g id="text_19">
     <!-- BayesianRidge -->
     <g transform="translate(126.54 355.3995) scale(0.16 -0.16)">
      <defs>
       <path id="DejaVuSans-42" d="M 1259 2228 
L 1259 519 
L 2272 519 
Q 2781 519 3026 730 
Q 3272 941 3272 1375 
Q 3272 1813 3026 2020 
Q 2781 2228 2272 2228 
L 1259 2228 
z
M 1259 4147 
L 1259 2741 
L 2194 2741 
Q 2656 2741 2882 2914 
Q 3109 3088 3109 3444 
Q 3109 3797 2882 3972 
Q 2656 4147 2194 4147 
L 1259 4147 
z
M 628 4666 
L 2241 4666 
Q 2963 4666 3353 4366 
Q 3744 4066 3744 3513 
Q 3744 3084 3544 2831 
Q 3344 2578 2956 2516 
Q 3422 2416 3680 2098 
Q 3938 1781 3938 1306 
Q 3938 681 3513 340 
Q 3088 0 2303 0 
L 628 0 
L 628 4666 
z
" transform="scale(0.015625)"/>
       <path id="DejaVuSans-79" d="M 2059 -325 
Q 1816 -950 1584 -1140 
Q 1353 -1331 966 -1331 
L 506 -1331 
L 506 -850 
L 844 -850 
Q 1081 -850 1212 -737 
Q 1344 -625 1503 -206 
L 1606 56 
L 191 3500 
L 800 3500 
L 1894 763 
L 2988 3500 
L 3597 3500 
L 2059 -325 
z
" transform="scale(0.015625)"/>
       <path id="DejaVuSans-52" d="M 2841 2188 
Q 3044 2119 3236 1894 
Q 3428 1669 3622 1275 
L 4263 0 
L 3584 0 
L 2988 1197 
Q 2756 1666 2539 1819 
Q 2322 1972 1947 1972 
L 1259 1972 
L 1259 0 
L 628 0 
L 628 4666 
L 2053 4666 
Q 2853 4666 3247 4331 
Q 3641 3997 3641 3322 
Q 3641 2881 3436 2590 
Q 3231 2300 2841 2188 
z
M 1259 4147 
L 1259 2491 
L 2053 2491 
Q 2509 2491 2742 2702 
Q 2975 2913 2975 3322 
Q 2975 3731 2742 3939 
Q 2509 4147 2053 4147 
L 1259 4147 
z
" transform="scale(0.015625)"/>
      </defs>
      <use xlink:href="#DejaVuSans-42"/>
      <use xlink:href="#DejaVuSans-61" x="68.603516"/>
      <use xlink:href="#DejaVuSans-79" x="129.882812"/>
      <use xlink:href="#DejaVuSans-65" x="189.0625"/>
      <use xlink:href="#DejaVuSans-73" x="250.585938"/>
      <use xlink:href="#DejaVuSans-69" x="302.685547"/>
      <use xlink:href="#DejaVuSans-61" x="330.46875"/>
      <use xlink:href="#DejaVuSans-6e" x="391.748047"/>
      <use xlink:href="#DejaVuSans-52" x="455.126953"/>
      <use xlink:href="#DejaVuSans-69" x="524.609375"/>
      <use xlink:href="#DejaVuSans-64" x="552.392578"/>
      <use xlink:href="#DejaVuSans-67" x="615.869141"/>
      <use xlink:href="#DejaVuSans-65" x="679.345703"/>
     </g>
    </g>
    <g id="line2d_40">
     <path d="M 81.74 373.2845 
L 97.74 373.2845 
L 113.74 373.2845 
" style="fill: none; stroke: #37abb2; stroke-width: 1.5; stroke-linecap: square"/>
    </g>
    <g id="text_20">
     <!-- Adaboost -->
     <g transform="translate(126.54 378.8845) scale(0.16 -0.16)">
      <use xlink:href="#DejaVuSans-41"/>
      <use xlink:href="#DejaVuSans-64" x="66.658203"/>
      <use xlink:href="#DejaVuSans-61" x="130.134766"/>
      <use xlink:href="#DejaVuSans-62" x="191.414062"/>
      <use xlink:href="#DejaVuSans-6f" x="254.890625"/>
      <use xlink:href="#DejaVuSans-6f" x="316.072266"/>
      <use xlink:href="#DejaVuSans-73" x="377.253906"/>
      <use xlink:href="#DejaVuSans-74" x="429.353516"/>
     </g>
    </g>
    <g id="line2d_41">
     <path d="M 81.74 396.7695 
L 97.74 396.7695 
L 113.74 396.7695 
" style="fill: none; stroke: #39a7d6; stroke-width: 1.5; stroke-linecap: square"/>
    </g>
    <g id="text_21">
     <!-- Lasso -->
     <g transform="translate(126.54 402.3695) scale(0.16 -0.16)">
      <defs>
       <path id="DejaVuSans-4c" d="M 628 4666 
L 1259 4666 
L 1259 531 
L 3531 531 
L 3531 0 
L 628 0 
L 628 4666 
z
" transform="scale(0.015625)"/>
      </defs>
      <use xlink:href="#DejaVuSans-4c"/>
      <use xlink:href="#DejaVuSans-61" x="55.712891"/>
      <use xlink:href="#DejaVuSans-73" x="116.992188"/>
      <use xlink:href="#DejaVuSans-73" x="169.091797"/>
      <use xlink:href="#DejaVuSans-6f" x="221.191406"/>
     </g>
    </g>
    <g id="line2d_42">
     <path d="M 81.74 420.2545 
L 97.74 420.2545 
L 113.74 420.2545 
" style="fill: none; stroke: #8f93f4; stroke-width: 1.5; stroke-linecap: square"/>
    </g>
    <g id="text_22">
     <!-- LassoLars -->
     <g transform="translate(126.54 425.8545) scale(0.16 -0.16)">
      <use xlink:href="#DejaVuSans-4c"/>
      <use xlink:href="#DejaVuSans-61" x="55.712891"/>
      <use xlink:href="#DejaVuSans-73" x="116.992188"/>
      <use xlink:href="#DejaVuSans-73" x="169.091797"/>
      <use xlink:href="#DejaVuSans-6f" x="221.191406"/>
      <use xlink:href="#DejaVuSans-4c" x="282.373047"/>
      <use xlink:href="#DejaVuSans-61" x="338.085938"/>
      <use xlink:href="#DejaVuSans-72" x="399.365234"/>
      <use xlink:href="#DejaVuSans-73" x="440.478516"/>
     </g>
    </g>
    <g id="line2d_43">
     <path d="M 81.74 443.7395 
L 97.74 443.7395 
L 113.74 443.7395 
" style="fill: none; stroke: #db70f4; stroke-width: 1.5; stroke-linecap: square"/>
    </g>
    <g id="text_23">
     <!-- dt -->
     <g transform="translate(126.54 449.3395) scale(0.16 -0.16)">
      <use xlink:href="#DejaVuSans-64"/>
      <use xlink:href="#DejaVuSans-74" x="63.476562"/>
     </g>
    </g>
    <g id="line2d_44">
     <path d="M 81.74 467.2245 
L 97.74 467.2245 
L 113.74 467.2245 
" style="fill: none; stroke: #f667c6; stroke-width: 1.5; stroke-linecap: square"/>
    </g>
    <g id="text_24">
     <!-- HubR -->
     <g transform="translate(126.54 472.8245) scale(0.16 -0.16)">
      <defs>
       <path id="DejaVuSans-75" d="M 544 1381 
L 544 3500 
L 1119 3500 
L 1119 1403 
Q 1119 906 1312 657 
Q 1506 409 1894 409 
Q 2359 409 2629 706 
Q 2900 1003 2900 1516 
L 2900 3500 
L 3475 3500 
L 3475 0 
L 2900 0 
L 2900 538 
Q 2691 219 2414 64 
Q 2138 -91 1772 -91 
Q 1169 -91 856 284 
Q 544 659 544 1381 
z
M 1991 3584 
L 1991 3584 
z
" transform="scale(0.015625)"/>
      </defs>
      <use xlink:href="#DejaVuSans-48"/>
      <use xlink:href="#DejaVuSans-75" x="75.195312"/>
      <use xlink:href="#DejaVuSans-62" x="138.574219"/>
      <use xlink:href="#DejaVuSans-52" x="202.050781"/>
     </g>
    </g>
   </g>
  </g>
 </g>
 <defs>
  <clipPath id="p82653b8793">
   <rect x="67.34" y="10.8" width="1073.86" height="479.752"/>
  </clipPath>
 </defs>
</svg>
