<?xml version="1.0" encoding="utf-8" standalone="no"?>
<!DOCTYPE svg PUBLIC "-//W3C//DTD SVG 1.1//EN"
  "http://www.w3.org/Graphics/SVG/1.1/DTD/svg11.dtd">
<svg xmlns:xlink="http://www.w3.org/1999/xlink" width="1152pt" height="576pt" viewBox="0 0 1152 576" xmlns="http://www.w3.org/2000/svg" version="1.1">
 <metadata>
  <rdf:RDF xmlns:dc="http://purl.org/dc/elements/1.1/" xmlns:cc="http://creativecommons.org/ns#" xmlns:rdf="http://www.w3.org/1999/02/22-rdf-syntax-ns#">
   <cc:Work>
    <dc:type rdf:resource="http://purl.org/dc/dcmitype/StillImage"/>
    <dc:date>2025-04-21T13:09:10.427652</dc:date>
    <dc:format>image/svg+xml</dc:format>
    <dc:creator>
     <cc:Agent>
      <dc:title>Matplotlib v3.7.1, https://matplotlib.org/</dc:title>
     </cc:Agent>
    </dc:creator>
   </cc:Work>
  </rdf:RDF>
 </metadata>
 <defs>
  <style type="text/css">*{stroke-linejoin: round; stroke-linecap: butt}</style>
 </defs>
 <g id="figure_1">
  <g id="patch_1">
   <path d="M 0 576 
L 1152 576 
L 1152 0 
L 0 0 
z
" style="fill: #ffffff"/>
  </g>
  <g id="axes_1">
   <g id="patch_2">
    <path d="M 86.42 490.552 
L 1141.2 490.552 
L 1141.2 13.23592 
L 86.42 13.23592 
z
" style="fill: #ffffff"/>
   </g>
   <g id="PolyCollection_1">
    <defs>
     <path id="m4be498aa70" d="M 134.364545 -417.698957 
L 134.364545 -333.653819 
L 174.318333 -267.696733 
L 214.272121 -262.378715 
L 254.225909 -254.180359 
L 294.179697 -254.829472 
L 334.133485 -255.905732 
L 374.087273 -278.231025 
L 414.041061 -226.751111 
L 453.994848 -283.964957 
L 493.948636 -273.485524 
L 533.902424 -261.913756 
L 573.856212 -292.631713 
L 613.81 -272.757336 
L 653.763788 -277.619573 
L 693.717576 -244.757855 
L 733.671364 -259.266138 
L 773.625152 -282.273863 
L 813.578939 -286.547492 
L 853.532727 -309.502917 
L 893.486515 -292.620163 
L 933.440303 -265.185963 
L 973.394091 -257.706028 
L 1013.347879 -266.748229 
L 1053.301667 -263.566221 
L 1093.255455 -262.207928 
L 1093.255455 -319.14098 
L 1093.255455 -319.14098 
L 1053.301667 -385.976164 
L 1013.347879 -294.221112 
L 973.394091 -340.767922 
L 933.440303 -361.095919 
L 893.486515 -328.626506 
L 853.532727 -371.610217 
L 813.578939 -392.759692 
L 773.625152 -353.809502 
L 733.671364 -326.562215 
L 693.717576 -349.082065 
L 653.763788 -336.973294 
L 613.81 -355.481556 
L 573.856212 -322.680639 
L 533.902424 -351.677092 
L 493.948636 -303.005768 
L 453.994848 -316.236602 
L 414.041061 -279.583808 
L 374.087273 -329.264659 
L 334.133485 -318.617911 
L 294.179697 -295.736558 
L 254.225909 -309.964874 
L 214.272121 -307.053639 
L 174.318333 -341.940208 
L 134.364545 -417.698957 
z
" style="stroke: #1f77b4; stroke-opacity: 0.2"/>
    </defs>
    <g clip-path="url(#p444018672f)">
     <use xlink:href="#m4be498aa70" x="0" y="576" style="fill: #1f77b4; fill-opacity: 0.2; stroke: #1f77b4; stroke-opacity: 0.2"/>
    </g>
   </g>
   <g id="PolyCollection_2">
    <defs>
     <path id="m43742c5b40" d="M 134.364545 -355.290885 
L 134.364545 -275.88599 
L 174.318333 -176.678531 
L 214.272121 -169.12928 
L 254.225909 -161.968824 
L 294.179697 -203.022882 
L 334.133485 -180.655297 
L 374.087273 -196.959107 
L 414.041061 -130.346393 
L 453.994848 -163.99691 
L 493.948636 -163.245919 
L 533.902424 -214.785312 
L 573.856212 -187.244031 
L 613.81 -123.625303 
L 653.763788 -163.429812 
L 693.717576 -161.761363 
L 733.671364 -211.584791 
L 773.625152 -211.139745 
L 813.578939 -196.520388 
L 853.532727 -187.703854 
L 893.486515 -132.717143 
L 933.440303 -200.768281 
L 973.394091 -181.660243 
L 1013.347879 -175.835168 
L 1053.301667 -183.958926 
L 1093.255455 -179.625388 
L 1093.255455 -300.738288 
L 1093.255455 -300.738288 
L 1053.301667 -395.554649 
L 1013.347879 -326.370444 
L 973.394091 -230.325913 
L 933.440303 -334.539744 
L 893.486515 -257.742227 
L 853.532727 -324.686853 
L 813.578939 -356.027261 
L 773.625152 -295.796017 
L 733.671364 -325.750073 
L 693.717576 -336.731707 
L 653.763788 -292.072893 
L 613.81 -309.81011 
L 573.856212 -363.520863 
L 533.902424 -353.138247 
L 493.948636 -290.204908 
L 453.994848 -354.327268 
L 414.041061 -210.750498 
L 374.087273 -270.755103 
L 334.133485 -244.782192 
L 294.179697 -305.68935 
L 254.225909 -257.798964 
L 214.272121 -219.293361 
L 174.318333 -236.578473 
L 134.364545 -355.290885 
z
" style="stroke: #ff7f0e; stroke-opacity: 0.2"/>
    </defs>
    <g clip-path="url(#p444018672f)">
     <use xlink:href="#m43742c5b40" x="0" y="576" style="fill: #ff7f0e; fill-opacity: 0.2; stroke: #ff7f0e; stroke-opacity: 0.2"/>
    </g>
   </g>
   <g id="PolyCollection_3">
    <defs>
     <path id="mb880866898" d="M 134.364545 -416.694113 
L 134.364545 -295.849465 
L 174.318333 -240.919516 
L 214.272121 -159.178608 
L 254.225909 -248.375758 
L 294.179697 -233.672576 
L 334.133485 -207.011913 
L 374.087273 -218.573861 
L 414.041061 -218.423399 
L 453.994848 -236.077831 
L 493.948636 -231.130177 
L 533.902424 -264.090578 
L 573.856212 -211.942886 
L 613.81 -193.151552 
L 653.763788 -169.796677 
L 693.717576 -154.452842 
L 733.671364 -226.926512 
L 773.625152 -233.268086 
L 813.578939 -185.572843 
L 853.532727 -206.724603 
L 893.486515 -217.069224 
L 933.440303 -186.451583 
L 973.394091 -237.909618 
L 1013.347879 -240.103558 
L 1053.301667 -209.262346 
L 1093.255455 -217.670784 
L 1093.255455 -338.629708 
L 1093.255455 -338.629708 
L 1053.301667 -442.998026 
L 1013.347879 -391.637389 
L 973.394091 -381.412167 
L 933.440303 -374.43532 
L 893.486515 -364.181308 
L 853.532727 -305.391115 
L 813.578939 -309.143642 
L 773.625152 -321.984842 
L 733.671364 -411.657492 
L 693.717576 -327.978341 
L 653.763788 -358.744091 
L 613.81 -258.940282 
L 573.856212 -434.626737 
L 533.902424 -426.192987 
L 493.948636 -400.125004 
L 453.994848 -443.234908 
L 414.041061 -285.691904 
L 374.087273 -399.160943 
L 334.133485 -326.60392 
L 294.179697 -319.728577 
L 254.225909 -306.5925 
L 214.272121 -354.385041 
L 174.318333 -314.565124 
L 134.364545 -416.694113 
z
" style="stroke: #2ca02c; stroke-opacity: 0.2"/>
    </defs>
    <g clip-path="url(#p444018672f)">
     <use xlink:href="#mb880866898" x="0" y="576" style="fill: #2ca02c; fill-opacity: 0.2; stroke: #2ca02c; stroke-opacity: 0.2"/>
    </g>
   </g>
   <g id="PolyCollection_4">
    <defs>
     <path id="m7cab9cf9c8" d="M 134.364545 -513.041365 
L 134.364545 -452.47499 
L 174.318333 -333.057038 
L 214.272121 -328.797229 
L 254.225909 -280.769948 
L 294.179697 -332.494365 
L 334.133485 -291.888724 
L 374.087273 -320.558515 
L 414.041061 -275.439507 
L 453.994848 -314.049154 
L 493.948636 -287.408691 
L 533.902424 -363.146927 
L 573.856212 -319.092609 
L 613.81 -311.188875 
L 653.763788 -352.062428 
L 693.717576 -328.370098 
L 733.671364 -358.347059 
L 773.625152 -332.581051 
L 813.578939 -360.190906 
L 853.532727 -340.376642 
L 893.486515 -300.02041 
L 933.440303 -290.360366 
L 973.394091 -351.389638 
L 1013.347879 -306.19288 
L 1053.301667 -350.415492 
L 1093.255455 -309.173324 
L 1093.255455 -432.776492 
L 1093.255455 -432.776492 
L 1053.301667 -541.067895 
L 1013.347879 -449.868919 
L 973.394091 -404.484492 
L 933.440303 -447.325919 
L 893.486515 -409.223362 
L 853.532727 -478.60617 
L 813.578939 -482.946821 
L 773.625152 -449.524133 
L 733.671364 -502.013455 
L 693.717576 -437.202815 
L 653.763788 -435.607732 
L 613.81 -440.644045 
L 573.856212 -450.05506 
L 533.902424 -514.0787 
L 493.948636 -414.098344 
L 453.994848 -540.314606 
L 414.041061 -319.366051 
L 374.087273 -465.670041 
L 334.133485 -419.536768 
L 294.179697 -410.390046 
L 254.225909 -359.921667 
L 214.272121 -360.013939 
L 174.318333 -386.98033 
L 134.364545 -513.041365 
z
" style="stroke: #d62728; stroke-opacity: 0.2"/>
    </defs>
    <g clip-path="url(#p444018672f)">
     <use xlink:href="#m7cab9cf9c8" x="0" y="576" style="fill: #d62728; fill-opacity: 0.2; stroke: #d62728; stroke-opacity: 0.2"/>
    </g>
   </g>
   <g id="PolyCollection_5">
    <defs>
     <path id="m52a9da8e68" d="M 134.364545 -311.128608 
L 134.364545 -214.36664 
L 174.318333 -131.542443 
L 214.272121 -137.092405 
L 254.225909 -167.65417 
L 294.179697 -107.144185 
L 334.133485 -118.546093 
L 374.087273 -114.844603 
L 414.041061 -129.575936 
L 453.994848 -114.928935 
L 493.948636 -145.076616 
L 533.902424 -155.931734 
L 573.856212 -117.07034 
L 613.81 -116.458659 
L 653.763788 -135.154929 
L 693.717576 -127.948824 
L 733.671364 -159.514389 
L 773.625152 -137.553194 
L 813.578939 -118.745654 
L 853.532727 -142.315642 
L 893.486515 -119.390098 
L 933.440303 -124.771058 
L 973.394091 -139.639022 
L 1013.347879 -197.11119 
L 1053.301667 -123.187979 
L 1093.255455 -199.396625 
L 1093.255455 -317.992488 
L 1093.255455 -317.992488 
L 1053.301667 -284.978701 
L 1013.347879 -296.988098 
L 973.394091 -256.446777 
L 933.440303 -242.050039 
L 893.486515 -238.847276 
L 853.532727 -283.526508 
L 813.578939 -245.993116 
L 773.625152 -222.604592 
L 733.671364 -268.075293 
L 693.717576 -237.203803 
L 653.763788 -243.518307 
L 613.81 -271.362772 
L 573.856212 -304.421704 
L 533.902424 -283.356858 
L 493.948636 -288.813 
L 453.994848 -282.367278 
L 414.041061 -251.616011 
L 374.087273 -174.626473 
L 334.133485 -202.741127 
L 294.179697 -180.037951 
L 254.225909 -272.930489 
L 214.272121 -203.156091 
L 174.318333 -228.279107 
L 134.364545 -311.128608 
z
" style="stroke: #9467bd; stroke-opacity: 0.2"/>
    </defs>
    <g clip-path="url(#p444018672f)">
     <use xlink:href="#m52a9da8e68" x="0" y="576" style="fill: #9467bd; fill-opacity: 0.2; stroke: #9467bd; stroke-opacity: 0.2"/>
    </g>
   </g>
   <g id="PolyCollection_6">
    <defs>
     <path id="m2cb4b05286" d="M 134.364545 -404.930263 
L 134.364545 -350.554958 
L 174.318333 -190.686319 
L 214.272121 -193.539862 
L 254.225909 -252.130171 
L 294.179697 -259.433598 
L 334.133485 -216.589651 
L 374.087273 -272.826728 
L 414.041061 -240.456426 
L 453.994848 -203.421571 
L 493.948636 -209.82431 
L 533.902424 -199.471833 
L 573.856212 -187.535613 
L 613.81 -139.343214 
L 653.763788 -247.432083 
L 693.717576 -205.139384 
L 733.671364 -206.846524 
L 773.625152 -186.473259 
L 813.578939 -201.858069 
L 853.532727 -182.180819 
L 893.486515 -155.351295 
L 933.440303 -209.166289 
L 973.394091 -229.298569 
L 1013.347879 -204.0082 
L 1053.301667 -178.473486 
L 1093.255455 -287.465165 
L 1093.255455 -399.058513 
L 1093.255455 -399.058513 
L 1053.301667 -305.423361 
L 1013.347879 -336.460125 
L 973.394091 -323.544066 
L 933.440303 -337.891712 
L 893.486515 -231.198464 
L 853.532727 -324.937359 
L 813.578939 -328.686748 
L 773.625152 -321.036538 
L 733.671364 -343.994983 
L 693.717576 -395.337014 
L 653.763788 -283.453641 
L 613.81 -259.518924 
L 573.856212 -274.397217 
L 533.902424 -289.168642 
L 493.948636 -351.788614 
L 453.994848 -311.05318 
L 414.041061 -314.62005 
L 374.087273 -324.220547 
L 334.133485 -290.960765 
L 294.179697 -300.483499 
L 254.225909 -301.306789 
L 214.272121 -248.02842 
L 174.318333 -299.46476 
L 134.364545 -404.930263 
z
" style="stroke: #8c564b; stroke-opacity: 0.2"/>
    </defs>
    <g clip-path="url(#p444018672f)">
     <use xlink:href="#m2cb4b05286" x="0" y="576" style="fill: #8c564b; fill-opacity: 0.2; stroke: #8c564b; stroke-opacity: 0.2"/>
    </g>
   </g>
   <g id="PolyCollection_7">
    <defs>
     <path id="m0d7dbc356a" d="M 134.364545 -382.135067 
L 134.364545 -303.157746 
L 174.318333 -193.408567 
L 214.272121 -235.717494 
L 254.225909 -205.459528 
L 294.179697 -196.550661 
L 334.133485 -201.492495 
L 374.087273 -234.230498 
L 414.041061 -217.127759 
L 453.994848 -208.518388 
L 493.948636 -198.375385 
L 533.902424 -186.645776 
L 573.856212 -227.64435 
L 613.81 -184.168089 
L 653.763788 -205.770016 
L 693.717576 -211.915272 
L 733.671364 -202.359612 
L 773.625152 -207.566036 
L 813.578939 -191.735786 
L 853.532727 -196.049732 
L 893.486515 -201.256993 
L 933.440303 -215.434862 
L 973.394091 -222.662962 
L 1013.347879 -219.881367 
L 1053.301667 -211.023723 
L 1093.255455 -215.989802 
L 1093.255455 -302.095469 
L 1093.255455 -302.095469 
L 1053.301667 -299.960902 
L 1013.347879 -295.348171 
L 973.394091 -276.465958 
L 933.440303 -299.643772 
L 893.486515 -246.132607 
L 853.532727 -287.634638 
L 813.578939 -238.634958 
L 773.625152 -278.915019 
L 733.671364 -276.405599 
L 693.717576 -281.901317 
L 653.763788 -286.407092 
L 613.81 -326.88679 
L 573.856212 -276.491634 
L 533.902424 -303.684014 
L 493.948636 -295.447726 
L 453.994848 -264.463137 
L 414.041061 -261.072477 
L 374.087273 -251.502271 
L 334.133485 -263.260928 
L 294.179697 -245.827926 
L 254.225909 -249.356565 
L 214.272121 -270.207472 
L 174.318333 -286.850848 
L 134.364545 -382.135067 
z
" style="stroke: #e377c2; stroke-opacity: 0.2"/>
    </defs>
    <g clip-path="url(#p444018672f)">
     <use xlink:href="#m0d7dbc356a" x="0" y="576" style="fill: #e377c2; fill-opacity: 0.2; stroke: #e377c2; stroke-opacity: 0.2"/>
    </g>
   </g>
   <g id="PolyCollection_8">
    <defs>
     <path id="m5ddc36e16e" d="M 134.364545 -419.242638 
L 134.364545 -346.5268 
L 174.318333 -261.659666 
L 214.272121 -262.608987 
L 254.225909 -246.293954 
L 294.179697 -252.956972 
L 334.133485 -310.869635 
L 374.087273 -268.384809 
L 414.041061 -236.601798 
L 453.994848 -258.806028 
L 493.948636 -248.749601 
L 533.902424 -237.970233 
L 573.856212 -285.399169 
L 613.81 -246.165777 
L 653.763788 -257.347046 
L 693.717576 -281.538431 
L 733.671364 -292.182485 
L 773.625152 -254.349095 
L 813.578939 -288.094768 
L 853.532727 -282.124841 
L 893.486515 -272.640999 
L 933.440303 -272.144779 
L 973.394091 -268.421761 
L 1013.347879 -287.530527 
L 1053.301667 -245.535616 
L 1093.255455 -249.930619 
L 1093.255455 -342.160299 
L 1093.255455 -342.160299 
L 1053.301667 -352.37207 
L 1013.347879 -351.531412 
L 973.394091 -326.37666 
L 933.440303 -364.977114 
L 893.486515 -316.474001 
L 853.532727 -349.335715 
L 813.578939 -343.73328 
L 773.625152 -307.370873 
L 733.671364 -325.8035 
L 693.717576 -329.708809 
L 653.763788 -362.683916 
L 613.81 -321.510284 
L 573.856212 -337.038507 
L 533.902424 -312.540036 
L 493.948636 -360.716423 
L 453.994848 -352.934325 
L 414.041061 -311.225716 
L 374.087273 -306.25112 
L 334.133485 -345.598623 
L 294.179697 -299.107069 
L 254.225909 -320.215646 
L 214.272121 -318.37605 
L 174.318333 -325.794731 
L 134.364545 -419.242638 
z
" style="stroke: #7f7f7f; stroke-opacity: 0.2"/>
    </defs>
    <g clip-path="url(#p444018672f)">
     <use xlink:href="#m5ddc36e16e" x="0" y="576" style="fill: #7f7f7f; fill-opacity: 0.2; stroke: #7f7f7f; stroke-opacity: 0.2"/>
    </g>
   </g>
   <g id="matplotlib.axis_1">
    <g id="xtick_1">
     <g id="line2d_1">
      <defs>
       <path id="m0e995f8683" d="M 0 0 
L 0 3.5 
" style="stroke: #000000; stroke-width: 0.8"/>
      </defs>
      <g>
       <use xlink:href="#m0e995f8683" x="114.387652" y="490.552" style="stroke: #000000; stroke-width: 0.8"/>
      </g>
     </g>
     <g id="text_1">
      <!-- 0 -->
      <g transform="translate(108.025152 512.748875) scale(0.2 -0.2)">
       <defs>
        <path id="DejaVuSans-30" d="M 2034 4250 
Q 1547 4250 1301 3770 
Q 1056 3291 1056 2328 
Q 1056 1369 1301 889 
Q 1547 409 2034 409 
Q 2525 409 2770 889 
Q 3016 1369 3016 2328 
Q 3016 3291 2770 3770 
Q 2525 4250 2034 4250 
z
M 2034 4750 
Q 2819 4750 3233 4129 
Q 3647 3509 3647 2328 
Q 3647 1150 3233 529 
Q 2819 -91 2034 -91 
Q 1250 -91 836 529 
Q 422 1150 422 2328 
Q 422 3509 836 4129 
Q 1250 4750 2034 4750 
z
" transform="scale(0.015625)"/>
       </defs>
       <use xlink:href="#DejaVuSans-30"/>
      </g>
     </g>
    </g>
    <g id="xtick_2">
     <g id="line2d_2">
      <g>
       <use xlink:href="#m0e995f8683" x="314.156591" y="490.552" style="stroke: #000000; stroke-width: 0.8"/>
      </g>
     </g>
     <g id="text_2">
      <!-- 10 -->
      <g transform="translate(301.431591 512.748875) scale(0.2 -0.2)">
       <defs>
        <path id="DejaVuSans-31" d="M 794 531 
L 1825 531 
L 1825 4091 
L 703 3866 
L 703 4441 
L 1819 4666 
L 2450 4666 
L 2450 531 
L 3481 531 
L 3481 0 
L 794 0 
L 794 531 
z
" transform="scale(0.015625)"/>
       </defs>
       <use xlink:href="#DejaVuSans-31"/>
       <use xlink:href="#DejaVuSans-30" x="63.623047"/>
      </g>
     </g>
    </g>
    <g id="xtick_3">
     <g id="line2d_3">
      <g>
       <use xlink:href="#m0e995f8683" x="513.92553" y="490.552" style="stroke: #000000; stroke-width: 0.8"/>
      </g>
     </g>
     <g id="text_3">
      <!-- 20 -->
      <g transform="translate(501.20053 512.748875) scale(0.2 -0.2)">
       <defs>
        <path id="DejaVuSans-32" d="M 1228 531 
L 3431 531 
L 3431 0 
L 469 0 
L 469 531 
Q 828 903 1448 1529 
Q 2069 2156 2228 2338 
Q 2531 2678 2651 2914 
Q 2772 3150 2772 3378 
Q 2772 3750 2511 3984 
Q 2250 4219 1831 4219 
Q 1534 4219 1204 4116 
Q 875 4013 500 3803 
L 500 4441 
Q 881 4594 1212 4672 
Q 1544 4750 1819 4750 
Q 2544 4750 2975 4387 
Q 3406 4025 3406 3419 
Q 3406 3131 3298 2873 
Q 3191 2616 2906 2266 
Q 2828 2175 2409 1742 
Q 1991 1309 1228 531 
z
" transform="scale(0.015625)"/>
       </defs>
       <use xlink:href="#DejaVuSans-32"/>
       <use xlink:href="#DejaVuSans-30" x="63.623047"/>
      </g>
     </g>
    </g>
    <g id="xtick_4">
     <g id="line2d_4">
      <g>
       <use xlink:href="#m0e995f8683" x="713.69447" y="490.552" style="stroke: #000000; stroke-width: 0.8"/>
      </g>
     </g>
     <g id="text_4">
      <!-- 30 -->
      <g transform="translate(700.96947 512.748875) scale(0.2 -0.2)">
       <defs>
        <path id="DejaVuSans-33" d="M 2597 2516 
Q 3050 2419 3304 2112 
Q 3559 1806 3559 1356 
Q 3559 666 3084 287 
Q 2609 -91 1734 -91 
Q 1441 -91 1130 -33 
Q 819 25 488 141 
L 488 750 
Q 750 597 1062 519 
Q 1375 441 1716 441 
Q 2309 441 2620 675 
Q 2931 909 2931 1356 
Q 2931 1769 2642 2001 
Q 2353 2234 1838 2234 
L 1294 2234 
L 1294 2753 
L 1863 2753 
Q 2328 2753 2575 2939 
Q 2822 3125 2822 3475 
Q 2822 3834 2567 4026 
Q 2313 4219 1838 4219 
Q 1578 4219 1281 4162 
Q 984 4106 628 3988 
L 628 4550 
Q 988 4650 1302 4700 
Q 1616 4750 1894 4750 
Q 2613 4750 3031 4423 
Q 3450 4097 3450 3541 
Q 3450 3153 3228 2886 
Q 3006 2619 2597 2516 
z
" transform="scale(0.015625)"/>
       </defs>
       <use xlink:href="#DejaVuSans-33"/>
       <use xlink:href="#DejaVuSans-30" x="63.623047"/>
      </g>
     </g>
    </g>
    <g id="xtick_5">
     <g id="line2d_5">
      <g>
       <use xlink:href="#m0e995f8683" x="913.463409" y="490.552" style="stroke: #000000; stroke-width: 0.8"/>
      </g>
     </g>
     <g id="text_5">
      <!-- 40 -->
      <g transform="translate(900.738409 512.748875) scale(0.2 -0.2)">
       <defs>
        <path id="DejaVuSans-34" d="M 2419 4116 
L 825 1625 
L 2419 1625 
L 2419 4116 
z
M 2253 4666 
L 3047 4666 
L 3047 1625 
L 3713 1625 
L 3713 1100 
L 3047 1100 
L 3047 0 
L 2419 0 
L 2419 1100 
L 313 1100 
L 313 1709 
L 2253 4666 
z
" transform="scale(0.015625)"/>
       </defs>
       <use xlink:href="#DejaVuSans-34"/>
       <use xlink:href="#DejaVuSans-30" x="63.623047"/>
      </g>
     </g>
    </g>
    <g id="xtick_6">
     <g id="line2d_6">
      <g>
       <use xlink:href="#m0e995f8683" x="1113.232348" y="490.552" style="stroke: #000000; stroke-width: 0.8"/>
      </g>
     </g>
     <g id="text_6">
      <!-- 50 -->
      <g transform="translate(1100.507348 512.748875) scale(0.2 -0.2)">
       <defs>
        <path id="DejaVuSans-35" d="M 691 4666 
L 3169 4666 
L 3169 4134 
L 1269 4134 
L 1269 2991 
Q 1406 3038 1543 3061 
Q 1681 3084 1819 3084 
Q 2600 3084 3056 2656 
Q 3513 2228 3513 1497 
Q 3513 744 3044 326 
Q 2575 -91 1722 -91 
Q 1428 -91 1123 -41 
Q 819 9 494 109 
L 494 744 
Q 775 591 1075 516 
Q 1375 441 1709 441 
Q 2250 441 2565 725 
Q 2881 1009 2881 1497 
Q 2881 1984 2565 2268 
Q 2250 2553 1709 2553 
Q 1456 2553 1204 2497 
Q 953 2441 691 2322 
L 691 4666 
z
" transform="scale(0.015625)"/>
       </defs>
       <use xlink:href="#DejaVuSans-35"/>
       <use xlink:href="#DejaVuSans-30" x="63.623047"/>
      </g>
     </g>
    </g>
    <g id="text_7">
     <!-- Percentile Threshold -->
     <g transform="translate(512.030312 536.105125) scale(0.2 -0.2)">
      <defs>
       <path id="DejaVuSans-50" d="M 1259 4147 
L 1259 2394 
L 2053 2394 
Q 2494 2394 2734 2622 
Q 2975 2850 2975 3272 
Q 2975 3691 2734 3919 
Q 2494 4147 2053 4147 
L 1259 4147 
z
M 628 4666 
L 2053 4666 
Q 2838 4666 3239 4311 
Q 3641 3956 3641 3272 
Q 3641 2581 3239 2228 
Q 2838 1875 2053 1875 
L 1259 1875 
L 1259 0 
L 628 0 
L 628 4666 
z
" transform="scale(0.015625)"/>
       <path id="DejaVuSans-65" d="M 3597 1894 
L 3597 1613 
L 953 1613 
Q 991 1019 1311 708 
Q 1631 397 2203 397 
Q 2534 397 2845 478 
Q 3156 559 3463 722 
L 3463 178 
Q 3153 47 2828 -22 
Q 2503 -91 2169 -91 
Q 1331 -91 842 396 
Q 353 884 353 1716 
Q 353 2575 817 3079 
Q 1281 3584 2069 3584 
Q 2775 3584 3186 3129 
Q 3597 2675 3597 1894 
z
M 3022 2063 
Q 3016 2534 2758 2815 
Q 2500 3097 2075 3097 
Q 1594 3097 1305 2825 
Q 1016 2553 972 2059 
L 3022 2063 
z
" transform="scale(0.015625)"/>
       <path id="DejaVuSans-72" d="M 2631 2963 
Q 2534 3019 2420 3045 
Q 2306 3072 2169 3072 
Q 1681 3072 1420 2755 
Q 1159 2438 1159 1844 
L 1159 0 
L 581 0 
L 581 3500 
L 1159 3500 
L 1159 2956 
Q 1341 3275 1631 3429 
Q 1922 3584 2338 3584 
Q 2397 3584 2469 3576 
Q 2541 3569 2628 3553 
L 2631 2963 
z
" transform="scale(0.015625)"/>
       <path id="DejaVuSans-63" d="M 3122 3366 
L 3122 2828 
Q 2878 2963 2633 3030 
Q 2388 3097 2138 3097 
Q 1578 3097 1268 2742 
Q 959 2388 959 1747 
Q 959 1106 1268 751 
Q 1578 397 2138 397 
Q 2388 397 2633 464 
Q 2878 531 3122 666 
L 3122 134 
Q 2881 22 2623 -34 
Q 2366 -91 2075 -91 
Q 1284 -91 818 406 
Q 353 903 353 1747 
Q 353 2603 823 3093 
Q 1294 3584 2113 3584 
Q 2378 3584 2631 3529 
Q 2884 3475 3122 3366 
z
" transform="scale(0.015625)"/>
       <path id="DejaVuSans-6e" d="M 3513 2113 
L 3513 0 
L 2938 0 
L 2938 2094 
Q 2938 2591 2744 2837 
Q 2550 3084 2163 3084 
Q 1697 3084 1428 2787 
Q 1159 2491 1159 1978 
L 1159 0 
L 581 0 
L 581 3500 
L 1159 3500 
L 1159 2956 
Q 1366 3272 1645 3428 
Q 1925 3584 2291 3584 
Q 2894 3584 3203 3211 
Q 3513 2838 3513 2113 
z
" transform="scale(0.015625)"/>
       <path id="DejaVuSans-74" d="M 1172 4494 
L 1172 3500 
L 2356 3500 
L 2356 3053 
L 1172 3053 
L 1172 1153 
Q 1172 725 1289 603 
Q 1406 481 1766 481 
L 2356 481 
L 2356 0 
L 1766 0 
Q 1100 0 847 248 
Q 594 497 594 1153 
L 594 3053 
L 172 3053 
L 172 3500 
L 594 3500 
L 594 4494 
L 1172 4494 
z
" transform="scale(0.015625)"/>
       <path id="DejaVuSans-69" d="M 603 3500 
L 1178 3500 
L 1178 0 
L 603 0 
L 603 3500 
z
M 603 4863 
L 1178 4863 
L 1178 4134 
L 603 4134 
L 603 4863 
z
" transform="scale(0.015625)"/>
       <path id="DejaVuSans-6c" d="M 603 4863 
L 1178 4863 
L 1178 0 
L 603 0 
L 603 4863 
z
" transform="scale(0.015625)"/>
       <path id="DejaVuSans-20" transform="scale(0.015625)"/>
       <path id="DejaVuSans-54" d="M -19 4666 
L 3928 4666 
L 3928 4134 
L 2272 4134 
L 2272 0 
L 1638 0 
L 1638 4134 
L -19 4134 
L -19 4666 
z
" transform="scale(0.015625)"/>
       <path id="DejaVuSans-68" d="M 3513 2113 
L 3513 0 
L 2938 0 
L 2938 2094 
Q 2938 2591 2744 2837 
Q 2550 3084 2163 3084 
Q 1697 3084 1428 2787 
Q 1159 2491 1159 1978 
L 1159 0 
L 581 0 
L 581 4863 
L 1159 4863 
L 1159 2956 
Q 1366 3272 1645 3428 
Q 1925 3584 2291 3584 
Q 2894 3584 3203 3211 
Q 3513 2838 3513 2113 
z
" transform="scale(0.015625)"/>
       <path id="DejaVuSans-73" d="M 2834 3397 
L 2834 2853 
Q 2591 2978 2328 3040 
Q 2066 3103 1784 3103 
Q 1356 3103 1142 2972 
Q 928 2841 928 2578 
Q 928 2378 1081 2264 
Q 1234 2150 1697 2047 
L 1894 2003 
Q 2506 1872 2764 1633 
Q 3022 1394 3022 966 
Q 3022 478 2636 193 
Q 2250 -91 1575 -91 
Q 1294 -91 989 -36 
Q 684 19 347 128 
L 347 722 
Q 666 556 975 473 
Q 1284 391 1588 391 
Q 1994 391 2212 530 
Q 2431 669 2431 922 
Q 2431 1156 2273 1281 
Q 2116 1406 1581 1522 
L 1381 1569 
Q 847 1681 609 1914 
Q 372 2147 372 2553 
Q 372 3047 722 3315 
Q 1072 3584 1716 3584 
Q 2034 3584 2315 3537 
Q 2597 3491 2834 3397 
z
" transform="scale(0.015625)"/>
       <path id="DejaVuSans-6f" d="M 1959 3097 
Q 1497 3097 1228 2736 
Q 959 2375 959 1747 
Q 959 1119 1226 758 
Q 1494 397 1959 397 
Q 2419 397 2687 759 
Q 2956 1122 2956 1747 
Q 2956 2369 2687 2733 
Q 2419 3097 1959 3097 
z
M 1959 3584 
Q 2709 3584 3137 3096 
Q 3566 2609 3566 1747 
Q 3566 888 3137 398 
Q 2709 -91 1959 -91 
Q 1206 -91 779 398 
Q 353 888 353 1747 
Q 353 2609 779 3096 
Q 1206 3584 1959 3584 
z
" transform="scale(0.015625)"/>
       <path id="DejaVuSans-64" d="M 2906 2969 
L 2906 4863 
L 3481 4863 
L 3481 0 
L 2906 0 
L 2906 525 
Q 2725 213 2448 61 
Q 2172 -91 1784 -91 
Q 1150 -91 751 415 
Q 353 922 353 1747 
Q 353 2572 751 3078 
Q 1150 3584 1784 3584 
Q 2172 3584 2448 3432 
Q 2725 3281 2906 2969 
z
M 947 1747 
Q 947 1113 1208 752 
Q 1469 391 1925 391 
Q 2381 391 2643 752 
Q 2906 1113 2906 1747 
Q 2906 2381 2643 2742 
Q 2381 3103 1925 3103 
Q 1469 3103 1208 2742 
Q 947 2381 947 1747 
z
" transform="scale(0.015625)"/>
      </defs>
      <use xlink:href="#DejaVuSans-50"/>
      <use xlink:href="#DejaVuSans-65" x="56.677734"/>
      <use xlink:href="#DejaVuSans-72" x="118.201172"/>
      <use xlink:href="#DejaVuSans-63" x="157.064453"/>
      <use xlink:href="#DejaVuSans-65" x="212.044922"/>
      <use xlink:href="#DejaVuSans-6e" x="273.568359"/>
      <use xlink:href="#DejaVuSans-74" x="336.947266"/>
      <use xlink:href="#DejaVuSans-69" x="376.15625"/>
      <use xlink:href="#DejaVuSans-6c" x="403.939453"/>
      <use xlink:href="#DejaVuSans-65" x="431.722656"/>
      <use xlink:href="#DejaVuSans-20" x="493.246094"/>
      <use xlink:href="#DejaVuSans-54" x="525.033203"/>
      <use xlink:href="#DejaVuSans-68" x="586.117188"/>
      <use xlink:href="#DejaVuSans-72" x="649.496094"/>
      <use xlink:href="#DejaVuSans-65" x="688.359375"/>
      <use xlink:href="#DejaVuSans-73" x="749.882812"/>
      <use xlink:href="#DejaVuSans-68" x="801.982422"/>
      <use xlink:href="#DejaVuSans-6f" x="865.361328"/>
      <use xlink:href="#DejaVuSans-6c" x="926.542969"/>
      <use xlink:href="#DejaVuSans-64" x="954.326172"/>
     </g>
     <!-- (Using "random" Threshold Handling) -->
     <g transform="translate(426.642812 558.50075) scale(0.2 -0.2)">
      <defs>
       <path id="DejaVuSans-28" d="M 1984 4856 
Q 1566 4138 1362 3434 
Q 1159 2731 1159 2009 
Q 1159 1288 1364 580 
Q 1569 -128 1984 -844 
L 1484 -844 
Q 1016 -109 783 600 
Q 550 1309 550 2009 
Q 550 2706 781 3412 
Q 1013 4119 1484 4856 
L 1984 4856 
z
" transform="scale(0.015625)"/>
       <path id="DejaVuSans-55" d="M 556 4666 
L 1191 4666 
L 1191 1831 
Q 1191 1081 1462 751 
Q 1734 422 2344 422 
Q 2950 422 3222 751 
Q 3494 1081 3494 1831 
L 3494 4666 
L 4128 4666 
L 4128 1753 
Q 4128 841 3676 375 
Q 3225 -91 2344 -91 
Q 1459 -91 1007 375 
Q 556 841 556 1753 
L 556 4666 
z
" transform="scale(0.015625)"/>
       <path id="DejaVuSans-67" d="M 2906 1791 
Q 2906 2416 2648 2759 
Q 2391 3103 1925 3103 
Q 1463 3103 1205 2759 
Q 947 2416 947 1791 
Q 947 1169 1205 825 
Q 1463 481 1925 481 
Q 2391 481 2648 825 
Q 2906 1169 2906 1791 
z
M 3481 434 
Q 3481 -459 3084 -895 
Q 2688 -1331 1869 -1331 
Q 1566 -1331 1297 -1286 
Q 1028 -1241 775 -1147 
L 775 -588 
Q 1028 -725 1275 -790 
Q 1522 -856 1778 -856 
Q 2344 -856 2625 -561 
Q 2906 -266 2906 331 
L 2906 616 
Q 2728 306 2450 153 
Q 2172 0 1784 0 
Q 1141 0 747 490 
Q 353 981 353 1791 
Q 353 2603 747 3093 
Q 1141 3584 1784 3584 
Q 2172 3584 2450 3431 
Q 2728 3278 2906 2969 
L 2906 3500 
L 3481 3500 
L 3481 434 
z
" transform="scale(0.015625)"/>
       <path id="DejaVuSans-22" d="M 1147 4666 
L 1147 2931 
L 616 2931 
L 616 4666 
L 1147 4666 
z
M 2328 4666 
L 2328 2931 
L 1797 2931 
L 1797 4666 
L 2328 4666 
z
" transform="scale(0.015625)"/>
       <path id="DejaVuSans-61" d="M 2194 1759 
Q 1497 1759 1228 1600 
Q 959 1441 959 1056 
Q 959 750 1161 570 
Q 1363 391 1709 391 
Q 2188 391 2477 730 
Q 2766 1069 2766 1631 
L 2766 1759 
L 2194 1759 
z
M 3341 1997 
L 3341 0 
L 2766 0 
L 2766 531 
Q 2569 213 2275 61 
Q 1981 -91 1556 -91 
Q 1019 -91 701 211 
Q 384 513 384 1019 
Q 384 1609 779 1909 
Q 1175 2209 1959 2209 
L 2766 2209 
L 2766 2266 
Q 2766 2663 2505 2880 
Q 2244 3097 1772 3097 
Q 1472 3097 1187 3025 
Q 903 2953 641 2809 
L 641 3341 
Q 956 3463 1253 3523 
Q 1550 3584 1831 3584 
Q 2591 3584 2966 3190 
Q 3341 2797 3341 1997 
z
" transform="scale(0.015625)"/>
       <path id="DejaVuSans-6d" d="M 3328 2828 
Q 3544 3216 3844 3400 
Q 4144 3584 4550 3584 
Q 5097 3584 5394 3201 
Q 5691 2819 5691 2113 
L 5691 0 
L 5113 0 
L 5113 2094 
Q 5113 2597 4934 2840 
Q 4756 3084 4391 3084 
Q 3944 3084 3684 2787 
Q 3425 2491 3425 1978 
L 3425 0 
L 2847 0 
L 2847 2094 
Q 2847 2600 2669 2842 
Q 2491 3084 2119 3084 
Q 1678 3084 1418 2786 
Q 1159 2488 1159 1978 
L 1159 0 
L 581 0 
L 581 3500 
L 1159 3500 
L 1159 2956 
Q 1356 3278 1631 3431 
Q 1906 3584 2284 3584 
Q 2666 3584 2933 3390 
Q 3200 3197 3328 2828 
z
" transform="scale(0.015625)"/>
       <path id="DejaVuSans-48" d="M 628 4666 
L 1259 4666 
L 1259 2753 
L 3553 2753 
L 3553 4666 
L 4184 4666 
L 4184 0 
L 3553 0 
L 3553 2222 
L 1259 2222 
L 1259 0 
L 628 0 
L 628 4666 
z
" transform="scale(0.015625)"/>
       <path id="DejaVuSans-29" d="M 513 4856 
L 1013 4856 
Q 1481 4119 1714 3412 
Q 1947 2706 1947 2009 
Q 1947 1309 1714 600 
Q 1481 -109 1013 -844 
L 513 -844 
Q 928 -128 1133 580 
Q 1338 1288 1338 2009 
Q 1338 2731 1133 3434 
Q 928 4138 513 4856 
z
" transform="scale(0.015625)"/>
      </defs>
      <use xlink:href="#DejaVuSans-28"/>
      <use xlink:href="#DejaVuSans-55" x="39.013672"/>
      <use xlink:href="#DejaVuSans-73" x="112.207031"/>
      <use xlink:href="#DejaVuSans-69" x="164.306641"/>
      <use xlink:href="#DejaVuSans-6e" x="192.089844"/>
      <use xlink:href="#DejaVuSans-67" x="255.46875"/>
      <use xlink:href="#DejaVuSans-20" x="318.945312"/>
      <use xlink:href="#DejaVuSans-22" x="350.732422"/>
      <use xlink:href="#DejaVuSans-72" x="396.728516"/>
      <use xlink:href="#DejaVuSans-61" x="437.841797"/>
      <use xlink:href="#DejaVuSans-6e" x="499.121094"/>
      <use xlink:href="#DejaVuSans-64" x="562.5"/>
      <use xlink:href="#DejaVuSans-6f" x="625.976562"/>
      <use xlink:href="#DejaVuSans-6d" x="687.158203"/>
      <use xlink:href="#DejaVuSans-22" x="784.570312"/>
      <use xlink:href="#DejaVuSans-20" x="830.566406"/>
      <use xlink:href="#DejaVuSans-54" x="862.353516"/>
      <use xlink:href="#DejaVuSans-68" x="923.4375"/>
      <use xlink:href="#DejaVuSans-72" x="986.816406"/>
      <use xlink:href="#DejaVuSans-65" x="1025.679688"/>
      <use xlink:href="#DejaVuSans-73" x="1087.203125"/>
      <use xlink:href="#DejaVuSans-68" x="1139.302734"/>
      <use xlink:href="#DejaVuSans-6f" x="1202.681641"/>
      <use xlink:href="#DejaVuSans-6c" x="1263.863281"/>
      <use xlink:href="#DejaVuSans-64" x="1291.646484"/>
      <use xlink:href="#DejaVuSans-20" x="1355.123047"/>
      <use xlink:href="#DejaVuSans-48" x="1386.910156"/>
      <use xlink:href="#DejaVuSans-61" x="1462.105469"/>
      <use xlink:href="#DejaVuSans-6e" x="1523.384766"/>
      <use xlink:href="#DejaVuSans-64" x="1586.763672"/>
      <use xlink:href="#DejaVuSans-6c" x="1650.240234"/>
      <use xlink:href="#DejaVuSans-69" x="1678.023438"/>
      <use xlink:href="#DejaVuSans-6e" x="1705.806641"/>
      <use xlink:href="#DejaVuSans-67" x="1769.185547"/>
      <use xlink:href="#DejaVuSans-29" x="1832.662109"/>
     </g>
    </g>
   </g>
   <g id="matplotlib.axis_2">
    <g id="ytick_1">
     <g id="line2d_7">
      <defs>
       <path id="maf273ddbc8" d="M 0 0 
L -3.5 0 
" style="stroke: #000000; stroke-width: 0.8"/>
      </defs>
      <g>
       <use xlink:href="#maf273ddbc8" x="86.42" y="471.538888" style="stroke: #000000; stroke-width: 0.8"/>
      </g>
     </g>
     <g id="text_8">
      <!-- 14.0 -->
      <g transform="translate(34.88875 479.137326) scale(0.2 -0.2)">
       <defs>
        <path id="DejaVuSans-2e" d="M 684 794 
L 1344 794 
L 1344 0 
L 684 0 
L 684 794 
z
" transform="scale(0.015625)"/>
       </defs>
       <use xlink:href="#DejaVuSans-31"/>
       <use xlink:href="#DejaVuSans-34" x="63.623047"/>
       <use xlink:href="#DejaVuSans-2e" x="127.246094"/>
       <use xlink:href="#DejaVuSans-30" x="159.033203"/>
      </g>
     </g>
    </g>
    <g id="ytick_2">
     <g id="line2d_8">
      <g>
       <use xlink:href="#maf273ddbc8" x="86.42" y="414.988763" style="stroke: #000000; stroke-width: 0.8"/>
      </g>
     </g>
     <g id="text_9">
      <!-- 14.5 -->
      <g transform="translate(34.88875 422.5872) scale(0.2 -0.2)">
       <use xlink:href="#DejaVuSans-31"/>
       <use xlink:href="#DejaVuSans-34" x="63.623047"/>
       <use xlink:href="#DejaVuSans-2e" x="127.246094"/>
       <use xlink:href="#DejaVuSans-35" x="159.033203"/>
      </g>
     </g>
    </g>
    <g id="ytick_3">
     <g id="line2d_9">
      <g>
       <use xlink:href="#maf273ddbc8" x="86.42" y="358.438638" style="stroke: #000000; stroke-width: 0.8"/>
      </g>
     </g>
     <g id="text_10">
      <!-- 15.0 -->
      <g transform="translate(34.88875 366.037075) scale(0.2 -0.2)">
       <use xlink:href="#DejaVuSans-31"/>
       <use xlink:href="#DejaVuSans-35" x="63.623047"/>
       <use xlink:href="#DejaVuSans-2e" x="127.246094"/>
       <use xlink:href="#DejaVuSans-30" x="159.033203"/>
      </g>
     </g>
    </g>
    <g id="ytick_4">
     <g id="line2d_10">
      <g>
       <use xlink:href="#maf273ddbc8" x="86.42" y="301.888512" style="stroke: #000000; stroke-width: 0.8"/>
      </g>
     </g>
     <g id="text_11">
      <!-- 15.5 -->
      <g transform="translate(34.88875 309.48695) scale(0.2 -0.2)">
       <use xlink:href="#DejaVuSans-31"/>
       <use xlink:href="#DejaVuSans-35" x="63.623047"/>
       <use xlink:href="#DejaVuSans-2e" x="127.246094"/>
       <use xlink:href="#DejaVuSans-35" x="159.033203"/>
      </g>
     </g>
    </g>
    <g id="ytick_5">
     <g id="line2d_11">
      <g>
       <use xlink:href="#maf273ddbc8" x="86.42" y="245.338387" style="stroke: #000000; stroke-width: 0.8"/>
      </g>
     </g>
     <g id="text_12">
      <!-- 16.0 -->
      <g transform="translate(34.88875 252.936824) scale(0.2 -0.2)">
       <defs>
        <path id="DejaVuSans-36" d="M 2113 2584 
Q 1688 2584 1439 2293 
Q 1191 2003 1191 1497 
Q 1191 994 1439 701 
Q 1688 409 2113 409 
Q 2538 409 2786 701 
Q 3034 994 3034 1497 
Q 3034 2003 2786 2293 
Q 2538 2584 2113 2584 
z
M 3366 4563 
L 3366 3988 
Q 3128 4100 2886 4159 
Q 2644 4219 2406 4219 
Q 1781 4219 1451 3797 
Q 1122 3375 1075 2522 
Q 1259 2794 1537 2939 
Q 1816 3084 2150 3084 
Q 2853 3084 3261 2657 
Q 3669 2231 3669 1497 
Q 3669 778 3244 343 
Q 2819 -91 2113 -91 
Q 1303 -91 875 529 
Q 447 1150 447 2328 
Q 447 3434 972 4092 
Q 1497 4750 2381 4750 
Q 2619 4750 2861 4703 
Q 3103 4656 3366 4563 
z
" transform="scale(0.015625)"/>
       </defs>
       <use xlink:href="#DejaVuSans-31"/>
       <use xlink:href="#DejaVuSans-36" x="63.623047"/>
       <use xlink:href="#DejaVuSans-2e" x="127.246094"/>
       <use xlink:href="#DejaVuSans-30" x="159.033203"/>
      </g>
     </g>
    </g>
    <g id="ytick_6">
     <g id="line2d_12">
      <g>
       <use xlink:href="#maf273ddbc8" x="86.42" y="188.788261" style="stroke: #000000; stroke-width: 0.8"/>
      </g>
     </g>
     <g id="text_13">
      <!-- 16.5 -->
      <g transform="translate(34.88875 196.386699) scale(0.2 -0.2)">
       <use xlink:href="#DejaVuSans-31"/>
       <use xlink:href="#DejaVuSans-36" x="63.623047"/>
       <use xlink:href="#DejaVuSans-2e" x="127.246094"/>
       <use xlink:href="#DejaVuSans-35" x="159.033203"/>
      </g>
     </g>
    </g>
    <g id="ytick_7">
     <g id="line2d_13">
      <g>
       <use xlink:href="#maf273ddbc8" x="86.42" y="132.238136" style="stroke: #000000; stroke-width: 0.8"/>
      </g>
     </g>
     <g id="text_14">
      <!-- 17.0 -->
      <g transform="translate(34.88875 139.836573) scale(0.2 -0.2)">
       <defs>
        <path id="DejaVuSans-37" d="M 525 4666 
L 3525 4666 
L 3525 4397 
L 1831 0 
L 1172 0 
L 2766 4134 
L 525 4134 
L 525 4666 
z
" transform="scale(0.015625)"/>
       </defs>
       <use xlink:href="#DejaVuSans-31"/>
       <use xlink:href="#DejaVuSans-37" x="63.623047"/>
       <use xlink:href="#DejaVuSans-2e" x="127.246094"/>
       <use xlink:href="#DejaVuSans-30" x="159.033203"/>
      </g>
     </g>
    </g>
    <g id="ytick_8">
     <g id="line2d_14">
      <g>
       <use xlink:href="#maf273ddbc8" x="86.42" y="75.688011" style="stroke: #000000; stroke-width: 0.8"/>
      </g>
     </g>
     <g id="text_15">
      <!-- 17.5 -->
      <g transform="translate(34.88875 83.286448) scale(0.2 -0.2)">
       <use xlink:href="#DejaVuSans-31"/>
       <use xlink:href="#DejaVuSans-37" x="63.623047"/>
       <use xlink:href="#DejaVuSans-2e" x="127.246094"/>
       <use xlink:href="#DejaVuSans-35" x="159.033203"/>
      </g>
     </g>
    </g>
    <g id="ytick_9">
     <g id="line2d_15">
      <g>
       <use xlink:href="#maf273ddbc8" x="86.42" y="19.137885" style="stroke: #000000; stroke-width: 0.8"/>
      </g>
     </g>
     <g id="text_16">
      <!-- 18.0 -->
      <g transform="translate(34.88875 26.736323) scale(0.2 -0.2)">
       <defs>
        <path id="DejaVuSans-38" d="M 2034 2216 
Q 1584 2216 1326 1975 
Q 1069 1734 1069 1313 
Q 1069 891 1326 650 
Q 1584 409 2034 409 
Q 2484 409 2743 651 
Q 3003 894 3003 1313 
Q 3003 1734 2745 1975 
Q 2488 2216 2034 2216 
z
M 1403 2484 
Q 997 2584 770 2862 
Q 544 3141 544 3541 
Q 544 4100 942 4425 
Q 1341 4750 2034 4750 
Q 2731 4750 3128 4425 
Q 3525 4100 3525 3541 
Q 3525 3141 3298 2862 
Q 3072 2584 2669 2484 
Q 3125 2378 3379 2068 
Q 3634 1759 3634 1313 
Q 3634 634 3220 271 
Q 2806 -91 2034 -91 
Q 1263 -91 848 271 
Q 434 634 434 1313 
Q 434 1759 690 2068 
Q 947 2378 1403 2484 
z
M 1172 3481 
Q 1172 3119 1398 2916 
Q 1625 2713 2034 2713 
Q 2441 2713 2670 2916 
Q 2900 3119 2900 3481 
Q 2900 3844 2670 4047 
Q 2441 4250 2034 4250 
Q 1625 4250 1398 4047 
Q 1172 3844 1172 3481 
z
" transform="scale(0.015625)"/>
       </defs>
       <use xlink:href="#DejaVuSans-31"/>
       <use xlink:href="#DejaVuSans-38" x="63.623047"/>
       <use xlink:href="#DejaVuSans-2e" x="127.246094"/>
       <use xlink:href="#DejaVuSans-30" x="159.033203"/>
      </g>
     </g>
    </g>
    <g id="text_17">
     <!-- RMSE -->
     <g transform="translate(26.729375 280.13771) rotate(-90) scale(0.2 -0.2)">
      <defs>
       <path id="DejaVuSans-52" d="M 2841 2188 
Q 3044 2119 3236 1894 
Q 3428 1669 3622 1275 
L 4263 0 
L 3584 0 
L 2988 1197 
Q 2756 1666 2539 1819 
Q 2322 1972 1947 1972 
L 1259 1972 
L 1259 0 
L 628 0 
L 628 4666 
L 2053 4666 
Q 2853 4666 3247 4331 
Q 3641 3997 3641 3322 
Q 3641 2881 3436 2590 
Q 3231 2300 2841 2188 
z
M 1259 4147 
L 1259 2491 
L 2053 2491 
Q 2509 2491 2742 2702 
Q 2975 2913 2975 3322 
Q 2975 3731 2742 3939 
Q 2509 4147 2053 4147 
L 1259 4147 
z
" transform="scale(0.015625)"/>
       <path id="DejaVuSans-4d" d="M 628 4666 
L 1569 4666 
L 2759 1491 
L 3956 4666 
L 4897 4666 
L 4897 0 
L 4281 0 
L 4281 4097 
L 3078 897 
L 2444 897 
L 1241 4097 
L 1241 0 
L 628 0 
L 628 4666 
z
" transform="scale(0.015625)"/>
       <path id="DejaVuSans-53" d="M 3425 4513 
L 3425 3897 
Q 3066 4069 2747 4153 
Q 2428 4238 2131 4238 
Q 1616 4238 1336 4038 
Q 1056 3838 1056 3469 
Q 1056 3159 1242 3001 
Q 1428 2844 1947 2747 
L 2328 2669 
Q 3034 2534 3370 2195 
Q 3706 1856 3706 1288 
Q 3706 609 3251 259 
Q 2797 -91 1919 -91 
Q 1588 -91 1214 -16 
Q 841 59 441 206 
L 441 856 
Q 825 641 1194 531 
Q 1563 422 1919 422 
Q 2459 422 2753 634 
Q 3047 847 3047 1241 
Q 3047 1584 2836 1778 
Q 2625 1972 2144 2069 
L 1759 2144 
Q 1053 2284 737 2584 
Q 422 2884 422 3419 
Q 422 4038 858 4394 
Q 1294 4750 2059 4750 
Q 2388 4750 2728 4690 
Q 3069 4631 3425 4513 
z
" transform="scale(0.015625)"/>
       <path id="DejaVuSans-45" d="M 628 4666 
L 3578 4666 
L 3578 4134 
L 1259 4134 
L 1259 2753 
L 3481 2753 
L 3481 2222 
L 1259 2222 
L 1259 531 
L 3634 531 
L 3634 0 
L 628 0 
L 628 4666 
z
" transform="scale(0.015625)"/>
      </defs>
      <use xlink:href="#DejaVuSans-52"/>
      <use xlink:href="#DejaVuSans-4d" x="69.482422"/>
      <use xlink:href="#DejaVuSans-53" x="155.761719"/>
      <use xlink:href="#DejaVuSans-45" x="219.238281"/>
     </g>
    </g>
   </g>
   <g id="line2d_16">
    <path d="M 134.364545 200.931009 
L 174.318333 265.570898 
L 214.272121 290.010944 
L 254.225909 293.820843 
L 294.179697 302.57977 
L 334.133485 290.876635 
L 374.087273 275.440899 
L 414.041061 323.763281 
L 453.994848 278.425563 
L 493.948636 286.453988 
L 533.902424 265.828657 
L 573.856212 268.246611 
L 613.81 265.066571 
L 653.763788 268.83469 
L 693.717576 284.122503 
L 733.671364 282.80284 
L 773.625152 255.45645 
L 813.578939 247.71909 
L 853.532727 238.240754 
L 893.486515 266.159654 
L 933.440303 258.921345 
L 973.394091 279.003653 
L 1013.347879 296.085166 
L 1053.301667 254.877249 
L 1093.255455 287.094548 
" clip-path="url(#p444018672f)" style="fill: none; stroke: #1f77b4; stroke-width: 1.5; stroke-linecap: square"/>
   </g>
   <g id="line2d_17">
    <path d="M 134.364545 256.380873 
L 174.318333 367.563974 
L 214.272121 382.887467 
L 254.225909 369.697092 
L 294.179697 323.224603 
L 334.133485 366.348948 
L 374.087273 343.281621 
L 414.041061 404.725578 
L 453.994848 339.081592 
L 493.948636 354.981258 
L 533.902424 296.653436 
L 573.856212 300.612655 
L 613.81 368.015488 
L 653.763788 350.694952 
L 693.717576 334.706913 
L 733.671364 308.239863 
L 773.625152 319.941939 
L 813.578939 303.759545 
L 853.532727 327.328333 
L 893.486515 385.033167 
L 933.440303 312.339849 
L 973.394091 367.852666 
L 1013.347879 323.828228 
L 1053.301667 303.307231 
L 1093.255455 329.419144 
" clip-path="url(#p444018672f)" style="fill: none; stroke: #ff7f0e; stroke-width: 1.5; stroke-linecap: square"/>
   </g>
   <g id="line2d_18">
    <path d="M 134.364545 211.780893 
L 174.318333 296.923516 
L 214.272121 324.960037 
L 254.225909 297.531893 
L 294.179697 295.393235 
L 334.133485 316.340982 
L 374.087273 263.979509 
L 414.041061 323.496715 
L 453.994848 256.782843 
L 493.948636 277.773316 
L 533.902424 248.572208 
L 573.856212 252.657237 
L 613.81 349.436593 
L 653.763788 314.840061 
L 693.717576 339.839753 
L 733.671364 262.157222 
L 773.625152 299.908646 
L 813.578939 332.567318 
L 853.532727 317.682961 
L 893.486515 284.851483 
L 933.440303 304.788402 
L 973.394091 260.985646 
L 1013.347879 265.510188 
L 1053.301667 258.065182 
L 1093.255455 301.267899 
" clip-path="url(#p444018672f)" style="fill: none; stroke: #2ca02c; stroke-width: 1.5; stroke-linecap: square"/>
   </g>
   <g id="line2d_19">
    <path d="M 134.364545 92.618121 
L 174.318333 215.215595 
L 214.272121 231.570174 
L 254.225909 257.424795 
L 294.179697 203.518283 
L 334.133485 229.272864 
L 374.087273 192.09192 
L 414.041061 279.416703 
L 453.994848 171.540575 
L 493.948636 232.278597 
L 533.902424 148.824154 
L 573.856212 196.636383 
L 613.81 211.054292 
L 653.763788 183.342226 
L 693.717576 193.000243 
L 733.671364 148.089539 
L 773.625152 189.528176 
L 813.578939 156.99237 
L 853.532727 172.781348 
L 893.486515 220.02794 
L 933.440303 215.082797 
L 973.394091 198.062935 
L 1013.347879 197.935577 
L 1053.301667 143.432863 
L 1093.255455 197.65469 
" clip-path="url(#p444018672f)" style="fill: none; stroke: #d62728; stroke-width: 1.5; stroke-linecap: square"/>
   </g>
   <g id="line2d_20">
    <path d="M 134.364545 309.127407 
L 174.318333 398.993945 
L 214.272121 409.148537 
L 254.225909 356.070349 
L 294.179697 434.756526 
L 334.133485 414.515562 
L 374.087273 432.004889 
L 414.041061 393.798256 
L 453.994848 391.757502 
L 493.948636 361.080938 
L 533.902424 365.675677 
L 573.856212 387.261177 
L 613.81 390.06932 
L 653.763788 388.796696 
L 693.717576 394.157501 
L 733.671364 367.5587 
L 773.625152 397.203681 
L 813.578939 403.631275 
L 853.532727 365.255248 
L 893.486515 402.322883 
L 933.440303 395.760066 
L 973.394091 383.219037 
L 1013.347879 338.975215 
L 1053.301667 376.493261 
L 1093.255455 313.749697 
" clip-path="url(#p444018672f)" style="fill: none; stroke: #9467bd; stroke-width: 1.5; stroke-linecap: square"/>
   </g>
   <g id="line2d_21">
    <path d="M 134.364545 200.025416 
L 174.318333 334.993049 
L 214.272121 357.170191 
L 254.225909 300.478617 
L 294.179697 298.728189 
L 334.133485 322.224792 
L 374.087273 277.172029 
L 414.041061 298.461762 
L 453.994848 315.852267 
L 493.948636 304.22246 
L 533.902424 333.522431 
L 573.856212 341.803255 
L 613.81 367.524451 
L 653.763788 310.771852 
L 693.717576 288.783784 
L 733.671364 300.488619 
L 773.625152 314.665381 
L 813.578939 312.992769 
L 853.532727 331.239785 
L 893.486515 381.680635 
L 933.440303 309.839422 
L 973.394091 300.675596 
L 1013.347879 305.765838 
L 1053.301667 325.612049 
L 1093.255455 235.356836 
" clip-path="url(#p444018672f)" style="fill: none; stroke: #8c564b; stroke-width: 1.5; stroke-linecap: square"/>
   </g>
   <g id="line2d_22">
    <path d="M 134.364545 233.124549 
L 174.318333 334.883769 
L 214.272121 324.029214 
L 254.225909 345.84731 
L 294.179697 354.087319 
L 334.133485 344.23503 
L 374.087273 333.338402 
L 414.041061 338.324438 
L 453.994848 337.749902 
L 493.948636 333.697531 
L 533.902424 330.204157 
L 573.856212 323.184006 
L 613.81 328.058718 
L 653.763788 332.099193 
L 693.717576 334.247628 
L 733.671364 339.677735 
L 773.625152 331.408324 
L 813.578939 360.659256 
L 853.532727 335.274383 
L 893.486515 352.912822 
L 933.440303 323.502798 
L 973.394091 326.575806 
L 1013.347879 317.768165 
L 1053.301667 326.834122 
L 1093.255455 319.21694 
" clip-path="url(#p444018672f)" style="fill: none; stroke: #e377c2; stroke-width: 1.5; stroke-linecap: square"/>
   </g>
   <g id="line2d_23">
    <path d="M 134.364545 196.367155 
L 174.318333 279.08034 
L 214.272121 287.235517 
L 254.225909 295.571768 
L 294.179697 300.076976 
L 334.133485 249.080545 
L 374.087273 289.026402 
L 414.041061 297.550226 
L 453.994848 271.020669 
L 493.948636 279.749887 
L 533.902424 305.318402 
L 573.856212 264.885295 
L 613.81 291.399514 
L 653.763788 268.39748 
L 693.717576 270.094842 
L 733.671364 265.925373 
L 773.625152 294.831447 
L 813.578939 263.07998 
L 853.532727 263.017823 
L 893.486515 281.036903 
L 933.440303 259.85987 
L 973.394091 278.907693 
L 1013.347879 255.864944 
L 1053.301667 268.59741 
L 1093.255455 278.910472 
" clip-path="url(#p444018672f)" style="fill: none; stroke: #7f7f7f; stroke-width: 1.5; stroke-linecap: square"/>
   </g>
   <g id="line2d_24"/>
   <g id="line2d_25"/>
   <g id="line2d_26"/>
   <g id="line2d_27"/>
   <g id="line2d_28"/>
   <g id="line2d_29"/>
   <g id="line2d_30"/>
   <g id="line2d_31"/>
   <g id="patch_3">
    <path d="M 86.42 490.552 
L 86.42 13.23592 
" style="fill: none; stroke: #000000; stroke-width: 0.8; stroke-linejoin: miter; stroke-linecap: square"/>
   </g>
   <g id="patch_4">
    <path d="M 1141.2 490.552 
L 1141.2 13.23592 
" style="fill: none; stroke: #000000; stroke-width: 0.8; stroke-linejoin: miter; stroke-linecap: square"/>
   </g>
   <g id="patch_5">
    <path d="M 86.42 490.552 
L 1141.2 490.552 
" style="fill: none; stroke: #000000; stroke-width: 0.8; stroke-linejoin: miter; stroke-linecap: square"/>
   </g>
   <g id="patch_6">
    <path d="M 86.42 13.23592 
L 1141.2 13.23592 
" style="fill: none; stroke: #000000; stroke-width: 0.8; stroke-linejoin: miter; stroke-linecap: square"/>
   </g>
   <g id="legend_1">
    <g id="patch_7">
     <path d="M 97.62 482.552 
L 293.8575 482.552 
Q 297.0575 482.552 297.0575 479.352 
L 297.0575 291.292 
Q 297.0575 288.092 293.8575 288.092 
L 97.62 288.092 
Q 94.42 288.092 94.42 291.292 
L 94.42 479.352 
Q 94.42 482.552 97.62 482.552 
z
" style="fill: #ffffff; opacity: 0.8; stroke: #cccccc; stroke-linejoin: miter"/>
    </g>
    <g id="line2d_32">
     <path d="M 100.82 301.0495 
L 116.82 301.0495 
L 132.82 301.0495 
" style="fill: none; stroke: #1f77b4; stroke-width: 1.5; stroke-linecap: square"/>
    </g>
    <g id="text_18">
     <!-- BayesianRidge -->
     <g transform="translate(145.62 306.6495) scale(0.16 -0.16)">
      <defs>
       <path id="DejaVuSans-42" d="M 1259 2228 
L 1259 519 
L 2272 519 
Q 2781 519 3026 730 
Q 3272 941 3272 1375 
Q 3272 1813 3026 2020 
Q 2781 2228 2272 2228 
L 1259 2228 
z
M 1259 4147 
L 1259 2741 
L 2194 2741 
Q 2656 2741 2882 2914 
Q 3109 3088 3109 3444 
Q 3109 3797 2882 3972 
Q 2656 4147 2194 4147 
L 1259 4147 
z
M 628 4666 
L 2241 4666 
Q 2963 4666 3353 4366 
Q 3744 4066 3744 3513 
Q 3744 3084 3544 2831 
Q 3344 2578 2956 2516 
Q 3422 2416 3680 2098 
Q 3938 1781 3938 1306 
Q 3938 681 3513 340 
Q 3088 0 2303 0 
L 628 0 
L 628 4666 
z
" transform="scale(0.015625)"/>
       <path id="DejaVuSans-79" d="M 2059 -325 
Q 1816 -950 1584 -1140 
Q 1353 -1331 966 -1331 
L 506 -1331 
L 506 -850 
L 844 -850 
Q 1081 -850 1212 -737 
Q 1344 -625 1503 -206 
L 1606 56 
L 191 3500 
L 800 3500 
L 1894 763 
L 2988 3500 
L 3597 3500 
L 2059 -325 
z
" transform="scale(0.015625)"/>
      </defs>
      <use xlink:href="#DejaVuSans-42"/>
      <use xlink:href="#DejaVuSans-61" x="68.603516"/>
      <use xlink:href="#DejaVuSans-79" x="129.882812"/>
      <use xlink:href="#DejaVuSans-65" x="189.0625"/>
      <use xlink:href="#DejaVuSans-73" x="250.585938"/>
      <use xlink:href="#DejaVuSans-69" x="302.685547"/>
      <use xlink:href="#DejaVuSans-61" x="330.46875"/>
      <use xlink:href="#DejaVuSans-6e" x="391.748047"/>
      <use xlink:href="#DejaVuSans-52" x="455.126953"/>
      <use xlink:href="#DejaVuSans-69" x="524.609375"/>
      <use xlink:href="#DejaVuSans-64" x="552.392578"/>
      <use xlink:href="#DejaVuSans-67" x="615.869141"/>
      <use xlink:href="#DejaVuSans-65" x="679.345703"/>
     </g>
    </g>
    <g id="line2d_33">
     <path d="M 100.82 324.5345 
L 116.82 324.5345 
L 132.82 324.5345 
" style="fill: none; stroke: #ff7f0e; stroke-width: 1.5; stroke-linecap: square"/>
    </g>
    <g id="text_19">
     <!-- gbr -->
     <g transform="translate(145.62 330.1345) scale(0.16 -0.16)">
      <defs>
       <path id="DejaVuSans-62" d="M 3116 1747 
Q 3116 2381 2855 2742 
Q 2594 3103 2138 3103 
Q 1681 3103 1420 2742 
Q 1159 2381 1159 1747 
Q 1159 1113 1420 752 
Q 1681 391 2138 391 
Q 2594 391 2855 752 
Q 3116 1113 3116 1747 
z
M 1159 2969 
Q 1341 3281 1617 3432 
Q 1894 3584 2278 3584 
Q 2916 3584 3314 3078 
Q 3713 2572 3713 1747 
Q 3713 922 3314 415 
Q 2916 -91 2278 -91 
Q 1894 -91 1617 61 
Q 1341 213 1159 525 
L 1159 0 
L 581 0 
L 581 4863 
L 1159 4863 
L 1159 2969 
z
" transform="scale(0.015625)"/>
      </defs>
      <use xlink:href="#DejaVuSans-67"/>
      <use xlink:href="#DejaVuSans-62" x="63.476562"/>
      <use xlink:href="#DejaVuSans-72" x="126.953125"/>
     </g>
    </g>
    <g id="line2d_34">
     <path d="M 100.82 348.0195 
L 116.82 348.0195 
L 132.82 348.0195 
" style="fill: none; stroke: #2ca02c; stroke-width: 1.5; stroke-linecap: square"/>
    </g>
    <g id="text_20">
     <!-- xgb -->
     <g transform="translate(145.62 353.6195) scale(0.16 -0.16)">
      <defs>
       <path id="DejaVuSans-78" d="M 3513 3500 
L 2247 1797 
L 3578 0 
L 2900 0 
L 1881 1375 
L 863 0 
L 184 0 
L 1544 1831 
L 300 3500 
L 978 3500 
L 1906 2253 
L 2834 3500 
L 3513 3500 
z
" transform="scale(0.015625)"/>
      </defs>
      <use xlink:href="#DejaVuSans-78"/>
      <use xlink:href="#DejaVuSans-67" x="59.179688"/>
      <use xlink:href="#DejaVuSans-62" x="122.65625"/>
     </g>
    </g>
    <g id="line2d_35">
     <path d="M 100.82 371.5045 
L 116.82 371.5045 
L 132.82 371.5045 
" style="fill: none; stroke: #d62728; stroke-width: 1.5; stroke-linecap: square"/>
    </g>
    <g id="text_21">
     <!-- rf -->
     <g transform="translate(145.62 377.1045) scale(0.16 -0.16)">
      <defs>
       <path id="DejaVuSans-66" d="M 2375 4863 
L 2375 4384 
L 1825 4384 
Q 1516 4384 1395 4259 
Q 1275 4134 1275 3809 
L 1275 3500 
L 2222 3500 
L 2222 3053 
L 1275 3053 
L 1275 0 
L 697 0 
L 697 3053 
L 147 3053 
L 147 3500 
L 697 3500 
L 697 3744 
Q 697 4328 969 4595 
Q 1241 4863 1831 4863 
L 2375 4863 
z
" transform="scale(0.015625)"/>
      </defs>
      <use xlink:href="#DejaVuSans-72"/>
      <use xlink:href="#DejaVuSans-66" x="41.113281"/>
     </g>
    </g>
    <g id="line2d_36">
     <path d="M 100.82 394.9895 
L 116.82 394.9895 
L 132.82 394.9895 
" style="fill: none; stroke: #9467bd; stroke-width: 1.5; stroke-linecap: square"/>
    </g>
    <g id="text_22">
     <!-- xgb_gs -->
     <g transform="translate(145.62 400.5895) scale(0.16 -0.16)">
      <defs>
       <path id="DejaVuSans-5f" d="M 3263 -1063 
L 3263 -1509 
L -63 -1509 
L -63 -1063 
L 3263 -1063 
z
" transform="scale(0.015625)"/>
      </defs>
      <use xlink:href="#DejaVuSans-78"/>
      <use xlink:href="#DejaVuSans-67" x="59.179688"/>
      <use xlink:href="#DejaVuSans-62" x="122.65625"/>
      <use xlink:href="#DejaVuSans-5f" x="186.132812"/>
      <use xlink:href="#DejaVuSans-67" x="236.132812"/>
      <use xlink:href="#DejaVuSans-73" x="299.609375"/>
     </g>
    </g>
    <g id="line2d_37">
     <path d="M 100.82 418.9195 
L 116.82 418.9195 
L 132.82 418.9195 
" style="fill: none; stroke: #8c564b; stroke-width: 1.5; stroke-linecap: square"/>
    </g>
    <g id="text_23">
     <!-- gbr_gs -->
     <g transform="translate(145.62 424.5195) scale(0.16 -0.16)">
      <use xlink:href="#DejaVuSans-67"/>
      <use xlink:href="#DejaVuSans-62" x="63.476562"/>
      <use xlink:href="#DejaVuSans-72" x="126.953125"/>
      <use xlink:href="#DejaVuSans-5f" x="168.066406"/>
      <use xlink:href="#DejaVuSans-67" x="218.066406"/>
      <use xlink:href="#DejaVuSans-73" x="281.542969"/>
     </g>
    </g>
    <g id="line2d_38">
     <path d="M 100.82 442.8495 
L 116.82 442.8495 
L 132.82 442.8495 
" style="fill: none; stroke: #e377c2; stroke-width: 1.5; stroke-linecap: square"/>
    </g>
    <g id="text_24">
     <!-- rf_gs -->
     <g transform="translate(145.62 448.4495) scale(0.16 -0.16)">
      <use xlink:href="#DejaVuSans-72"/>
      <use xlink:href="#DejaVuSans-66" x="41.113281"/>
      <use xlink:href="#DejaVuSans-5f" x="76.318359"/>
      <use xlink:href="#DejaVuSans-67" x="126.318359"/>
      <use xlink:href="#DejaVuSans-73" x="189.794922"/>
     </g>
    </g>
    <g id="line2d_39">
     <path d="M 100.82 466.7795 
L 116.82 466.7795 
L 132.82 466.7795 
" style="fill: none; stroke: #7f7f7f; stroke-width: 1.5; stroke-linecap: square"/>
    </g>
    <g id="text_25">
     <!-- BayesianRidge_gs -->
     <g transform="translate(145.62 472.3795) scale(0.16 -0.16)">
      <use xlink:href="#DejaVuSans-42"/>
      <use xlink:href="#DejaVuSans-61" x="68.603516"/>
      <use xlink:href="#DejaVuSans-79" x="129.882812"/>
      <use xlink:href="#DejaVuSans-65" x="189.0625"/>
      <use xlink:href="#DejaVuSans-73" x="250.585938"/>
      <use xlink:href="#DejaVuSans-69" x="302.685547"/>
      <use xlink:href="#DejaVuSans-61" x="330.46875"/>
      <use xlink:href="#DejaVuSans-6e" x="391.748047"/>
      <use xlink:href="#DejaVuSans-52" x="455.126953"/>
      <use xlink:href="#DejaVuSans-69" x="524.609375"/>
      <use xlink:href="#DejaVuSans-64" x="552.392578"/>
      <use xlink:href="#DejaVuSans-67" x="615.869141"/>
      <use xlink:href="#DejaVuSans-65" x="679.345703"/>
      <use xlink:href="#DejaVuSans-5f" x="740.869141"/>
      <use xlink:href="#DejaVuSans-67" x="790.869141"/>
      <use xlink:href="#DejaVuSans-73" x="854.345703"/>
     </g>
    </g>
   </g>
  </g>
 </g>
 <defs>
  <clipPath id="p444018672f">
   <rect x="86.42" y="13.23592" width="1054.78" height="477.31608"/>
  </clipPath>
 </defs>
</svg>
