<?xml version="1.0" encoding="utf-8" standalone="no"?>
<!DOCTYPE svg PUBLIC "-//W3C//DTD SVG 1.1//EN"
  "http://www.w3.org/Graphics/SVG/1.1/DTD/svg11.dtd">
<svg xmlns:xlink="http://www.w3.org/1999/xlink" width="1152pt" height="576pt" viewBox="0 0 1152 576" xmlns="http://www.w3.org/2000/svg" version="1.1">
 <metadata>
  <rdf:RDF xmlns:dc="http://purl.org/dc/elements/1.1/" xmlns:cc="http://creativecommons.org/ns#" xmlns:rdf="http://www.w3.org/1999/02/22-rdf-syntax-ns#">
   <cc:Work>
    <dc:type rdf:resource="http://purl.org/dc/dcmitype/StillImage"/>
    <dc:date>2025-04-21T13:07:26.334896</dc:date>
    <dc:format>image/svg+xml</dc:format>
    <dc:creator>
     <cc:Agent>
      <dc:title>Matplotlib v3.7.1, https://matplotlib.org/</dc:title>
     </cc:Agent>
    </dc:creator>
   </cc:Work>
  </rdf:RDF>
 </metadata>
 <defs>
  <style type="text/css">*{stroke-linejoin: round; stroke-linecap: butt}</style>
 </defs>
 <g id="figure_1">
  <g id="patch_1">
   <path d="M 0 576 
L 1152 576 
L 1152 0 
L 0 0 
z
" style="fill: #ffffff"/>
  </g>
  <g id="axes_1">
   <g id="patch_2">
    <path d="M 86.42 489.832 
L 1141.2 489.832 
L 1141.2 10.8 
L 86.42 10.8 
z
" style="fill: #ffffff"/>
   </g>
   <g id="PolyCollection_1">
    <defs>
     <path id="m3b0250bff0" d="M 134.364545 -494.922397 
L 134.364545 -388.654852 
L 174.318333 -341.191406 
L 214.272121 -402.620397 
L 254.225909 -399.681954 
L 294.179697 -379.600806 
L 334.133485 -412.284578 
L 374.087273 -463.902157 
L 414.041061 -359.311735 
L 453.994848 -431.063309 
L 493.948636 -427.126728 
L 533.902424 -414.315684 
L 573.856212 -430.888135 
L 613.81 -412.083448 
L 653.763788 -389.329536 
L 693.717576 -321.082476 
L 733.671364 -349.53397 
L 773.625152 -416.63911 
L 813.578939 -357.444941 
L 853.532727 -363.352012 
L 893.486515 -376.321783 
L 933.440303 -386.509929 
L 973.394091 -369.914166 
L 1013.347879 -322.1 
L 1053.301667 -294.262775 
L 1093.255455 -353.621669 
L 1093.255455 -432.098896 
L 1093.255455 -432.098896 
L 1053.301667 -424.470083 
L 1013.347879 -480.778118 
L 973.394091 -455.014891 
L 933.440303 -472.724559 
L 893.486515 -467.734736 
L 853.532727 -433.424748 
L 813.578939 -458.801362 
L 773.625152 -450.855762 
L 733.671364 -463.850966 
L 693.717576 -468.273334 
L 653.763788 -474.943445 
L 613.81 -493.356562 
L 573.856212 -487.130916 
L 533.902424 -543.425818 
L 493.948636 -505.291356 
L 453.994848 -500.719487 
L 414.041061 -490.694935 
L 374.087273 -508.333638 
L 334.133485 -474.160152 
L 294.179697 -462.778491 
L 254.225909 -468.471549 
L 214.272121 -442.839705 
L 174.318333 -444.578447 
L 134.364545 -494.922397 
z
" style="stroke: #1f77b4; stroke-opacity: 0.2"/>
    </defs>
    <g clip-path="url(#pba9b39eb94)">
     <use xlink:href="#m3b0250bff0" x="0" y="576" style="fill: #1f77b4; fill-opacity: 0.2; stroke: #1f77b4; stroke-opacity: 0.2"/>
    </g>
   </g>
   <g id="PolyCollection_2">
    <defs>
     <path id="m9ed619884a" d="M 134.364545 -457.889922 
L 134.364545 -372.040731 
L 174.318333 -264.527462 
L 214.272121 -241.239207 
L 254.225909 -309.043013 
L 294.179697 -344.206922 
L 334.133485 -341.407045 
L 374.087273 -343.857313 
L 414.041061 -295.543751 
L 453.994848 -396.091962 
L 493.948636 -362.093952 
L 533.902424 -344.769616 
L 573.856212 -337.223356 
L 613.81 -297.13136 
L 653.763788 -346.192112 
L 693.717576 -357.419455 
L 733.671364 -318.448848 
L 773.625152 -339.422738 
L 813.578939 -290.605957 
L 853.532727 -302.247926 
L 893.486515 -331.924173 
L 933.440303 -379.429666 
L 973.394091 -318.072668 
L 1013.347879 -339.442063 
L 1053.301667 -337.621658 
L 1093.255455 -321.482715 
L 1093.255455 -416.566332 
L 1093.255455 -416.566332 
L 1053.301667 -421.60999 
L 1013.347879 -420.232339 
L 973.394091 -454.707914 
L 933.440303 -465.089762 
L 893.486515 -427.096782 
L 853.532727 -428.144524 
L 813.578939 -393.673147 
L 773.625152 -416.267726 
L 733.671364 -402.277673 
L 693.717576 -432.641725 
L 653.763788 -426.268699 
L 613.81 -429.055749 
L 573.856212 -394.319703 
L 533.902424 -424.934042 
L 493.948636 -455.092465 
L 453.994848 -435.748397 
L 414.041061 -427.951443 
L 374.087273 -445.639401 
L 334.133485 -427.631138 
L 294.179697 -401.443344 
L 254.225909 -381.751379 
L 214.272121 -382.850258 
L 174.318333 -407.597284 
L 134.364545 -457.889922 
z
" style="stroke: #ff7f0e; stroke-opacity: 0.2"/>
    </defs>
    <g clip-path="url(#pba9b39eb94)">
     <use xlink:href="#m9ed619884a" x="0" y="576" style="fill: #ff7f0e; fill-opacity: 0.2; stroke: #ff7f0e; stroke-opacity: 0.2"/>
    </g>
   </g>
   <g id="PolyCollection_3">
    <defs>
     <path id="m6b35ad00c9" d="M 134.364545 -431.975734 
L 134.364545 -330.474523 
L 174.318333 -254.343371 
L 214.272121 -259.712096 
L 254.225909 -267.640625 
L 294.179697 -270.119972 
L 334.133485 -319.213626 
L 374.087273 -323.636172 
L 414.041061 -276.097348 
L 453.994848 -330.966416 
L 493.948636 -303.049267 
L 533.902424 -296.888174 
L 573.856212 -240.223108 
L 613.81 -291.528081 
L 653.763788 -278.827414 
L 693.717576 -288.42895 
L 733.671364 -256.126663 
L 773.625152 -275.74915 
L 813.578939 -265.331056 
L 853.532727 -236.877791 
L 893.486515 -254.723159 
L 933.440303 -269.603223 
L 973.394091 -267.007023 
L 1013.347879 -290.123484 
L 1053.301667 -305.283217 
L 1093.255455 -257.487196 
L 1093.255455 -343.107563 
L 1093.255455 -343.107563 
L 1053.301667 -384.19059 
L 1013.347879 -352.125415 
L 973.394091 -373.91957 
L 933.440303 -382.173762 
L 893.486515 -332.333812 
L 853.532727 -339.061484 
L 813.578939 -338.380427 
L 773.625152 -355.756476 
L 733.671364 -363.368621 
L 693.717576 -376.522073 
L 653.763788 -367.062564 
L 613.81 -362.301225 
L 573.856212 -369.5484 
L 533.902424 -381.605295 
L 493.948636 -427.73243 
L 453.994848 -391.610951 
L 414.041061 -386.310548 
L 374.087273 -413.314282 
L 334.133485 -372.668527 
L 294.179697 -331.773682 
L 254.225909 -376.509229 
L 214.272121 -350.873738 
L 174.318333 -367.672746 
L 134.364545 -431.975734 
z
" style="stroke: #2ca02c; stroke-opacity: 0.2"/>
    </defs>
    <g clip-path="url(#pba9b39eb94)">
     <use xlink:href="#m6b35ad00c9" x="0" y="576" style="fill: #2ca02c; fill-opacity: 0.2; stroke: #2ca02c; stroke-opacity: 0.2"/>
    </g>
   </g>
   <g id="PolyCollection_4">
    <defs>
     <path id="md0896ec1a6" d="M 134.364545 -378.380732 
L 134.364545 -267.430141 
L 174.318333 -248.453854 
L 214.272121 -187.832781 
L 254.225909 -198.64755 
L 294.179697 -223.637334 
L 334.133485 -261.441111 
L 374.087273 -329.830066 
L 414.041061 -186.721585 
L 453.994848 -217.329064 
L 493.948636 -257.37105 
L 533.902424 -253.795491 
L 573.856212 -262.055197 
L 613.81 -237.23588 
L 653.763788 -229.223978 
L 693.717576 -243.725852 
L 733.671364 -210.333973 
L 773.625152 -214.994512 
L 813.578939 -177.062792 
L 853.532727 -248.952457 
L 893.486515 -191.131872 
L 933.440303 -215.94659 
L 973.394091 -186.840524 
L 1013.347879 -191.712154 
L 1053.301667 -150.10748 
L 1093.255455 -165.931805 
L 1093.255455 -247.398129 
L 1093.255455 -247.398129 
L 1053.301667 -218.582371 
L 1013.347879 -285.482943 
L 973.394091 -301.744431 
L 933.440303 -320.434768 
L 893.486515 -310.993623 
L 853.532727 -321.03505 
L 813.578939 -304.775836 
L 773.625152 -380.171562 
L 733.671364 -372.91201 
L 693.717576 -293.404023 
L 653.763788 -307.579373 
L 613.81 -287.033583 
L 573.856212 -361.968701 
L 533.902424 -365.683289 
L 493.948636 -371.904968 
L 453.994848 -396.721796 
L 414.041061 -362.165993 
L 374.087273 -392.781047 
L 334.133485 -358.853986 
L 294.179697 -332.328584 
L 254.225909 -313.49339 
L 214.272121 -280.329138 
L 174.318333 -299.191547 
L 134.364545 -378.380732 
z
" style="stroke: #d62728; stroke-opacity: 0.2"/>
    </defs>
    <g clip-path="url(#pba9b39eb94)">
     <use xlink:href="#md0896ec1a6" x="0" y="576" style="fill: #d62728; fill-opacity: 0.2; stroke: #d62728; stroke-opacity: 0.2"/>
    </g>
   </g>
   <g id="PolyCollection_5">
    <defs>
     <path id="ma4441b0e06" d="M 134.364545 -361.786207 
L 134.364545 -218.605408 
L 174.318333 -188.600655 
L 214.272121 -150.023317 
L 254.225909 -172.018594 
L 294.179697 -229.03251 
L 334.133485 -293.118989 
L 374.087273 -219.015155 
L 414.041061 -172.16971 
L 453.994848 -281.386988 
L 493.948636 -235.998008 
L 533.902424 -229.104921 
L 573.856212 -246.251335 
L 613.81 -198.606646 
L 653.763788 -232.709599 
L 693.717576 -232.849243 
L 733.671364 -237.369866 
L 773.625152 -211.1767 
L 813.578939 -227.514887 
L 853.532727 -167.034404 
L 893.486515 -194.453052 
L 933.440303 -251.141932 
L 973.394091 -226.136926 
L 1013.347879 -262.907512 
L 1053.301667 -178.072816 
L 1093.255455 -226.860879 
L 1093.255455 -306.625403 
L 1093.255455 -306.625403 
L 1053.301667 -275.609232 
L 1013.347879 -346.618863 
L 973.394091 -313.824235 
L 933.440303 -307.078821 
L 893.486515 -292.222621 
L 853.532727 -300.902359 
L 813.578939 -344.057563 
L 773.625152 -350.649908 
L 733.671364 -320.575386 
L 693.717576 -332.88313 
L 653.763788 -305.621566 
L 613.81 -280.25618 
L 573.856212 -316.919612 
L 533.902424 -301.111199 
L 493.948636 -325.474633 
L 453.994848 -361.792951 
L 414.041061 -332.091814 
L 374.087273 -341.510236 
L 334.133485 -401.467972 
L 294.179697 -319.798392 
L 254.225909 -319.410777 
L 214.272121 -292.001141 
L 174.318333 -292.426235 
L 134.364545 -361.786207 
z
" style="stroke: #9467bd; stroke-opacity: 0.2"/>
    </defs>
    <g clip-path="url(#pba9b39eb94)">
     <use xlink:href="#ma4441b0e06" x="0" y="576" style="fill: #9467bd; fill-opacity: 0.2; stroke: #9467bd; stroke-opacity: 0.2"/>
    </g>
   </g>
   <g id="PolyCollection_6">
    <defs>
     <path id="m154ddc133b" d="M 134.364545 -338.359859 
L 134.364545 -249.437283 
L 174.318333 -186.964972 
L 214.272121 -226.825949 
L 254.225909 -206.287636 
L 294.179697 -227.836447 
L 334.133485 -258.838846 
L 374.087273 -281.219528 
L 414.041061 -228.056788 
L 453.994848 -259.103799 
L 493.948636 -222.919634 
L 533.902424 -240.154976 
L 573.856212 -218.239171 
L 613.81 -205.517307 
L 653.763788 -229.398837 
L 693.717576 -227.369719 
L 733.671364 -209.207691 
L 773.625152 -226.655654 
L 813.578939 -206.850798 
L 853.532727 -191.788265 
L 893.486515 -226.137926 
L 933.440303 -228.404503 
L 973.394091 -229.353374 
L 1013.347879 -210.397792 
L 1053.301667 -197.094251 
L 1093.255455 -187.867797 
L 1093.255455 -272.715322 
L 1093.255455 -272.715322 
L 1053.301667 -263.308325 
L 1013.347879 -284.359847 
L 973.394091 -283.515727 
L 933.440303 -308.43311 
L 893.486515 -260.746354 
L 853.532727 -247.190127 
L 813.578939 -260.769138 
L 773.625152 -278.201496 
L 733.671364 -267.783078 
L 693.717576 -291.191996 
L 653.763788 -298.194077 
L 613.81 -258.170151 
L 573.856212 -262.704762 
L 533.902424 -293.064829 
L 493.948636 -299.694958 
L 453.994848 -297.284944 
L 414.041061 -309.927046 
L 374.087273 -332.408904 
L 334.133485 -318.068782 
L 294.179697 -305.672308 
L 254.225909 -286.951244 
L 214.272121 -273.678518 
L 174.318333 -271.121456 
L 134.364545 -338.359859 
z
" style="stroke: #8c564b; stroke-opacity: 0.2"/>
    </defs>
    <g clip-path="url(#pba9b39eb94)">
     <use xlink:href="#m154ddc133b" x="0" y="576" style="fill: #8c564b; fill-opacity: 0.2; stroke: #8c564b; stroke-opacity: 0.2"/>
    </g>
   </g>
   <g id="PolyCollection_7">
    <defs>
     <path id="mede9b40a44" d="M 134.364545 -492.746849 
L 134.364545 -390.929071 
L 174.318333 -335.377693 
L 214.272121 -410.114944 
L 254.225909 -399.96523 
L 294.179697 -380.045216 
L 334.133485 -407.07176 
L 374.087273 -457.386162 
L 414.041061 -357.504014 
L 453.994848 -426.294632 
L 493.948636 -422.967137 
L 533.902424 -415.338512 
L 573.856212 -436.503595 
L 613.81 -412.549338 
L 653.763788 -392.2669 
L 693.717576 -343.58206 
L 733.671364 -357.897754 
L 773.625152 -414.203425 
L 813.578939 -369.915602 
L 853.532727 -377.895288 
L 893.486515 -383.087724 
L 933.440303 -393.589797 
L 973.394091 -378.104234 
L 1013.347879 -323.865548 
L 1053.301667 -304.167174 
L 1093.255455 -356.42519 
L 1093.255455 -428.473327 
L 1093.255455 -428.473327 
L 1053.301667 -418.205647 
L 1013.347879 -470.472179 
L 973.394091 -453.226954 
L 933.440303 -472.874755 
L 893.486515 -465.864576 
L 853.532727 -427.645367 
L 813.578939 -458.774798 
L 773.625152 -446.350979 
L 733.671364 -455.528442 
L 693.717576 -474.952152 
L 653.763788 -472.736724 
L 613.81 -495.332912 
L 573.856212 -501.10622 
L 533.902424 -543.328195 
L 493.948636 -502.316087 
L 453.994848 -507.030137 
L 414.041061 -491.352866 
L 374.087273 -509.513677 
L 334.133485 -481.113962 
L 294.179697 -460.044094 
L 254.225909 -475.677465 
L 214.272121 -445.961721 
L 174.318333 -439.722362 
L 134.364545 -492.746849 
z
" style="stroke: #e377c2; stroke-opacity: 0.2"/>
    </defs>
    <g clip-path="url(#pba9b39eb94)">
     <use xlink:href="#mede9b40a44" x="0" y="576" style="fill: #e377c2; fill-opacity: 0.2; stroke: #e377c2; stroke-opacity: 0.2"/>
    </g>
   </g>
   <g id="PolyCollection_8">
    <defs>
     <path id="mf98fc9e91f" d="M 134.364545 -292.290135 
L 134.364545 -200.84494 
L 174.318333 -118.459587 
L 214.272121 -149.322717 
L 254.225909 -149.727751 
L 294.179697 -159.992117 
L 334.133485 -171.208023 
L 374.087273 -192.089912 
L 414.041061 -149.004249 
L 453.994848 -186.804026 
L 493.948636 -180.74254 
L 533.902424 -154.314606 
L 573.856212 -107.942182 
L 613.81 -181.696594 
L 653.763788 -145.421426 
L 693.717576 -173.013956 
L 733.671364 -114.095572 
L 773.625152 -153.296946 
L 813.578939 -129.385153 
L 853.532727 -126.641127 
L 893.486515 -112.13845 
L 933.440303 -160.510148 
L 973.394091 -131.08461 
L 1013.347879 -155.883471 
L 1053.301667 -170.676613 
L 1093.255455 -143.747024 
L 1093.255455 -230.210278 
L 1093.255455 -230.210278 
L 1053.301667 -252.401176 
L 1013.347879 -239.594967 
L 973.394091 -258.314647 
L 933.440303 -253.669796 
L 893.486515 -207.42201 
L 853.532727 -242.466082 
L 813.578939 -190.23478 
L 773.625152 -241.84291 
L 733.671364 -237.848766 
L 693.717576 -242.504088 
L 653.763788 -242.838484 
L 613.81 -228.451593 
L 573.856212 -219.688679 
L 533.902424 -221.391495 
L 493.948636 -275.705221 
L 453.994848 -300.953795 
L 414.041061 -237.292992 
L 374.087273 -273.791066 
L 334.133485 -246.397841 
L 294.179697 -246.332014 
L 254.225909 -282.26187 
L 214.272121 -250.022478 
L 174.318333 -228.392706 
L 134.364545 -292.290135 
z
" style="stroke: #7f7f7f; stroke-opacity: 0.2"/>
    </defs>
    <g clip-path="url(#pba9b39eb94)">
     <use xlink:href="#mf98fc9e91f" x="0" y="576" style="fill: #7f7f7f; fill-opacity: 0.2; stroke: #7f7f7f; stroke-opacity: 0.2"/>
    </g>
   </g>
   <g id="matplotlib.axis_1">
    <g id="xtick_1">
     <g id="line2d_1">
      <defs>
       <path id="mfee2683646" d="M 0 0 
L 0 3.5 
" style="stroke: #000000; stroke-width: 0.8"/>
      </defs>
      <g>
       <use xlink:href="#mfee2683646" x="114.387652" y="489.832" style="stroke: #000000; stroke-width: 0.8"/>
      </g>
     </g>
     <g id="text_1">
      <!-- 0 -->
      <g transform="translate(108.025152 512.028875) scale(0.2 -0.2)">
       <defs>
        <path id="DejaVuSans-30" d="M 2034 4250 
Q 1547 4250 1301 3770 
Q 1056 3291 1056 2328 
Q 1056 1369 1301 889 
Q 1547 409 2034 409 
Q 2525 409 2770 889 
Q 3016 1369 3016 2328 
Q 3016 3291 2770 3770 
Q 2525 4250 2034 4250 
z
M 2034 4750 
Q 2819 4750 3233 4129 
Q 3647 3509 3647 2328 
Q 3647 1150 3233 529 
Q 2819 -91 2034 -91 
Q 1250 -91 836 529 
Q 422 1150 422 2328 
Q 422 3509 836 4129 
Q 1250 4750 2034 4750 
z
" transform="scale(0.015625)"/>
       </defs>
       <use xlink:href="#DejaVuSans-30"/>
      </g>
     </g>
    </g>
    <g id="xtick_2">
     <g id="line2d_2">
      <g>
       <use xlink:href="#mfee2683646" x="314.156591" y="489.832" style="stroke: #000000; stroke-width: 0.8"/>
      </g>
     </g>
     <g id="text_2">
      <!-- 10 -->
      <g transform="translate(301.431591 512.028875) scale(0.2 -0.2)">
       <defs>
        <path id="DejaVuSans-31" d="M 794 531 
L 1825 531 
L 1825 4091 
L 703 3866 
L 703 4441 
L 1819 4666 
L 2450 4666 
L 2450 531 
L 3481 531 
L 3481 0 
L 794 0 
L 794 531 
z
" transform="scale(0.015625)"/>
       </defs>
       <use xlink:href="#DejaVuSans-31"/>
       <use xlink:href="#DejaVuSans-30" x="63.623047"/>
      </g>
     </g>
    </g>
    <g id="xtick_3">
     <g id="line2d_3">
      <g>
       <use xlink:href="#mfee2683646" x="513.92553" y="489.832" style="stroke: #000000; stroke-width: 0.8"/>
      </g>
     </g>
     <g id="text_3">
      <!-- 20 -->
      <g transform="translate(501.20053 512.028875) scale(0.2 -0.2)">
       <defs>
        <path id="DejaVuSans-32" d="M 1228 531 
L 3431 531 
L 3431 0 
L 469 0 
L 469 531 
Q 828 903 1448 1529 
Q 2069 2156 2228 2338 
Q 2531 2678 2651 2914 
Q 2772 3150 2772 3378 
Q 2772 3750 2511 3984 
Q 2250 4219 1831 4219 
Q 1534 4219 1204 4116 
Q 875 4013 500 3803 
L 500 4441 
Q 881 4594 1212 4672 
Q 1544 4750 1819 4750 
Q 2544 4750 2975 4387 
Q 3406 4025 3406 3419 
Q 3406 3131 3298 2873 
Q 3191 2616 2906 2266 
Q 2828 2175 2409 1742 
Q 1991 1309 1228 531 
z
" transform="scale(0.015625)"/>
       </defs>
       <use xlink:href="#DejaVuSans-32"/>
       <use xlink:href="#DejaVuSans-30" x="63.623047"/>
      </g>
     </g>
    </g>
    <g id="xtick_4">
     <g id="line2d_4">
      <g>
       <use xlink:href="#mfee2683646" x="713.69447" y="489.832" style="stroke: #000000; stroke-width: 0.8"/>
      </g>
     </g>
     <g id="text_4">
      <!-- 30 -->
      <g transform="translate(700.96947 512.028875) scale(0.2 -0.2)">
       <defs>
        <path id="DejaVuSans-33" d="M 2597 2516 
Q 3050 2419 3304 2112 
Q 3559 1806 3559 1356 
Q 3559 666 3084 287 
Q 2609 -91 1734 -91 
Q 1441 -91 1130 -33 
Q 819 25 488 141 
L 488 750 
Q 750 597 1062 519 
Q 1375 441 1716 441 
Q 2309 441 2620 675 
Q 2931 909 2931 1356 
Q 2931 1769 2642 2001 
Q 2353 2234 1838 2234 
L 1294 2234 
L 1294 2753 
L 1863 2753 
Q 2328 2753 2575 2939 
Q 2822 3125 2822 3475 
Q 2822 3834 2567 4026 
Q 2313 4219 1838 4219 
Q 1578 4219 1281 4162 
Q 984 4106 628 3988 
L 628 4550 
Q 988 4650 1302 4700 
Q 1616 4750 1894 4750 
Q 2613 4750 3031 4423 
Q 3450 4097 3450 3541 
Q 3450 3153 3228 2886 
Q 3006 2619 2597 2516 
z
" transform="scale(0.015625)"/>
       </defs>
       <use xlink:href="#DejaVuSans-33"/>
       <use xlink:href="#DejaVuSans-30" x="63.623047"/>
      </g>
     </g>
    </g>
    <g id="xtick_5">
     <g id="line2d_5">
      <g>
       <use xlink:href="#mfee2683646" x="913.463409" y="489.832" style="stroke: #000000; stroke-width: 0.8"/>
      </g>
     </g>
     <g id="text_5">
      <!-- 40 -->
      <g transform="translate(900.738409 512.028875) scale(0.2 -0.2)">
       <defs>
        <path id="DejaVuSans-34" d="M 2419 4116 
L 825 1625 
L 2419 1625 
L 2419 4116 
z
M 2253 4666 
L 3047 4666 
L 3047 1625 
L 3713 1625 
L 3713 1100 
L 3047 1100 
L 3047 0 
L 2419 0 
L 2419 1100 
L 313 1100 
L 313 1709 
L 2253 4666 
z
" transform="scale(0.015625)"/>
       </defs>
       <use xlink:href="#DejaVuSans-34"/>
       <use xlink:href="#DejaVuSans-30" x="63.623047"/>
      </g>
     </g>
    </g>
    <g id="xtick_6">
     <g id="line2d_6">
      <g>
       <use xlink:href="#mfee2683646" x="1113.232348" y="489.832" style="stroke: #000000; stroke-width: 0.8"/>
      </g>
     </g>
     <g id="text_6">
      <!-- 50 -->
      <g transform="translate(1100.507348 512.028875) scale(0.2 -0.2)">
       <defs>
        <path id="DejaVuSans-35" d="M 691 4666 
L 3169 4666 
L 3169 4134 
L 1269 4134 
L 1269 2991 
Q 1406 3038 1543 3061 
Q 1681 3084 1819 3084 
Q 2600 3084 3056 2656 
Q 3513 2228 3513 1497 
Q 3513 744 3044 326 
Q 2575 -91 1722 -91 
Q 1428 -91 1123 -41 
Q 819 9 494 109 
L 494 744 
Q 775 591 1075 516 
Q 1375 441 1709 441 
Q 2250 441 2565 725 
Q 2881 1009 2881 1497 
Q 2881 1984 2565 2268 
Q 2250 2553 1709 2553 
Q 1456 2553 1204 2497 
Q 953 2441 691 2322 
L 691 4666 
z
" transform="scale(0.015625)"/>
       </defs>
       <use xlink:href="#DejaVuSans-35"/>
       <use xlink:href="#DejaVuSans-30" x="63.623047"/>
      </g>
     </g>
    </g>
    <g id="text_7">
     <!-- Percentile Threshold -->
     <g transform="translate(512.030312 535.385125) scale(0.2 -0.2)">
      <defs>
       <path id="DejaVuSans-50" d="M 1259 4147 
L 1259 2394 
L 2053 2394 
Q 2494 2394 2734 2622 
Q 2975 2850 2975 3272 
Q 2975 3691 2734 3919 
Q 2494 4147 2053 4147 
L 1259 4147 
z
M 628 4666 
L 2053 4666 
Q 2838 4666 3239 4311 
Q 3641 3956 3641 3272 
Q 3641 2581 3239 2228 
Q 2838 1875 2053 1875 
L 1259 1875 
L 1259 0 
L 628 0 
L 628 4666 
z
" transform="scale(0.015625)"/>
       <path id="DejaVuSans-65" d="M 3597 1894 
L 3597 1613 
L 953 1613 
Q 991 1019 1311 708 
Q 1631 397 2203 397 
Q 2534 397 2845 478 
Q 3156 559 3463 722 
L 3463 178 
Q 3153 47 2828 -22 
Q 2503 -91 2169 -91 
Q 1331 -91 842 396 
Q 353 884 353 1716 
Q 353 2575 817 3079 
Q 1281 3584 2069 3584 
Q 2775 3584 3186 3129 
Q 3597 2675 3597 1894 
z
M 3022 2063 
Q 3016 2534 2758 2815 
Q 2500 3097 2075 3097 
Q 1594 3097 1305 2825 
Q 1016 2553 972 2059 
L 3022 2063 
z
" transform="scale(0.015625)"/>
       <path id="DejaVuSans-72" d="M 2631 2963 
Q 2534 3019 2420 3045 
Q 2306 3072 2169 3072 
Q 1681 3072 1420 2755 
Q 1159 2438 1159 1844 
L 1159 0 
L 581 0 
L 581 3500 
L 1159 3500 
L 1159 2956 
Q 1341 3275 1631 3429 
Q 1922 3584 2338 3584 
Q 2397 3584 2469 3576 
Q 2541 3569 2628 3553 
L 2631 2963 
z
" transform="scale(0.015625)"/>
       <path id="DejaVuSans-63" d="M 3122 3366 
L 3122 2828 
Q 2878 2963 2633 3030 
Q 2388 3097 2138 3097 
Q 1578 3097 1268 2742 
Q 959 2388 959 1747 
Q 959 1106 1268 751 
Q 1578 397 2138 397 
Q 2388 397 2633 464 
Q 2878 531 3122 666 
L 3122 134 
Q 2881 22 2623 -34 
Q 2366 -91 2075 -91 
Q 1284 -91 818 406 
Q 353 903 353 1747 
Q 353 2603 823 3093 
Q 1294 3584 2113 3584 
Q 2378 3584 2631 3529 
Q 2884 3475 3122 3366 
z
" transform="scale(0.015625)"/>
       <path id="DejaVuSans-6e" d="M 3513 2113 
L 3513 0 
L 2938 0 
L 2938 2094 
Q 2938 2591 2744 2837 
Q 2550 3084 2163 3084 
Q 1697 3084 1428 2787 
Q 1159 2491 1159 1978 
L 1159 0 
L 581 0 
L 581 3500 
L 1159 3500 
L 1159 2956 
Q 1366 3272 1645 3428 
Q 1925 3584 2291 3584 
Q 2894 3584 3203 3211 
Q 3513 2838 3513 2113 
z
" transform="scale(0.015625)"/>
       <path id="DejaVuSans-74" d="M 1172 4494 
L 1172 3500 
L 2356 3500 
L 2356 3053 
L 1172 3053 
L 1172 1153 
Q 1172 725 1289 603 
Q 1406 481 1766 481 
L 2356 481 
L 2356 0 
L 1766 0 
Q 1100 0 847 248 
Q 594 497 594 1153 
L 594 3053 
L 172 3053 
L 172 3500 
L 594 3500 
L 594 4494 
L 1172 4494 
z
" transform="scale(0.015625)"/>
       <path id="DejaVuSans-69" d="M 603 3500 
L 1178 3500 
L 1178 0 
L 603 0 
L 603 3500 
z
M 603 4863 
L 1178 4863 
L 1178 4134 
L 603 4134 
L 603 4863 
z
" transform="scale(0.015625)"/>
       <path id="DejaVuSans-6c" d="M 603 4863 
L 1178 4863 
L 1178 0 
L 603 0 
L 603 4863 
z
" transform="scale(0.015625)"/>
       <path id="DejaVuSans-20" transform="scale(0.015625)"/>
       <path id="DejaVuSans-54" d="M -19 4666 
L 3928 4666 
L 3928 4134 
L 2272 4134 
L 2272 0 
L 1638 0 
L 1638 4134 
L -19 4134 
L -19 4666 
z
" transform="scale(0.015625)"/>
       <path id="DejaVuSans-68" d="M 3513 2113 
L 3513 0 
L 2938 0 
L 2938 2094 
Q 2938 2591 2744 2837 
Q 2550 3084 2163 3084 
Q 1697 3084 1428 2787 
Q 1159 2491 1159 1978 
L 1159 0 
L 581 0 
L 581 4863 
L 1159 4863 
L 1159 2956 
Q 1366 3272 1645 3428 
Q 1925 3584 2291 3584 
Q 2894 3584 3203 3211 
Q 3513 2838 3513 2113 
z
" transform="scale(0.015625)"/>
       <path id="DejaVuSans-73" d="M 2834 3397 
L 2834 2853 
Q 2591 2978 2328 3040 
Q 2066 3103 1784 3103 
Q 1356 3103 1142 2972 
Q 928 2841 928 2578 
Q 928 2378 1081 2264 
Q 1234 2150 1697 2047 
L 1894 2003 
Q 2506 1872 2764 1633 
Q 3022 1394 3022 966 
Q 3022 478 2636 193 
Q 2250 -91 1575 -91 
Q 1294 -91 989 -36 
Q 684 19 347 128 
L 347 722 
Q 666 556 975 473 
Q 1284 391 1588 391 
Q 1994 391 2212 530 
Q 2431 669 2431 922 
Q 2431 1156 2273 1281 
Q 2116 1406 1581 1522 
L 1381 1569 
Q 847 1681 609 1914 
Q 372 2147 372 2553 
Q 372 3047 722 3315 
Q 1072 3584 1716 3584 
Q 2034 3584 2315 3537 
Q 2597 3491 2834 3397 
z
" transform="scale(0.015625)"/>
       <path id="DejaVuSans-6f" d="M 1959 3097 
Q 1497 3097 1228 2736 
Q 959 2375 959 1747 
Q 959 1119 1226 758 
Q 1494 397 1959 397 
Q 2419 397 2687 759 
Q 2956 1122 2956 1747 
Q 2956 2369 2687 2733 
Q 2419 3097 1959 3097 
z
M 1959 3584 
Q 2709 3584 3137 3096 
Q 3566 2609 3566 1747 
Q 3566 888 3137 398 
Q 2709 -91 1959 -91 
Q 1206 -91 779 398 
Q 353 888 353 1747 
Q 353 2609 779 3096 
Q 1206 3584 1959 3584 
z
" transform="scale(0.015625)"/>
       <path id="DejaVuSans-64" d="M 2906 2969 
L 2906 4863 
L 3481 4863 
L 3481 0 
L 2906 0 
L 2906 525 
Q 2725 213 2448 61 
Q 2172 -91 1784 -91 
Q 1150 -91 751 415 
Q 353 922 353 1747 
Q 353 2572 751 3078 
Q 1150 3584 1784 3584 
Q 2172 3584 2448 3432 
Q 2725 3281 2906 2969 
z
M 947 1747 
Q 947 1113 1208 752 
Q 1469 391 1925 391 
Q 2381 391 2643 752 
Q 2906 1113 2906 1747 
Q 2906 2381 2643 2742 
Q 2381 3103 1925 3103 
Q 1469 3103 1208 2742 
Q 947 2381 947 1747 
z
" transform="scale(0.015625)"/>
      </defs>
      <use xlink:href="#DejaVuSans-50"/>
      <use xlink:href="#DejaVuSans-65" x="56.677734"/>
      <use xlink:href="#DejaVuSans-72" x="118.201172"/>
      <use xlink:href="#DejaVuSans-63" x="157.064453"/>
      <use xlink:href="#DejaVuSans-65" x="212.044922"/>
      <use xlink:href="#DejaVuSans-6e" x="273.568359"/>
      <use xlink:href="#DejaVuSans-74" x="336.947266"/>
      <use xlink:href="#DejaVuSans-69" x="376.15625"/>
      <use xlink:href="#DejaVuSans-6c" x="403.939453"/>
      <use xlink:href="#DejaVuSans-65" x="431.722656"/>
      <use xlink:href="#DejaVuSans-20" x="493.246094"/>
      <use xlink:href="#DejaVuSans-54" x="525.033203"/>
      <use xlink:href="#DejaVuSans-68" x="586.117188"/>
      <use xlink:href="#DejaVuSans-72" x="649.496094"/>
      <use xlink:href="#DejaVuSans-65" x="688.359375"/>
      <use xlink:href="#DejaVuSans-73" x="749.882812"/>
      <use xlink:href="#DejaVuSans-68" x="801.982422"/>
      <use xlink:href="#DejaVuSans-6f" x="865.361328"/>
      <use xlink:href="#DejaVuSans-6c" x="926.542969"/>
      <use xlink:href="#DejaVuSans-64" x="954.326172"/>
     </g>
     <!-- (Using "max_mean" Threshold Handling) -->
     <g transform="translate(410.280312 557.78075) scale(0.2 -0.2)">
      <defs>
       <path id="DejaVuSans-28" d="M 1984 4856 
Q 1566 4138 1362 3434 
Q 1159 2731 1159 2009 
Q 1159 1288 1364 580 
Q 1569 -128 1984 -844 
L 1484 -844 
Q 1016 -109 783 600 
Q 550 1309 550 2009 
Q 550 2706 781 3412 
Q 1013 4119 1484 4856 
L 1984 4856 
z
" transform="scale(0.015625)"/>
       <path id="DejaVuSans-55" d="M 556 4666 
L 1191 4666 
L 1191 1831 
Q 1191 1081 1462 751 
Q 1734 422 2344 422 
Q 2950 422 3222 751 
Q 3494 1081 3494 1831 
L 3494 4666 
L 4128 4666 
L 4128 1753 
Q 4128 841 3676 375 
Q 3225 -91 2344 -91 
Q 1459 -91 1007 375 
Q 556 841 556 1753 
L 556 4666 
z
" transform="scale(0.015625)"/>
       <path id="DejaVuSans-67" d="M 2906 1791 
Q 2906 2416 2648 2759 
Q 2391 3103 1925 3103 
Q 1463 3103 1205 2759 
Q 947 2416 947 1791 
Q 947 1169 1205 825 
Q 1463 481 1925 481 
Q 2391 481 2648 825 
Q 2906 1169 2906 1791 
z
M 3481 434 
Q 3481 -459 3084 -895 
Q 2688 -1331 1869 -1331 
Q 1566 -1331 1297 -1286 
Q 1028 -1241 775 -1147 
L 775 -588 
Q 1028 -725 1275 -790 
Q 1522 -856 1778 -856 
Q 2344 -856 2625 -561 
Q 2906 -266 2906 331 
L 2906 616 
Q 2728 306 2450 153 
Q 2172 0 1784 0 
Q 1141 0 747 490 
Q 353 981 353 1791 
Q 353 2603 747 3093 
Q 1141 3584 1784 3584 
Q 2172 3584 2450 3431 
Q 2728 3278 2906 2969 
L 2906 3500 
L 3481 3500 
L 3481 434 
z
" transform="scale(0.015625)"/>
       <path id="DejaVuSans-22" d="M 1147 4666 
L 1147 2931 
L 616 2931 
L 616 4666 
L 1147 4666 
z
M 2328 4666 
L 2328 2931 
L 1797 2931 
L 1797 4666 
L 2328 4666 
z
" transform="scale(0.015625)"/>
       <path id="DejaVuSans-6d" d="M 3328 2828 
Q 3544 3216 3844 3400 
Q 4144 3584 4550 3584 
Q 5097 3584 5394 3201 
Q 5691 2819 5691 2113 
L 5691 0 
L 5113 0 
L 5113 2094 
Q 5113 2597 4934 2840 
Q 4756 3084 4391 3084 
Q 3944 3084 3684 2787 
Q 3425 2491 3425 1978 
L 3425 0 
L 2847 0 
L 2847 2094 
Q 2847 2600 2669 2842 
Q 2491 3084 2119 3084 
Q 1678 3084 1418 2786 
Q 1159 2488 1159 1978 
L 1159 0 
L 581 0 
L 581 3500 
L 1159 3500 
L 1159 2956 
Q 1356 3278 1631 3431 
Q 1906 3584 2284 3584 
Q 2666 3584 2933 3390 
Q 3200 3197 3328 2828 
z
" transform="scale(0.015625)"/>
       <path id="DejaVuSans-61" d="M 2194 1759 
Q 1497 1759 1228 1600 
Q 959 1441 959 1056 
Q 959 750 1161 570 
Q 1363 391 1709 391 
Q 2188 391 2477 730 
Q 2766 1069 2766 1631 
L 2766 1759 
L 2194 1759 
z
M 3341 1997 
L 3341 0 
L 2766 0 
L 2766 531 
Q 2569 213 2275 61 
Q 1981 -91 1556 -91 
Q 1019 -91 701 211 
Q 384 513 384 1019 
Q 384 1609 779 1909 
Q 1175 2209 1959 2209 
L 2766 2209 
L 2766 2266 
Q 2766 2663 2505 2880 
Q 2244 3097 1772 3097 
Q 1472 3097 1187 3025 
Q 903 2953 641 2809 
L 641 3341 
Q 956 3463 1253 3523 
Q 1550 3584 1831 3584 
Q 2591 3584 2966 3190 
Q 3341 2797 3341 1997 
z
" transform="scale(0.015625)"/>
       <path id="DejaVuSans-78" d="M 3513 3500 
L 2247 1797 
L 3578 0 
L 2900 0 
L 1881 1375 
L 863 0 
L 184 0 
L 1544 1831 
L 300 3500 
L 978 3500 
L 1906 2253 
L 2834 3500 
L 3513 3500 
z
" transform="scale(0.015625)"/>
       <path id="DejaVuSans-5f" d="M 3263 -1063 
L 3263 -1509 
L -63 -1509 
L -63 -1063 
L 3263 -1063 
z
" transform="scale(0.015625)"/>
       <path id="DejaVuSans-48" d="M 628 4666 
L 1259 4666 
L 1259 2753 
L 3553 2753 
L 3553 4666 
L 4184 4666 
L 4184 0 
L 3553 0 
L 3553 2222 
L 1259 2222 
L 1259 0 
L 628 0 
L 628 4666 
z
" transform="scale(0.015625)"/>
       <path id="DejaVuSans-29" d="M 513 4856 
L 1013 4856 
Q 1481 4119 1714 3412 
Q 1947 2706 1947 2009 
Q 1947 1309 1714 600 
Q 1481 -109 1013 -844 
L 513 -844 
Q 928 -128 1133 580 
Q 1338 1288 1338 2009 
Q 1338 2731 1133 3434 
Q 928 4138 513 4856 
z
" transform="scale(0.015625)"/>
      </defs>
      <use xlink:href="#DejaVuSans-28"/>
      <use xlink:href="#DejaVuSans-55" x="39.013672"/>
      <use xlink:href="#DejaVuSans-73" x="112.207031"/>
      <use xlink:href="#DejaVuSans-69" x="164.306641"/>
      <use xlink:href="#DejaVuSans-6e" x="192.089844"/>
      <use xlink:href="#DejaVuSans-67" x="255.46875"/>
      <use xlink:href="#DejaVuSans-20" x="318.945312"/>
      <use xlink:href="#DejaVuSans-22" x="350.732422"/>
      <use xlink:href="#DejaVuSans-6d" x="396.728516"/>
      <use xlink:href="#DejaVuSans-61" x="494.140625"/>
      <use xlink:href="#DejaVuSans-78" x="555.419922"/>
      <use xlink:href="#DejaVuSans-5f" x="614.599609"/>
      <use xlink:href="#DejaVuSans-6d" x="664.599609"/>
      <use xlink:href="#DejaVuSans-65" x="762.011719"/>
      <use xlink:href="#DejaVuSans-61" x="823.535156"/>
      <use xlink:href="#DejaVuSans-6e" x="884.814453"/>
      <use xlink:href="#DejaVuSans-22" x="948.193359"/>
      <use xlink:href="#DejaVuSans-20" x="994.189453"/>
      <use xlink:href="#DejaVuSans-54" x="1025.976562"/>
      <use xlink:href="#DejaVuSans-68" x="1087.060547"/>
      <use xlink:href="#DejaVuSans-72" x="1150.439453"/>
      <use xlink:href="#DejaVuSans-65" x="1189.302734"/>
      <use xlink:href="#DejaVuSans-73" x="1250.826172"/>
      <use xlink:href="#DejaVuSans-68" x="1302.925781"/>
      <use xlink:href="#DejaVuSans-6f" x="1366.304688"/>
      <use xlink:href="#DejaVuSans-6c" x="1427.486328"/>
      <use xlink:href="#DejaVuSans-64" x="1455.269531"/>
      <use xlink:href="#DejaVuSans-20" x="1518.746094"/>
      <use xlink:href="#DejaVuSans-48" x="1550.533203"/>
      <use xlink:href="#DejaVuSans-61" x="1625.728516"/>
      <use xlink:href="#DejaVuSans-6e" x="1687.007812"/>
      <use xlink:href="#DejaVuSans-64" x="1750.386719"/>
      <use xlink:href="#DejaVuSans-6c" x="1813.863281"/>
      <use xlink:href="#DejaVuSans-69" x="1841.646484"/>
      <use xlink:href="#DejaVuSans-6e" x="1869.429688"/>
      <use xlink:href="#DejaVuSans-67" x="1932.808594"/>
      <use xlink:href="#DejaVuSans-29" x="1996.285156"/>
     </g>
    </g>
   </g>
   <g id="matplotlib.axis_2">
    <g id="ytick_1">
     <g id="line2d_7">
      <defs>
       <path id="m34a2d8adfb" d="M 0 0 
L -3.5 0 
" style="stroke: #000000; stroke-width: 0.8"/>
      </defs>
      <g>
       <use xlink:href="#m34a2d8adfb" x="86.42" y="385.721648" style="stroke: #000000; stroke-width: 0.8"/>
      </g>
     </g>
     <g id="text_8">
      <!-- 9.0 -->
      <g transform="translate(47.61375 393.320086) scale(0.2 -0.2)">
       <defs>
        <path id="DejaVuSans-39" d="M 703 97 
L 703 672 
Q 941 559 1184 500 
Q 1428 441 1663 441 
Q 2288 441 2617 861 
Q 2947 1281 2994 2138 
Q 2813 1869 2534 1725 
Q 2256 1581 1919 1581 
Q 1219 1581 811 2004 
Q 403 2428 403 3163 
Q 403 3881 828 4315 
Q 1253 4750 1959 4750 
Q 2769 4750 3195 4129 
Q 3622 3509 3622 2328 
Q 3622 1225 3098 567 
Q 2575 -91 1691 -91 
Q 1453 -91 1209 -44 
Q 966 3 703 97 
z
M 1959 2075 
Q 2384 2075 2632 2365 
Q 2881 2656 2881 3163 
Q 2881 3666 2632 3958 
Q 2384 4250 1959 4250 
Q 1534 4250 1286 3958 
Q 1038 3666 1038 3163 
Q 1038 2656 1286 2365 
Q 1534 2075 1959 2075 
z
" transform="scale(0.015625)"/>
        <path id="DejaVuSans-2e" d="M 684 794 
L 1344 794 
L 1344 0 
L 684 0 
L 684 794 
z
" transform="scale(0.015625)"/>
       </defs>
       <use xlink:href="#DejaVuSans-39"/>
       <use xlink:href="#DejaVuSans-2e" x="63.623047"/>
       <use xlink:href="#DejaVuSans-30" x="95.410156"/>
      </g>
     </g>
    </g>
    <g id="ytick_2">
     <g id="line2d_8">
      <g>
       <use xlink:href="#m34a2d8adfb" x="86.42" y="280.066263" style="stroke: #000000; stroke-width: 0.8"/>
      </g>
     </g>
     <g id="text_9">
      <!-- 9.5 -->
      <g transform="translate(47.61375 287.6647) scale(0.2 -0.2)">
       <use xlink:href="#DejaVuSans-39"/>
       <use xlink:href="#DejaVuSans-2e" x="63.623047"/>
       <use xlink:href="#DejaVuSans-35" x="95.410156"/>
      </g>
     </g>
    </g>
    <g id="ytick_3">
     <g id="line2d_9">
      <g>
       <use xlink:href="#m34a2d8adfb" x="86.42" y="174.410877" style="stroke: #000000; stroke-width: 0.8"/>
      </g>
     </g>
     <g id="text_10">
      <!-- 10.0 -->
      <g transform="translate(34.88875 182.009314) scale(0.2 -0.2)">
       <use xlink:href="#DejaVuSans-31"/>
       <use xlink:href="#DejaVuSans-30" x="63.623047"/>
       <use xlink:href="#DejaVuSans-2e" x="127.246094"/>
       <use xlink:href="#DejaVuSans-30" x="159.033203"/>
      </g>
     </g>
    </g>
    <g id="ytick_4">
     <g id="line2d_10">
      <g>
       <use xlink:href="#m34a2d8adfb" x="86.42" y="68.755491" style="stroke: #000000; stroke-width: 0.8"/>
      </g>
     </g>
     <g id="text_11">
      <!-- 10.5 -->
      <g transform="translate(34.88875 76.353929) scale(0.2 -0.2)">
       <use xlink:href="#DejaVuSans-31"/>
       <use xlink:href="#DejaVuSans-30" x="63.623047"/>
       <use xlink:href="#DejaVuSans-2e" x="127.246094"/>
       <use xlink:href="#DejaVuSans-35" x="159.033203"/>
      </g>
     </g>
    </g>
    <g id="text_12">
     <!-- MAE -->
     <g transform="translate(26.729375 272.1035) rotate(-90) scale(0.2 -0.2)">
      <defs>
       <path id="DejaVuSans-4d" d="M 628 4666 
L 1569 4666 
L 2759 1491 
L 3956 4666 
L 4897 4666 
L 4897 0 
L 4281 0 
L 4281 4097 
L 3078 897 
L 2444 897 
L 1241 4097 
L 1241 0 
L 628 0 
L 628 4666 
z
" transform="scale(0.015625)"/>
       <path id="DejaVuSans-41" d="M 2188 4044 
L 1331 1722 
L 3047 1722 
L 2188 4044 
z
M 1831 4666 
L 2547 4666 
L 4325 0 
L 3669 0 
L 3244 1197 
L 1141 1197 
L 716 0 
L 50 0 
L 1831 4666 
z
" transform="scale(0.015625)"/>
       <path id="DejaVuSans-45" d="M 628 4666 
L 3578 4666 
L 3578 4134 
L 1259 4134 
L 1259 2753 
L 3481 2753 
L 3481 2222 
L 1259 2222 
L 1259 531 
L 3634 531 
L 3634 0 
L 628 0 
L 628 4666 
z
" transform="scale(0.015625)"/>
      </defs>
      <use xlink:href="#DejaVuSans-4d"/>
      <use xlink:href="#DejaVuSans-41" x="86.279297"/>
      <use xlink:href="#DejaVuSans-45" x="154.6875"/>
     </g>
    </g>
   </g>
   <g id="line2d_11">
    <path d="M 134.364545 134.918828 
L 174.318333 185.794772 
L 214.272121 152.735207 
L 254.225909 143.286319 
L 294.179697 157.070424 
L 334.133485 132.434282 
L 374.087273 93.014883 
L 414.041061 149.186765 
L 453.994848 107.775699 
L 493.948636 106.188293 
L 533.902424 102.882767 
L 573.856212 117.810092 
L 613.81 122.873659 
L 653.763788 141.766288 
L 693.717576 180.747989 
L 733.671364 166.399886 
L 773.625152 142.221552 
L 813.578939 164.88706 
L 853.532727 177.482349 
L 893.486515 156.218177 
L 933.440303 140.815838 
L 973.394091 163.187532 
L 1013.347879 177.128606 
L 1053.301667 214.644814 
L 1093.255455 189.500846 
" clip-path="url(#pba9b39eb94)" style="fill: none; stroke: #1f77b4; stroke-width: 1.5; stroke-linecap: square"/>
   </g>
   <g id="line2d_12">
    <path d="M 134.364545 162.542439 
L 174.318333 234.912123 
L 214.272121 248.490532 
L 254.225909 231.125358 
L 294.179697 208.874566 
L 334.133485 191.406428 
L 374.087273 180.304052 
L 414.041061 218.481811 
L 453.994848 160.994886 
L 493.948636 164.875098 
L 533.902424 188.973699 
L 573.856212 214.783166 
L 613.81 218.188214 
L 653.763788 190.403529 
L 693.717576 185.161421 
L 733.671364 218.71584 
L 773.625152 201.721295 
L 813.578939 234.449906 
L 853.532727 214.805746 
L 893.486515 190.41234 
L 933.440303 155.40264 
L 973.394091 192.318783 
L 1013.347879 193.604745 
L 1053.301667 195.777303 
L 1093.255455 205.478278 
" clip-path="url(#pba9b39eb94)" style="fill: none; stroke: #ff7f0e; stroke-width: 1.5; stroke-linecap: square"/>
   </g>
   <g id="line2d_13">
    <path d="M 134.364545 191.386042 
L 174.318333 264.260231 
L 214.272121 275.861841 
L 254.225909 257.797884 
L 294.179697 275.391573 
L 334.133485 230.159062 
L 374.087273 208.280597 
L 414.041061 250.308437 
L 453.994848 216.146604 
L 493.948636 210.801046 
L 533.902424 234.668906 
L 573.856212 273.225736 
L 613.81 251.859334 
L 653.763788 251.673553 
L 693.717576 240.803378 
L 733.671364 264.120702 
L 773.625152 259.931765 
L 813.578939 274.409127 
L 853.532727 290.859105 
L 893.486515 283.023424 
L 933.440303 245.030664 
L 973.394091 255.537306 
L 1013.347879 257.001731 
L 1053.301667 231.066793 
L 1093.255455 281.209885 
" clip-path="url(#pba9b39eb94)" style="fill: none; stroke: #2ca02c; stroke-width: 1.5; stroke-linecap: square"/>
   </g>
   <g id="line2d_14">
    <path d="M 134.364545 256.182991 
L 174.318333 300.046444 
L 214.272121 340.718837 
L 254.225909 319.453739 
L 294.179697 294.050439 
L 334.133485 272.276405 
L 374.087273 214.044322 
L 414.041061 307.303667 
L 453.994848 274.467406 
L 493.948636 262.582367 
L 533.902424 262.84078 
L 573.856212 260.784068 
L 613.81 315.136952 
L 653.763788 310.660995 
L 693.717576 309.540935 
L 733.671364 290.806223 
L 773.625152 280.290351 
L 813.578939 331.562081 
L 853.532727 291.244129 
L 893.486515 322.927231 
L 933.440303 302.733797 
L 973.394091 326.999861 
L 1013.347879 340.453703 
L 1053.301667 386.630227 
L 1093.255455 365.385834 
" clip-path="url(#pba9b39eb94)" style="fill: none; stroke: #d62728; stroke-width: 1.5; stroke-linecap: square"/>
   </g>
   <g id="line2d_15">
    <path d="M 134.364545 284.496177 
L 174.318333 338.647493 
L 214.272121 352.734767 
L 254.225909 324.801821 
L 294.179697 311.11034 
L 334.133485 230.755796 
L 374.087273 295.408073 
L 414.041061 328.596068 
L 453.994848 256.338605 
L 493.948636 298.270319 
L 533.902424 314.116679 
L 573.856212 297.581475 
L 613.81 331.262141 
L 653.763788 301.572785 
L 693.717576 293.346293 
L 733.671364 298.538094 
L 773.625152 289.250795 
L 813.578939 293.798759 
L 853.532727 340.060684 
L 893.486515 331.802355 
L 933.440303 300.369574 
L 973.394091 303.641275 
L 1013.347879 271.434915 
L 1053.301667 349.161435 
L 1093.255455 310.117664 
" clip-path="url(#pba9b39eb94)" style="fill: none; stroke: #9467bd; stroke-width: 1.5; stroke-linecap: square"/>
   </g>
   <g id="line2d_16">
    <path d="M 134.364545 279.687374 
L 174.318333 341.364114 
L 214.272121 323.598018 
L 254.225909 325.803416 
L 294.179697 311.352863 
L 334.133485 288.586602 
L 374.087273 269.179824 
L 414.041061 304.964514 
L 453.994848 298.84083 
L 493.948636 315.386483 
L 533.902424 310.159582 
L 573.856212 331.590117 
L 613.81 343.610348 
L 653.763788 312.513849 
L 693.717576 313.85829 
L 733.671364 334.931006 
L 773.625152 323.906063 
L 813.578939 340.286931 
L 853.532727 355.887594 
L 893.486515 332.515322 
L 933.440303 308.898026 
L 973.394091 322.479115 
L 1013.347879 330.852328 
L 1053.301667 348.835382 
L 1093.255455 344.004109 
" clip-path="url(#pba9b39eb94)" style="fill: none; stroke: #8c564b; stroke-width: 1.5; stroke-linecap: square"/>
   </g>
   <g id="line2d_17">
    <path d="M 134.364545 134.617422 
L 174.318333 187.043461 
L 214.272121 147.250588 
L 254.225909 141.449897 
L 294.179697 156.685463 
L 334.133485 130.361225 
L 374.087273 96.711482 
L 414.041061 146.868876 
L 453.994848 104.870944 
L 493.948636 109.622314 
L 533.902424 100.70632 
L 573.856212 108.439673 
L 613.81 120.089372 
L 653.763788 138.78472 
L 693.717576 171.461432 
L 733.671364 169.990694 
L 773.625152 147.336182 
L 813.578939 161.628045 
L 853.532727 170.77566 
L 893.486515 153.600846 
L 933.440303 140.398894 
L 973.394091 159.935103 
L 1013.347879 179.609802 
L 1053.301667 213.798196 
L 1093.255455 189.230407 
" clip-path="url(#pba9b39eb94)" style="fill: none; stroke: #e377c2; stroke-width: 1.5; stroke-linecap: square"/>
   </g>
   <g id="line2d_18">
    <path d="M 134.364545 327.688693 
L 174.318333 402.092083 
L 214.272121 380.450854 
L 254.225909 370.179198 
L 294.179697 379.525147 
L 334.133485 366.992397 
L 374.087273 343.059511 
L 414.041061 385.94748 
L 453.994848 345.299092 
L 493.948636 345.554243 
L 533.902424 387.446818 
L 573.856212 413.564032 
L 613.81 373.445276 
L 653.763788 378.10548 
L 693.717576 369.81878 
L 733.671364 399.422366 
L 773.625152 382.824791 
L 813.578939 416.318853 
L 853.532727 396.824514 
L 893.486515 415.178898 
L 933.440303 364.827232 
L 973.394091 379.110424 
L 1013.347879 372.593407 
L 1053.301667 365.135596 
L 1093.255455 392.923235 
" clip-path="url(#pba9b39eb94)" style="fill: none; stroke: #7f7f7f; stroke-width: 1.5; stroke-linecap: square"/>
   </g>
   <g id="line2d_19"/>
   <g id="line2d_20"/>
   <g id="line2d_21"/>
   <g id="line2d_22"/>
   <g id="line2d_23"/>
   <g id="line2d_24"/>
   <g id="line2d_25"/>
   <g id="line2d_26"/>
   <g id="patch_3">
    <path d="M 86.42 489.832 
L 86.42 10.8 
" style="fill: none; stroke: #000000; stroke-width: 0.8; stroke-linejoin: miter; stroke-linecap: square"/>
   </g>
   <g id="patch_4">
    <path d="M 1141.2 489.832 
L 1141.2 10.8 
" style="fill: none; stroke: #000000; stroke-width: 0.8; stroke-linejoin: miter; stroke-linecap: square"/>
   </g>
   <g id="patch_5">
    <path d="M 86.42 489.832 
L 1141.2 489.832 
" style="fill: none; stroke: #000000; stroke-width: 0.8; stroke-linejoin: miter; stroke-linecap: square"/>
   </g>
   <g id="patch_6">
    <path d="M 86.42 10.8 
L 1141.2 10.8 
" style="fill: none; stroke: #000000; stroke-width: 0.8; stroke-linejoin: miter; stroke-linecap: square"/>
   </g>
   <g id="legend_1">
    <g id="patch_7">
     <path d="M 97.62 481.832 
L 293.8575 481.832 
Q 297.0575 481.832 297.0575 478.632 
L 297.0575 290.572 
Q 297.0575 287.372 293.8575 287.372 
L 97.62 287.372 
Q 94.42 287.372 94.42 290.572 
L 94.42 478.632 
Q 94.42 481.832 97.62 481.832 
z
" style="fill: #ffffff; opacity: 0.8; stroke: #cccccc; stroke-linejoin: miter"/>
    </g>
    <g id="line2d_27">
     <path d="M 100.82 300.3295 
L 116.82 300.3295 
L 132.82 300.3295 
" style="fill: none; stroke: #1f77b4; stroke-width: 1.5; stroke-linecap: square"/>
    </g>
    <g id="text_13">
     <!-- BayesianRidge -->
     <g transform="translate(145.62 305.9295) scale(0.16 -0.16)">
      <defs>
       <path id="DejaVuSans-42" d="M 1259 2228 
L 1259 519 
L 2272 519 
Q 2781 519 3026 730 
Q 3272 941 3272 1375 
Q 3272 1813 3026 2020 
Q 2781 2228 2272 2228 
L 1259 2228 
z
M 1259 4147 
L 1259 2741 
L 2194 2741 
Q 2656 2741 2882 2914 
Q 3109 3088 3109 3444 
Q 3109 3797 2882 3972 
Q 2656 4147 2194 4147 
L 1259 4147 
z
M 628 4666 
L 2241 4666 
Q 2963 4666 3353 4366 
Q 3744 4066 3744 3513 
Q 3744 3084 3544 2831 
Q 3344 2578 2956 2516 
Q 3422 2416 3680 2098 
Q 3938 1781 3938 1306 
Q 3938 681 3513 340 
Q 3088 0 2303 0 
L 628 0 
L 628 4666 
z
" transform="scale(0.015625)"/>
       <path id="DejaVuSans-79" d="M 2059 -325 
Q 1816 -950 1584 -1140 
Q 1353 -1331 966 -1331 
L 506 -1331 
L 506 -850 
L 844 -850 
Q 1081 -850 1212 -737 
Q 1344 -625 1503 -206 
L 1606 56 
L 191 3500 
L 800 3500 
L 1894 763 
L 2988 3500 
L 3597 3500 
L 2059 -325 
z
" transform="scale(0.015625)"/>
       <path id="DejaVuSans-52" d="M 2841 2188 
Q 3044 2119 3236 1894 
Q 3428 1669 3622 1275 
L 4263 0 
L 3584 0 
L 2988 1197 
Q 2756 1666 2539 1819 
Q 2322 1972 1947 1972 
L 1259 1972 
L 1259 0 
L 628 0 
L 628 4666 
L 2053 4666 
Q 2853 4666 3247 4331 
Q 3641 3997 3641 3322 
Q 3641 2881 3436 2590 
Q 3231 2300 2841 2188 
z
M 1259 4147 
L 1259 2491 
L 2053 2491 
Q 2509 2491 2742 2702 
Q 2975 2913 2975 3322 
Q 2975 3731 2742 3939 
Q 2509 4147 2053 4147 
L 1259 4147 
z
" transform="scale(0.015625)"/>
      </defs>
      <use xlink:href="#DejaVuSans-42"/>
      <use xlink:href="#DejaVuSans-61" x="68.603516"/>
      <use xlink:href="#DejaVuSans-79" x="129.882812"/>
      <use xlink:href="#DejaVuSans-65" x="189.0625"/>
      <use xlink:href="#DejaVuSans-73" x="250.585938"/>
      <use xlink:href="#DejaVuSans-69" x="302.685547"/>
      <use xlink:href="#DejaVuSans-61" x="330.46875"/>
      <use xlink:href="#DejaVuSans-6e" x="391.748047"/>
      <use xlink:href="#DejaVuSans-52" x="455.126953"/>
      <use xlink:href="#DejaVuSans-69" x="524.609375"/>
      <use xlink:href="#DejaVuSans-64" x="552.392578"/>
      <use xlink:href="#DejaVuSans-67" x="615.869141"/>
      <use xlink:href="#DejaVuSans-65" x="679.345703"/>
     </g>
    </g>
    <g id="line2d_28">
     <path d="M 100.82 323.8145 
L 116.82 323.8145 
L 132.82 323.8145 
" style="fill: none; stroke: #ff7f0e; stroke-width: 1.5; stroke-linecap: square"/>
    </g>
    <g id="text_14">
     <!-- rf -->
     <g transform="translate(145.62 329.4145) scale(0.16 -0.16)">
      <defs>
       <path id="DejaVuSans-66" d="M 2375 4863 
L 2375 4384 
L 1825 4384 
Q 1516 4384 1395 4259 
Q 1275 4134 1275 3809 
L 1275 3500 
L 2222 3500 
L 2222 3053 
L 1275 3053 
L 1275 0 
L 697 0 
L 697 3053 
L 147 3053 
L 147 3500 
L 697 3500 
L 697 3744 
Q 697 4328 969 4595 
Q 1241 4863 1831 4863 
L 2375 4863 
z
" transform="scale(0.015625)"/>
      </defs>
      <use xlink:href="#DejaVuSans-72"/>
      <use xlink:href="#DejaVuSans-66" x="41.113281"/>
     </g>
    </g>
    <g id="line2d_29">
     <path d="M 100.82 347.2995 
L 116.82 347.2995 
L 132.82 347.2995 
" style="fill: none; stroke: #2ca02c; stroke-width: 1.5; stroke-linecap: square"/>
    </g>
    <g id="text_15">
     <!-- gbr -->
     <g transform="translate(145.62 352.8995) scale(0.16 -0.16)">
      <defs>
       <path id="DejaVuSans-62" d="M 3116 1747 
Q 3116 2381 2855 2742 
Q 2594 3103 2138 3103 
Q 1681 3103 1420 2742 
Q 1159 2381 1159 1747 
Q 1159 1113 1420 752 
Q 1681 391 2138 391 
Q 2594 391 2855 752 
Q 3116 1113 3116 1747 
z
M 1159 2969 
Q 1341 3281 1617 3432 
Q 1894 3584 2278 3584 
Q 2916 3584 3314 3078 
Q 3713 2572 3713 1747 
Q 3713 922 3314 415 
Q 2916 -91 2278 -91 
Q 1894 -91 1617 61 
Q 1341 213 1159 525 
L 1159 0 
L 581 0 
L 581 4863 
L 1159 4863 
L 1159 2969 
z
" transform="scale(0.015625)"/>
      </defs>
      <use xlink:href="#DejaVuSans-67"/>
      <use xlink:href="#DejaVuSans-62" x="63.476562"/>
      <use xlink:href="#DejaVuSans-72" x="126.953125"/>
     </g>
    </g>
    <g id="line2d_30">
     <path d="M 100.82 370.7845 
L 116.82 370.7845 
L 132.82 370.7845 
" style="fill: none; stroke: #d62728; stroke-width: 1.5; stroke-linecap: square"/>
    </g>
    <g id="text_16">
     <!-- xgb -->
     <g transform="translate(145.62 376.3845) scale(0.16 -0.16)">
      <use xlink:href="#DejaVuSans-78"/>
      <use xlink:href="#DejaVuSans-67" x="59.179688"/>
      <use xlink:href="#DejaVuSans-62" x="122.65625"/>
     </g>
    </g>
    <g id="line2d_31">
     <path d="M 100.82 394.2695 
L 116.82 394.2695 
L 132.82 394.2695 
" style="fill: none; stroke: #9467bd; stroke-width: 1.5; stroke-linecap: square"/>
    </g>
    <g id="text_17">
     <!-- gbr_gs -->
     <g transform="translate(145.62 399.8695) scale(0.16 -0.16)">
      <use xlink:href="#DejaVuSans-67"/>
      <use xlink:href="#DejaVuSans-62" x="63.476562"/>
      <use xlink:href="#DejaVuSans-72" x="126.953125"/>
      <use xlink:href="#DejaVuSans-5f" x="168.066406"/>
      <use xlink:href="#DejaVuSans-67" x="218.066406"/>
      <use xlink:href="#DejaVuSans-73" x="281.542969"/>
     </g>
    </g>
    <g id="line2d_32">
     <path d="M 100.82 418.1995 
L 116.82 418.1995 
L 132.82 418.1995 
" style="fill: none; stroke: #8c564b; stroke-width: 1.5; stroke-linecap: square"/>
    </g>
    <g id="text_18">
     <!-- rf_gs -->
     <g transform="translate(145.62 423.7995) scale(0.16 -0.16)">
      <use xlink:href="#DejaVuSans-72"/>
      <use xlink:href="#DejaVuSans-66" x="41.113281"/>
      <use xlink:href="#DejaVuSans-5f" x="76.318359"/>
      <use xlink:href="#DejaVuSans-67" x="126.318359"/>
      <use xlink:href="#DejaVuSans-73" x="189.794922"/>
     </g>
    </g>
    <g id="line2d_33">
     <path d="M 100.82 442.1295 
L 116.82 442.1295 
L 132.82 442.1295 
" style="fill: none; stroke: #e377c2; stroke-width: 1.5; stroke-linecap: square"/>
    </g>
    <g id="text_19">
     <!-- BayesianRidge_gs -->
     <g transform="translate(145.62 447.7295) scale(0.16 -0.16)">
      <use xlink:href="#DejaVuSans-42"/>
      <use xlink:href="#DejaVuSans-61" x="68.603516"/>
      <use xlink:href="#DejaVuSans-79" x="129.882812"/>
      <use xlink:href="#DejaVuSans-65" x="189.0625"/>
      <use xlink:href="#DejaVuSans-73" x="250.585938"/>
      <use xlink:href="#DejaVuSans-69" x="302.685547"/>
      <use xlink:href="#DejaVuSans-61" x="330.46875"/>
      <use xlink:href="#DejaVuSans-6e" x="391.748047"/>
      <use xlink:href="#DejaVuSans-52" x="455.126953"/>
      <use xlink:href="#DejaVuSans-69" x="524.609375"/>
      <use xlink:href="#DejaVuSans-64" x="552.392578"/>
      <use xlink:href="#DejaVuSans-67" x="615.869141"/>
      <use xlink:href="#DejaVuSans-65" x="679.345703"/>
      <use xlink:href="#DejaVuSans-5f" x="740.869141"/>
      <use xlink:href="#DejaVuSans-67" x="790.869141"/>
      <use xlink:href="#DejaVuSans-73" x="854.345703"/>
     </g>
    </g>
    <g id="line2d_34">
     <path d="M 100.82 466.0595 
L 116.82 466.0595 
L 132.82 466.0595 
" style="fill: none; stroke: #7f7f7f; stroke-width: 1.5; stroke-linecap: square"/>
    </g>
    <g id="text_20">
     <!-- xgb_gs -->
     <g transform="translate(145.62 471.6595) scale(0.16 -0.16)">
      <use xlink:href="#DejaVuSans-78"/>
      <use xlink:href="#DejaVuSans-67" x="59.179688"/>
      <use xlink:href="#DejaVuSans-62" x="122.65625"/>
      <use xlink:href="#DejaVuSans-5f" x="186.132812"/>
      <use xlink:href="#DejaVuSans-67" x="236.132812"/>
      <use xlink:href="#DejaVuSans-73" x="299.609375"/>
     </g>
    </g>
   </g>
  </g>
 </g>
 <defs>
  <clipPath id="pba9b39eb94">
   <rect x="86.42" y="10.8" width="1054.78" height="479.032"/>
  </clipPath>
 </defs>
</svg>
