<?xml version="1.0" encoding="utf-8" standalone="no"?>
<!DOCTYPE svg PUBLIC "-//W3C//DTD SVG 1.1//EN"
  "http://www.w3.org/Graphics/SVG/1.1/DTD/svg11.dtd">
<svg xmlns:xlink="http://www.w3.org/1999/xlink" width="1152pt" height="576pt" viewBox="0 0 1152 576" xmlns="http://www.w3.org/2000/svg" version="1.1">
 <metadata>
  <rdf:RDF xmlns:dc="http://purl.org/dc/elements/1.1/" xmlns:cc="http://creativecommons.org/ns#" xmlns:rdf="http://www.w3.org/1999/02/22-rdf-syntax-ns#">
   <cc:Work>
    <dc:type rdf:resource="http://purl.org/dc/dcmitype/StillImage"/>
    <dc:date>2025-05-09T17:30:01.279606</dc:date>
    <dc:format>image/svg+xml</dc:format>
    <dc:creator>
     <cc:Agent>
      <dc:title>Matplotlib v3.7.1, https://matplotlib.org/</dc:title>
     </cc:Agent>
    </dc:creator>
   </cc:Work>
  </rdf:RDF>
 </metadata>
 <defs>
  <style type="text/css">*{stroke-linejoin: round; stroke-linecap: butt}</style>
 </defs>
 <g id="figure_1">
  <g id="patch_1">
   <path d="M 0 576 
L 1152 576 
L 1152 0 
L 0 0 
z
" style="fill: #ffffff"/>
  </g>
  <g id="axes_1">
   <g id="patch_2">
    <path d="M 67.34 489.832 
L 1141.2 489.832 
L 1141.2 10.8 
L 67.34 10.8 
z
" style="fill: #ffffff"/>
   </g>
   <g id="PolyCollection_1">
    <defs>
     <path id="m819f00474e" d="M 116.151818 -138.501806 
L 116.151818 -126.036467 
L 156.828333 -136.910568 
L 197.504848 -153.570261 
L 238.181364 -170.363778 
L 278.857879 -190.309074 
L 319.534394 -212.093814 
L 360.210909 -240.228889 
L 400.887424 -264.370194 
L 441.563939 -278.407287 
L 482.240455 -281.119955 
L 522.91697 -282.336219 
L 563.593485 -309.261427 
L 604.27 -347.611161 
L 644.946515 -353.755229 
L 685.62303 -385.175115 
L 726.299545 -390.896608 
L 766.976061 -368.599278 
L 807.652576 -393.784438 
L 848.329091 -406.728467 
L 889.005606 -389.465863 
L 929.682121 -379.709578 
L 970.358636 -379.709578 
L 1011.035152 -367.341358 
L 1051.711667 -370.785957 
L 1092.388182 -361.565453 
L 1092.388182 -464.181827 
L 1092.388182 -464.181827 
L 1051.711667 -460.67175 
L 1011.035152 -460.67175 
L 970.358636 -440.546677 
L 929.682121 -502.665725 
L 889.005606 -464.209395 
L 848.329091 -479.245407 
L 807.652576 -514.966264 
L 766.976061 -449.113479 
L 726.299545 -445.540932 
L 685.62303 -438.101232 
L 644.946515 -425.353999 
L 604.27 -375.205568 
L 563.593485 -349.101894 
L 522.91697 -349.35277 
L 482.240455 -372.87602 
L 441.563939 -376.828294 
L 400.887424 -311.198034 
L 360.210909 -302.550386 
L 319.534394 -267.648404 
L 278.857879 -216.196044 
L 238.181364 -197.942168 
L 197.504848 -185.04534 
L 156.828333 -151.867092 
L 116.151818 -138.501806 
z
" style="stroke: #1f77b4; stroke-opacity: 0.2"/>
    </defs>
    <g clip-path="url(#p50234b3541)">
     <use xlink:href="#m819f00474e" x="0" y="576" style="fill: #1f77b4; fill-opacity: 0.2; stroke: #1f77b4; stroke-opacity: 0.2"/>
    </g>
   </g>
   <g id="PolyCollection_2">
    <defs>
     <path id="m3ebd8fbb45" d="M 116.151818 -128.601977 
L 116.151818 -118.145417 
L 156.828333 -128.496498 
L 197.504848 -144.540049 
L 238.181364 -167.089237 
L 278.857879 -193.216798 
L 319.534394 -228.270455 
L 360.210909 -223.285534 
L 400.887424 -246.144925 
L 441.563939 -261.805745 
L 482.240455 -253.749245 
L 522.91697 -270.436722 
L 563.593485 -283.813849 
L 604.27 -335.634188 
L 644.946515 -349.635873 
L 685.62303 -375.590923 
L 726.299545 -352.933713 
L 766.976061 -359.743407 
L 807.652576 -380.480141 
L 848.329091 -373.986667 
L 889.005606 -435.591394 
L 929.682121 -460.361469 
L 970.358636 -443.571352 
L 1011.035152 -400.520367 
L 1051.711667 -370.860635 
L 1092.388182 -364.38315 
L 1092.388182 -473.05603 
L 1092.388182 -473.05603 
L 1051.711667 -463.07582 
L 1011.035152 -463.07582 
L 970.358636 -461.148453 
L 929.682121 -461.148453 
L 889.005606 -464.813033 
L 848.329091 -425.981463 
L 807.652576 -401.621921 
L 766.976061 -416.016346 
L 726.299545 -419.061629 
L 685.62303 -418.80725 
L 644.946515 -418.054807 
L 604.27 -390.170627 
L 563.593485 -386.495647 
L 522.91697 -393.415839 
L 482.240455 -379.052769 
L 441.563939 -373.766787 
L 400.887424 -330.537015 
L 360.210909 -318.131746 
L 319.534394 -286.135619 
L 278.857879 -263.309539 
L 238.181364 -212.648865 
L 197.504848 -191.101885 
L 156.828333 -140.146131 
L 116.151818 -128.601977 
z
" style="stroke: #ff7f0e; stroke-opacity: 0.2"/>
    </defs>
    <g clip-path="url(#p50234b3541)">
     <use xlink:href="#m3ebd8fbb45" x="0" y="576" style="fill: #ff7f0e; fill-opacity: 0.2; stroke: #ff7f0e; stroke-opacity: 0.2"/>
    </g>
   </g>
   <g id="PolyCollection_3">
    <defs>
     <path id="m1b0bc0205a" d="M 116.151818 -153.65344 
L 116.151818 -137.771305 
L 156.828333 -150.194045 
L 197.504848 -152.840266 
L 238.181364 -174.28659 
L 278.857879 -194.932611 
L 319.534394 -204.714892 
L 360.210909 -223.96851 
L 400.887424 -240.680488 
L 441.563939 -246.051368 
L 482.240455 -251.467032 
L 522.91697 -265.794812 
L 563.593485 -284.610559 
L 604.27 -302.721813 
L 644.946515 -305.679807 
L 685.62303 -338.092616 
L 726.299545 -339.148746 
L 766.976061 -346.33836 
L 807.652576 -360.933586 
L 848.329091 -368.286353 
L 889.005606 -344.656518 
L 929.682121 -345.739656 
L 970.358636 -345.739656 
L 1011.035152 -332.645213 
L 1051.711667 -320.372353 
L 1092.388182 -322.989979 
L 1092.388182 -407.848426 
L 1092.388182 -407.848426 
L 1051.711667 -419.446635 
L 1011.035152 -419.446635 
L 970.358636 -392.107493 
L 929.682121 -411.010033 
L 889.005606 -413.053898 
L 848.329091 -411.247511 
L 807.652576 -449.998286 
L 766.976061 -401.105248 
L 726.299545 -407.043036 
L 685.62303 -361.163028 
L 644.946515 -348.388507 
L 604.27 -350.586969 
L 563.593485 -323.949827 
L 522.91697 -335.106369 
L 482.240455 -326.685142 
L 441.563939 -326.02987 
L 400.887424 -304.769291 
L 360.210909 -272.363735 
L 319.534394 -238.285714 
L 278.857879 -233.860093 
L 238.181364 -211.564354 
L 197.504848 -189.961435 
L 156.828333 -161.616637 
L 116.151818 -153.65344 
z
" style="stroke: #2ca02c; stroke-opacity: 0.2"/>
    </defs>
    <g clip-path="url(#p50234b3541)">
     <use xlink:href="#m1b0bc0205a" x="0" y="576" style="fill: #2ca02c; fill-opacity: 0.2; stroke: #2ca02c; stroke-opacity: 0.2"/>
    </g>
   </g>
   <g id="PolyCollection_4">
    <defs>
     <path id="m17bde543a5" d="M 116.151818 -145.740635 
L 116.151818 -137.014195 
L 156.828333 -148.645374 
L 197.504848 -168.421568 
L 238.181364 -195.792851 
L 278.857879 -225.155736 
L 319.534394 -252.894333 
L 360.210909 -277.275432 
L 400.887424 -302.316989 
L 441.563939 -316.648482 
L 482.240455 -315.565687 
L 522.91697 -335.834778 
L 563.593485 -343.895146 
L 604.27 -376.589277 
L 644.946515 -402.72603 
L 685.62303 -421.121746 
L 726.299545 -380.948068 
L 766.976061 -387.074957 
L 807.652576 -407.118331 
L 848.329091 -418.619341 
L 889.005606 -423.901585 
L 929.682121 -427.993961 
L 970.358636 -427.993961 
L 1011.035152 -428.573888 
L 1051.711667 -438.656813 
L 1092.388182 -441.334909 
L 1092.388182 -481.693369 
L 1092.388182 -481.693369 
L 1051.711667 -473.728079 
L 1011.035152 -473.728079 
L 970.358636 -500.69784 
L 929.682121 -543.425818 
L 889.005606 -501.473528 
L 848.329091 -478.158113 
L 807.652576 -490.343435 
L 766.976061 -461.852968 
L 726.299545 -445.829345 
L 685.62303 -486.682645 
L 644.946515 -466.7457 
L 604.27 -437.231627 
L 563.593485 -403.512682 
L 522.91697 -429.948779 
L 482.240455 -411.761846 
L 441.563939 -413.339784 
L 400.887424 -365.959423 
L 360.210909 -343.259534 
L 319.534394 -307.995205 
L 278.857879 -274.74922 
L 238.181364 -236.665361 
L 197.504848 -209.76797 
L 156.828333 -165.419706 
L 116.151818 -145.740635 
z
" style="stroke: #d62728; stroke-opacity: 0.2"/>
    </defs>
    <g clip-path="url(#p50234b3541)">
     <use xlink:href="#m17bde543a5" x="0" y="576" style="fill: #d62728; fill-opacity: 0.2; stroke: #d62728; stroke-opacity: 0.2"/>
    </g>
   </g>
   <g id="PolyCollection_5">
    <defs>
     <path id="m813fef4006" d="M 116.151818 -119.782345 
L 116.151818 -107.942182 
L 156.828333 -120.309434 
L 197.504848 -141.144007 
L 238.181364 -155.487022 
L 278.857879 -181.266551 
L 319.534394 -199.677202 
L 360.210909 -227.701564 
L 400.887424 -252.116597 
L 441.563939 -258.651887 
L 482.240455 -271.54667 
L 522.91697 -266.852217 
L 563.593485 -302.543723 
L 604.27 -328.094605 
L 644.946515 -349.406608 
L 685.62303 -384.366394 
L 726.299545 -375.909838 
L 766.976061 -344.025197 
L 807.652576 -381.170893 
L 848.329091 -415.785429 
L 889.005606 -387.798291 
L 929.682121 -397.215309 
L 970.358636 -397.215309 
L 1011.035152 -376.971874 
L 1051.711667 -371.53102 
L 1092.388182 -368.663548 
L 1092.388182 -459.370387 
L 1092.388182 -459.370387 
L 1051.711667 -445.51619 
L 1011.035152 -445.51619 
L 970.358636 -425.662372 
L 929.682121 -497.398132 
L 889.005606 -469.684756 
L 848.329091 -479.620988 
L 807.652576 -532.367339 
L 766.976061 -472.0379 
L 726.299545 -456.626385 
L 685.62303 -441.9724 
L 644.946515 -413.815774 
L 604.27 -364.468864 
L 563.593485 -340.883625 
L 522.91697 -326.970925 
L 482.240455 -363.336563 
L 441.563939 -355.303659 
L 400.887424 -303.738471 
L 360.210909 -295.824296 
L 319.534394 -267.752756 
L 278.857879 -219.045897 
L 238.181364 -189.852292 
L 197.504848 -173.249112 
L 156.828333 -137.811026 
L 116.151818 -119.782345 
z
" style="stroke: #9467bd; stroke-opacity: 0.2"/>
    </defs>
    <g clip-path="url(#p50234b3541)">
     <use xlink:href="#m813fef4006" x="0" y="576" style="fill: #9467bd; fill-opacity: 0.2; stroke: #9467bd; stroke-opacity: 0.2"/>
    </g>
   </g>
   <g id="PolyCollection_6">
    <defs>
     <path id="m4f1d63dacf" d="M 116.151818 -125.948972 
L 116.151818 -117.686538 
L 156.828333 -130.336585 
L 197.504848 -146.184194 
L 238.181364 -170.78546 
L 278.857879 -195.476004 
L 319.534394 -210.69038 
L 360.210909 -223.898789 
L 400.887424 -243.661437 
L 441.563939 -245.648634 
L 482.240455 -254.998144 
L 522.91697 -254.582984 
L 563.593485 -269.372364 
L 604.27 -296.970569 
L 644.946515 -309.535385 
L 685.62303 -311.608211 
L 726.299545 -288.766039 
L 766.976061 -297.659583 
L 807.652576 -309.926129 
L 848.329091 -323.026387 
L 889.005606 -313.019923 
L 929.682121 -319.430396 
L 970.358636 -319.430396 
L 1011.035152 -312.280943 
L 1051.711667 -302.127353 
L 1092.388182 -299.998894 
L 1092.388182 -355.15708 
L 1092.388182 -355.15708 
L 1051.711667 -373.583575 
L 1011.035152 -373.583575 
L 970.358636 -360.97333 
L 929.682121 -350.750622 
L 889.005606 -356.633348 
L 848.329091 -364.228342 
L 807.652576 -359.648682 
L 766.976061 -380.800695 
L 726.299545 -370.484532 
L 685.62303 -356.055324 
L 644.946515 -356.986221 
L 604.27 -338.4851 
L 563.593485 -318.410066 
L 522.91697 -342.252332 
L 482.240455 -328.503962 
L 441.563939 -329.172928 
L 400.887424 -290.363939 
L 360.210909 -277.377935 
L 319.534394 -251.348515 
L 278.857879 -226.731538 
L 238.181364 -195.881599 
L 197.504848 -181.043379 
L 156.828333 -145.072845 
L 116.151818 -125.948972 
z
" style="stroke: #8c564b; stroke-opacity: 0.2"/>
    </defs>
    <g clip-path="url(#p50234b3541)">
     <use xlink:href="#m4f1d63dacf" x="0" y="576" style="fill: #8c564b; fill-opacity: 0.2; stroke: #8c564b; stroke-opacity: 0.2"/>
    </g>
   </g>
   <g id="PolyCollection_7">
    <defs>
     <path id="m978d7ada3b" d="M 116.151818 -128.237524 
L 116.151818 -118.540624 
L 156.828333 -134.895363 
L 197.504848 -153.952632 
L 238.181364 -168.697891 
L 278.857879 -187.773397 
L 319.534394 -199.684196 
L 360.210909 -207.859353 
L 400.887424 -222.979623 
L 441.563939 -235.653044 
L 482.240455 -242.147638 
L 522.91697 -248.586721 
L 563.593485 -274.709768 
L 604.27 -287.981011 
L 644.946515 -310.492249 
L 685.62303 -291.542637 
L 726.299545 -286.636801 
L 766.976061 -293.43615 
L 807.652576 -311.053979 
L 848.329091 -342.725051 
L 889.005606 -308.22932 
L 929.682121 -313.108677 
L 970.358636 -313.108677 
L 1011.035152 -336.546847 
L 1051.711667 -288.368455 
L 1092.388182 -286.634121 
L 1092.388182 -379.691195 
L 1092.388182 -379.691195 
L 1051.711667 -361.331104 
L 1011.035152 -361.331104 
L 970.358636 -369.620065 
L 929.682121 -324.155321 
L 889.005606 -373.537254 
L 848.329091 -396.644639 
L 807.652576 -392.614918 
L 766.976061 -377.828294 
L 726.299545 -338.296578 
L 685.62303 -359.524576 
L 644.946515 -377.053683 
L 604.27 -345.939255 
L 563.593485 -316.149208 
L 522.91697 -342.04243 
L 482.240455 -321.942617 
L 441.563939 -340.46957 
L 400.887424 -287.276708 
L 360.210909 -277.11692 
L 319.534394 -244.160483 
L 278.857879 -216.322618 
L 238.181364 -186.495061 
L 197.504848 -185.8244 
L 156.828333 -149.263252 
L 116.151818 -128.237524 
z
" style="stroke: #e377c2; stroke-opacity: 0.2"/>
    </defs>
    <g clip-path="url(#p50234b3541)">
     <use xlink:href="#m978d7ada3b" x="0" y="576" style="fill: #e377c2; fill-opacity: 0.2; stroke: #e377c2; stroke-opacity: 0.2"/>
    </g>
   </g>
   <g id="PolyCollection_8">
    <defs>
     <path id="m6491fcd798" d="M 116.151818 -153.196687 
L 116.151818 -138.501151 
L 156.828333 -150.224361 
L 197.504848 -157.0345 
L 238.181364 -175.943653 
L 278.857879 -194.991435 
L 319.534394 -206.829575 
L 360.210909 -222.582524 
L 400.887424 -242.327954 
L 441.563939 -245.674018 
L 482.240455 -252.673535 
L 522.91697 -261.78704 
L 563.593485 -281.180967 
L 604.27 -302.007426 
L 644.946515 -301.774489 
L 685.62303 -339.940747 
L 726.299545 -340.306356 
L 766.976061 -344.727985 
L 807.652576 -360.740283 
L 848.329091 -373.000729 
L 889.005606 -348.785975 
L 929.682121 -348.757538 
L 970.358636 -348.757538 
L 1011.035152 -332.518436 
L 1051.711667 -318.709312 
L 1092.388182 -320.739084 
L 1092.388182 -408.736516 
L 1092.388182 -408.736516 
L 1051.711667 -418.110445 
L 1011.035152 -418.110445 
L 970.358636 -391.96226 
L 929.682121 -412.059649 
L 889.005606 -412.076226 
L 848.329091 -409.183552 
L 807.652576 -447.227165 
L 766.976061 -398.200608 
L 726.299545 -405.994548 
L 685.62303 -362.591752 
L 644.946515 -346.466265 
L 604.27 -352.098015 
L 563.593485 -322.07312 
L 522.91697 -330.585511 
L 482.240455 -316.716042 
L 441.563939 -325.88646 
L 400.887424 -303.707206 
L 360.210909 -272.709901 
L 319.534394 -238.116193 
L 278.857879 -238.129152 
L 238.181364 -214.884398 
L 197.504848 -191.277557 
L 156.828333 -161.375084 
L 116.151818 -153.196687 
z
" style="stroke: #7f7f7f; stroke-opacity: 0.2"/>
    </defs>
    <g clip-path="url(#p50234b3541)">
     <use xlink:href="#m6491fcd798" x="0" y="576" style="fill: #7f7f7f; fill-opacity: 0.2; stroke: #7f7f7f; stroke-opacity: 0.2"/>
    </g>
   </g>
   <g id="matplotlib.axis_1">
    <g id="xtick_1">
     <g id="line2d_1">
      <defs>
       <path id="m5d706feee9" d="M 0 0 
L 0 3.5 
" style="stroke: #000000; stroke-width: 0.8"/>
      </defs>
      <g>
       <use xlink:href="#m5d706feee9" x="95.813561" y="489.832" style="stroke: #000000; stroke-width: 0.8"/>
      </g>
     </g>
     <g id="text_1">
      <!-- 0 -->
      <g transform="translate(89.451061 512.028875) scale(0.2 -0.2)">
       <defs>
        <path id="DejaVuSans-30" d="M 2034 4250 
Q 1547 4250 1301 3770 
Q 1056 3291 1056 2328 
Q 1056 1369 1301 889 
Q 1547 409 2034 409 
Q 2525 409 2770 889 
Q 3016 1369 3016 2328 
Q 3016 3291 2770 3770 
Q 2525 4250 2034 4250 
z
M 2034 4750 
Q 2819 4750 3233 4129 
Q 3647 3509 3647 2328 
Q 3647 1150 3233 529 
Q 2819 -91 2034 -91 
Q 1250 -91 836 529 
Q 422 1150 422 2328 
Q 422 3509 836 4129 
Q 1250 4750 2034 4750 
z
" transform="scale(0.015625)"/>
       </defs>
       <use xlink:href="#DejaVuSans-30"/>
      </g>
     </g>
    </g>
    <g id="xtick_2">
     <g id="line2d_2">
      <g>
       <use xlink:href="#m5d706feee9" x="299.196136" y="489.832" style="stroke: #000000; stroke-width: 0.8"/>
      </g>
     </g>
     <g id="text_2">
      <!-- 10 -->
      <g transform="translate(286.471136 512.028875) scale(0.2 -0.2)">
       <defs>
        <path id="DejaVuSans-31" d="M 794 531 
L 1825 531 
L 1825 4091 
L 703 3866 
L 703 4441 
L 1819 4666 
L 2450 4666 
L 2450 531 
L 3481 531 
L 3481 0 
L 794 0 
L 794 531 
z
" transform="scale(0.015625)"/>
       </defs>
       <use xlink:href="#DejaVuSans-31"/>
       <use xlink:href="#DejaVuSans-30" x="63.623047"/>
      </g>
     </g>
    </g>
    <g id="xtick_3">
     <g id="line2d_3">
      <g>
       <use xlink:href="#m5d706feee9" x="502.578712" y="489.832" style="stroke: #000000; stroke-width: 0.8"/>
      </g>
     </g>
     <g id="text_3">
      <!-- 20 -->
      <g transform="translate(489.853712 512.028875) scale(0.2 -0.2)">
       <defs>
        <path id="DejaVuSans-32" d="M 1228 531 
L 3431 531 
L 3431 0 
L 469 0 
L 469 531 
Q 828 903 1448 1529 
Q 2069 2156 2228 2338 
Q 2531 2678 2651 2914 
Q 2772 3150 2772 3378 
Q 2772 3750 2511 3984 
Q 2250 4219 1831 4219 
Q 1534 4219 1204 4116 
Q 875 4013 500 3803 
L 500 4441 
Q 881 4594 1212 4672 
Q 1544 4750 1819 4750 
Q 2544 4750 2975 4387 
Q 3406 4025 3406 3419 
Q 3406 3131 3298 2873 
Q 3191 2616 2906 2266 
Q 2828 2175 2409 1742 
Q 1991 1309 1228 531 
z
" transform="scale(0.015625)"/>
       </defs>
       <use xlink:href="#DejaVuSans-32"/>
       <use xlink:href="#DejaVuSans-30" x="63.623047"/>
      </g>
     </g>
    </g>
    <g id="xtick_4">
     <g id="line2d_4">
      <g>
       <use xlink:href="#m5d706feee9" x="705.961288" y="489.832" style="stroke: #000000; stroke-width: 0.8"/>
      </g>
     </g>
     <g id="text_4">
      <!-- 30 -->
      <g transform="translate(693.236288 512.028875) scale(0.2 -0.2)">
       <defs>
        <path id="DejaVuSans-33" d="M 2597 2516 
Q 3050 2419 3304 2112 
Q 3559 1806 3559 1356 
Q 3559 666 3084 287 
Q 2609 -91 1734 -91 
Q 1441 -91 1130 -33 
Q 819 25 488 141 
L 488 750 
Q 750 597 1062 519 
Q 1375 441 1716 441 
Q 2309 441 2620 675 
Q 2931 909 2931 1356 
Q 2931 1769 2642 2001 
Q 2353 2234 1838 2234 
L 1294 2234 
L 1294 2753 
L 1863 2753 
Q 2328 2753 2575 2939 
Q 2822 3125 2822 3475 
Q 2822 3834 2567 4026 
Q 2313 4219 1838 4219 
Q 1578 4219 1281 4162 
Q 984 4106 628 3988 
L 628 4550 
Q 988 4650 1302 4700 
Q 1616 4750 1894 4750 
Q 2613 4750 3031 4423 
Q 3450 4097 3450 3541 
Q 3450 3153 3228 2886 
Q 3006 2619 2597 2516 
z
" transform="scale(0.015625)"/>
       </defs>
       <use xlink:href="#DejaVuSans-33"/>
       <use xlink:href="#DejaVuSans-30" x="63.623047"/>
      </g>
     </g>
    </g>
    <g id="xtick_5">
     <g id="line2d_5">
      <g>
       <use xlink:href="#m5d706feee9" x="909.343864" y="489.832" style="stroke: #000000; stroke-width: 0.8"/>
      </g>
     </g>
     <g id="text_5">
      <!-- 40 -->
      <g transform="translate(896.618864 512.028875) scale(0.2 -0.2)">
       <defs>
        <path id="DejaVuSans-34" d="M 2419 4116 
L 825 1625 
L 2419 1625 
L 2419 4116 
z
M 2253 4666 
L 3047 4666 
L 3047 1625 
L 3713 1625 
L 3713 1100 
L 3047 1100 
L 3047 0 
L 2419 0 
L 2419 1100 
L 313 1100 
L 313 1709 
L 2253 4666 
z
" transform="scale(0.015625)"/>
       </defs>
       <use xlink:href="#DejaVuSans-34"/>
       <use xlink:href="#DejaVuSans-30" x="63.623047"/>
      </g>
     </g>
    </g>
    <g id="xtick_6">
     <g id="line2d_6">
      <g>
       <use xlink:href="#m5d706feee9" x="1112.726439" y="489.832" style="stroke: #000000; stroke-width: 0.8"/>
      </g>
     </g>
     <g id="text_6">
      <!-- 50 -->
      <g transform="translate(1100.001439 512.028875) scale(0.2 -0.2)">
       <defs>
        <path id="DejaVuSans-35" d="M 691 4666 
L 3169 4666 
L 3169 4134 
L 1269 4134 
L 1269 2991 
Q 1406 3038 1543 3061 
Q 1681 3084 1819 3084 
Q 2600 3084 3056 2656 
Q 3513 2228 3513 1497 
Q 3513 744 3044 326 
Q 2575 -91 1722 -91 
Q 1428 -91 1123 -41 
Q 819 9 494 109 
L 494 744 
Q 775 591 1075 516 
Q 1375 441 1709 441 
Q 2250 441 2565 725 
Q 2881 1009 2881 1497 
Q 2881 1984 2565 2268 
Q 2250 2553 1709 2553 
Q 1456 2553 1204 2497 
Q 953 2441 691 2322 
L 691 4666 
z
" transform="scale(0.015625)"/>
       </defs>
       <use xlink:href="#DejaVuSans-35"/>
       <use xlink:href="#DejaVuSans-30" x="63.623047"/>
      </g>
     </g>
    </g>
    <g id="text_7">
     <!-- Percentile Threshold -->
     <g transform="translate(502.490313 535.385125) scale(0.2 -0.2)">
      <defs>
       <path id="DejaVuSans-50" d="M 1259 4147 
L 1259 2394 
L 2053 2394 
Q 2494 2394 2734 2622 
Q 2975 2850 2975 3272 
Q 2975 3691 2734 3919 
Q 2494 4147 2053 4147 
L 1259 4147 
z
M 628 4666 
L 2053 4666 
Q 2838 4666 3239 4311 
Q 3641 3956 3641 3272 
Q 3641 2581 3239 2228 
Q 2838 1875 2053 1875 
L 1259 1875 
L 1259 0 
L 628 0 
L 628 4666 
z
" transform="scale(0.015625)"/>
       <path id="DejaVuSans-65" d="M 3597 1894 
L 3597 1613 
L 953 1613 
Q 991 1019 1311 708 
Q 1631 397 2203 397 
Q 2534 397 2845 478 
Q 3156 559 3463 722 
L 3463 178 
Q 3153 47 2828 -22 
Q 2503 -91 2169 -91 
Q 1331 -91 842 396 
Q 353 884 353 1716 
Q 353 2575 817 3079 
Q 1281 3584 2069 3584 
Q 2775 3584 3186 3129 
Q 3597 2675 3597 1894 
z
M 3022 2063 
Q 3016 2534 2758 2815 
Q 2500 3097 2075 3097 
Q 1594 3097 1305 2825 
Q 1016 2553 972 2059 
L 3022 2063 
z
" transform="scale(0.015625)"/>
       <path id="DejaVuSans-72" d="M 2631 2963 
Q 2534 3019 2420 3045 
Q 2306 3072 2169 3072 
Q 1681 3072 1420 2755 
Q 1159 2438 1159 1844 
L 1159 0 
L 581 0 
L 581 3500 
L 1159 3500 
L 1159 2956 
Q 1341 3275 1631 3429 
Q 1922 3584 2338 3584 
Q 2397 3584 2469 3576 
Q 2541 3569 2628 3553 
L 2631 2963 
z
" transform="scale(0.015625)"/>
       <path id="DejaVuSans-63" d="M 3122 3366 
L 3122 2828 
Q 2878 2963 2633 3030 
Q 2388 3097 2138 3097 
Q 1578 3097 1268 2742 
Q 959 2388 959 1747 
Q 959 1106 1268 751 
Q 1578 397 2138 397 
Q 2388 397 2633 464 
Q 2878 531 3122 666 
L 3122 134 
Q 2881 22 2623 -34 
Q 2366 -91 2075 -91 
Q 1284 -91 818 406 
Q 353 903 353 1747 
Q 353 2603 823 3093 
Q 1294 3584 2113 3584 
Q 2378 3584 2631 3529 
Q 2884 3475 3122 3366 
z
" transform="scale(0.015625)"/>
       <path id="DejaVuSans-6e" d="M 3513 2113 
L 3513 0 
L 2938 0 
L 2938 2094 
Q 2938 2591 2744 2837 
Q 2550 3084 2163 3084 
Q 1697 3084 1428 2787 
Q 1159 2491 1159 1978 
L 1159 0 
L 581 0 
L 581 3500 
L 1159 3500 
L 1159 2956 
Q 1366 3272 1645 3428 
Q 1925 3584 2291 3584 
Q 2894 3584 3203 3211 
Q 3513 2838 3513 2113 
z
" transform="scale(0.015625)"/>
       <path id="DejaVuSans-74" d="M 1172 4494 
L 1172 3500 
L 2356 3500 
L 2356 3053 
L 1172 3053 
L 1172 1153 
Q 1172 725 1289 603 
Q 1406 481 1766 481 
L 2356 481 
L 2356 0 
L 1766 0 
Q 1100 0 847 248 
Q 594 497 594 1153 
L 594 3053 
L 172 3053 
L 172 3500 
L 594 3500 
L 594 4494 
L 1172 4494 
z
" transform="scale(0.015625)"/>
       <path id="DejaVuSans-69" d="M 603 3500 
L 1178 3500 
L 1178 0 
L 603 0 
L 603 3500 
z
M 603 4863 
L 1178 4863 
L 1178 4134 
L 603 4134 
L 603 4863 
z
" transform="scale(0.015625)"/>
       <path id="DejaVuSans-6c" d="M 603 4863 
L 1178 4863 
L 1178 0 
L 603 0 
L 603 4863 
z
" transform="scale(0.015625)"/>
       <path id="DejaVuSans-20" transform="scale(0.015625)"/>
       <path id="DejaVuSans-54" d="M -19 4666 
L 3928 4666 
L 3928 4134 
L 2272 4134 
L 2272 0 
L 1638 0 
L 1638 4134 
L -19 4134 
L -19 4666 
z
" transform="scale(0.015625)"/>
       <path id="DejaVuSans-68" d="M 3513 2113 
L 3513 0 
L 2938 0 
L 2938 2094 
Q 2938 2591 2744 2837 
Q 2550 3084 2163 3084 
Q 1697 3084 1428 2787 
Q 1159 2491 1159 1978 
L 1159 0 
L 581 0 
L 581 4863 
L 1159 4863 
L 1159 2956 
Q 1366 3272 1645 3428 
Q 1925 3584 2291 3584 
Q 2894 3584 3203 3211 
Q 3513 2838 3513 2113 
z
" transform="scale(0.015625)"/>
       <path id="DejaVuSans-73" d="M 2834 3397 
L 2834 2853 
Q 2591 2978 2328 3040 
Q 2066 3103 1784 3103 
Q 1356 3103 1142 2972 
Q 928 2841 928 2578 
Q 928 2378 1081 2264 
Q 1234 2150 1697 2047 
L 1894 2003 
Q 2506 1872 2764 1633 
Q 3022 1394 3022 966 
Q 3022 478 2636 193 
Q 2250 -91 1575 -91 
Q 1294 -91 989 -36 
Q 684 19 347 128 
L 347 722 
Q 666 556 975 473 
Q 1284 391 1588 391 
Q 1994 391 2212 530 
Q 2431 669 2431 922 
Q 2431 1156 2273 1281 
Q 2116 1406 1581 1522 
L 1381 1569 
Q 847 1681 609 1914 
Q 372 2147 372 2553 
Q 372 3047 722 3315 
Q 1072 3584 1716 3584 
Q 2034 3584 2315 3537 
Q 2597 3491 2834 3397 
z
" transform="scale(0.015625)"/>
       <path id="DejaVuSans-6f" d="M 1959 3097 
Q 1497 3097 1228 2736 
Q 959 2375 959 1747 
Q 959 1119 1226 758 
Q 1494 397 1959 397 
Q 2419 397 2687 759 
Q 2956 1122 2956 1747 
Q 2956 2369 2687 2733 
Q 2419 3097 1959 3097 
z
M 1959 3584 
Q 2709 3584 3137 3096 
Q 3566 2609 3566 1747 
Q 3566 888 3137 398 
Q 2709 -91 1959 -91 
Q 1206 -91 779 398 
Q 353 888 353 1747 
Q 353 2609 779 3096 
Q 1206 3584 1959 3584 
z
" transform="scale(0.015625)"/>
       <path id="DejaVuSans-64" d="M 2906 2969 
L 2906 4863 
L 3481 4863 
L 3481 0 
L 2906 0 
L 2906 525 
Q 2725 213 2448 61 
Q 2172 -91 1784 -91 
Q 1150 -91 751 415 
Q 353 922 353 1747 
Q 353 2572 751 3078 
Q 1150 3584 1784 3584 
Q 2172 3584 2448 3432 
Q 2725 3281 2906 2969 
z
M 947 1747 
Q 947 1113 1208 752 
Q 1469 391 1925 391 
Q 2381 391 2643 752 
Q 2906 1113 2906 1747 
Q 2906 2381 2643 2742 
Q 2381 3103 1925 3103 
Q 1469 3103 1208 2742 
Q 947 2381 947 1747 
z
" transform="scale(0.015625)"/>
      </defs>
      <use xlink:href="#DejaVuSans-50"/>
      <use xlink:href="#DejaVuSans-65" x="56.677734"/>
      <use xlink:href="#DejaVuSans-72" x="118.201172"/>
      <use xlink:href="#DejaVuSans-63" x="157.064453"/>
      <use xlink:href="#DejaVuSans-65" x="212.044922"/>
      <use xlink:href="#DejaVuSans-6e" x="273.568359"/>
      <use xlink:href="#DejaVuSans-74" x="336.947266"/>
      <use xlink:href="#DejaVuSans-69" x="376.15625"/>
      <use xlink:href="#DejaVuSans-6c" x="403.939453"/>
      <use xlink:href="#DejaVuSans-65" x="431.722656"/>
      <use xlink:href="#DejaVuSans-20" x="493.246094"/>
      <use xlink:href="#DejaVuSans-54" x="525.033203"/>
      <use xlink:href="#DejaVuSans-68" x="586.117188"/>
      <use xlink:href="#DejaVuSans-72" x="649.496094"/>
      <use xlink:href="#DejaVuSans-65" x="688.359375"/>
      <use xlink:href="#DejaVuSans-73" x="749.882812"/>
      <use xlink:href="#DejaVuSans-68" x="801.982422"/>
      <use xlink:href="#DejaVuSans-6f" x="865.361328"/>
      <use xlink:href="#DejaVuSans-6c" x="926.542969"/>
      <use xlink:href="#DejaVuSans-64" x="954.326172"/>
     </g>
     <!-- (Using "leave_out" Threshold Handling) -->
     <g transform="translate(407.379375 557.78075) scale(0.2 -0.2)">
      <defs>
       <path id="DejaVuSans-28" d="M 1984 4856 
Q 1566 4138 1362 3434 
Q 1159 2731 1159 2009 
Q 1159 1288 1364 580 
Q 1569 -128 1984 -844 
L 1484 -844 
Q 1016 -109 783 600 
Q 550 1309 550 2009 
Q 550 2706 781 3412 
Q 1013 4119 1484 4856 
L 1984 4856 
z
" transform="scale(0.015625)"/>
       <path id="DejaVuSans-55" d="M 556 4666 
L 1191 4666 
L 1191 1831 
Q 1191 1081 1462 751 
Q 1734 422 2344 422 
Q 2950 422 3222 751 
Q 3494 1081 3494 1831 
L 3494 4666 
L 4128 4666 
L 4128 1753 
Q 4128 841 3676 375 
Q 3225 -91 2344 -91 
Q 1459 -91 1007 375 
Q 556 841 556 1753 
L 556 4666 
z
" transform="scale(0.015625)"/>
       <path id="DejaVuSans-67" d="M 2906 1791 
Q 2906 2416 2648 2759 
Q 2391 3103 1925 3103 
Q 1463 3103 1205 2759 
Q 947 2416 947 1791 
Q 947 1169 1205 825 
Q 1463 481 1925 481 
Q 2391 481 2648 825 
Q 2906 1169 2906 1791 
z
M 3481 434 
Q 3481 -459 3084 -895 
Q 2688 -1331 1869 -1331 
Q 1566 -1331 1297 -1286 
Q 1028 -1241 775 -1147 
L 775 -588 
Q 1028 -725 1275 -790 
Q 1522 -856 1778 -856 
Q 2344 -856 2625 -561 
Q 2906 -266 2906 331 
L 2906 616 
Q 2728 306 2450 153 
Q 2172 0 1784 0 
Q 1141 0 747 490 
Q 353 981 353 1791 
Q 353 2603 747 3093 
Q 1141 3584 1784 3584 
Q 2172 3584 2450 3431 
Q 2728 3278 2906 2969 
L 2906 3500 
L 3481 3500 
L 3481 434 
z
" transform="scale(0.015625)"/>
       <path id="DejaVuSans-22" d="M 1147 4666 
L 1147 2931 
L 616 2931 
L 616 4666 
L 1147 4666 
z
M 2328 4666 
L 2328 2931 
L 1797 2931 
L 1797 4666 
L 2328 4666 
z
" transform="scale(0.015625)"/>
       <path id="DejaVuSans-61" d="M 2194 1759 
Q 1497 1759 1228 1600 
Q 959 1441 959 1056 
Q 959 750 1161 570 
Q 1363 391 1709 391 
Q 2188 391 2477 730 
Q 2766 1069 2766 1631 
L 2766 1759 
L 2194 1759 
z
M 3341 1997 
L 3341 0 
L 2766 0 
L 2766 531 
Q 2569 213 2275 61 
Q 1981 -91 1556 -91 
Q 1019 -91 701 211 
Q 384 513 384 1019 
Q 384 1609 779 1909 
Q 1175 2209 1959 2209 
L 2766 2209 
L 2766 2266 
Q 2766 2663 2505 2880 
Q 2244 3097 1772 3097 
Q 1472 3097 1187 3025 
Q 903 2953 641 2809 
L 641 3341 
Q 956 3463 1253 3523 
Q 1550 3584 1831 3584 
Q 2591 3584 2966 3190 
Q 3341 2797 3341 1997 
z
" transform="scale(0.015625)"/>
       <path id="DejaVuSans-76" d="M 191 3500 
L 800 3500 
L 1894 563 
L 2988 3500 
L 3597 3500 
L 2284 0 
L 1503 0 
L 191 3500 
z
" transform="scale(0.015625)"/>
       <path id="DejaVuSans-5f" d="M 3263 -1063 
L 3263 -1509 
L -63 -1509 
L -63 -1063 
L 3263 -1063 
z
" transform="scale(0.015625)"/>
       <path id="DejaVuSans-75" d="M 544 1381 
L 544 3500 
L 1119 3500 
L 1119 1403 
Q 1119 906 1312 657 
Q 1506 409 1894 409 
Q 2359 409 2629 706 
Q 2900 1003 2900 1516 
L 2900 3500 
L 3475 3500 
L 3475 0 
L 2900 0 
L 2900 538 
Q 2691 219 2414 64 
Q 2138 -91 1772 -91 
Q 1169 -91 856 284 
Q 544 659 544 1381 
z
M 1991 3584 
L 1991 3584 
z
" transform="scale(0.015625)"/>
       <path id="DejaVuSans-48" d="M 628 4666 
L 1259 4666 
L 1259 2753 
L 3553 2753 
L 3553 4666 
L 4184 4666 
L 4184 0 
L 3553 0 
L 3553 2222 
L 1259 2222 
L 1259 0 
L 628 0 
L 628 4666 
z
" transform="scale(0.015625)"/>
       <path id="DejaVuSans-29" d="M 513 4856 
L 1013 4856 
Q 1481 4119 1714 3412 
Q 1947 2706 1947 2009 
Q 1947 1309 1714 600 
Q 1481 -109 1013 -844 
L 513 -844 
Q 928 -128 1133 580 
Q 1338 1288 1338 2009 
Q 1338 2731 1133 3434 
Q 928 4138 513 4856 
z
" transform="scale(0.015625)"/>
      </defs>
      <use xlink:href="#DejaVuSans-28"/>
      <use xlink:href="#DejaVuSans-55" x="39.013672"/>
      <use xlink:href="#DejaVuSans-73" x="112.207031"/>
      <use xlink:href="#DejaVuSans-69" x="164.306641"/>
      <use xlink:href="#DejaVuSans-6e" x="192.089844"/>
      <use xlink:href="#DejaVuSans-67" x="255.46875"/>
      <use xlink:href="#DejaVuSans-20" x="318.945312"/>
      <use xlink:href="#DejaVuSans-22" x="350.732422"/>
      <use xlink:href="#DejaVuSans-6c" x="396.728516"/>
      <use xlink:href="#DejaVuSans-65" x="424.511719"/>
      <use xlink:href="#DejaVuSans-61" x="486.035156"/>
      <use xlink:href="#DejaVuSans-76" x="547.314453"/>
      <use xlink:href="#DejaVuSans-65" x="606.494141"/>
      <use xlink:href="#DejaVuSans-5f" x="668.017578"/>
      <use xlink:href="#DejaVuSans-6f" x="718.017578"/>
      <use xlink:href="#DejaVuSans-75" x="779.199219"/>
      <use xlink:href="#DejaVuSans-74" x="842.578125"/>
      <use xlink:href="#DejaVuSans-22" x="881.787109"/>
      <use xlink:href="#DejaVuSans-20" x="927.783203"/>
      <use xlink:href="#DejaVuSans-54" x="959.570312"/>
      <use xlink:href="#DejaVuSans-68" x="1020.654297"/>
      <use xlink:href="#DejaVuSans-72" x="1084.033203"/>
      <use xlink:href="#DejaVuSans-65" x="1122.896484"/>
      <use xlink:href="#DejaVuSans-73" x="1184.419922"/>
      <use xlink:href="#DejaVuSans-68" x="1236.519531"/>
      <use xlink:href="#DejaVuSans-6f" x="1299.898438"/>
      <use xlink:href="#DejaVuSans-6c" x="1361.080078"/>
      <use xlink:href="#DejaVuSans-64" x="1388.863281"/>
      <use xlink:href="#DejaVuSans-20" x="1452.339844"/>
      <use xlink:href="#DejaVuSans-48" x="1484.126953"/>
      <use xlink:href="#DejaVuSans-61" x="1559.322266"/>
      <use xlink:href="#DejaVuSans-6e" x="1620.601562"/>
      <use xlink:href="#DejaVuSans-64" x="1683.980469"/>
      <use xlink:href="#DejaVuSans-6c" x="1747.457031"/>
      <use xlink:href="#DejaVuSans-69" x="1775.240234"/>
      <use xlink:href="#DejaVuSans-6e" x="1803.023438"/>
      <use xlink:href="#DejaVuSans-67" x="1866.402344"/>
      <use xlink:href="#DejaVuSans-29" x="1929.878906"/>
     </g>
    </g>
   </g>
   <g id="matplotlib.axis_2">
    <g id="ytick_1">
     <g id="line2d_7">
      <defs>
       <path id="m0adc75352e" d="M 0 0 
L -3.5 0 
" style="stroke: #000000; stroke-width: 0.8"/>
      </defs>
      <g>
       <use xlink:href="#m0adc75352e" x="67.34" y="445.942096" style="stroke: #000000; stroke-width: 0.8"/>
      </g>
     </g>
     <g id="text_8">
      <!-- 10 -->
      <g transform="translate(34.89 453.540534) scale(0.2 -0.2)">
       <use xlink:href="#DejaVuSans-31"/>
       <use xlink:href="#DejaVuSans-30" x="63.623047"/>
      </g>
     </g>
    </g>
    <g id="ytick_2">
     <g id="line2d_8">
      <g>
       <use xlink:href="#m0adc75352e" x="67.34" y="377.083795" style="stroke: #000000; stroke-width: 0.8"/>
      </g>
     </g>
     <g id="text_9">
      <!-- 12 -->
      <g transform="translate(34.89 384.682232) scale(0.2 -0.2)">
       <use xlink:href="#DejaVuSans-31"/>
       <use xlink:href="#DejaVuSans-32" x="63.623047"/>
      </g>
     </g>
    </g>
    <g id="ytick_3">
     <g id="line2d_9">
      <g>
       <use xlink:href="#m0adc75352e" x="67.34" y="308.225493" style="stroke: #000000; stroke-width: 0.8"/>
      </g>
     </g>
     <g id="text_10">
      <!-- 14 -->
      <g transform="translate(34.89 315.823931) scale(0.2 -0.2)">
       <use xlink:href="#DejaVuSans-31"/>
       <use xlink:href="#DejaVuSans-34" x="63.623047"/>
      </g>
     </g>
    </g>
    <g id="ytick_4">
     <g id="line2d_10">
      <g>
       <use xlink:href="#m0adc75352e" x="67.34" y="239.367192" style="stroke: #000000; stroke-width: 0.8"/>
      </g>
     </g>
     <g id="text_11">
      <!-- 16 -->
      <g transform="translate(34.89 246.965629) scale(0.2 -0.2)">
       <defs>
        <path id="DejaVuSans-36" d="M 2113 2584 
Q 1688 2584 1439 2293 
Q 1191 2003 1191 1497 
Q 1191 994 1439 701 
Q 1688 409 2113 409 
Q 2538 409 2786 701 
Q 3034 994 3034 1497 
Q 3034 2003 2786 2293 
Q 2538 2584 2113 2584 
z
M 3366 4563 
L 3366 3988 
Q 3128 4100 2886 4159 
Q 2644 4219 2406 4219 
Q 1781 4219 1451 3797 
Q 1122 3375 1075 2522 
Q 1259 2794 1537 2939 
Q 1816 3084 2150 3084 
Q 2853 3084 3261 2657 
Q 3669 2231 3669 1497 
Q 3669 778 3244 343 
Q 2819 -91 2113 -91 
Q 1303 -91 875 529 
Q 447 1150 447 2328 
Q 447 3434 972 4092 
Q 1497 4750 2381 4750 
Q 2619 4750 2861 4703 
Q 3103 4656 3366 4563 
z
" transform="scale(0.015625)"/>
       </defs>
       <use xlink:href="#DejaVuSans-31"/>
       <use xlink:href="#DejaVuSans-36" x="63.623047"/>
      </g>
     </g>
    </g>
    <g id="ytick_5">
     <g id="line2d_11">
      <g>
       <use xlink:href="#m0adc75352e" x="67.34" y="170.508891" style="stroke: #000000; stroke-width: 0.8"/>
      </g>
     </g>
     <g id="text_12">
      <!-- 18 -->
      <g transform="translate(34.89 178.107328) scale(0.2 -0.2)">
       <defs>
        <path id="DejaVuSans-38" d="M 2034 2216 
Q 1584 2216 1326 1975 
Q 1069 1734 1069 1313 
Q 1069 891 1326 650 
Q 1584 409 2034 409 
Q 2484 409 2743 651 
Q 3003 894 3003 1313 
Q 3003 1734 2745 1975 
Q 2488 2216 2034 2216 
z
M 1403 2484 
Q 997 2584 770 2862 
Q 544 3141 544 3541 
Q 544 4100 942 4425 
Q 1341 4750 2034 4750 
Q 2731 4750 3128 4425 
Q 3525 4100 3525 3541 
Q 3525 3141 3298 2862 
Q 3072 2584 2669 2484 
Q 3125 2378 3379 2068 
Q 3634 1759 3634 1313 
Q 3634 634 3220 271 
Q 2806 -91 2034 -91 
Q 1263 -91 848 271 
Q 434 634 434 1313 
Q 434 1759 690 2068 
Q 947 2378 1403 2484 
z
M 1172 3481 
Q 1172 3119 1398 2916 
Q 1625 2713 2034 2713 
Q 2441 2713 2670 2916 
Q 2900 3119 2900 3481 
Q 2900 3844 2670 4047 
Q 2441 4250 2034 4250 
Q 1625 4250 1398 4047 
Q 1172 3844 1172 3481 
z
" transform="scale(0.015625)"/>
       </defs>
       <use xlink:href="#DejaVuSans-31"/>
       <use xlink:href="#DejaVuSans-38" x="63.623047"/>
      </g>
     </g>
    </g>
    <g id="ytick_6">
     <g id="line2d_12">
      <g>
       <use xlink:href="#m0adc75352e" x="67.34" y="101.650589" style="stroke: #000000; stroke-width: 0.8"/>
      </g>
     </g>
     <g id="text_13">
      <!-- 20 -->
      <g transform="translate(34.89 109.249027) scale(0.2 -0.2)">
       <use xlink:href="#DejaVuSans-32"/>
       <use xlink:href="#DejaVuSans-30" x="63.623047"/>
      </g>
     </g>
    </g>
    <g id="ytick_7">
     <g id="line2d_13">
      <g>
       <use xlink:href="#m0adc75352e" x="67.34" y="32.792288" style="stroke: #000000; stroke-width: 0.8"/>
      </g>
     </g>
     <g id="text_14">
      <!-- 22 -->
      <g transform="translate(34.89 40.390725) scale(0.2 -0.2)">
       <use xlink:href="#DejaVuSans-32"/>
       <use xlink:href="#DejaVuSans-32" x="63.623047"/>
      </g>
     </g>
    </g>
    <g id="text_15">
     <!-- MAE -->
     <g transform="translate(26.730625 272.1035) rotate(-90) scale(0.2 -0.2)">
      <defs>
       <path id="DejaVuSans-4d" d="M 628 4666 
L 1569 4666 
L 2759 1491 
L 3956 4666 
L 4897 4666 
L 4897 0 
L 4281 0 
L 4281 4097 
L 3078 897 
L 2444 897 
L 1241 4097 
L 1241 0 
L 628 0 
L 628 4666 
z
" transform="scale(0.015625)"/>
       <path id="DejaVuSans-41" d="M 2188 4044 
L 1331 1722 
L 3047 1722 
L 2188 4044 
z
M 1831 4666 
L 2547 4666 
L 4325 0 
L 3669 0 
L 3244 1197 
L 1141 1197 
L 716 0 
L 50 0 
L 1831 4666 
z
" transform="scale(0.015625)"/>
       <path id="DejaVuSans-45" d="M 628 4666 
L 3578 4666 
L 3578 4134 
L 1259 4134 
L 1259 2753 
L 3481 2753 
L 3481 2222 
L 1259 2222 
L 1259 531 
L 3634 531 
L 3634 0 
L 628 0 
L 628 4666 
z
" transform="scale(0.015625)"/>
      </defs>
      <use xlink:href="#DejaVuSans-4d"/>
      <use xlink:href="#DejaVuSans-41" x="86.279297"/>
      <use xlink:href="#DejaVuSans-45" x="154.6875"/>
     </g>
    </g>
   </g>
   <g id="line2d_14">
    <path d="M 116.151818 443.984405 
L 156.828333 431.909024 
L 197.504848 404.681731 
L 238.181364 393.067649 
L 278.857879 372.124696 
L 319.534394 334.708056 
L 360.210909 305.332838 
L 400.887424 288.755163 
L 441.563939 258.941433 
L 482.240455 250.022439 
L 522.91697 260.984813 
L 563.593485 244.060985 
L 604.27 214.591635 
L 644.946515 185.404936 
L 685.62303 167.148586 
L 726.299545 153.96112 
L 766.976061 161.242476 
L 807.652576 121.624649 
L 848.329091 133.013063 
L 889.005606 149.162371 
L 929.682121 134.812348 
L 970.358636 165.871873 
L 1011.035152 161.993446 
L 1051.711667 160.271146 
L 1092.388182 163.12636 
" clip-path="url(#p50234b3541)" style="fill: none; stroke: #1f77b4; stroke-width: 1.5; stroke-linecap: square"/>
   </g>
   <g id="line2d_15">
    <path d="M 116.151818 452.747699 
L 156.828333 441.381816 
L 197.504848 406.57593 
L 238.181364 384.240116 
L 278.857879 343.319209 
L 319.534394 320.49667 
L 360.210909 311.085948 
L 400.887424 288.152161 
L 441.563939 261.082748 
L 482.240455 254.841453 
L 522.91697 241.390093 
L 563.593485 240.447376 
L 604.27 211.68934 
L 644.946515 186.101662 
L 685.62303 179.209213 
L 726.299545 188.91128 
L 766.976061 180.433995 
L 807.652576 184.948969 
L 848.329091 176.015935 
L 889.005606 125.797787 
L 929.682121 115.245039 
L 970.358636 123.640097 
L 1011.035152 144.201906 
L 1051.711667 159.031772 
L 1092.388182 157.28041 
" clip-path="url(#p50234b3541)" style="fill: none; stroke: #ff7f0e; stroke-width: 1.5; stroke-linecap: square"/>
   </g>
   <g id="line2d_16">
    <path d="M 116.151818 430.312346 
L 156.828333 421.075372 
L 197.504848 404.598221 
L 238.181364 384.116527 
L 278.857879 362.863331 
L 319.534394 352.624568 
L 360.210909 329.224772 
L 400.887424 305.963333 
L 441.563939 297.843831 
L 482.240455 292.101595 
L 522.91697 282.781437 
L 563.593485 271.006503 
L 604.27 250.649288 
L 644.946515 246.028276 
L 685.62303 225.28878 
L 726.299545 198.305364 
L 766.976061 196.863058 
L 807.652576 170.534064 
L 848.329091 186.233068 
L 889.005606 197.144792 
L 929.682121 197.625156 
L 970.358636 207.076425 
L 1011.035152 199.954076 
L 1051.711667 206.090506 
L 1092.388182 210.580797 
" clip-path="url(#p50234b3541)" style="fill: none; stroke: #2ca02c; stroke-width: 1.5; stroke-linecap: square"/>
   </g>
   <g id="line2d_17">
    <path d="M 116.151818 434.892081 
L 156.828333 420.488821 
L 197.504848 385.874392 
L 238.181364 359.198754 
L 278.857879 325.839902 
L 319.534394 292.447728 
L 360.210909 270.408365 
L 400.887424 242.657862 
L 441.563939 215.967692 
L 482.240455 217.394773 
L 522.91697 201.040104 
L 563.593485 202.296086 
L 604.27 170.898632 
L 644.946515 141.084504 
L 685.62303 122.097805 
L 726.299545 153.796923 
L 766.976061 146.192134 
L 807.652576 127.269117 
L 848.329091 127.611273 
L 889.005606 113.312443 
L 929.682121 90.29011 
L 970.358636 111.6541 
L 1011.035152 124.849016 
L 1051.711667 119.807554 
L 1092.388182 114.485861 
" clip-path="url(#p50234b3541)" style="fill: none; stroke: #d62728; stroke-width: 1.5; stroke-linecap: square"/>
   </g>
   <g id="line2d_18">
    <path d="M 116.151818 462.703911 
L 156.828333 447.889434 
L 197.504848 416.959207 
L 238.181364 404.634115 
L 278.857879 371.4873 
L 319.534394 342.9166 
L 360.210909 315.914239 
L 400.887424 297.879998 
L 441.563939 276.171845 
L 482.240455 261.666261 
L 522.91697 277.823301 
L 563.593485 249.813847 
L 604.27 229.564896 
L 644.946515 194.753183 
L 685.62303 168.288368 
L 726.299545 156.764915 
L 766.976061 161.137823 
L 807.652576 119.230884 
L 848.329091 128.296791 
L 889.005606 147.258476 
L 929.682121 128.693279 
L 970.358636 164.561159 
L 1011.035152 164.755968 
L 1051.711667 167.476395 
L 1092.388182 161.983032 
" clip-path="url(#p50234b3541)" style="fill: none; stroke: #9467bd; stroke-width: 1.5; stroke-linecap: square"/>
   </g>
   <g id="line2d_19">
    <path d="M 116.151818 454.040598 
L 156.828333 438.095932 
L 197.504848 410.999108 
L 238.181364 392.330857 
L 278.857879 364.746776 
L 319.534394 344.230274 
L 360.210909 326.312623 
L 400.887424 311.861931 
L 441.563939 290.52722 
L 482.240455 289.137508 
L 522.91697 284.642946 
L 563.593485 279.242797 
L 604.27 257.569944 
L 644.946515 241.213668 
L 685.62303 242.168232 
L 726.299545 252.845009 
L 766.976061 240.030985 
L 807.652576 241.212594 
L 848.329091 232.372636 
L 889.005606 241.173364 
L 929.682121 240.909491 
L 970.358636 235.798137 
L 1011.035152 233.067741 
L 1051.711667 238.144536 
L 1092.388182 248.422013 
" clip-path="url(#p50234b3541)" style="fill: none; stroke: #8c564b; stroke-width: 1.5; stroke-linecap: square"/>
   </g>
   <g id="line2d_20">
    <path d="M 116.151818 452.768956 
L 156.828333 434.15079 
L 197.504848 407.43782 
L 238.181364 398.195732 
L 278.857879 373.207793 
L 319.534394 354.114793 
L 360.210909 334.446412 
L 400.887424 323.735297 
L 441.563939 293.061551 
L 482.240455 293.235591 
L 522.91697 290.635738 
L 563.593485 280.570512 
L 604.27 259.039867 
L 644.946515 230.218595 
L 685.62303 247.446344 
L 726.299545 256.311213 
L 766.976061 239.691161 
L 807.652576 224.165552 
L 848.329091 206.315155 
L 889.005606 235.116713 
L 929.682121 257.368001 
L 970.358636 234.635629 
L 1011.035152 227.061024 
L 1051.711667 251.150221 
L 1092.388182 242.837342 
" clip-path="url(#p50234b3541)" style="fill: none; stroke: #e377c2; stroke-width: 1.5; stroke-linecap: square"/>
   </g>
   <g id="line2d_21">
    <path d="M 116.151818 430.542305 
L 156.828333 421.043215 
L 197.504848 401.825933 
L 238.181364 381.733195 
L 278.857879 359.988636 
L 319.534394 352.45008 
L 360.210909 329.008573 
L 400.887424 306.117816 
L 441.563939 298.692502 
L 482.240455 292.914104 
L 522.91697 284.373409 
L 563.593485 272.112963 
L 604.27 250.481586 
L 644.946515 245.923371 
L 685.62303 224.96657 
L 726.299545 198.890569 
L 766.976061 198.478183 
L 807.652576 172.016276 
L 848.329091 184.907859 
L 889.005606 195.568899 
L 929.682121 195.591406 
L 970.358636 205.640101 
L 1011.035152 200.685559 
L 1051.711667 207.590121 
L 1092.388182 211.2622 
" clip-path="url(#p50234b3541)" style="fill: none; stroke: #7f7f7f; stroke-width: 1.5; stroke-linecap: square"/>
   </g>
   <g id="line2d_22"/>
   <g id="line2d_23"/>
   <g id="line2d_24"/>
   <g id="line2d_25"/>
   <g id="line2d_26"/>
   <g id="line2d_27"/>
   <g id="line2d_28"/>
   <g id="line2d_29"/>
   <g id="patch_3">
    <path d="M 67.34 489.832 
L 67.34 10.8 
" style="fill: none; stroke: #000000; stroke-width: 0.8; stroke-linejoin: miter; stroke-linecap: square"/>
   </g>
   <g id="patch_4">
    <path d="M 1141.2 489.832 
L 1141.2 10.8 
" style="fill: none; stroke: #000000; stroke-width: 0.8; stroke-linejoin: miter; stroke-linecap: square"/>
   </g>
   <g id="patch_5">
    <path d="M 67.34 489.832 
L 1141.2 489.832 
" style="fill: none; stroke: #000000; stroke-width: 0.8; stroke-linejoin: miter; stroke-linecap: square"/>
   </g>
   <g id="patch_6">
    <path d="M 67.34 10.8 
L 1141.2 10.8 
" style="fill: none; stroke: #000000; stroke-width: 0.8; stroke-linejoin: miter; stroke-linecap: square"/>
   </g>
   <g id="legend_1">
    <g id="patch_7">
     <path d="M 78.54 481.832 
L 317.3325 481.832 
Q 320.5325 481.832 320.5325 478.632 
L 320.5325 288.792 
Q 320.5325 285.592 317.3325 285.592 
L 78.54 285.592 
Q 75.34 285.592 75.34 288.792 
L 75.34 478.632 
Q 75.34 481.832 78.54 481.832 
z
" style="fill: #ffffff; opacity: 0.8; stroke: #cccccc; stroke-linejoin: miter"/>
    </g>
    <g id="line2d_30">
     <path d="M 81.74 298.5495 
L 97.74 298.5495 
L 113.74 298.5495 
" style="fill: none; stroke: #1f77b4; stroke-width: 1.5; stroke-linecap: square"/>
    </g>
    <g id="text_16">
     <!-- gbr_pre_gs -->
     <g transform="translate(126.54 304.1495) scale(0.16 -0.16)">
      <defs>
       <path id="DejaVuSans-62" d="M 3116 1747 
Q 3116 2381 2855 2742 
Q 2594 3103 2138 3103 
Q 1681 3103 1420 2742 
Q 1159 2381 1159 1747 
Q 1159 1113 1420 752 
Q 1681 391 2138 391 
Q 2594 391 2855 752 
Q 3116 1113 3116 1747 
z
M 1159 2969 
Q 1341 3281 1617 3432 
Q 1894 3584 2278 3584 
Q 2916 3584 3314 3078 
Q 3713 2572 3713 1747 
Q 3713 922 3314 415 
Q 2916 -91 2278 -91 
Q 1894 -91 1617 61 
Q 1341 213 1159 525 
L 1159 0 
L 581 0 
L 581 4863 
L 1159 4863 
L 1159 2969 
z
" transform="scale(0.015625)"/>
       <path id="DejaVuSans-70" d="M 1159 525 
L 1159 -1331 
L 581 -1331 
L 581 3500 
L 1159 3500 
L 1159 2969 
Q 1341 3281 1617 3432 
Q 1894 3584 2278 3584 
Q 2916 3584 3314 3078 
Q 3713 2572 3713 1747 
Q 3713 922 3314 415 
Q 2916 -91 2278 -91 
Q 1894 -91 1617 61 
Q 1341 213 1159 525 
z
M 3116 1747 
Q 3116 2381 2855 2742 
Q 2594 3103 2138 3103 
Q 1681 3103 1420 2742 
Q 1159 2381 1159 1747 
Q 1159 1113 1420 752 
Q 1681 391 2138 391 
Q 2594 391 2855 752 
Q 3116 1113 3116 1747 
z
" transform="scale(0.015625)"/>
      </defs>
      <use xlink:href="#DejaVuSans-67"/>
      <use xlink:href="#DejaVuSans-62" x="63.476562"/>
      <use xlink:href="#DejaVuSans-72" x="126.953125"/>
      <use xlink:href="#DejaVuSans-5f" x="168.066406"/>
      <use xlink:href="#DejaVuSans-70" x="218.066406"/>
      <use xlink:href="#DejaVuSans-72" x="281.542969"/>
      <use xlink:href="#DejaVuSans-65" x="320.40625"/>
      <use xlink:href="#DejaVuSans-5f" x="381.929688"/>
      <use xlink:href="#DejaVuSans-67" x="431.929688"/>
      <use xlink:href="#DejaVuSans-73" x="495.40625"/>
     </g>
    </g>
    <g id="line2d_31">
     <path d="M 81.74 322.4795 
L 97.74 322.4795 
L 113.74 322.4795 
" style="fill: none; stroke: #ff7f0e; stroke-width: 1.5; stroke-linecap: square"/>
    </g>
    <g id="text_17">
     <!-- xgb_pre_gs -->
     <g transform="translate(126.54 328.0795) scale(0.16 -0.16)">
      <defs>
       <path id="DejaVuSans-78" d="M 3513 3500 
L 2247 1797 
L 3578 0 
L 2900 0 
L 1881 1375 
L 863 0 
L 184 0 
L 1544 1831 
L 300 3500 
L 978 3500 
L 1906 2253 
L 2834 3500 
L 3513 3500 
z
" transform="scale(0.015625)"/>
      </defs>
      <use xlink:href="#DejaVuSans-78"/>
      <use xlink:href="#DejaVuSans-67" x="59.179688"/>
      <use xlink:href="#DejaVuSans-62" x="122.65625"/>
      <use xlink:href="#DejaVuSans-5f" x="186.132812"/>
      <use xlink:href="#DejaVuSans-70" x="236.132812"/>
      <use xlink:href="#DejaVuSans-72" x="299.609375"/>
      <use xlink:href="#DejaVuSans-65" x="338.472656"/>
      <use xlink:href="#DejaVuSans-5f" x="399.996094"/>
      <use xlink:href="#DejaVuSans-67" x="449.996094"/>
      <use xlink:href="#DejaVuSans-73" x="513.472656"/>
     </g>
    </g>
    <g id="line2d_32">
     <path d="M 81.74 346.4095 
L 97.74 346.4095 
L 113.74 346.4095 
" style="fill: none; stroke: #2ca02c; stroke-width: 1.5; stroke-linecap: square"/>
    </g>
    <g id="text_18">
     <!-- BayesianRidge_pre_gs -->
     <g transform="translate(126.54 352.0095) scale(0.16 -0.16)">
      <defs>
       <path id="DejaVuSans-42" d="M 1259 2228 
L 1259 519 
L 2272 519 
Q 2781 519 3026 730 
Q 3272 941 3272 1375 
Q 3272 1813 3026 2020 
Q 2781 2228 2272 2228 
L 1259 2228 
z
M 1259 4147 
L 1259 2741 
L 2194 2741 
Q 2656 2741 2882 2914 
Q 3109 3088 3109 3444 
Q 3109 3797 2882 3972 
Q 2656 4147 2194 4147 
L 1259 4147 
z
M 628 4666 
L 2241 4666 
Q 2963 4666 3353 4366 
Q 3744 4066 3744 3513 
Q 3744 3084 3544 2831 
Q 3344 2578 2956 2516 
Q 3422 2416 3680 2098 
Q 3938 1781 3938 1306 
Q 3938 681 3513 340 
Q 3088 0 2303 0 
L 628 0 
L 628 4666 
z
" transform="scale(0.015625)"/>
       <path id="DejaVuSans-79" d="M 2059 -325 
Q 1816 -950 1584 -1140 
Q 1353 -1331 966 -1331 
L 506 -1331 
L 506 -850 
L 844 -850 
Q 1081 -850 1212 -737 
Q 1344 -625 1503 -206 
L 1606 56 
L 191 3500 
L 800 3500 
L 1894 763 
L 2988 3500 
L 3597 3500 
L 2059 -325 
z
" transform="scale(0.015625)"/>
       <path id="DejaVuSans-52" d="M 2841 2188 
Q 3044 2119 3236 1894 
Q 3428 1669 3622 1275 
L 4263 0 
L 3584 0 
L 2988 1197 
Q 2756 1666 2539 1819 
Q 2322 1972 1947 1972 
L 1259 1972 
L 1259 0 
L 628 0 
L 628 4666 
L 2053 4666 
Q 2853 4666 3247 4331 
Q 3641 3997 3641 3322 
Q 3641 2881 3436 2590 
Q 3231 2300 2841 2188 
z
M 1259 4147 
L 1259 2491 
L 2053 2491 
Q 2509 2491 2742 2702 
Q 2975 2913 2975 3322 
Q 2975 3731 2742 3939 
Q 2509 4147 2053 4147 
L 1259 4147 
z
" transform="scale(0.015625)"/>
      </defs>
      <use xlink:href="#DejaVuSans-42"/>
      <use xlink:href="#DejaVuSans-61" x="68.603516"/>
      <use xlink:href="#DejaVuSans-79" x="129.882812"/>
      <use xlink:href="#DejaVuSans-65" x="189.0625"/>
      <use xlink:href="#DejaVuSans-73" x="250.585938"/>
      <use xlink:href="#DejaVuSans-69" x="302.685547"/>
      <use xlink:href="#DejaVuSans-61" x="330.46875"/>
      <use xlink:href="#DejaVuSans-6e" x="391.748047"/>
      <use xlink:href="#DejaVuSans-52" x="455.126953"/>
      <use xlink:href="#DejaVuSans-69" x="524.609375"/>
      <use xlink:href="#DejaVuSans-64" x="552.392578"/>
      <use xlink:href="#DejaVuSans-67" x="615.869141"/>
      <use xlink:href="#DejaVuSans-65" x="679.345703"/>
      <use xlink:href="#DejaVuSans-5f" x="740.869141"/>
      <use xlink:href="#DejaVuSans-70" x="790.869141"/>
      <use xlink:href="#DejaVuSans-72" x="854.345703"/>
      <use xlink:href="#DejaVuSans-65" x="893.208984"/>
      <use xlink:href="#DejaVuSans-5f" x="954.732422"/>
      <use xlink:href="#DejaVuSans-67" x="1004.732422"/>
      <use xlink:href="#DejaVuSans-73" x="1068.208984"/>
     </g>
    </g>
    <g id="line2d_33">
     <path d="M 81.74 370.3395 
L 97.74 370.3395 
L 113.74 370.3395 
" style="fill: none; stroke: #d62728; stroke-width: 1.5; stroke-linecap: square"/>
    </g>
    <g id="text_19">
     <!-- rf_pre_gs -->
     <g transform="translate(126.54 375.9395) scale(0.16 -0.16)">
      <defs>
       <path id="DejaVuSans-66" d="M 2375 4863 
L 2375 4384 
L 1825 4384 
Q 1516 4384 1395 4259 
Q 1275 4134 1275 3809 
L 1275 3500 
L 2222 3500 
L 2222 3053 
L 1275 3053 
L 1275 0 
L 697 0 
L 697 3053 
L 147 3053 
L 147 3500 
L 697 3500 
L 697 3744 
Q 697 4328 969 4595 
Q 1241 4863 1831 4863 
L 2375 4863 
z
" transform="scale(0.015625)"/>
      </defs>
      <use xlink:href="#DejaVuSans-72"/>
      <use xlink:href="#DejaVuSans-66" x="41.113281"/>
      <use xlink:href="#DejaVuSans-5f" x="76.318359"/>
      <use xlink:href="#DejaVuSans-70" x="126.318359"/>
      <use xlink:href="#DejaVuSans-72" x="189.794922"/>
      <use xlink:href="#DejaVuSans-65" x="228.658203"/>
      <use xlink:href="#DejaVuSans-5f" x="290.181641"/>
      <use xlink:href="#DejaVuSans-67" x="340.181641"/>
      <use xlink:href="#DejaVuSans-73" x="403.658203"/>
     </g>
    </g>
    <g id="line2d_34">
     <path d="M 81.74 394.2695 
L 97.74 394.2695 
L 113.74 394.2695 
" style="fill: none; stroke: #9467bd; stroke-width: 1.5; stroke-linecap: square"/>
    </g>
    <g id="text_20">
     <!-- xgb_post_gs -->
     <g transform="translate(126.54 399.8695) scale(0.16 -0.16)">
      <use xlink:href="#DejaVuSans-78"/>
      <use xlink:href="#DejaVuSans-67" x="59.179688"/>
      <use xlink:href="#DejaVuSans-62" x="122.65625"/>
      <use xlink:href="#DejaVuSans-5f" x="186.132812"/>
      <use xlink:href="#DejaVuSans-70" x="236.132812"/>
      <use xlink:href="#DejaVuSans-6f" x="299.609375"/>
      <use xlink:href="#DejaVuSans-73" x="360.791016"/>
      <use xlink:href="#DejaVuSans-74" x="412.890625"/>
      <use xlink:href="#DejaVuSans-5f" x="452.099609"/>
      <use xlink:href="#DejaVuSans-67" x="502.099609"/>
      <use xlink:href="#DejaVuSans-73" x="565.576172"/>
     </g>
    </g>
    <g id="line2d_35">
     <path d="M 81.74 418.1995 
L 97.74 418.1995 
L 113.74 418.1995 
" style="fill: none; stroke: #8c564b; stroke-width: 1.5; stroke-linecap: square"/>
    </g>
    <g id="text_21">
     <!-- rf_post_gs -->
     <g transform="translate(126.54 423.7995) scale(0.16 -0.16)">
      <use xlink:href="#DejaVuSans-72"/>
      <use xlink:href="#DejaVuSans-66" x="41.113281"/>
      <use xlink:href="#DejaVuSans-5f" x="76.318359"/>
      <use xlink:href="#DejaVuSans-70" x="126.318359"/>
      <use xlink:href="#DejaVuSans-6f" x="189.794922"/>
      <use xlink:href="#DejaVuSans-73" x="250.976562"/>
      <use xlink:href="#DejaVuSans-74" x="303.076172"/>
      <use xlink:href="#DejaVuSans-5f" x="342.285156"/>
      <use xlink:href="#DejaVuSans-67" x="392.285156"/>
      <use xlink:href="#DejaVuSans-73" x="455.761719"/>
     </g>
    </g>
    <g id="line2d_36">
     <path d="M 81.74 442.1295 
L 97.74 442.1295 
L 113.74 442.1295 
" style="fill: none; stroke: #e377c2; stroke-width: 1.5; stroke-linecap: square"/>
    </g>
    <g id="text_22">
     <!-- gbr_post_gs -->
     <g transform="translate(126.54 447.7295) scale(0.16 -0.16)">
      <use xlink:href="#DejaVuSans-67"/>
      <use xlink:href="#DejaVuSans-62" x="63.476562"/>
      <use xlink:href="#DejaVuSans-72" x="126.953125"/>
      <use xlink:href="#DejaVuSans-5f" x="168.066406"/>
      <use xlink:href="#DejaVuSans-70" x="218.066406"/>
      <use xlink:href="#DejaVuSans-6f" x="281.542969"/>
      <use xlink:href="#DejaVuSans-73" x="342.724609"/>
      <use xlink:href="#DejaVuSans-74" x="394.824219"/>
      <use xlink:href="#DejaVuSans-5f" x="434.033203"/>
      <use xlink:href="#DejaVuSans-67" x="484.033203"/>
      <use xlink:href="#DejaVuSans-73" x="547.509766"/>
     </g>
    </g>
    <g id="line2d_37">
     <path d="M 81.74 466.0595 
L 97.74 466.0595 
L 113.74 466.0595 
" style="fill: none; stroke: #7f7f7f; stroke-width: 1.5; stroke-linecap: square"/>
    </g>
    <g id="text_23">
     <!-- BayesianRidge_post_gs -->
     <g transform="translate(126.54 471.6595) scale(0.16 -0.16)">
      <use xlink:href="#DejaVuSans-42"/>
      <use xlink:href="#DejaVuSans-61" x="68.603516"/>
      <use xlink:href="#DejaVuSans-79" x="129.882812"/>
      <use xlink:href="#DejaVuSans-65" x="189.0625"/>
      <use xlink:href="#DejaVuSans-73" x="250.585938"/>
      <use xlink:href="#DejaVuSans-69" x="302.685547"/>
      <use xlink:href="#DejaVuSans-61" x="330.46875"/>
      <use xlink:href="#DejaVuSans-6e" x="391.748047"/>
      <use xlink:href="#DejaVuSans-52" x="455.126953"/>
      <use xlink:href="#DejaVuSans-69" x="524.609375"/>
      <use xlink:href="#DejaVuSans-64" x="552.392578"/>
      <use xlink:href="#DejaVuSans-67" x="615.869141"/>
      <use xlink:href="#DejaVuSans-65" x="679.345703"/>
      <use xlink:href="#DejaVuSans-5f" x="740.869141"/>
      <use xlink:href="#DejaVuSans-70" x="790.869141"/>
      <use xlink:href="#DejaVuSans-6f" x="854.345703"/>
      <use xlink:href="#DejaVuSans-73" x="915.527344"/>
      <use xlink:href="#DejaVuSans-74" x="967.626953"/>
      <use xlink:href="#DejaVuSans-5f" x="1006.835938"/>
      <use xlink:href="#DejaVuSans-67" x="1056.835938"/>
      <use xlink:href="#DejaVuSans-73" x="1120.3125"/>
     </g>
    </g>
   </g>
  </g>
 </g>
 <defs>
  <clipPath id="p50234b3541">
   <rect x="67.34" y="10.8" width="1073.86" height="479.032"/>
  </clipPath>
 </defs>
</svg>
