<?xml version="1.0" encoding="utf-8" standalone="no"?>
<!DOCTYPE svg PUBLIC "-//W3C//DTD SVG 1.1//EN"
  "http://www.w3.org/Graphics/SVG/1.1/DTD/svg11.dtd">
<svg xmlns:xlink="http://www.w3.org/1999/xlink" width="1152pt" height="576pt" viewBox="0 0 1152 576" xmlns="http://www.w3.org/2000/svg" version="1.1">
 <metadata>
  <rdf:RDF xmlns:dc="http://purl.org/dc/elements/1.1/" xmlns:cc="http://creativecommons.org/ns#" xmlns:rdf="http://www.w3.org/1999/02/22-rdf-syntax-ns#">
   <cc:Work>
    <dc:type rdf:resource="http://purl.org/dc/dcmitype/StillImage"/>
    <dc:date>2025-04-21T13:07:56.468284</dc:date>
    <dc:format>image/svg+xml</dc:format>
    <dc:creator>
     <cc:Agent>
      <dc:title>Matplotlib v3.7.1, https://matplotlib.org/</dc:title>
     </cc:Agent>
    </dc:creator>
   </cc:Work>
  </rdf:RDF>
 </metadata>
 <defs>
  <style type="text/css">*{stroke-linejoin: round; stroke-linecap: butt}</style>
 </defs>
 <g id="figure_1">
  <g id="patch_1">
   <path d="M 0 576 
L 1152 576 
L 1152 0 
L 0 0 
z
" style="fill: #ffffff"/>
  </g>
  <g id="axes_1">
   <g id="patch_2">
    <path d="M 99.11 489.832 
L 1141.2 489.832 
L 1141.2 10.8 
L 99.11 10.8 
z
" style="fill: #ffffff"/>
   </g>
   <g id="PolyCollection_1">
    <defs>
     <path id="m405307e515" d="M 146.477727 -499.292568 
L 146.477727 -398.106152 
L 185.950833 -355.134811 
L 225.423939 -413.358642 
L 264.897045 -402.879737 
L 304.370152 -381.979531 
L 343.843258 -424.521154 
L 383.316364 -476.503887 
L 422.78947 -374.336945 
L 462.262576 -438.089915 
L 501.735682 -425.398591 
L 541.208788 -416.85582 
L 580.681894 -430.917394 
L 620.155 -423.390592 
L 659.628106 -402.133802 
L 699.101212 -341.413846 
L 738.574318 -356.554528 
L 778.047424 -423.108764 
L 817.52053 -371.639736 
L 856.993636 -378.223585 
L 896.466742 -377.057987 
L 935.939848 -404.142903 
L 975.412955 -378.90615 
L 1014.886061 -327.134716 
L 1054.359167 -308.219239 
L 1093.832273 -352.932515 
L 1093.832273 -437.280125 
L 1093.832273 -437.280125 
L 1054.359167 -426.976812 
L 1014.886061 -481.277183 
L 975.412955 -468.074481 
L 935.939848 -479.493764 
L 896.466742 -476.874824 
L 856.993636 -445.369164 
L 817.52053 -464.150572 
L 778.047424 -448.911165 
L 738.574318 -461.536377 
L 699.101212 -467.26556 
L 659.628106 -487.772236 
L 620.155 -501.091686 
L 580.681894 -487.142476 
L 541.208788 -541.311979 
L 501.735682 -506.971623 
L 462.262576 -507.570724 
L 422.78947 -494.053122 
L 383.316364 -528.300245 
L 343.843258 -488.802329 
L 304.370152 -471.525343 
L 264.897045 -477.809844 
L 225.423939 -452.94499 
L 185.950833 -451.486023 
L 146.477727 -499.292568 
z
" style="stroke: #1f77b4; stroke-opacity: 0.2"/>
    </defs>
    <g clip-path="url(#p22b7f49acc)">
     <use xlink:href="#m405307e515" x="0" y="576" style="fill: #1f77b4; fill-opacity: 0.2; stroke: #1f77b4; stroke-opacity: 0.2"/>
    </g>
   </g>
   <g id="PolyCollection_2">
    <defs>
     <path id="me65e15861a" d="M 146.477727 -476.571 
L 146.477727 -401.139772 
L 185.950833 -296.242669 
L 225.423939 -266.957931 
L 264.897045 -327.750312 
L 304.370152 -357.358814 
L 343.843258 -360.36133 
L 383.316364 -365.558911 
L 422.78947 -324.060689 
L 462.262576 -413.788934 
L 501.735682 -378.515775 
L 541.208788 -365.797907 
L 580.681894 -356.496826 
L 620.155 -314.482105 
L 659.628106 -367.016828 
L 699.101212 -370.24591 
L 738.574318 -340.573505 
L 778.047424 -352.793677 
L 817.52053 -316.789908 
L 856.993636 -324.558153 
L 896.466742 -346.28788 
L 935.939848 -403.464461 
L 975.412955 -335.717731 
L 1014.886061 -366.237371 
L 1054.359167 -357.452411 
L 1093.832273 -335.302232 
L 1093.832273 -430.045757 
L 1093.832273 -430.045757 
L 1054.359167 -435.805571 
L 1014.886061 -425.750194 
L 975.412955 -479.413862 
L 935.939848 -495.843827 
L 896.466742 -460.534037 
L 856.993636 -457.954298 
L 817.52053 -413.152011 
L 778.047424 -429.921315 
L 738.574318 -418.603839 
L 699.101212 -461.011341 
L 659.628106 -461.77476 
L 620.155 -444.97607 
L 580.681894 -406.022107 
L 541.208788 -445.666522 
L 501.735682 -483.103461 
L 462.262576 -457.437036 
L 422.78947 -437.717004 
L 383.316364 -463.29554 
L 343.843258 -443.966823 
L 304.370152 -423.883005 
L 264.897045 -399.620216 
L 225.423939 -404.558817 
L 185.950833 -434.804823 
L 146.477727 -476.571 
z
" style="stroke: #ff7f0e; stroke-opacity: 0.2"/>
    </defs>
    <g clip-path="url(#p22b7f49acc)">
     <use xlink:href="#me65e15861a" x="0" y="576" style="fill: #ff7f0e; fill-opacity: 0.2; stroke: #ff7f0e; stroke-opacity: 0.2"/>
    </g>
   </g>
   <g id="PolyCollection_3">
    <defs>
     <path id="m53c9d6c4a6" d="M 146.477727 -427.724524 
L 146.477727 -341.520018 
L 185.950833 -263.861151 
L 225.423939 -250.952586 
L 264.897045 -272.272295 
L 304.370152 -265.877547 
L 343.843258 -312.567388 
L 383.316364 -327.473782 
L 422.78947 -273.181182 
L 462.262576 -319.44911 
L 501.735682 -298.03163 
L 541.208788 -303.627274 
L 580.681894 -232.442272 
L 620.155 -285.947158 
L 659.628106 -272.26339 
L 699.101212 -278.721787 
L 738.574318 -250.666248 
L 778.047424 -261.384254 
L 817.52053 -267.926293 
L 856.993636 -235.66177 
L 896.466742 -251.666212 
L 935.939848 -274.883176 
L 975.412955 -272.887257 
L 1014.886061 -283.881624 
L 1054.359167 -301.11348 
L 1093.832273 -249.499747 
L 1093.832273 -343.572005 
L 1093.832273 -343.572005 
L 1054.359167 -384.322534 
L 1014.886061 -350.420559 
L 975.412955 -388.088453 
L 935.939848 -388.417799 
L 896.466742 -326.51923 
L 856.993636 -354.064523 
L 817.52053 -337.432149 
L 778.047424 -363.894029 
L 738.574318 -358.855129 
L 699.101212 -374.283541 
L 659.628106 -375.700058 
L 620.155 -362.893219 
L 580.681894 -369.517874 
L 541.208788 -375.879995 
L 501.735682 -422.132273 
L 462.262576 -386.004143 
L 422.78947 -369.510586 
L 383.316364 -413.446936 
L 343.843258 -375.193484 
L 304.370152 -323.819501 
L 264.897045 -369.659405 
L 225.423939 -342.85204 
L 185.950833 -367.874881 
L 146.477727 -427.724524 
z
" style="stroke: #2ca02c; stroke-opacity: 0.2"/>
    </defs>
    <g clip-path="url(#p22b7f49acc)">
     <use xlink:href="#m53c9d6c4a6" x="0" y="576" style="fill: #2ca02c; fill-opacity: 0.2; stroke: #2ca02c; stroke-opacity: 0.2"/>
    </g>
   </g>
   <g id="PolyCollection_4">
    <defs>
     <path id="m00eecbca3c" d="M 146.477727 -384.46583 
L 146.477727 -247.689132 
L 185.950833 -239.756588 
L 225.423939 -184.204435 
L 264.897045 -175.671482 
L 304.370152 -190.716764 
L 343.843258 -259.340107 
L 383.316364 -307.325166 
L 422.78947 -189.960312 
L 462.262576 -191.553866 
L 501.735682 -242.743956 
L 541.208788 -226.193424 
L 580.681894 -243.432096 
L 620.155 -225.119043 
L 659.628106 -219.690738 
L 699.101212 -230.754869 
L 738.574318 -191.775146 
L 778.047424 -196.440736 
L 817.52053 -162.658709 
L 856.993636 -238.554151 
L 896.466742 -172.66852 
L 935.939848 -193.335178 
L 975.412955 -171.560686 
L 1014.886061 -160.748823 
L 1054.359167 -132.230602 
L 1093.832273 -146.995837 
L 1093.832273 -239.525048 
L 1093.832273 -239.525048 
L 1054.359167 -209.979582 
L 1014.886061 -263.013061 
L 975.412955 -299.085345 
L 935.939848 -330.812208 
L 896.466742 -305.375759 
L 856.993636 -319.814468 
L 817.52053 -288.200162 
L 778.047424 -379.467937 
L 738.574318 -357.154059 
L 699.101212 -297.427263 
L 659.628106 -310.612782 
L 620.155 -275.426319 
L 580.681894 -367.413244 
L 541.208788 -370.230741 
L 501.735682 -366.614202 
L 462.262576 -365.584519 
L 422.78947 -350.410726 
L 383.316364 -399.765752 
L 343.843258 -340.044398 
L 304.370152 -310.509117 
L 264.897045 -284.870179 
L 225.423939 -271.479427 
L 185.950833 -297.746493 
L 146.477727 -384.46583 
z
" style="stroke: #d62728; stroke-opacity: 0.2"/>
    </defs>
    <g clip-path="url(#p22b7f49acc)">
     <use xlink:href="#m00eecbca3c" x="0" y="576" style="fill: #d62728; fill-opacity: 0.2; stroke: #d62728; stroke-opacity: 0.2"/>
    </g>
   </g>
   <g id="PolyCollection_5">
    <defs>
     <path id="ma17b48feb7" d="M 146.477727 -397.299773 
L 146.477727 -249.889588 
L 185.950833 -215.195404 
L 225.423939 -172.303195 
L 264.897045 -197.903518 
L 304.370152 -254.326677 
L 343.843258 -318.156893 
L 383.316364 -240.867404 
L 422.78947 -194.437087 
L 462.262576 -295.881807 
L 501.735682 -255.761184 
L 541.208788 -244.805913 
L 580.681894 -270.230716 
L 620.155 -230.041362 
L 659.628106 -272.206254 
L 699.101212 -253.061413 
L 738.574318 -249.778759 
L 778.047424 -226.564608 
L 817.52053 -240.460732 
L 856.993636 -178.047714 
L 896.466742 -209.141936 
L 935.939848 -267.24477 
L 975.412955 -245.240173 
L 1014.886061 -298.387902 
L 1054.359167 -201.877485 
L 1093.832273 -241.46753 
L 1093.832273 -340.972031 
L 1093.832273 -340.972031 
L 1054.359167 -284.567131 
L 1014.886061 -369.006729 
L 975.412955 -345.34212 
L 935.939848 -338.959373 
L 896.466742 -317.798292 
L 856.993636 -333.696794 
L 817.52053 -354.101328 
L 778.047424 -382.310817 
L 738.574318 -354.411848 
L 699.101212 -351.050662 
L 659.628106 -330.509962 
L 620.155 -295.217974 
L 580.681894 -334.322509 
L 541.208788 -309.526333 
L 501.735682 -344.855349 
L 462.262576 -385.884077 
L 422.78947 -346.068013 
L 383.316364 -362.985556 
L 343.843258 -414.913613 
L 304.370152 -352.822468 
L 264.897045 -328.118805 
L 225.423939 -314.308333 
L 185.950833 -321.525659 
L 146.477727 -397.299773 
z
" style="stroke: #9467bd; stroke-opacity: 0.2"/>
    </defs>
    <g clip-path="url(#p22b7f49acc)">
     <use xlink:href="#ma17b48feb7" x="0" y="576" style="fill: #9467bd; fill-opacity: 0.2; stroke: #9467bd; stroke-opacity: 0.2"/>
    </g>
   </g>
   <g id="PolyCollection_6">
    <defs>
     <path id="m9d963b141b" d="M 146.477727 -365.525502 
L 146.477727 -291.103895 
L 185.950833 -230.960124 
L 225.423939 -257.573549 
L 264.897045 -238.74522 
L 304.370152 -255.942264 
L 343.843258 -289.016515 
L 383.316364 -314.000413 
L 422.78947 -261.345928 
L 462.262576 -287.335205 
L 501.735682 -255.042852 
L 541.208788 -271.258125 
L 580.681894 -246.123286 
L 620.155 -236.567082 
L 659.628106 -263.372106 
L 699.101212 -255.085982 
L 738.574318 -232.104897 
L 778.047424 -250.188265 
L 817.52053 -228.731046 
L 856.993636 -221.685926 
L 896.466742 -249.419755 
L 935.939848 -260.445921 
L 975.412955 -266.187226 
L 1014.886061 -239.882332 
L 1054.359167 -223.57235 
L 1093.832273 -215.076351 
L 1093.832273 -306.96249 
L 1093.832273 -306.96249 
L 1054.359167 -289.260124 
L 1014.886061 -302.432467 
L 975.412955 -313.555965 
L 935.939848 -345.945843 
L 896.466742 -277.825608 
L 856.993636 -277.772659 
L 817.52053 -291.115493 
L 778.047424 -296.445057 
L 738.574318 -289.587953 
L 699.101212 -314.127934 
L 659.628106 -332.350762 
L 620.155 -277.925826 
L 580.681894 -285.589056 
L 541.208788 -312.125776 
L 501.735682 -316.765079 
L 462.262576 -319.231567 
L 422.78947 -320.684149 
L 383.316364 -350.767705 
L 343.843258 -336.620469 
L 304.370152 -333.094008 
L 264.897045 -311.676672 
L 225.423939 -300.019564 
L 185.950833 -298.315642 
L 146.477727 -365.525502 
z
" style="stroke: #8c564b; stroke-opacity: 0.2"/>
    </defs>
    <g clip-path="url(#p22b7f49acc)">
     <use xlink:href="#m9d963b141b" x="0" y="576" style="fill: #8c564b; fill-opacity: 0.2; stroke: #8c564b; stroke-opacity: 0.2"/>
    </g>
   </g>
   <g id="PolyCollection_7">
    <defs>
     <path id="m3e0bc7e18e" d="M 146.477727 -500.971025 
L 146.477727 -401.961605 
L 185.950833 -355.378244 
L 225.423939 -421.894123 
L 264.897045 -405.735893 
L 304.370152 -386.141339 
L 343.843258 -418.268405 
L 383.316364 -471.610705 
L 422.78947 -370.853784 
L 462.262576 -437.566836 
L 501.735682 -423.947849 
L 541.208788 -418.849026 
L 580.681894 -432.874613 
L 620.155 -428.059187 
L 659.628106 -408.970836 
L 699.101212 -361.134537 
L 738.574318 -366.587519 
L 778.047424 -418.8454 
L 817.52053 -384.360529 
L 856.993636 -391.01017 
L 896.466742 -381.818486 
L 935.939848 -404.469363 
L 975.412955 -381.172777 
L 1014.886061 -326.587454 
L 1054.359167 -315.498625 
L 1093.832273 -353.140889 
L 1093.832273 -432.562485 
L 1093.832273 -432.562485 
L 1054.359167 -418.285853 
L 1014.886061 -476.842046 
L 975.412955 -472.228108 
L 935.939848 -482.734897 
L 896.466742 -474.464209 
L 856.993636 -445.042976 
L 817.52053 -457.321188 
L 778.047424 -444.536308 
L 738.574318 -449.214681 
L 699.101212 -473.027511 
L 659.628106 -490.933181 
L 620.155 -503.758555 
L 580.681894 -500.612272 
L 541.208788 -543.425818 
L 501.735682 -505.346932 
L 462.262576 -517.824542 
L 422.78947 -500.173427 
L 383.316364 -526.353575 
L 343.843258 -497.67053 
L 304.370152 -473.692059 
L 264.897045 -484.035701 
L 225.423939 -456.690599 
L 185.950833 -447.791908 
L 146.477727 -500.971025 
z
" style="stroke: #e377c2; stroke-opacity: 0.2"/>
    </defs>
    <g clip-path="url(#p22b7f49acc)">
     <use xlink:href="#m3e0bc7e18e" x="0" y="576" style="fill: #e377c2; fill-opacity: 0.2; stroke: #e377c2; stroke-opacity: 0.2"/>
    </g>
   </g>
   <g id="PolyCollection_8">
    <defs>
     <path id="m5bc1f8724f" d="M 146.477727 -298.213692 
L 146.477727 -211.615993 
L 185.950833 -130.336824 
L 225.423939 -143.495727 
L 264.897045 -156.695816 
L 304.370152 -161.476272 
L 343.843258 -170.832035 
L 383.316364 -198.430919 
L 422.78947 -156.754838 
L 462.262576 -176.654124 
L 501.735682 -184.81653 
L 541.208788 -158.96018 
L 580.681894 -111.186497 
L 620.155 -180.71938 
L 659.628106 -147.572286 
L 699.101212 -175.926141 
L 738.574318 -128.561398 
L 778.047424 -143.717828 
L 817.52053 -132.512772 
L 856.993636 -127.05215 
L 896.466742 -107.942182 
L 935.939848 -167.039646 
L 975.412955 -147.841356 
L 1014.886061 -159.087183 
L 1054.359167 -172.984047 
L 1093.832273 -142.223425 
L 1093.832273 -244.096187 
L 1093.832273 -244.096187 
L 1054.359167 -260.245679 
L 1014.886061 -248.832583 
L 975.412955 -279.474913 
L 935.939848 -265.506626 
L 896.466742 -219.394098 
L 856.993636 -253.534112 
L 817.52053 -190.597895 
L 778.047424 -243.829643 
L 738.574318 -235.015917 
L 699.101212 -242.135436 
L 659.628106 -265.509952 
L 620.155 -235.732808 
L 580.681894 -221.473041 
L 541.208788 -225.105959 
L 501.735682 -282.748558 
L 462.262576 -296.811911 
L 422.78947 -232.548005 
L 383.316364 -283.68501 
L 343.843258 -250.933941 
L 304.370152 -241.677692 
L 264.897045 -264.402338 
L 225.423939 -252.428912 
L 185.950833 -239.968614 
L 146.477727 -298.213692 
z
" style="stroke: #7f7f7f; stroke-opacity: 0.2"/>
    </defs>
    <g clip-path="url(#p22b7f49acc)">
     <use xlink:href="#m5bc1f8724f" x="0" y="576" style="fill: #7f7f7f; fill-opacity: 0.2; stroke: #7f7f7f; stroke-opacity: 0.2"/>
    </g>
   </g>
   <g id="matplotlib.axis_1">
    <g id="xtick_1">
     <g id="line2d_1">
      <defs>
       <path id="m4cab2e8c6e" d="M 0 0 
L 0 3.5 
" style="stroke: #000000; stroke-width: 0.8"/>
      </defs>
      <g>
       <use xlink:href="#m4cab2e8c6e" x="126.741174" y="489.832" style="stroke: #000000; stroke-width: 0.8"/>
      </g>
     </g>
     <g id="text_1">
      <!-- 0 -->
      <g transform="translate(120.378674 512.028875) scale(0.2 -0.2)">
       <defs>
        <path id="DejaVuSans-30" d="M 2034 4250 
Q 1547 4250 1301 3770 
Q 1056 3291 1056 2328 
Q 1056 1369 1301 889 
Q 1547 409 2034 409 
Q 2525 409 2770 889 
Q 3016 1369 3016 2328 
Q 3016 3291 2770 3770 
Q 2525 4250 2034 4250 
z
M 2034 4750 
Q 2819 4750 3233 4129 
Q 3647 3509 3647 2328 
Q 3647 1150 3233 529 
Q 2819 -91 2034 -91 
Q 1250 -91 836 529 
Q 422 1150 422 2328 
Q 422 3509 836 4129 
Q 1250 4750 2034 4750 
z
" transform="scale(0.015625)"/>
       </defs>
       <use xlink:href="#DejaVuSans-30"/>
      </g>
     </g>
    </g>
    <g id="xtick_2">
     <g id="line2d_2">
      <g>
       <use xlink:href="#m4cab2e8c6e" x="324.106705" y="489.832" style="stroke: #000000; stroke-width: 0.8"/>
      </g>
     </g>
     <g id="text_2">
      <!-- 10 -->
      <g transform="translate(311.381705 512.028875) scale(0.2 -0.2)">
       <defs>
        <path id="DejaVuSans-31" d="M 794 531 
L 1825 531 
L 1825 4091 
L 703 3866 
L 703 4441 
L 1819 4666 
L 2450 4666 
L 2450 531 
L 3481 531 
L 3481 0 
L 794 0 
L 794 531 
z
" transform="scale(0.015625)"/>
       </defs>
       <use xlink:href="#DejaVuSans-31"/>
       <use xlink:href="#DejaVuSans-30" x="63.623047"/>
      </g>
     </g>
    </g>
    <g id="xtick_3">
     <g id="line2d_3">
      <g>
       <use xlink:href="#m4cab2e8c6e" x="521.472235" y="489.832" style="stroke: #000000; stroke-width: 0.8"/>
      </g>
     </g>
     <g id="text_3">
      <!-- 20 -->
      <g transform="translate(508.747235 512.028875) scale(0.2 -0.2)">
       <defs>
        <path id="DejaVuSans-32" d="M 1228 531 
L 3431 531 
L 3431 0 
L 469 0 
L 469 531 
Q 828 903 1448 1529 
Q 2069 2156 2228 2338 
Q 2531 2678 2651 2914 
Q 2772 3150 2772 3378 
Q 2772 3750 2511 3984 
Q 2250 4219 1831 4219 
Q 1534 4219 1204 4116 
Q 875 4013 500 3803 
L 500 4441 
Q 881 4594 1212 4672 
Q 1544 4750 1819 4750 
Q 2544 4750 2975 4387 
Q 3406 4025 3406 3419 
Q 3406 3131 3298 2873 
Q 3191 2616 2906 2266 
Q 2828 2175 2409 1742 
Q 1991 1309 1228 531 
z
" transform="scale(0.015625)"/>
       </defs>
       <use xlink:href="#DejaVuSans-32"/>
       <use xlink:href="#DejaVuSans-30" x="63.623047"/>
      </g>
     </g>
    </g>
    <g id="xtick_4">
     <g id="line2d_4">
      <g>
       <use xlink:href="#m4cab2e8c6e" x="718.837765" y="489.832" style="stroke: #000000; stroke-width: 0.8"/>
      </g>
     </g>
     <g id="text_4">
      <!-- 30 -->
      <g transform="translate(706.112765 512.028875) scale(0.2 -0.2)">
       <defs>
        <path id="DejaVuSans-33" d="M 2597 2516 
Q 3050 2419 3304 2112 
Q 3559 1806 3559 1356 
Q 3559 666 3084 287 
Q 2609 -91 1734 -91 
Q 1441 -91 1130 -33 
Q 819 25 488 141 
L 488 750 
Q 750 597 1062 519 
Q 1375 441 1716 441 
Q 2309 441 2620 675 
Q 2931 909 2931 1356 
Q 2931 1769 2642 2001 
Q 2353 2234 1838 2234 
L 1294 2234 
L 1294 2753 
L 1863 2753 
Q 2328 2753 2575 2939 
Q 2822 3125 2822 3475 
Q 2822 3834 2567 4026 
Q 2313 4219 1838 4219 
Q 1578 4219 1281 4162 
Q 984 4106 628 3988 
L 628 4550 
Q 988 4650 1302 4700 
Q 1616 4750 1894 4750 
Q 2613 4750 3031 4423 
Q 3450 4097 3450 3541 
Q 3450 3153 3228 2886 
Q 3006 2619 2597 2516 
z
" transform="scale(0.015625)"/>
       </defs>
       <use xlink:href="#DejaVuSans-33"/>
       <use xlink:href="#DejaVuSans-30" x="63.623047"/>
      </g>
     </g>
    </g>
    <g id="xtick_5">
     <g id="line2d_5">
      <g>
       <use xlink:href="#m4cab2e8c6e" x="916.203295" y="489.832" style="stroke: #000000; stroke-width: 0.8"/>
      </g>
     </g>
     <g id="text_5">
      <!-- 40 -->
      <g transform="translate(903.478295 512.028875) scale(0.2 -0.2)">
       <defs>
        <path id="DejaVuSans-34" d="M 2419 4116 
L 825 1625 
L 2419 1625 
L 2419 4116 
z
M 2253 4666 
L 3047 4666 
L 3047 1625 
L 3713 1625 
L 3713 1100 
L 3047 1100 
L 3047 0 
L 2419 0 
L 2419 1100 
L 313 1100 
L 313 1709 
L 2253 4666 
z
" transform="scale(0.015625)"/>
       </defs>
       <use xlink:href="#DejaVuSans-34"/>
       <use xlink:href="#DejaVuSans-30" x="63.623047"/>
      </g>
     </g>
    </g>
    <g id="xtick_6">
     <g id="line2d_6">
      <g>
       <use xlink:href="#m4cab2e8c6e" x="1113.568826" y="489.832" style="stroke: #000000; stroke-width: 0.8"/>
      </g>
     </g>
     <g id="text_6">
      <!-- 50 -->
      <g transform="translate(1100.843826 512.028875) scale(0.2 -0.2)">
       <defs>
        <path id="DejaVuSans-35" d="M 691 4666 
L 3169 4666 
L 3169 4134 
L 1269 4134 
L 1269 2991 
Q 1406 3038 1543 3061 
Q 1681 3084 1819 3084 
Q 2600 3084 3056 2656 
Q 3513 2228 3513 1497 
Q 3513 744 3044 326 
Q 2575 -91 1722 -91 
Q 1428 -91 1123 -41 
Q 819 9 494 109 
L 494 744 
Q 775 591 1075 516 
Q 1375 441 1709 441 
Q 2250 441 2565 725 
Q 2881 1009 2881 1497 
Q 2881 1984 2565 2268 
Q 2250 2553 1709 2553 
Q 1456 2553 1204 2497 
Q 953 2441 691 2322 
L 691 4666 
z
" transform="scale(0.015625)"/>
       </defs>
       <use xlink:href="#DejaVuSans-35"/>
       <use xlink:href="#DejaVuSans-30" x="63.623047"/>
      </g>
     </g>
    </g>
    <g id="text_7">
     <!-- Percentile Threshold -->
     <g transform="translate(518.375313 535.385125) scale(0.2 -0.2)">
      <defs>
       <path id="DejaVuSans-50" d="M 1259 4147 
L 1259 2394 
L 2053 2394 
Q 2494 2394 2734 2622 
Q 2975 2850 2975 3272 
Q 2975 3691 2734 3919 
Q 2494 4147 2053 4147 
L 1259 4147 
z
M 628 4666 
L 2053 4666 
Q 2838 4666 3239 4311 
Q 3641 3956 3641 3272 
Q 3641 2581 3239 2228 
Q 2838 1875 2053 1875 
L 1259 1875 
L 1259 0 
L 628 0 
L 628 4666 
z
" transform="scale(0.015625)"/>
       <path id="DejaVuSans-65" d="M 3597 1894 
L 3597 1613 
L 953 1613 
Q 991 1019 1311 708 
Q 1631 397 2203 397 
Q 2534 397 2845 478 
Q 3156 559 3463 722 
L 3463 178 
Q 3153 47 2828 -22 
Q 2503 -91 2169 -91 
Q 1331 -91 842 396 
Q 353 884 353 1716 
Q 353 2575 817 3079 
Q 1281 3584 2069 3584 
Q 2775 3584 3186 3129 
Q 3597 2675 3597 1894 
z
M 3022 2063 
Q 3016 2534 2758 2815 
Q 2500 3097 2075 3097 
Q 1594 3097 1305 2825 
Q 1016 2553 972 2059 
L 3022 2063 
z
" transform="scale(0.015625)"/>
       <path id="DejaVuSans-72" d="M 2631 2963 
Q 2534 3019 2420 3045 
Q 2306 3072 2169 3072 
Q 1681 3072 1420 2755 
Q 1159 2438 1159 1844 
L 1159 0 
L 581 0 
L 581 3500 
L 1159 3500 
L 1159 2956 
Q 1341 3275 1631 3429 
Q 1922 3584 2338 3584 
Q 2397 3584 2469 3576 
Q 2541 3569 2628 3553 
L 2631 2963 
z
" transform="scale(0.015625)"/>
       <path id="DejaVuSans-63" d="M 3122 3366 
L 3122 2828 
Q 2878 2963 2633 3030 
Q 2388 3097 2138 3097 
Q 1578 3097 1268 2742 
Q 959 2388 959 1747 
Q 959 1106 1268 751 
Q 1578 397 2138 397 
Q 2388 397 2633 464 
Q 2878 531 3122 666 
L 3122 134 
Q 2881 22 2623 -34 
Q 2366 -91 2075 -91 
Q 1284 -91 818 406 
Q 353 903 353 1747 
Q 353 2603 823 3093 
Q 1294 3584 2113 3584 
Q 2378 3584 2631 3529 
Q 2884 3475 3122 3366 
z
" transform="scale(0.015625)"/>
       <path id="DejaVuSans-6e" d="M 3513 2113 
L 3513 0 
L 2938 0 
L 2938 2094 
Q 2938 2591 2744 2837 
Q 2550 3084 2163 3084 
Q 1697 3084 1428 2787 
Q 1159 2491 1159 1978 
L 1159 0 
L 581 0 
L 581 3500 
L 1159 3500 
L 1159 2956 
Q 1366 3272 1645 3428 
Q 1925 3584 2291 3584 
Q 2894 3584 3203 3211 
Q 3513 2838 3513 2113 
z
" transform="scale(0.015625)"/>
       <path id="DejaVuSans-74" d="M 1172 4494 
L 1172 3500 
L 2356 3500 
L 2356 3053 
L 1172 3053 
L 1172 1153 
Q 1172 725 1289 603 
Q 1406 481 1766 481 
L 2356 481 
L 2356 0 
L 1766 0 
Q 1100 0 847 248 
Q 594 497 594 1153 
L 594 3053 
L 172 3053 
L 172 3500 
L 594 3500 
L 594 4494 
L 1172 4494 
z
" transform="scale(0.015625)"/>
       <path id="DejaVuSans-69" d="M 603 3500 
L 1178 3500 
L 1178 0 
L 603 0 
L 603 3500 
z
M 603 4863 
L 1178 4863 
L 1178 4134 
L 603 4134 
L 603 4863 
z
" transform="scale(0.015625)"/>
       <path id="DejaVuSans-6c" d="M 603 4863 
L 1178 4863 
L 1178 0 
L 603 0 
L 603 4863 
z
" transform="scale(0.015625)"/>
       <path id="DejaVuSans-20" transform="scale(0.015625)"/>
       <path id="DejaVuSans-54" d="M -19 4666 
L 3928 4666 
L 3928 4134 
L 2272 4134 
L 2272 0 
L 1638 0 
L 1638 4134 
L -19 4134 
L -19 4666 
z
" transform="scale(0.015625)"/>
       <path id="DejaVuSans-68" d="M 3513 2113 
L 3513 0 
L 2938 0 
L 2938 2094 
Q 2938 2591 2744 2837 
Q 2550 3084 2163 3084 
Q 1697 3084 1428 2787 
Q 1159 2491 1159 1978 
L 1159 0 
L 581 0 
L 581 4863 
L 1159 4863 
L 1159 2956 
Q 1366 3272 1645 3428 
Q 1925 3584 2291 3584 
Q 2894 3584 3203 3211 
Q 3513 2838 3513 2113 
z
" transform="scale(0.015625)"/>
       <path id="DejaVuSans-73" d="M 2834 3397 
L 2834 2853 
Q 2591 2978 2328 3040 
Q 2066 3103 1784 3103 
Q 1356 3103 1142 2972 
Q 928 2841 928 2578 
Q 928 2378 1081 2264 
Q 1234 2150 1697 2047 
L 1894 2003 
Q 2506 1872 2764 1633 
Q 3022 1394 3022 966 
Q 3022 478 2636 193 
Q 2250 -91 1575 -91 
Q 1294 -91 989 -36 
Q 684 19 347 128 
L 347 722 
Q 666 556 975 473 
Q 1284 391 1588 391 
Q 1994 391 2212 530 
Q 2431 669 2431 922 
Q 2431 1156 2273 1281 
Q 2116 1406 1581 1522 
L 1381 1569 
Q 847 1681 609 1914 
Q 372 2147 372 2553 
Q 372 3047 722 3315 
Q 1072 3584 1716 3584 
Q 2034 3584 2315 3537 
Q 2597 3491 2834 3397 
z
" transform="scale(0.015625)"/>
       <path id="DejaVuSans-6f" d="M 1959 3097 
Q 1497 3097 1228 2736 
Q 959 2375 959 1747 
Q 959 1119 1226 758 
Q 1494 397 1959 397 
Q 2419 397 2687 759 
Q 2956 1122 2956 1747 
Q 2956 2369 2687 2733 
Q 2419 3097 1959 3097 
z
M 1959 3584 
Q 2709 3584 3137 3096 
Q 3566 2609 3566 1747 
Q 3566 888 3137 398 
Q 2709 -91 1959 -91 
Q 1206 -91 779 398 
Q 353 888 353 1747 
Q 353 2609 779 3096 
Q 1206 3584 1959 3584 
z
" transform="scale(0.015625)"/>
       <path id="DejaVuSans-64" d="M 2906 2969 
L 2906 4863 
L 3481 4863 
L 3481 0 
L 2906 0 
L 2906 525 
Q 2725 213 2448 61 
Q 2172 -91 1784 -91 
Q 1150 -91 751 415 
Q 353 922 353 1747 
Q 353 2572 751 3078 
Q 1150 3584 1784 3584 
Q 2172 3584 2448 3432 
Q 2725 3281 2906 2969 
z
M 947 1747 
Q 947 1113 1208 752 
Q 1469 391 1925 391 
Q 2381 391 2643 752 
Q 2906 1113 2906 1747 
Q 2906 2381 2643 2742 
Q 2381 3103 1925 3103 
Q 1469 3103 1208 2742 
Q 947 2381 947 1747 
z
" transform="scale(0.015625)"/>
      </defs>
      <use xlink:href="#DejaVuSans-50"/>
      <use xlink:href="#DejaVuSans-65" x="56.677734"/>
      <use xlink:href="#DejaVuSans-72" x="118.201172"/>
      <use xlink:href="#DejaVuSans-63" x="157.064453"/>
      <use xlink:href="#DejaVuSans-65" x="212.044922"/>
      <use xlink:href="#DejaVuSans-6e" x="273.568359"/>
      <use xlink:href="#DejaVuSans-74" x="336.947266"/>
      <use xlink:href="#DejaVuSans-69" x="376.15625"/>
      <use xlink:href="#DejaVuSans-6c" x="403.939453"/>
      <use xlink:href="#DejaVuSans-65" x="431.722656"/>
      <use xlink:href="#DejaVuSans-20" x="493.246094"/>
      <use xlink:href="#DejaVuSans-54" x="525.033203"/>
      <use xlink:href="#DejaVuSans-68" x="586.117188"/>
      <use xlink:href="#DejaVuSans-72" x="649.496094"/>
      <use xlink:href="#DejaVuSans-65" x="688.359375"/>
      <use xlink:href="#DejaVuSans-73" x="749.882812"/>
      <use xlink:href="#DejaVuSans-68" x="801.982422"/>
      <use xlink:href="#DejaVuSans-6f" x="865.361328"/>
      <use xlink:href="#DejaVuSans-6c" x="926.542969"/>
      <use xlink:href="#DejaVuSans-64" x="954.326172"/>
     </g>
     <!-- (Using "max_mean" Threshold Handling) -->
     <g transform="translate(416.625313 557.78075) scale(0.2 -0.2)">
      <defs>
       <path id="DejaVuSans-28" d="M 1984 4856 
Q 1566 4138 1362 3434 
Q 1159 2731 1159 2009 
Q 1159 1288 1364 580 
Q 1569 -128 1984 -844 
L 1484 -844 
Q 1016 -109 783 600 
Q 550 1309 550 2009 
Q 550 2706 781 3412 
Q 1013 4119 1484 4856 
L 1984 4856 
z
" transform="scale(0.015625)"/>
       <path id="DejaVuSans-55" d="M 556 4666 
L 1191 4666 
L 1191 1831 
Q 1191 1081 1462 751 
Q 1734 422 2344 422 
Q 2950 422 3222 751 
Q 3494 1081 3494 1831 
L 3494 4666 
L 4128 4666 
L 4128 1753 
Q 4128 841 3676 375 
Q 3225 -91 2344 -91 
Q 1459 -91 1007 375 
Q 556 841 556 1753 
L 556 4666 
z
" transform="scale(0.015625)"/>
       <path id="DejaVuSans-67" d="M 2906 1791 
Q 2906 2416 2648 2759 
Q 2391 3103 1925 3103 
Q 1463 3103 1205 2759 
Q 947 2416 947 1791 
Q 947 1169 1205 825 
Q 1463 481 1925 481 
Q 2391 481 2648 825 
Q 2906 1169 2906 1791 
z
M 3481 434 
Q 3481 -459 3084 -895 
Q 2688 -1331 1869 -1331 
Q 1566 -1331 1297 -1286 
Q 1028 -1241 775 -1147 
L 775 -588 
Q 1028 -725 1275 -790 
Q 1522 -856 1778 -856 
Q 2344 -856 2625 -561 
Q 2906 -266 2906 331 
L 2906 616 
Q 2728 306 2450 153 
Q 2172 0 1784 0 
Q 1141 0 747 490 
Q 353 981 353 1791 
Q 353 2603 747 3093 
Q 1141 3584 1784 3584 
Q 2172 3584 2450 3431 
Q 2728 3278 2906 2969 
L 2906 3500 
L 3481 3500 
L 3481 434 
z
" transform="scale(0.015625)"/>
       <path id="DejaVuSans-22" d="M 1147 4666 
L 1147 2931 
L 616 2931 
L 616 4666 
L 1147 4666 
z
M 2328 4666 
L 2328 2931 
L 1797 2931 
L 1797 4666 
L 2328 4666 
z
" transform="scale(0.015625)"/>
       <path id="DejaVuSans-6d" d="M 3328 2828 
Q 3544 3216 3844 3400 
Q 4144 3584 4550 3584 
Q 5097 3584 5394 3201 
Q 5691 2819 5691 2113 
L 5691 0 
L 5113 0 
L 5113 2094 
Q 5113 2597 4934 2840 
Q 4756 3084 4391 3084 
Q 3944 3084 3684 2787 
Q 3425 2491 3425 1978 
L 3425 0 
L 2847 0 
L 2847 2094 
Q 2847 2600 2669 2842 
Q 2491 3084 2119 3084 
Q 1678 3084 1418 2786 
Q 1159 2488 1159 1978 
L 1159 0 
L 581 0 
L 581 3500 
L 1159 3500 
L 1159 2956 
Q 1356 3278 1631 3431 
Q 1906 3584 2284 3584 
Q 2666 3584 2933 3390 
Q 3200 3197 3328 2828 
z
" transform="scale(0.015625)"/>
       <path id="DejaVuSans-61" d="M 2194 1759 
Q 1497 1759 1228 1600 
Q 959 1441 959 1056 
Q 959 750 1161 570 
Q 1363 391 1709 391 
Q 2188 391 2477 730 
Q 2766 1069 2766 1631 
L 2766 1759 
L 2194 1759 
z
M 3341 1997 
L 3341 0 
L 2766 0 
L 2766 531 
Q 2569 213 2275 61 
Q 1981 -91 1556 -91 
Q 1019 -91 701 211 
Q 384 513 384 1019 
Q 384 1609 779 1909 
Q 1175 2209 1959 2209 
L 2766 2209 
L 2766 2266 
Q 2766 2663 2505 2880 
Q 2244 3097 1772 3097 
Q 1472 3097 1187 3025 
Q 903 2953 641 2809 
L 641 3341 
Q 956 3463 1253 3523 
Q 1550 3584 1831 3584 
Q 2591 3584 2966 3190 
Q 3341 2797 3341 1997 
z
" transform="scale(0.015625)"/>
       <path id="DejaVuSans-78" d="M 3513 3500 
L 2247 1797 
L 3578 0 
L 2900 0 
L 1881 1375 
L 863 0 
L 184 0 
L 1544 1831 
L 300 3500 
L 978 3500 
L 1906 2253 
L 2834 3500 
L 3513 3500 
z
" transform="scale(0.015625)"/>
       <path id="DejaVuSans-5f" d="M 3263 -1063 
L 3263 -1509 
L -63 -1509 
L -63 -1063 
L 3263 -1063 
z
" transform="scale(0.015625)"/>
       <path id="DejaVuSans-48" d="M 628 4666 
L 1259 4666 
L 1259 2753 
L 3553 2753 
L 3553 4666 
L 4184 4666 
L 4184 0 
L 3553 0 
L 3553 2222 
L 1259 2222 
L 1259 0 
L 628 0 
L 628 4666 
z
" transform="scale(0.015625)"/>
       <path id="DejaVuSans-29" d="M 513 4856 
L 1013 4856 
Q 1481 4119 1714 3412 
Q 1947 2706 1947 2009 
Q 1947 1309 1714 600 
Q 1481 -109 1013 -844 
L 513 -844 
Q 928 -128 1133 580 
Q 1338 1288 1338 2009 
Q 1338 2731 1133 3434 
Q 928 4138 513 4856 
z
" transform="scale(0.015625)"/>
      </defs>
      <use xlink:href="#DejaVuSans-28"/>
      <use xlink:href="#DejaVuSans-55" x="39.013672"/>
      <use xlink:href="#DejaVuSans-73" x="112.207031"/>
      <use xlink:href="#DejaVuSans-69" x="164.306641"/>
      <use xlink:href="#DejaVuSans-6e" x="192.089844"/>
      <use xlink:href="#DejaVuSans-67" x="255.46875"/>
      <use xlink:href="#DejaVuSans-20" x="318.945312"/>
      <use xlink:href="#DejaVuSans-22" x="350.732422"/>
      <use xlink:href="#DejaVuSans-6d" x="396.728516"/>
      <use xlink:href="#DejaVuSans-61" x="494.140625"/>
      <use xlink:href="#DejaVuSans-78" x="555.419922"/>
      <use xlink:href="#DejaVuSans-5f" x="614.599609"/>
      <use xlink:href="#DejaVuSans-6d" x="664.599609"/>
      <use xlink:href="#DejaVuSans-65" x="762.011719"/>
      <use xlink:href="#DejaVuSans-61" x="823.535156"/>
      <use xlink:href="#DejaVuSans-6e" x="884.814453"/>
      <use xlink:href="#DejaVuSans-22" x="948.193359"/>
      <use xlink:href="#DejaVuSans-20" x="994.189453"/>
      <use xlink:href="#DejaVuSans-54" x="1025.976562"/>
      <use xlink:href="#DejaVuSans-68" x="1087.060547"/>
      <use xlink:href="#DejaVuSans-72" x="1150.439453"/>
      <use xlink:href="#DejaVuSans-65" x="1189.302734"/>
      <use xlink:href="#DejaVuSans-73" x="1250.826172"/>
      <use xlink:href="#DejaVuSans-68" x="1302.925781"/>
      <use xlink:href="#DejaVuSans-6f" x="1366.304688"/>
      <use xlink:href="#DejaVuSans-6c" x="1427.486328"/>
      <use xlink:href="#DejaVuSans-64" x="1455.269531"/>
      <use xlink:href="#DejaVuSans-20" x="1518.746094"/>
      <use xlink:href="#DejaVuSans-48" x="1550.533203"/>
      <use xlink:href="#DejaVuSans-61" x="1625.728516"/>
      <use xlink:href="#DejaVuSans-6e" x="1687.007812"/>
      <use xlink:href="#DejaVuSans-64" x="1750.386719"/>
      <use xlink:href="#DejaVuSans-6c" x="1813.863281"/>
      <use xlink:href="#DejaVuSans-69" x="1841.646484"/>
      <use xlink:href="#DejaVuSans-6e" x="1869.429688"/>
      <use xlink:href="#DejaVuSans-67" x="1932.808594"/>
      <use xlink:href="#DejaVuSans-29" x="1996.285156"/>
     </g>
    </g>
   </g>
   <g id="matplotlib.axis_2">
    <g id="ytick_1">
     <g id="line2d_7">
      <defs>
       <path id="m6235bc3f83" d="M 0 0 
L -3.5 0 
" style="stroke: #000000; stroke-width: 0.8"/>
      </defs>
      <g>
       <use xlink:href="#m6235bc3f83" x="99.11" y="438.584228" style="stroke: #000000; stroke-width: 0.8"/>
      </g>
     </g>
     <g id="text_8">
      <!-- 0.019 -->
      <g transform="translate(34.85375 446.182665) scale(0.2 -0.2)">
       <defs>
        <path id="DejaVuSans-2e" d="M 684 794 
L 1344 794 
L 1344 0 
L 684 0 
L 684 794 
z
" transform="scale(0.015625)"/>
        <path id="DejaVuSans-39" d="M 703 97 
L 703 672 
Q 941 559 1184 500 
Q 1428 441 1663 441 
Q 2288 441 2617 861 
Q 2947 1281 2994 2138 
Q 2813 1869 2534 1725 
Q 2256 1581 1919 1581 
Q 1219 1581 811 2004 
Q 403 2428 403 3163 
Q 403 3881 828 4315 
Q 1253 4750 1959 4750 
Q 2769 4750 3195 4129 
Q 3622 3509 3622 2328 
Q 3622 1225 3098 567 
Q 2575 -91 1691 -91 
Q 1453 -91 1209 -44 
Q 966 3 703 97 
z
M 1959 2075 
Q 2384 2075 2632 2365 
Q 2881 2656 2881 3163 
Q 2881 3666 2632 3958 
Q 2384 4250 1959 4250 
Q 1534 4250 1286 3958 
Q 1038 3666 1038 3163 
Q 1038 2656 1286 2365 
Q 1534 2075 1959 2075 
z
" transform="scale(0.015625)"/>
       </defs>
       <use xlink:href="#DejaVuSans-30"/>
       <use xlink:href="#DejaVuSans-2e" x="63.623047"/>
       <use xlink:href="#DejaVuSans-30" x="95.410156"/>
       <use xlink:href="#DejaVuSans-31" x="159.033203"/>
       <use xlink:href="#DejaVuSans-39" x="222.65625"/>
      </g>
     </g>
    </g>
    <g id="ytick_2">
     <g id="line2d_8">
      <g>
       <use xlink:href="#m6235bc3f83" x="99.11" y="342.957623" style="stroke: #000000; stroke-width: 0.8"/>
      </g>
     </g>
     <g id="text_9">
      <!-- 0.020 -->
      <g transform="translate(34.85375 350.556061) scale(0.2 -0.2)">
       <use xlink:href="#DejaVuSans-30"/>
       <use xlink:href="#DejaVuSans-2e" x="63.623047"/>
       <use xlink:href="#DejaVuSans-30" x="95.410156"/>
       <use xlink:href="#DejaVuSans-32" x="159.033203"/>
       <use xlink:href="#DejaVuSans-30" x="222.65625"/>
      </g>
     </g>
    </g>
    <g id="ytick_3">
     <g id="line2d_9">
      <g>
       <use xlink:href="#m6235bc3f83" x="99.11" y="247.331019" style="stroke: #000000; stroke-width: 0.8"/>
      </g>
     </g>
     <g id="text_10">
      <!-- 0.021 -->
      <g transform="translate(34.85375 254.929456) scale(0.2 -0.2)">
       <use xlink:href="#DejaVuSans-30"/>
       <use xlink:href="#DejaVuSans-2e" x="63.623047"/>
       <use xlink:href="#DejaVuSans-30" x="95.410156"/>
       <use xlink:href="#DejaVuSans-32" x="159.033203"/>
       <use xlink:href="#DejaVuSans-31" x="222.65625"/>
      </g>
     </g>
    </g>
    <g id="ytick_4">
     <g id="line2d_10">
      <g>
       <use xlink:href="#m6235bc3f83" x="99.11" y="151.704414" style="stroke: #000000; stroke-width: 0.8"/>
      </g>
     </g>
     <g id="text_11">
      <!-- 0.022 -->
      <g transform="translate(34.85375 159.302852) scale(0.2 -0.2)">
       <use xlink:href="#DejaVuSans-30"/>
       <use xlink:href="#DejaVuSans-2e" x="63.623047"/>
       <use xlink:href="#DejaVuSans-30" x="95.410156"/>
       <use xlink:href="#DejaVuSans-32" x="159.033203"/>
       <use xlink:href="#DejaVuSans-32" x="222.65625"/>
      </g>
     </g>
    </g>
    <g id="ytick_5">
     <g id="line2d_11">
      <g>
       <use xlink:href="#m6235bc3f83" x="99.11" y="56.077809" style="stroke: #000000; stroke-width: 0.8"/>
      </g>
     </g>
     <g id="text_12">
      <!-- 0.023 -->
      <g transform="translate(34.85375 63.676247) scale(0.2 -0.2)">
       <use xlink:href="#DejaVuSans-30"/>
       <use xlink:href="#DejaVuSans-2e" x="63.623047"/>
       <use xlink:href="#DejaVuSans-30" x="95.410156"/>
       <use xlink:href="#DejaVuSans-32" x="159.033203"/>
       <use xlink:href="#DejaVuSans-33" x="222.65625"/>
      </g>
     </g>
    </g>
    <g id="text_13">
     <!-- MAPE -->
     <g transform="translate(26.694375 278.133188) rotate(-90) scale(0.2 -0.2)">
      <defs>
       <path id="DejaVuSans-4d" d="M 628 4666 
L 1569 4666 
L 2759 1491 
L 3956 4666 
L 4897 4666 
L 4897 0 
L 4281 0 
L 4281 4097 
L 3078 897 
L 2444 897 
L 1241 4097 
L 1241 0 
L 628 0 
L 628 4666 
z
" transform="scale(0.015625)"/>
       <path id="DejaVuSans-41" d="M 2188 4044 
L 1331 1722 
L 3047 1722 
L 2188 4044 
z
M 1831 4666 
L 2547 4666 
L 4325 0 
L 3669 0 
L 3244 1197 
L 1141 1197 
L 716 0 
L 50 0 
L 1831 4666 
z
" transform="scale(0.015625)"/>
       <path id="DejaVuSans-45" d="M 628 4666 
L 3578 4666 
L 3578 4134 
L 1259 4134 
L 1259 2753 
L 3481 2753 
L 3481 2222 
L 1259 2222 
L 1259 531 
L 3634 531 
L 3634 0 
L 628 0 
L 628 4666 
z
" transform="scale(0.015625)"/>
      </defs>
      <use xlink:href="#DejaVuSans-4d"/>
      <use xlink:href="#DejaVuSans-41" x="86.279297"/>
      <use xlink:href="#DejaVuSans-50" x="154.6875"/>
      <use xlink:href="#DejaVuSans-45" x="214.990234"/>
     </g>
    </g>
   </g>
   <g id="line2d_12">
    <path d="M 146.477727 123.331682 
L 185.950833 174.049132 
L 225.423939 141.970423 
L 264.897045 134.746183 
L 304.370152 150.067956 
L 343.843258 119.995493 
L 383.316364 77.279869 
L 422.78947 141.117975 
L 462.262576 100.934911 
L 501.735682 103.723622 
L 541.208788 100.367192 
L 580.681894 117.616494 
L 620.155 112.965519 
L 659.628106 130.130749 
L 699.101212 171.653861 
L 738.574318 162.380774 
L 778.047424 139.219006 
L 817.52053 156.548013 
L 856.993636 166.632094 
L 896.466742 154.793424 
L 935.939848 134.269405 
L 975.412955 152.493079 
L 1014.886061 172.633476 
L 1054.359167 209.621273 
L 1093.832273 186.06538 
" clip-path="url(#p22b7f49acc)" style="fill: none; stroke: #1f77b4; stroke-width: 1.5; stroke-linecap: square"/>
   </g>
   <g id="line2d_13">
    <path d="M 146.477727 138.095346 
L 185.950833 208.132159 
L 225.423939 226.844118 
L 264.897045 212.230668 
L 304.370152 190.165419 
L 343.843258 170.55865 
L 383.316364 157.016743 
L 422.78947 197.74193 
L 462.262576 139.355912 
L 501.735682 142.6473 
L 541.208788 172.427703 
L 580.681894 197.900639 
L 620.155 198.92786 
L 659.628106 161.604206 
L 699.101212 162.836482 
L 738.574318 202.278281 
L 778.047424 186.093351 
L 817.52053 210.666328 
L 856.993636 186.715258 
L 896.466742 167.536434 
L 935.939848 129.180667 
L 975.412955 167.141369 
L 1014.886061 174.425088 
L 1054.359167 178.525143 
L 1093.832273 190.20708 
" clip-path="url(#p22b7f49acc)" style="fill: none; stroke: #ff7f0e; stroke-width: 1.5; stroke-linecap: square"/>
   </g>
   <g id="line2d_14">
    <path d="M 146.477727 190.440233 
L 185.950833 261.511998 
L 225.423939 285.034134 
L 264.897045 258.891638 
L 304.370152 281.319487 
L 343.843258 231.000035 
L 383.316364 206.513392 
L 422.78947 258.468904 
L 462.262576 224.356934 
L 501.735682 218.224926 
L 541.208788 235.78519 
L 580.681894 279.437332 
L 620.155 253.702189 
L 659.628106 250.016469 
L 699.101212 245.326828 
L 738.574318 271.093146 
L 778.047424 268.227695 
L 817.52053 275.604825 
L 856.993636 288.64023 
L 896.466742 285.894423 
L 935.939848 240.865321 
L 975.412955 249.686955 
L 1014.886061 258.740803 
L 1054.359167 232.305529 
L 1093.832273 282.54652 
" clip-path="url(#p22b7f49acc)" style="fill: none; stroke: #2ca02c; stroke-width: 1.5; stroke-linecap: square"/>
   </g>
   <g id="line2d_15">
    <path d="M 146.477727 263.604404 
L 185.950833 308.224367 
L 225.423939 348.921616 
L 264.897045 345.030999 
L 304.370152 321.949048 
L 343.843258 282.918938 
L 383.316364 221.837269 
L 422.78947 309.963034 
L 462.262576 296.038589 
L 501.735682 273.505901 
L 541.208788 272.748777 
L 580.681894 268.518575 
L 620.155 324.284074 
L 659.628106 311.373128 
L 699.101212 312.651592 
L 738.574318 305.383715 
L 778.047424 295.657884 
L 817.52053 345.298626 
L 856.993636 298.811028 
L 896.466742 338.734864 
L 935.939848 310.04964 
L 975.412955 336.94051 
L 1014.886061 363.073747 
L 1054.359167 402.143399 
L 1093.832273 382.100063 
" clip-path="url(#p22b7f49acc)" style="fill: none; stroke: #d62728; stroke-width: 1.5; stroke-linecap: square"/>
   </g>
   <g id="line2d_16">
    <path d="M 146.477727 258.268353 
L 185.950833 309.9773 
L 225.423939 330.028254 
L 264.897045 306.901984 
L 304.370152 284.446165 
L 343.843258 205.516883 
L 383.316364 275.460234 
L 422.78947 309.801943 
L 462.262576 236.012601 
L 501.735682 281.284979 
L 541.208788 302.022497 
L 580.681894 275.632856 
L 620.155 308.614892 
L 659.628106 272.149861 
L 699.101212 271.17314 
L 738.574318 277.621149 
L 778.047424 263.633031 
L 817.52053 278.962856 
L 856.993636 314.061793 
L 896.466742 310.298333 
L 935.939848 275.691499 
L 975.412955 276.475948 
L 1014.886061 243.382288 
L 1054.359167 333.197983 
L 1093.832273 287.799064 
" clip-path="url(#p22b7f49acc)" style="fill: none; stroke: #9467bd; stroke-width: 1.5; stroke-linecap: square"/>
   </g>
   <g id="line2d_17">
    <path d="M 146.477727 250.534148 
L 185.950833 310.239666 
L 225.423939 297.249131 
L 264.897045 299.338764 
L 304.370152 285.842951 
L 343.843258 263.600742 
L 383.316364 241.901279 
L 422.78947 283.043509 
L 462.262576 272.85077 
L 501.735682 289.958755 
L 541.208788 285.394682 
L 580.681894 309.060531 
L 620.155 318.901969 
L 659.628106 281.275946 
L 699.101212 288.508187 
L 738.574318 312.027537 
L 778.047424 302.672467 
L 817.52053 312.93372 
L 856.993636 327.747117 
L 896.466742 311.610272 
L 935.939848 280.920531 
L 975.412955 291.971883 
L 1014.886061 306.040927 
L 1054.359167 322.766919 
L 1093.832273 317.285093 
" clip-path="url(#p22b7f49acc)" style="fill: none; stroke: #8c564b; stroke-width: 1.5; stroke-linecap: square"/>
   </g>
   <g id="line2d_18">
    <path d="M 146.477727 122.190949 
L 185.950833 174.881146 
L 225.423939 135.471399 
L 264.897045 133.407597 
L 304.370152 149.460083 
L 343.843258 118.30011 
L 383.316364 81.856007 
L 422.78947 138.8487 
L 462.262576 97.221824 
L 501.735682 106.314897 
L 541.208788 97.149884 
L 580.681894 106.805906 
L 620.155 109.535499 
L 659.628106 127.218843 
L 699.101212 161.252669 
L 738.574318 165.110863 
L 778.047424 143.717343 
L 817.52053 153.961964 
L 856.993636 159.880323 
L 896.466742 152.73529 
L 935.939848 134.24518 
L 975.412955 149.495699 
L 1014.886061 175.761916 
L 1054.359167 209.443257 
L 1093.832273 186.191981 
" clip-path="url(#p22b7f49acc)" style="fill: none; stroke: #e377c2; stroke-width: 1.5; stroke-linecap: square"/>
   </g>
   <g id="line2d_19">
    <path d="M 146.477727 321.67205 
L 185.950833 393.639292 
L 225.423939 383.479075 
L 264.897045 365.923686 
L 304.370152 380.14506 
L 343.843258 364.272004 
L 383.316364 335.99035 
L 422.78947 385.627419 
L 462.262576 348.92051 
L 501.735682 342.926221 
L 541.208788 383.478254 
L 580.681894 413.245224 
L 620.155 368.393423 
L 659.628106 370.262887 
L 699.101212 365.039571 
L 738.574318 398.271802 
L 778.047424 386.561713 
L 817.52053 412.026718 
L 856.993636 388.457939 
L 896.466742 409.961974 
L 935.939848 355.637164 
L 975.412955 366.211365 
L 1014.886061 369.126208 
L 1054.359167 359.845956 
L 1093.832273 386.590871 
" clip-path="url(#p22b7f49acc)" style="fill: none; stroke: #7f7f7f; stroke-width: 1.5; stroke-linecap: square"/>
   </g>
   <g id="line2d_20"/>
   <g id="line2d_21"/>
   <g id="line2d_22"/>
   <g id="line2d_23"/>
   <g id="line2d_24"/>
   <g id="line2d_25"/>
   <g id="line2d_26"/>
   <g id="line2d_27"/>
   <g id="patch_3">
    <path d="M 99.11 489.832 
L 99.11 10.8 
" style="fill: none; stroke: #000000; stroke-width: 0.8; stroke-linejoin: miter; stroke-linecap: square"/>
   </g>
   <g id="patch_4">
    <path d="M 1141.2 489.832 
L 1141.2 10.8 
" style="fill: none; stroke: #000000; stroke-width: 0.8; stroke-linejoin: miter; stroke-linecap: square"/>
   </g>
   <g id="patch_5">
    <path d="M 99.11 489.832 
L 1141.2 489.832 
" style="fill: none; stroke: #000000; stroke-width: 0.8; stroke-linejoin: miter; stroke-linecap: square"/>
   </g>
   <g id="patch_6">
    <path d="M 99.11 10.8 
L 1141.2 10.8 
" style="fill: none; stroke: #000000; stroke-width: 0.8; stroke-linejoin: miter; stroke-linecap: square"/>
   </g>
   <g id="legend_1">
    <g id="patch_7">
     <path d="M 110.31 481.832 
L 306.5475 481.832 
Q 309.7475 481.832 309.7475 478.632 
L 309.7475 290.572 
Q 309.7475 287.372 306.5475 287.372 
L 110.31 287.372 
Q 107.11 287.372 107.11 290.572 
L 107.11 478.632 
Q 107.11 481.832 110.31 481.832 
z
" style="fill: #ffffff; opacity: 0.8; stroke: #cccccc; stroke-linejoin: miter"/>
    </g>
    <g id="line2d_28">
     <path d="M 113.51 300.3295 
L 129.51 300.3295 
L 145.51 300.3295 
" style="fill: none; stroke: #1f77b4; stroke-width: 1.5; stroke-linecap: square"/>
    </g>
    <g id="text_14">
     <!-- BayesianRidge -->
     <g transform="translate(158.31 305.9295) scale(0.16 -0.16)">
      <defs>
       <path id="DejaVuSans-42" d="M 1259 2228 
L 1259 519 
L 2272 519 
Q 2781 519 3026 730 
Q 3272 941 3272 1375 
Q 3272 1813 3026 2020 
Q 2781 2228 2272 2228 
L 1259 2228 
z
M 1259 4147 
L 1259 2741 
L 2194 2741 
Q 2656 2741 2882 2914 
Q 3109 3088 3109 3444 
Q 3109 3797 2882 3972 
Q 2656 4147 2194 4147 
L 1259 4147 
z
M 628 4666 
L 2241 4666 
Q 2963 4666 3353 4366 
Q 3744 4066 3744 3513 
Q 3744 3084 3544 2831 
Q 3344 2578 2956 2516 
Q 3422 2416 3680 2098 
Q 3938 1781 3938 1306 
Q 3938 681 3513 340 
Q 3088 0 2303 0 
L 628 0 
L 628 4666 
z
" transform="scale(0.015625)"/>
       <path id="DejaVuSans-79" d="M 2059 -325 
Q 1816 -950 1584 -1140 
Q 1353 -1331 966 -1331 
L 506 -1331 
L 506 -850 
L 844 -850 
Q 1081 -850 1212 -737 
Q 1344 -625 1503 -206 
L 1606 56 
L 191 3500 
L 800 3500 
L 1894 763 
L 2988 3500 
L 3597 3500 
L 2059 -325 
z
" transform="scale(0.015625)"/>
       <path id="DejaVuSans-52" d="M 2841 2188 
Q 3044 2119 3236 1894 
Q 3428 1669 3622 1275 
L 4263 0 
L 3584 0 
L 2988 1197 
Q 2756 1666 2539 1819 
Q 2322 1972 1947 1972 
L 1259 1972 
L 1259 0 
L 628 0 
L 628 4666 
L 2053 4666 
Q 2853 4666 3247 4331 
Q 3641 3997 3641 3322 
Q 3641 2881 3436 2590 
Q 3231 2300 2841 2188 
z
M 1259 4147 
L 1259 2491 
L 2053 2491 
Q 2509 2491 2742 2702 
Q 2975 2913 2975 3322 
Q 2975 3731 2742 3939 
Q 2509 4147 2053 4147 
L 1259 4147 
z
" transform="scale(0.015625)"/>
      </defs>
      <use xlink:href="#DejaVuSans-42"/>
      <use xlink:href="#DejaVuSans-61" x="68.603516"/>
      <use xlink:href="#DejaVuSans-79" x="129.882812"/>
      <use xlink:href="#DejaVuSans-65" x="189.0625"/>
      <use xlink:href="#DejaVuSans-73" x="250.585938"/>
      <use xlink:href="#DejaVuSans-69" x="302.685547"/>
      <use xlink:href="#DejaVuSans-61" x="330.46875"/>
      <use xlink:href="#DejaVuSans-6e" x="391.748047"/>
      <use xlink:href="#DejaVuSans-52" x="455.126953"/>
      <use xlink:href="#DejaVuSans-69" x="524.609375"/>
      <use xlink:href="#DejaVuSans-64" x="552.392578"/>
      <use xlink:href="#DejaVuSans-67" x="615.869141"/>
      <use xlink:href="#DejaVuSans-65" x="679.345703"/>
     </g>
    </g>
    <g id="line2d_29">
     <path d="M 113.51 323.8145 
L 129.51 323.8145 
L 145.51 323.8145 
" style="fill: none; stroke: #ff7f0e; stroke-width: 1.5; stroke-linecap: square"/>
    </g>
    <g id="text_15">
     <!-- rf -->
     <g transform="translate(158.31 329.4145) scale(0.16 -0.16)">
      <defs>
       <path id="DejaVuSans-66" d="M 2375 4863 
L 2375 4384 
L 1825 4384 
Q 1516 4384 1395 4259 
Q 1275 4134 1275 3809 
L 1275 3500 
L 2222 3500 
L 2222 3053 
L 1275 3053 
L 1275 0 
L 697 0 
L 697 3053 
L 147 3053 
L 147 3500 
L 697 3500 
L 697 3744 
Q 697 4328 969 4595 
Q 1241 4863 1831 4863 
L 2375 4863 
z
" transform="scale(0.015625)"/>
      </defs>
      <use xlink:href="#DejaVuSans-72"/>
      <use xlink:href="#DejaVuSans-66" x="41.113281"/>
     </g>
    </g>
    <g id="line2d_30">
     <path d="M 113.51 347.2995 
L 129.51 347.2995 
L 145.51 347.2995 
" style="fill: none; stroke: #2ca02c; stroke-width: 1.5; stroke-linecap: square"/>
    </g>
    <g id="text_16">
     <!-- gbr -->
     <g transform="translate(158.31 352.8995) scale(0.16 -0.16)">
      <defs>
       <path id="DejaVuSans-62" d="M 3116 1747 
Q 3116 2381 2855 2742 
Q 2594 3103 2138 3103 
Q 1681 3103 1420 2742 
Q 1159 2381 1159 1747 
Q 1159 1113 1420 752 
Q 1681 391 2138 391 
Q 2594 391 2855 752 
Q 3116 1113 3116 1747 
z
M 1159 2969 
Q 1341 3281 1617 3432 
Q 1894 3584 2278 3584 
Q 2916 3584 3314 3078 
Q 3713 2572 3713 1747 
Q 3713 922 3314 415 
Q 2916 -91 2278 -91 
Q 1894 -91 1617 61 
Q 1341 213 1159 525 
L 1159 0 
L 581 0 
L 581 4863 
L 1159 4863 
L 1159 2969 
z
" transform="scale(0.015625)"/>
      </defs>
      <use xlink:href="#DejaVuSans-67"/>
      <use xlink:href="#DejaVuSans-62" x="63.476562"/>
      <use xlink:href="#DejaVuSans-72" x="126.953125"/>
     </g>
    </g>
    <g id="line2d_31">
     <path d="M 113.51 370.7845 
L 129.51 370.7845 
L 145.51 370.7845 
" style="fill: none; stroke: #d62728; stroke-width: 1.5; stroke-linecap: square"/>
    </g>
    <g id="text_17">
     <!-- xgb -->
     <g transform="translate(158.31 376.3845) scale(0.16 -0.16)">
      <use xlink:href="#DejaVuSans-78"/>
      <use xlink:href="#DejaVuSans-67" x="59.179688"/>
      <use xlink:href="#DejaVuSans-62" x="122.65625"/>
     </g>
    </g>
    <g id="line2d_32">
     <path d="M 113.51 394.2695 
L 129.51 394.2695 
L 145.51 394.2695 
" style="fill: none; stroke: #9467bd; stroke-width: 1.5; stroke-linecap: square"/>
    </g>
    <g id="text_18">
     <!-- gbr_gs -->
     <g transform="translate(158.31 399.8695) scale(0.16 -0.16)">
      <use xlink:href="#DejaVuSans-67"/>
      <use xlink:href="#DejaVuSans-62" x="63.476562"/>
      <use xlink:href="#DejaVuSans-72" x="126.953125"/>
      <use xlink:href="#DejaVuSans-5f" x="168.066406"/>
      <use xlink:href="#DejaVuSans-67" x="218.066406"/>
      <use xlink:href="#DejaVuSans-73" x="281.542969"/>
     </g>
    </g>
    <g id="line2d_33">
     <path d="M 113.51 418.1995 
L 129.51 418.1995 
L 145.51 418.1995 
" style="fill: none; stroke: #8c564b; stroke-width: 1.5; stroke-linecap: square"/>
    </g>
    <g id="text_19">
     <!-- rf_gs -->
     <g transform="translate(158.31 423.7995) scale(0.16 -0.16)">
      <use xlink:href="#DejaVuSans-72"/>
      <use xlink:href="#DejaVuSans-66" x="41.113281"/>
      <use xlink:href="#DejaVuSans-5f" x="76.318359"/>
      <use xlink:href="#DejaVuSans-67" x="126.318359"/>
      <use xlink:href="#DejaVuSans-73" x="189.794922"/>
     </g>
    </g>
    <g id="line2d_34">
     <path d="M 113.51 442.1295 
L 129.51 442.1295 
L 145.51 442.1295 
" style="fill: none; stroke: #e377c2; stroke-width: 1.5; stroke-linecap: square"/>
    </g>
    <g id="text_20">
     <!-- BayesianRidge_gs -->
     <g transform="translate(158.31 447.7295) scale(0.16 -0.16)">
      <use xlink:href="#DejaVuSans-42"/>
      <use xlink:href="#DejaVuSans-61" x="68.603516"/>
      <use xlink:href="#DejaVuSans-79" x="129.882812"/>
      <use xlink:href="#DejaVuSans-65" x="189.0625"/>
      <use xlink:href="#DejaVuSans-73" x="250.585938"/>
      <use xlink:href="#DejaVuSans-69" x="302.685547"/>
      <use xlink:href="#DejaVuSans-61" x="330.46875"/>
      <use xlink:href="#DejaVuSans-6e" x="391.748047"/>
      <use xlink:href="#DejaVuSans-52" x="455.126953"/>
      <use xlink:href="#DejaVuSans-69" x="524.609375"/>
      <use xlink:href="#DejaVuSans-64" x="552.392578"/>
      <use xlink:href="#DejaVuSans-67" x="615.869141"/>
      <use xlink:href="#DejaVuSans-65" x="679.345703"/>
      <use xlink:href="#DejaVuSans-5f" x="740.869141"/>
      <use xlink:href="#DejaVuSans-67" x="790.869141"/>
      <use xlink:href="#DejaVuSans-73" x="854.345703"/>
     </g>
    </g>
    <g id="line2d_35">
     <path d="M 113.51 466.0595 
L 129.51 466.0595 
L 145.51 466.0595 
" style="fill: none; stroke: #7f7f7f; stroke-width: 1.5; stroke-linecap: square"/>
    </g>
    <g id="text_21">
     <!-- xgb_gs -->
     <g transform="translate(158.31 471.6595) scale(0.16 -0.16)">
      <use xlink:href="#DejaVuSans-78"/>
      <use xlink:href="#DejaVuSans-67" x="59.179688"/>
      <use xlink:href="#DejaVuSans-62" x="122.65625"/>
      <use xlink:href="#DejaVuSans-5f" x="186.132812"/>
      <use xlink:href="#DejaVuSans-67" x="236.132812"/>
      <use xlink:href="#DejaVuSans-73" x="299.609375"/>
     </g>
    </g>
   </g>
  </g>
 </g>
 <defs>
  <clipPath id="p22b7f49acc">
   <rect x="99.11" y="10.8" width="1042.09" height="479.032"/>
  </clipPath>
 </defs>
</svg>
