<?xml version="1.0" encoding="utf-8" standalone="no"?>
<!DOCTYPE svg PUBLIC "-//W3C//DTD SVG 1.1//EN"
  "http://www.w3.org/Graphics/SVG/1.1/DTD/svg11.dtd">
<svg xmlns:xlink="http://www.w3.org/1999/xlink" width="1152pt" height="576pt" viewBox="0 0 1152 576" xmlns="http://www.w3.org/2000/svg" version="1.1">
 <metadata>
  <rdf:RDF xmlns:dc="http://purl.org/dc/elements/1.1/" xmlns:cc="http://creativecommons.org/ns#" xmlns:rdf="http://www.w3.org/1999/02/22-rdf-syntax-ns#">
   <cc:Work>
    <dc:type rdf:resource="http://purl.org/dc/dcmitype/StillImage"/>
    <dc:date>2025-04-22T15:16:15.581232</dc:date>
    <dc:format>image/svg+xml</dc:format>
    <dc:creator>
     <cc:Agent>
      <dc:title>Matplotlib v3.7.1, https://matplotlib.org/</dc:title>
     </cc:Agent>
    </dc:creator>
   </cc:Work>
  </rdf:RDF>
 </metadata>
 <defs>
  <style type="text/css">*{stroke-linejoin: round; stroke-linecap: butt}</style>
 </defs>
 <g id="figure_1">
  <g id="patch_1">
   <path d="M 0 576 
L 1152 576 
L 1152 0 
L 0 0 
z
" style="fill: #ffffff"/>
  </g>
  <g id="axes_1">
   <g id="patch_2">
    <path d="M 86.42 490.552 
L 1141.2 490.552 
L 1141.2 10.8 
L 86.42 10.8 
z
" style="fill: #ffffff"/>
   </g>
   <g id="PolyCollection_1">
    <defs>
     <path id="m07c440e9bb" d="M 134.364545 -397.252376 
L 134.364545 -300.811471 
L 174.318333 -253.082676 
L 214.272121 -341.15632 
L 254.225909 -300.842509 
L 294.179697 -337.652481 
L 334.133485 -296.816597 
L 374.087273 -338.372905 
L 414.041061 -365.915419 
L 453.994848 -368.571943 
L 493.948636 -350.718286 
L 533.902424 -251.822911 
L 573.856212 -289.560718 
L 613.81 -330.281407 
L 653.763788 -344.363894 
L 693.717576 -334.364712 
L 733.671364 -342.285318 
L 773.625152 -319.784592 
L 813.578939 -320.098709 
L 853.532727 -305.701621 
L 893.486515 -321.485358 
L 933.440303 -303.171642 
L 973.394091 -336.640957 
L 1013.347879 -331.570975 
L 1053.301667 -299.789529 
L 1093.255455 -348.20524 
L 1093.255455 -429.394102 
L 1093.255455 -429.394102 
L 1053.301667 -426.556073 
L 1013.347879 -424.915111 
L 973.394091 -417.664494 
L 933.440303 -400.997225 
L 893.486515 -402.308618 
L 853.532727 -367.942043 
L 813.578939 -389.630675 
L 773.625152 -428.212556 
L 733.671364 -446.682949 
L 693.717576 -433.550773 
L 653.763788 -429.773406 
L 613.81 -383.555138 
L 573.856212 -407.484659 
L 533.902424 -413.313366 
L 493.948636 -418.165865 
L 453.994848 -403.924862 
L 414.041061 -444.094596 
L 374.087273 -425.357447 
L 334.133485 -395.028989 
L 294.179697 -414.238664 
L 254.225909 -425.757749 
L 214.272121 -397.068049 
L 174.318333 -380.60291 
L 134.364545 -397.252376 
z
" style="stroke: #1f77b4; stroke-opacity: 0.2"/>
    </defs>
    <g clip-path="url(#p4ce01498c6)">
     <use xlink:href="#m07c440e9bb" x="0" y="576" style="fill: #1f77b4; fill-opacity: 0.2; stroke: #1f77b4; stroke-opacity: 0.2"/>
    </g>
   </g>
   <g id="PolyCollection_2">
    <defs>
     <path id="m3e039991ec" d="M 134.364545 -441.265938 
L 134.364545 -351.636831 
L 174.318333 -378.803826 
L 214.272121 -400.250891 
L 254.225909 -366.849194 
L 294.179697 -351.66468 
L 334.133485 -346.346534 
L 374.087273 -423.689754 
L 414.041061 -464.389441 
L 453.994848 -336.839784 
L 493.948636 -406.695592 
L 533.902424 -286.806827 
L 573.856212 -320.365549 
L 613.81 -378.643697 
L 653.763788 -380.079202 
L 693.717576 -356.190828 
L 733.671364 -348.562005 
L 773.625152 -407.132149 
L 813.578939 -353.72095 
L 853.532727 -378.869581 
L 893.486515 -426.244325 
L 933.440303 -319.358842 
L 973.394091 -404.300741 
L 1013.347879 -361.898121 
L 1053.301667 -326.818814 
L 1093.255455 -406.683729 
L 1093.255455 -472.375019 
L 1093.255455 -472.375019 
L 1053.301667 -471.105555 
L 1013.347879 -459.747049 
L 973.394091 -492.565449 
L 933.440303 -447.300058 
L 893.486515 -505.850429 
L 853.532727 -454.049232 
L 813.578939 -463.021542 
L 773.625152 -441.313527 
L 733.671364 -442.060925 
L 693.717576 -488.666857 
L 653.763788 -505.319021 
L 613.81 -512.38564 
L 573.856212 -429.671075 
L 533.902424 -417.5146 
L 493.948636 -507.268392 
L 453.994848 -490.716624 
L 414.041061 -491.310016 
L 374.087273 -443.17785 
L 334.133485 -447.67332 
L 294.179697 -437.116611 
L 254.225909 -500.302074 
L 214.272121 -478.355759 
L 174.318333 -471.333811 
L 134.364545 -441.265938 
z
" style="stroke: #ff7f0e; stroke-opacity: 0.2"/>
    </defs>
    <g clip-path="url(#p4ce01498c6)">
     <use xlink:href="#m3e039991ec" x="0" y="576" style="fill: #ff7f0e; fill-opacity: 0.2; stroke: #ff7f0e; stroke-opacity: 0.2"/>
    </g>
   </g>
   <g id="PolyCollection_3">
    <defs>
     <path id="m0d3f1ea233" d="M 134.364545 -368.287241 
L 134.364545 -275.861705 
L 174.318333 -282.547862 
L 214.272121 -285.51261 
L 254.225909 -316.169171 
L 294.179697 -330.459421 
L 334.133485 -260.878756 
L 374.087273 -264.129529 
L 414.041061 -361.071961 
L 453.994848 -248.189518 
L 493.948636 -306.647235 
L 533.902424 -260.222251 
L 573.856212 -264.511919 
L 613.81 -370.298102 
L 653.763788 -300.224052 
L 693.717576 -362.204276 
L 733.671364 -294.089018 
L 773.625152 -368.288925 
L 813.578939 -389.097875 
L 853.532727 -369.944559 
L 893.486515 -345.485168 
L 933.440303 -320.116918 
L 973.394091 -304.328168 
L 1013.347879 -316.171864 
L 1053.301667 -270.549774 
L 1093.255455 -330.710475 
L 1093.255455 -446.327462 
L 1093.255455 -446.327462 
L 1053.301667 -422.973143 
L 1013.347879 -398.339366 
L 973.394091 -387.925277 
L 933.440303 -437.855486 
L 893.486515 -425.405163 
L 853.532727 -429.462259 
L 813.578939 -455.155623 
L 773.625152 -414.324189 
L 733.671364 -428.666142 
L 693.717576 -455.433953 
L 653.763788 -471.843018 
L 613.81 -441.473823 
L 573.856212 -394.818336 
L 533.902424 -403.982934 
L 493.948636 -441.349167 
L 453.994848 -406.828245 
L 414.041061 -428.437773 
L 374.087273 -401.18157 
L 334.133485 -441.708271 
L 294.179697 -380.459197 
L 254.225909 -414.889486 
L 214.272121 -451.054552 
L 174.318333 -400.592555 
L 134.364545 -368.287241 
z
" style="stroke: #2ca02c; stroke-opacity: 0.2"/>
    </defs>
    <g clip-path="url(#p4ce01498c6)">
     <use xlink:href="#m0d3f1ea233" x="0" y="576" style="fill: #2ca02c; fill-opacity: 0.2; stroke: #2ca02c; stroke-opacity: 0.2"/>
    </g>
   </g>
   <g id="PolyCollection_4">
    <defs>
     <path id="m8f0fe8b7aa" d="M 134.364545 -272.52327 
L 134.364545 -203.813596 
L 174.318333 -234.034405 
L 214.272121 -254.21647 
L 254.225909 -275.201709 
L 294.179697 -255.186131 
L 334.133485 -211.633074 
L 374.087273 -225.638503 
L 414.041061 -336.208162 
L 453.994848 -125.020992 
L 493.948636 -270.852617 
L 533.902424 -146.063448 
L 573.856212 -260.426715 
L 613.81 -245.125816 
L 653.763788 -201.281605 
L 693.717576 -243.154371 
L 733.671364 -183.915779 
L 773.625152 -268.620366 
L 813.578939 -235.909594 
L 853.532727 -249.6785 
L 893.486515 -291.948043 
L 933.440303 -228.129396 
L 973.394091 -290.260001 
L 1013.347879 -294.645333 
L 1053.301667 -190.814315 
L 1093.255455 -285.448239 
L 1093.255455 -345.993434 
L 1093.255455 -345.993434 
L 1053.301667 -326.584252 
L 1013.347879 -336.929974 
L 973.394091 -318.537167 
L 933.440303 -362.907758 
L 893.486515 -342.642357 
L 853.532727 -323.558803 
L 813.578939 -320.146088 
L 773.625152 -346.971175 
L 733.671364 -295.873027 
L 693.717576 -337.178916 
L 653.763788 -349.371954 
L 613.81 -348.858049 
L 573.856212 -298.821544 
L 533.902424 -283.616868 
L 493.948636 -403.208701 
L 453.994848 -357.176026 
L 414.041061 -395.685792 
L 374.087273 -320.3549 
L 334.133485 -327.321338 
L 294.179697 -307.628664 
L 254.225909 -378.244272 
L 214.272121 -342.91518 
L 174.318333 -318.518871 
L 134.364545 -272.52327 
z
" style="stroke: #d62728; stroke-opacity: 0.2"/>
    </defs>
    <g clip-path="url(#p4ce01498c6)">
     <use xlink:href="#m8f0fe8b7aa" x="0" y="576" style="fill: #d62728; fill-opacity: 0.2; stroke: #d62728; stroke-opacity: 0.2"/>
    </g>
   </g>
   <g id="PolyCollection_5">
    <defs>
     <path id="m0bea019d5d" d="M 134.364545 -482.799005 
L 134.364545 -368.146646 
L 174.318333 -417.841852 
L 214.272121 -424.833719 
L 254.225909 -365.632993 
L 294.179697 -453.847292 
L 334.133485 -430.245264 
L 374.087273 -432.984315 
L 414.041061 -441.900711 
L 453.994848 -397.428371 
L 493.948636 -409.258512 
L 533.902424 -405.020696 
L 573.856212 -388.786676 
L 613.81 -441.573699 
L 653.763788 -457.959216 
L 693.717576 -448.51041 
L 733.671364 -419.813364 
L 773.625152 -439.934794 
L 813.578939 -422.577635 
L 853.532727 -418.516852 
L 893.486515 -238.185875 
L 933.440303 -437.531174 
L 973.394091 -362.152906 
L 1013.347879 -401.058806 
L 1053.301667 -409.171825 
L 1093.255455 -344.15875 
L 1093.255455 -459.97256 
L 1093.255455 -459.97256 
L 1053.301667 -502.349915 
L 1013.347879 -470.050874 
L 973.394091 -518.021428 
L 933.440303 -509.592006 
L 893.486515 -492.673763 
L 853.532727 -497.856034 
L 813.578939 -543.393091 
L 773.625152 -500.442334 
L 733.671364 -480.392715 
L 693.717576 -517.872035 
L 653.763788 -521.385601 
L 613.81 -540.969047 
L 573.856212 -524.846631 
L 533.902424 -479.002466 
L 493.948636 -482.606502 
L 453.994848 -527.11756 
L 414.041061 -499.87451 
L 374.087273 -518.45558 
L 334.133485 -519.93883 
L 294.179697 -537.710342 
L 254.225909 -485.18921 
L 214.272121 -502.704943 
L 174.318333 -504.973184 
L 134.364545 -482.799005 
z
" style="stroke: #9467bd; stroke-opacity: 0.2"/>
    </defs>
    <g clip-path="url(#p4ce01498c6)">
     <use xlink:href="#m0bea019d5d" x="0" y="576" style="fill: #9467bd; fill-opacity: 0.2; stroke: #9467bd; stroke-opacity: 0.2"/>
    </g>
   </g>
   <g id="PolyCollection_6">
    <defs>
     <path id="m6442470f92" d="M 134.364545 -340.561014 
L 134.364545 -262.828479 
L 174.318333 -308.368244 
L 214.272121 -364.948591 
L 254.225909 -343.678959 
L 294.179697 -285.486665 
L 334.133485 -338.013655 
L 374.087273 -226.056481 
L 414.041061 -334.635198 
L 453.994848 -334.100367 
L 493.948636 -332.258232 
L 533.902424 -359.59613 
L 573.856212 -381.505401 
L 613.81 -388.834674 
L 653.763788 -393.450627 
L 693.717576 -295.926922 
L 733.671364 -328.316009 
L 773.625152 -330.881889 
L 813.578939 -370.810556 
L 853.532727 -357.134296 
L 893.486515 -228.413297 
L 933.440303 -364.067834 
L 973.394091 -306.949353 
L 1013.347879 -364.308888 
L 1053.301667 -376.070678 
L 1093.255455 -295.843976 
L 1093.255455 -352.255456 
L 1093.255455 -352.255456 
L 1053.301667 -472.786698 
L 1013.347879 -434.245576 
L 973.394091 -429.061851 
L 933.440303 -406.412815 
L 893.486515 -449.553504 
L 853.532727 -464.451602 
L 813.578939 -444.235095 
L 773.625152 -446.875155 
L 733.671364 -453.764263 
L 693.717576 -464.842418 
L 653.763788 -437.523487 
L 613.81 -503.01424 
L 573.856212 -460.394485 
L 533.902424 -448.121176 
L 493.948636 -430.899011 
L 453.994848 -454.862135 
L 414.041061 -427.596337 
L 374.087273 -352.288107 
L 334.133485 -421.988003 
L 294.179697 -398.962825 
L 254.225909 -383.369459 
L 214.272121 -457.195725 
L 174.318333 -417.748437 
L 134.364545 -340.561014 
z
" style="stroke: #8c564b; stroke-opacity: 0.2"/>
    </defs>
    <g clip-path="url(#p4ce01498c6)">
     <use xlink:href="#m6442470f92" x="0" y="576" style="fill: #8c564b; fill-opacity: 0.2; stroke: #8c564b; stroke-opacity: 0.2"/>
    </g>
   </g>
   <g id="PolyCollection_7">
    <defs>
     <path id="m4af2b4a856" d="M 134.364545 -350.268566 
L 134.364545 -290.325065 
L 174.318333 -287.37944 
L 214.272121 -355.90495 
L 254.225909 -346.81929 
L 294.179697 -327.932212 
L 334.133485 -353.977968 
L 374.087273 -321.510726 
L 414.041061 -409.258967 
L 453.994848 -379.620172 
L 493.948636 -400.735866 
L 533.902424 -374.345224 
L 573.856212 -378.880795 
L 613.81 -331.515836 
L 653.763788 -413.830136 
L 693.717576 -388.002246 
L 733.671364 -398.193516 
L 773.625152 -370.40434 
L 813.578939 -428.99629 
L 853.532727 -404.993148 
L 893.486515 -107.254909 
L 933.440303 -397.706409 
L 973.394091 -349.556423 
L 1013.347879 -394.984044 
L 1053.301667 -404.345958 
L 1093.255455 -395.746524 
L 1093.255455 -439.111807 
L 1093.255455 -439.111807 
L 1053.301667 -436.309727 
L 1013.347879 -439.890923 
L 973.394091 -433.293945 
L 933.440303 -433.432881 
L 893.486515 -437.522378 
L 853.532727 -448.667022 
L 813.578939 -473.027609 
L 773.625152 -457.373315 
L 733.671364 -453.336018 
L 693.717576 -468.373413 
L 653.763788 -463.644411 
L 613.81 -478.149157 
L 573.856212 -417.720905 
L 533.902424 -437.198616 
L 493.948636 -443.739119 
L 453.994848 -450.695209 
L 414.041061 -421.694667 
L 374.087273 -413.419271 
L 334.133485 -414.791043 
L 294.179697 -462.993565 
L 254.225909 -433.023759 
L 214.272121 -404.986352 
L 174.318333 -423.562345 
L 134.364545 -350.268566 
z
" style="stroke: #e377c2; stroke-opacity: 0.2"/>
    </defs>
    <g clip-path="url(#p4ce01498c6)">
     <use xlink:href="#m4af2b4a856" x="0" y="576" style="fill: #e377c2; fill-opacity: 0.2; stroke: #e377c2; stroke-opacity: 0.2"/>
    </g>
   </g>
   <g id="PolyCollection_8">
    <defs>
     <path id="mb97a372798" d="M 134.364545 -371.475082 
L 134.364545 -277.92213 
L 174.318333 -267.814688 
L 214.272121 -349.401765 
L 254.225909 -351.610876 
L 294.179697 -331.68632 
L 334.133485 -305.928134 
L 374.087273 -306.833616 
L 414.041061 -374.75009 
L 453.994848 -335.836312 
L 493.948636 -349.137491 
L 533.902424 -353.489048 
L 573.856212 -351.21283 
L 613.81 -344.684119 
L 653.763788 -357.209365 
L 693.717576 -348.857573 
L 733.671364 -340.672929 
L 773.625152 -334.769733 
L 813.578939 -350.597407 
L 853.532727 -329.574119 
L 893.486515 -226.034407 
L 933.440303 -343.147255 
L 973.394091 -313.303579 
L 1013.347879 -358.000219 
L 1053.301667 -350.146078 
L 1093.255455 -338.735719 
L 1093.255455 -432.656398 
L 1093.255455 -432.656398 
L 1053.301667 -421.037802 
L 1013.347879 -388.552389 
L 973.394091 -402.202786 
L 933.440303 -395.025474 
L 893.486515 -383.686132 
L 853.532727 -412.931039 
L 813.578939 -414.175127 
L 773.625152 -431.338615 
L 733.671364 -407.885662 
L 693.717576 -412.779393 
L 653.763788 -442.628629 
L 613.81 -452.129117 
L 573.856212 -380.765707 
L 533.902424 -428.960087 
L 493.948636 -409.665364 
L 453.994848 -402.12346 
L 414.041061 -437.386216 
L 374.087273 -387.422041 
L 334.133485 -360.701503 
L 294.179697 -433.75982 
L 254.225909 -422.38046 
L 214.272121 -414.99864 
L 174.318333 -401.444114 
L 134.364545 -371.475082 
z
" style="stroke: #7f7f7f; stroke-opacity: 0.2"/>
    </defs>
    <g clip-path="url(#p4ce01498c6)">
     <use xlink:href="#mb97a372798" x="0" y="576" style="fill: #7f7f7f; fill-opacity: 0.2; stroke: #7f7f7f; stroke-opacity: 0.2"/>
    </g>
   </g>
   <g id="matplotlib.axis_1">
    <g id="xtick_1">
     <g id="line2d_1">
      <defs>
       <path id="mc358778abe" d="M 0 0 
L 0 3.5 
" style="stroke: #000000; stroke-width: 0.8"/>
      </defs>
      <g>
       <use xlink:href="#mc358778abe" x="114.387652" y="490.552" style="stroke: #000000; stroke-width: 0.8"/>
      </g>
     </g>
     <g id="text_1">
      <!-- 0 -->
      <g transform="translate(108.025152 512.748875) scale(0.2 -0.2)">
       <defs>
        <path id="DejaVuSans-30" d="M 2034 4250 
Q 1547 4250 1301 3770 
Q 1056 3291 1056 2328 
Q 1056 1369 1301 889 
Q 1547 409 2034 409 
Q 2525 409 2770 889 
Q 3016 1369 3016 2328 
Q 3016 3291 2770 3770 
Q 2525 4250 2034 4250 
z
M 2034 4750 
Q 2819 4750 3233 4129 
Q 3647 3509 3647 2328 
Q 3647 1150 3233 529 
Q 2819 -91 2034 -91 
Q 1250 -91 836 529 
Q 422 1150 422 2328 
Q 422 3509 836 4129 
Q 1250 4750 2034 4750 
z
" transform="scale(0.015625)"/>
       </defs>
       <use xlink:href="#DejaVuSans-30"/>
      </g>
     </g>
    </g>
    <g id="xtick_2">
     <g id="line2d_2">
      <g>
       <use xlink:href="#mc358778abe" x="314.156591" y="490.552" style="stroke: #000000; stroke-width: 0.8"/>
      </g>
     </g>
     <g id="text_2">
      <!-- 10 -->
      <g transform="translate(301.431591 512.748875) scale(0.2 -0.2)">
       <defs>
        <path id="DejaVuSans-31" d="M 794 531 
L 1825 531 
L 1825 4091 
L 703 3866 
L 703 4441 
L 1819 4666 
L 2450 4666 
L 2450 531 
L 3481 531 
L 3481 0 
L 794 0 
L 794 531 
z
" transform="scale(0.015625)"/>
       </defs>
       <use xlink:href="#DejaVuSans-31"/>
       <use xlink:href="#DejaVuSans-30" x="63.623047"/>
      </g>
     </g>
    </g>
    <g id="xtick_3">
     <g id="line2d_3">
      <g>
       <use xlink:href="#mc358778abe" x="513.92553" y="490.552" style="stroke: #000000; stroke-width: 0.8"/>
      </g>
     </g>
     <g id="text_3">
      <!-- 20 -->
      <g transform="translate(501.20053 512.748875) scale(0.2 -0.2)">
       <defs>
        <path id="DejaVuSans-32" d="M 1228 531 
L 3431 531 
L 3431 0 
L 469 0 
L 469 531 
Q 828 903 1448 1529 
Q 2069 2156 2228 2338 
Q 2531 2678 2651 2914 
Q 2772 3150 2772 3378 
Q 2772 3750 2511 3984 
Q 2250 4219 1831 4219 
Q 1534 4219 1204 4116 
Q 875 4013 500 3803 
L 500 4441 
Q 881 4594 1212 4672 
Q 1544 4750 1819 4750 
Q 2544 4750 2975 4387 
Q 3406 4025 3406 3419 
Q 3406 3131 3298 2873 
Q 3191 2616 2906 2266 
Q 2828 2175 2409 1742 
Q 1991 1309 1228 531 
z
" transform="scale(0.015625)"/>
       </defs>
       <use xlink:href="#DejaVuSans-32"/>
       <use xlink:href="#DejaVuSans-30" x="63.623047"/>
      </g>
     </g>
    </g>
    <g id="xtick_4">
     <g id="line2d_4">
      <g>
       <use xlink:href="#mc358778abe" x="713.69447" y="490.552" style="stroke: #000000; stroke-width: 0.8"/>
      </g>
     </g>
     <g id="text_4">
      <!-- 30 -->
      <g transform="translate(700.96947 512.748875) scale(0.2 -0.2)">
       <defs>
        <path id="DejaVuSans-33" d="M 2597 2516 
Q 3050 2419 3304 2112 
Q 3559 1806 3559 1356 
Q 3559 666 3084 287 
Q 2609 -91 1734 -91 
Q 1441 -91 1130 -33 
Q 819 25 488 141 
L 488 750 
Q 750 597 1062 519 
Q 1375 441 1716 441 
Q 2309 441 2620 675 
Q 2931 909 2931 1356 
Q 2931 1769 2642 2001 
Q 2353 2234 1838 2234 
L 1294 2234 
L 1294 2753 
L 1863 2753 
Q 2328 2753 2575 2939 
Q 2822 3125 2822 3475 
Q 2822 3834 2567 4026 
Q 2313 4219 1838 4219 
Q 1578 4219 1281 4162 
Q 984 4106 628 3988 
L 628 4550 
Q 988 4650 1302 4700 
Q 1616 4750 1894 4750 
Q 2613 4750 3031 4423 
Q 3450 4097 3450 3541 
Q 3450 3153 3228 2886 
Q 3006 2619 2597 2516 
z
" transform="scale(0.015625)"/>
       </defs>
       <use xlink:href="#DejaVuSans-33"/>
       <use xlink:href="#DejaVuSans-30" x="63.623047"/>
      </g>
     </g>
    </g>
    <g id="xtick_5">
     <g id="line2d_5">
      <g>
       <use xlink:href="#mc358778abe" x="913.463409" y="490.552" style="stroke: #000000; stroke-width: 0.8"/>
      </g>
     </g>
     <g id="text_5">
      <!-- 40 -->
      <g transform="translate(900.738409 512.748875) scale(0.2 -0.2)">
       <defs>
        <path id="DejaVuSans-34" d="M 2419 4116 
L 825 1625 
L 2419 1625 
L 2419 4116 
z
M 2253 4666 
L 3047 4666 
L 3047 1625 
L 3713 1625 
L 3713 1100 
L 3047 1100 
L 3047 0 
L 2419 0 
L 2419 1100 
L 313 1100 
L 313 1709 
L 2253 4666 
z
" transform="scale(0.015625)"/>
       </defs>
       <use xlink:href="#DejaVuSans-34"/>
       <use xlink:href="#DejaVuSans-30" x="63.623047"/>
      </g>
     </g>
    </g>
    <g id="xtick_6">
     <g id="line2d_6">
      <g>
       <use xlink:href="#mc358778abe" x="1113.232348" y="490.552" style="stroke: #000000; stroke-width: 0.8"/>
      </g>
     </g>
     <g id="text_6">
      <!-- 50 -->
      <g transform="translate(1100.507348 512.748875) scale(0.2 -0.2)">
       <defs>
        <path id="DejaVuSans-35" d="M 691 4666 
L 3169 4666 
L 3169 4134 
L 1269 4134 
L 1269 2991 
Q 1406 3038 1543 3061 
Q 1681 3084 1819 3084 
Q 2600 3084 3056 2656 
Q 3513 2228 3513 1497 
Q 3513 744 3044 326 
Q 2575 -91 1722 -91 
Q 1428 -91 1123 -41 
Q 819 9 494 109 
L 494 744 
Q 775 591 1075 516 
Q 1375 441 1709 441 
Q 2250 441 2565 725 
Q 2881 1009 2881 1497 
Q 2881 1984 2565 2268 
Q 2250 2553 1709 2553 
Q 1456 2553 1204 2497 
Q 953 2441 691 2322 
L 691 4666 
z
" transform="scale(0.015625)"/>
       </defs>
       <use xlink:href="#DejaVuSans-35"/>
       <use xlink:href="#DejaVuSans-30" x="63.623047"/>
      </g>
     </g>
    </g>
    <g id="text_7">
     <!-- Percentile Threshold -->
     <g transform="translate(512.030312 536.105125) scale(0.2 -0.2)">
      <defs>
       <path id="DejaVuSans-50" d="M 1259 4147 
L 1259 2394 
L 2053 2394 
Q 2494 2394 2734 2622 
Q 2975 2850 2975 3272 
Q 2975 3691 2734 3919 
Q 2494 4147 2053 4147 
L 1259 4147 
z
M 628 4666 
L 2053 4666 
Q 2838 4666 3239 4311 
Q 3641 3956 3641 3272 
Q 3641 2581 3239 2228 
Q 2838 1875 2053 1875 
L 1259 1875 
L 1259 0 
L 628 0 
L 628 4666 
z
" transform="scale(0.015625)"/>
       <path id="DejaVuSans-65" d="M 3597 1894 
L 3597 1613 
L 953 1613 
Q 991 1019 1311 708 
Q 1631 397 2203 397 
Q 2534 397 2845 478 
Q 3156 559 3463 722 
L 3463 178 
Q 3153 47 2828 -22 
Q 2503 -91 2169 -91 
Q 1331 -91 842 396 
Q 353 884 353 1716 
Q 353 2575 817 3079 
Q 1281 3584 2069 3584 
Q 2775 3584 3186 3129 
Q 3597 2675 3597 1894 
z
M 3022 2063 
Q 3016 2534 2758 2815 
Q 2500 3097 2075 3097 
Q 1594 3097 1305 2825 
Q 1016 2553 972 2059 
L 3022 2063 
z
" transform="scale(0.015625)"/>
       <path id="DejaVuSans-72" d="M 2631 2963 
Q 2534 3019 2420 3045 
Q 2306 3072 2169 3072 
Q 1681 3072 1420 2755 
Q 1159 2438 1159 1844 
L 1159 0 
L 581 0 
L 581 3500 
L 1159 3500 
L 1159 2956 
Q 1341 3275 1631 3429 
Q 1922 3584 2338 3584 
Q 2397 3584 2469 3576 
Q 2541 3569 2628 3553 
L 2631 2963 
z
" transform="scale(0.015625)"/>
       <path id="DejaVuSans-63" d="M 3122 3366 
L 3122 2828 
Q 2878 2963 2633 3030 
Q 2388 3097 2138 3097 
Q 1578 3097 1268 2742 
Q 959 2388 959 1747 
Q 959 1106 1268 751 
Q 1578 397 2138 397 
Q 2388 397 2633 464 
Q 2878 531 3122 666 
L 3122 134 
Q 2881 22 2623 -34 
Q 2366 -91 2075 -91 
Q 1284 -91 818 406 
Q 353 903 353 1747 
Q 353 2603 823 3093 
Q 1294 3584 2113 3584 
Q 2378 3584 2631 3529 
Q 2884 3475 3122 3366 
z
" transform="scale(0.015625)"/>
       <path id="DejaVuSans-6e" d="M 3513 2113 
L 3513 0 
L 2938 0 
L 2938 2094 
Q 2938 2591 2744 2837 
Q 2550 3084 2163 3084 
Q 1697 3084 1428 2787 
Q 1159 2491 1159 1978 
L 1159 0 
L 581 0 
L 581 3500 
L 1159 3500 
L 1159 2956 
Q 1366 3272 1645 3428 
Q 1925 3584 2291 3584 
Q 2894 3584 3203 3211 
Q 3513 2838 3513 2113 
z
" transform="scale(0.015625)"/>
       <path id="DejaVuSans-74" d="M 1172 4494 
L 1172 3500 
L 2356 3500 
L 2356 3053 
L 1172 3053 
L 1172 1153 
Q 1172 725 1289 603 
Q 1406 481 1766 481 
L 2356 481 
L 2356 0 
L 1766 0 
Q 1100 0 847 248 
Q 594 497 594 1153 
L 594 3053 
L 172 3053 
L 172 3500 
L 594 3500 
L 594 4494 
L 1172 4494 
z
" transform="scale(0.015625)"/>
       <path id="DejaVuSans-69" d="M 603 3500 
L 1178 3500 
L 1178 0 
L 603 0 
L 603 3500 
z
M 603 4863 
L 1178 4863 
L 1178 4134 
L 603 4134 
L 603 4863 
z
" transform="scale(0.015625)"/>
       <path id="DejaVuSans-6c" d="M 603 4863 
L 1178 4863 
L 1178 0 
L 603 0 
L 603 4863 
z
" transform="scale(0.015625)"/>
       <path id="DejaVuSans-20" transform="scale(0.015625)"/>
       <path id="DejaVuSans-54" d="M -19 4666 
L 3928 4666 
L 3928 4134 
L 2272 4134 
L 2272 0 
L 1638 0 
L 1638 4134 
L -19 4134 
L -19 4666 
z
" transform="scale(0.015625)"/>
       <path id="DejaVuSans-68" d="M 3513 2113 
L 3513 0 
L 2938 0 
L 2938 2094 
Q 2938 2591 2744 2837 
Q 2550 3084 2163 3084 
Q 1697 3084 1428 2787 
Q 1159 2491 1159 1978 
L 1159 0 
L 581 0 
L 581 4863 
L 1159 4863 
L 1159 2956 
Q 1366 3272 1645 3428 
Q 1925 3584 2291 3584 
Q 2894 3584 3203 3211 
Q 3513 2838 3513 2113 
z
" transform="scale(0.015625)"/>
       <path id="DejaVuSans-73" d="M 2834 3397 
L 2834 2853 
Q 2591 2978 2328 3040 
Q 2066 3103 1784 3103 
Q 1356 3103 1142 2972 
Q 928 2841 928 2578 
Q 928 2378 1081 2264 
Q 1234 2150 1697 2047 
L 1894 2003 
Q 2506 1872 2764 1633 
Q 3022 1394 3022 966 
Q 3022 478 2636 193 
Q 2250 -91 1575 -91 
Q 1294 -91 989 -36 
Q 684 19 347 128 
L 347 722 
Q 666 556 975 473 
Q 1284 391 1588 391 
Q 1994 391 2212 530 
Q 2431 669 2431 922 
Q 2431 1156 2273 1281 
Q 2116 1406 1581 1522 
L 1381 1569 
Q 847 1681 609 1914 
Q 372 2147 372 2553 
Q 372 3047 722 3315 
Q 1072 3584 1716 3584 
Q 2034 3584 2315 3537 
Q 2597 3491 2834 3397 
z
" transform="scale(0.015625)"/>
       <path id="DejaVuSans-6f" d="M 1959 3097 
Q 1497 3097 1228 2736 
Q 959 2375 959 1747 
Q 959 1119 1226 758 
Q 1494 397 1959 397 
Q 2419 397 2687 759 
Q 2956 1122 2956 1747 
Q 2956 2369 2687 2733 
Q 2419 3097 1959 3097 
z
M 1959 3584 
Q 2709 3584 3137 3096 
Q 3566 2609 3566 1747 
Q 3566 888 3137 398 
Q 2709 -91 1959 -91 
Q 1206 -91 779 398 
Q 353 888 353 1747 
Q 353 2609 779 3096 
Q 1206 3584 1959 3584 
z
" transform="scale(0.015625)"/>
       <path id="DejaVuSans-64" d="M 2906 2969 
L 2906 4863 
L 3481 4863 
L 3481 0 
L 2906 0 
L 2906 525 
Q 2725 213 2448 61 
Q 2172 -91 1784 -91 
Q 1150 -91 751 415 
Q 353 922 353 1747 
Q 353 2572 751 3078 
Q 1150 3584 1784 3584 
Q 2172 3584 2448 3432 
Q 2725 3281 2906 2969 
z
M 947 1747 
Q 947 1113 1208 752 
Q 1469 391 1925 391 
Q 2381 391 2643 752 
Q 2906 1113 2906 1747 
Q 2906 2381 2643 2742 
Q 2381 3103 1925 3103 
Q 1469 3103 1208 2742 
Q 947 2381 947 1747 
z
" transform="scale(0.015625)"/>
      </defs>
      <use xlink:href="#DejaVuSans-50"/>
      <use xlink:href="#DejaVuSans-65" x="56.677734"/>
      <use xlink:href="#DejaVuSans-72" x="118.201172"/>
      <use xlink:href="#DejaVuSans-63" x="157.064453"/>
      <use xlink:href="#DejaVuSans-65" x="212.044922"/>
      <use xlink:href="#DejaVuSans-6e" x="273.568359"/>
      <use xlink:href="#DejaVuSans-74" x="336.947266"/>
      <use xlink:href="#DejaVuSans-69" x="376.15625"/>
      <use xlink:href="#DejaVuSans-6c" x="403.939453"/>
      <use xlink:href="#DejaVuSans-65" x="431.722656"/>
      <use xlink:href="#DejaVuSans-20" x="493.246094"/>
      <use xlink:href="#DejaVuSans-54" x="525.033203"/>
      <use xlink:href="#DejaVuSans-68" x="586.117188"/>
      <use xlink:href="#DejaVuSans-72" x="649.496094"/>
      <use xlink:href="#DejaVuSans-65" x="688.359375"/>
      <use xlink:href="#DejaVuSans-73" x="749.882812"/>
      <use xlink:href="#DejaVuSans-68" x="801.982422"/>
      <use xlink:href="#DejaVuSans-6f" x="865.361328"/>
      <use xlink:href="#DejaVuSans-6c" x="926.542969"/>
      <use xlink:href="#DejaVuSans-64" x="954.326172"/>
     </g>
     <!-- (Using "random" Threshold Handling) -->
     <g transform="translate(426.642812 558.50075) scale(0.2 -0.2)">
      <defs>
       <path id="DejaVuSans-28" d="M 1984 4856 
Q 1566 4138 1362 3434 
Q 1159 2731 1159 2009 
Q 1159 1288 1364 580 
Q 1569 -128 1984 -844 
L 1484 -844 
Q 1016 -109 783 600 
Q 550 1309 550 2009 
Q 550 2706 781 3412 
Q 1013 4119 1484 4856 
L 1984 4856 
z
" transform="scale(0.015625)"/>
       <path id="DejaVuSans-55" d="M 556 4666 
L 1191 4666 
L 1191 1831 
Q 1191 1081 1462 751 
Q 1734 422 2344 422 
Q 2950 422 3222 751 
Q 3494 1081 3494 1831 
L 3494 4666 
L 4128 4666 
L 4128 1753 
Q 4128 841 3676 375 
Q 3225 -91 2344 -91 
Q 1459 -91 1007 375 
Q 556 841 556 1753 
L 556 4666 
z
" transform="scale(0.015625)"/>
       <path id="DejaVuSans-67" d="M 2906 1791 
Q 2906 2416 2648 2759 
Q 2391 3103 1925 3103 
Q 1463 3103 1205 2759 
Q 947 2416 947 1791 
Q 947 1169 1205 825 
Q 1463 481 1925 481 
Q 2391 481 2648 825 
Q 2906 1169 2906 1791 
z
M 3481 434 
Q 3481 -459 3084 -895 
Q 2688 -1331 1869 -1331 
Q 1566 -1331 1297 -1286 
Q 1028 -1241 775 -1147 
L 775 -588 
Q 1028 -725 1275 -790 
Q 1522 -856 1778 -856 
Q 2344 -856 2625 -561 
Q 2906 -266 2906 331 
L 2906 616 
Q 2728 306 2450 153 
Q 2172 0 1784 0 
Q 1141 0 747 490 
Q 353 981 353 1791 
Q 353 2603 747 3093 
Q 1141 3584 1784 3584 
Q 2172 3584 2450 3431 
Q 2728 3278 2906 2969 
L 2906 3500 
L 3481 3500 
L 3481 434 
z
" transform="scale(0.015625)"/>
       <path id="DejaVuSans-22" d="M 1147 4666 
L 1147 2931 
L 616 2931 
L 616 4666 
L 1147 4666 
z
M 2328 4666 
L 2328 2931 
L 1797 2931 
L 1797 4666 
L 2328 4666 
z
" transform="scale(0.015625)"/>
       <path id="DejaVuSans-61" d="M 2194 1759 
Q 1497 1759 1228 1600 
Q 959 1441 959 1056 
Q 959 750 1161 570 
Q 1363 391 1709 391 
Q 2188 391 2477 730 
Q 2766 1069 2766 1631 
L 2766 1759 
L 2194 1759 
z
M 3341 1997 
L 3341 0 
L 2766 0 
L 2766 531 
Q 2569 213 2275 61 
Q 1981 -91 1556 -91 
Q 1019 -91 701 211 
Q 384 513 384 1019 
Q 384 1609 779 1909 
Q 1175 2209 1959 2209 
L 2766 2209 
L 2766 2266 
Q 2766 2663 2505 2880 
Q 2244 3097 1772 3097 
Q 1472 3097 1187 3025 
Q 903 2953 641 2809 
L 641 3341 
Q 956 3463 1253 3523 
Q 1550 3584 1831 3584 
Q 2591 3584 2966 3190 
Q 3341 2797 3341 1997 
z
" transform="scale(0.015625)"/>
       <path id="DejaVuSans-6d" d="M 3328 2828 
Q 3544 3216 3844 3400 
Q 4144 3584 4550 3584 
Q 5097 3584 5394 3201 
Q 5691 2819 5691 2113 
L 5691 0 
L 5113 0 
L 5113 2094 
Q 5113 2597 4934 2840 
Q 4756 3084 4391 3084 
Q 3944 3084 3684 2787 
Q 3425 2491 3425 1978 
L 3425 0 
L 2847 0 
L 2847 2094 
Q 2847 2600 2669 2842 
Q 2491 3084 2119 3084 
Q 1678 3084 1418 2786 
Q 1159 2488 1159 1978 
L 1159 0 
L 581 0 
L 581 3500 
L 1159 3500 
L 1159 2956 
Q 1356 3278 1631 3431 
Q 1906 3584 2284 3584 
Q 2666 3584 2933 3390 
Q 3200 3197 3328 2828 
z
" transform="scale(0.015625)"/>
       <path id="DejaVuSans-48" d="M 628 4666 
L 1259 4666 
L 1259 2753 
L 3553 2753 
L 3553 4666 
L 4184 4666 
L 4184 0 
L 3553 0 
L 3553 2222 
L 1259 2222 
L 1259 0 
L 628 0 
L 628 4666 
z
" transform="scale(0.015625)"/>
       <path id="DejaVuSans-29" d="M 513 4856 
L 1013 4856 
Q 1481 4119 1714 3412 
Q 1947 2706 1947 2009 
Q 1947 1309 1714 600 
Q 1481 -109 1013 -844 
L 513 -844 
Q 928 -128 1133 580 
Q 1338 1288 1338 2009 
Q 1338 2731 1133 3434 
Q 928 4138 513 4856 
z
" transform="scale(0.015625)"/>
      </defs>
      <use xlink:href="#DejaVuSans-28"/>
      <use xlink:href="#DejaVuSans-55" x="39.013672"/>
      <use xlink:href="#DejaVuSans-73" x="112.207031"/>
      <use xlink:href="#DejaVuSans-69" x="164.306641"/>
      <use xlink:href="#DejaVuSans-6e" x="192.089844"/>
      <use xlink:href="#DejaVuSans-67" x="255.46875"/>
      <use xlink:href="#DejaVuSans-20" x="318.945312"/>
      <use xlink:href="#DejaVuSans-22" x="350.732422"/>
      <use xlink:href="#DejaVuSans-72" x="396.728516"/>
      <use xlink:href="#DejaVuSans-61" x="437.841797"/>
      <use xlink:href="#DejaVuSans-6e" x="499.121094"/>
      <use xlink:href="#DejaVuSans-64" x="562.5"/>
      <use xlink:href="#DejaVuSans-6f" x="625.976562"/>
      <use xlink:href="#DejaVuSans-6d" x="687.158203"/>
      <use xlink:href="#DejaVuSans-22" x="784.570312"/>
      <use xlink:href="#DejaVuSans-20" x="830.566406"/>
      <use xlink:href="#DejaVuSans-54" x="862.353516"/>
      <use xlink:href="#DejaVuSans-68" x="923.4375"/>
      <use xlink:href="#DejaVuSans-72" x="986.816406"/>
      <use xlink:href="#DejaVuSans-65" x="1025.679688"/>
      <use xlink:href="#DejaVuSans-73" x="1087.203125"/>
      <use xlink:href="#DejaVuSans-68" x="1139.302734"/>
      <use xlink:href="#DejaVuSans-6f" x="1202.681641"/>
      <use xlink:href="#DejaVuSans-6c" x="1263.863281"/>
      <use xlink:href="#DejaVuSans-64" x="1291.646484"/>
      <use xlink:href="#DejaVuSans-20" x="1355.123047"/>
      <use xlink:href="#DejaVuSans-48" x="1386.910156"/>
      <use xlink:href="#DejaVuSans-61" x="1462.105469"/>
      <use xlink:href="#DejaVuSans-6e" x="1523.384766"/>
      <use xlink:href="#DejaVuSans-64" x="1586.763672"/>
      <use xlink:href="#DejaVuSans-6c" x="1650.240234"/>
      <use xlink:href="#DejaVuSans-69" x="1678.023438"/>
      <use xlink:href="#DejaVuSans-6e" x="1705.806641"/>
      <use xlink:href="#DejaVuSans-67" x="1769.185547"/>
      <use xlink:href="#DejaVuSans-29" x="1832.662109"/>
     </g>
    </g>
   </g>
   <g id="matplotlib.axis_2">
    <g id="ytick_1">
     <g id="line2d_7">
      <defs>
       <path id="m4fdd41b90f" d="M 0 0 
L -3.5 0 
" style="stroke: #000000; stroke-width: 0.8"/>
      </defs>
      <g>
       <use xlink:href="#m4fdd41b90f" x="86.42" y="433.432437" style="stroke: #000000; stroke-width: 0.8"/>
      </g>
     </g>
     <g id="text_8">
      <!-- 0.88 -->
      <g transform="translate(34.88875 441.030874) scale(0.2 -0.2)">
       <defs>
        <path id="DejaVuSans-2e" d="M 684 794 
L 1344 794 
L 1344 0 
L 684 0 
L 684 794 
z
" transform="scale(0.015625)"/>
        <path id="DejaVuSans-38" d="M 2034 2216 
Q 1584 2216 1326 1975 
Q 1069 1734 1069 1313 
Q 1069 891 1326 650 
Q 1584 409 2034 409 
Q 2484 409 2743 651 
Q 3003 894 3003 1313 
Q 3003 1734 2745 1975 
Q 2488 2216 2034 2216 
z
M 1403 2484 
Q 997 2584 770 2862 
Q 544 3141 544 3541 
Q 544 4100 942 4425 
Q 1341 4750 2034 4750 
Q 2731 4750 3128 4425 
Q 3525 4100 3525 3541 
Q 3525 3141 3298 2862 
Q 3072 2584 2669 2484 
Q 3125 2378 3379 2068 
Q 3634 1759 3634 1313 
Q 3634 634 3220 271 
Q 2806 -91 2034 -91 
Q 1263 -91 848 271 
Q 434 634 434 1313 
Q 434 1759 690 2068 
Q 947 2378 1403 2484 
z
M 1172 3481 
Q 1172 3119 1398 2916 
Q 1625 2713 2034 2713 
Q 2441 2713 2670 2916 
Q 2900 3119 2900 3481 
Q 2900 3844 2670 4047 
Q 2441 4250 2034 4250 
Q 1625 4250 1398 4047 
Q 1172 3844 1172 3481 
z
" transform="scale(0.015625)"/>
       </defs>
       <use xlink:href="#DejaVuSans-30"/>
       <use xlink:href="#DejaVuSans-2e" x="63.623047"/>
       <use xlink:href="#DejaVuSans-38" x="95.410156"/>
       <use xlink:href="#DejaVuSans-38" x="159.033203"/>
      </g>
     </g>
    </g>
    <g id="ytick_2">
     <g id="line2d_8">
      <g>
       <use xlink:href="#m4fdd41b90f" x="86.42" y="347.292289" style="stroke: #000000; stroke-width: 0.8"/>
      </g>
     </g>
     <g id="text_9">
      <!-- 0.89 -->
      <g transform="translate(34.88875 354.890727) scale(0.2 -0.2)">
       <defs>
        <path id="DejaVuSans-39" d="M 703 97 
L 703 672 
Q 941 559 1184 500 
Q 1428 441 1663 441 
Q 2288 441 2617 861 
Q 2947 1281 2994 2138 
Q 2813 1869 2534 1725 
Q 2256 1581 1919 1581 
Q 1219 1581 811 2004 
Q 403 2428 403 3163 
Q 403 3881 828 4315 
Q 1253 4750 1959 4750 
Q 2769 4750 3195 4129 
Q 3622 3509 3622 2328 
Q 3622 1225 3098 567 
Q 2575 -91 1691 -91 
Q 1453 -91 1209 -44 
Q 966 3 703 97 
z
M 1959 2075 
Q 2384 2075 2632 2365 
Q 2881 2656 2881 3163 
Q 2881 3666 2632 3958 
Q 2384 4250 1959 4250 
Q 1534 4250 1286 3958 
Q 1038 3666 1038 3163 
Q 1038 2656 1286 2365 
Q 1534 2075 1959 2075 
z
" transform="scale(0.015625)"/>
       </defs>
       <use xlink:href="#DejaVuSans-30"/>
       <use xlink:href="#DejaVuSans-2e" x="63.623047"/>
       <use xlink:href="#DejaVuSans-38" x="95.410156"/>
       <use xlink:href="#DejaVuSans-39" x="159.033203"/>
      </g>
     </g>
    </g>
    <g id="ytick_3">
     <g id="line2d_9">
      <g>
       <use xlink:href="#m4fdd41b90f" x="86.42" y="261.152141" style="stroke: #000000; stroke-width: 0.8"/>
      </g>
     </g>
     <g id="text_10">
      <!-- 0.90 -->
      <g transform="translate(34.88875 268.750579) scale(0.2 -0.2)">
       <use xlink:href="#DejaVuSans-30"/>
       <use xlink:href="#DejaVuSans-2e" x="63.623047"/>
       <use xlink:href="#DejaVuSans-39" x="95.410156"/>
       <use xlink:href="#DejaVuSans-30" x="159.033203"/>
      </g>
     </g>
    </g>
    <g id="ytick_4">
     <g id="line2d_10">
      <g>
       <use xlink:href="#m4fdd41b90f" x="86.42" y="175.011994" style="stroke: #000000; stroke-width: 0.8"/>
      </g>
     </g>
     <g id="text_11">
      <!-- 0.91 -->
      <g transform="translate(34.88875 182.610431) scale(0.2 -0.2)">
       <use xlink:href="#DejaVuSans-30"/>
       <use xlink:href="#DejaVuSans-2e" x="63.623047"/>
       <use xlink:href="#DejaVuSans-39" x="95.410156"/>
       <use xlink:href="#DejaVuSans-31" x="159.033203"/>
      </g>
     </g>
    </g>
    <g id="ytick_5">
     <g id="line2d_11">
      <g>
       <use xlink:href="#m4fdd41b90f" x="86.42" y="88.871846" style="stroke: #000000; stroke-width: 0.8"/>
      </g>
     </g>
     <g id="text_12">
      <!-- 0.92 -->
      <g transform="translate(34.88875 96.470283) scale(0.2 -0.2)">
       <use xlink:href="#DejaVuSans-30"/>
       <use xlink:href="#DejaVuSans-2e" x="63.623047"/>
       <use xlink:href="#DejaVuSans-39" x="95.410156"/>
       <use xlink:href="#DejaVuSans-32" x="159.033203"/>
      </g>
     </g>
    </g>
    <g id="text_13">
     <!-- R2 -->
     <g transform="translate(26.729375 263.986938) rotate(-90) scale(0.2 -0.2)">
      <defs>
       <path id="DejaVuSans-52" d="M 2841 2188 
Q 3044 2119 3236 1894 
Q 3428 1669 3622 1275 
L 4263 0 
L 3584 0 
L 2988 1197 
Q 2756 1666 2539 1819 
Q 2322 1972 1947 1972 
L 1259 1972 
L 1259 0 
L 628 0 
L 628 4666 
L 2053 4666 
Q 2853 4666 3247 4331 
Q 3641 3997 3641 3322 
Q 3641 2881 3436 2590 
Q 3231 2300 2841 2188 
z
M 1259 4147 
L 1259 2491 
L 2053 2491 
Q 2509 2491 2742 2702 
Q 2975 2913 2975 3322 
Q 2975 3731 2742 3939 
Q 2509 4147 2053 4147 
L 1259 4147 
z
" transform="scale(0.015625)"/>
      </defs>
      <use xlink:href="#DejaVuSans-52"/>
      <use xlink:href="#DejaVuSans-32" x="69.482422"/>
     </g>
    </g>
   </g>
   <g id="line2d_12">
    <path d="M 134.364545 228.856997 
L 174.318333 247.615402 
L 214.272121 207.82582 
L 254.225909 208.099012 
L 294.179697 199.743298 
L 334.133485 224.268758 
L 374.087273 195.210492 
L 414.041061 167.815642 
L 453.994848 188.82797 
L 493.948636 192.034618 
L 533.902424 243.259399 
L 573.856212 222.576905 
L 613.81 215.817394 
L 653.763788 187.38909 
L 693.717576 190.341586 
L 733.671364 182.219268 
L 773.625152 202.004293 
L 813.578939 216.025736 
L 853.532727 243.127458 
L 893.486515 210.266483 
L 933.440303 220.49603 
L 973.394091 197.002128 
L 1013.347879 190.296877 
L 1053.301667 211.688832 
L 1093.255455 185.998053 
" clip-path="url(#p4ce01498c6)" style="fill: none; stroke: #1f77b4; stroke-width: 1.5; stroke-linecap: square"/>
   </g>
   <g id="line2d_13">
    <path d="M 134.364545 180.049253 
L 174.318333 147.004567 
L 214.272121 134.690829 
L 254.225909 146.264994 
L 294.179697 181.612019 
L 334.133485 173.539596 
L 374.087273 142.502703 
L 414.041061 96.122288 
L 453.994848 145.555881 
L 493.948636 120.942746 
L 533.902424 223.63847 
L 573.856212 205.170397 
L 613.81 123.250801 
L 653.763788 128.619226 
L 693.717576 154.678005 
L 733.671364 175.634684 
L 773.625152 151.56734 
L 813.578939 166.287797 
L 853.532727 159.477639 
L 893.486515 108.197751 
L 933.440303 186.59222 
L 973.394091 123.457335 
L 1013.347879 162.512259 
L 1053.301667 167.144237 
L 1093.255455 136.526937 
" clip-path="url(#p4ce01498c6)" style="fill: none; stroke: #ff7f0e; stroke-width: 1.5; stroke-linecap: square"/>
   </g>
   <g id="line2d_14">
    <path d="M 134.364545 253.914116 
L 174.318333 238.555574 
L 214.272121 206.759377 
L 254.225909 215.100441 
L 294.179697 222.336542 
L 334.133485 218.8878 
L 374.087273 236.400082 
L 414.041061 179.703773 
L 453.994848 237.339214 
L 493.948636 198.14341 
L 533.902424 241.780292 
L 573.856212 241.018497 
L 613.81 165.783462 
L 653.763788 187.102668 
L 693.717576 162.310257 
L 733.671364 213.369403 
L 773.625152 183.877163 
L 813.578939 152.349214 
L 853.532727 174.27208 
L 893.486515 190.605643 
L 933.440303 194.111879 
L 973.394091 234.30764 
L 1013.347879 219.788145 
L 1053.301667 227.118201 
L 1093.255455 188.835337 
" clip-path="url(#p4ce01498c6)" style="fill: none; stroke: #2ca02c; stroke-width: 1.5; stroke-linecap: square"/>
   </g>
   <g id="line2d_15">
    <path d="M 134.364545 341.141383 
L 174.318333 298.055709 
L 214.272121 280.680758 
L 254.225909 250.88877 
L 294.179697 294.49357 
L 334.133485 308.881239 
L 374.087273 302.812144 
L 414.041061 209.275109 
L 453.994848 311.511514 
L 493.948636 241.846218 
L 533.902424 365.183594 
L 573.856212 295.887566 
L 613.81 266.670373 
L 653.763788 297.225795 
L 693.717576 286.577447 
L 733.671364 329.864488 
L 773.625152 267.697944 
L 813.578939 295.236816 
L 853.532727 289.006982 
L 893.486515 259.995384 
L 933.440303 276.43727 
L 973.394091 271.465925 
L 1013.347879 258.958396 
L 1053.301667 309.609222 
L 1093.255455 260.780573 
" clip-path="url(#p4ce01498c6)" style="fill: none; stroke: #d62728; stroke-width: 1.5; stroke-linecap: square"/>
   </g>
   <g id="line2d_16">
    <path d="M 134.364545 156.348543 
L 174.318333 115.016162 
L 214.272121 110.88719 
L 254.225909 146.520733 
L 294.179697 79.896462 
L 334.133485 100.039868 
L 374.087273 101.193325 
L 414.041061 100.432518 
L 453.994848 109.469119 
L 493.948636 130.735347 
L 533.902424 130.90911 
L 573.856212 102.301309 
L 613.81 83.20049 
L 653.763788 87.236377 
L 693.717576 92.004365 
L 733.671364 125.370372 
L 773.625152 103.619316 
L 813.578939 94.248766 
L 853.532727 117.243433 
L 893.486515 201.19063 
L 933.440303 106.59543 
L 973.394091 134.459609 
L 1013.347879 133.555413 
L 1053.301667 119.332657 
L 1093.255455 172.907891 
" clip-path="url(#p4ce01498c6)" style="fill: none; stroke: #9467bd; stroke-width: 1.5; stroke-linecap: square"/>
   </g>
   <g id="line2d_17">
    <path d="M 134.364545 269.152995 
L 174.318333 212.944728 
L 214.272121 160.960413 
L 254.225909 210.517208 
L 294.179697 233.598402 
L 334.133485 195.905852 
L 374.087273 285.680526 
L 414.041061 197.417993 
L 453.994848 189.093439 
L 493.948636 192.085831 
L 533.902424 164.15977 
L 573.856212 156.843553 
L 613.81 124.851793 
L 653.763788 161.936681 
L 693.717576 190.908455 
L 733.671364 184.46431 
L 773.625152 182.659457 
L 813.578939 170.25288 
L 853.532727 164.106862 
L 893.486515 207.962291 
L 933.440303 188.394517 
L 973.394091 210.10576 
L 1013.347879 175.408912 
L 1053.301667 151.221725 
L 1093.255455 250.87999 
" clip-path="url(#p4ce01498c6)" style="fill: none; stroke: #8c564b; stroke-width: 1.5; stroke-linecap: square"/>
   </g>
   <g id="line2d_18">
    <path d="M 134.364545 256.297893 
L 174.318333 219.836735 
L 214.272121 196.584521 
L 254.225909 181.559165 
L 294.179697 177.528995 
L 334.133485 185.387963 
L 374.087273 211.073426 
L 414.041061 160.524829 
L 453.994848 158.681859 
L 493.948636 155.272385 
L 533.902424 169.429285 
L 573.856212 178.983107 
L 613.81 164.453542 
L 653.763788 138.607177 
L 693.717576 148.445627 
L 733.671364 146.498667 
L 773.625152 155.875379 
L 813.578939 122.860022 
L 853.532727 146.510719 
L 893.486515 264.577041 
L 933.440303 160.833279 
L 973.394091 184.174842 
L 1013.347879 161.072949 
L 1053.301667 155.221066 
L 1093.255455 160.792036 
" clip-path="url(#p4ce01498c6)" style="fill: none; stroke: #e377c2; stroke-width: 1.5; stroke-linecap: square"/>
   </g>
   <g id="line2d_19">
    <path d="M 134.364545 253.907615 
L 174.318333 231.910333 
L 214.272121 192.878081 
L 254.225909 193.435631 
L 294.179697 198.442693 
L 334.133485 242.339358 
L 374.087273 231.518789 
L 414.041061 172.794614 
L 453.994848 206.607805 
L 493.948636 194.088296 
L 533.902424 183.709724 
L 573.856212 210.36142 
L 613.81 173.564413 
L 653.763788 178.308683 
L 693.717576 194.448518 
L 733.671364 199.928787 
L 773.625152 186.907252 
L 813.578939 197.537729 
L 853.532727 206.846855 
L 893.486515 257.930892 
L 933.440303 209.395318 
L 973.394091 216.1669 
L 1013.347879 202.738802 
L 1053.301667 199.003141 
L 1093.255455 191.413521 
" clip-path="url(#p4ce01498c6)" style="fill: none; stroke: #7f7f7f; stroke-width: 1.5; stroke-linecap: square"/>
   </g>
   <g id="line2d_20"/>
   <g id="line2d_21"/>
   <g id="line2d_22"/>
   <g id="line2d_23"/>
   <g id="line2d_24"/>
   <g id="line2d_25"/>
   <g id="line2d_26"/>
   <g id="line2d_27"/>
   <g id="patch_3">
    <path d="M 86.42 490.552 
L 86.42 10.8 
" style="fill: none; stroke: #000000; stroke-width: 0.8; stroke-linejoin: miter; stroke-linecap: square"/>
   </g>
   <g id="patch_4">
    <path d="M 1141.2 490.552 
L 1141.2 10.8 
" style="fill: none; stroke: #000000; stroke-width: 0.8; stroke-linejoin: miter; stroke-linecap: square"/>
   </g>
   <g id="patch_5">
    <path d="M 86.42 490.552 
L 1141.2 490.552 
" style="fill: none; stroke: #000000; stroke-width: 0.8; stroke-linejoin: miter; stroke-linecap: square"/>
   </g>
   <g id="patch_6">
    <path d="M 86.42 10.8 
L 1141.2 10.8 
" style="fill: none; stroke: #000000; stroke-width: 0.8; stroke-linejoin: miter; stroke-linecap: square"/>
   </g>
   <g id="legend_1">
    <g id="patch_7">
     <path d="M 97.62 482.552 
L 293.8575 482.552 
Q 297.0575 482.552 297.0575 479.352 
L 297.0575 291.292 
Q 297.0575 288.092 293.8575 288.092 
L 97.62 288.092 
Q 94.42 288.092 94.42 291.292 
L 94.42 479.352 
Q 94.42 482.552 97.62 482.552 
z
" style="fill: #ffffff; opacity: 0.8; stroke: #cccccc; stroke-linejoin: miter"/>
    </g>
    <g id="line2d_28">
     <path d="M 100.82 301.0495 
L 116.82 301.0495 
L 132.82 301.0495 
" style="fill: none; stroke: #1f77b4; stroke-width: 1.5; stroke-linecap: square"/>
    </g>
    <g id="text_14">
     <!-- BayesianRidge -->
     <g transform="translate(145.62 306.6495) scale(0.16 -0.16)">
      <defs>
       <path id="DejaVuSans-42" d="M 1259 2228 
L 1259 519 
L 2272 519 
Q 2781 519 3026 730 
Q 3272 941 3272 1375 
Q 3272 1813 3026 2020 
Q 2781 2228 2272 2228 
L 1259 2228 
z
M 1259 4147 
L 1259 2741 
L 2194 2741 
Q 2656 2741 2882 2914 
Q 3109 3088 3109 3444 
Q 3109 3797 2882 3972 
Q 2656 4147 2194 4147 
L 1259 4147 
z
M 628 4666 
L 2241 4666 
Q 2963 4666 3353 4366 
Q 3744 4066 3744 3513 
Q 3744 3084 3544 2831 
Q 3344 2578 2956 2516 
Q 3422 2416 3680 2098 
Q 3938 1781 3938 1306 
Q 3938 681 3513 340 
Q 3088 0 2303 0 
L 628 0 
L 628 4666 
z
" transform="scale(0.015625)"/>
       <path id="DejaVuSans-79" d="M 2059 -325 
Q 1816 -950 1584 -1140 
Q 1353 -1331 966 -1331 
L 506 -1331 
L 506 -850 
L 844 -850 
Q 1081 -850 1212 -737 
Q 1344 -625 1503 -206 
L 1606 56 
L 191 3500 
L 800 3500 
L 1894 763 
L 2988 3500 
L 3597 3500 
L 2059 -325 
z
" transform="scale(0.015625)"/>
      </defs>
      <use xlink:href="#DejaVuSans-42"/>
      <use xlink:href="#DejaVuSans-61" x="68.603516"/>
      <use xlink:href="#DejaVuSans-79" x="129.882812"/>
      <use xlink:href="#DejaVuSans-65" x="189.0625"/>
      <use xlink:href="#DejaVuSans-73" x="250.585938"/>
      <use xlink:href="#DejaVuSans-69" x="302.685547"/>
      <use xlink:href="#DejaVuSans-61" x="330.46875"/>
      <use xlink:href="#DejaVuSans-6e" x="391.748047"/>
      <use xlink:href="#DejaVuSans-52" x="455.126953"/>
      <use xlink:href="#DejaVuSans-69" x="524.609375"/>
      <use xlink:href="#DejaVuSans-64" x="552.392578"/>
      <use xlink:href="#DejaVuSans-67" x="615.869141"/>
      <use xlink:href="#DejaVuSans-65" x="679.345703"/>
     </g>
    </g>
    <g id="line2d_29">
     <path d="M 100.82 324.5345 
L 116.82 324.5345 
L 132.82 324.5345 
" style="fill: none; stroke: #ff7f0e; stroke-width: 1.5; stroke-linecap: square"/>
    </g>
    <g id="text_15">
     <!-- gbr -->
     <g transform="translate(145.62 330.1345) scale(0.16 -0.16)">
      <defs>
       <path id="DejaVuSans-62" d="M 3116 1747 
Q 3116 2381 2855 2742 
Q 2594 3103 2138 3103 
Q 1681 3103 1420 2742 
Q 1159 2381 1159 1747 
Q 1159 1113 1420 752 
Q 1681 391 2138 391 
Q 2594 391 2855 752 
Q 3116 1113 3116 1747 
z
M 1159 2969 
Q 1341 3281 1617 3432 
Q 1894 3584 2278 3584 
Q 2916 3584 3314 3078 
Q 3713 2572 3713 1747 
Q 3713 922 3314 415 
Q 2916 -91 2278 -91 
Q 1894 -91 1617 61 
Q 1341 213 1159 525 
L 1159 0 
L 581 0 
L 581 4863 
L 1159 4863 
L 1159 2969 
z
" transform="scale(0.015625)"/>
      </defs>
      <use xlink:href="#DejaVuSans-67"/>
      <use xlink:href="#DejaVuSans-62" x="63.476562"/>
      <use xlink:href="#DejaVuSans-72" x="126.953125"/>
     </g>
    </g>
    <g id="line2d_30">
     <path d="M 100.82 348.0195 
L 116.82 348.0195 
L 132.82 348.0195 
" style="fill: none; stroke: #2ca02c; stroke-width: 1.5; stroke-linecap: square"/>
    </g>
    <g id="text_16">
     <!-- xgb -->
     <g transform="translate(145.62 353.6195) scale(0.16 -0.16)">
      <defs>
       <path id="DejaVuSans-78" d="M 3513 3500 
L 2247 1797 
L 3578 0 
L 2900 0 
L 1881 1375 
L 863 0 
L 184 0 
L 1544 1831 
L 300 3500 
L 978 3500 
L 1906 2253 
L 2834 3500 
L 3513 3500 
z
" transform="scale(0.015625)"/>
      </defs>
      <use xlink:href="#DejaVuSans-78"/>
      <use xlink:href="#DejaVuSans-67" x="59.179688"/>
      <use xlink:href="#DejaVuSans-62" x="122.65625"/>
     </g>
    </g>
    <g id="line2d_31">
     <path d="M 100.82 371.5045 
L 116.82 371.5045 
L 132.82 371.5045 
" style="fill: none; stroke: #d62728; stroke-width: 1.5; stroke-linecap: square"/>
    </g>
    <g id="text_17">
     <!-- rf -->
     <g transform="translate(145.62 377.1045) scale(0.16 -0.16)">
      <defs>
       <path id="DejaVuSans-66" d="M 2375 4863 
L 2375 4384 
L 1825 4384 
Q 1516 4384 1395 4259 
Q 1275 4134 1275 3809 
L 1275 3500 
L 2222 3500 
L 2222 3053 
L 1275 3053 
L 1275 0 
L 697 0 
L 697 3053 
L 147 3053 
L 147 3500 
L 697 3500 
L 697 3744 
Q 697 4328 969 4595 
Q 1241 4863 1831 4863 
L 2375 4863 
z
" transform="scale(0.015625)"/>
      </defs>
      <use xlink:href="#DejaVuSans-72"/>
      <use xlink:href="#DejaVuSans-66" x="41.113281"/>
     </g>
    </g>
    <g id="line2d_32">
     <path d="M 100.82 394.9895 
L 116.82 394.9895 
L 132.82 394.9895 
" style="fill: none; stroke: #9467bd; stroke-width: 1.5; stroke-linecap: square"/>
    </g>
    <g id="text_18">
     <!-- xgb_gs -->
     <g transform="translate(145.62 400.5895) scale(0.16 -0.16)">
      <defs>
       <path id="DejaVuSans-5f" d="M 3263 -1063 
L 3263 -1509 
L -63 -1509 
L -63 -1063 
L 3263 -1063 
z
" transform="scale(0.015625)"/>
      </defs>
      <use xlink:href="#DejaVuSans-78"/>
      <use xlink:href="#DejaVuSans-67" x="59.179688"/>
      <use xlink:href="#DejaVuSans-62" x="122.65625"/>
      <use xlink:href="#DejaVuSans-5f" x="186.132812"/>
      <use xlink:href="#DejaVuSans-67" x="236.132812"/>
      <use xlink:href="#DejaVuSans-73" x="299.609375"/>
     </g>
    </g>
    <g id="line2d_33">
     <path d="M 100.82 418.9195 
L 116.82 418.9195 
L 132.82 418.9195 
" style="fill: none; stroke: #8c564b; stroke-width: 1.5; stroke-linecap: square"/>
    </g>
    <g id="text_19">
     <!-- gbr_gs -->
     <g transform="translate(145.62 424.5195) scale(0.16 -0.16)">
      <use xlink:href="#DejaVuSans-67"/>
      <use xlink:href="#DejaVuSans-62" x="63.476562"/>
      <use xlink:href="#DejaVuSans-72" x="126.953125"/>
      <use xlink:href="#DejaVuSans-5f" x="168.066406"/>
      <use xlink:href="#DejaVuSans-67" x="218.066406"/>
      <use xlink:href="#DejaVuSans-73" x="281.542969"/>
     </g>
    </g>
    <g id="line2d_34">
     <path d="M 100.82 442.8495 
L 116.82 442.8495 
L 132.82 442.8495 
" style="fill: none; stroke: #e377c2; stroke-width: 1.5; stroke-linecap: square"/>
    </g>
    <g id="text_20">
     <!-- rf_gs -->
     <g transform="translate(145.62 448.4495) scale(0.16 -0.16)">
      <use xlink:href="#DejaVuSans-72"/>
      <use xlink:href="#DejaVuSans-66" x="41.113281"/>
      <use xlink:href="#DejaVuSans-5f" x="76.318359"/>
      <use xlink:href="#DejaVuSans-67" x="126.318359"/>
      <use xlink:href="#DejaVuSans-73" x="189.794922"/>
     </g>
    </g>
    <g id="line2d_35">
     <path d="M 100.82 466.7795 
L 116.82 466.7795 
L 132.82 466.7795 
" style="fill: none; stroke: #7f7f7f; stroke-width: 1.5; stroke-linecap: square"/>
    </g>
    <g id="text_21">
     <!-- BayesianRidge_gs -->
     <g transform="translate(145.62 472.3795) scale(0.16 -0.16)">
      <use xlink:href="#DejaVuSans-42"/>
      <use xlink:href="#DejaVuSans-61" x="68.603516"/>
      <use xlink:href="#DejaVuSans-79" x="129.882812"/>
      <use xlink:href="#DejaVuSans-65" x="189.0625"/>
      <use xlink:href="#DejaVuSans-73" x="250.585938"/>
      <use xlink:href="#DejaVuSans-69" x="302.685547"/>
      <use xlink:href="#DejaVuSans-61" x="330.46875"/>
      <use xlink:href="#DejaVuSans-6e" x="391.748047"/>
      <use xlink:href="#DejaVuSans-52" x="455.126953"/>
      <use xlink:href="#DejaVuSans-69" x="524.609375"/>
      <use xlink:href="#DejaVuSans-64" x="552.392578"/>
      <use xlink:href="#DejaVuSans-67" x="615.869141"/>
      <use xlink:href="#DejaVuSans-65" x="679.345703"/>
      <use xlink:href="#DejaVuSans-5f" x="740.869141"/>
      <use xlink:href="#DejaVuSans-67" x="790.869141"/>
      <use xlink:href="#DejaVuSans-73" x="854.345703"/>
     </g>
    </g>
   </g>
  </g>
 </g>
 <defs>
  <clipPath id="p4ce01498c6">
   <rect x="86.42" y="10.8" width="1054.78" height="479.752"/>
  </clipPath>
 </defs>
</svg>
