<?xml version="1.0" encoding="utf-8" standalone="no"?>
<!DOCTYPE svg PUBLIC "-//W3C//DTD SVG 1.1//EN"
  "http://www.w3.org/Graphics/SVG/1.1/DTD/svg11.dtd">
<svg xmlns:xlink="http://www.w3.org/1999/xlink" width="1152pt" height="576pt" viewBox="0 0 1152 576" xmlns="http://www.w3.org/2000/svg" version="1.1">
 <metadata>
  <rdf:RDF xmlns:dc="http://purl.org/dc/elements/1.1/" xmlns:cc="http://creativecommons.org/ns#" xmlns:rdf="http://www.w3.org/1999/02/22-rdf-syntax-ns#">
   <cc:Work>
    <dc:type rdf:resource="http://purl.org/dc/dcmitype/StillImage"/>
    <dc:date>2025-04-22T15:17:21.394922</dc:date>
    <dc:format>image/svg+xml</dc:format>
    <dc:creator>
     <cc:Agent>
      <dc:title>Matplotlib v3.7.1, https://matplotlib.org/</dc:title>
     </cc:Agent>
    </dc:creator>
   </cc:Work>
  </rdf:RDF>
 </metadata>
 <defs>
  <style type="text/css">*{stroke-linejoin: round; stroke-linecap: butt}</style>
 </defs>
 <g id="figure_1">
  <g id="patch_1">
   <path d="M 0 576 
L 1152 576 
L 1152 0 
L 0 0 
z
" style="fill: #ffffff"/>
  </g>
  <g id="axes_1">
   <g id="patch_2">
    <path d="M 99.11 490.552 
L 1141.2 490.552 
L 1141.2 10.8 
L 99.11 10.8 
z
" style="fill: #ffffff"/>
   </g>
   <g id="PolyCollection_1">
    <defs>
     <path id="m7f5b3727ab" d="M 146.477727 -511.906339 
L 146.477727 -425.772784 
L 185.950833 -328.47918 
L 225.423939 -316.588372 
L 264.897045 -345.476622 
L 304.370152 -331.23838 
L 343.843258 -331.626898 
L 383.316364 -387.59395 
L 422.78947 -338.32496 
L 462.262576 -415.219696 
L 501.735682 -390.315254 
L 541.208788 -393.017746 
L 580.681894 -416.323728 
L 620.155 -387.176455 
L 659.628106 -402.955456 
L 699.101212 -393.808022 
L 738.574318 -352.765595 
L 778.047424 -421.510361 
L 817.52053 -418.992607 
L 856.993636 -460.894655 
L 896.466742 -427.697663 
L 935.939848 -398.049602 
L 975.412955 -404.196403 
L 1014.886061 -391.911216 
L 1054.359167 -399.626965 
L 1093.832273 -402.548826 
L 1093.832273 -471.289475 
L 1093.832273 -471.289475 
L 1054.359167 -530.73889 
L 1014.886061 -433.853992 
L 975.412955 -449.635007 
L 935.939848 -502.28827 
L 896.466742 -462.542457 
L 856.993636 -511.316245 
L 817.52053 -543.393091 
L 778.047424 -521.686455 
L 738.574318 -458.198862 
L 699.101212 -534.135304 
L 659.628106 -484.516741 
L 620.155 -474.277248 
L 580.681894 -474.073966 
L 541.208788 -499.972223 
L 501.735682 -432.863721 
L 462.262576 -454.923445 
L 422.78947 -414.94536 
L 383.316364 -443.257344 
L 343.843258 -428.40053 
L 304.370152 -377.08753 
L 264.897045 -420.019387 
L 225.423939 -382.683202 
L 185.950833 -416.642882 
L 146.477727 -511.906339 
z
" style="stroke: #1f77b4; stroke-opacity: 0.2"/>
    </defs>
    <g clip-path="url(#p9cab84903e)">
     <use xlink:href="#m7f5b3727ab" x="0" y="576" style="fill: #1f77b4; fill-opacity: 0.2; stroke: #1f77b4; stroke-opacity: 0.2"/>
    </g>
   </g>
   <g id="PolyCollection_2">
    <defs>
     <path id="md6416edbeb" d="M 146.477727 -429.529624 
L 146.477727 -340.705203 
L 185.950833 -219.564557 
L 225.423939 -223.927525 
L 264.897045 -213.299798 
L 304.370152 -277.163785 
L 343.843258 -230.186588 
L 383.316364 -260.494124 
L 422.78947 -219.963984 
L 462.262576 -253.23041 
L 501.735682 -240.59883 
L 541.208788 -278.466285 
L 580.681894 -272.523452 
L 620.155 -218.760472 
L 659.628106 -267.926193 
L 699.101212 -281.580978 
L 738.574318 -321.810616 
L 778.047424 -306.197984 
L 817.52053 -295.035215 
L 856.993636 -293.669203 
L 896.466742 -226.928481 
L 935.939848 -281.630787 
L 975.412955 -271.294479 
L 1014.886061 -294.342641 
L 1054.359167 -279.619247 
L 1093.832273 -305.714651 
L 1093.832273 -410.381519 
L 1093.832273 -410.381519 
L 1054.359167 -418.374915 
L 1014.886061 -377.717478 
L 975.412955 -317.135468 
L 935.939848 -389.820221 
L 896.466742 -341.192554 
L 856.993636 -377.598274 
L 817.52053 -402.072118 
L 778.047424 -363.645873 
L 738.574318 -414.332759 
L 699.101212 -434.243427 
L 659.628106 -367.423006 
L 620.155 -353.232338 
L 580.681894 -436.036516 
L 541.208788 -420.689139 
L 501.735682 -319.847508 
L 462.262576 -386.435155 
L 422.78947 -269.511031 
L 383.316364 -347.77909 
L 343.843258 -337.010078 
L 304.370152 -346.084408 
L 264.897045 -302.891098 
L 225.423939 -275.06156 
L 185.950833 -305.109987 
L 146.477727 -429.529624 
z
" style="stroke: #ff7f0e; stroke-opacity: 0.2"/>
    </defs>
    <g clip-path="url(#p9cab84903e)">
     <use xlink:href="#md6416edbeb" x="0" y="576" style="fill: #ff7f0e; fill-opacity: 0.2; stroke: #ff7f0e; stroke-opacity: 0.2"/>
    </g>
   </g>
   <g id="PolyCollection_3">
    <defs>
     <path id="m62c5d46185" d="M 146.477727 -341.816094 
L 146.477727 -253.631964 
L 185.950833 -143.283039 
L 225.423939 -113.568941 
L 264.897045 -178.255287 
L 304.370152 -167.698251 
L 343.843258 -170.331016 
L 383.316364 -147.191293 
L 422.78947 -180.779941 
L 462.262576 -216.091776 
L 501.735682 -191.871591 
L 541.208788 -213.920291 
L 580.681894 -213.647286 
L 620.155 -158.893976 
L 659.628106 -156.66081 
L 699.101212 -152.632013 
L 738.574318 -231.064784 
L 778.047424 -243.872646 
L 817.52053 -188.33433 
L 856.993636 -241.82189 
L 896.466742 -210.557366 
L 935.939848 -209.465544 
L 975.412955 -245.983086 
L 1014.886061 -229.940565 
L 1054.359167 -224.079085 
L 1093.832273 -253.178833 
L 1093.832273 -434.616485 
L 1093.832273 -434.616485 
L 1054.359167 -438.567168 
L 1014.886061 -335.736465 
L 975.412955 -349.209362 
L 935.939848 -361.540587 
L 896.466742 -341.853606 
L 856.993636 -330.159272 
L 817.52053 -374.366407 
L 778.047424 -345.734806 
L 738.574318 -424.67254 
L 699.101212 -282.716173 
L 659.628106 -328.375125 
L 620.155 -271.715367 
L 580.681894 -394.103148 
L 541.208788 -344.601058 
L 501.735682 -336.625349 
L 462.262576 -353.477529 
L 422.78947 -263.052808 
L 383.316364 -339.733191 
L 343.843258 -294.957747 
L 304.370152 -306.230451 
L 264.897045 -240.124883 
L 225.423939 -295.481855 
L 185.950833 -252.26983 
L 146.477727 -341.816094 
z
" style="stroke: #2ca02c; stroke-opacity: 0.2"/>
    </defs>
    <g clip-path="url(#p9cab84903e)">
     <use xlink:href="#m62c5d46185" x="0" y="576" style="fill: #2ca02c; fill-opacity: 0.2; stroke: #2ca02c; stroke-opacity: 0.2"/>
    </g>
   </g>
   <g id="PolyCollection_4">
    <defs>
     <path id="m1156b3ffa1" d="M 146.477727 -503.415783 
L 146.477727 -453.809545 
L 185.950833 -277.102353 
L 225.423939 -302.076797 
L 264.897045 -270.999424 
L 304.370152 -296.619977 
L 343.843258 -260.584258 
L 383.316364 -302.85718 
L 422.78947 -266.076007 
L 462.262576 -332.192181 
L 501.735682 -315.670911 
L 541.208788 -352.278563 
L 580.681894 -354.336814 
L 620.155 -332.935478 
L 659.628106 -359.024304 
L 699.101212 -372.484117 
L 738.574318 -390.860769 
L 778.047424 -365.662328 
L 817.52053 -401.234285 
L 856.993636 -410.448596 
L 896.466742 -321.120422 
L 935.939848 -343.130872 
L 975.412955 -381.189048 
L 1014.886061 -337.932478 
L 1054.359167 -395.076519 
L 1093.832273 -360.57664 
L 1093.832273 -474.625258 
L 1093.832273 -474.625258 
L 1054.359167 -537.384179 
L 1014.886061 -478.688373 
L 975.412955 -440.149821 
L 935.939848 -447.454448 
L 896.466742 -407.031009 
L 856.993636 -494.122592 
L 817.52053 -504.933635 
L 778.047424 -451.980052 
L 738.574318 -525.309673 
L 699.101212 -474.719291 
L 659.628106 -474.458877 
L 620.155 -413.845681 
L 580.681894 -454.615408 
L 541.208788 -488.307103 
L 501.735682 -406.90507 
L 462.262576 -476.389948 
L 422.78947 -320.997133 
L 383.316364 -473.329072 
L 343.843258 -399.270518 
L 304.370152 -369.015709 
L 264.897045 -355.546435 
L 225.423939 -329.697302 
L 185.950833 -360.326277 
L 146.477727 -503.415783 
z
" style="stroke: #d62728; stroke-opacity: 0.2"/>
    </defs>
    <g clip-path="url(#p9cab84903e)">
     <use xlink:href="#m1156b3ffa1" x="0" y="576" style="fill: #d62728; fill-opacity: 0.2; stroke: #d62728; stroke-opacity: 0.2"/>
    </g>
   </g>
   <g id="PolyCollection_5">
    <defs>
     <path id="m22cd41bd24" d="M 146.477727 -303.063053 
L 146.477727 -228.869101 
L 185.950833 -107.254909 
L 225.423939 -120.863588 
L 264.897045 -118.630244 
L 304.370152 -126.278209 
L 343.843258 -115.689776 
L 383.316364 -125.333156 
L 422.78947 -125.243972 
L 462.262576 -137.878013 
L 501.735682 -161.181591 
L 541.208788 -165.427041 
L 580.681894 -132.205326 
L 620.155 -134.367096 
L 659.628106 -148.400436 
L 699.101212 -196.655591 
L 738.574318 -174.575938 
L 778.047424 -184.012584 
L 817.52053 -134.584638 
L 856.993636 -193.137569 
L 896.466742 -179.784449 
L 935.939848 -149.263082 
L 975.412955 -130.076901 
L 1014.886061 -208.307927 
L 1054.359167 -141.479657 
L 1093.832273 -245.805826 
L 1093.832273 -363.672913 
L 1093.832273 -363.672913 
L 1054.359167 -250.140551 
L 1014.886061 -312.428217 
L 975.412955 -240.609554 
L 935.939848 -278.797357 
L 896.466742 -246.250274 
L 856.993636 -283.125367 
L 817.52053 -254.866711 
L 778.047424 -264.342043 
L 738.574318 -249.863682 
L 699.101212 -245.138062 
L 659.628106 -249.689917 
L 620.155 -257.494295 
L 580.681894 -266.666917 
L 541.208788 -227.64097 
L 501.735682 -243.920462 
L 462.262576 -232.246411 
L 422.78947 -247.38286 
L 383.316364 -207.07763 
L 343.843258 -229.541137 
L 304.370152 -179.351515 
L 264.897045 -254.362932 
L 225.423939 -177.733589 
L 185.950833 -212.302926 
L 146.477727 -303.063053 
z
" style="stroke: #9467bd; stroke-opacity: 0.2"/>
    </defs>
    <g clip-path="url(#p9cab84903e)">
     <use xlink:href="#m22cd41bd24" x="0" y="576" style="fill: #9467bd; fill-opacity: 0.2; stroke: #9467bd; stroke-opacity: 0.2"/>
    </g>
   </g>
   <g id="PolyCollection_6">
    <defs>
     <path id="m3e1c21e79f" d="M 146.477727 -412.66765 
L 146.477727 -347.229301 
L 185.950833 -138.323394 
L 225.423939 -168.109535 
L 264.897045 -177.584176 
L 304.370152 -227.011929 
L 343.843258 -199.29629 
L 383.316364 -261.798312 
L 422.78947 -231.846598 
L 462.262576 -192.710227 
L 501.735682 -203.650817 
L 541.208788 -232.377562 
L 580.681894 -222.765535 
L 620.155 -169.944287 
L 659.628106 -270.440671 
L 699.101212 -240.588587 
L 738.574318 -209.614919 
L 778.047424 -239.0341 
L 817.52053 -217.616847 
L 856.993636 -199.732399 
L 896.466742 -219.990334 
L 935.939848 -211.704202 
L 975.412955 -243.512494 
L 1014.886061 -244.545782 
L 1054.359167 -218.468418 
L 1093.832273 -328.496092 
L 1093.832273 -420.410458 
L 1093.832273 -420.410458 
L 1054.359167 -327.418836 
L 1014.886061 -317.866729 
L 975.412955 -295.760134 
L 935.939848 -342.797026 
L 896.466742 -265.445814 
L 856.993636 -337.043513 
L 817.52053 -322.448987 
L 778.047424 -323.298221 
L 738.574318 -303.498695 
L 699.101212 -362.793793 
L 659.628106 -327.400618 
L 620.155 -289.383644 
L 580.681894 -292.346864 
L 541.208788 -295.154469 
L 501.735682 -294.439237 
L 462.262576 -296.002349 
L 422.78947 -304.005485 
L 383.316364 -333.775011 
L 343.843258 -307.555865 
L 304.370152 -284.780019 
L 264.897045 -270.476741 
L 225.423939 -233.543283 
L 185.950833 -266.038201 
L 146.477727 -412.66765 
z
" style="stroke: #8c564b; stroke-opacity: 0.2"/>
    </defs>
    <g clip-path="url(#p9cab84903e)">
     <use xlink:href="#m3e1c21e79f" x="0" y="576" style="fill: #8c564b; fill-opacity: 0.2; stroke: #8c564b; stroke-opacity: 0.2"/>
    </g>
   </g>
   <g id="PolyCollection_7">
    <defs>
     <path id="mfbd04cb9f7" d="M 146.477727 -371.04997 
L 146.477727 -301.721367 
L 185.950833 -143.613875 
L 225.423939 -191.151681 
L 264.897045 -165.410163 
L 304.370152 -179.200319 
L 343.843258 -189.526582 
L 383.316364 -237.014943 
L 422.78947 -211.402662 
L 462.262576 -206.348698 
L 501.735682 -217.894892 
L 541.208788 -244.86996 
L 580.681894 -263.560844 
L 620.155 -209.057426 
L 659.628106 -240.773171 
L 699.101212 -258.00991 
L 738.574318 -240.291989 
L 778.047424 -256.958841 
L 817.52053 -234.973327 
L 856.993636 -240.121375 
L 896.466742 -247.545347 
L 935.939848 -254.579213 
L 975.412955 -249.068148 
L 1014.886061 -256.467053 
L 1054.359167 -233.099649 
L 1093.832273 -269.50329 
L 1093.832273 -337.969552 
L 1093.832273 -337.969552 
L 1054.359167 -330.902934 
L 1014.886061 -322.194901 
L 975.412955 -304.464281 
L 935.939848 -318.668897 
L 896.466742 -305.197733 
L 856.993636 -312.374192 
L 817.52053 -268.039915 
L 778.047424 -323.84124 
L 738.574318 -285.578875 
L 699.101212 -321.641716 
L 659.628106 -324.578301 
L 620.155 -333.676331 
L 580.681894 -302.119119 
L 541.208788 -307.057209 
L 501.735682 -289.113675 
L 462.262576 -276.857703 
L 422.78947 -267.990157 
L 383.316364 -292.930946 
L 343.843258 -273.575501 
L 304.370152 -226.622122 
L 264.897045 -237.805297 
L 225.423939 -252.674544 
L 185.950833 -282.763829 
L 146.477727 -371.04997 
z
" style="stroke: #e377c2; stroke-opacity: 0.2"/>
    </defs>
    <g clip-path="url(#p9cab84903e)">
     <use xlink:href="#mfbd04cb9f7" x="0" y="576" style="fill: #e377c2; fill-opacity: 0.2; stroke: #e377c2; stroke-opacity: 0.2"/>
    </g>
   </g>
   <g id="PolyCollection_8">
    <defs>
     <path id="m0390f1d79f" d="M 146.477727 -528.598551 
L 146.477727 -434.698056 
L 185.950833 -329.460513 
L 225.423939 -336.991233 
L 264.897045 -320.22283 
L 304.370152 -339.404669 
L 343.843258 -407.436817 
L 383.316364 -381.646 
L 422.78947 -355.723224 
L 462.262576 -380.717674 
L 501.735682 -369.715248 
L 541.208788 -389.410432 
L 580.681894 -420.5897 
L 620.155 -384.486686 
L 659.628106 -412.686535 
L 699.101212 -393.384897 
L 738.574318 -403.930539 
L 778.047424 -383.59637 
L 817.52053 -432.206604 
L 856.993636 -401.642738 
L 896.466742 -417.730505 
L 935.939848 -414.993198 
L 975.412955 -417.373318 
L 1014.886061 -435.497009 
L 1054.359167 -401.245387 
L 1093.832273 -406.247435 
L 1093.832273 -491.172032 
L 1093.832273 -491.172032 
L 1054.359167 -510.990596 
L 1014.886061 -483.47636 
L 975.412955 -462.122297 
L 935.939848 -503.114268 
L 896.466742 -460.903378 
L 856.993636 -499.892343 
L 817.52053 -472.132985 
L 778.047424 -439.767673 
L 738.574318 -480.056876 
L 699.101212 -485.632835 
L 659.628106 -532.893737 
L 620.155 -457.088911 
L 580.681894 -474.371846 
L 541.208788 -428.039414 
L 501.735682 -430.687092 
L 462.262576 -485.844917 
L 422.78947 -434.50845 
L 383.316364 -455.334572 
L 343.843258 -509.456808 
L 304.370152 -402.223306 
L 264.897045 -431.085373 
L 225.423939 -420.327348 
L 185.950833 -445.457345 
L 146.477727 -528.598551 
z
" style="stroke: #7f7f7f; stroke-opacity: 0.2"/>
    </defs>
    <g clip-path="url(#p9cab84903e)">
     <use xlink:href="#m0390f1d79f" x="0" y="576" style="fill: #7f7f7f; fill-opacity: 0.2; stroke: #7f7f7f; stroke-opacity: 0.2"/>
    </g>
   </g>
   <g id="matplotlib.axis_1">
    <g id="xtick_1">
     <g id="line2d_1">
      <defs>
       <path id="m64c75c5a3c" d="M 0 0 
L 0 3.5 
" style="stroke: #000000; stroke-width: 0.8"/>
      </defs>
      <g>
       <use xlink:href="#m64c75c5a3c" x="126.741174" y="490.552" style="stroke: #000000; stroke-width: 0.8"/>
      </g>
     </g>
     <g id="text_1">
      <!-- 0 -->
      <g transform="translate(120.378674 512.748875) scale(0.2 -0.2)">
       <defs>
        <path id="DejaVuSans-30" d="M 2034 4250 
Q 1547 4250 1301 3770 
Q 1056 3291 1056 2328 
Q 1056 1369 1301 889 
Q 1547 409 2034 409 
Q 2525 409 2770 889 
Q 3016 1369 3016 2328 
Q 3016 3291 2770 3770 
Q 2525 4250 2034 4250 
z
M 2034 4750 
Q 2819 4750 3233 4129 
Q 3647 3509 3647 2328 
Q 3647 1150 3233 529 
Q 2819 -91 2034 -91 
Q 1250 -91 836 529 
Q 422 1150 422 2328 
Q 422 3509 836 4129 
Q 1250 4750 2034 4750 
z
" transform="scale(0.015625)"/>
       </defs>
       <use xlink:href="#DejaVuSans-30"/>
      </g>
     </g>
    </g>
    <g id="xtick_2">
     <g id="line2d_2">
      <g>
       <use xlink:href="#m64c75c5a3c" x="324.106705" y="490.552" style="stroke: #000000; stroke-width: 0.8"/>
      </g>
     </g>
     <g id="text_2">
      <!-- 10 -->
      <g transform="translate(311.381705 512.748875) scale(0.2 -0.2)">
       <defs>
        <path id="DejaVuSans-31" d="M 794 531 
L 1825 531 
L 1825 4091 
L 703 3866 
L 703 4441 
L 1819 4666 
L 2450 4666 
L 2450 531 
L 3481 531 
L 3481 0 
L 794 0 
L 794 531 
z
" transform="scale(0.015625)"/>
       </defs>
       <use xlink:href="#DejaVuSans-31"/>
       <use xlink:href="#DejaVuSans-30" x="63.623047"/>
      </g>
     </g>
    </g>
    <g id="xtick_3">
     <g id="line2d_3">
      <g>
       <use xlink:href="#m64c75c5a3c" x="521.472235" y="490.552" style="stroke: #000000; stroke-width: 0.8"/>
      </g>
     </g>
     <g id="text_3">
      <!-- 20 -->
      <g transform="translate(508.747235 512.748875) scale(0.2 -0.2)">
       <defs>
        <path id="DejaVuSans-32" d="M 1228 531 
L 3431 531 
L 3431 0 
L 469 0 
L 469 531 
Q 828 903 1448 1529 
Q 2069 2156 2228 2338 
Q 2531 2678 2651 2914 
Q 2772 3150 2772 3378 
Q 2772 3750 2511 3984 
Q 2250 4219 1831 4219 
Q 1534 4219 1204 4116 
Q 875 4013 500 3803 
L 500 4441 
Q 881 4594 1212 4672 
Q 1544 4750 1819 4750 
Q 2544 4750 2975 4387 
Q 3406 4025 3406 3419 
Q 3406 3131 3298 2873 
Q 3191 2616 2906 2266 
Q 2828 2175 2409 1742 
Q 1991 1309 1228 531 
z
" transform="scale(0.015625)"/>
       </defs>
       <use xlink:href="#DejaVuSans-32"/>
       <use xlink:href="#DejaVuSans-30" x="63.623047"/>
      </g>
     </g>
    </g>
    <g id="xtick_4">
     <g id="line2d_4">
      <g>
       <use xlink:href="#m64c75c5a3c" x="718.837765" y="490.552" style="stroke: #000000; stroke-width: 0.8"/>
      </g>
     </g>
     <g id="text_4">
      <!-- 30 -->
      <g transform="translate(706.112765 512.748875) scale(0.2 -0.2)">
       <defs>
        <path id="DejaVuSans-33" d="M 2597 2516 
Q 3050 2419 3304 2112 
Q 3559 1806 3559 1356 
Q 3559 666 3084 287 
Q 2609 -91 1734 -91 
Q 1441 -91 1130 -33 
Q 819 25 488 141 
L 488 750 
Q 750 597 1062 519 
Q 1375 441 1716 441 
Q 2309 441 2620 675 
Q 2931 909 2931 1356 
Q 2931 1769 2642 2001 
Q 2353 2234 1838 2234 
L 1294 2234 
L 1294 2753 
L 1863 2753 
Q 2328 2753 2575 2939 
Q 2822 3125 2822 3475 
Q 2822 3834 2567 4026 
Q 2313 4219 1838 4219 
Q 1578 4219 1281 4162 
Q 984 4106 628 3988 
L 628 4550 
Q 988 4650 1302 4700 
Q 1616 4750 1894 4750 
Q 2613 4750 3031 4423 
Q 3450 4097 3450 3541 
Q 3450 3153 3228 2886 
Q 3006 2619 2597 2516 
z
" transform="scale(0.015625)"/>
       </defs>
       <use xlink:href="#DejaVuSans-33"/>
       <use xlink:href="#DejaVuSans-30" x="63.623047"/>
      </g>
     </g>
    </g>
    <g id="xtick_5">
     <g id="line2d_5">
      <g>
       <use xlink:href="#m64c75c5a3c" x="916.203295" y="490.552" style="stroke: #000000; stroke-width: 0.8"/>
      </g>
     </g>
     <g id="text_5">
      <!-- 40 -->
      <g transform="translate(903.478295 512.748875) scale(0.2 -0.2)">
       <defs>
        <path id="DejaVuSans-34" d="M 2419 4116 
L 825 1625 
L 2419 1625 
L 2419 4116 
z
M 2253 4666 
L 3047 4666 
L 3047 1625 
L 3713 1625 
L 3713 1100 
L 3047 1100 
L 3047 0 
L 2419 0 
L 2419 1100 
L 313 1100 
L 313 1709 
L 2253 4666 
z
" transform="scale(0.015625)"/>
       </defs>
       <use xlink:href="#DejaVuSans-34"/>
       <use xlink:href="#DejaVuSans-30" x="63.623047"/>
      </g>
     </g>
    </g>
    <g id="xtick_6">
     <g id="line2d_6">
      <g>
       <use xlink:href="#m64c75c5a3c" x="1113.568826" y="490.552" style="stroke: #000000; stroke-width: 0.8"/>
      </g>
     </g>
     <g id="text_6">
      <!-- 50 -->
      <g transform="translate(1100.843826 512.748875) scale(0.2 -0.2)">
       <defs>
        <path id="DejaVuSans-35" d="M 691 4666 
L 3169 4666 
L 3169 4134 
L 1269 4134 
L 1269 2991 
Q 1406 3038 1543 3061 
Q 1681 3084 1819 3084 
Q 2600 3084 3056 2656 
Q 3513 2228 3513 1497 
Q 3513 744 3044 326 
Q 2575 -91 1722 -91 
Q 1428 -91 1123 -41 
Q 819 9 494 109 
L 494 744 
Q 775 591 1075 516 
Q 1375 441 1709 441 
Q 2250 441 2565 725 
Q 2881 1009 2881 1497 
Q 2881 1984 2565 2268 
Q 2250 2553 1709 2553 
Q 1456 2553 1204 2497 
Q 953 2441 691 2322 
L 691 4666 
z
" transform="scale(0.015625)"/>
       </defs>
       <use xlink:href="#DejaVuSans-35"/>
       <use xlink:href="#DejaVuSans-30" x="63.623047"/>
      </g>
     </g>
    </g>
    <g id="text_7">
     <!-- Percentile Threshold -->
     <g transform="translate(518.375313 536.105125) scale(0.2 -0.2)">
      <defs>
       <path id="DejaVuSans-50" d="M 1259 4147 
L 1259 2394 
L 2053 2394 
Q 2494 2394 2734 2622 
Q 2975 2850 2975 3272 
Q 2975 3691 2734 3919 
Q 2494 4147 2053 4147 
L 1259 4147 
z
M 628 4666 
L 2053 4666 
Q 2838 4666 3239 4311 
Q 3641 3956 3641 3272 
Q 3641 2581 3239 2228 
Q 2838 1875 2053 1875 
L 1259 1875 
L 1259 0 
L 628 0 
L 628 4666 
z
" transform="scale(0.015625)"/>
       <path id="DejaVuSans-65" d="M 3597 1894 
L 3597 1613 
L 953 1613 
Q 991 1019 1311 708 
Q 1631 397 2203 397 
Q 2534 397 2845 478 
Q 3156 559 3463 722 
L 3463 178 
Q 3153 47 2828 -22 
Q 2503 -91 2169 -91 
Q 1331 -91 842 396 
Q 353 884 353 1716 
Q 353 2575 817 3079 
Q 1281 3584 2069 3584 
Q 2775 3584 3186 3129 
Q 3597 2675 3597 1894 
z
M 3022 2063 
Q 3016 2534 2758 2815 
Q 2500 3097 2075 3097 
Q 1594 3097 1305 2825 
Q 1016 2553 972 2059 
L 3022 2063 
z
" transform="scale(0.015625)"/>
       <path id="DejaVuSans-72" d="M 2631 2963 
Q 2534 3019 2420 3045 
Q 2306 3072 2169 3072 
Q 1681 3072 1420 2755 
Q 1159 2438 1159 1844 
L 1159 0 
L 581 0 
L 581 3500 
L 1159 3500 
L 1159 2956 
Q 1341 3275 1631 3429 
Q 1922 3584 2338 3584 
Q 2397 3584 2469 3576 
Q 2541 3569 2628 3553 
L 2631 2963 
z
" transform="scale(0.015625)"/>
       <path id="DejaVuSans-63" d="M 3122 3366 
L 3122 2828 
Q 2878 2963 2633 3030 
Q 2388 3097 2138 3097 
Q 1578 3097 1268 2742 
Q 959 2388 959 1747 
Q 959 1106 1268 751 
Q 1578 397 2138 397 
Q 2388 397 2633 464 
Q 2878 531 3122 666 
L 3122 134 
Q 2881 22 2623 -34 
Q 2366 -91 2075 -91 
Q 1284 -91 818 406 
Q 353 903 353 1747 
Q 353 2603 823 3093 
Q 1294 3584 2113 3584 
Q 2378 3584 2631 3529 
Q 2884 3475 3122 3366 
z
" transform="scale(0.015625)"/>
       <path id="DejaVuSans-6e" d="M 3513 2113 
L 3513 0 
L 2938 0 
L 2938 2094 
Q 2938 2591 2744 2837 
Q 2550 3084 2163 3084 
Q 1697 3084 1428 2787 
Q 1159 2491 1159 1978 
L 1159 0 
L 581 0 
L 581 3500 
L 1159 3500 
L 1159 2956 
Q 1366 3272 1645 3428 
Q 1925 3584 2291 3584 
Q 2894 3584 3203 3211 
Q 3513 2838 3513 2113 
z
" transform="scale(0.015625)"/>
       <path id="DejaVuSans-74" d="M 1172 4494 
L 1172 3500 
L 2356 3500 
L 2356 3053 
L 1172 3053 
L 1172 1153 
Q 1172 725 1289 603 
Q 1406 481 1766 481 
L 2356 481 
L 2356 0 
L 1766 0 
Q 1100 0 847 248 
Q 594 497 594 1153 
L 594 3053 
L 172 3053 
L 172 3500 
L 594 3500 
L 594 4494 
L 1172 4494 
z
" transform="scale(0.015625)"/>
       <path id="DejaVuSans-69" d="M 603 3500 
L 1178 3500 
L 1178 0 
L 603 0 
L 603 3500 
z
M 603 4863 
L 1178 4863 
L 1178 4134 
L 603 4134 
L 603 4863 
z
" transform="scale(0.015625)"/>
       <path id="DejaVuSans-6c" d="M 603 4863 
L 1178 4863 
L 1178 0 
L 603 0 
L 603 4863 
z
" transform="scale(0.015625)"/>
       <path id="DejaVuSans-20" transform="scale(0.015625)"/>
       <path id="DejaVuSans-54" d="M -19 4666 
L 3928 4666 
L 3928 4134 
L 2272 4134 
L 2272 0 
L 1638 0 
L 1638 4134 
L -19 4134 
L -19 4666 
z
" transform="scale(0.015625)"/>
       <path id="DejaVuSans-68" d="M 3513 2113 
L 3513 0 
L 2938 0 
L 2938 2094 
Q 2938 2591 2744 2837 
Q 2550 3084 2163 3084 
Q 1697 3084 1428 2787 
Q 1159 2491 1159 1978 
L 1159 0 
L 581 0 
L 581 4863 
L 1159 4863 
L 1159 2956 
Q 1366 3272 1645 3428 
Q 1925 3584 2291 3584 
Q 2894 3584 3203 3211 
Q 3513 2838 3513 2113 
z
" transform="scale(0.015625)"/>
       <path id="DejaVuSans-73" d="M 2834 3397 
L 2834 2853 
Q 2591 2978 2328 3040 
Q 2066 3103 1784 3103 
Q 1356 3103 1142 2972 
Q 928 2841 928 2578 
Q 928 2378 1081 2264 
Q 1234 2150 1697 2047 
L 1894 2003 
Q 2506 1872 2764 1633 
Q 3022 1394 3022 966 
Q 3022 478 2636 193 
Q 2250 -91 1575 -91 
Q 1294 -91 989 -36 
Q 684 19 347 128 
L 347 722 
Q 666 556 975 473 
Q 1284 391 1588 391 
Q 1994 391 2212 530 
Q 2431 669 2431 922 
Q 2431 1156 2273 1281 
Q 2116 1406 1581 1522 
L 1381 1569 
Q 847 1681 609 1914 
Q 372 2147 372 2553 
Q 372 3047 722 3315 
Q 1072 3584 1716 3584 
Q 2034 3584 2315 3537 
Q 2597 3491 2834 3397 
z
" transform="scale(0.015625)"/>
       <path id="DejaVuSans-6f" d="M 1959 3097 
Q 1497 3097 1228 2736 
Q 959 2375 959 1747 
Q 959 1119 1226 758 
Q 1494 397 1959 397 
Q 2419 397 2687 759 
Q 2956 1122 2956 1747 
Q 2956 2369 2687 2733 
Q 2419 3097 1959 3097 
z
M 1959 3584 
Q 2709 3584 3137 3096 
Q 3566 2609 3566 1747 
Q 3566 888 3137 398 
Q 2709 -91 1959 -91 
Q 1206 -91 779 398 
Q 353 888 353 1747 
Q 353 2609 779 3096 
Q 1206 3584 1959 3584 
z
" transform="scale(0.015625)"/>
       <path id="DejaVuSans-64" d="M 2906 2969 
L 2906 4863 
L 3481 4863 
L 3481 0 
L 2906 0 
L 2906 525 
Q 2725 213 2448 61 
Q 2172 -91 1784 -91 
Q 1150 -91 751 415 
Q 353 922 353 1747 
Q 353 2572 751 3078 
Q 1150 3584 1784 3584 
Q 2172 3584 2448 3432 
Q 2725 3281 2906 2969 
z
M 947 1747 
Q 947 1113 1208 752 
Q 1469 391 1925 391 
Q 2381 391 2643 752 
Q 2906 1113 2906 1747 
Q 2906 2381 2643 2742 
Q 2381 3103 1925 3103 
Q 1469 3103 1208 2742 
Q 947 2381 947 1747 
z
" transform="scale(0.015625)"/>
      </defs>
      <use xlink:href="#DejaVuSans-50"/>
      <use xlink:href="#DejaVuSans-65" x="56.677734"/>
      <use xlink:href="#DejaVuSans-72" x="118.201172"/>
      <use xlink:href="#DejaVuSans-63" x="157.064453"/>
      <use xlink:href="#DejaVuSans-65" x="212.044922"/>
      <use xlink:href="#DejaVuSans-6e" x="273.568359"/>
      <use xlink:href="#DejaVuSans-74" x="336.947266"/>
      <use xlink:href="#DejaVuSans-69" x="376.15625"/>
      <use xlink:href="#DejaVuSans-6c" x="403.939453"/>
      <use xlink:href="#DejaVuSans-65" x="431.722656"/>
      <use xlink:href="#DejaVuSans-20" x="493.246094"/>
      <use xlink:href="#DejaVuSans-54" x="525.033203"/>
      <use xlink:href="#DejaVuSans-68" x="586.117188"/>
      <use xlink:href="#DejaVuSans-72" x="649.496094"/>
      <use xlink:href="#DejaVuSans-65" x="688.359375"/>
      <use xlink:href="#DejaVuSans-73" x="749.882812"/>
      <use xlink:href="#DejaVuSans-68" x="801.982422"/>
      <use xlink:href="#DejaVuSans-6f" x="865.361328"/>
      <use xlink:href="#DejaVuSans-6c" x="926.542969"/>
      <use xlink:href="#DejaVuSans-64" x="954.326172"/>
     </g>
     <!-- (Using "random" Threshold Handling) -->
     <g transform="translate(432.987813 558.50075) scale(0.2 -0.2)">
      <defs>
       <path id="DejaVuSans-28" d="M 1984 4856 
Q 1566 4138 1362 3434 
Q 1159 2731 1159 2009 
Q 1159 1288 1364 580 
Q 1569 -128 1984 -844 
L 1484 -844 
Q 1016 -109 783 600 
Q 550 1309 550 2009 
Q 550 2706 781 3412 
Q 1013 4119 1484 4856 
L 1984 4856 
z
" transform="scale(0.015625)"/>
       <path id="DejaVuSans-55" d="M 556 4666 
L 1191 4666 
L 1191 1831 
Q 1191 1081 1462 751 
Q 1734 422 2344 422 
Q 2950 422 3222 751 
Q 3494 1081 3494 1831 
L 3494 4666 
L 4128 4666 
L 4128 1753 
Q 4128 841 3676 375 
Q 3225 -91 2344 -91 
Q 1459 -91 1007 375 
Q 556 841 556 1753 
L 556 4666 
z
" transform="scale(0.015625)"/>
       <path id="DejaVuSans-67" d="M 2906 1791 
Q 2906 2416 2648 2759 
Q 2391 3103 1925 3103 
Q 1463 3103 1205 2759 
Q 947 2416 947 1791 
Q 947 1169 1205 825 
Q 1463 481 1925 481 
Q 2391 481 2648 825 
Q 2906 1169 2906 1791 
z
M 3481 434 
Q 3481 -459 3084 -895 
Q 2688 -1331 1869 -1331 
Q 1566 -1331 1297 -1286 
Q 1028 -1241 775 -1147 
L 775 -588 
Q 1028 -725 1275 -790 
Q 1522 -856 1778 -856 
Q 2344 -856 2625 -561 
Q 2906 -266 2906 331 
L 2906 616 
Q 2728 306 2450 153 
Q 2172 0 1784 0 
Q 1141 0 747 490 
Q 353 981 353 1791 
Q 353 2603 747 3093 
Q 1141 3584 1784 3584 
Q 2172 3584 2450 3431 
Q 2728 3278 2906 2969 
L 2906 3500 
L 3481 3500 
L 3481 434 
z
" transform="scale(0.015625)"/>
       <path id="DejaVuSans-22" d="M 1147 4666 
L 1147 2931 
L 616 2931 
L 616 4666 
L 1147 4666 
z
M 2328 4666 
L 2328 2931 
L 1797 2931 
L 1797 4666 
L 2328 4666 
z
" transform="scale(0.015625)"/>
       <path id="DejaVuSans-61" d="M 2194 1759 
Q 1497 1759 1228 1600 
Q 959 1441 959 1056 
Q 959 750 1161 570 
Q 1363 391 1709 391 
Q 2188 391 2477 730 
Q 2766 1069 2766 1631 
L 2766 1759 
L 2194 1759 
z
M 3341 1997 
L 3341 0 
L 2766 0 
L 2766 531 
Q 2569 213 2275 61 
Q 1981 -91 1556 -91 
Q 1019 -91 701 211 
Q 384 513 384 1019 
Q 384 1609 779 1909 
Q 1175 2209 1959 2209 
L 2766 2209 
L 2766 2266 
Q 2766 2663 2505 2880 
Q 2244 3097 1772 3097 
Q 1472 3097 1187 3025 
Q 903 2953 641 2809 
L 641 3341 
Q 956 3463 1253 3523 
Q 1550 3584 1831 3584 
Q 2591 3584 2966 3190 
Q 3341 2797 3341 1997 
z
" transform="scale(0.015625)"/>
       <path id="DejaVuSans-6d" d="M 3328 2828 
Q 3544 3216 3844 3400 
Q 4144 3584 4550 3584 
Q 5097 3584 5394 3201 
Q 5691 2819 5691 2113 
L 5691 0 
L 5113 0 
L 5113 2094 
Q 5113 2597 4934 2840 
Q 4756 3084 4391 3084 
Q 3944 3084 3684 2787 
Q 3425 2491 3425 1978 
L 3425 0 
L 2847 0 
L 2847 2094 
Q 2847 2600 2669 2842 
Q 2491 3084 2119 3084 
Q 1678 3084 1418 2786 
Q 1159 2488 1159 1978 
L 1159 0 
L 581 0 
L 581 3500 
L 1159 3500 
L 1159 2956 
Q 1356 3278 1631 3431 
Q 1906 3584 2284 3584 
Q 2666 3584 2933 3390 
Q 3200 3197 3328 2828 
z
" transform="scale(0.015625)"/>
       <path id="DejaVuSans-48" d="M 628 4666 
L 1259 4666 
L 1259 2753 
L 3553 2753 
L 3553 4666 
L 4184 4666 
L 4184 0 
L 3553 0 
L 3553 2222 
L 1259 2222 
L 1259 0 
L 628 0 
L 628 4666 
z
" transform="scale(0.015625)"/>
       <path id="DejaVuSans-29" d="M 513 4856 
L 1013 4856 
Q 1481 4119 1714 3412 
Q 1947 2706 1947 2009 
Q 1947 1309 1714 600 
Q 1481 -109 1013 -844 
L 513 -844 
Q 928 -128 1133 580 
Q 1338 1288 1338 2009 
Q 1338 2731 1133 3434 
Q 928 4138 513 4856 
z
" transform="scale(0.015625)"/>
      </defs>
      <use xlink:href="#DejaVuSans-28"/>
      <use xlink:href="#DejaVuSans-55" x="39.013672"/>
      <use xlink:href="#DejaVuSans-73" x="112.207031"/>
      <use xlink:href="#DejaVuSans-69" x="164.306641"/>
      <use xlink:href="#DejaVuSans-6e" x="192.089844"/>
      <use xlink:href="#DejaVuSans-67" x="255.46875"/>
      <use xlink:href="#DejaVuSans-20" x="318.945312"/>
      <use xlink:href="#DejaVuSans-22" x="350.732422"/>
      <use xlink:href="#DejaVuSans-72" x="396.728516"/>
      <use xlink:href="#DejaVuSans-61" x="437.841797"/>
      <use xlink:href="#DejaVuSans-6e" x="499.121094"/>
      <use xlink:href="#DejaVuSans-64" x="562.5"/>
      <use xlink:href="#DejaVuSans-6f" x="625.976562"/>
      <use xlink:href="#DejaVuSans-6d" x="687.158203"/>
      <use xlink:href="#DejaVuSans-22" x="784.570312"/>
      <use xlink:href="#DejaVuSans-20" x="830.566406"/>
      <use xlink:href="#DejaVuSans-54" x="862.353516"/>
      <use xlink:href="#DejaVuSans-68" x="923.4375"/>
      <use xlink:href="#DejaVuSans-72" x="986.816406"/>
      <use xlink:href="#DejaVuSans-65" x="1025.679688"/>
      <use xlink:href="#DejaVuSans-73" x="1087.203125"/>
      <use xlink:href="#DejaVuSans-68" x="1139.302734"/>
      <use xlink:href="#DejaVuSans-6f" x="1202.681641"/>
      <use xlink:href="#DejaVuSans-6c" x="1263.863281"/>
      <use xlink:href="#DejaVuSans-64" x="1291.646484"/>
      <use xlink:href="#DejaVuSans-20" x="1355.123047"/>
      <use xlink:href="#DejaVuSans-48" x="1386.910156"/>
      <use xlink:href="#DejaVuSans-61" x="1462.105469"/>
      <use xlink:href="#DejaVuSans-6e" x="1523.384766"/>
      <use xlink:href="#DejaVuSans-64" x="1586.763672"/>
      <use xlink:href="#DejaVuSans-6c" x="1650.240234"/>
      <use xlink:href="#DejaVuSans-69" x="1678.023438"/>
      <use xlink:href="#DejaVuSans-6e" x="1705.806641"/>
      <use xlink:href="#DejaVuSans-67" x="1769.185547"/>
      <use xlink:href="#DejaVuSans-29" x="1832.662109"/>
     </g>
    </g>
   </g>
   <g id="matplotlib.axis_2">
    <g id="ytick_1">
     <g id="line2d_7">
      <defs>
       <path id="m72adf722e2" d="M 0 0 
L -3.5 0 
" style="stroke: #000000; stroke-width: 0.8"/>
      </defs>
      <g>
       <use xlink:href="#m72adf722e2" x="99.11" y="420.377437" style="stroke: #000000; stroke-width: 0.8"/>
      </g>
     </g>
     <g id="text_8">
      <!-- 0.019 -->
      <g transform="translate(34.85375 427.975874) scale(0.2 -0.2)">
       <defs>
        <path id="DejaVuSans-2e" d="M 684 794 
L 1344 794 
L 1344 0 
L 684 0 
L 684 794 
z
" transform="scale(0.015625)"/>
        <path id="DejaVuSans-39" d="M 703 97 
L 703 672 
Q 941 559 1184 500 
Q 1428 441 1663 441 
Q 2288 441 2617 861 
Q 2947 1281 2994 2138 
Q 2813 1869 2534 1725 
Q 2256 1581 1919 1581 
Q 1219 1581 811 2004 
Q 403 2428 403 3163 
Q 403 3881 828 4315 
Q 1253 4750 1959 4750 
Q 2769 4750 3195 4129 
Q 3622 3509 3622 2328 
Q 3622 1225 3098 567 
Q 2575 -91 1691 -91 
Q 1453 -91 1209 -44 
Q 966 3 703 97 
z
M 1959 2075 
Q 2384 2075 2632 2365 
Q 2881 2656 2881 3163 
Q 2881 3666 2632 3958 
Q 2384 4250 1959 4250 
Q 1534 4250 1286 3958 
Q 1038 3666 1038 3163 
Q 1038 2656 1286 2365 
Q 1534 2075 1959 2075 
z
" transform="scale(0.015625)"/>
       </defs>
       <use xlink:href="#DejaVuSans-30"/>
       <use xlink:href="#DejaVuSans-2e" x="63.623047"/>
       <use xlink:href="#DejaVuSans-30" x="95.410156"/>
       <use xlink:href="#DejaVuSans-31" x="159.033203"/>
       <use xlink:href="#DejaVuSans-39" x="222.65625"/>
      </g>
     </g>
    </g>
    <g id="ytick_2">
     <g id="line2d_8">
      <g>
       <use xlink:href="#m72adf722e2" x="99.11" y="322.477342" style="stroke: #000000; stroke-width: 0.8"/>
      </g>
     </g>
     <g id="text_9">
      <!-- 0.020 -->
      <g transform="translate(34.85375 330.07578) scale(0.2 -0.2)">
       <use xlink:href="#DejaVuSans-30"/>
       <use xlink:href="#DejaVuSans-2e" x="63.623047"/>
       <use xlink:href="#DejaVuSans-30" x="95.410156"/>
       <use xlink:href="#DejaVuSans-32" x="159.033203"/>
       <use xlink:href="#DejaVuSans-30" x="222.65625"/>
      </g>
     </g>
    </g>
    <g id="ytick_3">
     <g id="line2d_9">
      <g>
       <use xlink:href="#m72adf722e2" x="99.11" y="224.577247" style="stroke: #000000; stroke-width: 0.8"/>
      </g>
     </g>
     <g id="text_10">
      <!-- 0.021 -->
      <g transform="translate(34.85375 232.175685) scale(0.2 -0.2)">
       <use xlink:href="#DejaVuSans-30"/>
       <use xlink:href="#DejaVuSans-2e" x="63.623047"/>
       <use xlink:href="#DejaVuSans-30" x="95.410156"/>
       <use xlink:href="#DejaVuSans-32" x="159.033203"/>
       <use xlink:href="#DejaVuSans-31" x="222.65625"/>
      </g>
     </g>
    </g>
    <g id="ytick_4">
     <g id="line2d_10">
      <g>
       <use xlink:href="#m72adf722e2" x="99.11" y="126.677152" style="stroke: #000000; stroke-width: 0.8"/>
      </g>
     </g>
     <g id="text_11">
      <!-- 0.022 -->
      <g transform="translate(34.85375 134.27559) scale(0.2 -0.2)">
       <use xlink:href="#DejaVuSans-30"/>
       <use xlink:href="#DejaVuSans-2e" x="63.623047"/>
       <use xlink:href="#DejaVuSans-30" x="95.410156"/>
       <use xlink:href="#DejaVuSans-32" x="159.033203"/>
       <use xlink:href="#DejaVuSans-32" x="222.65625"/>
      </g>
     </g>
    </g>
    <g id="ytick_5">
     <g id="line2d_11">
      <g>
       <use xlink:href="#m72adf722e2" x="99.11" y="28.777057" style="stroke: #000000; stroke-width: 0.8"/>
      </g>
     </g>
     <g id="text_12">
      <!-- 0.023 -->
      <g transform="translate(34.85375 36.375495) scale(0.2 -0.2)">
       <use xlink:href="#DejaVuSans-30"/>
       <use xlink:href="#DejaVuSans-2e" x="63.623047"/>
       <use xlink:href="#DejaVuSans-30" x="95.410156"/>
       <use xlink:href="#DejaVuSans-32" x="159.033203"/>
       <use xlink:href="#DejaVuSans-33" x="222.65625"/>
      </g>
     </g>
    </g>
    <g id="text_13">
     <!-- MAPE -->
     <g transform="translate(26.694375 278.493188) rotate(-90) scale(0.2 -0.2)">
      <defs>
       <path id="DejaVuSans-4d" d="M 628 4666 
L 1569 4666 
L 2759 1491 
L 3956 4666 
L 4897 4666 
L 4897 0 
L 4281 0 
L 4281 4097 
L 3078 897 
L 2444 897 
L 1241 4097 
L 1241 0 
L 628 0 
L 628 4666 
z
" transform="scale(0.015625)"/>
       <path id="DejaVuSans-41" d="M 2188 4044 
L 1331 1722 
L 3047 1722 
L 2188 4044 
z
M 1831 4666 
L 2547 4666 
L 4325 0 
L 3669 0 
L 3244 1197 
L 1141 1197 
L 716 0 
L 50 0 
L 1831 4666 
z
" transform="scale(0.015625)"/>
       <path id="DejaVuSans-45" d="M 628 4666 
L 3578 4666 
L 3578 4134 
L 1259 4134 
L 1259 2753 
L 3481 2753 
L 3481 2222 
L 1259 2222 
L 1259 531 
L 3634 531 
L 3634 0 
L 628 0 
L 628 4666 
z
" transform="scale(0.015625)"/>
      </defs>
      <use xlink:href="#DejaVuSans-4d"/>
      <use xlink:href="#DejaVuSans-41" x="86.279297"/>
      <use xlink:href="#DejaVuSans-50" x="154.6875"/>
      <use xlink:href="#DejaVuSans-45" x="214.990234"/>
     </g>
    </g>
   </g>
   <g id="line2d_12">
    <path d="M 146.477727 106.807839 
L 185.950833 199.030136 
L 225.423939 224.551989 
L 264.897045 194.817527 
L 304.370152 221.806185 
L 343.843258 193.676126 
L 383.316364 163.039238 
L 422.78947 199.547995 
L 462.262576 138.165598 
L 501.735682 165.753861 
L 541.208788 129.520122 
L 580.681894 130.15378 
L 620.155 143.49771 
L 659.628106 134.654362 
L 699.101212 122.826268 
L 738.574318 169.528872 
L 778.047424 102.224548 
L 817.52053 107.442003 
L 856.993636 88.623761 
L 896.466742 130.921415 
L 935.939848 123.080335 
L 975.412955 148.092749 
L 1014.886061 164.555319 
L 1054.359167 118.523934 
L 1093.832273 136.309118 
" clip-path="url(#p9cab84903e)" style="fill: none; stroke: #1f77b4; stroke-width: 1.5; stroke-linecap: square"/>
   </g>
   <g id="line2d_13">
    <path d="M 146.477727 188.189626 
L 185.950833 314.263785 
L 225.423939 326.583647 
L 264.897045 319.15923 
L 304.370152 263.880382 
L 343.843258 299.503404 
L 383.316364 275.333714 
L 422.78947 332.395291 
L 462.262576 269.916364 
L 501.735682 293.908381 
L 541.208788 233.951034 
L 580.681894 216.004625 
L 620.155 293.883482 
L 659.628106 262.586355 
L 699.101212 228.677858 
L 738.574318 213.891648 
L 778.047424 239.743946 
L 817.52053 230.023544 
L 856.993636 241.058337 
L 896.466742 292.436877 
L 935.939848 239.726243 
L 975.412955 279.275401 
L 1014.886061 236.833344 
L 1054.359167 241.864625 
L 1093.832273 215.700384 
" clip-path="url(#p9cab84903e)" style="fill: none; stroke: #ff7f0e; stroke-width: 1.5; stroke-linecap: square"/>
   </g>
   <g id="line2d_14">
    <path d="M 146.477727 275.679318 
L 185.950833 374.601033 
L 225.423939 378.29092 
L 264.897045 369.387478 
L 304.370152 348.950833 
L 343.843258 351.440024 
L 383.316364 324.047154 
L 422.78947 351.919311 
L 462.262576 301.902707 
L 501.735682 324.124903 
L 541.208788 302.997181 
L 580.681894 270.703187 
L 620.155 357.906913 
L 659.628106 340.875984 
L 699.101212 360.873433 
L 738.574318 265.243592 
L 778.047424 280.643228 
L 817.52053 303.588025 
L 856.993636 290.625611 
L 896.466742 300.983344 
L 935.939848 301.49275 
L 975.412955 278.403405 
L 1014.886061 292.592539 
L 1054.359167 264.440828 
L 1093.832273 242.699452 
" clip-path="url(#p9cab84903e)" style="fill: none; stroke: #2ca02c; stroke-width: 1.5; stroke-linecap: square"/>
   </g>
   <g id="line2d_15">
    <path d="M 146.477727 96.069862 
L 185.950833 256.836079 
L 225.423939 260.910567 
L 264.897045 263.591952 
L 304.370152 245.572901 
L 343.843258 245.725283 
L 383.316364 203.664987 
L 422.78947 282.30425 
L 462.262576 184.987395 
L 501.735682 215.307413 
L 541.208788 157.293057 
L 580.681894 176.63885 
L 620.155 206.590911 
L 659.628106 158.405692 
L 699.101212 152.440541 
L 738.574318 124.123836 
L 778.047424 169.822573 
L 817.52053 130.372196 
L 856.993636 126.272042 
L 896.466742 213.582136 
L 935.939848 181.770855 
L 975.412955 163.030721 
L 1014.886061 166.048932 
L 1054.359167 124.81599 
L 1093.832273 156.541968 
" clip-path="url(#p9cab84903e)" style="fill: none; stroke: #d62728; stroke-width: 1.5; stroke-linecap: square"/>
   </g>
   <g id="line2d_16">
    <path d="M 146.477727 307.77007 
L 185.950833 419.966597 
L 225.423939 426.851771 
L 264.897045 387.918507 
L 304.370152 423.093199 
L 343.843258 409.564662 
L 383.316364 405.252999 
L 422.78947 389.42288 
L 462.262576 399.794736 
L 501.735682 378.282987 
L 541.208788 377.975334 
L 580.681894 389.497124 
L 620.155 383.726711 
L 659.628106 376.197789 
L 699.101212 350.176914 
L 738.574318 363.970816 
L 778.047424 354.073503 
L 817.52053 385.344855 
L 856.993636 341.677651 
L 896.466742 363.567208 
L 935.939848 360.628115 
L 975.412955 389.189248 
L 1014.886061 318.118899 
L 1054.359167 380.838292 
L 1093.832273 281.242684 
" clip-path="url(#p9cab84903e)" style="fill: none; stroke: #9467bd; stroke-width: 1.5; stroke-linecap: square"/>
   </g>
   <g id="line2d_17">
    <path d="M 146.477727 196.197922 
L 185.950833 377.602022 
L 225.423939 379.42391 
L 264.897045 350.799947 
L 304.370152 319.580419 
L 343.843258 324.245554 
L 383.316364 281.101583 
L 422.78947 311.187143 
L 462.262576 326.034775 
L 501.735682 331.846549 
L 541.208788 312.29161 
L 580.681894 318.086679 
L 620.155 346.598252 
L 659.628106 277.080004 
L 699.101212 272.246093 
L 738.574318 316.959086 
L 778.047424 289.09268 
L 817.52053 305.64027 
L 856.993636 314.490245 
L 896.466742 333.036764 
L 935.939848 288.926396 
L 975.412955 306.544013 
L 1014.886061 297.430652 
L 1054.359167 299.60332 
L 1093.832273 207.30806 
" clip-path="url(#p9cab84903e)" style="fill: none; stroke: #8c564b; stroke-width: 1.5; stroke-linecap: square"/>
   </g>
   <g id="line2d_18">
    <path d="M 146.477727 237.950419 
L 185.950833 363.151301 
L 225.423939 351.99055 
L 264.897045 378.536348 
L 304.370152 371.507864 
L 343.843258 344.250764 
L 383.316364 312.163775 
L 422.78947 335.588931 
L 462.262576 330.039486 
L 501.735682 322.425041 
L 541.208788 300.685673 
L 580.681894 294.752082 
L 620.155 310.671709 
L 659.628106 293.721446 
L 699.101212 289.779591 
L 738.574318 315.011013 
L 778.047424 287.472706 
L 817.52053 323.330653 
L 856.993636 302.007592 
L 896.466742 299.172615 
L 935.939848 287.234585 
L 975.412955 299.766246 
L 1014.886061 287.725406 
L 1054.359167 298.494742 
L 1093.832273 274.544229 
" clip-path="url(#p9cab84903e)" style="fill: none; stroke: #e377c2; stroke-width: 1.5; stroke-linecap: square"/>
   </g>
   <g id="line2d_19">
    <path d="M 146.477727 100.286364 
L 185.950833 194.820294 
L 225.423939 198.381307 
L 264.897045 200.344365 
L 304.370152 204.629334 
L 343.843258 126.62685 
L 383.316364 156.625692 
L 422.78947 174.069176 
L 462.262576 141.425509 
L 501.735682 178.968881 
L 541.208788 167.433209 
L 580.681894 127.775326 
L 620.155 155.385987 
L 659.628106 108.357566 
L 699.101212 133.592469 
L 738.574318 134.332996 
L 778.047424 164.318498 
L 817.52053 122.655362 
L 856.993636 124.581868 
L 896.466742 137.710255 
L 935.939848 114.214038 
L 975.412955 137.340194 
L 1014.886061 117.586731 
L 1054.359167 118.323864 
L 1093.832273 124.882539 
" clip-path="url(#p9cab84903e)" style="fill: none; stroke: #7f7f7f; stroke-width: 1.5; stroke-linecap: square"/>
   </g>
   <g id="line2d_20"/>
   <g id="line2d_21"/>
   <g id="line2d_22"/>
   <g id="line2d_23"/>
   <g id="line2d_24"/>
   <g id="line2d_25"/>
   <g id="line2d_26"/>
   <g id="line2d_27"/>
   <g id="patch_3">
    <path d="M 99.11 490.552 
L 99.11 10.8 
" style="fill: none; stroke: #000000; stroke-width: 0.8; stroke-linejoin: miter; stroke-linecap: square"/>
   </g>
   <g id="patch_4">
    <path d="M 1141.2 490.552 
L 1141.2 10.8 
" style="fill: none; stroke: #000000; stroke-width: 0.8; stroke-linejoin: miter; stroke-linecap: square"/>
   </g>
   <g id="patch_5">
    <path d="M 99.11 490.552 
L 1141.2 490.552 
" style="fill: none; stroke: #000000; stroke-width: 0.8; stroke-linejoin: miter; stroke-linecap: square"/>
   </g>
   <g id="patch_6">
    <path d="M 99.11 10.8 
L 1141.2 10.8 
" style="fill: none; stroke: #000000; stroke-width: 0.8; stroke-linejoin: miter; stroke-linecap: square"/>
   </g>
   <g id="legend_1">
    <g id="patch_7">
     <path d="M 110.31 482.552 
L 306.5475 482.552 
Q 309.7475 482.552 309.7475 479.352 
L 309.7475 291.292 
Q 309.7475 288.092 306.5475 288.092 
L 110.31 288.092 
Q 107.11 288.092 107.11 291.292 
L 107.11 479.352 
Q 107.11 482.552 110.31 482.552 
z
" style="fill: #ffffff; opacity: 0.8; stroke: #cccccc; stroke-linejoin: miter"/>
    </g>
    <g id="line2d_28">
     <path d="M 113.51 301.0495 
L 129.51 301.0495 
L 145.51 301.0495 
" style="fill: none; stroke: #1f77b4; stroke-width: 1.5; stroke-linecap: square"/>
    </g>
    <g id="text_14">
     <!-- BayesianRidge -->
     <g transform="translate(158.31 306.6495) scale(0.16 -0.16)">
      <defs>
       <path id="DejaVuSans-42" d="M 1259 2228 
L 1259 519 
L 2272 519 
Q 2781 519 3026 730 
Q 3272 941 3272 1375 
Q 3272 1813 3026 2020 
Q 2781 2228 2272 2228 
L 1259 2228 
z
M 1259 4147 
L 1259 2741 
L 2194 2741 
Q 2656 2741 2882 2914 
Q 3109 3088 3109 3444 
Q 3109 3797 2882 3972 
Q 2656 4147 2194 4147 
L 1259 4147 
z
M 628 4666 
L 2241 4666 
Q 2963 4666 3353 4366 
Q 3744 4066 3744 3513 
Q 3744 3084 3544 2831 
Q 3344 2578 2956 2516 
Q 3422 2416 3680 2098 
Q 3938 1781 3938 1306 
Q 3938 681 3513 340 
Q 3088 0 2303 0 
L 628 0 
L 628 4666 
z
" transform="scale(0.015625)"/>
       <path id="DejaVuSans-79" d="M 2059 -325 
Q 1816 -950 1584 -1140 
Q 1353 -1331 966 -1331 
L 506 -1331 
L 506 -850 
L 844 -850 
Q 1081 -850 1212 -737 
Q 1344 -625 1503 -206 
L 1606 56 
L 191 3500 
L 800 3500 
L 1894 763 
L 2988 3500 
L 3597 3500 
L 2059 -325 
z
" transform="scale(0.015625)"/>
       <path id="DejaVuSans-52" d="M 2841 2188 
Q 3044 2119 3236 1894 
Q 3428 1669 3622 1275 
L 4263 0 
L 3584 0 
L 2988 1197 
Q 2756 1666 2539 1819 
Q 2322 1972 1947 1972 
L 1259 1972 
L 1259 0 
L 628 0 
L 628 4666 
L 2053 4666 
Q 2853 4666 3247 4331 
Q 3641 3997 3641 3322 
Q 3641 2881 3436 2590 
Q 3231 2300 2841 2188 
z
M 1259 4147 
L 1259 2491 
L 2053 2491 
Q 2509 2491 2742 2702 
Q 2975 2913 2975 3322 
Q 2975 3731 2742 3939 
Q 2509 4147 2053 4147 
L 1259 4147 
z
" transform="scale(0.015625)"/>
      </defs>
      <use xlink:href="#DejaVuSans-42"/>
      <use xlink:href="#DejaVuSans-61" x="68.603516"/>
      <use xlink:href="#DejaVuSans-79" x="129.882812"/>
      <use xlink:href="#DejaVuSans-65" x="189.0625"/>
      <use xlink:href="#DejaVuSans-73" x="250.585938"/>
      <use xlink:href="#DejaVuSans-69" x="302.685547"/>
      <use xlink:href="#DejaVuSans-61" x="330.46875"/>
      <use xlink:href="#DejaVuSans-6e" x="391.748047"/>
      <use xlink:href="#DejaVuSans-52" x="455.126953"/>
      <use xlink:href="#DejaVuSans-69" x="524.609375"/>
      <use xlink:href="#DejaVuSans-64" x="552.392578"/>
      <use xlink:href="#DejaVuSans-67" x="615.869141"/>
      <use xlink:href="#DejaVuSans-65" x="679.345703"/>
     </g>
    </g>
    <g id="line2d_29">
     <path d="M 113.51 324.5345 
L 129.51 324.5345 
L 145.51 324.5345 
" style="fill: none; stroke: #ff7f0e; stroke-width: 1.5; stroke-linecap: square"/>
    </g>
    <g id="text_15">
     <!-- gbr -->
     <g transform="translate(158.31 330.1345) scale(0.16 -0.16)">
      <defs>
       <path id="DejaVuSans-62" d="M 3116 1747 
Q 3116 2381 2855 2742 
Q 2594 3103 2138 3103 
Q 1681 3103 1420 2742 
Q 1159 2381 1159 1747 
Q 1159 1113 1420 752 
Q 1681 391 2138 391 
Q 2594 391 2855 752 
Q 3116 1113 3116 1747 
z
M 1159 2969 
Q 1341 3281 1617 3432 
Q 1894 3584 2278 3584 
Q 2916 3584 3314 3078 
Q 3713 2572 3713 1747 
Q 3713 922 3314 415 
Q 2916 -91 2278 -91 
Q 1894 -91 1617 61 
Q 1341 213 1159 525 
L 1159 0 
L 581 0 
L 581 4863 
L 1159 4863 
L 1159 2969 
z
" transform="scale(0.015625)"/>
      </defs>
      <use xlink:href="#DejaVuSans-67"/>
      <use xlink:href="#DejaVuSans-62" x="63.476562"/>
      <use xlink:href="#DejaVuSans-72" x="126.953125"/>
     </g>
    </g>
    <g id="line2d_30">
     <path d="M 113.51 348.0195 
L 129.51 348.0195 
L 145.51 348.0195 
" style="fill: none; stroke: #2ca02c; stroke-width: 1.5; stroke-linecap: square"/>
    </g>
    <g id="text_16">
     <!-- xgb -->
     <g transform="translate(158.31 353.6195) scale(0.16 -0.16)">
      <defs>
       <path id="DejaVuSans-78" d="M 3513 3500 
L 2247 1797 
L 3578 0 
L 2900 0 
L 1881 1375 
L 863 0 
L 184 0 
L 1544 1831 
L 300 3500 
L 978 3500 
L 1906 2253 
L 2834 3500 
L 3513 3500 
z
" transform="scale(0.015625)"/>
      </defs>
      <use xlink:href="#DejaVuSans-78"/>
      <use xlink:href="#DejaVuSans-67" x="59.179688"/>
      <use xlink:href="#DejaVuSans-62" x="122.65625"/>
     </g>
    </g>
    <g id="line2d_31">
     <path d="M 113.51 371.5045 
L 129.51 371.5045 
L 145.51 371.5045 
" style="fill: none; stroke: #d62728; stroke-width: 1.5; stroke-linecap: square"/>
    </g>
    <g id="text_17">
     <!-- rf -->
     <g transform="translate(158.31 377.1045) scale(0.16 -0.16)">
      <defs>
       <path id="DejaVuSans-66" d="M 2375 4863 
L 2375 4384 
L 1825 4384 
Q 1516 4384 1395 4259 
Q 1275 4134 1275 3809 
L 1275 3500 
L 2222 3500 
L 2222 3053 
L 1275 3053 
L 1275 0 
L 697 0 
L 697 3053 
L 147 3053 
L 147 3500 
L 697 3500 
L 697 3744 
Q 697 4328 969 4595 
Q 1241 4863 1831 4863 
L 2375 4863 
z
" transform="scale(0.015625)"/>
      </defs>
      <use xlink:href="#DejaVuSans-72"/>
      <use xlink:href="#DejaVuSans-66" x="41.113281"/>
     </g>
    </g>
    <g id="line2d_32">
     <path d="M 113.51 394.9895 
L 129.51 394.9895 
L 145.51 394.9895 
" style="fill: none; stroke: #9467bd; stroke-width: 1.5; stroke-linecap: square"/>
    </g>
    <g id="text_18">
     <!-- xgb_gs -->
     <g transform="translate(158.31 400.5895) scale(0.16 -0.16)">
      <defs>
       <path id="DejaVuSans-5f" d="M 3263 -1063 
L 3263 -1509 
L -63 -1509 
L -63 -1063 
L 3263 -1063 
z
" transform="scale(0.015625)"/>
      </defs>
      <use xlink:href="#DejaVuSans-78"/>
      <use xlink:href="#DejaVuSans-67" x="59.179688"/>
      <use xlink:href="#DejaVuSans-62" x="122.65625"/>
      <use xlink:href="#DejaVuSans-5f" x="186.132812"/>
      <use xlink:href="#DejaVuSans-67" x="236.132812"/>
      <use xlink:href="#DejaVuSans-73" x="299.609375"/>
     </g>
    </g>
    <g id="line2d_33">
     <path d="M 113.51 418.9195 
L 129.51 418.9195 
L 145.51 418.9195 
" style="fill: none; stroke: #8c564b; stroke-width: 1.5; stroke-linecap: square"/>
    </g>
    <g id="text_19">
     <!-- gbr_gs -->
     <g transform="translate(158.31 424.5195) scale(0.16 -0.16)">
      <use xlink:href="#DejaVuSans-67"/>
      <use xlink:href="#DejaVuSans-62" x="63.476562"/>
      <use xlink:href="#DejaVuSans-72" x="126.953125"/>
      <use xlink:href="#DejaVuSans-5f" x="168.066406"/>
      <use xlink:href="#DejaVuSans-67" x="218.066406"/>
      <use xlink:href="#DejaVuSans-73" x="281.542969"/>
     </g>
    </g>
    <g id="line2d_34">
     <path d="M 113.51 442.8495 
L 129.51 442.8495 
L 145.51 442.8495 
" style="fill: none; stroke: #e377c2; stroke-width: 1.5; stroke-linecap: square"/>
    </g>
    <g id="text_20">
     <!-- rf_gs -->
     <g transform="translate(158.31 448.4495) scale(0.16 -0.16)">
      <use xlink:href="#DejaVuSans-72"/>
      <use xlink:href="#DejaVuSans-66" x="41.113281"/>
      <use xlink:href="#DejaVuSans-5f" x="76.318359"/>
      <use xlink:href="#DejaVuSans-67" x="126.318359"/>
      <use xlink:href="#DejaVuSans-73" x="189.794922"/>
     </g>
    </g>
    <g id="line2d_35">
     <path d="M 113.51 466.7795 
L 129.51 466.7795 
L 145.51 466.7795 
" style="fill: none; stroke: #7f7f7f; stroke-width: 1.5; stroke-linecap: square"/>
    </g>
    <g id="text_21">
     <!-- BayesianRidge_gs -->
     <g transform="translate(158.31 472.3795) scale(0.16 -0.16)">
      <use xlink:href="#DejaVuSans-42"/>
      <use xlink:href="#DejaVuSans-61" x="68.603516"/>
      <use xlink:href="#DejaVuSans-79" x="129.882812"/>
      <use xlink:href="#DejaVuSans-65" x="189.0625"/>
      <use xlink:href="#DejaVuSans-73" x="250.585938"/>
      <use xlink:href="#DejaVuSans-69" x="302.685547"/>
      <use xlink:href="#DejaVuSans-61" x="330.46875"/>
      <use xlink:href="#DejaVuSans-6e" x="391.748047"/>
      <use xlink:href="#DejaVuSans-52" x="455.126953"/>
      <use xlink:href="#DejaVuSans-69" x="524.609375"/>
      <use xlink:href="#DejaVuSans-64" x="552.392578"/>
      <use xlink:href="#DejaVuSans-67" x="615.869141"/>
      <use xlink:href="#DejaVuSans-65" x="679.345703"/>
      <use xlink:href="#DejaVuSans-5f" x="740.869141"/>
      <use xlink:href="#DejaVuSans-67" x="790.869141"/>
      <use xlink:href="#DejaVuSans-73" x="854.345703"/>
     </g>
    </g>
   </g>
  </g>
 </g>
 <defs>
  <clipPath id="p9cab84903e">
   <rect x="99.11" y="10.8" width="1042.09" height="479.752"/>
  </clipPath>
 </defs>
</svg>
