<?xml version="1.0" encoding="utf-8" standalone="no"?>
<!DOCTYPE svg PUBLIC "-//W3C//DTD SVG 1.1//EN"
  "http://www.w3.org/Graphics/SVG/1.1/DTD/svg11.dtd">
<svg xmlns:xlink="http://www.w3.org/1999/xlink" width="1152pt" height="576pt" viewBox="0 0 1152 576" xmlns="http://www.w3.org/2000/svg" version="1.1">
 <metadata>
  <rdf:RDF xmlns:dc="http://purl.org/dc/elements/1.1/" xmlns:cc="http://creativecommons.org/ns#" xmlns:rdf="http://www.w3.org/1999/02/22-rdf-syntax-ns#">
   <cc:Work>
    <dc:type rdf:resource="http://purl.org/dc/dcmitype/StillImage"/>
    <dc:date>2025-04-22T15:16:00.348964</dc:date>
    <dc:format>image/svg+xml</dc:format>
    <dc:creator>
     <cc:Agent>
      <dc:title>Matplotlib v3.7.1, https://matplotlib.org/</dc:title>
     </cc:Agent>
    </dc:creator>
   </cc:Work>
  </rdf:RDF>
 </metadata>
 <defs>
  <style type="text/css">*{stroke-linejoin: round; stroke-linecap: butt}</style>
 </defs>
 <g id="figure_1">
  <g id="patch_1">
   <path d="M 0 576 
L 1152 576 
L 1152 0 
L 0 0 
z
" style="fill: #ffffff"/>
  </g>
  <g id="axes_1">
   <g id="patch_2">
    <path d="M 86.42 489.832 
L 1141.2 489.832 
L 1141.2 10.8 
L 86.42 10.8 
z
" style="fill: #ffffff"/>
   </g>
   <g id="PolyCollection_1">
    <defs>
     <path id="m2d7598e001" d="M 134.364545 -359.228699 
L 134.364545 -264.565532 
L 174.318333 -247.834695 
L 214.272121 -309.926603 
L 254.225909 -299.606075 
L 294.179697 -306.76583 
L 334.133485 -259.825019 
L 374.087273 -219.68524 
L 414.041061 -226.115382 
L 453.994848 -260.020054 
L 493.948636 -167.688388 
L 533.902424 -166.515947 
L 573.856212 -298.299993 
L 613.81 -231.691523 
L 653.763788 -273.551485 
L 693.717576 -273.185163 
L 733.671364 -309.926376 
L 773.625152 -270.807456 
L 813.578939 -291.637884 
L 853.532727 -328.522499 
L 893.486515 -296.748647 
L 933.440303 -286.117292 
L 973.394091 -306.712167 
L 1013.347879 -301.036709 
L 1053.301667 -341.330059 
L 1093.255455 -335.917715 
L 1093.255455 -420.918449 
L 1093.255455 -420.918449 
L 1053.301667 -424.567283 
L 1013.347879 -409.566079 
L 973.394091 -404.554777 
L 933.440303 -381.386933 
L 893.486515 -377.997187 
L 853.532727 -392.461833 
L 813.578939 -399.669891 
L 773.625152 -379.10407 
L 733.671364 -416.276077 
L 693.717576 -410.002837 
L 653.763788 -362.074723 
L 613.81 -333.495686 
L 573.856212 -334.882437 
L 533.902424 -352.601645 
L 493.948636 -330.661258 
L 453.994848 -324.780498 
L 414.041061 -369.206435 
L 374.087273 -313.598757 
L 334.133485 -331.064596 
L 294.179697 -377.902076 
L 254.225909 -340.986856 
L 214.272121 -358.762582 
L 174.318333 -362.507681 
L 134.364545 -359.228699 
z
" style="stroke: #1f77b4; stroke-opacity: 0.2"/>
    </defs>
    <g clip-path="url(#pe4efffbf7a)">
     <use xlink:href="#m2d7598e001" x="0" y="576" style="fill: #1f77b4; fill-opacity: 0.2; stroke: #1f77b4; stroke-opacity: 0.2"/>
    </g>
   </g>
   <g id="PolyCollection_2">
    <defs>
     <path id="mc1297f5913" d="M 134.364545 -275.620537 
L 134.364545 -211.211138 
L 174.318333 -218.537621 
L 214.272121 -225.872853 
L 254.225909 -248.333548 
L 294.179697 -235.171615 
L 334.133485 -166.038277 
L 374.087273 -123.374527 
L 414.041061 -165.686648 
L 453.994848 -199.916831 
L 493.948636 -107.942182 
L 533.902424 -120.623766 
L 573.856212 -238.772224 
L 613.81 -138.171493 
L 653.763788 -175.233165 
L 693.717576 -200.113588 
L 733.671364 -164.300784 
L 773.625152 -151.947025 
L 813.578939 -244.727936 
L 853.532727 -258.853057 
L 893.486515 -231.236619 
L 933.440303 -209.605343 
L 973.394091 -186.11012 
L 1013.347879 -226.313987 
L 1053.301667 -208.000913 
L 1093.255455 -215.671552 
L 1093.255455 -342.11697 
L 1093.255455 -342.11697 
L 1053.301667 -324.188626 
L 1013.347879 -313.672978 
L 973.394091 -365.801807 
L 933.440303 -289.981429 
L 893.486515 -322.234551 
L 853.532727 -344.522037 
L 813.578939 -351.366192 
L 773.625152 -331.035317 
L 733.671364 -338.039724 
L 693.717576 -292.042645 
L 653.763788 -262.602692 
L 613.81 -321.93961 
L 573.856212 -312.90777 
L 533.902424 -265.543095 
L 493.948636 -246.435246 
L 453.994848 -234.078945 
L 414.041061 -297.166114 
L 374.087273 -276.32675 
L 334.133485 -278.178933 
L 294.179697 -292.134397 
L 254.225909 -297.77938 
L 214.272121 -370.455958 
L 174.318333 -337.981526 
L 134.364545 -275.620537 
z
" style="stroke: #ff7f0e; stroke-opacity: 0.2"/>
    </defs>
    <g clip-path="url(#pe4efffbf7a)">
     <use xlink:href="#mc1297f5913" x="0" y="576" style="fill: #ff7f0e; fill-opacity: 0.2; stroke: #ff7f0e; stroke-opacity: 0.2"/>
    </g>
   </g>
   <g id="PolyCollection_3">
    <defs>
     <path id="mf714f26edf" d="M 134.364545 -375.931247 
L 134.364545 -263.908739 
L 174.318333 -334.903366 
L 214.272121 -383.364186 
L 254.225909 -349.60332 
L 294.179697 -388.001979 
L 334.133485 -345.860468 
L 374.087273 -253.054219 
L 414.041061 -319.912274 
L 453.994848 -333.560809 
L 493.948636 -239.967288 
L 533.902424 -278.408956 
L 573.856212 -375.259532 
L 613.81 -261.32131 
L 653.763788 -338.258698 
L 693.717576 -347.176939 
L 733.671364 -342.227698 
L 773.625152 -278.140312 
L 813.578939 -396.50839 
L 853.532727 -403.350475 
L 893.486515 -378.673203 
L 933.440303 -328.255889 
L 973.394091 -349.547642 
L 1013.347879 -331.746201 
L 1053.301667 -292.209701 
L 1093.255455 -319.084871 
L 1093.255455 -473.348349 
L 1093.255455 -473.348349 
L 1053.301667 -454.702809 
L 1013.347879 -451.322367 
L 973.394091 -490.270401 
L 933.440303 -464.858783 
L 893.486515 -456.569473 
L 853.532727 -486.736202 
L 813.578939 -467.554987 
L 773.625152 -454.30784 
L 733.671364 -509.667606 
L 693.717576 -425.563945 
L 653.763788 -432.153392 
L 613.81 -433.010782 
L 573.856212 -483.485969 
L 533.902424 -393.468373 
L 493.948636 -378.807222 
L 453.994848 -428.587813 
L 414.041061 -435.241579 
L 374.087273 -407.787999 
L 334.133485 -419.556639 
L 294.179697 -462.618828 
L 254.225909 -419.364268 
L 214.272121 -454.351333 
L 174.318333 -423.785017 
L 134.364545 -375.931247 
z
" style="stroke: #2ca02c; stroke-opacity: 0.2"/>
    </defs>
    <g clip-path="url(#pe4efffbf7a)">
     <use xlink:href="#mf714f26edf" x="0" y="576" style="fill: #2ca02c; fill-opacity: 0.2; stroke: #2ca02c; stroke-opacity: 0.2"/>
    </g>
   </g>
   <g id="PolyCollection_4">
    <defs>
     <path id="m77985bcb86" d="M 134.364545 -349.112482 
L 134.364545 -132.711342 
L 174.318333 -254.962564 
L 214.272121 -312.024508 
L 254.225909 -316.372628 
L 294.179697 -301.383641 
L 334.133485 -219.048396 
L 374.087273 -133.376151 
L 414.041061 -186.072895 
L 453.994848 -237.759661 
L 493.948636 -125.935261 
L 533.902424 -117.964914 
L 573.856212 -250.006098 
L 613.81 -294.142408 
L 653.763788 -327.574339 
L 693.717576 -328.868079 
L 733.671364 -266.460623 
L 773.625152 -260.504846 
L 813.578939 -302.777724 
L 853.532727 -308.084195 
L 893.486515 -293.471095 
L 933.440303 -298.219377 
L 973.394091 -304.998052 
L 1013.347879 -305.971089 
L 1053.301667 -325.938885 
L 1093.255455 -327.678271 
L 1093.255455 -468.239414 
L 1093.255455 -468.239414 
L 1053.301667 -471.379188 
L 1013.347879 -455.754125 
L 973.394091 -463.781494 
L 933.440303 -454.788461 
L 893.486515 -414.225109 
L 853.532727 -407.04436 
L 813.578939 -469.258188 
L 773.625152 -429.532445 
L 733.671364 -445.14849 
L 693.717576 -412.415486 
L 653.763788 -354.784163 
L 613.81 -393.772381 
L 573.856212 -322.518067 
L 533.902424 -354.759924 
L 493.948636 -349.635093 
L 453.994848 -376.428308 
L 414.041061 -361.220416 
L 374.087273 -285.003142 
L 334.133485 -385.221528 
L 294.179697 -401.75569 
L 254.225909 -409.94439 
L 214.272121 -394.403504 
L 174.318333 -359.910474 
L 134.364545 -349.112482 
z
" style="stroke: #d62728; stroke-opacity: 0.2"/>
    </defs>
    <g clip-path="url(#pe4efffbf7a)">
     <use xlink:href="#m77985bcb86" x="0" y="576" style="fill: #d62728; fill-opacity: 0.2; stroke: #d62728; stroke-opacity: 0.2"/>
    </g>
   </g>
   <g id="PolyCollection_5">
    <defs>
     <path id="mf29b10eee1" d="M 134.364545 -372.896817 
L 134.364545 -242.002826 
L 174.318333 -223.404945 
L 214.272121 -325.348308 
L 254.225909 -248.243105 
L 294.179697 -278.881835 
L 334.133485 -144.699453 
L 374.087273 -126.283866 
L 414.041061 -216.89395 
L 453.994848 -223.505733 
L 493.948636 -152.520122 
L 533.902424 -195.437388 
L 573.856212 -301.366876 
L 613.81 -258.363231 
L 653.763788 -265.550861 
L 693.717576 -251.388333 
L 733.671364 -292.675396 
L 773.625152 -271.926764 
L 813.578939 -289.607586 
L 853.532727 -325.48654 
L 893.486515 -334.03701 
L 933.440303 -293.467478 
L 973.394091 -302.930998 
L 1013.347879 -254.759361 
L 1053.301667 -305.108117 
L 1093.255455 -280.717225 
L 1093.255455 -392.420612 
L 1093.255455 -392.420612 
L 1053.301667 -407.1074 
L 1013.347879 -341.089448 
L 973.394091 -379.005104 
L 933.440303 -374.128487 
L 893.486515 -400.97594 
L 853.532727 -434.144838 
L 813.578939 -419.567862 
L 773.625152 -411.624144 
L 733.671364 -398.586576 
L 693.717576 -355.682128 
L 653.763788 -353.892217 
L 613.81 -360.532991 
L 573.856212 -348.032101 
L 533.902424 -376.941418 
L 493.948636 -336.934758 
L 453.994848 -370.056244 
L 414.041061 -368.111011 
L 374.087273 -424.154825 
L 334.133485 -279.400614 
L 294.179697 -377.902211 
L 254.225909 -359.125712 
L 214.272121 -395.916706 
L 174.318333 -372.704226 
L 134.364545 -372.896817 
z
" style="stroke: #9467bd; stroke-opacity: 0.2"/>
    </defs>
    <g clip-path="url(#pe4efffbf7a)">
     <use xlink:href="#mf29b10eee1" x="0" y="576" style="fill: #9467bd; fill-opacity: 0.2; stroke: #9467bd; stroke-opacity: 0.2"/>
    </g>
   </g>
   <g id="PolyCollection_6">
    <defs>
     <path id="mc84e7ec4be" d="M 134.364545 -326.258999 
L 134.364545 -253.944355 
L 174.318333 -292.078982 
L 214.272121 -304.802592 
L 254.225909 -269.982775 
L 294.179697 -279.232221 
L 334.133485 -241.115834 
L 374.087273 -225.051621 
L 414.041061 -251.116443 
L 453.994848 -296.515253 
L 493.948636 -193.068294 
L 533.902424 -200.267931 
L 573.856212 -318.918503 
L 613.81 -308.623719 
L 653.763788 -281.03865 
L 693.717576 -300.547627 
L 733.671364 -339.354919 
L 773.625152 -302.431183 
L 813.578939 -344.296433 
L 853.532727 -378.586245 
L 893.486515 -324.601407 
L 933.440303 -301.711312 
L 973.394091 -319.733985 
L 1013.347879 -326.263722 
L 1053.301667 -347.767233 
L 1093.255455 -329.963468 
L 1093.255455 -427.620772 
L 1093.255455 -427.620772 
L 1053.301667 -407.374428 
L 1013.347879 -397.913141 
L 973.394091 -412.357485 
L 933.440303 -415.866915 
L 893.486515 -399.495731 
L 853.532727 -424.707201 
L 813.578939 -396.787267 
L 773.625152 -392.470691 
L 733.671364 -429.300627 
L 693.717576 -393.870306 
L 653.763788 -366.130147 
L 613.81 -365.502554 
L 573.856212 -381.258032 
L 533.902424 -354.961737 
L 493.948636 -343.793343 
L 453.994848 -344.896194 
L 414.041061 -352.60608 
L 374.087273 -343.324813 
L 334.133485 -332.658862 
L 294.179697 -363.28675 
L 254.225909 -366.875096 
L 214.272121 -378.678414 
L 174.318333 -349.986458 
L 134.364545 -326.258999 
z
" style="stroke: #8c564b; stroke-opacity: 0.2"/>
    </defs>
    <g clip-path="url(#pe4efffbf7a)">
     <use xlink:href="#mc84e7ec4be" x="0" y="576" style="fill: #8c564b; fill-opacity: 0.2; stroke: #8c564b; stroke-opacity: 0.2"/>
    </g>
   </g>
   <g id="PolyCollection_7">
    <defs>
     <path id="m5424107b01" d="M 134.364545 -356.641734 
L 134.364545 -267.875769 
L 174.318333 -251.699561 
L 214.272121 -315.020261 
L 254.225909 -296.456823 
L 294.179697 -304.719354 
L 334.133485 -259.283782 
L 374.087273 -214.6323 
L 414.041061 -230.463185 
L 453.994848 -260.429439 
L 493.948636 -175.0778 
L 533.902424 -165.16873 
L 573.856212 -299.987781 
L 613.81 -230.101654 
L 653.763788 -274.55549 
L 693.717576 -280.304667 
L 733.671364 -308.340003 
L 773.625152 -288.10054 
L 813.578939 -293.82762 
L 853.532727 -331.069491 
L 893.486515 -302.327218 
L 933.440303 -292.075093 
L 973.394091 -306.046055 
L 1013.347879 -309.956158 
L 1053.301667 -350.511212 
L 1093.255455 -346.209957 
L 1093.255455 -419.131019 
L 1093.255455 -419.131019 
L 1053.301667 -421.202482 
L 1013.347879 -415.910116 
L 973.394091 -401.338832 
L 933.440303 -379.45979 
L 893.486515 -377.385285 
L 853.532727 -391.500476 
L 813.578939 -396.082949 
L 773.625152 -378.213686 
L 733.671364 -411.059039 
L 693.717576 -406.433767 
L 653.763788 -368.053349 
L 613.81 -331.602959 
L 573.856212 -334.792647 
L 533.902424 -351.973597 
L 493.948636 -332.024297 
L 453.994848 -323.355395 
L 414.041061 -378.813948 
L 374.087273 -321.525777 
L 334.133485 -334.839216 
L 294.179697 -372.67608 
L 254.225909 -345.245464 
L 214.272121 -359.636583 
L 174.318333 -359.312731 
L 134.364545 -356.641734 
z
" style="stroke: #e377c2; stroke-opacity: 0.2"/>
    </defs>
    <g clip-path="url(#pe4efffbf7a)">
     <use xlink:href="#m5424107b01" x="0" y="576" style="fill: #e377c2; fill-opacity: 0.2; stroke: #e377c2; stroke-opacity: 0.2"/>
    </g>
   </g>
   <g id="PolyCollection_8">
    <defs>
     <path id="m2983413b53" d="M 134.364545 -435.168494 
L 134.364545 -318.910456 
L 174.318333 -399.549338 
L 214.272121 -408.703206 
L 254.225909 -385.511915 
L 294.179697 -394.118999 
L 334.133485 -386.201406 
L 374.087273 -273.429116 
L 414.041061 -370.839461 
L 453.994848 -349.980313 
L 493.948636 -288.572515 
L 533.902424 -367.271329 
L 573.856212 -417.82174 
L 613.81 -341.872895 
L 653.763788 -380.549575 
L 693.717576 -379.117509 
L 733.671364 -384.077952 
L 773.625152 -359.13977 
L 813.578939 -433.021694 
L 853.532727 -438.919605 
L 893.486515 -434.508354 
L 933.440303 -393.230106 
L 973.394091 -409.029757 
L 1013.347879 -394.228677 
L 1053.301667 -353.448891 
L 1093.255455 -373.079661 
L 1093.255455 -515.342165 
L 1093.255455 -515.342165 
L 1053.301667 -496.898636 
L 1013.347879 -487.0181 
L 973.394091 -543.384579 
L 933.440303 -486.691087 
L 893.486515 -498.622057 
L 853.532727 -510.667367 
L 813.578939 -506.756932 
L 773.625152 -502.215976 
L 733.671364 -543.425818 
L 693.717576 -468.732866 
L 653.763788 -472.106752 
L 613.81 -454.328714 
L 573.856212 -530.356705 
L 533.902424 -446.286093 
L 493.948636 -411.942079 
L 453.994848 -487.352235 
L 414.041061 -483.774511 
L 374.087273 -462.211544 
L 334.133485 -456.961444 
L 294.179697 -499.75104 
L 254.225909 -460.797605 
L 214.272121 -494.017816 
L 174.318333 -483.462382 
L 134.364545 -435.168494 
z
" style="stroke: #7f7f7f; stroke-opacity: 0.2"/>
    </defs>
    <g clip-path="url(#pe4efffbf7a)">
     <use xlink:href="#m2983413b53" x="0" y="576" style="fill: #7f7f7f; fill-opacity: 0.2; stroke: #7f7f7f; stroke-opacity: 0.2"/>
    </g>
   </g>
   <g id="matplotlib.axis_1">
    <g id="xtick_1">
     <g id="line2d_1">
      <defs>
       <path id="m9d428b7c90" d="M 0 0 
L 0 3.5 
" style="stroke: #000000; stroke-width: 0.8"/>
      </defs>
      <g>
       <use xlink:href="#m9d428b7c90" x="114.387652" y="489.832" style="stroke: #000000; stroke-width: 0.8"/>
      </g>
     </g>
     <g id="text_1">
      <!-- 0 -->
      <g transform="translate(108.025152 512.028875) scale(0.2 -0.2)">
       <defs>
        <path id="DejaVuSans-30" d="M 2034 4250 
Q 1547 4250 1301 3770 
Q 1056 3291 1056 2328 
Q 1056 1369 1301 889 
Q 1547 409 2034 409 
Q 2525 409 2770 889 
Q 3016 1369 3016 2328 
Q 3016 3291 2770 3770 
Q 2525 4250 2034 4250 
z
M 2034 4750 
Q 2819 4750 3233 4129 
Q 3647 3509 3647 2328 
Q 3647 1150 3233 529 
Q 2819 -91 2034 -91 
Q 1250 -91 836 529 
Q 422 1150 422 2328 
Q 422 3509 836 4129 
Q 1250 4750 2034 4750 
z
" transform="scale(0.015625)"/>
       </defs>
       <use xlink:href="#DejaVuSans-30"/>
      </g>
     </g>
    </g>
    <g id="xtick_2">
     <g id="line2d_2">
      <g>
       <use xlink:href="#m9d428b7c90" x="314.156591" y="489.832" style="stroke: #000000; stroke-width: 0.8"/>
      </g>
     </g>
     <g id="text_2">
      <!-- 10 -->
      <g transform="translate(301.431591 512.028875) scale(0.2 -0.2)">
       <defs>
        <path id="DejaVuSans-31" d="M 794 531 
L 1825 531 
L 1825 4091 
L 703 3866 
L 703 4441 
L 1819 4666 
L 2450 4666 
L 2450 531 
L 3481 531 
L 3481 0 
L 794 0 
L 794 531 
z
" transform="scale(0.015625)"/>
       </defs>
       <use xlink:href="#DejaVuSans-31"/>
       <use xlink:href="#DejaVuSans-30" x="63.623047"/>
      </g>
     </g>
    </g>
    <g id="xtick_3">
     <g id="line2d_3">
      <g>
       <use xlink:href="#m9d428b7c90" x="513.92553" y="489.832" style="stroke: #000000; stroke-width: 0.8"/>
      </g>
     </g>
     <g id="text_3">
      <!-- 20 -->
      <g transform="translate(501.20053 512.028875) scale(0.2 -0.2)">
       <defs>
        <path id="DejaVuSans-32" d="M 1228 531 
L 3431 531 
L 3431 0 
L 469 0 
L 469 531 
Q 828 903 1448 1529 
Q 2069 2156 2228 2338 
Q 2531 2678 2651 2914 
Q 2772 3150 2772 3378 
Q 2772 3750 2511 3984 
Q 2250 4219 1831 4219 
Q 1534 4219 1204 4116 
Q 875 4013 500 3803 
L 500 4441 
Q 881 4594 1212 4672 
Q 1544 4750 1819 4750 
Q 2544 4750 2975 4387 
Q 3406 4025 3406 3419 
Q 3406 3131 3298 2873 
Q 3191 2616 2906 2266 
Q 2828 2175 2409 1742 
Q 1991 1309 1228 531 
z
" transform="scale(0.015625)"/>
       </defs>
       <use xlink:href="#DejaVuSans-32"/>
       <use xlink:href="#DejaVuSans-30" x="63.623047"/>
      </g>
     </g>
    </g>
    <g id="xtick_4">
     <g id="line2d_4">
      <g>
       <use xlink:href="#m9d428b7c90" x="713.69447" y="489.832" style="stroke: #000000; stroke-width: 0.8"/>
      </g>
     </g>
     <g id="text_4">
      <!-- 30 -->
      <g transform="translate(700.96947 512.028875) scale(0.2 -0.2)">
       <defs>
        <path id="DejaVuSans-33" d="M 2597 2516 
Q 3050 2419 3304 2112 
Q 3559 1806 3559 1356 
Q 3559 666 3084 287 
Q 2609 -91 1734 -91 
Q 1441 -91 1130 -33 
Q 819 25 488 141 
L 488 750 
Q 750 597 1062 519 
Q 1375 441 1716 441 
Q 2309 441 2620 675 
Q 2931 909 2931 1356 
Q 2931 1769 2642 2001 
Q 2353 2234 1838 2234 
L 1294 2234 
L 1294 2753 
L 1863 2753 
Q 2328 2753 2575 2939 
Q 2822 3125 2822 3475 
Q 2822 3834 2567 4026 
Q 2313 4219 1838 4219 
Q 1578 4219 1281 4162 
Q 984 4106 628 3988 
L 628 4550 
Q 988 4650 1302 4700 
Q 1616 4750 1894 4750 
Q 2613 4750 3031 4423 
Q 3450 4097 3450 3541 
Q 3450 3153 3228 2886 
Q 3006 2619 2597 2516 
z
" transform="scale(0.015625)"/>
       </defs>
       <use xlink:href="#DejaVuSans-33"/>
       <use xlink:href="#DejaVuSans-30" x="63.623047"/>
      </g>
     </g>
    </g>
    <g id="xtick_5">
     <g id="line2d_5">
      <g>
       <use xlink:href="#m9d428b7c90" x="913.463409" y="489.832" style="stroke: #000000; stroke-width: 0.8"/>
      </g>
     </g>
     <g id="text_5">
      <!-- 40 -->
      <g transform="translate(900.738409 512.028875) scale(0.2 -0.2)">
       <defs>
        <path id="DejaVuSans-34" d="M 2419 4116 
L 825 1625 
L 2419 1625 
L 2419 4116 
z
M 2253 4666 
L 3047 4666 
L 3047 1625 
L 3713 1625 
L 3713 1100 
L 3047 1100 
L 3047 0 
L 2419 0 
L 2419 1100 
L 313 1100 
L 313 1709 
L 2253 4666 
z
" transform="scale(0.015625)"/>
       </defs>
       <use xlink:href="#DejaVuSans-34"/>
       <use xlink:href="#DejaVuSans-30" x="63.623047"/>
      </g>
     </g>
    </g>
    <g id="xtick_6">
     <g id="line2d_6">
      <g>
       <use xlink:href="#m9d428b7c90" x="1113.232348" y="489.832" style="stroke: #000000; stroke-width: 0.8"/>
      </g>
     </g>
     <g id="text_6">
      <!-- 50 -->
      <g transform="translate(1100.507348 512.028875) scale(0.2 -0.2)">
       <defs>
        <path id="DejaVuSans-35" d="M 691 4666 
L 3169 4666 
L 3169 4134 
L 1269 4134 
L 1269 2991 
Q 1406 3038 1543 3061 
Q 1681 3084 1819 3084 
Q 2600 3084 3056 2656 
Q 3513 2228 3513 1497 
Q 3513 744 3044 326 
Q 2575 -91 1722 -91 
Q 1428 -91 1123 -41 
Q 819 9 494 109 
L 494 744 
Q 775 591 1075 516 
Q 1375 441 1709 441 
Q 2250 441 2565 725 
Q 2881 1009 2881 1497 
Q 2881 1984 2565 2268 
Q 2250 2553 1709 2553 
Q 1456 2553 1204 2497 
Q 953 2441 691 2322 
L 691 4666 
z
" transform="scale(0.015625)"/>
       </defs>
       <use xlink:href="#DejaVuSans-35"/>
       <use xlink:href="#DejaVuSans-30" x="63.623047"/>
      </g>
     </g>
    </g>
    <g id="text_7">
     <!-- Percentile Threshold -->
     <g transform="translate(512.030312 535.385125) scale(0.2 -0.2)">
      <defs>
       <path id="DejaVuSans-50" d="M 1259 4147 
L 1259 2394 
L 2053 2394 
Q 2494 2394 2734 2622 
Q 2975 2850 2975 3272 
Q 2975 3691 2734 3919 
Q 2494 4147 2053 4147 
L 1259 4147 
z
M 628 4666 
L 2053 4666 
Q 2838 4666 3239 4311 
Q 3641 3956 3641 3272 
Q 3641 2581 3239 2228 
Q 2838 1875 2053 1875 
L 1259 1875 
L 1259 0 
L 628 0 
L 628 4666 
z
" transform="scale(0.015625)"/>
       <path id="DejaVuSans-65" d="M 3597 1894 
L 3597 1613 
L 953 1613 
Q 991 1019 1311 708 
Q 1631 397 2203 397 
Q 2534 397 2845 478 
Q 3156 559 3463 722 
L 3463 178 
Q 3153 47 2828 -22 
Q 2503 -91 2169 -91 
Q 1331 -91 842 396 
Q 353 884 353 1716 
Q 353 2575 817 3079 
Q 1281 3584 2069 3584 
Q 2775 3584 3186 3129 
Q 3597 2675 3597 1894 
z
M 3022 2063 
Q 3016 2534 2758 2815 
Q 2500 3097 2075 3097 
Q 1594 3097 1305 2825 
Q 1016 2553 972 2059 
L 3022 2063 
z
" transform="scale(0.015625)"/>
       <path id="DejaVuSans-72" d="M 2631 2963 
Q 2534 3019 2420 3045 
Q 2306 3072 2169 3072 
Q 1681 3072 1420 2755 
Q 1159 2438 1159 1844 
L 1159 0 
L 581 0 
L 581 3500 
L 1159 3500 
L 1159 2956 
Q 1341 3275 1631 3429 
Q 1922 3584 2338 3584 
Q 2397 3584 2469 3576 
Q 2541 3569 2628 3553 
L 2631 2963 
z
" transform="scale(0.015625)"/>
       <path id="DejaVuSans-63" d="M 3122 3366 
L 3122 2828 
Q 2878 2963 2633 3030 
Q 2388 3097 2138 3097 
Q 1578 3097 1268 2742 
Q 959 2388 959 1747 
Q 959 1106 1268 751 
Q 1578 397 2138 397 
Q 2388 397 2633 464 
Q 2878 531 3122 666 
L 3122 134 
Q 2881 22 2623 -34 
Q 2366 -91 2075 -91 
Q 1284 -91 818 406 
Q 353 903 353 1747 
Q 353 2603 823 3093 
Q 1294 3584 2113 3584 
Q 2378 3584 2631 3529 
Q 2884 3475 3122 3366 
z
" transform="scale(0.015625)"/>
       <path id="DejaVuSans-6e" d="M 3513 2113 
L 3513 0 
L 2938 0 
L 2938 2094 
Q 2938 2591 2744 2837 
Q 2550 3084 2163 3084 
Q 1697 3084 1428 2787 
Q 1159 2491 1159 1978 
L 1159 0 
L 581 0 
L 581 3500 
L 1159 3500 
L 1159 2956 
Q 1366 3272 1645 3428 
Q 1925 3584 2291 3584 
Q 2894 3584 3203 3211 
Q 3513 2838 3513 2113 
z
" transform="scale(0.015625)"/>
       <path id="DejaVuSans-74" d="M 1172 4494 
L 1172 3500 
L 2356 3500 
L 2356 3053 
L 1172 3053 
L 1172 1153 
Q 1172 725 1289 603 
Q 1406 481 1766 481 
L 2356 481 
L 2356 0 
L 1766 0 
Q 1100 0 847 248 
Q 594 497 594 1153 
L 594 3053 
L 172 3053 
L 172 3500 
L 594 3500 
L 594 4494 
L 1172 4494 
z
" transform="scale(0.015625)"/>
       <path id="DejaVuSans-69" d="M 603 3500 
L 1178 3500 
L 1178 0 
L 603 0 
L 603 3500 
z
M 603 4863 
L 1178 4863 
L 1178 4134 
L 603 4134 
L 603 4863 
z
" transform="scale(0.015625)"/>
       <path id="DejaVuSans-6c" d="M 603 4863 
L 1178 4863 
L 1178 0 
L 603 0 
L 603 4863 
z
" transform="scale(0.015625)"/>
       <path id="DejaVuSans-20" transform="scale(0.015625)"/>
       <path id="DejaVuSans-54" d="M -19 4666 
L 3928 4666 
L 3928 4134 
L 2272 4134 
L 2272 0 
L 1638 0 
L 1638 4134 
L -19 4134 
L -19 4666 
z
" transform="scale(0.015625)"/>
       <path id="DejaVuSans-68" d="M 3513 2113 
L 3513 0 
L 2938 0 
L 2938 2094 
Q 2938 2591 2744 2837 
Q 2550 3084 2163 3084 
Q 1697 3084 1428 2787 
Q 1159 2491 1159 1978 
L 1159 0 
L 581 0 
L 581 4863 
L 1159 4863 
L 1159 2956 
Q 1366 3272 1645 3428 
Q 1925 3584 2291 3584 
Q 2894 3584 3203 3211 
Q 3513 2838 3513 2113 
z
" transform="scale(0.015625)"/>
       <path id="DejaVuSans-73" d="M 2834 3397 
L 2834 2853 
Q 2591 2978 2328 3040 
Q 2066 3103 1784 3103 
Q 1356 3103 1142 2972 
Q 928 2841 928 2578 
Q 928 2378 1081 2264 
Q 1234 2150 1697 2047 
L 1894 2003 
Q 2506 1872 2764 1633 
Q 3022 1394 3022 966 
Q 3022 478 2636 193 
Q 2250 -91 1575 -91 
Q 1294 -91 989 -36 
Q 684 19 347 128 
L 347 722 
Q 666 556 975 473 
Q 1284 391 1588 391 
Q 1994 391 2212 530 
Q 2431 669 2431 922 
Q 2431 1156 2273 1281 
Q 2116 1406 1581 1522 
L 1381 1569 
Q 847 1681 609 1914 
Q 372 2147 372 2553 
Q 372 3047 722 3315 
Q 1072 3584 1716 3584 
Q 2034 3584 2315 3537 
Q 2597 3491 2834 3397 
z
" transform="scale(0.015625)"/>
       <path id="DejaVuSans-6f" d="M 1959 3097 
Q 1497 3097 1228 2736 
Q 959 2375 959 1747 
Q 959 1119 1226 758 
Q 1494 397 1959 397 
Q 2419 397 2687 759 
Q 2956 1122 2956 1747 
Q 2956 2369 2687 2733 
Q 2419 3097 1959 3097 
z
M 1959 3584 
Q 2709 3584 3137 3096 
Q 3566 2609 3566 1747 
Q 3566 888 3137 398 
Q 2709 -91 1959 -91 
Q 1206 -91 779 398 
Q 353 888 353 1747 
Q 353 2609 779 3096 
Q 1206 3584 1959 3584 
z
" transform="scale(0.015625)"/>
       <path id="DejaVuSans-64" d="M 2906 2969 
L 2906 4863 
L 3481 4863 
L 3481 0 
L 2906 0 
L 2906 525 
Q 2725 213 2448 61 
Q 2172 -91 1784 -91 
Q 1150 -91 751 415 
Q 353 922 353 1747 
Q 353 2572 751 3078 
Q 1150 3584 1784 3584 
Q 2172 3584 2448 3432 
Q 2725 3281 2906 2969 
z
M 947 1747 
Q 947 1113 1208 752 
Q 1469 391 1925 391 
Q 2381 391 2643 752 
Q 2906 1113 2906 1747 
Q 2906 2381 2643 2742 
Q 2381 3103 1925 3103 
Q 1469 3103 1208 2742 
Q 947 2381 947 1747 
z
" transform="scale(0.015625)"/>
      </defs>
      <use xlink:href="#DejaVuSans-50"/>
      <use xlink:href="#DejaVuSans-65" x="56.677734"/>
      <use xlink:href="#DejaVuSans-72" x="118.201172"/>
      <use xlink:href="#DejaVuSans-63" x="157.064453"/>
      <use xlink:href="#DejaVuSans-65" x="212.044922"/>
      <use xlink:href="#DejaVuSans-6e" x="273.568359"/>
      <use xlink:href="#DejaVuSans-74" x="336.947266"/>
      <use xlink:href="#DejaVuSans-69" x="376.15625"/>
      <use xlink:href="#DejaVuSans-6c" x="403.939453"/>
      <use xlink:href="#DejaVuSans-65" x="431.722656"/>
      <use xlink:href="#DejaVuSans-20" x="493.246094"/>
      <use xlink:href="#DejaVuSans-54" x="525.033203"/>
      <use xlink:href="#DejaVuSans-68" x="586.117188"/>
      <use xlink:href="#DejaVuSans-72" x="649.496094"/>
      <use xlink:href="#DejaVuSans-65" x="688.359375"/>
      <use xlink:href="#DejaVuSans-73" x="749.882812"/>
      <use xlink:href="#DejaVuSans-68" x="801.982422"/>
      <use xlink:href="#DejaVuSans-6f" x="865.361328"/>
      <use xlink:href="#DejaVuSans-6c" x="926.542969"/>
      <use xlink:href="#DejaVuSans-64" x="954.326172"/>
     </g>
     <!-- (Using "max_mean" Threshold Handling) -->
     <g transform="translate(410.280312 557.78075) scale(0.2 -0.2)">
      <defs>
       <path id="DejaVuSans-28" d="M 1984 4856 
Q 1566 4138 1362 3434 
Q 1159 2731 1159 2009 
Q 1159 1288 1364 580 
Q 1569 -128 1984 -844 
L 1484 -844 
Q 1016 -109 783 600 
Q 550 1309 550 2009 
Q 550 2706 781 3412 
Q 1013 4119 1484 4856 
L 1984 4856 
z
" transform="scale(0.015625)"/>
       <path id="DejaVuSans-55" d="M 556 4666 
L 1191 4666 
L 1191 1831 
Q 1191 1081 1462 751 
Q 1734 422 2344 422 
Q 2950 422 3222 751 
Q 3494 1081 3494 1831 
L 3494 4666 
L 4128 4666 
L 4128 1753 
Q 4128 841 3676 375 
Q 3225 -91 2344 -91 
Q 1459 -91 1007 375 
Q 556 841 556 1753 
L 556 4666 
z
" transform="scale(0.015625)"/>
       <path id="DejaVuSans-67" d="M 2906 1791 
Q 2906 2416 2648 2759 
Q 2391 3103 1925 3103 
Q 1463 3103 1205 2759 
Q 947 2416 947 1791 
Q 947 1169 1205 825 
Q 1463 481 1925 481 
Q 2391 481 2648 825 
Q 2906 1169 2906 1791 
z
M 3481 434 
Q 3481 -459 3084 -895 
Q 2688 -1331 1869 -1331 
Q 1566 -1331 1297 -1286 
Q 1028 -1241 775 -1147 
L 775 -588 
Q 1028 -725 1275 -790 
Q 1522 -856 1778 -856 
Q 2344 -856 2625 -561 
Q 2906 -266 2906 331 
L 2906 616 
Q 2728 306 2450 153 
Q 2172 0 1784 0 
Q 1141 0 747 490 
Q 353 981 353 1791 
Q 353 2603 747 3093 
Q 1141 3584 1784 3584 
Q 2172 3584 2450 3431 
Q 2728 3278 2906 2969 
L 2906 3500 
L 3481 3500 
L 3481 434 
z
" transform="scale(0.015625)"/>
       <path id="DejaVuSans-22" d="M 1147 4666 
L 1147 2931 
L 616 2931 
L 616 4666 
L 1147 4666 
z
M 2328 4666 
L 2328 2931 
L 1797 2931 
L 1797 4666 
L 2328 4666 
z
" transform="scale(0.015625)"/>
       <path id="DejaVuSans-6d" d="M 3328 2828 
Q 3544 3216 3844 3400 
Q 4144 3584 4550 3584 
Q 5097 3584 5394 3201 
Q 5691 2819 5691 2113 
L 5691 0 
L 5113 0 
L 5113 2094 
Q 5113 2597 4934 2840 
Q 4756 3084 4391 3084 
Q 3944 3084 3684 2787 
Q 3425 2491 3425 1978 
L 3425 0 
L 2847 0 
L 2847 2094 
Q 2847 2600 2669 2842 
Q 2491 3084 2119 3084 
Q 1678 3084 1418 2786 
Q 1159 2488 1159 1978 
L 1159 0 
L 581 0 
L 581 3500 
L 1159 3500 
L 1159 2956 
Q 1356 3278 1631 3431 
Q 1906 3584 2284 3584 
Q 2666 3584 2933 3390 
Q 3200 3197 3328 2828 
z
" transform="scale(0.015625)"/>
       <path id="DejaVuSans-61" d="M 2194 1759 
Q 1497 1759 1228 1600 
Q 959 1441 959 1056 
Q 959 750 1161 570 
Q 1363 391 1709 391 
Q 2188 391 2477 730 
Q 2766 1069 2766 1631 
L 2766 1759 
L 2194 1759 
z
M 3341 1997 
L 3341 0 
L 2766 0 
L 2766 531 
Q 2569 213 2275 61 
Q 1981 -91 1556 -91 
Q 1019 -91 701 211 
Q 384 513 384 1019 
Q 384 1609 779 1909 
Q 1175 2209 1959 2209 
L 2766 2209 
L 2766 2266 
Q 2766 2663 2505 2880 
Q 2244 3097 1772 3097 
Q 1472 3097 1187 3025 
Q 903 2953 641 2809 
L 641 3341 
Q 956 3463 1253 3523 
Q 1550 3584 1831 3584 
Q 2591 3584 2966 3190 
Q 3341 2797 3341 1997 
z
" transform="scale(0.015625)"/>
       <path id="DejaVuSans-78" d="M 3513 3500 
L 2247 1797 
L 3578 0 
L 2900 0 
L 1881 1375 
L 863 0 
L 184 0 
L 1544 1831 
L 300 3500 
L 978 3500 
L 1906 2253 
L 2834 3500 
L 3513 3500 
z
" transform="scale(0.015625)"/>
       <path id="DejaVuSans-5f" d="M 3263 -1063 
L 3263 -1509 
L -63 -1509 
L -63 -1063 
L 3263 -1063 
z
" transform="scale(0.015625)"/>
       <path id="DejaVuSans-48" d="M 628 4666 
L 1259 4666 
L 1259 2753 
L 3553 2753 
L 3553 4666 
L 4184 4666 
L 4184 0 
L 3553 0 
L 3553 2222 
L 1259 2222 
L 1259 0 
L 628 0 
L 628 4666 
z
" transform="scale(0.015625)"/>
       <path id="DejaVuSans-29" d="M 513 4856 
L 1013 4856 
Q 1481 4119 1714 3412 
Q 1947 2706 1947 2009 
Q 1947 1309 1714 600 
Q 1481 -109 1013 -844 
L 513 -844 
Q 928 -128 1133 580 
Q 1338 1288 1338 2009 
Q 1338 2731 1133 3434 
Q 928 4138 513 4856 
z
" transform="scale(0.015625)"/>
      </defs>
      <use xlink:href="#DejaVuSans-28"/>
      <use xlink:href="#DejaVuSans-55" x="39.013672"/>
      <use xlink:href="#DejaVuSans-73" x="112.207031"/>
      <use xlink:href="#DejaVuSans-69" x="164.306641"/>
      <use xlink:href="#DejaVuSans-6e" x="192.089844"/>
      <use xlink:href="#DejaVuSans-67" x="255.46875"/>
      <use xlink:href="#DejaVuSans-20" x="318.945312"/>
      <use xlink:href="#DejaVuSans-22" x="350.732422"/>
      <use xlink:href="#DejaVuSans-6d" x="396.728516"/>
      <use xlink:href="#DejaVuSans-61" x="494.140625"/>
      <use xlink:href="#DejaVuSans-78" x="555.419922"/>
      <use xlink:href="#DejaVuSans-5f" x="614.599609"/>
      <use xlink:href="#DejaVuSans-6d" x="664.599609"/>
      <use xlink:href="#DejaVuSans-65" x="762.011719"/>
      <use xlink:href="#DejaVuSans-61" x="823.535156"/>
      <use xlink:href="#DejaVuSans-6e" x="884.814453"/>
      <use xlink:href="#DejaVuSans-22" x="948.193359"/>
      <use xlink:href="#DejaVuSans-20" x="994.189453"/>
      <use xlink:href="#DejaVuSans-54" x="1025.976562"/>
      <use xlink:href="#DejaVuSans-68" x="1087.060547"/>
      <use xlink:href="#DejaVuSans-72" x="1150.439453"/>
      <use xlink:href="#DejaVuSans-65" x="1189.302734"/>
      <use xlink:href="#DejaVuSans-73" x="1250.826172"/>
      <use xlink:href="#DejaVuSans-68" x="1302.925781"/>
      <use xlink:href="#DejaVuSans-6f" x="1366.304688"/>
      <use xlink:href="#DejaVuSans-6c" x="1427.486328"/>
      <use xlink:href="#DejaVuSans-64" x="1455.269531"/>
      <use xlink:href="#DejaVuSans-20" x="1518.746094"/>
      <use xlink:href="#DejaVuSans-48" x="1550.533203"/>
      <use xlink:href="#DejaVuSans-61" x="1625.728516"/>
      <use xlink:href="#DejaVuSans-6e" x="1687.007812"/>
      <use xlink:href="#DejaVuSans-64" x="1750.386719"/>
      <use xlink:href="#DejaVuSans-6c" x="1813.863281"/>
      <use xlink:href="#DejaVuSans-69" x="1841.646484"/>
      <use xlink:href="#DejaVuSans-6e" x="1869.429688"/>
      <use xlink:href="#DejaVuSans-67" x="1932.808594"/>
      <use xlink:href="#DejaVuSans-29" x="1996.285156"/>
     </g>
    </g>
   </g>
   <g id="matplotlib.axis_2">
    <g id="ytick_1">
     <g id="line2d_7">
      <defs>
       <path id="m8e1cfdc23b" d="M 0 0 
L -3.5 0 
" style="stroke: #000000; stroke-width: 0.8"/>
      </defs>
      <g>
       <use xlink:href="#m8e1cfdc23b" x="86.42" y="442.158389" style="stroke: #000000; stroke-width: 0.8"/>
      </g>
     </g>
     <g id="text_8">
      <!-- 0.88 -->
      <g transform="translate(34.88875 449.756826) scale(0.2 -0.2)">
       <defs>
        <path id="DejaVuSans-2e" d="M 684 794 
L 1344 794 
L 1344 0 
L 684 0 
L 684 794 
z
" transform="scale(0.015625)"/>
        <path id="DejaVuSans-38" d="M 2034 2216 
Q 1584 2216 1326 1975 
Q 1069 1734 1069 1313 
Q 1069 891 1326 650 
Q 1584 409 2034 409 
Q 2484 409 2743 651 
Q 3003 894 3003 1313 
Q 3003 1734 2745 1975 
Q 2488 2216 2034 2216 
z
M 1403 2484 
Q 997 2584 770 2862 
Q 544 3141 544 3541 
Q 544 4100 942 4425 
Q 1341 4750 2034 4750 
Q 2731 4750 3128 4425 
Q 3525 4100 3525 3541 
Q 3525 3141 3298 2862 
Q 3072 2584 2669 2484 
Q 3125 2378 3379 2068 
Q 3634 1759 3634 1313 
Q 3634 634 3220 271 
Q 2806 -91 2034 -91 
Q 1263 -91 848 271 
Q 434 634 434 1313 
Q 434 1759 690 2068 
Q 947 2378 1403 2484 
z
M 1172 3481 
Q 1172 3119 1398 2916 
Q 1625 2713 2034 2713 
Q 2441 2713 2670 2916 
Q 2900 3119 2900 3481 
Q 2900 3844 2670 4047 
Q 2441 4250 2034 4250 
Q 1625 4250 1398 4047 
Q 1172 3844 1172 3481 
z
" transform="scale(0.015625)"/>
       </defs>
       <use xlink:href="#DejaVuSans-30"/>
       <use xlink:href="#DejaVuSans-2e" x="63.623047"/>
       <use xlink:href="#DejaVuSans-38" x="95.410156"/>
       <use xlink:href="#DejaVuSans-38" x="159.033203"/>
      </g>
     </g>
    </g>
    <g id="ytick_2">
     <g id="line2d_8">
      <g>
       <use xlink:href="#m8e1cfdc23b" x="86.42" y="359.634826" style="stroke: #000000; stroke-width: 0.8"/>
      </g>
     </g>
     <g id="text_9">
      <!-- 0.89 -->
      <g transform="translate(34.88875 367.233263) scale(0.2 -0.2)">
       <defs>
        <path id="DejaVuSans-39" d="M 703 97 
L 703 672 
Q 941 559 1184 500 
Q 1428 441 1663 441 
Q 2288 441 2617 861 
Q 2947 1281 2994 2138 
Q 2813 1869 2534 1725 
Q 2256 1581 1919 1581 
Q 1219 1581 811 2004 
Q 403 2428 403 3163 
Q 403 3881 828 4315 
Q 1253 4750 1959 4750 
Q 2769 4750 3195 4129 
Q 3622 3509 3622 2328 
Q 3622 1225 3098 567 
Q 2575 -91 1691 -91 
Q 1453 -91 1209 -44 
Q 966 3 703 97 
z
M 1959 2075 
Q 2384 2075 2632 2365 
Q 2881 2656 2881 3163 
Q 2881 3666 2632 3958 
Q 2384 4250 1959 4250 
Q 1534 4250 1286 3958 
Q 1038 3666 1038 3163 
Q 1038 2656 1286 2365 
Q 1534 2075 1959 2075 
z
" transform="scale(0.015625)"/>
       </defs>
       <use xlink:href="#DejaVuSans-30"/>
       <use xlink:href="#DejaVuSans-2e" x="63.623047"/>
       <use xlink:href="#DejaVuSans-38" x="95.410156"/>
       <use xlink:href="#DejaVuSans-39" x="159.033203"/>
      </g>
     </g>
    </g>
    <g id="ytick_3">
     <g id="line2d_9">
      <g>
       <use xlink:href="#m8e1cfdc23b" x="86.42" y="277.111262" style="stroke: #000000; stroke-width: 0.8"/>
      </g>
     </g>
     <g id="text_10">
      <!-- 0.90 -->
      <g transform="translate(34.88875 284.7097) scale(0.2 -0.2)">
       <use xlink:href="#DejaVuSans-30"/>
       <use xlink:href="#DejaVuSans-2e" x="63.623047"/>
       <use xlink:href="#DejaVuSans-39" x="95.410156"/>
       <use xlink:href="#DejaVuSans-30" x="159.033203"/>
      </g>
     </g>
    </g>
    <g id="ytick_4">
     <g id="line2d_10">
      <g>
       <use xlink:href="#m8e1cfdc23b" x="86.42" y="194.587699" style="stroke: #000000; stroke-width: 0.8"/>
      </g>
     </g>
     <g id="text_11">
      <!-- 0.91 -->
      <g transform="translate(34.88875 202.186137) scale(0.2 -0.2)">
       <use xlink:href="#DejaVuSans-30"/>
       <use xlink:href="#DejaVuSans-2e" x="63.623047"/>
       <use xlink:href="#DejaVuSans-39" x="95.410156"/>
       <use xlink:href="#DejaVuSans-31" x="159.033203"/>
      </g>
     </g>
    </g>
    <g id="ytick_5">
     <g id="line2d_11">
      <g>
       <use xlink:href="#m8e1cfdc23b" x="86.42" y="112.064136" style="stroke: #000000; stroke-width: 0.8"/>
      </g>
     </g>
     <g id="text_12">
      <!-- 0.92 -->
      <g transform="translate(34.88875 119.662573) scale(0.2 -0.2)">
       <use xlink:href="#DejaVuSans-30"/>
       <use xlink:href="#DejaVuSans-2e" x="63.623047"/>
       <use xlink:href="#DejaVuSans-39" x="95.410156"/>
       <use xlink:href="#DejaVuSans-32" x="159.033203"/>
      </g>
     </g>
    </g>
    <g id="ytick_6">
     <g id="line2d_12">
      <g>
       <use xlink:href="#m8e1cfdc23b" x="86.42" y="29.540573" style="stroke: #000000; stroke-width: 0.8"/>
      </g>
     </g>
     <g id="text_13">
      <!-- 0.93 -->
      <g transform="translate(34.88875 37.13901) scale(0.2 -0.2)">
       <use xlink:href="#DejaVuSans-30"/>
       <use xlink:href="#DejaVuSans-2e" x="63.623047"/>
       <use xlink:href="#DejaVuSans-39" x="95.410156"/>
       <use xlink:href="#DejaVuSans-33" x="159.033203"/>
      </g>
     </g>
    </g>
    <g id="text_14">
     <!-- R2 -->
     <g transform="translate(26.729375 263.626938) rotate(-90) scale(0.2 -0.2)">
      <defs>
       <path id="DejaVuSans-52" d="M 2841 2188 
Q 3044 2119 3236 1894 
Q 3428 1669 3622 1275 
L 4263 0 
L 3584 0 
L 2988 1197 
Q 2756 1666 2539 1819 
Q 2322 1972 1947 1972 
L 1259 1972 
L 1259 0 
L 628 0 
L 628 4666 
L 2053 4666 
Q 2853 4666 3247 4331 
Q 3641 3997 3641 3322 
Q 3641 2881 3436 2590 
Q 3231 2300 2841 2188 
z
M 1259 4147 
L 1259 2491 
L 2053 2491 
Q 2509 2491 2742 2702 
Q 2975 2913 2975 3322 
Q 2975 3731 2742 3939 
Q 2509 4147 2053 4147 
L 1259 4147 
z
" transform="scale(0.015625)"/>
      </defs>
      <use xlink:href="#DejaVuSans-52"/>
      <use xlink:href="#DejaVuSans-32" x="69.482422"/>
     </g>
    </g>
   </g>
   <g id="line2d_13">
    <path d="M 134.364545 265.006818 
L 174.318333 266.275863 
L 214.272121 239.201404 
L 254.225909 255.472518 
L 294.179697 235.706602 
L 334.133485 280.556431 
L 374.087273 302.863376 
L 414.041061 281.392274 
L 453.994848 282.994693 
L 493.948636 328.435819 
L 533.902424 306.844464 
L 573.856212 259.270915 
L 613.81 288.625646 
L 653.763788 259.98697 
L 693.717576 227.378914 
L 733.671364 214.089618 
L 773.625152 243.246981 
L 813.578939 225.962908 
L 853.532727 213.955918 
L 893.486515 235.326173 
L 933.440303 241.978965 
L 973.394091 214.629896 
L 1013.347879 219.641277 
L 1053.301667 191.524968 
L 1093.255455 197.242559 
" clip-path="url(#pe4efffbf7a)" style="fill: none; stroke: #1f77b4; stroke-width: 1.5; stroke-linecap: square"/>
   </g>
   <g id="line2d_14">
    <path d="M 134.364545 331.431857 
L 174.318333 299.243899 
L 214.272121 281.392146 
L 254.225909 302.29379 
L 294.179697 311.448909 
L 334.133485 351.740836 
L 374.087273 372.711336 
L 414.041061 338.430883 
L 453.994848 359.002112 
L 493.948636 398.625663 
L 533.902424 371.37471 
L 573.856212 303.807755 
L 613.81 342.130106 
L 653.763788 356.456124 
L 693.717576 335.259212 
L 733.671364 314.368181 
L 773.625152 324.779882 
L 813.578939 278.71669 
L 853.532727 275.706179 
L 893.486515 300.827127 
L 933.440303 326.206614 
L 973.394091 300.162923 
L 1013.347879 302.480858 
L 1053.301667 302.21395 
L 1093.255455 292.787077 
" clip-path="url(#pe4efffbf7a)" style="fill: none; stroke: #ff7f0e; stroke-width: 1.5; stroke-linecap: square"/>
   </g>
   <g id="line2d_15">
    <path d="M 134.364545 256.785319 
L 174.318333 196.655808 
L 214.272121 157.165101 
L 254.225909 191.697322 
L 294.179697 141.679525 
L 334.133485 200.405698 
L 374.087273 235.04995 
L 414.041061 191.302615 
L 453.994848 186.390774 
L 493.948636 255.024511 
L 533.902424 240.295958 
L 573.856212 146.502724 
L 613.81 224.89571 
L 653.763788 190.438135 
L 693.717576 190.770397 
L 733.671364 147.908078 
L 773.625152 198.8927 
L 813.578939 138.49519 
L 853.532727 126.309297 
L 893.486515 150.446489 
L 933.440303 179.442664 
L 973.394091 154.178148 
L 1013.347879 179.790274 
L 1053.301667 195.885162 
L 1093.255455 167.741114 
" clip-path="url(#pe4efffbf7a)" style="fill: none; stroke: #2ca02c; stroke-width: 1.5; stroke-linecap: square"/>
   </g>
   <g id="line2d_16">
    <path d="M 134.364545 320.817565 
L 174.318333 268.593813 
L 214.272121 221.865195 
L 254.225909 213.690403 
L 294.179697 224.774109 
L 334.133485 274.256763 
L 374.087273 364.227753 
L 414.041061 300.808473 
L 453.994848 274.927769 
L 493.948636 330.089852 
L 533.902424 327.214123 
L 573.856212 283.70226 
L 613.81 231.547417 
L 653.763788 234.820749 
L 693.717576 206.585105 
L 733.671364 220.426272 
L 773.625152 231.269503 
L 813.578939 188.075431 
L 853.532727 215.774997 
L 893.486515 217.148617 
L 933.440303 201.594263 
L 973.394091 185.099982 
L 1013.347879 196.201872 
L 1053.301667 180.609576 
L 1093.255455 180.730745 
" clip-path="url(#pe4efffbf7a)" style="fill: none; stroke: #d62728; stroke-width: 1.5; stroke-linecap: square"/>
   </g>
   <g id="line2d_17">
    <path d="M 134.364545 267.793004 
L 174.318333 280.881768 
L 214.272121 216.737876 
L 254.225909 267.315979 
L 294.179697 244.591523 
L 334.133485 365.275523 
L 374.087273 275.827543 
L 414.041061 271.719024 
L 453.994848 272.858791 
L 493.948636 326.394192 
L 533.902424 277.797207 
L 573.856212 251.196634 
L 613.81 255.761115 
L 653.763788 264.209391 
L 693.717576 269.462546 
L 733.671364 225.53006 
L 773.625152 241.076048 
L 813.578939 215.912835 
L 853.532727 194.235888 
L 893.486515 206.700122 
L 933.440303 245.120108 
L 973.394091 234.985547 
L 1013.347879 276.157464 
L 1053.301667 213.66417 
L 1093.255455 239.817431 
" clip-path="url(#pe4efffbf7a)" style="fill: none; stroke: #9467bd; stroke-width: 1.5; stroke-linecap: square"/>
   </g>
   <g id="line2d_18">
    <path d="M 134.364545 286.539052 
L 174.318333 255.979698 
L 214.272121 232.652281 
L 254.225909 253.213206 
L 294.179697 250.577061 
L 334.133485 286.226608 
L 374.087273 290.826029 
L 414.041061 274.356132 
L 453.994848 258.316 
L 493.948636 301.125451 
L 533.902424 293.758855 
L 573.856212 219.90916 
L 613.81 234.348719 
L 653.763788 256.941595 
L 693.717576 224.763897 
L 733.671364 195.11766 
L 773.625152 225.589413 
L 813.578939 205.731989 
L 853.532727 176.747266 
L 893.486515 211.806102 
L 933.440303 214.84999 
L 973.394091 201.109417 
L 1013.347879 214.68949 
L 1053.301667 195.902323 
L 1093.255455 195.670901 
" clip-path="url(#pe4efffbf7a)" style="fill: none; stroke: #8c564b; stroke-width: 1.5; stroke-linecap: square"/>
   </g>
   <g id="line2d_19">
    <path d="M 134.364545 263.490539 
L 174.318333 264.284233 
L 214.272121 237.226837 
L 254.225909 253.133771 
L 294.179697 236.653017 
L 334.133485 280.063463 
L 374.087273 298.136551 
L 414.041061 277.603475 
L 453.994848 282.834869 
L 493.948636 323.574463 
L 533.902424 308.064815 
L 573.856212 258.383669 
L 613.81 287.506085 
L 653.763788 257.618226 
L 693.717576 231.53475 
L 733.671364 212.12142 
L 773.625152 238.499351 
L 813.578939 225.721241 
L 853.532727 212.77353 
L 893.486515 234.495555 
L 933.440303 240.29534 
L 973.394091 215.006107 
L 1013.347879 214.73603 
L 1053.301667 188.935413 
L 1093.255455 194.777545 
" clip-path="url(#pe4efffbf7a)" style="fill: none; stroke: #e377c2; stroke-width: 1.5; stroke-linecap: square"/>
   </g>
   <g id="line2d_20">
    <path d="M 134.364545 198.953363 
L 174.318333 134.788172 
L 214.272121 126.01016 
L 254.225909 150.193635 
L 294.179697 116.208236 
L 334.133485 157.469136 
L 374.087273 196.201781 
L 414.041061 142.274685 
L 453.994848 143.540719 
L 493.948636 215.440337 
L 533.902424 165.408462 
L 573.856212 97.077023 
L 613.81 170.798153 
L 653.763788 153.240673 
L 693.717576 158.312618 
L 733.671364 111.664757 
L 773.625152 140.996077 
L 813.578939 99.174769 
L 853.532727 97.026484 
L 893.486515 105.499665 
L 933.440303 135.162223 
L 973.394091 100.064482 
L 1013.347879 134.827233 
L 1053.301667 147.195622 
L 1093.255455 121.072096 
" clip-path="url(#pe4efffbf7a)" style="fill: none; stroke: #7f7f7f; stroke-width: 1.5; stroke-linecap: square"/>
   </g>
   <g id="line2d_21"/>
   <g id="line2d_22"/>
   <g id="line2d_23"/>
   <g id="line2d_24"/>
   <g id="line2d_25"/>
   <g id="line2d_26"/>
   <g id="line2d_27"/>
   <g id="line2d_28"/>
   <g id="patch_3">
    <path d="M 86.42 489.832 
L 86.42 10.8 
" style="fill: none; stroke: #000000; stroke-width: 0.8; stroke-linejoin: miter; stroke-linecap: square"/>
   </g>
   <g id="patch_4">
    <path d="M 1141.2 489.832 
L 1141.2 10.8 
" style="fill: none; stroke: #000000; stroke-width: 0.8; stroke-linejoin: miter; stroke-linecap: square"/>
   </g>
   <g id="patch_5">
    <path d="M 86.42 489.832 
L 1141.2 489.832 
" style="fill: none; stroke: #000000; stroke-width: 0.8; stroke-linejoin: miter; stroke-linecap: square"/>
   </g>
   <g id="patch_6">
    <path d="M 86.42 10.8 
L 1141.2 10.8 
" style="fill: none; stroke: #000000; stroke-width: 0.8; stroke-linejoin: miter; stroke-linecap: square"/>
   </g>
   <g id="legend_1">
    <g id="patch_7">
     <path d="M 97.62 481.832 
L 293.8575 481.832 
Q 297.0575 481.832 297.0575 478.632 
L 297.0575 290.572 
Q 297.0575 287.372 293.8575 287.372 
L 97.62 287.372 
Q 94.42 287.372 94.42 290.572 
L 94.42 478.632 
Q 94.42 481.832 97.62 481.832 
z
" style="fill: #ffffff; opacity: 0.8; stroke: #cccccc; stroke-linejoin: miter"/>
    </g>
    <g id="line2d_29">
     <path d="M 100.82 300.3295 
L 116.82 300.3295 
L 132.82 300.3295 
" style="fill: none; stroke: #1f77b4; stroke-width: 1.5; stroke-linecap: square"/>
    </g>
    <g id="text_15">
     <!-- BayesianRidge -->
     <g transform="translate(145.62 305.9295) scale(0.16 -0.16)">
      <defs>
       <path id="DejaVuSans-42" d="M 1259 2228 
L 1259 519 
L 2272 519 
Q 2781 519 3026 730 
Q 3272 941 3272 1375 
Q 3272 1813 3026 2020 
Q 2781 2228 2272 2228 
L 1259 2228 
z
M 1259 4147 
L 1259 2741 
L 2194 2741 
Q 2656 2741 2882 2914 
Q 3109 3088 3109 3444 
Q 3109 3797 2882 3972 
Q 2656 4147 2194 4147 
L 1259 4147 
z
M 628 4666 
L 2241 4666 
Q 2963 4666 3353 4366 
Q 3744 4066 3744 3513 
Q 3744 3084 3544 2831 
Q 3344 2578 2956 2516 
Q 3422 2416 3680 2098 
Q 3938 1781 3938 1306 
Q 3938 681 3513 340 
Q 3088 0 2303 0 
L 628 0 
L 628 4666 
z
" transform="scale(0.015625)"/>
       <path id="DejaVuSans-79" d="M 2059 -325 
Q 1816 -950 1584 -1140 
Q 1353 -1331 966 -1331 
L 506 -1331 
L 506 -850 
L 844 -850 
Q 1081 -850 1212 -737 
Q 1344 -625 1503 -206 
L 1606 56 
L 191 3500 
L 800 3500 
L 1894 763 
L 2988 3500 
L 3597 3500 
L 2059 -325 
z
" transform="scale(0.015625)"/>
      </defs>
      <use xlink:href="#DejaVuSans-42"/>
      <use xlink:href="#DejaVuSans-61" x="68.603516"/>
      <use xlink:href="#DejaVuSans-79" x="129.882812"/>
      <use xlink:href="#DejaVuSans-65" x="189.0625"/>
      <use xlink:href="#DejaVuSans-73" x="250.585938"/>
      <use xlink:href="#DejaVuSans-69" x="302.685547"/>
      <use xlink:href="#DejaVuSans-61" x="330.46875"/>
      <use xlink:href="#DejaVuSans-6e" x="391.748047"/>
      <use xlink:href="#DejaVuSans-52" x="455.126953"/>
      <use xlink:href="#DejaVuSans-69" x="524.609375"/>
      <use xlink:href="#DejaVuSans-64" x="552.392578"/>
      <use xlink:href="#DejaVuSans-67" x="615.869141"/>
      <use xlink:href="#DejaVuSans-65" x="679.345703"/>
     </g>
    </g>
    <g id="line2d_30">
     <path d="M 100.82 323.8145 
L 116.82 323.8145 
L 132.82 323.8145 
" style="fill: none; stroke: #ff7f0e; stroke-width: 1.5; stroke-linecap: square"/>
    </g>
    <g id="text_16">
     <!-- rf -->
     <g transform="translate(145.62 329.4145) scale(0.16 -0.16)">
      <defs>
       <path id="DejaVuSans-66" d="M 2375 4863 
L 2375 4384 
L 1825 4384 
Q 1516 4384 1395 4259 
Q 1275 4134 1275 3809 
L 1275 3500 
L 2222 3500 
L 2222 3053 
L 1275 3053 
L 1275 0 
L 697 0 
L 697 3053 
L 147 3053 
L 147 3500 
L 697 3500 
L 697 3744 
Q 697 4328 969 4595 
Q 1241 4863 1831 4863 
L 2375 4863 
z
" transform="scale(0.015625)"/>
      </defs>
      <use xlink:href="#DejaVuSans-72"/>
      <use xlink:href="#DejaVuSans-66" x="41.113281"/>
     </g>
    </g>
    <g id="line2d_31">
     <path d="M 100.82 347.2995 
L 116.82 347.2995 
L 132.82 347.2995 
" style="fill: none; stroke: #2ca02c; stroke-width: 1.5; stroke-linecap: square"/>
    </g>
    <g id="text_17">
     <!-- gbr -->
     <g transform="translate(145.62 352.8995) scale(0.16 -0.16)">
      <defs>
       <path id="DejaVuSans-62" d="M 3116 1747 
Q 3116 2381 2855 2742 
Q 2594 3103 2138 3103 
Q 1681 3103 1420 2742 
Q 1159 2381 1159 1747 
Q 1159 1113 1420 752 
Q 1681 391 2138 391 
Q 2594 391 2855 752 
Q 3116 1113 3116 1747 
z
M 1159 2969 
Q 1341 3281 1617 3432 
Q 1894 3584 2278 3584 
Q 2916 3584 3314 3078 
Q 3713 2572 3713 1747 
Q 3713 922 3314 415 
Q 2916 -91 2278 -91 
Q 1894 -91 1617 61 
Q 1341 213 1159 525 
L 1159 0 
L 581 0 
L 581 4863 
L 1159 4863 
L 1159 2969 
z
" transform="scale(0.015625)"/>
      </defs>
      <use xlink:href="#DejaVuSans-67"/>
      <use xlink:href="#DejaVuSans-62" x="63.476562"/>
      <use xlink:href="#DejaVuSans-72" x="126.953125"/>
     </g>
    </g>
    <g id="line2d_32">
     <path d="M 100.82 370.7845 
L 116.82 370.7845 
L 132.82 370.7845 
" style="fill: none; stroke: #d62728; stroke-width: 1.5; stroke-linecap: square"/>
    </g>
    <g id="text_18">
     <!-- xgb -->
     <g transform="translate(145.62 376.3845) scale(0.16 -0.16)">
      <use xlink:href="#DejaVuSans-78"/>
      <use xlink:href="#DejaVuSans-67" x="59.179688"/>
      <use xlink:href="#DejaVuSans-62" x="122.65625"/>
     </g>
    </g>
    <g id="line2d_33">
     <path d="M 100.82 394.2695 
L 116.82 394.2695 
L 132.82 394.2695 
" style="fill: none; stroke: #9467bd; stroke-width: 1.5; stroke-linecap: square"/>
    </g>
    <g id="text_19">
     <!-- gbr_gs -->
     <g transform="translate(145.62 399.8695) scale(0.16 -0.16)">
      <use xlink:href="#DejaVuSans-67"/>
      <use xlink:href="#DejaVuSans-62" x="63.476562"/>
      <use xlink:href="#DejaVuSans-72" x="126.953125"/>
      <use xlink:href="#DejaVuSans-5f" x="168.066406"/>
      <use xlink:href="#DejaVuSans-67" x="218.066406"/>
      <use xlink:href="#DejaVuSans-73" x="281.542969"/>
     </g>
    </g>
    <g id="line2d_34">
     <path d="M 100.82 418.1995 
L 116.82 418.1995 
L 132.82 418.1995 
" style="fill: none; stroke: #8c564b; stroke-width: 1.5; stroke-linecap: square"/>
    </g>
    <g id="text_20">
     <!-- rf_gs -->
     <g transform="translate(145.62 423.7995) scale(0.16 -0.16)">
      <use xlink:href="#DejaVuSans-72"/>
      <use xlink:href="#DejaVuSans-66" x="41.113281"/>
      <use xlink:href="#DejaVuSans-5f" x="76.318359"/>
      <use xlink:href="#DejaVuSans-67" x="126.318359"/>
      <use xlink:href="#DejaVuSans-73" x="189.794922"/>
     </g>
    </g>
    <g id="line2d_35">
     <path d="M 100.82 442.1295 
L 116.82 442.1295 
L 132.82 442.1295 
" style="fill: none; stroke: #e377c2; stroke-width: 1.5; stroke-linecap: square"/>
    </g>
    <g id="text_21">
     <!-- BayesianRidge_gs -->
     <g transform="translate(145.62 447.7295) scale(0.16 -0.16)">
      <use xlink:href="#DejaVuSans-42"/>
      <use xlink:href="#DejaVuSans-61" x="68.603516"/>
      <use xlink:href="#DejaVuSans-79" x="129.882812"/>
      <use xlink:href="#DejaVuSans-65" x="189.0625"/>
      <use xlink:href="#DejaVuSans-73" x="250.585938"/>
      <use xlink:href="#DejaVuSans-69" x="302.685547"/>
      <use xlink:href="#DejaVuSans-61" x="330.46875"/>
      <use xlink:href="#DejaVuSans-6e" x="391.748047"/>
      <use xlink:href="#DejaVuSans-52" x="455.126953"/>
      <use xlink:href="#DejaVuSans-69" x="524.609375"/>
      <use xlink:href="#DejaVuSans-64" x="552.392578"/>
      <use xlink:href="#DejaVuSans-67" x="615.869141"/>
      <use xlink:href="#DejaVuSans-65" x="679.345703"/>
      <use xlink:href="#DejaVuSans-5f" x="740.869141"/>
      <use xlink:href="#DejaVuSans-67" x="790.869141"/>
      <use xlink:href="#DejaVuSans-73" x="854.345703"/>
     </g>
    </g>
    <g id="line2d_36">
     <path d="M 100.82 466.0595 
L 116.82 466.0595 
L 132.82 466.0595 
" style="fill: none; stroke: #7f7f7f; stroke-width: 1.5; stroke-linecap: square"/>
    </g>
    <g id="text_22">
     <!-- xgb_gs -->
     <g transform="translate(145.62 471.6595) scale(0.16 -0.16)">
      <use xlink:href="#DejaVuSans-78"/>
      <use xlink:href="#DejaVuSans-67" x="59.179688"/>
      <use xlink:href="#DejaVuSans-62" x="122.65625"/>
      <use xlink:href="#DejaVuSans-5f" x="186.132812"/>
      <use xlink:href="#DejaVuSans-67" x="236.132812"/>
      <use xlink:href="#DejaVuSans-73" x="299.609375"/>
     </g>
    </g>
   </g>
  </g>
 </g>
 <defs>
  <clipPath id="pe4efffbf7a">
   <rect x="86.42" y="10.8" width="1054.78" height="479.032"/>
  </clipPath>
 </defs>
</svg>
