<?xml version="1.0" encoding="utf-8" standalone="no"?>
<!DOCTYPE svg PUBLIC "-//W3C//DTD SVG 1.1//EN"
  "http://www.w3.org/Graphics/SVG/1.1/DTD/svg11.dtd">
<svg xmlns:xlink="http://www.w3.org/1999/xlink" width="1152pt" height="576pt" viewBox="0 0 1152 576" xmlns="http://www.w3.org/2000/svg" version="1.1">
 <metadata>
  <rdf:RDF xmlns:dc="http://purl.org/dc/elements/1.1/" xmlns:cc="http://creativecommons.org/ns#" xmlns:rdf="http://www.w3.org/1999/02/22-rdf-syntax-ns#">
   <cc:Work>
    <dc:type rdf:resource="http://purl.org/dc/dcmitype/StillImage"/>
    <dc:date>2025-04-22T15:17:29.145887</dc:date>
    <dc:format>image/svg+xml</dc:format>
    <dc:creator>
     <cc:Agent>
      <dc:title>Matplotlib v3.7.1, https://matplotlib.org/</dc:title>
     </cc:Agent>
    </dc:creator>
   </cc:Work>
  </rdf:RDF>
 </metadata>
 <defs>
  <style type="text/css">*{stroke-linejoin: round; stroke-linecap: butt}</style>
 </defs>
 <g id="figure_1">
  <g id="patch_1">
   <path d="M 0 576 
L 1152 576 
L 1152 0 
L 0 0 
z
" style="fill: #ffffff"/>
  </g>
  <g id="axes_1">
   <g id="patch_2">
    <path d="M 92.72 489.832 
L 1141.2 489.832 
L 1141.2 12.680925 
L 92.72 12.680925 
z
" style="fill: #ffffff"/>
   </g>
   <g id="PolyCollection_1">
    <defs>
     <path id="mba92350f21" d="M 140.378182 -135.986845 
L 140.378182 -114.088886 
L 180.093333 -128.819664 
L 219.808485 -130.82919 
L 259.523636 -148.802459 
L 299.238788 -163.465095 
L 338.953939 -188.105923 
L 378.669091 -221.623891 
L 418.384242 -234.507756 
L 458.099394 -247.003172 
L 497.814545 -254.882008 
L 537.529697 -250.215498 
L 577.244848 -266.383315 
L 616.96 -287.64007 
L 656.675152 -310.48535 
L 696.390303 -329.039391 
L 736.105455 -360.316119 
L 775.820606 -350.711724 
L 815.535758 -371.350417 
L 855.250909 -379.339557 
L 894.966061 -384.353892 
L 934.681212 -359.890131 
L 974.396364 -359.890131 
L 1014.111515 -359.686565 
L 1053.826667 -319.460233 
L 1093.541818 -314.200108 
L 1093.541818 -431.203114 
L 1093.541818 -431.203114 
L 1053.826667 -405.478192 
L 1014.111515 -405.478192 
L 974.396364 -400.17216 
L 934.681212 -498.904471 
L 894.966061 -427.938979 
L 855.250909 -458.141468 
L 815.535758 -492.031246 
L 775.820606 -434.282402 
L 736.105455 -408.458702 
L 696.390303 -395.385598 
L 656.675152 -392.335258 
L 616.96 -323.851289 
L 577.244848 -307.791175 
L 537.529697 -318.730139 
L 497.814545 -365.383663 
L 458.099394 -327.659953 
L 418.384242 -291.622437 
L 378.669091 -280.933412 
L 338.953939 -250.962313 
L 299.238788 -204.031778 
L 259.523636 -185.793402 
L 219.808485 -161.873681 
L 180.093333 -142.468817 
L 140.378182 -135.986845 
z
" style="stroke: #1f77b4; stroke-opacity: 0.2"/>
    </defs>
    <g clip-path="url(#pf7a5cb20e3)">
     <use xlink:href="#mba92350f21" x="0" y="576" style="fill: #1f77b4; fill-opacity: 0.2; stroke: #1f77b4; stroke-opacity: 0.2"/>
    </g>
   </g>
   <g id="PolyCollection_2">
    <defs>
     <path id="m8b26f1916f" d="M 140.378182 -159.539375 
L 140.378182 -129.282956 
L 180.093333 -131.18957 
L 219.808485 -148.029511 
L 259.523636 -154.483414 
L 299.238788 -197.000315 
L 338.953939 -218.882286 
L 378.669091 -221.23887 
L 418.384242 -216.332107 
L 458.099394 -223.163208 
L 497.814545 -228.529326 
L 537.529697 -240.770258 
L 577.244848 -264.896874 
L 616.96 -297.496655 
L 656.675152 -307.066742 
L 696.390303 -350.843319 
L 736.105455 -359.377868 
L 775.820606 -362.406826 
L 815.535758 -406.532665 
L 855.250909 -336.56919 
L 894.966061 -448.122973 
L 934.681212 -474.937268 
L 974.396364 -466.732849 
L 1014.111515 -395.238453 
L 1053.826667 -314.142672 
L 1093.541818 -319.670695 
L 1093.541818 -487.442894 
L 1093.541818 -487.442894 
L 1053.826667 -430.71481 
L 1014.111515 -430.71481 
L 974.396364 -474.937268 
L 934.681212 -499.104315 
L 894.966061 -494.388759 
L 855.250909 -448.007909 
L 815.535758 -464.9102 
L 775.820606 -441.661755 
L 736.105455 -390.714997 
L 696.390303 -407.658425 
L 656.675152 -402.99751 
L 616.96 -342.270956 
L 577.244848 -371.916165 
L 537.529697 -391.190663 
L 497.814545 -334.654057 
L 458.099394 -349.804183 
L 418.384242 -349.277586 
L 378.669091 -328.065129 
L 338.953939 -317.158796 
L 299.238788 -266.107506 
L 259.523636 -232.399641 
L 219.808485 -202.495731 
L 180.093333 -157.100122 
L 140.378182 -159.539375 
z
" style="stroke: #ff7f0e; stroke-opacity: 0.2"/>
    </defs>
    <g clip-path="url(#pf7a5cb20e3)">
     <use xlink:href="#m8b26f1916f" x="0" y="576" style="fill: #ff7f0e; fill-opacity: 0.2; stroke: #ff7f0e; stroke-opacity: 0.2"/>
    </g>
   </g>
   <g id="PolyCollection_3">
    <defs>
     <path id="m54f7db695c" d="M 140.378182 -148.273079 
L 140.378182 -128.070648 
L 180.093333 -133.55973 
L 219.808485 -131.274011 
L 259.523636 -141.307054 
L 299.238788 -160.255726 
L 338.953939 -161.808114 
L 378.669091 -181.570581 
L 418.384242 -191.856536 
L 458.099394 -194.61015 
L 497.814545 -194.255824 
L 537.529697 -203.496567 
L 577.244848 -223.663043 
L 616.96 -225.027862 
L 656.675152 -232.283665 
L 696.390303 -263.308251 
L 736.105455 -263.918233 
L 775.820606 -273.52997 
L 815.535758 -285.206053 
L 855.250909 -300.674519 
L 894.966061 -271.392761 
L 934.681212 -268.772309 
L 974.396364 -268.772309 
L 1014.111515 -254.062344 
L 1053.826667 -247.827956 
L 1093.541818 -247.277132 
L 1093.541818 -315.158946 
L 1093.541818 -315.158946 
L 1053.826667 -316.878928 
L 1014.111515 -316.878928 
L 974.396364 -300.014918 
L 934.681212 -307.001768 
L 894.966061 -319.371335 
L 855.250909 -324.725115 
L 815.535758 -376.926852 
L 775.820606 -346.012408 
L 736.105455 -333.442217 
L 696.390303 -304.467162 
L 656.675152 -264.8686 
L 616.96 -262.487279 
L 577.244848 -256.606612 
L 537.529697 -279.252302 
L 497.814545 -249.003252 
L 458.099394 -258.911851 
L 418.384242 -236.219556 
L 378.669091 -212.605247 
L 338.953939 -189.358088 
L 299.238788 -184.464464 
L 259.523636 -168.278757 
L 219.808485 -149.644422 
L 180.093333 -152.070684 
L 140.378182 -148.273079 
z
" style="stroke: #2ca02c; stroke-opacity: 0.2"/>
    </defs>
    <g clip-path="url(#pf7a5cb20e3)">
     <use xlink:href="#m54f7db695c" x="0" y="576" style="fill: #2ca02c; fill-opacity: 0.2; stroke: #2ca02c; stroke-opacity: 0.2"/>
    </g>
   </g>
   <g id="PolyCollection_4">
    <defs>
     <path id="mdd0fe746cb" d="M 140.378182 -169.19051 
L 140.378182 -150.876142 
L 180.093333 -159.721627 
L 219.808485 -165.891948 
L 259.523636 -183.546167 
L 299.238788 -204.904619 
L 338.953939 -232.593866 
L 378.669091 -261.912001 
L 418.384242 -282.694884 
L 458.099394 -284.608318 
L 497.814545 -289.060029 
L 537.529697 -302.305814 
L 577.244848 -304.833959 
L 616.96 -320.766868 
L 656.675152 -350.30063 
L 696.390303 -367.447436 
L 736.105455 -340.623803 
L 775.820606 -338.618836 
L 815.535758 -370.551769 
L 855.250909 -386.40327 
L 894.966061 -406.735833 
L 934.681212 -396.519807 
L 974.396364 -396.519807 
L 1014.111515 -389.556046 
L 1053.826667 -391.86426 
L 1093.541818 -390.767473 
L 1093.541818 -421.412654 
L 1093.541818 -421.412654 
L 1053.826667 -402.66486 
L 1014.111515 -402.66486 
L 974.396364 -452.988716 
L 934.681212 -541.630389 
L 894.966061 -474.430825 
L 855.250909 -444.131911 
L 815.535758 -462.637765 
L 775.820606 -432.756687 
L 736.105455 -442.991922 
L 696.390303 -436.031977 
L 656.675152 -412.632391 
L 616.96 -384.94669 
L 577.244848 -354.484053 
L 537.529697 -392.518413 
L 497.814545 -380.226887 
L 458.099394 -361.0448 
L 418.384242 -334.032858 
L 378.669091 -316.985736 
L 338.953939 -289.267069 
L 299.238788 -256.676479 
L 259.523636 -220.474473 
L 219.808485 -213.589921 
L 180.093333 -170.934488 
L 140.378182 -169.19051 
z
" style="stroke: #d62728; stroke-opacity: 0.2"/>
    </defs>
    <g clip-path="url(#pf7a5cb20e3)">
     <use xlink:href="#mdd0fe746cb" x="0" y="576" style="fill: #d62728; fill-opacity: 0.2; stroke: #d62728; stroke-opacity: 0.2"/>
    </g>
   </g>
   <g id="PolyCollection_5">
    <defs>
     <path id="m924313a92e" d="M 140.378182 -124.106782 
L 140.378182 -107.856685 
L 180.093333 -117.758697 
L 219.808485 -128.762749 
L 259.523636 -140.453177 
L 299.238788 -165.727376 
L 338.953939 -188.904516 
L 378.669091 -222.423798 
L 418.384242 -231.666226 
L 458.099394 -242.272164 
L 497.814545 -247.061362 
L 537.529697 -235.538657 
L 577.244848 -266.503548 
L 616.96 -283.491176 
L 656.675152 -310.584197 
L 696.390303 -323.84146 
L 736.105455 -349.720164 
L 775.820606 -344.223718 
L 815.535758 -369.296348 
L 855.250909 -412.991489 
L 894.966061 -376.630843 
L 934.681212 -386.50474 
L 974.396364 -381.497541 
L 1014.111515 -372.553889 
L 1053.826667 -330.447514 
L 1093.541818 -328.931308 
L 1093.541818 -426.827529 
L 1093.541818 -426.827529 
L 1053.826667 -395.695939 
L 1014.111515 -395.695939 
L 974.396364 -386.50474 
L 934.681212 -476.477405 
L 894.966061 -440.355805 
L 855.250909 -463.344333 
L 815.535758 -517.796391 
L 775.820606 -479.697798 
L 736.105455 -426.500248 
L 696.390303 -410.091503 
L 656.675152 -377.396304 
L 616.96 -316.041162 
L 577.244848 -313.860616 
L 537.529697 -299.427521 
L 497.814545 -377.247064 
L 458.099394 -304.238771 
L 418.384242 -283.623105 
L 378.669091 -275.341103 
L 338.953939 -256.560048 
L 299.238788 -212.689121 
L 259.523636 -185.913386 
L 219.808485 -158.440641 
L 180.093333 -133.714181 
L 140.378182 -124.106782 
z
" style="stroke: #9467bd; stroke-opacity: 0.2"/>
    </defs>
    <g clip-path="url(#pf7a5cb20e3)">
     <use xlink:href="#m924313a92e" x="0" y="576" style="fill: #9467bd; fill-opacity: 0.2; stroke: #9467bd; stroke-opacity: 0.2"/>
    </g>
   </g>
   <g id="PolyCollection_6">
    <defs>
     <path id="m865b6ddfbe" d="M 140.378182 -150.867808 
L 140.378182 -134.742565 
L 180.093333 -138.835726 
L 219.808485 -146.230866 
L 259.523636 -163.006895 
L 299.238788 -179.653982 
L 338.953939 -191.390023 
L 378.669091 -212.162641 
L 418.384242 -226.254245 
L 458.099394 -227.265515 
L 497.814545 -236.715837 
L 537.529697 -235.526303 
L 577.244848 -247.651901 
L 616.96 -264.137156 
L 656.675152 -270.118738 
L 696.390303 -273.454032 
L 736.105455 -262.705799 
L 775.820606 -260.628288 
L 815.535758 -272.677698 
L 855.250909 -270.974262 
L 894.966061 -269.281726 
L 934.681212 -267.001105 
L 974.396364 -267.001105 
L 1014.111515 -264.881543 
L 1053.826667 -268.449419 
L 1093.541818 -268.384197 
L 1093.541818 -306.788806 
L 1093.541818 -306.788806 
L 1053.826667 -316.746367 
L 1014.111515 -316.746367 
L 974.396364 -309.886076 
L 934.681212 -317.68844 
L 894.966061 -334.09447 
L 855.250909 -335.245557 
L 815.535758 -326.926381 
L 775.820606 -377.879221 
L 736.105455 -355.887359 
L 696.390303 -315.24329 
L 656.675152 -325.681882 
L 616.96 -307.205804 
L 577.244848 -299.08012 
L 537.529697 -309.317062 
L 497.814545 -308.673629 
L 458.099394 -307.157767 
L 418.384242 -270.118529 
L 378.669091 -267.161457 
L 338.953939 -229.817101 
L 299.238788 -212.242098 
L 259.523636 -182.188576 
L 219.808485 -172.533865 
L 180.093333 -156.038552 
L 140.378182 -150.867808 
z
" style="stroke: #8c564b; stroke-opacity: 0.2"/>
    </defs>
    <g clip-path="url(#pf7a5cb20e3)">
     <use xlink:href="#m865b6ddfbe" x="0" y="576" style="fill: #8c564b; fill-opacity: 0.2; stroke: #8c564b; stroke-opacity: 0.2"/>
    </g>
   </g>
   <g id="PolyCollection_7">
    <defs>
     <path id="m00105210f2" d="M 140.378182 -150.524296 
L 140.378182 -139.633002 
L 180.093333 -142.217572 
L 219.808485 -154.372045 
L 259.523636 -164.691103 
L 299.238788 -177.695411 
L 338.953939 -175.151687 
L 378.669091 -194.294946 
L 418.384242 -205.495184 
L 458.099394 -211.753316 
L 497.814545 -230.359478 
L 537.529697 -232.06194 
L 577.244848 -251.635681 
L 616.96 -260.280518 
L 656.675152 -292.023404 
L 696.390303 -250.824845 
L 736.105455 -253.435113 
L 775.820606 -253.045671 
L 815.535758 -253.881231 
L 855.250909 -294.034275 
L 894.966061 -268.855399 
L 934.681212 -269.163549 
L 974.396364 -269.163549 
L 1014.111515 -307.77727 
L 1053.826667 -230.842866 
L 1093.541818 -226.574341 
L 1093.541818 -357.849386 
L 1093.541818 -357.849386 
L 1053.826667 -321.549856 
L 1014.111515 -321.549856 
L 974.396364 -350.685906 
L 934.681212 -294.751922 
L 894.966061 -343.921595 
L 855.250909 -375.103815 
L 815.535758 -386.9332 
L 775.820606 -357.477326 
L 736.105455 -284.017863 
L 696.390303 -307.877345 
L 656.675152 -351.711408 
L 616.96 -302.395166 
L 577.244848 -298.350921 
L 537.529697 -308.912656 
L 497.814545 -296.309821 
L 458.099394 -309.562274 
L 418.384242 -281.94099 
L 378.669091 -259.648211 
L 338.953939 -228.131152 
L 299.238788 -204.78288 
L 259.523636 -179.451029 
L 219.808485 -180.374566 
L 180.093333 -162.829705 
L 140.378182 -150.524296 
z
" style="stroke: #e377c2; stroke-opacity: 0.2"/>
    </defs>
    <g clip-path="url(#pf7a5cb20e3)">
     <use xlink:href="#m00105210f2" x="0" y="576" style="fill: #e377c2; fill-opacity: 0.2; stroke: #e377c2; stroke-opacity: 0.2"/>
    </g>
   </g>
   <g id="PolyCollection_8">
    <defs>
     <path id="m0ac4bf449f" d="M 140.378182 -149.164924 
L 140.378182 -128.02858 
L 180.093333 -133.283112 
L 219.808485 -135.153298 
L 259.523636 -140.564857 
L 299.238788 -161.736308 
L 338.953939 -162.714768 
L 378.669091 -180.070511 
L 418.384242 -190.955163 
L 458.099394 -193.295029 
L 497.814545 -193.466152 
L 537.529697 -200.92739 
L 577.244848 -223.424368 
L 616.96 -223.245646 
L 656.675152 -222.366201 
L 696.390303 -262.280468 
L 736.105455 -263.607291 
L 775.820606 -272.240386 
L 815.535758 -283.008849 
L 855.250909 -305.301489 
L 894.966061 -272.656771 
L 934.681212 -270.027749 
L 974.396364 -270.027749 
L 1014.111515 -253.353695 
L 1053.826667 -244.172235 
L 1093.541818 -243.135463 
L 1093.541818 -310.682502 
L 1093.541818 -310.682502 
L 1053.826667 -312.269292 
L 1014.111515 -312.269292 
L 974.396364 -291.981006 
L 934.681212 -303.772753 
L 894.966061 -316.387167 
L 855.250909 -316.761328 
L 815.535758 -366.49392 
L 775.820606 -347.353513 
L 736.105455 -326.282949 
L 696.390303 -300.582743 
L 656.675152 -265.94532 
L 616.96 -260.793821 
L 577.244848 -252.185292 
L 537.529697 -274.70411 
L 497.814545 -246.404376 
L 458.099394 -256.275787 
L 418.384242 -233.219137 
L 378.669091 -211.503425 
L 338.953939 -189.563566 
L 299.238788 -184.775314 
L 259.523636 -167.589464 
L 219.808485 -150.215287 
L 180.093333 -150.512418 
L 140.378182 -149.164924 
z
" style="stroke: #7f7f7f; stroke-opacity: 0.2"/>
    </defs>
    <g clip-path="url(#pf7a5cb20e3)">
     <use xlink:href="#m0ac4bf449f" x="0" y="576" style="fill: #7f7f7f; fill-opacity: 0.2; stroke: #7f7f7f; stroke-opacity: 0.2"/>
    </g>
   </g>
   <g id="matplotlib.axis_1">
    <g id="xtick_1">
     <g id="line2d_1">
      <defs>
       <path id="m418725637b" d="M 0 0 
L 0 3.5 
" style="stroke: #000000; stroke-width: 0.8"/>
      </defs>
      <g>
       <use xlink:href="#m418725637b" x="120.520606" y="489.832" style="stroke: #000000; stroke-width: 0.8"/>
      </g>
     </g>
     <g id="text_1">
      <!-- 0 -->
      <g transform="translate(114.158106 512.028875) scale(0.2 -0.2)">
       <defs>
        <path id="DejaVuSans-30" d="M 2034 4250 
Q 1547 4250 1301 3770 
Q 1056 3291 1056 2328 
Q 1056 1369 1301 889 
Q 1547 409 2034 409 
Q 2525 409 2770 889 
Q 3016 1369 3016 2328 
Q 3016 3291 2770 3770 
Q 2525 4250 2034 4250 
z
M 2034 4750 
Q 2819 4750 3233 4129 
Q 3647 3509 3647 2328 
Q 3647 1150 3233 529 
Q 2819 -91 2034 -91 
Q 1250 -91 836 529 
Q 422 1150 422 2328 
Q 422 3509 836 4129 
Q 1250 4750 2034 4750 
z
" transform="scale(0.015625)"/>
       </defs>
       <use xlink:href="#DejaVuSans-30"/>
      </g>
     </g>
    </g>
    <g id="xtick_2">
     <g id="line2d_2">
      <g>
       <use xlink:href="#m418725637b" x="319.096364" y="489.832" style="stroke: #000000; stroke-width: 0.8"/>
      </g>
     </g>
     <g id="text_2">
      <!-- 10 -->
      <g transform="translate(306.371364 512.028875) scale(0.2 -0.2)">
       <defs>
        <path id="DejaVuSans-31" d="M 794 531 
L 1825 531 
L 1825 4091 
L 703 3866 
L 703 4441 
L 1819 4666 
L 2450 4666 
L 2450 531 
L 3481 531 
L 3481 0 
L 794 0 
L 794 531 
z
" transform="scale(0.015625)"/>
       </defs>
       <use xlink:href="#DejaVuSans-31"/>
       <use xlink:href="#DejaVuSans-30" x="63.623047"/>
      </g>
     </g>
    </g>
    <g id="xtick_3">
     <g id="line2d_3">
      <g>
       <use xlink:href="#m418725637b" x="517.672121" y="489.832" style="stroke: #000000; stroke-width: 0.8"/>
      </g>
     </g>
     <g id="text_3">
      <!-- 20 -->
      <g transform="translate(504.947121 512.028875) scale(0.2 -0.2)">
       <defs>
        <path id="DejaVuSans-32" d="M 1228 531 
L 3431 531 
L 3431 0 
L 469 0 
L 469 531 
Q 828 903 1448 1529 
Q 2069 2156 2228 2338 
Q 2531 2678 2651 2914 
Q 2772 3150 2772 3378 
Q 2772 3750 2511 3984 
Q 2250 4219 1831 4219 
Q 1534 4219 1204 4116 
Q 875 4013 500 3803 
L 500 4441 
Q 881 4594 1212 4672 
Q 1544 4750 1819 4750 
Q 2544 4750 2975 4387 
Q 3406 4025 3406 3419 
Q 3406 3131 3298 2873 
Q 3191 2616 2906 2266 
Q 2828 2175 2409 1742 
Q 1991 1309 1228 531 
z
" transform="scale(0.015625)"/>
       </defs>
       <use xlink:href="#DejaVuSans-32"/>
       <use xlink:href="#DejaVuSans-30" x="63.623047"/>
      </g>
     </g>
    </g>
    <g id="xtick_4">
     <g id="line2d_4">
      <g>
       <use xlink:href="#m418725637b" x="716.247879" y="489.832" style="stroke: #000000; stroke-width: 0.8"/>
      </g>
     </g>
     <g id="text_4">
      <!-- 30 -->
      <g transform="translate(703.522879 512.028875) scale(0.2 -0.2)">
       <defs>
        <path id="DejaVuSans-33" d="M 2597 2516 
Q 3050 2419 3304 2112 
Q 3559 1806 3559 1356 
Q 3559 666 3084 287 
Q 2609 -91 1734 -91 
Q 1441 -91 1130 -33 
Q 819 25 488 141 
L 488 750 
Q 750 597 1062 519 
Q 1375 441 1716 441 
Q 2309 441 2620 675 
Q 2931 909 2931 1356 
Q 2931 1769 2642 2001 
Q 2353 2234 1838 2234 
L 1294 2234 
L 1294 2753 
L 1863 2753 
Q 2328 2753 2575 2939 
Q 2822 3125 2822 3475 
Q 2822 3834 2567 4026 
Q 2313 4219 1838 4219 
Q 1578 4219 1281 4162 
Q 984 4106 628 3988 
L 628 4550 
Q 988 4650 1302 4700 
Q 1616 4750 1894 4750 
Q 2613 4750 3031 4423 
Q 3450 4097 3450 3541 
Q 3450 3153 3228 2886 
Q 3006 2619 2597 2516 
z
" transform="scale(0.015625)"/>
       </defs>
       <use xlink:href="#DejaVuSans-33"/>
       <use xlink:href="#DejaVuSans-30" x="63.623047"/>
      </g>
     </g>
    </g>
    <g id="xtick_5">
     <g id="line2d_5">
      <g>
       <use xlink:href="#m418725637b" x="914.823636" y="489.832" style="stroke: #000000; stroke-width: 0.8"/>
      </g>
     </g>
     <g id="text_5">
      <!-- 40 -->
      <g transform="translate(902.098636 512.028875) scale(0.2 -0.2)">
       <defs>
        <path id="DejaVuSans-34" d="M 2419 4116 
L 825 1625 
L 2419 1625 
L 2419 4116 
z
M 2253 4666 
L 3047 4666 
L 3047 1625 
L 3713 1625 
L 3713 1100 
L 3047 1100 
L 3047 0 
L 2419 0 
L 2419 1100 
L 313 1100 
L 313 1709 
L 2253 4666 
z
" transform="scale(0.015625)"/>
       </defs>
       <use xlink:href="#DejaVuSans-34"/>
       <use xlink:href="#DejaVuSans-30" x="63.623047"/>
      </g>
     </g>
    </g>
    <g id="xtick_6">
     <g id="line2d_6">
      <g>
       <use xlink:href="#m418725637b" x="1113.399394" y="489.832" style="stroke: #000000; stroke-width: 0.8"/>
      </g>
     </g>
     <g id="text_6">
      <!-- 50 -->
      <g transform="translate(1100.674394 512.028875) scale(0.2 -0.2)">
       <defs>
        <path id="DejaVuSans-35" d="M 691 4666 
L 3169 4666 
L 3169 4134 
L 1269 4134 
L 1269 2991 
Q 1406 3038 1543 3061 
Q 1681 3084 1819 3084 
Q 2600 3084 3056 2656 
Q 3513 2228 3513 1497 
Q 3513 744 3044 326 
Q 2575 -91 1722 -91 
Q 1428 -91 1123 -41 
Q 819 9 494 109 
L 494 744 
Q 775 591 1075 516 
Q 1375 441 1709 441 
Q 2250 441 2565 725 
Q 2881 1009 2881 1497 
Q 2881 1984 2565 2268 
Q 2250 2553 1709 2553 
Q 1456 2553 1204 2497 
Q 953 2441 691 2322 
L 691 4666 
z
" transform="scale(0.015625)"/>
       </defs>
       <use xlink:href="#DejaVuSans-35"/>
       <use xlink:href="#DejaVuSans-30" x="63.623047"/>
      </g>
     </g>
    </g>
    <g id="text_7">
     <!-- Percentile Threshold -->
     <g transform="translate(515.180313 535.385125) scale(0.2 -0.2)">
      <defs>
       <path id="DejaVuSans-50" d="M 1259 4147 
L 1259 2394 
L 2053 2394 
Q 2494 2394 2734 2622 
Q 2975 2850 2975 3272 
Q 2975 3691 2734 3919 
Q 2494 4147 2053 4147 
L 1259 4147 
z
M 628 4666 
L 2053 4666 
Q 2838 4666 3239 4311 
Q 3641 3956 3641 3272 
Q 3641 2581 3239 2228 
Q 2838 1875 2053 1875 
L 1259 1875 
L 1259 0 
L 628 0 
L 628 4666 
z
" transform="scale(0.015625)"/>
       <path id="DejaVuSans-65" d="M 3597 1894 
L 3597 1613 
L 953 1613 
Q 991 1019 1311 708 
Q 1631 397 2203 397 
Q 2534 397 2845 478 
Q 3156 559 3463 722 
L 3463 178 
Q 3153 47 2828 -22 
Q 2503 -91 2169 -91 
Q 1331 -91 842 396 
Q 353 884 353 1716 
Q 353 2575 817 3079 
Q 1281 3584 2069 3584 
Q 2775 3584 3186 3129 
Q 3597 2675 3597 1894 
z
M 3022 2063 
Q 3016 2534 2758 2815 
Q 2500 3097 2075 3097 
Q 1594 3097 1305 2825 
Q 1016 2553 972 2059 
L 3022 2063 
z
" transform="scale(0.015625)"/>
       <path id="DejaVuSans-72" d="M 2631 2963 
Q 2534 3019 2420 3045 
Q 2306 3072 2169 3072 
Q 1681 3072 1420 2755 
Q 1159 2438 1159 1844 
L 1159 0 
L 581 0 
L 581 3500 
L 1159 3500 
L 1159 2956 
Q 1341 3275 1631 3429 
Q 1922 3584 2338 3584 
Q 2397 3584 2469 3576 
Q 2541 3569 2628 3553 
L 2631 2963 
z
" transform="scale(0.015625)"/>
       <path id="DejaVuSans-63" d="M 3122 3366 
L 3122 2828 
Q 2878 2963 2633 3030 
Q 2388 3097 2138 3097 
Q 1578 3097 1268 2742 
Q 959 2388 959 1747 
Q 959 1106 1268 751 
Q 1578 397 2138 397 
Q 2388 397 2633 464 
Q 2878 531 3122 666 
L 3122 134 
Q 2881 22 2623 -34 
Q 2366 -91 2075 -91 
Q 1284 -91 818 406 
Q 353 903 353 1747 
Q 353 2603 823 3093 
Q 1294 3584 2113 3584 
Q 2378 3584 2631 3529 
Q 2884 3475 3122 3366 
z
" transform="scale(0.015625)"/>
       <path id="DejaVuSans-6e" d="M 3513 2113 
L 3513 0 
L 2938 0 
L 2938 2094 
Q 2938 2591 2744 2837 
Q 2550 3084 2163 3084 
Q 1697 3084 1428 2787 
Q 1159 2491 1159 1978 
L 1159 0 
L 581 0 
L 581 3500 
L 1159 3500 
L 1159 2956 
Q 1366 3272 1645 3428 
Q 1925 3584 2291 3584 
Q 2894 3584 3203 3211 
Q 3513 2838 3513 2113 
z
" transform="scale(0.015625)"/>
       <path id="DejaVuSans-74" d="M 1172 4494 
L 1172 3500 
L 2356 3500 
L 2356 3053 
L 1172 3053 
L 1172 1153 
Q 1172 725 1289 603 
Q 1406 481 1766 481 
L 2356 481 
L 2356 0 
L 1766 0 
Q 1100 0 847 248 
Q 594 497 594 1153 
L 594 3053 
L 172 3053 
L 172 3500 
L 594 3500 
L 594 4494 
L 1172 4494 
z
" transform="scale(0.015625)"/>
       <path id="DejaVuSans-69" d="M 603 3500 
L 1178 3500 
L 1178 0 
L 603 0 
L 603 3500 
z
M 603 4863 
L 1178 4863 
L 1178 4134 
L 603 4134 
L 603 4863 
z
" transform="scale(0.015625)"/>
       <path id="DejaVuSans-6c" d="M 603 4863 
L 1178 4863 
L 1178 0 
L 603 0 
L 603 4863 
z
" transform="scale(0.015625)"/>
       <path id="DejaVuSans-20" transform="scale(0.015625)"/>
       <path id="DejaVuSans-54" d="M -19 4666 
L 3928 4666 
L 3928 4134 
L 2272 4134 
L 2272 0 
L 1638 0 
L 1638 4134 
L -19 4134 
L -19 4666 
z
" transform="scale(0.015625)"/>
       <path id="DejaVuSans-68" d="M 3513 2113 
L 3513 0 
L 2938 0 
L 2938 2094 
Q 2938 2591 2744 2837 
Q 2550 3084 2163 3084 
Q 1697 3084 1428 2787 
Q 1159 2491 1159 1978 
L 1159 0 
L 581 0 
L 581 4863 
L 1159 4863 
L 1159 2956 
Q 1366 3272 1645 3428 
Q 1925 3584 2291 3584 
Q 2894 3584 3203 3211 
Q 3513 2838 3513 2113 
z
" transform="scale(0.015625)"/>
       <path id="DejaVuSans-73" d="M 2834 3397 
L 2834 2853 
Q 2591 2978 2328 3040 
Q 2066 3103 1784 3103 
Q 1356 3103 1142 2972 
Q 928 2841 928 2578 
Q 928 2378 1081 2264 
Q 1234 2150 1697 2047 
L 1894 2003 
Q 2506 1872 2764 1633 
Q 3022 1394 3022 966 
Q 3022 478 2636 193 
Q 2250 -91 1575 -91 
Q 1294 -91 989 -36 
Q 684 19 347 128 
L 347 722 
Q 666 556 975 473 
Q 1284 391 1588 391 
Q 1994 391 2212 530 
Q 2431 669 2431 922 
Q 2431 1156 2273 1281 
Q 2116 1406 1581 1522 
L 1381 1569 
Q 847 1681 609 1914 
Q 372 2147 372 2553 
Q 372 3047 722 3315 
Q 1072 3584 1716 3584 
Q 2034 3584 2315 3537 
Q 2597 3491 2834 3397 
z
" transform="scale(0.015625)"/>
       <path id="DejaVuSans-6f" d="M 1959 3097 
Q 1497 3097 1228 2736 
Q 959 2375 959 1747 
Q 959 1119 1226 758 
Q 1494 397 1959 397 
Q 2419 397 2687 759 
Q 2956 1122 2956 1747 
Q 2956 2369 2687 2733 
Q 2419 3097 1959 3097 
z
M 1959 3584 
Q 2709 3584 3137 3096 
Q 3566 2609 3566 1747 
Q 3566 888 3137 398 
Q 2709 -91 1959 -91 
Q 1206 -91 779 398 
Q 353 888 353 1747 
Q 353 2609 779 3096 
Q 1206 3584 1959 3584 
z
" transform="scale(0.015625)"/>
       <path id="DejaVuSans-64" d="M 2906 2969 
L 2906 4863 
L 3481 4863 
L 3481 0 
L 2906 0 
L 2906 525 
Q 2725 213 2448 61 
Q 2172 -91 1784 -91 
Q 1150 -91 751 415 
Q 353 922 353 1747 
Q 353 2572 751 3078 
Q 1150 3584 1784 3584 
Q 2172 3584 2448 3432 
Q 2725 3281 2906 2969 
z
M 947 1747 
Q 947 1113 1208 752 
Q 1469 391 1925 391 
Q 2381 391 2643 752 
Q 2906 1113 2906 1747 
Q 2906 2381 2643 2742 
Q 2381 3103 1925 3103 
Q 1469 3103 1208 2742 
Q 947 2381 947 1747 
z
" transform="scale(0.015625)"/>
      </defs>
      <use xlink:href="#DejaVuSans-50"/>
      <use xlink:href="#DejaVuSans-65" x="56.677734"/>
      <use xlink:href="#DejaVuSans-72" x="118.201172"/>
      <use xlink:href="#DejaVuSans-63" x="157.064453"/>
      <use xlink:href="#DejaVuSans-65" x="212.044922"/>
      <use xlink:href="#DejaVuSans-6e" x="273.568359"/>
      <use xlink:href="#DejaVuSans-74" x="336.947266"/>
      <use xlink:href="#DejaVuSans-69" x="376.15625"/>
      <use xlink:href="#DejaVuSans-6c" x="403.939453"/>
      <use xlink:href="#DejaVuSans-65" x="431.722656"/>
      <use xlink:href="#DejaVuSans-20" x="493.246094"/>
      <use xlink:href="#DejaVuSans-54" x="525.033203"/>
      <use xlink:href="#DejaVuSans-68" x="586.117188"/>
      <use xlink:href="#DejaVuSans-72" x="649.496094"/>
      <use xlink:href="#DejaVuSans-65" x="688.359375"/>
      <use xlink:href="#DejaVuSans-73" x="749.882812"/>
      <use xlink:href="#DejaVuSans-68" x="801.982422"/>
      <use xlink:href="#DejaVuSans-6f" x="865.361328"/>
      <use xlink:href="#DejaVuSans-6c" x="926.542969"/>
      <use xlink:href="#DejaVuSans-64" x="954.326172"/>
     </g>
     <!-- (Using "leave_out" Threshold Handling) -->
     <g transform="translate(420.069375 557.78075) scale(0.2 -0.2)">
      <defs>
       <path id="DejaVuSans-28" d="M 1984 4856 
Q 1566 4138 1362 3434 
Q 1159 2731 1159 2009 
Q 1159 1288 1364 580 
Q 1569 -128 1984 -844 
L 1484 -844 
Q 1016 -109 783 600 
Q 550 1309 550 2009 
Q 550 2706 781 3412 
Q 1013 4119 1484 4856 
L 1984 4856 
z
" transform="scale(0.015625)"/>
       <path id="DejaVuSans-55" d="M 556 4666 
L 1191 4666 
L 1191 1831 
Q 1191 1081 1462 751 
Q 1734 422 2344 422 
Q 2950 422 3222 751 
Q 3494 1081 3494 1831 
L 3494 4666 
L 4128 4666 
L 4128 1753 
Q 4128 841 3676 375 
Q 3225 -91 2344 -91 
Q 1459 -91 1007 375 
Q 556 841 556 1753 
L 556 4666 
z
" transform="scale(0.015625)"/>
       <path id="DejaVuSans-67" d="M 2906 1791 
Q 2906 2416 2648 2759 
Q 2391 3103 1925 3103 
Q 1463 3103 1205 2759 
Q 947 2416 947 1791 
Q 947 1169 1205 825 
Q 1463 481 1925 481 
Q 2391 481 2648 825 
Q 2906 1169 2906 1791 
z
M 3481 434 
Q 3481 -459 3084 -895 
Q 2688 -1331 1869 -1331 
Q 1566 -1331 1297 -1286 
Q 1028 -1241 775 -1147 
L 775 -588 
Q 1028 -725 1275 -790 
Q 1522 -856 1778 -856 
Q 2344 -856 2625 -561 
Q 2906 -266 2906 331 
L 2906 616 
Q 2728 306 2450 153 
Q 2172 0 1784 0 
Q 1141 0 747 490 
Q 353 981 353 1791 
Q 353 2603 747 3093 
Q 1141 3584 1784 3584 
Q 2172 3584 2450 3431 
Q 2728 3278 2906 2969 
L 2906 3500 
L 3481 3500 
L 3481 434 
z
" transform="scale(0.015625)"/>
       <path id="DejaVuSans-22" d="M 1147 4666 
L 1147 2931 
L 616 2931 
L 616 4666 
L 1147 4666 
z
M 2328 4666 
L 2328 2931 
L 1797 2931 
L 1797 4666 
L 2328 4666 
z
" transform="scale(0.015625)"/>
       <path id="DejaVuSans-61" d="M 2194 1759 
Q 1497 1759 1228 1600 
Q 959 1441 959 1056 
Q 959 750 1161 570 
Q 1363 391 1709 391 
Q 2188 391 2477 730 
Q 2766 1069 2766 1631 
L 2766 1759 
L 2194 1759 
z
M 3341 1997 
L 3341 0 
L 2766 0 
L 2766 531 
Q 2569 213 2275 61 
Q 1981 -91 1556 -91 
Q 1019 -91 701 211 
Q 384 513 384 1019 
Q 384 1609 779 1909 
Q 1175 2209 1959 2209 
L 2766 2209 
L 2766 2266 
Q 2766 2663 2505 2880 
Q 2244 3097 1772 3097 
Q 1472 3097 1187 3025 
Q 903 2953 641 2809 
L 641 3341 
Q 956 3463 1253 3523 
Q 1550 3584 1831 3584 
Q 2591 3584 2966 3190 
Q 3341 2797 3341 1997 
z
" transform="scale(0.015625)"/>
       <path id="DejaVuSans-76" d="M 191 3500 
L 800 3500 
L 1894 563 
L 2988 3500 
L 3597 3500 
L 2284 0 
L 1503 0 
L 191 3500 
z
" transform="scale(0.015625)"/>
       <path id="DejaVuSans-5f" d="M 3263 -1063 
L 3263 -1509 
L -63 -1509 
L -63 -1063 
L 3263 -1063 
z
" transform="scale(0.015625)"/>
       <path id="DejaVuSans-75" d="M 544 1381 
L 544 3500 
L 1119 3500 
L 1119 1403 
Q 1119 906 1312 657 
Q 1506 409 1894 409 
Q 2359 409 2629 706 
Q 2900 1003 2900 1516 
L 2900 3500 
L 3475 3500 
L 3475 0 
L 2900 0 
L 2900 538 
Q 2691 219 2414 64 
Q 2138 -91 1772 -91 
Q 1169 -91 856 284 
Q 544 659 544 1381 
z
M 1991 3584 
L 1991 3584 
z
" transform="scale(0.015625)"/>
       <path id="DejaVuSans-48" d="M 628 4666 
L 1259 4666 
L 1259 2753 
L 3553 2753 
L 3553 4666 
L 4184 4666 
L 4184 0 
L 3553 0 
L 3553 2222 
L 1259 2222 
L 1259 0 
L 628 0 
L 628 4666 
z
" transform="scale(0.015625)"/>
       <path id="DejaVuSans-29" d="M 513 4856 
L 1013 4856 
Q 1481 4119 1714 3412 
Q 1947 2706 1947 2009 
Q 1947 1309 1714 600 
Q 1481 -109 1013 -844 
L 513 -844 
Q 928 -128 1133 580 
Q 1338 1288 1338 2009 
Q 1338 2731 1133 3434 
Q 928 4138 513 4856 
z
" transform="scale(0.015625)"/>
      </defs>
      <use xlink:href="#DejaVuSans-28"/>
      <use xlink:href="#DejaVuSans-55" x="39.013672"/>
      <use xlink:href="#DejaVuSans-73" x="112.207031"/>
      <use xlink:href="#DejaVuSans-69" x="164.306641"/>
      <use xlink:href="#DejaVuSans-6e" x="192.089844"/>
      <use xlink:href="#DejaVuSans-67" x="255.46875"/>
      <use xlink:href="#DejaVuSans-20" x="318.945312"/>
      <use xlink:href="#DejaVuSans-22" x="350.732422"/>
      <use xlink:href="#DejaVuSans-6c" x="396.728516"/>
      <use xlink:href="#DejaVuSans-65" x="424.511719"/>
      <use xlink:href="#DejaVuSans-61" x="486.035156"/>
      <use xlink:href="#DejaVuSans-76" x="547.314453"/>
      <use xlink:href="#DejaVuSans-65" x="606.494141"/>
      <use xlink:href="#DejaVuSans-5f" x="668.017578"/>
      <use xlink:href="#DejaVuSans-6f" x="718.017578"/>
      <use xlink:href="#DejaVuSans-75" x="779.199219"/>
      <use xlink:href="#DejaVuSans-74" x="842.578125"/>
      <use xlink:href="#DejaVuSans-22" x="881.787109"/>
      <use xlink:href="#DejaVuSans-20" x="927.783203"/>
      <use xlink:href="#DejaVuSans-54" x="959.570312"/>
      <use xlink:href="#DejaVuSans-68" x="1020.654297"/>
      <use xlink:href="#DejaVuSans-72" x="1084.033203"/>
      <use xlink:href="#DejaVuSans-65" x="1122.896484"/>
      <use xlink:href="#DejaVuSans-73" x="1184.419922"/>
      <use xlink:href="#DejaVuSans-68" x="1236.519531"/>
      <use xlink:href="#DejaVuSans-6f" x="1299.898438"/>
      <use xlink:href="#DejaVuSans-6c" x="1361.080078"/>
      <use xlink:href="#DejaVuSans-64" x="1388.863281"/>
      <use xlink:href="#DejaVuSans-20" x="1452.339844"/>
      <use xlink:href="#DejaVuSans-48" x="1484.126953"/>
      <use xlink:href="#DejaVuSans-61" x="1559.322266"/>
      <use xlink:href="#DejaVuSans-6e" x="1620.601562"/>
      <use xlink:href="#DejaVuSans-64" x="1683.980469"/>
      <use xlink:href="#DejaVuSans-6c" x="1747.457031"/>
      <use xlink:href="#DejaVuSans-69" x="1775.240234"/>
      <use xlink:href="#DejaVuSans-6e" x="1803.023438"/>
      <use xlink:href="#DejaVuSans-67" x="1866.402344"/>
      <use xlink:href="#DejaVuSans-29" x="1929.878906"/>
     </g>
    </g>
   </g>
   <g id="matplotlib.axis_2">
    <g id="ytick_1">
     <g id="line2d_7">
      <defs>
       <path id="m0296c050fc" d="M 0 0 
L -3.5 0 
" style="stroke: #000000; stroke-width: 0.8"/>
      </defs>
      <g>
       <use xlink:href="#m0296c050fc" x="92.72" y="446.956023" style="stroke: #000000; stroke-width: 0.8"/>
      </g>
     </g>
     <g id="text_8">
      <!-- 300 -->
      <g transform="translate(47.545 454.554461) scale(0.2 -0.2)">
       <use xlink:href="#DejaVuSans-33"/>
       <use xlink:href="#DejaVuSans-30" x="63.623047"/>
       <use xlink:href="#DejaVuSans-30" x="127.246094"/>
      </g>
     </g>
    </g>
    <g id="ytick_2">
     <g id="line2d_8">
      <g>
       <use xlink:href="#m0296c050fc" x="92.72" y="393.483762" style="stroke: #000000; stroke-width: 0.8"/>
      </g>
     </g>
     <g id="text_9">
      <!-- 400 -->
      <g transform="translate(47.545 401.082199) scale(0.2 -0.2)">
       <use xlink:href="#DejaVuSans-34"/>
       <use xlink:href="#DejaVuSans-30" x="63.623047"/>
       <use xlink:href="#DejaVuSans-30" x="127.246094"/>
      </g>
     </g>
    </g>
    <g id="ytick_3">
     <g id="line2d_9">
      <g>
       <use xlink:href="#m0296c050fc" x="92.72" y="340.0115" style="stroke: #000000; stroke-width: 0.8"/>
      </g>
     </g>
     <g id="text_10">
      <!-- 500 -->
      <g transform="translate(47.545 347.609937) scale(0.2 -0.2)">
       <use xlink:href="#DejaVuSans-35"/>
       <use xlink:href="#DejaVuSans-30" x="63.623047"/>
       <use xlink:href="#DejaVuSans-30" x="127.246094"/>
      </g>
     </g>
    </g>
    <g id="ytick_4">
     <g id="line2d_10">
      <g>
       <use xlink:href="#m0296c050fc" x="92.72" y="286.539238" style="stroke: #000000; stroke-width: 0.8"/>
      </g>
     </g>
     <g id="text_11">
      <!-- 600 -->
      <g transform="translate(47.545 294.137675) scale(0.2 -0.2)">
       <defs>
        <path id="DejaVuSans-36" d="M 2113 2584 
Q 1688 2584 1439 2293 
Q 1191 2003 1191 1497 
Q 1191 994 1439 701 
Q 1688 409 2113 409 
Q 2538 409 2786 701 
Q 3034 994 3034 1497 
Q 3034 2003 2786 2293 
Q 2538 2584 2113 2584 
z
M 3366 4563 
L 3366 3988 
Q 3128 4100 2886 4159 
Q 2644 4219 2406 4219 
Q 1781 4219 1451 3797 
Q 1122 3375 1075 2522 
Q 1259 2794 1537 2939 
Q 1816 3084 2150 3084 
Q 2853 3084 3261 2657 
Q 3669 2231 3669 1497 
Q 3669 778 3244 343 
Q 2819 -91 2113 -91 
Q 1303 -91 875 529 
Q 447 1150 447 2328 
Q 447 3434 972 4092 
Q 1497 4750 2381 4750 
Q 2619 4750 2861 4703 
Q 3103 4656 3366 4563 
z
" transform="scale(0.015625)"/>
       </defs>
       <use xlink:href="#DejaVuSans-36"/>
       <use xlink:href="#DejaVuSans-30" x="63.623047"/>
       <use xlink:href="#DejaVuSans-30" x="127.246094"/>
      </g>
     </g>
    </g>
    <g id="ytick_5">
     <g id="line2d_11">
      <g>
       <use xlink:href="#m0296c050fc" x="92.72" y="233.066976" style="stroke: #000000; stroke-width: 0.8"/>
      </g>
     </g>
     <g id="text_12">
      <!-- 700 -->
      <g transform="translate(47.545 240.665414) scale(0.2 -0.2)">
       <defs>
        <path id="DejaVuSans-37" d="M 525 4666 
L 3525 4666 
L 3525 4397 
L 1831 0 
L 1172 0 
L 2766 4134 
L 525 4134 
L 525 4666 
z
" transform="scale(0.015625)"/>
       </defs>
       <use xlink:href="#DejaVuSans-37"/>
       <use xlink:href="#DejaVuSans-30" x="63.623047"/>
       <use xlink:href="#DejaVuSans-30" x="127.246094"/>
      </g>
     </g>
    </g>
    <g id="ytick_6">
     <g id="line2d_12">
      <g>
       <use xlink:href="#m0296c050fc" x="92.72" y="179.594714" style="stroke: #000000; stroke-width: 0.8"/>
      </g>
     </g>
     <g id="text_13">
      <!-- 800 -->
      <g transform="translate(47.545 187.193152) scale(0.2 -0.2)">
       <defs>
        <path id="DejaVuSans-38" d="M 2034 2216 
Q 1584 2216 1326 1975 
Q 1069 1734 1069 1313 
Q 1069 891 1326 650 
Q 1584 409 2034 409 
Q 2484 409 2743 651 
Q 3003 894 3003 1313 
Q 3003 1734 2745 1975 
Q 2488 2216 2034 2216 
z
M 1403 2484 
Q 997 2584 770 2862 
Q 544 3141 544 3541 
Q 544 4100 942 4425 
Q 1341 4750 2034 4750 
Q 2731 4750 3128 4425 
Q 3525 4100 3525 3541 
Q 3525 3141 3298 2862 
Q 3072 2584 2669 2484 
Q 3125 2378 3379 2068 
Q 3634 1759 3634 1313 
Q 3634 634 3220 271 
Q 2806 -91 2034 -91 
Q 1263 -91 848 271 
Q 434 634 434 1313 
Q 434 1759 690 2068 
Q 947 2378 1403 2484 
z
M 1172 3481 
Q 1172 3119 1398 2916 
Q 1625 2713 2034 2713 
Q 2441 2713 2670 2916 
Q 2900 3119 2900 3481 
Q 2900 3844 2670 4047 
Q 2441 4250 2034 4250 
Q 1625 4250 1398 4047 
Q 1172 3844 1172 3481 
z
" transform="scale(0.015625)"/>
       </defs>
       <use xlink:href="#DejaVuSans-38"/>
       <use xlink:href="#DejaVuSans-30" x="63.623047"/>
       <use xlink:href="#DejaVuSans-30" x="127.246094"/>
      </g>
     </g>
    </g>
    <g id="ytick_7">
     <g id="line2d_13">
      <g>
       <use xlink:href="#m0296c050fc" x="92.72" y="126.122452" style="stroke: #000000; stroke-width: 0.8"/>
      </g>
     </g>
     <g id="text_14">
      <!-- 900 -->
      <g transform="translate(47.545 133.72089) scale(0.2 -0.2)">
       <defs>
        <path id="DejaVuSans-39" d="M 703 97 
L 703 672 
Q 941 559 1184 500 
Q 1428 441 1663 441 
Q 2288 441 2617 861 
Q 2947 1281 2994 2138 
Q 2813 1869 2534 1725 
Q 2256 1581 1919 1581 
Q 1219 1581 811 2004 
Q 403 2428 403 3163 
Q 403 3881 828 4315 
Q 1253 4750 1959 4750 
Q 2769 4750 3195 4129 
Q 3622 3509 3622 2328 
Q 3622 1225 3098 567 
Q 2575 -91 1691 -91 
Q 1453 -91 1209 -44 
Q 966 3 703 97 
z
M 1959 2075 
Q 2384 2075 2632 2365 
Q 2881 2656 2881 3163 
Q 2881 3666 2632 3958 
Q 2384 4250 1959 4250 
Q 1534 4250 1286 3958 
Q 1038 3666 1038 3163 
Q 1038 2656 1286 2365 
Q 1534 2075 1959 2075 
z
" transform="scale(0.015625)"/>
       </defs>
       <use xlink:href="#DejaVuSans-39"/>
       <use xlink:href="#DejaVuSans-30" x="63.623047"/>
       <use xlink:href="#DejaVuSans-30" x="127.246094"/>
      </g>
     </g>
    </g>
    <g id="ytick_8">
     <g id="line2d_14">
      <g>
       <use xlink:href="#m0296c050fc" x="92.72" y="72.650191" style="stroke: #000000; stroke-width: 0.8"/>
      </g>
     </g>
     <g id="text_15">
      <!-- 1000 -->
      <g transform="translate(34.82 80.248628) scale(0.2 -0.2)">
       <use xlink:href="#DejaVuSans-31"/>
       <use xlink:href="#DejaVuSans-30" x="63.623047"/>
       <use xlink:href="#DejaVuSans-30" x="127.246094"/>
       <use xlink:href="#DejaVuSans-30" x="190.869141"/>
      </g>
     </g>
    </g>
    <g id="ytick_9">
     <g id="line2d_15">
      <g>
       <use xlink:href="#m0296c050fc" x="92.72" y="19.177929" style="stroke: #000000; stroke-width: 0.8"/>
      </g>
     </g>
     <g id="text_16">
      <!-- 1100 -->
      <g transform="translate(34.82 26.776366) scale(0.2 -0.2)">
       <use xlink:href="#DejaVuSans-31"/>
       <use xlink:href="#DejaVuSans-31" x="63.623047"/>
       <use xlink:href="#DejaVuSans-30" x="127.246094"/>
       <use xlink:href="#DejaVuSans-30" x="190.869141"/>
      </g>
     </g>
    </g>
    <g id="text_17">
     <!-- MSE -->
     <g transform="translate(26.660625 272.551775) rotate(-90) scale(0.2 -0.2)">
      <defs>
       <path id="DejaVuSans-4d" d="M 628 4666 
L 1569 4666 
L 2759 1491 
L 3956 4666 
L 4897 4666 
L 4897 0 
L 4281 0 
L 4281 4097 
L 3078 897 
L 2444 897 
L 1241 4097 
L 1241 0 
L 628 0 
L 628 4666 
z
" transform="scale(0.015625)"/>
       <path id="DejaVuSans-53" d="M 3425 4513 
L 3425 3897 
Q 3066 4069 2747 4153 
Q 2428 4238 2131 4238 
Q 1616 4238 1336 4038 
Q 1056 3838 1056 3469 
Q 1056 3159 1242 3001 
Q 1428 2844 1947 2747 
L 2328 2669 
Q 3034 2534 3370 2195 
Q 3706 1856 3706 1288 
Q 3706 609 3251 259 
Q 2797 -91 1919 -91 
Q 1588 -91 1214 -16 
Q 841 59 441 206 
L 441 856 
Q 825 641 1194 531 
Q 1563 422 1919 422 
Q 2459 422 2753 634 
Q 3047 847 3047 1241 
Q 3047 1584 2836 1778 
Q 2625 1972 2144 2069 
L 1759 2144 
Q 1053 2284 737 2584 
Q 422 2884 422 3419 
Q 422 4038 858 4394 
Q 1294 4750 2059 4750 
Q 2388 4750 2728 4690 
Q 3069 4631 3425 4513 
z
" transform="scale(0.015625)"/>
       <path id="DejaVuSans-45" d="M 628 4666 
L 3578 4666 
L 3578 4134 
L 1259 4134 
L 1259 2753 
L 3481 2753 
L 3481 2222 
L 1259 2222 
L 1259 531 
L 3634 531 
L 3634 0 
L 628 0 
L 628 4666 
z
" transform="scale(0.015625)"/>
      </defs>
      <use xlink:href="#DejaVuSans-4d"/>
      <use xlink:href="#DejaVuSans-53" x="86.279297"/>
      <use xlink:href="#DejaVuSans-45" x="149.755859"/>
     </g>
    </g>
   </g>
   <g id="line2d_16">
    <path d="M 140.378182 451.944886 
L 180.093333 440.254624 
L 219.808485 429.183136 
L 259.523636 410.327035 
L 299.238788 393.425126 
L 338.953939 353.280039 
L 378.669091 324.555293 
L 418.384242 314.342795 
L 458.099394 295.45381 
L 497.814545 272.352664 
L 537.529697 295.757831 
L 577.244848 290.431312 
L 616.96 267.163235 
L 656.675152 212.784004 
L 696.390303 216.876049 
L 736.105455 189.543967 
L 775.820606 174.188067 
L 815.535758 144.309168 
L 855.250909 157.259487 
L 894.966061 169.853565 
L 934.681212 146.602699 
L 974.396364 195.968855 
L 1014.111515 193.417622 
L 1053.826667 213.530788 
L 1093.541818 203.298389 
" clip-path="url(#pf7a5cb20e3)" style="fill: none; stroke: #1f77b4; stroke-width: 1.5; stroke-linecap: square"/>
   </g>
   <g id="line2d_17">
    <path d="M 140.378182 430.843558 
L 180.093333 431.693071 
L 219.808485 401.458782 
L 259.523636 384.808604 
L 299.238788 340.173943 
L 338.953939 306.903714 
L 378.669091 314.558372 
L 418.384242 298.9911 
L 458.099394 290.621753 
L 497.814545 293.675283 
L 537.529697 265.687961 
L 577.244848 254.145948 
L 616.96 255.418735 
L 656.675152 213.435421 
L 696.390303 202.574069 
L 736.105455 198.097308 
L 775.820606 173.102032 
L 815.535758 140.278568 
L 855.250909 183.711451 
L 894.966061 104.744134 
L 934.681212 88.979208 
L 974.396364 105.164941 
L 1014.111515 163.023368 
L 1053.826667 203.571259 
L 1093.541818 172.443206 
" clip-path="url(#pf7a5cb20e3)" style="fill: none; stroke: #ff7f0e; stroke-width: 1.5; stroke-linecap: square"/>
   </g>
   <g id="line2d_18">
    <path d="M 140.378182 437.902708 
L 180.093333 434.386542 
L 219.808485 435.130012 
L 259.523636 421.543542 
L 299.238788 404.290266 
L 338.953939 398.339205 
L 378.669091 379.048475 
L 418.384242 363.219675 
L 458.099394 355.867202 
L 497.814545 355.930714 
L 537.529697 342.724947 
L 577.244848 333.715901 
L 616.96 334.121506 
L 656.675152 324.663983 
L 696.390303 294.588543 
L 736.105455 266.451548 
L 775.820606 255.826785 
L 815.535758 244.933547 
L 855.250909 263.300183 
L 894.966061 280.617952 
L 934.681212 288.112962 
L 974.396364 291.606387 
L 1014.111515 290.529364 
L 1053.826667 293.646558 
L 1093.541818 294.781961 
" clip-path="url(#pf7a5cb20e3)" style="fill: none; stroke: #2ca02c; stroke-width: 1.5; stroke-linecap: square"/>
   </g>
   <g id="line2d_19">
    <path d="M 140.378182 417.541744 
L 180.093333 411.207098 
L 219.808485 385.43748 
L 259.523636 372.714215 
L 299.238788 343.961693 
L 338.953939 310.740003 
L 378.669091 288.803412 
L 418.384242 266.418915 
L 458.099394 255.764845 
L 497.814545 247.809585 
L 537.529697 233.188064 
L 577.244848 246.620084 
L 616.96 226.661392 
L 656.675152 200.904934 
L 696.390303 174.260293 
L 736.105455 178.638377 
L 775.820606 179.508073 
L 815.535758 159.405233 
L 855.250909 160.73241 
L 894.966061 135.416671 
L 934.681212 106.924902 
L 974.396364 151.245738 
L 1014.111515 179.889547 
L 1053.826667 178.73544 
L 1093.541818 169.909937 
" clip-path="url(#pf7a5cb20e3)" style="fill: none; stroke: #d62728; stroke-width: 1.5; stroke-linecap: square"/>
   </g>
   <g id="line2d_20">
    <path d="M 140.378182 460.244622 
L 180.093333 451.568617 
L 219.808485 431.775852 
L 259.523636 413.158215 
L 299.238788 387.707444 
L 338.953939 352.216072 
L 378.669091 326.787333 
L 418.384242 318.776217 
L 458.099394 304.528827 
L 497.814545 275.024826 
L 537.529697 310.381182 
L 577.244848 289.009544 
L 616.96 272.793649 
L 656.675152 222.126503 
L 696.390303 210.33417 
L 736.105455 181.68439 
L 775.820606 158.219739 
L 815.535758 132.45363 
L 855.250909 137.832089 
L 894.966061 167.506676 
L 934.681212 144.508927 
L 974.396364 191.998859 
L 1014.111515 191.875086 
L 1053.826667 212.928274 
L 1093.541818 198.120581 
" clip-path="url(#pf7a5cb20e3)" style="fill: none; stroke: #9467bd; stroke-width: 1.5; stroke-linecap: square"/>
   </g>
   <g id="line2d_21">
    <path d="M 140.378182 433.579791 
L 180.093333 428.497239 
L 219.808485 415.928459 
L 259.523636 403.529011 
L 299.238788 379.029916 
L 338.953939 362.899182 
L 378.669091 336.720878 
L 418.384242 329.293028 
L 458.099394 312.852277 
L 497.814545 306.266394 
L 537.529697 309.082513 
L 577.244848 299.653469 
L 616.96 291.356107 
L 656.675152 278.931861 
L 696.390303 279.71587 
L 736.105455 275.691835 
L 775.820606 259.654668 
L 815.535758 276.19796 
L 855.250909 272.890091 
L 894.966061 274.311902 
L 934.681212 283.655227 
L 974.396364 287.55641 
L 1014.111515 285.186045 
L 1053.826667 283.402107 
L 1093.541818 288.413499 
" clip-path="url(#pf7a5cb20e3)" style="fill: none; stroke: #8c564b; stroke-width: 1.5; stroke-linecap: square"/>
   </g>
   <g id="line2d_22">
    <path d="M 140.378182 430.68474 
L 180.093333 423.47956 
L 219.808485 409.308991 
L 259.523636 404.068014 
L 299.238788 384.730068 
L 338.953939 372.573418 
L 378.669091 350.125572 
L 418.384242 335.393593 
L 458.099394 314.34375 
L 497.814545 312.687467 
L 537.529697 309.124023 
L 577.244848 300.077651 
L 616.96 293.489522 
L 656.675152 251.055092 
L 696.390303 296.648905 
L 736.105455 307.219344 
L 775.820606 277.516685 
L 815.535758 255.592784 
L 855.250909 241.430955 
L 894.966061 269.611503 
L 934.681212 294.042265 
L 974.396364 266.075272 
L 1014.111515 261.336437 
L 1053.826667 299.803639 
L 1093.541818 283.788136 
" clip-path="url(#pf7a5cb20e3)" style="fill: none; stroke: #e377c2; stroke-width: 1.5; stroke-linecap: square"/>
   </g>
   <g id="line2d_23">
    <path d="M 140.378182 438.035495 
L 180.093333 434.30287 
L 219.808485 432.643681 
L 259.523636 420.934392 
L 299.238788 402.75241 
L 338.953939 397.844249 
L 378.669091 380.213032 
L 418.384242 364.836017 
L 458.099394 357.99662 
L 497.814545 359.076765 
L 537.529697 346.021716 
L 577.244848 337.159426 
L 616.96 335.087174 
L 656.675152 327.825069 
L 696.390303 296.584121 
L 736.105455 271.449811 
L 775.820606 259.189113 
L 815.535758 251.248615 
L 855.250909 264.968592 
L 894.966061 281.478031 
L 934.681212 289.099749 
L 974.396364 294.995622 
L 1014.111515 293.188506 
L 1053.826667 297.779237 
L 1093.541818 299.091017 
" clip-path="url(#pf7a5cb20e3)" style="fill: none; stroke: #7f7f7f; stroke-width: 1.5; stroke-linecap: square"/>
   </g>
   <g id="line2d_24"/>
   <g id="line2d_25"/>
   <g id="line2d_26"/>
   <g id="line2d_27"/>
   <g id="line2d_28"/>
   <g id="line2d_29"/>
   <g id="line2d_30"/>
   <g id="line2d_31"/>
   <g id="patch_3">
    <path d="M 92.72 489.832 
L 92.72 12.680925 
" style="fill: none; stroke: #000000; stroke-width: 0.8; stroke-linejoin: miter; stroke-linecap: square"/>
   </g>
   <g id="patch_4">
    <path d="M 1141.2 489.832 
L 1141.2 12.680925 
" style="fill: none; stroke: #000000; stroke-width: 0.8; stroke-linejoin: miter; stroke-linecap: square"/>
   </g>
   <g id="patch_5">
    <path d="M 92.72 489.832 
L 1141.2 489.832 
" style="fill: none; stroke: #000000; stroke-width: 0.8; stroke-linejoin: miter; stroke-linecap: square"/>
   </g>
   <g id="patch_6">
    <path d="M 92.72 12.680925 
L 1141.2 12.680925 
" style="fill: none; stroke: #000000; stroke-width: 0.8; stroke-linejoin: miter; stroke-linecap: square"/>
   </g>
   <g id="legend_1">
    <g id="patch_7">
     <path d="M 103.92 481.832 
L 300.1575 481.832 
Q 303.3575 481.832 303.3575 478.632 
L 303.3575 290.572 
Q 303.3575 287.372 300.1575 287.372 
L 103.92 287.372 
Q 100.72 287.372 100.72 290.572 
L 100.72 478.632 
Q 100.72 481.832 103.92 481.832 
z
" style="fill: #ffffff; opacity: 0.8; stroke: #cccccc; stroke-linejoin: miter"/>
    </g>
    <g id="line2d_32">
     <path d="M 107.12 300.3295 
L 123.12 300.3295 
L 139.12 300.3295 
" style="fill: none; stroke: #1f77b4; stroke-width: 1.5; stroke-linecap: square"/>
    </g>
    <g id="text_18">
     <!-- gbr -->
     <g transform="translate(151.92 305.9295) scale(0.16 -0.16)">
      <defs>
       <path id="DejaVuSans-62" d="M 3116 1747 
Q 3116 2381 2855 2742 
Q 2594 3103 2138 3103 
Q 1681 3103 1420 2742 
Q 1159 2381 1159 1747 
Q 1159 1113 1420 752 
Q 1681 391 2138 391 
Q 2594 391 2855 752 
Q 3116 1113 3116 1747 
z
M 1159 2969 
Q 1341 3281 1617 3432 
Q 1894 3584 2278 3584 
Q 2916 3584 3314 3078 
Q 3713 2572 3713 1747 
Q 3713 922 3314 415 
Q 2916 -91 2278 -91 
Q 1894 -91 1617 61 
Q 1341 213 1159 525 
L 1159 0 
L 581 0 
L 581 4863 
L 1159 4863 
L 1159 2969 
z
" transform="scale(0.015625)"/>
      </defs>
      <use xlink:href="#DejaVuSans-67"/>
      <use xlink:href="#DejaVuSans-62" x="63.476562"/>
      <use xlink:href="#DejaVuSans-72" x="126.953125"/>
     </g>
    </g>
    <g id="line2d_33">
     <path d="M 107.12 323.8145 
L 123.12 323.8145 
L 139.12 323.8145 
" style="fill: none; stroke: #ff7f0e; stroke-width: 1.5; stroke-linecap: square"/>
    </g>
    <g id="text_19">
     <!-- xgb -->
     <g transform="translate(151.92 329.4145) scale(0.16 -0.16)">
      <defs>
       <path id="DejaVuSans-78" d="M 3513 3500 
L 2247 1797 
L 3578 0 
L 2900 0 
L 1881 1375 
L 863 0 
L 184 0 
L 1544 1831 
L 300 3500 
L 978 3500 
L 1906 2253 
L 2834 3500 
L 3513 3500 
z
" transform="scale(0.015625)"/>
      </defs>
      <use xlink:href="#DejaVuSans-78"/>
      <use xlink:href="#DejaVuSans-67" x="59.179688"/>
      <use xlink:href="#DejaVuSans-62" x="122.65625"/>
     </g>
    </g>
    <g id="line2d_34">
     <path d="M 107.12 347.2995 
L 123.12 347.2995 
L 139.12 347.2995 
" style="fill: none; stroke: #2ca02c; stroke-width: 1.5; stroke-linecap: square"/>
    </g>
    <g id="text_20">
     <!-- BayesianRidge -->
     <g transform="translate(151.92 352.8995) scale(0.16 -0.16)">
      <defs>
       <path id="DejaVuSans-42" d="M 1259 2228 
L 1259 519 
L 2272 519 
Q 2781 519 3026 730 
Q 3272 941 3272 1375 
Q 3272 1813 3026 2020 
Q 2781 2228 2272 2228 
L 1259 2228 
z
M 1259 4147 
L 1259 2741 
L 2194 2741 
Q 2656 2741 2882 2914 
Q 3109 3088 3109 3444 
Q 3109 3797 2882 3972 
Q 2656 4147 2194 4147 
L 1259 4147 
z
M 628 4666 
L 2241 4666 
Q 2963 4666 3353 4366 
Q 3744 4066 3744 3513 
Q 3744 3084 3544 2831 
Q 3344 2578 2956 2516 
Q 3422 2416 3680 2098 
Q 3938 1781 3938 1306 
Q 3938 681 3513 340 
Q 3088 0 2303 0 
L 628 0 
L 628 4666 
z
" transform="scale(0.015625)"/>
       <path id="DejaVuSans-79" d="M 2059 -325 
Q 1816 -950 1584 -1140 
Q 1353 -1331 966 -1331 
L 506 -1331 
L 506 -850 
L 844 -850 
Q 1081 -850 1212 -737 
Q 1344 -625 1503 -206 
L 1606 56 
L 191 3500 
L 800 3500 
L 1894 763 
L 2988 3500 
L 3597 3500 
L 2059 -325 
z
" transform="scale(0.015625)"/>
       <path id="DejaVuSans-52" d="M 2841 2188 
Q 3044 2119 3236 1894 
Q 3428 1669 3622 1275 
L 4263 0 
L 3584 0 
L 2988 1197 
Q 2756 1666 2539 1819 
Q 2322 1972 1947 1972 
L 1259 1972 
L 1259 0 
L 628 0 
L 628 4666 
L 2053 4666 
Q 2853 4666 3247 4331 
Q 3641 3997 3641 3322 
Q 3641 2881 3436 2590 
Q 3231 2300 2841 2188 
z
M 1259 4147 
L 1259 2491 
L 2053 2491 
Q 2509 2491 2742 2702 
Q 2975 2913 2975 3322 
Q 2975 3731 2742 3939 
Q 2509 4147 2053 4147 
L 1259 4147 
z
" transform="scale(0.015625)"/>
      </defs>
      <use xlink:href="#DejaVuSans-42"/>
      <use xlink:href="#DejaVuSans-61" x="68.603516"/>
      <use xlink:href="#DejaVuSans-79" x="129.882812"/>
      <use xlink:href="#DejaVuSans-65" x="189.0625"/>
      <use xlink:href="#DejaVuSans-73" x="250.585938"/>
      <use xlink:href="#DejaVuSans-69" x="302.685547"/>
      <use xlink:href="#DejaVuSans-61" x="330.46875"/>
      <use xlink:href="#DejaVuSans-6e" x="391.748047"/>
      <use xlink:href="#DejaVuSans-52" x="455.126953"/>
      <use xlink:href="#DejaVuSans-69" x="524.609375"/>
      <use xlink:href="#DejaVuSans-64" x="552.392578"/>
      <use xlink:href="#DejaVuSans-67" x="615.869141"/>
      <use xlink:href="#DejaVuSans-65" x="679.345703"/>
     </g>
    </g>
    <g id="line2d_35">
     <path d="M 107.12 370.7845 
L 123.12 370.7845 
L 139.12 370.7845 
" style="fill: none; stroke: #d62728; stroke-width: 1.5; stroke-linecap: square"/>
    </g>
    <g id="text_21">
     <!-- rf -->
     <g transform="translate(151.92 376.3845) scale(0.16 -0.16)">
      <defs>
       <path id="DejaVuSans-66" d="M 2375 4863 
L 2375 4384 
L 1825 4384 
Q 1516 4384 1395 4259 
Q 1275 4134 1275 3809 
L 1275 3500 
L 2222 3500 
L 2222 3053 
L 1275 3053 
L 1275 0 
L 697 0 
L 697 3053 
L 147 3053 
L 147 3500 
L 697 3500 
L 697 3744 
Q 697 4328 969 4595 
Q 1241 4863 1831 4863 
L 2375 4863 
z
" transform="scale(0.015625)"/>
      </defs>
      <use xlink:href="#DejaVuSans-72"/>
      <use xlink:href="#DejaVuSans-66" x="41.113281"/>
     </g>
    </g>
    <g id="line2d_36">
     <path d="M 107.12 394.2695 
L 123.12 394.2695 
L 139.12 394.2695 
" style="fill: none; stroke: #9467bd; stroke-width: 1.5; stroke-linecap: square"/>
    </g>
    <g id="text_22">
     <!-- xgb_gs -->
     <g transform="translate(151.92 399.8695) scale(0.16 -0.16)">
      <use xlink:href="#DejaVuSans-78"/>
      <use xlink:href="#DejaVuSans-67" x="59.179688"/>
      <use xlink:href="#DejaVuSans-62" x="122.65625"/>
      <use xlink:href="#DejaVuSans-5f" x="186.132812"/>
      <use xlink:href="#DejaVuSans-67" x="236.132812"/>
      <use xlink:href="#DejaVuSans-73" x="299.609375"/>
     </g>
    </g>
    <g id="line2d_37">
     <path d="M 107.12 418.1995 
L 123.12 418.1995 
L 139.12 418.1995 
" style="fill: none; stroke: #8c564b; stroke-width: 1.5; stroke-linecap: square"/>
    </g>
    <g id="text_23">
     <!-- rf_gs -->
     <g transform="translate(151.92 423.7995) scale(0.16 -0.16)">
      <use xlink:href="#DejaVuSans-72"/>
      <use xlink:href="#DejaVuSans-66" x="41.113281"/>
      <use xlink:href="#DejaVuSans-5f" x="76.318359"/>
      <use xlink:href="#DejaVuSans-67" x="126.318359"/>
      <use xlink:href="#DejaVuSans-73" x="189.794922"/>
     </g>
    </g>
    <g id="line2d_38">
     <path d="M 107.12 442.1295 
L 123.12 442.1295 
L 139.12 442.1295 
" style="fill: none; stroke: #e377c2; stroke-width: 1.5; stroke-linecap: square"/>
    </g>
    <g id="text_24">
     <!-- gbr_gs -->
     <g transform="translate(151.92 447.7295) scale(0.16 -0.16)">
      <use xlink:href="#DejaVuSans-67"/>
      <use xlink:href="#DejaVuSans-62" x="63.476562"/>
      <use xlink:href="#DejaVuSans-72" x="126.953125"/>
      <use xlink:href="#DejaVuSans-5f" x="168.066406"/>
      <use xlink:href="#DejaVuSans-67" x="218.066406"/>
      <use xlink:href="#DejaVuSans-73" x="281.542969"/>
     </g>
    </g>
    <g id="line2d_39">
     <path d="M 107.12 466.0595 
L 123.12 466.0595 
L 139.12 466.0595 
" style="fill: none; stroke: #7f7f7f; stroke-width: 1.5; stroke-linecap: square"/>
    </g>
    <g id="text_25">
     <!-- BayesianRidge_gs -->
     <g transform="translate(151.92 471.6595) scale(0.16 -0.16)">
      <use xlink:href="#DejaVuSans-42"/>
      <use xlink:href="#DejaVuSans-61" x="68.603516"/>
      <use xlink:href="#DejaVuSans-79" x="129.882812"/>
      <use xlink:href="#DejaVuSans-65" x="189.0625"/>
      <use xlink:href="#DejaVuSans-73" x="250.585938"/>
      <use xlink:href="#DejaVuSans-69" x="302.685547"/>
      <use xlink:href="#DejaVuSans-61" x="330.46875"/>
      <use xlink:href="#DejaVuSans-6e" x="391.748047"/>
      <use xlink:href="#DejaVuSans-52" x="455.126953"/>
      <use xlink:href="#DejaVuSans-69" x="524.609375"/>
      <use xlink:href="#DejaVuSans-64" x="552.392578"/>
      <use xlink:href="#DejaVuSans-67" x="615.869141"/>
      <use xlink:href="#DejaVuSans-65" x="679.345703"/>
      <use xlink:href="#DejaVuSans-5f" x="740.869141"/>
      <use xlink:href="#DejaVuSans-67" x="790.869141"/>
      <use xlink:href="#DejaVuSans-73" x="854.345703"/>
     </g>
    </g>
   </g>
  </g>
 </g>
 <defs>
  <clipPath id="pf7a5cb20e3">
   <rect x="92.72" y="12.680925" width="1048.48" height="477.151075"/>
  </clipPath>
 </defs>
</svg>
