<?xml version="1.0" encoding="utf-8" standalone="no"?>
<!DOCTYPE svg PUBLIC "-//W3C//DTD SVG 1.1//EN"
  "http://www.w3.org/Graphics/SVG/1.1/DTD/svg11.dtd">
<svg xmlns:xlink="http://www.w3.org/1999/xlink" width="1152pt" height="576pt" viewBox="0 0 1152 576" xmlns="http://www.w3.org/2000/svg" version="1.1">
 <metadata>
  <rdf:RDF xmlns:dc="http://purl.org/dc/elements/1.1/" xmlns:cc="http://creativecommons.org/ns#" xmlns:rdf="http://www.w3.org/1999/02/22-rdf-syntax-ns#">
   <cc:Work>
    <dc:type rdf:resource="http://purl.org/dc/dcmitype/StillImage"/>
    <dc:date>2025-04-21T13:10:09.920979</dc:date>
    <dc:format>image/svg+xml</dc:format>
    <dc:creator>
     <cc:Agent>
      <dc:title>Matplotlib v3.7.1, https://matplotlib.org/</dc:title>
     </cc:Agent>
    </dc:creator>
   </cc:Work>
  </rdf:RDF>
 </metadata>
 <defs>
  <style type="text/css">*{stroke-linejoin: round; stroke-linecap: butt}</style>
 </defs>
 <g id="figure_1">
  <g id="patch_1">
   <path d="M 0 576 
L 1152 576 
L 1152 0 
L 0 0 
z
" style="fill: #ffffff"/>
  </g>
  <g id="axes_1">
   <g id="patch_2">
    <path d="M 99.11 489.832 
L 1141.2 489.832 
L 1141.2 10.8 
L 99.11 10.8 
z
" style="fill: #ffffff"/>
   </g>
   <g id="PolyCollection_1">
    <defs>
     <path id="m9de81b5644" d="M 146.477727 -219.341738 
L 146.477727 -164.557931 
L 202.204465 -115.234667 
L 257.931203 -133.430936 
L 313.657941 -155.959509 
L 369.384679 -148.883649 
L 425.111417 -121.760023 
L 480.838155 -129.800211 
L 536.564893 -137.333127 
L 592.291631 -180.041774 
L 648.018369 -144.97034 
L 703.745107 -166.991032 
L 759.471845 -172.325412 
L 815.198583 -164.395332 
L 870.925321 -154.531168 
L 926.652059 -158.321329 
L 982.378797 -150.160175 
L 1038.105535 -140.640819 
L 1093.832273 -123.071083 
L 1093.832273 -217.081557 
L 1093.832273 -217.081557 
L 1038.105535 -204.877874 
L 982.378797 -221.856502 
L 926.652059 -212.095194 
L 870.925321 -192.2555 
L 815.198583 -203.343019 
L 759.471845 -238.885853 
L 703.745107 -235.672949 
L 648.018369 -223.655582 
L 592.291631 -240.304104 
L 536.564893 -186.63817 
L 480.838155 -182.39761 
L 425.111417 -151.598731 
L 369.384679 -214.281649 
L 313.657941 -187.598115 
L 257.931203 -170.634273 
L 202.204465 -194.2629 
L 146.477727 -219.341738 
z
" style="stroke: #1f77b4; stroke-opacity: 0.2"/>
    </defs>
    <g clip-path="url(#p06f76f8048)">
     <use xlink:href="#m9de81b5644" x="0" y="576" style="fill: #1f77b4; fill-opacity: 0.2; stroke: #1f77b4; stroke-opacity: 0.2"/>
    </g>
   </g>
   <g id="PolyCollection_2">
    <defs>
     <path id="mfba24e3415" d="M 146.477727 -297.629804 
L 146.477727 -210.29823 
L 202.204465 -211.781867 
L 257.931203 -181.566025 
L 313.657941 -228.153263 
L 369.384679 -189.981291 
L 425.111417 -199.65137 
L 480.838155 -190.279572 
L 536.564893 -212.549194 
L 592.291631 -230.271004 
L 648.018369 -228.992207 
L 703.745107 -219.30451 
L 759.471845 -238.22188 
L 815.198583 -215.031034 
L 870.925321 -200.79882 
L 926.652059 -215.414374 
L 982.378797 -208.601547 
L 1038.105535 -208.219076 
L 1093.832273 -237.21115 
L 1093.832273 -302.499814 
L 1093.832273 -302.499814 
L 1038.105535 -272.438036 
L 982.378797 -246.481674 
L 926.652059 -255.53589 
L 870.925321 -250.718022 
L 815.198583 -287.986318 
L 759.471845 -299.739162 
L 703.745107 -289.556473 
L 648.018369 -290.600433 
L 592.291631 -294.945847 
L 536.564893 -247.50203 
L 480.838155 -249.476789 
L 425.111417 -222.035385 
L 369.384679 -234.472758 
L 313.657941 -280.960279 
L 257.931203 -242.946023 
L 202.204465 -251.514205 
L 146.477727 -297.629804 
z
" style="stroke: #ff7f0e; stroke-opacity: 0.2"/>
    </defs>
    <g clip-path="url(#p06f76f8048)">
     <use xlink:href="#mfba24e3415" x="0" y="576" style="fill: #ff7f0e; fill-opacity: 0.2; stroke: #ff7f0e; stroke-opacity: 0.2"/>
    </g>
   </g>
   <g id="PolyCollection_3">
    <defs>
     <path id="m63c9410c40" d="M 146.477727 -208.522599 
L 146.477727 -168.4592 
L 202.204465 -113.778244 
L 257.931203 -136.992847 
L 313.657941 -112.564554 
L 369.384679 -166.379793 
L 425.111417 -132.848807 
L 480.838155 -142.480702 
L 536.564893 -180.386834 
L 592.291631 -139.013222 
L 648.018369 -170.498589 
L 703.745107 -174.091352 
L 759.471845 -164.145306 
L 815.198583 -190.876241 
L 870.925321 -183.663928 
L 926.652059 -221.988269 
L 982.378797 -179.070344 
L 1038.105535 -148.190784 
L 1093.832273 -189.555388 
L 1093.832273 -257.69039 
L 1093.832273 -257.69039 
L 1038.105535 -248.735707 
L 982.378797 -239.32996 
L 926.652059 -295.496339 
L 870.925321 -228.618874 
L 815.198583 -242.098714 
L 759.471845 -259.324037 
L 703.745107 -234.034928 
L 648.018369 -239.17205 
L 592.291631 -216.296454 
L 536.564893 -197.462411 
L 480.838155 -190.534002 
L 425.111417 -207.920482 
L 369.384679 -212.900682 
L 313.657941 -178.590837 
L 257.931203 -180.079918 
L 202.204465 -184.949833 
L 146.477727 -208.522599 
z
" style="stroke: #2ca02c; stroke-opacity: 0.2"/>
    </defs>
    <g clip-path="url(#p06f76f8048)">
     <use xlink:href="#m63c9410c40" x="0" y="576" style="fill: #2ca02c; fill-opacity: 0.2; stroke: #2ca02c; stroke-opacity: 0.2"/>
    </g>
   </g>
   <g id="PolyCollection_4">
    <defs>
     <path id="m6461d154b9" d="M 146.477727 -523.626279 
L 146.477727 -417.421136 
L 202.204465 -390.094969 
L 257.931203 -397.50004 
L 313.657941 -431.145399 
L 369.384679 -392.47554 
L 425.111417 -395.051575 
L 480.838155 -373.97889 
L 536.564893 -429.51146 
L 592.291631 -428.354011 
L 648.018369 -402.269234 
L 703.745107 -421.393587 
L 759.471845 -411.906552 
L 815.198583 -409.599268 
L 870.925321 -403.79261 
L 926.652059 -417.709134 
L 982.378797 -400.666403 
L 1038.105535 -398.000965 
L 1093.832273 -431.652655 
L 1093.832273 -498.666188 
L 1093.832273 -498.666188 
L 1038.105535 -481.128043 
L 982.378797 -498.5461 
L 926.652059 -478.655324 
L 870.925321 -456.647426 
L 815.198583 -513.709013 
L 759.471845 -513.458058 
L 703.745107 -482.163205 
L 648.018369 -497.217536 
L 592.291631 -510.761388 
L 536.564893 -522.569122 
L 480.838155 -514.788193 
L 425.111417 -540.419418 
L 369.384679 -519.79785 
L 313.657941 -488.637009 
L 257.931203 -434.472312 
L 202.204465 -442.931532 
L 146.477727 -523.626279 
z
" style="stroke: #d62728; stroke-opacity: 0.2"/>
    </defs>
    <g clip-path="url(#p06f76f8048)">
     <use xlink:href="#m6461d154b9" x="0" y="576" style="fill: #d62728; fill-opacity: 0.2; stroke: #d62728; stroke-opacity: 0.2"/>
    </g>
   </g>
   <g id="PolyCollection_5">
    <defs>
     <path id="mf45d1c6087" d="M 146.477727 -211.96268 
L 146.477727 -149.261693 
L 202.204465 -119.371657 
L 257.931203 -128.365014 
L 313.657941 -135.427189 
L 369.384679 -135.291217 
L 425.111417 -119.020201 
L 480.838155 -140.874299 
L 536.564893 -120.272261 
L 592.291631 -150.795804 
L 648.018369 -167.935991 
L 703.745107 -145.242335 
L 759.471845 -168.160552 
L 815.198583 -153.727135 
L 870.925321 -156.575871 
L 926.652059 -155.469875 
L 982.378797 -137.531029 
L 1038.105535 -138.371564 
L 1093.832273 -145.152559 
L 1093.832273 -195.737267 
L 1093.832273 -195.737267 
L 1038.105535 -182.378188 
L 982.378797 -188.586706 
L 926.652059 -187.518095 
L 870.925321 -200.906735 
L 815.198583 -216.742237 
L 759.471845 -211.761228 
L 703.745107 -188.393236 
L 648.018369 -181.965365 
L 592.291631 -219.530361 
L 536.564893 -155.593348 
L 480.838155 -164.646688 
L 425.111417 -160.33905 
L 369.384679 -182.43123 
L 313.657941 -161.802955 
L 257.931203 -177.130721 
L 202.204465 -159.924596 
L 146.477727 -211.96268 
z
" style="stroke: #9467bd; stroke-opacity: 0.2"/>
    </defs>
    <g clip-path="url(#p06f76f8048)">
     <use xlink:href="#mf45d1c6087" x="0" y="576" style="fill: #9467bd; fill-opacity: 0.2; stroke: #9467bd; stroke-opacity: 0.2"/>
    </g>
   </g>
   <g id="PolyCollection_6">
    <defs>
     <path id="m2b0752777c" d="M 146.477727 -284.889317 
L 146.477727 -192.035078 
L 202.204465 -201.824391 
L 257.931203 -163.819323 
L 313.657941 -219.183531 
L 369.384679 -184.403701 
L 425.111417 -193.672074 
L 480.838155 -180.108511 
L 536.564893 -208.023482 
L 592.291631 -225.020344 
L 648.018369 -222.192002 
L 703.745107 -216.172614 
L 759.471845 -235.630186 
L 815.198583 -209.005697 
L 870.925321 -183.212151 
L 926.652059 -196.881026 
L 982.378797 -184.174336 
L 1038.105535 -202.505449 
L 1093.832273 -225.544393 
L 1093.832273 -301.745699 
L 1093.832273 -301.745699 
L 1038.105535 -264.372233 
L 982.378797 -234.62964 
L 926.652059 -254.563541 
L 870.925321 -244.400237 
L 815.198583 -279.28889 
L 759.471845 -306.069355 
L 703.745107 -276.832668 
L 648.018369 -286.078268 
L 592.291631 -288.818061 
L 536.564893 -226.98061 
L 480.838155 -230.392203 
L 425.111417 -218.860622 
L 369.384679 -223.940602 
L 313.657941 -269.856454 
L 257.931203 -231.536902 
L 202.204465 -241.909698 
L 146.477727 -284.889317 
z
" style="stroke: #8c564b; stroke-opacity: 0.2"/>
    </defs>
    <g clip-path="url(#p06f76f8048)">
     <use xlink:href="#m2b0752777c" x="0" y="576" style="fill: #8c564b; fill-opacity: 0.2; stroke: #8c564b; stroke-opacity: 0.2"/>
    </g>
   </g>
   <g id="PolyCollection_7">
    <defs>
     <path id="m2d1814e2bf" d="M 146.477727 -217.410298 
L 146.477727 -149.603671 
L 202.204465 -119.031701 
L 257.931203 -108.012865 
L 313.657941 -151.058904 
L 369.384679 -112.722062 
L 425.111417 -107.942182 
L 480.838155 -127.653225 
L 536.564893 -144.044777 
L 592.291631 -149.262168 
L 648.018369 -145.791218 
L 703.745107 -184.071458 
L 759.471845 -145.364411 
L 815.198583 -156.51785 
L 870.925321 -146.999687 
L 926.652059 -122.10423 
L 982.378797 -115.990038 
L 1038.105535 -112.451977 
L 1093.832273 -131.700072 
L 1093.832273 -213.172209 
L 1093.832273 -213.172209 
L 1038.105535 -153.464362 
L 982.378797 -189.128737 
L 926.652059 -185.852901 
L 870.925321 -194.358191 
L 815.198583 -217.910325 
L 759.471845 -192.936645 
L 703.745107 -212.560303 
L 648.018369 -220.108617 
L 592.291631 -226.446962 
L 536.564893 -193.168878 
L 480.838155 -172.127477 
L 425.111417 -142.336171 
L 369.384679 -205.436141 
L 313.657941 -178.453661 
L 257.931203 -158.513112 
L 202.204465 -167.585749 
L 146.477727 -217.410298 
z
" style="stroke: #e377c2; stroke-opacity: 0.2"/>
    </defs>
    <g clip-path="url(#p06f76f8048)">
     <use xlink:href="#m2d1814e2bf" x="0" y="576" style="fill: #e377c2; fill-opacity: 0.2; stroke: #e377c2; stroke-opacity: 0.2"/>
    </g>
   </g>
   <g id="PolyCollection_8">
    <defs>
     <path id="m2185a98087" d="M 146.477727 -516.157305 
L 146.477727 -415.251426 
L 202.204465 -387.271843 
L 257.931203 -394.673321 
L 313.657941 -430.69594 
L 369.384679 -390.525905 
L 425.111417 -393.272206 
L 480.838155 -375.83892 
L 536.564893 -426.27785 
L 592.291631 -426.271378 
L 648.018369 -404.137687 
L 703.745107 -420.517507 
L 759.471845 -411.012609 
L 815.198583 -407.098613 
L 870.925321 -401.320472 
L 926.652059 -412.904648 
L 982.378797 -401.643185 
L 1038.105535 -392.190789 
L 1093.832273 -425.168202 
L 1093.832273 -497.000545 
L 1093.832273 -497.000545 
L 1038.105535 -479.15829 
L 982.378797 -490.588228 
L 926.652059 -475.134759 
L 870.925321 -454.114259 
L 815.198583 -508.596586 
L 759.471845 -504.761184 
L 703.745107 -482.816038 
L 648.018369 -503.330305 
L 592.291631 -508.670404 
L 536.564893 -525.431721 
L 480.838155 -510.378997 
L 425.111417 -543.425818 
L 369.384679 -527.674523 
L 313.657941 -487.333359 
L 257.931203 -435.113588 
L 202.204465 -441.914671 
L 146.477727 -516.157305 
z
" style="stroke: #7f7f7f; stroke-opacity: 0.2"/>
    </defs>
    <g clip-path="url(#p06f76f8048)">
     <use xlink:href="#m2185a98087" x="0" y="576" style="fill: #7f7f7f; fill-opacity: 0.2; stroke: #7f7f7f; stroke-opacity: 0.2"/>
    </g>
   </g>
   <g id="matplotlib.axis_1">
    <g id="xtick_1">
     <g id="line2d_1">
      <defs>
       <path id="m1973957839" d="M 0 0 
L 0 3.5 
" style="stroke: #000000; stroke-width: 0.8"/>
      </defs>
      <g>
       <use xlink:href="#m1973957839" x="118.614358" y="489.832" style="stroke: #000000; stroke-width: 0.8"/>
      </g>
     </g>
     <g id="text_1">
      <!-- 0 -->
      <g transform="translate(112.251858 512.028875) scale(0.2 -0.2)">
       <defs>
        <path id="DejaVuSans-30" d="M 2034 4250 
Q 1547 4250 1301 3770 
Q 1056 3291 1056 2328 
Q 1056 1369 1301 889 
Q 1547 409 2034 409 
Q 2525 409 2770 889 
Q 3016 1369 3016 2328 
Q 3016 3291 2770 3770 
Q 2525 4250 2034 4250 
z
M 2034 4750 
Q 2819 4750 3233 4129 
Q 3647 3509 3647 2328 
Q 3647 1150 3233 529 
Q 2819 -91 2034 -91 
Q 1250 -91 836 529 
Q 422 1150 422 2328 
Q 422 3509 836 4129 
Q 1250 4750 2034 4750 
z
" transform="scale(0.015625)"/>
       </defs>
       <use xlink:href="#DejaVuSans-30"/>
      </g>
     </g>
    </g>
    <g id="xtick_2">
     <g id="line2d_2">
      <g>
       <use xlink:href="#m1973957839" x="257.931203" y="489.832" style="stroke: #000000; stroke-width: 0.8"/>
      </g>
     </g>
     <g id="text_2">
      <!-- 5 -->
      <g transform="translate(251.568703 512.028875) scale(0.2 -0.2)">
       <defs>
        <path id="DejaVuSans-35" d="M 691 4666 
L 3169 4666 
L 3169 4134 
L 1269 4134 
L 1269 2991 
Q 1406 3038 1543 3061 
Q 1681 3084 1819 3084 
Q 2600 3084 3056 2656 
Q 3513 2228 3513 1497 
Q 3513 744 3044 326 
Q 2575 -91 1722 -91 
Q 1428 -91 1123 -41 
Q 819 9 494 109 
L 494 744 
Q 775 591 1075 516 
Q 1375 441 1709 441 
Q 2250 441 2565 725 
Q 2881 1009 2881 1497 
Q 2881 1984 2565 2268 
Q 2250 2553 1709 2553 
Q 1456 2553 1204 2497 
Q 953 2441 691 2322 
L 691 4666 
z
" transform="scale(0.015625)"/>
       </defs>
       <use xlink:href="#DejaVuSans-35"/>
      </g>
     </g>
    </g>
    <g id="xtick_3">
     <g id="line2d_3">
      <g>
       <use xlink:href="#m1973957839" x="397.248048" y="489.832" style="stroke: #000000; stroke-width: 0.8"/>
      </g>
     </g>
     <g id="text_3">
      <!-- 10 -->
      <g transform="translate(384.523048 512.028875) scale(0.2 -0.2)">
       <defs>
        <path id="DejaVuSans-31" d="M 794 531 
L 1825 531 
L 1825 4091 
L 703 3866 
L 703 4441 
L 1819 4666 
L 2450 4666 
L 2450 531 
L 3481 531 
L 3481 0 
L 794 0 
L 794 531 
z
" transform="scale(0.015625)"/>
       </defs>
       <use xlink:href="#DejaVuSans-31"/>
       <use xlink:href="#DejaVuSans-30" x="63.623047"/>
      </g>
     </g>
    </g>
    <g id="xtick_4">
     <g id="line2d_4">
      <g>
       <use xlink:href="#m1973957839" x="536.564893" y="489.832" style="stroke: #000000; stroke-width: 0.8"/>
      </g>
     </g>
     <g id="text_4">
      <!-- 15 -->
      <g transform="translate(523.839893 512.028875) scale(0.2 -0.2)">
       <use xlink:href="#DejaVuSans-31"/>
       <use xlink:href="#DejaVuSans-35" x="63.623047"/>
      </g>
     </g>
    </g>
    <g id="xtick_5">
     <g id="line2d_5">
      <g>
       <use xlink:href="#m1973957839" x="675.881738" y="489.832" style="stroke: #000000; stroke-width: 0.8"/>
      </g>
     </g>
     <g id="text_5">
      <!-- 20 -->
      <g transform="translate(663.156738 512.028875) scale(0.2 -0.2)">
       <defs>
        <path id="DejaVuSans-32" d="M 1228 531 
L 3431 531 
L 3431 0 
L 469 0 
L 469 531 
Q 828 903 1448 1529 
Q 2069 2156 2228 2338 
Q 2531 2678 2651 2914 
Q 2772 3150 2772 3378 
Q 2772 3750 2511 3984 
Q 2250 4219 1831 4219 
Q 1534 4219 1204 4116 
Q 875 4013 500 3803 
L 500 4441 
Q 881 4594 1212 4672 
Q 1544 4750 1819 4750 
Q 2544 4750 2975 4387 
Q 3406 4025 3406 3419 
Q 3406 3131 3298 2873 
Q 3191 2616 2906 2266 
Q 2828 2175 2409 1742 
Q 1991 1309 1228 531 
z
" transform="scale(0.015625)"/>
       </defs>
       <use xlink:href="#DejaVuSans-32"/>
       <use xlink:href="#DejaVuSans-30" x="63.623047"/>
      </g>
     </g>
    </g>
    <g id="xtick_6">
     <g id="line2d_6">
      <g>
       <use xlink:href="#m1973957839" x="815.198583" y="489.832" style="stroke: #000000; stroke-width: 0.8"/>
      </g>
     </g>
     <g id="text_6">
      <!-- 25 -->
      <g transform="translate(802.473583 512.028875) scale(0.2 -0.2)">
       <use xlink:href="#DejaVuSans-32"/>
       <use xlink:href="#DejaVuSans-35" x="63.623047"/>
      </g>
     </g>
    </g>
    <g id="xtick_7">
     <g id="line2d_7">
      <g>
       <use xlink:href="#m1973957839" x="954.515428" y="489.832" style="stroke: #000000; stroke-width: 0.8"/>
      </g>
     </g>
     <g id="text_7">
      <!-- 30 -->
      <g transform="translate(941.790428 512.028875) scale(0.2 -0.2)">
       <defs>
        <path id="DejaVuSans-33" d="M 2597 2516 
Q 3050 2419 3304 2112 
Q 3559 1806 3559 1356 
Q 3559 666 3084 287 
Q 2609 -91 1734 -91 
Q 1441 -91 1130 -33 
Q 819 25 488 141 
L 488 750 
Q 750 597 1062 519 
Q 1375 441 1716 441 
Q 2309 441 2620 675 
Q 2931 909 2931 1356 
Q 2931 1769 2642 2001 
Q 2353 2234 1838 2234 
L 1294 2234 
L 1294 2753 
L 1863 2753 
Q 2328 2753 2575 2939 
Q 2822 3125 2822 3475 
Q 2822 3834 2567 4026 
Q 2313 4219 1838 4219 
Q 1578 4219 1281 4162 
Q 984 4106 628 3988 
L 628 4550 
Q 988 4650 1302 4700 
Q 1616 4750 1894 4750 
Q 2613 4750 3031 4423 
Q 3450 4097 3450 3541 
Q 3450 3153 3228 2886 
Q 3006 2619 2597 2516 
z
" transform="scale(0.015625)"/>
       </defs>
       <use xlink:href="#DejaVuSans-33"/>
       <use xlink:href="#DejaVuSans-30" x="63.623047"/>
      </g>
     </g>
    </g>
    <g id="xtick_8">
     <g id="line2d_8">
      <g>
       <use xlink:href="#m1973957839" x="1093.832273" y="489.832" style="stroke: #000000; stroke-width: 0.8"/>
      </g>
     </g>
     <g id="text_8">
      <!-- 35 -->
      <g transform="translate(1081.107273 512.028875) scale(0.2 -0.2)">
       <use xlink:href="#DejaVuSans-33"/>
       <use xlink:href="#DejaVuSans-35" x="63.623047"/>
      </g>
     </g>
    </g>
    <g id="text_9">
     <!-- Percentile Threshold -->
     <g transform="translate(518.375313 535.385125) scale(0.2 -0.2)">
      <defs>
       <path id="DejaVuSans-50" d="M 1259 4147 
L 1259 2394 
L 2053 2394 
Q 2494 2394 2734 2622 
Q 2975 2850 2975 3272 
Q 2975 3691 2734 3919 
Q 2494 4147 2053 4147 
L 1259 4147 
z
M 628 4666 
L 2053 4666 
Q 2838 4666 3239 4311 
Q 3641 3956 3641 3272 
Q 3641 2581 3239 2228 
Q 2838 1875 2053 1875 
L 1259 1875 
L 1259 0 
L 628 0 
L 628 4666 
z
" transform="scale(0.015625)"/>
       <path id="DejaVuSans-65" d="M 3597 1894 
L 3597 1613 
L 953 1613 
Q 991 1019 1311 708 
Q 1631 397 2203 397 
Q 2534 397 2845 478 
Q 3156 559 3463 722 
L 3463 178 
Q 3153 47 2828 -22 
Q 2503 -91 2169 -91 
Q 1331 -91 842 396 
Q 353 884 353 1716 
Q 353 2575 817 3079 
Q 1281 3584 2069 3584 
Q 2775 3584 3186 3129 
Q 3597 2675 3597 1894 
z
M 3022 2063 
Q 3016 2534 2758 2815 
Q 2500 3097 2075 3097 
Q 1594 3097 1305 2825 
Q 1016 2553 972 2059 
L 3022 2063 
z
" transform="scale(0.015625)"/>
       <path id="DejaVuSans-72" d="M 2631 2963 
Q 2534 3019 2420 3045 
Q 2306 3072 2169 3072 
Q 1681 3072 1420 2755 
Q 1159 2438 1159 1844 
L 1159 0 
L 581 0 
L 581 3500 
L 1159 3500 
L 1159 2956 
Q 1341 3275 1631 3429 
Q 1922 3584 2338 3584 
Q 2397 3584 2469 3576 
Q 2541 3569 2628 3553 
L 2631 2963 
z
" transform="scale(0.015625)"/>
       <path id="DejaVuSans-63" d="M 3122 3366 
L 3122 2828 
Q 2878 2963 2633 3030 
Q 2388 3097 2138 3097 
Q 1578 3097 1268 2742 
Q 959 2388 959 1747 
Q 959 1106 1268 751 
Q 1578 397 2138 397 
Q 2388 397 2633 464 
Q 2878 531 3122 666 
L 3122 134 
Q 2881 22 2623 -34 
Q 2366 -91 2075 -91 
Q 1284 -91 818 406 
Q 353 903 353 1747 
Q 353 2603 823 3093 
Q 1294 3584 2113 3584 
Q 2378 3584 2631 3529 
Q 2884 3475 3122 3366 
z
" transform="scale(0.015625)"/>
       <path id="DejaVuSans-6e" d="M 3513 2113 
L 3513 0 
L 2938 0 
L 2938 2094 
Q 2938 2591 2744 2837 
Q 2550 3084 2163 3084 
Q 1697 3084 1428 2787 
Q 1159 2491 1159 1978 
L 1159 0 
L 581 0 
L 581 3500 
L 1159 3500 
L 1159 2956 
Q 1366 3272 1645 3428 
Q 1925 3584 2291 3584 
Q 2894 3584 3203 3211 
Q 3513 2838 3513 2113 
z
" transform="scale(0.015625)"/>
       <path id="DejaVuSans-74" d="M 1172 4494 
L 1172 3500 
L 2356 3500 
L 2356 3053 
L 1172 3053 
L 1172 1153 
Q 1172 725 1289 603 
Q 1406 481 1766 481 
L 2356 481 
L 2356 0 
L 1766 0 
Q 1100 0 847 248 
Q 594 497 594 1153 
L 594 3053 
L 172 3053 
L 172 3500 
L 594 3500 
L 594 4494 
L 1172 4494 
z
" transform="scale(0.015625)"/>
       <path id="DejaVuSans-69" d="M 603 3500 
L 1178 3500 
L 1178 0 
L 603 0 
L 603 3500 
z
M 603 4863 
L 1178 4863 
L 1178 4134 
L 603 4134 
L 603 4863 
z
" transform="scale(0.015625)"/>
       <path id="DejaVuSans-6c" d="M 603 4863 
L 1178 4863 
L 1178 0 
L 603 0 
L 603 4863 
z
" transform="scale(0.015625)"/>
       <path id="DejaVuSans-20" transform="scale(0.015625)"/>
       <path id="DejaVuSans-54" d="M -19 4666 
L 3928 4666 
L 3928 4134 
L 2272 4134 
L 2272 0 
L 1638 0 
L 1638 4134 
L -19 4134 
L -19 4666 
z
" transform="scale(0.015625)"/>
       <path id="DejaVuSans-68" d="M 3513 2113 
L 3513 0 
L 2938 0 
L 2938 2094 
Q 2938 2591 2744 2837 
Q 2550 3084 2163 3084 
Q 1697 3084 1428 2787 
Q 1159 2491 1159 1978 
L 1159 0 
L 581 0 
L 581 4863 
L 1159 4863 
L 1159 2956 
Q 1366 3272 1645 3428 
Q 1925 3584 2291 3584 
Q 2894 3584 3203 3211 
Q 3513 2838 3513 2113 
z
" transform="scale(0.015625)"/>
       <path id="DejaVuSans-73" d="M 2834 3397 
L 2834 2853 
Q 2591 2978 2328 3040 
Q 2066 3103 1784 3103 
Q 1356 3103 1142 2972 
Q 928 2841 928 2578 
Q 928 2378 1081 2264 
Q 1234 2150 1697 2047 
L 1894 2003 
Q 2506 1872 2764 1633 
Q 3022 1394 3022 966 
Q 3022 478 2636 193 
Q 2250 -91 1575 -91 
Q 1294 -91 989 -36 
Q 684 19 347 128 
L 347 722 
Q 666 556 975 473 
Q 1284 391 1588 391 
Q 1994 391 2212 530 
Q 2431 669 2431 922 
Q 2431 1156 2273 1281 
Q 2116 1406 1581 1522 
L 1381 1569 
Q 847 1681 609 1914 
Q 372 2147 372 2553 
Q 372 3047 722 3315 
Q 1072 3584 1716 3584 
Q 2034 3584 2315 3537 
Q 2597 3491 2834 3397 
z
" transform="scale(0.015625)"/>
       <path id="DejaVuSans-6f" d="M 1959 3097 
Q 1497 3097 1228 2736 
Q 959 2375 959 1747 
Q 959 1119 1226 758 
Q 1494 397 1959 397 
Q 2419 397 2687 759 
Q 2956 1122 2956 1747 
Q 2956 2369 2687 2733 
Q 2419 3097 1959 3097 
z
M 1959 3584 
Q 2709 3584 3137 3096 
Q 3566 2609 3566 1747 
Q 3566 888 3137 398 
Q 2709 -91 1959 -91 
Q 1206 -91 779 398 
Q 353 888 353 1747 
Q 353 2609 779 3096 
Q 1206 3584 1959 3584 
z
" transform="scale(0.015625)"/>
       <path id="DejaVuSans-64" d="M 2906 2969 
L 2906 4863 
L 3481 4863 
L 3481 0 
L 2906 0 
L 2906 525 
Q 2725 213 2448 61 
Q 2172 -91 1784 -91 
Q 1150 -91 751 415 
Q 353 922 353 1747 
Q 353 2572 751 3078 
Q 1150 3584 1784 3584 
Q 2172 3584 2448 3432 
Q 2725 3281 2906 2969 
z
M 947 1747 
Q 947 1113 1208 752 
Q 1469 391 1925 391 
Q 2381 391 2643 752 
Q 2906 1113 2906 1747 
Q 2906 2381 2643 2742 
Q 2381 3103 1925 3103 
Q 1469 3103 1208 2742 
Q 947 2381 947 1747 
z
" transform="scale(0.015625)"/>
      </defs>
      <use xlink:href="#DejaVuSans-50"/>
      <use xlink:href="#DejaVuSans-65" x="56.677734"/>
      <use xlink:href="#DejaVuSans-72" x="118.201172"/>
      <use xlink:href="#DejaVuSans-63" x="157.064453"/>
      <use xlink:href="#DejaVuSans-65" x="212.044922"/>
      <use xlink:href="#DejaVuSans-6e" x="273.568359"/>
      <use xlink:href="#DejaVuSans-74" x="336.947266"/>
      <use xlink:href="#DejaVuSans-69" x="376.15625"/>
      <use xlink:href="#DejaVuSans-6c" x="403.939453"/>
      <use xlink:href="#DejaVuSans-65" x="431.722656"/>
      <use xlink:href="#DejaVuSans-20" x="493.246094"/>
      <use xlink:href="#DejaVuSans-54" x="525.033203"/>
      <use xlink:href="#DejaVuSans-68" x="586.117188"/>
      <use xlink:href="#DejaVuSans-72" x="649.496094"/>
      <use xlink:href="#DejaVuSans-65" x="688.359375"/>
      <use xlink:href="#DejaVuSans-73" x="749.882812"/>
      <use xlink:href="#DejaVuSans-68" x="801.982422"/>
      <use xlink:href="#DejaVuSans-6f" x="865.361328"/>
      <use xlink:href="#DejaVuSans-6c" x="926.542969"/>
      <use xlink:href="#DejaVuSans-64" x="954.326172"/>
     </g>
     <!-- (Using "max_mean" Threshold Handling) -->
     <g transform="translate(416.625313 557.78075) scale(0.2 -0.2)">
      <defs>
       <path id="DejaVuSans-28" d="M 1984 4856 
Q 1566 4138 1362 3434 
Q 1159 2731 1159 2009 
Q 1159 1288 1364 580 
Q 1569 -128 1984 -844 
L 1484 -844 
Q 1016 -109 783 600 
Q 550 1309 550 2009 
Q 550 2706 781 3412 
Q 1013 4119 1484 4856 
L 1984 4856 
z
" transform="scale(0.015625)"/>
       <path id="DejaVuSans-55" d="M 556 4666 
L 1191 4666 
L 1191 1831 
Q 1191 1081 1462 751 
Q 1734 422 2344 422 
Q 2950 422 3222 751 
Q 3494 1081 3494 1831 
L 3494 4666 
L 4128 4666 
L 4128 1753 
Q 4128 841 3676 375 
Q 3225 -91 2344 -91 
Q 1459 -91 1007 375 
Q 556 841 556 1753 
L 556 4666 
z
" transform="scale(0.015625)"/>
       <path id="DejaVuSans-67" d="M 2906 1791 
Q 2906 2416 2648 2759 
Q 2391 3103 1925 3103 
Q 1463 3103 1205 2759 
Q 947 2416 947 1791 
Q 947 1169 1205 825 
Q 1463 481 1925 481 
Q 2391 481 2648 825 
Q 2906 1169 2906 1791 
z
M 3481 434 
Q 3481 -459 3084 -895 
Q 2688 -1331 1869 -1331 
Q 1566 -1331 1297 -1286 
Q 1028 -1241 775 -1147 
L 775 -588 
Q 1028 -725 1275 -790 
Q 1522 -856 1778 -856 
Q 2344 -856 2625 -561 
Q 2906 -266 2906 331 
L 2906 616 
Q 2728 306 2450 153 
Q 2172 0 1784 0 
Q 1141 0 747 490 
Q 353 981 353 1791 
Q 353 2603 747 3093 
Q 1141 3584 1784 3584 
Q 2172 3584 2450 3431 
Q 2728 3278 2906 2969 
L 2906 3500 
L 3481 3500 
L 3481 434 
z
" transform="scale(0.015625)"/>
       <path id="DejaVuSans-22" d="M 1147 4666 
L 1147 2931 
L 616 2931 
L 616 4666 
L 1147 4666 
z
M 2328 4666 
L 2328 2931 
L 1797 2931 
L 1797 4666 
L 2328 4666 
z
" transform="scale(0.015625)"/>
       <path id="DejaVuSans-6d" d="M 3328 2828 
Q 3544 3216 3844 3400 
Q 4144 3584 4550 3584 
Q 5097 3584 5394 3201 
Q 5691 2819 5691 2113 
L 5691 0 
L 5113 0 
L 5113 2094 
Q 5113 2597 4934 2840 
Q 4756 3084 4391 3084 
Q 3944 3084 3684 2787 
Q 3425 2491 3425 1978 
L 3425 0 
L 2847 0 
L 2847 2094 
Q 2847 2600 2669 2842 
Q 2491 3084 2119 3084 
Q 1678 3084 1418 2786 
Q 1159 2488 1159 1978 
L 1159 0 
L 581 0 
L 581 3500 
L 1159 3500 
L 1159 2956 
Q 1356 3278 1631 3431 
Q 1906 3584 2284 3584 
Q 2666 3584 2933 3390 
Q 3200 3197 3328 2828 
z
" transform="scale(0.015625)"/>
       <path id="DejaVuSans-61" d="M 2194 1759 
Q 1497 1759 1228 1600 
Q 959 1441 959 1056 
Q 959 750 1161 570 
Q 1363 391 1709 391 
Q 2188 391 2477 730 
Q 2766 1069 2766 1631 
L 2766 1759 
L 2194 1759 
z
M 3341 1997 
L 3341 0 
L 2766 0 
L 2766 531 
Q 2569 213 2275 61 
Q 1981 -91 1556 -91 
Q 1019 -91 701 211 
Q 384 513 384 1019 
Q 384 1609 779 1909 
Q 1175 2209 1959 2209 
L 2766 2209 
L 2766 2266 
Q 2766 2663 2505 2880 
Q 2244 3097 1772 3097 
Q 1472 3097 1187 3025 
Q 903 2953 641 2809 
L 641 3341 
Q 956 3463 1253 3523 
Q 1550 3584 1831 3584 
Q 2591 3584 2966 3190 
Q 3341 2797 3341 1997 
z
" transform="scale(0.015625)"/>
       <path id="DejaVuSans-78" d="M 3513 3500 
L 2247 1797 
L 3578 0 
L 2900 0 
L 1881 1375 
L 863 0 
L 184 0 
L 1544 1831 
L 300 3500 
L 978 3500 
L 1906 2253 
L 2834 3500 
L 3513 3500 
z
" transform="scale(0.015625)"/>
       <path id="DejaVuSans-5f" d="M 3263 -1063 
L 3263 -1509 
L -63 -1509 
L -63 -1063 
L 3263 -1063 
z
" transform="scale(0.015625)"/>
       <path id="DejaVuSans-48" d="M 628 4666 
L 1259 4666 
L 1259 2753 
L 3553 2753 
L 3553 4666 
L 4184 4666 
L 4184 0 
L 3553 0 
L 3553 2222 
L 1259 2222 
L 1259 0 
L 628 0 
L 628 4666 
z
" transform="scale(0.015625)"/>
       <path id="DejaVuSans-29" d="M 513 4856 
L 1013 4856 
Q 1481 4119 1714 3412 
Q 1947 2706 1947 2009 
Q 1947 1309 1714 600 
Q 1481 -109 1013 -844 
L 513 -844 
Q 928 -128 1133 580 
Q 1338 1288 1338 2009 
Q 1338 2731 1133 3434 
Q 928 4138 513 4856 
z
" transform="scale(0.015625)"/>
      </defs>
      <use xlink:href="#DejaVuSans-28"/>
      <use xlink:href="#DejaVuSans-55" x="39.013672"/>
      <use xlink:href="#DejaVuSans-73" x="112.207031"/>
      <use xlink:href="#DejaVuSans-69" x="164.306641"/>
      <use xlink:href="#DejaVuSans-6e" x="192.089844"/>
      <use xlink:href="#DejaVuSans-67" x="255.46875"/>
      <use xlink:href="#DejaVuSans-20" x="318.945312"/>
      <use xlink:href="#DejaVuSans-22" x="350.732422"/>
      <use xlink:href="#DejaVuSans-6d" x="396.728516"/>
      <use xlink:href="#DejaVuSans-61" x="494.140625"/>
      <use xlink:href="#DejaVuSans-78" x="555.419922"/>
      <use xlink:href="#DejaVuSans-5f" x="614.599609"/>
      <use xlink:href="#DejaVuSans-6d" x="664.599609"/>
      <use xlink:href="#DejaVuSans-65" x="762.011719"/>
      <use xlink:href="#DejaVuSans-61" x="823.535156"/>
      <use xlink:href="#DejaVuSans-6e" x="884.814453"/>
      <use xlink:href="#DejaVuSans-22" x="948.193359"/>
      <use xlink:href="#DejaVuSans-20" x="994.189453"/>
      <use xlink:href="#DejaVuSans-54" x="1025.976562"/>
      <use xlink:href="#DejaVuSans-68" x="1087.060547"/>
      <use xlink:href="#DejaVuSans-72" x="1150.439453"/>
      <use xlink:href="#DejaVuSans-65" x="1189.302734"/>
      <use xlink:href="#DejaVuSans-73" x="1250.826172"/>
      <use xlink:href="#DejaVuSans-68" x="1302.925781"/>
      <use xlink:href="#DejaVuSans-6f" x="1366.304688"/>
      <use xlink:href="#DejaVuSans-6c" x="1427.486328"/>
      <use xlink:href="#DejaVuSans-64" x="1455.269531"/>
      <use xlink:href="#DejaVuSans-20" x="1518.746094"/>
      <use xlink:href="#DejaVuSans-48" x="1550.533203"/>
      <use xlink:href="#DejaVuSans-61" x="1625.728516"/>
      <use xlink:href="#DejaVuSans-6e" x="1687.007812"/>
      <use xlink:href="#DejaVuSans-64" x="1750.386719"/>
      <use xlink:href="#DejaVuSans-6c" x="1813.863281"/>
      <use xlink:href="#DejaVuSans-69" x="1841.646484"/>
      <use xlink:href="#DejaVuSans-6e" x="1869.429688"/>
      <use xlink:href="#DejaVuSans-67" x="1932.808594"/>
      <use xlink:href="#DejaVuSans-29" x="1996.285156"/>
     </g>
    </g>
   </g>
   <g id="matplotlib.axis_2">
    <g id="ytick_1">
     <g id="line2d_9">
      <defs>
       <path id="m25c9247c0a" d="M 0 0 
L -3.5 0 
" style="stroke: #000000; stroke-width: 0.8"/>
      </defs>
      <g>
       <use xlink:href="#m25c9247c0a" x="99.11" y="395.051655" style="stroke: #000000; stroke-width: 0.8"/>
      </g>
     </g>
     <g id="text_10">
      <!-- 0.012 -->
      <g transform="translate(34.85375 402.650092) scale(0.2 -0.2)">
       <defs>
        <path id="DejaVuSans-2e" d="M 684 794 
L 1344 794 
L 1344 0 
L 684 0 
L 684 794 
z
" transform="scale(0.015625)"/>
       </defs>
       <use xlink:href="#DejaVuSans-30"/>
       <use xlink:href="#DejaVuSans-2e" x="63.623047"/>
       <use xlink:href="#DejaVuSans-30" x="95.410156"/>
       <use xlink:href="#DejaVuSans-31" x="159.033203"/>
       <use xlink:href="#DejaVuSans-32" x="222.65625"/>
      </g>
     </g>
    </g>
    <g id="ytick_2">
     <g id="line2d_10">
      <g>
       <use xlink:href="#m25c9247c0a" x="99.11" y="292.462207" style="stroke: #000000; stroke-width: 0.8"/>
      </g>
     </g>
     <g id="text_11">
      <!-- 0.013 -->
      <g transform="translate(34.85375 300.060645) scale(0.2 -0.2)">
       <use xlink:href="#DejaVuSans-30"/>
       <use xlink:href="#DejaVuSans-2e" x="63.623047"/>
       <use xlink:href="#DejaVuSans-30" x="95.410156"/>
       <use xlink:href="#DejaVuSans-31" x="159.033203"/>
       <use xlink:href="#DejaVuSans-33" x="222.65625"/>
      </g>
     </g>
    </g>
    <g id="ytick_3">
     <g id="line2d_11">
      <g>
       <use xlink:href="#m25c9247c0a" x="99.11" y="189.87276" style="stroke: #000000; stroke-width: 0.8"/>
      </g>
     </g>
     <g id="text_12">
      <!-- 0.014 -->
      <g transform="translate(34.85375 197.471198) scale(0.2 -0.2)">
       <defs>
        <path id="DejaVuSans-34" d="M 2419 4116 
L 825 1625 
L 2419 1625 
L 2419 4116 
z
M 2253 4666 
L 3047 4666 
L 3047 1625 
L 3713 1625 
L 3713 1100 
L 3047 1100 
L 3047 0 
L 2419 0 
L 2419 1100 
L 313 1100 
L 313 1709 
L 2253 4666 
z
" transform="scale(0.015625)"/>
       </defs>
       <use xlink:href="#DejaVuSans-30"/>
       <use xlink:href="#DejaVuSans-2e" x="63.623047"/>
       <use xlink:href="#DejaVuSans-30" x="95.410156"/>
       <use xlink:href="#DejaVuSans-31" x="159.033203"/>
       <use xlink:href="#DejaVuSans-34" x="222.65625"/>
      </g>
     </g>
    </g>
    <g id="ytick_4">
     <g id="line2d_12">
      <g>
       <use xlink:href="#m25c9247c0a" x="99.11" y="87.283313" style="stroke: #000000; stroke-width: 0.8"/>
      </g>
     </g>
     <g id="text_13">
      <!-- 0.015 -->
      <g transform="translate(34.85375 94.88175) scale(0.2 -0.2)">
       <use xlink:href="#DejaVuSans-30"/>
       <use xlink:href="#DejaVuSans-2e" x="63.623047"/>
       <use xlink:href="#DejaVuSans-30" x="95.410156"/>
       <use xlink:href="#DejaVuSans-31" x="159.033203"/>
       <use xlink:href="#DejaVuSans-35" x="222.65625"/>
      </g>
     </g>
    </g>
    <g id="text_14">
     <!-- MAPE -->
     <g transform="translate(26.694375 278.133188) rotate(-90) scale(0.2 -0.2)">
      <defs>
       <path id="DejaVuSans-4d" d="M 628 4666 
L 1569 4666 
L 2759 1491 
L 3956 4666 
L 4897 4666 
L 4897 0 
L 4281 0 
L 4281 4097 
L 3078 897 
L 2444 897 
L 1241 4097 
L 1241 0 
L 628 0 
L 628 4666 
z
" transform="scale(0.015625)"/>
       <path id="DejaVuSans-41" d="M 2188 4044 
L 1331 1722 
L 3047 1722 
L 2188 4044 
z
M 1831 4666 
L 2547 4666 
L 4325 0 
L 3669 0 
L 3244 1197 
L 1141 1197 
L 716 0 
L 50 0 
L 1831 4666 
z
" transform="scale(0.015625)"/>
       <path id="DejaVuSans-45" d="M 628 4666 
L 3578 4666 
L 3578 4134 
L 1259 4134 
L 1259 2753 
L 3481 2753 
L 3481 2222 
L 1259 2222 
L 1259 531 
L 3634 531 
L 3634 0 
L 628 0 
L 628 4666 
z
" transform="scale(0.015625)"/>
      </defs>
      <use xlink:href="#DejaVuSans-4d"/>
      <use xlink:href="#DejaVuSans-41" x="86.279297"/>
      <use xlink:href="#DejaVuSans-50" x="154.6875"/>
      <use xlink:href="#DejaVuSans-45" x="214.990234"/>
     </g>
    </g>
   </g>
   <g id="line2d_13">
    <path d="M 146.477727 382.367289 
L 202.204465 421.487922 
L 257.931203 425.690879 
L 313.657941 405.386361 
L 369.384679 401.719455 
L 425.111417 439.018546 
L 480.838155 419.692334 
L 536.564893 414.135747 
L 592.291631 365.82888 
L 648.018369 392.350719 
L 703.745107 374.66801 
L 759.471845 368.724151 
L 815.198583 390.184086 
L 870.925321 404.953501 
L 926.652059 392.662565 
L 982.378797 387.238938 
L 1038.105535 403.77786 
L 1093.832273 405.627423 
" clip-path="url(#p06f76f8048)" style="fill: none; stroke: #1f77b4; stroke-width: 1.5; stroke-linecap: square"/>
   </g>
   <g id="line2d_14">
    <path d="M 146.477727 320.224254 
L 202.204465 345.729365 
L 257.931203 366.77928 
L 313.657941 322.3951 
L 369.384679 364.548601 
L 425.111417 365.018423 
L 480.838155 355.263042 
L 536.564893 347.524336 
L 592.291631 313.987457 
L 648.018369 319.754457 
L 703.745107 321.012828 
L 759.471845 308.109873 
L 815.198583 325.43612 
L 870.925321 351.095392 
L 926.652059 340.673419 
L 982.378797 347.83842 
L 1038.105535 333.162899 
L 1093.832273 305.211673 
" clip-path="url(#p06f76f8048)" style="fill: none; stroke: #ff7f0e; stroke-width: 1.5; stroke-linecap: square"/>
   </g>
   <g id="line2d_15">
    <path d="M 146.477727 387.443191 
L 202.204465 429.540947 
L 257.931203 416.670565 
L 313.657941 430.422305 
L 369.384679 384.513146 
L 425.111417 408.518354 
L 480.838155 410.755562 
L 536.564893 386.357051 
L 592.291631 397.166973 
L 648.018369 367.960553 
L 703.745107 369.225782 
L 759.471845 365.249957 
L 815.198583 362.291086 
L 870.925321 371.253297 
L 926.652059 318.629686 
L 982.378797 368.755651 
L 1038.105535 379.371307 
L 1093.832273 351.517622 
" clip-path="url(#p06f76f8048)" style="fill: none; stroke: #2ca02c; stroke-width: 1.5; stroke-linecap: square"/>
   </g>
   <g id="line2d_16">
    <path d="M 146.477727 112.499169 
L 202.204465 157.26589 
L 257.931203 158.695103 
L 313.657941 117.433384 
L 369.384679 126.619895 
L 425.111417 120.025923 
L 480.838155 136.276206 
L 536.564893 108.239658 
L 592.291631 108.262167 
L 648.018369 126.258771 
L 703.745107 126.078437 
L 759.471845 119.727666 
L 815.198583 117.549693 
L 870.925321 146.397663 
L 926.652059 129.071177 
L 982.378797 130.174511 
L 1038.105535 136.840533 
L 1093.832273 111.140069 
" clip-path="url(#p06f76f8048)" style="fill: none; stroke: #d62728; stroke-width: 1.5; stroke-linecap: square"/>
   </g>
   <g id="line2d_17">
    <path d="M 146.477727 395.38655 
L 202.204465 436.84945 
L 257.931203 424.45227 
L 313.657941 426.280389 
L 369.384679 417.314525 
L 425.111417 435.985392 
L 480.838155 423.737466 
L 536.564893 439.247692 
L 592.291631 391.243956 
L 648.018369 401.264128 
L 703.745107 407.078371 
L 759.471845 387.68284 
L 815.198583 392.842588 
L 870.925321 400.151089 
L 926.652059 405.910948 
L 982.378797 410.340078 
L 1038.105535 416.685814 
L 1093.832273 406.305445 
" clip-path="url(#p06f76f8048)" style="fill: none; stroke: #9467bd; stroke-width: 1.5; stroke-linecap: square"/>
   </g>
   <g id="line2d_18">
    <path d="M 146.477727 335.397588 
L 202.204465 353.817257 
L 257.931203 377.071764 
L 313.657941 331.658943 
L 369.384679 372.280975 
L 425.111417 368.616936 
L 480.838155 367.689669 
L 536.564893 358.780299 
L 592.291631 320.403763 
L 648.018369 325.665312 
L 703.745107 330.242062 
L 759.471845 307.870814 
L 815.198583 330.122464 
L 870.925321 361.365587 
L 926.652059 351.216081 
L 982.378797 362.600696 
L 1038.105535 338.705111 
L 1093.832273 315.025645 
" clip-path="url(#p06f76f8048)" style="fill: none; stroke: #8c564b; stroke-width: 1.5; stroke-linecap: square"/>
   </g>
   <g id="line2d_19">
    <path d="M 146.477727 393.798043 
L 202.204465 429.505679 
L 257.931203 441.935887 
L 313.657941 411.243717 
L 369.384679 419.024086 
L 425.111417 451.429612 
L 480.838155 426.212913 
L 536.564893 408.607012 
L 592.291631 388.606357 
L 648.018369 402.171266 
L 703.745107 377.721248 
L 759.471845 404.554471 
L 815.198583 386.936472 
L 870.925321 404.216491 
L 926.652059 421.111349 
L 982.378797 423.012638 
L 1038.105535 443.365652 
L 1093.832273 404.130697 
" clip-path="url(#p06f76f8048)" style="fill: none; stroke: #e377c2; stroke-width: 1.5; stroke-linecap: square"/>
   </g>
   <g id="line2d_20">
    <path d="M 146.477727 115.325096 
L 202.204465 159.492761 
L 257.931203 161.890454 
L 313.657941 117.743748 
L 369.384679 128.537127 
L 425.111417 121.936558 
L 480.838155 137.392329 
L 536.564893 108.801246 
L 592.291631 110.162976 
L 648.018369 124.000588 
L 703.745107 127.691846 
L 759.471845 123.750944 
L 815.198583 121.641547 
L 870.925321 148.433195 
L 926.652059 133.921047 
L 982.378797 133.755658 
L 1038.105535 140.33323 
L 1093.832273 116.016978 
" clip-path="url(#p06f76f8048)" style="fill: none; stroke: #7f7f7f; stroke-width: 1.5; stroke-linecap: square"/>
   </g>
   <g id="line2d_21"/>
   <g id="line2d_22"/>
   <g id="line2d_23"/>
   <g id="line2d_24"/>
   <g id="line2d_25"/>
   <g id="line2d_26"/>
   <g id="line2d_27"/>
   <g id="line2d_28"/>
   <g id="patch_3">
    <path d="M 99.11 489.832 
L 99.11 10.8 
" style="fill: none; stroke: #000000; stroke-width: 0.8; stroke-linejoin: miter; stroke-linecap: square"/>
   </g>
   <g id="patch_4">
    <path d="M 1141.2 489.832 
L 1141.2 10.8 
" style="fill: none; stroke: #000000; stroke-width: 0.8; stroke-linejoin: miter; stroke-linecap: square"/>
   </g>
   <g id="patch_5">
    <path d="M 99.11 489.832 
L 1141.2 489.832 
" style="fill: none; stroke: #000000; stroke-width: 0.8; stroke-linejoin: miter; stroke-linecap: square"/>
   </g>
   <g id="patch_6">
    <path d="M 99.11 10.8 
L 1141.2 10.8 
" style="fill: none; stroke: #000000; stroke-width: 0.8; stroke-linejoin: miter; stroke-linecap: square"/>
   </g>
   <g id="legend_1">
    <g id="patch_7">
     <path d="M 110.31 481.832 
L 306.5475 481.832 
Q 309.7475 481.832 309.7475 478.632 
L 309.7475 290.572 
Q 309.7475 287.372 306.5475 287.372 
L 110.31 287.372 
Q 107.11 287.372 107.11 290.572 
L 107.11 478.632 
Q 107.11 481.832 110.31 481.832 
z
" style="fill: #ffffff; opacity: 0.8; stroke: #cccccc; stroke-linejoin: miter"/>
    </g>
    <g id="line2d_29">
     <path d="M 113.51 300.3295 
L 129.51 300.3295 
L 145.51 300.3295 
" style="fill: none; stroke: #1f77b4; stroke-width: 1.5; stroke-linecap: square"/>
    </g>
    <g id="text_15">
     <!-- gbr -->
     <g transform="translate(158.31 305.9295) scale(0.16 -0.16)">
      <defs>
       <path id="DejaVuSans-62" d="M 3116 1747 
Q 3116 2381 2855 2742 
Q 2594 3103 2138 3103 
Q 1681 3103 1420 2742 
Q 1159 2381 1159 1747 
Q 1159 1113 1420 752 
Q 1681 391 2138 391 
Q 2594 391 2855 752 
Q 3116 1113 3116 1747 
z
M 1159 2969 
Q 1341 3281 1617 3432 
Q 1894 3584 2278 3584 
Q 2916 3584 3314 3078 
Q 3713 2572 3713 1747 
Q 3713 922 3314 415 
Q 2916 -91 2278 -91 
Q 1894 -91 1617 61 
Q 1341 213 1159 525 
L 1159 0 
L 581 0 
L 581 4863 
L 1159 4863 
L 1159 2969 
z
" transform="scale(0.015625)"/>
      </defs>
      <use xlink:href="#DejaVuSans-67"/>
      <use xlink:href="#DejaVuSans-62" x="63.476562"/>
      <use xlink:href="#DejaVuSans-72" x="126.953125"/>
     </g>
    </g>
    <g id="line2d_30">
     <path d="M 113.51 323.8145 
L 129.51 323.8145 
L 145.51 323.8145 
" style="fill: none; stroke: #ff7f0e; stroke-width: 1.5; stroke-linecap: square"/>
    </g>
    <g id="text_16">
     <!-- rf -->
     <g transform="translate(158.31 329.4145) scale(0.16 -0.16)">
      <defs>
       <path id="DejaVuSans-66" d="M 2375 4863 
L 2375 4384 
L 1825 4384 
Q 1516 4384 1395 4259 
Q 1275 4134 1275 3809 
L 1275 3500 
L 2222 3500 
L 2222 3053 
L 1275 3053 
L 1275 0 
L 697 0 
L 697 3053 
L 147 3053 
L 147 3500 
L 697 3500 
L 697 3744 
Q 697 4328 969 4595 
Q 1241 4863 1831 4863 
L 2375 4863 
z
" transform="scale(0.015625)"/>
      </defs>
      <use xlink:href="#DejaVuSans-72"/>
      <use xlink:href="#DejaVuSans-66" x="41.113281"/>
     </g>
    </g>
    <g id="line2d_31">
     <path d="M 113.51 347.2995 
L 129.51 347.2995 
L 145.51 347.2995 
" style="fill: none; stroke: #2ca02c; stroke-width: 1.5; stroke-linecap: square"/>
    </g>
    <g id="text_17">
     <!-- xgb -->
     <g transform="translate(158.31 352.8995) scale(0.16 -0.16)">
      <use xlink:href="#DejaVuSans-78"/>
      <use xlink:href="#DejaVuSans-67" x="59.179688"/>
      <use xlink:href="#DejaVuSans-62" x="122.65625"/>
     </g>
    </g>
    <g id="line2d_32">
     <path d="M 113.51 370.7845 
L 129.51 370.7845 
L 145.51 370.7845 
" style="fill: none; stroke: #d62728; stroke-width: 1.5; stroke-linecap: square"/>
    </g>
    <g id="text_18">
     <!-- BayesianRidge -->
     <g transform="translate(158.31 376.3845) scale(0.16 -0.16)">
      <defs>
       <path id="DejaVuSans-42" d="M 1259 2228 
L 1259 519 
L 2272 519 
Q 2781 519 3026 730 
Q 3272 941 3272 1375 
Q 3272 1813 3026 2020 
Q 2781 2228 2272 2228 
L 1259 2228 
z
M 1259 4147 
L 1259 2741 
L 2194 2741 
Q 2656 2741 2882 2914 
Q 3109 3088 3109 3444 
Q 3109 3797 2882 3972 
Q 2656 4147 2194 4147 
L 1259 4147 
z
M 628 4666 
L 2241 4666 
Q 2963 4666 3353 4366 
Q 3744 4066 3744 3513 
Q 3744 3084 3544 2831 
Q 3344 2578 2956 2516 
Q 3422 2416 3680 2098 
Q 3938 1781 3938 1306 
Q 3938 681 3513 340 
Q 3088 0 2303 0 
L 628 0 
L 628 4666 
z
" transform="scale(0.015625)"/>
       <path id="DejaVuSans-79" d="M 2059 -325 
Q 1816 -950 1584 -1140 
Q 1353 -1331 966 -1331 
L 506 -1331 
L 506 -850 
L 844 -850 
Q 1081 -850 1212 -737 
Q 1344 -625 1503 -206 
L 1606 56 
L 191 3500 
L 800 3500 
L 1894 763 
L 2988 3500 
L 3597 3500 
L 2059 -325 
z
" transform="scale(0.015625)"/>
       <path id="DejaVuSans-52" d="M 2841 2188 
Q 3044 2119 3236 1894 
Q 3428 1669 3622 1275 
L 4263 0 
L 3584 0 
L 2988 1197 
Q 2756 1666 2539 1819 
Q 2322 1972 1947 1972 
L 1259 1972 
L 1259 0 
L 628 0 
L 628 4666 
L 2053 4666 
Q 2853 4666 3247 4331 
Q 3641 3997 3641 3322 
Q 3641 2881 3436 2590 
Q 3231 2300 2841 2188 
z
M 1259 4147 
L 1259 2491 
L 2053 2491 
Q 2509 2491 2742 2702 
Q 2975 2913 2975 3322 
Q 2975 3731 2742 3939 
Q 2509 4147 2053 4147 
L 1259 4147 
z
" transform="scale(0.015625)"/>
      </defs>
      <use xlink:href="#DejaVuSans-42"/>
      <use xlink:href="#DejaVuSans-61" x="68.603516"/>
      <use xlink:href="#DejaVuSans-79" x="129.882812"/>
      <use xlink:href="#DejaVuSans-65" x="189.0625"/>
      <use xlink:href="#DejaVuSans-73" x="250.585938"/>
      <use xlink:href="#DejaVuSans-69" x="302.685547"/>
      <use xlink:href="#DejaVuSans-61" x="330.46875"/>
      <use xlink:href="#DejaVuSans-6e" x="391.748047"/>
      <use xlink:href="#DejaVuSans-52" x="455.126953"/>
      <use xlink:href="#DejaVuSans-69" x="524.609375"/>
      <use xlink:href="#DejaVuSans-64" x="552.392578"/>
      <use xlink:href="#DejaVuSans-67" x="615.869141"/>
      <use xlink:href="#DejaVuSans-65" x="679.345703"/>
     </g>
    </g>
    <g id="line2d_33">
     <path d="M 113.51 394.2695 
L 129.51 394.2695 
L 145.51 394.2695 
" style="fill: none; stroke: #9467bd; stroke-width: 1.5; stroke-linecap: square"/>
    </g>
    <g id="text_19">
     <!-- xgb_gs -->
     <g transform="translate(158.31 399.8695) scale(0.16 -0.16)">
      <use xlink:href="#DejaVuSans-78"/>
      <use xlink:href="#DejaVuSans-67" x="59.179688"/>
      <use xlink:href="#DejaVuSans-62" x="122.65625"/>
      <use xlink:href="#DejaVuSans-5f" x="186.132812"/>
      <use xlink:href="#DejaVuSans-67" x="236.132812"/>
      <use xlink:href="#DejaVuSans-73" x="299.609375"/>
     </g>
    </g>
    <g id="line2d_34">
     <path d="M 113.51 418.1995 
L 129.51 418.1995 
L 145.51 418.1995 
" style="fill: none; stroke: #8c564b; stroke-width: 1.5; stroke-linecap: square"/>
    </g>
    <g id="text_20">
     <!-- rf_gs -->
     <g transform="translate(158.31 423.7995) scale(0.16 -0.16)">
      <use xlink:href="#DejaVuSans-72"/>
      <use xlink:href="#DejaVuSans-66" x="41.113281"/>
      <use xlink:href="#DejaVuSans-5f" x="76.318359"/>
      <use xlink:href="#DejaVuSans-67" x="126.318359"/>
      <use xlink:href="#DejaVuSans-73" x="189.794922"/>
     </g>
    </g>
    <g id="line2d_35">
     <path d="M 113.51 442.1295 
L 129.51 442.1295 
L 145.51 442.1295 
" style="fill: none; stroke: #e377c2; stroke-width: 1.5; stroke-linecap: square"/>
    </g>
    <g id="text_21">
     <!-- gbr_gs -->
     <g transform="translate(158.31 447.7295) scale(0.16 -0.16)">
      <use xlink:href="#DejaVuSans-67"/>
      <use xlink:href="#DejaVuSans-62" x="63.476562"/>
      <use xlink:href="#DejaVuSans-72" x="126.953125"/>
      <use xlink:href="#DejaVuSans-5f" x="168.066406"/>
      <use xlink:href="#DejaVuSans-67" x="218.066406"/>
      <use xlink:href="#DejaVuSans-73" x="281.542969"/>
     </g>
    </g>
    <g id="line2d_36">
     <path d="M 113.51 466.0595 
L 129.51 466.0595 
L 145.51 466.0595 
" style="fill: none; stroke: #7f7f7f; stroke-width: 1.5; stroke-linecap: square"/>
    </g>
    <g id="text_22">
     <!-- BayesianRidge_gs -->
     <g transform="translate(158.31 471.6595) scale(0.16 -0.16)">
      <use xlink:href="#DejaVuSans-42"/>
      <use xlink:href="#DejaVuSans-61" x="68.603516"/>
      <use xlink:href="#DejaVuSans-79" x="129.882812"/>
      <use xlink:href="#DejaVuSans-65" x="189.0625"/>
      <use xlink:href="#DejaVuSans-73" x="250.585938"/>
      <use xlink:href="#DejaVuSans-69" x="302.685547"/>
      <use xlink:href="#DejaVuSans-61" x="330.46875"/>
      <use xlink:href="#DejaVuSans-6e" x="391.748047"/>
      <use xlink:href="#DejaVuSans-52" x="455.126953"/>
      <use xlink:href="#DejaVuSans-69" x="524.609375"/>
      <use xlink:href="#DejaVuSans-64" x="552.392578"/>
      <use xlink:href="#DejaVuSans-67" x="615.869141"/>
      <use xlink:href="#DejaVuSans-65" x="679.345703"/>
      <use xlink:href="#DejaVuSans-5f" x="740.869141"/>
      <use xlink:href="#DejaVuSans-67" x="790.869141"/>
      <use xlink:href="#DejaVuSans-73" x="854.345703"/>
     </g>
    </g>
   </g>
  </g>
 </g>
 <defs>
  <clipPath id="p06f76f8048">
   <rect x="99.11" y="10.8" width="1042.09" height="479.032"/>
  </clipPath>
 </defs>
</svg>
