<?xml version="1.0" encoding="utf-8" standalone="no"?>
<!DOCTYPE svg PUBLIC "-//W3C//DTD SVG 1.1//EN"
  "http://www.w3.org/Graphics/SVG/1.1/DTD/svg11.dtd">
<svg xmlns:xlink="http://www.w3.org/1999/xlink" width="1152pt" height="576pt" viewBox="0 0 1152 576" xmlns="http://www.w3.org/2000/svg" version="1.1">
 <metadata>
  <rdf:RDF xmlns:dc="http://purl.org/dc/elements/1.1/" xmlns:cc="http://creativecommons.org/ns#" xmlns:rdf="http://www.w3.org/1999/02/22-rdf-syntax-ns#">
   <cc:Work>
    <dc:type rdf:resource="http://purl.org/dc/dcmitype/StillImage"/>
    <dc:date>2025-04-21T13:10:52.599847</dc:date>
    <dc:format>image/svg+xml</dc:format>
    <dc:creator>
     <cc:Agent>
      <dc:title>Matplotlib v3.7.1, https://matplotlib.org/</dc:title>
     </cc:Agent>
    </dc:creator>
   </cc:Work>
  </rdf:RDF>
 </metadata>
 <defs>
  <style type="text/css">*{stroke-linejoin: round; stroke-linecap: butt}</style>
 </defs>
 <g id="figure_1">
  <g id="patch_1">
   <path d="M 0 576 
L 1152 576 
L 1152 0 
L 0 0 
z
" style="fill: #ffffff"/>
  </g>
  <g id="axes_1">
   <g id="patch_2">
    <path d="M 67.34 489.832 
L 1141.2 489.832 
L 1141.2 10.8 
L 67.34 10.8 
z
" style="fill: #ffffff"/>
   </g>
   <g id="PolyCollection_1">
    <defs>
     <path id="mb94edc0809" d="M 116.151818 -150.46465 
L 116.151818 -114.261464 
L 173.577487 -121.572334 
L 231.003155 -130.468444 
L 288.428824 -144.686566 
L 345.854492 -209.693979 
L 403.28016 -217.88367 
L 460.705829 -272.605827 
L 518.131497 -244.091266 
L 575.557166 -278.653785 
L 632.982834 -257.122041 
L 690.408503 -288.18982 
L 747.834171 -229.771545 
L 805.25984 -296.839033 
L 862.685508 -294.118886 
L 920.111176 -234.658048 
L 977.536845 -240.621289 
L 1034.962513 -255.241889 
L 1034.962513 -374.133946 
L 1034.962513 -374.133946 
L 977.536845 -400.431591 
L 920.111176 -376.268146 
L 862.685508 -410.387436 
L 805.25984 -419.12622 
L 747.834171 -493.094923 
L 690.408503 -444.262555 
L 632.982834 -499.41186 
L 575.557166 -458.009573 
L 518.131497 -453.252862 
L 460.705829 -434.413069 
L 403.28016 -348.389805 
L 345.854492 -313.083501 
L 288.428824 -276.479942 
L 231.003155 -186.628932 
L 173.577487 -190.611199 
L 116.151818 -150.46465 
z
" style="stroke: #1f77b4; stroke-opacity: 0.2"/>
    </defs>
    <g clip-path="url(#p942fa70f3c)">
     <use xlink:href="#mb94edc0809" x="0" y="576" style="fill: #1f77b4; fill-opacity: 0.2; stroke: #1f77b4; stroke-opacity: 0.2"/>
    </g>
   </g>
   <g id="PolyCollection_2">
    <defs>
     <path id="mbe9fad3570" d="M 116.151818 -197.420215 
L 116.151818 -167.212506 
L 173.577487 -193.599341 
L 231.003155 -204.107887 
L 288.428824 -228.662277 
L 345.854492 -267.682204 
L 403.28016 -261.728389 
L 460.705829 -297.982229 
L 518.131497 -297.990077 
L 575.557166 -329.119164 
L 632.982834 -321.194777 
L 690.408503 -345.95927 
L 747.834171 -338.693549 
L 805.25984 -371.034988 
L 862.685508 -360.100766 
L 920.111176 -311.103106 
L 977.536845 -357.904237 
L 1034.962513 -326.865204 
L 1034.962513 -432.635431 
L 1034.962513 -432.635431 
L 977.536845 -384.613411 
L 920.111176 -379.500309 
L 862.685508 -442.997507 
L 805.25984 -479.514105 
L 747.834171 -480.732951 
L 690.408503 -466.644945 
L 632.982834 -543.425818 
L 575.557166 -513.705533 
L 518.131497 -499.545578 
L 460.705829 -503.607527 
L 403.28016 -396.532384 
L 345.854492 -373.383711 
L 288.428824 -335.531014 
L 231.003155 -287.903315 
L 173.577487 -264.962402 
L 116.151818 -197.420215 
z
" style="stroke: #ff7f0e; stroke-opacity: 0.2"/>
    </defs>
    <g clip-path="url(#p942fa70f3c)">
     <use xlink:href="#mbe9fad3570" x="0" y="576" style="fill: #ff7f0e; fill-opacity: 0.2; stroke: #ff7f0e; stroke-opacity: 0.2"/>
    </g>
   </g>
   <g id="PolyCollection_3">
    <defs>
     <path id="m1953ddea80" d="M 116.151818 -194.710719 
L 116.151818 -156.957623 
L 173.577487 -142.548927 
L 231.003155 -141.075628 
L 288.428824 -153.262539 
L 345.854492 -219.174954 
L 403.28016 -203.361942 
L 460.705829 -257.110026 
L 518.131497 -242.384554 
L 575.557166 -240.776196 
L 632.982834 -267.825061 
L 690.408503 -280.37502 
L 747.834171 -290.170666 
L 805.25984 -297.731148 
L 862.685508 -269.859998 
L 920.111176 -208.44818 
L 977.536845 -304.634865 
L 1034.962513 -317.862666 
L 1034.962513 -466.962781 
L 1034.962513 -466.962781 
L 977.536845 -369.703791 
L 920.111176 -386.112063 
L 862.685508 -441.235094 
L 805.25984 -492.800383 
L 747.834171 -502.195961 
L 690.408503 -446.381491 
L 632.982834 -497.832815 
L 575.557166 -487.966367 
L 518.131497 -511.468193 
L 460.705829 -471.845253 
L 403.28016 -353.501145 
L 345.854492 -343.208072 
L 288.428824 -292.179033 
L 231.003155 -269.37864 
L 173.577487 -226.228011 
L 116.151818 -194.710719 
z
" style="stroke: #2ca02c; stroke-opacity: 0.2"/>
    </defs>
    <g clip-path="url(#p942fa70f3c)">
     <use xlink:href="#m1953ddea80" x="0" y="576" style="fill: #2ca02c; fill-opacity: 0.2; stroke: #2ca02c; stroke-opacity: 0.2"/>
    </g>
   </g>
   <g id="PolyCollection_4">
    <defs>
     <path id="m1bc88118df" d="M 116.151818 -279.770853 
L 116.151818 -234.261838 
L 173.577487 -218.112029 
L 231.003155 -234.132054 
L 288.428824 -277.16969 
L 345.854492 -340.64104 
L 403.28016 -329.040823 
L 460.705829 -364.319682 
L 518.131497 -336.195395 
L 575.557166 -334.563986 
L 632.982834 -353.905175 
L 690.408503 -359.591463 
L 747.834171 -357.907202 
L 805.25984 -402.419159 
L 862.685508 -430.368977 
L 920.111176 -381.441199 
L 977.536845 -440.064127 
L 1034.962513 -410.152672 
L 1034.962513 -479.386475 
L 1034.962513 -479.386475 
L 977.536845 -456.686706 
L 920.111176 -484.543914 
L 862.685508 -509.720805 
L 805.25984 -508.894301 
L 747.834171 -512.889978 
L 690.408503 -501.614869 
L 632.982834 -502.072297 
L 575.557166 -440.584205 
L 518.131497 -489.692648 
L 460.705829 -482.209707 
L 403.28016 -452.925365 
L 345.854492 -480.472959 
L 288.428824 -418.407278 
L 231.003155 -380.707 
L 173.577487 -306.215598 
L 116.151818 -279.770853 
z
" style="stroke: #d62728; stroke-opacity: 0.2"/>
    </defs>
    <g clip-path="url(#p942fa70f3c)">
     <use xlink:href="#m1bc88118df" x="0" y="576" style="fill: #d62728; fill-opacity: 0.2; stroke: #d62728; stroke-opacity: 0.2"/>
    </g>
   </g>
   <g id="PolyCollection_5">
    <defs>
     <path id="m46a6fbda15" d="M 116.151818 -156.389966 
L 116.151818 -108.175091 
L 173.577487 -107.942182 
L 231.003155 -117.733849 
L 288.428824 -154.254777 
L 345.854492 -239.866527 
L 403.28016 -240.387695 
L 460.705829 -301.069096 
L 518.131497 -294.180029 
L 575.557166 -312.416532 
L 632.982834 -301.566127 
L 690.408503 -338.016139 
L 747.834171 -317.091834 
L 805.25984 -333.81744 
L 862.685508 -329.848537 
L 920.111176 -258.030437 
L 977.536845 -267.443655 
L 1034.962513 -282.340286 
L 1034.962513 -441.030408 
L 1034.962513 -441.030408 
L 977.536845 -430.908129 
L 920.111176 -371.235582 
L 862.685508 -470.539732 
L 805.25984 -483.860736 
L 747.834171 -527.764616 
L 690.408503 -506.915836 
L 632.982834 -534.289235 
L 575.557166 -528.95812 
L 518.131497 -527.730037 
L 460.705829 -505.032016 
L 403.28016 -387.822829 
L 345.854492 -344.62823 
L 288.428824 -321.390344 
L 231.003155 -227.086554 
L 173.577487 -193.067176 
L 116.151818 -156.389966 
z
" style="stroke: #9467bd; stroke-opacity: 0.2"/>
    </defs>
    <g clip-path="url(#p942fa70f3c)">
     <use xlink:href="#m46a6fbda15" x="0" y="576" style="fill: #9467bd; fill-opacity: 0.2; stroke: #9467bd; stroke-opacity: 0.2"/>
    </g>
   </g>
   <g id="PolyCollection_6">
    <defs>
     <path id="mae86c14039" d="M 116.151818 -174.182057 
L 116.151818 -123.463305 
L 173.577487 -137.782236 
L 231.003155 -164.965499 
L 288.428824 -168.052047 
L 345.854492 -228.016179 
L 403.28016 -230.572212 
L 460.705829 -314.931287 
L 518.131497 -264.116108 
L 575.557166 -271.050714 
L 632.982834 -290.822614 
L 690.408503 -293.73297 
L 747.834171 -281.279516 
L 805.25984 -329.439903 
L 862.685508 -318.727672 
L 920.111176 -250.674633 
L 977.536845 -281.078781 
L 1034.962513 -281.428156 
L 1034.962513 -420.850141 
L 1034.962513 -420.850141 
L 977.536845 -360.375724 
L 920.111176 -403.838732 
L 862.685508 -431.304986 
L 805.25984 -422.680313 
L 747.834171 -459.439286 
L 690.408503 -462.292801 
L 632.982834 -522.865386 
L 575.557166 -463.483351 
L 518.131497 -485.864404 
L 460.705829 -451.97805 
L 403.28016 -366.020141 
L 345.854492 -318.874479 
L 288.428824 -347.296734 
L 231.003155 -231.837847 
L 173.577487 -208.579565 
L 116.151818 -174.182057 
z
" style="stroke: #8c564b; stroke-opacity: 0.2"/>
    </defs>
    <g clip-path="url(#p942fa70f3c)">
     <use xlink:href="#mae86c14039" x="0" y="576" style="fill: #8c564b; fill-opacity: 0.2; stroke: #8c564b; stroke-opacity: 0.2"/>
    </g>
   </g>
   <g id="PolyCollection_7">
    <defs>
     <path id="m3638655112" d="M 116.151818 -187.238754 
L 116.151818 -160.079368 
L 173.577487 -185.368519 
L 231.003155 -199.564366 
L 288.428824 -231.157747 
L 345.854492 -270.931362 
L 403.28016 -270.614758 
L 460.705829 -311.496406 
L 518.131497 -307.134822 
L 575.557166 -340.736439 
L 632.982834 -322.194066 
L 690.408503 -364.437731 
L 747.834171 -333.403687 
L 805.25984 -364.089991 
L 862.685508 -363.064991 
L 920.111176 -331.97332 
L 977.536845 -366.002188 
L 1034.962513 -312.503946 
L 1034.962513 -429.236765 
L 1034.962513 -429.236765 
L 977.536845 -379.818313 
L 920.111176 -367.101501 
L 862.685508 -443.106639 
L 805.25984 -473.637693 
L 747.834171 -457.098325 
L 690.408503 -455.18451 
L 632.982834 -539.521083 
L 575.557166 -529.224931 
L 518.131497 -505.872288 
L 460.705829 -499.810861 
L 403.28016 -407.004342 
L 345.854492 -381.958022 
L 288.428824 -345.091685 
L 231.003155 -296.856677 
L 173.577487 -258.175908 
L 116.151818 -187.238754 
z
" style="stroke: #e377c2; stroke-opacity: 0.2"/>
    </defs>
    <g clip-path="url(#p942fa70f3c)">
     <use xlink:href="#m3638655112" x="0" y="576" style="fill: #e377c2; fill-opacity: 0.2; stroke: #e377c2; stroke-opacity: 0.2"/>
    </g>
   </g>
   <g id="PolyCollection_8">
    <defs>
     <path id="mce1c5ec299" d="M 116.151818 -278.716004 
L 116.151818 -233.830977 
L 173.577487 -219.56966 
L 231.003155 -228.053614 
L 288.428824 -273.726288 
L 345.854492 -339.861537 
L 403.28016 -325.631929 
L 460.705829 -368.641332 
L 518.131497 -335.065275 
L 575.557166 -327.260946 
L 632.982834 -343.691256 
L 690.408503 -357.547576 
L 747.834171 -357.117286 
L 805.25984 -402.781773 
L 862.685508 -431.484267 
L 920.111176 -380.822623 
L 977.536845 -435.560491 
L 1034.962513 -410.708943 
L 1034.962513 -477.264927 
L 1034.962513 -477.264927 
L 977.536845 -455.831536 
L 920.111176 -481.968162 
L 862.685508 -511.855355 
L 805.25984 -518.319693 
L 747.834171 -511.348501 
L 690.408503 -502.692167 
L 632.982834 -502.095788 
L 575.557166 -442.64935 
L 518.131497 -484.934904 
L 460.705829 -485.441616 
L 403.28016 -448.454951 
L 345.854492 -478.866096 
L 288.428824 -416.110241 
L 231.003155 -377.45586 
L 173.577487 -303.850953 
L 116.151818 -278.716004 
z
" style="stroke: #7f7f7f; stroke-opacity: 0.2"/>
    </defs>
    <g clip-path="url(#p942fa70f3c)">
     <use xlink:href="#mce1c5ec299" x="0" y="576" style="fill: #7f7f7f; fill-opacity: 0.2; stroke: #7f7f7f; stroke-opacity: 0.2"/>
    </g>
   </g>
   <g id="matplotlib.axis_1">
    <g id="xtick_1">
     <g id="line2d_1">
      <defs>
       <path id="m8804c133fa" d="M 0 0 
L 0 3.5 
" style="stroke: #000000; stroke-width: 0.8"/>
      </defs>
      <g>
       <use xlink:href="#m8804c133fa" x="87.438984" y="489.832" style="stroke: #000000; stroke-width: 0.8"/>
      </g>
     </g>
     <g id="text_1">
      <!-- 0 -->
      <g transform="translate(81.076484 512.028875) scale(0.2 -0.2)">
       <defs>
        <path id="DejaVuSans-30" d="M 2034 4250 
Q 1547 4250 1301 3770 
Q 1056 3291 1056 2328 
Q 1056 1369 1301 889 
Q 1547 409 2034 409 
Q 2525 409 2770 889 
Q 3016 1369 3016 2328 
Q 3016 3291 2770 3770 
Q 2525 4250 2034 4250 
z
M 2034 4750 
Q 2819 4750 3233 4129 
Q 3647 3509 3647 2328 
Q 3647 1150 3233 529 
Q 2819 -91 2034 -91 
Q 1250 -91 836 529 
Q 422 1150 422 2328 
Q 422 3509 836 4129 
Q 1250 4750 2034 4750 
z
" transform="scale(0.015625)"/>
       </defs>
       <use xlink:href="#DejaVuSans-30"/>
      </g>
     </g>
    </g>
    <g id="xtick_2">
     <g id="line2d_2">
      <g>
       <use xlink:href="#m8804c133fa" x="231.003155" y="489.832" style="stroke: #000000; stroke-width: 0.8"/>
      </g>
     </g>
     <g id="text_2">
      <!-- 5 -->
      <g transform="translate(224.640655 512.028875) scale(0.2 -0.2)">
       <defs>
        <path id="DejaVuSans-35" d="M 691 4666 
L 3169 4666 
L 3169 4134 
L 1269 4134 
L 1269 2991 
Q 1406 3038 1543 3061 
Q 1681 3084 1819 3084 
Q 2600 3084 3056 2656 
Q 3513 2228 3513 1497 
Q 3513 744 3044 326 
Q 2575 -91 1722 -91 
Q 1428 -91 1123 -41 
Q 819 9 494 109 
L 494 744 
Q 775 591 1075 516 
Q 1375 441 1709 441 
Q 2250 441 2565 725 
Q 2881 1009 2881 1497 
Q 2881 1984 2565 2268 
Q 2250 2553 1709 2553 
Q 1456 2553 1204 2497 
Q 953 2441 691 2322 
L 691 4666 
z
" transform="scale(0.015625)"/>
       </defs>
       <use xlink:href="#DejaVuSans-35"/>
      </g>
     </g>
    </g>
    <g id="xtick_3">
     <g id="line2d_3">
      <g>
       <use xlink:href="#m8804c133fa" x="374.567326" y="489.832" style="stroke: #000000; stroke-width: 0.8"/>
      </g>
     </g>
     <g id="text_3">
      <!-- 10 -->
      <g transform="translate(361.842326 512.028875) scale(0.2 -0.2)">
       <defs>
        <path id="DejaVuSans-31" d="M 794 531 
L 1825 531 
L 1825 4091 
L 703 3866 
L 703 4441 
L 1819 4666 
L 2450 4666 
L 2450 531 
L 3481 531 
L 3481 0 
L 794 0 
L 794 531 
z
" transform="scale(0.015625)"/>
       </defs>
       <use xlink:href="#DejaVuSans-31"/>
       <use xlink:href="#DejaVuSans-30" x="63.623047"/>
      </g>
     </g>
    </g>
    <g id="xtick_4">
     <g id="line2d_4">
      <g>
       <use xlink:href="#m8804c133fa" x="518.131497" y="489.832" style="stroke: #000000; stroke-width: 0.8"/>
      </g>
     </g>
     <g id="text_4">
      <!-- 15 -->
      <g transform="translate(505.406497 512.028875) scale(0.2 -0.2)">
       <use xlink:href="#DejaVuSans-31"/>
       <use xlink:href="#DejaVuSans-35" x="63.623047"/>
      </g>
     </g>
    </g>
    <g id="xtick_5">
     <g id="line2d_5">
      <g>
       <use xlink:href="#m8804c133fa" x="661.695668" y="489.832" style="stroke: #000000; stroke-width: 0.8"/>
      </g>
     </g>
     <g id="text_5">
      <!-- 20 -->
      <g transform="translate(648.970668 512.028875) scale(0.2 -0.2)">
       <defs>
        <path id="DejaVuSans-32" d="M 1228 531 
L 3431 531 
L 3431 0 
L 469 0 
L 469 531 
Q 828 903 1448 1529 
Q 2069 2156 2228 2338 
Q 2531 2678 2651 2914 
Q 2772 3150 2772 3378 
Q 2772 3750 2511 3984 
Q 2250 4219 1831 4219 
Q 1534 4219 1204 4116 
Q 875 4013 500 3803 
L 500 4441 
Q 881 4594 1212 4672 
Q 1544 4750 1819 4750 
Q 2544 4750 2975 4387 
Q 3406 4025 3406 3419 
Q 3406 3131 3298 2873 
Q 3191 2616 2906 2266 
Q 2828 2175 2409 1742 
Q 1991 1309 1228 531 
z
" transform="scale(0.015625)"/>
       </defs>
       <use xlink:href="#DejaVuSans-32"/>
       <use xlink:href="#DejaVuSans-30" x="63.623047"/>
      </g>
     </g>
    </g>
    <g id="xtick_6">
     <g id="line2d_6">
      <g>
       <use xlink:href="#m8804c133fa" x="805.25984" y="489.832" style="stroke: #000000; stroke-width: 0.8"/>
      </g>
     </g>
     <g id="text_6">
      <!-- 25 -->
      <g transform="translate(792.53484 512.028875) scale(0.2 -0.2)">
       <use xlink:href="#DejaVuSans-32"/>
       <use xlink:href="#DejaVuSans-35" x="63.623047"/>
      </g>
     </g>
    </g>
    <g id="xtick_7">
     <g id="line2d_7">
      <g>
       <use xlink:href="#m8804c133fa" x="948.824011" y="489.832" style="stroke: #000000; stroke-width: 0.8"/>
      </g>
     </g>
     <g id="text_7">
      <!-- 30 -->
      <g transform="translate(936.099011 512.028875) scale(0.2 -0.2)">
       <defs>
        <path id="DejaVuSans-33" d="M 2597 2516 
Q 3050 2419 3304 2112 
Q 3559 1806 3559 1356 
Q 3559 666 3084 287 
Q 2609 -91 1734 -91 
Q 1441 -91 1130 -33 
Q 819 25 488 141 
L 488 750 
Q 750 597 1062 519 
Q 1375 441 1716 441 
Q 2309 441 2620 675 
Q 2931 909 2931 1356 
Q 2931 1769 2642 2001 
Q 2353 2234 1838 2234 
L 1294 2234 
L 1294 2753 
L 1863 2753 
Q 2328 2753 2575 2939 
Q 2822 3125 2822 3475 
Q 2822 3834 2567 4026 
Q 2313 4219 1838 4219 
Q 1578 4219 1281 4162 
Q 984 4106 628 3988 
L 628 4550 
Q 988 4650 1302 4700 
Q 1616 4750 1894 4750 
Q 2613 4750 3031 4423 
Q 3450 4097 3450 3541 
Q 3450 3153 3228 2886 
Q 3006 2619 2597 2516 
z
" transform="scale(0.015625)"/>
       </defs>
       <use xlink:href="#DejaVuSans-33"/>
       <use xlink:href="#DejaVuSans-30" x="63.623047"/>
      </g>
     </g>
    </g>
    <g id="xtick_8">
     <g id="line2d_8">
      <g>
       <use xlink:href="#m8804c133fa" x="1092.388182" y="489.832" style="stroke: #000000; stroke-width: 0.8"/>
      </g>
     </g>
     <g id="text_8">
      <!-- 35 -->
      <g transform="translate(1079.663182 512.028875) scale(0.2 -0.2)">
       <use xlink:href="#DejaVuSans-33"/>
       <use xlink:href="#DejaVuSans-35" x="63.623047"/>
      </g>
     </g>
    </g>
    <g id="text_9">
     <!-- Percentile Threshold -->
     <g transform="translate(502.490313 535.385125) scale(0.2 -0.2)">
      <defs>
       <path id="DejaVuSans-50" d="M 1259 4147 
L 1259 2394 
L 2053 2394 
Q 2494 2394 2734 2622 
Q 2975 2850 2975 3272 
Q 2975 3691 2734 3919 
Q 2494 4147 2053 4147 
L 1259 4147 
z
M 628 4666 
L 2053 4666 
Q 2838 4666 3239 4311 
Q 3641 3956 3641 3272 
Q 3641 2581 3239 2228 
Q 2838 1875 2053 1875 
L 1259 1875 
L 1259 0 
L 628 0 
L 628 4666 
z
" transform="scale(0.015625)"/>
       <path id="DejaVuSans-65" d="M 3597 1894 
L 3597 1613 
L 953 1613 
Q 991 1019 1311 708 
Q 1631 397 2203 397 
Q 2534 397 2845 478 
Q 3156 559 3463 722 
L 3463 178 
Q 3153 47 2828 -22 
Q 2503 -91 2169 -91 
Q 1331 -91 842 396 
Q 353 884 353 1716 
Q 353 2575 817 3079 
Q 1281 3584 2069 3584 
Q 2775 3584 3186 3129 
Q 3597 2675 3597 1894 
z
M 3022 2063 
Q 3016 2534 2758 2815 
Q 2500 3097 2075 3097 
Q 1594 3097 1305 2825 
Q 1016 2553 972 2059 
L 3022 2063 
z
" transform="scale(0.015625)"/>
       <path id="DejaVuSans-72" d="M 2631 2963 
Q 2534 3019 2420 3045 
Q 2306 3072 2169 3072 
Q 1681 3072 1420 2755 
Q 1159 2438 1159 1844 
L 1159 0 
L 581 0 
L 581 3500 
L 1159 3500 
L 1159 2956 
Q 1341 3275 1631 3429 
Q 1922 3584 2338 3584 
Q 2397 3584 2469 3576 
Q 2541 3569 2628 3553 
L 2631 2963 
z
" transform="scale(0.015625)"/>
       <path id="DejaVuSans-63" d="M 3122 3366 
L 3122 2828 
Q 2878 2963 2633 3030 
Q 2388 3097 2138 3097 
Q 1578 3097 1268 2742 
Q 959 2388 959 1747 
Q 959 1106 1268 751 
Q 1578 397 2138 397 
Q 2388 397 2633 464 
Q 2878 531 3122 666 
L 3122 134 
Q 2881 22 2623 -34 
Q 2366 -91 2075 -91 
Q 1284 -91 818 406 
Q 353 903 353 1747 
Q 353 2603 823 3093 
Q 1294 3584 2113 3584 
Q 2378 3584 2631 3529 
Q 2884 3475 3122 3366 
z
" transform="scale(0.015625)"/>
       <path id="DejaVuSans-6e" d="M 3513 2113 
L 3513 0 
L 2938 0 
L 2938 2094 
Q 2938 2591 2744 2837 
Q 2550 3084 2163 3084 
Q 1697 3084 1428 2787 
Q 1159 2491 1159 1978 
L 1159 0 
L 581 0 
L 581 3500 
L 1159 3500 
L 1159 2956 
Q 1366 3272 1645 3428 
Q 1925 3584 2291 3584 
Q 2894 3584 3203 3211 
Q 3513 2838 3513 2113 
z
" transform="scale(0.015625)"/>
       <path id="DejaVuSans-74" d="M 1172 4494 
L 1172 3500 
L 2356 3500 
L 2356 3053 
L 1172 3053 
L 1172 1153 
Q 1172 725 1289 603 
Q 1406 481 1766 481 
L 2356 481 
L 2356 0 
L 1766 0 
Q 1100 0 847 248 
Q 594 497 594 1153 
L 594 3053 
L 172 3053 
L 172 3500 
L 594 3500 
L 594 4494 
L 1172 4494 
z
" transform="scale(0.015625)"/>
       <path id="DejaVuSans-69" d="M 603 3500 
L 1178 3500 
L 1178 0 
L 603 0 
L 603 3500 
z
M 603 4863 
L 1178 4863 
L 1178 4134 
L 603 4134 
L 603 4863 
z
" transform="scale(0.015625)"/>
       <path id="DejaVuSans-6c" d="M 603 4863 
L 1178 4863 
L 1178 0 
L 603 0 
L 603 4863 
z
" transform="scale(0.015625)"/>
       <path id="DejaVuSans-20" transform="scale(0.015625)"/>
       <path id="DejaVuSans-54" d="M -19 4666 
L 3928 4666 
L 3928 4134 
L 2272 4134 
L 2272 0 
L 1638 0 
L 1638 4134 
L -19 4134 
L -19 4666 
z
" transform="scale(0.015625)"/>
       <path id="DejaVuSans-68" d="M 3513 2113 
L 3513 0 
L 2938 0 
L 2938 2094 
Q 2938 2591 2744 2837 
Q 2550 3084 2163 3084 
Q 1697 3084 1428 2787 
Q 1159 2491 1159 1978 
L 1159 0 
L 581 0 
L 581 4863 
L 1159 4863 
L 1159 2956 
Q 1366 3272 1645 3428 
Q 1925 3584 2291 3584 
Q 2894 3584 3203 3211 
Q 3513 2838 3513 2113 
z
" transform="scale(0.015625)"/>
       <path id="DejaVuSans-73" d="M 2834 3397 
L 2834 2853 
Q 2591 2978 2328 3040 
Q 2066 3103 1784 3103 
Q 1356 3103 1142 2972 
Q 928 2841 928 2578 
Q 928 2378 1081 2264 
Q 1234 2150 1697 2047 
L 1894 2003 
Q 2506 1872 2764 1633 
Q 3022 1394 3022 966 
Q 3022 478 2636 193 
Q 2250 -91 1575 -91 
Q 1294 -91 989 -36 
Q 684 19 347 128 
L 347 722 
Q 666 556 975 473 
Q 1284 391 1588 391 
Q 1994 391 2212 530 
Q 2431 669 2431 922 
Q 2431 1156 2273 1281 
Q 2116 1406 1581 1522 
L 1381 1569 
Q 847 1681 609 1914 
Q 372 2147 372 2553 
Q 372 3047 722 3315 
Q 1072 3584 1716 3584 
Q 2034 3584 2315 3537 
Q 2597 3491 2834 3397 
z
" transform="scale(0.015625)"/>
       <path id="DejaVuSans-6f" d="M 1959 3097 
Q 1497 3097 1228 2736 
Q 959 2375 959 1747 
Q 959 1119 1226 758 
Q 1494 397 1959 397 
Q 2419 397 2687 759 
Q 2956 1122 2956 1747 
Q 2956 2369 2687 2733 
Q 2419 3097 1959 3097 
z
M 1959 3584 
Q 2709 3584 3137 3096 
Q 3566 2609 3566 1747 
Q 3566 888 3137 398 
Q 2709 -91 1959 -91 
Q 1206 -91 779 398 
Q 353 888 353 1747 
Q 353 2609 779 3096 
Q 1206 3584 1959 3584 
z
" transform="scale(0.015625)"/>
       <path id="DejaVuSans-64" d="M 2906 2969 
L 2906 4863 
L 3481 4863 
L 3481 0 
L 2906 0 
L 2906 525 
Q 2725 213 2448 61 
Q 2172 -91 1784 -91 
Q 1150 -91 751 415 
Q 353 922 353 1747 
Q 353 2572 751 3078 
Q 1150 3584 1784 3584 
Q 2172 3584 2448 3432 
Q 2725 3281 2906 2969 
z
M 947 1747 
Q 947 1113 1208 752 
Q 1469 391 1925 391 
Q 2381 391 2643 752 
Q 2906 1113 2906 1747 
Q 2906 2381 2643 2742 
Q 2381 3103 1925 3103 
Q 1469 3103 1208 2742 
Q 947 2381 947 1747 
z
" transform="scale(0.015625)"/>
      </defs>
      <use xlink:href="#DejaVuSans-50"/>
      <use xlink:href="#DejaVuSans-65" x="56.677734"/>
      <use xlink:href="#DejaVuSans-72" x="118.201172"/>
      <use xlink:href="#DejaVuSans-63" x="157.064453"/>
      <use xlink:href="#DejaVuSans-65" x="212.044922"/>
      <use xlink:href="#DejaVuSans-6e" x="273.568359"/>
      <use xlink:href="#DejaVuSans-74" x="336.947266"/>
      <use xlink:href="#DejaVuSans-69" x="376.15625"/>
      <use xlink:href="#DejaVuSans-6c" x="403.939453"/>
      <use xlink:href="#DejaVuSans-65" x="431.722656"/>
      <use xlink:href="#DejaVuSans-20" x="493.246094"/>
      <use xlink:href="#DejaVuSans-54" x="525.033203"/>
      <use xlink:href="#DejaVuSans-68" x="586.117188"/>
      <use xlink:href="#DejaVuSans-72" x="649.496094"/>
      <use xlink:href="#DejaVuSans-65" x="688.359375"/>
      <use xlink:href="#DejaVuSans-73" x="749.882812"/>
      <use xlink:href="#DejaVuSans-68" x="801.982422"/>
      <use xlink:href="#DejaVuSans-6f" x="865.361328"/>
      <use xlink:href="#DejaVuSans-6c" x="926.542969"/>
      <use xlink:href="#DejaVuSans-64" x="954.326172"/>
     </g>
     <!-- (Using "leave_out" Threshold Handling) -->
     <g transform="translate(407.379375 557.78075) scale(0.2 -0.2)">
      <defs>
       <path id="DejaVuSans-28" d="M 1984 4856 
Q 1566 4138 1362 3434 
Q 1159 2731 1159 2009 
Q 1159 1288 1364 580 
Q 1569 -128 1984 -844 
L 1484 -844 
Q 1016 -109 783 600 
Q 550 1309 550 2009 
Q 550 2706 781 3412 
Q 1013 4119 1484 4856 
L 1984 4856 
z
" transform="scale(0.015625)"/>
       <path id="DejaVuSans-55" d="M 556 4666 
L 1191 4666 
L 1191 1831 
Q 1191 1081 1462 751 
Q 1734 422 2344 422 
Q 2950 422 3222 751 
Q 3494 1081 3494 1831 
L 3494 4666 
L 4128 4666 
L 4128 1753 
Q 4128 841 3676 375 
Q 3225 -91 2344 -91 
Q 1459 -91 1007 375 
Q 556 841 556 1753 
L 556 4666 
z
" transform="scale(0.015625)"/>
       <path id="DejaVuSans-67" d="M 2906 1791 
Q 2906 2416 2648 2759 
Q 2391 3103 1925 3103 
Q 1463 3103 1205 2759 
Q 947 2416 947 1791 
Q 947 1169 1205 825 
Q 1463 481 1925 481 
Q 2391 481 2648 825 
Q 2906 1169 2906 1791 
z
M 3481 434 
Q 3481 -459 3084 -895 
Q 2688 -1331 1869 -1331 
Q 1566 -1331 1297 -1286 
Q 1028 -1241 775 -1147 
L 775 -588 
Q 1028 -725 1275 -790 
Q 1522 -856 1778 -856 
Q 2344 -856 2625 -561 
Q 2906 -266 2906 331 
L 2906 616 
Q 2728 306 2450 153 
Q 2172 0 1784 0 
Q 1141 0 747 490 
Q 353 981 353 1791 
Q 353 2603 747 3093 
Q 1141 3584 1784 3584 
Q 2172 3584 2450 3431 
Q 2728 3278 2906 2969 
L 2906 3500 
L 3481 3500 
L 3481 434 
z
" transform="scale(0.015625)"/>
       <path id="DejaVuSans-22" d="M 1147 4666 
L 1147 2931 
L 616 2931 
L 616 4666 
L 1147 4666 
z
M 2328 4666 
L 2328 2931 
L 1797 2931 
L 1797 4666 
L 2328 4666 
z
" transform="scale(0.015625)"/>
       <path id="DejaVuSans-61" d="M 2194 1759 
Q 1497 1759 1228 1600 
Q 959 1441 959 1056 
Q 959 750 1161 570 
Q 1363 391 1709 391 
Q 2188 391 2477 730 
Q 2766 1069 2766 1631 
L 2766 1759 
L 2194 1759 
z
M 3341 1997 
L 3341 0 
L 2766 0 
L 2766 531 
Q 2569 213 2275 61 
Q 1981 -91 1556 -91 
Q 1019 -91 701 211 
Q 384 513 384 1019 
Q 384 1609 779 1909 
Q 1175 2209 1959 2209 
L 2766 2209 
L 2766 2266 
Q 2766 2663 2505 2880 
Q 2244 3097 1772 3097 
Q 1472 3097 1187 3025 
Q 903 2953 641 2809 
L 641 3341 
Q 956 3463 1253 3523 
Q 1550 3584 1831 3584 
Q 2591 3584 2966 3190 
Q 3341 2797 3341 1997 
z
" transform="scale(0.015625)"/>
       <path id="DejaVuSans-76" d="M 191 3500 
L 800 3500 
L 1894 563 
L 2988 3500 
L 3597 3500 
L 2284 0 
L 1503 0 
L 191 3500 
z
" transform="scale(0.015625)"/>
       <path id="DejaVuSans-5f" d="M 3263 -1063 
L 3263 -1509 
L -63 -1509 
L -63 -1063 
L 3263 -1063 
z
" transform="scale(0.015625)"/>
       <path id="DejaVuSans-75" d="M 544 1381 
L 544 3500 
L 1119 3500 
L 1119 1403 
Q 1119 906 1312 657 
Q 1506 409 1894 409 
Q 2359 409 2629 706 
Q 2900 1003 2900 1516 
L 2900 3500 
L 3475 3500 
L 3475 0 
L 2900 0 
L 2900 538 
Q 2691 219 2414 64 
Q 2138 -91 1772 -91 
Q 1169 -91 856 284 
Q 544 659 544 1381 
z
M 1991 3584 
L 1991 3584 
z
" transform="scale(0.015625)"/>
       <path id="DejaVuSans-48" d="M 628 4666 
L 1259 4666 
L 1259 2753 
L 3553 2753 
L 3553 4666 
L 4184 4666 
L 4184 0 
L 3553 0 
L 3553 2222 
L 1259 2222 
L 1259 0 
L 628 0 
L 628 4666 
z
" transform="scale(0.015625)"/>
       <path id="DejaVuSans-29" d="M 513 4856 
L 1013 4856 
Q 1481 4119 1714 3412 
Q 1947 2706 1947 2009 
Q 1947 1309 1714 600 
Q 1481 -109 1013 -844 
L 513 -844 
Q 928 -128 1133 580 
Q 1338 1288 1338 2009 
Q 1338 2731 1133 3434 
Q 928 4138 513 4856 
z
" transform="scale(0.015625)"/>
      </defs>
      <use xlink:href="#DejaVuSans-28"/>
      <use xlink:href="#DejaVuSans-55" x="39.013672"/>
      <use xlink:href="#DejaVuSans-73" x="112.207031"/>
      <use xlink:href="#DejaVuSans-69" x="164.306641"/>
      <use xlink:href="#DejaVuSans-6e" x="192.089844"/>
      <use xlink:href="#DejaVuSans-67" x="255.46875"/>
      <use xlink:href="#DejaVuSans-20" x="318.945312"/>
      <use xlink:href="#DejaVuSans-22" x="350.732422"/>
      <use xlink:href="#DejaVuSans-6c" x="396.728516"/>
      <use xlink:href="#DejaVuSans-65" x="424.511719"/>
      <use xlink:href="#DejaVuSans-61" x="486.035156"/>
      <use xlink:href="#DejaVuSans-76" x="547.314453"/>
      <use xlink:href="#DejaVuSans-65" x="606.494141"/>
      <use xlink:href="#DejaVuSans-5f" x="668.017578"/>
      <use xlink:href="#DejaVuSans-6f" x="718.017578"/>
      <use xlink:href="#DejaVuSans-75" x="779.199219"/>
      <use xlink:href="#DejaVuSans-74" x="842.578125"/>
      <use xlink:href="#DejaVuSans-22" x="881.787109"/>
      <use xlink:href="#DejaVuSans-20" x="927.783203"/>
      <use xlink:href="#DejaVuSans-54" x="959.570312"/>
      <use xlink:href="#DejaVuSans-68" x="1020.654297"/>
      <use xlink:href="#DejaVuSans-72" x="1084.033203"/>
      <use xlink:href="#DejaVuSans-65" x="1122.896484"/>
      <use xlink:href="#DejaVuSans-73" x="1184.419922"/>
      <use xlink:href="#DejaVuSans-68" x="1236.519531"/>
      <use xlink:href="#DejaVuSans-6f" x="1299.898438"/>
      <use xlink:href="#DejaVuSans-6c" x="1361.080078"/>
      <use xlink:href="#DejaVuSans-64" x="1388.863281"/>
      <use xlink:href="#DejaVuSans-20" x="1452.339844"/>
      <use xlink:href="#DejaVuSans-48" x="1484.126953"/>
      <use xlink:href="#DejaVuSans-61" x="1559.322266"/>
      <use xlink:href="#DejaVuSans-6e" x="1620.601562"/>
      <use xlink:href="#DejaVuSans-64" x="1683.980469"/>
      <use xlink:href="#DejaVuSans-6c" x="1747.457031"/>
      <use xlink:href="#DejaVuSans-69" x="1775.240234"/>
      <use xlink:href="#DejaVuSans-6e" x="1803.023438"/>
      <use xlink:href="#DejaVuSans-67" x="1866.402344"/>
      <use xlink:href="#DejaVuSans-29" x="1929.878906"/>
     </g>
    </g>
   </g>
   <g id="matplotlib.axis_2">
    <g id="ytick_1">
     <g id="line2d_9">
      <defs>
       <path id="m3880741d64" d="M 0 0 
L -3.5 0 
" style="stroke: #000000; stroke-width: 0.8"/>
      </defs>
      <g>
       <use xlink:href="#m3880741d64" x="67.34" y="428.455423" style="stroke: #000000; stroke-width: 0.8"/>
      </g>
     </g>
     <g id="text_10">
      <!-- 9 -->
      <g transform="translate(47.615 436.053861) scale(0.2 -0.2)">
       <defs>
        <path id="DejaVuSans-39" d="M 703 97 
L 703 672 
Q 941 559 1184 500 
Q 1428 441 1663 441 
Q 2288 441 2617 861 
Q 2947 1281 2994 2138 
Q 2813 1869 2534 1725 
Q 2256 1581 1919 1581 
Q 1219 1581 811 2004 
Q 403 2428 403 3163 
Q 403 3881 828 4315 
Q 1253 4750 1959 4750 
Q 2769 4750 3195 4129 
Q 3622 3509 3622 2328 
Q 3622 1225 3098 567 
Q 2575 -91 1691 -91 
Q 1453 -91 1209 -44 
Q 966 3 703 97 
z
M 1959 2075 
Q 2384 2075 2632 2365 
Q 2881 2656 2881 3163 
Q 2881 3666 2632 3958 
Q 2384 4250 1959 4250 
Q 1534 4250 1286 3958 
Q 1038 3666 1038 3163 
Q 1038 2656 1286 2365 
Q 1534 2075 1959 2075 
z
" transform="scale(0.015625)"/>
       </defs>
       <use xlink:href="#DejaVuSans-39"/>
      </g>
     </g>
    </g>
    <g id="ytick_2">
     <g id="line2d_10">
      <g>
       <use xlink:href="#m3880741d64" x="67.34" y="362.186084" style="stroke: #000000; stroke-width: 0.8"/>
      </g>
     </g>
     <g id="text_11">
      <!-- 10 -->
      <g transform="translate(34.89 369.784521) scale(0.2 -0.2)">
       <use xlink:href="#DejaVuSans-31"/>
       <use xlink:href="#DejaVuSans-30" x="63.623047"/>
      </g>
     </g>
    </g>
    <g id="ytick_3">
     <g id="line2d_11">
      <g>
       <use xlink:href="#m3880741d64" x="67.34" y="295.916745" style="stroke: #000000; stroke-width: 0.8"/>
      </g>
     </g>
     <g id="text_12">
      <!-- 11 -->
      <g transform="translate(34.89 303.515182) scale(0.2 -0.2)">
       <use xlink:href="#DejaVuSans-31"/>
       <use xlink:href="#DejaVuSans-31" x="63.623047"/>
      </g>
     </g>
    </g>
    <g id="ytick_4">
     <g id="line2d_12">
      <g>
       <use xlink:href="#m3880741d64" x="67.34" y="229.647405" style="stroke: #000000; stroke-width: 0.8"/>
      </g>
     </g>
     <g id="text_13">
      <!-- 12 -->
      <g transform="translate(34.89 237.245843) scale(0.2 -0.2)">
       <use xlink:href="#DejaVuSans-31"/>
       <use xlink:href="#DejaVuSans-32" x="63.623047"/>
      </g>
     </g>
    </g>
    <g id="ytick_5">
     <g id="line2d_13">
      <g>
       <use xlink:href="#m3880741d64" x="67.34" y="163.378066" style="stroke: #000000; stroke-width: 0.8"/>
      </g>
     </g>
     <g id="text_14">
      <!-- 13 -->
      <g transform="translate(34.89 170.976504) scale(0.2 -0.2)">
       <use xlink:href="#DejaVuSans-31"/>
       <use xlink:href="#DejaVuSans-33" x="63.623047"/>
      </g>
     </g>
    </g>
    <g id="ytick_6">
     <g id="line2d_14">
      <g>
       <use xlink:href="#m3880741d64" x="67.34" y="97.108727" style="stroke: #000000; stroke-width: 0.8"/>
      </g>
     </g>
     <g id="text_15">
      <!-- 14 -->
      <g transform="translate(34.89 104.707164) scale(0.2 -0.2)">
       <defs>
        <path id="DejaVuSans-34" d="M 2419 4116 
L 825 1625 
L 2419 1625 
L 2419 4116 
z
M 2253 4666 
L 3047 4666 
L 3047 1625 
L 3713 1625 
L 3713 1100 
L 3047 1100 
L 3047 0 
L 2419 0 
L 2419 1100 
L 313 1100 
L 313 1709 
L 2253 4666 
z
" transform="scale(0.015625)"/>
       </defs>
       <use xlink:href="#DejaVuSans-31"/>
       <use xlink:href="#DejaVuSans-34" x="63.623047"/>
      </g>
     </g>
    </g>
    <g id="ytick_7">
     <g id="line2d_15">
      <g>
       <use xlink:href="#m3880741d64" x="67.34" y="30.839388" style="stroke: #000000; stroke-width: 0.8"/>
      </g>
     </g>
     <g id="text_16">
      <!-- 15 -->
      <g transform="translate(34.89 38.437825) scale(0.2 -0.2)">
       <use xlink:href="#DejaVuSans-31"/>
       <use xlink:href="#DejaVuSans-35" x="63.623047"/>
      </g>
     </g>
    </g>
    <g id="text_17">
     <!-- RMSE -->
     <g transform="translate(26.730625 278.55975) rotate(-90) scale(0.2 -0.2)">
      <defs>
       <path id="DejaVuSans-52" d="M 2841 2188 
Q 3044 2119 3236 1894 
Q 3428 1669 3622 1275 
L 4263 0 
L 3584 0 
L 2988 1197 
Q 2756 1666 2539 1819 
Q 2322 1972 1947 1972 
L 1259 1972 
L 1259 0 
L 628 0 
L 628 4666 
L 2053 4666 
Q 2853 4666 3247 4331 
Q 3641 3997 3641 3322 
Q 3641 2881 3436 2590 
Q 3231 2300 2841 2188 
z
M 1259 4147 
L 1259 2491 
L 2053 2491 
Q 2509 2491 2742 2702 
Q 2975 2913 2975 3322 
Q 2975 3731 2742 3939 
Q 2509 4147 2053 4147 
L 1259 4147 
z
" transform="scale(0.015625)"/>
       <path id="DejaVuSans-4d" d="M 628 4666 
L 1569 4666 
L 2759 1491 
L 3956 4666 
L 4897 4666 
L 4897 0 
L 4281 0 
L 4281 4097 
L 3078 897 
L 2444 897 
L 1241 4097 
L 1241 0 
L 628 0 
L 628 4666 
z
" transform="scale(0.015625)"/>
       <path id="DejaVuSans-53" d="M 3425 4513 
L 3425 3897 
Q 3066 4069 2747 4153 
Q 2428 4238 2131 4238 
Q 1616 4238 1336 4038 
Q 1056 3838 1056 3469 
Q 1056 3159 1242 3001 
Q 1428 2844 1947 2747 
L 2328 2669 
Q 3034 2534 3370 2195 
Q 3706 1856 3706 1288 
Q 3706 609 3251 259 
Q 2797 -91 1919 -91 
Q 1588 -91 1214 -16 
Q 841 59 441 206 
L 441 856 
Q 825 641 1194 531 
Q 1563 422 1919 422 
Q 2459 422 2753 634 
Q 3047 847 3047 1241 
Q 3047 1584 2836 1778 
Q 2625 1972 2144 2069 
L 1759 2144 
Q 1053 2284 737 2584 
Q 422 2884 422 3419 
Q 422 4038 858 4394 
Q 1294 4750 2059 4750 
Q 2388 4750 2728 4690 
Q 3069 4631 3425 4513 
z
" transform="scale(0.015625)"/>
       <path id="DejaVuSans-45" d="M 628 4666 
L 3578 4666 
L 3578 4134 
L 1259 4134 
L 1259 2753 
L 3481 2753 
L 3481 2222 
L 1259 2222 
L 1259 531 
L 3634 531 
L 3634 0 
L 628 0 
L 628 4666 
z
" transform="scale(0.015625)"/>
      </defs>
      <use xlink:href="#DejaVuSans-52"/>
      <use xlink:href="#DejaVuSans-4d" x="69.482422"/>
      <use xlink:href="#DejaVuSans-53" x="155.761719"/>
      <use xlink:href="#DejaVuSans-45" x="219.238281"/>
     </g>
    </g>
   </g>
   <g id="line2d_16">
    <path d="M 116.151818 445.735499 
L 173.577487 426.833084 
L 231.003155 419.274288 
L 288.428824 373.566212 
L 345.854492 313.989745 
L 403.28016 294.30241 
L 460.705829 222.723714 
L 518.131497 228.904693 
L 575.557166 206.915856 
L 632.982834 193.668528 
L 690.408503 209.773812 
L 747.834171 198.488565 
L 805.25984 206.120525 
L 862.685508 213.493031 
L 920.111176 263.771808 
L 977.536845 255.47356 
L 1034.962513 261.312082 
L 1092.388182 244.912204 
" clip-path="url(#p942fa70f3c)" style="fill: none; stroke: #1f77b4; stroke-width: 1.5; stroke-linecap: square"/>
   </g>
   <g id="line2d_17">
    <path d="M 116.151818 394.012046 
L 173.577487 352.232051 
L 231.003155 332.465954 
L 288.428824 304.390277 
L 345.854492 260.493083 
L 403.28016 252.02378 
L 460.705829 184.333303 
L 518.131497 173.603018 
L 575.557166 148.415603 
L 632.982834 154.207416 
L 690.408503 168.597697 
L 747.834171 166.28675 
L 805.25984 139.531003 
L 862.685508 174.450863 
L 920.111176 229.238579 
L 977.536845 204.741176 
L 1034.962513 196.249682 
L 1092.388182 233.711782 
" clip-path="url(#p942fa70f3c)" style="fill: none; stroke: #ff7f0e; stroke-width: 1.5; stroke-linecap: square"/>
   </g>
   <g id="line2d_18">
    <path d="M 116.151818 404.052485 
L 173.577487 395.861689 
L 231.003155 376.320829 
L 288.428824 359.265493 
L 345.854492 294.625344 
L 403.28016 293.372574 
L 460.705829 224.327661 
L 518.131497 209.613693 
L 575.557166 202.786377 
L 632.982834 187.257303 
L 690.408503 212.445126 
L 747.834171 167.442055 
L 805.25984 180.734235 
L 862.685508 222.019191 
L 920.111176 278.226406 
L 977.536845 238.830672 
L 1034.962513 183.587276 
L 1092.388182 199.386025 
" clip-path="url(#p942fa70f3c)" style="fill: none; stroke: #2ca02c; stroke-width: 1.5; stroke-linecap: square"/>
   </g>
   <g id="line2d_19">
    <path d="M 116.151818 318.599205 
L 173.577487 320.277494 
L 231.003155 276.013727 
L 288.428824 232.864439 
L 345.854492 171.446818 
L 403.28016 185.912422 
L 460.705829 151.015341 
L 518.131497 164.658828 
L 575.557166 187.788751 
L 632.982834 156.645086 
L 690.408503 145.433278 
L 747.834171 133.528622 
L 805.25984 123.775992 
L 862.685508 100.426138 
L 920.111176 133.821187 
L 977.536845 127.624584 
L 1034.962513 131.230426 
L 1092.388182 155.390808 
" clip-path="url(#p942fa70f3c)" style="fill: none; stroke: #d62728; stroke-width: 1.5; stroke-linecap: square"/>
   </g>
   <g id="line2d_20">
    <path d="M 116.151818 443.405658 
L 173.577487 433.773906 
L 231.003155 405.902013 
L 288.428824 354.117983 
L 345.854492 283.323675 
L 403.28016 262.668692 
L 460.705829 180.520372 
L 518.131497 175.792636 
L 575.557166 144.777711 
L 632.982834 147.869633 
L 690.408503 149.074428 
L 747.834171 152.02918 
L 805.25984 153.05459 
L 862.685508 174.052669 
L 920.111176 265.739914 
L 977.536845 226.824108 
L 1034.962513 214.314653 
L 1092.388182 217.437927 
" clip-path="url(#p942fa70f3c)" style="fill: none; stroke: #9467bd; stroke-width: 1.5; stroke-linecap: square"/>
   </g>
   <g id="line2d_21">
    <path d="M 116.151818 430.075075 
L 173.577487 410.186596 
L 231.003155 377.858475 
L 288.428824 332.497054 
L 345.854492 302.5972 
L 403.28016 279.100592 
L 460.705829 198.1662 
L 518.131497 204.41564 
L 575.557166 206.662734 
L 632.982834 171.319174 
L 690.408503 201.472959 
L 747.834171 190.511607 
L 805.25984 190.623203 
L 862.685508 200.983671 
L 920.111176 244.995232 
L 977.536845 255.272747 
L 1034.962513 224.860851 
L 1092.388182 217.213909 
" clip-path="url(#p942fa70f3c)" style="fill: none; stroke: #8c564b; stroke-width: 1.5; stroke-linecap: square"/>
   </g>
   <g id="line2d_22">
    <path d="M 116.151818 402.50239 
L 173.577487 359.06739 
L 231.003155 336.549707 
L 288.428824 298.194217 
L 345.854492 250.131325 
L 403.28016 240.031692 
L 460.705829 178.291746 
L 518.131497 171.492543 
L 575.557166 139.211432 
L 632.982834 151.844544 
L 690.408503 166.157635 
L 747.834171 180.748994 
L 805.25984 147.524063 
L 862.685508 172.914185 
L 920.111176 227.529566 
L 977.536845 203.089749 
L 1034.962513 205.129644 
L 1092.388182 233.814017 
" clip-path="url(#p942fa70f3c)" style="fill: none; stroke: #e377c2; stroke-width: 1.5; stroke-linecap: square"/>
   </g>
   <g id="line2d_23">
    <path d="M 116.151818 319.872946 
L 173.577487 320.295169 
L 231.003155 277.076375 
L 288.428824 232.229584 
L 345.854492 170.216294 
L 403.28016 185.683567 
L 460.705829 150.821003 
L 518.131497 165.207328 
L 575.557166 189.213988 
L 632.982834 157.563203 
L 690.408503 146.679213 
L 747.834171 135.421941 
L 805.25984 125.287402 
L 862.685508 100.618064 
L 920.111176 134.895539 
L 977.536845 130.303986 
L 1034.962513 132.013065 
L 1092.388182 159.750119 
" clip-path="url(#p942fa70f3c)" style="fill: none; stroke: #7f7f7f; stroke-width: 1.5; stroke-linecap: square"/>
   </g>
   <g id="line2d_24"/>
   <g id="line2d_25"/>
   <g id="line2d_26"/>
   <g id="line2d_27"/>
   <g id="line2d_28"/>
   <g id="line2d_29"/>
   <g id="line2d_30"/>
   <g id="line2d_31"/>
   <g id="patch_3">
    <path d="M 67.34 489.832 
L 67.34 10.8 
" style="fill: none; stroke: #000000; stroke-width: 0.8; stroke-linejoin: miter; stroke-linecap: square"/>
   </g>
   <g id="patch_4">
    <path d="M 1141.2 489.832 
L 1141.2 10.8 
" style="fill: none; stroke: #000000; stroke-width: 0.8; stroke-linejoin: miter; stroke-linecap: square"/>
   </g>
   <g id="patch_5">
    <path d="M 67.34 489.832 
L 1141.2 489.832 
" style="fill: none; stroke: #000000; stroke-width: 0.8; stroke-linejoin: miter; stroke-linecap: square"/>
   </g>
   <g id="patch_6">
    <path d="M 67.34 10.8 
L 1141.2 10.8 
" style="fill: none; stroke: #000000; stroke-width: 0.8; stroke-linejoin: miter; stroke-linecap: square"/>
   </g>
   <g id="legend_1">
    <g id="patch_7">
     <path d="M 78.54 481.832 
L 274.7775 481.832 
Q 277.9775 481.832 277.9775 478.632 
L 277.9775 290.572 
Q 277.9775 287.372 274.7775 287.372 
L 78.54 287.372 
Q 75.34 287.372 75.34 290.572 
L 75.34 478.632 
Q 75.34 481.832 78.54 481.832 
z
" style="fill: #ffffff; opacity: 0.8; stroke: #cccccc; stroke-linejoin: miter"/>
    </g>
    <g id="line2d_32">
     <path d="M 81.74 300.3295 
L 97.74 300.3295 
L 113.74 300.3295 
" style="fill: none; stroke: #1f77b4; stroke-width: 1.5; stroke-linecap: square"/>
    </g>
    <g id="text_18">
     <!-- gbr -->
     <g transform="translate(126.54 305.9295) scale(0.16 -0.16)">
      <defs>
       <path id="DejaVuSans-62" d="M 3116 1747 
Q 3116 2381 2855 2742 
Q 2594 3103 2138 3103 
Q 1681 3103 1420 2742 
Q 1159 2381 1159 1747 
Q 1159 1113 1420 752 
Q 1681 391 2138 391 
Q 2594 391 2855 752 
Q 3116 1113 3116 1747 
z
M 1159 2969 
Q 1341 3281 1617 3432 
Q 1894 3584 2278 3584 
Q 2916 3584 3314 3078 
Q 3713 2572 3713 1747 
Q 3713 922 3314 415 
Q 2916 -91 2278 -91 
Q 1894 -91 1617 61 
Q 1341 213 1159 525 
L 1159 0 
L 581 0 
L 581 4863 
L 1159 4863 
L 1159 2969 
z
" transform="scale(0.015625)"/>
      </defs>
      <use xlink:href="#DejaVuSans-67"/>
      <use xlink:href="#DejaVuSans-62" x="63.476562"/>
      <use xlink:href="#DejaVuSans-72" x="126.953125"/>
     </g>
    </g>
    <g id="line2d_33">
     <path d="M 81.74 323.8145 
L 97.74 323.8145 
L 113.74 323.8145 
" style="fill: none; stroke: #ff7f0e; stroke-width: 1.5; stroke-linecap: square"/>
    </g>
    <g id="text_19">
     <!-- rf -->
     <g transform="translate(126.54 329.4145) scale(0.16 -0.16)">
      <defs>
       <path id="DejaVuSans-66" d="M 2375 4863 
L 2375 4384 
L 1825 4384 
Q 1516 4384 1395 4259 
Q 1275 4134 1275 3809 
L 1275 3500 
L 2222 3500 
L 2222 3053 
L 1275 3053 
L 1275 0 
L 697 0 
L 697 3053 
L 147 3053 
L 147 3500 
L 697 3500 
L 697 3744 
Q 697 4328 969 4595 
Q 1241 4863 1831 4863 
L 2375 4863 
z
" transform="scale(0.015625)"/>
      </defs>
      <use xlink:href="#DejaVuSans-72"/>
      <use xlink:href="#DejaVuSans-66" x="41.113281"/>
     </g>
    </g>
    <g id="line2d_34">
     <path d="M 81.74 347.2995 
L 97.74 347.2995 
L 113.74 347.2995 
" style="fill: none; stroke: #2ca02c; stroke-width: 1.5; stroke-linecap: square"/>
    </g>
    <g id="text_20">
     <!-- xgb -->
     <g transform="translate(126.54 352.8995) scale(0.16 -0.16)">
      <defs>
       <path id="DejaVuSans-78" d="M 3513 3500 
L 2247 1797 
L 3578 0 
L 2900 0 
L 1881 1375 
L 863 0 
L 184 0 
L 1544 1831 
L 300 3500 
L 978 3500 
L 1906 2253 
L 2834 3500 
L 3513 3500 
z
" transform="scale(0.015625)"/>
      </defs>
      <use xlink:href="#DejaVuSans-78"/>
      <use xlink:href="#DejaVuSans-67" x="59.179688"/>
      <use xlink:href="#DejaVuSans-62" x="122.65625"/>
     </g>
    </g>
    <g id="line2d_35">
     <path d="M 81.74 370.7845 
L 97.74 370.7845 
L 113.74 370.7845 
" style="fill: none; stroke: #d62728; stroke-width: 1.5; stroke-linecap: square"/>
    </g>
    <g id="text_21">
     <!-- BayesianRidge -->
     <g transform="translate(126.54 376.3845) scale(0.16 -0.16)">
      <defs>
       <path id="DejaVuSans-42" d="M 1259 2228 
L 1259 519 
L 2272 519 
Q 2781 519 3026 730 
Q 3272 941 3272 1375 
Q 3272 1813 3026 2020 
Q 2781 2228 2272 2228 
L 1259 2228 
z
M 1259 4147 
L 1259 2741 
L 2194 2741 
Q 2656 2741 2882 2914 
Q 3109 3088 3109 3444 
Q 3109 3797 2882 3972 
Q 2656 4147 2194 4147 
L 1259 4147 
z
M 628 4666 
L 2241 4666 
Q 2963 4666 3353 4366 
Q 3744 4066 3744 3513 
Q 3744 3084 3544 2831 
Q 3344 2578 2956 2516 
Q 3422 2416 3680 2098 
Q 3938 1781 3938 1306 
Q 3938 681 3513 340 
Q 3088 0 2303 0 
L 628 0 
L 628 4666 
z
" transform="scale(0.015625)"/>
       <path id="DejaVuSans-79" d="M 2059 -325 
Q 1816 -950 1584 -1140 
Q 1353 -1331 966 -1331 
L 506 -1331 
L 506 -850 
L 844 -850 
Q 1081 -850 1212 -737 
Q 1344 -625 1503 -206 
L 1606 56 
L 191 3500 
L 800 3500 
L 1894 763 
L 2988 3500 
L 3597 3500 
L 2059 -325 
z
" transform="scale(0.015625)"/>
      </defs>
      <use xlink:href="#DejaVuSans-42"/>
      <use xlink:href="#DejaVuSans-61" x="68.603516"/>
      <use xlink:href="#DejaVuSans-79" x="129.882812"/>
      <use xlink:href="#DejaVuSans-65" x="189.0625"/>
      <use xlink:href="#DejaVuSans-73" x="250.585938"/>
      <use xlink:href="#DejaVuSans-69" x="302.685547"/>
      <use xlink:href="#DejaVuSans-61" x="330.46875"/>
      <use xlink:href="#DejaVuSans-6e" x="391.748047"/>
      <use xlink:href="#DejaVuSans-52" x="455.126953"/>
      <use xlink:href="#DejaVuSans-69" x="524.609375"/>
      <use xlink:href="#DejaVuSans-64" x="552.392578"/>
      <use xlink:href="#DejaVuSans-67" x="615.869141"/>
      <use xlink:href="#DejaVuSans-65" x="679.345703"/>
     </g>
    </g>
    <g id="line2d_36">
     <path d="M 81.74 394.2695 
L 97.74 394.2695 
L 113.74 394.2695 
" style="fill: none; stroke: #9467bd; stroke-width: 1.5; stroke-linecap: square"/>
    </g>
    <g id="text_22">
     <!-- xgb_gs -->
     <g transform="translate(126.54 399.8695) scale(0.16 -0.16)">
      <use xlink:href="#DejaVuSans-78"/>
      <use xlink:href="#DejaVuSans-67" x="59.179688"/>
      <use xlink:href="#DejaVuSans-62" x="122.65625"/>
      <use xlink:href="#DejaVuSans-5f" x="186.132812"/>
      <use xlink:href="#DejaVuSans-67" x="236.132812"/>
      <use xlink:href="#DejaVuSans-73" x="299.609375"/>
     </g>
    </g>
    <g id="line2d_37">
     <path d="M 81.74 418.1995 
L 97.74 418.1995 
L 113.74 418.1995 
" style="fill: none; stroke: #8c564b; stroke-width: 1.5; stroke-linecap: square"/>
    </g>
    <g id="text_23">
     <!-- gbr_gs -->
     <g transform="translate(126.54 423.7995) scale(0.16 -0.16)">
      <use xlink:href="#DejaVuSans-67"/>
      <use xlink:href="#DejaVuSans-62" x="63.476562"/>
      <use xlink:href="#DejaVuSans-72" x="126.953125"/>
      <use xlink:href="#DejaVuSans-5f" x="168.066406"/>
      <use xlink:href="#DejaVuSans-67" x="218.066406"/>
      <use xlink:href="#DejaVuSans-73" x="281.542969"/>
     </g>
    </g>
    <g id="line2d_38">
     <path d="M 81.74 442.1295 
L 97.74 442.1295 
L 113.74 442.1295 
" style="fill: none; stroke: #e377c2; stroke-width: 1.5; stroke-linecap: square"/>
    </g>
    <g id="text_24">
     <!-- rf_gs -->
     <g transform="translate(126.54 447.7295) scale(0.16 -0.16)">
      <use xlink:href="#DejaVuSans-72"/>
      <use xlink:href="#DejaVuSans-66" x="41.113281"/>
      <use xlink:href="#DejaVuSans-5f" x="76.318359"/>
      <use xlink:href="#DejaVuSans-67" x="126.318359"/>
      <use xlink:href="#DejaVuSans-73" x="189.794922"/>
     </g>
    </g>
    <g id="line2d_39">
     <path d="M 81.74 466.0595 
L 97.74 466.0595 
L 113.74 466.0595 
" style="fill: none; stroke: #7f7f7f; stroke-width: 1.5; stroke-linecap: square"/>
    </g>
    <g id="text_25">
     <!-- BayesianRidge_gs -->
     <g transform="translate(126.54 471.6595) scale(0.16 -0.16)">
      <use xlink:href="#DejaVuSans-42"/>
      <use xlink:href="#DejaVuSans-61" x="68.603516"/>
      <use xlink:href="#DejaVuSans-79" x="129.882812"/>
      <use xlink:href="#DejaVuSans-65" x="189.0625"/>
      <use xlink:href="#DejaVuSans-73" x="250.585938"/>
      <use xlink:href="#DejaVuSans-69" x="302.685547"/>
      <use xlink:href="#DejaVuSans-61" x="330.46875"/>
      <use xlink:href="#DejaVuSans-6e" x="391.748047"/>
      <use xlink:href="#DejaVuSans-52" x="455.126953"/>
      <use xlink:href="#DejaVuSans-69" x="524.609375"/>
      <use xlink:href="#DejaVuSans-64" x="552.392578"/>
      <use xlink:href="#DejaVuSans-67" x="615.869141"/>
      <use xlink:href="#DejaVuSans-65" x="679.345703"/>
      <use xlink:href="#DejaVuSans-5f" x="740.869141"/>
      <use xlink:href="#DejaVuSans-67" x="790.869141"/>
      <use xlink:href="#DejaVuSans-73" x="854.345703"/>
     </g>
    </g>
   </g>
  </g>
 </g>
 <defs>
  <clipPath id="p942fa70f3c">
   <rect x="67.34" y="10.8" width="1073.86" height="479.032"/>
  </clipPath>
 </defs>
</svg>
