<?xml version="1.0" encoding="utf-8" standalone="no"?>
<!DOCTYPE svg PUBLIC "-//W3C//DTD SVG 1.1//EN"
  "http://www.w3.org/Graphics/SVG/1.1/DTD/svg11.dtd">
<svg xmlns:xlink="http://www.w3.org/1999/xlink" width="1152pt" height="576pt" viewBox="0 0 1152 576" xmlns="http://www.w3.org/2000/svg" version="1.1">
 <metadata>
  <rdf:RDF xmlns:dc="http://purl.org/dc/elements/1.1/" xmlns:cc="http://creativecommons.org/ns#" xmlns:rdf="http://www.w3.org/1999/02/22-rdf-syntax-ns#">
   <cc:Work>
    <dc:type rdf:resource="http://purl.org/dc/dcmitype/StillImage"/>
    <dc:date>2025-04-21T13:10:58.349287</dc:date>
    <dc:format>image/svg+xml</dc:format>
    <dc:creator>
     <cc:Agent>
      <dc:title>Matplotlib v3.7.1, https://matplotlib.org/</dc:title>
     </cc:Agent>
    </dc:creator>
   </cc:Work>
  </rdf:RDF>
 </metadata>
 <defs>
  <style type="text/css">*{stroke-linejoin: round; stroke-linecap: butt}</style>
 </defs>
 <g id="figure_1">
  <g id="patch_1">
   <path d="M 0 576 
L 1152 576 
L 1152 0 
L 0 0 
z
" style="fill: #ffffff"/>
  </g>
  <g id="axes_1">
   <g id="patch_2">
    <path d="M 86.42 489.832 
L 1141.2 489.832 
L 1141.2 10.8 
L 86.42 10.8 
z
" style="fill: #ffffff"/>
   </g>
   <g id="PolyCollection_1">
    <defs>
     <path id="m86584d9c17" d="M 134.364545 -213.223339 
L 134.364545 -182.301238 
L 190.769893 -107.942182 
L 247.175241 -134.570528 
L 303.580588 -155.898142 
L 359.985936 -156.555167 
L 416.391283 -132.304371 
L 472.796631 -145.839375 
L 529.201979 -128.22535 
L 585.607326 -161.711365 
L 642.012674 -159.283657 
L 698.418021 -186.475029 
L 754.823369 -177.867342 
L 811.228717 -166.898725 
L 867.634064 -137.046619 
L 924.039412 -144.439019 
L 980.444759 -139.552954 
L 1036.850107 -135.109773 
L 1093.255455 -147.254699 
L 1093.255455 -224.30386 
L 1093.255455 -224.30386 
L 1036.850107 -201.320364 
L 980.444759 -230.059092 
L 924.039412 -228.687131 
L 867.634064 -198.514503 
L 811.228717 -244.382181 
L 754.823369 -270.519926 
L 698.418021 -243.159086 
L 642.012674 -232.39699 
L 585.607326 -251.002913 
L 529.201979 -210.85412 
L 472.796631 -204.366004 
L 416.391283 -176.535985 
L 359.985936 -253.481782 
L 303.580588 -213.83068 
L 247.175241 -183.994267 
L 190.769893 -192.235706 
L 134.364545 -213.223339 
z
" style="stroke: #1f77b4; stroke-opacity: 0.2"/>
    </defs>
    <g clip-path="url(#p50dfdbf568)">
     <use xlink:href="#m86584d9c17" x="0" y="576" style="fill: #1f77b4; fill-opacity: 0.2; stroke: #1f77b4; stroke-opacity: 0.2"/>
    </g>
   </g>
   <g id="PolyCollection_2">
    <defs>
     <path id="m5d85168b14" d="M 134.364545 -354.587636 
L 134.364545 -271.165176 
L 190.769893 -261.740465 
L 247.175241 -227.126249 
L 303.580588 -274.70399 
L 359.985936 -226.676228 
L 416.391283 -249.841898 
L 472.796631 -233.020805 
L 529.201979 -255.182535 
L 585.607326 -286.625256 
L 642.012674 -309.156531 
L 698.418021 -301.203034 
L 754.823369 -301.175988 
L 811.228717 -284.055081 
L 867.634064 -242.825701 
L 924.039412 -226.019087 
L 980.444759 -228.036522 
L 1036.850107 -260.611556 
L 1093.255455 -289.514837 
L 1093.255455 -359.452112 
L 1093.255455 -359.452112 
L 1036.850107 -338.715718 
L 980.444759 -299.350676 
L 924.039412 -295.673466 
L 867.634064 -307.872696 
L 811.228717 -393.445871 
L 754.823369 -377.244325 
L 698.418021 -364.040413 
L 642.012674 -379.690034 
L 585.607326 -382.40166 
L 529.201979 -308.860505 
L 472.796631 -311.448341 
L 416.391283 -270.895836 
L 359.985936 -308.883449 
L 303.580588 -395.555837 
L 247.175241 -315.00898 
L 190.769893 -295.221179 
L 134.364545 -354.587636 
z
" style="stroke: #ff7f0e; stroke-opacity: 0.2"/>
    </defs>
    <g clip-path="url(#p50dfdbf568)">
     <use xlink:href="#m5d85168b14" x="0" y="576" style="fill: #ff7f0e; fill-opacity: 0.2; stroke: #ff7f0e; stroke-opacity: 0.2"/>
    </g>
   </g>
   <g id="PolyCollection_3">
    <defs>
     <path id="m48d847785e" d="M 134.364545 -281.330623 
L 134.364545 -247.240925 
L 190.769893 -175.481242 
L 247.175241 -199.571759 
L 303.580588 -181.766013 
L 359.985936 -215.647888 
L 416.391283 -206.943434 
L 472.796631 -206.675375 
L 529.201979 -228.635818 
L 585.607326 -209.996097 
L 642.012674 -261.965371 
L 698.418021 -243.504737 
L 754.823369 -228.15949 
L 811.228717 -257.352964 
L 867.634064 -233.335972 
L 924.039412 -308.721625 
L 980.444759 -246.643282 
L 1036.850107 -222.618001 
L 1093.255455 -244.408783 
L 1093.255455 -341.601447 
L 1093.255455 -341.601447 
L 1036.850107 -333.98625 
L 980.444759 -300.695397 
L 924.039412 -361.90938 
L 867.634064 -292.334707 
L 811.228717 -338.99257 
L 754.823369 -344.734663 
L 698.418021 -337.32213 
L 642.012674 -300.0516 
L 585.607326 -337.826351 
L 529.201979 -309.964748 
L 472.796631 -287.840694 
L 416.391283 -320.684239 
L 359.985936 -299.493554 
L 303.580588 -278.648317 
L 247.175241 -290.197755 
L 190.769893 -280.555212 
L 134.364545 -281.330623 
z
" style="stroke: #2ca02c; stroke-opacity: 0.2"/>
    </defs>
    <g clip-path="url(#p50dfdbf568)">
     <use xlink:href="#m48d847785e" x="0" y="576" style="fill: #2ca02c; fill-opacity: 0.2; stroke: #2ca02c; stroke-opacity: 0.2"/>
    </g>
   </g>
   <g id="PolyCollection_4">
    <defs>
     <path id="mc587e75670" d="M 134.364545 -483.923546 
L 134.364545 -405.701797 
L 190.769893 -389.335285 
L 247.175241 -368.01774 
L 303.580588 -407.594333 
L 359.985936 -364.299824 
L 416.391283 -378.778502 
L 472.796631 -372.190413 
L 529.201979 -400.393426 
L 585.607326 -408.665526 
L 642.012674 -394.551101 
L 698.418021 -399.415476 
L 754.823369 -387.323989 
L 811.228717 -387.499596 
L 867.634064 -377.894896 
L 924.039412 -383.399877 
L 980.444759 -360.140093 
L 1036.850107 -386.565352 
L 1093.255455 -417.218869 
L 1093.255455 -525.990576 
L 1093.255455 -525.990576 
L 1036.850107 -482.352594 
L 980.444759 -485.016849 
L 924.039412 -459.580635 
L 867.634064 -441.093318 
L 811.228717 -498.339106 
L 754.823369 -488.1729 
L 698.418021 -483.916035 
L 642.012674 -488.59704 
L 585.607326 -533.555765 
L 529.201979 -516.123803 
L 472.796631 -526.286437 
L 416.391283 -543.425818 
L 359.985936 -532.53577 
L 303.580588 -480.053939 
L 247.175241 -452.099532 
L 190.769893 -464.951203 
L 134.364545 -483.923546 
z
" style="stroke: #d62728; stroke-opacity: 0.2"/>
    </defs>
    <g clip-path="url(#p50dfdbf568)">
     <use xlink:href="#mc587e75670" x="0" y="576" style="fill: #d62728; fill-opacity: 0.2; stroke: #d62728; stroke-opacity: 0.2"/>
    </g>
   </g>
   <g id="PolyCollection_5">
    <defs>
     <path id="m0fc471fde4" d="M 134.364545 -249.235832 
L 134.364545 -158.113935 
L 190.769893 -120.618454 
L 247.175241 -127.585774 
L 303.580588 -157.686729 
L 359.985936 -143.217377 
L 416.391283 -126.195485 
L 472.796631 -151.641073 
L 529.201979 -138.216002 
L 585.607326 -159.262212 
L 642.012674 -184.620694 
L 698.418021 -173.442029 
L 754.823369 -165.296057 
L 811.228717 -151.479384 
L 867.634064 -148.228354 
L 924.039412 -142.204208 
L 980.444759 -130.622106 
L 1036.850107 -138.022488 
L 1093.255455 -168.231585 
L 1093.255455 -217.347671 
L 1093.255455 -217.347671 
L 1036.850107 -198.621314 
L 980.444759 -211.448606 
L 924.039412 -206.839442 
L 867.634064 -216.130059 
L 811.228717 -243.196667 
L 754.823369 -245.073549 
L 698.418021 -223.16665 
L 642.012674 -217.556051 
L 585.607326 -245.305667 
L 529.201979 -165.183947 
L 472.796631 -191.65334 
L 416.391283 -184.645553 
L 359.985936 -222.333647 
L 303.580588 -215.435924 
L 247.175241 -203.646639 
L 190.769893 -175.810447 
L 134.364545 -249.235832 
z
" style="stroke: #9467bd; stroke-opacity: 0.2"/>
    </defs>
    <g clip-path="url(#p50dfdbf568)">
     <use xlink:href="#m0fc471fde4" x="0" y="576" style="fill: #9467bd; fill-opacity: 0.2; stroke: #9467bd; stroke-opacity: 0.2"/>
    </g>
   </g>
   <g id="PolyCollection_6">
    <defs>
     <path id="m209e31188e" d="M 134.364545 -334.794809 
L 134.364545 -240.341396 
L 190.769893 -246.314279 
L 247.175241 -214.207142 
L 303.580588 -260.959886 
L 359.985936 -203.782121 
L 416.391283 -241.525716 
L 472.796631 -217.841275 
L 529.201979 -246.938729 
L 585.607326 -279.360936 
L 642.012674 -285.103454 
L 698.418021 -286.008959 
L 754.823369 -292.420837 
L 811.228717 -278.064833 
L 867.634064 -227.088038 
L 924.039412 -207.746631 
L 980.444759 -203.303728 
L 1036.850107 -240.823899 
L 1093.255455 -275.335134 
L 1093.255455 -342.512796 
L 1093.255455 -342.512796 
L 1036.850107 -327.521706 
L 980.444759 -270.482587 
L 924.039412 -289.733375 
L 867.634064 -296.230348 
L 811.228717 -377.15915 
L 754.823369 -377.700163 
L 698.418021 -348.226949 
L 642.012674 -361.911782 
L 585.607326 -362.587269 
L 529.201979 -290.371414 
L 472.796631 -276.57824 
L 416.391283 -264.525899 
L 359.985936 -290.409691 
L 303.580588 -370.195059 
L 247.175241 -304.043042 
L 190.769893 -279.347369 
L 134.364545 -334.794809 
z
" style="stroke: #8c564b; stroke-opacity: 0.2"/>
    </defs>
    <g clip-path="url(#p50dfdbf568)">
     <use xlink:href="#m209e31188e" x="0" y="576" style="fill: #8c564b; fill-opacity: 0.2; stroke: #8c564b; stroke-opacity: 0.2"/>
    </g>
   </g>
   <g id="PolyCollection_7">
    <defs>
     <path id="mcc20737d15" d="M 134.364545 -281.659598 
L 134.364545 -181.815294 
L 190.769893 -143.414089 
L 247.175241 -154.201786 
L 303.580588 -182.003681 
L 359.985936 -172.127611 
L 416.391283 -160.247455 
L 472.796631 -175.446724 
L 529.201979 -183.201096 
L 585.607326 -197.519683 
L 642.012674 -192.80019 
L 698.418021 -258.213106 
L 754.823369 -194.105573 
L 811.228717 -207.649568 
L 867.634064 -183.432789 
L 924.039412 -165.830222 
L 980.444759 -153.951427 
L 1036.850107 -142.154709 
L 1093.255455 -173.170466 
L 1093.255455 -238.185055 
L 1093.255455 -238.185055 
L 1036.850107 -206.093556 
L 980.444759 -199.3916 
L 924.039412 -251.31779 
L 867.634064 -237.708377 
L 811.228717 -275.001107 
L 754.823369 -255.875155 
L 698.418021 -285.489079 
L 642.012674 -284.513746 
L 585.607326 -295.952209 
L 529.201979 -242.542754 
L 472.796631 -224.536547 
L 416.391283 -201.045669 
L 359.985936 -308.888618 
L 303.580588 -243.377229 
L 247.175241 -237.420546 
L 190.769893 -229.563899 
L 134.364545 -281.659598 
z
" style="stroke: #e377c2; stroke-opacity: 0.2"/>
    </defs>
    <g clip-path="url(#p50dfdbf568)">
     <use xlink:href="#mcc20737d15" x="0" y="576" style="fill: #e377c2; fill-opacity: 0.2; stroke: #e377c2; stroke-opacity: 0.2"/>
    </g>
   </g>
   <g id="PolyCollection_8">
    <defs>
     <path id="me29c3f0789" d="M 134.364545 -480.811103 
L 134.364545 -402.573322 
L 190.769893 -385.370338 
L 247.175241 -361.560425 
L 303.580588 -404.269328 
L 359.985936 -362.107481 
L 416.391283 -374.508548 
L 472.796631 -371.202484 
L 529.201979 -400.125782 
L 585.607326 -407.370747 
L 642.012674 -392.942191 
L 698.418021 -400.109744 
L 754.823369 -386.68198 
L 811.228717 -386.407339 
L 867.634064 -377.027322 
L 924.039412 -378.371 
L 980.444759 -357.70689 
L 1036.850107 -382.77245 
L 1093.255455 -417.136351 
L 1093.255455 -519.310633 
L 1093.255455 -519.310633 
L 1036.850107 -485.345067 
L 980.444759 -474.721355 
L 924.039412 -453.628038 
L 867.634064 -437.167029 
L 811.228717 -490.212837 
L 754.823369 -478.378597 
L 698.418021 -483.68125 
L 642.012674 -492.737891 
L 585.607326 -526.815041 
L 529.201979 -511.324127 
L 472.796631 -518.632249 
L 416.391283 -533.880342 
L 359.985936 -534.105887 
L 303.580588 -478.551835 
L 247.175241 -453.049492 
L 190.769893 -461.66743 
L 134.364545 -480.811103 
z
" style="stroke: #7f7f7f; stroke-opacity: 0.2"/>
    </defs>
    <g clip-path="url(#p50dfdbf568)">
     <use xlink:href="#me29c3f0789" x="0" y="576" style="fill: #7f7f7f; fill-opacity: 0.2; stroke: #7f7f7f; stroke-opacity: 0.2"/>
    </g>
   </g>
   <g id="matplotlib.axis_1">
    <g id="xtick_1">
     <g id="line2d_1">
      <defs>
       <path id="m48bb7ea421" d="M 0 0 
L 0 3.5 
" style="stroke: #000000; stroke-width: 0.8"/>
      </defs>
      <g>
       <use xlink:href="#m48bb7ea421" x="106.161872" y="489.832" style="stroke: #000000; stroke-width: 0.8"/>
      </g>
     </g>
     <g id="text_1">
      <!-- 0 -->
      <g transform="translate(99.799372 512.028875) scale(0.2 -0.2)">
       <defs>
        <path id="DejaVuSans-30" d="M 2034 4250 
Q 1547 4250 1301 3770 
Q 1056 3291 1056 2328 
Q 1056 1369 1301 889 
Q 1547 409 2034 409 
Q 2525 409 2770 889 
Q 3016 1369 3016 2328 
Q 3016 3291 2770 3770 
Q 2525 4250 2034 4250 
z
M 2034 4750 
Q 2819 4750 3233 4129 
Q 3647 3509 3647 2328 
Q 3647 1150 3233 529 
Q 2819 -91 2034 -91 
Q 1250 -91 836 529 
Q 422 1150 422 2328 
Q 422 3509 836 4129 
Q 1250 4750 2034 4750 
z
" transform="scale(0.015625)"/>
       </defs>
       <use xlink:href="#DejaVuSans-30"/>
      </g>
     </g>
    </g>
    <g id="xtick_2">
     <g id="line2d_2">
      <g>
       <use xlink:href="#m48bb7ea421" x="247.175241" y="489.832" style="stroke: #000000; stroke-width: 0.8"/>
      </g>
     </g>
     <g id="text_2">
      <!-- 5 -->
      <g transform="translate(240.812741 512.028875) scale(0.2 -0.2)">
       <defs>
        <path id="DejaVuSans-35" d="M 691 4666 
L 3169 4666 
L 3169 4134 
L 1269 4134 
L 1269 2991 
Q 1406 3038 1543 3061 
Q 1681 3084 1819 3084 
Q 2600 3084 3056 2656 
Q 3513 2228 3513 1497 
Q 3513 744 3044 326 
Q 2575 -91 1722 -91 
Q 1428 -91 1123 -41 
Q 819 9 494 109 
L 494 744 
Q 775 591 1075 516 
Q 1375 441 1709 441 
Q 2250 441 2565 725 
Q 2881 1009 2881 1497 
Q 2881 1984 2565 2268 
Q 2250 2553 1709 2553 
Q 1456 2553 1204 2497 
Q 953 2441 691 2322 
L 691 4666 
z
" transform="scale(0.015625)"/>
       </defs>
       <use xlink:href="#DejaVuSans-35"/>
      </g>
     </g>
    </g>
    <g id="xtick_3">
     <g id="line2d_3">
      <g>
       <use xlink:href="#m48bb7ea421" x="388.18861" y="489.832" style="stroke: #000000; stroke-width: 0.8"/>
      </g>
     </g>
     <g id="text_3">
      <!-- 10 -->
      <g transform="translate(375.46361 512.028875) scale(0.2 -0.2)">
       <defs>
        <path id="DejaVuSans-31" d="M 794 531 
L 1825 531 
L 1825 4091 
L 703 3866 
L 703 4441 
L 1819 4666 
L 2450 4666 
L 2450 531 
L 3481 531 
L 3481 0 
L 794 0 
L 794 531 
z
" transform="scale(0.015625)"/>
       </defs>
       <use xlink:href="#DejaVuSans-31"/>
       <use xlink:href="#DejaVuSans-30" x="63.623047"/>
      </g>
     </g>
    </g>
    <g id="xtick_4">
     <g id="line2d_4">
      <g>
       <use xlink:href="#m48bb7ea421" x="529.201979" y="489.832" style="stroke: #000000; stroke-width: 0.8"/>
      </g>
     </g>
     <g id="text_4">
      <!-- 15 -->
      <g transform="translate(516.476979 512.028875) scale(0.2 -0.2)">
       <use xlink:href="#DejaVuSans-31"/>
       <use xlink:href="#DejaVuSans-35" x="63.623047"/>
      </g>
     </g>
    </g>
    <g id="xtick_5">
     <g id="line2d_5">
      <g>
       <use xlink:href="#m48bb7ea421" x="670.215348" y="489.832" style="stroke: #000000; stroke-width: 0.8"/>
      </g>
     </g>
     <g id="text_5">
      <!-- 20 -->
      <g transform="translate(657.490348 512.028875) scale(0.2 -0.2)">
       <defs>
        <path id="DejaVuSans-32" d="M 1228 531 
L 3431 531 
L 3431 0 
L 469 0 
L 469 531 
Q 828 903 1448 1529 
Q 2069 2156 2228 2338 
Q 2531 2678 2651 2914 
Q 2772 3150 2772 3378 
Q 2772 3750 2511 3984 
Q 2250 4219 1831 4219 
Q 1534 4219 1204 4116 
Q 875 4013 500 3803 
L 500 4441 
Q 881 4594 1212 4672 
Q 1544 4750 1819 4750 
Q 2544 4750 2975 4387 
Q 3406 4025 3406 3419 
Q 3406 3131 3298 2873 
Q 3191 2616 2906 2266 
Q 2828 2175 2409 1742 
Q 1991 1309 1228 531 
z
" transform="scale(0.015625)"/>
       </defs>
       <use xlink:href="#DejaVuSans-32"/>
       <use xlink:href="#DejaVuSans-30" x="63.623047"/>
      </g>
     </g>
    </g>
    <g id="xtick_6">
     <g id="line2d_6">
      <g>
       <use xlink:href="#m48bb7ea421" x="811.228717" y="489.832" style="stroke: #000000; stroke-width: 0.8"/>
      </g>
     </g>
     <g id="text_6">
      <!-- 25 -->
      <g transform="translate(798.503717 512.028875) scale(0.2 -0.2)">
       <use xlink:href="#DejaVuSans-32"/>
       <use xlink:href="#DejaVuSans-35" x="63.623047"/>
      </g>
     </g>
    </g>
    <g id="xtick_7">
     <g id="line2d_7">
      <g>
       <use xlink:href="#m48bb7ea421" x="952.242086" y="489.832" style="stroke: #000000; stroke-width: 0.8"/>
      </g>
     </g>
     <g id="text_7">
      <!-- 30 -->
      <g transform="translate(939.517086 512.028875) scale(0.2 -0.2)">
       <defs>
        <path id="DejaVuSans-33" d="M 2597 2516 
Q 3050 2419 3304 2112 
Q 3559 1806 3559 1356 
Q 3559 666 3084 287 
Q 2609 -91 1734 -91 
Q 1441 -91 1130 -33 
Q 819 25 488 141 
L 488 750 
Q 750 597 1062 519 
Q 1375 441 1716 441 
Q 2309 441 2620 675 
Q 2931 909 2931 1356 
Q 2931 1769 2642 2001 
Q 2353 2234 1838 2234 
L 1294 2234 
L 1294 2753 
L 1863 2753 
Q 2328 2753 2575 2939 
Q 2822 3125 2822 3475 
Q 2822 3834 2567 4026 
Q 2313 4219 1838 4219 
Q 1578 4219 1281 4162 
Q 984 4106 628 3988 
L 628 4550 
Q 988 4650 1302 4700 
Q 1616 4750 1894 4750 
Q 2613 4750 3031 4423 
Q 3450 4097 3450 3541 
Q 3450 3153 3228 2886 
Q 3006 2619 2597 2516 
z
" transform="scale(0.015625)"/>
       </defs>
       <use xlink:href="#DejaVuSans-33"/>
       <use xlink:href="#DejaVuSans-30" x="63.623047"/>
      </g>
     </g>
    </g>
    <g id="xtick_8">
     <g id="line2d_8">
      <g>
       <use xlink:href="#m48bb7ea421" x="1093.255455" y="489.832" style="stroke: #000000; stroke-width: 0.8"/>
      </g>
     </g>
     <g id="text_8">
      <!-- 35 -->
      <g transform="translate(1080.530455 512.028875) scale(0.2 -0.2)">
       <use xlink:href="#DejaVuSans-33"/>
       <use xlink:href="#DejaVuSans-35" x="63.623047"/>
      </g>
     </g>
    </g>
    <g id="text_9">
     <!-- Percentile Threshold -->
     <g transform="translate(512.030312 535.385125) scale(0.2 -0.2)">
      <defs>
       <path id="DejaVuSans-50" d="M 1259 4147 
L 1259 2394 
L 2053 2394 
Q 2494 2394 2734 2622 
Q 2975 2850 2975 3272 
Q 2975 3691 2734 3919 
Q 2494 4147 2053 4147 
L 1259 4147 
z
M 628 4666 
L 2053 4666 
Q 2838 4666 3239 4311 
Q 3641 3956 3641 3272 
Q 3641 2581 3239 2228 
Q 2838 1875 2053 1875 
L 1259 1875 
L 1259 0 
L 628 0 
L 628 4666 
z
" transform="scale(0.015625)"/>
       <path id="DejaVuSans-65" d="M 3597 1894 
L 3597 1613 
L 953 1613 
Q 991 1019 1311 708 
Q 1631 397 2203 397 
Q 2534 397 2845 478 
Q 3156 559 3463 722 
L 3463 178 
Q 3153 47 2828 -22 
Q 2503 -91 2169 -91 
Q 1331 -91 842 396 
Q 353 884 353 1716 
Q 353 2575 817 3079 
Q 1281 3584 2069 3584 
Q 2775 3584 3186 3129 
Q 3597 2675 3597 1894 
z
M 3022 2063 
Q 3016 2534 2758 2815 
Q 2500 3097 2075 3097 
Q 1594 3097 1305 2825 
Q 1016 2553 972 2059 
L 3022 2063 
z
" transform="scale(0.015625)"/>
       <path id="DejaVuSans-72" d="M 2631 2963 
Q 2534 3019 2420 3045 
Q 2306 3072 2169 3072 
Q 1681 3072 1420 2755 
Q 1159 2438 1159 1844 
L 1159 0 
L 581 0 
L 581 3500 
L 1159 3500 
L 1159 2956 
Q 1341 3275 1631 3429 
Q 1922 3584 2338 3584 
Q 2397 3584 2469 3576 
Q 2541 3569 2628 3553 
L 2631 2963 
z
" transform="scale(0.015625)"/>
       <path id="DejaVuSans-63" d="M 3122 3366 
L 3122 2828 
Q 2878 2963 2633 3030 
Q 2388 3097 2138 3097 
Q 1578 3097 1268 2742 
Q 959 2388 959 1747 
Q 959 1106 1268 751 
Q 1578 397 2138 397 
Q 2388 397 2633 464 
Q 2878 531 3122 666 
L 3122 134 
Q 2881 22 2623 -34 
Q 2366 -91 2075 -91 
Q 1284 -91 818 406 
Q 353 903 353 1747 
Q 353 2603 823 3093 
Q 1294 3584 2113 3584 
Q 2378 3584 2631 3529 
Q 2884 3475 3122 3366 
z
" transform="scale(0.015625)"/>
       <path id="DejaVuSans-6e" d="M 3513 2113 
L 3513 0 
L 2938 0 
L 2938 2094 
Q 2938 2591 2744 2837 
Q 2550 3084 2163 3084 
Q 1697 3084 1428 2787 
Q 1159 2491 1159 1978 
L 1159 0 
L 581 0 
L 581 3500 
L 1159 3500 
L 1159 2956 
Q 1366 3272 1645 3428 
Q 1925 3584 2291 3584 
Q 2894 3584 3203 3211 
Q 3513 2838 3513 2113 
z
" transform="scale(0.015625)"/>
       <path id="DejaVuSans-74" d="M 1172 4494 
L 1172 3500 
L 2356 3500 
L 2356 3053 
L 1172 3053 
L 1172 1153 
Q 1172 725 1289 603 
Q 1406 481 1766 481 
L 2356 481 
L 2356 0 
L 1766 0 
Q 1100 0 847 248 
Q 594 497 594 1153 
L 594 3053 
L 172 3053 
L 172 3500 
L 594 3500 
L 594 4494 
L 1172 4494 
z
" transform="scale(0.015625)"/>
       <path id="DejaVuSans-69" d="M 603 3500 
L 1178 3500 
L 1178 0 
L 603 0 
L 603 3500 
z
M 603 4863 
L 1178 4863 
L 1178 4134 
L 603 4134 
L 603 4863 
z
" transform="scale(0.015625)"/>
       <path id="DejaVuSans-6c" d="M 603 4863 
L 1178 4863 
L 1178 0 
L 603 0 
L 603 4863 
z
" transform="scale(0.015625)"/>
       <path id="DejaVuSans-20" transform="scale(0.015625)"/>
       <path id="DejaVuSans-54" d="M -19 4666 
L 3928 4666 
L 3928 4134 
L 2272 4134 
L 2272 0 
L 1638 0 
L 1638 4134 
L -19 4134 
L -19 4666 
z
" transform="scale(0.015625)"/>
       <path id="DejaVuSans-68" d="M 3513 2113 
L 3513 0 
L 2938 0 
L 2938 2094 
Q 2938 2591 2744 2837 
Q 2550 3084 2163 3084 
Q 1697 3084 1428 2787 
Q 1159 2491 1159 1978 
L 1159 0 
L 581 0 
L 581 4863 
L 1159 4863 
L 1159 2956 
Q 1366 3272 1645 3428 
Q 1925 3584 2291 3584 
Q 2894 3584 3203 3211 
Q 3513 2838 3513 2113 
z
" transform="scale(0.015625)"/>
       <path id="DejaVuSans-73" d="M 2834 3397 
L 2834 2853 
Q 2591 2978 2328 3040 
Q 2066 3103 1784 3103 
Q 1356 3103 1142 2972 
Q 928 2841 928 2578 
Q 928 2378 1081 2264 
Q 1234 2150 1697 2047 
L 1894 2003 
Q 2506 1872 2764 1633 
Q 3022 1394 3022 966 
Q 3022 478 2636 193 
Q 2250 -91 1575 -91 
Q 1294 -91 989 -36 
Q 684 19 347 128 
L 347 722 
Q 666 556 975 473 
Q 1284 391 1588 391 
Q 1994 391 2212 530 
Q 2431 669 2431 922 
Q 2431 1156 2273 1281 
Q 2116 1406 1581 1522 
L 1381 1569 
Q 847 1681 609 1914 
Q 372 2147 372 2553 
Q 372 3047 722 3315 
Q 1072 3584 1716 3584 
Q 2034 3584 2315 3537 
Q 2597 3491 2834 3397 
z
" transform="scale(0.015625)"/>
       <path id="DejaVuSans-6f" d="M 1959 3097 
Q 1497 3097 1228 2736 
Q 959 2375 959 1747 
Q 959 1119 1226 758 
Q 1494 397 1959 397 
Q 2419 397 2687 759 
Q 2956 1122 2956 1747 
Q 2956 2369 2687 2733 
Q 2419 3097 1959 3097 
z
M 1959 3584 
Q 2709 3584 3137 3096 
Q 3566 2609 3566 1747 
Q 3566 888 3137 398 
Q 2709 -91 1959 -91 
Q 1206 -91 779 398 
Q 353 888 353 1747 
Q 353 2609 779 3096 
Q 1206 3584 1959 3584 
z
" transform="scale(0.015625)"/>
       <path id="DejaVuSans-64" d="M 2906 2969 
L 2906 4863 
L 3481 4863 
L 3481 0 
L 2906 0 
L 2906 525 
Q 2725 213 2448 61 
Q 2172 -91 1784 -91 
Q 1150 -91 751 415 
Q 353 922 353 1747 
Q 353 2572 751 3078 
Q 1150 3584 1784 3584 
Q 2172 3584 2448 3432 
Q 2725 3281 2906 2969 
z
M 947 1747 
Q 947 1113 1208 752 
Q 1469 391 1925 391 
Q 2381 391 2643 752 
Q 2906 1113 2906 1747 
Q 2906 2381 2643 2742 
Q 2381 3103 1925 3103 
Q 1469 3103 1208 2742 
Q 947 2381 947 1747 
z
" transform="scale(0.015625)"/>
      </defs>
      <use xlink:href="#DejaVuSans-50"/>
      <use xlink:href="#DejaVuSans-65" x="56.677734"/>
      <use xlink:href="#DejaVuSans-72" x="118.201172"/>
      <use xlink:href="#DejaVuSans-63" x="157.064453"/>
      <use xlink:href="#DejaVuSans-65" x="212.044922"/>
      <use xlink:href="#DejaVuSans-6e" x="273.568359"/>
      <use xlink:href="#DejaVuSans-74" x="336.947266"/>
      <use xlink:href="#DejaVuSans-69" x="376.15625"/>
      <use xlink:href="#DejaVuSans-6c" x="403.939453"/>
      <use xlink:href="#DejaVuSans-65" x="431.722656"/>
      <use xlink:href="#DejaVuSans-20" x="493.246094"/>
      <use xlink:href="#DejaVuSans-54" x="525.033203"/>
      <use xlink:href="#DejaVuSans-68" x="586.117188"/>
      <use xlink:href="#DejaVuSans-72" x="649.496094"/>
      <use xlink:href="#DejaVuSans-65" x="688.359375"/>
      <use xlink:href="#DejaVuSans-73" x="749.882812"/>
      <use xlink:href="#DejaVuSans-68" x="801.982422"/>
      <use xlink:href="#DejaVuSans-6f" x="865.361328"/>
      <use xlink:href="#DejaVuSans-6c" x="926.542969"/>
      <use xlink:href="#DejaVuSans-64" x="954.326172"/>
     </g>
     <!-- (Using "max_mean" Threshold Handling) -->
     <g transform="translate(410.280312 557.78075) scale(0.2 -0.2)">
      <defs>
       <path id="DejaVuSans-28" d="M 1984 4856 
Q 1566 4138 1362 3434 
Q 1159 2731 1159 2009 
Q 1159 1288 1364 580 
Q 1569 -128 1984 -844 
L 1484 -844 
Q 1016 -109 783 600 
Q 550 1309 550 2009 
Q 550 2706 781 3412 
Q 1013 4119 1484 4856 
L 1984 4856 
z
" transform="scale(0.015625)"/>
       <path id="DejaVuSans-55" d="M 556 4666 
L 1191 4666 
L 1191 1831 
Q 1191 1081 1462 751 
Q 1734 422 2344 422 
Q 2950 422 3222 751 
Q 3494 1081 3494 1831 
L 3494 4666 
L 4128 4666 
L 4128 1753 
Q 4128 841 3676 375 
Q 3225 -91 2344 -91 
Q 1459 -91 1007 375 
Q 556 841 556 1753 
L 556 4666 
z
" transform="scale(0.015625)"/>
       <path id="DejaVuSans-67" d="M 2906 1791 
Q 2906 2416 2648 2759 
Q 2391 3103 1925 3103 
Q 1463 3103 1205 2759 
Q 947 2416 947 1791 
Q 947 1169 1205 825 
Q 1463 481 1925 481 
Q 2391 481 2648 825 
Q 2906 1169 2906 1791 
z
M 3481 434 
Q 3481 -459 3084 -895 
Q 2688 -1331 1869 -1331 
Q 1566 -1331 1297 -1286 
Q 1028 -1241 775 -1147 
L 775 -588 
Q 1028 -725 1275 -790 
Q 1522 -856 1778 -856 
Q 2344 -856 2625 -561 
Q 2906 -266 2906 331 
L 2906 616 
Q 2728 306 2450 153 
Q 2172 0 1784 0 
Q 1141 0 747 490 
Q 353 981 353 1791 
Q 353 2603 747 3093 
Q 1141 3584 1784 3584 
Q 2172 3584 2450 3431 
Q 2728 3278 2906 2969 
L 2906 3500 
L 3481 3500 
L 3481 434 
z
" transform="scale(0.015625)"/>
       <path id="DejaVuSans-22" d="M 1147 4666 
L 1147 2931 
L 616 2931 
L 616 4666 
L 1147 4666 
z
M 2328 4666 
L 2328 2931 
L 1797 2931 
L 1797 4666 
L 2328 4666 
z
" transform="scale(0.015625)"/>
       <path id="DejaVuSans-6d" d="M 3328 2828 
Q 3544 3216 3844 3400 
Q 4144 3584 4550 3584 
Q 5097 3584 5394 3201 
Q 5691 2819 5691 2113 
L 5691 0 
L 5113 0 
L 5113 2094 
Q 5113 2597 4934 2840 
Q 4756 3084 4391 3084 
Q 3944 3084 3684 2787 
Q 3425 2491 3425 1978 
L 3425 0 
L 2847 0 
L 2847 2094 
Q 2847 2600 2669 2842 
Q 2491 3084 2119 3084 
Q 1678 3084 1418 2786 
Q 1159 2488 1159 1978 
L 1159 0 
L 581 0 
L 581 3500 
L 1159 3500 
L 1159 2956 
Q 1356 3278 1631 3431 
Q 1906 3584 2284 3584 
Q 2666 3584 2933 3390 
Q 3200 3197 3328 2828 
z
" transform="scale(0.015625)"/>
       <path id="DejaVuSans-61" d="M 2194 1759 
Q 1497 1759 1228 1600 
Q 959 1441 959 1056 
Q 959 750 1161 570 
Q 1363 391 1709 391 
Q 2188 391 2477 730 
Q 2766 1069 2766 1631 
L 2766 1759 
L 2194 1759 
z
M 3341 1997 
L 3341 0 
L 2766 0 
L 2766 531 
Q 2569 213 2275 61 
Q 1981 -91 1556 -91 
Q 1019 -91 701 211 
Q 384 513 384 1019 
Q 384 1609 779 1909 
Q 1175 2209 1959 2209 
L 2766 2209 
L 2766 2266 
Q 2766 2663 2505 2880 
Q 2244 3097 1772 3097 
Q 1472 3097 1187 3025 
Q 903 2953 641 2809 
L 641 3341 
Q 956 3463 1253 3523 
Q 1550 3584 1831 3584 
Q 2591 3584 2966 3190 
Q 3341 2797 3341 1997 
z
" transform="scale(0.015625)"/>
       <path id="DejaVuSans-78" d="M 3513 3500 
L 2247 1797 
L 3578 0 
L 2900 0 
L 1881 1375 
L 863 0 
L 184 0 
L 1544 1831 
L 300 3500 
L 978 3500 
L 1906 2253 
L 2834 3500 
L 3513 3500 
z
" transform="scale(0.015625)"/>
       <path id="DejaVuSans-5f" d="M 3263 -1063 
L 3263 -1509 
L -63 -1509 
L -63 -1063 
L 3263 -1063 
z
" transform="scale(0.015625)"/>
       <path id="DejaVuSans-48" d="M 628 4666 
L 1259 4666 
L 1259 2753 
L 3553 2753 
L 3553 4666 
L 4184 4666 
L 4184 0 
L 3553 0 
L 3553 2222 
L 1259 2222 
L 1259 0 
L 628 0 
L 628 4666 
z
" transform="scale(0.015625)"/>
       <path id="DejaVuSans-29" d="M 513 4856 
L 1013 4856 
Q 1481 4119 1714 3412 
Q 1947 2706 1947 2009 
Q 1947 1309 1714 600 
Q 1481 -109 1013 -844 
L 513 -844 
Q 928 -128 1133 580 
Q 1338 1288 1338 2009 
Q 1338 2731 1133 3434 
Q 928 4138 513 4856 
z
" transform="scale(0.015625)"/>
      </defs>
      <use xlink:href="#DejaVuSans-28"/>
      <use xlink:href="#DejaVuSans-55" x="39.013672"/>
      <use xlink:href="#DejaVuSans-73" x="112.207031"/>
      <use xlink:href="#DejaVuSans-69" x="164.306641"/>
      <use xlink:href="#DejaVuSans-6e" x="192.089844"/>
      <use xlink:href="#DejaVuSans-67" x="255.46875"/>
      <use xlink:href="#DejaVuSans-20" x="318.945312"/>
      <use xlink:href="#DejaVuSans-22" x="350.732422"/>
      <use xlink:href="#DejaVuSans-6d" x="396.728516"/>
      <use xlink:href="#DejaVuSans-61" x="494.140625"/>
      <use xlink:href="#DejaVuSans-78" x="555.419922"/>
      <use xlink:href="#DejaVuSans-5f" x="614.599609"/>
      <use xlink:href="#DejaVuSans-6d" x="664.599609"/>
      <use xlink:href="#DejaVuSans-65" x="762.011719"/>
      <use xlink:href="#DejaVuSans-61" x="823.535156"/>
      <use xlink:href="#DejaVuSans-6e" x="884.814453"/>
      <use xlink:href="#DejaVuSans-22" x="948.193359"/>
      <use xlink:href="#DejaVuSans-20" x="994.189453"/>
      <use xlink:href="#DejaVuSans-54" x="1025.976562"/>
      <use xlink:href="#DejaVuSans-68" x="1087.060547"/>
      <use xlink:href="#DejaVuSans-72" x="1150.439453"/>
      <use xlink:href="#DejaVuSans-65" x="1189.302734"/>
      <use xlink:href="#DejaVuSans-73" x="1250.826172"/>
      <use xlink:href="#DejaVuSans-68" x="1302.925781"/>
      <use xlink:href="#DejaVuSans-6f" x="1366.304688"/>
      <use xlink:href="#DejaVuSans-6c" x="1427.486328"/>
      <use xlink:href="#DejaVuSans-64" x="1455.269531"/>
      <use xlink:href="#DejaVuSans-20" x="1518.746094"/>
      <use xlink:href="#DejaVuSans-48" x="1550.533203"/>
      <use xlink:href="#DejaVuSans-61" x="1625.728516"/>
      <use xlink:href="#DejaVuSans-6e" x="1687.007812"/>
      <use xlink:href="#DejaVuSans-64" x="1750.386719"/>
      <use xlink:href="#DejaVuSans-6c" x="1813.863281"/>
      <use xlink:href="#DejaVuSans-69" x="1841.646484"/>
      <use xlink:href="#DejaVuSans-6e" x="1869.429688"/>
      <use xlink:href="#DejaVuSans-67" x="1932.808594"/>
      <use xlink:href="#DejaVuSans-29" x="1996.285156"/>
     </g>
    </g>
   </g>
   <g id="matplotlib.axis_2">
    <g id="ytick_1">
     <g id="line2d_9">
      <defs>
       <path id="me889446168" d="M 0 0 
L -3.5 0 
" style="stroke: #000000; stroke-width: 0.8"/>
      </defs>
      <g>
       <use xlink:href="#me889446168" x="86.42" y="483.06567" style="stroke: #000000; stroke-width: 0.8"/>
      </g>
     </g>
     <g id="text_10">
      <!-- 8.0 -->
      <g transform="translate(47.61375 490.664107) scale(0.2 -0.2)">
       <defs>
        <path id="DejaVuSans-38" d="M 2034 2216 
Q 1584 2216 1326 1975 
Q 1069 1734 1069 1313 
Q 1069 891 1326 650 
Q 1584 409 2034 409 
Q 2484 409 2743 651 
Q 3003 894 3003 1313 
Q 3003 1734 2745 1975 
Q 2488 2216 2034 2216 
z
M 1403 2484 
Q 997 2584 770 2862 
Q 544 3141 544 3541 
Q 544 4100 942 4425 
Q 1341 4750 2034 4750 
Q 2731 4750 3128 4425 
Q 3525 4100 3525 3541 
Q 3525 3141 3298 2862 
Q 3072 2584 2669 2484 
Q 3125 2378 3379 2068 
Q 3634 1759 3634 1313 
Q 3634 634 3220 271 
Q 2806 -91 2034 -91 
Q 1263 -91 848 271 
Q 434 634 434 1313 
Q 434 1759 690 2068 
Q 947 2378 1403 2484 
z
M 1172 3481 
Q 1172 3119 1398 2916 
Q 1625 2713 2034 2713 
Q 2441 2713 2670 2916 
Q 2900 3119 2900 3481 
Q 2900 3844 2670 4047 
Q 2441 4250 2034 4250 
Q 1625 4250 1398 4047 
Q 1172 3844 1172 3481 
z
" transform="scale(0.015625)"/>
        <path id="DejaVuSans-2e" d="M 684 794 
L 1344 794 
L 1344 0 
L 684 0 
L 684 794 
z
" transform="scale(0.015625)"/>
       </defs>
       <use xlink:href="#DejaVuSans-38"/>
       <use xlink:href="#DejaVuSans-2e" x="63.623047"/>
       <use xlink:href="#DejaVuSans-30" x="95.410156"/>
      </g>
     </g>
    </g>
    <g id="ytick_2">
     <g id="line2d_10">
      <g>
       <use xlink:href="#me889446168" x="86.42" y="409.741997" style="stroke: #000000; stroke-width: 0.8"/>
      </g>
     </g>
     <g id="text_11">
      <!-- 8.5 -->
      <g transform="translate(47.61375 417.340434) scale(0.2 -0.2)">
       <use xlink:href="#DejaVuSans-38"/>
       <use xlink:href="#DejaVuSans-2e" x="63.623047"/>
       <use xlink:href="#DejaVuSans-35" x="95.410156"/>
      </g>
     </g>
    </g>
    <g id="ytick_3">
     <g id="line2d_11">
      <g>
       <use xlink:href="#me889446168" x="86.42" y="336.418324" style="stroke: #000000; stroke-width: 0.8"/>
      </g>
     </g>
     <g id="text_12">
      <!-- 9.0 -->
      <g transform="translate(47.61375 344.016761) scale(0.2 -0.2)">
       <defs>
        <path id="DejaVuSans-39" d="M 703 97 
L 703 672 
Q 941 559 1184 500 
Q 1428 441 1663 441 
Q 2288 441 2617 861 
Q 2947 1281 2994 2138 
Q 2813 1869 2534 1725 
Q 2256 1581 1919 1581 
Q 1219 1581 811 2004 
Q 403 2428 403 3163 
Q 403 3881 828 4315 
Q 1253 4750 1959 4750 
Q 2769 4750 3195 4129 
Q 3622 3509 3622 2328 
Q 3622 1225 3098 567 
Q 2575 -91 1691 -91 
Q 1453 -91 1209 -44 
Q 966 3 703 97 
z
M 1959 2075 
Q 2384 2075 2632 2365 
Q 2881 2656 2881 3163 
Q 2881 3666 2632 3958 
Q 2384 4250 1959 4250 
Q 1534 4250 1286 3958 
Q 1038 3666 1038 3163 
Q 1038 2656 1286 2365 
Q 1534 2075 1959 2075 
z
" transform="scale(0.015625)"/>
       </defs>
       <use xlink:href="#DejaVuSans-39"/>
       <use xlink:href="#DejaVuSans-2e" x="63.623047"/>
       <use xlink:href="#DejaVuSans-30" x="95.410156"/>
      </g>
     </g>
    </g>
    <g id="ytick_4">
     <g id="line2d_12">
      <g>
       <use xlink:href="#me889446168" x="86.42" y="263.094651" style="stroke: #000000; stroke-width: 0.8"/>
      </g>
     </g>
     <g id="text_13">
      <!-- 9.5 -->
      <g transform="translate(47.61375 270.693088) scale(0.2 -0.2)">
       <use xlink:href="#DejaVuSans-39"/>
       <use xlink:href="#DejaVuSans-2e" x="63.623047"/>
       <use xlink:href="#DejaVuSans-35" x="95.410156"/>
      </g>
     </g>
    </g>
    <g id="ytick_5">
     <g id="line2d_13">
      <g>
       <use xlink:href="#me889446168" x="86.42" y="189.770978" style="stroke: #000000; stroke-width: 0.8"/>
      </g>
     </g>
     <g id="text_14">
      <!-- 10.0 -->
      <g transform="translate(34.88875 197.369415) scale(0.2 -0.2)">
       <use xlink:href="#DejaVuSans-31"/>
       <use xlink:href="#DejaVuSans-30" x="63.623047"/>
       <use xlink:href="#DejaVuSans-2e" x="127.246094"/>
       <use xlink:href="#DejaVuSans-30" x="159.033203"/>
      </g>
     </g>
    </g>
    <g id="ytick_6">
     <g id="line2d_14">
      <g>
       <use xlink:href="#me889446168" x="86.42" y="116.447305" style="stroke: #000000; stroke-width: 0.8"/>
      </g>
     </g>
     <g id="text_15">
      <!-- 10.5 -->
      <g transform="translate(34.88875 124.045742) scale(0.2 -0.2)">
       <use xlink:href="#DejaVuSans-31"/>
       <use xlink:href="#DejaVuSans-30" x="63.623047"/>
       <use xlink:href="#DejaVuSans-2e" x="127.246094"/>
       <use xlink:href="#DejaVuSans-35" x="159.033203"/>
      </g>
     </g>
    </g>
    <g id="ytick_7">
     <g id="line2d_15">
      <g>
       <use xlink:href="#me889446168" x="86.42" y="43.123632" style="stroke: #000000; stroke-width: 0.8"/>
      </g>
     </g>
     <g id="text_16">
      <!-- 11.0 -->
      <g transform="translate(34.88875 50.722069) scale(0.2 -0.2)">
       <use xlink:href="#DejaVuSans-31"/>
       <use xlink:href="#DejaVuSans-31" x="63.623047"/>
       <use xlink:href="#DejaVuSans-2e" x="127.246094"/>
       <use xlink:href="#DejaVuSans-30" x="159.033203"/>
      </g>
     </g>
    </g>
    <g id="text_17">
     <!-- RMSE -->
     <g transform="translate(26.729375 278.55975) rotate(-90) scale(0.2 -0.2)">
      <defs>
       <path id="DejaVuSans-52" d="M 2841 2188 
Q 3044 2119 3236 1894 
Q 3428 1669 3622 1275 
L 4263 0 
L 3584 0 
L 2988 1197 
Q 2756 1666 2539 1819 
Q 2322 1972 1947 1972 
L 1259 1972 
L 1259 0 
L 628 0 
L 628 4666 
L 2053 4666 
Q 2853 4666 3247 4331 
Q 3641 3997 3641 3322 
Q 3641 2881 3436 2590 
Q 3231 2300 2841 2188 
z
M 1259 4147 
L 1259 2491 
L 2053 2491 
Q 2509 2491 2742 2702 
Q 2975 2913 2975 3322 
Q 2975 3731 2742 3939 
Q 2509 4147 2053 4147 
L 1259 4147 
z
" transform="scale(0.015625)"/>
       <path id="DejaVuSans-4d" d="M 628 4666 
L 1569 4666 
L 2759 1491 
L 3956 4666 
L 4897 4666 
L 4897 0 
L 4281 0 
L 4281 4097 
L 3078 897 
L 2444 897 
L 1241 4097 
L 1241 0 
L 628 0 
L 628 4666 
z
" transform="scale(0.015625)"/>
       <path id="DejaVuSans-53" d="M 3425 4513 
L 3425 3897 
Q 3066 4069 2747 4153 
Q 2428 4238 2131 4238 
Q 1616 4238 1336 4038 
Q 1056 3838 1056 3469 
Q 1056 3159 1242 3001 
Q 1428 2844 1947 2747 
L 2328 2669 
Q 3034 2534 3370 2195 
Q 3706 1856 3706 1288 
Q 3706 609 3251 259 
Q 2797 -91 1919 -91 
Q 1588 -91 1214 -16 
Q 841 59 441 206 
L 441 856 
Q 825 641 1194 531 
Q 1563 422 1919 422 
Q 2459 422 2753 634 
Q 3047 847 3047 1241 
Q 3047 1584 2836 1778 
Q 2625 1972 2144 2069 
L 1759 2144 
Q 1053 2284 737 2584 
Q 422 2884 422 3419 
Q 422 4038 858 4394 
Q 1294 4750 2059 4750 
Q 2388 4750 2728 4690 
Q 3069 4631 3425 4513 
z
" transform="scale(0.015625)"/>
       <path id="DejaVuSans-45" d="M 628 4666 
L 3578 4666 
L 3578 4134 
L 1259 4134 
L 1259 2753 
L 3481 2753 
L 3481 2222 
L 1259 2222 
L 1259 531 
L 3634 531 
L 3634 0 
L 628 0 
L 628 4666 
z
" transform="scale(0.015625)"/>
      </defs>
      <use xlink:href="#DejaVuSans-52"/>
      <use xlink:href="#DejaVuSans-4d" x="69.482422"/>
      <use xlink:href="#DejaVuSans-53" x="155.761719"/>
      <use xlink:href="#DejaVuSans-45" x="219.238281"/>
     </g>
    </g>
   </g>
   <g id="line2d_16">
    <path d="M 134.364545 379.514201 
L 190.769893 423.502069 
L 247.175241 417.446699 
L 303.580588 390.032548 
L 359.985936 374.53816 
L 416.391283 422.603267 
L 472.796631 399.942631 
L 529.201979 405.552819 
L 585.607326 366.813583 
L 642.012674 378.63677 
L 698.418021 362.442138 
L 754.823369 354.386465 
L 811.228717 370.451304 
L 867.634064 407.368647 
L 924.039412 390.967241 
L 980.444759 392.46024 
L 1036.850107 401.911023 
L 1093.255455 389.092406 
" clip-path="url(#p50dfdbf568)" style="fill: none; stroke: #1f77b4; stroke-width: 1.5; stroke-linecap: square"/>
   </g>
   <g id="line2d_17">
    <path d="M 134.364545 268.263907 
L 190.769893 297.096085 
L 247.175241 311.151942 
L 303.580588 247.231588 
L 359.985936 305.892896 
L 416.391283 315.661804 
L 472.796631 303.772071 
L 529.201979 293.604399 
L 585.607326 242.316089 
L 642.012674 233.740243 
L 698.418021 242.22837 
L 754.823369 237.836675 
L 811.228717 237.261244 
L 867.634064 303.298993 
L 924.039412 313.868365 
L 980.444759 312.977827 
L 1036.850107 273.260516 
L 1093.255455 249.249194 
" clip-path="url(#p50dfdbf568)" style="fill: none; stroke: #ff7f0e; stroke-width: 1.5; stroke-linecap: square"/>
   </g>
   <g id="line2d_18">
    <path d="M 134.364545 310.313355 
L 190.769893 346.814572 
L 247.175241 329.174364 
L 303.580588 345.872815 
L 359.985936 316.976547 
L 416.391283 318.448225 
L 472.796631 328.107471 
L 529.201979 302.969174 
L 585.607326 302.686573 
L 642.012674 293.282785 
L 698.418021 282.904374 
L 754.823369 289.950883 
L 811.228717 279.24365 
L 867.634064 311.210186 
L 924.039412 240.415163 
L 980.444759 302.620201 
L 1036.850107 300.704878 
L 1093.255455 282.195536 
" clip-path="url(#p50dfdbf568)" style="fill: none; stroke: #2ca02c; stroke-width: 1.5; stroke-linecap: square"/>
   </g>
   <g id="line2d_19">
    <path d="M 134.364545 132.873994 
L 190.769893 147.179095 
L 247.175241 166.781368 
L 303.580588 132.175864 
L 359.985936 135.395399 
L 416.391283 132.578284 
L 472.796631 134.678968 
L 529.201979 128.257382 
L 585.607326 105.941558 
L 642.012674 135.506082 
L 698.418021 135.247629 
L 754.823369 144.06877 
L 811.228717 134.009744 
L 867.634064 166.887882 
L 924.039412 153.859361 
L 980.444759 160.479841 
L 1036.850107 146.00814 
L 1093.255455 105.565987 
" clip-path="url(#p50dfdbf568)" style="fill: none; stroke: #d62728; stroke-width: 1.5; stroke-linecap: square"/>
   </g>
   <g id="line2d_20">
    <path d="M 134.364545 373.764219 
L 190.769893 426.487712 
L 247.175241 410.128026 
L 303.580588 389.474226 
L 359.985936 393.224488 
L 416.391283 420.436207 
L 472.796631 404.352794 
L 529.201979 424.700358 
L 585.607326 376.804611 
L 642.012674 374.301966 
L 698.418021 377.574487 
L 754.823369 370.233339 
L 811.228717 379.402665 
L 867.634064 392.822777 
L 924.039412 399.597698 
L 980.444759 406.551095 
L 1036.850107 405.692602 
L 1093.255455 380.642999 
" clip-path="url(#p50dfdbf568)" style="fill: none; stroke: #9467bd; stroke-width: 1.5; stroke-linecap: square"/>
   </g>
   <g id="line2d_21">
    <path d="M 134.364545 291.2746 
L 190.769893 312.893383 
L 247.175241 323.267835 
L 303.580588 266.43451 
L 359.985936 326.394065 
L 416.391283 323.787402 
L 472.796631 327.637023 
L 529.201979 308.827667 
L 585.607326 253.512059 
L 642.012674 251.156772 
L 698.418021 259.941635 
L 754.823369 243.065877 
L 811.228717 250.509723 
L 867.634064 316.59333 
L 924.039412 329.513801 
L 980.444759 340.516499 
L 1036.850107 293.149596 
L 1093.255455 265.817647 
" clip-path="url(#p50dfdbf568)" style="fill: none; stroke: #8c564b; stroke-width: 1.5; stroke-linecap: square"/>
   </g>
   <g id="line2d_22">
    <path d="M 134.364545 347.112832 
L 190.769893 385.47077 
L 247.175241 384.877242 
L 303.580588 361.436998 
L 359.985936 339.657358 
L 416.391283 395.43128 
L 472.796631 375.530535 
L 529.201979 363.314144 
L 585.607326 332.701162 
L 642.012674 340.183852 
L 698.418021 302.053865 
L 754.823369 349.564349 
L 811.228717 334.272346 
L 867.634064 367.341733 
L 924.039412 371.027896 
L 980.444759 396.713153 
L 1036.850107 401.385276 
L 1093.255455 369.868076 
" clip-path="url(#p50dfdbf568)" style="fill: none; stroke: #e377c2; stroke-width: 1.5; stroke-linecap: square"/>
   </g>
   <g id="line2d_23">
    <path d="M 134.364545 135.430242 
L 190.769893 149.75371 
L 247.175241 168.324823 
L 303.580588 132.561502 
L 359.985936 137.928318 
L 416.391283 135.356994 
L 472.796631 136.219665 
L 529.201979 129.458587 
L 585.607326 108.188795 
L 642.012674 133.927122 
L 698.418021 136.387664 
L 754.823369 147.374166 
L 811.228717 136.413267 
L 867.634064 168.902825 
L 924.039412 157.154245 
L 980.444759 162.80528 
L 1036.850107 147.311365 
L 1093.255455 108.307271 
" clip-path="url(#p50dfdbf568)" style="fill: none; stroke: #7f7f7f; stroke-width: 1.5; stroke-linecap: square"/>
   </g>
   <g id="line2d_24"/>
   <g id="line2d_25"/>
   <g id="line2d_26"/>
   <g id="line2d_27"/>
   <g id="line2d_28"/>
   <g id="line2d_29"/>
   <g id="line2d_30"/>
   <g id="line2d_31"/>
   <g id="patch_3">
    <path d="M 86.42 489.832 
L 86.42 10.8 
" style="fill: none; stroke: #000000; stroke-width: 0.8; stroke-linejoin: miter; stroke-linecap: square"/>
   </g>
   <g id="patch_4">
    <path d="M 1141.2 489.832 
L 1141.2 10.8 
" style="fill: none; stroke: #000000; stroke-width: 0.8; stroke-linejoin: miter; stroke-linecap: square"/>
   </g>
   <g id="patch_5">
    <path d="M 86.42 489.832 
L 1141.2 489.832 
" style="fill: none; stroke: #000000; stroke-width: 0.8; stroke-linejoin: miter; stroke-linecap: square"/>
   </g>
   <g id="patch_6">
    <path d="M 86.42 10.8 
L 1141.2 10.8 
" style="fill: none; stroke: #000000; stroke-width: 0.8; stroke-linejoin: miter; stroke-linecap: square"/>
   </g>
   <g id="legend_1">
    <g id="patch_7">
     <path d="M 97.62 481.832 
L 293.8575 481.832 
Q 297.0575 481.832 297.0575 478.632 
L 297.0575 290.572 
Q 297.0575 287.372 293.8575 287.372 
L 97.62 287.372 
Q 94.42 287.372 94.42 290.572 
L 94.42 478.632 
Q 94.42 481.832 97.62 481.832 
z
" style="fill: #ffffff; opacity: 0.8; stroke: #cccccc; stroke-linejoin: miter"/>
    </g>
    <g id="line2d_32">
     <path d="M 100.82 300.3295 
L 116.82 300.3295 
L 132.82 300.3295 
" style="fill: none; stroke: #1f77b4; stroke-width: 1.5; stroke-linecap: square"/>
    </g>
    <g id="text_18">
     <!-- gbr -->
     <g transform="translate(145.62 305.9295) scale(0.16 -0.16)">
      <defs>
       <path id="DejaVuSans-62" d="M 3116 1747 
Q 3116 2381 2855 2742 
Q 2594 3103 2138 3103 
Q 1681 3103 1420 2742 
Q 1159 2381 1159 1747 
Q 1159 1113 1420 752 
Q 1681 391 2138 391 
Q 2594 391 2855 752 
Q 3116 1113 3116 1747 
z
M 1159 2969 
Q 1341 3281 1617 3432 
Q 1894 3584 2278 3584 
Q 2916 3584 3314 3078 
Q 3713 2572 3713 1747 
Q 3713 922 3314 415 
Q 2916 -91 2278 -91 
Q 1894 -91 1617 61 
Q 1341 213 1159 525 
L 1159 0 
L 581 0 
L 581 4863 
L 1159 4863 
L 1159 2969 
z
" transform="scale(0.015625)"/>
      </defs>
      <use xlink:href="#DejaVuSans-67"/>
      <use xlink:href="#DejaVuSans-62" x="63.476562"/>
      <use xlink:href="#DejaVuSans-72" x="126.953125"/>
     </g>
    </g>
    <g id="line2d_33">
     <path d="M 100.82 323.8145 
L 116.82 323.8145 
L 132.82 323.8145 
" style="fill: none; stroke: #ff7f0e; stroke-width: 1.5; stroke-linecap: square"/>
    </g>
    <g id="text_19">
     <!-- rf -->
     <g transform="translate(145.62 329.4145) scale(0.16 -0.16)">
      <defs>
       <path id="DejaVuSans-66" d="M 2375 4863 
L 2375 4384 
L 1825 4384 
Q 1516 4384 1395 4259 
Q 1275 4134 1275 3809 
L 1275 3500 
L 2222 3500 
L 2222 3053 
L 1275 3053 
L 1275 0 
L 697 0 
L 697 3053 
L 147 3053 
L 147 3500 
L 697 3500 
L 697 3744 
Q 697 4328 969 4595 
Q 1241 4863 1831 4863 
L 2375 4863 
z
" transform="scale(0.015625)"/>
      </defs>
      <use xlink:href="#DejaVuSans-72"/>
      <use xlink:href="#DejaVuSans-66" x="41.113281"/>
     </g>
    </g>
    <g id="line2d_34">
     <path d="M 100.82 347.2995 
L 116.82 347.2995 
L 132.82 347.2995 
" style="fill: none; stroke: #2ca02c; stroke-width: 1.5; stroke-linecap: square"/>
    </g>
    <g id="text_20">
     <!-- xgb -->
     <g transform="translate(145.62 352.8995) scale(0.16 -0.16)">
      <use xlink:href="#DejaVuSans-78"/>
      <use xlink:href="#DejaVuSans-67" x="59.179688"/>
      <use xlink:href="#DejaVuSans-62" x="122.65625"/>
     </g>
    </g>
    <g id="line2d_35">
     <path d="M 100.82 370.7845 
L 116.82 370.7845 
L 132.82 370.7845 
" style="fill: none; stroke: #d62728; stroke-width: 1.5; stroke-linecap: square"/>
    </g>
    <g id="text_21">
     <!-- BayesianRidge -->
     <g transform="translate(145.62 376.3845) scale(0.16 -0.16)">
      <defs>
       <path id="DejaVuSans-42" d="M 1259 2228 
L 1259 519 
L 2272 519 
Q 2781 519 3026 730 
Q 3272 941 3272 1375 
Q 3272 1813 3026 2020 
Q 2781 2228 2272 2228 
L 1259 2228 
z
M 1259 4147 
L 1259 2741 
L 2194 2741 
Q 2656 2741 2882 2914 
Q 3109 3088 3109 3444 
Q 3109 3797 2882 3972 
Q 2656 4147 2194 4147 
L 1259 4147 
z
M 628 4666 
L 2241 4666 
Q 2963 4666 3353 4366 
Q 3744 4066 3744 3513 
Q 3744 3084 3544 2831 
Q 3344 2578 2956 2516 
Q 3422 2416 3680 2098 
Q 3938 1781 3938 1306 
Q 3938 681 3513 340 
Q 3088 0 2303 0 
L 628 0 
L 628 4666 
z
" transform="scale(0.015625)"/>
       <path id="DejaVuSans-79" d="M 2059 -325 
Q 1816 -950 1584 -1140 
Q 1353 -1331 966 -1331 
L 506 -1331 
L 506 -850 
L 844 -850 
Q 1081 -850 1212 -737 
Q 1344 -625 1503 -206 
L 1606 56 
L 191 3500 
L 800 3500 
L 1894 763 
L 2988 3500 
L 3597 3500 
L 2059 -325 
z
" transform="scale(0.015625)"/>
      </defs>
      <use xlink:href="#DejaVuSans-42"/>
      <use xlink:href="#DejaVuSans-61" x="68.603516"/>
      <use xlink:href="#DejaVuSans-79" x="129.882812"/>
      <use xlink:href="#DejaVuSans-65" x="189.0625"/>
      <use xlink:href="#DejaVuSans-73" x="250.585938"/>
      <use xlink:href="#DejaVuSans-69" x="302.685547"/>
      <use xlink:href="#DejaVuSans-61" x="330.46875"/>
      <use xlink:href="#DejaVuSans-6e" x="391.748047"/>
      <use xlink:href="#DejaVuSans-52" x="455.126953"/>
      <use xlink:href="#DejaVuSans-69" x="524.609375"/>
      <use xlink:href="#DejaVuSans-64" x="552.392578"/>
      <use xlink:href="#DejaVuSans-67" x="615.869141"/>
      <use xlink:href="#DejaVuSans-65" x="679.345703"/>
     </g>
    </g>
    <g id="line2d_36">
     <path d="M 100.82 394.2695 
L 116.82 394.2695 
L 132.82 394.2695 
" style="fill: none; stroke: #9467bd; stroke-width: 1.5; stroke-linecap: square"/>
    </g>
    <g id="text_22">
     <!-- xgb_gs -->
     <g transform="translate(145.62 399.8695) scale(0.16 -0.16)">
      <use xlink:href="#DejaVuSans-78"/>
      <use xlink:href="#DejaVuSans-67" x="59.179688"/>
      <use xlink:href="#DejaVuSans-62" x="122.65625"/>
      <use xlink:href="#DejaVuSans-5f" x="186.132812"/>
      <use xlink:href="#DejaVuSans-67" x="236.132812"/>
      <use xlink:href="#DejaVuSans-73" x="299.609375"/>
     </g>
    </g>
    <g id="line2d_37">
     <path d="M 100.82 418.1995 
L 116.82 418.1995 
L 132.82 418.1995 
" style="fill: none; stroke: #8c564b; stroke-width: 1.5; stroke-linecap: square"/>
    </g>
    <g id="text_23">
     <!-- rf_gs -->
     <g transform="translate(145.62 423.7995) scale(0.16 -0.16)">
      <use xlink:href="#DejaVuSans-72"/>
      <use xlink:href="#DejaVuSans-66" x="41.113281"/>
      <use xlink:href="#DejaVuSans-5f" x="76.318359"/>
      <use xlink:href="#DejaVuSans-67" x="126.318359"/>
      <use xlink:href="#DejaVuSans-73" x="189.794922"/>
     </g>
    </g>
    <g id="line2d_38">
     <path d="M 100.82 442.1295 
L 116.82 442.1295 
L 132.82 442.1295 
" style="fill: none; stroke: #e377c2; stroke-width: 1.5; stroke-linecap: square"/>
    </g>
    <g id="text_24">
     <!-- gbr_gs -->
     <g transform="translate(145.62 447.7295) scale(0.16 -0.16)">
      <use xlink:href="#DejaVuSans-67"/>
      <use xlink:href="#DejaVuSans-62" x="63.476562"/>
      <use xlink:href="#DejaVuSans-72" x="126.953125"/>
      <use xlink:href="#DejaVuSans-5f" x="168.066406"/>
      <use xlink:href="#DejaVuSans-67" x="218.066406"/>
      <use xlink:href="#DejaVuSans-73" x="281.542969"/>
     </g>
    </g>
    <g id="line2d_39">
     <path d="M 100.82 466.0595 
L 116.82 466.0595 
L 132.82 466.0595 
" style="fill: none; stroke: #7f7f7f; stroke-width: 1.5; stroke-linecap: square"/>
    </g>
    <g id="text_25">
     <!-- BayesianRidge_gs -->
     <g transform="translate(145.62 471.6595) scale(0.16 -0.16)">
      <use xlink:href="#DejaVuSans-42"/>
      <use xlink:href="#DejaVuSans-61" x="68.603516"/>
      <use xlink:href="#DejaVuSans-79" x="129.882812"/>
      <use xlink:href="#DejaVuSans-65" x="189.0625"/>
      <use xlink:href="#DejaVuSans-73" x="250.585938"/>
      <use xlink:href="#DejaVuSans-69" x="302.685547"/>
      <use xlink:href="#DejaVuSans-61" x="330.46875"/>
      <use xlink:href="#DejaVuSans-6e" x="391.748047"/>
      <use xlink:href="#DejaVuSans-52" x="455.126953"/>
      <use xlink:href="#DejaVuSans-69" x="524.609375"/>
      <use xlink:href="#DejaVuSans-64" x="552.392578"/>
      <use xlink:href="#DejaVuSans-67" x="615.869141"/>
      <use xlink:href="#DejaVuSans-65" x="679.345703"/>
      <use xlink:href="#DejaVuSans-5f" x="740.869141"/>
      <use xlink:href="#DejaVuSans-67" x="790.869141"/>
      <use xlink:href="#DejaVuSans-73" x="854.345703"/>
     </g>
    </g>
   </g>
  </g>
 </g>
 <defs>
  <clipPath id="p50dfdbf568">
   <rect x="86.42" y="10.8" width="1054.78" height="479.032"/>
  </clipPath>
 </defs>
</svg>
