<?xml version="1.0" encoding="utf-8" standalone="no"?>
<!DOCTYPE svg PUBLIC "-//W3C//DTD SVG 1.1//EN"
  "http://www.w3.org/Graphics/SVG/1.1/DTD/svg11.dtd">
<svg xmlns:xlink="http://www.w3.org/1999/xlink" width="1152pt" height="576pt" viewBox="0 0 1152 576" xmlns="http://www.w3.org/2000/svg" version="1.1">
 <metadata>
  <rdf:RDF xmlns:dc="http://purl.org/dc/elements/1.1/" xmlns:cc="http://creativecommons.org/ns#" xmlns:rdf="http://www.w3.org/1999/02/22-rdf-syntax-ns#">
   <cc:Work>
    <dc:type rdf:resource="http://purl.org/dc/dcmitype/StillImage"/>
    <dc:date>2025-04-21T10:06:53.663213</dc:date>
    <dc:format>image/svg+xml</dc:format>
    <dc:creator>
     <cc:Agent>
      <dc:title>Matplotlib v3.7.1, https://matplotlib.org/</dc:title>
     </cc:Agent>
    </dc:creator>
   </cc:Work>
  </rdf:RDF>
 </metadata>
 <defs>
  <style type="text/css">*{stroke-linejoin: round; stroke-linecap: butt}</style>
 </defs>
 <g id="figure_1">
  <g id="patch_1">
   <path d="M 0 576 
L 1152 576 
L 1152 0 
L 0 0 
z
" style="fill: #ffffff"/>
  </g>
  <g id="axes_1">
   <g id="patch_2">
    <path d="M 67.34 489.832 
L 1141.2 489.832 
L 1141.2 10.8 
L 67.34 10.8 
z
" style="fill: #ffffff"/>
   </g>
   <g id="PolyCollection_1">
    <defs>
     <path id="m6f6ba4484e" d="M 116.151818 -126.670013 
L 116.151818 -109.448982 
L 156.828333 -115.304914 
L 197.504848 -127.424456 
L 238.181364 -132.870581 
L 278.857879 -157.165725 
L 319.534394 -170.044324 
L 360.210909 -170.861892 
L 400.887424 -174.598992 
L 441.563939 -186.465312 
L 482.240455 -196.008656 
L 522.91697 -204.534769 
L 563.593485 -206.659325 
L 604.27 -226.481295 
L 644.946515 -240.428438 
L 685.62303 -230.192063 
L 726.299545 -220.524727 
L 766.976061 -228.535722 
L 807.652576 -234.324287 
L 848.329091 -235.146143 
L 889.005606 -217.558656 
L 929.682121 -218.918427 
L 970.358636 -218.918427 
L 1011.035152 -218.32096 
L 1051.711667 -218.747138 
L 1092.388182 -217.07844 
L 1092.388182 -282.93057 
L 1092.388182 -282.93057 
L 1051.711667 -262.659268 
L 1011.035152 -262.659268 
L 970.358636 -271.662858 
L 929.682121 -271.033665 
L 889.005606 -277.514136 
L 848.329091 -284.515683 
L 807.652576 -293.796321 
L 766.976061 -302.75804 
L 726.299545 -297.378999 
L 685.62303 -284.675804 
L 644.946515 -311.985723 
L 604.27 -286.999673 
L 563.593485 -270.808082 
L 522.91697 -292.811372 
L 482.240455 -276.178085 
L 441.563939 -272.798089 
L 400.887424 -242.762525 
L 360.210909 -220.679385 
L 319.534394 -215.881373 
L 278.857879 -184.828815 
L 238.181364 -168.416027 
L 197.504848 -148.837571 
L 156.828333 -129.23186 
L 116.151818 -126.670013 
z
" style="stroke: #f77189; stroke-opacity: 0.2"/>
    </defs>
    <g clip-path="url(#p54c2b27996)">
     <use xlink:href="#m6f6ba4484e" x="0" y="576" style="fill: #f77189; fill-opacity: 0.2; stroke: #f77189; stroke-opacity: 0.2"/>
    </g>
   </g>
   <g id="PolyCollection_2">
    <defs>
     <path id="m9a1e420c2c" d="M 116.151818 -144.770633 
L 116.151818 -130.684935 
L 156.828333 -137.498669 
L 197.504848 -141.999032 
L 238.181364 -150.466792 
L 278.857879 -166.578167 
L 319.534394 -185.144685 
L 360.210909 -187.758664 
L 400.887424 -199.227851 
L 441.563939 -209.621482 
L 482.240455 -206.655845 
L 522.91697 -212.277695 
L 563.593485 -209.776932 
L 604.27 -228.632885 
L 644.946515 -211.630962 
L 685.62303 -221.426041 
L 726.299545 -213.219454 
L 766.976061 -229.482825 
L 807.652576 -235.89047 
L 848.329091 -237.305742 
L 889.005606 -253.185497 
L 929.682121 -258.396091 
L 970.358636 -258.396091 
L 1011.035152 -267.53314 
L 1051.711667 -259.653888 
L 1092.388182 -264.059108 
L 1092.388182 -283.559557 
L 1092.388182 -283.559557 
L 1051.711667 -304.970365 
L 1011.035152 -304.970365 
L 970.358636 -298.397799 
L 929.682121 -285.572113 
L 889.005606 -264.191442 
L 848.329091 -259.06637 
L 807.652576 -250.625882 
L 766.976061 -233.771448 
L 726.299545 -242.397242 
L 685.62303 -242.509081 
L 644.946515 -276.727084 
L 604.27 -266.822679 
L 563.593485 -253.682597 
L 522.91697 -273.844703 
L 482.240455 -271.590836 
L 441.563939 -304.897145 
L 400.887424 -257.352465 
L 360.210909 -251.439243 
L 319.534394 -241.480281 
L 278.857879 -213.635537 
L 238.181364 -193.27307 
L 197.504848 -186.037069 
L 156.828333 -153.8033 
L 116.151818 -144.770633 
z
" style="stroke: #e18632; stroke-opacity: 0.2"/>
    </defs>
    <g clip-path="url(#p54c2b27996)">
     <use xlink:href="#m9a1e420c2c" x="0" y="576" style="fill: #e18632; fill-opacity: 0.2; stroke: #e18632; stroke-opacity: 0.2"/>
    </g>
   </g>
   <g id="PolyCollection_3">
    <defs>
     <path id="m2424af8952" d="M 116.151818 -131.88039 
L 116.151818 -107.942182 
L 156.828333 -113.545489 
L 197.504848 -128.295508 
L 238.181364 -133.797736 
L 278.857879 -153.228336 
L 319.534394 -168.761481 
L 360.210909 -183.443679 
L 400.887424 -186.069911 
L 441.563939 -193.482414 
L 482.240455 -209.532572 
L 522.91697 -215.816036 
L 563.593485 -207.910429 
L 604.27 -231.673059 
L 644.946515 -221.887624 
L 685.62303 -255.487493 
L 726.299545 -236.408694 
L 766.976061 -227.549547 
L 807.652576 -232.434269 
L 848.329091 -235.644163 
L 889.005606 -244.881329 
L 929.682121 -242.925635 
L 970.358636 -242.925635 
L 1011.035152 -234.827958 
L 1051.711667 -233.631655 
L 1092.388182 -234.881823 
L 1092.388182 -300.518422 
L 1092.388182 -300.518422 
L 1051.711667 -305.65083 
L 1011.035152 -305.65083 
L 970.358636 -291.034628 
L 929.682121 -276.312696 
L 889.005606 -281.783738 
L 848.329091 -273.334141 
L 807.652576 -267.752439 
L 766.976061 -304.658817 
L 726.299545 -308.16049 
L 685.62303 -303.64268 
L 644.946515 -288.106398 
L 604.27 -291.169549 
L 563.593485 -283.801071 
L 522.91697 -289.881396 
L 482.240455 -276.338906 
L 441.563939 -286.265718 
L 400.887424 -234.057995 
L 360.210909 -231.351211 
L 319.534394 -217.821006 
L 278.857879 -185.650546 
L 238.181364 -175.288989 
L 197.504848 -161.93102 
L 156.828333 -135.636531 
L 116.151818 -131.88039 
z
" style="stroke: #b59a32; stroke-opacity: 0.2"/>
    </defs>
    <g clip-path="url(#p54c2b27996)">
     <use xlink:href="#m2424af8952" x="0" y="576" style="fill: #b59a32; fill-opacity: 0.2; stroke: #b59a32; stroke-opacity: 0.2"/>
    </g>
   </g>
   <g id="PolyCollection_4">
    <defs>
     <path id="m51280313a5" d="M 116.151818 -151.686664 
L 116.151818 -138.510105 
L 156.828333 -134.205638 
L 197.504848 -149.373121 
L 238.181364 -155.740125 
L 278.857879 -178.560971 
L 319.534394 -204.060777 
L 360.210909 -195.010035 
L 400.887424 -192.775418 
L 441.563939 -199.679749 
L 482.240455 -208.037176 
L 522.91697 -214.007641 
L 563.593485 -212.217632 
L 604.27 -229.249476 
L 644.946515 -251.719995 
L 685.62303 -239.826238 
L 726.299545 -208.843391 
L 766.976061 -224.504879 
L 807.652576 -239.581132 
L 848.329091 -257.847602 
L 889.005606 -232.251264 
L 929.682121 -231.964488 
L 970.358636 -231.964488 
L 1011.035152 -235.562691 
L 1051.711667 -231.663773 
L 1092.388182 -234.363731 
L 1092.388182 -327.688542 
L 1092.388182 -327.688542 
L 1051.711667 -313.05294 
L 1011.035152 -313.05294 
L 970.358636 -315.415851 
L 929.682121 -307.065979 
L 889.005606 -321.488616 
L 848.329091 -321.807785 
L 807.652576 -323.486126 
L 766.976061 -344.777502 
L 726.299545 -339.5517 
L 685.62303 -325.578236 
L 644.946515 -333.292742 
L 604.27 -315.80205 
L 563.593485 -295.52411 
L 522.91697 -312.043437 
L 482.240455 -305.333618 
L 441.563939 -292.51068 
L 400.887424 -263.115242 
L 360.210909 -225.172542 
L 319.534394 -250.61477 
L 278.857879 -198.903765 
L 238.181364 -191.382676 
L 197.504848 -173.371026 
L 156.828333 -155.496837 
L 116.151818 -151.686664 
z
" style="stroke: #8ba731; stroke-opacity: 0.2"/>
    </defs>
    <g clip-path="url(#p54c2b27996)">
     <use xlink:href="#m51280313a5" x="0" y="576" style="fill: #8ba731; fill-opacity: 0.2; stroke: #8ba731; stroke-opacity: 0.2"/>
    </g>
   </g>
   <g id="PolyCollection_5">
    <defs>
     <path id="m440dd1de49" d="M 116.151818 -176.228684 
L 116.151818 -159.561403 
L 156.828333 -164.88051 
L 197.504848 -168.9345 
L 238.181364 -177.736496 
L 278.857879 -194.783646 
L 319.534394 -196.895127 
L 360.210909 -202.199999 
L 400.887424 -218.786296 
L 441.563939 -226.846737 
L 482.240455 -219.340776 
L 522.91697 -221.640182 
L 563.593485 -226.250224 
L 604.27 -229.434242 
L 644.946515 -228.00738 
L 685.62303 -217.67746 
L 726.299545 -227.310095 
L 766.976061 -237.766275 
L 807.652576 -240.873524 
L 848.329091 -254.296354 
L 889.005606 -270.828803 
L 929.682121 -236.362161 
L 970.358636 -270.059937 
L 1011.035152 -267.250813 
L 1051.711667 -230.54408 
L 1092.388182 -236.780152 
L 1092.388182 -288.973201 
L 1092.388182 -288.973201 
L 1051.711667 -267.250813 
L 1011.035152 -278.271231 
L 970.358636 -279.533374 
L 929.682121 -270.059937 
L 889.005606 -285.390448 
L 848.329091 -254.538685 
L 807.652576 -245.480073 
L 766.976061 -249.387601 
L 726.299545 -278.407234 
L 685.62303 -249.476089 
L 644.946515 -275.785906 
L 604.27 -261.937739 
L 563.593485 -241.736393 
L 522.91697 -255.532576 
L 482.240455 -253.412751 
L 441.563939 -265.611031 
L 400.887424 -243.087994 
L 360.210909 -240.594821 
L 319.534394 -220.898904 
L 278.857879 -209.11014 
L 238.181364 -198.69814 
L 197.504848 -196.199994 
L 156.828333 -172.284759 
L 116.151818 -176.228684 
z
" style="stroke: #32b258; stroke-opacity: 0.2"/>
    </defs>
    <g clip-path="url(#p54c2b27996)">
     <use xlink:href="#m440dd1de49" x="0" y="576" style="fill: #32b258; fill-opacity: 0.2; stroke: #32b258; stroke-opacity: 0.2"/>
    </g>
   </g>
   <g id="PolyCollection_6">
    <defs>
     <path id="m36a90256de" d="M 116.151818 -163.475987 
L 116.151818 -152.526261 
L 156.828333 -156.8423 
L 197.504848 -159.598911 
L 238.181364 -163.195861 
L 278.857879 -171.763495 
L 319.534394 -188.017656 
L 360.210909 -188.833838 
L 400.887424 -206.553356 
L 441.563939 -202.756373 
L 482.240455 -218.546262 
L 522.91697 -207.587075 
L 563.593485 -208.05346 
L 604.27 -220.570988 
L 644.946515 -221.363231 
L 685.62303 -231.341253 
L 726.299545 -238.261952 
L 766.976061 -219.685563 
L 807.652576 -217.482758 
L 848.329091 -228.97173 
L 889.005606 -228.823286 
L 929.682121 -235.177423 
L 970.358636 -235.177423 
L 1011.035152 -225.489011 
L 1051.711667 -224.515523 
L 1092.388182 -229.597733 
L 1092.388182 -311.247317 
L 1092.388182 -311.247317 
L 1051.711667 -299.532514 
L 1011.035152 -299.532514 
L 970.358636 -295.864759 
L 929.682121 -263.032323 
L 889.005606 -269.315094 
L 848.329091 -273.330218 
L 807.652576 -243.587234 
L 766.976061 -260.775865 
L 726.299545 -276.305393 
L 685.62303 -259.040491 
L 644.946515 -294.879393 
L 604.27 -266.629664 
L 563.593485 -259.835605 
L 522.91697 -288.950519 
L 482.240455 -281.091485 
L 441.563939 -321.065086 
L 400.887424 -259.17221 
L 360.210909 -291.376433 
L 319.534394 -253.848423 
L 278.857879 -222.341589 
L 238.181364 -216.643687 
L 197.504848 -191.614126 
L 156.828333 -172.021487 
L 116.151818 -163.475987 
z
" style="stroke: #35ae95; stroke-opacity: 0.2"/>
    </defs>
    <g clip-path="url(#p54c2b27996)">
     <use xlink:href="#m36a90256de" x="0" y="576" style="fill: #35ae95; fill-opacity: 0.2; stroke: #35ae95; stroke-opacity: 0.2"/>
    </g>
   </g>
   <g id="PolyCollection_7">
    <defs>
     <path id="ma54bdcb1db" d="M 116.151818 -166.022663 
L 116.151818 -142.000352 
L 156.828333 -159.264645 
L 197.504848 -162.636577 
L 238.181364 -167.32775 
L 278.857879 -184.643582 
L 319.534394 -205.234342 
L 360.210909 -206.973525 
L 400.887424 -226.120274 
L 441.563939 -217.649759 
L 482.240455 -224.51539 
L 522.91697 -224.849056 
L 563.593485 -229.299448 
L 604.27 -239.567322 
L 644.946515 -235.538929 
L 685.62303 -256.787519 
L 726.299545 -239.396422 
L 766.976061 -241.033189 
L 807.652576 -241.69244 
L 848.329091 -238.93184 
L 889.005606 -246.312891 
L 929.682121 -260.043489 
L 970.358636 -260.043489 
L 1011.035152 -266.065432 
L 1051.711667 -266.049215 
L 1092.388182 -268.534494 
L 1092.388182 -300.228292 
L 1092.388182 -300.228292 
L 1051.711667 -305.580074 
L 1011.035152 -305.580074 
L 970.358636 -305.931994 
L 929.682121 -279.273608 
L 889.005606 -293.262918 
L 848.329091 -277.606615 
L 807.652576 -269.442986 
L 766.976061 -269.281012 
L 726.299545 -275.687151 
L 685.62303 -275.136353 
L 644.946515 -303.945228 
L 604.27 -284.716004 
L 563.593485 -272.057023 
L 522.91697 -278.633737 
L 482.240455 -277.713922 
L 441.563939 -298.336181 
L 400.887424 -253.422082 
L 360.210909 -255.348447 
L 319.534394 -251.124199 
L 278.857879 -224.879137 
L 238.181364 -207.67495 
L 197.504848 -187.414423 
L 156.828333 -172.457181 
L 116.151818 -166.022663 
z
" style="stroke: #37abb2; stroke-opacity: 0.2"/>
    </defs>
    <g clip-path="url(#p54c2b27996)">
     <use xlink:href="#ma54bdcb1db" x="0" y="576" style="fill: #37abb2; fill-opacity: 0.2; stroke: #37abb2; stroke-opacity: 0.2"/>
    </g>
   </g>
   <g id="PolyCollection_8">
    <defs>
     <path id="m6368043dab" d="M 116.151818 -212.860306 
L 116.151818 -179.905534 
L 156.828333 -186.773615 
L 197.504848 -194.407997 
L 238.181364 -207.196633 
L 278.857879 -225.247082 
L 319.534394 -250.533507 
L 360.210909 -232.207438 
L 400.887424 -252.868462 
L 441.563939 -246.128256 
L 482.240455 -242.726788 
L 522.91697 -236.973291 
L 563.593485 -229.467567 
L 604.27 -245.038478 
L 644.946515 -255.377979 
L 685.62303 -284.260894 
L 726.299545 -236.001904 
L 766.976061 -240.55552 
L 807.652576 -238.314945 
L 848.329091 -226.609189 
L 889.005606 -246.604069 
L 929.682121 -252.576985 
L 970.358636 -252.576985 
L 1011.035152 -239.578139 
L 1051.711667 -242.303043 
L 1092.388182 -248.474499 
L 1092.388182 -274.01411 
L 1092.388182 -274.01411 
L 1051.711667 -333.255173 
L 1011.035152 -333.255173 
L 970.358636 -306.996464 
L 929.682121 -271.005724 
L 889.005606 -279.653677 
L 848.329091 -243.282436 
L 807.652576 -269.461677 
L 766.976061 -355.768213 
L 726.299545 -362.885295 
L 685.62303 -325.25771 
L 644.946515 -341.523192 
L 604.27 -306.178935 
L 563.593485 -296.870927 
L 522.91697 -314.606169 
L 482.240455 -321.301484 
L 441.563939 -377.909757 
L 400.887424 -293.926973 
L 360.210909 -300.970726 
L 319.534394 -307.393821 
L 278.857879 -276.026846 
L 238.181364 -260.541705 
L 197.504848 -236.735592 
L 156.828333 -221.176448 
L 116.151818 -212.860306 
z
" style="stroke: #39a7d6; stroke-opacity: 0.2"/>
    </defs>
    <g clip-path="url(#p54c2b27996)">
     <use xlink:href="#m6368043dab" x="0" y="576" style="fill: #39a7d6; fill-opacity: 0.2; stroke: #39a7d6; stroke-opacity: 0.2"/>
    </g>
   </g>
   <g id="PolyCollection_9">
    <defs>
     <path id="m1ed39075ee" d="M 116.151818 -253.982463 
L 116.151818 -245.147369 
L 156.828333 -248.962721 
L 197.504848 -250.45982 
L 238.181364 -258.570579 
L 278.857879 -273.423189 
L 319.534394 -286.765699 
L 360.210909 -293.807466 
L 400.887424 -298.753479 
L 441.563939 -302.151022 
L 482.240455 -312.058512 
L 522.91697 -312.220414 
L 563.593485 -303.334785 
L 604.27 -307.284581 
L 644.946515 -324.17622 
L 685.62303 -327.68056 
L 726.299545 -310.871953 
L 766.976061 -323.127432 
L 807.652576 -324.55651 
L 848.329091 -321.8891 
L 889.005606 -318.884383 
L 929.682121 -317.0574 
L 970.358636 -305.723035 
L 1011.035152 -300.690501 
L 1051.711667 -300.690501 
L 1092.388182 -305.82929 
L 1092.388182 -306.594944 
L 1092.388182 -306.594944 
L 1051.711667 -305.60028 
L 1011.035152 -321.585616 
L 970.358636 -317.0574 
L 929.682121 -327.638069 
L 889.005606 -328.287671 
L 848.329091 -327.237223 
L 807.652576 -344.715578 
L 766.976061 -331.066082 
L 726.299545 -333.090735 
L 685.62303 -357.818665 
L 644.946515 -348.065206 
L 604.27 -342.0813 
L 563.593485 -333.185699 
L 522.91697 -348.777648 
L 482.240455 -350.227553 
L 441.563939 -335.188838 
L 400.887424 -325.428904 
L 360.210909 -331.684425 
L 319.534394 -308.931436 
L 278.857879 -291.983191 
L 238.181364 -277.55398 
L 197.504848 -266.207979 
L 156.828333 -260.418748 
L 116.151818 -253.982463 
z
" style="stroke: #8f93f4; stroke-opacity: 0.2"/>
    </defs>
    <g clip-path="url(#p54c2b27996)">
     <use xlink:href="#m1ed39075ee" x="0" y="576" style="fill: #8f93f4; fill-opacity: 0.2; stroke: #8f93f4; stroke-opacity: 0.2"/>
    </g>
   </g>
   <g id="PolyCollection_10">
    <defs>
     <path id="m9c8b0ac822" d="M 116.151818 -253.801489 
L 116.151818 -245.181517 
L 156.828333 -248.964331 
L 197.504848 -250.379427 
L 238.181364 -259.795293 
L 278.857879 -273.224313 
L 319.534394 -286.985403 
L 360.210909 -293.808807 
L 400.887424 -299.475919 
L 441.563939 -302.357226 
L 482.240455 -311.248018 
L 522.91697 -310.290481 
L 563.593485 -303.542987 
L 604.27 -307.264231 
L 644.946515 -324.192533 
L 685.62303 -327.678624 
L 726.299545 -310.857387 
L 766.976061 -323.125962 
L 807.652576 -324.569778 
L 848.329091 -321.895398 
L 889.005606 -318.907532 
L 929.682121 -317.076407 
L 970.358636 -305.63939 
L 1011.035152 -300.692691 
L 1051.711667 -300.692691 
L 1092.388182 -305.833756 
L 1092.388182 -306.602828 
L 1092.388182 -306.602828 
L 1051.711667 -305.605144 
L 1011.035152 -321.564295 
L 970.358636 -317.076407 
L 929.682121 -327.598944 
L 889.005606 -328.266672 
L 848.329091 -327.235119 
L 807.652576 -344.719783 
L 766.976061 -331.03086 
L 726.299545 -333.053663 
L 685.62303 -357.839981 
L 644.946515 -348.085685 
L 604.27 -342.089496 
L 563.593485 -333.162601 
L 522.91697 -348.213145 
L 482.240455 -350.236697 
L 441.563939 -335.802536 
L 400.887424 -325.455078 
L 360.210909 -331.673792 
L 319.534394 -308.838921 
L 278.857879 -291.844341 
L 238.181364 -278.184021 
L 197.504848 -266.457662 
L 156.828333 -260.089065 
L 116.151818 -253.801489 
z
" style="stroke: #db70f4; stroke-opacity: 0.2"/>
    </defs>
    <g clip-path="url(#p54c2b27996)">
     <use xlink:href="#m9c8b0ac822" x="0" y="576" style="fill: #db70f4; fill-opacity: 0.2; stroke: #db70f4; stroke-opacity: 0.2"/>
    </g>
   </g>
   <g id="PolyCollection_11">
    <defs>
     <path id="m988d2623f9" d="M 116.151818 -253.701169 
L 116.151818 -223.052083 
L 156.828333 -256.867619 
L 197.504848 -263.024755 
L 238.181364 -281.627818 
L 278.857879 -299.346403 
L 319.534394 -321.131649 
L 360.210909 -291.557603 
L 400.887424 -359.093449 
L 441.563939 -337.273105 
L 482.240455 -325.972879 
L 522.91697 -333.529453 
L 563.593485 -298.992274 
L 604.27 -322.402842 
L 644.946515 -314.344921 
L 685.62303 -343.088919 
L 726.299545 -317.32734 
L 766.976061 -324.966378 
L 807.652576 -361.370139 
L 848.329091 -299.960461 
L 889.005606 -307.667684 
L 929.682121 -373.883941 
L 970.358636 -373.883941 
L 1011.035152 -362.289221 
L 1051.711667 -385.989544 
L 1092.388182 -392.165403 
L 1092.388182 -543.425818 
L 1092.388182 -543.425818 
L 1051.711667 -501.568728 
L 1011.035152 -501.568728 
L 970.358636 -525.203136 
L 929.682121 -430.687549 
L 889.005606 -475.208281 
L 848.329091 -464.120467 
L 807.652576 -394.685708 
L 766.976061 -500.043652 
L 726.299545 -437.722643 
L 685.62303 -421.883848 
L 644.946515 -437.927933 
L 604.27 -409.740361 
L 563.593485 -359.107524 
L 522.91697 -485.583468 
L 482.240455 -430.765374 
L 441.563939 -451.926588 
L 400.887424 -412.60049 
L 360.210909 -384.490049 
L 319.534394 -434.731374 
L 278.857879 -365.07469 
L 238.181364 -375.343879 
L 197.504848 -316.370621 
L 156.828333 -316.649498 
L 116.151818 -253.701169 
z
" style="stroke: #f667c6; stroke-opacity: 0.2"/>
    </defs>
    <g clip-path="url(#p54c2b27996)">
     <use xlink:href="#m988d2623f9" x="0" y="576" style="fill: #f667c6; fill-opacity: 0.2; stroke: #f667c6; stroke-opacity: 0.2"/>
    </g>
   </g>
   <g id="matplotlib.axis_1">
    <g id="xtick_1">
     <g id="line2d_1">
      <defs>
       <path id="m21255e09e9" d="M 0 0 
L 0 3.5 
" style="stroke: #000000; stroke-width: 0.8"/>
      </defs>
      <g>
       <use xlink:href="#m21255e09e9" x="95.813561" y="489.832" style="stroke: #000000; stroke-width: 0.8"/>
      </g>
     </g>
     <g id="text_1">
      <!-- 0 -->
      <g transform="translate(89.451061 512.028875) scale(0.2 -0.2)">
       <defs>
        <path id="DejaVuSans-30" d="M 2034 4250 
Q 1547 4250 1301 3770 
Q 1056 3291 1056 2328 
Q 1056 1369 1301 889 
Q 1547 409 2034 409 
Q 2525 409 2770 889 
Q 3016 1369 3016 2328 
Q 3016 3291 2770 3770 
Q 2525 4250 2034 4250 
z
M 2034 4750 
Q 2819 4750 3233 4129 
Q 3647 3509 3647 2328 
Q 3647 1150 3233 529 
Q 2819 -91 2034 -91 
Q 1250 -91 836 529 
Q 422 1150 422 2328 
Q 422 3509 836 4129 
Q 1250 4750 2034 4750 
z
" transform="scale(0.015625)"/>
       </defs>
       <use xlink:href="#DejaVuSans-30"/>
      </g>
     </g>
    </g>
    <g id="xtick_2">
     <g id="line2d_2">
      <g>
       <use xlink:href="#m21255e09e9" x="299.196136" y="489.832" style="stroke: #000000; stroke-width: 0.8"/>
      </g>
     </g>
     <g id="text_2">
      <!-- 10 -->
      <g transform="translate(286.471136 512.028875) scale(0.2 -0.2)">
       <defs>
        <path id="DejaVuSans-31" d="M 794 531 
L 1825 531 
L 1825 4091 
L 703 3866 
L 703 4441 
L 1819 4666 
L 2450 4666 
L 2450 531 
L 3481 531 
L 3481 0 
L 794 0 
L 794 531 
z
" transform="scale(0.015625)"/>
       </defs>
       <use xlink:href="#DejaVuSans-31"/>
       <use xlink:href="#DejaVuSans-30" x="63.623047"/>
      </g>
     </g>
    </g>
    <g id="xtick_3">
     <g id="line2d_3">
      <g>
       <use xlink:href="#m21255e09e9" x="502.578712" y="489.832" style="stroke: #000000; stroke-width: 0.8"/>
      </g>
     </g>
     <g id="text_3">
      <!-- 20 -->
      <g transform="translate(489.853712 512.028875) scale(0.2 -0.2)">
       <defs>
        <path id="DejaVuSans-32" d="M 1228 531 
L 3431 531 
L 3431 0 
L 469 0 
L 469 531 
Q 828 903 1448 1529 
Q 2069 2156 2228 2338 
Q 2531 2678 2651 2914 
Q 2772 3150 2772 3378 
Q 2772 3750 2511 3984 
Q 2250 4219 1831 4219 
Q 1534 4219 1204 4116 
Q 875 4013 500 3803 
L 500 4441 
Q 881 4594 1212 4672 
Q 1544 4750 1819 4750 
Q 2544 4750 2975 4387 
Q 3406 4025 3406 3419 
Q 3406 3131 3298 2873 
Q 3191 2616 2906 2266 
Q 2828 2175 2409 1742 
Q 1991 1309 1228 531 
z
" transform="scale(0.015625)"/>
       </defs>
       <use xlink:href="#DejaVuSans-32"/>
       <use xlink:href="#DejaVuSans-30" x="63.623047"/>
      </g>
     </g>
    </g>
    <g id="xtick_4">
     <g id="line2d_4">
      <g>
       <use xlink:href="#m21255e09e9" x="705.961288" y="489.832" style="stroke: #000000; stroke-width: 0.8"/>
      </g>
     </g>
     <g id="text_4">
      <!-- 30 -->
      <g transform="translate(693.236288 512.028875) scale(0.2 -0.2)">
       <defs>
        <path id="DejaVuSans-33" d="M 2597 2516 
Q 3050 2419 3304 2112 
Q 3559 1806 3559 1356 
Q 3559 666 3084 287 
Q 2609 -91 1734 -91 
Q 1441 -91 1130 -33 
Q 819 25 488 141 
L 488 750 
Q 750 597 1062 519 
Q 1375 441 1716 441 
Q 2309 441 2620 675 
Q 2931 909 2931 1356 
Q 2931 1769 2642 2001 
Q 2353 2234 1838 2234 
L 1294 2234 
L 1294 2753 
L 1863 2753 
Q 2328 2753 2575 2939 
Q 2822 3125 2822 3475 
Q 2822 3834 2567 4026 
Q 2313 4219 1838 4219 
Q 1578 4219 1281 4162 
Q 984 4106 628 3988 
L 628 4550 
Q 988 4650 1302 4700 
Q 1616 4750 1894 4750 
Q 2613 4750 3031 4423 
Q 3450 4097 3450 3541 
Q 3450 3153 3228 2886 
Q 3006 2619 2597 2516 
z
" transform="scale(0.015625)"/>
       </defs>
       <use xlink:href="#DejaVuSans-33"/>
       <use xlink:href="#DejaVuSans-30" x="63.623047"/>
      </g>
     </g>
    </g>
    <g id="xtick_5">
     <g id="line2d_5">
      <g>
       <use xlink:href="#m21255e09e9" x="909.343864" y="489.832" style="stroke: #000000; stroke-width: 0.8"/>
      </g>
     </g>
     <g id="text_5">
      <!-- 40 -->
      <g transform="translate(896.618864 512.028875) scale(0.2 -0.2)">
       <defs>
        <path id="DejaVuSans-34" d="M 2419 4116 
L 825 1625 
L 2419 1625 
L 2419 4116 
z
M 2253 4666 
L 3047 4666 
L 3047 1625 
L 3713 1625 
L 3713 1100 
L 3047 1100 
L 3047 0 
L 2419 0 
L 2419 1100 
L 313 1100 
L 313 1709 
L 2253 4666 
z
" transform="scale(0.015625)"/>
       </defs>
       <use xlink:href="#DejaVuSans-34"/>
       <use xlink:href="#DejaVuSans-30" x="63.623047"/>
      </g>
     </g>
    </g>
    <g id="xtick_6">
     <g id="line2d_6">
      <g>
       <use xlink:href="#m21255e09e9" x="1112.726439" y="489.832" style="stroke: #000000; stroke-width: 0.8"/>
      </g>
     </g>
     <g id="text_6">
      <!-- 50 -->
      <g transform="translate(1100.001439 512.028875) scale(0.2 -0.2)">
       <defs>
        <path id="DejaVuSans-35" d="M 691 4666 
L 3169 4666 
L 3169 4134 
L 1269 4134 
L 1269 2991 
Q 1406 3038 1543 3061 
Q 1681 3084 1819 3084 
Q 2600 3084 3056 2656 
Q 3513 2228 3513 1497 
Q 3513 744 3044 326 
Q 2575 -91 1722 -91 
Q 1428 -91 1123 -41 
Q 819 9 494 109 
L 494 744 
Q 775 591 1075 516 
Q 1375 441 1709 441 
Q 2250 441 2565 725 
Q 2881 1009 2881 1497 
Q 2881 1984 2565 2268 
Q 2250 2553 1709 2553 
Q 1456 2553 1204 2497 
Q 953 2441 691 2322 
L 691 4666 
z
" transform="scale(0.015625)"/>
       </defs>
       <use xlink:href="#DejaVuSans-35"/>
       <use xlink:href="#DejaVuSans-30" x="63.623047"/>
      </g>
     </g>
    </g>
    <g id="text_7">
     <!-- Percentile Threshold -->
     <g transform="translate(502.490313 535.385125) scale(0.2 -0.2)">
      <defs>
       <path id="DejaVuSans-50" d="M 1259 4147 
L 1259 2394 
L 2053 2394 
Q 2494 2394 2734 2622 
Q 2975 2850 2975 3272 
Q 2975 3691 2734 3919 
Q 2494 4147 2053 4147 
L 1259 4147 
z
M 628 4666 
L 2053 4666 
Q 2838 4666 3239 4311 
Q 3641 3956 3641 3272 
Q 3641 2581 3239 2228 
Q 2838 1875 2053 1875 
L 1259 1875 
L 1259 0 
L 628 0 
L 628 4666 
z
" transform="scale(0.015625)"/>
       <path id="DejaVuSans-65" d="M 3597 1894 
L 3597 1613 
L 953 1613 
Q 991 1019 1311 708 
Q 1631 397 2203 397 
Q 2534 397 2845 478 
Q 3156 559 3463 722 
L 3463 178 
Q 3153 47 2828 -22 
Q 2503 -91 2169 -91 
Q 1331 -91 842 396 
Q 353 884 353 1716 
Q 353 2575 817 3079 
Q 1281 3584 2069 3584 
Q 2775 3584 3186 3129 
Q 3597 2675 3597 1894 
z
M 3022 2063 
Q 3016 2534 2758 2815 
Q 2500 3097 2075 3097 
Q 1594 3097 1305 2825 
Q 1016 2553 972 2059 
L 3022 2063 
z
" transform="scale(0.015625)"/>
       <path id="DejaVuSans-72" d="M 2631 2963 
Q 2534 3019 2420 3045 
Q 2306 3072 2169 3072 
Q 1681 3072 1420 2755 
Q 1159 2438 1159 1844 
L 1159 0 
L 581 0 
L 581 3500 
L 1159 3500 
L 1159 2956 
Q 1341 3275 1631 3429 
Q 1922 3584 2338 3584 
Q 2397 3584 2469 3576 
Q 2541 3569 2628 3553 
L 2631 2963 
z
" transform="scale(0.015625)"/>
       <path id="DejaVuSans-63" d="M 3122 3366 
L 3122 2828 
Q 2878 2963 2633 3030 
Q 2388 3097 2138 3097 
Q 1578 3097 1268 2742 
Q 959 2388 959 1747 
Q 959 1106 1268 751 
Q 1578 397 2138 397 
Q 2388 397 2633 464 
Q 2878 531 3122 666 
L 3122 134 
Q 2881 22 2623 -34 
Q 2366 -91 2075 -91 
Q 1284 -91 818 406 
Q 353 903 353 1747 
Q 353 2603 823 3093 
Q 1294 3584 2113 3584 
Q 2378 3584 2631 3529 
Q 2884 3475 3122 3366 
z
" transform="scale(0.015625)"/>
       <path id="DejaVuSans-6e" d="M 3513 2113 
L 3513 0 
L 2938 0 
L 2938 2094 
Q 2938 2591 2744 2837 
Q 2550 3084 2163 3084 
Q 1697 3084 1428 2787 
Q 1159 2491 1159 1978 
L 1159 0 
L 581 0 
L 581 3500 
L 1159 3500 
L 1159 2956 
Q 1366 3272 1645 3428 
Q 1925 3584 2291 3584 
Q 2894 3584 3203 3211 
Q 3513 2838 3513 2113 
z
" transform="scale(0.015625)"/>
       <path id="DejaVuSans-74" d="M 1172 4494 
L 1172 3500 
L 2356 3500 
L 2356 3053 
L 1172 3053 
L 1172 1153 
Q 1172 725 1289 603 
Q 1406 481 1766 481 
L 2356 481 
L 2356 0 
L 1766 0 
Q 1100 0 847 248 
Q 594 497 594 1153 
L 594 3053 
L 172 3053 
L 172 3500 
L 594 3500 
L 594 4494 
L 1172 4494 
z
" transform="scale(0.015625)"/>
       <path id="DejaVuSans-69" d="M 603 3500 
L 1178 3500 
L 1178 0 
L 603 0 
L 603 3500 
z
M 603 4863 
L 1178 4863 
L 1178 4134 
L 603 4134 
L 603 4863 
z
" transform="scale(0.015625)"/>
       <path id="DejaVuSans-6c" d="M 603 4863 
L 1178 4863 
L 1178 0 
L 603 0 
L 603 4863 
z
" transform="scale(0.015625)"/>
       <path id="DejaVuSans-20" transform="scale(0.015625)"/>
       <path id="DejaVuSans-54" d="M -19 4666 
L 3928 4666 
L 3928 4134 
L 2272 4134 
L 2272 0 
L 1638 0 
L 1638 4134 
L -19 4134 
L -19 4666 
z
" transform="scale(0.015625)"/>
       <path id="DejaVuSans-68" d="M 3513 2113 
L 3513 0 
L 2938 0 
L 2938 2094 
Q 2938 2591 2744 2837 
Q 2550 3084 2163 3084 
Q 1697 3084 1428 2787 
Q 1159 2491 1159 1978 
L 1159 0 
L 581 0 
L 581 4863 
L 1159 4863 
L 1159 2956 
Q 1366 3272 1645 3428 
Q 1925 3584 2291 3584 
Q 2894 3584 3203 3211 
Q 3513 2838 3513 2113 
z
" transform="scale(0.015625)"/>
       <path id="DejaVuSans-73" d="M 2834 3397 
L 2834 2853 
Q 2591 2978 2328 3040 
Q 2066 3103 1784 3103 
Q 1356 3103 1142 2972 
Q 928 2841 928 2578 
Q 928 2378 1081 2264 
Q 1234 2150 1697 2047 
L 1894 2003 
Q 2506 1872 2764 1633 
Q 3022 1394 3022 966 
Q 3022 478 2636 193 
Q 2250 -91 1575 -91 
Q 1294 -91 989 -36 
Q 684 19 347 128 
L 347 722 
Q 666 556 975 473 
Q 1284 391 1588 391 
Q 1994 391 2212 530 
Q 2431 669 2431 922 
Q 2431 1156 2273 1281 
Q 2116 1406 1581 1522 
L 1381 1569 
Q 847 1681 609 1914 
Q 372 2147 372 2553 
Q 372 3047 722 3315 
Q 1072 3584 1716 3584 
Q 2034 3584 2315 3537 
Q 2597 3491 2834 3397 
z
" transform="scale(0.015625)"/>
       <path id="DejaVuSans-6f" d="M 1959 3097 
Q 1497 3097 1228 2736 
Q 959 2375 959 1747 
Q 959 1119 1226 758 
Q 1494 397 1959 397 
Q 2419 397 2687 759 
Q 2956 1122 2956 1747 
Q 2956 2369 2687 2733 
Q 2419 3097 1959 3097 
z
M 1959 3584 
Q 2709 3584 3137 3096 
Q 3566 2609 3566 1747 
Q 3566 888 3137 398 
Q 2709 -91 1959 -91 
Q 1206 -91 779 398 
Q 353 888 353 1747 
Q 353 2609 779 3096 
Q 1206 3584 1959 3584 
z
" transform="scale(0.015625)"/>
       <path id="DejaVuSans-64" d="M 2906 2969 
L 2906 4863 
L 3481 4863 
L 3481 0 
L 2906 0 
L 2906 525 
Q 2725 213 2448 61 
Q 2172 -91 1784 -91 
Q 1150 -91 751 415 
Q 353 922 353 1747 
Q 353 2572 751 3078 
Q 1150 3584 1784 3584 
Q 2172 3584 2448 3432 
Q 2725 3281 2906 2969 
z
M 947 1747 
Q 947 1113 1208 752 
Q 1469 391 1925 391 
Q 2381 391 2643 752 
Q 2906 1113 2906 1747 
Q 2906 2381 2643 2742 
Q 2381 3103 1925 3103 
Q 1469 3103 1208 2742 
Q 947 2381 947 1747 
z
" transform="scale(0.015625)"/>
      </defs>
      <use xlink:href="#DejaVuSans-50"/>
      <use xlink:href="#DejaVuSans-65" x="56.677734"/>
      <use xlink:href="#DejaVuSans-72" x="118.201172"/>
      <use xlink:href="#DejaVuSans-63" x="157.064453"/>
      <use xlink:href="#DejaVuSans-65" x="212.044922"/>
      <use xlink:href="#DejaVuSans-6e" x="273.568359"/>
      <use xlink:href="#DejaVuSans-74" x="336.947266"/>
      <use xlink:href="#DejaVuSans-69" x="376.15625"/>
      <use xlink:href="#DejaVuSans-6c" x="403.939453"/>
      <use xlink:href="#DejaVuSans-65" x="431.722656"/>
      <use xlink:href="#DejaVuSans-20" x="493.246094"/>
      <use xlink:href="#DejaVuSans-54" x="525.033203"/>
      <use xlink:href="#DejaVuSans-68" x="586.117188"/>
      <use xlink:href="#DejaVuSans-72" x="649.496094"/>
      <use xlink:href="#DejaVuSans-65" x="688.359375"/>
      <use xlink:href="#DejaVuSans-73" x="749.882812"/>
      <use xlink:href="#DejaVuSans-68" x="801.982422"/>
      <use xlink:href="#DejaVuSans-6f" x="865.361328"/>
      <use xlink:href="#DejaVuSans-6c" x="926.542969"/>
      <use xlink:href="#DejaVuSans-64" x="954.326172"/>
     </g>
     <!-- (Using "leave_out" Threshold Handling) -->
     <g transform="translate(407.379375 557.78075) scale(0.2 -0.2)">
      <defs>
       <path id="DejaVuSans-28" d="M 1984 4856 
Q 1566 4138 1362 3434 
Q 1159 2731 1159 2009 
Q 1159 1288 1364 580 
Q 1569 -128 1984 -844 
L 1484 -844 
Q 1016 -109 783 600 
Q 550 1309 550 2009 
Q 550 2706 781 3412 
Q 1013 4119 1484 4856 
L 1984 4856 
z
" transform="scale(0.015625)"/>
       <path id="DejaVuSans-55" d="M 556 4666 
L 1191 4666 
L 1191 1831 
Q 1191 1081 1462 751 
Q 1734 422 2344 422 
Q 2950 422 3222 751 
Q 3494 1081 3494 1831 
L 3494 4666 
L 4128 4666 
L 4128 1753 
Q 4128 841 3676 375 
Q 3225 -91 2344 -91 
Q 1459 -91 1007 375 
Q 556 841 556 1753 
L 556 4666 
z
" transform="scale(0.015625)"/>
       <path id="DejaVuSans-67" d="M 2906 1791 
Q 2906 2416 2648 2759 
Q 2391 3103 1925 3103 
Q 1463 3103 1205 2759 
Q 947 2416 947 1791 
Q 947 1169 1205 825 
Q 1463 481 1925 481 
Q 2391 481 2648 825 
Q 2906 1169 2906 1791 
z
M 3481 434 
Q 3481 -459 3084 -895 
Q 2688 -1331 1869 -1331 
Q 1566 -1331 1297 -1286 
Q 1028 -1241 775 -1147 
L 775 -588 
Q 1028 -725 1275 -790 
Q 1522 -856 1778 -856 
Q 2344 -856 2625 -561 
Q 2906 -266 2906 331 
L 2906 616 
Q 2728 306 2450 153 
Q 2172 0 1784 0 
Q 1141 0 747 490 
Q 353 981 353 1791 
Q 353 2603 747 3093 
Q 1141 3584 1784 3584 
Q 2172 3584 2450 3431 
Q 2728 3278 2906 2969 
L 2906 3500 
L 3481 3500 
L 3481 434 
z
" transform="scale(0.015625)"/>
       <path id="DejaVuSans-22" d="M 1147 4666 
L 1147 2931 
L 616 2931 
L 616 4666 
L 1147 4666 
z
M 2328 4666 
L 2328 2931 
L 1797 2931 
L 1797 4666 
L 2328 4666 
z
" transform="scale(0.015625)"/>
       <path id="DejaVuSans-61" d="M 2194 1759 
Q 1497 1759 1228 1600 
Q 959 1441 959 1056 
Q 959 750 1161 570 
Q 1363 391 1709 391 
Q 2188 391 2477 730 
Q 2766 1069 2766 1631 
L 2766 1759 
L 2194 1759 
z
M 3341 1997 
L 3341 0 
L 2766 0 
L 2766 531 
Q 2569 213 2275 61 
Q 1981 -91 1556 -91 
Q 1019 -91 701 211 
Q 384 513 384 1019 
Q 384 1609 779 1909 
Q 1175 2209 1959 2209 
L 2766 2209 
L 2766 2266 
Q 2766 2663 2505 2880 
Q 2244 3097 1772 3097 
Q 1472 3097 1187 3025 
Q 903 2953 641 2809 
L 641 3341 
Q 956 3463 1253 3523 
Q 1550 3584 1831 3584 
Q 2591 3584 2966 3190 
Q 3341 2797 3341 1997 
z
" transform="scale(0.015625)"/>
       <path id="DejaVuSans-76" d="M 191 3500 
L 800 3500 
L 1894 563 
L 2988 3500 
L 3597 3500 
L 2284 0 
L 1503 0 
L 191 3500 
z
" transform="scale(0.015625)"/>
       <path id="DejaVuSans-5f" d="M 3263 -1063 
L 3263 -1509 
L -63 -1509 
L -63 -1063 
L 3263 -1063 
z
" transform="scale(0.015625)"/>
       <path id="DejaVuSans-75" d="M 544 1381 
L 544 3500 
L 1119 3500 
L 1119 1403 
Q 1119 906 1312 657 
Q 1506 409 1894 409 
Q 2359 409 2629 706 
Q 2900 1003 2900 1516 
L 2900 3500 
L 3475 3500 
L 3475 0 
L 2900 0 
L 2900 538 
Q 2691 219 2414 64 
Q 2138 -91 1772 -91 
Q 1169 -91 856 284 
Q 544 659 544 1381 
z
M 1991 3584 
L 1991 3584 
z
" transform="scale(0.015625)"/>
       <path id="DejaVuSans-48" d="M 628 4666 
L 1259 4666 
L 1259 2753 
L 3553 2753 
L 3553 4666 
L 4184 4666 
L 4184 0 
L 3553 0 
L 3553 2222 
L 1259 2222 
L 1259 0 
L 628 0 
L 628 4666 
z
" transform="scale(0.015625)"/>
       <path id="DejaVuSans-29" d="M 513 4856 
L 1013 4856 
Q 1481 4119 1714 3412 
Q 1947 2706 1947 2009 
Q 1947 1309 1714 600 
Q 1481 -109 1013 -844 
L 513 -844 
Q 928 -128 1133 580 
Q 1338 1288 1338 2009 
Q 1338 2731 1133 3434 
Q 928 4138 513 4856 
z
" transform="scale(0.015625)"/>
      </defs>
      <use xlink:href="#DejaVuSans-28"/>
      <use xlink:href="#DejaVuSans-55" x="39.013672"/>
      <use xlink:href="#DejaVuSans-73" x="112.207031"/>
      <use xlink:href="#DejaVuSans-69" x="164.306641"/>
      <use xlink:href="#DejaVuSans-6e" x="192.089844"/>
      <use xlink:href="#DejaVuSans-67" x="255.46875"/>
      <use xlink:href="#DejaVuSans-20" x="318.945312"/>
      <use xlink:href="#DejaVuSans-22" x="350.732422"/>
      <use xlink:href="#DejaVuSans-6c" x="396.728516"/>
      <use xlink:href="#DejaVuSans-65" x="424.511719"/>
      <use xlink:href="#DejaVuSans-61" x="486.035156"/>
      <use xlink:href="#DejaVuSans-76" x="547.314453"/>
      <use xlink:href="#DejaVuSans-65" x="606.494141"/>
      <use xlink:href="#DejaVuSans-5f" x="668.017578"/>
      <use xlink:href="#DejaVuSans-6f" x="718.017578"/>
      <use xlink:href="#DejaVuSans-75" x="779.199219"/>
      <use xlink:href="#DejaVuSans-74" x="842.578125"/>
      <use xlink:href="#DejaVuSans-22" x="881.787109"/>
      <use xlink:href="#DejaVuSans-20" x="927.783203"/>
      <use xlink:href="#DejaVuSans-54" x="959.570312"/>
      <use xlink:href="#DejaVuSans-68" x="1020.654297"/>
      <use xlink:href="#DejaVuSans-72" x="1084.033203"/>
      <use xlink:href="#DejaVuSans-65" x="1122.896484"/>
      <use xlink:href="#DejaVuSans-73" x="1184.419922"/>
      <use xlink:href="#DejaVuSans-68" x="1236.519531"/>
      <use xlink:href="#DejaVuSans-6f" x="1299.898438"/>
      <use xlink:href="#DejaVuSans-6c" x="1361.080078"/>
      <use xlink:href="#DejaVuSans-64" x="1388.863281"/>
      <use xlink:href="#DejaVuSans-20" x="1452.339844"/>
      <use xlink:href="#DejaVuSans-48" x="1484.126953"/>
      <use xlink:href="#DejaVuSans-61" x="1559.322266"/>
      <use xlink:href="#DejaVuSans-6e" x="1620.601562"/>
      <use xlink:href="#DejaVuSans-64" x="1683.980469"/>
      <use xlink:href="#DejaVuSans-6c" x="1747.457031"/>
      <use xlink:href="#DejaVuSans-69" x="1775.240234"/>
      <use xlink:href="#DejaVuSans-6e" x="1803.023438"/>
      <use xlink:href="#DejaVuSans-67" x="1866.402344"/>
      <use xlink:href="#DejaVuSans-29" x="1929.878906"/>
     </g>
    </g>
   </g>
   <g id="matplotlib.axis_2">
    <g id="ytick_1">
     <g id="line2d_7">
      <defs>
       <path id="m8bb0c9b65c" d="M 0 0 
L -3.5 0 
" style="stroke: #000000; stroke-width: 0.8"/>
      </defs>
      <g>
       <use xlink:href="#m8bb0c9b65c" x="67.34" y="470.577367" style="stroke: #000000; stroke-width: 0.8"/>
      </g>
     </g>
     <g id="text_8">
      <!-- 15 -->
      <g transform="translate(34.89 478.175804) scale(0.2 -0.2)">
       <use xlink:href="#DejaVuSans-31"/>
       <use xlink:href="#DejaVuSans-35" x="63.623047"/>
      </g>
     </g>
    </g>
    <g id="ytick_2">
     <g id="line2d_8">
      <g>
       <use xlink:href="#m8bb0c9b65c" x="67.34" y="391.469802" style="stroke: #000000; stroke-width: 0.8"/>
      </g>
     </g>
     <g id="text_9">
      <!-- 20 -->
      <g transform="translate(34.89 399.06824) scale(0.2 -0.2)">
       <use xlink:href="#DejaVuSans-32"/>
       <use xlink:href="#DejaVuSans-30" x="63.623047"/>
      </g>
     </g>
    </g>
    <g id="ytick_3">
     <g id="line2d_9">
      <g>
       <use xlink:href="#m8bb0c9b65c" x="67.34" y="312.362238" style="stroke: #000000; stroke-width: 0.8"/>
      </g>
     </g>
     <g id="text_10">
      <!-- 25 -->
      <g transform="translate(34.89 319.960676) scale(0.2 -0.2)">
       <use xlink:href="#DejaVuSans-32"/>
       <use xlink:href="#DejaVuSans-35" x="63.623047"/>
      </g>
     </g>
    </g>
    <g id="ytick_4">
     <g id="line2d_10">
      <g>
       <use xlink:href="#m8bb0c9b65c" x="67.34" y="233.254674" style="stroke: #000000; stroke-width: 0.8"/>
      </g>
     </g>
     <g id="text_11">
      <!-- 30 -->
      <g transform="translate(34.89 240.853111) scale(0.2 -0.2)">
       <use xlink:href="#DejaVuSans-33"/>
       <use xlink:href="#DejaVuSans-30" x="63.623047"/>
      </g>
     </g>
    </g>
    <g id="ytick_5">
     <g id="line2d_11">
      <g>
       <use xlink:href="#m8bb0c9b65c" x="67.34" y="154.147109" style="stroke: #000000; stroke-width: 0.8"/>
      </g>
     </g>
     <g id="text_12">
      <!-- 35 -->
      <g transform="translate(34.89 161.745547) scale(0.2 -0.2)">
       <use xlink:href="#DejaVuSans-33"/>
       <use xlink:href="#DejaVuSans-35" x="63.623047"/>
      </g>
     </g>
    </g>
    <g id="ytick_6">
     <g id="line2d_12">
      <g>
       <use xlink:href="#m8bb0c9b65c" x="67.34" y="75.039545" style="stroke: #000000; stroke-width: 0.8"/>
      </g>
     </g>
     <g id="text_13">
      <!-- 40 -->
      <g transform="translate(34.89 82.637982) scale(0.2 -0.2)">
       <use xlink:href="#DejaVuSans-34"/>
       <use xlink:href="#DejaVuSans-30" x="63.623047"/>
      </g>
     </g>
    </g>
    <g id="text_14">
     <!-- RMSE -->
     <g transform="translate(26.730625 278.55975) rotate(-90) scale(0.2 -0.2)">
      <defs>
       <path id="DejaVuSans-52" d="M 2841 2188 
Q 3044 2119 3236 1894 
Q 3428 1669 3622 1275 
L 4263 0 
L 3584 0 
L 2988 1197 
Q 2756 1666 2539 1819 
Q 2322 1972 1947 1972 
L 1259 1972 
L 1259 0 
L 628 0 
L 628 4666 
L 2053 4666 
Q 2853 4666 3247 4331 
Q 3641 3997 3641 3322 
Q 3641 2881 3436 2590 
Q 3231 2300 2841 2188 
z
M 1259 4147 
L 1259 2491 
L 2053 2491 
Q 2509 2491 2742 2702 
Q 2975 2913 2975 3322 
Q 2975 3731 2742 3939 
Q 2509 4147 2053 4147 
L 1259 4147 
z
" transform="scale(0.015625)"/>
       <path id="DejaVuSans-4d" d="M 628 4666 
L 1569 4666 
L 2759 1491 
L 3956 4666 
L 4897 4666 
L 4897 0 
L 4281 0 
L 4281 4097 
L 3078 897 
L 2444 897 
L 1241 4097 
L 1241 0 
L 628 0 
L 628 4666 
z
" transform="scale(0.015625)"/>
       <path id="DejaVuSans-53" d="M 3425 4513 
L 3425 3897 
Q 3066 4069 2747 4153 
Q 2428 4238 2131 4238 
Q 1616 4238 1336 4038 
Q 1056 3838 1056 3469 
Q 1056 3159 1242 3001 
Q 1428 2844 1947 2747 
L 2328 2669 
Q 3034 2534 3370 2195 
Q 3706 1856 3706 1288 
Q 3706 609 3251 259 
Q 2797 -91 1919 -91 
Q 1588 -91 1214 -16 
Q 841 59 441 206 
L 441 856 
Q 825 641 1194 531 
Q 1563 422 1919 422 
Q 2459 422 2753 634 
Q 3047 847 3047 1241 
Q 3047 1584 2836 1778 
Q 2625 1972 2144 2069 
L 1759 2144 
Q 1053 2284 737 2584 
Q 422 2884 422 3419 
Q 422 4038 858 4394 
Q 1294 4750 2059 4750 
Q 2388 4750 2728 4690 
Q 3069 4631 3425 4513 
z
" transform="scale(0.015625)"/>
       <path id="DejaVuSans-45" d="M 628 4666 
L 3578 4666 
L 3578 4134 
L 1259 4134 
L 1259 2753 
L 3481 2753 
L 3481 2222 
L 1259 2222 
L 1259 531 
L 3634 531 
L 3634 0 
L 628 0 
L 628 4666 
z
" transform="scale(0.015625)"/>
      </defs>
      <use xlink:href="#DejaVuSans-52"/>
      <use xlink:href="#DejaVuSans-4d" x="69.482422"/>
      <use xlink:href="#DejaVuSans-53" x="155.761719"/>
      <use xlink:href="#DejaVuSans-45" x="219.238281"/>
     </g>
    </g>
   </g>
   <g id="line2d_13">
    <path d="M 116.151818 457.786909 
L 156.828333 453.543119 
L 197.504848 437.115654 
L 238.181364 425.136972 
L 278.857879 405.315166 
L 319.534394 384.260185 
L 360.210909 381.071619 
L 400.887424 368.494875 
L 441.563939 351.793503 
L 482.240455 340.635968 
L 522.91697 329.33558 
L 563.593485 335.853295 
L 604.27 315.561531 
L 644.946515 296.287246 
L 685.62303 315.177498 
L 726.299545 316.157669 
L 766.976061 306.041204 
L 807.652576 311.939696 
L 848.329091 316.169087 
L 889.005606 328.463604 
L 929.682121 331.023954 
L 970.358636 330.709357 
L 1011.035152 335.509886 
L 1051.711667 335.296797 
L 1092.388182 325.995495 
" clip-path="url(#p54c2b27996)" style="fill: none; stroke: #f77189; stroke-width: 1.5; stroke-linecap: square"/>
   </g>
   <g id="line2d_14">
    <path d="M 116.151818 438.288275 
L 156.828333 430.402286 
L 197.504848 413.714152 
L 238.181364 403.507983 
L 278.857879 387.20578 
L 319.534394 363.077663 
L 360.210909 355.095023 
L 400.887424 348.608448 
L 441.563939 326.175164 
L 482.240455 338.227032 
L 522.91697 332.843397 
L 563.593485 343.61062 
L 604.27 327.135684 
L 644.946515 328.191117 
L 685.62303 344.137912 
L 726.299545 349.809636 
L 766.976061 344.305954 
L 807.652576 332.741824 
L 848.329091 327.813944 
L 889.005606 317.311531 
L 929.682121 304.015898 
L 970.358636 297.603055 
L 1011.035152 289.748247 
L 1051.711667 293.687873 
L 1092.388182 302.190667 
" clip-path="url(#p54c2b27996)" style="fill: none; stroke: #e18632; stroke-width: 1.5; stroke-linecap: square"/>
   </g>
   <g id="line2d_15">
    <path d="M 116.151818 454.391664 
L 156.828333 451.83427 
L 197.504848 430.106024 
L 238.181364 421.065052 
L 278.857879 404.309769 
L 319.534394 381.716592 
L 360.210909 368.174668 
L 400.887424 368.739758 
L 441.563939 338.300253 
L 482.240455 332.331847 
L 522.91697 325.157526 
L 563.593485 325.857715 
L 604.27 311.808735 
L 644.946515 313.801899 
L 685.62303 296.4868 
L 726.299545 311.462274 
L 766.976061 315.501067 
L 807.652576 325.906646 
L 848.329091 321.510848 
L 889.005606 312.667466 
L 929.682121 316.380834 
L 970.358636 309.019868 
L 1011.035152 305.760606 
L 1051.711667 306.358758 
L 1092.388182 308.299878 
" clip-path="url(#p54c2b27996)" style="fill: none; stroke: #b59a32; stroke-width: 1.5; stroke-linecap: square"/>
   </g>
   <g id="line2d_16">
    <path d="M 116.151818 431.027371 
L 156.828333 430.686686 
L 197.504848 414.357484 
L 238.181364 401.485766 
L 278.857879 387.318602 
L 319.534394 352.978558 
L 360.210909 365.992072 
L 400.887424 350.29484 
L 441.563939 339.081973 
L 482.240455 324.664812 
L 522.91697 317.567598 
L 563.593485 322.954333 
L 604.27 304.54502 
L 644.946515 283.493632 
L 685.62303 285.748372 
L 726.299545 295.308136 
L 766.976061 283.549863 
L 807.652576 294.466371 
L 848.329091 286.172306 
L 889.005606 299.13006 
L 929.682121 306.484767 
L 970.358636 302.309831 
L 1011.035152 301.692185 
L 1051.711667 303.641644 
L 1092.388182 294.973863 
" clip-path="url(#p54c2b27996)" style="fill: none; stroke: #8ba731; stroke-width: 1.5; stroke-linecap: square"/>
   </g>
   <g id="line2d_17">
    <path d="M 116.151818 408.698894 
L 156.828333 406.870733 
L 197.504848 393.51076 
L 238.181364 387.784352 
L 278.857879 373.584525 
L 319.534394 366.847883 
L 360.210909 354.49043 
L 400.887424 347.187235 
L 441.563939 334.968539 
L 482.240455 338.683039 
L 522.91697 338.809654 
L 563.593485 342.134817 
L 604.27 329.63218 
L 644.946515 327.389558 
L 685.62303 340.138367 
L 726.299545 328.678735 
L 766.976061 333.365787 
L 807.652576 332.823201 
L 848.329091 321.582481 
L 889.005606 297.890375 
L 929.682121 322.788951 
L 970.358636 301.203345 
L 1011.035152 303.238978 
L 1051.711667 327.102553 
L 1092.388182 313.123324 
" clip-path="url(#p54c2b27996)" style="fill: none; stroke: #32b258; stroke-width: 1.5; stroke-linecap: square"/>
   </g>
   <g id="line2d_18">
    <path d="M 116.151818 418.318503 
L 156.828333 411.552641 
L 197.504848 401.352416 
L 238.181364 388.498515 
L 278.857879 378.965357 
L 319.534394 354.74333 
L 360.210909 340.682718 
L 400.887424 343.199441 
L 441.563939 313.112474 
L 482.240455 324.322486 
L 522.91697 327.750867 
L 563.593485 339.379577 
L 604.27 332.981781 
L 644.946515 322.082448 
L 685.62303 332.107261 
L 726.299545 324.727431 
L 766.976061 334.655251 
L 807.652576 345.465004 
L 848.329091 324.849026 
L 889.005606 326.93081 
L 929.682121 326.895127 
L 970.358636 310.478909 
L 1011.035152 313.489238 
L 1051.711667 313.975982 
L 1092.388182 305.577475 
" clip-path="url(#p54c2b27996)" style="fill: none; stroke: #35ae95; stroke-width: 1.5; stroke-linecap: square"/>
   </g>
   <g id="line2d_19">
    <path d="M 116.151818 421.115202 
L 156.828333 410.798317 
L 197.504848 400.425617 
L 238.181364 386.019947 
L 278.857879 370.308906 
L 319.534394 346.957793 
L 360.210909 344.912935 
L 400.887424 336.674922 
L 441.563939 321.694628 
L 482.240455 325.150914 
L 522.91697 321.509955 
L 563.593485 324.783002 
L 604.27 313.488446 
L 644.946515 308.80508 
L 685.62303 309.828809 
L 726.299545 322.160725 
L 766.976061 317.95576 
L 807.652576 320.432287 
L 848.329091 317.730772 
L 889.005606 306.212095 
L 929.682121 306.341452 
L 970.358636 293.012259 
L 1011.035152 290.177247 
L 1051.711667 290.185356 
L 1092.388182 291.618607 
" clip-path="url(#p54c2b27996)" style="fill: none; stroke: #37abb2; stroke-width: 1.5; stroke-linecap: square"/>
   </g>
   <g id="line2d_20">
    <path d="M 116.151818 380.373295 
L 156.828333 371.618225 
L 197.504848 358.101329 
L 238.181364 339.554082 
L 278.857879 323.026315 
L 319.534394 294.322895 
L 360.210909 313.042576 
L 400.887424 302.063854 
L 441.563939 275.618952 
L 482.240455 294.87557 
L 522.91697 303.410783 
L 563.593485 312.826947 
L 604.27 300.391294 
L 644.946515 284.098237 
L 685.62303 271.240698 
L 726.299545 293.008459 
L 766.976061 289.340181 
L 807.652576 322.111689 
L 848.329091 341.054187 
L 889.005606 312.871127 
L 929.682121 314.208646 
L 970.358636 296.213276 
L 1011.035152 289.583344 
L 1051.711667 288.220892 
L 1092.388182 314.755696 
" clip-path="url(#p54c2b27996)" style="fill: none; stroke: #39a7d6; stroke-width: 1.5; stroke-linecap: square"/>
   </g>
   <g id="line2d_21">
    <path d="M 116.151818 326.949745 
L 156.828333 321.387189 
L 197.504848 315.877863 
L 238.181364 306.864244 
L 278.857879 292.323668 
L 319.534394 276.719579 
L 360.210909 263.451004 
L 400.887424 262.108755 
L 441.563939 256.391218 
L 482.240455 245.113343 
L 522.91697 245.856632 
L 563.593485 258.005909 
L 604.27 251.31706 
L 644.946515 240.688198 
L 685.62303 233.463587 
L 726.299545 253.341964 
L 766.976061 248.348423 
L 807.652576 241.363956 
L 848.329091 251.436838 
L 889.005606 252.413973 
L 929.682121 253.652265 
L 970.358636 264.609783 
L 1011.035152 264.861942 
L 1051.711667 272.854609 
L 1092.388182 269.787883 
" clip-path="url(#p54c2b27996)" style="fill: none; stroke: #8f93f4; stroke-width: 1.5; stroke-linecap: square"/>
   </g>
   <g id="line2d_22">
    <path d="M 116.151818 326.939841 
L 156.828333 321.386035 
L 197.504848 315.883519 
L 238.181364 306.870657 
L 278.857879 292.319064 
L 319.534394 276.729633 
L 360.210909 263.454612 
L 400.887424 262.115283 
L 441.563939 256.41719 
L 482.240455 245.114173 
L 522.91697 245.855543 
L 563.593485 258.010011 
L 604.27 251.325178 
L 644.946515 240.680912 
L 685.62303 233.453613 
L 726.299545 253.358731 
L 766.976061 248.364491 
L 807.652576 241.35522 
L 848.329091 251.434742 
L 889.005606 252.412898 
L 929.682121 253.662324 
L 970.358636 264.642101 
L 1011.035152 264.871507 
L 1051.711667 272.851083 
L 1092.388182 269.781708 
" clip-path="url(#p54c2b27996)" style="fill: none; stroke: #db70f4; stroke-width: 1.5; stroke-linecap: square"/>
   </g>
   <g id="line2d_23">
    <path d="M 116.151818 337.496804 
L 156.828333 289.02034 
L 197.504848 285.020339 
L 238.181364 251.236859 
L 278.857879 243.792655 
L 319.534394 195.445676 
L 360.210909 237.917001 
L 400.887424 192.789162 
L 441.563939 181.292748 
L 482.240455 203.730446 
L 522.91697 177.186539 
L 563.593485 243.926484 
L 604.27 199.997354 
L 644.946515 199.863573 
L 685.62303 193.513616 
L 726.299545 216.274654 
L 766.976061 186.852958 
L 807.652576 197.972077 
L 848.329091 193.959536 
L 889.005606 184.562017 
L 929.682121 173.714255 
L 970.358636 126.456462 
L 1011.035152 144.071025 
L 1051.711667 132.220864 
L 1092.388182 108.20439 
" clip-path="url(#p54c2b27996)" style="fill: none; stroke: #f667c6; stroke-width: 1.5; stroke-linecap: square"/>
   </g>
   <g id="line2d_24"/>
   <g id="line2d_25"/>
   <g id="line2d_26"/>
   <g id="line2d_27"/>
   <g id="line2d_28"/>
   <g id="line2d_29"/>
   <g id="line2d_30"/>
   <g id="line2d_31"/>
   <g id="line2d_32"/>
   <g id="line2d_33"/>
   <g id="line2d_34"/>
   <g id="patch_3">
    <path d="M 67.34 489.832 
L 67.34 10.8 
" style="fill: none; stroke: #000000; stroke-width: 0.8; stroke-linejoin: miter; stroke-linecap: square"/>
   </g>
   <g id="patch_4">
    <path d="M 1141.2 489.832 
L 1141.2 10.8 
" style="fill: none; stroke: #000000; stroke-width: 0.8; stroke-linejoin: miter; stroke-linecap: square"/>
   </g>
   <g id="patch_5">
    <path d="M 67.34 489.832 
L 1141.2 489.832 
" style="fill: none; stroke: #000000; stroke-width: 0.8; stroke-linejoin: miter; stroke-linecap: square"/>
   </g>
   <g id="patch_6">
    <path d="M 67.34 10.8 
L 1141.2 10.8 
" style="fill: none; stroke: #000000; stroke-width: 0.8; stroke-linejoin: miter; stroke-linecap: square"/>
   </g>
   <g id="legend_1">
    <g id="patch_7">
     <path d="M 78.54 481.832 
L 248.285 481.832 
Q 251.485 481.832 251.485 478.632 
L 251.485 221.897 
Q 251.485 218.697 248.285 218.697 
L 78.54 218.697 
Q 75.34 218.697 75.34 221.897 
L 75.34 478.632 
Q 75.34 481.832 78.54 481.832 
z
" style="fill: #ffffff; opacity: 0.8; stroke: #cccccc; stroke-linejoin: miter"/>
    </g>
    <g id="line2d_35">
     <path d="M 81.74 231.6545 
L 97.74 231.6545 
L 113.74 231.6545 
" style="fill: none; stroke: #f77189; stroke-width: 1.5; stroke-linecap: square"/>
    </g>
    <g id="text_15">
     <!-- BayesianRidge -->
     <g transform="translate(126.54 237.2545) scale(0.16 -0.16)">
      <defs>
       <path id="DejaVuSans-42" d="M 1259 2228 
L 1259 519 
L 2272 519 
Q 2781 519 3026 730 
Q 3272 941 3272 1375 
Q 3272 1813 3026 2020 
Q 2781 2228 2272 2228 
L 1259 2228 
z
M 1259 4147 
L 1259 2741 
L 2194 2741 
Q 2656 2741 2882 2914 
Q 3109 3088 3109 3444 
Q 3109 3797 2882 3972 
Q 2656 4147 2194 4147 
L 1259 4147 
z
M 628 4666 
L 2241 4666 
Q 2963 4666 3353 4366 
Q 3744 4066 3744 3513 
Q 3744 3084 3544 2831 
Q 3344 2578 2956 2516 
Q 3422 2416 3680 2098 
Q 3938 1781 3938 1306 
Q 3938 681 3513 340 
Q 3088 0 2303 0 
L 628 0 
L 628 4666 
z
" transform="scale(0.015625)"/>
       <path id="DejaVuSans-79" d="M 2059 -325 
Q 1816 -950 1584 -1140 
Q 1353 -1331 966 -1331 
L 506 -1331 
L 506 -850 
L 844 -850 
Q 1081 -850 1212 -737 
Q 1344 -625 1503 -206 
L 1606 56 
L 191 3500 
L 800 3500 
L 1894 763 
L 2988 3500 
L 3597 3500 
L 2059 -325 
z
" transform="scale(0.015625)"/>
      </defs>
      <use xlink:href="#DejaVuSans-42"/>
      <use xlink:href="#DejaVuSans-61" x="68.603516"/>
      <use xlink:href="#DejaVuSans-79" x="129.882812"/>
      <use xlink:href="#DejaVuSans-65" x="189.0625"/>
      <use xlink:href="#DejaVuSans-73" x="250.585938"/>
      <use xlink:href="#DejaVuSans-69" x="302.685547"/>
      <use xlink:href="#DejaVuSans-61" x="330.46875"/>
      <use xlink:href="#DejaVuSans-6e" x="391.748047"/>
      <use xlink:href="#DejaVuSans-52" x="455.126953"/>
      <use xlink:href="#DejaVuSans-69" x="524.609375"/>
      <use xlink:href="#DejaVuSans-64" x="552.392578"/>
      <use xlink:href="#DejaVuSans-67" x="615.869141"/>
      <use xlink:href="#DejaVuSans-65" x="679.345703"/>
     </g>
    </g>
    <g id="line2d_36">
     <path d="M 81.74 255.1395 
L 97.74 255.1395 
L 113.74 255.1395 
" style="fill: none; stroke: #e18632; stroke-width: 1.5; stroke-linecap: square"/>
    </g>
    <g id="text_16">
     <!-- lgbm -->
     <g transform="translate(126.54 260.7395) scale(0.16 -0.16)">
      <defs>
       <path id="DejaVuSans-62" d="M 3116 1747 
Q 3116 2381 2855 2742 
Q 2594 3103 2138 3103 
Q 1681 3103 1420 2742 
Q 1159 2381 1159 1747 
Q 1159 1113 1420 752 
Q 1681 391 2138 391 
Q 2594 391 2855 752 
Q 3116 1113 3116 1747 
z
M 1159 2969 
Q 1341 3281 1617 3432 
Q 1894 3584 2278 3584 
Q 2916 3584 3314 3078 
Q 3713 2572 3713 1747 
Q 3713 922 3314 415 
Q 2916 -91 2278 -91 
Q 1894 -91 1617 61 
Q 1341 213 1159 525 
L 1159 0 
L 581 0 
L 581 4863 
L 1159 4863 
L 1159 2969 
z
" transform="scale(0.015625)"/>
       <path id="DejaVuSans-6d" d="M 3328 2828 
Q 3544 3216 3844 3400 
Q 4144 3584 4550 3584 
Q 5097 3584 5394 3201 
Q 5691 2819 5691 2113 
L 5691 0 
L 5113 0 
L 5113 2094 
Q 5113 2597 4934 2840 
Q 4756 3084 4391 3084 
Q 3944 3084 3684 2787 
Q 3425 2491 3425 1978 
L 3425 0 
L 2847 0 
L 2847 2094 
Q 2847 2600 2669 2842 
Q 2491 3084 2119 3084 
Q 1678 3084 1418 2786 
Q 1159 2488 1159 1978 
L 1159 0 
L 581 0 
L 581 3500 
L 1159 3500 
L 1159 2956 
Q 1356 3278 1631 3431 
Q 1906 3584 2284 3584 
Q 2666 3584 2933 3390 
Q 3200 3197 3328 2828 
z
" transform="scale(0.015625)"/>
      </defs>
      <use xlink:href="#DejaVuSans-6c"/>
      <use xlink:href="#DejaVuSans-67" x="27.783203"/>
      <use xlink:href="#DejaVuSans-62" x="91.259766"/>
      <use xlink:href="#DejaVuSans-6d" x="154.736328"/>
     </g>
    </g>
    <g id="line2d_37">
     <path d="M 81.74 278.6245 
L 97.74 278.6245 
L 113.74 278.6245 
" style="fill: none; stroke: #b59a32; stroke-width: 1.5; stroke-linecap: square"/>
    </g>
    <g id="text_17">
     <!-- et -->
     <g transform="translate(126.54 284.2245) scale(0.16 -0.16)">
      <use xlink:href="#DejaVuSans-65"/>
      <use xlink:href="#DejaVuSans-74" x="61.523438"/>
     </g>
    </g>
    <g id="line2d_38">
     <path d="M 81.74 302.1095 
L 97.74 302.1095 
L 113.74 302.1095 
" style="fill: none; stroke: #8ba731; stroke-width: 1.5; stroke-linecap: square"/>
    </g>
    <g id="text_18">
     <!-- HubR -->
     <g transform="translate(126.54 307.7095) scale(0.16 -0.16)">
      <use xlink:href="#DejaVuSans-48"/>
      <use xlink:href="#DejaVuSans-75" x="75.195312"/>
      <use xlink:href="#DejaVuSans-62" x="138.574219"/>
      <use xlink:href="#DejaVuSans-52" x="202.050781"/>
     </g>
    </g>
    <g id="line2d_39">
     <path d="M 81.74 325.5945 
L 97.74 325.5945 
L 113.74 325.5945 
" style="fill: none; stroke: #32b258; stroke-width: 1.5; stroke-linecap: square"/>
    </g>
    <g id="text_19">
     <!-- Adaboost -->
     <g transform="translate(126.54 331.1945) scale(0.16 -0.16)">
      <defs>
       <path id="DejaVuSans-41" d="M 2188 4044 
L 1331 1722 
L 3047 1722 
L 2188 4044 
z
M 1831 4666 
L 2547 4666 
L 4325 0 
L 3669 0 
L 3244 1197 
L 1141 1197 
L 716 0 
L 50 0 
L 1831 4666 
z
" transform="scale(0.015625)"/>
      </defs>
      <use xlink:href="#DejaVuSans-41"/>
      <use xlink:href="#DejaVuSans-64" x="66.658203"/>
      <use xlink:href="#DejaVuSans-61" x="130.134766"/>
      <use xlink:href="#DejaVuSans-62" x="191.414062"/>
      <use xlink:href="#DejaVuSans-6f" x="254.890625"/>
      <use xlink:href="#DejaVuSans-6f" x="316.072266"/>
      <use xlink:href="#DejaVuSans-73" x="377.253906"/>
      <use xlink:href="#DejaVuSans-74" x="429.353516"/>
     </g>
    </g>
    <g id="line2d_40">
     <path d="M 81.74 349.0795 
L 97.74 349.0795 
L 113.74 349.0795 
" style="fill: none; stroke: #35ae95; stroke-width: 1.5; stroke-linecap: square"/>
    </g>
    <g id="text_20">
     <!-- gbr -->
     <g transform="translate(126.54 354.6795) scale(0.16 -0.16)">
      <use xlink:href="#DejaVuSans-67"/>
      <use xlink:href="#DejaVuSans-62" x="63.476562"/>
      <use xlink:href="#DejaVuSans-72" x="126.953125"/>
     </g>
    </g>
    <g id="line2d_41">
     <path d="M 81.74 372.5645 
L 97.74 372.5645 
L 113.74 372.5645 
" style="fill: none; stroke: #37abb2; stroke-width: 1.5; stroke-linecap: square"/>
    </g>
    <g id="text_21">
     <!-- rf -->
     <g transform="translate(126.54 378.1645) scale(0.16 -0.16)">
      <defs>
       <path id="DejaVuSans-66" d="M 2375 4863 
L 2375 4384 
L 1825 4384 
Q 1516 4384 1395 4259 
Q 1275 4134 1275 3809 
L 1275 3500 
L 2222 3500 
L 2222 3053 
L 1275 3053 
L 1275 0 
L 697 0 
L 697 3053 
L 147 3053 
L 147 3500 
L 697 3500 
L 697 3744 
Q 697 4328 969 4595 
Q 1241 4863 1831 4863 
L 2375 4863 
z
" transform="scale(0.015625)"/>
      </defs>
      <use xlink:href="#DejaVuSans-72"/>
      <use xlink:href="#DejaVuSans-66" x="41.113281"/>
     </g>
    </g>
    <g id="line2d_42">
     <path d="M 81.74 396.0495 
L 97.74 396.0495 
L 113.74 396.0495 
" style="fill: none; stroke: #39a7d6; stroke-width: 1.5; stroke-linecap: square"/>
    </g>
    <g id="text_22">
     <!-- xgb -->
     <g transform="translate(126.54 401.6495) scale(0.16 -0.16)">
      <defs>
       <path id="DejaVuSans-78" d="M 3513 3500 
L 2247 1797 
L 3578 0 
L 2900 0 
L 1881 1375 
L 863 0 
L 184 0 
L 1544 1831 
L 300 3500 
L 978 3500 
L 1906 2253 
L 2834 3500 
L 3513 3500 
z
" transform="scale(0.015625)"/>
      </defs>
      <use xlink:href="#DejaVuSans-78"/>
      <use xlink:href="#DejaVuSans-67" x="59.179688"/>
      <use xlink:href="#DejaVuSans-62" x="122.65625"/>
     </g>
    </g>
    <g id="line2d_43">
     <path d="M 81.74 419.5345 
L 97.74 419.5345 
L 113.74 419.5345 
" style="fill: none; stroke: #8f93f4; stroke-width: 1.5; stroke-linecap: square"/>
    </g>
    <g id="text_23">
     <!-- Lasso -->
     <g transform="translate(126.54 425.1345) scale(0.16 -0.16)">
      <defs>
       <path id="DejaVuSans-4c" d="M 628 4666 
L 1259 4666 
L 1259 531 
L 3531 531 
L 3531 0 
L 628 0 
L 628 4666 
z
" transform="scale(0.015625)"/>
      </defs>
      <use xlink:href="#DejaVuSans-4c"/>
      <use xlink:href="#DejaVuSans-61" x="55.712891"/>
      <use xlink:href="#DejaVuSans-73" x="116.992188"/>
      <use xlink:href="#DejaVuSans-73" x="169.091797"/>
      <use xlink:href="#DejaVuSans-6f" x="221.191406"/>
     </g>
    </g>
    <g id="line2d_44">
     <path d="M 81.74 443.0195 
L 97.74 443.0195 
L 113.74 443.0195 
" style="fill: none; stroke: #db70f4; stroke-width: 1.5; stroke-linecap: square"/>
    </g>
    <g id="text_24">
     <!-- LassoLars -->
     <g transform="translate(126.54 448.6195) scale(0.16 -0.16)">
      <use xlink:href="#DejaVuSans-4c"/>
      <use xlink:href="#DejaVuSans-61" x="55.712891"/>
      <use xlink:href="#DejaVuSans-73" x="116.992188"/>
      <use xlink:href="#DejaVuSans-73" x="169.091797"/>
      <use xlink:href="#DejaVuSans-6f" x="221.191406"/>
      <use xlink:href="#DejaVuSans-4c" x="282.373047"/>
      <use xlink:href="#DejaVuSans-61" x="338.085938"/>
      <use xlink:href="#DejaVuSans-72" x="399.365234"/>
      <use xlink:href="#DejaVuSans-73" x="440.478516"/>
     </g>
    </g>
    <g id="line2d_45">
     <path d="M 81.74 466.5045 
L 97.74 466.5045 
L 113.74 466.5045 
" style="fill: none; stroke: #f667c6; stroke-width: 1.5; stroke-linecap: square"/>
    </g>
    <g id="text_25">
     <!-- dt -->
     <g transform="translate(126.54 472.1045) scale(0.16 -0.16)">
      <use xlink:href="#DejaVuSans-64"/>
      <use xlink:href="#DejaVuSans-74" x="63.476562"/>
     </g>
    </g>
   </g>
  </g>
 </g>
 <defs>
  <clipPath id="p54c2b27996">
   <rect x="67.34" y="10.8" width="1073.86" height="479.032"/>
  </clipPath>
 </defs>
</svg>
