<?xml version="1.0" encoding="utf-8" standalone="no"?>
<!DOCTYPE svg PUBLIC "-//W3C//DTD SVG 1.1//EN"
  "http://www.w3.org/Graphics/SVG/1.1/DTD/svg11.dtd">
<svg xmlns:xlink="http://www.w3.org/1999/xlink" width="1152pt" height="576pt" viewBox="0 0 1152 576" xmlns="http://www.w3.org/2000/svg" version="1.1">
 <metadata>
  <rdf:RDF xmlns:dc="http://purl.org/dc/elements/1.1/" xmlns:cc="http://creativecommons.org/ns#" xmlns:rdf="http://www.w3.org/1999/02/22-rdf-syntax-ns#">
   <cc:Work>
    <dc:type rdf:resource="http://purl.org/dc/dcmitype/StillImage"/>
    <dc:date>2025-03-19T23:04:05.271674</dc:date>
    <dc:format>image/svg+xml</dc:format>
    <dc:creator>
     <cc:Agent>
      <dc:title>Matplotlib v3.9.2, https://matplotlib.org/</dc:title>
     </cc:Agent>
    </dc:creator>
   </cc:Work>
  </rdf:RDF>
 </metadata>
 <defs>
  <style type="text/css">*{stroke-linejoin: round; stroke-linecap: butt}</style>
 </defs>
 <g id="figure_1">
  <g id="patch_1">
   <path d="M 0 576 
L 1152 576 
L 1152 0 
L 0 0 
z
" style="fill: #ffffff"/>
  </g>
  <g id="axes_1">
   <g id="patch_2">
    <path d="M 73.91 490.552 
L 1141.2 490.552 
L 1141.2 10.8 
L 73.91 10.8 
z
" style="fill: #ffffff"/>
   </g>
   <g id="PolyCollection_1">
    <defs>
     <path id="m6bf65ca39d" d="M 122.423182 -538.539679 
L 122.423182 -531.775136 
L 143.067089 -527.866361 
L 163.710996 -531.405157 
L 184.354903 -527.888013 
L 204.99881 -517.927117 
L 225.642718 -519.094649 
L 246.286625 -514.343706 
L 266.930532 -508.792206 
L 287.574439 -504.066842 
L 308.218346 -504.67649 
L 328.862253 -501.902622 
L 349.506161 -504.079028 
L 370.150068 -510.624049 
L 390.793975 -503.220974 
L 411.437882 -490.054808 
L 432.081789 -492.65291 
L 452.725696 -492.464722 
L 473.369603 -487.619309 
L 494.013511 -489.273824 
L 514.657418 -500.504291 
L 535.301325 -501.531747 
L 555.945232 -501.531747 
L 576.589139 -498.695104 
L 597.233046 -498.695104 
L 617.876954 -509.415419 
L 638.520861 -509.625946 
L 638.520861 -510.429142 
L 638.520861 -510.429142 
L 617.876954 -520.096358 
L 597.233046 -518.849457 
L 576.589139 -508.120836 
L 555.945232 -512.949487 
L 535.301325 -512.944184 
L 514.657418 -509.005202 
L 494.013511 -500.510818 
L 473.369603 -500.080424 
L 452.725696 -504.078188 
L 432.081789 -504.000532 
L 411.437882 -513.57649 
L 390.793975 -519.862573 
L 370.150068 -522.599476 
L 349.506161 -517.733528 
L 328.862253 -521.201878 
L 308.218346 -516.960124 
L 287.574439 -520.245887 
L 266.930532 -518.62607 
L 246.286625 -523.390067 
L 225.642718 -531.259603 
L 204.99881 -531.121553 
L 184.354903 -537.764425 
L 163.710996 -537.596301 
L 143.067089 -538.572182 
L 122.423182 -538.539679 
z
" style="stroke: #1f77b4; stroke-opacity: 0.2"/>
    </defs>
    <g clip-path="url(#p8b26e503d7)">
     <use xlink:href="#m6bf65ca39d" x="0" y="576" style="fill: #1f77b4; fill-opacity: 0.2; stroke: #1f77b4; stroke-opacity: 0.2"/>
    </g>
   </g>
   <g id="PolyCollection_2">
    <defs>
     <path id="ma485f04f13" d="M 122.423182 -539.608048 
L 122.423182 -532.949716 
L 143.067089 -527.43734 
L 163.710996 -521.498838 
L 184.354903 -527.601228 
L 204.99881 -520.783034 
L 225.642718 -520.054127 
L 246.286625 -505.470721 
L 266.930532 -507.097008 
L 287.574439 -501.15039 
L 308.218346 -508.829563 
L 328.862253 -503.315425 
L 349.506161 -498.340895 
L 370.150068 -493.874906 
L 390.793975 -498.533038 
L 411.437882 -491.692776 
L 432.081789 -471.865292 
L 452.725696 -474.656569 
L 473.369603 -480.664758 
L 494.013511 -458.610732 
L 514.657418 -359.220812 
L 535.301325 -336.102778 
L 555.945232 -383.869849 
L 576.589139 -341.17272 
L 597.233046 -387.954471 
L 617.876954 -332.111869 
L 638.520861 -312.364372 
L 659.164768 -372.41749 
L 679.808675 -289.270163 
L 700.452582 -340.27861 
L 721.096489 -158.381227 
L 741.740397 -142.860671 
L 762.384304 -148.876372 
L 783.028211 -116.651965 
L 803.672118 -141.182196 
L 824.316025 -139.905114 
L 844.959932 -254.214909 
L 865.603839 -268.379226 
L 886.247747 -111.530117 
L 906.891654 -107.254909 
L 906.891654 -215.085965 
L 906.891654 -215.085965 
L 886.247747 -271.322351 
L 865.603839 -311.065252 
L 844.959932 -321.06361 
L 824.316025 -325.22808 
L 803.672118 -318.885623 
L 783.028211 -297.076435 
L 762.384304 -318.684283 
L 741.740397 -317.778513 
L 721.096489 -316.400959 
L 700.452582 -409.73094 
L 679.808675 -441.7707 
L 659.164768 -453.255149 
L 638.520861 -435.26023 
L 617.876954 -421.35645 
L 597.233046 -460.725779 
L 576.589139 -445.723407 
L 555.945232 -457.906487 
L 535.301325 -461.215425 
L 514.657418 -459.604779 
L 494.013511 -493.32473 
L 473.369603 -494.932116 
L 452.725696 -502.074502 
L 432.081789 -504.259408 
L 411.437882 -500.777576 
L 390.793975 -508.475362 
L 370.150068 -506.867326 
L 349.506161 -506.562596 
L 328.862253 -511.904093 
L 308.218346 -517.323587 
L 287.574439 -517.489213 
L 266.930532 -519.150505 
L 246.286625 -519.274001 
L 225.642718 -526.903414 
L 204.99881 -527.617026 
L 184.354903 -533.999878 
L 163.710996 -533.634706 
L 143.067089 -536.585627 
L 122.423182 -539.608048 
z
" style="stroke: #ff7f0e; stroke-opacity: 0.2"/>
    </defs>
    <g clip-path="url(#p8b26e503d7)">
     <use xlink:href="#ma485f04f13" x="0" y="576" style="fill: #ff7f0e; fill-opacity: 0.2; stroke: #ff7f0e; stroke-opacity: 0.2"/>
    </g>
   </g>
   <g id="PolyCollection_3">
    <defs>
     <path id="m727e00cddd" d="M 122.423182 -538.312017 
L 122.423182 -531.790849 
L 143.067089 -530.678332 
L 163.710996 -535.006608 
L 184.354903 -533.8699 
L 204.99881 -534.51851 
L 225.642718 -531.279422 
L 246.286625 -528.449836 
L 266.930532 -529.474181 
L 287.574439 -531.648319 
L 308.218346 -525.233895 
L 328.862253 -524.460197 
L 349.506161 -534.094633 
L 370.150068 -529.673978 
L 390.793975 -531.961565 
L 411.437882 -532.436495 
L 432.081789 -535.003307 
L 452.725696 -533.279505 
L 473.369603 -533.97559 
L 494.013511 -536.219425 
L 514.657418 -534.357168 
L 535.301325 -533.395021 
L 555.945232 -534.521772 
L 576.589139 -534.793506 
L 597.233046 -537.646125 
L 617.876954 -537.167189 
L 638.520861 -532.233223 
L 659.164768 -534.786782 
L 679.808675 -531.959599 
L 700.452582 -534.788792 
L 721.096489 -536.329647 
L 741.740397 -534.582017 
L 762.384304 -534.487866 
L 783.028211 -533.31337 
L 803.672118 -536.114287 
L 824.316025 -536.136367 
L 844.959932 -536.277365 
L 865.603839 -535.281411 
L 886.247747 -536.023509 
L 906.891654 -523.951835 
L 927.535561 -530.528008 
L 948.179468 -530.62999 
L 968.823375 -531.346579 
L 989.467282 -529.353255 
L 1010.11119 -528.921185 
L 1030.755097 -529.958546 
L 1051.399004 -532.145364 
L 1072.042911 -531.676831 
L 1092.686818 -530.070458 
L 1092.686818 -535.871141 
L 1092.686818 -535.871141 
L 1072.042911 -537.380485 
L 1051.399004 -537.761088 
L 1030.755097 -537.751645 
L 1010.11119 -535.215662 
L 989.467282 -535.501145 
L 968.823375 -533.91053 
L 948.179468 -537.74126 
L 927.535561 -537.807964 
L 906.891654 -536.997092 
L 886.247747 -539.777977 
L 865.603839 -541.548109 
L 844.959932 -538.493436 
L 824.316025 -537.882261 
L 803.672118 -540.669511 
L 783.028211 -540.176216 
L 762.384304 -540.340276 
L 741.740397 -538.889342 
L 721.096489 -540.383262 
L 700.452582 -538.520322 
L 679.808675 -540.594192 
L 659.164768 -541.050285 
L 638.520861 -541.956318 
L 617.876954 -542.554499 
L 597.233046 -542.605406 
L 576.589139 -541.783479 
L 555.945232 -541.359503 
L 535.301325 -539.761987 
L 514.657418 -539.437688 
L 494.013511 -540.769905 
L 473.369603 -540.793877 
L 452.725696 -539.612944 
L 432.081789 -542.168165 
L 411.437882 -542.332865 
L 390.793975 -538.957837 
L 370.150068 -536.384641 
L 349.506161 -536.532043 
L 328.862253 -537.879348 
L 308.218346 -536.267473 
L 287.574439 -535.828798 
L 266.930532 -539.473802 
L 246.286625 -535.594015 
L 225.642718 -536.544126 
L 204.99881 -539.204142 
L 184.354903 -537.320315 
L 163.710996 -538.238073 
L 143.067089 -538.387066 
L 122.423182 -538.312017 
z
" style="stroke: #2ca02c; stroke-opacity: 0.2"/>
    </defs>
    <g clip-path="url(#p8b26e503d7)">
     <use xlink:href="#m727e00cddd" x="0" y="576" style="fill: #2ca02c; fill-opacity: 0.2; stroke: #2ca02c; stroke-opacity: 0.2"/>
    </g>
   </g>
   <g id="PolyCollection_4">
    <defs>
     <path id="m127532a2ee" d="M 122.423182 -537.777508 
L 122.423182 -531.566346 
L 143.067089 -531.031192 
L 163.710996 -536.40975 
L 184.354903 -536.032452 
L 204.99881 -535.15492 
L 225.642718 -533.422482 
L 246.286625 -533.295197 
L 266.930532 -538.051323 
L 287.574439 -535.334758 
L 308.218346 -536.38397 
L 328.862253 -536.406616 
L 349.506161 -536.484072 
L 370.150068 -535.740422 
L 390.793975 -536.823356 
L 411.437882 -536.188319 
L 432.081789 -535.887592 
L 452.725696 -535.800961 
L 473.369603 -536.371165 
L 494.013511 -534.987223 
L 514.657418 -528.418581 
L 535.301325 -535.980128 
L 555.945232 -534.250081 
L 576.589139 -536.851995 
L 597.233046 -536.444934 
L 617.876954 -535.655235 
L 638.520861 -533.975734 
L 659.164768 -533.753656 
L 679.808675 -538.546196 
L 700.452582 -532.918455 
L 721.096489 -531.649478 
L 741.740397 -529.518396 
L 762.384304 -535.058939 
L 783.028211 -533.807444 
L 803.672118 -531.479929 
L 824.316025 -529.475951 
L 844.959932 -534.693509 
L 865.603839 -531.23813 
L 886.247747 -533.155009 
L 906.891654 -527.256523 
L 927.535561 -531.408782 
L 948.179468 -530.726172 
L 968.823375 -533.063754 
L 989.467282 -531.593354 
L 1010.11119 -533.586108 
L 1030.755097 -530.824413 
L 1051.399004 -522.601744 
L 1072.042911 -525.696213 
L 1092.686818 -530.034083 
L 1092.686818 -536.45587 
L 1092.686818 -536.45587 
L 1072.042911 -537.632961 
L 1051.399004 -535.002056 
L 1030.755097 -538.270324 
L 1010.11119 -539.453409 
L 989.467282 -537.323491 
L 968.823375 -536.806316 
L 948.179468 -538.135104 
L 927.535561 -536.712791 
L 906.891654 -540.209018 
L 886.247747 -541.374107 
L 865.603839 -536.006434 
L 844.959932 -540.169549 
L 824.316025 -538.671021 
L 803.672118 -538.000279 
L 783.028211 -540.966488 
L 762.384304 -542.747034 
L 741.740397 -538.603625 
L 721.096489 -538.870144 
L 700.452582 -538.960052 
L 679.808675 -541.781444 
L 659.164768 -542.065378 
L 638.520861 -541.5984 
L 617.876954 -541.934598 
L 597.233046 -541.246162 
L 576.589139 -538.989941 
L 555.945232 -539.905362 
L 535.301325 -539.416711 
L 514.657418 -538.562126 
L 494.013511 -540.612098 
L 473.369603 -540.444252 
L 452.725696 -542.018061 
L 432.081789 -540.524087 
L 411.437882 -540.782047 
L 390.793975 -542.323545 
L 370.150068 -543.393091 
L 349.506161 -538.480391 
L 328.862253 -541.869853 
L 308.218346 -540.305661 
L 287.574439 -540.213485 
L 266.930532 -542.312316 
L 246.286625 -538.904679 
L 225.642718 -537.115987 
L 204.99881 -541.551334 
L 184.354903 -541.006651 
L 163.710996 -540.819379 
L 143.067089 -539.893949 
L 122.423182 -537.777508 
z
" style="stroke: #d62728; stroke-opacity: 0.2"/>
    </defs>
    <g clip-path="url(#p8b26e503d7)">
     <use xlink:href="#m127532a2ee" x="0" y="576" style="fill: #d62728; fill-opacity: 0.2; stroke: #d62728; stroke-opacity: 0.2"/>
    </g>
   </g>
   <g id="matplotlib.axis_1">
    <g id="xtick_1">
     <g id="line2d_1">
      <defs>
       <path id="mc78b77849c" d="M 0 0 
L 0 3.5 
" style="stroke: #000000; stroke-width: 0.8"/>
      </defs>
      <g>
       <use xlink:href="#mc78b77849c" x="112.101228" y="490.552" style="stroke: #000000; stroke-width: 0.8"/>
      </g>
     </g>
     <g id="text_1">
      <!-- 0 -->
      <g transform="translate(105.738728 512.748875) scale(0.2 -0.2)">
       <defs>
        <path id="DejaVuSans-30" d="M 2034 4250 
Q 1547 4250 1301 3770 
Q 1056 3291 1056 2328 
Q 1056 1369 1301 889 
Q 1547 409 2034 409 
Q 2525 409 2770 889 
Q 3016 1369 3016 2328 
Q 3016 3291 2770 3770 
Q 2525 4250 2034 4250 
z
M 2034 4750 
Q 2819 4750 3233 4129 
Q 3647 3509 3647 2328 
Q 3647 1150 3233 529 
Q 2819 -91 2034 -91 
Q 1250 -91 836 529 
Q 422 1150 422 2328 
Q 422 3509 836 4129 
Q 1250 4750 2034 4750 
z
" transform="scale(0.015625)"/>
       </defs>
       <use xlink:href="#DejaVuSans-30"/>
      </g>
     </g>
    </g>
    <g id="xtick_2">
     <g id="line2d_2">
      <g>
       <use xlink:href="#mc78b77849c" x="318.5403" y="490.552" style="stroke: #000000; stroke-width: 0.8"/>
      </g>
     </g>
     <g id="text_2">
      <!-- 20 -->
      <g transform="translate(305.8153 512.748875) scale(0.2 -0.2)">
       <defs>
        <path id="DejaVuSans-32" d="M 1228 531 
L 3431 531 
L 3431 0 
L 469 0 
L 469 531 
Q 828 903 1448 1529 
Q 2069 2156 2228 2338 
Q 2531 2678 2651 2914 
Q 2772 3150 2772 3378 
Q 2772 3750 2511 3984 
Q 2250 4219 1831 4219 
Q 1534 4219 1204 4116 
Q 875 4013 500 3803 
L 500 4441 
Q 881 4594 1212 4672 
Q 1544 4750 1819 4750 
Q 2544 4750 2975 4387 
Q 3406 4025 3406 3419 
Q 3406 3131 3298 2873 
Q 3191 2616 2906 2266 
Q 2828 2175 2409 1742 
Q 1991 1309 1228 531 
z
" transform="scale(0.015625)"/>
       </defs>
       <use xlink:href="#DejaVuSans-32"/>
       <use xlink:href="#DejaVuSans-30" x="63.623047"/>
      </g>
     </g>
    </g>
    <g id="xtick_3">
     <g id="line2d_3">
      <g>
       <use xlink:href="#mc78b77849c" x="524.979371" y="490.552" style="stroke: #000000; stroke-width: 0.8"/>
      </g>
     </g>
     <g id="text_3">
      <!-- 40 -->
      <g transform="translate(512.254371 512.748875) scale(0.2 -0.2)">
       <defs>
        <path id="DejaVuSans-34" d="M 2419 4116 
L 825 1625 
L 2419 1625 
L 2419 4116 
z
M 2253 4666 
L 3047 4666 
L 3047 1625 
L 3713 1625 
L 3713 1100 
L 3047 1100 
L 3047 0 
L 2419 0 
L 2419 1100 
L 313 1100 
L 313 1709 
L 2253 4666 
z
" transform="scale(0.015625)"/>
       </defs>
       <use xlink:href="#DejaVuSans-34"/>
       <use xlink:href="#DejaVuSans-30" x="63.623047"/>
      </g>
     </g>
    </g>
    <g id="xtick_4">
     <g id="line2d_4">
      <g>
       <use xlink:href="#mc78b77849c" x="731.418443" y="490.552" style="stroke: #000000; stroke-width: 0.8"/>
      </g>
     </g>
     <g id="text_4">
      <!-- 60 -->
      <g transform="translate(718.693443 512.748875) scale(0.2 -0.2)">
       <defs>
        <path id="DejaVuSans-36" d="M 2113 2584 
Q 1688 2584 1439 2293 
Q 1191 2003 1191 1497 
Q 1191 994 1439 701 
Q 1688 409 2113 409 
Q 2538 409 2786 701 
Q 3034 994 3034 1497 
Q 3034 2003 2786 2293 
Q 2538 2584 2113 2584 
z
M 3366 4563 
L 3366 3988 
Q 3128 4100 2886 4159 
Q 2644 4219 2406 4219 
Q 1781 4219 1451 3797 
Q 1122 3375 1075 2522 
Q 1259 2794 1537 2939 
Q 1816 3084 2150 3084 
Q 2853 3084 3261 2657 
Q 3669 2231 3669 1497 
Q 3669 778 3244 343 
Q 2819 -91 2113 -91 
Q 1303 -91 875 529 
Q 447 1150 447 2328 
Q 447 3434 972 4092 
Q 1497 4750 2381 4750 
Q 2619 4750 2861 4703 
Q 3103 4656 3366 4563 
z
" transform="scale(0.015625)"/>
       </defs>
       <use xlink:href="#DejaVuSans-36"/>
       <use xlink:href="#DejaVuSans-30" x="63.623047"/>
      </g>
     </g>
    </g>
    <g id="xtick_5">
     <g id="line2d_5">
      <g>
       <use xlink:href="#mc78b77849c" x="937.857515" y="490.552" style="stroke: #000000; stroke-width: 0.8"/>
      </g>
     </g>
     <g id="text_5">
      <!-- 80 -->
      <g transform="translate(925.132515 512.748875) scale(0.2 -0.2)">
       <defs>
        <path id="DejaVuSans-38" d="M 2034 2216 
Q 1584 2216 1326 1975 
Q 1069 1734 1069 1313 
Q 1069 891 1326 650 
Q 1584 409 2034 409 
Q 2484 409 2743 651 
Q 3003 894 3003 1313 
Q 3003 1734 2745 1975 
Q 2488 2216 2034 2216 
z
M 1403 2484 
Q 997 2584 770 2862 
Q 544 3141 544 3541 
Q 544 4100 942 4425 
Q 1341 4750 2034 4750 
Q 2731 4750 3128 4425 
Q 3525 4100 3525 3541 
Q 3525 3141 3298 2862 
Q 3072 2584 2669 2484 
Q 3125 2378 3379 2068 
Q 3634 1759 3634 1313 
Q 3634 634 3220 271 
Q 2806 -91 2034 -91 
Q 1263 -91 848 271 
Q 434 634 434 1313 
Q 434 1759 690 2068 
Q 947 2378 1403 2484 
z
M 1172 3481 
Q 1172 3119 1398 2916 
Q 1625 2713 2034 2713 
Q 2441 2713 2670 2916 
Q 2900 3119 2900 3481 
Q 2900 3844 2670 4047 
Q 2441 4250 2034 4250 
Q 1625 4250 1398 4047 
Q 1172 3844 1172 3481 
z
" transform="scale(0.015625)"/>
       </defs>
       <use xlink:href="#DejaVuSans-38"/>
       <use xlink:href="#DejaVuSans-30" x="63.623047"/>
      </g>
     </g>
    </g>
    <g id="text_6">
     <!-- Percentile Threshold -->
     <g transform="translate(505.775312 536.105125) scale(0.2 -0.2)">
      <defs>
       <path id="DejaVuSans-50" d="M 1259 4147 
L 1259 2394 
L 2053 2394 
Q 2494 2394 2734 2622 
Q 2975 2850 2975 3272 
Q 2975 3691 2734 3919 
Q 2494 4147 2053 4147 
L 1259 4147 
z
M 628 4666 
L 2053 4666 
Q 2838 4666 3239 4311 
Q 3641 3956 3641 3272 
Q 3641 2581 3239 2228 
Q 2838 1875 2053 1875 
L 1259 1875 
L 1259 0 
L 628 0 
L 628 4666 
z
" transform="scale(0.015625)"/>
       <path id="DejaVuSans-65" d="M 3597 1894 
L 3597 1613 
L 953 1613 
Q 991 1019 1311 708 
Q 1631 397 2203 397 
Q 2534 397 2845 478 
Q 3156 559 3463 722 
L 3463 178 
Q 3153 47 2828 -22 
Q 2503 -91 2169 -91 
Q 1331 -91 842 396 
Q 353 884 353 1716 
Q 353 2575 817 3079 
Q 1281 3584 2069 3584 
Q 2775 3584 3186 3129 
Q 3597 2675 3597 1894 
z
M 3022 2063 
Q 3016 2534 2758 2815 
Q 2500 3097 2075 3097 
Q 1594 3097 1305 2825 
Q 1016 2553 972 2059 
L 3022 2063 
z
" transform="scale(0.015625)"/>
       <path id="DejaVuSans-72" d="M 2631 2963 
Q 2534 3019 2420 3045 
Q 2306 3072 2169 3072 
Q 1681 3072 1420 2755 
Q 1159 2438 1159 1844 
L 1159 0 
L 581 0 
L 581 3500 
L 1159 3500 
L 1159 2956 
Q 1341 3275 1631 3429 
Q 1922 3584 2338 3584 
Q 2397 3584 2469 3576 
Q 2541 3569 2628 3553 
L 2631 2963 
z
" transform="scale(0.015625)"/>
       <path id="DejaVuSans-63" d="M 3122 3366 
L 3122 2828 
Q 2878 2963 2633 3030 
Q 2388 3097 2138 3097 
Q 1578 3097 1268 2742 
Q 959 2388 959 1747 
Q 959 1106 1268 751 
Q 1578 397 2138 397 
Q 2388 397 2633 464 
Q 2878 531 3122 666 
L 3122 134 
Q 2881 22 2623 -34 
Q 2366 -91 2075 -91 
Q 1284 -91 818 406 
Q 353 903 353 1747 
Q 353 2603 823 3093 
Q 1294 3584 2113 3584 
Q 2378 3584 2631 3529 
Q 2884 3475 3122 3366 
z
" transform="scale(0.015625)"/>
       <path id="DejaVuSans-6e" d="M 3513 2113 
L 3513 0 
L 2938 0 
L 2938 2094 
Q 2938 2591 2744 2837 
Q 2550 3084 2163 3084 
Q 1697 3084 1428 2787 
Q 1159 2491 1159 1978 
L 1159 0 
L 581 0 
L 581 3500 
L 1159 3500 
L 1159 2956 
Q 1366 3272 1645 3428 
Q 1925 3584 2291 3584 
Q 2894 3584 3203 3211 
Q 3513 2838 3513 2113 
z
" transform="scale(0.015625)"/>
       <path id="DejaVuSans-74" d="M 1172 4494 
L 1172 3500 
L 2356 3500 
L 2356 3053 
L 1172 3053 
L 1172 1153 
Q 1172 725 1289 603 
Q 1406 481 1766 481 
L 2356 481 
L 2356 0 
L 1766 0 
Q 1100 0 847 248 
Q 594 497 594 1153 
L 594 3053 
L 172 3053 
L 172 3500 
L 594 3500 
L 594 4494 
L 1172 4494 
z
" transform="scale(0.015625)"/>
       <path id="DejaVuSans-69" d="M 603 3500 
L 1178 3500 
L 1178 0 
L 603 0 
L 603 3500 
z
M 603 4863 
L 1178 4863 
L 1178 4134 
L 603 4134 
L 603 4863 
z
" transform="scale(0.015625)"/>
       <path id="DejaVuSans-6c" d="M 603 4863 
L 1178 4863 
L 1178 0 
L 603 0 
L 603 4863 
z
" transform="scale(0.015625)"/>
       <path id="DejaVuSans-20" transform="scale(0.015625)"/>
       <path id="DejaVuSans-54" d="M -19 4666 
L 3928 4666 
L 3928 4134 
L 2272 4134 
L 2272 0 
L 1638 0 
L 1638 4134 
L -19 4134 
L -19 4666 
z
" transform="scale(0.015625)"/>
       <path id="DejaVuSans-68" d="M 3513 2113 
L 3513 0 
L 2938 0 
L 2938 2094 
Q 2938 2591 2744 2837 
Q 2550 3084 2163 3084 
Q 1697 3084 1428 2787 
Q 1159 2491 1159 1978 
L 1159 0 
L 581 0 
L 581 4863 
L 1159 4863 
L 1159 2956 
Q 1366 3272 1645 3428 
Q 1925 3584 2291 3584 
Q 2894 3584 3203 3211 
Q 3513 2838 3513 2113 
z
" transform="scale(0.015625)"/>
       <path id="DejaVuSans-73" d="M 2834 3397 
L 2834 2853 
Q 2591 2978 2328 3040 
Q 2066 3103 1784 3103 
Q 1356 3103 1142 2972 
Q 928 2841 928 2578 
Q 928 2378 1081 2264 
Q 1234 2150 1697 2047 
L 1894 2003 
Q 2506 1872 2764 1633 
Q 3022 1394 3022 966 
Q 3022 478 2636 193 
Q 2250 -91 1575 -91 
Q 1294 -91 989 -36 
Q 684 19 347 128 
L 347 722 
Q 666 556 975 473 
Q 1284 391 1588 391 
Q 1994 391 2212 530 
Q 2431 669 2431 922 
Q 2431 1156 2273 1281 
Q 2116 1406 1581 1522 
L 1381 1569 
Q 847 1681 609 1914 
Q 372 2147 372 2553 
Q 372 3047 722 3315 
Q 1072 3584 1716 3584 
Q 2034 3584 2315 3537 
Q 2597 3491 2834 3397 
z
" transform="scale(0.015625)"/>
       <path id="DejaVuSans-6f" d="M 1959 3097 
Q 1497 3097 1228 2736 
Q 959 2375 959 1747 
Q 959 1119 1226 758 
Q 1494 397 1959 397 
Q 2419 397 2687 759 
Q 2956 1122 2956 1747 
Q 2956 2369 2687 2733 
Q 2419 3097 1959 3097 
z
M 1959 3584 
Q 2709 3584 3137 3096 
Q 3566 2609 3566 1747 
Q 3566 888 3137 398 
Q 2709 -91 1959 -91 
Q 1206 -91 779 398 
Q 353 888 353 1747 
Q 353 2609 779 3096 
Q 1206 3584 1959 3584 
z
" transform="scale(0.015625)"/>
       <path id="DejaVuSans-64" d="M 2906 2969 
L 2906 4863 
L 3481 4863 
L 3481 0 
L 2906 0 
L 2906 525 
Q 2725 213 2448 61 
Q 2172 -91 1784 -91 
Q 1150 -91 751 415 
Q 353 922 353 1747 
Q 353 2572 751 3078 
Q 1150 3584 1784 3584 
Q 2172 3584 2448 3432 
Q 2725 3281 2906 2969 
z
M 947 1747 
Q 947 1113 1208 752 
Q 1469 391 1925 391 
Q 2381 391 2643 752 
Q 2906 1113 2906 1747 
Q 2906 2381 2643 2742 
Q 2381 3103 1925 3103 
Q 1469 3103 1208 2742 
Q 947 2381 947 1747 
z
" transform="scale(0.015625)"/>
      </defs>
      <use xlink:href="#DejaVuSans-50"/>
      <use xlink:href="#DejaVuSans-65" x="56.677734"/>
      <use xlink:href="#DejaVuSans-72" x="118.201172"/>
      <use xlink:href="#DejaVuSans-63" x="157.064453"/>
      <use xlink:href="#DejaVuSans-65" x="212.044922"/>
      <use xlink:href="#DejaVuSans-6e" x="273.568359"/>
      <use xlink:href="#DejaVuSans-74" x="336.947266"/>
      <use xlink:href="#DejaVuSans-69" x="376.15625"/>
      <use xlink:href="#DejaVuSans-6c" x="403.939453"/>
      <use xlink:href="#DejaVuSans-65" x="431.722656"/>
      <use xlink:href="#DejaVuSans-20" x="493.246094"/>
      <use xlink:href="#DejaVuSans-54" x="525.033203"/>
      <use xlink:href="#DejaVuSans-68" x="586.117188"/>
      <use xlink:href="#DejaVuSans-72" x="649.496094"/>
      <use xlink:href="#DejaVuSans-65" x="688.359375"/>
      <use xlink:href="#DejaVuSans-73" x="749.882812"/>
      <use xlink:href="#DejaVuSans-68" x="801.982422"/>
      <use xlink:href="#DejaVuSans-6f" x="865.361328"/>
      <use xlink:href="#DejaVuSans-6c" x="926.542969"/>
      <use xlink:href="#DejaVuSans-64" x="954.326172"/>
     </g>
     <!-- (All Methods of Threshold Handling for BayesianRidge Model) -->
     <g transform="translate(301.033125 558.50075) scale(0.2 -0.2)">
      <defs>
       <path id="DejaVuSans-28" d="M 1984 4856 
Q 1566 4138 1362 3434 
Q 1159 2731 1159 2009 
Q 1159 1288 1364 580 
Q 1569 -128 1984 -844 
L 1484 -844 
Q 1016 -109 783 600 
Q 550 1309 550 2009 
Q 550 2706 781 3412 
Q 1013 4119 1484 4856 
L 1984 4856 
z
" transform="scale(0.015625)"/>
       <path id="DejaVuSans-41" d="M 2188 4044 
L 1331 1722 
L 3047 1722 
L 2188 4044 
z
M 1831 4666 
L 2547 4666 
L 4325 0 
L 3669 0 
L 3244 1197 
L 1141 1197 
L 716 0 
L 50 0 
L 1831 4666 
z
" transform="scale(0.015625)"/>
       <path id="DejaVuSans-4d" d="M 628 4666 
L 1569 4666 
L 2759 1491 
L 3956 4666 
L 4897 4666 
L 4897 0 
L 4281 0 
L 4281 4097 
L 3078 897 
L 2444 897 
L 1241 4097 
L 1241 0 
L 628 0 
L 628 4666 
z
" transform="scale(0.015625)"/>
       <path id="DejaVuSans-66" d="M 2375 4863 
L 2375 4384 
L 1825 4384 
Q 1516 4384 1395 4259 
Q 1275 4134 1275 3809 
L 1275 3500 
L 2222 3500 
L 2222 3053 
L 1275 3053 
L 1275 0 
L 697 0 
L 697 3053 
L 147 3053 
L 147 3500 
L 697 3500 
L 697 3744 
Q 697 4328 969 4595 
Q 1241 4863 1831 4863 
L 2375 4863 
z
" transform="scale(0.015625)"/>
       <path id="DejaVuSans-48" d="M 628 4666 
L 1259 4666 
L 1259 2753 
L 3553 2753 
L 3553 4666 
L 4184 4666 
L 4184 0 
L 3553 0 
L 3553 2222 
L 1259 2222 
L 1259 0 
L 628 0 
L 628 4666 
z
" transform="scale(0.015625)"/>
       <path id="DejaVuSans-61" d="M 2194 1759 
Q 1497 1759 1228 1600 
Q 959 1441 959 1056 
Q 959 750 1161 570 
Q 1363 391 1709 391 
Q 2188 391 2477 730 
Q 2766 1069 2766 1631 
L 2766 1759 
L 2194 1759 
z
M 3341 1997 
L 3341 0 
L 2766 0 
L 2766 531 
Q 2569 213 2275 61 
Q 1981 -91 1556 -91 
Q 1019 -91 701 211 
Q 384 513 384 1019 
Q 384 1609 779 1909 
Q 1175 2209 1959 2209 
L 2766 2209 
L 2766 2266 
Q 2766 2663 2505 2880 
Q 2244 3097 1772 3097 
Q 1472 3097 1187 3025 
Q 903 2953 641 2809 
L 641 3341 
Q 956 3463 1253 3523 
Q 1550 3584 1831 3584 
Q 2591 3584 2966 3190 
Q 3341 2797 3341 1997 
z
" transform="scale(0.015625)"/>
       <path id="DejaVuSans-67" d="M 2906 1791 
Q 2906 2416 2648 2759 
Q 2391 3103 1925 3103 
Q 1463 3103 1205 2759 
Q 947 2416 947 1791 
Q 947 1169 1205 825 
Q 1463 481 1925 481 
Q 2391 481 2648 825 
Q 2906 1169 2906 1791 
z
M 3481 434 
Q 3481 -459 3084 -895 
Q 2688 -1331 1869 -1331 
Q 1566 -1331 1297 -1286 
Q 1028 -1241 775 -1147 
L 775 -588 
Q 1028 -725 1275 -790 
Q 1522 -856 1778 -856 
Q 2344 -856 2625 -561 
Q 2906 -266 2906 331 
L 2906 616 
Q 2728 306 2450 153 
Q 2172 0 1784 0 
Q 1141 0 747 490 
Q 353 981 353 1791 
Q 353 2603 747 3093 
Q 1141 3584 1784 3584 
Q 2172 3584 2450 3431 
Q 2728 3278 2906 2969 
L 2906 3500 
L 3481 3500 
L 3481 434 
z
" transform="scale(0.015625)"/>
       <path id="DejaVuSans-42" d="M 1259 2228 
L 1259 519 
L 2272 519 
Q 2781 519 3026 730 
Q 3272 941 3272 1375 
Q 3272 1813 3026 2020 
Q 2781 2228 2272 2228 
L 1259 2228 
z
M 1259 4147 
L 1259 2741 
L 2194 2741 
Q 2656 2741 2882 2914 
Q 3109 3088 3109 3444 
Q 3109 3797 2882 3972 
Q 2656 4147 2194 4147 
L 1259 4147 
z
M 628 4666 
L 2241 4666 
Q 2963 4666 3353 4366 
Q 3744 4066 3744 3513 
Q 3744 3084 3544 2831 
Q 3344 2578 2956 2516 
Q 3422 2416 3680 2098 
Q 3938 1781 3938 1306 
Q 3938 681 3513 340 
Q 3088 0 2303 0 
L 628 0 
L 628 4666 
z
" transform="scale(0.015625)"/>
       <path id="DejaVuSans-79" d="M 2059 -325 
Q 1816 -950 1584 -1140 
Q 1353 -1331 966 -1331 
L 506 -1331 
L 506 -850 
L 844 -850 
Q 1081 -850 1212 -737 
Q 1344 -625 1503 -206 
L 1606 56 
L 191 3500 
L 800 3500 
L 1894 763 
L 2988 3500 
L 3597 3500 
L 2059 -325 
z
" transform="scale(0.015625)"/>
       <path id="DejaVuSans-52" d="M 2841 2188 
Q 3044 2119 3236 1894 
Q 3428 1669 3622 1275 
L 4263 0 
L 3584 0 
L 2988 1197 
Q 2756 1666 2539 1819 
Q 2322 1972 1947 1972 
L 1259 1972 
L 1259 0 
L 628 0 
L 628 4666 
L 2053 4666 
Q 2853 4666 3247 4331 
Q 3641 3997 3641 3322 
Q 3641 2881 3436 2590 
Q 3231 2300 2841 2188 
z
M 1259 4147 
L 1259 2491 
L 2053 2491 
Q 2509 2491 2742 2702 
Q 2975 2913 2975 3322 
Q 2975 3731 2742 3939 
Q 2509 4147 2053 4147 
L 1259 4147 
z
" transform="scale(0.015625)"/>
       <path id="DejaVuSans-29" d="M 513 4856 
L 1013 4856 
Q 1481 4119 1714 3412 
Q 1947 2706 1947 2009 
Q 1947 1309 1714 600 
Q 1481 -109 1013 -844 
L 513 -844 
Q 928 -128 1133 580 
Q 1338 1288 1338 2009 
Q 1338 2731 1133 3434 
Q 928 4138 513 4856 
z
" transform="scale(0.015625)"/>
      </defs>
      <use xlink:href="#DejaVuSans-28"/>
      <use xlink:href="#DejaVuSans-41" x="39.013672"/>
      <use xlink:href="#DejaVuSans-6c" x="107.421875"/>
      <use xlink:href="#DejaVuSans-6c" x="135.205078"/>
      <use xlink:href="#DejaVuSans-20" x="162.988281"/>
      <use xlink:href="#DejaVuSans-4d" x="194.775391"/>
      <use xlink:href="#DejaVuSans-65" x="281.054688"/>
      <use xlink:href="#DejaVuSans-74" x="342.578125"/>
      <use xlink:href="#DejaVuSans-68" x="381.787109"/>
      <use xlink:href="#DejaVuSans-6f" x="445.166016"/>
      <use xlink:href="#DejaVuSans-64" x="506.347656"/>
      <use xlink:href="#DejaVuSans-73" x="569.824219"/>
      <use xlink:href="#DejaVuSans-20" x="621.923828"/>
      <use xlink:href="#DejaVuSans-6f" x="653.710938"/>
      <use xlink:href="#DejaVuSans-66" x="714.892578"/>
      <use xlink:href="#DejaVuSans-20" x="750.097656"/>
      <use xlink:href="#DejaVuSans-54" x="781.884766"/>
      <use xlink:href="#DejaVuSans-68" x="842.96875"/>
      <use xlink:href="#DejaVuSans-72" x="906.347656"/>
      <use xlink:href="#DejaVuSans-65" x="945.210938"/>
      <use xlink:href="#DejaVuSans-73" x="1006.734375"/>
      <use xlink:href="#DejaVuSans-68" x="1058.833984"/>
      <use xlink:href="#DejaVuSans-6f" x="1122.212891"/>
      <use xlink:href="#DejaVuSans-6c" x="1183.394531"/>
      <use xlink:href="#DejaVuSans-64" x="1211.177734"/>
      <use xlink:href="#DejaVuSans-20" x="1274.654297"/>
      <use xlink:href="#DejaVuSans-48" x="1306.441406"/>
      <use xlink:href="#DejaVuSans-61" x="1381.636719"/>
      <use xlink:href="#DejaVuSans-6e" x="1442.916016"/>
      <use xlink:href="#DejaVuSans-64" x="1506.294922"/>
      <use xlink:href="#DejaVuSans-6c" x="1569.771484"/>
      <use xlink:href="#DejaVuSans-69" x="1597.554688"/>
      <use xlink:href="#DejaVuSans-6e" x="1625.337891"/>
      <use xlink:href="#DejaVuSans-67" x="1688.716797"/>
      <use xlink:href="#DejaVuSans-20" x="1752.193359"/>
      <use xlink:href="#DejaVuSans-66" x="1783.980469"/>
      <use xlink:href="#DejaVuSans-6f" x="1819.185547"/>
      <use xlink:href="#DejaVuSans-72" x="1880.367188"/>
      <use xlink:href="#DejaVuSans-20" x="1921.480469"/>
      <use xlink:href="#DejaVuSans-42" x="1953.267578"/>
      <use xlink:href="#DejaVuSans-61" x="2021.871094"/>
      <use xlink:href="#DejaVuSans-79" x="2083.150391"/>
      <use xlink:href="#DejaVuSans-65" x="2142.330078"/>
      <use xlink:href="#DejaVuSans-73" x="2203.853516"/>
      <use xlink:href="#DejaVuSans-69" x="2255.953125"/>
      <use xlink:href="#DejaVuSans-61" x="2283.736328"/>
      <use xlink:href="#DejaVuSans-6e" x="2345.015625"/>
      <use xlink:href="#DejaVuSans-52" x="2408.394531"/>
      <use xlink:href="#DejaVuSans-69" x="2477.876953"/>
      <use xlink:href="#DejaVuSans-64" x="2505.660156"/>
      <use xlink:href="#DejaVuSans-67" x="2569.136719"/>
      <use xlink:href="#DejaVuSans-65" x="2632.613281"/>
      <use xlink:href="#DejaVuSans-20" x="2694.136719"/>
      <use xlink:href="#DejaVuSans-4d" x="2725.923828"/>
      <use xlink:href="#DejaVuSans-6f" x="2812.203125"/>
      <use xlink:href="#DejaVuSans-64" x="2873.384766"/>
      <use xlink:href="#DejaVuSans-65" x="2936.861328"/>
      <use xlink:href="#DejaVuSans-6c" x="2998.384766"/>
      <use xlink:href="#DejaVuSans-29" x="3026.167969"/>
     </g>
    </g>
   </g>
   <g id="matplotlib.axis_2">
    <g id="ytick_1">
     <g id="line2d_6">
      <defs>
       <path id="m45bf195bb3" d="M 0 0 
L -3.5 0 
" style="stroke: #000000; stroke-width: 0.8"/>
      </defs>
      <g>
       <use xlink:href="#m45bf195bb3" x="73.91" y="448.043019" style="stroke: #000000; stroke-width: 0.8"/>
      </g>
     </g>
     <g id="text_7">
      <!-- 0.2 -->
      <g transform="translate(35.10375 455.641456) scale(0.2 -0.2)">
       <defs>
        <path id="DejaVuSans-2e" d="M 684 794 
L 1344 794 
L 1344 0 
L 684 0 
L 684 794 
z
" transform="scale(0.015625)"/>
       </defs>
       <use xlink:href="#DejaVuSans-30"/>
       <use xlink:href="#DejaVuSans-2e" x="63.623047"/>
       <use xlink:href="#DejaVuSans-32" x="95.410156"/>
      </g>
     </g>
    </g>
    <g id="ytick_2">
     <g id="line2d_7">
      <g>
       <use xlink:href="#m45bf195bb3" x="73.91" y="390.034391" style="stroke: #000000; stroke-width: 0.8"/>
      </g>
     </g>
     <g id="text_8">
      <!-- 0.3 -->
      <g transform="translate(35.10375 397.632828) scale(0.2 -0.2)">
       <defs>
        <path id="DejaVuSans-33" d="M 2597 2516 
Q 3050 2419 3304 2112 
Q 3559 1806 3559 1356 
Q 3559 666 3084 287 
Q 2609 -91 1734 -91 
Q 1441 -91 1130 -33 
Q 819 25 488 141 
L 488 750 
Q 750 597 1062 519 
Q 1375 441 1716 441 
Q 2309 441 2620 675 
Q 2931 909 2931 1356 
Q 2931 1769 2642 2001 
Q 2353 2234 1838 2234 
L 1294 2234 
L 1294 2753 
L 1863 2753 
Q 2328 2753 2575 2939 
Q 2822 3125 2822 3475 
Q 2822 3834 2567 4026 
Q 2313 4219 1838 4219 
Q 1578 4219 1281 4162 
Q 984 4106 628 3988 
L 628 4550 
Q 988 4650 1302 4700 
Q 1616 4750 1894 4750 
Q 2613 4750 3031 4423 
Q 3450 4097 3450 3541 
Q 3450 3153 3228 2886 
Q 3006 2619 2597 2516 
z
" transform="scale(0.015625)"/>
       </defs>
       <use xlink:href="#DejaVuSans-30"/>
       <use xlink:href="#DejaVuSans-2e" x="63.623047"/>
       <use xlink:href="#DejaVuSans-33" x="95.410156"/>
      </g>
     </g>
    </g>
    <g id="ytick_3">
     <g id="line2d_8">
      <g>
       <use xlink:href="#m45bf195bb3" x="73.91" y="332.025763" style="stroke: #000000; stroke-width: 0.8"/>
      </g>
     </g>
     <g id="text_9">
      <!-- 0.4 -->
      <g transform="translate(35.10375 339.6242) scale(0.2 -0.2)">
       <use xlink:href="#DejaVuSans-30"/>
       <use xlink:href="#DejaVuSans-2e" x="63.623047"/>
       <use xlink:href="#DejaVuSans-34" x="95.410156"/>
      </g>
     </g>
    </g>
    <g id="ytick_4">
     <g id="line2d_9">
      <g>
       <use xlink:href="#m45bf195bb3" x="73.91" y="274.017135" style="stroke: #000000; stroke-width: 0.8"/>
      </g>
     </g>
     <g id="text_10">
      <!-- 0.5 -->
      <g transform="translate(35.10375 281.615572) scale(0.2 -0.2)">
       <defs>
        <path id="DejaVuSans-35" d="M 691 4666 
L 3169 4666 
L 3169 4134 
L 1269 4134 
L 1269 2991 
Q 1406 3038 1543 3061 
Q 1681 3084 1819 3084 
Q 2600 3084 3056 2656 
Q 3513 2228 3513 1497 
Q 3513 744 3044 326 
Q 2575 -91 1722 -91 
Q 1428 -91 1123 -41 
Q 819 9 494 109 
L 494 744 
Q 775 591 1075 516 
Q 1375 441 1709 441 
Q 2250 441 2565 725 
Q 2881 1009 2881 1497 
Q 2881 1984 2565 2268 
Q 2250 2553 1709 2553 
Q 1456 2553 1204 2497 
Q 953 2441 691 2322 
L 691 4666 
z
" transform="scale(0.015625)"/>
       </defs>
       <use xlink:href="#DejaVuSans-30"/>
       <use xlink:href="#DejaVuSans-2e" x="63.623047"/>
       <use xlink:href="#DejaVuSans-35" x="95.410156"/>
      </g>
     </g>
    </g>
    <g id="ytick_5">
     <g id="line2d_10">
      <g>
       <use xlink:href="#m45bf195bb3" x="73.91" y="216.008506" style="stroke: #000000; stroke-width: 0.8"/>
      </g>
     </g>
     <g id="text_11">
      <!-- 0.6 -->
      <g transform="translate(35.10375 223.606944) scale(0.2 -0.2)">
       <use xlink:href="#DejaVuSans-30"/>
       <use xlink:href="#DejaVuSans-2e" x="63.623047"/>
       <use xlink:href="#DejaVuSans-36" x="95.410156"/>
      </g>
     </g>
    </g>
    <g id="ytick_6">
     <g id="line2d_11">
      <g>
       <use xlink:href="#m45bf195bb3" x="73.91" y="157.999878" style="stroke: #000000; stroke-width: 0.8"/>
      </g>
     </g>
     <g id="text_12">
      <!-- 0.7 -->
      <g transform="translate(35.10375 165.598316) scale(0.2 -0.2)">
       <defs>
        <path id="DejaVuSans-37" d="M 525 4666 
L 3525 4666 
L 3525 4397 
L 1831 0 
L 1172 0 
L 2766 4134 
L 525 4134 
L 525 4666 
z
" transform="scale(0.015625)"/>
       </defs>
       <use xlink:href="#DejaVuSans-30"/>
       <use xlink:href="#DejaVuSans-2e" x="63.623047"/>
       <use xlink:href="#DejaVuSans-37" x="95.410156"/>
      </g>
     </g>
    </g>
    <g id="ytick_7">
     <g id="line2d_12">
      <g>
       <use xlink:href="#m45bf195bb3" x="73.91" y="99.99125" style="stroke: #000000; stroke-width: 0.8"/>
      </g>
     </g>
     <g id="text_13">
      <!-- 0.8 -->
      <g transform="translate(35.10375 107.589688) scale(0.2 -0.2)">
       <use xlink:href="#DejaVuSans-30"/>
       <use xlink:href="#DejaVuSans-2e" x="63.623047"/>
       <use xlink:href="#DejaVuSans-38" x="95.410156"/>
      </g>
     </g>
    </g>
    <g id="ytick_8">
     <g id="line2d_13">
      <g>
       <use xlink:href="#m45bf195bb3" x="73.91" y="41.982622" style="stroke: #000000; stroke-width: 0.8"/>
      </g>
     </g>
     <g id="text_14">
      <!-- 0.9 -->
      <g transform="translate(35.10375 49.58106) scale(0.2 -0.2)">
       <defs>
        <path id="DejaVuSans-39" d="M 703 97 
L 703 672 
Q 941 559 1184 500 
Q 1428 441 1663 441 
Q 2288 441 2617 861 
Q 2947 1281 2994 2138 
Q 2813 1869 2534 1725 
Q 2256 1581 1919 1581 
Q 1219 1581 811 2004 
Q 403 2428 403 3163 
Q 403 3881 828 4315 
Q 1253 4750 1959 4750 
Q 2769 4750 3195 4129 
Q 3622 3509 3622 2328 
Q 3622 1225 3098 567 
Q 2575 -91 1691 -91 
Q 1453 -91 1209 -44 
Q 966 3 703 97 
z
M 1959 2075 
Q 2384 2075 2632 2365 
Q 2881 2656 2881 3163 
Q 2881 3666 2632 3958 
Q 2384 4250 1959 4250 
Q 1534 4250 1286 3958 
Q 1038 3666 1038 3163 
Q 1038 2656 1286 2365 
Q 1534 2075 1959 2075 
z
" transform="scale(0.015625)"/>
       </defs>
       <use xlink:href="#DejaVuSans-30"/>
       <use xlink:href="#DejaVuSans-2e" x="63.623047"/>
       <use xlink:href="#DejaVuSans-39" x="95.410156"/>
      </g>
     </g>
    </g>
    <g id="text_15">
     <!-- R^2 -->
     <g transform="translate(26.944375 272.366625) rotate(-90) scale(0.2 -0.2)">
      <defs>
       <path id="DejaVuSans-5e" d="M 2988 4666 
L 4684 2925 
L 4056 2925 
L 2681 4159 
L 1306 2925 
L 678 2925 
L 2375 4666 
L 2988 4666 
z
" transform="scale(0.015625)"/>
      </defs>
      <use xlink:href="#DejaVuSans-52"/>
      <use xlink:href="#DejaVuSans-5e" x="69.482422"/>
      <use xlink:href="#DejaVuSans-32" x="153.271484"/>
     </g>
    </g>
   </g>
   <g id="line2d_14">
    <path d="M 122.423182 40.561256 
L 143.067089 42.693716 
L 163.710996 41.44554 
L 184.354903 43.200708 
L 204.99881 51.126371 
L 225.642718 50.302428 
L 246.286625 57.252903 
L 266.930532 62.577684 
L 287.574439 62.690671 
L 308.218346 64.886101 
L 328.862253 63.480851 
L 349.506161 64.960494 
L 370.150068 59.589443 
L 390.793975 66.275388 
L 411.437882 72.292266 
L 432.081789 77.983241 
L 452.725696 77.038894 
L 473.369603 82.150134 
L 494.013511 81.107679 
L 514.657418 71.245253 
L 535.301325 68.762034 
L 555.945232 68.759383 
L 576.589139 72.59203 
L 597.233046 67.22772 
L 617.876954 61.244111 
L 638.520861 65.972456 
L 659.164768 87.311721 
L 679.808675 76.388865 
L 700.452582 76.468018 
" clip-path="url(#p8b26e503d7)" style="fill: none; stroke: #1f77b4; stroke-width: 1.5; stroke-linecap: square"/>
   </g>
   <g id="line2d_15">
    <path d="M 122.423182 39.73492 
L 143.067089 43.631808 
L 163.710996 47.359171 
L 184.354903 45.466995 
L 204.99881 51.628207 
L 225.642718 52.490155 
L 246.286625 62.845225 
L 266.930532 62.612618 
L 287.574439 65.93368 
L 308.218346 63.59527 
L 328.862253 68.094467 
L 349.506161 73.219842 
L 370.150068 75.664116 
L 390.793975 72.296553 
L 411.437882 79.633045 
L 432.081789 87.745896 
L 452.725696 86.804438 
L 473.369603 88.20466 
L 494.013511 97.404942 
L 514.657418 167.897239 
L 535.301325 169.557472 
L 555.945232 157.430552 
L 576.589139 185.407578 
L 597.233046 154.146118 
L 617.876954 192.64638 
L 638.520861 201.322864 
L 659.164768 165.67733 
L 679.808675 211.461685 
L 700.452582 195.715274 
L 721.096489 324.159633 
L 741.740397 344.706242 
L 762.384304 342.068334 
L 783.028211 367.433189 
L 803.672118 329.959796 
L 824.316025 327.96843 
L 844.959932 281.604648 
L 865.603839 283.515817 
L 886.247747 384.573766 
L 906.891654 409.485342 
" clip-path="url(#p8b26e503d7)" style="fill: none; stroke: #ff7f0e; stroke-width: 1.5; stroke-linecap: square"/>
   </g>
   <g id="line2d_16">
    <path d="M 122.423182 41.025175 
L 143.067089 41.080966 
L 163.710996 39.17901 
L 184.354903 40.297162 
L 204.99881 39.138674 
L 225.642718 42.190142 
L 246.286625 43.460561 
L 266.930532 42.017221 
L 287.574439 42.384954 
L 308.218346 45.248679 
L 328.862253 44.158453 
L 349.506161 40.666196 
L 370.150068 42.71331 
L 390.793975 40.61239 
L 411.437882 38.778894 
L 432.081789 37.414264 
L 452.725696 39.268459 
L 473.369603 38.370242 
L 494.013511 37.460103 
L 514.657418 38.987019 
L 535.301325 39.394705 
L 555.945232 37.617039 
L 576.589139 37.598054 
L 597.233046 35.784441 
L 617.876954 36.195104 
L 638.520861 38.752537 
L 659.164768 38.067281 
L 679.808675 39.839042 
L 700.452582 39.480862 
L 721.096489 37.629679 
L 741.740397 39.336955 
L 762.384304 38.019016 
L 783.028211 39.277368 
L 803.672118 37.622335 
L 824.316025 38.929497 
L 844.959932 38.448979 
L 865.603839 38.210366 
L 886.247747 38.11062 
L 906.891654 45.068173 
L 927.535561 41.56276 
L 948.179468 41.674376 
L 968.823375 43.381698 
L 989.467282 43.607328 
L 1010.11119 43.973433 
L 1030.755097 42.226643 
L 1051.399004 41.170495 
L 1072.042911 41.315919 
L 1092.686818 42.437712 
" clip-path="url(#p8b26e503d7)" style="fill: none; stroke: #2ca02c; stroke-width: 1.5; stroke-linecap: square"/>
   </g>
   <g id="line2d_17">
    <path d="M 122.423182 41.49476 
L 143.067089 40.013416 
L 163.710996 37.3849 
L 184.354903 37.422447 
L 204.99881 37.759633 
L 225.642718 40.715729 
L 246.286625 39.987048 
L 266.930532 36.032436 
L 287.574439 38.309489 
L 308.218346 37.466398 
L 328.862253 36.767483 
L 349.506161 38.562266 
L 370.150068 36.084276 
L 390.793975 36.403765 
L 411.437882 37.490657 
L 432.081789 37.85971 
L 452.725696 36.982811 
L 473.369603 37.698691 
L 494.013511 38.325587 
L 514.657418 41.765696 
L 535.301325 38.497206 
L 555.945232 38.953219 
L 576.589139 38.048942 
L 597.233046 37.797375 
L 617.876954 37.286273 
L 638.520861 37.895952 
L 659.164768 37.711856 
L 679.808675 35.834563 
L 700.452582 40.044106 
L 721.096489 40.719492 
L 741.740397 41.482819 
L 762.384304 37.223205 
L 783.028211 38.504338 
L 803.672118 41.009925 
L 824.316025 41.976235 
L 844.959932 38.927919 
L 865.603839 42.278248 
L 886.247747 38.532746 
L 906.891654 42.080958 
L 927.535561 41.987626 
L 948.179468 41.531511 
L 968.823375 40.729523 
L 989.467282 40.926578 
L 1010.11119 39.412664 
L 1030.755097 41.67931 
L 1051.399004 46.439131 
L 1072.042911 43.61649 
L 1092.686818 42.754306 
" clip-path="url(#p8b26e503d7)" style="fill: none; stroke: #d62728; stroke-width: 1.5; stroke-linecap: square"/>
   </g>
   <g id="line2d_18"/>
   <g id="line2d_19"/>
   <g id="line2d_20"/>
   <g id="line2d_21"/>
   <g id="patch_3">
    <path d="M 73.91 490.552 
L 73.91 10.8 
" style="fill: none; stroke: #000000; stroke-width: 0.8; stroke-linejoin: miter; stroke-linecap: square"/>
   </g>
   <g id="patch_4">
    <path d="M 1141.2 490.552 
L 1141.2 10.8 
" style="fill: none; stroke: #000000; stroke-width: 0.8; stroke-linejoin: miter; stroke-linecap: square"/>
   </g>
   <g id="patch_5">
    <path d="M 73.91 490.552 
L 1141.2 490.552 
" style="fill: none; stroke: #000000; stroke-width: 0.8; stroke-linejoin: miter; stroke-linecap: square"/>
   </g>
   <g id="patch_6">
    <path d="M 73.91 10.8 
L 1141.2 10.8 
" style="fill: none; stroke: #000000; stroke-width: 0.8; stroke-linejoin: miter; stroke-linecap: square"/>
   </g>
   <g id="legend_1">
    <g id="patch_7">
     <path d="M 85.11 482.552 
L 224.545 482.552 
Q 227.745 482.552 227.745 479.352 
L 227.745 386.122 
Q 227.745 382.922 224.545 382.922 
L 85.11 382.922 
Q 81.91 382.922 81.91 386.122 
L 81.91 479.352 
Q 81.91 482.552 85.11 482.552 
z
" style="fill: #ffffff; opacity: 0.8; stroke: #cccccc; stroke-linejoin: miter"/>
    </g>
    <g id="line2d_22">
     <path d="M 88.31 395.8795 
L 104.31 395.8795 
L 120.31 395.8795 
" style="fill: none; stroke: #1f77b4; stroke-width: 1.5; stroke-linecap: square"/>
    </g>
    <g id="text_16">
     <!-- leave_out -->
     <g transform="translate(133.11 401.4795) scale(0.16 -0.16)">
      <defs>
       <path id="DejaVuSans-76" d="M 191 3500 
L 800 3500 
L 1894 563 
L 2988 3500 
L 3597 3500 
L 2284 0 
L 1503 0 
L 191 3500 
z
" transform="scale(0.015625)"/>
       <path id="DejaVuSans-5f" d="M 3263 -1063 
L 3263 -1509 
L -63 -1509 
L -63 -1063 
L 3263 -1063 
z
" transform="scale(0.015625)"/>
       <path id="DejaVuSans-75" d="M 544 1381 
L 544 3500 
L 1119 3500 
L 1119 1403 
Q 1119 906 1312 657 
Q 1506 409 1894 409 
Q 2359 409 2629 706 
Q 2900 1003 2900 1516 
L 2900 3500 
L 3475 3500 
L 3475 0 
L 2900 0 
L 2900 538 
Q 2691 219 2414 64 
Q 2138 -91 1772 -91 
Q 1169 -91 856 284 
Q 544 659 544 1381 
z
M 1991 3584 
L 1991 3584 
z
" transform="scale(0.015625)"/>
      </defs>
      <use xlink:href="#DejaVuSans-6c"/>
      <use xlink:href="#DejaVuSans-65" x="27.783203"/>
      <use xlink:href="#DejaVuSans-61" x="89.306641"/>
      <use xlink:href="#DejaVuSans-76" x="150.585938"/>
      <use xlink:href="#DejaVuSans-65" x="209.765625"/>
      <use xlink:href="#DejaVuSans-5f" x="271.289062"/>
      <use xlink:href="#DejaVuSans-6f" x="321.289062"/>
      <use xlink:href="#DejaVuSans-75" x="382.470703"/>
      <use xlink:href="#DejaVuSans-74" x="445.849609"/>
     </g>
    </g>
    <g id="line2d_23">
     <path d="M 88.31 419.8095 
L 104.31 419.8095 
L 120.31 419.8095 
" style="fill: none; stroke: #ff7f0e; stroke-width: 1.5; stroke-linecap: square"/>
    </g>
    <g id="text_17">
     <!-- merge -->
     <g transform="translate(133.11 425.4095) scale(0.16 -0.16)">
      <defs>
       <path id="DejaVuSans-6d" d="M 3328 2828 
Q 3544 3216 3844 3400 
Q 4144 3584 4550 3584 
Q 5097 3584 5394 3201 
Q 5691 2819 5691 2113 
L 5691 0 
L 5113 0 
L 5113 2094 
Q 5113 2597 4934 2840 
Q 4756 3084 4391 3084 
Q 3944 3084 3684 2787 
Q 3425 2491 3425 1978 
L 3425 0 
L 2847 0 
L 2847 2094 
Q 2847 2600 2669 2842 
Q 2491 3084 2119 3084 
Q 1678 3084 1418 2786 
Q 1159 2488 1159 1978 
L 1159 0 
L 581 0 
L 581 3500 
L 1159 3500 
L 1159 2956 
Q 1356 3278 1631 3431 
Q 1906 3584 2284 3584 
Q 2666 3584 2933 3390 
Q 3200 3197 3328 2828 
z
" transform="scale(0.015625)"/>
      </defs>
      <use xlink:href="#DejaVuSans-6d"/>
      <use xlink:href="#DejaVuSans-65" x="97.412109"/>
      <use xlink:href="#DejaVuSans-72" x="158.935547"/>
      <use xlink:href="#DejaVuSans-67" x="198.298828"/>
      <use xlink:href="#DejaVuSans-65" x="261.775391"/>
     </g>
    </g>
    <g id="line2d_24">
     <path d="M 88.31 443.2945 
L 104.31 443.2945 
L 120.31 443.2945 
" style="fill: none; stroke: #2ca02c; stroke-width: 1.5; stroke-linecap: square"/>
    </g>
    <g id="text_18">
     <!-- max_mean -->
     <g transform="translate(133.11 448.8945) scale(0.16 -0.16)">
      <defs>
       <path id="DejaVuSans-78" d="M 3513 3500 
L 2247 1797 
L 3578 0 
L 2900 0 
L 1881 1375 
L 863 0 
L 184 0 
L 1544 1831 
L 300 3500 
L 978 3500 
L 1906 2253 
L 2834 3500 
L 3513 3500 
z
" transform="scale(0.015625)"/>
      </defs>
      <use xlink:href="#DejaVuSans-6d"/>
      <use xlink:href="#DejaVuSans-61" x="97.412109"/>
      <use xlink:href="#DejaVuSans-78" x="158.691406"/>
      <use xlink:href="#DejaVuSans-5f" x="217.871094"/>
      <use xlink:href="#DejaVuSans-6d" x="267.871094"/>
      <use xlink:href="#DejaVuSans-65" x="365.283203"/>
      <use xlink:href="#DejaVuSans-61" x="426.806641"/>
      <use xlink:href="#DejaVuSans-6e" x="488.085938"/>
     </g>
    </g>
    <g id="line2d_25">
     <path d="M 88.31 467.2245 
L 104.31 467.2245 
L 120.31 467.2245 
" style="fill: none; stroke: #d62728; stroke-width: 1.5; stroke-linecap: square"/>
    </g>
    <g id="text_19">
     <!-- random -->
     <g transform="translate(133.11 472.8245) scale(0.16 -0.16)">
      <use xlink:href="#DejaVuSans-72"/>
      <use xlink:href="#DejaVuSans-61" x="41.113281"/>
      <use xlink:href="#DejaVuSans-6e" x="102.392578"/>
      <use xlink:href="#DejaVuSans-64" x="165.771484"/>
      <use xlink:href="#DejaVuSans-6f" x="229.248047"/>
      <use xlink:href="#DejaVuSans-6d" x="290.429688"/>
     </g>
    </g>
   </g>
  </g>
 </g>
 <defs>
  <clipPath id="p8b26e503d7">
   <rect x="73.91" y="10.8" width="1067.29" height="479.752"/>
  </clipPath>
 </defs>
</svg>
