<?xml version="1.0" encoding="utf-8" standalone="no"?>
<!DOCTYPE svg PUBLIC "-//W3C//DTD SVG 1.1//EN"
  "http://www.w3.org/Graphics/SVG/1.1/DTD/svg11.dtd">
<svg xmlns:xlink="http://www.w3.org/1999/xlink" width="1152pt" height="576pt" viewBox="0 0 1152 576" xmlns="http://www.w3.org/2000/svg" version="1.1">
 <metadata>
  <rdf:RDF xmlns:dc="http://purl.org/dc/elements/1.1/" xmlns:cc="http://creativecommons.org/ns#" xmlns:rdf="http://www.w3.org/1999/02/22-rdf-syntax-ns#">
   <cc:Work>
    <dc:type rdf:resource="http://purl.org/dc/dcmitype/StillImage"/>
    <dc:date>2025-03-19T23:02:52.844435</dc:date>
    <dc:format>image/svg+xml</dc:format>
    <dc:creator>
     <cc:Agent>
      <dc:title>Matplotlib v3.9.2, https://matplotlib.org/</dc:title>
     </cc:Agent>
    </dc:creator>
   </cc:Work>
  </rdf:RDF>
 </metadata>
 <defs>
  <style type="text/css">*{stroke-linejoin: round; stroke-linecap: butt}</style>
 </defs>
 <g id="figure_1">
  <g id="patch_1">
   <path d="M 0 576 
L 1152 576 
L 1152 0 
L 0 0 
z
" style="fill: #ffffff"/>
  </g>
  <g id="axes_1">
   <g id="patch_2">
    <path d="M 86.6 489.832 
L 1141.2 489.832 
L 1141.2 10.8 
L 86.6 10.8 
z
" style="fill: #ffffff"/>
   </g>
   <g id="PolyCollection_1">
    <defs>
     <path id="mcad565fa08" d="M 134.536364 -363.641982 
L 134.536364 -224.615141 
L 154.934816 -183.532346 
L 175.333269 -146.876206 
L 195.731721 -173.057529 
L 216.130174 -228.558558 
L 236.528627 -288.595884 
L 256.927079 -217.692959 
L 277.325532 -168.875945 
L 297.723985 -280.232268 
L 318.122437 -237.007667 
L 338.52089 -226.964279 
L 358.919342 -245.657332 
L 379.317795 -200.007015 
L 399.716248 -234.020301 
L 420.1147 -225.434528 
L 440.513153 -236.061434 
L 460.911605 -210.610345 
L 481.310058 -227.90432 
L 501.708511 -165.979284 
L 522.106963 -192.969476 
L 542.505416 -250.848627 
L 562.903868 -224.508579 
L 583.302321 -264.415743 
L 603.700774 -178.8511 
L 624.099226 -228.631899 
L 644.497679 -206.522613 
L 664.896132 -246.655877 
L 685.294584 -261.112517 
L 705.693037 -139.857226 
L 726.091489 -261.786835 
L 746.489942 -189.484125 
L 766.888395 -206.361578 
L 787.286847 -143.565156 
L 807.6853 -199.972097 
L 828.083752 -231.912519 
L 848.482205 -216.103188 
L 868.880658 -219.00328 
L 889.27911 -220.115327 
L 909.677563 -250.094768 
L 930.076015 -267.015507 
L 950.474468 -282.509999 
L 970.872921 -297.108256 
L 991.271373 -270.922052 
L 1011.669826 -275.181212 
L 1032.068279 -290.591408 
L 1052.466731 -274.319092 
L 1072.865184 -273.694797 
L 1093.263636 -279.449403 
L 1093.263636 -357.531901 
L 1093.263636 -357.531901 
L 1072.865184 -376.866248 
L 1052.466731 -371.291792 
L 1032.068279 -399.867984 
L 1011.669826 -352.995789 
L 991.271373 -348.460077 
L 970.872921 -358.899512 
L 950.474468 -367.000908 
L 930.076015 -364.730411 
L 909.677563 -335.893362 
L 889.27911 -295.845726 
L 868.880658 -259.421789 
L 848.482205 -270.073021 
L 828.083752 -320.519094 
L 807.6853 -277.821603 
L 787.286847 -362.043161 
L 766.888395 -287.309077 
L 746.489942 -273.532962 
L 726.091489 -334.454299 
L 705.693037 -266.092965 
L 685.294584 -336.004707 
L 664.896132 -282.953337 
L 644.497679 -302.300397 
L 624.099226 -305.282402 
L 603.700774 -278.650483 
L 583.302321 -349.393704 
L 562.903868 -313.133828 
L 542.505416 -301.721041 
L 522.106963 -287.724671 
L 501.708511 -299.312514 
L 481.310058 -344.747688 
L 460.911605 -351.385498 
L 440.513153 -322.115518 
L 420.1147 -333.891061 
L 399.716248 -304.612546 
L 379.317795 -282.467694 
L 358.919342 -323.483314 
L 338.52089 -299.057769 
L 318.122437 -320.856909 
L 297.723985 -361.648843 
L 277.325532 -330.079289 
L 256.927079 -338.812705 
L 236.528627 -400.842167 
L 216.130174 -321.17916 
L 195.731721 -313.329395 
L 175.333269 -295.841447 
L 154.934816 -288.653965 
L 134.536364 -363.641982 
z
" style="stroke: #1f77b4; stroke-opacity: 0.2"/>
    </defs>
    <g clip-path="url(#p0499bb351a)">
     <use xlink:href="#mcad565fa08" x="0" y="576" style="fill: #1f77b4; fill-opacity: 0.2; stroke: #1f77b4; stroke-opacity: 0.2"/>
    </g>
   </g>
   <g id="PolyCollection_2">
    <defs>
     <path id="m5400740638" d="M 134.536364 -336.837153 
L 134.536364 -246.132033 
L 154.934816 -190.280726 
L 175.333269 -227.329781 
L 195.731721 -205.750647 
L 216.130174 -223.966535 
L 236.528627 -256.998072 
L 256.927079 -278.481465 
L 277.325532 -230.645905 
L 297.723985 -259.95132 
L 318.122437 -224.094809 
L 338.52089 -238.750039 
L 358.919342 -218.133445 
L 379.317795 -203.51283 
L 399.716248 -229.296948 
L 420.1147 -228.635997 
L 440.513153 -208.666537 
L 460.911605 -226.089607 
L 481.310058 -203.225849 
L 501.708511 -191.186778 
L 522.106963 -227.269654 
L 542.505416 -227.857165 
L 562.903868 -229.240375 
L 583.302321 -209.85494 
L 603.700774 -194.25062 
L 624.099226 -192.904286 
L 644.497679 -217.905025 
L 664.896132 -210.18075 
L 685.294584 -241.022813 
L 705.693037 -206.990477 
L 726.091489 -204.950753 
L 746.489942 -205.226052 
L 766.888395 -220.138158 
L 787.286847 -213.822719 
L 807.6853 -203.885149 
L 828.083752 -223.621679 
L 848.482205 -207.768163 
L 868.880658 -205.176058 
L 889.27911 -219.079405 
L 909.677563 -251.6197 
L 930.076015 -258.631591 
L 950.474468 -261.270012 
L 970.872921 -277.463168 
L 991.271373 -284.216411 
L 1011.669826 -269.026894 
L 1032.068279 -261.613618 
L 1052.466731 -247.496402 
L 1072.865184 -253.171053 
L 1093.263636 -252.410689 
L 1093.263636 -349.919318 
L 1093.263636 -349.919318 
L 1072.865184 -360.4246 
L 1052.466731 -362.411597 
L 1032.068279 -338.492785 
L 1011.669826 -343.329425 
L 991.271373 -345.615273 
L 970.872921 -352.691561 
L 950.474468 -364.868098 
L 930.076015 -361.699379 
L 909.677563 -325.709309 
L 889.27911 -264.691188 
L 868.880658 -271.325915 
L 848.482205 -271.635705 
L 828.083752 -273.35393 
L 807.6853 -258.608223 
L 787.286847 -272.851051 
L 766.888395 -236.591584 
L 746.489942 -243.454647 
L 726.091489 -272.085013 
L 705.693037 -272.283231 
L 685.294584 -313.444967 
L 664.896132 -257.674136 
L 644.497679 -270.413484 
L 624.099226 -275.645434 
L 603.700774 -261.664428 
L 583.302321 -280.479549 
L 562.903868 -281.192727 
L 542.505416 -309.754344 
L 522.106963 -257.914679 
L 501.708511 -247.89778 
L 481.310058 -260.373778 
L 460.911605 -276.241977 
L 440.513153 -267.689276 
L 420.1147 -290.19275 
L 399.716248 -297.527391 
L 379.317795 -258.188876 
L 358.919342 -261.733483 
L 338.52089 -292.644526 
L 318.122437 -298.692707 
L 297.723985 -295.50923 
L 277.325532 -307.720682 
L 256.927079 -333.024683 
L 236.528627 -316.953975 
L 216.130174 -304.00339 
L 195.731721 -287.328232 
L 175.333269 -274.817728 
L 154.934816 -274.295809 
L 134.536364 -336.837153 
z
" style="stroke: #ff7f0e; stroke-opacity: 0.2"/>
    </defs>
    <g clip-path="url(#p0499bb351a)">
     <use xlink:href="#m5400740638" x="0" y="576" style="fill: #ff7f0e; fill-opacity: 0.2; stroke: #ff7f0e; stroke-opacity: 0.2"/>
    </g>
   </g>
   <g id="PolyCollection_3">
    <defs>
     <path id="m045d5af996" d="M 134.536364 -489.793251 
L 134.536364 -381.561558 
L 154.934816 -336.462452 
L 175.333269 -409.556085 
L 195.731721 -397.940169 
L 216.130174 -378.778812 
L 236.528627 -408.13817 
L 256.927079 -457.392078 
L 277.325532 -350.572992 
L 297.723985 -429.309249 
L 318.122437 -425.83961 
L 338.52089 -411.587156 
L 358.919342 -433.571023 
L 379.317795 -415.551546 
L 399.716248 -392.714988 
L 420.1147 -335.692398 
L 440.513153 -355.738894 
L 460.911605 -414.195611 
L 481.310058 -370.823861 
L 501.708511 -376.952476 
L 522.106963 -382.422731 
L 542.505416 -392.798547 
L 562.903868 -376.737832 
L 583.302321 -321.443414 
L 603.700774 -300.145505 
L 624.099226 -353.314458 
L 644.497679 -380.357933 
L 664.896132 -363.082027 
L 685.294584 -373.353731 
L 705.693037 -354.068883 
L 726.091489 -394.993027 
L 746.489942 -401.742019 
L 766.888395 -392.20865 
L 787.286847 -393.971315 
L 807.6853 -369.351567 
L 828.083752 -396.597798 
L 848.482205 -386.328955 
L 868.880658 -373.28978 
L 889.27911 -363.712315 
L 909.677563 -406.206501 
L 930.076015 -403.112455 
L 950.474468 -403.355574 
L 970.872921 -443.526392 
L 991.271373 -458.251669 
L 1011.669826 -462.549335 
L 1032.068279 -405.437413 
L 1052.466731 -399.399092 
L 1072.865184 -404.530154 
L 1093.263636 -396.773286 
L 1093.263636 -471.01734 
L 1093.263636 -471.01734 
L 1072.865184 -501.739366 
L 1052.466731 -498.530383 
L 1032.068279 -498.657193 
L 1011.669826 -514.884187 
L 991.271373 -509.294459 
L 970.872921 -479.229953 
L 950.474468 -494.594037 
L 930.076015 -494.737216 
L 909.677563 -497.85258 
L 889.27911 -436.58159 
L 868.880658 -428.749463 
L 848.482205 -428.536044 
L 828.083752 -435.995187 
L 807.6853 -432.858398 
L 787.286847 -495.099027 
L 766.888395 -445.878422 
L 746.489942 -464.551438 
L 726.091489 -467.801305 
L 705.693037 -445.955493 
L 685.294584 -492.380984 
L 664.896132 -467.482012 
L 644.497679 -468.152257 
L 624.099226 -422.578736 
L 603.700774 -416.339366 
L 583.302321 -472.592349 
L 562.903868 -453.633444 
L 542.505416 -471.957438 
L 522.106963 -463.757911 
L 501.708511 -433.432305 
L 481.310058 -460.231902 
L 460.911605 -443.850456 
L 440.513153 -454.635872 
L 420.1147 -475.56809 
L 399.716248 -476.048282 
L 379.317795 -494.483478 
L 358.919342 -497.912644 
L 338.52089 -543.425818 
L 318.122437 -502.561074 
L 297.723985 -506.064092 
L 277.325532 -492.0266 
L 256.927079 -508.528979 
L 236.528627 -481.382458 
L 216.130174 -461.72021 
L 195.731721 -471.014445 
L 175.333269 -445.850584 
L 154.934816 -441.644409 
L 134.536364 -489.793251 
z
" style="stroke: #2ca02c; stroke-opacity: 0.2"/>
    </defs>
    <g clip-path="url(#p0499bb351a)">
     <use xlink:href="#m045d5af996" x="0" y="576" style="fill: #2ca02c; fill-opacity: 0.2; stroke: #2ca02c; stroke-opacity: 0.2"/>
    </g>
   </g>
   <g id="PolyCollection_4">
    <defs>
     <path id="m932019b284" d="M 134.536364 -291.222738 
L 134.536364 -198.239785 
L 154.934816 -120.311859 
L 175.333269 -149.944446 
L 195.731721 -152.233536 
L 216.130174 -159.521176 
L 236.528627 -158.749326 
L 256.927079 -191.573179 
L 277.325532 -150.448192 
L 297.723985 -184.175329 
L 318.122437 -182.349185 
L 338.52089 -155.592066 
L 358.919342 -107.942182 
L 379.317795 -180.293365 
L 399.716248 -145.224855 
L 420.1147 -168.312275 
L 440.513153 -117.253773 
L 460.911605 -154.583927 
L 481.310058 -131.058649 
L 501.708511 -126.25089 
L 522.106963 -110.802439 
L 542.505416 -160.927962 
L 562.903868 -135.327763 
L 583.302321 -151.857418 
L 603.700774 -172.099944 
L 624.099226 -140.734604 
L 644.497679 -175.802912 
L 664.896132 -132.327042 
L 685.294584 -185.744545 
L 705.693037 -149.249256 
L 726.091489 -129.581983 
L 746.489942 -141.510244 
L 766.888395 -129.480048 
L 787.286847 -183.00465 
L 807.6853 -153.119667 
L 828.083752 -182.629774 
L 848.482205 -156.096041 
L 868.880658 -150.669837 
L 889.27911 -156.320153 
L 909.677563 -149.158729 
L 930.076015 -224.628262 
L 950.474468 -223.145417 
L 970.872921 -204.577491 
L 991.271373 -206.136389 
L 1011.669826 -201.240745 
L 1032.068279 -213.733182 
L 1052.466731 -219.571764 
L 1072.865184 -221.927273 
L 1093.263636 -224.005296 
L 1093.263636 -289.606921 
L 1093.263636 -289.606921 
L 1072.865184 -315.166889 
L 1052.466731 -312.99335 
L 1032.068279 -296.283123 
L 1011.669826 -288.88733 
L 991.271373 -314.758807 
L 970.872921 -302.26799 
L 950.474468 -322.818471 
L 930.076015 -319.689031 
L 909.677563 -235.766844 
L 889.27911 -236.690273 
L 868.880658 -225.483288 
L 848.482205 -223.748995 
L 828.083752 -252.551103 
L 807.6853 -243.340125 
L 787.286847 -241.720104 
L 766.888395 -198.78135 
L 746.489942 -262.859582 
L 726.091489 -207.297094 
L 705.693037 -255.575483 
L 685.294584 -283.147107 
L 664.896132 -244.682099 
L 644.497679 -262.593928 
L 624.099226 -233.609608 
L 603.700774 -251.389922 
L 583.302321 -242.536549 
L 562.903868 -257.416091 
L 542.505416 -253.217606 
L 522.106963 -207.071313 
L 501.708511 -234.878285 
L 481.310058 -191.564194 
L 460.911605 -238.629363 
L 440.513153 -240.771059 
L 420.1147 -237.225025 
L 399.716248 -243.248687 
L 379.317795 -227.878662 
L 358.919342 -218.594978 
L 338.52089 -223.827816 
L 318.122437 -279.290073 
L 297.723985 -300.28175 
L 277.325532 -237.356052 
L 256.927079 -273.856031 
L 236.528627 -245.585086 
L 216.130174 -239.84856 
L 195.731721 -262.998206 
L 175.333269 -249.153611 
L 154.934816 -227.824181 
L 134.536364 -291.222738 
z
" style="stroke: #d62728; stroke-opacity: 0.2"/>
    </defs>
    <g clip-path="url(#p0499bb351a)">
     <use xlink:href="#m932019b284" x="0" y="576" style="fill: #d62728; fill-opacity: 0.2; stroke: #d62728; stroke-opacity: 0.2"/>
    </g>
   </g>
   <g id="matplotlib.axis_1">
    <g id="xtick_1">
     <g id="line2d_1">
      <defs>
       <path id="m4176c88a79" d="M 0 0 
L 0 3.5 
" style="stroke: #000000; stroke-width: 0.8"/>
      </defs>
      <g>
       <use xlink:href="#m4176c88a79" x="124.337137" y="489.832" style="stroke: #000000; stroke-width: 0.8"/>
      </g>
     </g>
     <g id="text_1">
      <!-- 0 -->
      <g transform="translate(117.974637 512.028875) scale(0.2 -0.2)">
       <defs>
        <path id="DejaVuSans-30" d="M 2034 4250 
Q 1547 4250 1301 3770 
Q 1056 3291 1056 2328 
Q 1056 1369 1301 889 
Q 1547 409 2034 409 
Q 2525 409 2770 889 
Q 3016 1369 3016 2328 
Q 3016 3291 2770 3770 
Q 2525 4250 2034 4250 
z
M 2034 4750 
Q 2819 4750 3233 4129 
Q 3647 3509 3647 2328 
Q 3647 1150 3233 529 
Q 2819 -91 2034 -91 
Q 1250 -91 836 529 
Q 422 1150 422 2328 
Q 422 3509 836 4129 
Q 1250 4750 2034 4750 
z
" transform="scale(0.015625)"/>
       </defs>
       <use xlink:href="#DejaVuSans-30"/>
      </g>
     </g>
    </g>
    <g id="xtick_2">
     <g id="line2d_2">
      <g>
       <use xlink:href="#m4176c88a79" x="328.321663" y="489.832" style="stroke: #000000; stroke-width: 0.8"/>
      </g>
     </g>
     <g id="text_2">
      <!-- 20 -->
      <g transform="translate(315.596663 512.028875) scale(0.2 -0.2)">
       <defs>
        <path id="DejaVuSans-32" d="M 1228 531 
L 3431 531 
L 3431 0 
L 469 0 
L 469 531 
Q 828 903 1448 1529 
Q 2069 2156 2228 2338 
Q 2531 2678 2651 2914 
Q 2772 3150 2772 3378 
Q 2772 3750 2511 3984 
Q 2250 4219 1831 4219 
Q 1534 4219 1204 4116 
Q 875 4013 500 3803 
L 500 4441 
Q 881 4594 1212 4672 
Q 1544 4750 1819 4750 
Q 2544 4750 2975 4387 
Q 3406 4025 3406 3419 
Q 3406 3131 3298 2873 
Q 3191 2616 2906 2266 
Q 2828 2175 2409 1742 
Q 1991 1309 1228 531 
z
" transform="scale(0.015625)"/>
       </defs>
       <use xlink:href="#DejaVuSans-32"/>
       <use xlink:href="#DejaVuSans-30" x="63.623047"/>
      </g>
     </g>
    </g>
    <g id="xtick_3">
     <g id="line2d_3">
      <g>
       <use xlink:href="#m4176c88a79" x="532.30619" y="489.832" style="stroke: #000000; stroke-width: 0.8"/>
      </g>
     </g>
     <g id="text_3">
      <!-- 40 -->
      <g transform="translate(519.58119 512.028875) scale(0.2 -0.2)">
       <defs>
        <path id="DejaVuSans-34" d="M 2419 4116 
L 825 1625 
L 2419 1625 
L 2419 4116 
z
M 2253 4666 
L 3047 4666 
L 3047 1625 
L 3713 1625 
L 3713 1100 
L 3047 1100 
L 3047 0 
L 2419 0 
L 2419 1100 
L 313 1100 
L 313 1709 
L 2253 4666 
z
" transform="scale(0.015625)"/>
       </defs>
       <use xlink:href="#DejaVuSans-34"/>
       <use xlink:href="#DejaVuSans-30" x="63.623047"/>
      </g>
     </g>
    </g>
    <g id="xtick_4">
     <g id="line2d_4">
      <g>
       <use xlink:href="#m4176c88a79" x="736.290716" y="489.832" style="stroke: #000000; stroke-width: 0.8"/>
      </g>
     </g>
     <g id="text_4">
      <!-- 60 -->
      <g transform="translate(723.565716 512.028875) scale(0.2 -0.2)">
       <defs>
        <path id="DejaVuSans-36" d="M 2113 2584 
Q 1688 2584 1439 2293 
Q 1191 2003 1191 1497 
Q 1191 994 1439 701 
Q 1688 409 2113 409 
Q 2538 409 2786 701 
Q 3034 994 3034 1497 
Q 3034 2003 2786 2293 
Q 2538 2584 2113 2584 
z
M 3366 4563 
L 3366 3988 
Q 3128 4100 2886 4159 
Q 2644 4219 2406 4219 
Q 1781 4219 1451 3797 
Q 1122 3375 1075 2522 
Q 1259 2794 1537 2939 
Q 1816 3084 2150 3084 
Q 2853 3084 3261 2657 
Q 3669 2231 3669 1497 
Q 3669 778 3244 343 
Q 2819 -91 2113 -91 
Q 1303 -91 875 529 
Q 447 1150 447 2328 
Q 447 3434 972 4092 
Q 1497 4750 2381 4750 
Q 2619 4750 2861 4703 
Q 3103 4656 3366 4563 
z
" transform="scale(0.015625)"/>
       </defs>
       <use xlink:href="#DejaVuSans-36"/>
       <use xlink:href="#DejaVuSans-30" x="63.623047"/>
      </g>
     </g>
    </g>
    <g id="xtick_5">
     <g id="line2d_5">
      <g>
       <use xlink:href="#m4176c88a79" x="940.275242" y="489.832" style="stroke: #000000; stroke-width: 0.8"/>
      </g>
     </g>
     <g id="text_5">
      <!-- 80 -->
      <g transform="translate(927.550242 512.028875) scale(0.2 -0.2)">
       <defs>
        <path id="DejaVuSans-38" d="M 2034 2216 
Q 1584 2216 1326 1975 
Q 1069 1734 1069 1313 
Q 1069 891 1326 650 
Q 1584 409 2034 409 
Q 2484 409 2743 651 
Q 3003 894 3003 1313 
Q 3003 1734 2745 1975 
Q 2488 2216 2034 2216 
z
M 1403 2484 
Q 997 2584 770 2862 
Q 544 3141 544 3541 
Q 544 4100 942 4425 
Q 1341 4750 2034 4750 
Q 2731 4750 3128 4425 
Q 3525 4100 3525 3541 
Q 3525 3141 3298 2862 
Q 3072 2584 2669 2484 
Q 3125 2378 3379 2068 
Q 3634 1759 3634 1313 
Q 3634 634 3220 271 
Q 2806 -91 2034 -91 
Q 1263 -91 848 271 
Q 434 634 434 1313 
Q 434 1759 690 2068 
Q 947 2378 1403 2484 
z
M 1172 3481 
Q 1172 3119 1398 2916 
Q 1625 2713 2034 2713 
Q 2441 2713 2670 2916 
Q 2900 3119 2900 3481 
Q 2900 3844 2670 4047 
Q 2441 4250 2034 4250 
Q 1625 4250 1398 4047 
Q 1172 3844 1172 3481 
z
" transform="scale(0.015625)"/>
       </defs>
       <use xlink:href="#DejaVuSans-38"/>
       <use xlink:href="#DejaVuSans-30" x="63.623047"/>
      </g>
     </g>
    </g>
    <g id="text_6">
     <!-- Percentile Threshold -->
     <g transform="translate(512.120313 535.385125) scale(0.2 -0.2)">
      <defs>
       <path id="DejaVuSans-50" d="M 1259 4147 
L 1259 2394 
L 2053 2394 
Q 2494 2394 2734 2622 
Q 2975 2850 2975 3272 
Q 2975 3691 2734 3919 
Q 2494 4147 2053 4147 
L 1259 4147 
z
M 628 4666 
L 2053 4666 
Q 2838 4666 3239 4311 
Q 3641 3956 3641 3272 
Q 3641 2581 3239 2228 
Q 2838 1875 2053 1875 
L 1259 1875 
L 1259 0 
L 628 0 
L 628 4666 
z
" transform="scale(0.015625)"/>
       <path id="DejaVuSans-65" d="M 3597 1894 
L 3597 1613 
L 953 1613 
Q 991 1019 1311 708 
Q 1631 397 2203 397 
Q 2534 397 2845 478 
Q 3156 559 3463 722 
L 3463 178 
Q 3153 47 2828 -22 
Q 2503 -91 2169 -91 
Q 1331 -91 842 396 
Q 353 884 353 1716 
Q 353 2575 817 3079 
Q 1281 3584 2069 3584 
Q 2775 3584 3186 3129 
Q 3597 2675 3597 1894 
z
M 3022 2063 
Q 3016 2534 2758 2815 
Q 2500 3097 2075 3097 
Q 1594 3097 1305 2825 
Q 1016 2553 972 2059 
L 3022 2063 
z
" transform="scale(0.015625)"/>
       <path id="DejaVuSans-72" d="M 2631 2963 
Q 2534 3019 2420 3045 
Q 2306 3072 2169 3072 
Q 1681 3072 1420 2755 
Q 1159 2438 1159 1844 
L 1159 0 
L 581 0 
L 581 3500 
L 1159 3500 
L 1159 2956 
Q 1341 3275 1631 3429 
Q 1922 3584 2338 3584 
Q 2397 3584 2469 3576 
Q 2541 3569 2628 3553 
L 2631 2963 
z
" transform="scale(0.015625)"/>
       <path id="DejaVuSans-63" d="M 3122 3366 
L 3122 2828 
Q 2878 2963 2633 3030 
Q 2388 3097 2138 3097 
Q 1578 3097 1268 2742 
Q 959 2388 959 1747 
Q 959 1106 1268 751 
Q 1578 397 2138 397 
Q 2388 397 2633 464 
Q 2878 531 3122 666 
L 3122 134 
Q 2881 22 2623 -34 
Q 2366 -91 2075 -91 
Q 1284 -91 818 406 
Q 353 903 353 1747 
Q 353 2603 823 3093 
Q 1294 3584 2113 3584 
Q 2378 3584 2631 3529 
Q 2884 3475 3122 3366 
z
" transform="scale(0.015625)"/>
       <path id="DejaVuSans-6e" d="M 3513 2113 
L 3513 0 
L 2938 0 
L 2938 2094 
Q 2938 2591 2744 2837 
Q 2550 3084 2163 3084 
Q 1697 3084 1428 2787 
Q 1159 2491 1159 1978 
L 1159 0 
L 581 0 
L 581 3500 
L 1159 3500 
L 1159 2956 
Q 1366 3272 1645 3428 
Q 1925 3584 2291 3584 
Q 2894 3584 3203 3211 
Q 3513 2838 3513 2113 
z
" transform="scale(0.015625)"/>
       <path id="DejaVuSans-74" d="M 1172 4494 
L 1172 3500 
L 2356 3500 
L 2356 3053 
L 1172 3053 
L 1172 1153 
Q 1172 725 1289 603 
Q 1406 481 1766 481 
L 2356 481 
L 2356 0 
L 1766 0 
Q 1100 0 847 248 
Q 594 497 594 1153 
L 594 3053 
L 172 3053 
L 172 3500 
L 594 3500 
L 594 4494 
L 1172 4494 
z
" transform="scale(0.015625)"/>
       <path id="DejaVuSans-69" d="M 603 3500 
L 1178 3500 
L 1178 0 
L 603 0 
L 603 3500 
z
M 603 4863 
L 1178 4863 
L 1178 4134 
L 603 4134 
L 603 4863 
z
" transform="scale(0.015625)"/>
       <path id="DejaVuSans-6c" d="M 603 4863 
L 1178 4863 
L 1178 0 
L 603 0 
L 603 4863 
z
" transform="scale(0.015625)"/>
       <path id="DejaVuSans-20" transform="scale(0.015625)"/>
       <path id="DejaVuSans-54" d="M -19 4666 
L 3928 4666 
L 3928 4134 
L 2272 4134 
L 2272 0 
L 1638 0 
L 1638 4134 
L -19 4134 
L -19 4666 
z
" transform="scale(0.015625)"/>
       <path id="DejaVuSans-68" d="M 3513 2113 
L 3513 0 
L 2938 0 
L 2938 2094 
Q 2938 2591 2744 2837 
Q 2550 3084 2163 3084 
Q 1697 3084 1428 2787 
Q 1159 2491 1159 1978 
L 1159 0 
L 581 0 
L 581 4863 
L 1159 4863 
L 1159 2956 
Q 1366 3272 1645 3428 
Q 1925 3584 2291 3584 
Q 2894 3584 3203 3211 
Q 3513 2838 3513 2113 
z
" transform="scale(0.015625)"/>
       <path id="DejaVuSans-73" d="M 2834 3397 
L 2834 2853 
Q 2591 2978 2328 3040 
Q 2066 3103 1784 3103 
Q 1356 3103 1142 2972 
Q 928 2841 928 2578 
Q 928 2378 1081 2264 
Q 1234 2150 1697 2047 
L 1894 2003 
Q 2506 1872 2764 1633 
Q 3022 1394 3022 966 
Q 3022 478 2636 193 
Q 2250 -91 1575 -91 
Q 1294 -91 989 -36 
Q 684 19 347 128 
L 347 722 
Q 666 556 975 473 
Q 1284 391 1588 391 
Q 1994 391 2212 530 
Q 2431 669 2431 922 
Q 2431 1156 2273 1281 
Q 2116 1406 1581 1522 
L 1381 1569 
Q 847 1681 609 1914 
Q 372 2147 372 2553 
Q 372 3047 722 3315 
Q 1072 3584 1716 3584 
Q 2034 3584 2315 3537 
Q 2597 3491 2834 3397 
z
" transform="scale(0.015625)"/>
       <path id="DejaVuSans-6f" d="M 1959 3097 
Q 1497 3097 1228 2736 
Q 959 2375 959 1747 
Q 959 1119 1226 758 
Q 1494 397 1959 397 
Q 2419 397 2687 759 
Q 2956 1122 2956 1747 
Q 2956 2369 2687 2733 
Q 2419 3097 1959 3097 
z
M 1959 3584 
Q 2709 3584 3137 3096 
Q 3566 2609 3566 1747 
Q 3566 888 3137 398 
Q 2709 -91 1959 -91 
Q 1206 -91 779 398 
Q 353 888 353 1747 
Q 353 2609 779 3096 
Q 1206 3584 1959 3584 
z
" transform="scale(0.015625)"/>
       <path id="DejaVuSans-64" d="M 2906 2969 
L 2906 4863 
L 3481 4863 
L 3481 0 
L 2906 0 
L 2906 525 
Q 2725 213 2448 61 
Q 2172 -91 1784 -91 
Q 1150 -91 751 415 
Q 353 922 353 1747 
Q 353 2572 751 3078 
Q 1150 3584 1784 3584 
Q 2172 3584 2448 3432 
Q 2725 3281 2906 2969 
z
M 947 1747 
Q 947 1113 1208 752 
Q 1469 391 1925 391 
Q 2381 391 2643 752 
Q 2906 1113 2906 1747 
Q 2906 2381 2643 2742 
Q 2381 3103 1925 3103 
Q 1469 3103 1208 2742 
Q 947 2381 947 1747 
z
" transform="scale(0.015625)"/>
      </defs>
      <use xlink:href="#DejaVuSans-50"/>
      <use xlink:href="#DejaVuSans-65" x="56.677734"/>
      <use xlink:href="#DejaVuSans-72" x="118.201172"/>
      <use xlink:href="#DejaVuSans-63" x="157.064453"/>
      <use xlink:href="#DejaVuSans-65" x="212.044922"/>
      <use xlink:href="#DejaVuSans-6e" x="273.568359"/>
      <use xlink:href="#DejaVuSans-74" x="336.947266"/>
      <use xlink:href="#DejaVuSans-69" x="376.15625"/>
      <use xlink:href="#DejaVuSans-6c" x="403.939453"/>
      <use xlink:href="#DejaVuSans-65" x="431.722656"/>
      <use xlink:href="#DejaVuSans-20" x="493.246094"/>
      <use xlink:href="#DejaVuSans-54" x="525.033203"/>
      <use xlink:href="#DejaVuSans-68" x="586.117188"/>
      <use xlink:href="#DejaVuSans-72" x="649.496094"/>
      <use xlink:href="#DejaVuSans-65" x="688.359375"/>
      <use xlink:href="#DejaVuSans-73" x="749.882812"/>
      <use xlink:href="#DejaVuSans-68" x="801.982422"/>
      <use xlink:href="#DejaVuSans-6f" x="865.361328"/>
      <use xlink:href="#DejaVuSans-6c" x="926.542969"/>
      <use xlink:href="#DejaVuSans-64" x="954.326172"/>
     </g>
     <!-- (Using "max_mean" Threshold Handling) -->
     <g transform="translate(410.370313 557.78075) scale(0.2 -0.2)">
      <defs>
       <path id="DejaVuSans-28" d="M 1984 4856 
Q 1566 4138 1362 3434 
Q 1159 2731 1159 2009 
Q 1159 1288 1364 580 
Q 1569 -128 1984 -844 
L 1484 -844 
Q 1016 -109 783 600 
Q 550 1309 550 2009 
Q 550 2706 781 3412 
Q 1013 4119 1484 4856 
L 1984 4856 
z
" transform="scale(0.015625)"/>
       <path id="DejaVuSans-55" d="M 556 4666 
L 1191 4666 
L 1191 1831 
Q 1191 1081 1462 751 
Q 1734 422 2344 422 
Q 2950 422 3222 751 
Q 3494 1081 3494 1831 
L 3494 4666 
L 4128 4666 
L 4128 1753 
Q 4128 841 3676 375 
Q 3225 -91 2344 -91 
Q 1459 -91 1007 375 
Q 556 841 556 1753 
L 556 4666 
z
" transform="scale(0.015625)"/>
       <path id="DejaVuSans-67" d="M 2906 1791 
Q 2906 2416 2648 2759 
Q 2391 3103 1925 3103 
Q 1463 3103 1205 2759 
Q 947 2416 947 1791 
Q 947 1169 1205 825 
Q 1463 481 1925 481 
Q 2391 481 2648 825 
Q 2906 1169 2906 1791 
z
M 3481 434 
Q 3481 -459 3084 -895 
Q 2688 -1331 1869 -1331 
Q 1566 -1331 1297 -1286 
Q 1028 -1241 775 -1147 
L 775 -588 
Q 1028 -725 1275 -790 
Q 1522 -856 1778 -856 
Q 2344 -856 2625 -561 
Q 2906 -266 2906 331 
L 2906 616 
Q 2728 306 2450 153 
Q 2172 0 1784 0 
Q 1141 0 747 490 
Q 353 981 353 1791 
Q 353 2603 747 3093 
Q 1141 3584 1784 3584 
Q 2172 3584 2450 3431 
Q 2728 3278 2906 2969 
L 2906 3500 
L 3481 3500 
L 3481 434 
z
" transform="scale(0.015625)"/>
       <path id="DejaVuSans-22" d="M 1147 4666 
L 1147 2931 
L 616 2931 
L 616 4666 
L 1147 4666 
z
M 2328 4666 
L 2328 2931 
L 1797 2931 
L 1797 4666 
L 2328 4666 
z
" transform="scale(0.015625)"/>
       <path id="DejaVuSans-6d" d="M 3328 2828 
Q 3544 3216 3844 3400 
Q 4144 3584 4550 3584 
Q 5097 3584 5394 3201 
Q 5691 2819 5691 2113 
L 5691 0 
L 5113 0 
L 5113 2094 
Q 5113 2597 4934 2840 
Q 4756 3084 4391 3084 
Q 3944 3084 3684 2787 
Q 3425 2491 3425 1978 
L 3425 0 
L 2847 0 
L 2847 2094 
Q 2847 2600 2669 2842 
Q 2491 3084 2119 3084 
Q 1678 3084 1418 2786 
Q 1159 2488 1159 1978 
L 1159 0 
L 581 0 
L 581 3500 
L 1159 3500 
L 1159 2956 
Q 1356 3278 1631 3431 
Q 1906 3584 2284 3584 
Q 2666 3584 2933 3390 
Q 3200 3197 3328 2828 
z
" transform="scale(0.015625)"/>
       <path id="DejaVuSans-61" d="M 2194 1759 
Q 1497 1759 1228 1600 
Q 959 1441 959 1056 
Q 959 750 1161 570 
Q 1363 391 1709 391 
Q 2188 391 2477 730 
Q 2766 1069 2766 1631 
L 2766 1759 
L 2194 1759 
z
M 3341 1997 
L 3341 0 
L 2766 0 
L 2766 531 
Q 2569 213 2275 61 
Q 1981 -91 1556 -91 
Q 1019 -91 701 211 
Q 384 513 384 1019 
Q 384 1609 779 1909 
Q 1175 2209 1959 2209 
L 2766 2209 
L 2766 2266 
Q 2766 2663 2505 2880 
Q 2244 3097 1772 3097 
Q 1472 3097 1187 3025 
Q 903 2953 641 2809 
L 641 3341 
Q 956 3463 1253 3523 
Q 1550 3584 1831 3584 
Q 2591 3584 2966 3190 
Q 3341 2797 3341 1997 
z
" transform="scale(0.015625)"/>
       <path id="DejaVuSans-78" d="M 3513 3500 
L 2247 1797 
L 3578 0 
L 2900 0 
L 1881 1375 
L 863 0 
L 184 0 
L 1544 1831 
L 300 3500 
L 978 3500 
L 1906 2253 
L 2834 3500 
L 3513 3500 
z
" transform="scale(0.015625)"/>
       <path id="DejaVuSans-5f" d="M 3263 -1063 
L 3263 -1509 
L -63 -1509 
L -63 -1063 
L 3263 -1063 
z
" transform="scale(0.015625)"/>
       <path id="DejaVuSans-48" d="M 628 4666 
L 1259 4666 
L 1259 2753 
L 3553 2753 
L 3553 4666 
L 4184 4666 
L 4184 0 
L 3553 0 
L 3553 2222 
L 1259 2222 
L 1259 0 
L 628 0 
L 628 4666 
z
" transform="scale(0.015625)"/>
       <path id="DejaVuSans-29" d="M 513 4856 
L 1013 4856 
Q 1481 4119 1714 3412 
Q 1947 2706 1947 2009 
Q 1947 1309 1714 600 
Q 1481 -109 1013 -844 
L 513 -844 
Q 928 -128 1133 580 
Q 1338 1288 1338 2009 
Q 1338 2731 1133 3434 
Q 928 4138 513 4856 
z
" transform="scale(0.015625)"/>
      </defs>
      <use xlink:href="#DejaVuSans-28"/>
      <use xlink:href="#DejaVuSans-55" x="39.013672"/>
      <use xlink:href="#DejaVuSans-73" x="112.207031"/>
      <use xlink:href="#DejaVuSans-69" x="164.306641"/>
      <use xlink:href="#DejaVuSans-6e" x="192.089844"/>
      <use xlink:href="#DejaVuSans-67" x="255.46875"/>
      <use xlink:href="#DejaVuSans-20" x="318.945312"/>
      <use xlink:href="#DejaVuSans-22" x="350.732422"/>
      <use xlink:href="#DejaVuSans-6d" x="396.728516"/>
      <use xlink:href="#DejaVuSans-61" x="494.140625"/>
      <use xlink:href="#DejaVuSans-78" x="555.419922"/>
      <use xlink:href="#DejaVuSans-5f" x="614.599609"/>
      <use xlink:href="#DejaVuSans-6d" x="664.599609"/>
      <use xlink:href="#DejaVuSans-65" x="762.011719"/>
      <use xlink:href="#DejaVuSans-61" x="823.535156"/>
      <use xlink:href="#DejaVuSans-6e" x="884.814453"/>
      <use xlink:href="#DejaVuSans-22" x="948.193359"/>
      <use xlink:href="#DejaVuSans-20" x="994.189453"/>
      <use xlink:href="#DejaVuSans-54" x="1025.976562"/>
      <use xlink:href="#DejaVuSans-68" x="1087.060547"/>
      <use xlink:href="#DejaVuSans-72" x="1150.439453"/>
      <use xlink:href="#DejaVuSans-65" x="1189.302734"/>
      <use xlink:href="#DejaVuSans-73" x="1250.826172"/>
      <use xlink:href="#DejaVuSans-68" x="1302.925781"/>
      <use xlink:href="#DejaVuSans-6f" x="1366.304688"/>
      <use xlink:href="#DejaVuSans-6c" x="1427.486328"/>
      <use xlink:href="#DejaVuSans-64" x="1455.269531"/>
      <use xlink:href="#DejaVuSans-20" x="1518.746094"/>
      <use xlink:href="#DejaVuSans-48" x="1550.533203"/>
      <use xlink:href="#DejaVuSans-61" x="1625.728516"/>
      <use xlink:href="#DejaVuSans-6e" x="1687.007812"/>
      <use xlink:href="#DejaVuSans-64" x="1750.386719"/>
      <use xlink:href="#DejaVuSans-6c" x="1813.863281"/>
      <use xlink:href="#DejaVuSans-69" x="1841.646484"/>
      <use xlink:href="#DejaVuSans-6e" x="1869.429688"/>
      <use xlink:href="#DejaVuSans-67" x="1932.808594"/>
      <use xlink:href="#DejaVuSans-29" x="1996.285156"/>
     </g>
    </g>
   </g>
   <g id="matplotlib.axis_2">
    <g id="ytick_1">
     <g id="line2d_6">
      <defs>
       <path id="mabce2dcb4d" d="M 0 0 
L -3.5 0 
" style="stroke: #000000; stroke-width: 0.8"/>
      </defs>
      <g>
       <use xlink:href="#mabce2dcb4d" x="86.6" y="386.235797" style="stroke: #000000; stroke-width: 0.8"/>
      </g>
     </g>
     <g id="text_7">
      <!-- 9.0 -->
      <g transform="translate(47.79375 393.834234) scale(0.2 -0.2)">
       <defs>
        <path id="DejaVuSans-39" d="M 703 97 
L 703 672 
Q 941 559 1184 500 
Q 1428 441 1663 441 
Q 2288 441 2617 861 
Q 2947 1281 2994 2138 
Q 2813 1869 2534 1725 
Q 2256 1581 1919 1581 
Q 1219 1581 811 2004 
Q 403 2428 403 3163 
Q 403 3881 828 4315 
Q 1253 4750 1959 4750 
Q 2769 4750 3195 4129 
Q 3622 3509 3622 2328 
Q 3622 1225 3098 567 
Q 2575 -91 1691 -91 
Q 1453 -91 1209 -44 
Q 966 3 703 97 
z
M 1959 2075 
Q 2384 2075 2632 2365 
Q 2881 2656 2881 3163 
Q 2881 3666 2632 3958 
Q 2384 4250 1959 4250 
Q 1534 4250 1286 3958 
Q 1038 3666 1038 3163 
Q 1038 2656 1286 2365 
Q 1534 2075 1959 2075 
z
" transform="scale(0.015625)"/>
        <path id="DejaVuSans-2e" d="M 684 794 
L 1344 794 
L 1344 0 
L 684 0 
L 684 794 
z
" transform="scale(0.015625)"/>
       </defs>
       <use xlink:href="#DejaVuSans-39"/>
       <use xlink:href="#DejaVuSans-2e" x="63.623047"/>
       <use xlink:href="#DejaVuSans-30" x="95.410156"/>
      </g>
     </g>
    </g>
    <g id="ytick_2">
     <g id="line2d_7">
      <g>
       <use xlink:href="#mabce2dcb4d" x="86.6" y="280.731146" style="stroke: #000000; stroke-width: 0.8"/>
      </g>
     </g>
     <g id="text_8">
      <!-- 9.5 -->
      <g transform="translate(47.79375 288.329583) scale(0.2 -0.2)">
       <defs>
        <path id="DejaVuSans-35" d="M 691 4666 
L 3169 4666 
L 3169 4134 
L 1269 4134 
L 1269 2991 
Q 1406 3038 1543 3061 
Q 1681 3084 1819 3084 
Q 2600 3084 3056 2656 
Q 3513 2228 3513 1497 
Q 3513 744 3044 326 
Q 2575 -91 1722 -91 
Q 1428 -91 1123 -41 
Q 819 9 494 109 
L 494 744 
Q 775 591 1075 516 
Q 1375 441 1709 441 
Q 2250 441 2565 725 
Q 2881 1009 2881 1497 
Q 2881 1984 2565 2268 
Q 2250 2553 1709 2553 
Q 1456 2553 1204 2497 
Q 953 2441 691 2322 
L 691 4666 
z
" transform="scale(0.015625)"/>
       </defs>
       <use xlink:href="#DejaVuSans-39"/>
       <use xlink:href="#DejaVuSans-2e" x="63.623047"/>
       <use xlink:href="#DejaVuSans-35" x="95.410156"/>
      </g>
     </g>
    </g>
    <g id="ytick_3">
     <g id="line2d_8">
      <g>
       <use xlink:href="#mabce2dcb4d" x="86.6" y="175.226494" style="stroke: #000000; stroke-width: 0.8"/>
      </g>
     </g>
     <g id="text_9">
      <!-- 10.0 -->
      <g transform="translate(35.06875 182.824932) scale(0.2 -0.2)">
       <defs>
        <path id="DejaVuSans-31" d="M 794 531 
L 1825 531 
L 1825 4091 
L 703 3866 
L 703 4441 
L 1819 4666 
L 2450 4666 
L 2450 531 
L 3481 531 
L 3481 0 
L 794 0 
L 794 531 
z
" transform="scale(0.015625)"/>
       </defs>
       <use xlink:href="#DejaVuSans-31"/>
       <use xlink:href="#DejaVuSans-30" x="63.623047"/>
       <use xlink:href="#DejaVuSans-2e" x="127.246094"/>
       <use xlink:href="#DejaVuSans-30" x="159.033203"/>
      </g>
     </g>
    </g>
    <g id="ytick_4">
     <g id="line2d_9">
      <g>
       <use xlink:href="#mabce2dcb4d" x="86.6" y="69.721843" style="stroke: #000000; stroke-width: 0.8"/>
      </g>
     </g>
     <g id="text_10">
      <!-- 10.5 -->
      <g transform="translate(35.06875 77.320281) scale(0.2 -0.2)">
       <use xlink:href="#DejaVuSans-31"/>
       <use xlink:href="#DejaVuSans-30" x="63.623047"/>
       <use xlink:href="#DejaVuSans-2e" x="127.246094"/>
       <use xlink:href="#DejaVuSans-35" x="159.033203"/>
      </g>
     </g>
    </g>
    <g id="text_11">
     <!-- MAE -->
     <g transform="translate(26.909375 272.1035) rotate(-90) scale(0.2 -0.2)">
      <defs>
       <path id="DejaVuSans-4d" d="M 628 4666 
L 1569 4666 
L 2759 1491 
L 3956 4666 
L 4897 4666 
L 4897 0 
L 4281 0 
L 4281 4097 
L 3078 897 
L 2444 897 
L 1241 4097 
L 1241 0 
L 628 0 
L 628 4666 
z
" transform="scale(0.015625)"/>
       <path id="DejaVuSans-41" d="M 2188 4044 
L 1331 1722 
L 3047 1722 
L 2188 4044 
z
M 1831 4666 
L 2547 4666 
L 4325 0 
L 3669 0 
L 3244 1197 
L 1141 1197 
L 716 0 
L 50 0 
L 1831 4666 
z
" transform="scale(0.015625)"/>
       <path id="DejaVuSans-45" d="M 628 4666 
L 3578 4666 
L 3578 4134 
L 1259 4134 
L 1259 2753 
L 3481 2753 
L 3481 2222 
L 1259 2222 
L 1259 531 
L 3634 531 
L 3634 0 
L 628 0 
L 628 4666 
z
" transform="scale(0.015625)"/>
      </defs>
      <use xlink:href="#DejaVuSans-4d"/>
      <use xlink:href="#DejaVuSans-41" x="86.279297"/>
      <use xlink:href="#DejaVuSans-45" x="154.6875"/>
     </g>
    </g>
   </g>
   <g id="line2d_10">
    <path d="M 134.536364 285.15474 
L 154.934816 339.228801 
L 175.333269 353.295977 
L 195.731721 325.402881 
L 216.130174 311.730934 
L 236.528627 231.491028 
L 256.927079 296.051068 
L 277.325532 329.191715 
L 297.723985 257.037339 
L 318.122437 298.909231 
L 338.52089 314.732984 
L 358.919342 298.22137 
L 379.317795 331.853985 
L 399.716248 302.206986 
L 420.1147 293.99223 
L 440.513153 299.176624 
L 460.911605 289.902575 
L 481.310058 294.444051 
L 501.708511 340.639975 
L 522.106963 332.393428 
L 542.505416 301.005491 
L 562.903868 304.272525 
L 583.302321 272.112112 
L 603.700774 349.727742 
L 624.099226 310.739674 
L 644.497679 315.927739 
L 664.896132 311.5299 
L 685.294584 277.59411 
L 705.693037 364.712567 
L 726.091489 279.826564 
L 746.489942 345.648254 
L 766.888395 329.699318 
L 787.286847 338.205836 
L 807.6853 335.664625 
L 828.083752 301.853719 
L 848.482205 332.021911 
L 868.880658 336.281435 
L 889.27911 317.674846 
L 909.677563 281.80768 
L 930.076015 262.381136 
L 950.474468 256.431935 
L 970.872921 245.62592 
L 991.271373 263.286358 
L 1011.669826 260.342029 
L 1032.068279 230.988418 
L 1052.466731 253.64562 
L 1072.865184 253.965331 
L 1093.263636 259.716225 
" clip-path="url(#p0499bb351a)" style="fill: none; stroke: #1f77b4; stroke-width: 1.5; stroke-linecap: square"/>
   </g>
   <g id="line2d_11">
    <path d="M 134.536364 280.352798 
L 154.934816 341.941545 
L 175.333269 324.200796 
L 195.731721 326.403048 
L 216.130174 311.973111 
L 236.528627 289.239329 
L 256.927079 269.860238 
L 277.325532 305.593875 
L 297.723985 299.478928 
L 318.122437 316.000976 
L 338.52089 310.781532 
L 358.919342 332.181493 
L 379.317795 344.184575 
L 399.716248 313.13244 
L 420.1147 314.474963 
L 440.513153 335.517616 
L 460.911605 324.508402 
L 481.310058 340.865899 
L 501.708511 356.444306 
L 522.106963 333.105378 
L 542.505416 309.521776 
L 562.903868 323.083489 
L 583.302321 331.444757 
L 603.700774 349.402155 
L 624.099226 344.577775 
L 644.497679 333.216274 
L 664.896132 343.301523 
L 685.294584 307.726091 
L 705.693037 336.557459 
L 726.091489 336.836608 
L 746.489942 350.112526 
L 766.888395 347.440629 
L 787.286847 335.091861 
L 807.6853 344.480212 
L 828.083752 326.492716 
L 848.482205 334.137778 
L 868.880658 337.758258 
L 889.27911 335.525023 
L 909.677563 286.848187 
L 930.076015 268.820663 
L 950.474468 266.39215 
L 970.872921 256.70617 
L 991.271373 256.526742 
L 1011.669826 268.319067 
L 1032.068279 275.591734 
L 1052.466731 274.069411 
L 1072.865184 272.684022 
L 1093.263636 275.351727 
" clip-path="url(#p0499bb351a)" style="fill: none; stroke: #ff7f0e; stroke-width: 1.5; stroke-linecap: square"/>
   </g>
   <g id="line2d_12">
    <path d="M 134.536364 135.489811 
L 154.934816 187.841056 
L 175.333269 148.104954 
L 195.731721 142.312538 
L 216.130174 157.526369 
L 236.528627 131.239686 
L 256.927079 97.63795 
L 277.325532 147.723787 
L 297.723985 105.785771 
L 318.122437 110.530362 
L 338.52089 101.627089 
L 358.919342 109.349409 
L 379.317795 120.982488 
L 399.716248 139.651164 
L 420.1147 172.281257 
L 440.513153 170.812617 
L 460.911605 148.190425 
L 481.310058 162.461899 
L 501.708511 171.596463 
L 522.106963 154.446152 
L 542.505416 141.263034 
L 562.903868 160.771372 
L 583.302321 180.418003 
L 603.700774 214.557621 
L 624.099226 190.024882 
L 644.497679 152.515006 
L 664.896132 163.646068 
L 685.294584 144.793311 
L 705.693037 173.401694 
L 726.091489 144.265603 
L 746.489942 143.171105 
L 766.888395 159.818657 
L 787.286847 135.118524 
L 807.6853 175.553249 
L 828.083752 159.703507 
L 848.482205 168.50307 
L 868.880658 174.288086 
L 889.27911 178.214447 
L 909.677563 128.738852 
L 930.076015 126.513738 
L 950.474468 123.852459 
L 970.872921 111.359544 
L 991.271373 91.731339 
L 1011.669826 85.263901 
L 1032.068279 120.64947 
L 1052.466731 123.890172 
L 1072.865184 122.561083 
L 1093.263636 146.113598 
" clip-path="url(#p0499bb351a)" style="fill: none; stroke: #2ca02c; stroke-width: 1.5; stroke-linecap: square"/>
   </g>
   <g id="line2d_13">
    <path d="M 134.536364 328.285635 
L 154.934816 402.582876 
L 175.333269 380.972522 
L 195.731721 370.71552 
L 216.130174 380.048136 
L 236.528627 367.533266 
L 256.927079 343.634524 
L 277.325532 386.461306 
L 297.723985 345.87091 
L 318.122437 346.125697 
L 338.52089 387.958505 
L 358.919342 414.038459 
L 379.317795 373.976938 
L 399.716248 378.630494 
L 420.1147 370.355617 
L 440.513153 399.916968 
L 460.911605 383.343072 
L 481.310058 416.789349 
L 501.708511 397.322822 
L 522.106963 415.651022 
L 542.505416 365.371189 
L 562.903868 379.634004 
L 583.302321 373.126285 
L 603.700774 365.679114 
L 624.099226 393.42711 
L 644.497679 357.894546 
L 664.896132 387.195804 
L 685.294584 340.21307 
L 705.693037 379.788253 
L 726.091489 406.841739 
L 746.489942 373.063778 
L 766.888395 408.931074 
L 787.286847 367.787906 
L 807.6853 380.227668 
L 828.083752 354.496364 
L 848.482205 385.367047 
L 868.880658 386.265592 
L 889.27911 377.258784 
L 909.677563 386.73533 
L 930.076015 302.276634 
L 950.474468 302.331656 
L 970.872921 319.382772 
L 991.271373 318.023167 
L 1011.669826 334.489078 
L 1032.068279 325.391552 
L 1052.466731 308.221361 
L 1072.865184 307.4868 
L 1093.263636 313.202415 
" clip-path="url(#p0499bb351a)" style="fill: none; stroke: #d62728; stroke-width: 1.5; stroke-linecap: square"/>
   </g>
   <g id="line2d_14"/>
   <g id="line2d_15"/>
   <g id="line2d_16"/>
   <g id="line2d_17"/>
   <g id="patch_3">
    <path d="M 86.6 489.832 
L 86.6 10.8 
" style="fill: none; stroke: #000000; stroke-width: 0.8; stroke-linejoin: miter; stroke-linecap: square"/>
   </g>
   <g id="patch_4">
    <path d="M 1141.2 489.832 
L 1141.2 10.8 
" style="fill: none; stroke: #000000; stroke-width: 0.8; stroke-linejoin: miter; stroke-linecap: square"/>
   </g>
   <g id="patch_5">
    <path d="M 86.6 489.832 
L 1141.2 489.832 
" style="fill: none; stroke: #000000; stroke-width: 0.8; stroke-linejoin: miter; stroke-linecap: square"/>
   </g>
   <g id="patch_6">
    <path d="M 86.6 10.8 
L 1141.2 10.8 
" style="fill: none; stroke: #000000; stroke-width: 0.8; stroke-linejoin: miter; stroke-linecap: square"/>
   </g>
   <g id="legend_1">
    <g id="patch_7">
     <path d="M 97.8 481.832 
L 267.545 481.832 
Q 270.745 481.832 270.745 478.632 
L 270.745 386.292 
Q 270.745 383.092 267.545 383.092 
L 97.8 383.092 
Q 94.6 383.092 94.6 386.292 
L 94.6 478.632 
Q 94.6 481.832 97.8 481.832 
z
" style="fill: #ffffff; opacity: 0.8; stroke: #cccccc; stroke-linejoin: miter"/>
    </g>
    <g id="line2d_18">
     <path d="M 101 396.0495 
L 117 396.0495 
L 133 396.0495 
" style="fill: none; stroke: #1f77b4; stroke-width: 1.5; stroke-linecap: square"/>
    </g>
    <g id="text_12">
     <!-- gbr -->
     <g transform="translate(145.8 401.6495) scale(0.16 -0.16)">
      <defs>
       <path id="DejaVuSans-62" d="M 3116 1747 
Q 3116 2381 2855 2742 
Q 2594 3103 2138 3103 
Q 1681 3103 1420 2742 
Q 1159 2381 1159 1747 
Q 1159 1113 1420 752 
Q 1681 391 2138 391 
Q 2594 391 2855 752 
Q 3116 1113 3116 1747 
z
M 1159 2969 
Q 1341 3281 1617 3432 
Q 1894 3584 2278 3584 
Q 2916 3584 3314 3078 
Q 3713 2572 3713 1747 
Q 3713 922 3314 415 
Q 2916 -91 2278 -91 
Q 1894 -91 1617 61 
Q 1341 213 1159 525 
L 1159 0 
L 581 0 
L 581 4863 
L 1159 4863 
L 1159 2969 
z
" transform="scale(0.015625)"/>
      </defs>
      <use xlink:href="#DejaVuSans-67"/>
      <use xlink:href="#DejaVuSans-62" x="63.476562"/>
      <use xlink:href="#DejaVuSans-72" x="126.953125"/>
     </g>
    </g>
    <g id="line2d_19">
     <path d="M 101 419.5345 
L 117 419.5345 
L 133 419.5345 
" style="fill: none; stroke: #ff7f0e; stroke-width: 1.5; stroke-linecap: square"/>
    </g>
    <g id="text_13">
     <!-- rf -->
     <g transform="translate(145.8 425.1345) scale(0.16 -0.16)">
      <defs>
       <path id="DejaVuSans-66" d="M 2375 4863 
L 2375 4384 
L 1825 4384 
Q 1516 4384 1395 4259 
Q 1275 4134 1275 3809 
L 1275 3500 
L 2222 3500 
L 2222 3053 
L 1275 3053 
L 1275 0 
L 697 0 
L 697 3053 
L 147 3053 
L 147 3500 
L 697 3500 
L 697 3744 
Q 697 4328 969 4595 
Q 1241 4863 1831 4863 
L 2375 4863 
z
" transform="scale(0.015625)"/>
      </defs>
      <use xlink:href="#DejaVuSans-72"/>
      <use xlink:href="#DejaVuSans-66" x="41.113281"/>
     </g>
    </g>
    <g id="line2d_20">
     <path d="M 101 443.0195 
L 117 443.0195 
L 133 443.0195 
" style="fill: none; stroke: #2ca02c; stroke-width: 1.5; stroke-linecap: square"/>
    </g>
    <g id="text_14">
     <!-- BayesianRidge -->
     <g transform="translate(145.8 448.6195) scale(0.16 -0.16)">
      <defs>
       <path id="DejaVuSans-42" d="M 1259 2228 
L 1259 519 
L 2272 519 
Q 2781 519 3026 730 
Q 3272 941 3272 1375 
Q 3272 1813 3026 2020 
Q 2781 2228 2272 2228 
L 1259 2228 
z
M 1259 4147 
L 1259 2741 
L 2194 2741 
Q 2656 2741 2882 2914 
Q 3109 3088 3109 3444 
Q 3109 3797 2882 3972 
Q 2656 4147 2194 4147 
L 1259 4147 
z
M 628 4666 
L 2241 4666 
Q 2963 4666 3353 4366 
Q 3744 4066 3744 3513 
Q 3744 3084 3544 2831 
Q 3344 2578 2956 2516 
Q 3422 2416 3680 2098 
Q 3938 1781 3938 1306 
Q 3938 681 3513 340 
Q 3088 0 2303 0 
L 628 0 
L 628 4666 
z
" transform="scale(0.015625)"/>
       <path id="DejaVuSans-79" d="M 2059 -325 
Q 1816 -950 1584 -1140 
Q 1353 -1331 966 -1331 
L 506 -1331 
L 506 -850 
L 844 -850 
Q 1081 -850 1212 -737 
Q 1344 -625 1503 -206 
L 1606 56 
L 191 3500 
L 800 3500 
L 1894 763 
L 2988 3500 
L 3597 3500 
L 2059 -325 
z
" transform="scale(0.015625)"/>
       <path id="DejaVuSans-52" d="M 2841 2188 
Q 3044 2119 3236 1894 
Q 3428 1669 3622 1275 
L 4263 0 
L 3584 0 
L 2988 1197 
Q 2756 1666 2539 1819 
Q 2322 1972 1947 1972 
L 1259 1972 
L 1259 0 
L 628 0 
L 628 4666 
L 2053 4666 
Q 2853 4666 3247 4331 
Q 3641 3997 3641 3322 
Q 3641 2881 3436 2590 
Q 3231 2300 2841 2188 
z
M 1259 4147 
L 1259 2491 
L 2053 2491 
Q 2509 2491 2742 2702 
Q 2975 2913 2975 3322 
Q 2975 3731 2742 3939 
Q 2509 4147 2053 4147 
L 1259 4147 
z
" transform="scale(0.015625)"/>
      </defs>
      <use xlink:href="#DejaVuSans-42"/>
      <use xlink:href="#DejaVuSans-61" x="68.603516"/>
      <use xlink:href="#DejaVuSans-79" x="129.882812"/>
      <use xlink:href="#DejaVuSans-65" x="189.0625"/>
      <use xlink:href="#DejaVuSans-73" x="250.585938"/>
      <use xlink:href="#DejaVuSans-69" x="302.685547"/>
      <use xlink:href="#DejaVuSans-61" x="330.46875"/>
      <use xlink:href="#DejaVuSans-6e" x="391.748047"/>
      <use xlink:href="#DejaVuSans-52" x="455.126953"/>
      <use xlink:href="#DejaVuSans-69" x="524.609375"/>
      <use xlink:href="#DejaVuSans-64" x="552.392578"/>
      <use xlink:href="#DejaVuSans-67" x="615.869141"/>
      <use xlink:href="#DejaVuSans-65" x="679.345703"/>
     </g>
    </g>
    <g id="line2d_21">
     <path d="M 101 466.5045 
L 117 466.5045 
L 133 466.5045 
" style="fill: none; stroke: #d62728; stroke-width: 1.5; stroke-linecap: square"/>
    </g>
    <g id="text_15">
     <!-- xgb -->
     <g transform="translate(145.8 472.1045) scale(0.16 -0.16)">
      <use xlink:href="#DejaVuSans-78"/>
      <use xlink:href="#DejaVuSans-67" x="59.179688"/>
      <use xlink:href="#DejaVuSans-62" x="122.65625"/>
     </g>
    </g>
   </g>
  </g>
 </g>
 <defs>
  <clipPath id="p0499bb351a">
   <rect x="86.6" y="10.8" width="1054.6" height="479.032"/>
  </clipPath>
 </defs>
</svg>
