<?xml version="1.0" encoding="utf-8" standalone="no"?>
<!DOCTYPE svg PUBLIC "-//W3C//DTD SVG 1.1//EN"
  "http://www.w3.org/Graphics/SVG/1.1/DTD/svg11.dtd">
<svg xmlns:xlink="http://www.w3.org/1999/xlink" width="1152pt" height="576pt" viewBox="0 0 1152 576" xmlns="http://www.w3.org/2000/svg" version="1.1">
 <metadata>
  <rdf:RDF xmlns:dc="http://purl.org/dc/elements/1.1/" xmlns:cc="http://creativecommons.org/ns#" xmlns:rdf="http://www.w3.org/1999/02/22-rdf-syntax-ns#">
   <cc:Work>
    <dc:type rdf:resource="http://purl.org/dc/dcmitype/StillImage"/>
    <dc:date>2025-03-19T23:03:02.801882</dc:date>
    <dc:format>image/svg+xml</dc:format>
    <dc:creator>
     <cc:Agent>
      <dc:title>Matplotlib v3.9.2, https://matplotlib.org/</dc:title>
     </cc:Agent>
    </dc:creator>
   </cc:Work>
  </rdf:RDF>
 </metadata>
 <defs>
  <style type="text/css">*{stroke-linejoin: round; stroke-linecap: butt}</style>
 </defs>
 <g id="figure_1">
  <g id="patch_1">
   <path d="M 0 576 
L 1152 576 
L 1152 0 
L 0 0 
z
" style="fill: #ffffff"/>
  </g>
  <g id="axes_1">
   <g id="patch_2">
    <path d="M 86.69 490.552 
L 1141.2 490.552 
L 1141.2 10.8 
L 86.69 10.8 
z
" style="fill: #ffffff"/>
   </g>
   <g id="PolyCollection_1">
    <defs>
     <path id="m22129e61d3" d="M 134.622273 -114.601127 
L 134.622273 -107.254909 
L 155.018985 -110.55706 
L 175.415696 -112.053663 
L 195.812408 -112.123507 
L 216.20912 -115.114177 
L 236.605832 -118.903375 
L 257.002544 -126.218713 
L 277.399255 -128.41585 
L 297.795967 -130.448569 
L 318.192679 -132.555843 
L 338.589391 -136.960367 
L 358.986103 -141.401129 
L 379.382814 -152.146778 
L 399.779526 -154.227331 
L 420.176238 -158.163943 
L 440.57295 -162.839322 
L 460.969662 -166.717635 
L 481.366373 -170.141663 
L 501.763085 -167.905631 
L 522.159797 -178.090774 
L 542.556509 -187.460281 
L 562.953221 -186.65998 
L 583.349932 -186.702224 
L 603.746644 -185.55297 
L 624.143356 -189.993127 
L 644.540068 -197.90969 
L 664.936779 -192.053882 
L 685.333491 -205.862558 
L 705.730203 -223.384707 
L 726.126915 -227.188911 
L 746.523627 -239.792355 
L 766.920338 -235.218461 
L 787.31705 -244.819175 
L 807.713762 -243.888386 
L 828.110474 -242.624977 
L 848.507186 -241.560628 
L 868.903897 -237.84811 
L 889.300609 -255.259346 
L 909.697321 -249.388732 
L 930.094033 -313.441021 
L 950.490745 -289.397248 
L 970.887456 -279.968369 
L 991.284168 -266.450252 
L 1011.68088 -287.547382 
L 1032.077592 -307.241189 
L 1052.474304 -349.215659 
L 1072.871015 -322.857973 
L 1093.267727 -311.503973 
L 1093.267727 -439.009254 
L 1093.267727 -439.009254 
L 1072.871015 -434.384214 
L 1052.474304 -439.16858 
L 1032.077592 -391.920142 
L 1011.68088 -346.527707 
L 991.284168 -324.893622 
L 970.887456 -415.809957 
L 950.490745 -375.488036 
L 930.094033 -434.191271 
L 909.697321 -388.058586 
L 889.300609 -356.769209 
L 868.903897 -357.702827 
L 848.507186 -356.480219 
L 828.110474 -356.497374 
L 807.713762 -343.359513 
L 787.31705 -341.529077 
L 766.920338 -306.08403 
L 746.523627 -327.096072 
L 726.126915 -303.720572 
L 705.730203 -250.515215 
L 685.333491 -258.942976 
L 664.936779 -256.673521 
L 644.540068 -254.713278 
L 624.143356 -250.782663 
L 603.746644 -245.000546 
L 583.349932 -256.847111 
L 562.953221 -236.844599 
L 542.556509 -222.778857 
L 522.159797 -220.36143 
L 501.763085 -198.172431 
L 481.366373 -195.120781 
L 460.969662 -192.596329 
L 440.57295 -193.892255 
L 420.176238 -185.066655 
L 399.779526 -175.177503 
L 379.382814 -166.87735 
L 358.986103 -156.698972 
L 338.589391 -151.623374 
L 318.192679 -146.09407 
L 297.795967 -148.556526 
L 277.399255 -148.197894 
L 257.002544 -141.466681 
L 236.605832 -133.720952 
L 216.20912 -135.904677 
L 195.812408 -130.21996 
L 175.415696 -121.910101 
L 155.018985 -115.045667 
L 134.622273 -114.601127 
z
" style="stroke: #1f77b4; stroke-opacity: 0.2"/>
    </defs>
    <g clip-path="url(#p4dd87b5aa0)">
     <use xlink:href="#m22129e61d3" x="0" y="576" style="fill: #1f77b4; fill-opacity: 0.2; stroke: #1f77b4; stroke-opacity: 0.2"/>
    </g>
   </g>
   <g id="PolyCollection_2">
    <defs>
     <path id="m241d9953cd" d="M 134.622273 -126.133648 
L 134.622273 -120.719111 
L 155.018985 -121.443777 
L 175.415696 -127.667942 
L 195.812408 -127.480292 
L 216.20912 -132.354977 
L 236.605832 -138.046044 
L 257.002544 -145.991698 
L 277.399255 -146.82408 
L 297.795967 -145.122004 
L 318.192679 -150.096308 
L 338.589391 -153.860048 
L 358.986103 -158.242834 
L 379.382814 -163.504159 
L 399.779526 -168.918557 
L 420.176238 -170.71107 
L 440.57295 -166.927403 
L 460.969662 -175.097548 
L 481.366373 -183.706431 
L 501.763085 -181.523776 
L 522.159797 -189.88304 
L 542.556509 -199.359423 
L 562.953221 -195.254631 
L 583.349932 -197.426772 
L 603.746644 -193.957176 
L 624.143356 -200.164134 
L 644.540068 -202.106937 
L 664.936779 -200.048219 
L 685.333491 -199.569316 
L 705.730203 -215.47602 
L 726.126915 -229.03021 
L 746.523627 -236.864206 
L 766.920338 -241.046609 
L 787.31705 -253.613927 
L 807.713762 -243.964011 
L 828.110474 -240.20277 
L 848.507186 -240.648818 
L 868.903897 -238.769868 
L 889.300609 -261.36348 
L 909.697321 -257.770899 
L 930.094033 -348.617557 
L 950.490745 -317.446217 
L 970.887456 -313.720727 
L 991.284168 -317.946891 
L 1011.68088 -338.142734 
L 1032.077592 -360.729391 
L 1052.474304 -364.407089 
L 1072.871015 -355.846401 
L 1093.267727 -357.273043 
L 1093.267727 -540.952343 
L 1093.267727 -540.952343 
L 1072.871015 -543.393091 
L 1052.474304 -538.408418 
L 1032.077592 -433.325681 
L 1011.68088 -459.949374 
L 991.284168 -458.942741 
L 970.887456 -507.664183 
L 950.490745 -477.712154 
L 930.094033 -498.210335 
L 909.697321 -409.146107 
L 889.300609 -411.907208 
L 868.903897 -382.12013 
L 848.507186 -384.014076 
L 828.110474 -383.765588 
L 807.713762 -384.291404 
L 787.31705 -394.241696 
L 766.920338 -282.022189 
L 746.523627 -284.322964 
L 726.126915 -284.599184 
L 705.730203 -236.487764 
L 685.333491 -237.591673 
L 664.936779 -241.054604 
L 644.540068 -231.680053 
L 624.143356 -234.84708 
L 603.746644 -232.319443 
L 583.349932 -245.966232 
L 562.953221 -225.055707 
L 542.556509 -241.760381 
L 522.159797 -234.938684 
L 501.763085 -207.875782 
L 481.366373 -187.403249 
L 460.969662 -185.201428 
L 440.57295 -190.597362 
L 420.176238 -187.948051 
L 399.779526 -188.206132 
L 379.382814 -172.279488 
L 358.986103 -168.555893 
L 338.589391 -159.051994 
L 318.192679 -153.587769 
L 297.795967 -162.024947 
L 277.399255 -160.039409 
L 257.002544 -153.820458 
L 236.605832 -147.98449 
L 216.20912 -148.08235 
L 195.812408 -144.626279 
L 175.415696 -145.147946 
L 155.018985 -125.925528 
L 134.622273 -126.133648 
z
" style="stroke: #ff7f0e; stroke-opacity: 0.2"/>
    </defs>
    <g clip-path="url(#p4dd87b5aa0)">
     <use xlink:href="#m241d9953cd" x="0" y="576" style="fill: #ff7f0e; fill-opacity: 0.2; stroke: #ff7f0e; stroke-opacity: 0.2"/>
    </g>
   </g>
   <g id="PolyCollection_3">
    <defs>
     <path id="md6154d8da9" d="M 134.622273 -117.871021 
L 134.622273 -113.599817 
L 155.018985 -116.321852 
L 175.415696 -117.512266 
L 195.812408 -118.279677 
L 216.20912 -124.309643 
L 236.605832 -128.880714 
L 257.002544 -136.946938 
L 277.399255 -138.331445 
L 297.795967 -138.776973 
L 318.192679 -139.240214 
L 338.589391 -147.466439 
L 358.986103 -154.53239 
L 379.382814 -163.266461 
L 399.779526 -165.315911 
L 420.176238 -166.674188 
L 440.57295 -159.836778 
L 460.969662 -169.89653 
L 481.366373 -177.804198 
L 501.763085 -176.92379 
L 522.159797 -185.083191 
L 542.556509 -189.442742 
L 562.953221 -192.112082 
L 583.349932 -195.729956 
L 603.746644 -190.193822 
L 624.143356 -195.408498 
L 644.540068 -191.283401 
L 664.936779 -191.469971 
L 685.333491 -194.033961 
L 705.730203 -206.806607 
L 726.126915 -226.318436 
L 746.523627 -227.944098 
L 766.920338 -237.496494 
L 787.31705 -249.941816 
L 807.713762 -239.218762 
L 828.110474 -235.677775 
L 848.507186 -239.053851 
L 868.903897 -234.48131 
L 889.300609 -258.597555 
L 909.697321 -258.051746 
L 930.094033 -351.04753 
L 950.490745 -319.112406 
L 970.887456 -308.591843 
L 991.284168 -308.68874 
L 1011.68088 -335.325386 
L 1032.077592 -353.593678 
L 1052.474304 -382.161035 
L 1072.871015 -382.109884 
L 1093.267727 -355.365149 
L 1093.267727 -512.086621 
L 1093.267727 -512.086621 
L 1072.871015 -507.677215 
L 1052.474304 -507.503851 
L 1032.077592 -420.452187 
L 1011.68088 -407.045149 
L 991.284168 -394.404735 
L 970.887456 -481.568459 
L 950.490745 -423.004102 
L 930.094033 -475.033065 
L 909.697321 -404.458113 
L 889.300609 -385.634478 
L 868.903897 -366.479246 
L 848.507186 -372.322893 
L 828.110474 -367.488701 
L 807.713762 -368.377161 
L 787.31705 -363.528774 
L 766.920338 -293.896593 
L 746.523627 -297.062144 
L 726.126915 -280.003795 
L 705.730203 -237.643168 
L 685.333491 -233.191783 
L 664.936779 -235.298139 
L 644.540068 -225.405032 
L 624.143356 -226.927076 
L 603.746644 -224.794633 
L 583.349932 -233.990572 
L 562.953221 -218.035151 
L 542.556509 -216.963746 
L 522.159797 -212.091616 
L 501.763085 -188.997253 
L 481.366373 -184.074706 
L 460.969662 -181.457484 
L 440.57295 -186.485175 
L 420.176238 -184.091316 
L 399.779526 -182.417372 
L 379.382814 -174.990204 
L 358.986103 -167.16771 
L 338.589391 -158.146372 
L 318.192679 -149.607826 
L 297.795967 -155.319296 
L 277.399255 -150.895284 
L 257.002544 -143.401371 
L 236.605832 -143.568125 
L 216.20912 -142.316674 
L 195.812408 -135.165177 
L 175.415696 -130.307393 
L 155.018985 -118.845321 
L 134.622273 -117.871021 
z
" style="stroke: #2ca02c; stroke-opacity: 0.2"/>
    </defs>
    <g clip-path="url(#p4dd87b5aa0)">
     <use xlink:href="#md6154d8da9" x="0" y="576" style="fill: #2ca02c; fill-opacity: 0.2; stroke: #2ca02c; stroke-opacity: 0.2"/>
    </g>
   </g>
   <g id="PolyCollection_4">
    <defs>
     <path id="m175c6c1e54" d="M 134.622273 -119.860271 
L 134.622273 -112.413107 
L 155.018985 -115.750719 
L 175.415696 -117.017633 
L 195.812408 -121.025692 
L 216.20912 -125.836972 
L 236.605832 -133.276623 
L 257.002544 -134.949602 
L 277.399255 -138.966623 
L 297.795967 -139.036791 
L 318.192679 -138.395914 
L 338.589391 -147.041429 
L 358.986103 -151.357185 
L 379.382814 -163.087435 
L 399.779526 -160.176895 
L 420.176238 -168.812602 
L 440.57295 -161.764601 
L 460.969662 -164.613362 
L 481.366373 -174.03607 
L 501.763085 -179.836951 
L 522.159797 -191.102494 
L 542.556509 -193.349985 
L 562.953221 -190.946706 
L 583.349932 -190.804778 
L 603.746644 -189.906663 
L 624.143356 -196.509244 
L 644.540068 -191.60388 
L 664.936779 -188.500396 
L 685.333491 -201.506776 
L 705.730203 -214.488461 
L 726.126915 -226.497242 
L 746.523627 -231.949792 
L 766.920338 -232.949296 
L 787.31705 -250.29128 
L 807.713762 -246.945262 
L 828.110474 -246.020504 
L 848.507186 -249.881895 
L 868.903897 -241.373534 
L 889.300609 -262.366448 
L 909.697321 -265.992945 
L 930.094033 -342.744809 
L 950.490745 -315.525652 
L 970.887456 -306.449797 
L 991.284168 -315.682644 
L 1011.68088 -311.984941 
L 1032.077592 -337.000324 
L 1052.474304 -350.546844 
L 1072.871015 -344.451959 
L 1093.267727 -342.847267 
L 1093.267727 -484.089626 
L 1093.267727 -484.089626 
L 1072.871015 -482.264252 
L 1052.474304 -489.50583 
L 1032.077592 -399.789408 
L 1011.68088 -384.719811 
L 991.284168 -386.599573 
L 970.887456 -482.677493 
L 950.490745 -434.071773 
L 930.094033 -472.080733 
L 909.697321 -401.082716 
L 889.300609 -379.969188 
L 868.903897 -364.973755 
L 848.507186 -370.003287 
L 828.110474 -370.280841 
L 807.713762 -361.493252 
L 787.31705 -366.579661 
L 766.920338 -286.16816 
L 746.523627 -294.972923 
L 726.126915 -288.161823 
L 705.730203 -239.084442 
L 685.333491 -242.125637 
L 664.936779 -233.548685 
L 644.540068 -226.693104 
L 624.143356 -230.234364 
L 603.746644 -229.739293 
L 583.349932 -236.403506 
L 562.953221 -211.79749 
L 542.556509 -222.253267 
L 522.159797 -217.25762 
L 501.763085 -204.827489 
L 481.366373 -190.460406 
L 460.969662 -187.911019 
L 440.57295 -181.600983 
L 420.176238 -183.127647 
L 399.779526 -174.083513 
L 379.382814 -170.50294 
L 358.986103 -161.116815 
L 338.589391 -154.881074 
L 318.192679 -151.695211 
L 297.795967 -157.322562 
L 277.399255 -149.647719 
L 257.002544 -146.262458 
L 236.605832 -144.652813 
L 216.20912 -136.958742 
L 195.812408 -136.546273 
L 175.415696 -129.024961 
L 155.018985 -120.142709 
L 134.622273 -119.860271 
z
" style="stroke: #d62728; stroke-opacity: 0.2"/>
    </defs>
    <g clip-path="url(#p4dd87b5aa0)">
     <use xlink:href="#m175c6c1e54" x="0" y="576" style="fill: #d62728; fill-opacity: 0.2; stroke: #d62728; stroke-opacity: 0.2"/>
    </g>
   </g>
   <g id="matplotlib.axis_1">
    <g id="xtick_1">
     <g id="line2d_1">
      <defs>
       <path id="m94725bb35a" d="M 0 0 
L 0 3.5 
" style="stroke: #000000; stroke-width: 0.8"/>
      </defs>
      <g>
       <use xlink:href="#m94725bb35a" x="124.423917" y="490.552" style="stroke: #000000; stroke-width: 0.8"/>
      </g>
     </g>
     <g id="text_1">
      <!-- 0 -->
      <g transform="translate(118.061417 512.748875) scale(0.2 -0.2)">
       <defs>
        <path id="DejaVuSans-30" d="M 2034 4250 
Q 1547 4250 1301 3770 
Q 1056 3291 1056 2328 
Q 1056 1369 1301 889 
Q 1547 409 2034 409 
Q 2525 409 2770 889 
Q 3016 1369 3016 2328 
Q 3016 3291 2770 3770 
Q 2525 4250 2034 4250 
z
M 2034 4750 
Q 2819 4750 3233 4129 
Q 3647 3509 3647 2328 
Q 3647 1150 3233 529 
Q 2819 -91 2034 -91 
Q 1250 -91 836 529 
Q 422 1150 422 2328 
Q 422 3509 836 4129 
Q 1250 4750 2034 4750 
z
" transform="scale(0.015625)"/>
       </defs>
       <use xlink:href="#DejaVuSans-30"/>
      </g>
     </g>
    </g>
    <g id="xtick_2">
     <g id="line2d_2">
      <g>
       <use xlink:href="#m94725bb35a" x="328.391035" y="490.552" style="stroke: #000000; stroke-width: 0.8"/>
      </g>
     </g>
     <g id="text_2">
      <!-- 20 -->
      <g transform="translate(315.666035 512.748875) scale(0.2 -0.2)">
       <defs>
        <path id="DejaVuSans-32" d="M 1228 531 
L 3431 531 
L 3431 0 
L 469 0 
L 469 531 
Q 828 903 1448 1529 
Q 2069 2156 2228 2338 
Q 2531 2678 2651 2914 
Q 2772 3150 2772 3378 
Q 2772 3750 2511 3984 
Q 2250 4219 1831 4219 
Q 1534 4219 1204 4116 
Q 875 4013 500 3803 
L 500 4441 
Q 881 4594 1212 4672 
Q 1544 4750 1819 4750 
Q 2544 4750 2975 4387 
Q 3406 4025 3406 3419 
Q 3406 3131 3298 2873 
Q 3191 2616 2906 2266 
Q 2828 2175 2409 1742 
Q 1991 1309 1228 531 
z
" transform="scale(0.015625)"/>
       </defs>
       <use xlink:href="#DejaVuSans-32"/>
       <use xlink:href="#DejaVuSans-30" x="63.623047"/>
      </g>
     </g>
    </g>
    <g id="xtick_3">
     <g id="line2d_3">
      <g>
       <use xlink:href="#m94725bb35a" x="532.358153" y="490.552" style="stroke: #000000; stroke-width: 0.8"/>
      </g>
     </g>
     <g id="text_3">
      <!-- 40 -->
      <g transform="translate(519.633153 512.748875) scale(0.2 -0.2)">
       <defs>
        <path id="DejaVuSans-34" d="M 2419 4116 
L 825 1625 
L 2419 1625 
L 2419 4116 
z
M 2253 4666 
L 3047 4666 
L 3047 1625 
L 3713 1625 
L 3713 1100 
L 3047 1100 
L 3047 0 
L 2419 0 
L 2419 1100 
L 313 1100 
L 313 1709 
L 2253 4666 
z
" transform="scale(0.015625)"/>
       </defs>
       <use xlink:href="#DejaVuSans-34"/>
       <use xlink:href="#DejaVuSans-30" x="63.623047"/>
      </g>
     </g>
    </g>
    <g id="xtick_4">
     <g id="line2d_4">
      <g>
       <use xlink:href="#m94725bb35a" x="736.325271" y="490.552" style="stroke: #000000; stroke-width: 0.8"/>
      </g>
     </g>
     <g id="text_4">
      <!-- 60 -->
      <g transform="translate(723.600271 512.748875) scale(0.2 -0.2)">
       <defs>
        <path id="DejaVuSans-36" d="M 2113 2584 
Q 1688 2584 1439 2293 
Q 1191 2003 1191 1497 
Q 1191 994 1439 701 
Q 1688 409 2113 409 
Q 2538 409 2786 701 
Q 3034 994 3034 1497 
Q 3034 2003 2786 2293 
Q 2538 2584 2113 2584 
z
M 3366 4563 
L 3366 3988 
Q 3128 4100 2886 4159 
Q 2644 4219 2406 4219 
Q 1781 4219 1451 3797 
Q 1122 3375 1075 2522 
Q 1259 2794 1537 2939 
Q 1816 3084 2150 3084 
Q 2853 3084 3261 2657 
Q 3669 2231 3669 1497 
Q 3669 778 3244 343 
Q 2819 -91 2113 -91 
Q 1303 -91 875 529 
Q 447 1150 447 2328 
Q 447 3434 972 4092 
Q 1497 4750 2381 4750 
Q 2619 4750 2861 4703 
Q 3103 4656 3366 4563 
z
" transform="scale(0.015625)"/>
       </defs>
       <use xlink:href="#DejaVuSans-36"/>
       <use xlink:href="#DejaVuSans-30" x="63.623047"/>
      </g>
     </g>
    </g>
    <g id="xtick_5">
     <g id="line2d_5">
      <g>
       <use xlink:href="#m94725bb35a" x="940.292389" y="490.552" style="stroke: #000000; stroke-width: 0.8"/>
      </g>
     </g>
     <g id="text_5">
      <!-- 80 -->
      <g transform="translate(927.567389 512.748875) scale(0.2 -0.2)">
       <defs>
        <path id="DejaVuSans-38" d="M 2034 2216 
Q 1584 2216 1326 1975 
Q 1069 1734 1069 1313 
Q 1069 891 1326 650 
Q 1584 409 2034 409 
Q 2484 409 2743 651 
Q 3003 894 3003 1313 
Q 3003 1734 2745 1975 
Q 2488 2216 2034 2216 
z
M 1403 2484 
Q 997 2584 770 2862 
Q 544 3141 544 3541 
Q 544 4100 942 4425 
Q 1341 4750 2034 4750 
Q 2731 4750 3128 4425 
Q 3525 4100 3525 3541 
Q 3525 3141 3298 2862 
Q 3072 2584 2669 2484 
Q 3125 2378 3379 2068 
Q 3634 1759 3634 1313 
Q 3634 634 3220 271 
Q 2806 -91 2034 -91 
Q 1263 -91 848 271 
Q 434 634 434 1313 
Q 434 1759 690 2068 
Q 947 2378 1403 2484 
z
M 1172 3481 
Q 1172 3119 1398 2916 
Q 1625 2713 2034 2713 
Q 2441 2713 2670 2916 
Q 2900 3119 2900 3481 
Q 2900 3844 2670 4047 
Q 2441 4250 2034 4250 
Q 1625 4250 1398 4047 
Q 1172 3844 1172 3481 
z
" transform="scale(0.015625)"/>
       </defs>
       <use xlink:href="#DejaVuSans-38"/>
       <use xlink:href="#DejaVuSans-30" x="63.623047"/>
      </g>
     </g>
    </g>
    <g id="text_6">
     <!-- Percentile Threshold -->
     <g transform="translate(512.165312 536.105125) scale(0.2 -0.2)">
      <defs>
       <path id="DejaVuSans-50" d="M 1259 4147 
L 1259 2394 
L 2053 2394 
Q 2494 2394 2734 2622 
Q 2975 2850 2975 3272 
Q 2975 3691 2734 3919 
Q 2494 4147 2053 4147 
L 1259 4147 
z
M 628 4666 
L 2053 4666 
Q 2838 4666 3239 4311 
Q 3641 3956 3641 3272 
Q 3641 2581 3239 2228 
Q 2838 1875 2053 1875 
L 1259 1875 
L 1259 0 
L 628 0 
L 628 4666 
z
" transform="scale(0.015625)"/>
       <path id="DejaVuSans-65" d="M 3597 1894 
L 3597 1613 
L 953 1613 
Q 991 1019 1311 708 
Q 1631 397 2203 397 
Q 2534 397 2845 478 
Q 3156 559 3463 722 
L 3463 178 
Q 3153 47 2828 -22 
Q 2503 -91 2169 -91 
Q 1331 -91 842 396 
Q 353 884 353 1716 
Q 353 2575 817 3079 
Q 1281 3584 2069 3584 
Q 2775 3584 3186 3129 
Q 3597 2675 3597 1894 
z
M 3022 2063 
Q 3016 2534 2758 2815 
Q 2500 3097 2075 3097 
Q 1594 3097 1305 2825 
Q 1016 2553 972 2059 
L 3022 2063 
z
" transform="scale(0.015625)"/>
       <path id="DejaVuSans-72" d="M 2631 2963 
Q 2534 3019 2420 3045 
Q 2306 3072 2169 3072 
Q 1681 3072 1420 2755 
Q 1159 2438 1159 1844 
L 1159 0 
L 581 0 
L 581 3500 
L 1159 3500 
L 1159 2956 
Q 1341 3275 1631 3429 
Q 1922 3584 2338 3584 
Q 2397 3584 2469 3576 
Q 2541 3569 2628 3553 
L 2631 2963 
z
" transform="scale(0.015625)"/>
       <path id="DejaVuSans-63" d="M 3122 3366 
L 3122 2828 
Q 2878 2963 2633 3030 
Q 2388 3097 2138 3097 
Q 1578 3097 1268 2742 
Q 959 2388 959 1747 
Q 959 1106 1268 751 
Q 1578 397 2138 397 
Q 2388 397 2633 464 
Q 2878 531 3122 666 
L 3122 134 
Q 2881 22 2623 -34 
Q 2366 -91 2075 -91 
Q 1284 -91 818 406 
Q 353 903 353 1747 
Q 353 2603 823 3093 
Q 1294 3584 2113 3584 
Q 2378 3584 2631 3529 
Q 2884 3475 3122 3366 
z
" transform="scale(0.015625)"/>
       <path id="DejaVuSans-6e" d="M 3513 2113 
L 3513 0 
L 2938 0 
L 2938 2094 
Q 2938 2591 2744 2837 
Q 2550 3084 2163 3084 
Q 1697 3084 1428 2787 
Q 1159 2491 1159 1978 
L 1159 0 
L 581 0 
L 581 3500 
L 1159 3500 
L 1159 2956 
Q 1366 3272 1645 3428 
Q 1925 3584 2291 3584 
Q 2894 3584 3203 3211 
Q 3513 2838 3513 2113 
z
" transform="scale(0.015625)"/>
       <path id="DejaVuSans-74" d="M 1172 4494 
L 1172 3500 
L 2356 3500 
L 2356 3053 
L 1172 3053 
L 1172 1153 
Q 1172 725 1289 603 
Q 1406 481 1766 481 
L 2356 481 
L 2356 0 
L 1766 0 
Q 1100 0 847 248 
Q 594 497 594 1153 
L 594 3053 
L 172 3053 
L 172 3500 
L 594 3500 
L 594 4494 
L 1172 4494 
z
" transform="scale(0.015625)"/>
       <path id="DejaVuSans-69" d="M 603 3500 
L 1178 3500 
L 1178 0 
L 603 0 
L 603 3500 
z
M 603 4863 
L 1178 4863 
L 1178 4134 
L 603 4134 
L 603 4863 
z
" transform="scale(0.015625)"/>
       <path id="DejaVuSans-6c" d="M 603 4863 
L 1178 4863 
L 1178 0 
L 603 0 
L 603 4863 
z
" transform="scale(0.015625)"/>
       <path id="DejaVuSans-20" transform="scale(0.015625)"/>
       <path id="DejaVuSans-54" d="M -19 4666 
L 3928 4666 
L 3928 4134 
L 2272 4134 
L 2272 0 
L 1638 0 
L 1638 4134 
L -19 4134 
L -19 4666 
z
" transform="scale(0.015625)"/>
       <path id="DejaVuSans-68" d="M 3513 2113 
L 3513 0 
L 2938 0 
L 2938 2094 
Q 2938 2591 2744 2837 
Q 2550 3084 2163 3084 
Q 1697 3084 1428 2787 
Q 1159 2491 1159 1978 
L 1159 0 
L 581 0 
L 581 4863 
L 1159 4863 
L 1159 2956 
Q 1366 3272 1645 3428 
Q 1925 3584 2291 3584 
Q 2894 3584 3203 3211 
Q 3513 2838 3513 2113 
z
" transform="scale(0.015625)"/>
       <path id="DejaVuSans-73" d="M 2834 3397 
L 2834 2853 
Q 2591 2978 2328 3040 
Q 2066 3103 1784 3103 
Q 1356 3103 1142 2972 
Q 928 2841 928 2578 
Q 928 2378 1081 2264 
Q 1234 2150 1697 2047 
L 1894 2003 
Q 2506 1872 2764 1633 
Q 3022 1394 3022 966 
Q 3022 478 2636 193 
Q 2250 -91 1575 -91 
Q 1294 -91 989 -36 
Q 684 19 347 128 
L 347 722 
Q 666 556 975 473 
Q 1284 391 1588 391 
Q 1994 391 2212 530 
Q 2431 669 2431 922 
Q 2431 1156 2273 1281 
Q 2116 1406 1581 1522 
L 1381 1569 
Q 847 1681 609 1914 
Q 372 2147 372 2553 
Q 372 3047 722 3315 
Q 1072 3584 1716 3584 
Q 2034 3584 2315 3537 
Q 2597 3491 2834 3397 
z
" transform="scale(0.015625)"/>
       <path id="DejaVuSans-6f" d="M 1959 3097 
Q 1497 3097 1228 2736 
Q 959 2375 959 1747 
Q 959 1119 1226 758 
Q 1494 397 1959 397 
Q 2419 397 2687 759 
Q 2956 1122 2956 1747 
Q 2956 2369 2687 2733 
Q 2419 3097 1959 3097 
z
M 1959 3584 
Q 2709 3584 3137 3096 
Q 3566 2609 3566 1747 
Q 3566 888 3137 398 
Q 2709 -91 1959 -91 
Q 1206 -91 779 398 
Q 353 888 353 1747 
Q 353 2609 779 3096 
Q 1206 3584 1959 3584 
z
" transform="scale(0.015625)"/>
       <path id="DejaVuSans-64" d="M 2906 2969 
L 2906 4863 
L 3481 4863 
L 3481 0 
L 2906 0 
L 2906 525 
Q 2725 213 2448 61 
Q 2172 -91 1784 -91 
Q 1150 -91 751 415 
Q 353 922 353 1747 
Q 353 2572 751 3078 
Q 1150 3584 1784 3584 
Q 2172 3584 2448 3432 
Q 2725 3281 2906 2969 
z
M 947 1747 
Q 947 1113 1208 752 
Q 1469 391 1925 391 
Q 2381 391 2643 752 
Q 2906 1113 2906 1747 
Q 2906 2381 2643 2742 
Q 2381 3103 1925 3103 
Q 1469 3103 1208 2742 
Q 947 2381 947 1747 
z
" transform="scale(0.015625)"/>
      </defs>
      <use xlink:href="#DejaVuSans-50"/>
      <use xlink:href="#DejaVuSans-65" x="56.677734"/>
      <use xlink:href="#DejaVuSans-72" x="118.201172"/>
      <use xlink:href="#DejaVuSans-63" x="157.064453"/>
      <use xlink:href="#DejaVuSans-65" x="212.044922"/>
      <use xlink:href="#DejaVuSans-6e" x="273.568359"/>
      <use xlink:href="#DejaVuSans-74" x="336.947266"/>
      <use xlink:href="#DejaVuSans-69" x="376.15625"/>
      <use xlink:href="#DejaVuSans-6c" x="403.939453"/>
      <use xlink:href="#DejaVuSans-65" x="431.722656"/>
      <use xlink:href="#DejaVuSans-20" x="493.246094"/>
      <use xlink:href="#DejaVuSans-54" x="525.033203"/>
      <use xlink:href="#DejaVuSans-68" x="586.117188"/>
      <use xlink:href="#DejaVuSans-72" x="649.496094"/>
      <use xlink:href="#DejaVuSans-65" x="688.359375"/>
      <use xlink:href="#DejaVuSans-73" x="749.882812"/>
      <use xlink:href="#DejaVuSans-68" x="801.982422"/>
      <use xlink:href="#DejaVuSans-6f" x="865.361328"/>
      <use xlink:href="#DejaVuSans-6c" x="926.542969"/>
      <use xlink:href="#DejaVuSans-64" x="954.326172"/>
     </g>
     <!-- (Using "merge" Threshold Handling) -->
     <g transform="translate(433.230937 558.50075) scale(0.2 -0.2)">
      <defs>
       <path id="DejaVuSans-28" d="M 1984 4856 
Q 1566 4138 1362 3434 
Q 1159 2731 1159 2009 
Q 1159 1288 1364 580 
Q 1569 -128 1984 -844 
L 1484 -844 
Q 1016 -109 783 600 
Q 550 1309 550 2009 
Q 550 2706 781 3412 
Q 1013 4119 1484 4856 
L 1984 4856 
z
" transform="scale(0.015625)"/>
       <path id="DejaVuSans-55" d="M 556 4666 
L 1191 4666 
L 1191 1831 
Q 1191 1081 1462 751 
Q 1734 422 2344 422 
Q 2950 422 3222 751 
Q 3494 1081 3494 1831 
L 3494 4666 
L 4128 4666 
L 4128 1753 
Q 4128 841 3676 375 
Q 3225 -91 2344 -91 
Q 1459 -91 1007 375 
Q 556 841 556 1753 
L 556 4666 
z
" transform="scale(0.015625)"/>
       <path id="DejaVuSans-67" d="M 2906 1791 
Q 2906 2416 2648 2759 
Q 2391 3103 1925 3103 
Q 1463 3103 1205 2759 
Q 947 2416 947 1791 
Q 947 1169 1205 825 
Q 1463 481 1925 481 
Q 2391 481 2648 825 
Q 2906 1169 2906 1791 
z
M 3481 434 
Q 3481 -459 3084 -895 
Q 2688 -1331 1869 -1331 
Q 1566 -1331 1297 -1286 
Q 1028 -1241 775 -1147 
L 775 -588 
Q 1028 -725 1275 -790 
Q 1522 -856 1778 -856 
Q 2344 -856 2625 -561 
Q 2906 -266 2906 331 
L 2906 616 
Q 2728 306 2450 153 
Q 2172 0 1784 0 
Q 1141 0 747 490 
Q 353 981 353 1791 
Q 353 2603 747 3093 
Q 1141 3584 1784 3584 
Q 2172 3584 2450 3431 
Q 2728 3278 2906 2969 
L 2906 3500 
L 3481 3500 
L 3481 434 
z
" transform="scale(0.015625)"/>
       <path id="DejaVuSans-22" d="M 1147 4666 
L 1147 2931 
L 616 2931 
L 616 4666 
L 1147 4666 
z
M 2328 4666 
L 2328 2931 
L 1797 2931 
L 1797 4666 
L 2328 4666 
z
" transform="scale(0.015625)"/>
       <path id="DejaVuSans-6d" d="M 3328 2828 
Q 3544 3216 3844 3400 
Q 4144 3584 4550 3584 
Q 5097 3584 5394 3201 
Q 5691 2819 5691 2113 
L 5691 0 
L 5113 0 
L 5113 2094 
Q 5113 2597 4934 2840 
Q 4756 3084 4391 3084 
Q 3944 3084 3684 2787 
Q 3425 2491 3425 1978 
L 3425 0 
L 2847 0 
L 2847 2094 
Q 2847 2600 2669 2842 
Q 2491 3084 2119 3084 
Q 1678 3084 1418 2786 
Q 1159 2488 1159 1978 
L 1159 0 
L 581 0 
L 581 3500 
L 1159 3500 
L 1159 2956 
Q 1356 3278 1631 3431 
Q 1906 3584 2284 3584 
Q 2666 3584 2933 3390 
Q 3200 3197 3328 2828 
z
" transform="scale(0.015625)"/>
       <path id="DejaVuSans-48" d="M 628 4666 
L 1259 4666 
L 1259 2753 
L 3553 2753 
L 3553 4666 
L 4184 4666 
L 4184 0 
L 3553 0 
L 3553 2222 
L 1259 2222 
L 1259 0 
L 628 0 
L 628 4666 
z
" transform="scale(0.015625)"/>
       <path id="DejaVuSans-61" d="M 2194 1759 
Q 1497 1759 1228 1600 
Q 959 1441 959 1056 
Q 959 750 1161 570 
Q 1363 391 1709 391 
Q 2188 391 2477 730 
Q 2766 1069 2766 1631 
L 2766 1759 
L 2194 1759 
z
M 3341 1997 
L 3341 0 
L 2766 0 
L 2766 531 
Q 2569 213 2275 61 
Q 1981 -91 1556 -91 
Q 1019 -91 701 211 
Q 384 513 384 1019 
Q 384 1609 779 1909 
Q 1175 2209 1959 2209 
L 2766 2209 
L 2766 2266 
Q 2766 2663 2505 2880 
Q 2244 3097 1772 3097 
Q 1472 3097 1187 3025 
Q 903 2953 641 2809 
L 641 3341 
Q 956 3463 1253 3523 
Q 1550 3584 1831 3584 
Q 2591 3584 2966 3190 
Q 3341 2797 3341 1997 
z
" transform="scale(0.015625)"/>
       <path id="DejaVuSans-29" d="M 513 4856 
L 1013 4856 
Q 1481 4119 1714 3412 
Q 1947 2706 1947 2009 
Q 1947 1309 1714 600 
Q 1481 -109 1013 -844 
L 513 -844 
Q 928 -128 1133 580 
Q 1338 1288 1338 2009 
Q 1338 2731 1133 3434 
Q 928 4138 513 4856 
z
" transform="scale(0.015625)"/>
      </defs>
      <use xlink:href="#DejaVuSans-28"/>
      <use xlink:href="#DejaVuSans-55" x="39.013672"/>
      <use xlink:href="#DejaVuSans-73" x="112.207031"/>
      <use xlink:href="#DejaVuSans-69" x="164.306641"/>
      <use xlink:href="#DejaVuSans-6e" x="192.089844"/>
      <use xlink:href="#DejaVuSans-67" x="255.46875"/>
      <use xlink:href="#DejaVuSans-20" x="318.945312"/>
      <use xlink:href="#DejaVuSans-22" x="350.732422"/>
      <use xlink:href="#DejaVuSans-6d" x="396.728516"/>
      <use xlink:href="#DejaVuSans-65" x="494.140625"/>
      <use xlink:href="#DejaVuSans-72" x="555.664062"/>
      <use xlink:href="#DejaVuSans-67" x="595.027344"/>
      <use xlink:href="#DejaVuSans-65" x="658.503906"/>
      <use xlink:href="#DejaVuSans-22" x="720.027344"/>
      <use xlink:href="#DejaVuSans-20" x="766.023438"/>
      <use xlink:href="#DejaVuSans-54" x="797.810547"/>
      <use xlink:href="#DejaVuSans-68" x="858.894531"/>
      <use xlink:href="#DejaVuSans-72" x="922.273438"/>
      <use xlink:href="#DejaVuSans-65" x="961.136719"/>
      <use xlink:href="#DejaVuSans-73" x="1022.660156"/>
      <use xlink:href="#DejaVuSans-68" x="1074.759766"/>
      <use xlink:href="#DejaVuSans-6f" x="1138.138672"/>
      <use xlink:href="#DejaVuSans-6c" x="1199.320312"/>
      <use xlink:href="#DejaVuSans-64" x="1227.103516"/>
      <use xlink:href="#DejaVuSans-20" x="1290.580078"/>
      <use xlink:href="#DejaVuSans-48" x="1322.367188"/>
      <use xlink:href="#DejaVuSans-61" x="1397.5625"/>
      <use xlink:href="#DejaVuSans-6e" x="1458.841797"/>
      <use xlink:href="#DejaVuSans-64" x="1522.220703"/>
      <use xlink:href="#DejaVuSans-6c" x="1585.697266"/>
      <use xlink:href="#DejaVuSans-69" x="1613.480469"/>
      <use xlink:href="#DejaVuSans-6e" x="1641.263672"/>
      <use xlink:href="#DejaVuSans-67" x="1704.642578"/>
      <use xlink:href="#DejaVuSans-29" x="1768.119141"/>
     </g>
    </g>
   </g>
   <g id="matplotlib.axis_2">
    <g id="ytick_1">
     <g id="line2d_6">
      <defs>
       <path id="m259e33b5b6" d="M 0 0 
L -3.5 0 
" style="stroke: #000000; stroke-width: 0.8"/>
      </defs>
      <g>
       <use xlink:href="#m259e33b5b6" x="86.69" y="463.850864" style="stroke: #000000; stroke-width: 0.8"/>
      </g>
     </g>
     <g id="text_7">
      <!-- 0.02 -->
      <g transform="translate(35.15875 471.449301) scale(0.2 -0.2)">
       <defs>
        <path id="DejaVuSans-2e" d="M 684 794 
L 1344 794 
L 1344 0 
L 684 0 
L 684 794 
z
" transform="scale(0.015625)"/>
       </defs>
       <use xlink:href="#DejaVuSans-30"/>
       <use xlink:href="#DejaVuSans-2e" x="63.623047"/>
       <use xlink:href="#DejaVuSans-30" x="95.410156"/>
       <use xlink:href="#DejaVuSans-32" x="159.033203"/>
      </g>
     </g>
    </g>
    <g id="ytick_2">
     <g id="line2d_7">
      <g>
       <use xlink:href="#m259e33b5b6" x="86.69" y="410.141004" style="stroke: #000000; stroke-width: 0.8"/>
      </g>
     </g>
     <g id="text_8">
      <!-- 0.03 -->
      <g transform="translate(35.15875 417.739442) scale(0.2 -0.2)">
       <defs>
        <path id="DejaVuSans-33" d="M 2597 2516 
Q 3050 2419 3304 2112 
Q 3559 1806 3559 1356 
Q 3559 666 3084 287 
Q 2609 -91 1734 -91 
Q 1441 -91 1130 -33 
Q 819 25 488 141 
L 488 750 
Q 750 597 1062 519 
Q 1375 441 1716 441 
Q 2309 441 2620 675 
Q 2931 909 2931 1356 
Q 2931 1769 2642 2001 
Q 2353 2234 1838 2234 
L 1294 2234 
L 1294 2753 
L 1863 2753 
Q 2328 2753 2575 2939 
Q 2822 3125 2822 3475 
Q 2822 3834 2567 4026 
Q 2313 4219 1838 4219 
Q 1578 4219 1281 4162 
Q 984 4106 628 3988 
L 628 4550 
Q 988 4650 1302 4700 
Q 1616 4750 1894 4750 
Q 2613 4750 3031 4423 
Q 3450 4097 3450 3541 
Q 3450 3153 3228 2886 
Q 3006 2619 2597 2516 
z
" transform="scale(0.015625)"/>
       </defs>
       <use xlink:href="#DejaVuSans-30"/>
       <use xlink:href="#DejaVuSans-2e" x="63.623047"/>
       <use xlink:href="#DejaVuSans-30" x="95.410156"/>
       <use xlink:href="#DejaVuSans-33" x="159.033203"/>
      </g>
     </g>
    </g>
    <g id="ytick_3">
     <g id="line2d_8">
      <g>
       <use xlink:href="#m259e33b5b6" x="86.69" y="356.431144" style="stroke: #000000; stroke-width: 0.8"/>
      </g>
     </g>
     <g id="text_9">
      <!-- 0.04 -->
      <g transform="translate(35.15875 364.029582) scale(0.2 -0.2)">
       <use xlink:href="#DejaVuSans-30"/>
       <use xlink:href="#DejaVuSans-2e" x="63.623047"/>
       <use xlink:href="#DejaVuSans-30" x="95.410156"/>
       <use xlink:href="#DejaVuSans-34" x="159.033203"/>
      </g>
     </g>
    </g>
    <g id="ytick_4">
     <g id="line2d_9">
      <g>
       <use xlink:href="#m259e33b5b6" x="86.69" y="302.721285" style="stroke: #000000; stroke-width: 0.8"/>
      </g>
     </g>
     <g id="text_10">
      <!-- 0.05 -->
      <g transform="translate(35.15875 310.319722) scale(0.2 -0.2)">
       <defs>
        <path id="DejaVuSans-35" d="M 691 4666 
L 3169 4666 
L 3169 4134 
L 1269 4134 
L 1269 2991 
Q 1406 3038 1543 3061 
Q 1681 3084 1819 3084 
Q 2600 3084 3056 2656 
Q 3513 2228 3513 1497 
Q 3513 744 3044 326 
Q 2575 -91 1722 -91 
Q 1428 -91 1123 -41 
Q 819 9 494 109 
L 494 744 
Q 775 591 1075 516 
Q 1375 441 1709 441 
Q 2250 441 2565 725 
Q 2881 1009 2881 1497 
Q 2881 1984 2565 2268 
Q 2250 2553 1709 2553 
Q 1456 2553 1204 2497 
Q 953 2441 691 2322 
L 691 4666 
z
" transform="scale(0.015625)"/>
       </defs>
       <use xlink:href="#DejaVuSans-30"/>
       <use xlink:href="#DejaVuSans-2e" x="63.623047"/>
       <use xlink:href="#DejaVuSans-30" x="95.410156"/>
       <use xlink:href="#DejaVuSans-35" x="159.033203"/>
      </g>
     </g>
    </g>
    <g id="ytick_5">
     <g id="line2d_10">
      <g>
       <use xlink:href="#m259e33b5b6" x="86.69" y="249.011425" style="stroke: #000000; stroke-width: 0.8"/>
      </g>
     </g>
     <g id="text_11">
      <!-- 0.06 -->
      <g transform="translate(35.15875 256.609862) scale(0.2 -0.2)">
       <use xlink:href="#DejaVuSans-30"/>
       <use xlink:href="#DejaVuSans-2e" x="63.623047"/>
       <use xlink:href="#DejaVuSans-30" x="95.410156"/>
       <use xlink:href="#DejaVuSans-36" x="159.033203"/>
      </g>
     </g>
    </g>
    <g id="ytick_6">
     <g id="line2d_11">
      <g>
       <use xlink:href="#m259e33b5b6" x="86.69" y="195.301565" style="stroke: #000000; stroke-width: 0.8"/>
      </g>
     </g>
     <g id="text_12">
      <!-- 0.07 -->
      <g transform="translate(35.15875 202.900003) scale(0.2 -0.2)">
       <defs>
        <path id="DejaVuSans-37" d="M 525 4666 
L 3525 4666 
L 3525 4397 
L 1831 0 
L 1172 0 
L 2766 4134 
L 525 4134 
L 525 4666 
z
" transform="scale(0.015625)"/>
       </defs>
       <use xlink:href="#DejaVuSans-30"/>
       <use xlink:href="#DejaVuSans-2e" x="63.623047"/>
       <use xlink:href="#DejaVuSans-30" x="95.410156"/>
       <use xlink:href="#DejaVuSans-37" x="159.033203"/>
      </g>
     </g>
    </g>
    <g id="ytick_7">
     <g id="line2d_12">
      <g>
       <use xlink:href="#m259e33b5b6" x="86.69" y="141.591705" style="stroke: #000000; stroke-width: 0.8"/>
      </g>
     </g>
     <g id="text_13">
      <!-- 0.08 -->
      <g transform="translate(35.15875 149.190143) scale(0.2 -0.2)">
       <use xlink:href="#DejaVuSans-30"/>
       <use xlink:href="#DejaVuSans-2e" x="63.623047"/>
       <use xlink:href="#DejaVuSans-30" x="95.410156"/>
       <use xlink:href="#DejaVuSans-38" x="159.033203"/>
      </g>
     </g>
    </g>
    <g id="ytick_8">
     <g id="line2d_13">
      <g>
       <use xlink:href="#m259e33b5b6" x="86.69" y="87.881846" style="stroke: #000000; stroke-width: 0.8"/>
      </g>
     </g>
     <g id="text_14">
      <!-- 0.09 -->
      <g transform="translate(35.15875 95.480283) scale(0.2 -0.2)">
       <defs>
        <path id="DejaVuSans-39" d="M 703 97 
L 703 672 
Q 941 559 1184 500 
Q 1428 441 1663 441 
Q 2288 441 2617 861 
Q 2947 1281 2994 2138 
Q 2813 1869 2534 1725 
Q 2256 1581 1919 1581 
Q 1219 1581 811 2004 
Q 403 2428 403 3163 
Q 403 3881 828 4315 
Q 1253 4750 1959 4750 
Q 2769 4750 3195 4129 
Q 3622 3509 3622 2328 
Q 3622 1225 3098 567 
Q 2575 -91 1691 -91 
Q 1453 -91 1209 -44 
Q 966 3 703 97 
z
M 1959 2075 
Q 2384 2075 2632 2365 
Q 2881 2656 2881 3163 
Q 2881 3666 2632 3958 
Q 2384 4250 1959 4250 
Q 1534 4250 1286 3958 
Q 1038 3666 1038 3163 
Q 1038 2656 1286 2365 
Q 1534 2075 1959 2075 
z
" transform="scale(0.015625)"/>
       </defs>
       <use xlink:href="#DejaVuSans-30"/>
       <use xlink:href="#DejaVuSans-2e" x="63.623047"/>
       <use xlink:href="#DejaVuSans-30" x="95.410156"/>
       <use xlink:href="#DejaVuSans-39" x="159.033203"/>
      </g>
     </g>
    </g>
    <g id="ytick_9">
     <g id="line2d_14">
      <g>
       <use xlink:href="#m259e33b5b6" x="86.69" y="34.171986" style="stroke: #000000; stroke-width: 0.8"/>
      </g>
     </g>
     <g id="text_15">
      <!-- 0.10 -->
      <g transform="translate(35.15875 41.770423) scale(0.2 -0.2)">
       <defs>
        <path id="DejaVuSans-31" d="M 794 531 
L 1825 531 
L 1825 4091 
L 703 3866 
L 703 4441 
L 1819 4666 
L 2450 4666 
L 2450 531 
L 3481 531 
L 3481 0 
L 794 0 
L 794 531 
z
" transform="scale(0.015625)"/>
       </defs>
       <use xlink:href="#DejaVuSans-30"/>
       <use xlink:href="#DejaVuSans-2e" x="63.623047"/>
       <use xlink:href="#DejaVuSans-31" x="95.410156"/>
       <use xlink:href="#DejaVuSans-30" x="159.033203"/>
      </g>
     </g>
    </g>
    <g id="text_16">
     <!-- MAPE -->
     <g transform="translate(26.999375 278.493188) rotate(-90) scale(0.2 -0.2)">
      <defs>
       <path id="DejaVuSans-4d" d="M 628 4666 
L 1569 4666 
L 2759 1491 
L 3956 4666 
L 4897 4666 
L 4897 0 
L 4281 0 
L 4281 4097 
L 3078 897 
L 2444 897 
L 1241 4097 
L 1241 0 
L 628 0 
L 628 4666 
z
" transform="scale(0.015625)"/>
       <path id="DejaVuSans-41" d="M 2188 4044 
L 1331 1722 
L 3047 1722 
L 2188 4044 
z
M 1831 4666 
L 2547 4666 
L 4325 0 
L 3669 0 
L 3244 1197 
L 1141 1197 
L 716 0 
L 50 0 
L 1831 4666 
z
" transform="scale(0.015625)"/>
       <path id="DejaVuSans-45" d="M 628 4666 
L 3578 4666 
L 3578 4134 
L 1259 4134 
L 1259 2753 
L 3481 2753 
L 3481 2222 
L 1259 2222 
L 1259 531 
L 3634 531 
L 3634 0 
L 628 0 
L 628 4666 
z
" transform="scale(0.015625)"/>
      </defs>
      <use xlink:href="#DejaVuSans-4d"/>
      <use xlink:href="#DejaVuSans-41" x="86.279297"/>
      <use xlink:href="#DejaVuSans-50" x="154.6875"/>
      <use xlink:href="#DejaVuSans-45" x="214.990234"/>
     </g>
    </g>
   </g>
   <g id="line2d_15">
    <path d="M 134.622273 465.061166 
L 155.018985 463.224607 
L 175.415696 459.234781 
L 195.812408 456.024623 
L 216.20912 451.821175 
L 236.605832 450.24331 
L 257.002544 442.431696 
L 277.399255 438.17839 
L 297.795967 436.648234 
L 318.192679 437.243851 
L 338.589391 431.704205 
L 358.986103 427.57722 
L 379.382814 416.648408 
L 399.779526 411.297583 
L 420.176238 403.432962 
L 440.57295 397.274396 
L 460.969662 396.388115 
L 481.366373 393.681687 
L 501.763085 394.121245 
L 522.159797 377.480276 
L 542.556509 370.880431 
L 562.953221 364.740072 
L 583.349932 355.702185 
L 603.746644 360.729271 
L 624.143356 357.53026 
L 644.540068 349.574295 
L 664.936779 350.948008 
L 685.333491 341.841484 
L 705.730203 338.346839 
L 726.126915 314.993336 
L 746.523627 297.766626 
L 766.920338 307.052809 
L 787.31705 284.971268 
L 807.713762 286.487001 
L 828.110474 281.505294 
L 848.507186 280.907399 
L 868.903897 281.228495 
L 889.300609 276.171258 
L 909.697321 256.732353 
L 930.094033 206.890374 
L 950.490745 246.734008 
L 970.887456 231.64456 
L 991.284168 281.971341 
L 1011.68088 260.358813 
L 1032.077592 224.62073 
L 1052.474304 182.228925 
L 1072.871015 193.192954 
L 1093.267727 195.987018 
" clip-path="url(#p4dd87b5aa0)" style="fill: none; stroke: #1f77b4; stroke-width: 1.5; stroke-linecap: square"/>
   </g>
   <g id="line2d_16">
    <path d="M 134.622273 452.403603 
L 155.018985 452.139743 
L 175.415696 441.379149 
L 195.812408 441.253516 
L 216.20912 435.655848 
L 236.605832 433.051107 
L 257.002544 426.33161 
L 277.399255 422.969437 
L 297.795967 423.621783 
L 318.192679 424.293548 
L 338.589391 419.366266 
L 358.986103 413.243661 
L 379.382814 407.935986 
L 399.779526 397.90859 
L 420.176238 396.883419 
L 440.57295 396.855289 
L 460.969662 395.52948 
L 481.366373 390.702819 
L 501.763085 384.429097 
L 522.159797 363.913723 
L 542.556509 357.347078 
L 562.953221 364.216845 
L 583.349932 354.11671 
L 603.746644 363.557085 
L 624.143356 359.108511 
L 644.540068 357.820436 
L 664.936779 353.260004 
L 685.333491 354.894231 
L 705.730203 349.217846 
L 726.126915 319.265777 
L 746.523627 315.643766 
L 766.920338 313.984058 
L 787.31705 269.27306 
L 807.713762 276.516433 
L 828.110474 279.074738 
L 848.507186 274.464556 
L 868.903897 277.14348 
L 889.300609 245.960038 
L 909.697321 250.216907 
L 930.094033 154.516306 
L 950.490745 186.247874 
L 970.887456 167.626337 
L 991.284168 196.675571 
L 1011.68088 187.176563 
L 1032.077592 179.385805 
L 1052.474304 122.884605 
L 1072.871015 131.918749 
L 1093.267727 123.60446 
" clip-path="url(#p4dd87b5aa0)" style="fill: none; stroke: #ff7f0e; stroke-width: 1.5; stroke-linecap: square"/>
   </g>
   <g id="line2d_17">
    <path d="M 134.622273 459.933702 
L 155.018985 458.350794 
L 175.415696 452.749376 
L 195.812408 450.48524 
L 216.20912 443.838813 
L 236.605832 440.084429 
L 257.002544 435.839768 
L 277.399255 432.062406 
L 297.795967 429.733792 
L 318.192679 431.686496 
L 338.589391 423.021195 
L 358.986103 415.978624 
L 379.382814 407.062894 
L 399.779526 402.117905 
L 420.176238 400.911008 
L 440.57295 401.865482 
L 460.969662 400.064066 
L 481.366373 394.903994 
L 501.763085 393.480132 
L 522.159797 376.58745 
L 542.556509 373.473559 
L 562.953221 370.549329 
L 583.349932 362.036742 
L 603.746644 369.187951 
L 624.143356 364.817939 
L 644.540068 368.655536 
L 664.936779 361.536091 
L 685.333491 362.481418 
L 705.730203 351.486381 
L 726.126915 322.671441 
L 746.523627 313.166375 
L 766.920338 309.737286 
L 787.31705 278.448433 
L 807.713762 280.899431 
L 828.110474 282.229862 
L 848.507186 276.992651 
L 868.903897 275.52334 
L 889.300609 257.711323 
L 909.697321 248.425665 
L 930.094033 165.075127 
L 950.490745 208.296829 
L 970.887456 189.572645 
L 991.284168 230.525587 
L 1011.68088 207.680035 
L 1032.077592 187.230408 
L 1052.474304 133.805808 
L 1072.871015 135.320692 
L 1093.267727 132.588967 
" clip-path="url(#p4dd87b5aa0)" style="fill: none; stroke: #2ca02c; stroke-width: 1.5; stroke-linecap: square"/>
   </g>
   <g id="line2d_18">
    <path d="M 134.622273 459.801925 
L 155.018985 458.016636 
L 175.415696 454.343433 
L 195.812408 448.788704 
L 216.20912 445.519861 
L 236.605832 437.438259 
L 257.002544 435.547872 
L 277.399255 432.165728 
L 297.795967 428.377519 
L 318.192679 431.601249 
L 338.589391 424.984404 
L 358.986103 420.850909 
L 379.382814 410.237896 
L 399.779526 408.909603 
L 420.176238 399.729502 
L 440.57295 404.692188 
L 460.969662 401.278954 
L 481.366373 394.436556 
L 501.763085 384.218521 
L 522.159797 371.030965 
L 542.556509 368.512539 
L 562.953221 374.604376 
L 583.349932 362.451007 
L 603.746644 366.177022 
L 624.143356 362.469982 
L 644.540068 366.612106 
L 664.936779 362.158719 
L 685.333491 353.384416 
L 705.730203 347.404962 
L 726.126915 316.435348 
L 746.523627 312.356338 
L 766.920338 315.124742 
L 787.31705 279.103877 
L 807.713762 281.634405 
L 828.110474 276.580728 
L 848.507186 275.049695 
L 868.903897 277.908855 
L 889.300609 263.300656 
L 909.697321 245.342368 
L 930.094033 168.587229 
L 950.490745 206.831581 
L 970.887456 187.767354 
L 991.284168 230.125335 
L 1011.68088 229.052487 
L 1032.077592 208.19469 
L 1052.474304 162.260989 
L 1072.871015 165.232442 
L 1093.267727 160.10348 
" clip-path="url(#p4dd87b5aa0)" style="fill: none; stroke: #d62728; stroke-width: 1.5; stroke-linecap: square"/>
   </g>
   <g id="line2d_19"/>
   <g id="line2d_20"/>
   <g id="line2d_21"/>
   <g id="line2d_22"/>
   <g id="patch_3">
    <path d="M 86.69 490.552 
L 86.69 10.8 
" style="fill: none; stroke: #000000; stroke-width: 0.8; stroke-linejoin: miter; stroke-linecap: square"/>
   </g>
   <g id="patch_4">
    <path d="M 1141.2 490.552 
L 1141.2 10.8 
" style="fill: none; stroke: #000000; stroke-width: 0.8; stroke-linejoin: miter; stroke-linecap: square"/>
   </g>
   <g id="patch_5">
    <path d="M 86.69 490.552 
L 1141.2 490.552 
" style="fill: none; stroke: #000000; stroke-width: 0.8; stroke-linejoin: miter; stroke-linecap: square"/>
   </g>
   <g id="patch_6">
    <path d="M 86.69 10.8 
L 1141.2 10.8 
" style="fill: none; stroke: #000000; stroke-width: 0.8; stroke-linejoin: miter; stroke-linecap: square"/>
   </g>
   <g id="legend_1">
    <g id="patch_7">
     <path d="M 97.89 482.552 
L 267.635 482.552 
Q 270.835 482.552 270.835 479.352 
L 270.835 387.012 
Q 270.835 383.812 267.635 383.812 
L 97.89 383.812 
Q 94.69 383.812 94.69 387.012 
L 94.69 479.352 
Q 94.69 482.552 97.89 482.552 
z
" style="fill: #ffffff; opacity: 0.8; stroke: #cccccc; stroke-linejoin: miter"/>
    </g>
    <g id="line2d_23">
     <path d="M 101.09 396.7695 
L 117.09 396.7695 
L 133.09 396.7695 
" style="fill: none; stroke: #1f77b4; stroke-width: 1.5; stroke-linecap: square"/>
    </g>
    <g id="text_17">
     <!-- xgb -->
     <g transform="translate(145.89 402.3695) scale(0.16 -0.16)">
      <defs>
       <path id="DejaVuSans-78" d="M 3513 3500 
L 2247 1797 
L 3578 0 
L 2900 0 
L 1881 1375 
L 863 0 
L 184 0 
L 1544 1831 
L 300 3500 
L 978 3500 
L 1906 2253 
L 2834 3500 
L 3513 3500 
z
" transform="scale(0.015625)"/>
       <path id="DejaVuSans-62" d="M 3116 1747 
Q 3116 2381 2855 2742 
Q 2594 3103 2138 3103 
Q 1681 3103 1420 2742 
Q 1159 2381 1159 1747 
Q 1159 1113 1420 752 
Q 1681 391 2138 391 
Q 2594 391 2855 752 
Q 3116 1113 3116 1747 
z
M 1159 2969 
Q 1341 3281 1617 3432 
Q 1894 3584 2278 3584 
Q 2916 3584 3314 3078 
Q 3713 2572 3713 1747 
Q 3713 922 3314 415 
Q 2916 -91 2278 -91 
Q 1894 -91 1617 61 
Q 1341 213 1159 525 
L 1159 0 
L 581 0 
L 581 4863 
L 1159 4863 
L 1159 2969 
z
" transform="scale(0.015625)"/>
      </defs>
      <use xlink:href="#DejaVuSans-78"/>
      <use xlink:href="#DejaVuSans-67" x="59.179688"/>
      <use xlink:href="#DejaVuSans-62" x="122.65625"/>
     </g>
    </g>
    <g id="line2d_24">
     <path d="M 101.09 420.2545 
L 117.09 420.2545 
L 133.09 420.2545 
" style="fill: none; stroke: #ff7f0e; stroke-width: 1.5; stroke-linecap: square"/>
    </g>
    <g id="text_18">
     <!-- BayesianRidge -->
     <g transform="translate(145.89 425.8545) scale(0.16 -0.16)">
      <defs>
       <path id="DejaVuSans-42" d="M 1259 2228 
L 1259 519 
L 2272 519 
Q 2781 519 3026 730 
Q 3272 941 3272 1375 
Q 3272 1813 3026 2020 
Q 2781 2228 2272 2228 
L 1259 2228 
z
M 1259 4147 
L 1259 2741 
L 2194 2741 
Q 2656 2741 2882 2914 
Q 3109 3088 3109 3444 
Q 3109 3797 2882 3972 
Q 2656 4147 2194 4147 
L 1259 4147 
z
M 628 4666 
L 2241 4666 
Q 2963 4666 3353 4366 
Q 3744 4066 3744 3513 
Q 3744 3084 3544 2831 
Q 3344 2578 2956 2516 
Q 3422 2416 3680 2098 
Q 3938 1781 3938 1306 
Q 3938 681 3513 340 
Q 3088 0 2303 0 
L 628 0 
L 628 4666 
z
" transform="scale(0.015625)"/>
       <path id="DejaVuSans-79" d="M 2059 -325 
Q 1816 -950 1584 -1140 
Q 1353 -1331 966 -1331 
L 506 -1331 
L 506 -850 
L 844 -850 
Q 1081 -850 1212 -737 
Q 1344 -625 1503 -206 
L 1606 56 
L 191 3500 
L 800 3500 
L 1894 763 
L 2988 3500 
L 3597 3500 
L 2059 -325 
z
" transform="scale(0.015625)"/>
       <path id="DejaVuSans-52" d="M 2841 2188 
Q 3044 2119 3236 1894 
Q 3428 1669 3622 1275 
L 4263 0 
L 3584 0 
L 2988 1197 
Q 2756 1666 2539 1819 
Q 2322 1972 1947 1972 
L 1259 1972 
L 1259 0 
L 628 0 
L 628 4666 
L 2053 4666 
Q 2853 4666 3247 4331 
Q 3641 3997 3641 3322 
Q 3641 2881 3436 2590 
Q 3231 2300 2841 2188 
z
M 1259 4147 
L 1259 2491 
L 2053 2491 
Q 2509 2491 2742 2702 
Q 2975 2913 2975 3322 
Q 2975 3731 2742 3939 
Q 2509 4147 2053 4147 
L 1259 4147 
z
" transform="scale(0.015625)"/>
      </defs>
      <use xlink:href="#DejaVuSans-42"/>
      <use xlink:href="#DejaVuSans-61" x="68.603516"/>
      <use xlink:href="#DejaVuSans-79" x="129.882812"/>
      <use xlink:href="#DejaVuSans-65" x="189.0625"/>
      <use xlink:href="#DejaVuSans-73" x="250.585938"/>
      <use xlink:href="#DejaVuSans-69" x="302.685547"/>
      <use xlink:href="#DejaVuSans-61" x="330.46875"/>
      <use xlink:href="#DejaVuSans-6e" x="391.748047"/>
      <use xlink:href="#DejaVuSans-52" x="455.126953"/>
      <use xlink:href="#DejaVuSans-69" x="524.609375"/>
      <use xlink:href="#DejaVuSans-64" x="552.392578"/>
      <use xlink:href="#DejaVuSans-67" x="615.869141"/>
      <use xlink:href="#DejaVuSans-65" x="679.345703"/>
     </g>
    </g>
    <g id="line2d_25">
     <path d="M 101.09 443.7395 
L 117.09 443.7395 
L 133.09 443.7395 
" style="fill: none; stroke: #2ca02c; stroke-width: 1.5; stroke-linecap: square"/>
    </g>
    <g id="text_19">
     <!-- rf -->
     <g transform="translate(145.89 449.3395) scale(0.16 -0.16)">
      <defs>
       <path id="DejaVuSans-66" d="M 2375 4863 
L 2375 4384 
L 1825 4384 
Q 1516 4384 1395 4259 
Q 1275 4134 1275 3809 
L 1275 3500 
L 2222 3500 
L 2222 3053 
L 1275 3053 
L 1275 0 
L 697 0 
L 697 3053 
L 147 3053 
L 147 3500 
L 697 3500 
L 697 3744 
Q 697 4328 969 4595 
Q 1241 4863 1831 4863 
L 2375 4863 
z
" transform="scale(0.015625)"/>
      </defs>
      <use xlink:href="#DejaVuSans-72"/>
      <use xlink:href="#DejaVuSans-66" x="41.113281"/>
     </g>
    </g>
    <g id="line2d_26">
     <path d="M 101.09 467.2245 
L 117.09 467.2245 
L 133.09 467.2245 
" style="fill: none; stroke: #d62728; stroke-width: 1.5; stroke-linecap: square"/>
    </g>
    <g id="text_20">
     <!-- gbr -->
     <g transform="translate(145.89 472.8245) scale(0.16 -0.16)">
      <use xlink:href="#DejaVuSans-67"/>
      <use xlink:href="#DejaVuSans-62" x="63.476562"/>
      <use xlink:href="#DejaVuSans-72" x="126.953125"/>
     </g>
    </g>
   </g>
  </g>
 </g>
 <defs>
  <clipPath id="p4dd87b5aa0">
   <rect x="86.69" y="10.8" width="1054.51" height="479.752"/>
  </clipPath>
 </defs>
</svg>
