<?xml version="1.0" encoding="utf-8" standalone="no"?>
<!DOCTYPE svg PUBLIC "-//W3C//DTD SVG 1.1//EN"
  "http://www.w3.org/Graphics/SVG/1.1/DTD/svg11.dtd">
<svg xmlns:xlink="http://www.w3.org/1999/xlink" width="1152pt" height="576pt" viewBox="0 0 1152 576" xmlns="http://www.w3.org/2000/svg" version="1.1">
 <metadata>
  <rdf:RDF xmlns:dc="http://purl.org/dc/elements/1.1/" xmlns:cc="http://creativecommons.org/ns#" xmlns:rdf="http://www.w3.org/1999/02/22-rdf-syntax-ns#">
   <cc:Work>
    <dc:type rdf:resource="http://purl.org/dc/dcmitype/StillImage"/>
    <dc:date>2025-04-21T10:20:19.495080</dc:date>
    <dc:format>image/svg+xml</dc:format>
    <dc:creator>
     <cc:Agent>
      <dc:title>Matplotlib v3.7.1, https://matplotlib.org/</dc:title>
     </cc:Agent>
    </dc:creator>
   </cc:Work>
  </rdf:RDF>
 </metadata>
 <defs>
  <style type="text/css">*{stroke-linejoin: round; stroke-linecap: butt}</style>
 </defs>
 <g id="figure_1">
  <g id="patch_1">
   <path d="M 0 576 
L 1152 576 
L 1152 0 
L 0 0 
z
" style="fill: #ffffff"/>
  </g>
  <g id="axes_1">
   <g id="patch_2">
    <path d="M 67.34 490.552 
L 1141.2 490.552 
L 1141.2 10.8 
L 67.34 10.8 
z
" style="fill: #ffffff"/>
   </g>
   <g id="PolyCollection_1">
    <defs>
     <path id="mf1b1c945d9" d="M 116.151818 -122.30632 
L 116.151818 -107.254909 
L 156.828333 -112.18957 
L 197.504848 -114.727095 
L 238.181364 -116.378644 
L 278.857879 -120.410702 
L 319.534394 -127.935824 
L 360.210909 -137.953146 
L 400.887424 -145.405506 
L 441.563939 -148.499724 
L 482.240455 -152.786607 
L 522.91697 -157.632467 
L 563.593485 -169.861865 
L 604.27 -185.565871 
L 644.946515 -190.201797 
L 685.62303 -198.51453 
L 726.299545 -196.97843 
L 766.976061 -209.934212 
L 807.652576 -217.442092 
L 848.329091 -214.19068 
L 889.005606 -228.045079 
L 929.682121 -247.368347 
L 970.358636 -243.790966 
L 1011.035152 -251.604607 
L 1051.711667 -247.733477 
L 1092.388182 -261.368942 
L 1092.388182 -366.028714 
L 1092.388182 -366.028714 
L 1051.711667 -362.927944 
L 1011.035152 -377.717762 
L 970.358636 -330.53563 
L 929.682121 -318.687205 
L 889.005606 -310.694492 
L 848.329091 -261.578575 
L 807.652576 -253.883266 
L 766.976061 -249.897049 
L 726.299545 -255.964113 
L 685.62303 -233.63496 
L 644.946515 -224.503496 
L 604.27 -209.823761 
L 563.593485 -194.645267 
L 522.91697 -182.343423 
L 482.240455 -173.306338 
L 441.563939 -181.694332 
L 400.887424 -174.458344 
L 360.210909 -167.166086 
L 319.534394 -150.983777 
L 278.857879 -158.190702 
L 238.181364 -144.689889 
L 197.504848 -133.365977 
L 156.828333 -121.271198 
L 116.151818 -122.30632 
z
" style="stroke: #f77189; stroke-opacity: 0.2"/>
    </defs>
    <g clip-path="url(#pe64a79fb82)">
     <use xlink:href="#mf1b1c945d9" x="0" y="576" style="fill: #f77189; fill-opacity: 0.2; stroke: #f77189; stroke-opacity: 0.2"/>
    </g>
   </g>
   <g id="PolyCollection_2">
    <defs>
     <path id="m48558ca11c" d="M 116.151818 -129.519672 
L 116.151818 -117.788263 
L 156.828333 -122.009127 
L 197.504848 -132.245897 
L 238.181364 -133.60769 
L 278.857879 -141.259821 
L 319.534394 -151.853942 
L 360.210909 -163.498722 
L 400.887424 -167.247133 
L 441.563939 -165.134728 
L 482.240455 -170.915661 
L 522.91697 -180.641558 
L 563.593485 -188.435295 
L 604.27 -195.462384 
L 644.946515 -205.996338 
L 685.62303 -208.127002 
L 726.299545 -207.544268 
L 766.976061 -216.320982 
L 807.652576 -231.946467 
L 848.329091 -227.644142 
L 889.005606 -241.972657 
L 929.682121 -256.295448 
L 970.358636 -256.183808 
L 1011.035152 -256.510544 
L 1051.711667 -248.854802 
L 1092.388182 -265.799063 
L 1092.388182 -318.087297 
L 1092.388182 -318.087297 
L 1051.711667 -316.996883 
L 1011.035152 -339.22819 
L 970.358636 -302.176546 
L 929.682121 -338.557735 
L 889.005606 -329.768064 
L 848.329091 -279.492041 
L 807.652576 -239.919872 
L 766.976061 -238.561994 
L 726.299545 -240.954408 
L 685.62303 -231.72812 
L 644.946515 -235.020158 
L 604.27 -210.322361 
L 563.593485 -200.142851 
L 522.91697 -188.448306 
L 482.240455 -178.766084 
L 441.563939 -193.180357 
L 400.887424 -187.64125 
L 360.210909 -179.92452 
L 319.534394 -169.566439 
L 278.857879 -170.360331 
L 238.181364 -163.043509 
L 197.504848 -162.133752 
L 156.828333 -127.672725 
L 116.151818 -129.519672 
z
" style="stroke: #e18632; stroke-opacity: 0.2"/>
    </defs>
    <g clip-path="url(#pe64a79fb82)">
     <use xlink:href="#m48558ca11c" x="0" y="576" style="fill: #e18632; fill-opacity: 0.2; stroke: #e18632; stroke-opacity: 0.2"/>
    </g>
   </g>
   <g id="PolyCollection_3">
    <defs>
     <path id="m46625bc210" d="M 116.151818 -126.350916 
L 116.151818 -114.997436 
L 156.828333 -118.353905 
L 197.504848 -122.30798 
L 238.181364 -122.285859 
L 278.857879 -128.901301 
L 319.534394 -142.380713 
L 360.210909 -153.159116 
L 400.887424 -154.394662 
L 441.563939 -155.299597 
L 482.240455 -159.337232 
L 522.91697 -169.994955 
L 563.593485 -187.681963 
L 604.27 -195.518362 
L 644.946515 -209.039144 
L 685.62303 -211.753789 
L 726.299545 -219.063093 
L 766.976061 -226.311942 
L 807.652576 -240.024597 
L 848.329091 -243.105178 
L 889.005606 -255.648869 
L 929.682121 -266.23114 
L 970.358636 -260.939815 
L 1011.035152 -271.90002 
L 1051.711667 -266.700937 
L 1092.388182 -285.834887 
L 1092.388182 -371.023153 
L 1092.388182 -371.023153 
L 1051.711667 -366.357906 
L 1011.035152 -384.116408 
L 970.358636 -329.018105 
L 929.682121 -320.128487 
L 889.005606 -319.431841 
L 848.329091 -275.432457 
L 807.652576 -272.929108 
L 766.976061 -260.530718 
L 726.299545 -266.015395 
L 685.62303 -239.882357 
L 644.946515 -234.379602 
L 604.27 -228.01337 
L 563.593485 -219.56364 
L 522.91697 -194.89774 
L 482.240455 -189.48508 
L 441.563939 -186.073669 
L 400.887424 -187.054077 
L 360.210909 -172.842091 
L 319.534394 -174.17013 
L 278.857879 -168.171431 
L 238.181364 -155.407567 
L 197.504848 -141.052514 
L 156.828333 -124.252601 
L 116.151818 -126.350916 
z
" style="stroke: #b59a32; stroke-opacity: 0.2"/>
    </defs>
    <g clip-path="url(#pe64a79fb82)">
     <use xlink:href="#m46625bc210" x="0" y="576" style="fill: #b59a32; fill-opacity: 0.2; stroke: #b59a32; stroke-opacity: 0.2"/>
    </g>
   </g>
   <g id="PolyCollection_4">
    <defs>
     <path id="me8ec4c420a" d="M 116.151818 -134.169108 
L 116.151818 -119.606619 
L 156.828333 -120.280277 
L 197.504848 -130.337202 
L 238.181364 -127.613242 
L 278.857879 -132.123606 
L 319.534394 -150.64649 
L 360.210909 -161.060248 
L 400.887424 -166.982248 
L 441.563939 -164.471294 
L 482.240455 -170.963653 
L 522.91697 -180.618749 
L 563.593485 -191.191405 
L 604.27 -205.070597 
L 644.946515 -222.032768 
L 685.62303 -237.890394 
L 726.299545 -235.565145 
L 766.976061 -234.687521 
L 807.652576 -259.008962 
L 848.329091 -249.947522 
L 889.005606 -274.514508 
L 929.682121 -292.17472 
L 970.358636 -294.511655 
L 1011.035152 -291.242133 
L 1051.711667 -292.219808 
L 1092.388182 -310.583146 
L 1092.388182 -412.918677 
L 1092.388182 -412.918677 
L 1051.711667 -410.115653 
L 1011.035152 -408.253868 
L 970.358636 -368.958766 
L 929.682121 -362.354399 
L 889.005606 -358.586584 
L 848.329091 -304.039742 
L 807.652576 -297.929007 
L 766.976061 -284.41547 
L 726.299545 -283.308597 
L 685.62303 -274.668461 
L 644.946515 -248.485468 
L 604.27 -233.794675 
L 563.593485 -237.105521 
L 522.91697 -210.081477 
L 482.240455 -204.794769 
L 441.563939 -186.549942 
L 400.887424 -191.991953 
L 360.210909 -173.67377 
L 319.534394 -170.451202 
L 278.857879 -168.3288 
L 238.181364 -154.382093 
L 197.504848 -155.297622 
L 156.828333 -126.759245 
L 116.151818 -134.169108 
z
" style="stroke: #8ba731; stroke-opacity: 0.2"/>
    </defs>
    <g clip-path="url(#pe64a79fb82)">
     <use xlink:href="#me8ec4c420a" x="0" y="576" style="fill: #8ba731; fill-opacity: 0.2; stroke: #8ba731; stroke-opacity: 0.2"/>
    </g>
   </g>
   <g id="PolyCollection_5">
    <defs>
     <path id="m19662d134b" d="M 116.151818 -117.09094 
L 116.151818 -110.395194 
L 156.828333 -108.143182 
L 197.504848 -111.013309 
L 238.181364 -115.1851 
L 278.857879 -116.423587 
L 319.534394 -123.380199 
L 360.210909 -138.162772 
L 400.887424 -136.478412 
L 441.563939 -150.361572 
L 482.240455 -147.418591 
L 522.91697 -163.515222 
L 563.593485 -172.035255 
L 604.27 -185.079187 
L 644.946515 -190.344307 
L 685.62303 -204.916625 
L 726.299545 -200.813884 
L 766.976061 -202.278003 
L 807.652576 -229.216139 
L 848.329091 -223.089222 
L 889.005606 -232.592023 
L 929.682121 -244.013193 
L 970.358636 -237.479049 
L 1011.035152 -237.095209 
L 1051.711667 -251.468435 
L 1092.388182 -248.567002 
L 1092.388182 -309.375897 
L 1092.388182 -309.375897 
L 1051.711667 -308.623616 
L 1011.035152 -329.343564 
L 970.358636 -336.551033 
L 929.682121 -351.639016 
L 889.005606 -332.692406 
L 848.329091 -265.037355 
L 807.652576 -259.117281 
L 766.976061 -251.893956 
L 726.299545 -262.206522 
L 685.62303 -237.253608 
L 644.946515 -221.896977 
L 604.27 -214.431717 
L 563.593485 -203.735796 
L 522.91697 -184.259607 
L 482.240455 -171.819234 
L 441.563939 -180.699834 
L 400.887424 -174.013728 
L 360.210909 -166.425899 
L 319.534394 -154.620388 
L 278.857879 -168.194667 
L 238.181364 -140.357597 
L 197.504848 -132.863441 
L 156.828333 -117.351719 
L 116.151818 -117.09094 
z
" style="stroke: #32b258; stroke-opacity: 0.2"/>
    </defs>
    <g clip-path="url(#pe64a79fb82)">
     <use xlink:href="#m19662d134b" x="0" y="576" style="fill: #32b258; fill-opacity: 0.2; stroke: #32b258; stroke-opacity: 0.2"/>
    </g>
   </g>
   <g id="PolyCollection_6">
    <defs>
     <path id="m3b906d748c" d="M 116.151818 -189.838793 
L 116.151818 -175.390683 
L 156.828333 -170.971539 
L 197.504848 -185.519004 
L 238.181364 -193.050093 
L 278.857879 -203.431005 
L 319.534394 -222.516201 
L 360.210909 -249.636602 
L 400.887424 -254.408767 
L 441.563939 -252.11015 
L 482.240455 -263.189913 
L 522.91697 -268.167291 
L 563.593485 -283.23623 
L 604.27 -312.38158 
L 644.946515 -318.449269 
L 685.62303 -310.531738 
L 726.299545 -324.442198 
L 766.976061 -322.712484 
L 807.652576 -336.387274 
L 848.329091 -325.514768 
L 889.005606 -342.386978 
L 929.682121 -343.393114 
L 970.358636 -339.453646 
L 1011.035152 -330.738151 
L 1051.711667 -318.041405 
L 1092.388182 -332.088395 
L 1092.388182 -431.733799 
L 1092.388182 -431.733799 
L 1051.711667 -425.983328 
L 1011.035152 -445.235116 
L 970.358636 -436.7505 
L 929.682121 -494.679887 
L 889.005606 -486.58043 
L 848.329091 -436.482237 
L 807.652576 -379.300092 
L 766.976061 -397.904462 
L 726.299545 -364.833719 
L 685.62303 -363.389923 
L 644.946515 -349.890916 
L 604.27 -349.808244 
L 563.593485 -317.567108 
L 522.91697 -308.561545 
L 482.240455 -292.704321 
L 441.563939 -285.883242 
L 400.887424 -269.163525 
L 360.210909 -279.565158 
L 319.534394 -249.842248 
L 278.857879 -242.76269 
L 238.181364 -226.162984 
L 197.504848 -215.419387 
L 156.828333 -181.320329 
L 116.151818 -189.838793 
z
" style="stroke: #35ae95; stroke-opacity: 0.2"/>
    </defs>
    <g clip-path="url(#pe64a79fb82)">
     <use xlink:href="#m3b906d748c" x="0" y="576" style="fill: #35ae95; fill-opacity: 0.2; stroke: #35ae95; stroke-opacity: 0.2"/>
    </g>
   </g>
   <g id="PolyCollection_7">
    <defs>
     <path id="me3e356cc11" d="M 116.151818 -140.539754 
L 116.151818 -125.601477 
L 156.828333 -131.419817 
L 197.504848 -143.415049 
L 238.181364 -141.246689 
L 278.857879 -161.033074 
L 319.534394 -176.259784 
L 360.210909 -189.607943 
L 400.887424 -175.846948 
L 441.563939 -193.303385 
L 482.240455 -201.483836 
L 522.91697 -202.282531 
L 563.593485 -222.050947 
L 604.27 -233.703937 
L 644.946515 -257.453474 
L 685.62303 -276.440613 
L 726.299545 -259.855646 
L 766.976061 -269.41077 
L 807.652576 -283.484428 
L 848.329091 -295.788224 
L 889.005606 -322.159425 
L 929.682121 -330.09412 
L 970.358636 -347.064442 
L 1011.035152 -338.215311 
L 1051.711667 -359.938674 
L 1092.388182 -362.826799 
L 1092.388182 -499.304888 
L 1092.388182 -499.304888 
L 1051.711667 -510.183633 
L 1011.035152 -486.815563 
L 970.358636 -394.819058 
L 929.682121 -397.220987 
L 889.005606 -425.910338 
L 848.329091 -366.332984 
L 807.652576 -354.011015 
L 766.976061 -326.255445 
L 726.299545 -364.240217 
L 685.62303 -339.606218 
L 644.946515 -290.552258 
L 604.27 -289.351339 
L 563.593485 -273.374672 
L 522.91697 -259.232965 
L 482.240455 -234.308872 
L 441.563939 -252.042877 
L 400.887424 -249.792298 
L 360.210909 -234.826483 
L 319.534394 -216.720117 
L 278.857879 -223.702666 
L 238.181364 -202.470859 
L 197.504848 -168.418932 
L 156.828333 -150.80827 
L 116.151818 -140.539754 
z
" style="stroke: #37abb2; stroke-opacity: 0.2"/>
    </defs>
    <g clip-path="url(#pe64a79fb82)">
     <use xlink:href="#me3e356cc11" x="0" y="576" style="fill: #37abb2; fill-opacity: 0.2; stroke: #37abb2; stroke-opacity: 0.2"/>
    </g>
   </g>
   <g id="PolyCollection_8">
    <defs>
     <path id="ma5341adc85" d="M 116.151818 -210.920001 
L 116.151818 -191.536617 
L 156.828333 -195.19384 
L 197.504848 -201.881054 
L 238.181364 -196.612606 
L 278.857879 -206.648051 
L 319.534394 -213.511129 
L 360.210909 -214.969238 
L 400.887424 -221.470906 
L 441.563939 -217.018173 
L 482.240455 -215.605856 
L 522.91697 -221.686837 
L 563.593485 -239.35455 
L 604.27 -247.21229 
L 644.946515 -252.440234 
L 685.62303 -255.269142 
L 726.299545 -250.802396 
L 766.976061 -258.153986 
L 807.652576 -290.452013 
L 848.329091 -291.449463 
L 889.005606 -303.768344 
L 929.682121 -310.967373 
L 970.358636 -315.098767 
L 1011.035152 -321.719753 
L 1051.711667 -311.631212 
L 1092.388182 -319.544993 
L 1092.388182 -382.568377 
L 1092.388182 -382.568377 
L 1051.711667 -376.338047 
L 1011.035152 -399.973185 
L 970.358636 -355.461849 
L 929.682121 -356.657104 
L 889.005606 -358.757227 
L 848.329091 -318.736999 
L 807.652576 -307.461682 
L 766.976061 -274.342537 
L 726.299545 -282.765985 
L 685.62303 -268.658176 
L 644.946515 -274.035393 
L 604.27 -268.746482 
L 563.593485 -255.190748 
L 522.91697 -240.522487 
L 482.240455 -235.751674 
L 441.563939 -241.967961 
L 400.887424 -237.339528 
L 360.210909 -234.063547 
L 319.534394 -219.410973 
L 278.857879 -224.782866 
L 238.181364 -214.854156 
L 197.504848 -211.166586 
L 156.828333 -206.820644 
L 116.151818 -210.920001 
z
" style="stroke: #39a7d6; stroke-opacity: 0.2"/>
    </defs>
    <g clip-path="url(#pe64a79fb82)">
     <use xlink:href="#ma5341adc85" x="0" y="576" style="fill: #39a7d6; fill-opacity: 0.2; stroke: #39a7d6; stroke-opacity: 0.2"/>
    </g>
   </g>
   <g id="PolyCollection_9">
    <defs>
     <path id="mc99be1db67" d="M 116.151818 -200.457972 
L 116.151818 -194.697441 
L 156.828333 -191.411907 
L 197.504848 -196.938377 
L 238.181364 -196.509772 
L 278.857879 -206.884179 
L 319.534394 -215.526294 
L 360.210909 -234.851205 
L 400.887424 -231.077569 
L 441.563939 -233.67313 
L 482.240455 -237.451847 
L 522.91697 -244.284126 
L 563.593485 -259.608318 
L 604.27 -275.390294 
L 644.946515 -278.537078 
L 685.62303 -290.782565 
L 726.299545 -283.824069 
L 766.976061 -295.305251 
L 807.652576 -308.10872 
L 848.329091 -318.63944 
L 889.005606 -361.004469 
L 929.682121 -378.095138 
L 970.358636 -378.706659 
L 1011.035152 -384.518888 
L 1051.711667 -383.775715 
L 1092.388182 -390.79902 
L 1092.388182 -509.590648 
L 1092.388182 -509.590648 
L 1051.711667 -500.321 
L 1011.035152 -505.057714 
L 970.358636 -478.863286 
L 929.682121 -450.351734 
L 889.005606 -450.652553 
L 848.329091 -418.312654 
L 807.652576 -365.250532 
L 766.976061 -319.259789 
L 726.299545 -325.159312 
L 685.62303 -327.326205 
L 644.946515 -293.078144 
L 604.27 -290.762618 
L 563.593485 -279.394138 
L 522.91697 -268.384243 
L 482.240455 -249.791933 
L 441.563939 -256.83315 
L 400.887424 -250.185912 
L 360.210909 -247.848822 
L 319.534394 -233.142744 
L 278.857879 -231.00448 
L 238.181364 -218.319197 
L 197.504848 -213.758642 
L 156.828333 -197.44983 
L 116.151818 -200.457972 
z
" style="stroke: #8f93f4; stroke-opacity: 0.2"/>
    </defs>
    <g clip-path="url(#pe64a79fb82)">
     <use xlink:href="#mc99be1db67" x="0" y="576" style="fill: #8f93f4; fill-opacity: 0.2; stroke: #8f93f4; stroke-opacity: 0.2"/>
    </g>
   </g>
   <g id="PolyCollection_10">
    <defs>
     <path id="m768bb5b59d" d="M 116.151818 -200.372295 
L 116.151818 -194.752059 
L 156.828333 -191.610403 
L 197.504848 -196.782925 
L 238.181364 -196.442841 
L 278.857879 -206.546447 
L 319.534394 -215.686257 
L 360.210909 -234.818651 
L 400.887424 -231.088647 
L 441.563939 -233.49509 
L 482.240455 -237.638943 
L 522.91697 -244.523356 
L 563.593485 -260.336299 
L 604.27 -275.203274 
L 644.946515 -279.185259 
L 685.62303 -290.857225 
L 726.299545 -285.823579 
L 766.976061 -294.7156 
L 807.652576 -309.50738 
L 848.329091 -318.650603 
L 889.005606 -358.836207 
L 929.682121 -378.762062 
L 970.358636 -382.268917 
L 1011.035152 -383.53485 
L 1051.711667 -381.534771 
L 1092.388182 -390.79608 
L 1092.388182 -509.592478 
L 1092.388182 -509.592478 
L 1051.711667 -498.695272 
L 1011.035152 -505.069709 
L 970.358636 -475.838952 
L 929.682121 -447.032807 
L 889.005606 -455.124012 
L 848.329091 -413.919088 
L 807.652576 -368.926285 
L 766.976061 -319.444167 
L 726.299545 -325.159532 
L 685.62303 -328.8408 
L 644.946515 -292.801933 
L 604.27 -290.561675 
L 563.593485 -279.566682 
L 522.91697 -268.108901 
L 482.240455 -250.819899 
L 441.563939 -255.791531 
L 400.887424 -250.219396 
L 360.210909 -247.355501 
L 319.534394 -233.092951 
L 278.857879 -231.561005 
L 238.181364 -217.618971 
L 197.504848 -214.025081 
L 156.828333 -197.446646 
L 116.151818 -200.372295 
z
" style="stroke: #db70f4; stroke-opacity: 0.2"/>
    </defs>
    <g clip-path="url(#pe64a79fb82)">
     <use xlink:href="#m768bb5b59d" x="0" y="576" style="fill: #db70f4; fill-opacity: 0.2; stroke: #db70f4; stroke-opacity: 0.2"/>
    </g>
   </g>
   <g id="PolyCollection_11">
    <defs>
     <path id="m96f4f66865" d="M 116.151818 -162.043469 
L 116.151818 -146.724602 
L 156.828333 -150.484713 
L 197.504848 -160.489234 
L 238.181364 -155.399415 
L 278.857879 -184.287923 
L 319.534394 -195.641236 
L 360.210909 -212.521021 
L 400.887424 -207.597219 
L 441.563939 -220.481954 
L 482.240455 -229.833885 
L 522.91697 -223.318633 
L 563.593485 -228.58969 
L 604.27 -260.517499 
L 644.946515 -292.726826 
L 685.62303 -300.993603 
L 726.299545 -277.100188 
L 766.976061 -294.249145 
L 807.652576 -320.584283 
L 848.329091 -326.322775 
L 889.005606 -346.978302 
L 929.682121 -340.192399 
L 970.358636 -377.115893 
L 1011.035152 -362.964411 
L 1051.711667 -400.705398 
L 1092.388182 -408.35069 
L 1092.388182 -543.393091 
L 1092.388182 -543.393091 
L 1051.711667 -526.851696 
L 1011.035152 -523.267636 
L 970.358636 -427.743652 
L 929.682121 -427.865167 
L 889.005606 -467.798039 
L 848.329091 -416.77921 
L 807.652576 -419.948405 
L 766.976061 -373.814358 
L 726.299545 -376.041375 
L 685.62303 -381.429043 
L 644.946515 -322.165372 
L 604.27 -329.856213 
L 563.593485 -282.638029 
L 522.91697 -313.364529 
L 482.240455 -268.823019 
L 441.563939 -272.177104 
L 400.887424 -268.935615 
L 360.210909 -255.692233 
L 319.534394 -238.968902 
L 278.857879 -254.122997 
L 238.181364 -225.38113 
L 197.504848 -196.605318 
L 156.828333 -173.460678 
L 116.151818 -162.043469 
z
" style="stroke: #f667c6; stroke-opacity: 0.2"/>
    </defs>
    <g clip-path="url(#pe64a79fb82)">
     <use xlink:href="#m96f4f66865" x="0" y="576" style="fill: #f667c6; fill-opacity: 0.2; stroke: #f667c6; stroke-opacity: 0.2"/>
    </g>
   </g>
   <g id="matplotlib.axis_1">
    <g id="xtick_1">
     <g id="line2d_1">
      <defs>
       <path id="m949d82a9cd" d="M 0 0 
L 0 3.5 
" style="stroke: #000000; stroke-width: 0.8"/>
      </defs>
      <g>
       <use xlink:href="#m949d82a9cd" x="95.813561" y="490.552" style="stroke: #000000; stroke-width: 0.8"/>
      </g>
     </g>
     <g id="text_1">
      <!-- 0 -->
      <g transform="translate(89.451061 512.748875) scale(0.2 -0.2)">
       <defs>
        <path id="DejaVuSans-30" d="M 2034 4250 
Q 1547 4250 1301 3770 
Q 1056 3291 1056 2328 
Q 1056 1369 1301 889 
Q 1547 409 2034 409 
Q 2525 409 2770 889 
Q 3016 1369 3016 2328 
Q 3016 3291 2770 3770 
Q 2525 4250 2034 4250 
z
M 2034 4750 
Q 2819 4750 3233 4129 
Q 3647 3509 3647 2328 
Q 3647 1150 3233 529 
Q 2819 -91 2034 -91 
Q 1250 -91 836 529 
Q 422 1150 422 2328 
Q 422 3509 836 4129 
Q 1250 4750 2034 4750 
z
" transform="scale(0.015625)"/>
       </defs>
       <use xlink:href="#DejaVuSans-30"/>
      </g>
     </g>
    </g>
    <g id="xtick_2">
     <g id="line2d_2">
      <g>
       <use xlink:href="#m949d82a9cd" x="299.196136" y="490.552" style="stroke: #000000; stroke-width: 0.8"/>
      </g>
     </g>
     <g id="text_2">
      <!-- 10 -->
      <g transform="translate(286.471136 512.748875) scale(0.2 -0.2)">
       <defs>
        <path id="DejaVuSans-31" d="M 794 531 
L 1825 531 
L 1825 4091 
L 703 3866 
L 703 4441 
L 1819 4666 
L 2450 4666 
L 2450 531 
L 3481 531 
L 3481 0 
L 794 0 
L 794 531 
z
" transform="scale(0.015625)"/>
       </defs>
       <use xlink:href="#DejaVuSans-31"/>
       <use xlink:href="#DejaVuSans-30" x="63.623047"/>
      </g>
     </g>
    </g>
    <g id="xtick_3">
     <g id="line2d_3">
      <g>
       <use xlink:href="#m949d82a9cd" x="502.578712" y="490.552" style="stroke: #000000; stroke-width: 0.8"/>
      </g>
     </g>
     <g id="text_3">
      <!-- 20 -->
      <g transform="translate(489.853712 512.748875) scale(0.2 -0.2)">
       <defs>
        <path id="DejaVuSans-32" d="M 1228 531 
L 3431 531 
L 3431 0 
L 469 0 
L 469 531 
Q 828 903 1448 1529 
Q 2069 2156 2228 2338 
Q 2531 2678 2651 2914 
Q 2772 3150 2772 3378 
Q 2772 3750 2511 3984 
Q 2250 4219 1831 4219 
Q 1534 4219 1204 4116 
Q 875 4013 500 3803 
L 500 4441 
Q 881 4594 1212 4672 
Q 1544 4750 1819 4750 
Q 2544 4750 2975 4387 
Q 3406 4025 3406 3419 
Q 3406 3131 3298 2873 
Q 3191 2616 2906 2266 
Q 2828 2175 2409 1742 
Q 1991 1309 1228 531 
z
" transform="scale(0.015625)"/>
       </defs>
       <use xlink:href="#DejaVuSans-32"/>
       <use xlink:href="#DejaVuSans-30" x="63.623047"/>
      </g>
     </g>
    </g>
    <g id="xtick_4">
     <g id="line2d_4">
      <g>
       <use xlink:href="#m949d82a9cd" x="705.961288" y="490.552" style="stroke: #000000; stroke-width: 0.8"/>
      </g>
     </g>
     <g id="text_4">
      <!-- 30 -->
      <g transform="translate(693.236288 512.748875) scale(0.2 -0.2)">
       <defs>
        <path id="DejaVuSans-33" d="M 2597 2516 
Q 3050 2419 3304 2112 
Q 3559 1806 3559 1356 
Q 3559 666 3084 287 
Q 2609 -91 1734 -91 
Q 1441 -91 1130 -33 
Q 819 25 488 141 
L 488 750 
Q 750 597 1062 519 
Q 1375 441 1716 441 
Q 2309 441 2620 675 
Q 2931 909 2931 1356 
Q 2931 1769 2642 2001 
Q 2353 2234 1838 2234 
L 1294 2234 
L 1294 2753 
L 1863 2753 
Q 2328 2753 2575 2939 
Q 2822 3125 2822 3475 
Q 2822 3834 2567 4026 
Q 2313 4219 1838 4219 
Q 1578 4219 1281 4162 
Q 984 4106 628 3988 
L 628 4550 
Q 988 4650 1302 4700 
Q 1616 4750 1894 4750 
Q 2613 4750 3031 4423 
Q 3450 4097 3450 3541 
Q 3450 3153 3228 2886 
Q 3006 2619 2597 2516 
z
" transform="scale(0.015625)"/>
       </defs>
       <use xlink:href="#DejaVuSans-33"/>
       <use xlink:href="#DejaVuSans-30" x="63.623047"/>
      </g>
     </g>
    </g>
    <g id="xtick_5">
     <g id="line2d_5">
      <g>
       <use xlink:href="#m949d82a9cd" x="909.343864" y="490.552" style="stroke: #000000; stroke-width: 0.8"/>
      </g>
     </g>
     <g id="text_5">
      <!-- 40 -->
      <g transform="translate(896.618864 512.748875) scale(0.2 -0.2)">
       <defs>
        <path id="DejaVuSans-34" d="M 2419 4116 
L 825 1625 
L 2419 1625 
L 2419 4116 
z
M 2253 4666 
L 3047 4666 
L 3047 1625 
L 3713 1625 
L 3713 1100 
L 3047 1100 
L 3047 0 
L 2419 0 
L 2419 1100 
L 313 1100 
L 313 1709 
L 2253 4666 
z
" transform="scale(0.015625)"/>
       </defs>
       <use xlink:href="#DejaVuSans-34"/>
       <use xlink:href="#DejaVuSans-30" x="63.623047"/>
      </g>
     </g>
    </g>
    <g id="xtick_6">
     <g id="line2d_6">
      <g>
       <use xlink:href="#m949d82a9cd" x="1112.726439" y="490.552" style="stroke: #000000; stroke-width: 0.8"/>
      </g>
     </g>
     <g id="text_6">
      <!-- 50 -->
      <g transform="translate(1100.001439 512.748875) scale(0.2 -0.2)">
       <defs>
        <path id="DejaVuSans-35" d="M 691 4666 
L 3169 4666 
L 3169 4134 
L 1269 4134 
L 1269 2991 
Q 1406 3038 1543 3061 
Q 1681 3084 1819 3084 
Q 2600 3084 3056 2656 
Q 3513 2228 3513 1497 
Q 3513 744 3044 326 
Q 2575 -91 1722 -91 
Q 1428 -91 1123 -41 
Q 819 9 494 109 
L 494 744 
Q 775 591 1075 516 
Q 1375 441 1709 441 
Q 2250 441 2565 725 
Q 2881 1009 2881 1497 
Q 2881 1984 2565 2268 
Q 2250 2553 1709 2553 
Q 1456 2553 1204 2497 
Q 953 2441 691 2322 
L 691 4666 
z
" transform="scale(0.015625)"/>
       </defs>
       <use xlink:href="#DejaVuSans-35"/>
       <use xlink:href="#DejaVuSans-30" x="63.623047"/>
      </g>
     </g>
    </g>
    <g id="text_7">
     <!-- Percentile Threshold -->
     <g transform="translate(502.490313 536.105125) scale(0.2 -0.2)">
      <defs>
       <path id="DejaVuSans-50" d="M 1259 4147 
L 1259 2394 
L 2053 2394 
Q 2494 2394 2734 2622 
Q 2975 2850 2975 3272 
Q 2975 3691 2734 3919 
Q 2494 4147 2053 4147 
L 1259 4147 
z
M 628 4666 
L 2053 4666 
Q 2838 4666 3239 4311 
Q 3641 3956 3641 3272 
Q 3641 2581 3239 2228 
Q 2838 1875 2053 1875 
L 1259 1875 
L 1259 0 
L 628 0 
L 628 4666 
z
" transform="scale(0.015625)"/>
       <path id="DejaVuSans-65" d="M 3597 1894 
L 3597 1613 
L 953 1613 
Q 991 1019 1311 708 
Q 1631 397 2203 397 
Q 2534 397 2845 478 
Q 3156 559 3463 722 
L 3463 178 
Q 3153 47 2828 -22 
Q 2503 -91 2169 -91 
Q 1331 -91 842 396 
Q 353 884 353 1716 
Q 353 2575 817 3079 
Q 1281 3584 2069 3584 
Q 2775 3584 3186 3129 
Q 3597 2675 3597 1894 
z
M 3022 2063 
Q 3016 2534 2758 2815 
Q 2500 3097 2075 3097 
Q 1594 3097 1305 2825 
Q 1016 2553 972 2059 
L 3022 2063 
z
" transform="scale(0.015625)"/>
       <path id="DejaVuSans-72" d="M 2631 2963 
Q 2534 3019 2420 3045 
Q 2306 3072 2169 3072 
Q 1681 3072 1420 2755 
Q 1159 2438 1159 1844 
L 1159 0 
L 581 0 
L 581 3500 
L 1159 3500 
L 1159 2956 
Q 1341 3275 1631 3429 
Q 1922 3584 2338 3584 
Q 2397 3584 2469 3576 
Q 2541 3569 2628 3553 
L 2631 2963 
z
" transform="scale(0.015625)"/>
       <path id="DejaVuSans-63" d="M 3122 3366 
L 3122 2828 
Q 2878 2963 2633 3030 
Q 2388 3097 2138 3097 
Q 1578 3097 1268 2742 
Q 959 2388 959 1747 
Q 959 1106 1268 751 
Q 1578 397 2138 397 
Q 2388 397 2633 464 
Q 2878 531 3122 666 
L 3122 134 
Q 2881 22 2623 -34 
Q 2366 -91 2075 -91 
Q 1284 -91 818 406 
Q 353 903 353 1747 
Q 353 2603 823 3093 
Q 1294 3584 2113 3584 
Q 2378 3584 2631 3529 
Q 2884 3475 3122 3366 
z
" transform="scale(0.015625)"/>
       <path id="DejaVuSans-6e" d="M 3513 2113 
L 3513 0 
L 2938 0 
L 2938 2094 
Q 2938 2591 2744 2837 
Q 2550 3084 2163 3084 
Q 1697 3084 1428 2787 
Q 1159 2491 1159 1978 
L 1159 0 
L 581 0 
L 581 3500 
L 1159 3500 
L 1159 2956 
Q 1366 3272 1645 3428 
Q 1925 3584 2291 3584 
Q 2894 3584 3203 3211 
Q 3513 2838 3513 2113 
z
" transform="scale(0.015625)"/>
       <path id="DejaVuSans-74" d="M 1172 4494 
L 1172 3500 
L 2356 3500 
L 2356 3053 
L 1172 3053 
L 1172 1153 
Q 1172 725 1289 603 
Q 1406 481 1766 481 
L 2356 481 
L 2356 0 
L 1766 0 
Q 1100 0 847 248 
Q 594 497 594 1153 
L 594 3053 
L 172 3053 
L 172 3500 
L 594 3500 
L 594 4494 
L 1172 4494 
z
" transform="scale(0.015625)"/>
       <path id="DejaVuSans-69" d="M 603 3500 
L 1178 3500 
L 1178 0 
L 603 0 
L 603 3500 
z
M 603 4863 
L 1178 4863 
L 1178 4134 
L 603 4134 
L 603 4863 
z
" transform="scale(0.015625)"/>
       <path id="DejaVuSans-6c" d="M 603 4863 
L 1178 4863 
L 1178 0 
L 603 0 
L 603 4863 
z
" transform="scale(0.015625)"/>
       <path id="DejaVuSans-20" transform="scale(0.015625)"/>
       <path id="DejaVuSans-54" d="M -19 4666 
L 3928 4666 
L 3928 4134 
L 2272 4134 
L 2272 0 
L 1638 0 
L 1638 4134 
L -19 4134 
L -19 4666 
z
" transform="scale(0.015625)"/>
       <path id="DejaVuSans-68" d="M 3513 2113 
L 3513 0 
L 2938 0 
L 2938 2094 
Q 2938 2591 2744 2837 
Q 2550 3084 2163 3084 
Q 1697 3084 1428 2787 
Q 1159 2491 1159 1978 
L 1159 0 
L 581 0 
L 581 4863 
L 1159 4863 
L 1159 2956 
Q 1366 3272 1645 3428 
Q 1925 3584 2291 3584 
Q 2894 3584 3203 3211 
Q 3513 2838 3513 2113 
z
" transform="scale(0.015625)"/>
       <path id="DejaVuSans-73" d="M 2834 3397 
L 2834 2853 
Q 2591 2978 2328 3040 
Q 2066 3103 1784 3103 
Q 1356 3103 1142 2972 
Q 928 2841 928 2578 
Q 928 2378 1081 2264 
Q 1234 2150 1697 2047 
L 1894 2003 
Q 2506 1872 2764 1633 
Q 3022 1394 3022 966 
Q 3022 478 2636 193 
Q 2250 -91 1575 -91 
Q 1294 -91 989 -36 
Q 684 19 347 128 
L 347 722 
Q 666 556 975 473 
Q 1284 391 1588 391 
Q 1994 391 2212 530 
Q 2431 669 2431 922 
Q 2431 1156 2273 1281 
Q 2116 1406 1581 1522 
L 1381 1569 
Q 847 1681 609 1914 
Q 372 2147 372 2553 
Q 372 3047 722 3315 
Q 1072 3584 1716 3584 
Q 2034 3584 2315 3537 
Q 2597 3491 2834 3397 
z
" transform="scale(0.015625)"/>
       <path id="DejaVuSans-6f" d="M 1959 3097 
Q 1497 3097 1228 2736 
Q 959 2375 959 1747 
Q 959 1119 1226 758 
Q 1494 397 1959 397 
Q 2419 397 2687 759 
Q 2956 1122 2956 1747 
Q 2956 2369 2687 2733 
Q 2419 3097 1959 3097 
z
M 1959 3584 
Q 2709 3584 3137 3096 
Q 3566 2609 3566 1747 
Q 3566 888 3137 398 
Q 2709 -91 1959 -91 
Q 1206 -91 779 398 
Q 353 888 353 1747 
Q 353 2609 779 3096 
Q 1206 3584 1959 3584 
z
" transform="scale(0.015625)"/>
       <path id="DejaVuSans-64" d="M 2906 2969 
L 2906 4863 
L 3481 4863 
L 3481 0 
L 2906 0 
L 2906 525 
Q 2725 213 2448 61 
Q 2172 -91 1784 -91 
Q 1150 -91 751 415 
Q 353 922 353 1747 
Q 353 2572 751 3078 
Q 1150 3584 1784 3584 
Q 2172 3584 2448 3432 
Q 2725 3281 2906 2969 
z
M 947 1747 
Q 947 1113 1208 752 
Q 1469 391 1925 391 
Q 2381 391 2643 752 
Q 2906 1113 2906 1747 
Q 2906 2381 2643 2742 
Q 2381 3103 1925 3103 
Q 1469 3103 1208 2742 
Q 947 2381 947 1747 
z
" transform="scale(0.015625)"/>
      </defs>
      <use xlink:href="#DejaVuSans-50"/>
      <use xlink:href="#DejaVuSans-65" x="56.677734"/>
      <use xlink:href="#DejaVuSans-72" x="118.201172"/>
      <use xlink:href="#DejaVuSans-63" x="157.064453"/>
      <use xlink:href="#DejaVuSans-65" x="212.044922"/>
      <use xlink:href="#DejaVuSans-6e" x="273.568359"/>
      <use xlink:href="#DejaVuSans-74" x="336.947266"/>
      <use xlink:href="#DejaVuSans-69" x="376.15625"/>
      <use xlink:href="#DejaVuSans-6c" x="403.939453"/>
      <use xlink:href="#DejaVuSans-65" x="431.722656"/>
      <use xlink:href="#DejaVuSans-20" x="493.246094"/>
      <use xlink:href="#DejaVuSans-54" x="525.033203"/>
      <use xlink:href="#DejaVuSans-68" x="586.117188"/>
      <use xlink:href="#DejaVuSans-72" x="649.496094"/>
      <use xlink:href="#DejaVuSans-65" x="688.359375"/>
      <use xlink:href="#DejaVuSans-73" x="749.882812"/>
      <use xlink:href="#DejaVuSans-68" x="801.982422"/>
      <use xlink:href="#DejaVuSans-6f" x="865.361328"/>
      <use xlink:href="#DejaVuSans-6c" x="926.542969"/>
      <use xlink:href="#DejaVuSans-64" x="954.326172"/>
     </g>
     <!-- (Using "merge" Threshold Handling) -->
     <g transform="translate(423.555938 558.50075) scale(0.2 -0.2)">
      <defs>
       <path id="DejaVuSans-28" d="M 1984 4856 
Q 1566 4138 1362 3434 
Q 1159 2731 1159 2009 
Q 1159 1288 1364 580 
Q 1569 -128 1984 -844 
L 1484 -844 
Q 1016 -109 783 600 
Q 550 1309 550 2009 
Q 550 2706 781 3412 
Q 1013 4119 1484 4856 
L 1984 4856 
z
" transform="scale(0.015625)"/>
       <path id="DejaVuSans-55" d="M 556 4666 
L 1191 4666 
L 1191 1831 
Q 1191 1081 1462 751 
Q 1734 422 2344 422 
Q 2950 422 3222 751 
Q 3494 1081 3494 1831 
L 3494 4666 
L 4128 4666 
L 4128 1753 
Q 4128 841 3676 375 
Q 3225 -91 2344 -91 
Q 1459 -91 1007 375 
Q 556 841 556 1753 
L 556 4666 
z
" transform="scale(0.015625)"/>
       <path id="DejaVuSans-67" d="M 2906 1791 
Q 2906 2416 2648 2759 
Q 2391 3103 1925 3103 
Q 1463 3103 1205 2759 
Q 947 2416 947 1791 
Q 947 1169 1205 825 
Q 1463 481 1925 481 
Q 2391 481 2648 825 
Q 2906 1169 2906 1791 
z
M 3481 434 
Q 3481 -459 3084 -895 
Q 2688 -1331 1869 -1331 
Q 1566 -1331 1297 -1286 
Q 1028 -1241 775 -1147 
L 775 -588 
Q 1028 -725 1275 -790 
Q 1522 -856 1778 -856 
Q 2344 -856 2625 -561 
Q 2906 -266 2906 331 
L 2906 616 
Q 2728 306 2450 153 
Q 2172 0 1784 0 
Q 1141 0 747 490 
Q 353 981 353 1791 
Q 353 2603 747 3093 
Q 1141 3584 1784 3584 
Q 2172 3584 2450 3431 
Q 2728 3278 2906 2969 
L 2906 3500 
L 3481 3500 
L 3481 434 
z
" transform="scale(0.015625)"/>
       <path id="DejaVuSans-22" d="M 1147 4666 
L 1147 2931 
L 616 2931 
L 616 4666 
L 1147 4666 
z
M 2328 4666 
L 2328 2931 
L 1797 2931 
L 1797 4666 
L 2328 4666 
z
" transform="scale(0.015625)"/>
       <path id="DejaVuSans-6d" d="M 3328 2828 
Q 3544 3216 3844 3400 
Q 4144 3584 4550 3584 
Q 5097 3584 5394 3201 
Q 5691 2819 5691 2113 
L 5691 0 
L 5113 0 
L 5113 2094 
Q 5113 2597 4934 2840 
Q 4756 3084 4391 3084 
Q 3944 3084 3684 2787 
Q 3425 2491 3425 1978 
L 3425 0 
L 2847 0 
L 2847 2094 
Q 2847 2600 2669 2842 
Q 2491 3084 2119 3084 
Q 1678 3084 1418 2786 
Q 1159 2488 1159 1978 
L 1159 0 
L 581 0 
L 581 3500 
L 1159 3500 
L 1159 2956 
Q 1356 3278 1631 3431 
Q 1906 3584 2284 3584 
Q 2666 3584 2933 3390 
Q 3200 3197 3328 2828 
z
" transform="scale(0.015625)"/>
       <path id="DejaVuSans-48" d="M 628 4666 
L 1259 4666 
L 1259 2753 
L 3553 2753 
L 3553 4666 
L 4184 4666 
L 4184 0 
L 3553 0 
L 3553 2222 
L 1259 2222 
L 1259 0 
L 628 0 
L 628 4666 
z
" transform="scale(0.015625)"/>
       <path id="DejaVuSans-61" d="M 2194 1759 
Q 1497 1759 1228 1600 
Q 959 1441 959 1056 
Q 959 750 1161 570 
Q 1363 391 1709 391 
Q 2188 391 2477 730 
Q 2766 1069 2766 1631 
L 2766 1759 
L 2194 1759 
z
M 3341 1997 
L 3341 0 
L 2766 0 
L 2766 531 
Q 2569 213 2275 61 
Q 1981 -91 1556 -91 
Q 1019 -91 701 211 
Q 384 513 384 1019 
Q 384 1609 779 1909 
Q 1175 2209 1959 2209 
L 2766 2209 
L 2766 2266 
Q 2766 2663 2505 2880 
Q 2244 3097 1772 3097 
Q 1472 3097 1187 3025 
Q 903 2953 641 2809 
L 641 3341 
Q 956 3463 1253 3523 
Q 1550 3584 1831 3584 
Q 2591 3584 2966 3190 
Q 3341 2797 3341 1997 
z
" transform="scale(0.015625)"/>
       <path id="DejaVuSans-29" d="M 513 4856 
L 1013 4856 
Q 1481 4119 1714 3412 
Q 1947 2706 1947 2009 
Q 1947 1309 1714 600 
Q 1481 -109 1013 -844 
L 513 -844 
Q 928 -128 1133 580 
Q 1338 1288 1338 2009 
Q 1338 2731 1133 3434 
Q 928 4138 513 4856 
z
" transform="scale(0.015625)"/>
      </defs>
      <use xlink:href="#DejaVuSans-28"/>
      <use xlink:href="#DejaVuSans-55" x="39.013672"/>
      <use xlink:href="#DejaVuSans-73" x="112.207031"/>
      <use xlink:href="#DejaVuSans-69" x="164.306641"/>
      <use xlink:href="#DejaVuSans-6e" x="192.089844"/>
      <use xlink:href="#DejaVuSans-67" x="255.46875"/>
      <use xlink:href="#DejaVuSans-20" x="318.945312"/>
      <use xlink:href="#DejaVuSans-22" x="350.732422"/>
      <use xlink:href="#DejaVuSans-6d" x="396.728516"/>
      <use xlink:href="#DejaVuSans-65" x="494.140625"/>
      <use xlink:href="#DejaVuSans-72" x="555.664062"/>
      <use xlink:href="#DejaVuSans-67" x="595.027344"/>
      <use xlink:href="#DejaVuSans-65" x="658.503906"/>
      <use xlink:href="#DejaVuSans-22" x="720.027344"/>
      <use xlink:href="#DejaVuSans-20" x="766.023438"/>
      <use xlink:href="#DejaVuSans-54" x="797.810547"/>
      <use xlink:href="#DejaVuSans-68" x="858.894531"/>
      <use xlink:href="#DejaVuSans-72" x="922.273438"/>
      <use xlink:href="#DejaVuSans-65" x="961.136719"/>
      <use xlink:href="#DejaVuSans-73" x="1022.660156"/>
      <use xlink:href="#DejaVuSans-68" x="1074.759766"/>
      <use xlink:href="#DejaVuSans-6f" x="1138.138672"/>
      <use xlink:href="#DejaVuSans-6c" x="1199.320312"/>
      <use xlink:href="#DejaVuSans-64" x="1227.103516"/>
      <use xlink:href="#DejaVuSans-20" x="1290.580078"/>
      <use xlink:href="#DejaVuSans-48" x="1322.367188"/>
      <use xlink:href="#DejaVuSans-61" x="1397.5625"/>
      <use xlink:href="#DejaVuSans-6e" x="1458.841797"/>
      <use xlink:href="#DejaVuSans-64" x="1522.220703"/>
      <use xlink:href="#DejaVuSans-6c" x="1585.697266"/>
      <use xlink:href="#DejaVuSans-69" x="1613.480469"/>
      <use xlink:href="#DejaVuSans-6e" x="1641.263672"/>
      <use xlink:href="#DejaVuSans-67" x="1704.642578"/>
      <use xlink:href="#DejaVuSans-29" x="1768.119141"/>
     </g>
    </g>
   </g>
   <g id="matplotlib.axis_2">
    <g id="ytick_1">
     <g id="line2d_7">
      <defs>
       <path id="m9d3d6283a3" d="M 0 0 
L -3.5 0 
" style="stroke: #000000; stroke-width: 0.8"/>
      </defs>
      <g>
       <use xlink:href="#m9d3d6283a3" x="67.34" y="454.666626" style="stroke: #000000; stroke-width: 0.8"/>
      </g>
     </g>
     <g id="text_8">
      <!-- 10 -->
      <g transform="translate(34.89 462.265063) scale(0.2 -0.2)">
       <use xlink:href="#DejaVuSans-31"/>
       <use xlink:href="#DejaVuSans-30" x="63.623047"/>
      </g>
     </g>
    </g>
    <g id="ytick_2">
     <g id="line2d_8">
      <g>
       <use xlink:href="#m9d3d6283a3" x="67.34" y="350.788736" style="stroke: #000000; stroke-width: 0.8"/>
      </g>
     </g>
     <g id="text_9">
      <!-- 15 -->
      <g transform="translate(34.89 358.387174) scale(0.2 -0.2)">
       <use xlink:href="#DejaVuSans-31"/>
       <use xlink:href="#DejaVuSans-35" x="63.623047"/>
      </g>
     </g>
    </g>
    <g id="ytick_3">
     <g id="line2d_9">
      <g>
       <use xlink:href="#m9d3d6283a3" x="67.34" y="246.910847" style="stroke: #000000; stroke-width: 0.8"/>
      </g>
     </g>
     <g id="text_10">
      <!-- 20 -->
      <g transform="translate(34.89 254.509284) scale(0.2 -0.2)">
       <use xlink:href="#DejaVuSans-32"/>
       <use xlink:href="#DejaVuSans-30" x="63.623047"/>
      </g>
     </g>
    </g>
    <g id="ytick_4">
     <g id="line2d_10">
      <g>
       <use xlink:href="#m9d3d6283a3" x="67.34" y="143.032957" style="stroke: #000000; stroke-width: 0.8"/>
      </g>
     </g>
     <g id="text_11">
      <!-- 25 -->
      <g transform="translate(34.89 150.631395) scale(0.2 -0.2)">
       <use xlink:href="#DejaVuSans-32"/>
       <use xlink:href="#DejaVuSans-35" x="63.623047"/>
      </g>
     </g>
    </g>
    <g id="ytick_5">
     <g id="line2d_11">
      <g>
       <use xlink:href="#m9d3d6283a3" x="67.34" y="39.155068" style="stroke: #000000; stroke-width: 0.8"/>
      </g>
     </g>
     <g id="text_12">
      <!-- 30 -->
      <g transform="translate(34.89 46.753506) scale(0.2 -0.2)">
       <use xlink:href="#DejaVuSans-33"/>
       <use xlink:href="#DejaVuSans-30" x="63.623047"/>
      </g>
     </g>
    </g>
    <g id="text_13">
     <!-- MAE -->
     <g transform="translate(26.730625 272.4635) rotate(-90) scale(0.2 -0.2)">
      <defs>
       <path id="DejaVuSans-4d" d="M 628 4666 
L 1569 4666 
L 2759 1491 
L 3956 4666 
L 4897 4666 
L 4897 0 
L 4281 0 
L 4281 4097 
L 3078 897 
L 2444 897 
L 1241 4097 
L 1241 0 
L 628 0 
L 628 4666 
z
" transform="scale(0.015625)"/>
       <path id="DejaVuSans-41" d="M 2188 4044 
L 1331 1722 
L 3047 1722 
L 2188 4044 
z
M 1831 4666 
L 2547 4666 
L 4325 0 
L 3669 0 
L 3244 1197 
L 1141 1197 
L 716 0 
L 50 0 
L 1831 4666 
z
" transform="scale(0.015625)"/>
       <path id="DejaVuSans-45" d="M 628 4666 
L 3578 4666 
L 3578 4134 
L 1259 4134 
L 1259 2753 
L 3481 2753 
L 3481 2222 
L 1259 2222 
L 1259 531 
L 3634 531 
L 3634 0 
L 628 0 
L 628 4666 
z
" transform="scale(0.015625)"/>
      </defs>
      <use xlink:href="#DejaVuSans-4d"/>
      <use xlink:href="#DejaVuSans-41" x="86.279297"/>
      <use xlink:href="#DejaVuSans-45" x="154.6875"/>
     </g>
    </g>
   </g>
   <g id="line2d_12">
    <path d="M 116.151818 460.782172 
L 156.828333 458.903196 
L 197.504848 451.810208 
L 238.181364 446.435432 
L 278.857879 439.243021 
L 319.534394 437.744856 
L 360.210909 424.674043 
L 400.887424 416.956781 
L 441.563939 411.780702 
L 482.240455 413.960322 
L 522.91697 405.359752 
L 563.593485 394.964333 
L 604.27 378.032791 
L 644.946515 369.284313 
L 685.62303 359.209984 
L 726.299545 345.404338 
L 766.976061 345.54264 
L 807.652576 339.910585 
L 848.329091 339.280794 
L 889.005606 309.358392 
L 929.682121 293.305854 
L 970.358636 289.37877 
L 1011.035152 266.184162 
L 1051.711667 273.72862 
L 1092.388182 267.337953 
" clip-path="url(#pe64a79fb82)" style="fill: none; stroke: #f77189; stroke-width: 1.5; stroke-linecap: square"/>
   </g>
   <g id="line2d_13">
    <path d="M 116.151818 451.919683 
L 156.828333 451.158627 
L 197.504848 431.200201 
L 238.181364 430.598751 
L 278.857879 420.625392 
L 319.534394 415.365979 
L 360.210909 404.487559 
L 400.887424 399.003807 
L 441.563939 398.890565 
L 482.240455 401.194366 
L 522.91697 391.450385 
L 563.593485 382.330769 
L 604.27 372.93581 
L 644.946515 355.691586 
L 685.62303 356.665882 
L 726.299545 352.047076 
L 766.976061 349.064053 
L 807.652576 339.582591 
L 848.329091 327.758071 
L 889.005606 292.557722 
L 929.682121 279.759977 
L 970.358636 296.317535 
L 1011.035152 275.566299 
L 1051.711667 292.857243 
L 1092.388182 286.224394 
" clip-path="url(#pe64a79fb82)" style="fill: none; stroke: #e18632; stroke-width: 1.5; stroke-linecap: square"/>
   </g>
   <g id="line2d_14">
    <path d="M 116.151818 454.054248 
L 156.828333 454.792126 
L 197.504848 444.684529 
L 238.181364 440.077288 
L 278.857879 429.921804 
L 319.534394 419.526422 
L 360.210909 412.847608 
L 400.887424 405.499424 
L 441.563939 405.699779 
L 482.240455 402.916847 
L 522.91697 392.583951 
L 563.593485 372.998726 
L 604.27 365.690301 
L 644.946515 353.469928 
L 685.62303 347.435208 
L 726.299545 332.277176 
L 766.976061 332.199523 
L 807.652576 319.468842 
L 848.329091 319.184763 
L 889.005606 287.926718 
L 929.682121 281.964257 
L 970.358636 280.278397 
L 1011.035152 249.631812 
L 1051.711667 259.46403 
L 1092.388182 248.857906 
" clip-path="url(#pe64a79fb82)" style="fill: none; stroke: #b59a32; stroke-width: 1.5; stroke-linecap: square"/>
   </g>
   <g id="line2d_15">
    <path d="M 116.151818 449.10548 
L 156.828333 452.473722 
L 197.504848 434.563514 
L 238.181364 436.865805 
L 278.857879 429.278743 
L 319.534394 416.69843 
L 360.210909 408.297265 
L 400.887424 396.802766 
L 441.563939 400.879217 
L 482.240455 391.299991 
L 522.91697 380.644856 
L 563.593485 362.741742 
L 604.27 357.301913 
L 644.946515 340.166805 
L 685.62303 317.028085 
L 726.299545 315.043961 
L 766.976061 313.598255 
L 807.652576 297.910925 
L 848.329091 298.705817 
L 889.005606 260.697232 
L 929.682121 247.065527 
L 970.358636 242.153 
L 1011.035152 226.554264 
L 1051.711667 224.884179 
L 1092.388182 213.202318 
" clip-path="url(#pe64a79fb82)" style="fill: none; stroke: #8ba731; stroke-width: 1.5; stroke-linecap: square"/>
   </g>
   <g id="line2d_16">
    <path d="M 116.151818 462.08368 
L 156.828333 463.898148 
L 197.504848 454.111067 
L 238.181364 450.228661 
L 278.857879 437.62266 
L 319.534394 438.399657 
L 360.210909 424.5578 
L 400.887424 421.840788 
L 441.563939 410.515703 
L 482.240455 417.233839 
L 522.91697 402.853903 
L 563.593485 387.549945 
L 604.27 375.737296 
L 644.946515 369.929981 
L 685.62303 355.676315 
L 726.299545 342.569925 
L 766.976061 346.496877 
L 807.652576 331.341889 
L 848.329091 331.815349 
L 889.005606 291.703849 
L 929.682121 279.205029 
L 970.358636 290.226919 
L 1011.035152 290.479441 
L 1051.711667 295.122161 
L 1092.388182 296.166194 
" clip-path="url(#pe64a79fb82)" style="fill: none; stroke: #32b258; stroke-width: 1.5; stroke-linecap: square"/>
   </g>
   <g id="line2d_17">
    <path d="M 116.151818 393.723037 
L 156.828333 399.002059 
L 197.504848 375.648137 
L 238.181364 368.740821 
L 278.857879 355.569171 
L 319.534394 341.429691 
L 360.210909 311.410016 
L 400.887424 314.314852 
L 441.563939 308.454537 
L 482.240455 296.477068 
L 522.91697 286.560049 
L 563.593485 274.494936 
L 604.27 247.191899 
L 644.946515 240.404996 
L 685.62303 241.874539 
L 726.299545 232.200854 
L 766.976061 220.930626 
L 807.652576 217.997432 
L 848.329091 200.261723 
L 889.005606 170.484653 
L 929.682121 163.070187 
L 970.358636 192.868543 
L 1011.035152 183.656219 
L 1051.711667 204.24103 
L 1092.388182 196.434883 
" clip-path="url(#pe64a79fb82)" style="fill: none; stroke: #35ae95; stroke-width: 1.5; stroke-linecap: square"/>
   </g>
   <g id="line2d_18">
    <path d="M 116.151818 442.873979 
L 156.828333 435.024513 
L 197.504848 422.110641 
L 238.181364 410.375729 
L 278.857879 389.125283 
L 319.534394 380.561885 
L 360.210909 362.85264 
L 400.887424 364.045456 
L 441.563939 355.299272 
L 482.240455 359.893985 
L 522.91697 345.15307 
L 563.593485 328.747133 
L 604.27 313.592543 
L 644.946515 302.206064 
L 685.62303 268.952092 
L 726.299545 264.846575 
L 766.976061 279.321498 
L 807.652576 259.262013 
L 848.329091 244.121355 
L 889.005606 203.987976 
L 929.682121 210.536859 
L 970.358636 205.05825 
L 1011.035152 170.678292 
L 1051.711667 147.199778 
L 1092.388182 149.287324 
" clip-path="url(#pe64a79fb82)" style="fill: none; stroke: #37abb2; stroke-width: 1.5; stroke-linecap: square"/>
   </g>
   <g id="line2d_19">
    <path d="M 116.151818 374.040654 
L 156.828333 375.020689 
L 197.504848 369.094293 
L 238.181364 371.383938 
L 278.857879 362.272553 
L 319.534394 359.479671 
L 360.210909 351.329734 
L 400.887424 347.016838 
L 441.563939 346.92393 
L 482.240455 349.826474 
L 522.91697 344.838228 
L 563.593485 328.985586 
L 604.27 317.503914 
L 644.946515 313.433984 
L 685.62303 313.339986 
L 726.299545 308.127752 
L 766.976061 308.238638 
L 807.652576 277.941493 
L 848.329091 272.883621 
L 889.005606 243.447455 
L 929.682121 242.136752 
L 970.358636 239.692424 
L 1011.035152 215.153531 
L 1051.711667 236.779217 
L 1092.388182 228.524916 
" clip-path="url(#pe64a79fb82)" style="fill: none; stroke: #39a7d6; stroke-width: 1.5; stroke-linecap: square"/>
   </g>
   <g id="line2d_20">
    <path d="M 116.151818 378.217349 
L 156.828333 381.295659 
L 197.504848 370.67985 
L 238.181364 370.765096 
L 278.857879 357.905813 
L 319.534394 352.083839 
L 360.210909 335.035185 
L 400.887424 336.327576 
L 441.563939 332.208329 
L 482.240455 332.497037 
L 522.91697 319.781128 
L 563.593485 307.595704 
L 604.27 293.103262 
L 644.946515 289.835744 
L 685.62303 266.404091 
L 726.299545 270.508275 
L 766.976061 269.394966 
L 807.652576 241.854986 
L 848.329091 213.017281 
L 889.005606 169.500314 
L 929.682121 161.776564 
L 970.358636 144.935182 
L 1011.035152 134.424039 
L 1051.711667 139.55268 
L 1092.388182 132.361972 
" clip-path="url(#pe64a79fb82)" style="fill: none; stroke: #8f93f4; stroke-width: 1.5; stroke-linecap: square"/>
   </g>
   <g id="line2d_21">
    <path d="M 116.151818 378.220698 
L 156.828333 381.298147 
L 197.504848 370.685991 
L 238.181364 370.765165 
L 278.857879 357.909475 
L 319.534394 352.086747 
L 360.210909 335.036971 
L 400.887424 336.316632 
L 441.563939 332.213269 
L 482.240455 332.477885 
L 522.91697 319.78742 
L 563.593485 307.603356 
L 604.27 293.111847 
L 644.946515 289.852552 
L 685.62303 266.396009 
L 726.299545 270.509678 
L 766.976061 269.3768 
L 807.652576 241.854193 
L 848.329091 213.017673 
L 889.005606 169.501568 
L 929.682121 161.76161 
L 970.358636 144.944159 
L 1011.035152 134.447792 
L 1051.711667 139.56302 
L 1092.388182 132.363047 
" clip-path="url(#pe64a79fb82)" style="fill: none; stroke: #db70f4; stroke-width: 1.5; stroke-linecap: square"/>
   </g>
   <g id="line2d_22">
    <path d="M 116.151818 421.746826 
L 156.828333 414.27414 
L 197.504848 399.901331 
L 238.181364 389.89661 
L 278.857879 363.082476 
L 319.534394 360.937916 
L 360.210909 344.229733 
L 400.887424 337.352479 
L 441.563939 329.270888 
L 482.240455 329.371238 
L 522.91697 307.004561 
L 563.593485 320.583645 
L 604.27 281.550749 
L 644.946515 270.326373 
L 685.62303 234.913503 
L 726.299545 248.43103 
L 766.976061 246.668266 
L 807.652576 207.092119 
L 848.329091 203.209216 
L 889.005606 162.55131 
L 929.682121 192.735022 
L 970.358636 166.164904 
L 1011.035152 142.795715 
L 1051.711667 114.716265 
L 1092.388182 101.545847 
" clip-path="url(#pe64a79fb82)" style="fill: none; stroke: #f667c6; stroke-width: 1.5; stroke-linecap: square"/>
   </g>
   <g id="line2d_23"/>
   <g id="line2d_24"/>
   <g id="line2d_25"/>
   <g id="line2d_26"/>
   <g id="line2d_27"/>
   <g id="line2d_28"/>
   <g id="line2d_29"/>
   <g id="line2d_30"/>
   <g id="line2d_31"/>
   <g id="line2d_32"/>
   <g id="line2d_33"/>
   <g id="patch_3">
    <path d="M 67.34 490.552 
L 67.34 10.8 
" style="fill: none; stroke: #000000; stroke-width: 0.8; stroke-linejoin: miter; stroke-linecap: square"/>
   </g>
   <g id="patch_4">
    <path d="M 1141.2 490.552 
L 1141.2 10.8 
" style="fill: none; stroke: #000000; stroke-width: 0.8; stroke-linejoin: miter; stroke-linecap: square"/>
   </g>
   <g id="patch_5">
    <path d="M 67.34 490.552 
L 1141.2 490.552 
" style="fill: none; stroke: #000000; stroke-width: 0.8; stroke-linejoin: miter; stroke-linecap: square"/>
   </g>
   <g id="patch_6">
    <path d="M 67.34 10.8 
L 1141.2 10.8 
" style="fill: none; stroke: #000000; stroke-width: 0.8; stroke-linejoin: miter; stroke-linecap: square"/>
   </g>
   <g id="legend_1">
    <g id="patch_7">
     <path d="M 78.54 482.552 
L 248.285 482.552 
Q 251.485 482.552 251.485 479.352 
L 251.485 222.617 
Q 251.485 219.417 248.285 219.417 
L 78.54 219.417 
Q 75.34 219.417 75.34 222.617 
L 75.34 479.352 
Q 75.34 482.552 78.54 482.552 
z
" style="fill: #ffffff; opacity: 0.8; stroke: #cccccc; stroke-linejoin: miter"/>
    </g>
    <g id="line2d_34">
     <path d="M 81.74 232.3745 
L 97.74 232.3745 
L 113.74 232.3745 
" style="fill: none; stroke: #f77189; stroke-width: 1.5; stroke-linecap: square"/>
    </g>
    <g id="text_14">
     <!-- gbr -->
     <g transform="translate(126.54 237.9745) scale(0.16 -0.16)">
      <defs>
       <path id="DejaVuSans-62" d="M 3116 1747 
Q 3116 2381 2855 2742 
Q 2594 3103 2138 3103 
Q 1681 3103 1420 2742 
Q 1159 2381 1159 1747 
Q 1159 1113 1420 752 
Q 1681 391 2138 391 
Q 2594 391 2855 752 
Q 3116 1113 3116 1747 
z
M 1159 2969 
Q 1341 3281 1617 3432 
Q 1894 3584 2278 3584 
Q 2916 3584 3314 3078 
Q 3713 2572 3713 1747 
Q 3713 922 3314 415 
Q 2916 -91 2278 -91 
Q 1894 -91 1617 61 
Q 1341 213 1159 525 
L 1159 0 
L 581 0 
L 581 4863 
L 1159 4863 
L 1159 2969 
z
" transform="scale(0.015625)"/>
      </defs>
      <use xlink:href="#DejaVuSans-67"/>
      <use xlink:href="#DejaVuSans-62" x="63.476562"/>
      <use xlink:href="#DejaVuSans-72" x="126.953125"/>
     </g>
    </g>
    <g id="line2d_35">
     <path d="M 81.74 255.8595 
L 97.74 255.8595 
L 113.74 255.8595 
" style="fill: none; stroke: #e18632; stroke-width: 1.5; stroke-linecap: square"/>
    </g>
    <g id="text_15">
     <!-- BayesianRidge -->
     <g transform="translate(126.54 261.4595) scale(0.16 -0.16)">
      <defs>
       <path id="DejaVuSans-42" d="M 1259 2228 
L 1259 519 
L 2272 519 
Q 2781 519 3026 730 
Q 3272 941 3272 1375 
Q 3272 1813 3026 2020 
Q 2781 2228 2272 2228 
L 1259 2228 
z
M 1259 4147 
L 1259 2741 
L 2194 2741 
Q 2656 2741 2882 2914 
Q 3109 3088 3109 3444 
Q 3109 3797 2882 3972 
Q 2656 4147 2194 4147 
L 1259 4147 
z
M 628 4666 
L 2241 4666 
Q 2963 4666 3353 4366 
Q 3744 4066 3744 3513 
Q 3744 3084 3544 2831 
Q 3344 2578 2956 2516 
Q 3422 2416 3680 2098 
Q 3938 1781 3938 1306 
Q 3938 681 3513 340 
Q 3088 0 2303 0 
L 628 0 
L 628 4666 
z
" transform="scale(0.015625)"/>
       <path id="DejaVuSans-79" d="M 2059 -325 
Q 1816 -950 1584 -1140 
Q 1353 -1331 966 -1331 
L 506 -1331 
L 506 -850 
L 844 -850 
Q 1081 -850 1212 -737 
Q 1344 -625 1503 -206 
L 1606 56 
L 191 3500 
L 800 3500 
L 1894 763 
L 2988 3500 
L 3597 3500 
L 2059 -325 
z
" transform="scale(0.015625)"/>
       <path id="DejaVuSans-52" d="M 2841 2188 
Q 3044 2119 3236 1894 
Q 3428 1669 3622 1275 
L 4263 0 
L 3584 0 
L 2988 1197 
Q 2756 1666 2539 1819 
Q 2322 1972 1947 1972 
L 1259 1972 
L 1259 0 
L 628 0 
L 628 4666 
L 2053 4666 
Q 2853 4666 3247 4331 
Q 3641 3997 3641 3322 
Q 3641 2881 3436 2590 
Q 3231 2300 2841 2188 
z
M 1259 4147 
L 1259 2491 
L 2053 2491 
Q 2509 2491 2742 2702 
Q 2975 2913 2975 3322 
Q 2975 3731 2742 3939 
Q 2509 4147 2053 4147 
L 1259 4147 
z
" transform="scale(0.015625)"/>
      </defs>
      <use xlink:href="#DejaVuSans-42"/>
      <use xlink:href="#DejaVuSans-61" x="68.603516"/>
      <use xlink:href="#DejaVuSans-79" x="129.882812"/>
      <use xlink:href="#DejaVuSans-65" x="189.0625"/>
      <use xlink:href="#DejaVuSans-73" x="250.585938"/>
      <use xlink:href="#DejaVuSans-69" x="302.685547"/>
      <use xlink:href="#DejaVuSans-61" x="330.46875"/>
      <use xlink:href="#DejaVuSans-6e" x="391.748047"/>
      <use xlink:href="#DejaVuSans-52" x="455.126953"/>
      <use xlink:href="#DejaVuSans-69" x="524.609375"/>
      <use xlink:href="#DejaVuSans-64" x="552.392578"/>
      <use xlink:href="#DejaVuSans-67" x="615.869141"/>
      <use xlink:href="#DejaVuSans-65" x="679.345703"/>
     </g>
    </g>
    <g id="line2d_36">
     <path d="M 81.74 279.3445 
L 97.74 279.3445 
L 113.74 279.3445 
" style="fill: none; stroke: #b59a32; stroke-width: 1.5; stroke-linecap: square"/>
    </g>
    <g id="text_16">
     <!-- rf -->
     <g transform="translate(126.54 284.9445) scale(0.16 -0.16)">
      <defs>
       <path id="DejaVuSans-66" d="M 2375 4863 
L 2375 4384 
L 1825 4384 
Q 1516 4384 1395 4259 
Q 1275 4134 1275 3809 
L 1275 3500 
L 2222 3500 
L 2222 3053 
L 1275 3053 
L 1275 0 
L 697 0 
L 697 3053 
L 147 3053 
L 147 3500 
L 697 3500 
L 697 3744 
Q 697 4328 969 4595 
Q 1241 4863 1831 4863 
L 2375 4863 
z
" transform="scale(0.015625)"/>
      </defs>
      <use xlink:href="#DejaVuSans-72"/>
      <use xlink:href="#DejaVuSans-66" x="41.113281"/>
     </g>
    </g>
    <g id="line2d_37">
     <path d="M 81.74 302.8295 
L 97.74 302.8295 
L 113.74 302.8295 
" style="fill: none; stroke: #8ba731; stroke-width: 1.5; stroke-linecap: square"/>
    </g>
    <g id="text_17">
     <!-- lgbm -->
     <g transform="translate(126.54 308.4295) scale(0.16 -0.16)">
      <use xlink:href="#DejaVuSans-6c"/>
      <use xlink:href="#DejaVuSans-67" x="27.783203"/>
      <use xlink:href="#DejaVuSans-62" x="91.259766"/>
      <use xlink:href="#DejaVuSans-6d" x="154.736328"/>
     </g>
    </g>
    <g id="line2d_38">
     <path d="M 81.74 326.3145 
L 97.74 326.3145 
L 113.74 326.3145 
" style="fill: none; stroke: #32b258; stroke-width: 1.5; stroke-linecap: square"/>
    </g>
    <g id="text_18">
     <!-- xgb -->
     <g transform="translate(126.54 331.9145) scale(0.16 -0.16)">
      <defs>
       <path id="DejaVuSans-78" d="M 3513 3500 
L 2247 1797 
L 3578 0 
L 2900 0 
L 1881 1375 
L 863 0 
L 184 0 
L 1544 1831 
L 300 3500 
L 978 3500 
L 1906 2253 
L 2834 3500 
L 3513 3500 
z
" transform="scale(0.015625)"/>
      </defs>
      <use xlink:href="#DejaVuSans-78"/>
      <use xlink:href="#DejaVuSans-67" x="59.179688"/>
      <use xlink:href="#DejaVuSans-62" x="122.65625"/>
     </g>
    </g>
    <g id="line2d_39">
     <path d="M 81.74 349.7995 
L 97.74 349.7995 
L 113.74 349.7995 
" style="fill: none; stroke: #35ae95; stroke-width: 1.5; stroke-linecap: square"/>
    </g>
    <g id="text_19">
     <!-- HubR -->
     <g transform="translate(126.54 355.3995) scale(0.16 -0.16)">
      <defs>
       <path id="DejaVuSans-75" d="M 544 1381 
L 544 3500 
L 1119 3500 
L 1119 1403 
Q 1119 906 1312 657 
Q 1506 409 1894 409 
Q 2359 409 2629 706 
Q 2900 1003 2900 1516 
L 2900 3500 
L 3475 3500 
L 3475 0 
L 2900 0 
L 2900 538 
Q 2691 219 2414 64 
Q 2138 -91 1772 -91 
Q 1169 -91 856 284 
Q 544 659 544 1381 
z
M 1991 3584 
L 1991 3584 
z
" transform="scale(0.015625)"/>
      </defs>
      <use xlink:href="#DejaVuSans-48"/>
      <use xlink:href="#DejaVuSans-75" x="75.195312"/>
      <use xlink:href="#DejaVuSans-62" x="138.574219"/>
      <use xlink:href="#DejaVuSans-52" x="202.050781"/>
     </g>
    </g>
    <g id="line2d_40">
     <path d="M 81.74 373.2845 
L 97.74 373.2845 
L 113.74 373.2845 
" style="fill: none; stroke: #37abb2; stroke-width: 1.5; stroke-linecap: square"/>
    </g>
    <g id="text_20">
     <!-- et -->
     <g transform="translate(126.54 378.8845) scale(0.16 -0.16)">
      <use xlink:href="#DejaVuSans-65"/>
      <use xlink:href="#DejaVuSans-74" x="61.523438"/>
     </g>
    </g>
    <g id="line2d_41">
     <path d="M 81.74 396.7695 
L 97.74 396.7695 
L 113.74 396.7695 
" style="fill: none; stroke: #39a7d6; stroke-width: 1.5; stroke-linecap: square"/>
    </g>
    <g id="text_21">
     <!-- Adaboost -->
     <g transform="translate(126.54 402.3695) scale(0.16 -0.16)">
      <use xlink:href="#DejaVuSans-41"/>
      <use xlink:href="#DejaVuSans-64" x="66.658203"/>
      <use xlink:href="#DejaVuSans-61" x="130.134766"/>
      <use xlink:href="#DejaVuSans-62" x="191.414062"/>
      <use xlink:href="#DejaVuSans-6f" x="254.890625"/>
      <use xlink:href="#DejaVuSans-6f" x="316.072266"/>
      <use xlink:href="#DejaVuSans-73" x="377.253906"/>
      <use xlink:href="#DejaVuSans-74" x="429.353516"/>
     </g>
    </g>
    <g id="line2d_42">
     <path d="M 81.74 420.2545 
L 97.74 420.2545 
L 113.74 420.2545 
" style="fill: none; stroke: #8f93f4; stroke-width: 1.5; stroke-linecap: square"/>
    </g>
    <g id="text_22">
     <!-- Lasso -->
     <g transform="translate(126.54 425.8545) scale(0.16 -0.16)">
      <defs>
       <path id="DejaVuSans-4c" d="M 628 4666 
L 1259 4666 
L 1259 531 
L 3531 531 
L 3531 0 
L 628 0 
L 628 4666 
z
" transform="scale(0.015625)"/>
      </defs>
      <use xlink:href="#DejaVuSans-4c"/>
      <use xlink:href="#DejaVuSans-61" x="55.712891"/>
      <use xlink:href="#DejaVuSans-73" x="116.992188"/>
      <use xlink:href="#DejaVuSans-73" x="169.091797"/>
      <use xlink:href="#DejaVuSans-6f" x="221.191406"/>
     </g>
    </g>
    <g id="line2d_43">
     <path d="M 81.74 443.7395 
L 97.74 443.7395 
L 113.74 443.7395 
" style="fill: none; stroke: #db70f4; stroke-width: 1.5; stroke-linecap: square"/>
    </g>
    <g id="text_23">
     <!-- LassoLars -->
     <g transform="translate(126.54 449.3395) scale(0.16 -0.16)">
      <use xlink:href="#DejaVuSans-4c"/>
      <use xlink:href="#DejaVuSans-61" x="55.712891"/>
      <use xlink:href="#DejaVuSans-73" x="116.992188"/>
      <use xlink:href="#DejaVuSans-73" x="169.091797"/>
      <use xlink:href="#DejaVuSans-6f" x="221.191406"/>
      <use xlink:href="#DejaVuSans-4c" x="282.373047"/>
      <use xlink:href="#DejaVuSans-61" x="338.085938"/>
      <use xlink:href="#DejaVuSans-72" x="399.365234"/>
      <use xlink:href="#DejaVuSans-73" x="440.478516"/>
     </g>
    </g>
    <g id="line2d_44">
     <path d="M 81.74 467.2245 
L 97.74 467.2245 
L 113.74 467.2245 
" style="fill: none; stroke: #f667c6; stroke-width: 1.5; stroke-linecap: square"/>
    </g>
    <g id="text_24">
     <!-- dt -->
     <g transform="translate(126.54 472.8245) scale(0.16 -0.16)">
      <use xlink:href="#DejaVuSans-64"/>
      <use xlink:href="#DejaVuSans-74" x="63.476562"/>
     </g>
    </g>
   </g>
  </g>
 </g>
 <defs>
  <clipPath id="pe64a79fb82">
   <rect x="67.34" y="10.8" width="1073.86" height="479.752"/>
  </clipPath>
 </defs>
</svg>
