<?xml version="1.0" encoding="utf-8" standalone="no"?>
<!DOCTYPE svg PUBLIC "-//W3C//DTD SVG 1.1//EN"
  "http://www.w3.org/Graphics/SVG/1.1/DTD/svg11.dtd">
<svg xmlns:xlink="http://www.w3.org/1999/xlink" width="1152pt" height="576pt" viewBox="0 0 1152 576" xmlns="http://www.w3.org/2000/svg" version="1.1">
 <metadata>
  <rdf:RDF xmlns:dc="http://purl.org/dc/elements/1.1/" xmlns:cc="http://creativecommons.org/ns#" xmlns:rdf="http://www.w3.org/1999/02/22-rdf-syntax-ns#">
   <cc:Work>
    <dc:type rdf:resource="http://purl.org/dc/dcmitype/StillImage"/>
    <dc:date>2025-04-21T10:20:55.481921</dc:date>
    <dc:format>image/svg+xml</dc:format>
    <dc:creator>
     <cc:Agent>
      <dc:title>Matplotlib v3.7.1, https://matplotlib.org/</dc:title>
     </cc:Agent>
    </dc:creator>
   </cc:Work>
  </rdf:RDF>
 </metadata>
 <defs>
  <style type="text/css">*{stroke-linejoin: round; stroke-linecap: butt}</style>
 </defs>
 <g id="figure_1">
  <g id="patch_1">
   <path d="M 0 576 
L 1152 576 
L 1152 0 
L 0 0 
z
" style="fill: #ffffff"/>
  </g>
  <g id="axes_1">
   <g id="patch_2">
    <path d="M 92.72 490.552 
L 1141.2 490.552 
L 1141.2 10.8 
L 92.72 10.8 
z
" style="fill: #ffffff"/>
   </g>
   <g id="PolyCollection_1">
    <defs>
     <path id="m39e103ebef" d="M 140.378182 -118.277384 
L 140.378182 -107.297395 
L 180.093333 -110.3542 
L 219.808485 -108.410358 
L 259.523636 -107.254909 
L 299.238788 -108.990613 
L 338.953939 -107.769043 
L 378.669091 -112.115601 
L 418.384242 -116.352681 
L 458.099394 -118.588058 
L 497.814545 -121.001176 
L 537.529697 -122.859818 
L 577.244848 -126.665775 
L 616.96 -139.209174 
L 656.675152 -140.156533 
L 696.390303 -143.195632 
L 736.105455 -148.157873 
L 775.820606 -151.136841 
L 815.535758 -153.409628 
L 855.250909 -150.818658 
L 894.966061 -158.418242 
L 934.681212 -170.339488 
L 974.396364 -167.475014 
L 1014.111515 -168.09051 
L 1053.826667 -171.462219 
L 1093.541818 -179.421853 
L 1093.541818 -250.010043 
L 1093.541818 -250.010043 
L 1053.826667 -252.276121 
L 1014.111515 -251.157299 
L 974.396364 -213.6199 
L 934.681212 -211.782726 
L 894.966061 -207.527119 
L 855.250909 -180.97112 
L 815.535758 -175.244739 
L 775.820606 -181.884793 
L 736.105455 -179.45278 
L 696.390303 -167.891787 
L 656.675152 -154.031481 
L 616.96 -159.446201 
L 577.244848 -142.714675 
L 537.529697 -137.216395 
L 497.814545 -126.333207 
L 458.099394 -136.932871 
L 418.384242 -132.400501 
L 378.669091 -127.534996 
L 338.953939 -122.115554 
L 299.238788 -125.69879 
L 259.523636 -119.832466 
L 219.808485 -119.018601 
L 180.093333 -113.426861 
L 140.378182 -118.277384 
z
" style="stroke: #f77189; stroke-opacity: 0.2"/>
    </defs>
    <g clip-path="url(#pc7306c2e46)">
     <use xlink:href="#m39e103ebef" x="0" y="576" style="fill: #f77189; fill-opacity: 0.2; stroke: #f77189; stroke-opacity: 0.2"/>
    </g>
   </g>
   <g id="PolyCollection_2">
    <defs>
     <path id="mdb9432091b" d="M 140.378182 -121.834828 
L 140.378182 -113.342508 
L 180.093333 -114.434737 
L 219.808485 -115.774543 
L 259.523636 -114.034948 
L 299.238788 -118.522663 
L 338.953939 -118.277494 
L 378.669091 -126.683976 
L 418.384242 -126.297366 
L 458.099394 -125.35776 
L 497.814545 -123.992623 
L 537.529697 -128.565648 
L 577.244848 -130.451169 
L 616.96 -139.789529 
L 656.675152 -142.318977 
L 696.390303 -148.600095 
L 736.105455 -145.501365 
L 775.820606 -152.772716 
L 815.535758 -154.289444 
L 855.250909 -157.589177 
L 894.966061 -173.854096 
L 934.681212 -180.746553 
L 974.396364 -177.141173 
L 1014.111515 -176.567369 
L 1053.826667 -173.953718 
L 1093.541818 -182.703725 
L 1093.541818 -215.333465 
L 1093.541818 -215.333465 
L 1053.826667 -213.141152 
L 1014.111515 -239.757174 
L 974.396364 -205.739475 
L 934.681212 -232.332174 
L 894.966061 -225.178344 
L 855.250909 -183.156151 
L 815.535758 -165.868643 
L 775.820606 -164.930756 
L 736.105455 -167.73322 
L 696.390303 -157.648759 
L 656.675152 -157.473007 
L 616.96 -153.497153 
L 577.244848 -141.057834 
L 537.529697 -139.136846 
L 497.814545 -133.909827 
L 458.099394 -136.834113 
L 418.384242 -138.098339 
L 378.669091 -134.14432 
L 338.953939 -126.636792 
L 299.238788 -130.510538 
L 259.523636 -122.453179 
L 219.808485 -131.002159 
L 180.093333 -119.26753 
L 140.378182 -121.834828 
z
" style="stroke: #e18632; stroke-opacity: 0.2"/>
    </defs>
    <g clip-path="url(#pc7306c2e46)">
     <use xlink:href="#mdb9432091b" x="0" y="576" style="fill: #e18632; fill-opacity: 0.2; stroke: #e18632; stroke-opacity: 0.2"/>
    </g>
   </g>
   <g id="PolyCollection_3">
    <defs>
     <path id="mad04ec7c13" d="M 140.378182 -131.29191 
L 140.378182 -123.188835 
L 180.093333 -121.032755 
L 219.808485 -120.038552 
L 259.523636 -116.125156 
L 299.238788 -121.198887 
L 338.953939 -121.571698 
L 378.669091 -131.571184 
L 418.384242 -129.404288 
L 458.099394 -129.820802 
L 497.814545 -131.11081 
L 537.529697 -136.708023 
L 577.244848 -144.848108 
L 616.96 -154.248814 
L 656.675152 -154.601507 
L 696.390303 -157.90198 
L 736.105455 -164.028582 
L 775.820606 -166.723561 
L 815.535758 -173.896962 
L 855.250909 -174.778724 
L 894.966061 -184.464944 
L 934.681212 -189.081273 
L 974.396364 -191.62874 
L 1014.111515 -196.990203 
L 1053.826667 -201.905699 
L 1093.541818 -205.867175 
L 1093.541818 -282.089232 
L 1093.541818 -282.089232 
L 1053.826667 -276.603008 
L 1014.111515 -282.205763 
L 974.396364 -232.940463 
L 934.681212 -223.296808 
L 894.966061 -221.493839 
L 855.250909 -200.429061 
L 815.535758 -206.300362 
L 775.820606 -196.174443 
L 736.105455 -200.276761 
L 696.390303 -182.702867 
L 656.675152 -175.084023 
L 616.96 -187.44469 
L 577.244848 -170.018926 
L 537.529697 -149.851849 
L 497.814545 -139.616146 
L 458.099394 -145.821927 
L 418.384242 -142.508513 
L 378.669091 -137.97126 
L 338.953939 -141.328147 
L 299.238788 -136.81024 
L 259.523636 -130.859659 
L 219.808485 -128.824398 
L 180.093333 -124.440275 
L 140.378182 -131.29191 
z
" style="stroke: #b59a32; stroke-opacity: 0.2"/>
    </defs>
    <g clip-path="url(#pc7306c2e46)">
     <use xlink:href="#mad04ec7c13" x="0" y="576" style="fill: #b59a32; fill-opacity: 0.2; stroke: #b59a32; stroke-opacity: 0.2"/>
    </g>
   </g>
   <g id="PolyCollection_4">
    <defs>
     <path id="m517571b917" d="M 140.378182 -129.078464 
L 140.378182 -120.201293 
L 180.093333 -115.733697 
L 219.808485 -119.228414 
L 259.523636 -116.409636 
L 299.238788 -119.341003 
L 338.953939 -123.155782 
L 378.669091 -129.576636 
L 418.384242 -132.289175 
L 458.099394 -131.651192 
L 497.814545 -133.848516 
L 537.529697 -142.151405 
L 577.244848 -144.783457 
L 616.96 -156.726323 
L 656.675152 -161.371969 
L 696.390303 -173.097452 
L 736.105455 -170.473662 
L 775.820606 -170.50116 
L 815.535758 -180.604207 
L 855.250909 -172.70329 
L 894.966061 -187.065041 
L 934.681212 -197.061637 
L 974.396364 -199.978508 
L 1014.111515 -200.62598 
L 1053.826667 -206.713373 
L 1093.541818 -215.026213 
L 1093.541818 -303.625133 
L 1093.541818 -303.625133 
L 1053.826667 -302.489581 
L 1014.111515 -300.996416 
L 974.396364 -254.514253 
L 934.681212 -240.092223 
L 894.966061 -243.167744 
L 855.250909 -207.781749 
L 815.535758 -204.277824 
L 775.820606 -201.270817 
L 736.105455 -202.788691 
L 696.390303 -200.466839 
L 656.675152 -175.982393 
L 616.96 -176.9138 
L 577.244848 -169.038837 
L 537.529697 -152.426326 
L 497.814545 -143.21521 
L 458.099394 -144.631394 
L 418.384242 -142.82197 
L 378.669091 -136.03663 
L 338.953939 -131.706579 
L 299.238788 -129.677417 
L 259.523636 -123.241556 
L 219.808485 -129.936627 
L 180.093333 -121.237864 
L 140.378182 -129.078464 
z
" style="stroke: #8ba731; stroke-opacity: 0.2"/>
    </defs>
    <g clip-path="url(#pc7306c2e46)">
     <use xlink:href="#m517571b917" x="0" y="576" style="fill: #8ba731; fill-opacity: 0.2; stroke: #8ba731; stroke-opacity: 0.2"/>
    </g>
   </g>
   <g id="PolyCollection_5">
    <defs>
     <path id="mc57cc8706e" d="M 140.378182 -130.294904 
L 140.378182 -122.199293 
L 180.093333 -112.988663 
L 219.808485 -110.233514 
L 259.523636 -108.669069 
L 299.238788 -114.889173 
L 338.953939 -113.077463 
L 378.669091 -122.021323 
L 418.384242 -117.054491 
L 458.099394 -129.277027 
L 497.814545 -120.4045 
L 537.529697 -127.50314 
L 577.244848 -135.657715 
L 616.96 -150.097451 
L 656.675152 -143.318367 
L 696.390303 -154.550263 
L 736.105455 -146.353721 
L 775.820606 -151.279939 
L 815.535758 -166.38019 
L 855.250909 -164.637072 
L 894.966061 -171.774659 
L 934.681212 -174.829495 
L 974.396364 -169.705291 
L 1014.111515 -169.250995 
L 1053.826667 -183.084779 
L 1093.541818 -177.155088 
L 1093.541818 -216.066058 
L 1093.541818 -216.066058 
L 1053.826667 -215.929175 
L 1014.111515 -242.60972 
L 974.396364 -230.23845 
L 934.681212 -241.21432 
L 894.966061 -219.363058 
L 855.250909 -184.148351 
L 815.535758 -182.335577 
L 775.820606 -178.529308 
L 736.105455 -195.205655 
L 696.390303 -172.196705 
L 656.675152 -160.020416 
L 616.96 -159.881914 
L 577.244848 -154.117346 
L 537.529697 -143.469349 
L 497.814545 -132.054195 
L 458.099394 -141.774106 
L 418.384242 -137.766812 
L 378.669091 -131.404348 
L 338.953939 -129.478557 
L 299.238788 -135.914374 
L 259.523636 -120.096834 
L 219.808485 -124.50656 
L 180.093333 -120.942554 
L 140.378182 -130.294904 
z
" style="stroke: #32b258; stroke-opacity: 0.2"/>
    </defs>
    <g clip-path="url(#pc7306c2e46)">
     <use xlink:href="#mc57cc8706e" x="0" y="576" style="fill: #32b258; fill-opacity: 0.2; stroke: #32b258; stroke-opacity: 0.2"/>
    </g>
   </g>
   <g id="PolyCollection_6">
    <defs>
     <path id="mba1e2daa17" d="M 140.378182 -168.000135 
L 140.378182 -148.00411 
L 180.093333 -144.003827 
L 219.808485 -155.609381 
L 259.523636 -154.432281 
L 299.238788 -159.809652 
L 338.953939 -169.215351 
L 378.669091 -188.634294 
L 418.384242 -186.14605 
L 458.099394 -178.440558 
L 497.814545 -187.090588 
L 537.529697 -199.034315 
L 577.244848 -206.667961 
L 616.96 -226.338623 
L 656.675152 -234.692296 
L 696.390303 -219.143907 
L 736.105455 -241.843971 
L 775.820606 -241.178981 
L 815.535758 -256.687825 
L 855.250909 -239.684845 
L 894.966061 -252.784659 
L 934.681212 -261.357017 
L 974.396364 -264.809154 
L 1014.111515 -259.050239 
L 1053.826667 -239.765632 
L 1093.541818 -244.586485 
L 1093.541818 -318.820021 
L 1093.541818 -318.820021 
L 1053.826667 -319.350008 
L 1014.111515 -336.118397 
L 974.396364 -342.648074 
L 934.681212 -392.145075 
L 894.966061 -390.887276 
L 855.250909 -354.952705 
L 815.535758 -305.098807 
L 775.820606 -310.236232 
L 736.105455 -278.462114 
L 696.390303 -251.489927 
L 656.675152 -250.843969 
L 616.96 -244.552666 
L 577.244848 -230.296411 
L 537.529697 -216.429786 
L 497.814545 -205.811778 
L 458.099394 -203.866931 
L 418.384242 -196.876799 
L 378.669091 -200.648617 
L 338.953939 -178.934508 
L 299.238788 -173.500975 
L 259.523636 -170.071538 
L 219.808485 -165.488851 
L 180.093333 -156.958762 
L 140.378182 -168.000135 
z
" style="stroke: #35ae95; stroke-opacity: 0.2"/>
    </defs>
    <g clip-path="url(#pc7306c2e46)">
     <use xlink:href="#mba1e2daa17" x="0" y="576" style="fill: #35ae95; fill-opacity: 0.2; stroke: #35ae95; stroke-opacity: 0.2"/>
    </g>
   </g>
   <g id="PolyCollection_7">
    <defs>
     <path id="m53460baf67" d="M 140.378182 -157.207185 
L 140.378182 -136.217413 
L 180.093333 -134.576123 
L 219.808485 -138.742524 
L 259.523636 -133.582805 
L 299.238788 -150.060787 
L 338.953939 -158.247991 
L 378.669091 -172.224178 
L 418.384242 -158.628484 
L 458.099394 -172.482222 
L 497.814545 -171.274716 
L 537.529697 -167.980374 
L 577.244848 -193.930467 
L 616.96 -194.262331 
L 656.675152 -207.489241 
L 696.390303 -233.899218 
L 736.105455 -222.658269 
L 775.820606 -223.964796 
L 815.535758 -230.379312 
L 855.250909 -260.861714 
L 894.966061 -262.644501 
L 934.681212 -263.921702 
L 974.396364 -285.82144 
L 1014.111515 -275.079478 
L 1053.826667 -310.793463 
L 1093.541818 -310.047323 
L 1093.541818 -467.137103 
L 1093.541818 -467.137103 
L 1053.826667 -467.654287 
L 1014.111515 -444.797468 
L 974.396364 -335.776827 
L 934.681212 -339.566128 
L 894.966061 -363.560602 
L 855.250909 -343.744786 
L 815.535758 -326.87127 
L 775.820606 -310.995368 
L 736.105455 -332.468362 
L 696.390303 -291.89335 
L 656.675152 -237.970995 
L 616.96 -260.595733 
L 577.244848 -242.87239 
L 537.529697 -217.909739 
L 497.814545 -206.992166 
L 458.099394 -230.639872 
L 418.384242 -216.718665 
L 378.669091 -205.42914 
L 338.953939 -193.631697 
L 299.238788 -195.814847 
L 259.523636 -190.848972 
L 219.808485 -168.705827 
L 180.093333 -155.806123 
L 140.378182 -157.207185 
z
" style="stroke: #37abb2; stroke-opacity: 0.2"/>
    </defs>
    <g clip-path="url(#pc7306c2e46)">
     <use xlink:href="#m53460baf67" x="0" y="576" style="fill: #37abb2; fill-opacity: 0.2; stroke: #37abb2; stroke-opacity: 0.2"/>
    </g>
   </g>
   <g id="PolyCollection_8">
    <defs>
     <path id="m7227e88cee" d="M 140.378182 -153.889103 
L 140.378182 -142.85316 
L 180.093333 -141.302338 
L 219.808485 -141.142387 
L 259.523636 -136.957789 
L 299.238788 -143.906204 
L 338.953939 -142.327795 
L 378.669091 -148.734757 
L 418.384242 -146.314234 
L 458.099394 -145.850805 
L 497.814545 -142.187703 
L 537.529697 -150.010396 
L 577.244848 -153.782853 
L 616.96 -167.199833 
L 656.675152 -161.590963 
L 696.390303 -167.964382 
L 736.105455 -163.046981 
L 775.820606 -168.285354 
L 815.535758 -183.598596 
L 855.250909 -187.528582 
L 894.966061 -203.129577 
L 934.681212 -205.179455 
L 974.396364 -199.035123 
L 1014.111515 -197.743308 
L 1053.826667 -199.134277 
L 1093.541818 -208.062593 
L 1093.541818 -264.396762 
L 1093.541818 -264.396762 
L 1053.826667 -260.159623 
L 1014.111515 -282.797579 
L 974.396364 -236.71403 
L 934.681212 -237.367835 
L 894.966061 -240.892339 
L 855.250909 -204.442861 
L 815.535758 -204.511812 
L 775.820606 -190.213467 
L 736.105455 -196.838183 
L 696.390303 -187.8561 
L 656.675152 -183.795574 
L 616.96 -184.253222 
L 577.244848 -174.324903 
L 537.529697 -168.197404 
L 497.814545 -160.386999 
L 458.099394 -161.512432 
L 418.384242 -163.279144 
L 378.669091 -170.5096 
L 338.953939 -152.700741 
L 299.238788 -153.3277 
L 259.523636 -145.740041 
L 219.808485 -153.315315 
L 180.093333 -149.651326 
L 140.378182 -153.889103 
z
" style="stroke: #39a7d6; stroke-opacity: 0.2"/>
    </defs>
    <g clip-path="url(#pc7306c2e46)">
     <use xlink:href="#m7227e88cee" x="0" y="576" style="fill: #39a7d6; fill-opacity: 0.2; stroke: #39a7d6; stroke-opacity: 0.2"/>
    </g>
   </g>
   <g id="PolyCollection_9">
    <defs>
     <path id="m14e7ffd404" d="M 140.378182 -156.973472 
L 140.378182 -151.643526 
L 180.093333 -148.016868 
L 219.808485 -146.430677 
L 259.523636 -145.443829 
L 299.238788 -154.229598 
L 338.953939 -149.547493 
L 378.669091 -161.104838 
L 418.384242 -157.751211 
L 458.099394 -160.814858 
L 497.814545 -159.245325 
L 537.529697 -171.227638 
L 577.244848 -176.657914 
L 616.96 -195.380496 
L 656.675152 -183.79221 
L 696.390303 -199.180057 
L 736.105455 -191.373639 
L 775.820606 -197.374276 
L 815.535758 -208.518729 
L 855.250909 -216.765877 
L 894.966061 -239.9657 
L 934.681212 -249.055785 
L 974.396364 -258.459015 
L 1014.111515 -252.326504 
L 1053.826667 -255.590958 
L 1093.541818 -264.327179 
L 1093.541818 -372.233498 
L 1093.541818 -372.233498 
L 1053.826667 -361.060626 
L 1014.111515 -375.386815 
L 974.396364 -318.888266 
L 934.681212 -297.293727 
L 894.966061 -301.043621 
L 855.250909 -265.463533 
L 815.535758 -241.138552 
L 775.820606 -231.130799 
L 736.105455 -234.861679 
L 696.390303 -225.070105 
L 656.675152 -203.43777 
L 616.96 -208.303271 
L 577.244848 -192.373758 
L 537.529697 -189.330014 
L 497.814545 -171.552955 
L 458.099394 -174.695526 
L 418.384242 -179.142261 
L 378.669091 -180.371186 
L 338.953939 -166.062925 
L 299.238788 -166.920135 
L 259.523636 -154.334961 
L 219.808485 -161.67038 
L 180.093333 -155.917859 
L 140.378182 -156.973472 
z
" style="stroke: #8f93f4; stroke-opacity: 0.2"/>
    </defs>
    <g clip-path="url(#pc7306c2e46)">
     <use xlink:href="#m14e7ffd404" x="0" y="576" style="fill: #8f93f4; fill-opacity: 0.2; stroke: #8f93f4; stroke-opacity: 0.2"/>
    </g>
   </g>
   <g id="PolyCollection_10">
    <defs>
     <path id="m3225b71243" d="M 140.378182 -157.006299 
L 140.378182 -151.533592 
L 180.093333 -147.871363 
L 219.808485 -146.442535 
L 259.523636 -145.438356 
L 299.238788 -154.035126 
L 338.953939 -149.59831 
L 378.669091 -160.644623 
L 418.384242 -157.36499 
L 458.099394 -160.316913 
L 497.814545 -159.849655 
L 537.529697 -171.225381 
L 577.244848 -176.629973 
L 616.96 -194.240354 
L 656.675152 -183.704227 
L 696.390303 -199.162291 
L 736.105455 -190.571427 
L 775.820606 -197.904626 
L 815.535758 -206.537318 
L 855.250909 -216.298065 
L 894.966061 -237.400941 
L 934.681212 -246.638878 
L 974.396364 -258.161825 
L 1014.111515 -250.578787 
L 1053.826667 -254.812914 
L 1093.541818 -264.334858 
L 1093.541818 -372.320128 
L 1093.541818 -372.320128 
L 1053.826667 -369.451926 
L 1014.111515 -375.397635 
L 974.396364 -318.891297 
L 934.681212 -296.523045 
L 894.966061 -301.065781 
L 855.250909 -265.342974 
L 815.535758 -242.142797 
L 775.820606 -230.795991 
L 736.105455 -235.325112 
L 696.390303 -225.169443 
L 656.675152 -205.070055 
L 616.96 -207.951078 
L 577.244848 -192.089819 
L 537.529697 -189.21203 
L 497.814545 -171.371253 
L 458.099394 -175.133078 
L 418.384242 -179.340207 
L 378.669091 -179.98442 
L 338.953939 -165.588137 
L 299.238788 -166.191747 
L 259.523636 -154.623847 
L 219.808485 -161.712589 
L 180.093333 -155.920366 
L 140.378182 -157.006299 
z
" style="stroke: #db70f4; stroke-opacity: 0.2"/>
    </defs>
    <g clip-path="url(#pc7306c2e46)">
     <use xlink:href="#m3225b71243" x="0" y="576" style="fill: #db70f4; fill-opacity: 0.2; stroke: #db70f4; stroke-opacity: 0.2"/>
    </g>
   </g>
   <g id="PolyCollection_11">
    <defs>
     <path id="md25657976e" d="M 140.378182 -180.163556 
L 140.378182 -155.820026 
L 180.093333 -156.709289 
L 219.808485 -149.806568 
L 259.523636 -150.897298 
L 299.238788 -172.797393 
L 338.953939 -179.028943 
L 378.669091 -195.102111 
L 418.384242 -195.034861 
L 458.099394 -202.719973 
L 497.814545 -208.262324 
L 537.529697 -195.31879 
L 577.244848 -198.770493 
L 616.96 -228.963049 
L 656.675152 -250.398247 
L 696.390303 -271.797516 
L 736.105455 -245.380886 
L 775.820606 -250.24727 
L 815.535758 -285.184779 
L 855.250909 -290.232514 
L 894.966061 -295.33583 
L 934.681212 -283.30751 
L 974.396364 -321.646715 
L 1014.111515 -303.26681 
L 1053.826667 -354.120547 
L 1093.541818 -370.486943 
L 1093.541818 -543.393091 
L 1093.541818 -543.393091 
L 1053.826667 -506.03142 
L 1014.111515 -497.987408 
L 974.396364 -434.672981 
L 934.681212 -370.002658 
L 894.966061 -457.920328 
L 855.250909 -406.426295 
L 815.535758 -430.196285 
L 775.820606 -366.085439 
L 736.105455 -343.371114 
L 696.390303 -401.262863 
L 656.675152 -276.030547 
L 616.96 -309.396529 
L 577.244848 -271.841684 
L 537.529697 -298.590922 
L 497.814545 -254.613664 
L 458.099394 -275.992729 
L 418.384242 -239.237602 
L 378.669091 -225.198395 
L 338.953939 -220.738864 
L 299.238788 -237.360657 
L 259.523636 -235.749919 
L 219.808485 -201.400496 
L 180.093333 -186.802447 
L 140.378182 -180.163556 
z
" style="stroke: #f667c6; stroke-opacity: 0.2"/>
    </defs>
    <g clip-path="url(#pc7306c2e46)">
     <use xlink:href="#md25657976e" x="0" y="576" style="fill: #f667c6; fill-opacity: 0.2; stroke: #f667c6; stroke-opacity: 0.2"/>
    </g>
   </g>
   <g id="matplotlib.axis_1">
    <g id="xtick_1">
     <g id="line2d_1">
      <defs>
       <path id="m3d23edd723" d="M 0 0 
L 0 3.5 
" style="stroke: #000000; stroke-width: 0.8"/>
      </defs>
      <g>
       <use xlink:href="#m3d23edd723" x="120.520606" y="490.552" style="stroke: #000000; stroke-width: 0.8"/>
      </g>
     </g>
     <g id="text_1">
      <!-- 0 -->
      <g transform="translate(114.158106 512.748875) scale(0.2 -0.2)">
       <defs>
        <path id="DejaVuSans-30" d="M 2034 4250 
Q 1547 4250 1301 3770 
Q 1056 3291 1056 2328 
Q 1056 1369 1301 889 
Q 1547 409 2034 409 
Q 2525 409 2770 889 
Q 3016 1369 3016 2328 
Q 3016 3291 2770 3770 
Q 2525 4250 2034 4250 
z
M 2034 4750 
Q 2819 4750 3233 4129 
Q 3647 3509 3647 2328 
Q 3647 1150 3233 529 
Q 2819 -91 2034 -91 
Q 1250 -91 836 529 
Q 422 1150 422 2328 
Q 422 3509 836 4129 
Q 1250 4750 2034 4750 
z
" transform="scale(0.015625)"/>
       </defs>
       <use xlink:href="#DejaVuSans-30"/>
      </g>
     </g>
    </g>
    <g id="xtick_2">
     <g id="line2d_2">
      <g>
       <use xlink:href="#m3d23edd723" x="319.096364" y="490.552" style="stroke: #000000; stroke-width: 0.8"/>
      </g>
     </g>
     <g id="text_2">
      <!-- 10 -->
      <g transform="translate(306.371364 512.748875) scale(0.2 -0.2)">
       <defs>
        <path id="DejaVuSans-31" d="M 794 531 
L 1825 531 
L 1825 4091 
L 703 3866 
L 703 4441 
L 1819 4666 
L 2450 4666 
L 2450 531 
L 3481 531 
L 3481 0 
L 794 0 
L 794 531 
z
" transform="scale(0.015625)"/>
       </defs>
       <use xlink:href="#DejaVuSans-31"/>
       <use xlink:href="#DejaVuSans-30" x="63.623047"/>
      </g>
     </g>
    </g>
    <g id="xtick_3">
     <g id="line2d_3">
      <g>
       <use xlink:href="#m3d23edd723" x="517.672121" y="490.552" style="stroke: #000000; stroke-width: 0.8"/>
      </g>
     </g>
     <g id="text_3">
      <!-- 20 -->
      <g transform="translate(504.947121 512.748875) scale(0.2 -0.2)">
       <defs>
        <path id="DejaVuSans-32" d="M 1228 531 
L 3431 531 
L 3431 0 
L 469 0 
L 469 531 
Q 828 903 1448 1529 
Q 2069 2156 2228 2338 
Q 2531 2678 2651 2914 
Q 2772 3150 2772 3378 
Q 2772 3750 2511 3984 
Q 2250 4219 1831 4219 
Q 1534 4219 1204 4116 
Q 875 4013 500 3803 
L 500 4441 
Q 881 4594 1212 4672 
Q 1544 4750 1819 4750 
Q 2544 4750 2975 4387 
Q 3406 4025 3406 3419 
Q 3406 3131 3298 2873 
Q 3191 2616 2906 2266 
Q 2828 2175 2409 1742 
Q 1991 1309 1228 531 
z
" transform="scale(0.015625)"/>
       </defs>
       <use xlink:href="#DejaVuSans-32"/>
       <use xlink:href="#DejaVuSans-30" x="63.623047"/>
      </g>
     </g>
    </g>
    <g id="xtick_4">
     <g id="line2d_4">
      <g>
       <use xlink:href="#m3d23edd723" x="716.247879" y="490.552" style="stroke: #000000; stroke-width: 0.8"/>
      </g>
     </g>
     <g id="text_4">
      <!-- 30 -->
      <g transform="translate(703.522879 512.748875) scale(0.2 -0.2)">
       <defs>
        <path id="DejaVuSans-33" d="M 2597 2516 
Q 3050 2419 3304 2112 
Q 3559 1806 3559 1356 
Q 3559 666 3084 287 
Q 2609 -91 1734 -91 
Q 1441 -91 1130 -33 
Q 819 25 488 141 
L 488 750 
Q 750 597 1062 519 
Q 1375 441 1716 441 
Q 2309 441 2620 675 
Q 2931 909 2931 1356 
Q 2931 1769 2642 2001 
Q 2353 2234 1838 2234 
L 1294 2234 
L 1294 2753 
L 1863 2753 
Q 2328 2753 2575 2939 
Q 2822 3125 2822 3475 
Q 2822 3834 2567 4026 
Q 2313 4219 1838 4219 
Q 1578 4219 1281 4162 
Q 984 4106 628 3988 
L 628 4550 
Q 988 4650 1302 4700 
Q 1616 4750 1894 4750 
Q 2613 4750 3031 4423 
Q 3450 4097 3450 3541 
Q 3450 3153 3228 2886 
Q 3006 2619 2597 2516 
z
" transform="scale(0.015625)"/>
       </defs>
       <use xlink:href="#DejaVuSans-33"/>
       <use xlink:href="#DejaVuSans-30" x="63.623047"/>
      </g>
     </g>
    </g>
    <g id="xtick_5">
     <g id="line2d_5">
      <g>
       <use xlink:href="#m3d23edd723" x="914.823636" y="490.552" style="stroke: #000000; stroke-width: 0.8"/>
      </g>
     </g>
     <g id="text_5">
      <!-- 40 -->
      <g transform="translate(902.098636 512.748875) scale(0.2 -0.2)">
       <defs>
        <path id="DejaVuSans-34" d="M 2419 4116 
L 825 1625 
L 2419 1625 
L 2419 4116 
z
M 2253 4666 
L 3047 4666 
L 3047 1625 
L 3713 1625 
L 3713 1100 
L 3047 1100 
L 3047 0 
L 2419 0 
L 2419 1100 
L 313 1100 
L 313 1709 
L 2253 4666 
z
" transform="scale(0.015625)"/>
       </defs>
       <use xlink:href="#DejaVuSans-34"/>
       <use xlink:href="#DejaVuSans-30" x="63.623047"/>
      </g>
     </g>
    </g>
    <g id="xtick_6">
     <g id="line2d_6">
      <g>
       <use xlink:href="#m3d23edd723" x="1113.399394" y="490.552" style="stroke: #000000; stroke-width: 0.8"/>
      </g>
     </g>
     <g id="text_6">
      <!-- 50 -->
      <g transform="translate(1100.674394 512.748875) scale(0.2 -0.2)">
       <defs>
        <path id="DejaVuSans-35" d="M 691 4666 
L 3169 4666 
L 3169 4134 
L 1269 4134 
L 1269 2991 
Q 1406 3038 1543 3061 
Q 1681 3084 1819 3084 
Q 2600 3084 3056 2656 
Q 3513 2228 3513 1497 
Q 3513 744 3044 326 
Q 2575 -91 1722 -91 
Q 1428 -91 1123 -41 
Q 819 9 494 109 
L 494 744 
Q 775 591 1075 516 
Q 1375 441 1709 441 
Q 2250 441 2565 725 
Q 2881 1009 2881 1497 
Q 2881 1984 2565 2268 
Q 2250 2553 1709 2553 
Q 1456 2553 1204 2497 
Q 953 2441 691 2322 
L 691 4666 
z
" transform="scale(0.015625)"/>
       </defs>
       <use xlink:href="#DejaVuSans-35"/>
       <use xlink:href="#DejaVuSans-30" x="63.623047"/>
      </g>
     </g>
    </g>
    <g id="text_7">
     <!-- Percentile Threshold -->
     <g transform="translate(515.180313 536.105125) scale(0.2 -0.2)">
      <defs>
       <path id="DejaVuSans-50" d="M 1259 4147 
L 1259 2394 
L 2053 2394 
Q 2494 2394 2734 2622 
Q 2975 2850 2975 3272 
Q 2975 3691 2734 3919 
Q 2494 4147 2053 4147 
L 1259 4147 
z
M 628 4666 
L 2053 4666 
Q 2838 4666 3239 4311 
Q 3641 3956 3641 3272 
Q 3641 2581 3239 2228 
Q 2838 1875 2053 1875 
L 1259 1875 
L 1259 0 
L 628 0 
L 628 4666 
z
" transform="scale(0.015625)"/>
       <path id="DejaVuSans-65" d="M 3597 1894 
L 3597 1613 
L 953 1613 
Q 991 1019 1311 708 
Q 1631 397 2203 397 
Q 2534 397 2845 478 
Q 3156 559 3463 722 
L 3463 178 
Q 3153 47 2828 -22 
Q 2503 -91 2169 -91 
Q 1331 -91 842 396 
Q 353 884 353 1716 
Q 353 2575 817 3079 
Q 1281 3584 2069 3584 
Q 2775 3584 3186 3129 
Q 3597 2675 3597 1894 
z
M 3022 2063 
Q 3016 2534 2758 2815 
Q 2500 3097 2075 3097 
Q 1594 3097 1305 2825 
Q 1016 2553 972 2059 
L 3022 2063 
z
" transform="scale(0.015625)"/>
       <path id="DejaVuSans-72" d="M 2631 2963 
Q 2534 3019 2420 3045 
Q 2306 3072 2169 3072 
Q 1681 3072 1420 2755 
Q 1159 2438 1159 1844 
L 1159 0 
L 581 0 
L 581 3500 
L 1159 3500 
L 1159 2956 
Q 1341 3275 1631 3429 
Q 1922 3584 2338 3584 
Q 2397 3584 2469 3576 
Q 2541 3569 2628 3553 
L 2631 2963 
z
" transform="scale(0.015625)"/>
       <path id="DejaVuSans-63" d="M 3122 3366 
L 3122 2828 
Q 2878 2963 2633 3030 
Q 2388 3097 2138 3097 
Q 1578 3097 1268 2742 
Q 959 2388 959 1747 
Q 959 1106 1268 751 
Q 1578 397 2138 397 
Q 2388 397 2633 464 
Q 2878 531 3122 666 
L 3122 134 
Q 2881 22 2623 -34 
Q 2366 -91 2075 -91 
Q 1284 -91 818 406 
Q 353 903 353 1747 
Q 353 2603 823 3093 
Q 1294 3584 2113 3584 
Q 2378 3584 2631 3529 
Q 2884 3475 3122 3366 
z
" transform="scale(0.015625)"/>
       <path id="DejaVuSans-6e" d="M 3513 2113 
L 3513 0 
L 2938 0 
L 2938 2094 
Q 2938 2591 2744 2837 
Q 2550 3084 2163 3084 
Q 1697 3084 1428 2787 
Q 1159 2491 1159 1978 
L 1159 0 
L 581 0 
L 581 3500 
L 1159 3500 
L 1159 2956 
Q 1366 3272 1645 3428 
Q 1925 3584 2291 3584 
Q 2894 3584 3203 3211 
Q 3513 2838 3513 2113 
z
" transform="scale(0.015625)"/>
       <path id="DejaVuSans-74" d="M 1172 4494 
L 1172 3500 
L 2356 3500 
L 2356 3053 
L 1172 3053 
L 1172 1153 
Q 1172 725 1289 603 
Q 1406 481 1766 481 
L 2356 481 
L 2356 0 
L 1766 0 
Q 1100 0 847 248 
Q 594 497 594 1153 
L 594 3053 
L 172 3053 
L 172 3500 
L 594 3500 
L 594 4494 
L 1172 4494 
z
" transform="scale(0.015625)"/>
       <path id="DejaVuSans-69" d="M 603 3500 
L 1178 3500 
L 1178 0 
L 603 0 
L 603 3500 
z
M 603 4863 
L 1178 4863 
L 1178 4134 
L 603 4134 
L 603 4863 
z
" transform="scale(0.015625)"/>
       <path id="DejaVuSans-6c" d="M 603 4863 
L 1178 4863 
L 1178 0 
L 603 0 
L 603 4863 
z
" transform="scale(0.015625)"/>
       <path id="DejaVuSans-20" transform="scale(0.015625)"/>
       <path id="DejaVuSans-54" d="M -19 4666 
L 3928 4666 
L 3928 4134 
L 2272 4134 
L 2272 0 
L 1638 0 
L 1638 4134 
L -19 4134 
L -19 4666 
z
" transform="scale(0.015625)"/>
       <path id="DejaVuSans-68" d="M 3513 2113 
L 3513 0 
L 2938 0 
L 2938 2094 
Q 2938 2591 2744 2837 
Q 2550 3084 2163 3084 
Q 1697 3084 1428 2787 
Q 1159 2491 1159 1978 
L 1159 0 
L 581 0 
L 581 4863 
L 1159 4863 
L 1159 2956 
Q 1366 3272 1645 3428 
Q 1925 3584 2291 3584 
Q 2894 3584 3203 3211 
Q 3513 2838 3513 2113 
z
" transform="scale(0.015625)"/>
       <path id="DejaVuSans-73" d="M 2834 3397 
L 2834 2853 
Q 2591 2978 2328 3040 
Q 2066 3103 1784 3103 
Q 1356 3103 1142 2972 
Q 928 2841 928 2578 
Q 928 2378 1081 2264 
Q 1234 2150 1697 2047 
L 1894 2003 
Q 2506 1872 2764 1633 
Q 3022 1394 3022 966 
Q 3022 478 2636 193 
Q 2250 -91 1575 -91 
Q 1294 -91 989 -36 
Q 684 19 347 128 
L 347 722 
Q 666 556 975 473 
Q 1284 391 1588 391 
Q 1994 391 2212 530 
Q 2431 669 2431 922 
Q 2431 1156 2273 1281 
Q 2116 1406 1581 1522 
L 1381 1569 
Q 847 1681 609 1914 
Q 372 2147 372 2553 
Q 372 3047 722 3315 
Q 1072 3584 1716 3584 
Q 2034 3584 2315 3537 
Q 2597 3491 2834 3397 
z
" transform="scale(0.015625)"/>
       <path id="DejaVuSans-6f" d="M 1959 3097 
Q 1497 3097 1228 2736 
Q 959 2375 959 1747 
Q 959 1119 1226 758 
Q 1494 397 1959 397 
Q 2419 397 2687 759 
Q 2956 1122 2956 1747 
Q 2956 2369 2687 2733 
Q 2419 3097 1959 3097 
z
M 1959 3584 
Q 2709 3584 3137 3096 
Q 3566 2609 3566 1747 
Q 3566 888 3137 398 
Q 2709 -91 1959 -91 
Q 1206 -91 779 398 
Q 353 888 353 1747 
Q 353 2609 779 3096 
Q 1206 3584 1959 3584 
z
" transform="scale(0.015625)"/>
       <path id="DejaVuSans-64" d="M 2906 2969 
L 2906 4863 
L 3481 4863 
L 3481 0 
L 2906 0 
L 2906 525 
Q 2725 213 2448 61 
Q 2172 -91 1784 -91 
Q 1150 -91 751 415 
Q 353 922 353 1747 
Q 353 2572 751 3078 
Q 1150 3584 1784 3584 
Q 2172 3584 2448 3432 
Q 2725 3281 2906 2969 
z
M 947 1747 
Q 947 1113 1208 752 
Q 1469 391 1925 391 
Q 2381 391 2643 752 
Q 2906 1113 2906 1747 
Q 2906 2381 2643 2742 
Q 2381 3103 1925 3103 
Q 1469 3103 1208 2742 
Q 947 2381 947 1747 
z
" transform="scale(0.015625)"/>
      </defs>
      <use xlink:href="#DejaVuSans-50"/>
      <use xlink:href="#DejaVuSans-65" x="56.677734"/>
      <use xlink:href="#DejaVuSans-72" x="118.201172"/>
      <use xlink:href="#DejaVuSans-63" x="157.064453"/>
      <use xlink:href="#DejaVuSans-65" x="212.044922"/>
      <use xlink:href="#DejaVuSans-6e" x="273.568359"/>
      <use xlink:href="#DejaVuSans-74" x="336.947266"/>
      <use xlink:href="#DejaVuSans-69" x="376.15625"/>
      <use xlink:href="#DejaVuSans-6c" x="403.939453"/>
      <use xlink:href="#DejaVuSans-65" x="431.722656"/>
      <use xlink:href="#DejaVuSans-20" x="493.246094"/>
      <use xlink:href="#DejaVuSans-54" x="525.033203"/>
      <use xlink:href="#DejaVuSans-68" x="586.117188"/>
      <use xlink:href="#DejaVuSans-72" x="649.496094"/>
      <use xlink:href="#DejaVuSans-65" x="688.359375"/>
      <use xlink:href="#DejaVuSans-73" x="749.882812"/>
      <use xlink:href="#DejaVuSans-68" x="801.982422"/>
      <use xlink:href="#DejaVuSans-6f" x="865.361328"/>
      <use xlink:href="#DejaVuSans-6c" x="926.542969"/>
      <use xlink:href="#DejaVuSans-64" x="954.326172"/>
     </g>
     <!-- (Using "merge" Threshold Handling) -->
     <g transform="translate(436.245938 558.50075) scale(0.2 -0.2)">
      <defs>
       <path id="DejaVuSans-28" d="M 1984 4856 
Q 1566 4138 1362 3434 
Q 1159 2731 1159 2009 
Q 1159 1288 1364 580 
Q 1569 -128 1984 -844 
L 1484 -844 
Q 1016 -109 783 600 
Q 550 1309 550 2009 
Q 550 2706 781 3412 
Q 1013 4119 1484 4856 
L 1984 4856 
z
" transform="scale(0.015625)"/>
       <path id="DejaVuSans-55" d="M 556 4666 
L 1191 4666 
L 1191 1831 
Q 1191 1081 1462 751 
Q 1734 422 2344 422 
Q 2950 422 3222 751 
Q 3494 1081 3494 1831 
L 3494 4666 
L 4128 4666 
L 4128 1753 
Q 4128 841 3676 375 
Q 3225 -91 2344 -91 
Q 1459 -91 1007 375 
Q 556 841 556 1753 
L 556 4666 
z
" transform="scale(0.015625)"/>
       <path id="DejaVuSans-67" d="M 2906 1791 
Q 2906 2416 2648 2759 
Q 2391 3103 1925 3103 
Q 1463 3103 1205 2759 
Q 947 2416 947 1791 
Q 947 1169 1205 825 
Q 1463 481 1925 481 
Q 2391 481 2648 825 
Q 2906 1169 2906 1791 
z
M 3481 434 
Q 3481 -459 3084 -895 
Q 2688 -1331 1869 -1331 
Q 1566 -1331 1297 -1286 
Q 1028 -1241 775 -1147 
L 775 -588 
Q 1028 -725 1275 -790 
Q 1522 -856 1778 -856 
Q 2344 -856 2625 -561 
Q 2906 -266 2906 331 
L 2906 616 
Q 2728 306 2450 153 
Q 2172 0 1784 0 
Q 1141 0 747 490 
Q 353 981 353 1791 
Q 353 2603 747 3093 
Q 1141 3584 1784 3584 
Q 2172 3584 2450 3431 
Q 2728 3278 2906 2969 
L 2906 3500 
L 3481 3500 
L 3481 434 
z
" transform="scale(0.015625)"/>
       <path id="DejaVuSans-22" d="M 1147 4666 
L 1147 2931 
L 616 2931 
L 616 4666 
L 1147 4666 
z
M 2328 4666 
L 2328 2931 
L 1797 2931 
L 1797 4666 
L 2328 4666 
z
" transform="scale(0.015625)"/>
       <path id="DejaVuSans-6d" d="M 3328 2828 
Q 3544 3216 3844 3400 
Q 4144 3584 4550 3584 
Q 5097 3584 5394 3201 
Q 5691 2819 5691 2113 
L 5691 0 
L 5113 0 
L 5113 2094 
Q 5113 2597 4934 2840 
Q 4756 3084 4391 3084 
Q 3944 3084 3684 2787 
Q 3425 2491 3425 1978 
L 3425 0 
L 2847 0 
L 2847 2094 
Q 2847 2600 2669 2842 
Q 2491 3084 2119 3084 
Q 1678 3084 1418 2786 
Q 1159 2488 1159 1978 
L 1159 0 
L 581 0 
L 581 3500 
L 1159 3500 
L 1159 2956 
Q 1356 3278 1631 3431 
Q 1906 3584 2284 3584 
Q 2666 3584 2933 3390 
Q 3200 3197 3328 2828 
z
" transform="scale(0.015625)"/>
       <path id="DejaVuSans-48" d="M 628 4666 
L 1259 4666 
L 1259 2753 
L 3553 2753 
L 3553 4666 
L 4184 4666 
L 4184 0 
L 3553 0 
L 3553 2222 
L 1259 2222 
L 1259 0 
L 628 0 
L 628 4666 
z
" transform="scale(0.015625)"/>
       <path id="DejaVuSans-61" d="M 2194 1759 
Q 1497 1759 1228 1600 
Q 959 1441 959 1056 
Q 959 750 1161 570 
Q 1363 391 1709 391 
Q 2188 391 2477 730 
Q 2766 1069 2766 1631 
L 2766 1759 
L 2194 1759 
z
M 3341 1997 
L 3341 0 
L 2766 0 
L 2766 531 
Q 2569 213 2275 61 
Q 1981 -91 1556 -91 
Q 1019 -91 701 211 
Q 384 513 384 1019 
Q 384 1609 779 1909 
Q 1175 2209 1959 2209 
L 2766 2209 
L 2766 2266 
Q 2766 2663 2505 2880 
Q 2244 3097 1772 3097 
Q 1472 3097 1187 3025 
Q 903 2953 641 2809 
L 641 3341 
Q 956 3463 1253 3523 
Q 1550 3584 1831 3584 
Q 2591 3584 2966 3190 
Q 3341 2797 3341 1997 
z
" transform="scale(0.015625)"/>
       <path id="DejaVuSans-29" d="M 513 4856 
L 1013 4856 
Q 1481 4119 1714 3412 
Q 1947 2706 1947 2009 
Q 1947 1309 1714 600 
Q 1481 -109 1013 -844 
L 513 -844 
Q 928 -128 1133 580 
Q 1338 1288 1338 2009 
Q 1338 2731 1133 3434 
Q 928 4138 513 4856 
z
" transform="scale(0.015625)"/>
      </defs>
      <use xlink:href="#DejaVuSans-28"/>
      <use xlink:href="#DejaVuSans-55" x="39.013672"/>
      <use xlink:href="#DejaVuSans-73" x="112.207031"/>
      <use xlink:href="#DejaVuSans-69" x="164.306641"/>
      <use xlink:href="#DejaVuSans-6e" x="192.089844"/>
      <use xlink:href="#DejaVuSans-67" x="255.46875"/>
      <use xlink:href="#DejaVuSans-20" x="318.945312"/>
      <use xlink:href="#DejaVuSans-22" x="350.732422"/>
      <use xlink:href="#DejaVuSans-6d" x="396.728516"/>
      <use xlink:href="#DejaVuSans-65" x="494.140625"/>
      <use xlink:href="#DejaVuSans-72" x="555.664062"/>
      <use xlink:href="#DejaVuSans-67" x="595.027344"/>
      <use xlink:href="#DejaVuSans-65" x="658.503906"/>
      <use xlink:href="#DejaVuSans-22" x="720.027344"/>
      <use xlink:href="#DejaVuSans-20" x="766.023438"/>
      <use xlink:href="#DejaVuSans-54" x="797.810547"/>
      <use xlink:href="#DejaVuSans-68" x="858.894531"/>
      <use xlink:href="#DejaVuSans-72" x="922.273438"/>
      <use xlink:href="#DejaVuSans-65" x="961.136719"/>
      <use xlink:href="#DejaVuSans-73" x="1022.660156"/>
      <use xlink:href="#DejaVuSans-68" x="1074.759766"/>
      <use xlink:href="#DejaVuSans-6f" x="1138.138672"/>
      <use xlink:href="#DejaVuSans-6c" x="1199.320312"/>
      <use xlink:href="#DejaVuSans-64" x="1227.103516"/>
      <use xlink:href="#DejaVuSans-20" x="1290.580078"/>
      <use xlink:href="#DejaVuSans-48" x="1322.367188"/>
      <use xlink:href="#DejaVuSans-61" x="1397.5625"/>
      <use xlink:href="#DejaVuSans-6e" x="1458.841797"/>
      <use xlink:href="#DejaVuSans-64" x="1522.220703"/>
      <use xlink:href="#DejaVuSans-6c" x="1585.697266"/>
      <use xlink:href="#DejaVuSans-69" x="1613.480469"/>
      <use xlink:href="#DejaVuSans-6e" x="1641.263672"/>
      <use xlink:href="#DejaVuSans-67" x="1704.642578"/>
      <use xlink:href="#DejaVuSans-29" x="1768.119141"/>
     </g>
    </g>
   </g>
   <g id="matplotlib.axis_2">
    <g id="ytick_1">
     <g id="line2d_7">
      <defs>
       <path id="md4b7a0fe3a" d="M 0 0 
L -3.5 0 
" style="stroke: #000000; stroke-width: 0.8"/>
      </defs>
      <g>
       <use xlink:href="#md4b7a0fe3a" x="92.72" y="468.217037" style="stroke: #000000; stroke-width: 0.8"/>
      </g>
     </g>
     <g id="text_8">
      <!-- 250 -->
      <g transform="translate(47.545 475.815475) scale(0.2 -0.2)">
       <use xlink:href="#DejaVuSans-32"/>
       <use xlink:href="#DejaVuSans-35" x="63.623047"/>
       <use xlink:href="#DejaVuSans-30" x="127.246094"/>
      </g>
     </g>
    </g>
    <g id="ytick_2">
     <g id="line2d_8">
      <g>
       <use xlink:href="#md4b7a0fe3a" x="92.72" y="412.93533" style="stroke: #000000; stroke-width: 0.8"/>
      </g>
     </g>
     <g id="text_9">
      <!-- 500 -->
      <g transform="translate(47.545 420.533768) scale(0.2 -0.2)">
       <use xlink:href="#DejaVuSans-35"/>
       <use xlink:href="#DejaVuSans-30" x="63.623047"/>
       <use xlink:href="#DejaVuSans-30" x="127.246094"/>
      </g>
     </g>
    </g>
    <g id="ytick_3">
     <g id="line2d_9">
      <g>
       <use xlink:href="#md4b7a0fe3a" x="92.72" y="357.653623" style="stroke: #000000; stroke-width: 0.8"/>
      </g>
     </g>
     <g id="text_10">
      <!-- 750 -->
      <g transform="translate(47.545 365.25206) scale(0.2 -0.2)">
       <defs>
        <path id="DejaVuSans-37" d="M 525 4666 
L 3525 4666 
L 3525 4397 
L 1831 0 
L 1172 0 
L 2766 4134 
L 525 4134 
L 525 4666 
z
" transform="scale(0.015625)"/>
       </defs>
       <use xlink:href="#DejaVuSans-37"/>
       <use xlink:href="#DejaVuSans-35" x="63.623047"/>
       <use xlink:href="#DejaVuSans-30" x="127.246094"/>
      </g>
     </g>
    </g>
    <g id="ytick_4">
     <g id="line2d_10">
      <g>
       <use xlink:href="#md4b7a0fe3a" x="92.72" y="302.371915" style="stroke: #000000; stroke-width: 0.8"/>
      </g>
     </g>
     <g id="text_11">
      <!-- 1000 -->
      <g transform="translate(34.82 309.970353) scale(0.2 -0.2)">
       <use xlink:href="#DejaVuSans-31"/>
       <use xlink:href="#DejaVuSans-30" x="63.623047"/>
       <use xlink:href="#DejaVuSans-30" x="127.246094"/>
       <use xlink:href="#DejaVuSans-30" x="190.869141"/>
      </g>
     </g>
    </g>
    <g id="ytick_5">
     <g id="line2d_11">
      <g>
       <use xlink:href="#md4b7a0fe3a" x="92.72" y="247.090208" style="stroke: #000000; stroke-width: 0.8"/>
      </g>
     </g>
     <g id="text_12">
      <!-- 1250 -->
      <g transform="translate(34.82 254.688646) scale(0.2 -0.2)">
       <use xlink:href="#DejaVuSans-31"/>
       <use xlink:href="#DejaVuSans-32" x="63.623047"/>
       <use xlink:href="#DejaVuSans-35" x="127.246094"/>
       <use xlink:href="#DejaVuSans-30" x="190.869141"/>
      </g>
     </g>
    </g>
    <g id="ytick_6">
     <g id="line2d_12">
      <g>
       <use xlink:href="#md4b7a0fe3a" x="92.72" y="191.808501" style="stroke: #000000; stroke-width: 0.8"/>
      </g>
     </g>
     <g id="text_13">
      <!-- 1500 -->
      <g transform="translate(34.82 199.406938) scale(0.2 -0.2)">
       <use xlink:href="#DejaVuSans-31"/>
       <use xlink:href="#DejaVuSans-35" x="63.623047"/>
       <use xlink:href="#DejaVuSans-30" x="127.246094"/>
       <use xlink:href="#DejaVuSans-30" x="190.869141"/>
      </g>
     </g>
    </g>
    <g id="ytick_7">
     <g id="line2d_13">
      <g>
       <use xlink:href="#md4b7a0fe3a" x="92.72" y="136.526793" style="stroke: #000000; stroke-width: 0.8"/>
      </g>
     </g>
     <g id="text_14">
      <!-- 1750 -->
      <g transform="translate(34.82 144.125231) scale(0.2 -0.2)">
       <use xlink:href="#DejaVuSans-31"/>
       <use xlink:href="#DejaVuSans-37" x="63.623047"/>
       <use xlink:href="#DejaVuSans-35" x="127.246094"/>
       <use xlink:href="#DejaVuSans-30" x="190.869141"/>
      </g>
     </g>
    </g>
    <g id="ytick_8">
     <g id="line2d_14">
      <g>
       <use xlink:href="#md4b7a0fe3a" x="92.72" y="81.245086" style="stroke: #000000; stroke-width: 0.8"/>
      </g>
     </g>
     <g id="text_15">
      <!-- 2000 -->
      <g transform="translate(34.82 88.843524) scale(0.2 -0.2)">
       <use xlink:href="#DejaVuSans-32"/>
       <use xlink:href="#DejaVuSans-30" x="63.623047"/>
       <use xlink:href="#DejaVuSans-30" x="127.246094"/>
       <use xlink:href="#DejaVuSans-30" x="190.869141"/>
      </g>
     </g>
    </g>
    <g id="ytick_9">
     <g id="line2d_15">
      <g>
       <use xlink:href="#md4b7a0fe3a" x="92.72" y="25.963379" style="stroke: #000000; stroke-width: 0.8"/>
      </g>
     </g>
     <g id="text_16">
      <!-- 2250 -->
      <g transform="translate(34.82 33.561816) scale(0.2 -0.2)">
       <use xlink:href="#DejaVuSans-32"/>
       <use xlink:href="#DejaVuSans-32" x="63.623047"/>
       <use xlink:href="#DejaVuSans-35" x="127.246094"/>
       <use xlink:href="#DejaVuSans-30" x="190.869141"/>
      </g>
     </g>
    </g>
    <g id="text_17">
     <!-- MSE -->
     <g transform="translate(26.660625 271.971313) rotate(-90) scale(0.2 -0.2)">
      <defs>
       <path id="DejaVuSans-4d" d="M 628 4666 
L 1569 4666 
L 2759 1491 
L 3956 4666 
L 4897 4666 
L 4897 0 
L 4281 0 
L 4281 4097 
L 3078 897 
L 2444 897 
L 1241 4097 
L 1241 0 
L 628 0 
L 628 4666 
z
" transform="scale(0.015625)"/>
       <path id="DejaVuSans-53" d="M 3425 4513 
L 3425 3897 
Q 3066 4069 2747 4153 
Q 2428 4238 2131 4238 
Q 1616 4238 1336 4038 
Q 1056 3838 1056 3469 
Q 1056 3159 1242 3001 
Q 1428 2844 1947 2747 
L 2328 2669 
Q 3034 2534 3370 2195 
Q 3706 1856 3706 1288 
Q 3706 609 3251 259 
Q 2797 -91 1919 -91 
Q 1588 -91 1214 -16 
Q 841 59 441 206 
L 441 856 
Q 825 641 1194 531 
Q 1563 422 1919 422 
Q 2459 422 2753 634 
Q 3047 847 3047 1241 
Q 3047 1584 2836 1778 
Q 2625 1972 2144 2069 
L 1759 2144 
Q 1053 2284 737 2584 
Q 422 2884 422 3419 
Q 422 4038 858 4394 
Q 1294 4750 2059 4750 
Q 2388 4750 2728 4690 
Q 3069 4631 3425 4513 
z
" transform="scale(0.015625)"/>
       <path id="DejaVuSans-45" d="M 628 4666 
L 3578 4666 
L 3578 4134 
L 1259 4134 
L 1259 2753 
L 3481 2753 
L 3481 2222 
L 1259 2222 
L 1259 531 
L 3634 531 
L 3634 0 
L 628 0 
L 628 4666 
z
" transform="scale(0.015625)"/>
      </defs>
      <use xlink:href="#DejaVuSans-4d"/>
      <use xlink:href="#DejaVuSans-53" x="86.279297"/>
      <use xlink:href="#DejaVuSans-45" x="149.755859"/>
     </g>
    </g>
   </g>
   <g id="line2d_16">
    <path d="M 140.378182 463.434078 
L 180.093333 464.056249 
L 219.808485 462.671369 
L 259.523636 462.631188 
L 299.238788 459.510448 
L 338.953939 461.308037 
L 378.669091 456.429642 
L 418.384242 452.035771 
L 458.099394 448.793495 
L 497.814545 452.504703 
L 537.529697 445.782125 
L 577.244848 442.358428 
L 616.96 427.984171 
L 656.675152 429.20767 
L 696.390303 419.958461 
L 736.105455 412.612991 
L 775.820606 410.357746 
L 815.535758 411.078096 
L 855.250909 410.253008 
L 894.966061 393.02732 
L 934.681212 385.399676 
L 974.396364 385.547926 
L 1014.111515 366.840821 
L 1053.826667 368.568544 
L 1093.541818 365.785913 
" clip-path="url(#pc7306c2e46)" style="fill: none; stroke: #f77189; stroke-width: 1.5; stroke-linecap: square"/>
   </g>
   <g id="line2d_17">
    <path d="M 140.378182 458.307697 
L 180.093333 459.135474 
L 219.808485 453.382967 
L 259.523636 458.110072 
L 299.238788 451.485593 
L 338.953939 453.220353 
L 378.669091 445.464503 
L 418.384242 443.751355 
L 458.099394 446.144853 
L 497.814545 447.345711 
L 537.529697 441.894388 
L 577.244848 440.344124 
L 616.96 428.486049 
L 656.675152 426.963438 
L 696.390303 422.597422 
L 736.105455 420.373466 
L 775.820606 416.639946 
L 815.535758 415.716746 
L 855.250909 406.234781 
L 894.966061 376.865859 
L 934.681212 370.980022 
L 974.396364 384.559676 
L 1014.111515 369.683572 
L 1053.826667 381.097239 
L 1093.541818 376.735936 
" clip-path="url(#pc7306c2e46)" style="fill: none; stroke: #e18632; stroke-width: 1.5; stroke-linecap: square"/>
   </g>
   <g id="line2d_18">
    <path d="M 140.378182 448.176095 
L 180.093333 453.310715 
L 219.808485 451.313077 
L 259.523636 453.791335 
L 299.238788 447.185308 
L 338.953939 445.57888 
L 378.669091 441.435601 
L 418.384242 440.145673 
L 458.099394 438.505563 
L 497.814545 441.665299 
L 537.529697 432.751805 
L 577.244848 418.813222 
L 616.96 408.181759 
L 656.675152 412.193167 
L 696.390303 403.98267 
L 736.105455 393.090574 
L 775.820606 394.5132 
L 815.535758 386.567937 
L 855.250909 389.377434 
L 894.966061 373.019035 
L 934.681212 368.933505 
L 974.396364 363.409823 
L 1014.111515 338.525993 
L 1053.826667 339.604943 
L 1093.541818 334.927967 
" clip-path="url(#pc7306c2e46)" style="fill: none; stroke: #b59a32; stroke-width: 1.5; stroke-linecap: square"/>
   </g>
   <g id="line2d_19">
    <path d="M 140.378182 451.332547 
L 180.093333 457.285794 
L 219.808485 451.295097 
L 259.523636 456.080827 
L 299.238788 452.02639 
L 338.953939 448.612247 
L 378.669091 443.386475 
L 418.384242 438.605767 
L 458.099394 438.263893 
L 497.814545 437.668938 
L 537.529697 428.184934 
L 577.244848 420.291082 
L 616.96 409.871961 
L 656.675152 407.449899 
L 696.390303 387.363213 
L 736.105455 388.24578 
L 775.820606 389.091527 
L 815.535758 383.046317 
L 855.250909 386.33108 
L 894.966061 361.401439 
L 934.681212 357.402059 
L 974.396364 347.834882 
L 1014.111515 330.184028 
L 1053.826667 326.21808 
L 1093.541818 321.300457 
" clip-path="url(#pc7306c2e46)" style="fill: none; stroke: #8ba731; stroke-width: 1.5; stroke-linecap: square"/>
   </g>
   <g id="line2d_20">
    <path d="M 140.378182 449.752901 
L 180.093333 458.906887 
L 219.808485 458.499604 
L 259.523636 461.72104 
L 299.238788 451.530775 
L 338.953939 453.939177 
L 378.669091 448.914657 
L 418.384242 449.039208 
L 458.099394 441.439958 
L 497.814545 449.092608 
L 537.529697 439.6733 
L 577.244848 431.756962 
L 616.96 421.010318 
L 656.675152 425.045818 
L 696.390303 411.016028 
L 736.105455 405.917621 
L 775.820606 409.151398 
L 815.535758 402.267469 
L 855.250909 401.324399 
L 894.966061 378.791358 
L 934.681212 367.777161 
L 974.396364 378.329239 
L 1014.111515 372.312461 
L 1053.826667 376.702518 
L 1093.541818 379.510016 
" clip-path="url(#pc7306c2e46)" style="fill: none; stroke: #32b258; stroke-width: 1.5; stroke-linecap: square"/>
   </g>
   <g id="line2d_21">
    <path d="M 140.378182 417.416054 
L 180.093333 425.493501 
L 219.808485 415.570604 
L 259.523636 413.745359 
L 299.238788 409.197935 
L 338.953939 401.919679 
L 378.669091 381.652438 
L 418.384242 384.179882 
L 458.099394 383.371726 
L 497.814545 379.402119 
L 537.529697 368.00406 
L 577.244848 357.192562 
L 616.96 340.730262 
L 656.675152 333.564434 
L 696.390303 339.832157 
L 736.105455 320.276528 
L 775.820606 306.703526 
L 815.535758 297.076096 
L 855.250909 284.211764 
L 894.966061 262.296816 
L 934.681212 254.949155 
L 974.396364 277.432504 
L 1014.111515 276.154021 
L 1053.826667 296.178102 
L 1093.541818 296.909935 
" clip-path="url(#pc7306c2e46)" style="fill: none; stroke: #35ae95; stroke-width: 1.5; stroke-linecap: square"/>
   </g>
   <g id="line2d_22">
    <path d="M 140.378182 429.516237 
L 180.093333 430.187282 
L 219.808485 424.680157 
L 259.523636 417.242165 
L 299.238788 405.997011 
L 338.953939 402.075656 
L 378.669091 387.173341 
L 418.384242 388.532163 
L 458.099394 376.258452 
L 497.814545 386.314551 
L 537.529697 382.909332 
L 577.244848 356.353951 
L 616.96 346.5084 
L 656.675152 351.571636 
L 696.390303 314.22805 
L 736.105455 303.796183 
L 775.820606 313.735092 
L 815.535758 299.527584 
L 855.250909 274.905366 
L 894.966061 265.815817 
L 934.681212 273.78761 
L 974.396364 265.200867 
L 1014.111515 231.598026 
L 1053.826667 185.309277 
L 1093.541818 192.738302 
" clip-path="url(#pc7306c2e46)" style="fill: none; stroke: #37abb2; stroke-width: 1.5; stroke-linecap: square"/>
   </g>
   <g id="line2d_23">
    <path d="M 140.378182 427.625979 
L 180.093333 430.816899 
L 219.808485 427.93901 
L 259.523636 434.725715 
L 299.238788 427.323125 
L 338.953939 428.795668 
L 378.669091 416.265965 
L 418.384242 420.551379 
L 458.099394 422.394021 
L 497.814545 424.769311 
L 537.529697 415.947311 
L 577.244848 411.913047 
L 616.96 400.048505 
L 656.675152 404.110883 
L 696.390303 397.830439 
L 736.105455 395.906382 
L 775.820606 396.166695 
L 815.535758 382.428574 
L 855.250909 380.270905 
L 894.966061 353.551153 
L 934.681212 353.983372 
L 974.396364 358.396255 
L 1014.111515 335.064985 
L 1053.826667 352.419127 
L 1093.541818 342.991991 
" clip-path="url(#pc7306c2e46)" style="fill: none; stroke: #39a7d6; stroke-width: 1.5; stroke-linecap: square"/>
   </g>
   <g id="line2d_24">
    <path d="M 140.378182 421.345908 
L 180.093333 424.230643 
L 219.808485 420.817114 
L 259.523636 426.170318 
L 299.238788 415.740437 
L 338.953939 418.219107 
L 378.669091 405.817167 
L 418.384242 407.836665 
L 458.099394 408.720045 
L 497.814545 410.144834 
L 537.529697 395.78179 
L 577.244848 391.910246 
L 616.96 374.537788 
L 656.675152 382.495751 
L 696.390303 362.602604 
L 736.105455 362.153937 
L 775.820606 361.489791 
L 815.535758 351.713762 
L 855.250909 336.927705 
L 894.966061 306.252672 
L 934.681212 302.177172 
L 974.396364 288.215793 
L 1014.111515 270.614088 
L 1053.826667 272.573758 
L 1093.541818 264.501048 
" clip-path="url(#pc7306c2e46)" style="fill: none; stroke: #8f93f4; stroke-width: 1.5; stroke-linecap: square"/>
   </g>
   <g id="line2d_25">
    <path d="M 140.378182 421.347821 
L 180.093333 424.230924 
L 219.808485 420.818722 
L 259.523636 426.164692 
L 299.238788 415.746059 
L 338.953939 418.222198 
L 378.669091 405.815916 
L 418.384242 407.826942 
L 458.099394 408.722779 
L 497.814545 410.134112 
L 537.529697 395.781554 
L 577.244848 391.914974 
L 616.96 374.54556 
L 656.675152 382.503168 
L 696.390303 362.590466 
L 736.105455 362.153793 
L 775.820606 361.468883 
L 815.535758 351.705395 
L 855.250909 336.932072 
L 894.966061 306.261039 
L 934.681212 302.164877 
L 974.396364 288.217146 
L 1014.111515 270.621663 
L 1053.826667 272.578208 
L 1093.541818 264.496548 
" clip-path="url(#pc7306c2e46)" style="fill: none; stroke: #db70f4; stroke-width: 1.5; stroke-linecap: square"/>
   </g>
   <g id="line2d_26">
    <path d="M 140.378182 408.008209 
L 180.093333 404.190533 
L 219.808485 403.760702 
L 259.523636 385.31881 
L 299.238788 374.148069 
L 338.953939 377.587028 
L 378.669091 362.610313 
L 418.384242 358.981915 
L 458.099394 340.310464 
L 497.814545 345.539231 
L 537.529697 328.192231 
L 577.244848 342.108605 
L 616.96 308.614655 
L 656.675152 313.482977 
L 696.390303 245.263497 
L 736.105455 282.102181 
L 775.820606 278.259227 
L 815.535758 225.61088 
L 855.250909 232.948161 
L 894.966061 200.125521 
L 934.681212 249.667897 
L 974.396364 197.399578 
L 1014.111515 181.53221 
L 1053.826667 149.337586 
L 1093.541818 119.709808 
" clip-path="url(#pc7306c2e46)" style="fill: none; stroke: #f667c6; stroke-width: 1.5; stroke-linecap: square"/>
   </g>
   <g id="line2d_27"/>
   <g id="line2d_28"/>
   <g id="line2d_29"/>
   <g id="line2d_30"/>
   <g id="line2d_31"/>
   <g id="line2d_32"/>
   <g id="line2d_33"/>
   <g id="line2d_34"/>
   <g id="line2d_35"/>
   <g id="line2d_36"/>
   <g id="line2d_37"/>
   <g id="patch_3">
    <path d="M 92.72 490.552 
L 92.72 10.8 
" style="fill: none; stroke: #000000; stroke-width: 0.8; stroke-linejoin: miter; stroke-linecap: square"/>
   </g>
   <g id="patch_4">
    <path d="M 1141.2 490.552 
L 1141.2 10.8 
" style="fill: none; stroke: #000000; stroke-width: 0.8; stroke-linejoin: miter; stroke-linecap: square"/>
   </g>
   <g id="patch_5">
    <path d="M 92.72 490.552 
L 1141.2 490.552 
" style="fill: none; stroke: #000000; stroke-width: 0.8; stroke-linejoin: miter; stroke-linecap: square"/>
   </g>
   <g id="patch_6">
    <path d="M 92.72 10.8 
L 1141.2 10.8 
" style="fill: none; stroke: #000000; stroke-width: 0.8; stroke-linejoin: miter; stroke-linecap: square"/>
   </g>
   <g id="legend_1">
    <g id="patch_7">
     <path d="M 103.92 482.552 
L 273.665 482.552 
Q 276.865 482.552 276.865 479.352 
L 276.865 222.617 
Q 276.865 219.417 273.665 219.417 
L 103.92 219.417 
Q 100.72 219.417 100.72 222.617 
L 100.72 479.352 
Q 100.72 482.552 103.92 482.552 
z
" style="fill: #ffffff; opacity: 0.8; stroke: #cccccc; stroke-linejoin: miter"/>
    </g>
    <g id="line2d_38">
     <path d="M 107.12 232.3745 
L 123.12 232.3745 
L 139.12 232.3745 
" style="fill: none; stroke: #f77189; stroke-width: 1.5; stroke-linecap: square"/>
    </g>
    <g id="text_18">
     <!-- gbr -->
     <g transform="translate(151.92 237.9745) scale(0.16 -0.16)">
      <defs>
       <path id="DejaVuSans-62" d="M 3116 1747 
Q 3116 2381 2855 2742 
Q 2594 3103 2138 3103 
Q 1681 3103 1420 2742 
Q 1159 2381 1159 1747 
Q 1159 1113 1420 752 
Q 1681 391 2138 391 
Q 2594 391 2855 752 
Q 3116 1113 3116 1747 
z
M 1159 2969 
Q 1341 3281 1617 3432 
Q 1894 3584 2278 3584 
Q 2916 3584 3314 3078 
Q 3713 2572 3713 1747 
Q 3713 922 3314 415 
Q 2916 -91 2278 -91 
Q 1894 -91 1617 61 
Q 1341 213 1159 525 
L 1159 0 
L 581 0 
L 581 4863 
L 1159 4863 
L 1159 2969 
z
" transform="scale(0.015625)"/>
      </defs>
      <use xlink:href="#DejaVuSans-67"/>
      <use xlink:href="#DejaVuSans-62" x="63.476562"/>
      <use xlink:href="#DejaVuSans-72" x="126.953125"/>
     </g>
    </g>
    <g id="line2d_39">
     <path d="M 107.12 255.8595 
L 123.12 255.8595 
L 139.12 255.8595 
" style="fill: none; stroke: #e18632; stroke-width: 1.5; stroke-linecap: square"/>
    </g>
    <g id="text_19">
     <!-- BayesianRidge -->
     <g transform="translate(151.92 261.4595) scale(0.16 -0.16)">
      <defs>
       <path id="DejaVuSans-42" d="M 1259 2228 
L 1259 519 
L 2272 519 
Q 2781 519 3026 730 
Q 3272 941 3272 1375 
Q 3272 1813 3026 2020 
Q 2781 2228 2272 2228 
L 1259 2228 
z
M 1259 4147 
L 1259 2741 
L 2194 2741 
Q 2656 2741 2882 2914 
Q 3109 3088 3109 3444 
Q 3109 3797 2882 3972 
Q 2656 4147 2194 4147 
L 1259 4147 
z
M 628 4666 
L 2241 4666 
Q 2963 4666 3353 4366 
Q 3744 4066 3744 3513 
Q 3744 3084 3544 2831 
Q 3344 2578 2956 2516 
Q 3422 2416 3680 2098 
Q 3938 1781 3938 1306 
Q 3938 681 3513 340 
Q 3088 0 2303 0 
L 628 0 
L 628 4666 
z
" transform="scale(0.015625)"/>
       <path id="DejaVuSans-79" d="M 2059 -325 
Q 1816 -950 1584 -1140 
Q 1353 -1331 966 -1331 
L 506 -1331 
L 506 -850 
L 844 -850 
Q 1081 -850 1212 -737 
Q 1344 -625 1503 -206 
L 1606 56 
L 191 3500 
L 800 3500 
L 1894 763 
L 2988 3500 
L 3597 3500 
L 2059 -325 
z
" transform="scale(0.015625)"/>
       <path id="DejaVuSans-52" d="M 2841 2188 
Q 3044 2119 3236 1894 
Q 3428 1669 3622 1275 
L 4263 0 
L 3584 0 
L 2988 1197 
Q 2756 1666 2539 1819 
Q 2322 1972 1947 1972 
L 1259 1972 
L 1259 0 
L 628 0 
L 628 4666 
L 2053 4666 
Q 2853 4666 3247 4331 
Q 3641 3997 3641 3322 
Q 3641 2881 3436 2590 
Q 3231 2300 2841 2188 
z
M 1259 4147 
L 1259 2491 
L 2053 2491 
Q 2509 2491 2742 2702 
Q 2975 2913 2975 3322 
Q 2975 3731 2742 3939 
Q 2509 4147 2053 4147 
L 1259 4147 
z
" transform="scale(0.015625)"/>
      </defs>
      <use xlink:href="#DejaVuSans-42"/>
      <use xlink:href="#DejaVuSans-61" x="68.603516"/>
      <use xlink:href="#DejaVuSans-79" x="129.882812"/>
      <use xlink:href="#DejaVuSans-65" x="189.0625"/>
      <use xlink:href="#DejaVuSans-73" x="250.585938"/>
      <use xlink:href="#DejaVuSans-69" x="302.685547"/>
      <use xlink:href="#DejaVuSans-61" x="330.46875"/>
      <use xlink:href="#DejaVuSans-6e" x="391.748047"/>
      <use xlink:href="#DejaVuSans-52" x="455.126953"/>
      <use xlink:href="#DejaVuSans-69" x="524.609375"/>
      <use xlink:href="#DejaVuSans-64" x="552.392578"/>
      <use xlink:href="#DejaVuSans-67" x="615.869141"/>
      <use xlink:href="#DejaVuSans-65" x="679.345703"/>
     </g>
    </g>
    <g id="line2d_40">
     <path d="M 107.12 279.3445 
L 123.12 279.3445 
L 139.12 279.3445 
" style="fill: none; stroke: #b59a32; stroke-width: 1.5; stroke-linecap: square"/>
    </g>
    <g id="text_20">
     <!-- rf -->
     <g transform="translate(151.92 284.9445) scale(0.16 -0.16)">
      <defs>
       <path id="DejaVuSans-66" d="M 2375 4863 
L 2375 4384 
L 1825 4384 
Q 1516 4384 1395 4259 
Q 1275 4134 1275 3809 
L 1275 3500 
L 2222 3500 
L 2222 3053 
L 1275 3053 
L 1275 0 
L 697 0 
L 697 3053 
L 147 3053 
L 147 3500 
L 697 3500 
L 697 3744 
Q 697 4328 969 4595 
Q 1241 4863 1831 4863 
L 2375 4863 
z
" transform="scale(0.015625)"/>
      </defs>
      <use xlink:href="#DejaVuSans-72"/>
      <use xlink:href="#DejaVuSans-66" x="41.113281"/>
     </g>
    </g>
    <g id="line2d_41">
     <path d="M 107.12 302.8295 
L 123.12 302.8295 
L 139.12 302.8295 
" style="fill: none; stroke: #8ba731; stroke-width: 1.5; stroke-linecap: square"/>
    </g>
    <g id="text_21">
     <!-- lgbm -->
     <g transform="translate(151.92 308.4295) scale(0.16 -0.16)">
      <use xlink:href="#DejaVuSans-6c"/>
      <use xlink:href="#DejaVuSans-67" x="27.783203"/>
      <use xlink:href="#DejaVuSans-62" x="91.259766"/>
      <use xlink:href="#DejaVuSans-6d" x="154.736328"/>
     </g>
    </g>
    <g id="line2d_42">
     <path d="M 107.12 326.3145 
L 123.12 326.3145 
L 139.12 326.3145 
" style="fill: none; stroke: #32b258; stroke-width: 1.5; stroke-linecap: square"/>
    </g>
    <g id="text_22">
     <!-- xgb -->
     <g transform="translate(151.92 331.9145) scale(0.16 -0.16)">
      <defs>
       <path id="DejaVuSans-78" d="M 3513 3500 
L 2247 1797 
L 3578 0 
L 2900 0 
L 1881 1375 
L 863 0 
L 184 0 
L 1544 1831 
L 300 3500 
L 978 3500 
L 1906 2253 
L 2834 3500 
L 3513 3500 
z
" transform="scale(0.015625)"/>
      </defs>
      <use xlink:href="#DejaVuSans-78"/>
      <use xlink:href="#DejaVuSans-67" x="59.179688"/>
      <use xlink:href="#DejaVuSans-62" x="122.65625"/>
     </g>
    </g>
    <g id="line2d_43">
     <path d="M 107.12 349.7995 
L 123.12 349.7995 
L 139.12 349.7995 
" style="fill: none; stroke: #35ae95; stroke-width: 1.5; stroke-linecap: square"/>
    </g>
    <g id="text_23">
     <!-- HubR -->
     <g transform="translate(151.92 355.3995) scale(0.16 -0.16)">
      <defs>
       <path id="DejaVuSans-75" d="M 544 1381 
L 544 3500 
L 1119 3500 
L 1119 1403 
Q 1119 906 1312 657 
Q 1506 409 1894 409 
Q 2359 409 2629 706 
Q 2900 1003 2900 1516 
L 2900 3500 
L 3475 3500 
L 3475 0 
L 2900 0 
L 2900 538 
Q 2691 219 2414 64 
Q 2138 -91 1772 -91 
Q 1169 -91 856 284 
Q 544 659 544 1381 
z
M 1991 3584 
L 1991 3584 
z
" transform="scale(0.015625)"/>
      </defs>
      <use xlink:href="#DejaVuSans-48"/>
      <use xlink:href="#DejaVuSans-75" x="75.195312"/>
      <use xlink:href="#DejaVuSans-62" x="138.574219"/>
      <use xlink:href="#DejaVuSans-52" x="202.050781"/>
     </g>
    </g>
    <g id="line2d_44">
     <path d="M 107.12 373.2845 
L 123.12 373.2845 
L 139.12 373.2845 
" style="fill: none; stroke: #37abb2; stroke-width: 1.5; stroke-linecap: square"/>
    </g>
    <g id="text_24">
     <!-- et -->
     <g transform="translate(151.92 378.8845) scale(0.16 -0.16)">
      <use xlink:href="#DejaVuSans-65"/>
      <use xlink:href="#DejaVuSans-74" x="61.523438"/>
     </g>
    </g>
    <g id="line2d_45">
     <path d="M 107.12 396.7695 
L 123.12 396.7695 
L 139.12 396.7695 
" style="fill: none; stroke: #39a7d6; stroke-width: 1.5; stroke-linecap: square"/>
    </g>
    <g id="text_25">
     <!-- Adaboost -->
     <g transform="translate(151.92 402.3695) scale(0.16 -0.16)">
      <defs>
       <path id="DejaVuSans-41" d="M 2188 4044 
L 1331 1722 
L 3047 1722 
L 2188 4044 
z
M 1831 4666 
L 2547 4666 
L 4325 0 
L 3669 0 
L 3244 1197 
L 1141 1197 
L 716 0 
L 50 0 
L 1831 4666 
z
" transform="scale(0.015625)"/>
      </defs>
      <use xlink:href="#DejaVuSans-41"/>
      <use xlink:href="#DejaVuSans-64" x="66.658203"/>
      <use xlink:href="#DejaVuSans-61" x="130.134766"/>
      <use xlink:href="#DejaVuSans-62" x="191.414062"/>
      <use xlink:href="#DejaVuSans-6f" x="254.890625"/>
      <use xlink:href="#DejaVuSans-6f" x="316.072266"/>
      <use xlink:href="#DejaVuSans-73" x="377.253906"/>
      <use xlink:href="#DejaVuSans-74" x="429.353516"/>
     </g>
    </g>
    <g id="line2d_46">
     <path d="M 107.12 420.2545 
L 123.12 420.2545 
L 139.12 420.2545 
" style="fill: none; stroke: #8f93f4; stroke-width: 1.5; stroke-linecap: square"/>
    </g>
    <g id="text_26">
     <!-- Lasso -->
     <g transform="translate(151.92 425.8545) scale(0.16 -0.16)">
      <defs>
       <path id="DejaVuSans-4c" d="M 628 4666 
L 1259 4666 
L 1259 531 
L 3531 531 
L 3531 0 
L 628 0 
L 628 4666 
z
" transform="scale(0.015625)"/>
      </defs>
      <use xlink:href="#DejaVuSans-4c"/>
      <use xlink:href="#DejaVuSans-61" x="55.712891"/>
      <use xlink:href="#DejaVuSans-73" x="116.992188"/>
      <use xlink:href="#DejaVuSans-73" x="169.091797"/>
      <use xlink:href="#DejaVuSans-6f" x="221.191406"/>
     </g>
    </g>
    <g id="line2d_47">
     <path d="M 107.12 443.7395 
L 123.12 443.7395 
L 139.12 443.7395 
" style="fill: none; stroke: #db70f4; stroke-width: 1.5; stroke-linecap: square"/>
    </g>
    <g id="text_27">
     <!-- LassoLars -->
     <g transform="translate(151.92 449.3395) scale(0.16 -0.16)">
      <use xlink:href="#DejaVuSans-4c"/>
      <use xlink:href="#DejaVuSans-61" x="55.712891"/>
      <use xlink:href="#DejaVuSans-73" x="116.992188"/>
      <use xlink:href="#DejaVuSans-73" x="169.091797"/>
      <use xlink:href="#DejaVuSans-6f" x="221.191406"/>
      <use xlink:href="#DejaVuSans-4c" x="282.373047"/>
      <use xlink:href="#DejaVuSans-61" x="338.085938"/>
      <use xlink:href="#DejaVuSans-72" x="399.365234"/>
      <use xlink:href="#DejaVuSans-73" x="440.478516"/>
     </g>
    </g>
    <g id="line2d_48">
     <path d="M 107.12 467.2245 
L 123.12 467.2245 
L 139.12 467.2245 
" style="fill: none; stroke: #f667c6; stroke-width: 1.5; stroke-linecap: square"/>
    </g>
    <g id="text_28">
     <!-- dt -->
     <g transform="translate(151.92 472.8245) scale(0.16 -0.16)">
      <use xlink:href="#DejaVuSans-64"/>
      <use xlink:href="#DejaVuSans-74" x="63.476562"/>
     </g>
    </g>
   </g>
  </g>
 </g>
 <defs>
  <clipPath id="pc7306c2e46">
   <rect x="92.72" y="10.8" width="1048.48" height="479.752"/>
  </clipPath>
 </defs>
</svg>
