<?xml version="1.0" encoding="utf-8" standalone="no"?>
<!DOCTYPE svg PUBLIC "-//W3C//DTD SVG 1.1//EN"
  "http://www.w3.org/Graphics/SVG/1.1/DTD/svg11.dtd">
<svg xmlns:xlink="http://www.w3.org/1999/xlink" width="1152pt" height="576pt" viewBox="0 0 1152 576" xmlns="http://www.w3.org/2000/svg" version="1.1">
 <metadata>
  <rdf:RDF xmlns:dc="http://purl.org/dc/elements/1.1/" xmlns:cc="http://creativecommons.org/ns#" xmlns:rdf="http://www.w3.org/1999/02/22-rdf-syntax-ns#">
   <cc:Work>
    <dc:type rdf:resource="http://purl.org/dc/dcmitype/StillImage"/>
    <dc:date>2025-04-21T10:20:46.486314</dc:date>
    <dc:format>image/svg+xml</dc:format>
    <dc:creator>
     <cc:Agent>
      <dc:title>Matplotlib v3.7.1, https://matplotlib.org/</dc:title>
     </cc:Agent>
    </dc:creator>
   </cc:Work>
  </rdf:RDF>
 </metadata>
 <defs>
  <style type="text/css">*{stroke-linejoin: round; stroke-linecap: butt}</style>
 </defs>
 <g id="figure_1">
  <g id="patch_1">
   <path d="M 0 576 
L 1152 576 
L 1152 0 
L 0 0 
z
" style="fill: #ffffff"/>
  </g>
  <g id="axes_1">
   <g id="patch_2">
    <path d="M 92.72 489.832 
L 1141.2 489.832 
L 1141.2 10.8 
L 92.72 10.8 
z
" style="fill: #ffffff"/>
   </g>
   <g id="PolyCollection_1">
    <defs>
     <path id="ma13e4a70e5" d="M 140.378182 -121.106664 
L 140.378182 -107.942182 
L 180.093333 -117.080045 
L 219.808485 -117.945962 
L 259.523636 -128.722769 
L 299.238788 -137.28206 
L 338.953939 -151.851262 
L 378.669091 -171.821536 
L 418.384242 -178.785453 
L 458.099394 -187.232103 
L 497.814545 -192.561504 
L 537.529697 -188.328602 
L 577.244848 -198.18356 
L 616.96 -210.815272 
L 656.675152 -224.35594 
L 696.390303 -231.223234 
L 736.105455 -253.92804 
L 775.820606 -248.228306 
L 815.535758 -260.476351 
L 855.250909 -265.217511 
L 894.966061 -268.193271 
L 934.681212 -253.675237 
L 974.396364 -253.675237 
L 1014.111515 -253.554431 
L 1053.826667 -229.682089 
L 1093.541818 -226.560465 
L 1093.541818 -295.995971 
L 1093.541818 -295.995971 
L 1053.826667 -280.7295 
L 1014.111515 -280.7295 
L 974.396364 -277.580632 
L 934.681212 -336.173382 
L 894.966061 -294.058868 
L 855.250909 -311.982554 
L 815.535758 -332.094463 
L 775.820606 -297.823376 
L 736.105455 -282.498285 
L 696.390303 -274.740044 
L 656.675152 -272.929818 
L 616.96 -233.417846 
L 577.244848 -222.201718 
L 537.529697 -228.988659 
L 497.814545 -261.481441 
L 458.099394 -233.523992 
L 418.384242 -210.212338 
L 378.669091 -206.575464 
L 338.953939 -190.478876 
L 299.238788 -161.271237 
L 259.523636 -150.052031 
L 219.808485 -135.401182 
L 180.093333 -124.500249 
L 140.378182 -121.106664 
z
" style="stroke: #f77189; stroke-opacity: 0.2"/>
    </defs>
    <g clip-path="url(#p4832499ea4)">
     <use xlink:href="#ma13e4a70e5" x="0" y="576" style="fill: #f77189; fill-opacity: 0.2; stroke: #f77189; stroke-opacity: 0.2"/>
    </g>
   </g>
   <g id="PolyCollection_2">
    <defs>
     <path id="me6d86225a1" d="M 140.378182 -135.344568 
L 140.378182 -116.619821 
L 180.093333 -117.956108 
L 219.808485 -127.718482 
L 259.523636 -130.300847 
L 299.238788 -155.714011 
L 338.953939 -172.546068 
L 378.669091 -171.686088 
L 418.384242 -168.485854 
L 458.099394 -172.618158 
L 497.814545 -175.707666 
L 537.529697 -178.820097 
L 577.244848 -197.301431 
L 616.96 -217.628701 
L 656.675152 -223.61439 
L 696.390303 -248.305626 
L 736.105455 -253.371234 
L 775.820606 -255.168771 
L 815.535758 -281.355277 
L 855.250909 -239.83541 
L 894.966061 -306.037071 
L 934.681212 -321.950031 
L 974.396364 -317.081114 
L 1014.111515 -274.65272 
L 1053.826667 -226.526379 
L 1093.541818 -229.806988 
L 1093.541818 -329.371503 
L 1093.541818 -329.371503 
L 1053.826667 -295.706187 
L 1014.111515 -295.706187 
L 974.396364 -321.950031 
L 934.681212 -336.29198 
L 894.966061 -333.49353 
L 855.250909 -305.968786 
L 815.535758 -315.999462 
L 775.820606 -302.202658 
L 736.105455 -271.968273 
L 696.390303 -282.023361 
L 656.675152 -278.002293 
L 616.96 -243.229785 
L 577.244848 -260.43789 
L 537.529697 -270.725885 
L 497.814545 -237.653923 
L 458.099394 -249.266794 
L 418.384242 -249.598812 
L 378.669091 -234.417321 
L 338.953939 -228.307106 
L 299.238788 -197.983962 
L 259.523636 -177.033755 
L 219.808485 -162.103447 
L 180.093333 -133.318718 
L 140.378182 -135.344568 
z
" style="stroke: #e18632; stroke-opacity: 0.2"/>
    </defs>
    <g clip-path="url(#p4832499ea4)">
     <use xlink:href="#me6d86225a1" x="0" y="576" style="fill: #e18632; fill-opacity: 0.2; stroke: #e18632; stroke-opacity: 0.2"/>
    </g>
   </g>
   <g id="PolyCollection_3">
    <defs>
     <path id="m449740c8ac" d="M 140.378182 -128.565319 
L 140.378182 -116.101677 
L 180.093333 -119.314357 
L 219.808485 -118.612088 
L 259.523636 -124.202389 
L 299.238788 -135.691217 
L 338.953939 -136.12385 
L 378.669091 -147.986219 
L 418.384242 -153.918436 
L 458.099394 -155.648496 
L 497.814545 -155.378657 
L 537.529697 -160.564063 
L 577.244848 -174.99453 
L 616.96 -173.449289 
L 656.675152 -177.091571 
L 696.390303 -196.358661 
L 736.105455 -196.720655 
L 775.820606 -202.424747 
L 815.535758 -209.353925 
L 855.250909 -218.533696 
L 894.966061 -201.156419 
L 934.681212 -199.60131 
L 974.396364 -199.60131 
L 1014.111515 -190.871672 
L 1053.826667 -187.171871 
L 1093.541818 -186.844984 
L 1093.541818 -227.129488 
L 1093.541818 -227.129488 
L 1053.826667 -228.150212 
L 1014.111515 -228.150212 
L 974.396364 -218.142255 
L 934.681212 -222.288606 
L 894.966061 -229.629333 
L 855.250909 -232.806537 
L 815.535758 -263.78569 
L 775.820606 -245.439494 
L 736.105455 -237.979706 
L 696.390303 -220.784442 
L 656.675152 -196.84029 
L 616.96 -195.276969 
L 577.244848 -191.936179 
L 537.529697 -205.820668 
L 497.814545 -189.939969 
L 458.099394 -194.414793 
L 418.384242 -179.948115 
L 378.669091 -166.107052 
L 338.953939 -151.996131 
L 299.238788 -149.081436 
L 259.523636 -139.835597 
L 219.808485 -128.691613 
L 180.093333 -129.491725 
L 140.378182 -128.565319 
z
" style="stroke: #b59a32; stroke-opacity: 0.2"/>
    </defs>
    <g clip-path="url(#p4832499ea4)">
     <use xlink:href="#m449740c8ac" x="0" y="576" style="fill: #b59a32; fill-opacity: 0.2; stroke: #b59a32; stroke-opacity: 0.2"/>
    </g>
   </g>
   <g id="PolyCollection_4">
    <defs>
     <path id="mbae101e1c9" d="M 140.378182 -140.412569 
L 140.378182 -129.347024 
L 180.093333 -135.100134 
L 219.808485 -139.38158 
L 259.523636 -150.147394 
L 299.238788 -161.701353 
L 338.953939 -178.508498 
L 378.669091 -196.114371 
L 418.384242 -209.536839 
L 458.099394 -208.919218 
L 497.814545 -212.016053 
L 537.529697 -219.650304 
L 577.244848 -220.846467 
L 616.96 -230.452881 
L 656.675152 -247.984342 
L 696.390303 -258.160124 
L 736.105455 -242.241623 
L 775.820606 -241.051774 
L 815.535758 -260.002393 
L 855.250909 -269.409476 
L 894.966061 -281.475848 
L 934.681212 -275.413141 
L 974.396364 -275.413141 
L 1014.111515 -271.280493 
L 1053.826667 -272.650304 
L 1093.541818 -271.999415 
L 1093.541818 -290.185816 
L 1093.541818 -290.185816 
L 1053.826667 -279.059926 
L 1014.111515 -279.059926 
L 974.396364 -308.924649 
L 934.681212 -361.529105 
L 894.966061 -321.649482 
L 855.250909 -303.668573 
L 815.535758 -314.650884 
L 775.820606 -296.91794 
L 736.105455 -302.992046 
L 696.390303 -298.861662 
L 656.675152 -282.933117 
L 616.96 -268.549699 
L 577.244848 -250.291396 
L 537.529697 -273.697677 
L 497.814545 -268.840288 
L 458.099394 -253.205314 
L 418.384242 -239.472396 
L 378.669091 -227.00245 
L 338.953939 -211.283862 
L 299.238788 -193.901634 
L 259.523636 -170.758431 
L 219.808485 -166.82349 
L 180.093333 -141.539395 
L 140.378182 -140.412569 
z
" style="stroke: #8ba731; stroke-opacity: 0.2"/>
    </defs>
    <g clip-path="url(#p4832499ea4)">
     <use xlink:href="#mbae101e1c9" x="0" y="576" style="fill: #8ba731; fill-opacity: 0.2; stroke: #8ba731; stroke-opacity: 0.2"/>
    </g>
   </g>
   <g id="PolyCollection_5">
    <defs>
     <path id="m8b545229d6" d="M 140.378182 -134.146521 
L 140.378182 -127.982655 
L 180.093333 -131.11411 
L 219.808485 -131.512277 
L 259.523636 -140.571044 
L 299.238788 -158.577644 
L 338.953939 -168.513447 
L 378.669091 -179.772868 
L 418.384242 -179.836473 
L 458.099394 -188.853146 
L 497.814545 -188.014286 
L 537.529697 -193.253575 
L 577.244848 -202.027947 
L 616.96 -224.412476 
L 656.675152 -230.317116 
L 696.390303 -230.392549 
L 736.105455 -237.655422 
L 775.820606 -238.180595 
L 815.535758 -246.116432 
L 855.250909 -257.538907 
L 894.966061 -264.813592 
L 934.681212 -258.611081 
L 974.396364 -258.611081 
L 1014.111515 -246.217365 
L 1053.826667 -245.082478 
L 1093.541818 -242.496715 
L 1093.541818 -300.760079 
L 1093.541818 -300.760079 
L 1053.826667 -283.913295 
L 1014.111515 -283.913295 
L 974.396364 -288.349636 
L 934.681212 -322.317549 
L 894.966061 -304.894232 
L 855.250909 -277.747383 
L 815.535758 -270.569538 
L 775.820606 -252.617957 
L 736.105455 -260.25244 
L 696.390303 -254.887863 
L 656.675152 -256.340773 
L 616.96 -246.489667 
L 577.244848 -233.683263 
L 537.529697 -298.784008 
L 497.814545 -285.6517 
L 458.099394 -240.589153 
L 418.384242 -198.417083 
L 378.669091 -192.517573 
L 338.953939 -203.735359 
L 299.238788 -179.840032 
L 259.523636 -178.551892 
L 219.808485 -157.910958 
L 180.093333 -140.35834 
L 140.378182 -134.146521 
z
" style="stroke: #32b258; stroke-opacity: 0.2"/>
    </defs>
    <g clip-path="url(#p4832499ea4)">
     <use xlink:href="#m8b545229d6" x="0" y="576" style="fill: #32b258; fill-opacity: 0.2; stroke: #32b258; stroke-opacity: 0.2"/>
    </g>
   </g>
   <g id="PolyCollection_6">
    <defs>
     <path id="mcdf9907e82" d="M 140.378182 -212.244653 
L 140.378182 -163.574203 
L 180.093333 -170.103043 
L 219.808485 -222.266853 
L 259.523636 -231.61957 
L 299.238788 -231.853211 
L 338.953939 -291.635181 
L 378.669091 -288.709146 
L 418.384242 -290.015169 
L 458.099394 -271.177687 
L 497.814545 -335.076523 
L 537.529697 -387.767636 
L 577.244848 -324.739289 
L 616.96 -308.409863 
L 656.675152 -328.416527 
L 696.390303 -321.092001 
L 736.105455 -301.372192 
L 775.820606 -301.261926 
L 815.535758 -322.940516 
L 855.250909 -356.260168 
L 894.966061 -351.852038 
L 934.681212 -442.503372 
L 974.396364 -375.948151 
L 1014.111515 -368.342451 
L 1053.826667 -453.574773 
L 1093.541818 -440.749797 
L 1093.541818 -469.442159 
L 1093.541818 -469.442159 
L 1053.826667 -480.587294 
L 1014.111515 -453.574773 
L 974.396364 -543.425818 
L 934.681212 -543.425818 
L 894.966061 -456.242809 
L 855.250909 -482.462735 
L 815.535758 -361.845234 
L 775.820606 -392.503756 
L 736.105455 -346.343106 
L 696.390303 -456.935019 
L 656.675152 -379.834034 
L 616.96 -403.964487 
L 577.244848 -486.886519 
L 537.529697 -470.357272 
L 497.814545 -443.313953 
L 458.099394 -481.428478 
L 418.384242 -401.964888 
L 378.669091 -389.566419 
L 338.953939 -437.429623 
L 299.238788 -334.201532 
L 259.523636 -302.823512 
L 219.808485 -273.926497 
L 180.093333 -247.065983 
L 140.378182 -212.244653 
z
" style="stroke: #35ae95; stroke-opacity: 0.2"/>
    </defs>
    <g clip-path="url(#p4832499ea4)">
     <use xlink:href="#mcdf9907e82" x="0" y="576" style="fill: #35ae95; fill-opacity: 0.2; stroke: #35ae95; stroke-opacity: 0.2"/>
    </g>
   </g>
   <g id="PolyCollection_7">
    <defs>
     <path id="m1b2455aacd" d="M 140.378182 -176.725266 
L 140.378182 -145.391957 
L 180.093333 -147.759563 
L 219.808485 -200.70853 
L 259.523636 -201.415811 
L 299.238788 -211.390555 
L 338.953939 -255.523289 
L 378.669091 -260.320781 
L 418.384242 -252.925342 
L 458.099394 -258.183271 
L 497.814545 -284.562034 
L 537.529697 -308.192029 
L 577.244848 -297.052155 
L 616.96 -274.43824 
L 656.675152 -285.15982 
L 696.390303 -290.194572 
L 736.105455 -285.00322 
L 775.820606 -262.695078 
L 815.535758 -264.607136 
L 855.250909 -331.96424 
L 894.966061 -360.424996 
L 934.681212 -397.437419 
L 974.396364 -317.356881 
L 1014.111515 -340.075615 
L 1053.826667 -340.075615 
L 1093.541818 -413.556252 
L 1093.541818 -444.109172 
L 1093.541818 -444.109172 
L 1053.826667 -448.43192 
L 1014.111515 -394.001201 
L 974.396364 -458.996646 
L 934.681212 -458.996646 
L 894.966061 -413.096136 
L 855.250909 -372.015959 
L 815.535758 -284.846758 
L 775.820606 -336.853797 
L 736.105455 -323.501743 
L 696.390303 -359.792563 
L 656.675152 -351.770786 
L 616.96 -358.737627 
L 577.244848 -368.200777 
L 537.529697 -394.788815 
L 497.814545 -432.107125 
L 458.099394 -399.086277 
L 418.384242 -341.392834 
L 378.669091 -312.534485 
L 338.953939 -318.257812 
L 299.238788 -287.80369 
L 259.523636 -262.730103 
L 219.808485 -246.625408 
L 180.093333 -197.759799 
L 140.378182 -176.725266 
z
" style="stroke: #37abb2; stroke-opacity: 0.2"/>
    </defs>
    <g clip-path="url(#p4832499ea4)">
     <use xlink:href="#m1b2455aacd" x="0" y="576" style="fill: #37abb2; fill-opacity: 0.2; stroke: #37abb2; stroke-opacity: 0.2"/>
    </g>
   </g>
   <g id="PolyCollection_8">
    <defs>
     <path id="m1e91f24a1b" d="M 140.378182 -190.12479 
L 140.378182 -160.253242 
L 180.093333 -153.309689 
L 219.808485 -159.788706 
L 259.523636 -169.107531 
L 299.238788 -194.652922 
L 338.953939 -200.679491 
L 378.669091 -223.434111 
L 418.384242 -234.286683 
L 458.099394 -234.255489 
L 497.814545 -242.958648 
L 537.529697 -252.44286 
L 577.244848 -272.328204 
L 616.96 -274.344597 
L 656.675152 -276.135948 
L 696.390303 -308.454609 
L 736.105455 -281.452697 
L 775.820606 -284.98652 
L 815.535758 -280.331991 
L 855.250909 -285.792948 
L 894.966061 -274.500179 
L 934.681212 -261.590273 
L 974.396364 -261.590273 
L 1014.111515 -225.58885 
L 1053.826667 -233.165358 
L 1093.541818 -225.085076 
L 1093.541818 -349.661484 
L 1093.541818 -349.661484 
L 1053.826667 -353.107373 
L 1014.111515 -353.107373 
L 974.396364 -337.545776 
L 934.681212 -352.410825 
L 894.966061 -357.838934 
L 855.250909 -361.678235 
L 815.535758 -435.250388 
L 775.820606 -464.396858 
L 736.105455 -471.679069 
L 696.390303 -429.947048 
L 656.675152 -368.375328 
L 616.96 -369.030023 
L 577.244848 -334.799736 
L 537.529697 -370.06733 
L 497.814545 -344.535121 
L 458.099394 -309.661569 
L 418.384242 -280.109947 
L 378.669091 -248.894231 
L 338.953939 -234.690553 
L 299.238788 -231.185404 
L 259.523636 -194.54859 
L 219.808485 -173.95862 
L 180.093333 -179.779541 
L 140.378182 -190.12479 
z
" style="stroke: #39a7d6; stroke-opacity: 0.2"/>
    </defs>
    <g clip-path="url(#p4832499ea4)">
     <use xlink:href="#m1e91f24a1b" x="0" y="576" style="fill: #39a7d6; fill-opacity: 0.2; stroke: #39a7d6; stroke-opacity: 0.2"/>
    </g>
   </g>
   <g id="PolyCollection_9">
    <defs>
     <path id="m258627f957" d="M 140.378182 -175.908629 
L 140.378182 -157.823609 
L 180.093333 -170.451875 
L 219.808485 -176.542178 
L 259.523636 -179.624092 
L 299.238788 -189.558242 
L 338.953939 -200.959784 
L 378.669091 -216.708804 
L 418.384242 -225.49302 
L 458.099394 -224.156595 
L 497.814545 -228.080818 
L 537.529697 -234.54435 
L 577.244848 -250.288537 
L 616.96 -240.819034 
L 656.675152 -263.592531 
L 696.390303 -261.285425 
L 736.105455 -257.944356 
L 775.820606 -239.713284 
L 815.535758 -263.697326 
L 855.250909 -256.522279 
L 894.966061 -257.638818 
L 934.681212 -248.653536 
L 974.396364 -248.653536 
L 1014.111515 -252.988421 
L 1053.826667 -265.218559 
L 1093.541818 -260.564515 
L 1093.541818 -264.394278 
L 1093.541818 -264.394278 
L 1053.826667 -270.231739 
L 1014.111515 -270.231739 
L 974.396364 -301.290712 
L 934.681212 -303.176731 
L 894.966061 -287.392533 
L 855.250909 -299.755091 
L 815.535758 -334.789287 
L 775.820606 -341.735433 
L 736.105455 -299.02612 
L 696.390303 -296.072881 
L 656.675152 -283.321129 
L 616.96 -273.35491 
L 577.244848 -271.264519 
L 537.529697 -258.593079 
L 497.814545 -268.044972 
L 458.099394 -248.382777 
L 418.384242 -259.922194 
L 378.669091 -256.745732 
L 338.953939 -239.313471 
L 299.238788 -210.013994 
L 259.523636 -193.478101 
L 219.808485 -190.549197 
L 180.093333 -178.417015 
L 140.378182 -175.908629 
z
" style="stroke: #8f93f4; stroke-opacity: 0.2"/>
    </defs>
    <g clip-path="url(#p4832499ea4)">
     <use xlink:href="#m258627f957" x="0" y="576" style="fill: #8f93f4; fill-opacity: 0.2; stroke: #8f93f4; stroke-opacity: 0.2"/>
    </g>
   </g>
   <g id="PolyCollection_10">
    <defs>
     <path id="mbe5312fadb" d="M 140.378182 -180.949539 
L 140.378182 -175.050754 
L 180.093333 -174.845672 
L 219.808485 -171.576214 
L 259.523636 -180.010856 
L 299.238788 -191.010068 
L 338.953939 -193.343871 
L 378.669091 -207.089751 
L 418.384242 -216.654232 
L 458.099394 -214.727075 
L 497.814545 -221.194778 
L 537.529697 -224.288457 
L 577.244848 -212.975243 
L 616.96 -220.365127 
L 656.675152 -221.237543 
L 696.390303 -218.228918 
L 736.105455 -225.284211 
L 775.820606 -220.94565 
L 815.535758 -233.817854 
L 855.250909 -233.930984 
L 894.966061 -222.808541 
L 934.681212 -225.157928 
L 974.396364 -225.157928 
L 1014.111515 -231.589693 
L 1053.826667 -239.270611 
L 1093.541818 -238.507279 
L 1093.541818 -244.282058 
L 1093.541818 -244.282058 
L 1053.826667 -254.887114 
L 1014.111515 -254.887114 
L 974.396364 -247.118611 
L 934.681212 -257.882256 
L 894.966061 -246.614066 
L 855.250909 -247.084542 
L 815.535758 -269.781772 
L 775.820606 -289.272964 
L 736.105455 -266.281881 
L 696.390303 -245.739009 
L 656.675152 -255.308602 
L 616.96 -259.174153 
L 577.244848 -239.543599 
L 537.529697 -284.876395 
L 497.814545 -254.467259 
L 458.099394 -252.070107 
L 418.384242 -251.83416 
L 378.669091 -238.330927 
L 338.953939 -223.123653 
L 299.238788 -201.301115 
L 259.523636 -192.184615 
L 219.808485 -188.618533 
L 180.093333 -179.5602 
L 140.378182 -180.949539 
z
" style="stroke: #db70f4; stroke-opacity: 0.2"/>
    </defs>
    <g clip-path="url(#p4832499ea4)">
     <use xlink:href="#mbe5312fadb" x="0" y="576" style="fill: #db70f4; fill-opacity: 0.2; stroke: #db70f4; stroke-opacity: 0.2"/>
    </g>
   </g>
   <g id="PolyCollection_11">
    <defs>
     <path id="m5ef3c9371e" d="M 140.378182 -180.846953 
L 140.378182 -175.059244 
L 180.093333 -174.613424 
L 219.808485 -171.571015 
L 259.523636 -179.939368 
L 299.238788 -190.215389 
L 338.953939 -193.022634 
L 378.669091 -205.972349 
L 418.384242 -215.852133 
L 458.099394 -214.072366 
L 497.814545 -220.740954 
L 537.529697 -222.466605 
L 577.244848 -212.277245 
L 616.96 -220.2185 
L 656.675152 -221.220976 
L 696.390303 -218.225702 
L 736.105455 -225.298355 
L 775.820606 -220.950013 
L 815.535758 -233.797306 
L 855.250909 -233.889415 
L 894.966061 -222.835069 
L 934.681212 -225.173152 
L 974.396364 -225.173152 
L 1014.111515 -231.690845 
L 1053.826667 -239.294633 
L 1093.541818 -238.536839 
L 1093.541818 -244.30139 
L 1093.541818 -244.30139 
L 1053.826667 -254.840627 
L 1014.111515 -254.840627 
L 974.396364 -247.033316 
L 934.681212 -257.798207 
L 894.966061 -246.597538 
L 855.250909 -247.025329 
L 815.535758 -269.762565 
L 775.820606 -289.256537 
L 736.105455 -266.267912 
L 696.390303 -245.759648 
L 656.675152 -255.278151 
L 616.96 -258.08858 
L 577.244848 -239.586584 
L 537.529697 -287.808087 
L 497.814545 -255.147684 
L 458.099394 -251.296059 
L 418.384242 -253.565094 
L 378.669091 -237.969271 
L 338.953939 -223.169098 
L 299.238788 -201.134332 
L 259.523636 -191.841566 
L 219.808485 -188.094407 
L 180.093333 -179.539842 
L 140.378182 -180.846953 
z
" style="stroke: #f667c6; stroke-opacity: 0.2"/>
    </defs>
    <g clip-path="url(#p4832499ea4)">
     <use xlink:href="#m5ef3c9371e" x="0" y="576" style="fill: #f667c6; fill-opacity: 0.2; stroke: #f667c6; stroke-opacity: 0.2"/>
    </g>
   </g>
   <g id="matplotlib.axis_1">
    <g id="xtick_1">
     <g id="line2d_1">
      <defs>
       <path id="mc63678084d" d="M 0 0 
L 0 3.5 
" style="stroke: #000000; stroke-width: 0.8"/>
      </defs>
      <g>
       <use xlink:href="#mc63678084d" x="120.520606" y="489.832" style="stroke: #000000; stroke-width: 0.8"/>
      </g>
     </g>
     <g id="text_1">
      <!-- 0 -->
      <g transform="translate(114.158106 512.028875) scale(0.2 -0.2)">
       <defs>
        <path id="DejaVuSans-30" d="M 2034 4250 
Q 1547 4250 1301 3770 
Q 1056 3291 1056 2328 
Q 1056 1369 1301 889 
Q 1547 409 2034 409 
Q 2525 409 2770 889 
Q 3016 1369 3016 2328 
Q 3016 3291 2770 3770 
Q 2525 4250 2034 4250 
z
M 2034 4750 
Q 2819 4750 3233 4129 
Q 3647 3509 3647 2328 
Q 3647 1150 3233 529 
Q 2819 -91 2034 -91 
Q 1250 -91 836 529 
Q 422 1150 422 2328 
Q 422 3509 836 4129 
Q 1250 4750 2034 4750 
z
" transform="scale(0.015625)"/>
       </defs>
       <use xlink:href="#DejaVuSans-30"/>
      </g>
     </g>
    </g>
    <g id="xtick_2">
     <g id="line2d_2">
      <g>
       <use xlink:href="#mc63678084d" x="319.096364" y="489.832" style="stroke: #000000; stroke-width: 0.8"/>
      </g>
     </g>
     <g id="text_2">
      <!-- 10 -->
      <g transform="translate(306.371364 512.028875) scale(0.2 -0.2)">
       <defs>
        <path id="DejaVuSans-31" d="M 794 531 
L 1825 531 
L 1825 4091 
L 703 3866 
L 703 4441 
L 1819 4666 
L 2450 4666 
L 2450 531 
L 3481 531 
L 3481 0 
L 794 0 
L 794 531 
z
" transform="scale(0.015625)"/>
       </defs>
       <use xlink:href="#DejaVuSans-31"/>
       <use xlink:href="#DejaVuSans-30" x="63.623047"/>
      </g>
     </g>
    </g>
    <g id="xtick_3">
     <g id="line2d_3">
      <g>
       <use xlink:href="#mc63678084d" x="517.672121" y="489.832" style="stroke: #000000; stroke-width: 0.8"/>
      </g>
     </g>
     <g id="text_3">
      <!-- 20 -->
      <g transform="translate(504.947121 512.028875) scale(0.2 -0.2)">
       <defs>
        <path id="DejaVuSans-32" d="M 1228 531 
L 3431 531 
L 3431 0 
L 469 0 
L 469 531 
Q 828 903 1448 1529 
Q 2069 2156 2228 2338 
Q 2531 2678 2651 2914 
Q 2772 3150 2772 3378 
Q 2772 3750 2511 3984 
Q 2250 4219 1831 4219 
Q 1534 4219 1204 4116 
Q 875 4013 500 3803 
L 500 4441 
Q 881 4594 1212 4672 
Q 1544 4750 1819 4750 
Q 2544 4750 2975 4387 
Q 3406 4025 3406 3419 
Q 3406 3131 3298 2873 
Q 3191 2616 2906 2266 
Q 2828 2175 2409 1742 
Q 1991 1309 1228 531 
z
" transform="scale(0.015625)"/>
       </defs>
       <use xlink:href="#DejaVuSans-32"/>
       <use xlink:href="#DejaVuSans-30" x="63.623047"/>
      </g>
     </g>
    </g>
    <g id="xtick_4">
     <g id="line2d_4">
      <g>
       <use xlink:href="#mc63678084d" x="716.247879" y="489.832" style="stroke: #000000; stroke-width: 0.8"/>
      </g>
     </g>
     <g id="text_4">
      <!-- 30 -->
      <g transform="translate(703.522879 512.028875) scale(0.2 -0.2)">
       <defs>
        <path id="DejaVuSans-33" d="M 2597 2516 
Q 3050 2419 3304 2112 
Q 3559 1806 3559 1356 
Q 3559 666 3084 287 
Q 2609 -91 1734 -91 
Q 1441 -91 1130 -33 
Q 819 25 488 141 
L 488 750 
Q 750 597 1062 519 
Q 1375 441 1716 441 
Q 2309 441 2620 675 
Q 2931 909 2931 1356 
Q 2931 1769 2642 2001 
Q 2353 2234 1838 2234 
L 1294 2234 
L 1294 2753 
L 1863 2753 
Q 2328 2753 2575 2939 
Q 2822 3125 2822 3475 
Q 2822 3834 2567 4026 
Q 2313 4219 1838 4219 
Q 1578 4219 1281 4162 
Q 984 4106 628 3988 
L 628 4550 
Q 988 4650 1302 4700 
Q 1616 4750 1894 4750 
Q 2613 4750 3031 4423 
Q 3450 4097 3450 3541 
Q 3450 3153 3228 2886 
Q 3006 2619 2597 2516 
z
" transform="scale(0.015625)"/>
       </defs>
       <use xlink:href="#DejaVuSans-33"/>
       <use xlink:href="#DejaVuSans-30" x="63.623047"/>
      </g>
     </g>
    </g>
    <g id="xtick_5">
     <g id="line2d_5">
      <g>
       <use xlink:href="#mc63678084d" x="914.823636" y="489.832" style="stroke: #000000; stroke-width: 0.8"/>
      </g>
     </g>
     <g id="text_5">
      <!-- 40 -->
      <g transform="translate(902.098636 512.028875) scale(0.2 -0.2)">
       <defs>
        <path id="DejaVuSans-34" d="M 2419 4116 
L 825 1625 
L 2419 1625 
L 2419 4116 
z
M 2253 4666 
L 3047 4666 
L 3047 1625 
L 3713 1625 
L 3713 1100 
L 3047 1100 
L 3047 0 
L 2419 0 
L 2419 1100 
L 313 1100 
L 313 1709 
L 2253 4666 
z
" transform="scale(0.015625)"/>
       </defs>
       <use xlink:href="#DejaVuSans-34"/>
       <use xlink:href="#DejaVuSans-30" x="63.623047"/>
      </g>
     </g>
    </g>
    <g id="xtick_6">
     <g id="line2d_6">
      <g>
       <use xlink:href="#mc63678084d" x="1113.399394" y="489.832" style="stroke: #000000; stroke-width: 0.8"/>
      </g>
     </g>
     <g id="text_6">
      <!-- 50 -->
      <g transform="translate(1100.674394 512.028875) scale(0.2 -0.2)">
       <defs>
        <path id="DejaVuSans-35" d="M 691 4666 
L 3169 4666 
L 3169 4134 
L 1269 4134 
L 1269 2991 
Q 1406 3038 1543 3061 
Q 1681 3084 1819 3084 
Q 2600 3084 3056 2656 
Q 3513 2228 3513 1497 
Q 3513 744 3044 326 
Q 2575 -91 1722 -91 
Q 1428 -91 1123 -41 
Q 819 9 494 109 
L 494 744 
Q 775 591 1075 516 
Q 1375 441 1709 441 
Q 2250 441 2565 725 
Q 2881 1009 2881 1497 
Q 2881 1984 2565 2268 
Q 2250 2553 1709 2553 
Q 1456 2553 1204 2497 
Q 953 2441 691 2322 
L 691 4666 
z
" transform="scale(0.015625)"/>
       </defs>
       <use xlink:href="#DejaVuSans-35"/>
       <use xlink:href="#DejaVuSans-30" x="63.623047"/>
      </g>
     </g>
    </g>
    <g id="text_7">
     <!-- Percentile Threshold -->
     <g transform="translate(515.180313 535.385125) scale(0.2 -0.2)">
      <defs>
       <path id="DejaVuSans-50" d="M 1259 4147 
L 1259 2394 
L 2053 2394 
Q 2494 2394 2734 2622 
Q 2975 2850 2975 3272 
Q 2975 3691 2734 3919 
Q 2494 4147 2053 4147 
L 1259 4147 
z
M 628 4666 
L 2053 4666 
Q 2838 4666 3239 4311 
Q 3641 3956 3641 3272 
Q 3641 2581 3239 2228 
Q 2838 1875 2053 1875 
L 1259 1875 
L 1259 0 
L 628 0 
L 628 4666 
z
" transform="scale(0.015625)"/>
       <path id="DejaVuSans-65" d="M 3597 1894 
L 3597 1613 
L 953 1613 
Q 991 1019 1311 708 
Q 1631 397 2203 397 
Q 2534 397 2845 478 
Q 3156 559 3463 722 
L 3463 178 
Q 3153 47 2828 -22 
Q 2503 -91 2169 -91 
Q 1331 -91 842 396 
Q 353 884 353 1716 
Q 353 2575 817 3079 
Q 1281 3584 2069 3584 
Q 2775 3584 3186 3129 
Q 3597 2675 3597 1894 
z
M 3022 2063 
Q 3016 2534 2758 2815 
Q 2500 3097 2075 3097 
Q 1594 3097 1305 2825 
Q 1016 2553 972 2059 
L 3022 2063 
z
" transform="scale(0.015625)"/>
       <path id="DejaVuSans-72" d="M 2631 2963 
Q 2534 3019 2420 3045 
Q 2306 3072 2169 3072 
Q 1681 3072 1420 2755 
Q 1159 2438 1159 1844 
L 1159 0 
L 581 0 
L 581 3500 
L 1159 3500 
L 1159 2956 
Q 1341 3275 1631 3429 
Q 1922 3584 2338 3584 
Q 2397 3584 2469 3576 
Q 2541 3569 2628 3553 
L 2631 2963 
z
" transform="scale(0.015625)"/>
       <path id="DejaVuSans-63" d="M 3122 3366 
L 3122 2828 
Q 2878 2963 2633 3030 
Q 2388 3097 2138 3097 
Q 1578 3097 1268 2742 
Q 959 2388 959 1747 
Q 959 1106 1268 751 
Q 1578 397 2138 397 
Q 2388 397 2633 464 
Q 2878 531 3122 666 
L 3122 134 
Q 2881 22 2623 -34 
Q 2366 -91 2075 -91 
Q 1284 -91 818 406 
Q 353 903 353 1747 
Q 353 2603 823 3093 
Q 1294 3584 2113 3584 
Q 2378 3584 2631 3529 
Q 2884 3475 3122 3366 
z
" transform="scale(0.015625)"/>
       <path id="DejaVuSans-6e" d="M 3513 2113 
L 3513 0 
L 2938 0 
L 2938 2094 
Q 2938 2591 2744 2837 
Q 2550 3084 2163 3084 
Q 1697 3084 1428 2787 
Q 1159 2491 1159 1978 
L 1159 0 
L 581 0 
L 581 3500 
L 1159 3500 
L 1159 2956 
Q 1366 3272 1645 3428 
Q 1925 3584 2291 3584 
Q 2894 3584 3203 3211 
Q 3513 2838 3513 2113 
z
" transform="scale(0.015625)"/>
       <path id="DejaVuSans-74" d="M 1172 4494 
L 1172 3500 
L 2356 3500 
L 2356 3053 
L 1172 3053 
L 1172 1153 
Q 1172 725 1289 603 
Q 1406 481 1766 481 
L 2356 481 
L 2356 0 
L 1766 0 
Q 1100 0 847 248 
Q 594 497 594 1153 
L 594 3053 
L 172 3053 
L 172 3500 
L 594 3500 
L 594 4494 
L 1172 4494 
z
" transform="scale(0.015625)"/>
       <path id="DejaVuSans-69" d="M 603 3500 
L 1178 3500 
L 1178 0 
L 603 0 
L 603 3500 
z
M 603 4863 
L 1178 4863 
L 1178 4134 
L 603 4134 
L 603 4863 
z
" transform="scale(0.015625)"/>
       <path id="DejaVuSans-6c" d="M 603 4863 
L 1178 4863 
L 1178 0 
L 603 0 
L 603 4863 
z
" transform="scale(0.015625)"/>
       <path id="DejaVuSans-20" transform="scale(0.015625)"/>
       <path id="DejaVuSans-54" d="M -19 4666 
L 3928 4666 
L 3928 4134 
L 2272 4134 
L 2272 0 
L 1638 0 
L 1638 4134 
L -19 4134 
L -19 4666 
z
" transform="scale(0.015625)"/>
       <path id="DejaVuSans-68" d="M 3513 2113 
L 3513 0 
L 2938 0 
L 2938 2094 
Q 2938 2591 2744 2837 
Q 2550 3084 2163 3084 
Q 1697 3084 1428 2787 
Q 1159 2491 1159 1978 
L 1159 0 
L 581 0 
L 581 4863 
L 1159 4863 
L 1159 2956 
Q 1366 3272 1645 3428 
Q 1925 3584 2291 3584 
Q 2894 3584 3203 3211 
Q 3513 2838 3513 2113 
z
" transform="scale(0.015625)"/>
       <path id="DejaVuSans-73" d="M 2834 3397 
L 2834 2853 
Q 2591 2978 2328 3040 
Q 2066 3103 1784 3103 
Q 1356 3103 1142 2972 
Q 928 2841 928 2578 
Q 928 2378 1081 2264 
Q 1234 2150 1697 2047 
L 1894 2003 
Q 2506 1872 2764 1633 
Q 3022 1394 3022 966 
Q 3022 478 2636 193 
Q 2250 -91 1575 -91 
Q 1294 -91 989 -36 
Q 684 19 347 128 
L 347 722 
Q 666 556 975 473 
Q 1284 391 1588 391 
Q 1994 391 2212 530 
Q 2431 669 2431 922 
Q 2431 1156 2273 1281 
Q 2116 1406 1581 1522 
L 1381 1569 
Q 847 1681 609 1914 
Q 372 2147 372 2553 
Q 372 3047 722 3315 
Q 1072 3584 1716 3584 
Q 2034 3584 2315 3537 
Q 2597 3491 2834 3397 
z
" transform="scale(0.015625)"/>
       <path id="DejaVuSans-6f" d="M 1959 3097 
Q 1497 3097 1228 2736 
Q 959 2375 959 1747 
Q 959 1119 1226 758 
Q 1494 397 1959 397 
Q 2419 397 2687 759 
Q 2956 1122 2956 1747 
Q 2956 2369 2687 2733 
Q 2419 3097 1959 3097 
z
M 1959 3584 
Q 2709 3584 3137 3096 
Q 3566 2609 3566 1747 
Q 3566 888 3137 398 
Q 2709 -91 1959 -91 
Q 1206 -91 779 398 
Q 353 888 353 1747 
Q 353 2609 779 3096 
Q 1206 3584 1959 3584 
z
" transform="scale(0.015625)"/>
       <path id="DejaVuSans-64" d="M 2906 2969 
L 2906 4863 
L 3481 4863 
L 3481 0 
L 2906 0 
L 2906 525 
Q 2725 213 2448 61 
Q 2172 -91 1784 -91 
Q 1150 -91 751 415 
Q 353 922 353 1747 
Q 353 2572 751 3078 
Q 1150 3584 1784 3584 
Q 2172 3584 2448 3432 
Q 2725 3281 2906 2969 
z
M 947 1747 
Q 947 1113 1208 752 
Q 1469 391 1925 391 
Q 2381 391 2643 752 
Q 2906 1113 2906 1747 
Q 2906 2381 2643 2742 
Q 2381 3103 1925 3103 
Q 1469 3103 1208 2742 
Q 947 2381 947 1747 
z
" transform="scale(0.015625)"/>
      </defs>
      <use xlink:href="#DejaVuSans-50"/>
      <use xlink:href="#DejaVuSans-65" x="56.677734"/>
      <use xlink:href="#DejaVuSans-72" x="118.201172"/>
      <use xlink:href="#DejaVuSans-63" x="157.064453"/>
      <use xlink:href="#DejaVuSans-65" x="212.044922"/>
      <use xlink:href="#DejaVuSans-6e" x="273.568359"/>
      <use xlink:href="#DejaVuSans-74" x="336.947266"/>
      <use xlink:href="#DejaVuSans-69" x="376.15625"/>
      <use xlink:href="#DejaVuSans-6c" x="403.939453"/>
      <use xlink:href="#DejaVuSans-65" x="431.722656"/>
      <use xlink:href="#DejaVuSans-20" x="493.246094"/>
      <use xlink:href="#DejaVuSans-54" x="525.033203"/>
      <use xlink:href="#DejaVuSans-68" x="586.117188"/>
      <use xlink:href="#DejaVuSans-72" x="649.496094"/>
      <use xlink:href="#DejaVuSans-65" x="688.359375"/>
      <use xlink:href="#DejaVuSans-73" x="749.882812"/>
      <use xlink:href="#DejaVuSans-68" x="801.982422"/>
      <use xlink:href="#DejaVuSans-6f" x="865.361328"/>
      <use xlink:href="#DejaVuSans-6c" x="926.542969"/>
      <use xlink:href="#DejaVuSans-64" x="954.326172"/>
     </g>
     <!-- (Using "leave_out" Threshold Handling) -->
     <g transform="translate(420.069375 557.78075) scale(0.2 -0.2)">
      <defs>
       <path id="DejaVuSans-28" d="M 1984 4856 
Q 1566 4138 1362 3434 
Q 1159 2731 1159 2009 
Q 1159 1288 1364 580 
Q 1569 -128 1984 -844 
L 1484 -844 
Q 1016 -109 783 600 
Q 550 1309 550 2009 
Q 550 2706 781 3412 
Q 1013 4119 1484 4856 
L 1984 4856 
z
" transform="scale(0.015625)"/>
       <path id="DejaVuSans-55" d="M 556 4666 
L 1191 4666 
L 1191 1831 
Q 1191 1081 1462 751 
Q 1734 422 2344 422 
Q 2950 422 3222 751 
Q 3494 1081 3494 1831 
L 3494 4666 
L 4128 4666 
L 4128 1753 
Q 4128 841 3676 375 
Q 3225 -91 2344 -91 
Q 1459 -91 1007 375 
Q 556 841 556 1753 
L 556 4666 
z
" transform="scale(0.015625)"/>
       <path id="DejaVuSans-67" d="M 2906 1791 
Q 2906 2416 2648 2759 
Q 2391 3103 1925 3103 
Q 1463 3103 1205 2759 
Q 947 2416 947 1791 
Q 947 1169 1205 825 
Q 1463 481 1925 481 
Q 2391 481 2648 825 
Q 2906 1169 2906 1791 
z
M 3481 434 
Q 3481 -459 3084 -895 
Q 2688 -1331 1869 -1331 
Q 1566 -1331 1297 -1286 
Q 1028 -1241 775 -1147 
L 775 -588 
Q 1028 -725 1275 -790 
Q 1522 -856 1778 -856 
Q 2344 -856 2625 -561 
Q 2906 -266 2906 331 
L 2906 616 
Q 2728 306 2450 153 
Q 2172 0 1784 0 
Q 1141 0 747 490 
Q 353 981 353 1791 
Q 353 2603 747 3093 
Q 1141 3584 1784 3584 
Q 2172 3584 2450 3431 
Q 2728 3278 2906 2969 
L 2906 3500 
L 3481 3500 
L 3481 434 
z
" transform="scale(0.015625)"/>
       <path id="DejaVuSans-22" d="M 1147 4666 
L 1147 2931 
L 616 2931 
L 616 4666 
L 1147 4666 
z
M 2328 4666 
L 2328 2931 
L 1797 2931 
L 1797 4666 
L 2328 4666 
z
" transform="scale(0.015625)"/>
       <path id="DejaVuSans-61" d="M 2194 1759 
Q 1497 1759 1228 1600 
Q 959 1441 959 1056 
Q 959 750 1161 570 
Q 1363 391 1709 391 
Q 2188 391 2477 730 
Q 2766 1069 2766 1631 
L 2766 1759 
L 2194 1759 
z
M 3341 1997 
L 3341 0 
L 2766 0 
L 2766 531 
Q 2569 213 2275 61 
Q 1981 -91 1556 -91 
Q 1019 -91 701 211 
Q 384 513 384 1019 
Q 384 1609 779 1909 
Q 1175 2209 1959 2209 
L 2766 2209 
L 2766 2266 
Q 2766 2663 2505 2880 
Q 2244 3097 1772 3097 
Q 1472 3097 1187 3025 
Q 903 2953 641 2809 
L 641 3341 
Q 956 3463 1253 3523 
Q 1550 3584 1831 3584 
Q 2591 3584 2966 3190 
Q 3341 2797 3341 1997 
z
" transform="scale(0.015625)"/>
       <path id="DejaVuSans-76" d="M 191 3500 
L 800 3500 
L 1894 563 
L 2988 3500 
L 3597 3500 
L 2284 0 
L 1503 0 
L 191 3500 
z
" transform="scale(0.015625)"/>
       <path id="DejaVuSans-5f" d="M 3263 -1063 
L 3263 -1509 
L -63 -1509 
L -63 -1063 
L 3263 -1063 
z
" transform="scale(0.015625)"/>
       <path id="DejaVuSans-75" d="M 544 1381 
L 544 3500 
L 1119 3500 
L 1119 1403 
Q 1119 906 1312 657 
Q 1506 409 1894 409 
Q 2359 409 2629 706 
Q 2900 1003 2900 1516 
L 2900 3500 
L 3475 3500 
L 3475 0 
L 2900 0 
L 2900 538 
Q 2691 219 2414 64 
Q 2138 -91 1772 -91 
Q 1169 -91 856 284 
Q 544 659 544 1381 
z
M 1991 3584 
L 1991 3584 
z
" transform="scale(0.015625)"/>
       <path id="DejaVuSans-48" d="M 628 4666 
L 1259 4666 
L 1259 2753 
L 3553 2753 
L 3553 4666 
L 4184 4666 
L 4184 0 
L 3553 0 
L 3553 2222 
L 1259 2222 
L 1259 0 
L 628 0 
L 628 4666 
z
" transform="scale(0.015625)"/>
       <path id="DejaVuSans-29" d="M 513 4856 
L 1013 4856 
Q 1481 4119 1714 3412 
Q 1947 2706 1947 2009 
Q 1947 1309 1714 600 
Q 1481 -109 1013 -844 
L 513 -844 
Q 928 -128 1133 580 
Q 1338 1288 1338 2009 
Q 1338 2731 1133 3434 
Q 928 4138 513 4856 
z
" transform="scale(0.015625)"/>
      </defs>
      <use xlink:href="#DejaVuSans-28"/>
      <use xlink:href="#DejaVuSans-55" x="39.013672"/>
      <use xlink:href="#DejaVuSans-73" x="112.207031"/>
      <use xlink:href="#DejaVuSans-69" x="164.306641"/>
      <use xlink:href="#DejaVuSans-6e" x="192.089844"/>
      <use xlink:href="#DejaVuSans-67" x="255.46875"/>
      <use xlink:href="#DejaVuSans-20" x="318.945312"/>
      <use xlink:href="#DejaVuSans-22" x="350.732422"/>
      <use xlink:href="#DejaVuSans-6c" x="396.728516"/>
      <use xlink:href="#DejaVuSans-65" x="424.511719"/>
      <use xlink:href="#DejaVuSans-61" x="486.035156"/>
      <use xlink:href="#DejaVuSans-76" x="547.314453"/>
      <use xlink:href="#DejaVuSans-65" x="606.494141"/>
      <use xlink:href="#DejaVuSans-5f" x="668.017578"/>
      <use xlink:href="#DejaVuSans-6f" x="718.017578"/>
      <use xlink:href="#DejaVuSans-75" x="779.199219"/>
      <use xlink:href="#DejaVuSans-74" x="842.578125"/>
      <use xlink:href="#DejaVuSans-22" x="881.787109"/>
      <use xlink:href="#DejaVuSans-20" x="927.783203"/>
      <use xlink:href="#DejaVuSans-54" x="959.570312"/>
      <use xlink:href="#DejaVuSans-68" x="1020.654297"/>
      <use xlink:href="#DejaVuSans-72" x="1084.033203"/>
      <use xlink:href="#DejaVuSans-65" x="1122.896484"/>
      <use xlink:href="#DejaVuSans-73" x="1184.419922"/>
      <use xlink:href="#DejaVuSans-68" x="1236.519531"/>
      <use xlink:href="#DejaVuSans-6f" x="1299.898438"/>
      <use xlink:href="#DejaVuSans-6c" x="1361.080078"/>
      <use xlink:href="#DejaVuSans-64" x="1388.863281"/>
      <use xlink:href="#DejaVuSans-20" x="1452.339844"/>
      <use xlink:href="#DejaVuSans-48" x="1484.126953"/>
      <use xlink:href="#DejaVuSans-61" x="1559.322266"/>
      <use xlink:href="#DejaVuSans-6e" x="1620.601562"/>
      <use xlink:href="#DejaVuSans-64" x="1683.980469"/>
      <use xlink:href="#DejaVuSans-6c" x="1747.457031"/>
      <use xlink:href="#DejaVuSans-69" x="1775.240234"/>
      <use xlink:href="#DejaVuSans-6e" x="1803.023438"/>
      <use xlink:href="#DejaVuSans-67" x="1866.402344"/>
      <use xlink:href="#DejaVuSans-29" x="1929.878906"/>
     </g>
    </g>
   </g>
   <g id="matplotlib.axis_2">
    <g id="ytick_1">
     <g id="line2d_7">
      <defs>
       <path id="m29dee234c5" d="M 0 0 
L -3.5 0 
" style="stroke: #000000; stroke-width: 0.8"/>
      </defs>
      <g>
       <use xlink:href="#m29dee234c5" x="92.72" y="427.587408" style="stroke: #000000; stroke-width: 0.8"/>
      </g>
     </g>
     <g id="text_8">
      <!-- 400 -->
      <g transform="translate(47.545 435.185846) scale(0.2 -0.2)">
       <use xlink:href="#DejaVuSans-34"/>
       <use xlink:href="#DejaVuSans-30" x="63.623047"/>
       <use xlink:href="#DejaVuSans-30" x="127.246094"/>
      </g>
     </g>
    </g>
    <g id="ytick_2">
     <g id="line2d_8">
      <g>
       <use xlink:href="#m29dee234c5" x="92.72" y="364.121115" style="stroke: #000000; stroke-width: 0.8"/>
      </g>
     </g>
     <g id="text_9">
      <!-- 600 -->
      <g transform="translate(47.545 371.719552) scale(0.2 -0.2)">
       <defs>
        <path id="DejaVuSans-36" d="M 2113 2584 
Q 1688 2584 1439 2293 
Q 1191 2003 1191 1497 
Q 1191 994 1439 701 
Q 1688 409 2113 409 
Q 2538 409 2786 701 
Q 3034 994 3034 1497 
Q 3034 2003 2786 2293 
Q 2538 2584 2113 2584 
z
M 3366 4563 
L 3366 3988 
Q 3128 4100 2886 4159 
Q 2644 4219 2406 4219 
Q 1781 4219 1451 3797 
Q 1122 3375 1075 2522 
Q 1259 2794 1537 2939 
Q 1816 3084 2150 3084 
Q 2853 3084 3261 2657 
Q 3669 2231 3669 1497 
Q 3669 778 3244 343 
Q 2819 -91 2113 -91 
Q 1303 -91 875 529 
Q 447 1150 447 2328 
Q 447 3434 972 4092 
Q 1497 4750 2381 4750 
Q 2619 4750 2861 4703 
Q 3103 4656 3366 4563 
z
" transform="scale(0.015625)"/>
       </defs>
       <use xlink:href="#DejaVuSans-36"/>
       <use xlink:href="#DejaVuSans-30" x="63.623047"/>
       <use xlink:href="#DejaVuSans-30" x="127.246094"/>
      </g>
     </g>
    </g>
    <g id="ytick_3">
     <g id="line2d_9">
      <g>
       <use xlink:href="#m29dee234c5" x="92.72" y="300.654822" style="stroke: #000000; stroke-width: 0.8"/>
      </g>
     </g>
     <g id="text_10">
      <!-- 800 -->
      <g transform="translate(47.545 308.253259) scale(0.2 -0.2)">
       <defs>
        <path id="DejaVuSans-38" d="M 2034 2216 
Q 1584 2216 1326 1975 
Q 1069 1734 1069 1313 
Q 1069 891 1326 650 
Q 1584 409 2034 409 
Q 2484 409 2743 651 
Q 3003 894 3003 1313 
Q 3003 1734 2745 1975 
Q 2488 2216 2034 2216 
z
M 1403 2484 
Q 997 2584 770 2862 
Q 544 3141 544 3541 
Q 544 4100 942 4425 
Q 1341 4750 2034 4750 
Q 2731 4750 3128 4425 
Q 3525 4100 3525 3541 
Q 3525 3141 3298 2862 
Q 3072 2584 2669 2484 
Q 3125 2378 3379 2068 
Q 3634 1759 3634 1313 
Q 3634 634 3220 271 
Q 2806 -91 2034 -91 
Q 1263 -91 848 271 
Q 434 634 434 1313 
Q 434 1759 690 2068 
Q 947 2378 1403 2484 
z
M 1172 3481 
Q 1172 3119 1398 2916 
Q 1625 2713 2034 2713 
Q 2441 2713 2670 2916 
Q 2900 3119 2900 3481 
Q 2900 3844 2670 4047 
Q 2441 4250 2034 4250 
Q 1625 4250 1398 4047 
Q 1172 3844 1172 3481 
z
" transform="scale(0.015625)"/>
       </defs>
       <use xlink:href="#DejaVuSans-38"/>
       <use xlink:href="#DejaVuSans-30" x="63.623047"/>
       <use xlink:href="#DejaVuSans-30" x="127.246094"/>
      </g>
     </g>
    </g>
    <g id="ytick_4">
     <g id="line2d_10">
      <g>
       <use xlink:href="#m29dee234c5" x="92.72" y="237.188529" style="stroke: #000000; stroke-width: 0.8"/>
      </g>
     </g>
     <g id="text_11">
      <!-- 1000 -->
      <g transform="translate(34.82 244.786966) scale(0.2 -0.2)">
       <use xlink:href="#DejaVuSans-31"/>
       <use xlink:href="#DejaVuSans-30" x="63.623047"/>
       <use xlink:href="#DejaVuSans-30" x="127.246094"/>
       <use xlink:href="#DejaVuSans-30" x="190.869141"/>
      </g>
     </g>
    </g>
    <g id="ytick_5">
     <g id="line2d_11">
      <g>
       <use xlink:href="#m29dee234c5" x="92.72" y="173.722236" style="stroke: #000000; stroke-width: 0.8"/>
      </g>
     </g>
     <g id="text_12">
      <!-- 1200 -->
      <g transform="translate(34.82 181.320673) scale(0.2 -0.2)">
       <use xlink:href="#DejaVuSans-31"/>
       <use xlink:href="#DejaVuSans-32" x="63.623047"/>
       <use xlink:href="#DejaVuSans-30" x="127.246094"/>
       <use xlink:href="#DejaVuSans-30" x="190.869141"/>
      </g>
     </g>
    </g>
    <g id="ytick_6">
     <g id="line2d_12">
      <g>
       <use xlink:href="#m29dee234c5" x="92.72" y="110.255942" style="stroke: #000000; stroke-width: 0.8"/>
      </g>
     </g>
     <g id="text_13">
      <!-- 1400 -->
      <g transform="translate(34.82 117.85438) scale(0.2 -0.2)">
       <use xlink:href="#DejaVuSans-31"/>
       <use xlink:href="#DejaVuSans-34" x="63.623047"/>
       <use xlink:href="#DejaVuSans-30" x="127.246094"/>
       <use xlink:href="#DejaVuSans-30" x="190.869141"/>
      </g>
     </g>
    </g>
    <g id="ytick_7">
     <g id="line2d_13">
      <g>
       <use xlink:href="#m29dee234c5" x="92.72" y="46.789649" style="stroke: #000000; stroke-width: 0.8"/>
      </g>
     </g>
     <g id="text_14">
      <!-- 1600 -->
      <g transform="translate(34.82 54.388087) scale(0.2 -0.2)">
       <use xlink:href="#DejaVuSans-31"/>
       <use xlink:href="#DejaVuSans-36" x="63.623047"/>
       <use xlink:href="#DejaVuSans-30" x="127.246094"/>
       <use xlink:href="#DejaVuSans-30" x="190.869141"/>
      </g>
     </g>
    </g>
    <g id="text_15">
     <!-- MSE -->
     <g transform="translate(26.660625 271.611313) rotate(-90) scale(0.2 -0.2)">
      <defs>
       <path id="DejaVuSans-4d" d="M 628 4666 
L 1569 4666 
L 2759 1491 
L 3956 4666 
L 4897 4666 
L 4897 0 
L 4281 0 
L 4281 4097 
L 3078 897 
L 2444 897 
L 1241 4097 
L 1241 0 
L 628 0 
L 628 4666 
z
" transform="scale(0.015625)"/>
       <path id="DejaVuSans-53" d="M 3425 4513 
L 3425 3897 
Q 3066 4069 2747 4153 
Q 2428 4238 2131 4238 
Q 1616 4238 1336 4038 
Q 1056 3838 1056 3469 
Q 1056 3159 1242 3001 
Q 1428 2844 1947 2747 
L 2328 2669 
Q 3034 2534 3370 2195 
Q 3706 1856 3706 1288 
Q 3706 609 3251 259 
Q 2797 -91 1919 -91 
Q 1588 -91 1214 -16 
Q 841 59 441 206 
L 441 856 
Q 825 641 1194 531 
Q 1563 422 1919 422 
Q 2459 422 2753 634 
Q 3047 847 3047 1241 
Q 3047 1584 2836 1778 
Q 2625 1972 2144 2069 
L 1759 2144 
Q 1053 2284 737 2584 
Q 422 2884 422 3419 
Q 422 4038 858 4394 
Q 1294 4750 2059 4750 
Q 2388 4750 2728 4690 
Q 3069 4631 3425 4513 
z
" transform="scale(0.015625)"/>
       <path id="DejaVuSans-45" d="M 628 4666 
L 3578 4666 
L 3578 4134 
L 1259 4134 
L 1259 2753 
L 3481 2753 
L 3481 2222 
L 1259 2222 
L 1259 531 
L 3634 531 
L 3634 0 
L 628 0 
L 628 4666 
z
" transform="scale(0.015625)"/>
      </defs>
      <use xlink:href="#DejaVuSans-4d"/>
      <use xlink:href="#DejaVuSans-53" x="86.279297"/>
      <use xlink:href="#DejaVuSans-45" x="149.755859"/>
     </g>
    </g>
   </g>
   <g id="line2d_14">
    <path d="M 140.378182 462.281198 
L 180.093333 455.343605 
L 219.808485 448.773224 
L 259.523636 437.583059 
L 299.238788 427.552611 
L 338.953939 403.728484 
L 378.669091 386.681766 
L 418.384242 380.621153 
L 458.099394 369.411474 
L 497.814545 355.702084 
L 537.529697 369.591895 
L 577.244848 366.430869 
L 616.96 352.622414 
L 656.675152 320.351026 
L 696.390303 322.779453 
L 736.105455 306.559212 
L 775.820606 297.446244 
L 815.535758 279.714593 
L 855.250909 287.399968 
L 894.966061 294.873931 
L 934.681212 281.07569 
L 974.396364 310.372065 
L 1014.111515 308.858035 
L 1053.826667 320.794206 
L 1093.541818 314.721782 
" clip-path="url(#p4832499ea4)" style="fill: none; stroke: #f77189; stroke-width: 1.5; stroke-linecap: square"/>
   </g>
   <g id="line2d_15">
    <path d="M 140.378182 449.758602 
L 180.093333 450.262746 
L 219.808485 432.320189 
L 259.523636 422.439131 
L 299.238788 395.950664 
L 338.953939 376.206426 
L 378.669091 380.749087 
L 418.384242 371.51068 
L 458.099394 366.543886 
L 497.814545 368.356005 
L 537.529697 351.746912 
L 577.244848 344.897297 
L 616.96 345.652633 
L 656.675152 320.73761 
L 696.390303 314.291934 
L 736.105455 311.635197 
L 775.820606 296.801736 
L 815.535758 277.32263 
L 855.250909 303.097902 
L 894.966061 256.234699 
L 934.681212 246.878994 
L 974.396364 256.484427 
L 1014.111515 290.820547 
L 1053.826667 314.883717 
L 1093.541818 296.410755 
" clip-path="url(#p4832499ea4)" style="fill: none; stroke: #e18632; stroke-width: 1.5; stroke-linecap: square"/>
   </g>
   <g id="line2d_16">
    <path d="M 140.378182 453.947859 
L 180.093333 451.861188 
L 219.808485 452.302401 
L 259.523636 444.239502 
L 299.238788 434.000535 
L 338.953939 430.468874 
L 378.669091 419.020778 
L 418.384242 409.627168 
L 458.099394 405.263838 
L 497.814545 405.301529 
L 537.529697 397.464559 
L 577.244848 392.118135 
L 616.96 392.358841 
L 656.675152 386.746268 
L 696.390303 368.89798 
L 736.105455 352.200063 
L 775.820606 345.894791 
L 815.535758 339.430192 
L 855.250909 350.329883 
L 894.966061 360.607124 
L 934.681212 365.055042 
L 974.396364 367.128218 
L 1014.111515 366.489058 
L 1053.826667 368.338958 
L 1093.541818 369.012764 
" clip-path="url(#p4832499ea4)" style="fill: none; stroke: #b59a32; stroke-width: 1.5; stroke-linecap: square"/>
   </g>
   <g id="line2d_17">
    <path d="M 140.378182 441.864632 
L 180.093333 438.105333 
L 219.808485 422.812337 
L 259.523636 415.261708 
L 299.238788 398.198506 
L 338.953939 378.483074 
L 378.669091 365.46479 
L 418.384242 352.180697 
L 458.099394 345.858033 
L 497.814545 341.136979 
L 537.529697 332.459828 
L 577.244848 340.431068 
L 616.96 328.586571 
L 656.675152 313.301385 
L 696.390303 297.489107 
L 736.105455 300.087283 
L 775.820606 300.603404 
L 815.535758 288.673362 
L 855.250909 289.460976 
L 894.966061 274.437335 
L 934.681212 257.528877 
L 974.396364 283.831105 
L 1014.111515 300.82979 
L 1053.826667 300.144885 
L 1093.541818 294.907385 
" clip-path="url(#p4832499ea4)" style="fill: none; stroke: #8ba731; stroke-width: 1.5; stroke-linecap: square"/>
   </g>
   <g id="line2d_18">
    <path d="M 140.378182 444.98559 
L 180.093333 440.439573 
L 219.808485 431.559311 
L 259.523636 417.831183 
L 299.238788 405.180452 
L 338.953939 387.503929 
L 378.669091 389.830801 
L 418.384242 386.691996 
L 458.099394 366.009166 
L 497.814545 349.274041 
L 537.529697 341.694276 
L 577.244848 359.705905 
L 616.96 340.548929 
L 656.675152 332.671055 
L 696.390303 333.359794 
L 736.105455 329.33403 
L 775.820606 331.663189 
L 815.535758 317.657015 
L 855.250909 308.356855 
L 894.966061 291.146088 
L 934.681212 285.535685 
L 974.396364 302.519642 
L 1014.111515 310.93467 
L 1053.826667 311.502114 
L 1093.541818 304.371603 
" clip-path="url(#p4832499ea4)" style="fill: none; stroke: #32b258; stroke-width: 1.5; stroke-linecap: square"/>
   </g>
   <g id="line2d_19">
    <path d="M 140.378182 387.243799 
L 180.093333 367.025434 
L 219.808485 327.647026 
L 259.523636 309.296747 
L 299.238788 297.765695 
L 338.953939 221.816953 
L 378.669091 241.406954 
L 418.384242 229.913543 
L 458.099394 210.964302 
L 497.814545 185.108125 
L 537.529697 149.776777 
L 577.244848 180.990648 
L 616.96 219.812825 
L 656.675152 218.348883 
L 696.390303 201.400735 
L 736.105455 245.629036 
L 775.820606 236.153991 
L 815.535758 233.607125 
L 855.250909 156.638548 
L 894.966061 171.952577 
L 934.681212 83.035405 
L 974.396364 116.313015 
L 1014.111515 165.041388 
L 1053.826667 108.918966 
L 1093.541818 120.904022 
" clip-path="url(#p4832499ea4)" style="fill: none; stroke: #35ae95; stroke-width: 1.5; stroke-linecap: square"/>
   </g>
   <g id="line2d_20">
    <path d="M 140.378182 416.590014 
L 180.093333 404.203725 
L 219.808485 351.915742 
L 259.523636 344.42367 
L 299.238788 326.56372 
L 338.953939 291.525998 
L 378.669091 293.151533 
L 418.384242 277.658776 
L 458.099394 252.912868 
L 497.814545 223.4636 
L 537.529697 229.84895 
L 577.244848 245.904619 
L 616.96 265.46697 
L 656.675152 257.534697 
L 696.390303 251.006433 
L 736.105455 271.312082 
L 775.820606 274.711699 
L 815.535758 301.273053 
L 855.250909 224.0099 
L 894.966061 189.239434 
L 934.681212 147.782968 
L 974.396364 187.823237 
L 1014.111515 208.961592 
L 1053.826667 181.746232 
L 1093.541818 147.167288 
" clip-path="url(#p4832499ea4)" style="fill: none; stroke: #37abb2; stroke-width: 1.5; stroke-linecap: square"/>
   </g>
   <g id="line2d_21">
    <path d="M 140.378182 400.845651 
L 180.093333 407.89128 
L 219.808485 409.141841 
L 259.523636 394.015599 
L 299.238788 362.973988 
L 338.953939 355.732036 
L 378.669091 341.449054 
L 418.384242 319.000182 
L 458.099394 312.948432 
L 497.814545 290.446705 
L 537.529697 276.181998 
L 577.244848 274.559169 
L 616.96 256.330827 
L 656.675152 257.510351 
L 696.390303 203.874205 
L 736.105455 196.712519 
L 775.820606 193.660905 
L 815.535758 218.20881 
L 855.250909 252.264408 
L 894.966061 259.830443 
L 934.681212 268.999451 
L 974.396364 276.431976 
L 1014.111515 286.651888 
L 1053.826667 282.863634 
L 1093.541818 288.62672 
" clip-path="url(#p4832499ea4)" style="fill: none; stroke: #39a7d6; stroke-width: 1.5; stroke-linecap: square"/>
   </g>
   <g id="line2d_22">
    <path d="M 140.378182 408.566075 
L 180.093333 401.438836 
L 219.808485 392.13919 
L 259.523636 389.464425 
L 299.238788 376.655261 
L 338.953939 355.332049 
L 378.669091 341.037684 
L 418.384242 332.944204 
L 458.099394 337.441678 
L 497.814545 331.286035 
L 537.529697 330.033002 
L 577.244848 315.532918 
L 616.96 319.207746 
L 656.675152 302.54317 
L 696.390303 298.477201 
L 736.105455 294.842418 
L 775.820606 283.979187 
L 815.535758 276.756693 
L 855.250909 297.861315 
L 894.966061 303.484324 
L 934.681212 300.084866 
L 974.396364 301.027876 
L 1014.111515 314.38992 
L 1053.826667 308.274851 
L 1093.541818 313.520604 
" clip-path="url(#p4832499ea4)" style="fill: none; stroke: #8f93f4; stroke-width: 1.5; stroke-linecap: square"/>
   </g>
   <g id="line2d_23">
    <path d="M 140.378182 398.091399 
L 180.093333 398.751704 
L 219.808485 396.240066 
L 259.523636 389.415042 
L 299.238788 380.22216 
L 338.953939 366.925991 
L 378.669091 353.462641 
L 418.384242 343.028565 
L 458.099394 346.181223 
L 497.814545 340.948404 
L 537.529697 325.225134 
L 577.244848 351.147855 
L 616.96 338.53536 
L 656.675152 340.212538 
L 696.390303 344.016036 
L 736.105455 333.3101 
L 775.820606 323.79944 
L 815.535758 324.200187 
L 855.250909 335.492237 
L 894.966061 341.288696 
L 934.681212 334.479908 
L 974.396364 339.861731 
L 1014.111515 332.761596 
L 1053.826667 328.921138 
L 1093.541818 334.605332 
" clip-path="url(#p4832499ea4)" style="fill: none; stroke: #db70f4; stroke-width: 1.5; stroke-linecap: square"/>
   </g>
   <g id="line2d_24">
    <path d="M 140.378182 398.092608 
L 180.093333 398.759313 
L 219.808485 396.251312 
L 259.523636 389.424919 
L 299.238788 380.228347 
L 338.953939 366.936452 
L 378.669091 353.465551 
L 418.384242 343.031598 
L 458.099394 346.258605 
L 497.814545 340.949493 
L 537.529697 325.327475 
L 577.244848 351.17362 
L 616.96 338.551316 
L 656.675152 340.243217 
L 696.390303 344.007325 
L 736.105455 333.305569 
L 775.820606 323.803576 
L 815.535758 324.220064 
L 855.250909 335.542628 
L 894.966061 341.283696 
L 934.681212 334.51432 
L 974.396364 339.896766 
L 1014.111515 332.734264 
L 1053.826667 328.93237 
L 1093.541818 334.580886 
" clip-path="url(#p4832499ea4)" style="fill: none; stroke: #f667c6; stroke-width: 1.5; stroke-linecap: square"/>
   </g>
   <g id="line2d_25"/>
   <g id="line2d_26"/>
   <g id="line2d_27"/>
   <g id="line2d_28"/>
   <g id="line2d_29"/>
   <g id="line2d_30"/>
   <g id="line2d_31"/>
   <g id="line2d_32"/>
   <g id="line2d_33"/>
   <g id="line2d_34"/>
   <g id="line2d_35"/>
   <g id="patch_3">
    <path d="M 92.72 489.832 
L 92.72 10.8 
" style="fill: none; stroke: #000000; stroke-width: 0.8; stroke-linejoin: miter; stroke-linecap: square"/>
   </g>
   <g id="patch_4">
    <path d="M 1141.2 489.832 
L 1141.2 10.8 
" style="fill: none; stroke: #000000; stroke-width: 0.8; stroke-linejoin: miter; stroke-linecap: square"/>
   </g>
   <g id="patch_5">
    <path d="M 92.72 489.832 
L 1141.2 489.832 
" style="fill: none; stroke: #000000; stroke-width: 0.8; stroke-linejoin: miter; stroke-linecap: square"/>
   </g>
   <g id="patch_6">
    <path d="M 92.72 10.8 
L 1141.2 10.8 
" style="fill: none; stroke: #000000; stroke-width: 0.8; stroke-linejoin: miter; stroke-linecap: square"/>
   </g>
   <g id="legend_1">
    <g id="patch_7">
     <path d="M 103.92 481.832 
L 273.665 481.832 
Q 276.865 481.832 276.865 478.632 
L 276.865 221.897 
Q 276.865 218.697 273.665 218.697 
L 103.92 218.697 
Q 100.72 218.697 100.72 221.897 
L 100.72 478.632 
Q 100.72 481.832 103.92 481.832 
z
" style="fill: #ffffff; opacity: 0.8; stroke: #cccccc; stroke-linejoin: miter"/>
    </g>
    <g id="line2d_36">
     <path d="M 107.12 231.6545 
L 123.12 231.6545 
L 139.12 231.6545 
" style="fill: none; stroke: #f77189; stroke-width: 1.5; stroke-linecap: square"/>
    </g>
    <g id="text_16">
     <!-- gbr -->
     <g transform="translate(151.92 237.2545) scale(0.16 -0.16)">
      <defs>
       <path id="DejaVuSans-62" d="M 3116 1747 
Q 3116 2381 2855 2742 
Q 2594 3103 2138 3103 
Q 1681 3103 1420 2742 
Q 1159 2381 1159 1747 
Q 1159 1113 1420 752 
Q 1681 391 2138 391 
Q 2594 391 2855 752 
Q 3116 1113 3116 1747 
z
M 1159 2969 
Q 1341 3281 1617 3432 
Q 1894 3584 2278 3584 
Q 2916 3584 3314 3078 
Q 3713 2572 3713 1747 
Q 3713 922 3314 415 
Q 2916 -91 2278 -91 
Q 1894 -91 1617 61 
Q 1341 213 1159 525 
L 1159 0 
L 581 0 
L 581 4863 
L 1159 4863 
L 1159 2969 
z
" transform="scale(0.015625)"/>
      </defs>
      <use xlink:href="#DejaVuSans-67"/>
      <use xlink:href="#DejaVuSans-62" x="63.476562"/>
      <use xlink:href="#DejaVuSans-72" x="126.953125"/>
     </g>
    </g>
    <g id="line2d_37">
     <path d="M 107.12 255.1395 
L 123.12 255.1395 
L 139.12 255.1395 
" style="fill: none; stroke: #e18632; stroke-width: 1.5; stroke-linecap: square"/>
    </g>
    <g id="text_17">
     <!-- xgb -->
     <g transform="translate(151.92 260.7395) scale(0.16 -0.16)">
      <defs>
       <path id="DejaVuSans-78" d="M 3513 3500 
L 2247 1797 
L 3578 0 
L 2900 0 
L 1881 1375 
L 863 0 
L 184 0 
L 1544 1831 
L 300 3500 
L 978 3500 
L 1906 2253 
L 2834 3500 
L 3513 3500 
z
" transform="scale(0.015625)"/>
      </defs>
      <use xlink:href="#DejaVuSans-78"/>
      <use xlink:href="#DejaVuSans-67" x="59.179688"/>
      <use xlink:href="#DejaVuSans-62" x="122.65625"/>
     </g>
    </g>
    <g id="line2d_38">
     <path d="M 107.12 278.6245 
L 123.12 278.6245 
L 139.12 278.6245 
" style="fill: none; stroke: #b59a32; stroke-width: 1.5; stroke-linecap: square"/>
    </g>
    <g id="text_18">
     <!-- BayesianRidge -->
     <g transform="translate(151.92 284.2245) scale(0.16 -0.16)">
      <defs>
       <path id="DejaVuSans-42" d="M 1259 2228 
L 1259 519 
L 2272 519 
Q 2781 519 3026 730 
Q 3272 941 3272 1375 
Q 3272 1813 3026 2020 
Q 2781 2228 2272 2228 
L 1259 2228 
z
M 1259 4147 
L 1259 2741 
L 2194 2741 
Q 2656 2741 2882 2914 
Q 3109 3088 3109 3444 
Q 3109 3797 2882 3972 
Q 2656 4147 2194 4147 
L 1259 4147 
z
M 628 4666 
L 2241 4666 
Q 2963 4666 3353 4366 
Q 3744 4066 3744 3513 
Q 3744 3084 3544 2831 
Q 3344 2578 2956 2516 
Q 3422 2416 3680 2098 
Q 3938 1781 3938 1306 
Q 3938 681 3513 340 
Q 3088 0 2303 0 
L 628 0 
L 628 4666 
z
" transform="scale(0.015625)"/>
       <path id="DejaVuSans-79" d="M 2059 -325 
Q 1816 -950 1584 -1140 
Q 1353 -1331 966 -1331 
L 506 -1331 
L 506 -850 
L 844 -850 
Q 1081 -850 1212 -737 
Q 1344 -625 1503 -206 
L 1606 56 
L 191 3500 
L 800 3500 
L 1894 763 
L 2988 3500 
L 3597 3500 
L 2059 -325 
z
" transform="scale(0.015625)"/>
       <path id="DejaVuSans-52" d="M 2841 2188 
Q 3044 2119 3236 1894 
Q 3428 1669 3622 1275 
L 4263 0 
L 3584 0 
L 2988 1197 
Q 2756 1666 2539 1819 
Q 2322 1972 1947 1972 
L 1259 1972 
L 1259 0 
L 628 0 
L 628 4666 
L 2053 4666 
Q 2853 4666 3247 4331 
Q 3641 3997 3641 3322 
Q 3641 2881 3436 2590 
Q 3231 2300 2841 2188 
z
M 1259 4147 
L 1259 2491 
L 2053 2491 
Q 2509 2491 2742 2702 
Q 2975 2913 2975 3322 
Q 2975 3731 2742 3939 
Q 2509 4147 2053 4147 
L 1259 4147 
z
" transform="scale(0.015625)"/>
      </defs>
      <use xlink:href="#DejaVuSans-42"/>
      <use xlink:href="#DejaVuSans-61" x="68.603516"/>
      <use xlink:href="#DejaVuSans-79" x="129.882812"/>
      <use xlink:href="#DejaVuSans-65" x="189.0625"/>
      <use xlink:href="#DejaVuSans-73" x="250.585938"/>
      <use xlink:href="#DejaVuSans-69" x="302.685547"/>
      <use xlink:href="#DejaVuSans-61" x="330.46875"/>
      <use xlink:href="#DejaVuSans-6e" x="391.748047"/>
      <use xlink:href="#DejaVuSans-52" x="455.126953"/>
      <use xlink:href="#DejaVuSans-69" x="524.609375"/>
      <use xlink:href="#DejaVuSans-64" x="552.392578"/>
      <use xlink:href="#DejaVuSans-67" x="615.869141"/>
      <use xlink:href="#DejaVuSans-65" x="679.345703"/>
     </g>
    </g>
    <g id="line2d_39">
     <path d="M 107.12 302.1095 
L 123.12 302.1095 
L 139.12 302.1095 
" style="fill: none; stroke: #8ba731; stroke-width: 1.5; stroke-linecap: square"/>
    </g>
    <g id="text_19">
     <!-- rf -->
     <g transform="translate(151.92 307.7095) scale(0.16 -0.16)">
      <defs>
       <path id="DejaVuSans-66" d="M 2375 4863 
L 2375 4384 
L 1825 4384 
Q 1516 4384 1395 4259 
Q 1275 4134 1275 3809 
L 1275 3500 
L 2222 3500 
L 2222 3053 
L 1275 3053 
L 1275 0 
L 697 0 
L 697 3053 
L 147 3053 
L 147 3500 
L 697 3500 
L 697 3744 
Q 697 4328 969 4595 
Q 1241 4863 1831 4863 
L 2375 4863 
z
" transform="scale(0.015625)"/>
      </defs>
      <use xlink:href="#DejaVuSans-72"/>
      <use xlink:href="#DejaVuSans-66" x="41.113281"/>
     </g>
    </g>
    <g id="line2d_40">
     <path d="M 107.12 325.5945 
L 123.12 325.5945 
L 139.12 325.5945 
" style="fill: none; stroke: #32b258; stroke-width: 1.5; stroke-linecap: square"/>
    </g>
    <g id="text_20">
     <!-- lgbm -->
     <g transform="translate(151.92 331.1945) scale(0.16 -0.16)">
      <defs>
       <path id="DejaVuSans-6d" d="M 3328 2828 
Q 3544 3216 3844 3400 
Q 4144 3584 4550 3584 
Q 5097 3584 5394 3201 
Q 5691 2819 5691 2113 
L 5691 0 
L 5113 0 
L 5113 2094 
Q 5113 2597 4934 2840 
Q 4756 3084 4391 3084 
Q 3944 3084 3684 2787 
Q 3425 2491 3425 1978 
L 3425 0 
L 2847 0 
L 2847 2094 
Q 2847 2600 2669 2842 
Q 2491 3084 2119 3084 
Q 1678 3084 1418 2786 
Q 1159 2488 1159 1978 
L 1159 0 
L 581 0 
L 581 3500 
L 1159 3500 
L 1159 2956 
Q 1356 3278 1631 3431 
Q 1906 3584 2284 3584 
Q 2666 3584 2933 3390 
Q 3200 3197 3328 2828 
z
" transform="scale(0.015625)"/>
      </defs>
      <use xlink:href="#DejaVuSans-6c"/>
      <use xlink:href="#DejaVuSans-67" x="27.783203"/>
      <use xlink:href="#DejaVuSans-62" x="91.259766"/>
      <use xlink:href="#DejaVuSans-6d" x="154.736328"/>
     </g>
    </g>
    <g id="line2d_41">
     <path d="M 107.12 349.0795 
L 123.12 349.0795 
L 139.12 349.0795 
" style="fill: none; stroke: #35ae95; stroke-width: 1.5; stroke-linecap: square"/>
    </g>
    <g id="text_21">
     <!-- dt -->
     <g transform="translate(151.92 354.6795) scale(0.16 -0.16)">
      <use xlink:href="#DejaVuSans-64"/>
      <use xlink:href="#DejaVuSans-74" x="63.476562"/>
     </g>
    </g>
    <g id="line2d_42">
     <path d="M 107.12 372.5645 
L 123.12 372.5645 
L 139.12 372.5645 
" style="fill: none; stroke: #37abb2; stroke-width: 1.5; stroke-linecap: square"/>
    </g>
    <g id="text_22">
     <!-- et -->
     <g transform="translate(151.92 378.1645) scale(0.16 -0.16)">
      <use xlink:href="#DejaVuSans-65"/>
      <use xlink:href="#DejaVuSans-74" x="61.523438"/>
     </g>
    </g>
    <g id="line2d_43">
     <path d="M 107.12 396.0495 
L 123.12 396.0495 
L 139.12 396.0495 
" style="fill: none; stroke: #39a7d6; stroke-width: 1.5; stroke-linecap: square"/>
    </g>
    <g id="text_23">
     <!-- HubR -->
     <g transform="translate(151.92 401.6495) scale(0.16 -0.16)">
      <use xlink:href="#DejaVuSans-48"/>
      <use xlink:href="#DejaVuSans-75" x="75.195312"/>
      <use xlink:href="#DejaVuSans-62" x="138.574219"/>
      <use xlink:href="#DejaVuSans-52" x="202.050781"/>
     </g>
    </g>
    <g id="line2d_44">
     <path d="M 107.12 419.5345 
L 123.12 419.5345 
L 139.12 419.5345 
" style="fill: none; stroke: #8f93f4; stroke-width: 1.5; stroke-linecap: square"/>
    </g>
    <g id="text_24">
     <!-- Adaboost -->
     <g transform="translate(151.92 425.1345) scale(0.16 -0.16)">
      <defs>
       <path id="DejaVuSans-41" d="M 2188 4044 
L 1331 1722 
L 3047 1722 
L 2188 4044 
z
M 1831 4666 
L 2547 4666 
L 4325 0 
L 3669 0 
L 3244 1197 
L 1141 1197 
L 716 0 
L 50 0 
L 1831 4666 
z
" transform="scale(0.015625)"/>
      </defs>
      <use xlink:href="#DejaVuSans-41"/>
      <use xlink:href="#DejaVuSans-64" x="66.658203"/>
      <use xlink:href="#DejaVuSans-61" x="130.134766"/>
      <use xlink:href="#DejaVuSans-62" x="191.414062"/>
      <use xlink:href="#DejaVuSans-6f" x="254.890625"/>
      <use xlink:href="#DejaVuSans-6f" x="316.072266"/>
      <use xlink:href="#DejaVuSans-73" x="377.253906"/>
      <use xlink:href="#DejaVuSans-74" x="429.353516"/>
     </g>
    </g>
    <g id="line2d_45">
     <path d="M 107.12 443.0195 
L 123.12 443.0195 
L 139.12 443.0195 
" style="fill: none; stroke: #db70f4; stroke-width: 1.5; stroke-linecap: square"/>
    </g>
    <g id="text_25">
     <!-- LassoLars -->
     <g transform="translate(151.92 448.6195) scale(0.16 -0.16)">
      <defs>
       <path id="DejaVuSans-4c" d="M 628 4666 
L 1259 4666 
L 1259 531 
L 3531 531 
L 3531 0 
L 628 0 
L 628 4666 
z
" transform="scale(0.015625)"/>
      </defs>
      <use xlink:href="#DejaVuSans-4c"/>
      <use xlink:href="#DejaVuSans-61" x="55.712891"/>
      <use xlink:href="#DejaVuSans-73" x="116.992188"/>
      <use xlink:href="#DejaVuSans-73" x="169.091797"/>
      <use xlink:href="#DejaVuSans-6f" x="221.191406"/>
      <use xlink:href="#DejaVuSans-4c" x="282.373047"/>
      <use xlink:href="#DejaVuSans-61" x="338.085938"/>
      <use xlink:href="#DejaVuSans-72" x="399.365234"/>
      <use xlink:href="#DejaVuSans-73" x="440.478516"/>
     </g>
    </g>
    <g id="line2d_46">
     <path d="M 107.12 466.5045 
L 123.12 466.5045 
L 139.12 466.5045 
" style="fill: none; stroke: #f667c6; stroke-width: 1.5; stroke-linecap: square"/>
    </g>
    <g id="text_26">
     <!-- Lasso -->
     <g transform="translate(151.92 472.1045) scale(0.16 -0.16)">
      <use xlink:href="#DejaVuSans-4c"/>
      <use xlink:href="#DejaVuSans-61" x="55.712891"/>
      <use xlink:href="#DejaVuSans-73" x="116.992188"/>
      <use xlink:href="#DejaVuSans-73" x="169.091797"/>
      <use xlink:href="#DejaVuSans-6f" x="221.191406"/>
     </g>
    </g>
   </g>
  </g>
 </g>
 <defs>
  <clipPath id="p4832499ea4">
   <rect x="92.72" y="10.8" width="1048.48" height="479.032"/>
  </clipPath>
 </defs>
</svg>
