<?xml version="1.0" encoding="utf-8" standalone="no"?>
<!DOCTYPE svg PUBLIC "-//W3C//DTD SVG 1.1//EN"
  "http://www.w3.org/Graphics/SVG/1.1/DTD/svg11.dtd">
<svg xmlns:xlink="http://www.w3.org/1999/xlink" width="1152pt" height="576pt" viewBox="0 0 1152 576" xmlns="http://www.w3.org/2000/svg" version="1.1">
 <metadata>
  <rdf:RDF xmlns:dc="http://purl.org/dc/elements/1.1/" xmlns:cc="http://creativecommons.org/ns#" xmlns:rdf="http://www.w3.org/1999/02/22-rdf-syntax-ns#">
   <cc:Work>
    <dc:type rdf:resource="http://purl.org/dc/dcmitype/StillImage"/>
    <dc:date>2025-04-21T10:19:52.603015</dc:date>
    <dc:format>image/svg+xml</dc:format>
    <dc:creator>
     <cc:Agent>
      <dc:title>Matplotlib v3.7.1, https://matplotlib.org/</dc:title>
     </cc:Agent>
    </dc:creator>
   </cc:Work>
  </rdf:RDF>
 </metadata>
 <defs>
  <style type="text/css">*{stroke-linejoin: round; stroke-linecap: butt}</style>
 </defs>
 <g id="figure_1">
  <g id="patch_1">
   <path d="M 0 576 
L 1152 576 
L 1152 0 
L 0 0 
z
" style="fill: #ffffff"/>
  </g>
  <g id="axes_1">
   <g id="patch_2">
    <path d="M 86.42 489.832 
L 1141.2 489.832 
L 1141.2 10.8 
L 86.42 10.8 
z
" style="fill: #ffffff"/>
   </g>
   <g id="PolyCollection_1">
    <defs>
     <path id="mad1740827f" d="M 134.364545 -543.425818 
L 134.364545 -525.707553 
L 174.318333 -521.316704 
L 214.272121 -512.964932 
L 254.225909 -504.29472 
L 294.179697 -482.567483 
L 334.133485 -465.564255 
L 374.087273 -444.861531 
L 414.041061 -448.323808 
L 453.994848 -431.702453 
L 493.948636 -409.858071 
L 533.902424 -436.697661 
L 573.856212 -441.623917 
L 613.81 -449.925447 
L 653.763788 -410.467988 
L 693.717576 -417.134303 
L 733.671364 -404.418739 
L 773.625152 -398.833956 
L 813.578939 -391.286609 
L 853.532727 -383.18136 
L 893.486515 -400.418749 
L 933.440303 -386.734022 
L 973.394091 -421.962807 
L 1013.347879 -412.936228 
L 1053.301667 -412.936228 
L 1093.255455 -402.384485 
L 1093.255455 -462.250341 
L 1093.255455 -462.250341 
L 1053.301667 -457.638291 
L 1013.347879 -424.425617 
L 973.394091 -424.681836 
L 933.440303 -424.681836 
L 893.486515 -425.544176 
L 853.532727 -415.697869 
L 813.578939 -431.479454 
L 773.625152 -438.051329 
L 733.671364 -426.147984 
L 693.717576 -434.975245 
L 653.763788 -435.495336 
L 613.81 -466.402011 
L 573.856212 -474.345995 
L 533.902424 -474.909324 
L 493.948636 -463.070022 
L 453.994848 -468.085704 
L 414.041061 -470.297164 
L 374.087273 -482.528687 
L 334.133485 -507.227005 
L 294.179697 -518.49376 
L 254.225909 -524.703486 
L 214.272121 -528.567933 
L 174.318333 -536.458041 
L 134.364545 -543.425818 
z
" style="stroke: #f77189; stroke-opacity: 0.2"/>
    </defs>
    <g clip-path="url(#p2eeb5db0b4)">
     <use xlink:href="#mad1740827f" x="0" y="576" style="fill: #f77189; fill-opacity: 0.2; stroke: #f77189; stroke-opacity: 0.2"/>
    </g>
   </g>
   <g id="PolyCollection_2">
    <defs>
     <path id="m4a2e2c7f34" d="M 134.364545 -533.664643 
L 134.364545 -518.131832 
L 174.318333 -509.630634 
L 214.272121 -489.603956 
L 254.225909 -476.700151 
L 294.179697 -452.472863 
L 334.133485 -438.748759 
L 374.087273 -434.161487 
L 414.041061 -419.768791 
L 453.994848 -411.238072 
L 493.948636 -418.036073 
L 533.902424 -385.621369 
L 573.856212 -398.401106 
L 613.81 -442.187467 
L 653.763788 -382.416378 
L 693.717576 -409.648889 
L 733.671364 -419.906645 
L 773.625152 -417.428919 
L 813.578939 -423.556702 
L 853.532727 -408.614367 
L 893.486515 -382.779003 
L 933.440303 -362.268566 
L 973.394091 -362.268566 
L 1013.347879 -401.779396 
L 1053.301667 -401.779396 
L 1093.255455 -395.355184 
L 1093.255455 -454.59588 
L 1093.255455 -454.59588 
L 1053.301667 -456.405443 
L 1013.347879 -404.452243 
L 973.394091 -427.460875 
L 933.440303 -410.173443 
L 893.486515 -416.440258 
L 853.532727 -439.704867 
L 813.578939 -428.091218 
L 773.625152 -438.326227 
L 733.671364 -439.793947 
L 693.717576 -441.202729 
L 653.763788 -459.64778 
L 613.81 -464.014994 
L 573.856212 -472.842487 
L 533.902424 -484.873437 
L 493.948636 -480.623889 
L 453.994848 -480.865454 
L 414.041061 -480.985836 
L 374.087273 -484.06399 
L 334.133485 -489.993653 
L 294.179697 -502.51205 
L 254.225909 -525.586252 
L 214.272121 -524.242205 
L 174.318333 -534.623629 
L 134.364545 -533.664643 
z
" style="stroke: #e18632; stroke-opacity: 0.2"/>
    </defs>
    <g clip-path="url(#p2eeb5db0b4)">
     <use xlink:href="#m4a2e2c7f34" x="0" y="576" style="fill: #e18632; fill-opacity: 0.2; stroke: #e18632; stroke-opacity: 0.2"/>
    </g>
   </g>
   <g id="PolyCollection_3">
    <defs>
     <path id="mf57f2aaa29" d="M 134.364545 -533.13966 
L 134.364545 -520.506292 
L 174.318333 -512.233752 
L 214.272121 -519.963304 
L 254.225909 -512.695326 
L 294.179697 -493.940552 
L 334.133485 -495.880964 
L 374.087273 -486.783492 
L 414.041061 -475.502926 
L 453.994848 -466.620038 
L 493.948636 -466.791792 
L 533.902424 -461.829533 
L 573.856212 -461.800768 
L 613.81 -479.528065 
L 653.763788 -463.896328 
L 693.717576 -442.280405 
L 733.671364 -443.61607 
L 773.625152 -442.466541 
L 813.578939 -433.544145 
L 853.532727 -442.863644 
L 893.486515 -461.729921 
L 933.440303 -464.54113 
L 973.394091 -464.54113 
L 1013.347879 -455.856106 
L 1053.301667 -455.856106 
L 1093.255455 -477.120647 
L 1093.255455 -497.322989 
L 1093.255455 -497.322989 
L 1053.301667 -495.265921 
L 1013.347879 -475.602252 
L 973.394091 -481.62604 
L 933.440303 -483.772431 
L 893.486515 -476.575661 
L 853.532727 -458.680806 
L 813.578939 -460.245963 
L 773.625152 -468.111356 
L 733.671364 -468.522979 
L 693.717576 -486.228045 
L 653.763788 -493.986346 
L 613.81 -502.32632 
L 573.856212 -493.984241 
L 533.902424 -499.570589 
L 493.948636 -490.422489 
L 453.994848 -497.083274 
L 414.041061 -493.816583 
L 374.087273 -503.869133 
L 334.133485 -520.792972 
L 294.179697 -519.871191 
L 254.225909 -532.199316 
L 214.272121 -533.046418 
L 174.318333 -532.691832 
L 134.364545 -533.13966 
z
" style="stroke: #b59a32; stroke-opacity: 0.2"/>
    </defs>
    <g clip-path="url(#p2eeb5db0b4)">
     <use xlink:href="#mf57f2aaa29" x="0" y="576" style="fill: #b59a32; fill-opacity: 0.2; stroke: #b59a32; stroke-opacity: 0.2"/>
    </g>
   </g>
   <g id="PolyCollection_4">
    <defs>
     <path id="m747eaf51f2" d="M 134.364545 -521.001641 
L 134.364545 -509.591766 
L 174.318333 -504.173808 
L 214.272121 -480.977195 
L 254.225909 -482.29167 
L 294.179697 -443.716775 
L 334.133485 -448.657474 
L 374.087273 -429.298495 
L 414.041061 -424.18775 
L 453.994848 -412.327784 
L 493.948636 -402.023208 
L 533.902424 -394.176644 
L 573.856212 -398.766265 
L 613.81 -415.009327 
L 653.763788 -404.289995 
L 693.717576 -394.682657 
L 733.671364 -392.821754 
L 773.625152 -407.152658 
L 813.578939 -392.659497 
L 853.532727 -405.080713 
L 893.486515 -401.723512 
L 933.440303 -376.272702 
L 973.394091 -412.093997 
L 1013.347879 -411.290731 
L 1053.301667 -411.290731 
L 1093.255455 -411.888766 
L 1093.255455 -437.861591 
L 1093.255455 -437.861591 
L 1053.301667 -435.893794 
L 1013.347879 -416.319967 
L 973.394091 -416.895099 
L 933.440303 -412.093997 
L 893.486515 -411.852492 
L 853.532727 -424.380533 
L 813.578939 -431.95355 
L 773.625152 -443.691987 
L 733.671364 -434.120204 
L 693.717576 -417.615179 
L 653.763788 -434.498459 
L 613.81 -457.780288 
L 573.856212 -457.641441 
L 533.902424 -446.393291 
L 493.948636 -443.539706 
L 453.994848 -444.726815 
L 414.041061 -440.998428 
L 374.087273 -460.921239 
L 334.133485 -480.347068 
L 294.179697 -494.592502 
L 254.225909 -506.234823 
L 214.272121 -510.010694 
L 174.318333 -517.847907 
L 134.364545 -521.001641 
z
" style="stroke: #8ba731; stroke-opacity: 0.2"/>
    </defs>
    <g clip-path="url(#p2eeb5db0b4)">
     <use xlink:href="#m747eaf51f2" x="0" y="576" style="fill: #8ba731; fill-opacity: 0.2; stroke: #8ba731; stroke-opacity: 0.2"/>
    </g>
   </g>
   <g id="PolyCollection_5">
    <defs>
     <path id="mfd5b80a32b" d="M 134.364545 -521.446099 
L 134.364545 -513.010234 
L 174.318333 -505.016509 
L 214.272121 -490.192204 
L 254.225909 -474.270267 
L 294.179697 -460.170844 
L 334.133485 -447.808927 
L 374.087273 -450.071407 
L 414.041061 -447.674331 
L 453.994848 -422.33399 
L 493.948636 -386.374282 
L 533.902424 -368.45628 
L 573.856212 -422.543876 
L 613.81 -432.165164 
L 653.763788 -409.159261 
L 693.717576 -417.385035 
L 733.671364 -427.830017 
L 773.625152 -429.543913 
L 813.578939 -423.19336 
L 853.532727 -423.408204 
L 893.486515 -398.99833 
L 933.440303 -400.050342 
L 973.394091 -400.614763 
L 1013.347879 -398.957103 
L 1053.301667 -398.957103 
L 1093.255455 -403.675952 
L 1093.255455 -451.423532 
L 1093.255455 -451.423532 
L 1053.301667 -451.936792 
L 1013.347879 -419.304266 
L 973.394091 -428.601709 
L 933.440303 -400.614763 
L 893.486515 -429.07416 
L 853.532727 -427.520796 
L 813.578939 -426.22975 
L 773.625152 -453.464851 
L 733.671364 -438.639499 
L 693.717576 -446.818589 
L 653.763788 -445.284118 
L 613.81 -457.706652 
L 573.856212 -466.937198 
L 533.902424 -464.681453 
L 493.948636 -456.974659 
L 453.994848 -456.044191 
L 414.041061 -475.567568 
L 374.087273 -473.100413 
L 334.133485 -488.726073 
L 294.179697 -494.923825 
L 254.225909 -511.937919 
L 214.272121 -517.96026 
L 174.318333 -520.12418 
L 134.364545 -521.446099 
z
" style="stroke: #32b258; stroke-opacity: 0.2"/>
    </defs>
    <g clip-path="url(#p2eeb5db0b4)">
     <use xlink:href="#mfd5b80a32b" x="0" y="576" style="fill: #32b258; fill-opacity: 0.2; stroke: #32b258; stroke-opacity: 0.2"/>
    </g>
   </g>
   <g id="PolyCollection_6">
    <defs>
     <path id="m868e816327" d="M 134.364545 -480.946178 
L 134.364545 -430.950382 
L 174.318333 -390.708448 
L 214.272121 -354.904092 
L 254.225909 -343.645978 
L 294.179697 -268.710928 
L 334.133485 -160.192666 
L 374.087273 -245.863903 
L 414.041061 -248.340975 
L 453.994848 -189.443352 
L 493.948636 -210.768301 
L 533.902424 -196.877968 
L 573.856212 -107.942182 
L 613.81 -287.468998 
L 653.763788 -283.422838 
L 693.717576 -192.803277 
L 733.671364 -288.411946 
L 773.625152 -284.534052 
L 813.578939 -253.369925 
L 853.532727 -159.909321 
L 893.486515 -226.582019 
L 933.440303 -175.790117 
L 973.394091 -175.790117 
L 1013.347879 -224.848829 
L 1053.301667 -224.848829 
L 1093.255455 -242.689317 
L 1093.255455 -306.870188 
L 1093.255455 -306.870188 
L 1053.301667 -290.166891 
L 1013.347879 -330.73765 
L 973.394091 -306.175519 
L 933.440303 -256.531167 
L 893.486515 -323.243011 
L 853.532727 -320.482825 
L 813.578939 -335.495273 
L 773.625152 -342.52745 
L 733.671364 -372.118313 
L 693.717576 -346.452267 
L 653.763788 -334.640084 
L 613.81 -379.55598 
L 573.856212 -336.183184 
L 533.902424 -274.853951 
L 493.948636 -300.652677 
L 453.994848 -373.3495 
L 414.041061 -327.673496 
L 374.087273 -359.76555 
L 334.133485 -364.386125 
L 294.179697 -416.426057 
L 254.225909 -408.308209 
L 214.272121 -409.697387 
L 174.318333 -472.091476 
L 134.364545 -480.946178 
z
" style="stroke: #35ae95; stroke-opacity: 0.2"/>
    </defs>
    <g clip-path="url(#p2eeb5db0b4)">
     <use xlink:href="#m868e816327" x="0" y="576" style="fill: #35ae95; fill-opacity: 0.2; stroke: #35ae95; stroke-opacity: 0.2"/>
    </g>
   </g>
   <g id="PolyCollection_7">
    <defs>
     <path id="m3fcd90b7b2" d="M 134.364545 -502.650971 
L 134.364545 -467.658459 
L 174.318333 -449.308683 
L 214.272121 -390.147109 
L 254.225909 -386.761456 
L 294.179697 -316.855149 
L 334.133485 -325.220463 
L 374.087273 -324.302596 
L 414.041061 -325.093046 
L 453.994848 -265.409605 
L 493.948636 -235.09365 
L 533.902424 -269.511352 
L 573.856212 -263.56084 
L 613.81 -345.696178 
L 653.763788 -313.742396 
L 693.717576 -291.923247 
L 733.671364 -325.409667 
L 773.625152 -312.244958 
L 813.578939 -345.860236 
L 853.532727 -293.157127 
L 893.486515 -273.292487 
L 933.440303 -241.930636 
L 973.394091 -241.930636 
L 1013.347879 -313.419145 
L 1053.301667 -309.598091 
L 1093.255455 -256.194901 
L 1093.255455 -316.34861 
L 1093.255455 -316.34861 
L 1053.301667 -328.382067 
L 1013.347879 -328.382067 
L 973.394091 -354.302699 
L 933.440303 -295.828102 
L 893.486515 -309.258228 
L 853.532727 -330.664844 
L 813.578939 -371.91235 
L 773.625152 -397.180432 
L 733.671364 -402.368909 
L 693.717576 -352.8257 
L 653.763788 -389.282256 
L 613.81 -404.947884 
L 573.856212 -367.725554 
L 533.902424 -358.659981 
L 493.948636 -356.53642 
L 453.994848 -381.415962 
L 414.041061 -361.192913 
L 374.087273 -397.290015 
L 334.133485 -406.097049 
L 294.179697 -437.920707 
L 254.225909 -441.479469 
L 214.272121 -429.643128 
L 174.318333 -497.253093 
L 134.364545 -502.650971 
z
" style="stroke: #37abb2; stroke-opacity: 0.2"/>
    </defs>
    <g clip-path="url(#p2eeb5db0b4)">
     <use xlink:href="#m3fcd90b7b2" x="0" y="576" style="fill: #37abb2; fill-opacity: 0.2; stroke: #37abb2; stroke-opacity: 0.2"/>
    </g>
   </g>
   <g id="PolyCollection_8">
    <defs>
     <path id="mbdc88b6d8f" d="M 134.364545 -484.071056 
L 134.364545 -441.169699 
L 174.318333 -451.80707 
L 214.272121 -455.447272 
L 254.225909 -452.199824 
L 294.179697 -388.35309 
L 334.133485 -405.022311 
L 374.087273 -374.142596 
L 414.041061 -362.027081 
L 453.994848 -355.476512 
L 493.948636 -316.394728 
L 533.902424 -290.682398 
L 573.856212 -321.836995 
L 613.81 -312.984016 
L 653.763788 -302.178898 
L 693.717576 -247.065565 
L 733.671364 -268.832386 
L 773.625152 -282.145185 
L 813.578939 -266.847408 
L 853.532727 -310.417093 
L 893.486515 -347.71546 
L 933.440303 -376.632605 
L 973.394091 -375.435136 
L 1013.347879 -349.915183 
L 1053.301667 -349.915183 
L 1093.255455 -365.714566 
L 1093.255455 -443.623988 
L 1093.255455 -443.623988 
L 1053.301667 -442.479615 
L 1013.347879 -428.111767 
L 973.394091 -382.605086 
L 933.440303 -382.605086 
L 893.486515 -374.804345 
L 853.532727 -346.587267 
L 813.578939 -350.320528 
L 773.625152 -359.798205 
L 733.671364 -376.931456 
L 693.717576 -359.000016 
L 653.763788 -397.902399 
L 613.81 -402.411331 
L 573.856212 -386.790813 
L 533.902424 -398.092411 
L 493.948636 -385.038169 
L 453.994848 -414.455814 
L 414.041061 -413.897139 
L 374.087273 -424.086523 
L 334.133485 -452.537376 
L 294.179697 -457.456893 
L 254.225909 -480.618646 
L 214.272121 -490.433714 
L 174.318333 -495.914657 
L 134.364545 -484.071056 
z
" style="stroke: #39a7d6; stroke-opacity: 0.2"/>
    </defs>
    <g clip-path="url(#p2eeb5db0b4)">
     <use xlink:href="#mbdc88b6d8f" x="0" y="576" style="fill: #39a7d6; fill-opacity: 0.2; stroke: #39a7d6; stroke-opacity: 0.2"/>
    </g>
   </g>
   <g id="PolyCollection_9">
    <defs>
     <path id="mc9aeaf791a" d="M 134.364545 -488.012668 
L 134.364545 -471.996667 
L 174.318333 -463.502989 
L 214.272121 -460.79042 
L 254.225909 -461.0959 
L 294.179697 -437.656042 
L 334.133485 -423.616909 
L 374.087273 -405.62636 
L 414.041061 -398.158 
L 453.994848 -411.904143 
L 493.948636 -398.895033 
L 533.902424 -399.814423 
L 573.856212 -377.347182 
L 613.81 -422.761583 
L 653.763788 -389.485927 
L 693.717576 -390.830108 
L 733.671364 -401.220531 
L 773.625152 -402.208683 
L 813.578939 -377.772607 
L 853.532727 -412.015638 
L 893.486515 -415.679077 
L 933.440303 -415.777256 
L 973.394091 -416.826168 
L 1013.347879 -413.057207 
L 1053.301667 -413.057207 
L 1093.255455 -442.825143 
L 1093.255455 -447.062771 
L 1093.255455 -447.062771 
L 1053.301667 -446.432747 
L 1013.347879 -427.886942 
L 973.394091 -424.846508 
L 933.440303 -424.846508 
L 893.486515 -436.260916 
L 853.532727 -428.727866 
L 813.578939 -412.36722 
L 773.625152 -431.00876 
L 733.671364 -413.08645 
L 693.717576 -407.651919 
L 653.763788 -421.266593 
L 613.81 -434.011267 
L 573.856212 -427.37006 
L 533.902424 -433.552285 
L 493.948636 -428.470928 
L 453.994848 -429.819959 
L 414.041061 -420.295999 
L 374.087273 -437.169909 
L 334.133485 -459.664686 
L 294.179697 -466.559816 
L 254.225909 -478.704139 
L 214.272121 -474.798566 
L 174.318333 -480.483931 
L 134.364545 -488.012668 
z
" style="stroke: #8f93f4; stroke-opacity: 0.2"/>
    </defs>
    <g clip-path="url(#p2eeb5db0b4)">
     <use xlink:href="#mc9aeaf791a" x="0" y="576" style="fill: #8f93f4; fill-opacity: 0.2; stroke: #8f93f4; stroke-opacity: 0.2"/>
    </g>
   </g>
   <g id="PolyCollection_10">
    <defs>
     <path id="m03b3aab14b" d="M 134.364545 -473.399266 
L 134.364545 -466.023939 
L 174.318333 -459.738508 
L 214.272121 -463.292853 
L 254.225909 -464.007187 
L 294.179697 -450.843025 
L 334.133485 -440.264654 
L 374.087273 -410.826291 
L 414.041061 -408.886231 
L 453.994848 -413.569244 
L 493.948636 -412.417853 
L 533.902424 -381.753732 
L 573.856212 -410.322767 
L 613.81 -427.59487 
L 653.763788 -425.066671 
L 693.717576 -445.046329 
L 733.671364 -431.360255 
L 773.625152 -437.355 
L 813.578939 -434.863925 
L 853.532727 -441.592588 
L 893.486515 -462.241353 
L 933.440303 -459.312146 
L 973.394091 -459.772989 
L 1013.347879 -431.884886 
L 1053.301667 -431.884886 
L 1093.255455 -459.380032 
L 1093.255455 -465.318394 
L 1093.255455 -465.318394 
L 1053.301667 -466.82247 
L 1013.347879 -454.288973 
L 973.394091 -466.157802 
L 933.440303 -459.772989 
L 893.486515 -475.542952 
L 853.532727 -455.404137 
L 813.578939 -437.560044 
L 773.625152 -451.884045 
L 733.671364 -446.26517 
L 693.717576 -465.159633 
L 653.763788 -461.257891 
L 613.81 -460.938911 
L 573.856212 -459.08121 
L 533.902424 -444.348059 
L 493.948636 -437.06771 
L 453.994848 -439.933347 
L 414.041061 -436.860282 
L 374.087273 -455.885981 
L 334.133485 -468.433409 
L 294.179697 -466.375088 
L 254.225909 -478.801747 
L 214.272121 -478.134211 
L 174.318333 -482.371464 
L 134.364545 -473.399266 
z
" style="stroke: #db70f4; stroke-opacity: 0.2"/>
    </defs>
    <g clip-path="url(#p2eeb5db0b4)">
     <use xlink:href="#m03b3aab14b" x="0" y="576" style="fill: #db70f4; fill-opacity: 0.2; stroke: #db70f4; stroke-opacity: 0.2"/>
    </g>
   </g>
   <g id="PolyCollection_11">
    <defs>
     <path id="m81ee8daf05" d="M 134.364545 -473.405162 
L 134.364545 -466.048519 
L 174.318333 -459.756345 
L 214.272121 -463.250668 
L 254.225909 -463.911069 
L 294.179697 -449.704982 
L 334.133485 -439.575686 
L 374.087273 -412.40082 
L 414.041061 -410.056623 
L 453.994848 -413.958575 
L 493.948636 -411.202041 
L 533.902424 -380.005951 
L 573.856212 -410.051221 
L 613.81 -427.596946 
L 653.763788 -425.10821 
L 693.717576 -442.971062 
L 733.671364 -431.371363 
L 773.625152 -432.223568 
L 813.578939 -434.875328 
L 853.532727 -441.617553 
L 893.486515 -462.225307 
L 933.440303 -459.380401 
L 973.394091 -459.766986 
L 1013.347879 -431.922196 
L 1053.301667 -431.922196 
L 1093.255455 -459.360077 
L 1093.255455 -465.284542 
L 1093.255455 -465.284542 
L 1053.301667 -466.794783 
L 1013.347879 -454.23692 
L 973.394091 -466.221054 
L 933.440303 -459.766986 
L 893.486515 -475.564691 
L 853.532727 -455.438745 
L 813.578939 -437.582065 
L 773.625152 -451.871695 
L 733.671364 -446.257645 
L 693.717576 -465.158767 
L 653.763788 -461.27603 
L 613.81 -460.94423 
L 573.856212 -459.127197 
L 533.902424 -442.928872 
L 493.948636 -437.044956 
L 453.994848 -439.965356 
L 414.041061 -436.820056 
L 374.087273 -456.739078 
L 334.133485 -466.770392 
L 294.179697 -466.385399 
L 254.225909 -478.549052 
L 214.272121 -478.138479 
L 174.318333 -482.333032 
L 134.364545 -473.405162 
z
" style="stroke: #f667c6; stroke-opacity: 0.2"/>
    </defs>
    <g clip-path="url(#p2eeb5db0b4)">
     <use xlink:href="#m81ee8daf05" x="0" y="576" style="fill: #f667c6; fill-opacity: 0.2; stroke: #f667c6; stroke-opacity: 0.2"/>
    </g>
   </g>
   <g id="matplotlib.axis_1">
    <g id="xtick_1">
     <g id="line2d_1">
      <defs>
       <path id="mbadc9af172" d="M 0 0 
L 0 3.5 
" style="stroke: #000000; stroke-width: 0.8"/>
      </defs>
      <g>
       <use xlink:href="#mbadc9af172" x="114.387652" y="489.832" style="stroke: #000000; stroke-width: 0.8"/>
      </g>
     </g>
     <g id="text_1">
      <!-- 0 -->
      <g transform="translate(108.025152 512.028875) scale(0.2 -0.2)">
       <defs>
        <path id="DejaVuSans-30" d="M 2034 4250 
Q 1547 4250 1301 3770 
Q 1056 3291 1056 2328 
Q 1056 1369 1301 889 
Q 1547 409 2034 409 
Q 2525 409 2770 889 
Q 3016 1369 3016 2328 
Q 3016 3291 2770 3770 
Q 2525 4250 2034 4250 
z
M 2034 4750 
Q 2819 4750 3233 4129 
Q 3647 3509 3647 2328 
Q 3647 1150 3233 529 
Q 2819 -91 2034 -91 
Q 1250 -91 836 529 
Q 422 1150 422 2328 
Q 422 3509 836 4129 
Q 1250 4750 2034 4750 
z
" transform="scale(0.015625)"/>
       </defs>
       <use xlink:href="#DejaVuSans-30"/>
      </g>
     </g>
    </g>
    <g id="xtick_2">
     <g id="line2d_2">
      <g>
       <use xlink:href="#mbadc9af172" x="314.156591" y="489.832" style="stroke: #000000; stroke-width: 0.8"/>
      </g>
     </g>
     <g id="text_2">
      <!-- 10 -->
      <g transform="translate(301.431591 512.028875) scale(0.2 -0.2)">
       <defs>
        <path id="DejaVuSans-31" d="M 794 531 
L 1825 531 
L 1825 4091 
L 703 3866 
L 703 4441 
L 1819 4666 
L 2450 4666 
L 2450 531 
L 3481 531 
L 3481 0 
L 794 0 
L 794 531 
z
" transform="scale(0.015625)"/>
       </defs>
       <use xlink:href="#DejaVuSans-31"/>
       <use xlink:href="#DejaVuSans-30" x="63.623047"/>
      </g>
     </g>
    </g>
    <g id="xtick_3">
     <g id="line2d_3">
      <g>
       <use xlink:href="#mbadc9af172" x="513.92553" y="489.832" style="stroke: #000000; stroke-width: 0.8"/>
      </g>
     </g>
     <g id="text_3">
      <!-- 20 -->
      <g transform="translate(501.20053 512.028875) scale(0.2 -0.2)">
       <defs>
        <path id="DejaVuSans-32" d="M 1228 531 
L 3431 531 
L 3431 0 
L 469 0 
L 469 531 
Q 828 903 1448 1529 
Q 2069 2156 2228 2338 
Q 2531 2678 2651 2914 
Q 2772 3150 2772 3378 
Q 2772 3750 2511 3984 
Q 2250 4219 1831 4219 
Q 1534 4219 1204 4116 
Q 875 4013 500 3803 
L 500 4441 
Q 881 4594 1212 4672 
Q 1544 4750 1819 4750 
Q 2544 4750 2975 4387 
Q 3406 4025 3406 3419 
Q 3406 3131 3298 2873 
Q 3191 2616 2906 2266 
Q 2828 2175 2409 1742 
Q 1991 1309 1228 531 
z
" transform="scale(0.015625)"/>
       </defs>
       <use xlink:href="#DejaVuSans-32"/>
       <use xlink:href="#DejaVuSans-30" x="63.623047"/>
      </g>
     </g>
    </g>
    <g id="xtick_4">
     <g id="line2d_4">
      <g>
       <use xlink:href="#mbadc9af172" x="713.69447" y="489.832" style="stroke: #000000; stroke-width: 0.8"/>
      </g>
     </g>
     <g id="text_4">
      <!-- 30 -->
      <g transform="translate(700.96947 512.028875) scale(0.2 -0.2)">
       <defs>
        <path id="DejaVuSans-33" d="M 2597 2516 
Q 3050 2419 3304 2112 
Q 3559 1806 3559 1356 
Q 3559 666 3084 287 
Q 2609 -91 1734 -91 
Q 1441 -91 1130 -33 
Q 819 25 488 141 
L 488 750 
Q 750 597 1062 519 
Q 1375 441 1716 441 
Q 2309 441 2620 675 
Q 2931 909 2931 1356 
Q 2931 1769 2642 2001 
Q 2353 2234 1838 2234 
L 1294 2234 
L 1294 2753 
L 1863 2753 
Q 2328 2753 2575 2939 
Q 2822 3125 2822 3475 
Q 2822 3834 2567 4026 
Q 2313 4219 1838 4219 
Q 1578 4219 1281 4162 
Q 984 4106 628 3988 
L 628 4550 
Q 988 4650 1302 4700 
Q 1616 4750 1894 4750 
Q 2613 4750 3031 4423 
Q 3450 4097 3450 3541 
Q 3450 3153 3228 2886 
Q 3006 2619 2597 2516 
z
" transform="scale(0.015625)"/>
       </defs>
       <use xlink:href="#DejaVuSans-33"/>
       <use xlink:href="#DejaVuSans-30" x="63.623047"/>
      </g>
     </g>
    </g>
    <g id="xtick_5">
     <g id="line2d_5">
      <g>
       <use xlink:href="#mbadc9af172" x="913.463409" y="489.832" style="stroke: #000000; stroke-width: 0.8"/>
      </g>
     </g>
     <g id="text_5">
      <!-- 40 -->
      <g transform="translate(900.738409 512.028875) scale(0.2 -0.2)">
       <defs>
        <path id="DejaVuSans-34" d="M 2419 4116 
L 825 1625 
L 2419 1625 
L 2419 4116 
z
M 2253 4666 
L 3047 4666 
L 3047 1625 
L 3713 1625 
L 3713 1100 
L 3047 1100 
L 3047 0 
L 2419 0 
L 2419 1100 
L 313 1100 
L 313 1709 
L 2253 4666 
z
" transform="scale(0.015625)"/>
       </defs>
       <use xlink:href="#DejaVuSans-34"/>
       <use xlink:href="#DejaVuSans-30" x="63.623047"/>
      </g>
     </g>
    </g>
    <g id="xtick_6">
     <g id="line2d_6">
      <g>
       <use xlink:href="#mbadc9af172" x="1113.232348" y="489.832" style="stroke: #000000; stroke-width: 0.8"/>
      </g>
     </g>
     <g id="text_6">
      <!-- 50 -->
      <g transform="translate(1100.507348 512.028875) scale(0.2 -0.2)">
       <defs>
        <path id="DejaVuSans-35" d="M 691 4666 
L 3169 4666 
L 3169 4134 
L 1269 4134 
L 1269 2991 
Q 1406 3038 1543 3061 
Q 1681 3084 1819 3084 
Q 2600 3084 3056 2656 
Q 3513 2228 3513 1497 
Q 3513 744 3044 326 
Q 2575 -91 1722 -91 
Q 1428 -91 1123 -41 
Q 819 9 494 109 
L 494 744 
Q 775 591 1075 516 
Q 1375 441 1709 441 
Q 2250 441 2565 725 
Q 2881 1009 2881 1497 
Q 2881 1984 2565 2268 
Q 2250 2553 1709 2553 
Q 1456 2553 1204 2497 
Q 953 2441 691 2322 
L 691 4666 
z
" transform="scale(0.015625)"/>
       </defs>
       <use xlink:href="#DejaVuSans-35"/>
       <use xlink:href="#DejaVuSans-30" x="63.623047"/>
      </g>
     </g>
    </g>
    <g id="text_7">
     <!-- Percentile Threshold -->
     <g transform="translate(512.030312 535.385125) scale(0.2 -0.2)">
      <defs>
       <path id="DejaVuSans-50" d="M 1259 4147 
L 1259 2394 
L 2053 2394 
Q 2494 2394 2734 2622 
Q 2975 2850 2975 3272 
Q 2975 3691 2734 3919 
Q 2494 4147 2053 4147 
L 1259 4147 
z
M 628 4666 
L 2053 4666 
Q 2838 4666 3239 4311 
Q 3641 3956 3641 3272 
Q 3641 2581 3239 2228 
Q 2838 1875 2053 1875 
L 1259 1875 
L 1259 0 
L 628 0 
L 628 4666 
z
" transform="scale(0.015625)"/>
       <path id="DejaVuSans-65" d="M 3597 1894 
L 3597 1613 
L 953 1613 
Q 991 1019 1311 708 
Q 1631 397 2203 397 
Q 2534 397 2845 478 
Q 3156 559 3463 722 
L 3463 178 
Q 3153 47 2828 -22 
Q 2503 -91 2169 -91 
Q 1331 -91 842 396 
Q 353 884 353 1716 
Q 353 2575 817 3079 
Q 1281 3584 2069 3584 
Q 2775 3584 3186 3129 
Q 3597 2675 3597 1894 
z
M 3022 2063 
Q 3016 2534 2758 2815 
Q 2500 3097 2075 3097 
Q 1594 3097 1305 2825 
Q 1016 2553 972 2059 
L 3022 2063 
z
" transform="scale(0.015625)"/>
       <path id="DejaVuSans-72" d="M 2631 2963 
Q 2534 3019 2420 3045 
Q 2306 3072 2169 3072 
Q 1681 3072 1420 2755 
Q 1159 2438 1159 1844 
L 1159 0 
L 581 0 
L 581 3500 
L 1159 3500 
L 1159 2956 
Q 1341 3275 1631 3429 
Q 1922 3584 2338 3584 
Q 2397 3584 2469 3576 
Q 2541 3569 2628 3553 
L 2631 2963 
z
" transform="scale(0.015625)"/>
       <path id="DejaVuSans-63" d="M 3122 3366 
L 3122 2828 
Q 2878 2963 2633 3030 
Q 2388 3097 2138 3097 
Q 1578 3097 1268 2742 
Q 959 2388 959 1747 
Q 959 1106 1268 751 
Q 1578 397 2138 397 
Q 2388 397 2633 464 
Q 2878 531 3122 666 
L 3122 134 
Q 2881 22 2623 -34 
Q 2366 -91 2075 -91 
Q 1284 -91 818 406 
Q 353 903 353 1747 
Q 353 2603 823 3093 
Q 1294 3584 2113 3584 
Q 2378 3584 2631 3529 
Q 2884 3475 3122 3366 
z
" transform="scale(0.015625)"/>
       <path id="DejaVuSans-6e" d="M 3513 2113 
L 3513 0 
L 2938 0 
L 2938 2094 
Q 2938 2591 2744 2837 
Q 2550 3084 2163 3084 
Q 1697 3084 1428 2787 
Q 1159 2491 1159 1978 
L 1159 0 
L 581 0 
L 581 3500 
L 1159 3500 
L 1159 2956 
Q 1366 3272 1645 3428 
Q 1925 3584 2291 3584 
Q 2894 3584 3203 3211 
Q 3513 2838 3513 2113 
z
" transform="scale(0.015625)"/>
       <path id="DejaVuSans-74" d="M 1172 4494 
L 1172 3500 
L 2356 3500 
L 2356 3053 
L 1172 3053 
L 1172 1153 
Q 1172 725 1289 603 
Q 1406 481 1766 481 
L 2356 481 
L 2356 0 
L 1766 0 
Q 1100 0 847 248 
Q 594 497 594 1153 
L 594 3053 
L 172 3053 
L 172 3500 
L 594 3500 
L 594 4494 
L 1172 4494 
z
" transform="scale(0.015625)"/>
       <path id="DejaVuSans-69" d="M 603 3500 
L 1178 3500 
L 1178 0 
L 603 0 
L 603 3500 
z
M 603 4863 
L 1178 4863 
L 1178 4134 
L 603 4134 
L 603 4863 
z
" transform="scale(0.015625)"/>
       <path id="DejaVuSans-6c" d="M 603 4863 
L 1178 4863 
L 1178 0 
L 603 0 
L 603 4863 
z
" transform="scale(0.015625)"/>
       <path id="DejaVuSans-20" transform="scale(0.015625)"/>
       <path id="DejaVuSans-54" d="M -19 4666 
L 3928 4666 
L 3928 4134 
L 2272 4134 
L 2272 0 
L 1638 0 
L 1638 4134 
L -19 4134 
L -19 4666 
z
" transform="scale(0.015625)"/>
       <path id="DejaVuSans-68" d="M 3513 2113 
L 3513 0 
L 2938 0 
L 2938 2094 
Q 2938 2591 2744 2837 
Q 2550 3084 2163 3084 
Q 1697 3084 1428 2787 
Q 1159 2491 1159 1978 
L 1159 0 
L 581 0 
L 581 4863 
L 1159 4863 
L 1159 2956 
Q 1366 3272 1645 3428 
Q 1925 3584 2291 3584 
Q 2894 3584 3203 3211 
Q 3513 2838 3513 2113 
z
" transform="scale(0.015625)"/>
       <path id="DejaVuSans-73" d="M 2834 3397 
L 2834 2853 
Q 2591 2978 2328 3040 
Q 2066 3103 1784 3103 
Q 1356 3103 1142 2972 
Q 928 2841 928 2578 
Q 928 2378 1081 2264 
Q 1234 2150 1697 2047 
L 1894 2003 
Q 2506 1872 2764 1633 
Q 3022 1394 3022 966 
Q 3022 478 2636 193 
Q 2250 -91 1575 -91 
Q 1294 -91 989 -36 
Q 684 19 347 128 
L 347 722 
Q 666 556 975 473 
Q 1284 391 1588 391 
Q 1994 391 2212 530 
Q 2431 669 2431 922 
Q 2431 1156 2273 1281 
Q 2116 1406 1581 1522 
L 1381 1569 
Q 847 1681 609 1914 
Q 372 2147 372 2553 
Q 372 3047 722 3315 
Q 1072 3584 1716 3584 
Q 2034 3584 2315 3537 
Q 2597 3491 2834 3397 
z
" transform="scale(0.015625)"/>
       <path id="DejaVuSans-6f" d="M 1959 3097 
Q 1497 3097 1228 2736 
Q 959 2375 959 1747 
Q 959 1119 1226 758 
Q 1494 397 1959 397 
Q 2419 397 2687 759 
Q 2956 1122 2956 1747 
Q 2956 2369 2687 2733 
Q 2419 3097 1959 3097 
z
M 1959 3584 
Q 2709 3584 3137 3096 
Q 3566 2609 3566 1747 
Q 3566 888 3137 398 
Q 2709 -91 1959 -91 
Q 1206 -91 779 398 
Q 353 888 353 1747 
Q 353 2609 779 3096 
Q 1206 3584 1959 3584 
z
" transform="scale(0.015625)"/>
       <path id="DejaVuSans-64" d="M 2906 2969 
L 2906 4863 
L 3481 4863 
L 3481 0 
L 2906 0 
L 2906 525 
Q 2725 213 2448 61 
Q 2172 -91 1784 -91 
Q 1150 -91 751 415 
Q 353 922 353 1747 
Q 353 2572 751 3078 
Q 1150 3584 1784 3584 
Q 2172 3584 2448 3432 
Q 2725 3281 2906 2969 
z
M 947 1747 
Q 947 1113 1208 752 
Q 1469 391 1925 391 
Q 2381 391 2643 752 
Q 2906 1113 2906 1747 
Q 2906 2381 2643 2742 
Q 2381 3103 1925 3103 
Q 1469 3103 1208 2742 
Q 947 2381 947 1747 
z
" transform="scale(0.015625)"/>
      </defs>
      <use xlink:href="#DejaVuSans-50"/>
      <use xlink:href="#DejaVuSans-65" x="56.677734"/>
      <use xlink:href="#DejaVuSans-72" x="118.201172"/>
      <use xlink:href="#DejaVuSans-63" x="157.064453"/>
      <use xlink:href="#DejaVuSans-65" x="212.044922"/>
      <use xlink:href="#DejaVuSans-6e" x="273.568359"/>
      <use xlink:href="#DejaVuSans-74" x="336.947266"/>
      <use xlink:href="#DejaVuSans-69" x="376.15625"/>
      <use xlink:href="#DejaVuSans-6c" x="403.939453"/>
      <use xlink:href="#DejaVuSans-65" x="431.722656"/>
      <use xlink:href="#DejaVuSans-20" x="493.246094"/>
      <use xlink:href="#DejaVuSans-54" x="525.033203"/>
      <use xlink:href="#DejaVuSans-68" x="586.117188"/>
      <use xlink:href="#DejaVuSans-72" x="649.496094"/>
      <use xlink:href="#DejaVuSans-65" x="688.359375"/>
      <use xlink:href="#DejaVuSans-73" x="749.882812"/>
      <use xlink:href="#DejaVuSans-68" x="801.982422"/>
      <use xlink:href="#DejaVuSans-6f" x="865.361328"/>
      <use xlink:href="#DejaVuSans-6c" x="926.542969"/>
      <use xlink:href="#DejaVuSans-64" x="954.326172"/>
     </g>
     <!-- (Using "leave_out" Threshold Handling) -->
     <g transform="translate(416.919375 557.78075) scale(0.2 -0.2)">
      <defs>
       <path id="DejaVuSans-28" d="M 1984 4856 
Q 1566 4138 1362 3434 
Q 1159 2731 1159 2009 
Q 1159 1288 1364 580 
Q 1569 -128 1984 -844 
L 1484 -844 
Q 1016 -109 783 600 
Q 550 1309 550 2009 
Q 550 2706 781 3412 
Q 1013 4119 1484 4856 
L 1984 4856 
z
" transform="scale(0.015625)"/>
       <path id="DejaVuSans-55" d="M 556 4666 
L 1191 4666 
L 1191 1831 
Q 1191 1081 1462 751 
Q 1734 422 2344 422 
Q 2950 422 3222 751 
Q 3494 1081 3494 1831 
L 3494 4666 
L 4128 4666 
L 4128 1753 
Q 4128 841 3676 375 
Q 3225 -91 2344 -91 
Q 1459 -91 1007 375 
Q 556 841 556 1753 
L 556 4666 
z
" transform="scale(0.015625)"/>
       <path id="DejaVuSans-67" d="M 2906 1791 
Q 2906 2416 2648 2759 
Q 2391 3103 1925 3103 
Q 1463 3103 1205 2759 
Q 947 2416 947 1791 
Q 947 1169 1205 825 
Q 1463 481 1925 481 
Q 2391 481 2648 825 
Q 2906 1169 2906 1791 
z
M 3481 434 
Q 3481 -459 3084 -895 
Q 2688 -1331 1869 -1331 
Q 1566 -1331 1297 -1286 
Q 1028 -1241 775 -1147 
L 775 -588 
Q 1028 -725 1275 -790 
Q 1522 -856 1778 -856 
Q 2344 -856 2625 -561 
Q 2906 -266 2906 331 
L 2906 616 
Q 2728 306 2450 153 
Q 2172 0 1784 0 
Q 1141 0 747 490 
Q 353 981 353 1791 
Q 353 2603 747 3093 
Q 1141 3584 1784 3584 
Q 2172 3584 2450 3431 
Q 2728 3278 2906 2969 
L 2906 3500 
L 3481 3500 
L 3481 434 
z
" transform="scale(0.015625)"/>
       <path id="DejaVuSans-22" d="M 1147 4666 
L 1147 2931 
L 616 2931 
L 616 4666 
L 1147 4666 
z
M 2328 4666 
L 2328 2931 
L 1797 2931 
L 1797 4666 
L 2328 4666 
z
" transform="scale(0.015625)"/>
       <path id="DejaVuSans-61" d="M 2194 1759 
Q 1497 1759 1228 1600 
Q 959 1441 959 1056 
Q 959 750 1161 570 
Q 1363 391 1709 391 
Q 2188 391 2477 730 
Q 2766 1069 2766 1631 
L 2766 1759 
L 2194 1759 
z
M 3341 1997 
L 3341 0 
L 2766 0 
L 2766 531 
Q 2569 213 2275 61 
Q 1981 -91 1556 -91 
Q 1019 -91 701 211 
Q 384 513 384 1019 
Q 384 1609 779 1909 
Q 1175 2209 1959 2209 
L 2766 2209 
L 2766 2266 
Q 2766 2663 2505 2880 
Q 2244 3097 1772 3097 
Q 1472 3097 1187 3025 
Q 903 2953 641 2809 
L 641 3341 
Q 956 3463 1253 3523 
Q 1550 3584 1831 3584 
Q 2591 3584 2966 3190 
Q 3341 2797 3341 1997 
z
" transform="scale(0.015625)"/>
       <path id="DejaVuSans-76" d="M 191 3500 
L 800 3500 
L 1894 563 
L 2988 3500 
L 3597 3500 
L 2284 0 
L 1503 0 
L 191 3500 
z
" transform="scale(0.015625)"/>
       <path id="DejaVuSans-5f" d="M 3263 -1063 
L 3263 -1509 
L -63 -1509 
L -63 -1063 
L 3263 -1063 
z
" transform="scale(0.015625)"/>
       <path id="DejaVuSans-75" d="M 544 1381 
L 544 3500 
L 1119 3500 
L 1119 1403 
Q 1119 906 1312 657 
Q 1506 409 1894 409 
Q 2359 409 2629 706 
Q 2900 1003 2900 1516 
L 2900 3500 
L 3475 3500 
L 3475 0 
L 2900 0 
L 2900 538 
Q 2691 219 2414 64 
Q 2138 -91 1772 -91 
Q 1169 -91 856 284 
Q 544 659 544 1381 
z
M 1991 3584 
L 1991 3584 
z
" transform="scale(0.015625)"/>
       <path id="DejaVuSans-48" d="M 628 4666 
L 1259 4666 
L 1259 2753 
L 3553 2753 
L 3553 4666 
L 4184 4666 
L 4184 0 
L 3553 0 
L 3553 2222 
L 1259 2222 
L 1259 0 
L 628 0 
L 628 4666 
z
" transform="scale(0.015625)"/>
       <path id="DejaVuSans-29" d="M 513 4856 
L 1013 4856 
Q 1481 4119 1714 3412 
Q 1947 2706 1947 2009 
Q 1947 1309 1714 600 
Q 1481 -109 1013 -844 
L 513 -844 
Q 928 -128 1133 580 
Q 1338 1288 1338 2009 
Q 1338 2731 1133 3434 
Q 928 4138 513 4856 
z
" transform="scale(0.015625)"/>
      </defs>
      <use xlink:href="#DejaVuSans-28"/>
      <use xlink:href="#DejaVuSans-55" x="39.013672"/>
      <use xlink:href="#DejaVuSans-73" x="112.207031"/>
      <use xlink:href="#DejaVuSans-69" x="164.306641"/>
      <use xlink:href="#DejaVuSans-6e" x="192.089844"/>
      <use xlink:href="#DejaVuSans-67" x="255.46875"/>
      <use xlink:href="#DejaVuSans-20" x="318.945312"/>
      <use xlink:href="#DejaVuSans-22" x="350.732422"/>
      <use xlink:href="#DejaVuSans-6c" x="396.728516"/>
      <use xlink:href="#DejaVuSans-65" x="424.511719"/>
      <use xlink:href="#DejaVuSans-61" x="486.035156"/>
      <use xlink:href="#DejaVuSans-76" x="547.314453"/>
      <use xlink:href="#DejaVuSans-65" x="606.494141"/>
      <use xlink:href="#DejaVuSans-5f" x="668.017578"/>
      <use xlink:href="#DejaVuSans-6f" x="718.017578"/>
      <use xlink:href="#DejaVuSans-75" x="779.199219"/>
      <use xlink:href="#DejaVuSans-74" x="842.578125"/>
      <use xlink:href="#DejaVuSans-22" x="881.787109"/>
      <use xlink:href="#DejaVuSans-20" x="927.783203"/>
      <use xlink:href="#DejaVuSans-54" x="959.570312"/>
      <use xlink:href="#DejaVuSans-68" x="1020.654297"/>
      <use xlink:href="#DejaVuSans-72" x="1084.033203"/>
      <use xlink:href="#DejaVuSans-65" x="1122.896484"/>
      <use xlink:href="#DejaVuSans-73" x="1184.419922"/>
      <use xlink:href="#DejaVuSans-68" x="1236.519531"/>
      <use xlink:href="#DejaVuSans-6f" x="1299.898438"/>
      <use xlink:href="#DejaVuSans-6c" x="1361.080078"/>
      <use xlink:href="#DejaVuSans-64" x="1388.863281"/>
      <use xlink:href="#DejaVuSans-20" x="1452.339844"/>
      <use xlink:href="#DejaVuSans-48" x="1484.126953"/>
      <use xlink:href="#DejaVuSans-61" x="1559.322266"/>
      <use xlink:href="#DejaVuSans-6e" x="1620.601562"/>
      <use xlink:href="#DejaVuSans-64" x="1683.980469"/>
      <use xlink:href="#DejaVuSans-6c" x="1747.457031"/>
      <use xlink:href="#DejaVuSans-69" x="1775.240234"/>
      <use xlink:href="#DejaVuSans-6e" x="1803.023438"/>
      <use xlink:href="#DejaVuSans-67" x="1866.402344"/>
      <use xlink:href="#DejaVuSans-29" x="1929.878906"/>
     </g>
    </g>
   </g>
   <g id="matplotlib.axis_2">
    <g id="ytick_1">
     <g id="line2d_7">
      <defs>
       <path id="ma3ec0b5c25" d="M 0 0 
L -3.5 0 
" style="stroke: #000000; stroke-width: 0.8"/>
      </defs>
      <g>
       <use xlink:href="#ma3ec0b5c25" x="86.42" y="486.500307" style="stroke: #000000; stroke-width: 0.8"/>
      </g>
     </g>
     <g id="text_8">
      <!-- 0.50 -->
      <g transform="translate(34.88875 494.098745) scale(0.2 -0.2)">
       <defs>
        <path id="DejaVuSans-2e" d="M 684 794 
L 1344 794 
L 1344 0 
L 684 0 
L 684 794 
z
" transform="scale(0.015625)"/>
       </defs>
       <use xlink:href="#DejaVuSans-30"/>
       <use xlink:href="#DejaVuSans-2e" x="63.623047"/>
       <use xlink:href="#DejaVuSans-35" x="95.410156"/>
       <use xlink:href="#DejaVuSans-30" x="159.033203"/>
      </g>
     </g>
    </g>
    <g id="ytick_2">
     <g id="line2d_8">
      <g>
       <use xlink:href="#ma3ec0b5c25" x="86.42" y="432.124209" style="stroke: #000000; stroke-width: 0.8"/>
      </g>
     </g>
     <g id="text_9">
      <!-- 0.55 -->
      <g transform="translate(34.88875 439.722646) scale(0.2 -0.2)">
       <use xlink:href="#DejaVuSans-30"/>
       <use xlink:href="#DejaVuSans-2e" x="63.623047"/>
       <use xlink:href="#DejaVuSans-35" x="95.410156"/>
       <use xlink:href="#DejaVuSans-35" x="159.033203"/>
      </g>
     </g>
    </g>
    <g id="ytick_3">
     <g id="line2d_9">
      <g>
       <use xlink:href="#ma3ec0b5c25" x="86.42" y="377.74811" style="stroke: #000000; stroke-width: 0.8"/>
      </g>
     </g>
     <g id="text_10">
      <!-- 0.60 -->
      <g transform="translate(34.88875 385.346548) scale(0.2 -0.2)">
       <defs>
        <path id="DejaVuSans-36" d="M 2113 2584 
Q 1688 2584 1439 2293 
Q 1191 2003 1191 1497 
Q 1191 994 1439 701 
Q 1688 409 2113 409 
Q 2538 409 2786 701 
Q 3034 994 3034 1497 
Q 3034 2003 2786 2293 
Q 2538 2584 2113 2584 
z
M 3366 4563 
L 3366 3988 
Q 3128 4100 2886 4159 
Q 2644 4219 2406 4219 
Q 1781 4219 1451 3797 
Q 1122 3375 1075 2522 
Q 1259 2794 1537 2939 
Q 1816 3084 2150 3084 
Q 2853 3084 3261 2657 
Q 3669 2231 3669 1497 
Q 3669 778 3244 343 
Q 2819 -91 2113 -91 
Q 1303 -91 875 529 
Q 447 1150 447 2328 
Q 447 3434 972 4092 
Q 1497 4750 2381 4750 
Q 2619 4750 2861 4703 
Q 3103 4656 3366 4563 
z
" transform="scale(0.015625)"/>
       </defs>
       <use xlink:href="#DejaVuSans-30"/>
       <use xlink:href="#DejaVuSans-2e" x="63.623047"/>
       <use xlink:href="#DejaVuSans-36" x="95.410156"/>
       <use xlink:href="#DejaVuSans-30" x="159.033203"/>
      </g>
     </g>
    </g>
    <g id="ytick_4">
     <g id="line2d_10">
      <g>
       <use xlink:href="#ma3ec0b5c25" x="86.42" y="323.372011" style="stroke: #000000; stroke-width: 0.8"/>
      </g>
     </g>
     <g id="text_11">
      <!-- 0.65 -->
      <g transform="translate(34.88875 330.970449) scale(0.2 -0.2)">
       <use xlink:href="#DejaVuSans-30"/>
       <use xlink:href="#DejaVuSans-2e" x="63.623047"/>
       <use xlink:href="#DejaVuSans-36" x="95.410156"/>
       <use xlink:href="#DejaVuSans-35" x="159.033203"/>
      </g>
     </g>
    </g>
    <g id="ytick_5">
     <g id="line2d_11">
      <g>
       <use xlink:href="#ma3ec0b5c25" x="86.42" y="268.995913" style="stroke: #000000; stroke-width: 0.8"/>
      </g>
     </g>
     <g id="text_12">
      <!-- 0.70 -->
      <g transform="translate(34.88875 276.59435) scale(0.2 -0.2)">
       <defs>
        <path id="DejaVuSans-37" d="M 525 4666 
L 3525 4666 
L 3525 4397 
L 1831 0 
L 1172 0 
L 2766 4134 
L 525 4134 
L 525 4666 
z
" transform="scale(0.015625)"/>
       </defs>
       <use xlink:href="#DejaVuSans-30"/>
       <use xlink:href="#DejaVuSans-2e" x="63.623047"/>
       <use xlink:href="#DejaVuSans-37" x="95.410156"/>
       <use xlink:href="#DejaVuSans-30" x="159.033203"/>
      </g>
     </g>
    </g>
    <g id="ytick_6">
     <g id="line2d_12">
      <g>
       <use xlink:href="#ma3ec0b5c25" x="86.42" y="214.619814" style="stroke: #000000; stroke-width: 0.8"/>
      </g>
     </g>
     <g id="text_13">
      <!-- 0.75 -->
      <g transform="translate(34.88875 222.218252) scale(0.2 -0.2)">
       <use xlink:href="#DejaVuSans-30"/>
       <use xlink:href="#DejaVuSans-2e" x="63.623047"/>
       <use xlink:href="#DejaVuSans-37" x="95.410156"/>
       <use xlink:href="#DejaVuSans-35" x="159.033203"/>
      </g>
     </g>
    </g>
    <g id="ytick_7">
     <g id="line2d_13">
      <g>
       <use xlink:href="#ma3ec0b5c25" x="86.42" y="160.243715" style="stroke: #000000; stroke-width: 0.8"/>
      </g>
     </g>
     <g id="text_14">
      <!-- 0.80 -->
      <g transform="translate(34.88875 167.842153) scale(0.2 -0.2)">
       <defs>
        <path id="DejaVuSans-38" d="M 2034 2216 
Q 1584 2216 1326 1975 
Q 1069 1734 1069 1313 
Q 1069 891 1326 650 
Q 1584 409 2034 409 
Q 2484 409 2743 651 
Q 3003 894 3003 1313 
Q 3003 1734 2745 1975 
Q 2488 2216 2034 2216 
z
M 1403 2484 
Q 997 2584 770 2862 
Q 544 3141 544 3541 
Q 544 4100 942 4425 
Q 1341 4750 2034 4750 
Q 2731 4750 3128 4425 
Q 3525 4100 3525 3541 
Q 3525 3141 3298 2862 
Q 3072 2584 2669 2484 
Q 3125 2378 3379 2068 
Q 3634 1759 3634 1313 
Q 3634 634 3220 271 
Q 2806 -91 2034 -91 
Q 1263 -91 848 271 
Q 434 634 434 1313 
Q 434 1759 690 2068 
Q 947 2378 1403 2484 
z
M 1172 3481 
Q 1172 3119 1398 2916 
Q 1625 2713 2034 2713 
Q 2441 2713 2670 2916 
Q 2900 3119 2900 3481 
Q 2900 3844 2670 4047 
Q 2441 4250 2034 4250 
Q 1625 4250 1398 4047 
Q 1172 3844 1172 3481 
z
" transform="scale(0.015625)"/>
       </defs>
       <use xlink:href="#DejaVuSans-30"/>
       <use xlink:href="#DejaVuSans-2e" x="63.623047"/>
       <use xlink:href="#DejaVuSans-38" x="95.410156"/>
       <use xlink:href="#DejaVuSans-30" x="159.033203"/>
      </g>
     </g>
    </g>
    <g id="ytick_8">
     <g id="line2d_14">
      <g>
       <use xlink:href="#ma3ec0b5c25" x="86.42" y="105.867617" style="stroke: #000000; stroke-width: 0.8"/>
      </g>
     </g>
     <g id="text_15">
      <!-- 0.85 -->
      <g transform="translate(34.88875 113.466054) scale(0.2 -0.2)">
       <use xlink:href="#DejaVuSans-30"/>
       <use xlink:href="#DejaVuSans-2e" x="63.623047"/>
       <use xlink:href="#DejaVuSans-38" x="95.410156"/>
       <use xlink:href="#DejaVuSans-35" x="159.033203"/>
      </g>
     </g>
    </g>
    <g id="ytick_9">
     <g id="line2d_15">
      <g>
       <use xlink:href="#ma3ec0b5c25" x="86.42" y="51.491518" style="stroke: #000000; stroke-width: 0.8"/>
      </g>
     </g>
     <g id="text_16">
      <!-- 0.90 -->
      <g transform="translate(34.88875 59.089956) scale(0.2 -0.2)">
       <defs>
        <path id="DejaVuSans-39" d="M 703 97 
L 703 672 
Q 941 559 1184 500 
Q 1428 441 1663 441 
Q 2288 441 2617 861 
Q 2947 1281 2994 2138 
Q 2813 1869 2534 1725 
Q 2256 1581 1919 1581 
Q 1219 1581 811 2004 
Q 403 2428 403 3163 
Q 403 3881 828 4315 
Q 1253 4750 1959 4750 
Q 2769 4750 3195 4129 
Q 3622 3509 3622 2328 
Q 3622 1225 3098 567 
Q 2575 -91 1691 -91 
Q 1453 -91 1209 -44 
Q 966 3 703 97 
z
M 1959 2075 
Q 2384 2075 2632 2365 
Q 2881 2656 2881 3163 
Q 2881 3666 2632 3958 
Q 2384 4250 1959 4250 
Q 1534 4250 1286 3958 
Q 1038 3666 1038 3163 
Q 1038 2656 1286 2365 
Q 1534 2075 1959 2075 
z
" transform="scale(0.015625)"/>
       </defs>
       <use xlink:href="#DejaVuSans-30"/>
       <use xlink:href="#DejaVuSans-2e" x="63.623047"/>
       <use xlink:href="#DejaVuSans-39" x="95.410156"/>
       <use xlink:href="#DejaVuSans-30" x="159.033203"/>
      </g>
     </g>
    </g>
    <g id="text_17">
     <!-- R2 -->
     <g transform="translate(26.729375 263.626938) rotate(-90) scale(0.2 -0.2)">
      <defs>
       <path id="DejaVuSans-52" d="M 2841 2188 
Q 3044 2119 3236 1894 
Q 3428 1669 3622 1275 
L 4263 0 
L 3584 0 
L 2988 1197 
Q 2756 1666 2539 1819 
Q 2322 1972 1947 1972 
L 1259 1972 
L 1259 0 
L 628 0 
L 628 4666 
L 2053 4666 
Q 2853 4666 3247 4331 
Q 3641 3997 3641 3322 
Q 3641 2881 3436 2590 
Q 3231 2300 2841 2188 
z
M 1259 4147 
L 1259 2491 
L 2053 2491 
Q 2509 2491 2742 2702 
Q 2975 2913 2975 3322 
Q 2975 3731 2742 3939 
Q 2509 4147 2053 4147 
L 1259 4147 
z
" transform="scale(0.015625)"/>
      </defs>
      <use xlink:href="#DejaVuSans-52"/>
      <use xlink:href="#DejaVuSans-32" x="69.482422"/>
     </g>
    </g>
   </g>
   <g id="line2d_16">
    <path d="M 134.364545 40.919562 
L 174.318333 46.535547 
L 214.272121 55.039598 
L 254.225909 60.042269 
L 294.179697 74.942856 
L 334.133485 90.092564 
L 374.087273 111.17438 
L 414.041061 117.193599 
L 453.994848 124.666347 
L 493.948636 138.784653 
L 533.902424 121.899246 
L 573.856212 118.589307 
L 613.81 118.034421 
L 653.763788 151.952508 
L 693.717576 150.265622 
L 733.671364 158.883724 
L 773.625152 151.788614 
L 813.578939 164.616968 
L 853.532727 176.560385 
L 893.486515 163.018538 
L 933.440303 170.292071 
L 973.394091 152.677678 
L 1013.347879 157.319077 
L 1053.301667 140.71274 
L 1093.255455 143.682587 
" clip-path="url(#p2eeb5db0b4)" style="fill: none; stroke: #f77189; stroke-width: 1.5; stroke-linecap: square"/>
   </g>
   <g id="line2d_17">
    <path d="M 134.364545 50.799269 
L 174.318333 53.507653 
L 214.272121 68.864994 
L 254.225909 73.629009 
L 294.179697 101.559848 
L 334.133485 112.610197 
L 374.087273 112.2795 
L 414.041061 125.622687 
L 453.994848 128.523243 
L 493.948636 123.964781 
L 533.902424 138.292692 
L 573.856212 139.567241 
L 613.81 123.577016 
L 653.763788 149.68385 
L 693.717576 154.194768 
L 733.671364 145.28109 
L 773.625152 147.86255 
L 813.578939 150.17604 
L 853.532727 151.840383 
L 893.486515 176.39037 
L 933.440303 189.778996 
L 973.394091 181.13528 
L 1013.347879 172.884181 
L 1053.301667 146.907581 
L 1093.255455 151.024468 
" clip-path="url(#p2eeb5db0b4)" style="fill: none; stroke: #e18632; stroke-width: 1.5; stroke-linecap: square"/>
   </g>
   <g id="line2d_18">
    <path d="M 134.364545 49.016224 
L 174.318333 52.949535 
L 214.272121 49.186885 
L 254.225909 53.460158 
L 294.179697 67.621735 
L 334.133485 66.92907 
L 374.087273 80.579353 
L 414.041061 91.298847 
L 453.994848 91.509901 
L 493.948636 96.193066 
L 533.902424 93.809452 
L 573.856212 96.886094 
L 613.81 85.296531 
L 653.763788 99.036732 
L 693.717576 109.735485 
L 733.671364 121.140708 
L 773.625152 118.41776 
L 813.578939 129.104946 
L 853.532727 125.227775 
L 893.486515 106.847209 
L 933.440303 101.843219 
L 973.394091 102.916415 
L 1013.347879 110.270821 
L 1053.301667 100.438987 
L 1093.255455 88.778182 
" clip-path="url(#p2eeb5db0b4)" style="fill: none; stroke: #b59a32; stroke-width: 1.5; stroke-linecap: square"/>
   </g>
   <g id="line2d_19">
    <path d="M 134.364545 60.300964 
L 174.318333 65.499769 
L 214.272121 80.16075 
L 254.225909 81.76616 
L 294.179697 104.414946 
L 334.133485 113.553093 
L 374.087273 131.027293 
L 414.041061 143.565292 
L 453.994848 148.67024 
L 493.948636 151.977799 
L 533.902424 155.831803 
L 573.856212 146.022041 
L 613.81 140.141861 
L 653.763788 158.10771 
L 693.717576 169.113313 
L 733.671364 164.492935 
L 773.625152 147.228386 
L 813.578939 163.693477 
L 853.532727 161.269377 
L 893.486515 169.211998 
L 933.440303 181.816651 
L 973.394091 161.505452 
L 1013.347879 162.194651 
L 1053.301667 152.407737 
L 1093.255455 151.124821 
" clip-path="url(#p2eeb5db0b4)" style="fill: none; stroke: #8ba731; stroke-width: 1.5; stroke-linecap: square"/>
   </g>
   <g id="line2d_20">
    <path d="M 134.364545 58.89588 
L 174.318333 63.606809 
L 214.272121 72.008696 
L 254.225909 82.134275 
L 294.179697 100.21298 
L 334.133485 108.636287 
L 374.087273 113.605794 
L 414.041061 115.969255 
L 453.994848 132.528315 
L 493.948636 148.239589 
L 533.902424 149.670175 
L 573.856212 131.012434 
L 613.81 132.113393 
L 653.763788 149.147745 
L 693.717576 143.898188 
L 733.671364 142.124108 
L 773.625152 135.888335 
L 813.578939 151.288445 
L 853.532727 150.5355 
L 893.486515 161.963755 
L 933.440303 175.667447 
L 973.394091 161.391764 
L 1013.347879 166.869315 
L 1053.301667 150.553052 
L 1093.255455 148.450258 
" clip-path="url(#p2eeb5db0b4)" style="fill: none; stroke: #32b258; stroke-width: 1.5; stroke-linecap: square"/>
   </g>
   <g id="line2d_21">
    <path d="M 134.364545 122.407558 
L 174.318333 142.18744 
L 214.272121 190.881764 
L 254.225909 196.980618 
L 294.179697 224.615739 
L 334.133485 291.319424 
L 374.087273 268.961375 
L 414.041061 290.129173 
L 453.994848 289.146533 
L 493.948636 328.501158 
L 533.902424 336.144062 
L 573.856212 330.577508 
L 613.81 239.868208 
L 653.763788 260.346839 
L 693.717576 306.372228 
L 733.671364 254.449289 
L 773.625152 257.309943 
L 813.578939 281.567401 
L 853.532727 335.803927 
L 893.486515 301.087485 
L 933.440303 359.839358 
L 973.394091 335.017182 
L 1013.347879 298.206761 
L 1053.301667 318.49214 
L 1093.255455 301.220248 
" clip-path="url(#p2eeb5db0b4)" style="fill: none; stroke: #35ae95; stroke-width: 1.5; stroke-linecap: square"/>
   </g>
   <g id="line2d_22">
    <path d="M 134.364545 91.299235 
L 174.318333 102.365364 
L 214.272121 165.094381 
L 254.225909 159.565376 
L 294.179697 190.384326 
L 334.133485 206.983056 
L 374.087273 213.494801 
L 414.041061 234.893709 
L 453.994848 251.491923 
L 493.948636 282.451902 
L 533.902424 257.467753 
L 573.856212 253.50497 
L 613.81 198.386099 
L 653.763788 224.487674 
L 693.717576 253.322062 
L 733.671364 222.760791 
L 773.625152 215.14294 
L 813.578939 217.113707 
L 853.532727 264.089015 
L 893.486515 284.724643 
L 933.440303 307.120631 
L 973.394091 277.883332 
L 1013.347879 255.099394 
L 1053.301667 257.009921 
L 1093.255455 289.728245 
" clip-path="url(#p2eeb5db0b4)" style="fill: none; stroke: #37abb2; stroke-width: 1.5; stroke-linecap: square"/>
   </g>
   <g id="line2d_23">
    <path d="M 134.364545 112.801252 
L 174.318333 104.602644 
L 214.272121 101.07785 
L 254.225909 110.536013 
L 294.179697 152.620039 
L 334.133485 147.949347 
L 374.087273 172.347327 
L 414.041061 189.240806 
L 453.994848 188.16916 
L 493.948636 221.229949 
L 533.902424 223.563006 
L 573.856212 224.292017 
L 613.81 218.302326 
L 653.763788 225.959351 
L 693.717576 273.129048 
L 733.671364 265.224699 
L 773.625152 264.544671 
L 813.578939 267.416032 
L 853.532727 247.49782 
L 893.486515 214.740097 
L 933.440303 196.381154 
L 973.394091 196.979889 
L 1013.347879 186.986525 
L 1053.301667 179.802601 
L 1093.255455 171.330723 
" clip-path="url(#p2eeb5db0b4)" style="fill: none; stroke: #39a7d6; stroke-width: 1.5; stroke-linecap: square"/>
   </g>
   <g id="line2d_24">
    <path d="M 134.364545 96.348669 
L 174.318333 104.138115 
L 214.272121 108.797157 
L 254.225909 106.132359 
L 294.179697 123.307584 
L 334.133485 135.721337 
L 374.087273 155.069945 
L 414.041061 166.77812 
L 453.994848 156.041635 
L 493.948636 162.145733 
L 533.902424 158.491796 
L 573.856212 168.218111 
L 613.81 147.613575 
L 653.763788 169.377065 
L 693.717576 176.461408 
L 733.671364 167.922311 
L 773.625152 163.328089 
L 813.578939 180.930086 
L 853.532727 155.628248 
L 893.486515 150.030003 
L 933.440303 155.688118 
L 973.394091 155.163662 
L 1013.347879 155.527925 
L 1053.301667 146.255023 
L 1093.255455 131.056043 
" clip-path="url(#p2eeb5db0b4)" style="fill: none; stroke: #8f93f4; stroke-width: 1.5; stroke-linecap: square"/>
   </g>
   <g id="line2d_25">
    <path d="M 134.364545 105.858724 
L 174.318333 104.44272 
L 214.272121 105.286468 
L 254.225909 105.227021 
L 294.179697 117.867739 
L 334.133485 123.016606 
L 374.087273 140.318731 
L 414.041061 151.154139 
L 453.994848 147.553018 
L 493.948636 151.362324 
L 533.902424 162.430152 
L 573.856212 134.833238 
L 613.81 129.662184 
L 653.763788 132.837719 
L 693.717576 123.499011 
L 733.671364 136.743344 
L 773.625152 132.090406 
L 813.578939 139.788016 
L 853.532727 127.501638 
L 893.486515 107.107848 
L 933.440303 116.457432 
L 973.394091 113.034604 
L 1013.347879 132.913071 
L 1053.301667 126.646322 
L 1093.255455 113.650787 
" clip-path="url(#p2eeb5db0b4)" style="fill: none; stroke: #db70f4; stroke-width: 1.5; stroke-linecap: square"/>
   </g>
   <g id="line2d_26">
    <path d="M 134.364545 105.857722 
L 174.318333 104.43602 
L 214.272121 105.276297 
L 254.225909 105.218783 
L 294.179697 117.861301 
L 334.133485 123.00606 
L 374.087273 140.31681 
L 414.041061 151.144815 
L 453.994848 147.481164 
L 493.948636 151.356047 
L 533.902424 162.34599 
L 573.856212 134.813699 
L 613.81 129.644473 
L 653.763788 132.80788 
L 693.717576 123.50322 
L 733.671364 136.745525 
L 773.625152 132.093508 
L 813.578939 139.771304 
L 853.532727 127.471851 
L 893.486515 107.105001 
L 933.440303 116.426306 
L 973.394091 113.00598 
L 1013.347879 132.920442 
L 1053.301667 126.64151 
L 1093.255455 113.677691 
" clip-path="url(#p2eeb5db0b4)" style="fill: none; stroke: #f667c6; stroke-width: 1.5; stroke-linecap: square"/>
   </g>
   <g id="line2d_27"/>
   <g id="line2d_28"/>
   <g id="line2d_29"/>
   <g id="line2d_30"/>
   <g id="line2d_31"/>
   <g id="line2d_32"/>
   <g id="line2d_33"/>
   <g id="line2d_34"/>
   <g id="line2d_35"/>
   <g id="line2d_36"/>
   <g id="line2d_37"/>
   <g id="patch_3">
    <path d="M 86.42 489.832 
L 86.42 10.8 
" style="fill: none; stroke: #000000; stroke-width: 0.8; stroke-linejoin: miter; stroke-linecap: square"/>
   </g>
   <g id="patch_4">
    <path d="M 1141.2 489.832 
L 1141.2 10.8 
" style="fill: none; stroke: #000000; stroke-width: 0.8; stroke-linejoin: miter; stroke-linecap: square"/>
   </g>
   <g id="patch_5">
    <path d="M 86.42 489.832 
L 1141.2 489.832 
" style="fill: none; stroke: #000000; stroke-width: 0.8; stroke-linejoin: miter; stroke-linecap: square"/>
   </g>
   <g id="patch_6">
    <path d="M 86.42 10.8 
L 1141.2 10.8 
" style="fill: none; stroke: #000000; stroke-width: 0.8; stroke-linejoin: miter; stroke-linecap: square"/>
   </g>
   <g id="legend_1">
    <g id="patch_7">
     <path d="M 97.62 481.832 
L 267.365 481.832 
Q 270.565 481.832 270.565 478.632 
L 270.565 221.897 
Q 270.565 218.697 267.365 218.697 
L 97.62 218.697 
Q 94.42 218.697 94.42 221.897 
L 94.42 478.632 
Q 94.42 481.832 97.62 481.832 
z
" style="fill: #ffffff; opacity: 0.8; stroke: #cccccc; stroke-linejoin: miter"/>
    </g>
    <g id="line2d_38">
     <path d="M 100.82 231.6545 
L 116.82 231.6545 
L 132.82 231.6545 
" style="fill: none; stroke: #f77189; stroke-width: 1.5; stroke-linecap: square"/>
    </g>
    <g id="text_18">
     <!-- gbr -->
     <g transform="translate(145.62 237.2545) scale(0.16 -0.16)">
      <defs>
       <path id="DejaVuSans-62" d="M 3116 1747 
Q 3116 2381 2855 2742 
Q 2594 3103 2138 3103 
Q 1681 3103 1420 2742 
Q 1159 2381 1159 1747 
Q 1159 1113 1420 752 
Q 1681 391 2138 391 
Q 2594 391 2855 752 
Q 3116 1113 3116 1747 
z
M 1159 2969 
Q 1341 3281 1617 3432 
Q 1894 3584 2278 3584 
Q 2916 3584 3314 3078 
Q 3713 2572 3713 1747 
Q 3713 922 3314 415 
Q 2916 -91 2278 -91 
Q 1894 -91 1617 61 
Q 1341 213 1159 525 
L 1159 0 
L 581 0 
L 581 4863 
L 1159 4863 
L 1159 2969 
z
" transform="scale(0.015625)"/>
      </defs>
      <use xlink:href="#DejaVuSans-67"/>
      <use xlink:href="#DejaVuSans-62" x="63.476562"/>
      <use xlink:href="#DejaVuSans-72" x="126.953125"/>
     </g>
    </g>
    <g id="line2d_39">
     <path d="M 100.82 255.1395 
L 116.82 255.1395 
L 132.82 255.1395 
" style="fill: none; stroke: #e18632; stroke-width: 1.5; stroke-linecap: square"/>
    </g>
    <g id="text_19">
     <!-- xgb -->
     <g transform="translate(145.62 260.7395) scale(0.16 -0.16)">
      <defs>
       <path id="DejaVuSans-78" d="M 3513 3500 
L 2247 1797 
L 3578 0 
L 2900 0 
L 1881 1375 
L 863 0 
L 184 0 
L 1544 1831 
L 300 3500 
L 978 3500 
L 1906 2253 
L 2834 3500 
L 3513 3500 
z
" transform="scale(0.015625)"/>
      </defs>
      <use xlink:href="#DejaVuSans-78"/>
      <use xlink:href="#DejaVuSans-67" x="59.179688"/>
      <use xlink:href="#DejaVuSans-62" x="122.65625"/>
     </g>
    </g>
    <g id="line2d_40">
     <path d="M 100.82 278.6245 
L 116.82 278.6245 
L 132.82 278.6245 
" style="fill: none; stroke: #b59a32; stroke-width: 1.5; stroke-linecap: square"/>
    </g>
    <g id="text_20">
     <!-- BayesianRidge -->
     <g transform="translate(145.62 284.2245) scale(0.16 -0.16)">
      <defs>
       <path id="DejaVuSans-42" d="M 1259 2228 
L 1259 519 
L 2272 519 
Q 2781 519 3026 730 
Q 3272 941 3272 1375 
Q 3272 1813 3026 2020 
Q 2781 2228 2272 2228 
L 1259 2228 
z
M 1259 4147 
L 1259 2741 
L 2194 2741 
Q 2656 2741 2882 2914 
Q 3109 3088 3109 3444 
Q 3109 3797 2882 3972 
Q 2656 4147 2194 4147 
L 1259 4147 
z
M 628 4666 
L 2241 4666 
Q 2963 4666 3353 4366 
Q 3744 4066 3744 3513 
Q 3744 3084 3544 2831 
Q 3344 2578 2956 2516 
Q 3422 2416 3680 2098 
Q 3938 1781 3938 1306 
Q 3938 681 3513 340 
Q 3088 0 2303 0 
L 628 0 
L 628 4666 
z
" transform="scale(0.015625)"/>
       <path id="DejaVuSans-79" d="M 2059 -325 
Q 1816 -950 1584 -1140 
Q 1353 -1331 966 -1331 
L 506 -1331 
L 506 -850 
L 844 -850 
Q 1081 -850 1212 -737 
Q 1344 -625 1503 -206 
L 1606 56 
L 191 3500 
L 800 3500 
L 1894 763 
L 2988 3500 
L 3597 3500 
L 2059 -325 
z
" transform="scale(0.015625)"/>
      </defs>
      <use xlink:href="#DejaVuSans-42"/>
      <use xlink:href="#DejaVuSans-61" x="68.603516"/>
      <use xlink:href="#DejaVuSans-79" x="129.882812"/>
      <use xlink:href="#DejaVuSans-65" x="189.0625"/>
      <use xlink:href="#DejaVuSans-73" x="250.585938"/>
      <use xlink:href="#DejaVuSans-69" x="302.685547"/>
      <use xlink:href="#DejaVuSans-61" x="330.46875"/>
      <use xlink:href="#DejaVuSans-6e" x="391.748047"/>
      <use xlink:href="#DejaVuSans-52" x="455.126953"/>
      <use xlink:href="#DejaVuSans-69" x="524.609375"/>
      <use xlink:href="#DejaVuSans-64" x="552.392578"/>
      <use xlink:href="#DejaVuSans-67" x="615.869141"/>
      <use xlink:href="#DejaVuSans-65" x="679.345703"/>
     </g>
    </g>
    <g id="line2d_41">
     <path d="M 100.82 302.1095 
L 116.82 302.1095 
L 132.82 302.1095 
" style="fill: none; stroke: #8ba731; stroke-width: 1.5; stroke-linecap: square"/>
    </g>
    <g id="text_21">
     <!-- rf -->
     <g transform="translate(145.62 307.7095) scale(0.16 -0.16)">
      <defs>
       <path id="DejaVuSans-66" d="M 2375 4863 
L 2375 4384 
L 1825 4384 
Q 1516 4384 1395 4259 
Q 1275 4134 1275 3809 
L 1275 3500 
L 2222 3500 
L 2222 3053 
L 1275 3053 
L 1275 0 
L 697 0 
L 697 3053 
L 147 3053 
L 147 3500 
L 697 3500 
L 697 3744 
Q 697 4328 969 4595 
Q 1241 4863 1831 4863 
L 2375 4863 
z
" transform="scale(0.015625)"/>
      </defs>
      <use xlink:href="#DejaVuSans-72"/>
      <use xlink:href="#DejaVuSans-66" x="41.113281"/>
     </g>
    </g>
    <g id="line2d_42">
     <path d="M 100.82 325.5945 
L 116.82 325.5945 
L 132.82 325.5945 
" style="fill: none; stroke: #32b258; stroke-width: 1.5; stroke-linecap: square"/>
    </g>
    <g id="text_22">
     <!-- lgbm -->
     <g transform="translate(145.62 331.1945) scale(0.16 -0.16)">
      <defs>
       <path id="DejaVuSans-6d" d="M 3328 2828 
Q 3544 3216 3844 3400 
Q 4144 3584 4550 3584 
Q 5097 3584 5394 3201 
Q 5691 2819 5691 2113 
L 5691 0 
L 5113 0 
L 5113 2094 
Q 5113 2597 4934 2840 
Q 4756 3084 4391 3084 
Q 3944 3084 3684 2787 
Q 3425 2491 3425 1978 
L 3425 0 
L 2847 0 
L 2847 2094 
Q 2847 2600 2669 2842 
Q 2491 3084 2119 3084 
Q 1678 3084 1418 2786 
Q 1159 2488 1159 1978 
L 1159 0 
L 581 0 
L 581 3500 
L 1159 3500 
L 1159 2956 
Q 1356 3278 1631 3431 
Q 1906 3584 2284 3584 
Q 2666 3584 2933 3390 
Q 3200 3197 3328 2828 
z
" transform="scale(0.015625)"/>
      </defs>
      <use xlink:href="#DejaVuSans-6c"/>
      <use xlink:href="#DejaVuSans-67" x="27.783203"/>
      <use xlink:href="#DejaVuSans-62" x="91.259766"/>
      <use xlink:href="#DejaVuSans-6d" x="154.736328"/>
     </g>
    </g>
    <g id="line2d_43">
     <path d="M 100.82 349.0795 
L 116.82 349.0795 
L 132.82 349.0795 
" style="fill: none; stroke: #35ae95; stroke-width: 1.5; stroke-linecap: square"/>
    </g>
    <g id="text_23">
     <!-- dt -->
     <g transform="translate(145.62 354.6795) scale(0.16 -0.16)">
      <use xlink:href="#DejaVuSans-64"/>
      <use xlink:href="#DejaVuSans-74" x="63.476562"/>
     </g>
    </g>
    <g id="line2d_44">
     <path d="M 100.82 372.5645 
L 116.82 372.5645 
L 132.82 372.5645 
" style="fill: none; stroke: #37abb2; stroke-width: 1.5; stroke-linecap: square"/>
    </g>
    <g id="text_24">
     <!-- et -->
     <g transform="translate(145.62 378.1645) scale(0.16 -0.16)">
      <use xlink:href="#DejaVuSans-65"/>
      <use xlink:href="#DejaVuSans-74" x="61.523438"/>
     </g>
    </g>
    <g id="line2d_45">
     <path d="M 100.82 396.0495 
L 116.82 396.0495 
L 132.82 396.0495 
" style="fill: none; stroke: #39a7d6; stroke-width: 1.5; stroke-linecap: square"/>
    </g>
    <g id="text_25">
     <!-- HubR -->
     <g transform="translate(145.62 401.6495) scale(0.16 -0.16)">
      <use xlink:href="#DejaVuSans-48"/>
      <use xlink:href="#DejaVuSans-75" x="75.195312"/>
      <use xlink:href="#DejaVuSans-62" x="138.574219"/>
      <use xlink:href="#DejaVuSans-52" x="202.050781"/>
     </g>
    </g>
    <g id="line2d_46">
     <path d="M 100.82 419.5345 
L 116.82 419.5345 
L 132.82 419.5345 
" style="fill: none; stroke: #8f93f4; stroke-width: 1.5; stroke-linecap: square"/>
    </g>
    <g id="text_26">
     <!-- Adaboost -->
     <g transform="translate(145.62 425.1345) scale(0.16 -0.16)">
      <defs>
       <path id="DejaVuSans-41" d="M 2188 4044 
L 1331 1722 
L 3047 1722 
L 2188 4044 
z
M 1831 4666 
L 2547 4666 
L 4325 0 
L 3669 0 
L 3244 1197 
L 1141 1197 
L 716 0 
L 50 0 
L 1831 4666 
z
" transform="scale(0.015625)"/>
      </defs>
      <use xlink:href="#DejaVuSans-41"/>
      <use xlink:href="#DejaVuSans-64" x="66.658203"/>
      <use xlink:href="#DejaVuSans-61" x="130.134766"/>
      <use xlink:href="#DejaVuSans-62" x="191.414062"/>
      <use xlink:href="#DejaVuSans-6f" x="254.890625"/>
      <use xlink:href="#DejaVuSans-6f" x="316.072266"/>
      <use xlink:href="#DejaVuSans-73" x="377.253906"/>
      <use xlink:href="#DejaVuSans-74" x="429.353516"/>
     </g>
    </g>
    <g id="line2d_47">
     <path d="M 100.82 443.0195 
L 116.82 443.0195 
L 132.82 443.0195 
" style="fill: none; stroke: #db70f4; stroke-width: 1.5; stroke-linecap: square"/>
    </g>
    <g id="text_27">
     <!-- LassoLars -->
     <g transform="translate(145.62 448.6195) scale(0.16 -0.16)">
      <defs>
       <path id="DejaVuSans-4c" d="M 628 4666 
L 1259 4666 
L 1259 531 
L 3531 531 
L 3531 0 
L 628 0 
L 628 4666 
z
" transform="scale(0.015625)"/>
      </defs>
      <use xlink:href="#DejaVuSans-4c"/>
      <use xlink:href="#DejaVuSans-61" x="55.712891"/>
      <use xlink:href="#DejaVuSans-73" x="116.992188"/>
      <use xlink:href="#DejaVuSans-73" x="169.091797"/>
      <use xlink:href="#DejaVuSans-6f" x="221.191406"/>
      <use xlink:href="#DejaVuSans-4c" x="282.373047"/>
      <use xlink:href="#DejaVuSans-61" x="338.085938"/>
      <use xlink:href="#DejaVuSans-72" x="399.365234"/>
      <use xlink:href="#DejaVuSans-73" x="440.478516"/>
     </g>
    </g>
    <g id="line2d_48">
     <path d="M 100.82 466.5045 
L 116.82 466.5045 
L 132.82 466.5045 
" style="fill: none; stroke: #f667c6; stroke-width: 1.5; stroke-linecap: square"/>
    </g>
    <g id="text_28">
     <!-- Lasso -->
     <g transform="translate(145.62 472.1045) scale(0.16 -0.16)">
      <use xlink:href="#DejaVuSans-4c"/>
      <use xlink:href="#DejaVuSans-61" x="55.712891"/>
      <use xlink:href="#DejaVuSans-73" x="116.992188"/>
      <use xlink:href="#DejaVuSans-73" x="169.091797"/>
      <use xlink:href="#DejaVuSans-6f" x="221.191406"/>
     </g>
    </g>
   </g>
  </g>
 </g>
 <defs>
  <clipPath id="p2eeb5db0b4">
   <rect x="86.42" y="10.8" width="1054.78" height="479.032"/>
  </clipPath>
 </defs>
</svg>
