<?xml version="1.0" encoding="UTF-8" standalone="no"?>
<!DOCTYPE svg PUBLIC "-//W3C//DTD SVG 1.1//EN"
 "http://www.w3.org/Graphics/SVG/1.1/DTD/svg11.dtd">
<!-- Generated by graphviz version 10.0.1 (20240210.2158)
 -->
<!-- Pages: 1 -->
<svg width="2356pt" height="425pt"
 viewBox="0.00 0.00 2356.11 424.50" xmlns="http://www.w3.org/2000/svg" xmlns:xlink="http://www.w3.org/1999/xlink">
<g id="graph0" class="graph" transform="scale(1 1) rotate(0) translate(4 420.5)">
<polygon fill="white" stroke="none" points="-4,4 -4,-420.5 2352.11,-420.5 2352.11,4 -4,4"/>
<!-- 0 -->
<g id="node1" class="node">
<title>0</title>
<path fill="#fdf4d9" stroke="#fbe9b1" stroke-width="2" d="M1085.06,-416.5C1085.06,-416.5 997.06,-416.5 997.06,-416.5 991.06,-416.5 985.06,-410.5 985.06,-404.5 985.06,-404.5 985.06,-392.5 985.06,-392.5 985.06,-386.5 991.06,-380.5 997.06,-380.5 997.06,-380.5 1085.06,-380.5 1085.06,-380.5 1091.06,-380.5 1097.06,-386.5 1097.06,-392.5 1097.06,-392.5 1097.06,-404.5 1097.06,-404.5 1097.06,-410.5 1091.06,-416.5 1085.06,-416.5"/>
<text text-anchor="middle" x="1041.06" y="-395.38" font-family="Century Gothic" font-size="10.00">p13_PKB&lt;9.68999958</text>
</g>
<!-- 1 -->
<g id="node2" class="node">
<title>1</title>
<path fill="#fdf4d9" stroke="#fbe9b1" stroke-width="2" d="M829.31,-328C829.31,-328 736.81,-328 736.81,-328 730.81,-328 724.81,-322 724.81,-316 724.81,-316 724.81,-304 724.81,-304 724.81,-298 730.81,-292 736.81,-292 736.81,-292 829.31,-292 829.31,-292 835.31,-292 841.31,-298 841.31,-304 841.31,-304 841.31,-316 841.31,-316 841.31,-322 835.31,-328 829.31,-328"/>
<text text-anchor="middle" x="783.06" y="-306.88" font-family="Century Gothic" font-size="10.00">p137_P1&lt;0.449999988</text>
</g>
<!-- 0&#45;&gt;1 -->
<g id="edge1" class="edge">
<title>0&#45;&gt;1</title>
<path fill="none" stroke="#14bdeb" d="M987.6,-379.58C946.78,-365.89 890.38,-346.98 847.14,-332.48"/>
<polygon fill="#14bdeb" stroke="#14bdeb" points="848.47,-329.24 837.88,-329.38 846.25,-335.88 848.47,-329.24"/>
<text text-anchor="middle" x="947.31" y="-349.2" font-family="Century Gothic" font-size="14.00">yes</text>
</g>
<!-- 2 -->
<g id="node3" class="node">
<title>2</title>
<path fill="#fdf4d9" stroke="#fbe9b1" stroke-width="2" d="M1294.18,-328C1294.18,-328 1251.93,-328 1251.93,-328 1245.93,-328 1239.93,-322 1239.93,-316 1239.93,-316 1239.93,-304 1239.93,-304 1239.93,-298 1245.93,-292 1251.93,-292 1251.93,-292 1294.18,-292 1294.18,-292 1300.18,-292 1306.18,-298 1306.18,-304 1306.18,-304 1306.18,-316 1306.18,-316 1306.18,-322 1300.18,-328 1294.18,-328"/>
<text text-anchor="middle" x="1273.06" y="-306.88" font-family="Century Gothic" font-size="10.00">p100_P1&lt;1</text>
</g>
<!-- 0&#45;&gt;2 -->
<g id="edge2" class="edge">
<title>0&#45;&gt;2</title>
<path fill="none" stroke="#f4562a" d="M1089.13,-379.58C1130.01,-364.33 1188.28,-342.61 1228.21,-327.72"/>
<polygon fill="#f4562a" stroke="#f4562a" points="1229.39,-331.02 1237.54,-324.24 1226.95,-324.46 1229.39,-331.02"/>
<text text-anchor="middle" x="1187.06" y="-349.2" font-family="Century Gothic" font-size="14.00">no</text>
</g>
<!-- 3 -->
<g id="node4" class="node">
<title>3</title>
<path fill="#fdf4d9" stroke="#fbe9b1" stroke-width="2" d="M414.31,-255C414.31,-255 321.81,-255 321.81,-255 315.81,-255 309.81,-249 309.81,-243 309.81,-243 309.81,-231 309.81,-231 309.81,-225 315.81,-219 321.81,-219 321.81,-219 414.31,-219 414.31,-219 420.31,-219 426.31,-225 426.31,-231 426.31,-231 426.31,-243 426.31,-243 426.31,-249 420.31,-255 414.31,-255"/>
<text text-anchor="middle" x="368.06" y="-233.88" font-family="Century Gothic" font-size="10.00">p141_P1&lt;0.620000005</text>
</g>
<!-- 1&#45;&gt;3 -->
<g id="edge3" class="edge">
<title>1&#45;&gt;3</title>
<path fill="none" stroke="#14bdeb" d="M724.04,-298.9C648.7,-286.01 518.52,-263.74 438.2,-250"/>
<polygon fill="#14bdeb" stroke="#14bdeb" points="439.15,-246.61 428.7,-248.37 437.97,-253.51 439.15,-246.61"/>
</g>
<!-- 4 -->
<g id="node5" class="node">
<title>4</title>
<path fill="#fdf4d9" stroke="#fbe9b1" stroke-width="2" d="M829.31,-255C829.31,-255 736.81,-255 736.81,-255 730.81,-255 724.81,-249 724.81,-243 724.81,-243 724.81,-231 724.81,-231 724.81,-225 730.81,-219 736.81,-219 736.81,-219 829.31,-219 829.31,-219 835.31,-219 841.31,-225 841.31,-231 841.31,-231 841.31,-243 841.31,-243 841.31,-249 835.31,-255 829.31,-255"/>
<text text-anchor="middle" x="783.06" y="-233.88" font-family="Century Gothic" font-size="10.00">p225_P1&lt;0.810000002</text>
</g>
<!-- 1&#45;&gt;4 -->
<g id="edge4" class="edge">
<title>1&#45;&gt;4</title>
<path fill="none" stroke="#f4562a" d="M783.06,-291.08C783.06,-283.8 783.06,-275.19 783.06,-267.05"/>
<polygon fill="#f4562a" stroke="#f4562a" points="786.56,-267.18 783.06,-257.18 779.56,-267.18 786.56,-267.18"/>
</g>
<!-- 5 -->
<g id="node24" class="node">
<title>5</title>
<path fill="#fdf4d9" stroke="#fbe9b1" stroke-width="2" d="M1319.31,-255C1319.31,-255 1226.81,-255 1226.81,-255 1220.81,-255 1214.81,-249 1214.81,-243 1214.81,-243 1214.81,-231 1214.81,-231 1214.81,-225 1220.81,-219 1226.81,-219 1226.81,-219 1319.31,-219 1319.31,-219 1325.31,-219 1331.31,-225 1331.31,-231 1331.31,-231 1331.31,-243 1331.31,-243 1331.31,-249 1325.31,-255 1319.31,-255"/>
<text text-anchor="middle" x="1273.06" y="-233.88" font-family="Century Gothic" font-size="10.00">p229_P1&lt;0.419999987</text>
</g>
<!-- 2&#45;&gt;5 -->
<g id="edge23" class="edge">
<title>2&#45;&gt;5</title>
<path fill="none" stroke="#14bdeb" d="M1273.06,-291.08C1273.06,-283.8 1273.06,-275.19 1273.06,-267.05"/>
<polygon fill="#14bdeb" stroke="#14bdeb" points="1276.56,-267.18 1273.06,-257.18 1269.56,-267.18 1276.56,-267.18"/>
</g>
<!-- 6 -->
<g id="node25" class="node">
<title>6</title>
<path fill="#fdf4d9" stroke="#fbe9b1" stroke-width="2" d="M1842.31,-255C1842.31,-255 1785.81,-255 1785.81,-255 1779.81,-255 1773.81,-249 1773.81,-243 1773.81,-243 1773.81,-231 1773.81,-231 1773.81,-225 1779.81,-219 1785.81,-219 1785.81,-219 1842.31,-219 1842.31,-219 1848.31,-219 1854.31,-225 1854.31,-231 1854.31,-231 1854.31,-243 1854.31,-243 1854.31,-249 1848.31,-255 1842.31,-255"/>
<text text-anchor="middle" x="1814.06" y="-233.88" font-family="Century Gothic" font-size="10.00">p221_H3&lt;0.75</text>
</g>
<!-- 2&#45;&gt;6 -->
<g id="edge24" class="edge">
<title>2&#45;&gt;6</title>
<path fill="none" stroke="#f4562a" d="M1306.9,-304.56C1398.5,-292.54 1651.77,-259.3 1761.85,-244.85"/>
<polygon fill="#f4562a" stroke="#f4562a" points="1762.02,-248.36 1771.48,-243.59 1761.11,-241.42 1762.02,-248.36"/>
</g>
<!-- 7 -->
<g id="node6" class="node">
<title>7</title>
<path fill="#fdf4d9" stroke="#fbe9b1" stroke-width="2" d="M235.68,-182C235.68,-182 142.43,-182 142.43,-182 136.43,-182 130.43,-176 130.43,-170 130.43,-170 130.43,-158 130.43,-158 130.43,-152 136.43,-146 142.43,-146 142.43,-146 235.68,-146 235.68,-146 241.68,-146 247.68,-152 247.68,-158 247.68,-158 247.68,-170 247.68,-170 247.68,-176 241.68,-182 235.68,-182"/>
<text text-anchor="middle" x="189.06" y="-160.88" font-family="Century Gothic" font-size="10.00">p145_PKB&lt;9.60000038</text>
</g>
<!-- 3&#45;&gt;7 -->
<g id="edge5" class="edge">
<title>3&#45;&gt;7</title>
<path fill="none" stroke="#14bdeb" d="M322.89,-218.08C299.14,-208.67 269.83,-197.04 244.7,-187.07"/>
<polygon fill="#14bdeb" stroke="#14bdeb" points="246.2,-183.9 235.62,-183.47 243.62,-190.41 246.2,-183.9"/>
</g>
<!-- 8 -->
<g id="node7" class="node">
<title>8</title>
<path fill="#fdf4d9" stroke="#fbe9b1" stroke-width="2" d="M414.31,-182C414.31,-182 321.81,-182 321.81,-182 315.81,-182 309.81,-176 309.81,-170 309.81,-170 309.81,-158 309.81,-158 309.81,-152 315.81,-146 321.81,-146 321.81,-146 414.31,-146 414.31,-146 420.31,-146 426.31,-152 426.31,-158 426.31,-158 426.31,-170 426.31,-170 426.31,-176 420.31,-182 414.31,-182"/>
<text text-anchor="middle" x="368.06" y="-160.88" font-family="Century Gothic" font-size="10.00">p236_P1&lt;0.660000026</text>
</g>
<!-- 3&#45;&gt;8 -->
<g id="edge6" class="edge">
<title>3&#45;&gt;8</title>
<path fill="none" stroke="#f4562a" d="M368.06,-218.08C368.06,-210.8 368.06,-202.19 368.06,-194.05"/>
<polygon fill="#f4562a" stroke="#f4562a" points="371.56,-194.18 368.06,-184.18 364.56,-194.18 371.56,-194.18"/>
</g>
<!-- 9 -->
<g id="node16" class="node">
<title>9</title>
<ellipse fill="#ddfbd2" stroke="#b8f6a2" stroke-width="2" cx="749.06" cy="-164" rx="57.06" ry="18"/>
<text text-anchor="middle" x="749.06" y="-160.88" font-family="Century Gothic" font-size="10.00">leaf=&#45;5.98466444</text>
</g>
<!-- 4&#45;&gt;9 -->
<g id="edge15" class="edge">
<title>4&#45;&gt;9</title>
<path fill="none" stroke="#14bdeb" d="M774.48,-218.08C770.82,-210.46 766.48,-201.38 762.42,-192.91"/>
<polygon fill="#14bdeb" stroke="#14bdeb" points="765.64,-191.54 758.17,-184.03 759.33,-194.56 765.64,-191.54"/>
</g>
<!-- 10 -->
<g id="node17" class="node">
<title>10</title>
<path fill="#fdf4d9" stroke="#fbe9b1" stroke-width="2" d="M929.68,-182C929.68,-182 836.43,-182 836.43,-182 830.43,-182 824.43,-176 824.43,-170 824.43,-170 824.43,-158 824.43,-158 824.43,-152 830.43,-146 836.43,-146 836.43,-146 929.68,-146 929.68,-146 935.68,-146 941.68,-152 941.68,-158 941.68,-158 941.68,-170 941.68,-170 941.68,-176 935.68,-182 929.68,-182"/>
<text text-anchor="middle" x="883.06" y="-160.88" font-family="Century Gothic" font-size="10.00">p233_PKB&lt;9.68999958</text>
</g>
<!-- 4&#45;&gt;10 -->
<g id="edge16" class="edge">
<title>4&#45;&gt;10</title>
<path fill="none" stroke="#f4562a" d="M808.29,-218.08C820.49,-209.42 835.32,-198.89 848.54,-189.5"/>
<polygon fill="#f4562a" stroke="#f4562a" points="850.47,-192.43 856.6,-183.79 846.42,-186.72 850.47,-192.43"/>
</g>
<!-- 15 -->
<g id="node8" class="node">
<title>15</title>
<ellipse fill="#ddfbd2" stroke="#b8f6a2" stroke-width="2" cx="57.06" cy="-91" rx="57.06" ry="18"/>
<text text-anchor="middle" x="57.06" y="-87.88" font-family="Century Gothic" font-size="10.00">leaf=&#45;5.93765402</text>
</g>
<!-- 7&#45;&gt;15 -->
<g id="edge7" class="edge">
<title>7&#45;&gt;15</title>
<path fill="none" stroke="#14bdeb" d="M155.75,-145.08C137.36,-135.19 114.45,-122.87 95.33,-112.59"/>
<polygon fill="#14bdeb" stroke="#14bdeb" points="97.23,-109.64 86.77,-107.98 93.92,-115.8 97.23,-109.64"/>
</g>
<!-- 16 -->
<g id="node9" class="node">
<title>16</title>
<ellipse fill="#ddfbd2" stroke="#b8f6a2" stroke-width="2" cx="189.06" cy="-91" rx="57.06" ry="18"/>
<text text-anchor="middle" x="189.06" y="-87.88" font-family="Century Gothic" font-size="10.00">leaf=&#45;2.63286138</text>
</g>
<!-- 7&#45;&gt;16 -->
<g id="edge8" class="edge">
<title>7&#45;&gt;16</title>
<path fill="none" stroke="#f4562a" d="M189.06,-145.08C189.06,-137.8 189.06,-129.19 189.06,-121.05"/>
<polygon fill="#f4562a" stroke="#f4562a" points="192.56,-121.18 189.06,-111.18 185.56,-121.18 192.56,-121.18"/>
</g>
<!-- 17 -->
<g id="node10" class="node">
<title>17</title>
<path fill="#fdf4d9" stroke="#fbe9b1" stroke-width="2" d="M368.31,-109C368.31,-109 275.81,-109 275.81,-109 269.81,-109 263.81,-103 263.81,-97 263.81,-97 263.81,-85 263.81,-85 263.81,-79 269.81,-73 275.81,-73 275.81,-73 368.31,-73 368.31,-73 374.31,-73 380.31,-79 380.31,-85 380.31,-85 380.31,-97 380.31,-97 380.31,-103 374.31,-109 368.31,-109"/>
<text text-anchor="middle" x="322.06" y="-87.88" font-family="Century Gothic" font-size="10.00">p179_P1&lt;0.949999988</text>
</g>
<!-- 8&#45;&gt;17 -->
<g id="edge9" class="edge">
<title>8&#45;&gt;17</title>
<path fill="none" stroke="#14bdeb" d="M356.45,-145.08C351.34,-137.2 345.24,-127.78 339.59,-119.07"/>
<polygon fill="#14bdeb" stroke="#14bdeb" points="342.7,-117.42 334.32,-110.93 336.82,-121.23 342.7,-117.42"/>
</g>
<!-- 18 -->
<g id="node11" class="node">
<title>18</title>
<path fill="#fdf4d9" stroke="#fbe9b1" stroke-width="2" d="M499.06,-109C499.06,-109 411.06,-109 411.06,-109 405.06,-109 399.06,-103 399.06,-97 399.06,-97 399.06,-85 399.06,-85 399.06,-79 405.06,-73 411.06,-73 411.06,-73 499.06,-73 499.06,-73 505.06,-73 511.06,-79 511.06,-85 511.06,-85 511.06,-97 511.06,-97 511.06,-103 505.06,-109 499.06,-109"/>
<text text-anchor="middle" x="455.06" y="-87.88" font-family="Century Gothic" font-size="10.00">p49_PKB&lt;10.6000004</text>
</g>
<!-- 8&#45;&gt;18 -->
<g id="edge10" class="edge">
<title>8&#45;&gt;18</title>
<path fill="none" stroke="#f4562a" d="M390.01,-145.08C400.42,-136.59 413.02,-126.3 424.36,-117.05"/>
<polygon fill="#f4562a" stroke="#f4562a" points="426.4,-119.9 431.94,-110.87 421.98,-114.48 426.4,-119.9"/>
</g>
<!-- 29 -->
<g id="node12" class="node">
<title>29</title>
<ellipse fill="#ddfbd2" stroke="#b8f6a2" stroke-width="2" cx="190.06" cy="-18" rx="55.22" ry="18"/>
<text text-anchor="middle" x="190.06" y="-14.88" font-family="Century Gothic" font-size="10.00">leaf=1.20036829</text>
</g>
<!-- 17&#45;&gt;29 -->
<g id="edge11" class="edge">
<title>17&#45;&gt;29</title>
<path fill="none" stroke="#14bdeb" d="M288.75,-72.08C270.36,-62.19 247.45,-49.87 228.33,-39.59"/>
<polygon fill="#14bdeb" stroke="#14bdeb" points="230.23,-36.64 219.77,-34.98 226.92,-42.8 230.23,-36.64"/>
</g>
<!-- 30 -->
<g id="node13" class="node">
<title>30</title>
<ellipse fill="#ddfbd2" stroke="#b8f6a2" stroke-width="2" cx="320.06" cy="-18" rx="57.06" ry="18"/>
<text text-anchor="middle" x="320.06" y="-14.88" font-family="Century Gothic" font-size="10.00">leaf=&#45;1.94696903</text>
</g>
<!-- 17&#45;&gt;30 -->
<g id="edge12" class="edge">
<title>17&#45;&gt;30</title>
<path fill="none" stroke="#f4562a" d="M321.55,-72.08C321.35,-64.8 321.1,-56.19 320.87,-48.05"/>
<polygon fill="#f4562a" stroke="#f4562a" points="324.38,-48.08 320.6,-38.18 317.38,-48.27 324.38,-48.08"/>
</g>
<!-- 31 -->
<g id="node14" class="node">
<title>31</title>
<ellipse fill="#ddfbd2" stroke="#b8f6a2" stroke-width="2" cx="455.06" cy="-18" rx="60.27" ry="18"/>
<text text-anchor="middle" x="455.06" y="-14.88" font-family="Century Gothic" font-size="10.00">leaf=&#45;0.790633023</text>
</g>
<!-- 18&#45;&gt;31 -->
<g id="edge13" class="edge">
<title>18&#45;&gt;31</title>
<path fill="none" stroke="#14bdeb" d="M455.06,-72.08C455.06,-64.8 455.06,-56.19 455.06,-48.05"/>
<polygon fill="#14bdeb" stroke="#14bdeb" points="458.56,-48.18 455.06,-38.18 451.56,-48.18 458.56,-48.18"/>
</g>
<!-- 32 -->
<g id="node15" class="node">
<title>32</title>
<ellipse fill="#ddfbd2" stroke="#b8f6a2" stroke-width="2" cx="588.06" cy="-18" rx="55.22" ry="18"/>
<text text-anchor="middle" x="588.06" y="-14.88" font-family="Century Gothic" font-size="10.00">leaf=2.15439081</text>
</g>
<!-- 18&#45;&gt;32 -->
<g id="edge14" class="edge">
<title>18&#45;&gt;32</title>
<path fill="none" stroke="#f4562a" d="M488.62,-72.08C507.14,-62.19 530.23,-49.87 549.5,-39.59"/>
<polygon fill="#f4562a" stroke="#f4562a" points="550.95,-42.77 558.13,-34.98 547.66,-36.6 550.95,-42.77"/>
</g>
<!-- 19 -->
<g id="node18" class="node">
<title>19</title>
<path fill="#fdf4d9" stroke="#fbe9b1" stroke-width="2" d="M890.68,-109C890.68,-109 797.43,-109 797.43,-109 791.43,-109 785.43,-103 785.43,-97 785.43,-97 785.43,-85 785.43,-85 785.43,-79 791.43,-73 797.43,-73 797.43,-73 890.68,-73 890.68,-73 896.68,-73 902.68,-79 902.68,-85 902.68,-85 902.68,-97 902.68,-97 902.68,-103 896.68,-109 890.68,-109"/>
<text text-anchor="middle" x="844.06" y="-87.88" font-family="Century Gothic" font-size="10.00">p264_PKB&lt;9.17000008</text>
</g>
<!-- 10&#45;&gt;19 -->
<g id="edge17" class="edge">
<title>10&#45;&gt;19</title>
<path fill="none" stroke="#14bdeb" d="M873.21,-145.08C868.98,-137.37 863.93,-128.18 859.23,-119.63"/>
<polygon fill="#14bdeb" stroke="#14bdeb" points="862.37,-118.07 854.49,-110.99 856.23,-121.44 862.37,-118.07"/>
</g>
<!-- 20 -->
<g id="node19" class="node">
<title>20</title>
<path fill="#fdf4d9" stroke="#fbe9b1" stroke-width="2" d="M1025.31,-109C1025.31,-109 932.81,-109 932.81,-109 926.81,-109 920.81,-103 920.81,-97 920.81,-97 920.81,-85 920.81,-85 920.81,-79 926.81,-73 932.81,-73 932.81,-73 1025.31,-73 1025.31,-73 1031.31,-73 1037.31,-79 1037.31,-85 1037.31,-85 1037.31,-97 1037.31,-97 1037.31,-103 1031.31,-109 1025.31,-109"/>
<text text-anchor="middle" x="979.06" y="-87.88" font-family="Century Gothic" font-size="10.00">p101_P1&lt;0.409999996</text>
</g>
<!-- 10&#45;&gt;20 -->
<g id="edge18" class="edge">
<title>10&#45;&gt;20</title>
<path fill="none" stroke="#f4562a" d="M907.28,-145.08C918.99,-136.42 933.23,-125.89 945.92,-116.5"/>
<polygon fill="#f4562a" stroke="#f4562a" points="947.66,-119.57 953.62,-110.81 943.5,-113.94 947.66,-119.57"/>
</g>
<!-- 33 -->
<g id="node20" class="node">
<title>33</title>
<ellipse fill="#ddfbd2" stroke="#b8f6a2" stroke-width="2" cx="718.06" cy="-18" rx="57.06" ry="18"/>
<text text-anchor="middle" x="718.06" y="-14.88" font-family="Century Gothic" font-size="10.00">leaf=&#45;1.83277798</text>
</g>
<!-- 19&#45;&gt;33 -->
<g id="edge19" class="edge">
<title>19&#45;&gt;33</title>
<path fill="none" stroke="#14bdeb" d="M812.26,-72.08C795,-62.35 773.55,-50.27 755.48,-40.09"/>
<polygon fill="#14bdeb" stroke="#14bdeb" points="757.31,-37.1 746.88,-35.24 753.87,-43.2 757.31,-37.1"/>
</g>
<!-- 34 -->
<g id="node21" class="node">
<title>34</title>
<ellipse fill="#ddfbd2" stroke="#b8f6a2" stroke-width="2" cx="850.06" cy="-18" rx="57.06" ry="18"/>
<text text-anchor="middle" x="850.06" y="-14.88" font-family="Century Gothic" font-size="10.00">leaf=&#45;3.35315371</text>
</g>
<!-- 19&#45;&gt;34 -->
<g id="edge20" class="edge">
<title>19&#45;&gt;34</title>
<path fill="none" stroke="#f4562a" d="M845.57,-72.08C846.19,-64.8 846.91,-56.19 847.6,-48.05"/>
<polygon fill="#f4562a" stroke="#f4562a" points="851.08,-48.43 848.44,-38.17 844.11,-47.84 851.08,-48.43"/>
</g>
<!-- 35 -->
<g id="node22" class="node">
<title>35</title>
<ellipse fill="#ddfbd2" stroke="#b8f6a2" stroke-width="2" cx="979.06" cy="-18" rx="53.84" ry="18"/>
<text text-anchor="middle" x="979.06" y="-14.88" font-family="Century Gothic" font-size="10.00">leaf=&#45;1.3205384</text>
</g>
<!-- 20&#45;&gt;35 -->
<g id="edge21" class="edge">
<title>20&#45;&gt;35</title>
<path fill="none" stroke="#14bdeb" d="M979.06,-72.08C979.06,-64.8 979.06,-56.19 979.06,-48.05"/>
<polygon fill="#14bdeb" stroke="#14bdeb" points="982.56,-48.18 979.06,-38.18 975.56,-48.18 982.56,-48.18"/>
</g>
<!-- 36 -->
<g id="node23" class="node">
<title>36</title>
<ellipse fill="#ddfbd2" stroke="#b8f6a2" stroke-width="2" cx="1109.06" cy="-18" rx="58.43" ry="18"/>
<text text-anchor="middle" x="1109.06" y="-14.88" font-family="Century Gothic" font-size="10.00">leaf=0.474598497</text>
</g>
<!-- 20&#45;&gt;36 -->
<g id="edge22" class="edge">
<title>20&#45;&gt;36</title>
<path fill="none" stroke="#f4562a" d="M1011.86,-72.08C1029.76,-62.31 1052.01,-50.16 1070.71,-39.94"/>
<polygon fill="#f4562a" stroke="#f4562a" points="1072.25,-43.09 1079.35,-35.22 1068.9,-36.95 1072.25,-43.09"/>
</g>
<!-- 11 -->
<g id="node26" class="node">
<title>11</title>
<path fill="#fdf4d9" stroke="#fbe9b1" stroke-width="2" d="M1281.31,-182C1281.31,-182 1188.81,-182 1188.81,-182 1182.81,-182 1176.81,-176 1176.81,-170 1176.81,-170 1176.81,-158 1176.81,-158 1176.81,-152 1182.81,-146 1188.81,-146 1188.81,-146 1281.31,-146 1281.31,-146 1287.31,-146 1293.31,-152 1293.31,-158 1293.31,-158 1293.31,-170 1293.31,-170 1293.31,-176 1287.31,-182 1281.31,-182"/>
<text text-anchor="middle" x="1235.06" y="-160.88" font-family="Century Gothic" font-size="10.00">p214_P1&lt;0.439999998</text>
</g>
<!-- 5&#45;&gt;11 -->
<g id="edge25" class="edge">
<title>5&#45;&gt;11</title>
<path fill="none" stroke="#14bdeb" d="M1263.47,-218.08C1259.34,-210.37 1254.42,-201.18 1249.85,-192.63"/>
<polygon fill="#14bdeb" stroke="#14bdeb" points="1253.03,-191.16 1245.22,-184 1246.86,-194.47 1253.03,-191.16"/>
</g>
<!-- 12 -->
<g id="node27" class="node">
<title>12</title>
<path fill="#fdf4d9" stroke="#fbe9b1" stroke-width="2" d="M1416.31,-182C1416.31,-182 1323.81,-182 1323.81,-182 1317.81,-182 1311.81,-176 1311.81,-170 1311.81,-170 1311.81,-158 1311.81,-158 1311.81,-152 1317.81,-146 1323.81,-146 1323.81,-146 1416.31,-146 1416.31,-146 1422.31,-146 1428.31,-152 1428.31,-158 1428.31,-158 1428.31,-170 1428.31,-170 1428.31,-176 1422.31,-182 1416.31,-182"/>
<text text-anchor="middle" x="1370.06" y="-160.88" font-family="Century Gothic" font-size="10.00">p100_P1&lt;0.689999998</text>
</g>
<!-- 5&#45;&gt;12 -->
<g id="edge26" class="edge">
<title>5&#45;&gt;12</title>
<path fill="none" stroke="#f4562a" d="M1297.53,-218.08C1309.37,-209.42 1323.75,-198.89 1336.58,-189.5"/>
<polygon fill="#f4562a" stroke="#f4562a" points="1338.36,-192.54 1344.37,-183.8 1334.23,-186.89 1338.36,-192.54"/>
</g>
<!-- 13 -->
<g id="node34" class="node">
<title>13</title>
<path fill="#fdf4d9" stroke="#fbe9b1" stroke-width="2" d="M1860.31,-182C1860.31,-182 1767.81,-182 1767.81,-182 1761.81,-182 1755.81,-176 1755.81,-170 1755.81,-170 1755.81,-158 1755.81,-158 1755.81,-152 1761.81,-146 1767.81,-146 1767.81,-146 1860.31,-146 1860.31,-146 1866.31,-146 1872.31,-152 1872.31,-158 1872.31,-158 1872.31,-170 1872.31,-170 1872.31,-176 1866.31,-182 1860.31,-182"/>
<text text-anchor="middle" x="1814.06" y="-160.88" font-family="Century Gothic" font-size="10.00">p108_P1&lt;0.400000006</text>
</g>
<!-- 6&#45;&gt;13 -->
<g id="edge33" class="edge">
<title>6&#45;&gt;13</title>
<path fill="none" stroke="#14bdeb" d="M1814.06,-218.08C1814.06,-210.8 1814.06,-202.19 1814.06,-194.05"/>
<polygon fill="#14bdeb" stroke="#14bdeb" points="1817.56,-194.18 1814.06,-184.18 1810.56,-194.18 1817.56,-194.18"/>
</g>
<!-- 14 -->
<g id="node35" class="node">
<title>14</title>
<path fill="#fdf4d9" stroke="#fbe9b1" stroke-width="2" d="M2199.43,-182C2199.43,-182 2116.68,-182 2116.68,-182 2110.68,-182 2104.68,-176 2104.68,-170 2104.68,-170 2104.68,-158 2104.68,-158 2104.68,-152 2110.68,-146 2116.68,-146 2116.68,-146 2199.43,-146 2199.43,-146 2205.43,-146 2211.43,-152 2211.43,-158 2211.43,-158 2211.43,-170 2211.43,-170 2211.43,-176 2205.43,-182 2199.43,-182"/>
<text text-anchor="middle" x="2158.06" y="-160.88" font-family="Century Gothic" font-size="10.00">p1_PKB&lt;9.60000038</text>
</g>
<!-- 6&#45;&gt;14 -->
<g id="edge34" class="edge">
<title>6&#45;&gt;14</title>
<path fill="none" stroke="#f4562a" d="M1855.21,-227.51C1914.12,-215.35 2023.07,-192.86 2092.98,-178.43"/>
<polygon fill="#f4562a" stroke="#f4562a" points="2093.28,-181.94 2102.37,-176.49 2091.86,-175.09 2093.28,-181.94"/>
</g>
<!-- 21 -->
<g id="node28" class="node">
<title>21</title>
<ellipse fill="#ddfbd2" stroke="#b8f6a2" stroke-width="2" cx="1110.06" cy="-91" rx="55.22" ry="18"/>
<text text-anchor="middle" x="1110.06" y="-87.88" font-family="Century Gothic" font-size="10.00">leaf=1.52946174</text>
</g>
<!-- 11&#45;&gt;21 -->
<g id="edge27" class="edge">
<title>11&#45;&gt;21</title>
<path fill="none" stroke="#14bdeb" d="M1203.51,-145.08C1186.38,-135.35 1165.11,-123.27 1147.18,-113.09"/>
<polygon fill="#14bdeb" stroke="#14bdeb" points="1149.08,-110.14 1138.66,-108.25 1145.63,-116.23 1149.08,-110.14"/>
</g>
<!-- 22 -->
<g id="node29" class="node">
<title>22</title>
<ellipse fill="#ddfbd2" stroke="#b8f6a2" stroke-width="2" cx="1238.06" cy="-91" rx="55.22" ry="18"/>
<text text-anchor="middle" x="1238.06" y="-87.88" font-family="Century Gothic" font-size="10.00">leaf=6.40330648</text>
</g>
<!-- 11&#45;&gt;22 -->
<g id="edge28" class="edge">
<title>11&#45;&gt;22</title>
<path fill="none" stroke="#f4562a" d="M1235.81,-145.08C1236.12,-137.8 1236.48,-129.19 1236.83,-121.05"/>
<polygon fill="#f4562a" stroke="#f4562a" points="1240.32,-121.32 1237.25,-111.18 1233.33,-121.02 1240.32,-121.32"/>
</g>
<!-- 23 -->
<g id="node30" class="node">
<title>23</title>
<ellipse fill="#ddfbd2" stroke="#b8f6a2" stroke-width="2" cx="1366.06" cy="-91" rx="55.22" ry="18"/>
<text text-anchor="middle" x="1366.06" y="-87.88" font-family="Century Gothic" font-size="10.00">leaf=3.28351784</text>
</g>
<!-- 12&#45;&gt;23 -->
<g id="edge29" class="edge">
<title>12&#45;&gt;23</title>
<path fill="none" stroke="#14bdeb" d="M1369.05,-145.08C1368.64,-137.8 1368.15,-129.19 1367.69,-121.05"/>
<polygon fill="#14bdeb" stroke="#14bdeb" points="1371.19,-120.96 1367.14,-111.18 1364.2,-121.36 1371.19,-120.96"/>
</g>
<!-- 24 -->
<g id="node31" class="node">
<title>24</title>
<path fill="#fdf4d9" stroke="#fbe9b1" stroke-width="2" d="M1534.43,-109C1534.43,-109 1451.68,-109 1451.68,-109 1445.68,-109 1439.68,-103 1439.68,-97 1439.68,-97 1439.68,-85 1439.68,-85 1439.68,-79 1445.68,-73 1451.68,-73 1451.68,-73 1534.43,-73 1534.43,-73 1540.43,-73 1546.43,-79 1546.43,-85 1546.43,-85 1546.43,-97 1546.43,-97 1546.43,-103 1540.43,-109 1534.43,-109"/>
<text text-anchor="middle" x="1493.06" y="-87.88" font-family="Century Gothic" font-size="10.00">p2_PKB&lt;9.67000008</text>
</g>
<!-- 12&#45;&gt;24 -->
<g id="edge30" class="edge">
<title>12&#45;&gt;24</title>
<path fill="none" stroke="#f4562a" d="M1401.09,-145.08C1416.68,-136.09 1435.76,-125.07 1452.49,-115.42"/>
<polygon fill="#f4562a" stroke="#f4562a" points="1453.81,-118.7 1460.72,-110.67 1450.31,-112.64 1453.81,-118.7"/>
</g>
<!-- 37 -->
<g id="node32" class="node">
<title>37</title>
<ellipse fill="#ddfbd2" stroke="#b8f6a2" stroke-width="2" cx="1360.06" cy="-18" rx="60.27" ry="18"/>
<text text-anchor="middle" x="1360.06" y="-14.88" font-family="Century Gothic" font-size="10.00">leaf=&#45;0.130807504</text>
</g>
<!-- 24&#45;&gt;37 -->
<g id="edge31" class="edge">
<title>24&#45;&gt;37</title>
<path fill="none" stroke="#14bdeb" d="M1459.49,-72.08C1441.1,-62.26 1418.21,-50.04 1399.02,-39.8"/>
<polygon fill="#14bdeb" stroke="#14bdeb" points="1400.89,-36.83 1390.42,-35.21 1397.6,-43.01 1400.89,-36.83"/>
</g>
<!-- 38 -->
<g id="node33" class="node">
<title>38</title>
<ellipse fill="#ddfbd2" stroke="#b8f6a2" stroke-width="2" cx="1493.06" cy="-18" rx="55.22" ry="18"/>
<text text-anchor="middle" x="1493.06" y="-14.88" font-family="Century Gothic" font-size="10.00">leaf=1.12946165</text>
</g>
<!-- 24&#45;&gt;38 -->
<g id="edge32" class="edge">
<title>24&#45;&gt;38</title>
<path fill="none" stroke="#f4562a" d="M1493.06,-72.08C1493.06,-64.8 1493.06,-56.19 1493.06,-48.05"/>
<polygon fill="#f4562a" stroke="#f4562a" points="1496.56,-48.18 1493.06,-38.18 1489.56,-48.18 1496.56,-48.18"/>
</g>
<!-- 25 -->
<g id="node36" class="node">
<title>25</title>
<path fill="#fdf4d9" stroke="#fbe9b1" stroke-width="2" d="M1794.43,-109C1794.43,-109 1711.68,-109 1711.68,-109 1705.68,-109 1699.68,-103 1699.68,-97 1699.68,-97 1699.68,-85 1699.68,-85 1699.68,-79 1705.68,-73 1711.68,-73 1711.68,-73 1794.43,-73 1794.43,-73 1800.43,-73 1806.43,-79 1806.43,-85 1806.43,-85 1806.43,-97 1806.43,-97 1806.43,-103 1800.43,-109 1794.43,-109"/>
<text text-anchor="middle" x="1753.06" y="-87.88" font-family="Century Gothic" font-size="10.00">p3_PKB&lt;9.13000011</text>
</g>
<!-- 13&#45;&gt;25 -->
<g id="edge35" class="edge">
<title>13&#45;&gt;25</title>
<path fill="none" stroke="#14bdeb" d="M1798.66,-145.08C1791.68,-136.95 1783.27,-127.17 1775.59,-118.23"/>
<polygon fill="#14bdeb" stroke="#14bdeb" points="1778.39,-116.12 1769.22,-110.81 1773.08,-120.68 1778.39,-116.12"/>
</g>
<!-- 26 -->
<g id="node37" class="node">
<title>26</title>
<path fill="#fdf4d9" stroke="#fbe9b1" stroke-width="2" d="M1909.93,-109C1909.93,-109 1872.18,-109 1872.18,-109 1866.18,-109 1860.18,-103 1860.18,-97 1860.18,-97 1860.18,-85 1860.18,-85 1860.18,-79 1866.18,-73 1872.18,-73 1872.18,-73 1909.93,-73 1909.93,-73 1915.93,-73 1921.93,-79 1921.93,-85 1921.93,-85 1921.93,-97 1921.93,-97 1921.93,-103 1915.93,-109 1909.93,-109"/>
<text text-anchor="middle" x="1891.06" y="-87.88" font-family="Century Gothic" font-size="10.00">p67_H3&lt;1</text>
</g>
<!-- 13&#45;&gt;26 -->
<g id="edge36" class="edge">
<title>13&#45;&gt;26</title>
<path fill="none" stroke="#f4562a" d="M1833.49,-145.08C1842.51,-136.76 1853.41,-126.71 1863.29,-117.6"/>
<polygon fill="#f4562a" stroke="#f4562a" points="1865.54,-120.29 1870.52,-110.94 1860.8,-115.14 1865.54,-120.29"/>
</g>
<!-- 27 -->
<g id="node42" class="node">
<title>27</title>
<path fill="#fdf4d9" stroke="#fbe9b1" stroke-width="2" d="M2199.43,-109C2199.43,-109 2116.68,-109 2116.68,-109 2110.68,-109 2104.68,-103 2104.68,-97 2104.68,-97 2104.68,-85 2104.68,-85 2104.68,-79 2110.68,-73 2116.68,-73 2116.68,-73 2199.43,-73 2199.43,-73 2205.43,-73 2211.43,-79 2211.43,-85 2211.43,-85 2211.43,-97 2211.43,-97 2211.43,-103 2205.43,-109 2199.43,-109"/>
<text text-anchor="middle" x="2158.06" y="-87.88" font-family="Century Gothic" font-size="10.00">p2_PKB&lt;9.10000038</text>
</g>
<!-- 14&#45;&gt;27 -->
<g id="edge41" class="edge">
<title>14&#45;&gt;27</title>
<path fill="none" stroke="#14bdeb" d="M2158.06,-145.08C2158.06,-137.8 2158.06,-129.19 2158.06,-121.05"/>
<polygon fill="#14bdeb" stroke="#14bdeb" points="2161.56,-121.18 2158.06,-111.18 2154.56,-121.18 2161.56,-121.18"/>
</g>
<!-- 28 -->
<g id="node43" class="node">
<title>28</title>
<ellipse fill="#ddfbd2" stroke="#b8f6a2" stroke-width="2" cx="2286.06" cy="-91" rx="57.06" ry="18"/>
<text text-anchor="middle" x="2286.06" y="-87.88" font-family="Century Gothic" font-size="10.00">leaf=&#45;1.52053833</text>
</g>
<!-- 14&#45;&gt;28 -->
<g id="edge42" class="edge">
<title>14&#45;&gt;28</title>
<path fill="none" stroke="#f4562a" d="M2190.36,-145.08C2207.98,-135.31 2229.89,-123.16 2248.3,-112.94"/>
<polygon fill="#f4562a" stroke="#f4562a" points="2249.74,-116.14 2256.79,-108.23 2246.35,-110.02 2249.74,-116.14"/>
</g>
<!-- 39 -->
<g id="node38" class="node">
<title>39</title>
<ellipse fill="#ddfbd2" stroke="#b8f6a2" stroke-width="2" cx="1621.06" cy="-18" rx="55.22" ry="18"/>
<text text-anchor="middle" x="1621.06" y="-14.88" font-family="Century Gothic" font-size="10.00">leaf=2.28856635</text>
</g>
<!-- 25&#45;&gt;39 -->
<g id="edge37" class="edge">
<title>25&#45;&gt;39</title>
<path fill="none" stroke="#14bdeb" d="M1719.75,-72.08C1701.36,-62.19 1678.45,-49.87 1659.33,-39.59"/>
<polygon fill="#14bdeb" stroke="#14bdeb" points="1661.23,-36.64 1650.77,-34.98 1657.92,-42.8 1661.23,-36.64"/>
</g>
<!-- 40 -->
<g id="node39" class="node">
<title>40</title>
<ellipse fill="#ddfbd2" stroke="#b8f6a2" stroke-width="2" cx="1753.06" cy="-18" rx="58.43" ry="18"/>
<text text-anchor="middle" x="1753.06" y="-14.88" font-family="Century Gothic" font-size="10.00">leaf=0.429461688</text>
</g>
<!-- 25&#45;&gt;40 -->
<g id="edge38" class="edge">
<title>25&#45;&gt;40</title>
<path fill="none" stroke="#f4562a" d="M1753.06,-72.08C1753.06,-64.8 1753.06,-56.19 1753.06,-48.05"/>
<polygon fill="#f4562a" stroke="#f4562a" points="1756.56,-48.18 1753.06,-38.18 1749.56,-48.18 1756.56,-48.18"/>
</g>
<!-- 41 -->
<g id="node40" class="node">
<title>41</title>
<ellipse fill="#ddfbd2" stroke="#b8f6a2" stroke-width="2" cx="1891.06" cy="-18" rx="61.65" ry="18"/>
<text text-anchor="middle" x="1891.06" y="-14.88" font-family="Century Gothic" font-size="10.00">leaf=0.0671386719</text>
</g>
<!-- 26&#45;&gt;41 -->
<g id="edge39" class="edge">
<title>26&#45;&gt;41</title>
<path fill="none" stroke="#14bdeb" d="M1891.06,-72.08C1891.06,-64.8 1891.06,-56.19 1891.06,-48.05"/>
<polygon fill="#14bdeb" stroke="#14bdeb" points="1894.56,-48.18 1891.06,-38.18 1887.56,-48.18 1894.56,-48.18"/>
</g>
<!-- 42 -->
<g id="node41" class="node">
<title>42</title>
<ellipse fill="#ddfbd2" stroke="#b8f6a2" stroke-width="2" cx="2026.06" cy="-18" rx="55.22" ry="18"/>
<text text-anchor="middle" x="2026.06" y="-14.88" font-family="Century Gothic" font-size="10.00">leaf=1.06919253</text>
</g>
<!-- 26&#45;&gt;42 -->
<g id="edge40" class="edge">
<title>26&#45;&gt;42</title>
<path fill="none" stroke="#f4562a" d="M1922.71,-73.35C1942.04,-63.19 1966.9,-50.11 1987.4,-39.33"/>
<polygon fill="#f4562a" stroke="#f4562a" points="1988.8,-42.55 1996.02,-34.8 1985.54,-36.35 1988.8,-42.55"/>
</g>
<!-- 43 -->
<g id="node44" class="node">
<title>43</title>
<ellipse fill="#ddfbd2" stroke="#b8f6a2" stroke-width="2" cx="2158.06" cy="-18" rx="58.43" ry="18"/>
<text text-anchor="middle" x="2158.06" y="-14.88" font-family="Century Gothic" font-size="10.00">leaf=0.105948888</text>
</g>
<!-- 27&#45;&gt;43 -->
<g id="edge43" class="edge">
<title>27&#45;&gt;43</title>
<path fill="none" stroke="#14bdeb" d="M2158.06,-72.08C2158.06,-64.8 2158.06,-56.19 2158.06,-48.05"/>
<polygon fill="#14bdeb" stroke="#14bdeb" points="2161.56,-48.18 2158.06,-38.18 2154.56,-48.18 2161.56,-48.18"/>
</g>
<!-- 44 -->
<g id="node45" class="node">
<title>44</title>
<ellipse fill="#ddfbd2" stroke="#b8f6a2" stroke-width="2" cx="2291.06" cy="-18" rx="57.06" ry="18"/>
<text text-anchor="middle" x="2291.06" y="-14.88" font-family="Century Gothic" font-size="10.00">leaf=&#45;0.27053833</text>
</g>
<!-- 27&#45;&gt;44 -->
<g id="edge44" class="edge">
<title>27&#45;&gt;44</title>
<path fill="none" stroke="#f4562a" d="M2191.62,-72.08C2210.14,-62.19 2233.23,-49.87 2252.5,-39.59"/>
<polygon fill="#f4562a" stroke="#f4562a" points="2253.95,-42.77 2261.13,-34.98 2250.66,-36.6 2253.95,-42.77"/>
</g>
</g>
</svg>
