<?xml version="1.0" encoding="UTF-8" standalone="no"?>
<!DOCTYPE svg PUBLIC "-//W3C//DTD SVG 1.1//EN"
 "http://www.w3.org/Graphics/SVG/1.1/DTD/svg11.dtd">
<!-- Generated by graphviz version 10.0.1 (20240210.2158)
 -->
<!-- Pages: 1 -->
<svg width="721pt" height="1286pt"
 viewBox="0.00 0.00 721.14 1286.00" xmlns="http://www.w3.org/2000/svg" xmlns:xlink="http://www.w3.org/1999/xlink">
<g id="graph0" class="graph" transform="scale(1 1) rotate(0) translate(4 1282)">
<polygon fill="white" stroke="none" points="-4,4 -4,-1282 717.14,-1282 717.14,4 -4,4"/>
<!-- 0 -->
<g id="node1" class="node">
<title>0</title>
<path fill="#fdf4d9" stroke="#fbe9b1" stroke-width="2" d="M68.5,-707C68.5,-707 12,-707 12,-707 6,-707 0,-701 0,-695 0,-695 0,-683 0,-683 0,-677 6,-671 12,-671 12,-671 68.5,-671 68.5,-671 74.5,-671 80.5,-677 80.5,-683 80.5,-683 80.5,-695 80.5,-695 80.5,-701 74.5,-707 68.5,-707"/>
<text text-anchor="middle" x="40.25" y="-685.88" font-family="Century Gothic" font-size="10.00">p286_H2&lt;1.00</text>
</g>
<!-- 1 -->
<g id="node2" class="node">
<title>1</title>
<path fill="#fdf4d9" stroke="#fbe9b1" stroke-width="2" d="M216.5,-812C216.5,-812 151,-812 151,-812 145,-812 139,-806 139,-800 139,-800 139,-788 139,-788 139,-782 145,-776 151,-776 151,-776 216.5,-776 216.5,-776 222.5,-776 228.5,-782 228.5,-788 228.5,-788 228.5,-800 228.5,-800 228.5,-806 222.5,-812 216.5,-812"/>
<text text-anchor="middle" x="183.75" y="-790.88" font-family="Century Gothic" font-size="10.00">p319_NCI&lt;&#45;0.38</text>
</g>
<!-- 0&#45;&gt;1 -->
<g id="edge1" class="edge">
<title>0&#45;&gt;1</title>
<path fill="none" stroke="#14bdeb" d="M66.55,-707.77C89.24,-724.61 122.76,-749.49 147.98,-768.2"/>
<polygon fill="#14bdeb" stroke="#14bdeb" points="145.86,-770.99 155.98,-774.13 150.03,-765.36 145.86,-770.99"/>
<text text-anchor="middle" x="109.75" y="-750.2" font-family="Century Gothic" font-size="14.00">yes</text>
</g>
<!-- 2 -->
<g id="node3" class="node">
<title>2</title>
<path fill="#fdf4d9" stroke="#fbe9b1" stroke-width="2" d="M213.5,-572C213.5,-572 154,-572 154,-572 148,-572 142,-566 142,-560 142,-560 142,-548 142,-548 142,-542 148,-536 154,-536 154,-536 213.5,-536 213.5,-536 219.5,-536 225.5,-542 225.5,-548 225.5,-548 225.5,-560 225.5,-560 225.5,-566 219.5,-572 213.5,-572"/>
<text text-anchor="middle" x="183.75" y="-550.88" font-family="Century Gothic" font-size="10.00">p265_H2&lt;&#45;0.72</text>
</g>
<!-- 0&#45;&gt;2 -->
<g id="edge2" class="edge">
<title>0&#45;&gt;2</title>
<path fill="none" stroke="#f4562a" d="M60.92,-670.23C85.42,-646.85 127.42,-606.79 155.13,-580.35"/>
<polygon fill="#f4562a" stroke="#f4562a" points="157.33,-583.09 162.15,-573.66 152.5,-578.03 157.33,-583.09"/>
<text text-anchor="middle" x="109.75" y="-636.2" font-family="Century Gothic" font-size="14.00">no</text>
</g>
<!-- 3 -->
<g id="node4" class="node">
<title>3</title>
<path fill="#fdf4d9" stroke="#fbe9b1" stroke-width="2" d="M340,-1088C340,-1088 280.5,-1088 280.5,-1088 274.5,-1088 268.5,-1082 268.5,-1076 268.5,-1076 268.5,-1064 268.5,-1064 268.5,-1058 274.5,-1052 280.5,-1052 280.5,-1052 340,-1052 340,-1052 346,-1052 352,-1058 352,-1064 352,-1064 352,-1076 352,-1076 352,-1082 346,-1088 340,-1088"/>
<text text-anchor="middle" x="310.25" y="-1066.88" font-family="Century Gothic" font-size="10.00">p104_H2&lt;&#45;0.09</text>
</g>
<!-- 1&#45;&gt;3 -->
<g id="edge3" class="edge">
<title>1&#45;&gt;3</title>
<path fill="none" stroke="#14bdeb" d="M193.31,-812.97C214.68,-860.35 270.52,-984.14 296.1,-1040.86"/>
<polygon fill="#14bdeb" stroke="#14bdeb" points="292.87,-1042.21 300.17,-1049.88 299.25,-1039.33 292.87,-1042.21"/>
</g>
<!-- 4 -->
<g id="node5" class="node">
<title>4</title>
<path fill="#fdf4d9" stroke="#fbe9b1" stroke-width="2" d="M343,-812C343,-812 277.5,-812 277.5,-812 271.5,-812 265.5,-806 265.5,-800 265.5,-800 265.5,-788 265.5,-788 265.5,-782 271.5,-776 277.5,-776 277.5,-776 343,-776 343,-776 349,-776 355,-782 355,-788 355,-788 355,-800 355,-800 355,-806 349,-812 343,-812"/>
<text text-anchor="middle" x="310.25" y="-790.88" font-family="Century Gothic" font-size="10.00">p181_NCI&lt;&#45;0.71</text>
</g>
<!-- 1&#45;&gt;4 -->
<g id="edge4" class="edge">
<title>1&#45;&gt;4</title>
<path fill="none" stroke="#f4562a" d="M229.35,-794C237.03,-794 245.11,-794 253.06,-794"/>
<polygon fill="#f4562a" stroke="#f4562a" points="253.03,-797.5 263.03,-794 253.03,-790.5 253.03,-797.5"/>
</g>
<!-- 5 -->
<g id="node30" class="node">
<title>5</title>
<path fill="#fdf4d9" stroke="#fbe9b1" stroke-width="2" d="M338.5,-572C338.5,-572 282,-572 282,-572 276,-572 270,-566 270,-560 270,-560 270,-548 270,-548 270,-542 276,-536 282,-536 282,-536 338.5,-536 338.5,-536 344.5,-536 350.5,-542 350.5,-548 350.5,-548 350.5,-560 350.5,-560 350.5,-566 344.5,-572 338.5,-572"/>
<text text-anchor="middle" x="310.25" y="-550.88" font-family="Century Gothic" font-size="10.00">p198_H3&lt;0.75</text>
</g>
<!-- 2&#45;&gt;5 -->
<g id="edge29" class="edge">
<title>2&#45;&gt;5</title>
<path fill="none" stroke="#14bdeb" d="M226.21,-554C236.39,-554 247.41,-554 257.99,-554"/>
<polygon fill="#14bdeb" stroke="#14bdeb" points="257.73,-557.5 267.73,-554 257.73,-550.5 257.73,-557.5"/>
</g>
<!-- 6 -->
<g id="node31" class="node">
<title>6</title>
<path fill="#fdf4d9" stroke="#fbe9b1" stroke-width="2" d="M337.38,-325C337.38,-325 283.12,-325 283.12,-325 277.12,-325 271.12,-319 271.12,-313 271.12,-313 271.12,-301 271.12,-301 271.12,-295 277.12,-289 283.12,-289 283.12,-289 337.38,-289 337.38,-289 343.38,-289 349.38,-295 349.38,-301 349.38,-301 349.38,-313 349.38,-313 349.38,-319 343.38,-325 337.38,-325"/>
<text text-anchor="middle" x="310.25" y="-303.88" font-family="Century Gothic" font-size="10.00">p86_H2&lt;&#45;0.66</text>
</g>
<!-- 2&#45;&gt;6 -->
<g id="edge30" class="edge">
<title>2&#45;&gt;6</title>
<path fill="none" stroke="#f4562a" d="M194.31,-535.03C216,-492 269.03,-386.79 294.77,-335.73"/>
<polygon fill="#f4562a" stroke="#f4562a" points="297.77,-337.55 299.14,-327.05 291.52,-334.4 297.77,-337.55"/>
</g>
<!-- 7 -->
<g id="node6" class="node">
<title>7</title>
<path fill="#fdf4d9" stroke="#fbe9b1" stroke-width="2" d="M465,-1224C465,-1224 404.75,-1224 404.75,-1224 398.75,-1224 392.75,-1218 392.75,-1212 392.75,-1212 392.75,-1200 392.75,-1200 392.75,-1194 398.75,-1188 404.75,-1188 404.75,-1188 465,-1188 465,-1188 471,-1188 477,-1194 477,-1200 477,-1200 477,-1212 477,-1212 477,-1218 471,-1224 465,-1224"/>
<text text-anchor="middle" x="434.88" y="-1202.88" font-family="Century Gothic" font-size="10.00">p96_NCI&lt;&#45;0.70</text>
</g>
<!-- 3&#45;&gt;7 -->
<g id="edge5" class="edge">
<title>3&#45;&gt;7</title>
<path fill="none" stroke="#14bdeb" d="M328.3,-1088.91C349.35,-1112.25 385.3,-1152.13 409.32,-1178.77"/>
<polygon fill="#14bdeb" stroke="#14bdeb" points="406.66,-1181.04 415.96,-1186.13 411.86,-1176.36 406.66,-1181.04"/>
</g>
<!-- 8 -->
<g id="node7" class="node">
<title>8</title>
<path fill="#fdf4d9" stroke="#fbe9b1" stroke-width="2" d="M462,-1088C462,-1088 407.75,-1088 407.75,-1088 401.75,-1088 395.75,-1082 395.75,-1076 395.75,-1076 395.75,-1064 395.75,-1064 395.75,-1058 401.75,-1052 407.75,-1052 407.75,-1052 462,-1052 462,-1052 468,-1052 474,-1058 474,-1064 474,-1064 474,-1076 474,-1076 474,-1082 468,-1088 462,-1088"/>
<text text-anchor="middle" x="434.88" y="-1066.88" font-family="Century Gothic" font-size="10.00">p94_H2&lt;&#45;0.06</text>
</g>
<!-- 3&#45;&gt;8 -->
<g id="edge6" class="edge">
<title>3&#45;&gt;8</title>
<path fill="none" stroke="#f4562a" d="M352.77,-1070C362.66,-1070 373.32,-1070 383.57,-1070"/>
<polygon fill="#f4562a" stroke="#f4562a" points="383.37,-1073.5 393.37,-1070 383.37,-1066.5 383.37,-1073.5"/>
</g>
<!-- 9 -->
<g id="node18" class="node">
<title>9</title>
<path fill="#fdf4d9" stroke="#fbe9b1" stroke-width="2" d="M464.62,-846C464.62,-846 405.12,-846 405.12,-846 399.12,-846 393.12,-840 393.12,-834 393.12,-834 393.12,-822 393.12,-822 393.12,-816 399.12,-810 405.12,-810 405.12,-810 464.62,-810 464.62,-810 470.62,-810 476.62,-816 476.62,-822 476.62,-822 476.62,-834 476.62,-834 476.62,-840 470.62,-846 464.62,-846"/>
<text text-anchor="middle" x="434.88" y="-824.88" font-family="Century Gothic" font-size="10.00">p269_H2&lt;&#45;0.06</text>
</g>
<!-- 4&#45;&gt;9 -->
<g id="edge17" class="edge">
<title>4&#45;&gt;9</title>
<path fill="none" stroke="#14bdeb" d="M355.87,-806.37C364.15,-808.67 372.88,-811.09 381.37,-813.44"/>
<polygon fill="#14bdeb" stroke="#14bdeb" points="380.32,-816.78 390.89,-816.08 382.19,-810.04 380.32,-816.78"/>
</g>
<!-- 10 -->
<g id="node19" class="node">
<title>10</title>
<path fill="#fdf4d9" stroke="#fbe9b1" stroke-width="2" d="M465.75,-792C465.75,-792 404,-792 404,-792 398,-792 392,-786 392,-780 392,-780 392,-768 392,-768 392,-762 398,-756 404,-756 404,-756 465.75,-756 465.75,-756 471.75,-756 477.75,-762 477.75,-768 477.75,-768 477.75,-780 477.75,-780 477.75,-786 471.75,-792 465.75,-792"/>
<text text-anchor="middle" x="434.88" y="-770.88" font-family="Century Gothic" font-size="10.00">p214_PKB&lt;9.21</text>
</g>
<!-- 4&#45;&gt;10 -->
<g id="edge18" class="edge">
<title>4&#45;&gt;10</title>
<path fill="none" stroke="#f4562a" d="M355.87,-786.72C363.69,-785.45 371.9,-784.11 379.94,-782.8"/>
<polygon fill="#f4562a" stroke="#f4562a" points="380.33,-786.28 389.64,-781.21 379.21,-779.37 380.33,-786.28"/>
</g>
<!-- 15 -->
<g id="node8" class="node">
<title>15</title>
<ellipse fill="#ddfbd2" stroke="#b8f6a2" stroke-width="2" cx="559.5" cy="-1260" rx="35.03" ry="18"/>
<text text-anchor="middle" x="559.5" y="-1256.88" font-family="Century Gothic" font-size="10.00">+5.17nm</text>
</g>
<!-- 7&#45;&gt;15 -->
<g id="edge7" class="edge">
<title>7&#45;&gt;15</title>
<path fill="none" stroke="#14bdeb" d="M477.73,-1224.43C492,-1230.71 507.83,-1237.69 521.67,-1243.78"/>
<polygon fill="#14bdeb" stroke="#14bdeb" points="519.86,-1246.81 530.42,-1247.63 522.68,-1240.4 519.86,-1246.81"/>
</g>
<!-- 16 -->
<g id="node9" class="node">
<title>16</title>
<path fill="#fdf4d9" stroke="#fbe9b1" stroke-width="2" d="M587.75,-1224C587.75,-1224 531.25,-1224 531.25,-1224 525.25,-1224 519.25,-1218 519.25,-1212 519.25,-1212 519.25,-1200 519.25,-1200 519.25,-1194 525.25,-1188 531.25,-1188 531.25,-1188 587.75,-1188 587.75,-1188 593.75,-1188 599.75,-1194 599.75,-1200 599.75,-1200 599.75,-1212 599.75,-1212 599.75,-1218 593.75,-1224 587.75,-1224"/>
<text text-anchor="middle" x="559.5" y="-1202.88" font-family="Century Gothic" font-size="10.00">p261_H3&lt;0.75</text>
</g>
<!-- 7&#45;&gt;16 -->
<g id="edge8" class="edge">
<title>7&#45;&gt;16</title>
<path fill="none" stroke="#f4562a" d="M477.73,-1206C487.21,-1206 497.37,-1206 507.19,-1206"/>
<polygon fill="#f4562a" stroke="#f4562a" points="506.97,-1209.5 516.97,-1206 506.97,-1202.5 506.97,-1209.5"/>
</g>
<!-- 17 -->
<g id="node12" class="node">
<title>17</title>
<path fill="#fdf4d9" stroke="#fbe9b1" stroke-width="2" d="M590.38,-1116C590.38,-1116 528.62,-1116 528.62,-1116 522.62,-1116 516.62,-1110 516.62,-1104 516.62,-1104 516.62,-1092 516.62,-1092 516.62,-1086 522.62,-1080 528.62,-1080 528.62,-1080 590.38,-1080 590.38,-1080 596.38,-1080 602.38,-1086 602.38,-1092 602.38,-1092 602.38,-1104 602.38,-1104 602.38,-1110 596.38,-1116 590.38,-1116"/>
<text text-anchor="middle" x="559.5" y="-1094.88" font-family="Century Gothic" font-size="10.00">p122_PKB&lt;9.60</text>
</g>
<!-- 8&#45;&gt;17 -->
<g id="edge11" class="edge">
<title>8&#45;&gt;17</title>
<path fill="none" stroke="#14bdeb" d="M474.67,-1078.86C484.16,-1081.02 494.47,-1083.38 504.52,-1085.68"/>
<polygon fill="#14bdeb" stroke="#14bdeb" points="503.69,-1089.08 514.22,-1087.89 505.25,-1082.25 503.69,-1089.08"/>
</g>
<!-- 18 -->
<g id="node13" class="node">
<title>18</title>
<path fill="#fdf4d9" stroke="#fbe9b1" stroke-width="2" d="M587.75,-1062C587.75,-1062 531.25,-1062 531.25,-1062 525.25,-1062 519.25,-1056 519.25,-1050 519.25,-1050 519.25,-1038 519.25,-1038 519.25,-1032 525.25,-1026 531.25,-1026 531.25,-1026 587.75,-1026 587.75,-1026 593.75,-1026 599.75,-1032 599.75,-1038 599.75,-1038 599.75,-1050 599.75,-1050 599.75,-1056 593.75,-1062 587.75,-1062"/>
<text text-anchor="middle" x="559.5" y="-1040.88" font-family="Century Gothic" font-size="10.00">p84_PKB&lt;9.69</text>
</g>
<!-- 8&#45;&gt;18 -->
<g id="edge12" class="edge">
<title>8&#45;&gt;18</title>
<path fill="none" stroke="#f4562a" d="M474.67,-1061.77C484.99,-1059.59 496.28,-1057.19 507.15,-1054.89"/>
<polygon fill="#f4562a" stroke="#f4562a" points="507.73,-1058.34 516.78,-1052.85 506.27,-1051.5 507.73,-1058.34"/>
</g>
<!-- 29 -->
<g id="node10" class="node">
<title>29</title>
<ellipse fill="#ddfbd2" stroke="#b8f6a2" stroke-width="2" cx="677.2" cy="-1260" rx="35.03" ry="18"/>
<text text-anchor="middle" x="677.2" y="-1256.88" font-family="Century Gothic" font-size="10.00">+3.02nm</text>
</g>
<!-- 16&#45;&gt;29 -->
<g id="edge9" class="edge">
<title>16&#45;&gt;29</title>
<path fill="none" stroke="#14bdeb" d="M600.64,-1224.74C613.26,-1230.63 627.12,-1237.1 639.49,-1242.87"/>
<polygon fill="#14bdeb" stroke="#14bdeb" points="638,-1246.03 648.54,-1247.09 640.96,-1239.69 638,-1246.03"/>
</g>
<!-- 30 -->
<g id="node11" class="node">
<title>30</title>
<ellipse fill="#ddfbd2" stroke="#b8f6a2" stroke-width="2" cx="677.2" cy="-1206" rx="35.03" ry="18"/>
<text text-anchor="middle" x="677.2" y="-1202.88" font-family="Century Gothic" font-size="10.00">+4.31nm</text>
</g>
<!-- 16&#45;&gt;30 -->
<g id="edge10" class="edge">
<title>16&#45;&gt;30</title>
<path fill="none" stroke="#f4562a" d="M600.64,-1206C610.21,-1206 620.5,-1206 630.3,-1206"/>
<polygon fill="#f4562a" stroke="#f4562a" points="630.01,-1209.5 640.01,-1206 630.01,-1202.5 630.01,-1209.5"/>
</g>
<!-- 31 -->
<g id="node14" class="node">
<title>31</title>
<ellipse fill="#ddfbd2" stroke="#b8f6a2" stroke-width="2" cx="677.2" cy="-1152" rx="32.73" ry="18"/>
<text text-anchor="middle" x="677.2" y="-1148.88" font-family="Century Gothic" font-size="10.00">&#45;1.43nm</text>
</g>
<!-- 17&#45;&gt;31 -->
<g id="edge13" class="edge">
<title>17&#45;&gt;31</title>
<path fill="none" stroke="#14bdeb" d="M600.97,-1116.89C614,-1122.97 628.33,-1129.66 640.95,-1135.55"/>
<polygon fill="#14bdeb" stroke="#14bdeb" points="639.18,-1138.58 649.72,-1139.64 642.14,-1132.24 639.18,-1138.58"/>
</g>
<!-- 32 -->
<g id="node15" class="node">
<title>32</title>
<ellipse fill="#ddfbd2" stroke="#b8f6a2" stroke-width="2" cx="677.2" cy="-1098" rx="35.03" ry="18"/>
<text text-anchor="middle" x="677.2" y="-1094.88" font-family="Century Gothic" font-size="10.00">+0.02nm</text>
</g>
<!-- 17&#45;&gt;32 -->
<g id="edge14" class="edge">
<title>17&#45;&gt;32</title>
<path fill="none" stroke="#f4562a" d="M603.25,-1098C611.94,-1098 621.11,-1098 629.91,-1098"/>
<polygon fill="#f4562a" stroke="#f4562a" points="629.67,-1101.5 639.67,-1098 629.67,-1094.5 629.67,-1101.5"/>
</g>
<!-- 33 -->
<g id="node16" class="node">
<title>33</title>
<ellipse fill="#ddfbd2" stroke="#b8f6a2" stroke-width="2" cx="677.2" cy="-1044" rx="35.03" ry="18"/>
<text text-anchor="middle" x="677.2" y="-1040.88" font-family="Century Gothic" font-size="10.00">+0.22nm</text>
</g>
<!-- 18&#45;&gt;33 -->
<g id="edge15" class="edge">
<title>18&#45;&gt;33</title>
<path fill="none" stroke="#14bdeb" d="M600.64,-1044C610.21,-1044 620.5,-1044 630.3,-1044"/>
<polygon fill="#14bdeb" stroke="#14bdeb" points="630.01,-1047.5 640.01,-1044 630.01,-1040.5 630.01,-1047.5"/>
</g>
<!-- 34 -->
<g id="node17" class="node">
<title>34</title>
<ellipse fill="#ddfbd2" stroke="#b8f6a2" stroke-width="2" cx="677.2" cy="-990" rx="35.03" ry="18"/>
<text text-anchor="middle" x="677.2" y="-986.88" font-family="Century Gothic" font-size="10.00">+3.79nm</text>
</g>
<!-- 18&#45;&gt;34 -->
<g id="edge16" class="edge">
<title>18&#45;&gt;34</title>
<path fill="none" stroke="#f4562a" d="M600.64,-1025.26C613.26,-1019.37 627.12,-1012.9 639.49,-1007.13"/>
<polygon fill="#f4562a" stroke="#f4562a" points="640.96,-1010.31 648.54,-1002.91 638,-1003.97 640.96,-1010.31"/>
</g>
<!-- 19 -->
<g id="node20" class="node">
<title>19</title>
<path fill="#fdf4d9" stroke="#fbe9b1" stroke-width="2" d="M587.75,-900C587.75,-900 531.25,-900 531.25,-900 525.25,-900 519.25,-894 519.25,-888 519.25,-888 519.25,-876 519.25,-876 519.25,-870 525.25,-864 531.25,-864 531.25,-864 587.75,-864 587.75,-864 593.75,-864 599.75,-870 599.75,-876 599.75,-876 599.75,-888 599.75,-888 599.75,-894 593.75,-900 587.75,-900"/>
<text text-anchor="middle" x="559.5" y="-878.88" font-family="Century Gothic" font-size="10.00">p261_H3&lt;0.75</text>
</g>
<!-- 9&#45;&gt;19 -->
<g id="edge19" class="edge">
<title>9&#45;&gt;19</title>
<path fill="none" stroke="#14bdeb" d="M477.39,-846.28C487.19,-850.6 497.74,-855.24 507.89,-859.71"/>
<polygon fill="#14bdeb" stroke="#14bdeb" points="506.33,-862.85 516.89,-863.68 509.15,-856.44 506.33,-862.85"/>
</g>
<!-- 20 -->
<g id="node21" class="node">
<title>20</title>
<path fill="#fdf4d9" stroke="#fbe9b1" stroke-width="2" d="M589.25,-846C589.25,-846 529.75,-846 529.75,-846 523.75,-846 517.75,-840 517.75,-834 517.75,-834 517.75,-822 517.75,-822 517.75,-816 523.75,-810 529.75,-810 529.75,-810 589.25,-810 589.25,-810 595.25,-810 601.25,-816 601.25,-822 601.25,-822 601.25,-834 601.25,-834 601.25,-840 595.25,-846 589.25,-846"/>
<text text-anchor="middle" x="559.5" y="-824.88" font-family="Century Gothic" font-size="10.00">p217_H2&lt;&#45;0.06</text>
</g>
<!-- 9&#45;&gt;20 -->
<g id="edge20" class="edge">
<title>9&#45;&gt;20</title>
<path fill="none" stroke="#f4562a" d="M477.39,-828C486.48,-828 496.22,-828 505.68,-828"/>
<polygon fill="#f4562a" stroke="#f4562a" points="505.51,-831.5 515.51,-828 505.51,-824.5 505.51,-831.5"/>
</g>
<!-- 21 -->
<g id="node26" class="node">
<title>21</title>
<ellipse fill="#ddfbd2" stroke="#b8f6a2" stroke-width="2" cx="559.5" cy="-774" rx="35.03" ry="18"/>
<text text-anchor="middle" x="559.5" y="-770.88" font-family="Century Gothic" font-size="10.00">+4.06nm</text>
</g>
<!-- 10&#45;&gt;21 -->
<g id="edge25" class="edge">
<title>10&#45;&gt;21</title>
<path fill="none" stroke="#14bdeb" d="M478.42,-774C489.41,-774 501.28,-774 512.44,-774"/>
<polygon fill="#14bdeb" stroke="#14bdeb" points="512.22,-777.5 522.22,-774 512.22,-770.5 512.22,-777.5"/>
</g>
<!-- 22 -->
<g id="node27" class="node">
<title>22</title>
<path fill="#fdf4d9" stroke="#fbe9b1" stroke-width="2" d="M586.62,-738C586.62,-738 532.38,-738 532.38,-738 526.38,-738 520.38,-732 520.38,-726 520.38,-726 520.38,-714 520.38,-714 520.38,-708 526.38,-702 532.38,-702 532.38,-702 586.62,-702 586.62,-702 592.62,-702 598.62,-708 598.62,-714 598.62,-714 598.62,-726 598.62,-726 598.62,-732 592.62,-738 586.62,-738"/>
<text text-anchor="middle" x="559.5" y="-716.88" font-family="Century Gothic" font-size="10.00">p29_H2&lt;&#45;0.66</text>
</g>
<!-- 10&#45;&gt;22 -->
<g id="edge26" class="edge">
<title>10&#45;&gt;22</title>
<path fill="none" stroke="#f4562a" d="M478.42,-755.26C488.38,-750.88 499.07,-746.17 509.29,-741.67"/>
<polygon fill="#f4562a" stroke="#f4562a" points="510.6,-744.92 518.34,-737.68 507.78,-738.51 510.6,-744.92"/>
</g>
<!-- 35 -->
<g id="node22" class="node">
<title>35</title>
<ellipse fill="#ddfbd2" stroke="#b8f6a2" stroke-width="2" cx="677.2" cy="-936" rx="35.03" ry="18"/>
<text text-anchor="middle" x="677.2" y="-932.88" font-family="Century Gothic" font-size="10.00">+6.73nm</text>
</g>
<!-- 19&#45;&gt;35 -->
<g id="edge21" class="edge">
<title>19&#45;&gt;35</title>
<path fill="none" stroke="#14bdeb" d="M600.64,-900.74C613.26,-906.63 627.12,-913.1 639.49,-918.87"/>
<polygon fill="#14bdeb" stroke="#14bdeb" points="638,-922.03 648.54,-923.09 640.96,-915.69 638,-922.03"/>
</g>
<!-- 36 -->
<g id="node23" class="node">
<title>36</title>
<ellipse fill="#ddfbd2" stroke="#b8f6a2" stroke-width="2" cx="677.2" cy="-882" rx="35.03" ry="18"/>
<text text-anchor="middle" x="677.2" y="-878.88" font-family="Century Gothic" font-size="10.00">+7.65nm</text>
</g>
<!-- 19&#45;&gt;36 -->
<g id="edge22" class="edge">
<title>19&#45;&gt;36</title>
<path fill="none" stroke="#f4562a" d="M600.64,-882C610.21,-882 620.5,-882 630.3,-882"/>
<polygon fill="#f4562a" stroke="#f4562a" points="630.01,-885.5 640.01,-882 630.01,-878.5 630.01,-885.5"/>
</g>
<!-- 37 -->
<g id="node24" class="node">
<title>37</title>
<ellipse fill="#ddfbd2" stroke="#b8f6a2" stroke-width="2" cx="677.2" cy="-828" rx="35.03" ry="18"/>
<text text-anchor="middle" x="677.2" y="-824.88" font-family="Century Gothic" font-size="10.00">+9.51nm</text>
</g>
<!-- 20&#45;&gt;37 -->
<g id="edge23" class="edge">
<title>20&#45;&gt;37</title>
<path fill="none" stroke="#14bdeb" d="M601.94,-828C611.06,-828 620.77,-828 630.06,-828"/>
<polygon fill="#14bdeb" stroke="#14bdeb" points="630.01,-831.5 640.01,-828 630.01,-824.5 630.01,-831.5"/>
</g>
<!-- 38 -->
<g id="node25" class="node">
<title>38</title>
<ellipse fill="#ddfbd2" stroke="#b8f6a2" stroke-width="2" cx="677.2" cy="-774" rx="35.03" ry="18"/>
<text text-anchor="middle" x="677.2" y="-770.88" font-family="Century Gothic" font-size="10.00">+8.52nm</text>
</g>
<!-- 20&#45;&gt;38 -->
<g id="edge24" class="edge">
<title>20&#45;&gt;38</title>
<path fill="none" stroke="#f4562a" d="M600.97,-809.11C613.57,-803.23 627.38,-796.79 639.69,-791.04"/>
<polygon fill="#f4562a" stroke="#f4562a" points="641.1,-794.24 648.68,-786.84 638.14,-787.9 641.1,-794.24"/>
</g>
<!-- 39 -->
<g id="node28" class="node">
<title>39</title>
<ellipse fill="#ddfbd2" stroke="#b8f6a2" stroke-width="2" cx="677.2" cy="-720" rx="35.03" ry="18"/>
<text text-anchor="middle" x="677.2" y="-716.88" font-family="Century Gothic" font-size="10.00">+4.06nm</text>
</g>
<!-- 22&#45;&gt;39 -->
<g id="edge27" class="edge">
<title>22&#45;&gt;39</title>
<path fill="none" stroke="#14bdeb" d="M599.35,-720C609.27,-720 620.03,-720 630.27,-720"/>
<polygon fill="#14bdeb" stroke="#14bdeb" points="630.02,-723.5 640.02,-720 630.02,-716.5 630.02,-723.5"/>
</g>
<!-- 40 -->
<g id="node29" class="node">
<title>40</title>
<ellipse fill="#ddfbd2" stroke="#b8f6a2" stroke-width="2" cx="677.2" cy="-666" rx="35.03" ry="18"/>
<text text-anchor="middle" x="677.2" y="-662.88" font-family="Century Gothic" font-size="10.00">+6.30nm</text>
</g>
<!-- 22&#45;&gt;40 -->
<g id="edge28" class="edge">
<title>22&#45;&gt;40</title>
<path fill="none" stroke="#f4562a" d="M599.35,-701.87C612.37,-695.79 626.85,-689.03 639.69,-683.04"/>
<polygon fill="#f4562a" stroke="#f4562a" points="641.07,-686.26 648.65,-678.86 638.11,-679.91 641.07,-686.26"/>
</g>
<!-- 11 -->
<g id="node32" class="node">
<title>11</title>
<ellipse fill="#ddfbd2" stroke="#b8f6a2" stroke-width="2" cx="434.88" cy="-581" rx="32.73" ry="18"/>
<text text-anchor="middle" x="434.88" y="-577.88" font-family="Century Gothic" font-size="10.00">&#45;4.60nm</text>
</g>
<!-- 5&#45;&gt;11 -->
<g id="edge31" class="edge">
<title>5&#45;&gt;11</title>
<path fill="none" stroke="#14bdeb" d="M351.4,-562.84C364.48,-565.72 379.01,-568.92 392.2,-571.82"/>
<polygon fill="#14bdeb" stroke="#14bdeb" points="391.36,-575.22 401.88,-573.96 392.87,-568.39 391.36,-575.22"/>
</g>
<!-- 12 -->
<g id="node33" class="node">
<title>12</title>
<path fill="#fdf4d9" stroke="#fbe9b1" stroke-width="2" d="M465.75,-545C465.75,-545 404,-545 404,-545 398,-545 392,-539 392,-533 392,-533 392,-521 392,-521 392,-515 398,-509 404,-509 404,-509 465.75,-509 465.75,-509 471.75,-509 477.75,-515 477.75,-521 477.75,-521 477.75,-533 477.75,-533 477.75,-539 471.75,-545 465.75,-545"/>
<text text-anchor="middle" x="434.88" y="-523.88" font-family="Century Gothic" font-size="10.00">p270_PKB&lt;9.11</text>
</g>
<!-- 5&#45;&gt;12 -->
<g id="edge32" class="edge">
<title>5&#45;&gt;12</title>
<path fill="none" stroke="#f4562a" d="M351.4,-545.16C360.54,-543.15 370.39,-540.98 380,-538.86"/>
<polygon fill="#f4562a" stroke="#f4562a" points="380.61,-542.31 389.62,-536.74 379.1,-535.48 380.61,-542.31"/>
</g>
<!-- 13 -->
<g id="node40" class="node">
<title>13</title>
<path fill="#fdf4d9" stroke="#fbe9b1" stroke-width="2" d="M464.62,-325C464.62,-325 405.12,-325 405.12,-325 399.12,-325 393.12,-319 393.12,-313 393.12,-313 393.12,-301 393.12,-301 393.12,-295 399.12,-289 405.12,-289 405.12,-289 464.62,-289 464.62,-289 470.62,-289 476.62,-295 476.62,-301 476.62,-301 476.62,-313 476.62,-313 476.62,-319 470.62,-325 464.62,-325"/>
<text text-anchor="middle" x="434.88" y="-303.88" font-family="Century Gothic" font-size="10.00">p109_H2&lt;&#45;0.09</text>
</g>
<!-- 6&#45;&gt;13 -->
<g id="edge39" class="edge">
<title>6&#45;&gt;13</title>
<path fill="none" stroke="#14bdeb" d="M350.05,-307C359.84,-307 370.51,-307 380.87,-307"/>
<polygon fill="#14bdeb" stroke="#14bdeb" points="380.85,-310.5 390.85,-307 380.85,-303.5 380.85,-310.5"/>
</g>
<!-- 14 -->
<g id="node41" class="node">
<title>14</title>
<path fill="#fdf4d9" stroke="#fbe9b1" stroke-width="2" d="M465,-177C465,-177 404.75,-177 404.75,-177 398.75,-177 392.75,-171 392.75,-165 392.75,-165 392.75,-153 392.75,-153 392.75,-147 398.75,-141 404.75,-141 404.75,-141 465,-141 465,-141 471,-141 477,-147 477,-153 477,-153 477,-165 477,-165 477,-171 471,-177 465,-177"/>
<text text-anchor="middle" x="434.88" y="-155.88" font-family="Century Gothic" font-size="10.00">p93_NCI&lt;&#45;0.70</text>
</g>
<!-- 6&#45;&gt;14 -->
<g id="edge40" class="edge">
<title>6&#45;&gt;14</title>
<path fill="none" stroke="#f4562a" d="M326.78,-288.26C348.16,-262.46 386.78,-215.84 411.34,-186.2"/>
<polygon fill="#f4562a" stroke="#f4562a" points="413.82,-188.69 417.5,-178.76 408.43,-184.22 413.82,-188.69"/>
</g>
<!-- 23 -->
<g id="node34" class="node">
<title>23</title>
<path fill="#fdf4d9" stroke="#fbe9b1" stroke-width="2" d="M584,-576C584,-576 535,-576 535,-576 529,-576 523,-570 523,-564 523,-564 523,-552 523,-552 523,-546 529,-540 535,-540 535,-540 584,-540 584,-540 590,-540 596,-546 596,-552 596,-552 596,-564 596,-564 596,-570 590,-576 584,-576"/>
<text text-anchor="middle" x="559.5" y="-554.88" font-family="Century Gothic" font-size="10.00">p1_H2&lt;&#45;0.09</text>
</g>
<!-- 12&#45;&gt;23 -->
<g id="edge33" class="edge">
<title>12&#45;&gt;23</title>
<path fill="none" stroke="#14bdeb" d="M478.42,-537.76C489,-540.43 500.4,-543.31 511.19,-546.04"/>
<polygon fill="#14bdeb" stroke="#14bdeb" points="510.13,-549.38 520.68,-548.44 511.84,-542.59 510.13,-549.38"/>
</g>
<!-- 24 -->
<g id="node35" class="node">
<title>24</title>
<path fill="#fdf4d9" stroke="#fbe9b1" stroke-width="2" d="M592.25,-522C592.25,-522 526.75,-522 526.75,-522 520.75,-522 514.75,-516 514.75,-510 514.75,-510 514.75,-498 514.75,-498 514.75,-492 520.75,-486 526.75,-486 526.75,-486 592.25,-486 592.25,-486 598.25,-486 604.25,-492 604.25,-498 604.25,-498 604.25,-510 604.25,-510 604.25,-516 598.25,-522 592.25,-522"/>
<text text-anchor="middle" x="559.5" y="-500.88" font-family="Century Gothic" font-size="10.00">p151_NCI&lt;&#45;0.71</text>
</g>
<!-- 12&#45;&gt;24 -->
<g id="edge34" class="edge">
<title>12&#45;&gt;24</title>
<path fill="none" stroke="#f4562a" d="M478.42,-519.02C486.31,-517.54 494.67,-515.97 502.88,-514.43"/>
<polygon fill="#f4562a" stroke="#f4562a" points="503.28,-517.92 512.46,-512.64 501.98,-511.04 503.28,-517.92"/>
</g>
<!-- 41 -->
<g id="node36" class="node">
<title>41</title>
<ellipse fill="#ddfbd2" stroke="#b8f6a2" stroke-width="2" cx="677.2" cy="-612" rx="35.03" ry="18"/>
<text text-anchor="middle" x="677.2" y="-608.88" font-family="Century Gothic" font-size="10.00">+4.25nm</text>
</g>
<!-- 23&#45;&gt;41 -->
<g id="edge35" class="edge">
<title>23&#45;&gt;41</title>
<path fill="none" stroke="#14bdeb" d="M596.79,-574.94C610.52,-581.35 626.14,-588.64 639.87,-595.05"/>
<polygon fill="#14bdeb" stroke="#14bdeb" points="638.03,-598.05 648.57,-599.11 640.99,-591.71 638.03,-598.05"/>
</g>
<!-- 42 -->
<g id="node37" class="node">
<title>42</title>
<ellipse fill="#ddfbd2" stroke="#b8f6a2" stroke-width="2" cx="677.2" cy="-558" rx="35.03" ry="18"/>
<text text-anchor="middle" x="677.2" y="-554.88" font-family="Century Gothic" font-size="10.00">+1.88nm</text>
</g>
<!-- 23&#45;&gt;42 -->
<g id="edge36" class="edge">
<title>23&#45;&gt;42</title>
<path fill="none" stroke="#f4562a" d="M596.79,-558C607.32,-558 618.95,-558 630,-558"/>
<polygon fill="#f4562a" stroke="#f4562a" points="629.71,-561.5 639.71,-558 629.71,-554.5 629.71,-561.5"/>
</g>
<!-- 43 -->
<g id="node38" class="node">
<title>43</title>
<ellipse fill="#ddfbd2" stroke="#b8f6a2" stroke-width="2" cx="677.2" cy="-504" rx="32.73" ry="18"/>
<text text-anchor="middle" x="677.2" y="-500.88" font-family="Century Gothic" font-size="10.00">&#45;0.60nm</text>
</g>
<!-- 24&#45;&gt;43 -->
<g id="edge37" class="edge">
<title>24&#45;&gt;43</title>
<path fill="none" stroke="#14bdeb" d="M605.23,-504C614.16,-504 623.53,-504 632.43,-504"/>
<polygon fill="#14bdeb" stroke="#14bdeb" points="632.27,-507.5 642.27,-504 632.27,-500.5 632.27,-507.5"/>
</g>
<!-- 44 -->
<g id="node39" class="node">
<title>44</title>
<ellipse fill="#ddfbd2" stroke="#b8f6a2" stroke-width="2" cx="677.2" cy="-450" rx="32.73" ry="18"/>
<text text-anchor="middle" x="677.2" y="-446.88" font-family="Century Gothic" font-size="10.00">&#45;2.36nm</text>
</g>
<!-- 24&#45;&gt;44 -->
<g id="edge38" class="edge">
<title>24&#45;&gt;44</title>
<path fill="none" stroke="#f4562a" d="M600.97,-485.11C614,-479.03 628.33,-472.34 640.95,-466.45"/>
<polygon fill="#f4562a" stroke="#f4562a" points="642.14,-469.76 649.72,-462.36 639.18,-463.42 642.14,-469.76"/>
</g>
<!-- 25 -->
<g id="node42" class="node">
<title>25</title>
<path fill="#fdf4d9" stroke="#fbe9b1" stroke-width="2" d="M589.62,-360C589.62,-360 529.38,-360 529.38,-360 523.38,-360 517.38,-354 517.38,-348 517.38,-348 517.38,-336 517.38,-336 517.38,-330 523.38,-324 529.38,-324 529.38,-324 589.62,-324 589.62,-324 595.62,-324 601.62,-330 601.62,-336 601.62,-336 601.62,-348 601.62,-348 601.62,-354 595.62,-360 589.62,-360"/>
<text text-anchor="middle" x="559.5" y="-338.88" font-family="Century Gothic" font-size="10.00">p84_NCI&lt;&#45;0.46</text>
</g>
<!-- 13&#45;&gt;25 -->
<g id="edge41" class="edge">
<title>13&#45;&gt;25</title>
<path fill="none" stroke="#14bdeb" d="M477.39,-318.85C486.48,-321.44 496.22,-324.22 505.68,-326.92"/>
<polygon fill="#14bdeb" stroke="#14bdeb" points="504.58,-330.25 515.15,-329.63 506.5,-323.52 504.58,-330.25"/>
</g>
<!-- 26 -->
<g id="node43" class="node">
<title>26</title>
<path fill="#fdf4d9" stroke="#fbe9b1" stroke-width="2" d="M592.25,-306C592.25,-306 526.75,-306 526.75,-306 520.75,-306 514.75,-300 514.75,-294 514.75,-294 514.75,-282 514.75,-282 514.75,-276 520.75,-270 526.75,-270 526.75,-270 592.25,-270 592.25,-270 598.25,-270 604.25,-276 604.25,-282 604.25,-282 604.25,-294 604.25,-294 604.25,-300 598.25,-306 592.25,-306"/>
<text text-anchor="middle" x="559.5" y="-284.88" font-family="Century Gothic" font-size="10.00">p113_NCI&lt;&#45;0.70</text>
</g>
<!-- 13&#45;&gt;26 -->
<g id="edge42" class="edge">
<title>13&#45;&gt;26</title>
<path fill="none" stroke="#f4562a" d="M477.39,-300.57C485.6,-299.29 494.35,-297.94 502.94,-296.61"/>
<polygon fill="#f4562a" stroke="#f4562a" points="503.25,-300.1 512.59,-295.11 502.17,-293.19 503.25,-300.1"/>
</g>
<!-- 27 -->
<g id="node48" class="node">
<title>27</title>
<path fill="#fdf4d9" stroke="#fbe9b1" stroke-width="2" d="M587.75,-177C587.75,-177 531.25,-177 531.25,-177 525.25,-177 519.25,-171 519.25,-165 519.25,-165 519.25,-153 519.25,-153 519.25,-147 525.25,-141 531.25,-141 531.25,-141 587.75,-141 587.75,-141 593.75,-141 599.75,-147 599.75,-153 599.75,-153 599.75,-165 599.75,-165 599.75,-171 593.75,-177 587.75,-177"/>
<text text-anchor="middle" x="559.5" y="-155.88" font-family="Century Gothic" font-size="10.00">p86_PKB&lt;9.13</text>
</g>
<!-- 14&#45;&gt;27 -->
<g id="edge47" class="edge">
<title>14&#45;&gt;27</title>
<path fill="none" stroke="#14bdeb" d="M477.73,-159C487.21,-159 497.37,-159 507.19,-159"/>
<polygon fill="#14bdeb" stroke="#14bdeb" points="506.97,-162.5 516.97,-159 506.97,-155.5 506.97,-162.5"/>
</g>
<!-- 28 -->
<g id="node49" class="node">
<title>28</title>
<path fill="#fdf4d9" stroke="#fbe9b1" stroke-width="2" d="M589.62,-90C589.62,-90 529.38,-90 529.38,-90 523.38,-90 517.38,-84 517.38,-78 517.38,-78 517.38,-66 517.38,-66 517.38,-60 523.38,-54 529.38,-54 529.38,-54 589.62,-54 589.62,-54 595.62,-54 601.62,-60 601.62,-66 601.62,-66 601.62,-78 601.62,-78 601.62,-84 595.62,-90 589.62,-90"/>
<text text-anchor="middle" x="559.5" y="-68.88" font-family="Century Gothic" font-size="10.00">p93_NCI&lt;&#45;0.36</text>
</g>
<!-- 14&#45;&gt;28 -->
<g id="edge48" class="edge">
<title>14&#45;&gt;28</title>
<path fill="none" stroke="#f4562a" d="M462.48,-140.12C480.08,-127.64 503.36,-111.12 522.59,-97.48"/>
<polygon fill="#f4562a" stroke="#f4562a" points="524.58,-100.36 530.71,-91.72 520.53,-94.65 524.58,-100.36"/>
</g>
<!-- 45 -->
<g id="node44" class="node">
<title>45</title>
<ellipse fill="#ddfbd2" stroke="#b8f6a2" stroke-width="2" cx="677.2" cy="-396" rx="32.73" ry="18"/>
<text text-anchor="middle" x="677.2" y="-392.88" font-family="Century Gothic" font-size="10.00">&#45;8.75nm</text>
</g>
<!-- 25&#45;&gt;45 -->
<g id="edge43" class="edge">
<title>25&#45;&gt;45</title>
<path fill="none" stroke="#14bdeb" d="M600.97,-360.89C614,-366.97 628.33,-373.66 640.95,-379.55"/>
<polygon fill="#14bdeb" stroke="#14bdeb" points="639.18,-382.58 649.72,-383.64 642.14,-376.24 639.18,-382.58"/>
</g>
<!-- 46 -->
<g id="node45" class="node">
<title>46</title>
<ellipse fill="#ddfbd2" stroke="#b8f6a2" stroke-width="2" cx="677.2" cy="-342" rx="35.95" ry="18"/>
<text text-anchor="middle" x="677.2" y="-338.88" font-family="Century Gothic" font-size="10.00">&#45;10.38nm</text>
</g>
<!-- 25&#45;&gt;46 -->
<g id="edge44" class="edge">
<title>25&#45;&gt;46</title>
<path fill="none" stroke="#f4562a" d="M602.6,-342C611.22,-342 620.35,-342 629.14,-342"/>
<polygon fill="#f4562a" stroke="#f4562a" points="628.91,-345.5 638.91,-342 628.91,-338.5 628.91,-345.5"/>
</g>
<!-- 47 -->
<g id="node46" class="node">
<title>47</title>
<ellipse fill="#ddfbd2" stroke="#b8f6a2" stroke-width="2" cx="677.2" cy="-288" rx="32.73" ry="18"/>
<text text-anchor="middle" x="677.2" y="-284.88" font-family="Century Gothic" font-size="10.00">&#45;6.28nm</text>
</g>
<!-- 26&#45;&gt;47 -->
<g id="edge45" class="edge">
<title>26&#45;&gt;47</title>
<path fill="none" stroke="#14bdeb" d="M605.23,-288C614.16,-288 623.53,-288 632.43,-288"/>
<polygon fill="#14bdeb" stroke="#14bdeb" points="632.27,-291.5 642.27,-288 632.27,-284.5 632.27,-291.5"/>
</g>
<!-- 48 -->
<g id="node47" class="node">
<title>48</title>
<ellipse fill="#ddfbd2" stroke="#b8f6a2" stroke-width="2" cx="677.2" cy="-234" rx="35.95" ry="18"/>
<text text-anchor="middle" x="677.2" y="-230.88" font-family="Century Gothic" font-size="10.00">&#45;10.16nm</text>
</g>
<!-- 26&#45;&gt;48 -->
<g id="edge46" class="edge">
<title>26&#45;&gt;48</title>
<path fill="none" stroke="#f4562a" d="M600.97,-269.11C613.46,-263.28 627.16,-256.89 639.39,-251.18"/>
<polygon fill="#f4562a" stroke="#f4562a" points="640.76,-254.4 648.34,-247 637.79,-248.06 640.76,-254.4"/>
</g>
<!-- 49 -->
<g id="node50" class="node">
<title>49</title>
<ellipse fill="#ddfbd2" stroke="#b8f6a2" stroke-width="2" cx="677.2" cy="-180" rx="32.73" ry="18"/>
<text text-anchor="middle" x="677.2" y="-176.88" font-family="Century Gothic" font-size="10.00">&#45;5.60nm</text>
</g>
<!-- 27&#45;&gt;49 -->
<g id="edge49" class="edge">
<title>27&#45;&gt;49</title>
<path fill="none" stroke="#14bdeb" d="M600.64,-166.29C611.49,-168.26 623.26,-170.39 634.21,-172.38"/>
<polygon fill="#14bdeb" stroke="#14bdeb" points="633.3,-175.77 643.76,-174.11 634.55,-168.88 633.3,-175.77"/>
</g>
<!-- 50 -->
<g id="node51" class="node">
<title>50</title>
<ellipse fill="#ddfbd2" stroke="#b8f6a2" stroke-width="2" cx="677.2" cy="-126" rx="32.73" ry="18"/>
<text text-anchor="middle" x="677.2" y="-122.88" font-family="Century Gothic" font-size="10.00">&#45;8.65nm</text>
</g>
<!-- 27&#45;&gt;50 -->
<g id="edge50" class="edge">
<title>27&#45;&gt;50</title>
<path fill="none" stroke="#f4562a" d="M600.64,-147.55C612.09,-144.28 624.57,-140.72 636.03,-137.46"/>
<polygon fill="#f4562a" stroke="#f4562a" points="636.96,-140.83 645.61,-134.72 635.04,-134.1 636.96,-140.83"/>
</g>
<!-- 51 -->
<g id="node52" class="node">
<title>51</title>
<ellipse fill="#ddfbd2" stroke="#b8f6a2" stroke-width="2" cx="677.2" cy="-72" rx="32.73" ry="18"/>
<text text-anchor="middle" x="677.2" y="-68.88" font-family="Century Gothic" font-size="10.00">&#45;4.18nm</text>
</g>
<!-- 28&#45;&gt;51 -->
<g id="edge51" class="edge">
<title>28&#45;&gt;51</title>
<path fill="none" stroke="#14bdeb" d="M602.6,-72C612.24,-72 622.52,-72 632.24,-72"/>
<polygon fill="#14bdeb" stroke="#14bdeb" points="632.23,-75.5 642.23,-72 632.23,-68.5 632.23,-75.5"/>
</g>
<!-- 52 -->
<g id="node53" class="node">
<title>52</title>
<ellipse fill="#ddfbd2" stroke="#b8f6a2" stroke-width="2" cx="677.2" cy="-18" rx="32.73" ry="18"/>
<text text-anchor="middle" x="677.2" y="-14.88" font-family="Century Gothic" font-size="10.00">&#45;6.48nm</text>
</g>
<!-- 28&#45;&gt;52 -->
<g id="edge52" class="edge">
<title>28&#45;&gt;52</title>
<path fill="none" stroke="#f4562a" d="M600.97,-53.11C614,-47.03 628.33,-40.34 640.95,-34.45"/>
<polygon fill="#f4562a" stroke="#f4562a" points="642.14,-37.76 649.72,-30.36 639.18,-31.42 642.14,-37.76"/>
</g>
</g>
</svg>
