<?xml version="1.0" encoding="UTF-8" standalone="no"?>
<!DOCTYPE svg PUBLIC "-//W3C//DTD SVG 1.1//EN"
 "http://www.w3.org/Graphics/SVG/1.1/DTD/svg11.dtd">
<!-- Generated by graphviz version 10.0.1 (20240210.2158)
 -->
<!-- Pages: 1 -->
<svg width="373pt" height="422pt"
 viewBox="0.00 0.00 372.56 422.00" xmlns="http://www.w3.org/2000/svg" xmlns:xlink="http://www.w3.org/1999/xlink">
<g id="graph0" class="graph" transform="scale(1 1) rotate(0) translate(4 418)">
<polygon fill="white" stroke="none" points="-4,4 -4,-418 368.56,-418 368.56,4 -4,4"/>
<!-- 0 -->
<g id="node1" class="node">
<title>0</title>
<path fill="#fdf4d9" stroke="#fbe9b1" stroke-width="2" d="M42,-206C42,-206 12,-206 12,-206 6,-206 0,-200 0,-194 0,-194 0,-182 0,-182 0,-176 6,-170 12,-170 12,-170 42,-170 42,-170 48,-170 54,-176 54,-182 54,-182 54,-194 54,-194 54,-200 48,-206 42,-206"/>
<text text-anchor="middle" x="27" y="-184.88" font-family="Century Gothic" font-size="10.00">p286_R</text>
</g>
<!-- 1 -->
<g id="node2" class="node">
<title>1</title>
<path fill="#fdf4d9" stroke="#fbe9b1" stroke-width="2" d="M154.5,-273C154.5,-273 124.5,-273 124.5,-273 118.5,-273 112.5,-267 112.5,-261 112.5,-261 112.5,-249 112.5,-249 112.5,-243 118.5,-237 124.5,-237 124.5,-237 154.5,-237 154.5,-237 160.5,-237 166.5,-243 166.5,-249 166.5,-249 166.5,-261 166.5,-261 166.5,-267 160.5,-273 154.5,-273"/>
<text text-anchor="middle" x="139.5" y="-251.88" font-family="Century Gothic" font-size="10.00">p319_Q</text>
</g>
<!-- 0&#45;&gt;1 -->
<g id="edge1" class="edge">
<title>0&#45;&gt;1</title>
<path fill="none" stroke="#14bdeb" d="M54.75,-204.22C68.9,-212.8 86.48,-223.46 101.87,-232.79"/>
<polygon fill="#14bdeb" stroke="#14bdeb" points="99.95,-235.72 110.32,-237.91 103.58,-229.74 99.95,-235.72"/>
<text text-anchor="middle" x="83.25" y="-230.2" font-family="Century Gothic" font-size="14.00">yes</text>
</g>
<!-- 2 -->
<g id="node3" class="node">
<title>2</title>
<path fill="#fdf4d9" stroke="#fbe9b1" stroke-width="2" d="M154.5,-152C154.5,-152 124.5,-152 124.5,-152 118.5,-152 112.5,-146 112.5,-140 112.5,-140 112.5,-128 112.5,-128 112.5,-122 118.5,-116 124.5,-116 124.5,-116 154.5,-116 154.5,-116 160.5,-116 166.5,-122 166.5,-128 166.5,-128 166.5,-140 166.5,-140 166.5,-146 160.5,-152 154.5,-152"/>
<text text-anchor="middle" x="139.5" y="-130.88" font-family="Century Gothic" font-size="10.00">p265_Y</text>
</g>
<!-- 0&#45;&gt;2 -->
<g id="edge2" class="edge">
<title>0&#45;&gt;2</title>
<path fill="none" stroke="#f4562a" d="M54.75,-174.93C68.76,-168.08 86.14,-159.59 101.43,-152.12"/>
<polygon fill="#f4562a" stroke="#f4562a" points="102.81,-155.34 110.25,-147.8 99.73,-149.05 102.81,-155.34"/>
<text text-anchor="middle" x="83.25" y="-168.2" font-family="Century Gothic" font-size="14.00">no</text>
</g>
<!-- 3 -->
<g id="node4" class="node">
<title>3</title>
<path fill="#fdf4d9" stroke="#fbe9b1" stroke-width="2" d="M245.5,-360C245.5,-360 215.5,-360 215.5,-360 209.5,-360 203.5,-354 203.5,-348 203.5,-348 203.5,-336 203.5,-336 203.5,-330 209.5,-324 215.5,-324 215.5,-324 245.5,-324 245.5,-324 251.5,-324 257.5,-330 257.5,-336 257.5,-336 257.5,-348 257.5,-348 257.5,-354 251.5,-360 245.5,-360"/>
<text text-anchor="middle" x="230.5" y="-338.88" font-family="Century Gothic" font-size="10.00">p279_R</text>
</g>
<!-- 1&#45;&gt;3 -->
<g id="edge3" class="edge">
<title>1&#45;&gt;3</title>
<path fill="none" stroke="#14bdeb" d="M159.81,-273.88C172.17,-285.96 188.4,-301.83 202.09,-315.21"/>
<polygon fill="#14bdeb" stroke="#14bdeb" points="199.55,-317.61 209.14,-322.1 204.44,-312.61 199.55,-317.61"/>
</g>
<!-- 4 -->
<g id="node5" class="node">
<title>4</title>
<path fill="#fdf4d9" stroke="#fbe9b1" stroke-width="2" d="M245.5,-273C245.5,-273 215.5,-273 215.5,-273 209.5,-273 203.5,-267 203.5,-261 203.5,-261 203.5,-249 203.5,-249 203.5,-243 209.5,-237 215.5,-237 215.5,-237 245.5,-237 245.5,-237 251.5,-237 257.5,-243 257.5,-249 257.5,-249 257.5,-261 257.5,-261 257.5,-267 251.5,-273 245.5,-273"/>
<text text-anchor="middle" x="230.5" y="-251.88" font-family="Century Gothic" font-size="10.00">p181_H</text>
</g>
<!-- 1&#45;&gt;4 -->
<g id="edge4" class="edge">
<title>1&#45;&gt;4</title>
<path fill="none" stroke="#f4562a" d="M167.2,-255C174.7,-255 183.01,-255 191.05,-255"/>
<polygon fill="#f4562a" stroke="#f4562a" points="190.99,-258.5 200.99,-255 190.99,-251.5 190.99,-258.5"/>
</g>
<!-- 5 -->
<g id="node10" class="node">
<title>5</title>
<path fill="#fdf4d9" stroke="#fbe9b1" stroke-width="2" d="M245.5,-152C245.5,-152 215.5,-152 215.5,-152 209.5,-152 203.5,-146 203.5,-140 203.5,-140 203.5,-128 203.5,-128 203.5,-122 209.5,-116 215.5,-116 215.5,-116 245.5,-116 245.5,-116 251.5,-116 257.5,-122 257.5,-128 257.5,-128 257.5,-140 257.5,-140 257.5,-146 251.5,-152 245.5,-152"/>
<text text-anchor="middle" x="230.5" y="-130.88" font-family="Century Gothic" font-size="10.00">p168_S</text>
</g>
<!-- 2&#45;&gt;5 -->
<g id="edge9" class="edge">
<title>2&#45;&gt;5</title>
<path fill="none" stroke="#14bdeb" d="M167.2,-134C174.7,-134 183.01,-134 191.05,-134"/>
<polygon fill="#14bdeb" stroke="#14bdeb" points="190.99,-137.5 200.99,-134 190.99,-130.5 190.99,-137.5"/>
</g>
<!-- 6 -->
<g id="node11" class="node">
<title>6</title>
<path fill="#fdf4d9" stroke="#fbe9b1" stroke-width="2" d="M245.5,-90C245.5,-90 215.5,-90 215.5,-90 209.5,-90 203.5,-84 203.5,-78 203.5,-78 203.5,-66 203.5,-66 203.5,-60 209.5,-54 215.5,-54 215.5,-54 245.5,-54 245.5,-54 251.5,-54 257.5,-60 257.5,-66 257.5,-66 257.5,-78 257.5,-78 257.5,-84 251.5,-90 245.5,-90"/>
<text text-anchor="middle" x="230.5" y="-68.88" font-family="Century Gothic" font-size="10.00">p86_F</text>
</g>
<!-- 2&#45;&gt;6 -->
<g id="edge10" class="edge">
<title>2&#45;&gt;6</title>
<path fill="none" stroke="#f4562a" d="M167.2,-115.4C175.4,-109.69 184.56,-103.31 193.28,-97.23"/>
<polygon fill="#f4562a" stroke="#f4562a" points="195.06,-100.26 201.27,-91.67 191.06,-94.51 195.06,-100.26"/>
</g>
<!-- 7 -->
<g id="node6" class="node">
<title>7</title>
<ellipse fill="#ddfbd2" stroke="#b8f6a2" stroke-width="2" cx="329.53" cy="-396" rx="35.03" ry="18"/>
<text text-anchor="middle" x="329.53" y="-392.88" font-family="Century Gothic" font-size="10.00">+3.20nm</text>
</g>
<!-- 3&#45;&gt;7 -->
<g id="edge5" class="edge">
<title>3&#45;&gt;7</title>
<path fill="none" stroke="#14bdeb" d="M258.27,-356.9C269.46,-363.13 282.6,-370.44 294.47,-377.05"/>
<polygon fill="#14bdeb" stroke="#14bdeb" points="292.73,-380.08 303.17,-381.89 296.14,-373.97 292.73,-380.08"/>
</g>
<!-- 8 -->
<g id="node7" class="node">
<title>8</title>
<ellipse fill="#ddfbd2" stroke="#b8f6a2" stroke-width="2" cx="329.53" cy="-342" rx="35.03" ry="18"/>
<text text-anchor="middle" x="329.53" y="-338.88" font-family="Century Gothic" font-size="10.00">+0.04nm</text>
</g>
<!-- 3&#45;&gt;8 -->
<g id="edge6" class="edge">
<title>3&#45;&gt;8</title>
<path fill="none" stroke="#f4562a" d="M258.27,-342C265.74,-342 274.08,-342 282.33,-342"/>
<polygon fill="#f4562a" stroke="#f4562a" points="282.33,-345.5 292.33,-342 282.33,-338.5 282.33,-345.5"/>
</g>
<!-- 9 -->
<g id="node8" class="node">
<title>9</title>
<ellipse fill="#ddfbd2" stroke="#b8f6a2" stroke-width="2" cx="329.53" cy="-288" rx="35.03" ry="18"/>
<text text-anchor="middle" x="329.53" y="-284.88" font-family="Century Gothic" font-size="10.00">+5.41nm</text>
</g>
<!-- 4&#45;&gt;9 -->
<g id="edge7" class="edge">
<title>4&#45;&gt;9</title>
<path fill="none" stroke="#14bdeb" d="M258.27,-264.1C267.58,-267.27 278.24,-270.9 288.39,-274.35"/>
<polygon fill="#14bdeb" stroke="#14bdeb" points="287.09,-277.6 297.69,-277.51 289.35,-270.98 287.09,-277.6"/>
</g>
<!-- 10 -->
<g id="node9" class="node">
<title>10</title>
<ellipse fill="#ddfbd2" stroke="#b8f6a2" stroke-width="2" cx="329.53" cy="-234" rx="35.03" ry="18"/>
<text text-anchor="middle" x="329.53" y="-230.88" font-family="Century Gothic" font-size="10.00">+8.17nm</text>
</g>
<!-- 4&#45;&gt;10 -->
<g id="edge8" class="edge">
<title>4&#45;&gt;10</title>
<path fill="none" stroke="#f4562a" d="M258.27,-249.21C266.65,-247.39 276.11,-245.35 285.32,-243.35"/>
<polygon fill="#f4562a" stroke="#f4562a" points="285.82,-246.83 294.85,-241.29 284.33,-239.98 285.82,-246.83"/>
</g>
<!-- 11 -->
<g id="node12" class="node">
<title>11</title>
<ellipse fill="#ddfbd2" stroke="#b8f6a2" stroke-width="2" cx="329.53" cy="-180" rx="32.73" ry="18"/>
<text text-anchor="middle" x="329.53" y="-176.88" font-family="Century Gothic" font-size="10.00">&#45;4.18nm</text>
</g>
<!-- 5&#45;&gt;11 -->
<g id="edge11" class="edge">
<title>5&#45;&gt;11</title>
<path fill="none" stroke="#14bdeb" d="M258.27,-146.69C269.09,-151.82 281.74,-157.82 293.29,-163.29"/>
<polygon fill="#14bdeb" stroke="#14bdeb" points="291.61,-166.37 302.14,-167.49 294.61,-160.05 291.61,-166.37"/>
</g>
<!-- 12 -->
<g id="node13" class="node">
<title>12</title>
<ellipse fill="#ddfbd2" stroke="#b8f6a2" stroke-width="2" cx="329.53" cy="-126" rx="32.73" ry="18"/>
<text text-anchor="middle" x="329.53" y="-122.88" font-family="Century Gothic" font-size="10.00">&#45;1.83nm</text>
</g>
<!-- 5&#45;&gt;12 -->
<g id="edge12" class="edge">
<title>5&#45;&gt;12</title>
<path fill="none" stroke="#f4562a" d="M258.27,-131.79C266.55,-131.11 275.9,-130.34 285.01,-129.59"/>
<polygon fill="#f4562a" stroke="#f4562a" points="285.14,-133.09 294.82,-128.78 284.57,-126.11 285.14,-133.09"/>
</g>
<!-- 13 -->
<g id="node14" class="node">
<title>13</title>
<ellipse fill="#ddfbd2" stroke="#b8f6a2" stroke-width="2" cx="329.53" cy="-72" rx="32.73" ry="18"/>
<text text-anchor="middle" x="329.53" y="-68.88" font-family="Century Gothic" font-size="10.00">&#45;6.87nm</text>
</g>
<!-- 6&#45;&gt;13 -->
<g id="edge13" class="edge">
<title>6&#45;&gt;13</title>
<path fill="none" stroke="#14bdeb" d="M258.27,-72C266.47,-72 275.72,-72 284.75,-72"/>
<polygon fill="#14bdeb" stroke="#14bdeb" points="284.46,-75.5 294.46,-72 284.46,-68.5 284.46,-75.5"/>
</g>
<!-- 14 -->
<g id="node15" class="node">
<title>14</title>
<ellipse fill="#ddfbd2" stroke="#b8f6a2" stroke-width="2" cx="329.53" cy="-18" rx="32.73" ry="18"/>
<text text-anchor="middle" x="329.53" y="-14.88" font-family="Century Gothic" font-size="10.00">&#45;9.92nm</text>
</g>
<!-- 6&#45;&gt;14 -->
<g id="edge14" class="edge">
<title>6&#45;&gt;14</title>
<path fill="none" stroke="#f4562a" d="M258.27,-57.1C269.75,-50.71 283.28,-43.18 295.39,-36.44"/>
<polygon fill="#f4562a" stroke="#f4562a" points="296.79,-39.67 303.82,-31.75 293.38,-33.55 296.79,-39.67"/>
</g>
</g>
</svg>
