<?xml version="1.0" encoding="UTF-8" standalone="no"?>
<!DOCTYPE svg PUBLIC "-//W3C//DTD SVG 1.1//EN"
 "http://www.w3.org/Graphics/SVG/1.1/DTD/svg11.dtd">
<!-- Generated by graphviz version 10.0.1 (20240210.2158)
 -->
<!-- Pages: 1 -->
<svg width="1976pt" height="425pt"
 viewBox="0.00 0.00 1976.32 424.50" xmlns="http://www.w3.org/2000/svg" xmlns:xlink="http://www.w3.org/1999/xlink">
<g id="graph0" class="graph" transform="scale(1 1) rotate(0) translate(4 420.5)">
<polygon fill="white" stroke="none" points="-4,4 -4,-420.5 1972.32,-420.5 1972.32,4 -4,4"/>
<!-- 0 -->
<g id="node1" class="node">
<title>0</title>
<path fill="#fdf4d9" stroke="#fbe9b1" stroke-width="2" d="M622.81,-416.5C622.81,-416.5 521.31,-416.5 521.31,-416.5 515.31,-416.5 509.31,-410.5 509.31,-404.5 509.31,-404.5 509.31,-392.5 509.31,-392.5 509.31,-386.5 515.31,-380.5 521.31,-380.5 521.31,-380.5 622.81,-380.5 622.81,-380.5 628.81,-380.5 634.81,-386.5 634.81,-392.5 634.81,-392.5 634.81,-404.5 634.81,-404.5 634.81,-410.5 628.81,-416.5 622.81,-416.5"/>
<text text-anchor="middle" x="572.06" y="-395.38" font-family="Century Gothic" font-size="10.00">p285_H2&lt;&#45;0.0900000036</text>
</g>
<!-- 1 -->
<g id="node2" class="node">
<title>1</title>
<path fill="#fdf4d9" stroke="#fbe9b1" stroke-width="2" d="M520.56,-328C520.56,-328 429.56,-328 429.56,-328 423.56,-328 417.56,-322 417.56,-316 417.56,-316 417.56,-304 417.56,-304 417.56,-298 423.56,-292 429.56,-292 429.56,-292 520.56,-292 520.56,-292 526.56,-292 532.56,-298 532.56,-304 532.56,-304 532.56,-316 532.56,-316 532.56,-322 526.56,-328 520.56,-328"/>
<text text-anchor="middle" x="475.06" y="-306.88" font-family="Century Gothic" font-size="10.00">p86_H2&lt;&#45;0.660000026</text>
</g>
<!-- 0&#45;&gt;1 -->
<g id="edge1" class="edge">
<title>0&#45;&gt;1</title>
<path fill="none" stroke="#14bdeb" d="M551.96,-379.58C537.91,-367.05 518.96,-350.15 503.38,-336.26"/>
<polygon fill="#14bdeb" stroke="#14bdeb" points="506.05,-333.95 496.26,-329.91 501.39,-339.18 506.05,-333.95"/>
<text text-anchor="middle" x="544.31" y="-349.2" font-family="Century Gothic" font-size="14.00">yes</text>
</g>
<!-- 2 -->
<g id="node3" class="node">
<title>2</title>
<path fill="#fdf4d9" stroke="#fbe9b1" stroke-width="2" d="M687.56,-328C687.56,-328 596.56,-328 596.56,-328 590.56,-328 584.56,-322 584.56,-316 584.56,-316 584.56,-304 584.56,-304 584.56,-298 590.56,-292 596.56,-292 596.56,-292 687.56,-292 687.56,-292 693.56,-292 699.56,-298 699.56,-304 699.56,-304 699.56,-316 699.56,-316 699.56,-322 693.56,-328 687.56,-328"/>
<text text-anchor="middle" x="642.06" y="-306.88" font-family="Century Gothic" font-size="10.00">p74_H2&lt;&#45;0.720000029</text>
</g>
<!-- 0&#45;&gt;2 -->
<g id="edge2" class="edge">
<title>0&#45;&gt;2</title>
<path fill="none" stroke="#f4562a" d="M586.56,-379.58C596.32,-367.52 609.37,-351.4 620.36,-337.81"/>
<polygon fill="#f4562a" stroke="#f4562a" points="623.05,-340.05 626.62,-330.08 617.61,-335.65 623.05,-340.05"/>
<text text-anchor="middle" x="623.06" y="-349.2" font-family="Century Gothic" font-size="14.00">no</text>
</g>
<!-- 3 -->
<g id="node4" class="node">
<title>3</title>
<ellipse fill="#ddfbd2" stroke="#b8f6a2" stroke-width="2" cx="340.06" cy="-237" rx="57.06" ry="18"/>
<text text-anchor="middle" x="340.06" y="-233.88" font-family="Century Gothic" font-size="10.00">leaf=&#45;12.1455173</text>
</g>
<!-- 1&#45;&gt;3 -->
<g id="edge3" class="edge">
<title>1&#45;&gt;3</title>
<path fill="none" stroke="#14bdeb" d="M440.99,-291.08C422.19,-281.19 398.75,-268.87 379.2,-258.59"/>
<polygon fill="#14bdeb" stroke="#14bdeb" points="380.9,-255.53 370.42,-253.97 377.64,-261.72 380.9,-255.53"/>
</g>
<!-- 4 -->
<g id="node5" class="node">
<title>4</title>
<path fill="#fdf4d9" stroke="#fbe9b1" stroke-width="2" d="M523.18,-255C523.18,-255 426.93,-255 426.93,-255 420.93,-255 414.93,-249 414.93,-243 414.93,-243 414.93,-231 414.93,-231 414.93,-225 420.93,-219 426.93,-219 426.93,-219 523.18,-219 523.18,-219 529.18,-219 535.18,-225 535.18,-231 535.18,-231 535.18,-243 535.18,-243 535.18,-249 529.18,-255 523.18,-255"/>
<text text-anchor="middle" x="475.06" y="-233.88" font-family="Century Gothic" font-size="10.00">p265_H2&lt;&#45;0.660000026</text>
</g>
<!-- 1&#45;&gt;4 -->
<g id="edge4" class="edge">
<title>1&#45;&gt;4</title>
<path fill="none" stroke="#f4562a" d="M475.06,-291.08C475.06,-283.8 475.06,-275.19 475.06,-267.05"/>
<polygon fill="#f4562a" stroke="#f4562a" points="478.56,-267.18 475.06,-257.18 471.56,-267.18 478.56,-267.18"/>
</g>
<!-- 5 -->
<g id="node14" class="node">
<title>5</title>
<path fill="#fdf4d9" stroke="#fbe9b1" stroke-width="2" d="M671.81,-255C671.81,-255 612.31,-255 612.31,-255 606.31,-255 600.31,-249 600.31,-243 600.31,-243 600.31,-231 600.31,-231 600.31,-225 606.31,-219 612.31,-219 612.31,-219 671.81,-219 671.81,-219 677.81,-219 683.81,-225 683.81,-231 683.81,-231 683.81,-243 683.81,-243 683.81,-249 677.81,-255 671.81,-255"/>
<text text-anchor="middle" x="642.06" y="-233.88" font-family="Century Gothic" font-size="10.00">p181_H2&lt;&#45;0.25</text>
</g>
<!-- 2&#45;&gt;5 -->
<g id="edge13" class="edge">
<title>2&#45;&gt;5</title>
<path fill="none" stroke="#14bdeb" d="M642.06,-291.08C642.06,-283.8 642.06,-275.19 642.06,-267.05"/>
<polygon fill="#14bdeb" stroke="#14bdeb" points="645.56,-267.18 642.06,-257.18 638.56,-267.18 645.56,-267.18"/>
</g>
<!-- 6 -->
<g id="node15" class="node">
<title>6</title>
<path fill="#fdf4d9" stroke="#fbe9b1" stroke-width="2" d="M1221.68,-255C1221.68,-255 1128.43,-255 1128.43,-255 1122.43,-255 1116.43,-249 1116.43,-243 1116.43,-243 1116.43,-231 1116.43,-231 1116.43,-225 1122.43,-219 1128.43,-219 1128.43,-219 1221.68,-219 1221.68,-219 1227.68,-219 1233.68,-225 1233.68,-231 1233.68,-231 1233.68,-243 1233.68,-243 1233.68,-249 1227.68,-255 1221.68,-255"/>
<text text-anchor="middle" x="1175.06" y="-233.88" font-family="Century Gothic" font-size="10.00">p235_PKB&lt;9.17000008</text>
</g>
<!-- 2&#45;&gt;6 -->
<g id="edge14" class="edge">
<title>2&#45;&gt;6</title>
<path fill="none" stroke="#f4562a" d="M700.37,-301.23C798.88,-288.11 997.91,-261.6 1104.27,-247.43"/>
<polygon fill="#f4562a" stroke="#f4562a" points="1104.56,-250.92 1114.01,-246.13 1103.64,-243.98 1104.56,-250.92"/>
</g>
<!-- 7 -->
<g id="node6" class="node">
<title>7</title>
<path fill="#fdf4d9" stroke="#fbe9b1" stroke-width="2" d="M378.81,-182C378.81,-182 277.31,-182 277.31,-182 271.31,-182 265.31,-176 265.31,-170 265.31,-170 265.31,-158 265.31,-158 265.31,-152 271.31,-146 277.31,-146 277.31,-146 378.81,-146 378.81,-146 384.81,-146 390.81,-152 390.81,-158 390.81,-158 390.81,-170 390.81,-170 390.81,-176 384.81,-182 378.81,-182"/>
<text text-anchor="middle" x="328.06" y="-160.88" font-family="Century Gothic" font-size="10.00">p297_H2&lt;&#45;0.0599999987</text>
</g>
<!-- 4&#45;&gt;7 -->
<g id="edge5" class="edge">
<title>4&#45;&gt;7</title>
<path fill="none" stroke="#14bdeb" d="M437.96,-218.08C418.99,-208.92 395.68,-197.66 375.42,-187.87"/>
<polygon fill="#14bdeb" stroke="#14bdeb" points="377.03,-184.77 366.5,-183.57 373.98,-191.07 377.03,-184.77"/>
</g>
<!-- 8 -->
<g id="node7" class="node">
<title>8</title>
<ellipse fill="#ddfbd2" stroke="#b8f6a2" stroke-width="2" cx="475.06" cy="-164" rx="57.06" ry="18"/>
<text text-anchor="middle" x="475.06" y="-160.88" font-family="Century Gothic" font-size="10.00">leaf=&#45;7.25788498</text>
</g>
<!-- 4&#45;&gt;8 -->
<g id="edge6" class="edge">
<title>4&#45;&gt;8</title>
<path fill="none" stroke="#f4562a" d="M475.06,-218.08C475.06,-210.8 475.06,-202.19 475.06,-194.05"/>
<polygon fill="#f4562a" stroke="#f4562a" points="478.56,-194.18 475.06,-184.18 471.56,-194.18 478.56,-194.18"/>
</g>
<!-- 13 -->
<g id="node8" class="node">
<title>13</title>
<path fill="#fdf4d9" stroke="#fbe9b1" stroke-width="2" d="M239.81,-109C239.81,-109 138.31,-109 138.31,-109 132.31,-109 126.31,-103 126.31,-97 126.31,-97 126.31,-85 126.31,-85 126.31,-79 132.31,-73 138.31,-73 138.31,-73 239.81,-73 239.81,-73 245.81,-73 251.81,-79 251.81,-85 251.81,-85 251.81,-97 251.81,-97 251.81,-103 245.81,-109 239.81,-109"/>
<text text-anchor="middle" x="189.06" y="-87.88" font-family="Century Gothic" font-size="10.00">p299_H2&lt;&#45;0.0599999987</text>
</g>
<!-- 7&#45;&gt;13 -->
<g id="edge7" class="edge">
<title>7&#45;&gt;13</title>
<path fill="none" stroke="#14bdeb" d="M292.98,-145.08C275.2,-136 253.4,-124.87 234.37,-115.14"/>
<polygon fill="#14bdeb" stroke="#14bdeb" points="235.97,-112.03 225.47,-110.6 232.78,-118.26 235.97,-112.03"/>
</g>
<!-- 14 -->
<g id="node9" class="node">
<title>14</title>
<path fill="#fdf4d9" stroke="#fbe9b1" stroke-width="2" d="M373.56,-109C373.56,-109 282.56,-109 282.56,-109 276.56,-109 270.56,-103 270.56,-97 270.56,-97 270.56,-85 270.56,-85 270.56,-79 276.56,-73 282.56,-73 282.56,-73 373.56,-73 373.56,-73 379.56,-73 385.56,-79 385.56,-85 385.56,-85 385.56,-97 385.56,-97 385.56,-103 379.56,-109 373.56,-109"/>
<text text-anchor="middle" x="328.06" y="-87.88" font-family="Century Gothic" font-size="10.00">p40_H2&lt;&#45;0.409999996</text>
</g>
<!-- 7&#45;&gt;14 -->
<g id="edge8" class="edge">
<title>7&#45;&gt;14</title>
<path fill="none" stroke="#f4562a" d="M328.06,-145.08C328.06,-137.8 328.06,-129.19 328.06,-121.05"/>
<polygon fill="#f4562a" stroke="#f4562a" points="331.56,-121.18 328.06,-111.18 324.56,-121.18 331.56,-121.18"/>
</g>
<!-- 23 -->
<g id="node10" class="node">
<title>23</title>
<ellipse fill="#ddfbd2" stroke="#b8f6a2" stroke-width="2" cx="57.06" cy="-18" rx="57.06" ry="18"/>
<text text-anchor="middle" x="57.06" y="-14.88" font-family="Century Gothic" font-size="10.00">leaf=&#45;2.81554127</text>
</g>
<!-- 13&#45;&gt;23 -->
<g id="edge9" class="edge">
<title>13&#45;&gt;23</title>
<path fill="none" stroke="#14bdeb" d="M155.75,-72.08C137.36,-62.19 114.45,-49.87 95.33,-39.59"/>
<polygon fill="#14bdeb" stroke="#14bdeb" points="97.23,-36.64 86.77,-34.98 93.92,-42.8 97.23,-36.64"/>
</g>
<!-- 24 -->
<g id="node11" class="node">
<title>24</title>
<ellipse fill="#ddfbd2" stroke="#b8f6a2" stroke-width="2" cx="189.06" cy="-18" rx="57.06" ry="18"/>
<text text-anchor="middle" x="189.06" y="-14.88" font-family="Century Gothic" font-size="10.00">leaf=&#45;4.73319864</text>
</g>
<!-- 13&#45;&gt;24 -->
<g id="edge10" class="edge">
<title>13&#45;&gt;24</title>
<path fill="none" stroke="#f4562a" d="M189.06,-72.08C189.06,-64.8 189.06,-56.19 189.06,-48.05"/>
<polygon fill="#f4562a" stroke="#f4562a" points="192.56,-48.18 189.06,-38.18 185.56,-48.18 192.56,-48.18"/>
</g>
<!-- 25 -->
<g id="node12" class="node">
<title>25</title>
<ellipse fill="#ddfbd2" stroke="#b8f6a2" stroke-width="2" cx="328.06" cy="-18" rx="63.48" ry="18"/>
<text text-anchor="middle" x="328.06" y="-14.88" font-family="Century Gothic" font-size="10.00">leaf=&#45;0.0190658569</text>
</g>
<!-- 14&#45;&gt;25 -->
<g id="edge11" class="edge">
<title>14&#45;&gt;25</title>
<path fill="none" stroke="#14bdeb" d="M328.06,-72.08C328.06,-64.8 328.06,-56.19 328.06,-48.05"/>
<polygon fill="#14bdeb" stroke="#14bdeb" points="331.56,-48.18 328.06,-38.18 324.56,-48.18 331.56,-48.18"/>
</g>
<!-- 26 -->
<g id="node13" class="node">
<title>26</title>
<ellipse fill="#ddfbd2" stroke="#b8f6a2" stroke-width="2" cx="463.06" cy="-18" rx="53.84" ry="18"/>
<text text-anchor="middle" x="463.06" y="-14.88" font-family="Century Gothic" font-size="10.00">leaf=&#45;2.4833653</text>
</g>
<!-- 14&#45;&gt;26 -->
<g id="edge12" class="edge">
<title>14&#45;&gt;26</title>
<path fill="none" stroke="#f4562a" d="M362.12,-72.08C381.06,-62.12 404.69,-49.7 424.33,-39.37"/>
<polygon fill="#f4562a" stroke="#f4562a" points="425.92,-42.49 433.14,-34.73 422.66,-36.29 425.92,-42.49"/>
</g>
<!-- 9 -->
<g id="node16" class="node">
<title>9</title>
<path fill="#fdf4d9" stroke="#fbe9b1" stroke-width="2" d="M614.43,-182C614.43,-182 573.68,-182 573.68,-182 567.68,-182 561.68,-176 561.68,-170 561.68,-170 561.68,-158 561.68,-158 561.68,-152 567.68,-146 573.68,-146 573.68,-146 614.43,-146 614.43,-146 620.43,-146 626.43,-152 626.43,-158 626.43,-158 626.43,-170 626.43,-170 626.43,-176 620.43,-182 614.43,-182"/>
<text text-anchor="middle" x="594.06" y="-160.88" font-family="Century Gothic" font-size="10.00">p2_H3&lt;0.5</text>
</g>
<!-- 5&#45;&gt;9 -->
<g id="edge15" class="edge">
<title>5&#45;&gt;9</title>
<path fill="none" stroke="#14bdeb" d="M629.94,-218.08C624.62,-210.2 618.24,-200.78 612.36,-192.07"/>
<polygon fill="#14bdeb" stroke="#14bdeb" points="615.35,-190.24 606.85,-183.92 609.55,-194.16 615.35,-190.24"/>
</g>
<!-- 10 -->
<g id="node17" class="node">
<title>10</title>
<path fill="#fdf4d9" stroke="#fbe9b1" stroke-width="2" d="M772.81,-182C772.81,-182 671.31,-182 671.31,-182 665.31,-182 659.31,-176 659.31,-170 659.31,-170 659.31,-158 659.31,-158 659.31,-152 665.31,-146 671.31,-146 671.31,-146 772.81,-146 772.81,-146 778.81,-146 784.81,-152 784.81,-158 784.81,-158 784.81,-170 784.81,-170 784.81,-176 778.81,-182 772.81,-182"/>
<text text-anchor="middle" x="722.06" y="-160.88" font-family="Century Gothic" font-size="10.00">p269_H2&lt;&#45;0.0599999987</text>
</g>
<!-- 5&#45;&gt;10 -->
<g id="edge16" class="edge">
<title>5&#45;&gt;10</title>
<path fill="none" stroke="#f4562a" d="M662.24,-218.08C671.72,-209.68 683.18,-199.51 693.52,-190.33"/>
<polygon fill="#f4562a" stroke="#f4562a" points="695.59,-193.17 700.74,-183.92 690.94,-187.94 695.59,-193.17"/>
</g>
<!-- 11 -->
<g id="node24" class="node">
<title>11</title>
<path fill="#fdf4d9" stroke="#fbe9b1" stroke-width="2" d="M1223.18,-182C1223.18,-182 1126.93,-182 1126.93,-182 1120.93,-182 1114.93,-176 1114.93,-170 1114.93,-170 1114.93,-158 1114.93,-158 1114.93,-152 1120.93,-146 1126.93,-146 1126.93,-146 1223.18,-146 1223.18,-146 1229.18,-146 1235.18,-152 1235.18,-158 1235.18,-158 1235.18,-170 1235.18,-170 1235.18,-176 1229.18,-182 1223.18,-182"/>
<text text-anchor="middle" x="1175.06" y="-160.88" font-family="Century Gothic" font-size="10.00">p118_H2&lt;&#45;0.340000004</text>
</g>
<!-- 6&#45;&gt;11 -->
<g id="edge23" class="edge">
<title>6&#45;&gt;11</title>
<path fill="none" stroke="#14bdeb" d="M1175.06,-218.08C1175.06,-210.8 1175.06,-202.19 1175.06,-194.05"/>
<polygon fill="#14bdeb" stroke="#14bdeb" points="1178.56,-194.18 1175.06,-184.18 1171.56,-194.18 1178.56,-194.18"/>
</g>
<!-- 12 -->
<g id="node25" class="node">
<title>12</title>
<path fill="#fdf4d9" stroke="#fbe9b1" stroke-width="2" d="M1604.18,-182C1604.18,-182 1549.93,-182 1549.93,-182 1543.93,-182 1537.93,-176 1537.93,-170 1537.93,-170 1537.93,-158 1537.93,-158 1537.93,-152 1543.93,-146 1549.93,-146 1549.93,-146 1604.18,-146 1604.18,-146 1610.18,-146 1616.18,-152 1616.18,-158 1616.18,-158 1616.18,-170 1616.18,-170 1616.18,-176 1610.18,-182 1604.18,-182"/>
<text text-anchor="middle" x="1577.06" y="-160.88" font-family="Century Gothic" font-size="10.00">p213_H2&lt;&#45;0.5</text>
</g>
<!-- 6&#45;&gt;12 -->
<g id="edge24" class="edge">
<title>6&#45;&gt;12</title>
<path fill="none" stroke="#f4562a" d="M1234.37,-225.52C1313.31,-211.58 1451.58,-187.16 1526.07,-174.01"/>
<polygon fill="#f4562a" stroke="#f4562a" points="1526.29,-177.52 1535.53,-172.33 1525.07,-170.63 1526.29,-177.52"/>
</g>
<!-- 15 -->
<g id="node18" class="node">
<title>15</title>
<ellipse fill="#ddfbd2" stroke="#b8f6a2" stroke-width="2" cx="462.06" cy="-91" rx="58.43" ry="18"/>
<text text-anchor="middle" x="462.06" y="-87.88" font-family="Century Gothic" font-size="10.00">leaf=0.630934179</text>
</g>
<!-- 9&#45;&gt;15 -->
<g id="edge17" class="edge">
<title>9&#45;&gt;15</title>
<path fill="none" stroke="#14bdeb" d="M560.75,-145.08C542.57,-135.31 519.98,-123.16 501,-112.94"/>
<polygon fill="#14bdeb" stroke="#14bdeb" points="502.67,-109.87 492.2,-108.22 499.35,-116.04 502.67,-109.87"/>
</g>
<!-- 16 -->
<g id="node19" class="node">
<title>16</title>
<ellipse fill="#ddfbd2" stroke="#b8f6a2" stroke-width="2" cx="594.06" cy="-91" rx="55.22" ry="18"/>
<text text-anchor="middle" x="594.06" y="-87.88" font-family="Century Gothic" font-size="10.00">leaf=2.86568141</text>
</g>
<!-- 9&#45;&gt;16 -->
<g id="edge18" class="edge">
<title>9&#45;&gt;16</title>
<path fill="none" stroke="#f4562a" d="M594.06,-145.08C594.06,-137.8 594.06,-129.19 594.06,-121.05"/>
<polygon fill="#f4562a" stroke="#f4562a" points="597.56,-121.18 594.06,-111.18 590.56,-121.18 597.56,-121.18"/>
</g>
<!-- 17 -->
<g id="node20" class="node">
<title>17</title>
<ellipse fill="#ddfbd2" stroke="#b8f6a2" stroke-width="2" cx="722.06" cy="-91" rx="55.22" ry="18"/>
<text text-anchor="middle" x="722.06" y="-87.88" font-family="Century Gothic" font-size="10.00">leaf=4.57377481</text>
</g>
<!-- 10&#45;&gt;17 -->
<g id="edge19" class="edge">
<title>10&#45;&gt;17</title>
<path fill="none" stroke="#14bdeb" d="M722.06,-145.08C722.06,-137.8 722.06,-129.19 722.06,-121.05"/>
<polygon fill="#14bdeb" stroke="#14bdeb" points="725.56,-121.18 722.06,-111.18 718.56,-121.18 725.56,-121.18"/>
</g>
<!-- 18 -->
<g id="node21" class="node">
<title>18</title>
<path fill="#fdf4d9" stroke="#fbe9b1" stroke-width="2" d="M898.56,-109C898.56,-109 807.56,-109 807.56,-109 801.56,-109 795.56,-103 795.56,-97 795.56,-97 795.56,-85 795.56,-85 795.56,-79 801.56,-73 807.56,-73 807.56,-73 898.56,-73 898.56,-73 904.56,-73 910.56,-79 910.56,-85 910.56,-85 910.56,-97 910.56,-97 910.56,-103 904.56,-109 898.56,-109"/>
<text text-anchor="middle" x="853.06" y="-87.88" font-family="Century Gothic" font-size="10.00">p57_H2&lt;&#45;0.409999996</text>
</g>
<!-- 10&#45;&gt;18 -->
<g id="edge20" class="edge">
<title>10&#45;&gt;18</title>
<path fill="none" stroke="#f4562a" d="M755.11,-145.08C771.79,-136.04 792.22,-124.97 810.1,-115.28"/>
<polygon fill="#f4562a" stroke="#f4562a" points="811.56,-118.47 818.68,-110.63 808.22,-112.32 811.56,-118.47"/>
</g>
<!-- 27 -->
<g id="node22" class="node">
<title>27</title>
<ellipse fill="#ddfbd2" stroke="#b8f6a2" stroke-width="2" cx="725.06" cy="-18" rx="55.22" ry="18"/>
<text text-anchor="middle" x="725.06" y="-14.88" font-family="Century Gothic" font-size="10.00">leaf=6.72734547</text>
</g>
<!-- 18&#45;&gt;27 -->
<g id="edge21" class="edge">
<title>18&#45;&gt;27</title>
<path fill="none" stroke="#14bdeb" d="M820.76,-72.08C803.01,-62.24 780.91,-49.98 762.42,-39.73"/>
<polygon fill="#14bdeb" stroke="#14bdeb" points="764.34,-36.79 753.9,-35 760.95,-42.91 764.34,-36.79"/>
</g>
<!-- 28 -->
<g id="node23" class="node">
<title>28</title>
<ellipse fill="#ddfbd2" stroke="#b8f6a2" stroke-width="2" cx="853.06" cy="-18" rx="55.22" ry="18"/>
<text text-anchor="middle" x="853.06" y="-14.88" font-family="Century Gothic" font-size="10.00">leaf=1.83093417</text>
</g>
<!-- 18&#45;&gt;28 -->
<g id="edge22" class="edge">
<title>18&#45;&gt;28</title>
<path fill="none" stroke="#f4562a" d="M853.06,-72.08C853.06,-64.8 853.06,-56.19 853.06,-48.05"/>
<polygon fill="#f4562a" stroke="#f4562a" points="856.56,-48.18 853.06,-38.18 849.56,-48.18 856.56,-48.18"/>
</g>
<!-- 19 -->
<g id="node26" class="node">
<title>19</title>
<path fill="#fdf4d9" stroke="#fbe9b1" stroke-width="2" d="M1161.68,-109C1161.68,-109 1068.43,-109 1068.43,-109 1062.43,-109 1056.43,-103 1056.43,-97 1056.43,-97 1056.43,-85 1056.43,-85 1056.43,-79 1062.43,-73 1068.43,-73 1068.43,-73 1161.68,-73 1161.68,-73 1167.68,-73 1173.68,-79 1173.68,-85 1173.68,-85 1173.68,-97 1173.68,-97 1173.68,-103 1167.68,-109 1161.68,-109"/>
<text text-anchor="middle" x="1115.06" y="-87.88" font-family="Century Gothic" font-size="10.00">p197_PKB&lt;9.14999962</text>
</g>
<!-- 11&#45;&gt;19 -->
<g id="edge25" class="edge">
<title>11&#45;&gt;19</title>
<path fill="none" stroke="#14bdeb" d="M1159.92,-145.08C1153.04,-136.95 1144.78,-127.17 1137.22,-118.23"/>
<polygon fill="#14bdeb" stroke="#14bdeb" points="1140.09,-116.2 1130.96,-110.82 1134.74,-120.72 1140.09,-116.2"/>
</g>
<!-- 20 -->
<g id="node27" class="node">
<title>20</title>
<path fill="#fdf4d9" stroke="#fbe9b1" stroke-width="2" d="M1295.56,-109C1295.56,-109 1204.56,-109 1204.56,-109 1198.56,-109 1192.56,-103 1192.56,-97 1192.56,-97 1192.56,-85 1192.56,-85 1192.56,-79 1198.56,-73 1204.56,-73 1204.56,-73 1295.56,-73 1295.56,-73 1301.56,-73 1307.56,-79 1307.56,-85 1307.56,-85 1307.56,-97 1307.56,-97 1307.56,-103 1301.56,-109 1295.56,-109"/>
<text text-anchor="middle" x="1250.06" y="-87.88" font-family="Century Gothic" font-size="10.00">p77_H2&lt;&#45;0.340000004</text>
</g>
<!-- 11&#45;&gt;20 -->
<g id="edge26" class="edge">
<title>11&#45;&gt;20</title>
<path fill="none" stroke="#f4562a" d="M1193.98,-145.08C1202.78,-136.76 1213.39,-126.71 1223.01,-117.6"/>
<polygon fill="#f4562a" stroke="#f4562a" points="1225.18,-120.37 1230.04,-110.95 1220.37,-115.28 1225.18,-120.37"/>
</g>
<!-- 21 -->
<g id="node32" class="node">
<title>21</title>
<path fill="#fdf4d9" stroke="#fbe9b1" stroke-width="2" d="M1622.56,-109C1622.56,-109 1531.56,-109 1531.56,-109 1525.56,-109 1519.56,-103 1519.56,-97 1519.56,-97 1519.56,-85 1519.56,-85 1519.56,-79 1525.56,-73 1531.56,-73 1531.56,-73 1622.56,-73 1622.56,-73 1628.56,-73 1634.56,-79 1634.56,-85 1634.56,-85 1634.56,-97 1634.56,-97 1634.56,-103 1628.56,-109 1622.56,-109"/>
<text text-anchor="middle" x="1577.06" y="-87.88" font-family="Century Gothic" font-size="10.00">p96_H2&lt;&#45;0.340000004</text>
</g>
<!-- 12&#45;&gt;21 -->
<g id="edge31" class="edge">
<title>12&#45;&gt;21</title>
<path fill="none" stroke="#14bdeb" d="M1577.06,-145.08C1577.06,-137.8 1577.06,-129.19 1577.06,-121.05"/>
<polygon fill="#14bdeb" stroke="#14bdeb" points="1580.56,-121.18 1577.06,-111.18 1573.56,-121.18 1580.56,-121.18"/>
</g>
<!-- 22 -->
<g id="node33" class="node">
<title>22</title>
<path fill="#fdf4d9" stroke="#fbe9b1" stroke-width="2" d="M1825.81,-109C1825.81,-109 1724.31,-109 1724.31,-109 1718.31,-109 1712.31,-103 1712.31,-97 1712.31,-97 1712.31,-85 1712.31,-85 1712.31,-79 1718.31,-73 1724.31,-73 1724.31,-73 1825.81,-73 1825.81,-73 1831.81,-73 1837.81,-79 1837.81,-85 1837.81,-85 1837.81,-97 1837.81,-97 1837.81,-103 1831.81,-109 1825.81,-109"/>
<text text-anchor="middle" x="1775.06" y="-87.88" font-family="Century Gothic" font-size="10.00">p292_H2&lt;&#45;0.0599999987</text>
</g>
<!-- 12&#45;&gt;22 -->
<g id="edge32" class="edge">
<title>12&#45;&gt;22</title>
<path fill="none" stroke="#f4562a" d="M1617.12,-148.63C1645.15,-138.58 1683.07,-124.99 1714.73,-113.63"/>
<polygon fill="#f4562a" stroke="#f4562a" points="1715.55,-117.06 1723.78,-110.39 1713.19,-110.47 1715.55,-117.06"/>
</g>
<!-- 29 -->
<g id="node28" class="node">
<title>29</title>
<ellipse fill="#ddfbd2" stroke="#b8f6a2" stroke-width="2" cx="983.06" cy="-18" rx="57.06" ry="18"/>
<text text-anchor="middle" x="983.06" y="-14.88" font-family="Century Gothic" font-size="10.00">leaf=&#45;0.45875451</text>
</g>
<!-- 19&#45;&gt;29 -->
<g id="edge27" class="edge">
<title>19&#45;&gt;29</title>
<path fill="none" stroke="#14bdeb" d="M1081.75,-72.08C1063.36,-62.19 1040.45,-49.87 1021.33,-39.59"/>
<polygon fill="#14bdeb" stroke="#14bdeb" points="1023.23,-36.64 1012.77,-34.98 1019.92,-42.8 1023.23,-36.64"/>
</g>
<!-- 30 -->
<g id="node29" class="node">
<title>30</title>
<ellipse fill="#ddfbd2" stroke="#b8f6a2" stroke-width="2" cx="1115.06" cy="-18" rx="57.06" ry="18"/>
<text text-anchor="middle" x="1115.06" y="-14.88" font-family="Century Gothic" font-size="10.00">leaf=&#45;3.02404284</text>
</g>
<!-- 19&#45;&gt;30 -->
<g id="edge28" class="edge">
<title>19&#45;&gt;30</title>
<path fill="none" stroke="#f4562a" d="M1115.06,-72.08C1115.06,-64.8 1115.06,-56.19 1115.06,-48.05"/>
<polygon fill="#f4562a" stroke="#f4562a" points="1118.56,-48.18 1115.06,-38.18 1111.56,-48.18 1118.56,-48.18"/>
</g>
<!-- 31 -->
<g id="node30" class="node">
<title>31</title>
<ellipse fill="#ddfbd2" stroke="#b8f6a2" stroke-width="2" cx="1250.06" cy="-18" rx="60.27" ry="18"/>
<text text-anchor="middle" x="1250.06" y="-14.88" font-family="Century Gothic" font-size="10.00">leaf=&#45;0.729589641</text>
</g>
<!-- 20&#45;&gt;31 -->
<g id="edge29" class="edge">
<title>20&#45;&gt;31</title>
<path fill="none" stroke="#14bdeb" d="M1250.06,-72.08C1250.06,-64.8 1250.06,-56.19 1250.06,-48.05"/>
<polygon fill="#14bdeb" stroke="#14bdeb" points="1253.56,-48.18 1250.06,-38.18 1246.56,-48.18 1253.56,-48.18"/>
</g>
<!-- 32 -->
<g id="node31" class="node">
<title>32</title>
<ellipse fill="#ddfbd2" stroke="#b8f6a2" stroke-width="2" cx="1387.06" cy="-18" rx="58.43" ry="18"/>
<text text-anchor="middle" x="1387.06" y="-14.88" font-family="Century Gothic" font-size="10.00">leaf=0.987216175</text>
</g>
<!-- 20&#45;&gt;32 -->
<g id="edge30" class="edge">
<title>20&#45;&gt;32</title>
<path fill="none" stroke="#f4562a" d="M1284.63,-72.08C1303.8,-62.15 1327.71,-49.76 1347.61,-39.44"/>
<polygon fill="#f4562a" stroke="#f4562a" points="1348.99,-42.67 1356.26,-34.96 1345.77,-36.45 1348.99,-42.67"/>
</g>
<!-- 33 -->
<g id="node34" class="node">
<title>33</title>
<ellipse fill="#ddfbd2" stroke="#b8f6a2" stroke-width="2" cx="1519.06" cy="-18" rx="55.22" ry="18"/>
<text text-anchor="middle" x="1519.06" y="-14.88" font-family="Century Gothic" font-size="10.00">leaf=1.60287559</text>
</g>
<!-- 21&#45;&gt;33 -->
<g id="edge33" class="edge">
<title>21&#45;&gt;33</title>
<path fill="none" stroke="#14bdeb" d="M1562.42,-72.08C1555.68,-63.83 1547.54,-53.87 1540.15,-44.82"/>
<polygon fill="#14bdeb" stroke="#14bdeb" points="1543.08,-42.88 1534.04,-37.35 1537.66,-47.31 1543.08,-42.88"/>
</g>
<!-- 34 -->
<g id="node35" class="node">
<title>34</title>
<ellipse fill="#ddfbd2" stroke="#b8f6a2" stroke-width="2" cx="1647.06" cy="-18" rx="55.22" ry="18"/>
<text text-anchor="middle" x="1647.06" y="-14.88" font-family="Century Gothic" font-size="10.00">leaf=3.39181328</text>
</g>
<!-- 21&#45;&gt;34 -->
<g id="edge34" class="edge">
<title>21&#45;&gt;34</title>
<path fill="none" stroke="#f4562a" d="M1594.72,-72.08C1603.15,-63.53 1613.39,-53.15 1622.56,-43.85"/>
<polygon fill="#f4562a" stroke="#f4562a" points="1625.01,-46.35 1629.54,-36.77 1620.02,-41.43 1625.01,-46.35"/>
</g>
<!-- 35 -->
<g id="node36" class="node">
<title>35</title>
<ellipse fill="#ddfbd2" stroke="#b8f6a2" stroke-width="2" cx="1775.06" cy="-18" rx="55.22" ry="18"/>
<text text-anchor="middle" x="1775.06" y="-14.88" font-family="Century Gothic" font-size="10.00">leaf=1.33090818</text>
</g>
<!-- 22&#45;&gt;35 -->
<g id="edge35" class="edge">
<title>22&#45;&gt;35</title>
<path fill="none" stroke="#14bdeb" d="M1775.06,-72.08C1775.06,-64.8 1775.06,-56.19 1775.06,-48.05"/>
<polygon fill="#14bdeb" stroke="#14bdeb" points="1778.56,-48.18 1775.06,-38.18 1771.56,-48.18 1778.56,-48.18"/>
</g>
<!-- 36 -->
<g id="node37" class="node">
<title>36</title>
<ellipse fill="#ddfbd2" stroke="#b8f6a2" stroke-width="2" cx="1908.06" cy="-18" rx="60.27" ry="18"/>
<text text-anchor="middle" x="1908.06" y="-14.88" font-family="Century Gothic" font-size="10.00">leaf=&#45;0.383587331</text>
</g>
<!-- 22&#45;&gt;36 -->
<g id="edge36" class="edge">
<title>22&#45;&gt;36</title>
<path fill="none" stroke="#f4562a" d="M1808.62,-72.08C1827.01,-62.26 1849.91,-50.04 1869.09,-39.8"/>
<polygon fill="#f4562a" stroke="#f4562a" points="1870.51,-43.01 1877.69,-35.21 1867.22,-36.83 1870.51,-43.01"/>
</g>
</g>
</svg>
