<?xml version="1.0" encoding="utf-8" standalone="no"?>
<!DOCTYPE svg PUBLIC "-//W3C//DTD SVG 1.1//EN"
  "http://www.w3.org/Graphics/SVG/1.1/DTD/svg11.dtd">
<svg xmlns:xlink="http://www.w3.org/1999/xlink" width="1152pt" height="576pt" viewBox="0 0 1152 576" xmlns="http://www.w3.org/2000/svg" version="1.1">
 <metadata>
  <rdf:RDF xmlns:dc="http://purl.org/dc/elements/1.1/" xmlns:cc="http://creativecommons.org/ns#" xmlns:rdf="http://www.w3.org/1999/02/22-rdf-syntax-ns#">
   <cc:Work>
    <dc:type rdf:resource="http://purl.org/dc/dcmitype/StillImage"/>
    <dc:date>2024-08-30T13:00:10.601515</dc:date>
    <dc:format>image/svg+xml</dc:format>
    <dc:creator>
     <cc:Agent>
      <dc:title>Matplotlib v3.7.1, https://matplotlib.org/</dc:title>
     </cc:Agent>
    </dc:creator>
   </cc:Work>
  </rdf:RDF>
 </metadata>
 <defs>
  <style type="text/css">*{stroke-linejoin: round; stroke-linecap: butt}</style>
 </defs>
 <g id="figure_1">
  <g id="patch_1">
   <path d="M 0 576 
L 1152 576 
L 1152 0 
L 0 0 
z
" style="fill: #ffffff"/>
  </g>
  <g id="axes_1">
   <g id="patch_2">
    <path d="M 80.03 489.832 
L 1141.2 489.832 
L 1141.2 10.8 
L 80.03 10.8 
z
" style="fill: #ffffff"/>
   </g>
   <g id="PolyCollection_1">
    <defs>
     <path id="md645082aab" d="M 128.265 -145.646918 
L 128.265 -128.637394 
L 148.790532 -129.91913 
L 169.316064 -127.141054 
L 189.841596 -111.521776 
L 210.367128 -114.889533 
L 230.89266 -131.92415 
L 251.418191 -134.223017 
L 271.943723 -123.491631 
L 292.469255 -133.086177 
L 312.994787 -128.080412 
L 333.520319 -130.967575 
L 354.045851 -125.778018 
L 374.571383 -109.765676 
L 395.096915 -119.432818 
L 415.622447 -124.703887 
L 436.147979 -116.626962 
L 456.673511 -130.408118 
L 477.199043 -142.094432 
L 497.724574 -123.529452 
L 518.250106 -107.942182 
L 538.775638 -128.631235 
L 559.30117 -119.152879 
L 579.826702 -119.181746 
L 600.352234 -137.772615 
L 620.877766 -123.455768 
L 641.403298 -134.106005 
L 661.92883 -139.580734 
L 682.454362 -135.508 
L 702.979894 -131.311596 
L 723.505426 -132.815265 
L 744.030957 -128.572136 
L 764.556489 -122.921861 
L 785.082021 -123.817801 
L 805.607553 -116.184081 
L 826.133085 -128.489143 
L 846.658617 -120.388849 
L 867.184149 -120.137413 
L 887.709681 -131.174736 
L 908.235213 -130.650326 
L 928.760745 -123.431149 
L 949.286277 -123.431149 
L 969.811809 -130.787376 
L 990.33734 -148.05479 
L 1010.862872 -148.05479 
L 1031.388404 -123.431149 
L 1051.913936 -123.431149 
L 1072.439468 -123.431149 
L 1092.965 -126.876235 
L 1092.965 -167.307777 
L 1092.965 -167.307777 
L 1072.439468 -167.307777 
L 1051.913936 -154.896137 
L 1031.388404 -151.401721 
L 1010.862872 -151.401721 
L 990.33734 -151.401721 
L 969.811809 -167.307777 
L 949.286277 -167.307777 
L 928.760745 -167.307777 
L 908.235213 -143.999542 
L 887.709681 -150.024475 
L 867.184149 -143.454637 
L 846.658617 -143.454637 
L 826.133085 -150.024475 
L 805.607553 -150.024475 
L 785.082021 -137.288409 
L 764.556489 -137.288409 
L 744.030957 -138.098197 
L 723.505426 -137.507937 
L 702.979894 -153.656289 
L 682.454362 -166.888632 
L 661.92883 -153.569853 
L 641.403298 -148.002438 
L 620.877766 -152.046992 
L 600.352234 -148.002438 
L 579.826702 -144.278795 
L 559.30117 -150.500486 
L 538.775638 -150.399313 
L 518.250106 -150.399313 
L 497.724574 -144.785672 
L 477.199043 -152.619735 
L 456.673511 -148.317392 
L 436.147979 -148.317392 
L 415.622447 -148.150451 
L 395.096915 -149.629016 
L 374.571383 -146.504326 
L 354.045851 -146.606545 
L 333.520319 -136.335826 
L 312.994787 -150.237646 
L 292.469255 -151.253206 
L 271.943723 -134.967791 
L 251.418191 -145.01334 
L 230.89266 -140.56182 
L 210.367128 -139.500766 
L 189.841596 -131.402164 
L 169.316064 -138.612542 
L 148.790532 -133.952423 
L 128.265 -145.646918 
z
" style="stroke: #f77189; stroke-opacity: 0.2"/>
    </defs>
    <g clip-path="url(#p58da1c7636)">
     <use xlink:href="#md645082aab" x="0" y="576" style="fill: #f77189; fill-opacity: 0.2; stroke: #f77189; stroke-opacity: 0.2"/>
    </g>
   </g>
   <g id="PolyCollection_2">
    <defs>
     <path id="m5a3604831f" d="M 128.265 -159.854636 
L 128.265 -148.362039 
L 148.790532 -133.474739 
L 169.316064 -141.003688 
L 189.841596 -125.026175 
L 210.367128 -146.94741 
L 230.89266 -147.14857 
L 251.418191 -148.404351 
L 271.943723 -129.171386 
L 292.469255 -147.899492 
L 312.994787 -141.290781 
L 333.520319 -144.926181 
L 354.045851 -140.071805 
L 374.571383 -123.749988 
L 395.096915 -137.970441 
L 415.622447 -113.048198 
L 436.147979 -115.040083 
L 456.673511 -125.710834 
L 477.199043 -128.017735 
L 497.724574 -130.898718 
L 518.250106 -127.450642 
L 538.775638 -138.503321 
L 559.30117 -135.081896 
L 579.826702 -147.891699 
L 600.352234 -149.922429 
L 620.877766 -135.080872 
L 641.403298 -131.461582 
L 661.92883 -131.461582 
L 682.454362 -137.29336 
L 702.979894 -122.100049 
L 723.505426 -117.840099 
L 744.030957 -127.999141 
L 764.556489 -134.901145 
L 785.082021 -134.901145 
L 805.607553 -129.739333 
L 826.133085 -120.219359 
L 846.658617 -139.236289 
L 867.184149 -131.628533 
L 887.709681 -126.091015 
L 908.235213 -127.298843 
L 928.760745 -137.024796 
L 949.286277 -137.024796 
L 969.811809 -155.367669 
L 990.33734 -150.190882 
L 1010.862872 -150.190882 
L 1031.388404 -137.024796 
L 1051.913936 -137.024796 
L 1072.439468 -137.024796 
L 1092.965 -137.651133 
L 1092.965 -181.295711 
L 1092.965 -181.295711 
L 1072.439468 -181.295711 
L 1051.913936 -181.295711 
L 1031.388404 -175.945433 
L 1010.862872 -178.722218 
L 990.33734 -178.722218 
L 969.811809 -194.686092 
L 949.286277 -160.344712 
L 928.760745 -160.344712 
L 908.235213 -158.153297 
L 887.709681 -157.536128 
L 867.184149 -157.536128 
L 846.658617 -157.536128 
L 826.133085 -175.393249 
L 805.607553 -156.009912 
L 785.082021 -157.604677 
L 764.556489 -157.604677 
L 744.030957 -162.914732 
L 723.505426 -177.911178 
L 702.979894 -170.898141 
L 682.454362 -159.966631 
L 661.92883 -156.939661 
L 641.403298 -167.709768 
L 620.877766 -167.709768 
L 600.352234 -167.709768 
L 579.826702 -168.025537 
L 559.30117 -155.751828 
L 538.775638 -179.472588 
L 518.250106 -147.233494 
L 497.724574 -162.748378 
L 477.199043 -171.921008 
L 456.673511 -167.147618 
L 436.147979 -167.147618 
L 415.622447 -149.586483 
L 395.096915 -161.48128 
L 374.571383 -168.894179 
L 354.045851 -146.973271 
L 333.520319 -151.837072 
L 312.994787 -157.910717 
L 292.469255 -156.796824 
L 271.943723 -154.148311 
L 251.418191 -171.194907 
L 230.89266 -160.743436 
L 210.367128 -152.82923 
L 189.841596 -156.902028 
L 169.316064 -163.223699 
L 148.790532 -145.700395 
L 128.265 -159.854636 
z
" style="stroke: #e18632; stroke-opacity: 0.2"/>
    </defs>
    <g clip-path="url(#p58da1c7636)">
     <use xlink:href="#m5a3604831f" x="0" y="576" style="fill: #e18632; fill-opacity: 0.2; stroke: #e18632; stroke-opacity: 0.2"/>
    </g>
   </g>
   <g id="PolyCollection_3">
    <defs>
     <path id="mfe758593ea" d="M 128.265 -179.634825 
L 128.265 -159.370847 
L 148.790532 -163.237407 
L 169.316064 -164.979833 
L 189.841596 -153.627133 
L 210.367128 -156.185039 
L 230.89266 -166.107954 
L 251.418191 -172.635338 
L 271.943723 -151.529661 
L 292.469255 -176.935774 
L 312.994787 -178.354727 
L 333.520319 -156.843747 
L 354.045851 -151.716014 
L 374.571383 -137.427002 
L 395.096915 -153.702778 
L 415.622447 -166.308338 
L 436.147979 -156.41393 
L 456.673511 -167.509754 
L 477.199043 -181.28535 
L 497.724574 -164.543675 
L 518.250106 -147.139004 
L 538.775638 -155.617568 
L 559.30117 -151.470528 
L 579.826702 -140.950252 
L 600.352234 -185.198767 
L 620.877766 -163.890818 
L 641.403298 -154.587522 
L 661.92883 -181.413864 
L 682.454362 -178.578195 
L 702.979894 -160.74523 
L 723.505426 -160.686946 
L 744.030957 -164.448652 
L 764.556489 -148.546987 
L 785.082021 -150.967696 
L 805.607553 -154.021387 
L 826.133085 -163.63555 
L 846.658617 -166.053107 
L 867.184149 -166.053107 
L 887.709681 -166.053107 
L 908.235213 -173.833077 
L 928.760745 -148.302558 
L 949.286277 -148.302558 
L 969.811809 -148.302558 
L 990.33734 -161.341091 
L 1010.862872 -161.341091 
L 1031.388404 -161.341091 
L 1051.913936 -164.275958 
L 1072.439468 -164.275958 
L 1092.965 -163.844059 
L 1092.965 -220.708959 
L 1092.965 -220.708959 
L 1072.439468 -220.708959 
L 1051.913936 -220.708959 
L 1031.388404 -192.082148 
L 1010.862872 -206.221692 
L 990.33734 -206.221692 
L 969.811809 -220.708959 
L 949.286277 -220.708959 
L 928.760745 -220.708959 
L 908.235213 -183.644638 
L 887.709681 -204.755694 
L 867.184149 -187.272563 
L 846.658617 -181.34132 
L 826.133085 -204.755694 
L 805.607553 -195.1775 
L 785.082021 -176.69438 
L 764.556489 -176.69438 
L 744.030957 -192.958009 
L 723.505426 -190.0652 
L 702.979894 -194.559632 
L 682.454362 -228.297758 
L 661.92883 -219.626031 
L 641.403298 -196.86033 
L 620.877766 -210.925144 
L 600.352234 -196.86033 
L 579.826702 -196.793093 
L 559.30117 -195.554802 
L 538.775638 -190.512458 
L 518.250106 -190.512458 
L 497.724574 -190.512458 
L 477.199043 -214.613491 
L 456.673511 -197.652612 
L 436.147979 -197.652612 
L 415.622447 -192.152107 
L 395.096915 -185.667099 
L 374.571383 -188.1231 
L 354.045851 -197.929489 
L 333.520319 -191.775023 
L 312.994787 -198.635745 
L 292.469255 -207.425611 
L 271.943723 -185.614524 
L 251.418191 -195.466735 
L 230.89266 -187.576823 
L 210.367128 -173.102779 
L 189.841596 -169.451619 
L 169.316064 -171.814742 
L 148.790532 -177.552726 
L 128.265 -179.634825 
z
" style="stroke: #b59a32; stroke-opacity: 0.2"/>
    </defs>
    <g clip-path="url(#p58da1c7636)">
     <use xlink:href="#mfe758593ea" x="0" y="576" style="fill: #b59a32; fill-opacity: 0.2; stroke: #b59a32; stroke-opacity: 0.2"/>
    </g>
   </g>
   <g id="PolyCollection_4">
    <defs>
     <path id="m1a1500fd12" d="M 128.265 -205.966575 
L 128.265 -167.537614 
L 148.790532 -140.285019 
L 169.316064 -169.890233 
L 189.841596 -153.948496 
L 210.367128 -156.793824 
L 230.89266 -178.485096 
L 251.418191 -164.840774 
L 271.943723 -158.707364 
L 292.469255 -152.217415 
L 312.994787 -158.343854 
L 333.520319 -154.782021 
L 354.045851 -146.902655 
L 374.571383 -136.300842 
L 395.096915 -149.300416 
L 415.622447 -137.736839 
L 436.147979 -135.614788 
L 456.673511 -143.340228 
L 477.199043 -153.004918 
L 497.724574 -154.943242 
L 518.250106 -133.848804 
L 538.775638 -152.112928 
L 559.30117 -154.752035 
L 579.826702 -140.072234 
L 600.352234 -153.573338 
L 620.877766 -161.416849 
L 641.403298 -171.020196 
L 661.92883 -173.445112 
L 682.454362 -156.66101 
L 702.979894 -164.564869 
L 723.505426 -140.397498 
L 744.030957 -146.867184 
L 764.556489 -155.456133 
L 785.082021 -145.468889 
L 805.607553 -155.330588 
L 826.133085 -148.446706 
L 846.658617 -148.062312 
L 867.184149 -153.557002 
L 887.709681 -156.365975 
L 908.235213 -158.135879 
L 928.760745 -170.181918 
L 949.286277 -170.181918 
L 969.811809 -178.658236 
L 990.33734 -209.318067 
L 1010.862872 -209.318067 
L 1031.388404 -170.181918 
L 1051.913936 -170.181918 
L 1072.439468 -170.181918 
L 1092.965 -178.658236 
L 1092.965 -189.218717 
L 1092.965 -189.218717 
L 1072.439468 -189.218717 
L 1051.913936 -189.218717 
L 1031.388404 -210.616289 
L 1010.862872 -215.681877 
L 990.33734 -215.681877 
L 969.811809 -221.20083 
L 949.286277 -189.463831 
L 928.760745 -189.463831 
L 908.235213 -181.414964 
L 887.709681 -173.581531 
L 867.184149 -173.581531 
L 846.658617 -173.581531 
L 826.133085 -173.286284 
L 805.607553 -163.956771 
L 785.082021 -174.741287 
L 764.556489 -174.741287 
L 744.030957 -172.339066 
L 723.505426 -172.714958 
L 702.979894 -197.25306 
L 682.454362 -185.971579 
L 661.92883 -188.56373 
L 641.403298 -185.835853 
L 620.877766 -174.422835 
L 600.352234 -171.020196 
L 579.826702 -187.972239 
L 559.30117 -177.818324 
L 538.775638 -179.391423 
L 518.250106 -185.415389 
L 497.724574 -180.403689 
L 477.199043 -204.875433 
L 456.673511 -175.264161 
L 436.147979 -175.264161 
L 415.622447 -169.387895 
L 395.096915 -183.858605 
L 374.571383 -182.154323 
L 354.045851 -165.721399 
L 333.520319 -193.656028 
L 312.994787 -181.945333 
L 292.469255 -191.825935 
L 271.943723 -177.391935 
L 251.418191 -195.39993 
L 230.89266 -202.286324 
L 210.367128 -185.397831 
L 189.841596 -193.567574 
L 169.316064 -192.239986 
L 148.790532 -174.150664 
L 128.265 -205.966575 
z
" style="stroke: #8ba731; stroke-opacity: 0.2"/>
    </defs>
    <g clip-path="url(#p58da1c7636)">
     <use xlink:href="#m1a1500fd12" x="0" y="576" style="fill: #8ba731; fill-opacity: 0.2; stroke: #8ba731; stroke-opacity: 0.2"/>
    </g>
   </g>
   <g id="PolyCollection_5">
    <defs>
     <path id="mc5f72f56f3" d="M 128.265 -227.18294 
L 128.265 -182.456202 
L 148.790532 -156.724743 
L 169.316064 -164.594609 
L 189.841596 -205.00939 
L 210.367128 -153.297863 
L 230.89266 -179.185707 
L 251.418191 -175.389582 
L 271.943723 -171.669855 
L 292.469255 -176.411331 
L 312.994787 -183.348343 
L 333.520319 -192.959796 
L 354.045851 -180.131826 
L 374.571383 -169.805812 
L 395.096915 -167.096387 
L 415.622447 -155.437772 
L 436.147979 -177.832453 
L 456.673511 -164.272423 
L 477.199043 -175.399532 
L 497.724574 -177.236392 
L 518.250106 -186.00183 
L 538.775638 -176.544594 
L 559.30117 -189.227529 
L 579.826702 -202.727244 
L 600.352234 -189.131378 
L 620.877766 -218.462777 
L 641.403298 -194.112132 
L 661.92883 -192.747857 
L 682.454362 -199.659343 
L 702.979894 -183.679236 
L 723.505426 -175.481255 
L 744.030957 -178.151576 
L 764.556489 -180.909902 
L 785.082021 -177.946087 
L 805.607553 -176.643149 
L 826.133085 -186.94146 
L 846.658617 -181.262319 
L 867.184149 -189.634459 
L 887.709681 -158.672763 
L 908.235213 -191.064785 
L 928.760745 -182.171155 
L 949.286277 -182.171155 
L 969.811809 -182.171155 
L 990.33734 -195.73839 
L 1010.862872 -195.73839 
L 1031.388404 -189.339291 
L 1051.913936 -189.339291 
L 1072.439468 -189.339291 
L 1092.965 -182.122456 
L 1092.965 -228.387906 
L 1092.965 -228.387906 
L 1072.439468 -228.387906 
L 1051.913936 -228.387906 
L 1031.388404 -243.474131 
L 1010.862872 -243.474131 
L 990.33734 -243.474131 
L 969.811809 -243.151174 
L 949.286277 -228.387906 
L 928.760745 -228.387906 
L 908.235213 -219.108218 
L 887.709681 -213.102017 
L 867.184149 -196.011325 
L 846.658617 -210.573181 
L 826.133085 -213.102017 
L 805.607553 -213.102017 
L 785.082021 -217.117015 
L 764.556489 -217.117015 
L 744.030957 -200.130696 
L 723.505426 -227.794145 
L 702.979894 -221.573032 
L 682.454362 -226.795226 
L 661.92883 -210.882842 
L 641.403298 -236.668447 
L 620.877766 -236.668447 
L 600.352234 -236.668447 
L 579.826702 -213.707355 
L 559.30117 -202.060553 
L 538.775638 -197.90571 
L 518.250106 -197.357627 
L 497.724574 -192.656091 
L 477.199043 -188.215672 
L 456.673511 -197.515499 
L 436.147979 -199.071679 
L 415.622447 -186.474031 
L 395.096915 -202.750884 
L 374.571383 -182.8461 
L 354.045851 -220.700236 
L 333.520319 -210.773304 
L 312.994787 -205.798546 
L 292.469255 -197.111258 
L 271.943723 -189.061637 
L 251.418191 -181.580239 
L 230.89266 -199.043111 
L 210.367128 -225.489628 
L 189.841596 -226.373556 
L 169.316064 -179.351973 
L 148.790532 -184.639664 
L 128.265 -227.18294 
z
" style="stroke: #32b258; stroke-opacity: 0.2"/>
    </defs>
    <g clip-path="url(#p58da1c7636)">
     <use xlink:href="#mc5f72f56f3" x="0" y="576" style="fill: #32b258; fill-opacity: 0.2; stroke: #32b258; stroke-opacity: 0.2"/>
    </g>
   </g>
   <g id="PolyCollection_6">
    <defs>
     <path id="md3f7d5e38e" d="M 128.265 -238.94366 
L 128.265 -194.548574 
L 148.790532 -183.864863 
L 169.316064 -195.665108 
L 189.841596 -172.003943 
L 210.367128 -173.077983 
L 230.89266 -190.134959 
L 251.418191 -201.385431 
L 271.943723 -187.094049 
L 292.469255 -192.142774 
L 312.994787 -176.166343 
L 333.520319 -183.300954 
L 354.045851 -172.323137 
L 374.571383 -170.150232 
L 395.096915 -178.841536 
L 415.622447 -158.331386 
L 436.147979 -162.493394 
L 456.673511 -167.821839 
L 477.199043 -196.428916 
L 497.724574 -172.540326 
L 518.250106 -162.875302 
L 538.775638 -172.540326 
L 559.30117 -172.540326 
L 579.826702 -168.81482 
L 600.352234 -175.523496 
L 620.877766 -188.42793 
L 641.403298 -196.93486 
L 661.92883 -186.613765 
L 682.454362 -175.523208 
L 702.979894 -188.842302 
L 723.505426 -163.307411 
L 744.030957 -182.712729 
L 764.556489 -176.987531 
L 785.082021 -176.987531 
L 805.607553 -186.760738 
L 826.133085 -177.537776 
L 846.658617 -167.362781 
L 867.184149 -165.992992 
L 887.709681 -180.623627 
L 908.235213 -175.140707 
L 928.760745 -202.223271 
L 949.286277 -202.223271 
L 969.811809 -202.223271 
L 990.33734 -221.831818 
L 1010.862872 -221.831818 
L 1031.388404 -203.459163 
L 1051.913936 -202.223271 
L 1072.439468 -202.223271 
L 1092.965 -201.261355 
L 1092.965 -236.077908 
L 1092.965 -236.077908 
L 1072.439468 -236.077908 
L 1051.913936 -236.077908 
L 1031.388404 -227.876939 
L 1010.862872 -255.624225 
L 990.33734 -255.624225 
L 969.811809 -253.300916 
L 949.286277 -224.23519 
L 928.760745 -234.623204 
L 908.235213 -203.574028 
L 887.709681 -228.773346 
L 867.184149 -228.773346 
L 846.658617 -228.773346 
L 826.133085 -226.865499 
L 805.607553 -203.99981 
L 785.082021 -221.821212 
L 764.556489 -221.821212 
L 744.030957 -209.909087 
L 723.505426 -226.124395 
L 702.979894 -209.456504 
L 682.454362 -212.441913 
L 661.92883 -210.986957 
L 641.403298 -209.43287 
L 620.877766 -209.43287 
L 600.352234 -209.43287 
L 579.826702 -208.90031 
L 559.30117 -200.61205 
L 538.775638 -233.630796 
L 518.250106 -193.974453 
L 497.724574 -204.272788 
L 477.199043 -246.211691 
L 456.673511 -188.569955 
L 436.147979 -188.569955 
L 415.622447 -182.578456 
L 395.096915 -214.532702 
L 374.571383 -208.999782 
L 354.045851 -192.920571 
L 333.520319 -216.275447 
L 312.994787 -230.560281 
L 292.469255 -201.705756 
L 271.943723 -198.439756 
L 251.418191 -215.472682 
L 230.89266 -214.977505 
L 210.367128 -229.777282 
L 189.841596 -207.547317 
L 169.316064 -208.551431 
L 148.790532 -221.20246 
L 128.265 -238.94366 
z
" style="stroke: #35ae95; stroke-opacity: 0.2"/>
    </defs>
    <g clip-path="url(#p58da1c7636)">
     <use xlink:href="#md3f7d5e38e" x="0" y="576" style="fill: #35ae95; fill-opacity: 0.2; stroke: #35ae95; stroke-opacity: 0.2"/>
    </g>
   </g>
   <g id="PolyCollection_7">
    <defs>
     <path id="meecc574af2" d="M 128.265 -244.672452 
L 128.265 -213.510961 
L 148.790532 -197.100743 
L 169.316064 -218.633432 
L 189.841596 -181.329205 
L 210.367128 -211.714689 
L 230.89266 -201.651424 
L 251.418191 -221.416615 
L 271.943723 -190.954466 
L 292.469255 -183.317494 
L 312.994787 -196.864347 
L 333.520319 -183.380646 
L 354.045851 -175.256078 
L 374.571383 -158.614313 
L 395.096915 -153.524733 
L 415.622447 -148.150105 
L 436.147979 -152.208123 
L 456.673511 -159.472743 
L 477.199043 -169.092046 
L 497.724574 -173.91699 
L 518.250106 -158.019703 
L 538.775638 -173.91699 
L 559.30117 -173.91699 
L 579.826702 -170.727181 
L 600.352234 -176.511436 
L 620.877766 -187.429026 
L 641.403298 -182.186071 
L 661.92883 -182.186071 
L 682.454362 -193.970146 
L 702.979894 -199.482739 
L 723.505426 -160.414137 
L 744.030957 -172.275127 
L 764.556489 -155.796653 
L 785.082021 -155.796653 
L 805.607553 -175.886675 
L 826.133085 -175.886675 
L 846.658617 -171.575174 
L 867.184149 -155.605712 
L 887.709681 -175.886675 
L 908.235213 -179.582288 
L 928.760745 -196.78551 
L 949.286277 -196.78551 
L 969.811809 -201.901242 
L 990.33734 -215.183641 
L 1010.862872 -215.183641 
L 1031.388404 -196.78551 
L 1051.913936 -196.78551 
L 1072.439468 -196.78551 
L 1092.965 -192.684656 
L 1092.965 -228.000591 
L 1092.965 -228.000591 
L 1072.439468 -228.000591 
L 1051.913936 -228.000591 
L 1031.388404 -217.925046 
L 1010.862872 -246.685584 
L 990.33734 -246.685584 
L 969.811809 -257.213002 
L 949.286277 -233.042913 
L 928.760745 -233.042913 
L 908.235213 -220.733923 
L 887.709681 -206.263307 
L 867.184149 -206.263307 
L 846.658617 -206.263307 
L 826.133085 -191.522027 
L 805.607553 -195.600997 
L 785.082021 -204.388766 
L 764.556489 -220.578209 
L 744.030957 -191.343938 
L 723.505426 -199.805829 
L 702.979894 -218.236552 
L 682.454362 -227.141313 
L 661.92883 -239.172439 
L 641.403298 -222.914548 
L 620.877766 -222.914548 
L 600.352234 -222.914548 
L 579.826702 -232.871099 
L 559.30117 -214.478757 
L 538.775638 -233.990176 
L 518.250106 -214.612046 
L 497.724574 -183.060638 
L 477.199043 -244.02547 
L 456.673511 -174.188001 
L 436.147979 -173.550491 
L 415.622447 -165.069924 
L 395.096915 -189.934785 
L 374.571383 -203.150508 
L 354.045851 -195.858438 
L 333.520319 -208.333733 
L 312.994787 -209.605896 
L 292.469255 -226.798452 
L 271.943723 -213.632331 
L 251.418191 -234.385022 
L 230.89266 -229.658615 
L 210.367128 -221.465536 
L 189.841596 -220.073908 
L 169.316064 -232.457688 
L 148.790532 -211.135874 
L 128.265 -244.672452 
z
" style="stroke: #37abb2; stroke-opacity: 0.2"/>
    </defs>
    <g clip-path="url(#p58da1c7636)">
     <use xlink:href="#meecc574af2" x="0" y="576" style="fill: #37abb2; fill-opacity: 0.2; stroke: #37abb2; stroke-opacity: 0.2"/>
    </g>
   </g>
   <g id="PolyCollection_8">
    <defs>
     <path id="mbe6d8006da" d="M 128.265 -343.463003 
L 128.265 -263.894931 
L 148.790532 -231.760617 
L 169.316064 -293.95663 
L 189.841596 -206.75396 
L 210.367128 -243.839167 
L 230.89266 -242.541653 
L 251.418191 -242.824619 
L 271.943723 -226.525504 
L 292.469255 -249.77365 
L 312.994787 -272.448758 
L 333.520319 -241.041633 
L 354.045851 -204.561197 
L 374.571383 -226.089608 
L 395.096915 -226.856774 
L 415.622447 -215.595439 
L 436.147979 -194.683088 
L 456.673511 -196.681358 
L 477.199043 -201.654486 
L 497.724574 -194.550161 
L 518.250106 -188.308743 
L 538.775638 -224.218217 
L 559.30117 -224.218217 
L 579.826702 -218.200934 
L 600.352234 -214.551496 
L 620.877766 -251.257693 
L 641.403298 -260.584768 
L 661.92883 -232.632976 
L 682.454362 -236.980818 
L 702.979894 -246.603773 
L 723.505426 -208.946893 
L 744.030957 -211.507983 
L 764.556489 -204.094061 
L 785.082021 -204.094061 
L 805.607553 -236.704289 
L 826.133085 -210.121852 
L 846.658617 -238.990196 
L 867.184149 -219.711883 
L 887.709681 -213.70195 
L 908.235213 -253.580811 
L 928.760745 -261.121883 
L 949.286277 -261.121883 
L 969.811809 -261.121883 
L 990.33734 -270.598174 
L 1010.862872 -270.598174 
L 1031.388404 -270.598174 
L 1051.913936 -261.121883 
L 1072.439468 -261.121883 
L 1092.965 -261.121883 
L 1092.965 -342.465405 
L 1092.965 -342.465405 
L 1072.439468 -342.465405 
L 1051.913936 -342.465405 
L 1031.388404 -299.355433 
L 1010.862872 -389.574876 
L 990.33734 -389.574876 
L 969.811809 -386.545289 
L 949.286277 -345.439173 
L 928.760745 -345.439173 
L 908.235213 -309.24078 
L 887.709681 -317.230439 
L 867.184149 -356.002288 
L 846.658617 -319.75114 
L 826.133085 -334.827053 
L 805.607553 -327.675739 
L 785.082021 -326.160429 
L 764.556489 -326.160429 
L 744.030957 -325.799232 
L 723.505426 -350.145977 
L 702.979894 -358.976774 
L 682.454362 -303.512575 
L 661.92883 -329.081803 
L 641.403298 -313.766305 
L 620.877766 -313.766305 
L 600.352234 -313.766305 
L 579.826702 -321.908139 
L 559.30117 -292.357822 
L 538.775638 -358.2821 
L 518.250106 -259.047633 
L 497.724574 -232.077872 
L 477.199043 -266.76329 
L 456.673511 -264.921046 
L 436.147979 -264.921046 
L 415.622447 -228.922075 
L 395.096915 -256.002083 
L 374.571383 -262.050342 
L 354.045851 -268.857933 
L 333.520319 -303.745331 
L 312.994787 -297.690402 
L 292.469255 -301.225218 
L 271.943723 -282.88625 
L 251.418191 -323.126 
L 230.89266 -339.453054 
L 210.367128 -356.63829 
L 189.841596 -350.412165 
L 169.316064 -344.557195 
L 148.790532 -312.030006 
L 128.265 -343.463003 
z
" style="stroke: #39a7d6; stroke-opacity: 0.2"/>
    </defs>
    <g clip-path="url(#p58da1c7636)">
     <use xlink:href="#mbe6d8006da" x="0" y="576" style="fill: #39a7d6; fill-opacity: 0.2; stroke: #39a7d6; stroke-opacity: 0.2"/>
    </g>
   </g>
   <g id="PolyCollection_9">
    <defs>
     <path id="m6228dbd2ad" d="M 128.265 -376.533483 
L 128.265 -316.323423 
L 148.790532 -310.197948 
L 169.316064 -324.910727 
L 189.841596 -314.126042 
L 210.367128 -290.690872 
L 230.89266 -315.566164 
L 251.418191 -328.438736 
L 271.943723 -298.73633 
L 292.469255 -296.177791 
L 312.994787 -299.281184 
L 333.520319 -290.147473 
L 354.045851 -309.683774 
L 374.571383 -292.328599 
L 395.096915 -305.496837 
L 415.622447 -302.265114 
L 436.147979 -309.152867 
L 456.673511 -313.523557 
L 477.199043 -308.261107 
L 497.724574 -296.662185 
L 518.250106 -296.662185 
L 538.775638 -296.662185 
L 559.30117 -296.662185 
L 579.826702 -304.991965 
L 600.352234 -304.491808 
L 620.877766 -339.175176 
L 641.403298 -310.193416 
L 661.92883 -328.99435 
L 682.454362 -318.596248 
L 702.979894 -324.242053 
L 723.505426 -326.63016 
L 744.030957 -308.233045 
L 764.556489 -308.214123 
L 785.082021 -308.214123 
L 805.607553 -322.265655 
L 826.133085 -322.265655 
L 846.658617 -313.984925 
L 867.184149 -303.256943 
L 887.709681 -322.265655 
L 908.235213 -327.604749 
L 928.760745 -349.419982 
L 949.286277 -349.419982 
L 969.811809 -349.419982 
L 990.33734 -346.838335 
L 1010.862872 -346.838335 
L 1031.388404 -346.838335 
L 1051.913936 -349.419982 
L 1072.439468 -351.928234 
L 1092.965 -349.419982 
L 1092.965 -357.72081 
L 1092.965 -357.72081 
L 1072.439468 -357.72081 
L 1051.913936 -357.72081 
L 1031.388404 -385.638924 
L 1010.862872 -393.160188 
L 990.33734 -393.160188 
L 969.811809 -394.459585 
L 949.286277 -360.874862 
L 928.760745 -360.874862 
L 908.235213 -349.253076 
L 887.709681 -352.5594 
L 867.184149 -353.938977 
L 846.658617 -352.759639 
L 826.133085 -354.38161 
L 805.607553 -343.626878 
L 785.082021 -339.041427 
L 764.556489 -348.039117 
L 744.030957 -347.9529 
L 723.505426 -365.47952 
L 702.979894 -354.330101 
L 682.454362 -373.506522 
L 661.92883 -365.596602 
L 641.403298 -365.596602 
L 620.877766 -352.12509 
L 600.352234 -352.12509 
L 579.826702 -351.2626 
L 559.30117 -353.202266 
L 538.775638 -377.671361 
L 518.250106 -336.322329 
L 497.724574 -317.040508 
L 477.199043 -327.446253 
L 456.673511 -319.024431 
L 436.147979 -319.024431 
L 415.622447 -318.247201 
L 395.096915 -334.184592 
L 374.571383 -346.32078 
L 354.045851 -341.573418 
L 333.520319 -349.178841 
L 312.994787 -345.87557 
L 292.469255 -351.744866 
L 271.943723 -348.298283 
L 251.418191 -376.278951 
L 230.89266 -387.250248 
L 210.367128 -403.706526 
L 189.841596 -378.676242 
L 169.316064 -360.106455 
L 148.790532 -347.14657 
L 128.265 -376.533483 
z
" style="stroke: #8f93f4; stroke-opacity: 0.2"/>
    </defs>
    <g clip-path="url(#p58da1c7636)">
     <use xlink:href="#m6228dbd2ad" x="0" y="576" style="fill: #8f93f4; fill-opacity: 0.2; stroke: #8f93f4; stroke-opacity: 0.2"/>
    </g>
   </g>
   <g id="PolyCollection_10">
    <defs>
     <path id="m20f732be94" d="M 128.265 -376.548435 
L 128.265 -316.334566 
L 148.790532 -310.202082 
L 169.316064 -324.915405 
L 189.841596 -314.122349 
L 210.367128 -309.494408 
L 230.89266 -315.569399 
L 251.418191 -328.454374 
L 271.943723 -298.725417 
L 292.469255 -296.199692 
L 312.994787 -299.30586 
L 333.520319 -290.194209 
L 354.045851 -309.693727 
L 374.571383 -292.35534 
L 395.096915 -305.522393 
L 415.622447 -302.292894 
L 436.147979 -309.190554 
L 456.673511 -313.511452 
L 477.199043 -308.255185 
L 497.724574 -296.680799 
L 518.250106 -296.680799 
L 538.775638 -296.680799 
L 559.30117 -296.680799 
L 579.826702 -305.006368 
L 600.352234 -304.5129 
L 620.877766 -339.115579 
L 641.403298 -310.253364 
L 661.92883 -328.973542 
L 682.454362 -318.582746 
L 702.979894 -324.215609 
L 723.505426 -326.655881 
L 744.030957 -308.182976 
L 764.556489 -308.203858 
L 785.082021 -308.203858 
L 805.607553 -322.236882 
L 826.133085 -322.236882 
L 846.658617 -313.929444 
L 867.184149 -303.219992 
L 887.709681 -322.236882 
L 908.235213 -319.631859 
L 928.760745 -349.383595 
L 949.286277 -349.383595 
L 969.811809 -349.383595 
L 990.33734 -346.785263 
L 1010.862872 -346.785263 
L 1031.388404 -346.785263 
L 1051.913936 -349.383595 
L 1072.439468 -349.383595 
L 1092.965 -349.383595 
L 1092.965 -357.695482 
L 1092.965 -357.695482 
L 1072.439468 -357.695482 
L 1051.913936 -357.695482 
L 1031.388404 -385.617924 
L 1010.862872 -393.10706 
L 990.33734 -393.10706 
L 969.811809 -394.442662 
L 949.286277 -360.855039 
L 928.760745 -360.855039 
L 908.235213 -349.252619 
L 887.709681 -352.541198 
L 867.184149 -353.938104 
L 846.658617 -350.988867 
L 826.133085 -354.369599 
L 805.607553 -347.967942 
L 785.082021 -339.019626 
L 764.556489 -348.051036 
L 744.030957 -347.934023 
L 723.505426 -365.48602 
L 702.979894 -354.280061 
L 682.454362 -373.49197 
L 661.92883 -365.575147 
L 641.403298 -365.575147 
L 620.877766 -352.045378 
L 600.352234 -352.045378 
L 579.826702 -351.20726 
L 559.30117 -353.184357 
L 538.775638 -377.675094 
L 518.250106 -336.354693 
L 497.724574 -317.049141 
L 477.199043 -327.477099 
L 456.673511 -319.012013 
L 436.147979 -319.012013 
L 415.622447 -315.399298 
L 395.096915 -341.123535 
L 374.571383 -346.354832 
L 354.045851 -341.591369 
L 333.520319 -354.829772 
L 312.994787 -345.887116 
L 292.469255 -351.720178 
L 271.943723 -348.271677 
L 251.418191 -376.2344 
L 230.89266 -387.229179 
L 210.367128 -403.651799 
L 189.841596 -378.641475 
L 169.316064 -360.125922 
L 148.790532 -347.12759 
L 128.265 -376.548435 
z
" style="stroke: #db70f4; stroke-opacity: 0.2"/>
    </defs>
    <g clip-path="url(#p58da1c7636)">
     <use xlink:href="#m20f732be94" x="0" y="576" style="fill: #db70f4; fill-opacity: 0.2; stroke: #db70f4; stroke-opacity: 0.2"/>
    </g>
   </g>
   <g id="PolyCollection_11">
    <defs>
     <path id="meac15500c8" d="M 128.265 -323.178343 
L 128.265 -298.12842 
L 148.790532 -281.987694 
L 169.316064 -317.831529 
L 189.841596 -283.941912 
L 210.367128 -316.779287 
L 230.89266 -305.94682 
L 251.418191 -304.932629 
L 271.943723 -283.12904 
L 292.469255 -307.860271 
L 312.994787 -367.621173 
L 333.520319 -341.452665 
L 354.045851 -304.088656 
L 374.571383 -393.863894 
L 395.096915 -258.826425 
L 415.622447 -339.998104 
L 436.147979 -314.383035 
L 456.673511 -346.203295 
L 477.199043 -307.373213 
L 497.724574 -282.621971 
L 518.250106 -282.621971 
L 538.775638 -282.621971 
L 559.30117 -282.621971 
L 579.826702 -298.1976 
L 600.352234 -237.200497 
L 620.877766 -313.82482 
L 641.403298 -322.981363 
L 661.92883 -322.981363 
L 682.454362 -341.832314 
L 702.979894 -221.887553 
L 723.505426 -288.342158 
L 744.030957 -298.408943 
L 764.556489 -335.681078 
L 785.082021 -307.772962 
L 805.607553 -315.000439 
L 826.133085 -265.230593 
L 846.658617 -319.802511 
L 867.184149 -288.399571 
L 887.709681 -320.66023 
L 908.235213 -314.074812 
L 928.760745 -264.909837 
L 949.286277 -294.843347 
L 969.811809 -264.909837 
L 990.33734 -313.856845 
L 1010.862872 -313.856845 
L 1031.388404 -313.856845 
L 1051.913936 -281.84222 
L 1072.439468 -281.84222 
L 1092.965 -263.803405 
L 1092.965 -372.715456 
L 1092.965 -372.715456 
L 1072.439468 -367.612139 
L 1051.913936 -372.715456 
L 1031.388404 -360.542397 
L 1010.862872 -393.087742 
L 990.33734 -393.087742 
L 969.811809 -445.720987 
L 949.286277 -372.715456 
L 928.760745 -372.715456 
L 908.235213 -400.382073 
L 887.709681 -431.875343 
L 867.184149 -423.833497 
L 846.658617 -401.636537 
L 826.133085 -431.875343 
L 805.607553 -431.875343 
L 785.082021 -406.102118 
L 764.556489 -406.102118 
L 744.030957 -419.071302 
L 723.505426 -350.264996 
L 702.979894 -391.492497 
L 682.454362 -357.480074 
L 661.92883 -399.118937 
L 641.403298 -417.880381 
L 620.877766 -341.265883 
L 600.352234 -368.137611 
L 579.826702 -387.525804 
L 559.30117 -357.95605 
L 538.775638 -316.903855 
L 518.250106 -362.920428 
L 497.724574 -345.607318 
L 477.199043 -543.425818 
L 456.673511 -408.283071 
L 436.147979 -346.203295 
L 415.622447 -355.040006 
L 395.096915 -422.364828 
L 374.571383 -421.539028 
L 354.045851 -385.304449 
L 333.520319 -420.428339 
L 312.994787 -439.577474 
L 292.469255 -451.668447 
L 271.943723 -413.911579 
L 251.418191 -439.243072 
L 230.89266 -417.683984 
L 210.367128 -394.032368 
L 189.841596 -371.042942 
L 169.316064 -442.921925 
L 148.790532 -432.664011 
L 128.265 -323.178343 
z
" style="stroke: #f667c6; stroke-opacity: 0.2"/>
    </defs>
    <g clip-path="url(#p58da1c7636)">
     <use xlink:href="#meac15500c8" x="0" y="576" style="fill: #f667c6; fill-opacity: 0.2; stroke: #f667c6; stroke-opacity: 0.2"/>
    </g>
   </g>
   <g id="matplotlib.axis_1">
    <g id="xtick_1">
     <g id="line2d_1">
      <defs>
       <path id="ma36b7bb62b" d="M 0 0 
L 0 3.5 
" style="stroke: #000000; stroke-width: 0.8"/>
      </defs>
      <g>
       <use xlink:href="#ma36b7bb62b" x="118.002234" y="489.832" style="stroke: #000000; stroke-width: 0.8"/>
      </g>
     </g>
     <g id="text_1">
      <!-- 0 -->
      <g transform="translate(111.639734 512.028875) scale(0.2 -0.2)">
       <defs>
        <path id="DejaVuSans-30" d="M 2034 4250 
Q 1547 4250 1301 3770 
Q 1056 3291 1056 2328 
Q 1056 1369 1301 889 
Q 1547 409 2034 409 
Q 2525 409 2770 889 
Q 3016 1369 3016 2328 
Q 3016 3291 2770 3770 
Q 2525 4250 2034 4250 
z
M 2034 4750 
Q 2819 4750 3233 4129 
Q 3647 3509 3647 2328 
Q 3647 1150 3233 529 
Q 2819 -91 2034 -91 
Q 1250 -91 836 529 
Q 422 1150 422 2328 
Q 422 3509 836 4129 
Q 1250 4750 2034 4750 
z
" transform="scale(0.015625)"/>
       </defs>
       <use xlink:href="#DejaVuSans-30"/>
      </g>
     </g>
    </g>
    <g id="xtick_2">
     <g id="line2d_2">
      <g>
       <use xlink:href="#ma36b7bb62b" x="323.257553" y="489.832" style="stroke: #000000; stroke-width: 0.8"/>
      </g>
     </g>
     <g id="text_2">
      <!-- 20 -->
      <g transform="translate(310.532553 512.028875) scale(0.2 -0.2)">
       <defs>
        <path id="DejaVuSans-32" d="M 1228 531 
L 3431 531 
L 3431 0 
L 469 0 
L 469 531 
Q 828 903 1448 1529 
Q 2069 2156 2228 2338 
Q 2531 2678 2651 2914 
Q 2772 3150 2772 3378 
Q 2772 3750 2511 3984 
Q 2250 4219 1831 4219 
Q 1534 4219 1204 4116 
Q 875 4013 500 3803 
L 500 4441 
Q 881 4594 1212 4672 
Q 1544 4750 1819 4750 
Q 2544 4750 2975 4387 
Q 3406 4025 3406 3419 
Q 3406 3131 3298 2873 
Q 3191 2616 2906 2266 
Q 2828 2175 2409 1742 
Q 1991 1309 1228 531 
z
" transform="scale(0.015625)"/>
       </defs>
       <use xlink:href="#DejaVuSans-32"/>
       <use xlink:href="#DejaVuSans-30" x="63.623047"/>
      </g>
     </g>
    </g>
    <g id="xtick_3">
     <g id="line2d_3">
      <g>
       <use xlink:href="#ma36b7bb62b" x="528.512872" y="489.832" style="stroke: #000000; stroke-width: 0.8"/>
      </g>
     </g>
     <g id="text_3">
      <!-- 40 -->
      <g transform="translate(515.787872 512.028875) scale(0.2 -0.2)">
       <defs>
        <path id="DejaVuSans-34" d="M 2419 4116 
L 825 1625 
L 2419 1625 
L 2419 4116 
z
M 2253 4666 
L 3047 4666 
L 3047 1625 
L 3713 1625 
L 3713 1100 
L 3047 1100 
L 3047 0 
L 2419 0 
L 2419 1100 
L 313 1100 
L 313 1709 
L 2253 4666 
z
" transform="scale(0.015625)"/>
       </defs>
       <use xlink:href="#DejaVuSans-34"/>
       <use xlink:href="#DejaVuSans-30" x="63.623047"/>
      </g>
     </g>
    </g>
    <g id="xtick_4">
     <g id="line2d_4">
      <g>
       <use xlink:href="#ma36b7bb62b" x="733.768191" y="489.832" style="stroke: #000000; stroke-width: 0.8"/>
      </g>
     </g>
     <g id="text_4">
      <!-- 60 -->
      <g transform="translate(721.043191 512.028875) scale(0.2 -0.2)">
       <defs>
        <path id="DejaVuSans-36" d="M 2113 2584 
Q 1688 2584 1439 2293 
Q 1191 2003 1191 1497 
Q 1191 994 1439 701 
Q 1688 409 2113 409 
Q 2538 409 2786 701 
Q 3034 994 3034 1497 
Q 3034 2003 2786 2293 
Q 2538 2584 2113 2584 
z
M 3366 4563 
L 3366 3988 
Q 3128 4100 2886 4159 
Q 2644 4219 2406 4219 
Q 1781 4219 1451 3797 
Q 1122 3375 1075 2522 
Q 1259 2794 1537 2939 
Q 1816 3084 2150 3084 
Q 2853 3084 3261 2657 
Q 3669 2231 3669 1497 
Q 3669 778 3244 343 
Q 2819 -91 2113 -91 
Q 1303 -91 875 529 
Q 447 1150 447 2328 
Q 447 3434 972 4092 
Q 1497 4750 2381 4750 
Q 2619 4750 2861 4703 
Q 3103 4656 3366 4563 
z
" transform="scale(0.015625)"/>
       </defs>
       <use xlink:href="#DejaVuSans-36"/>
       <use xlink:href="#DejaVuSans-30" x="63.623047"/>
      </g>
     </g>
    </g>
    <g id="xtick_5">
     <g id="line2d_5">
      <g>
       <use xlink:href="#ma36b7bb62b" x="939.023511" y="489.832" style="stroke: #000000; stroke-width: 0.8"/>
      </g>
     </g>
     <g id="text_5">
      <!-- 80 -->
      <g transform="translate(926.298511 512.028875) scale(0.2 -0.2)">
       <defs>
        <path id="DejaVuSans-38" d="M 2034 2216 
Q 1584 2216 1326 1975 
Q 1069 1734 1069 1313 
Q 1069 891 1326 650 
Q 1584 409 2034 409 
Q 2484 409 2743 651 
Q 3003 894 3003 1313 
Q 3003 1734 2745 1975 
Q 2488 2216 2034 2216 
z
M 1403 2484 
Q 997 2584 770 2862 
Q 544 3141 544 3541 
Q 544 4100 942 4425 
Q 1341 4750 2034 4750 
Q 2731 4750 3128 4425 
Q 3525 4100 3525 3541 
Q 3525 3141 3298 2862 
Q 3072 2584 2669 2484 
Q 3125 2378 3379 2068 
Q 3634 1759 3634 1313 
Q 3634 634 3220 271 
Q 2806 -91 2034 -91 
Q 1263 -91 848 271 
Q 434 634 434 1313 
Q 434 1759 690 2068 
Q 947 2378 1403 2484 
z
M 1172 3481 
Q 1172 3119 1398 2916 
Q 1625 2713 2034 2713 
Q 2441 2713 2670 2916 
Q 2900 3119 2900 3481 
Q 2900 3844 2670 4047 
Q 2441 4250 2034 4250 
Q 1625 4250 1398 4047 
Q 1172 3844 1172 3481 
z
" transform="scale(0.015625)"/>
       </defs>
       <use xlink:href="#DejaVuSans-38"/>
       <use xlink:href="#DejaVuSans-30" x="63.623047"/>
      </g>
     </g>
    </g>
    <g id="text_6">
     <!-- Percentile Threshold -->
     <g transform="translate(508.835312 535.385125) scale(0.2 -0.2)">
      <defs>
       <path id="DejaVuSans-50" d="M 1259 4147 
L 1259 2394 
L 2053 2394 
Q 2494 2394 2734 2622 
Q 2975 2850 2975 3272 
Q 2975 3691 2734 3919 
Q 2494 4147 2053 4147 
L 1259 4147 
z
M 628 4666 
L 2053 4666 
Q 2838 4666 3239 4311 
Q 3641 3956 3641 3272 
Q 3641 2581 3239 2228 
Q 2838 1875 2053 1875 
L 1259 1875 
L 1259 0 
L 628 0 
L 628 4666 
z
" transform="scale(0.015625)"/>
       <path id="DejaVuSans-65" d="M 3597 1894 
L 3597 1613 
L 953 1613 
Q 991 1019 1311 708 
Q 1631 397 2203 397 
Q 2534 397 2845 478 
Q 3156 559 3463 722 
L 3463 178 
Q 3153 47 2828 -22 
Q 2503 -91 2169 -91 
Q 1331 -91 842 396 
Q 353 884 353 1716 
Q 353 2575 817 3079 
Q 1281 3584 2069 3584 
Q 2775 3584 3186 3129 
Q 3597 2675 3597 1894 
z
M 3022 2063 
Q 3016 2534 2758 2815 
Q 2500 3097 2075 3097 
Q 1594 3097 1305 2825 
Q 1016 2553 972 2059 
L 3022 2063 
z
" transform="scale(0.015625)"/>
       <path id="DejaVuSans-72" d="M 2631 2963 
Q 2534 3019 2420 3045 
Q 2306 3072 2169 3072 
Q 1681 3072 1420 2755 
Q 1159 2438 1159 1844 
L 1159 0 
L 581 0 
L 581 3500 
L 1159 3500 
L 1159 2956 
Q 1341 3275 1631 3429 
Q 1922 3584 2338 3584 
Q 2397 3584 2469 3576 
Q 2541 3569 2628 3553 
L 2631 2963 
z
" transform="scale(0.015625)"/>
       <path id="DejaVuSans-63" d="M 3122 3366 
L 3122 2828 
Q 2878 2963 2633 3030 
Q 2388 3097 2138 3097 
Q 1578 3097 1268 2742 
Q 959 2388 959 1747 
Q 959 1106 1268 751 
Q 1578 397 2138 397 
Q 2388 397 2633 464 
Q 2878 531 3122 666 
L 3122 134 
Q 2881 22 2623 -34 
Q 2366 -91 2075 -91 
Q 1284 -91 818 406 
Q 353 903 353 1747 
Q 353 2603 823 3093 
Q 1294 3584 2113 3584 
Q 2378 3584 2631 3529 
Q 2884 3475 3122 3366 
z
" transform="scale(0.015625)"/>
       <path id="DejaVuSans-6e" d="M 3513 2113 
L 3513 0 
L 2938 0 
L 2938 2094 
Q 2938 2591 2744 2837 
Q 2550 3084 2163 3084 
Q 1697 3084 1428 2787 
Q 1159 2491 1159 1978 
L 1159 0 
L 581 0 
L 581 3500 
L 1159 3500 
L 1159 2956 
Q 1366 3272 1645 3428 
Q 1925 3584 2291 3584 
Q 2894 3584 3203 3211 
Q 3513 2838 3513 2113 
z
" transform="scale(0.015625)"/>
       <path id="DejaVuSans-74" d="M 1172 4494 
L 1172 3500 
L 2356 3500 
L 2356 3053 
L 1172 3053 
L 1172 1153 
Q 1172 725 1289 603 
Q 1406 481 1766 481 
L 2356 481 
L 2356 0 
L 1766 0 
Q 1100 0 847 248 
Q 594 497 594 1153 
L 594 3053 
L 172 3053 
L 172 3500 
L 594 3500 
L 594 4494 
L 1172 4494 
z
" transform="scale(0.015625)"/>
       <path id="DejaVuSans-69" d="M 603 3500 
L 1178 3500 
L 1178 0 
L 603 0 
L 603 3500 
z
M 603 4863 
L 1178 4863 
L 1178 4134 
L 603 4134 
L 603 4863 
z
" transform="scale(0.015625)"/>
       <path id="DejaVuSans-6c" d="M 603 4863 
L 1178 4863 
L 1178 0 
L 603 0 
L 603 4863 
z
" transform="scale(0.015625)"/>
       <path id="DejaVuSans-20" transform="scale(0.015625)"/>
       <path id="DejaVuSans-54" d="M -19 4666 
L 3928 4666 
L 3928 4134 
L 2272 4134 
L 2272 0 
L 1638 0 
L 1638 4134 
L -19 4134 
L -19 4666 
z
" transform="scale(0.015625)"/>
       <path id="DejaVuSans-68" d="M 3513 2113 
L 3513 0 
L 2938 0 
L 2938 2094 
Q 2938 2591 2744 2837 
Q 2550 3084 2163 3084 
Q 1697 3084 1428 2787 
Q 1159 2491 1159 1978 
L 1159 0 
L 581 0 
L 581 4863 
L 1159 4863 
L 1159 2956 
Q 1366 3272 1645 3428 
Q 1925 3584 2291 3584 
Q 2894 3584 3203 3211 
Q 3513 2838 3513 2113 
z
" transform="scale(0.015625)"/>
       <path id="DejaVuSans-73" d="M 2834 3397 
L 2834 2853 
Q 2591 2978 2328 3040 
Q 2066 3103 1784 3103 
Q 1356 3103 1142 2972 
Q 928 2841 928 2578 
Q 928 2378 1081 2264 
Q 1234 2150 1697 2047 
L 1894 2003 
Q 2506 1872 2764 1633 
Q 3022 1394 3022 966 
Q 3022 478 2636 193 
Q 2250 -91 1575 -91 
Q 1294 -91 989 -36 
Q 684 19 347 128 
L 347 722 
Q 666 556 975 473 
Q 1284 391 1588 391 
Q 1994 391 2212 530 
Q 2431 669 2431 922 
Q 2431 1156 2273 1281 
Q 2116 1406 1581 1522 
L 1381 1569 
Q 847 1681 609 1914 
Q 372 2147 372 2553 
Q 372 3047 722 3315 
Q 1072 3584 1716 3584 
Q 2034 3584 2315 3537 
Q 2597 3491 2834 3397 
z
" transform="scale(0.015625)"/>
       <path id="DejaVuSans-6f" d="M 1959 3097 
Q 1497 3097 1228 2736 
Q 959 2375 959 1747 
Q 959 1119 1226 758 
Q 1494 397 1959 397 
Q 2419 397 2687 759 
Q 2956 1122 2956 1747 
Q 2956 2369 2687 2733 
Q 2419 3097 1959 3097 
z
M 1959 3584 
Q 2709 3584 3137 3096 
Q 3566 2609 3566 1747 
Q 3566 888 3137 398 
Q 2709 -91 1959 -91 
Q 1206 -91 779 398 
Q 353 888 353 1747 
Q 353 2609 779 3096 
Q 1206 3584 1959 3584 
z
" transform="scale(0.015625)"/>
       <path id="DejaVuSans-64" d="M 2906 2969 
L 2906 4863 
L 3481 4863 
L 3481 0 
L 2906 0 
L 2906 525 
Q 2725 213 2448 61 
Q 2172 -91 1784 -91 
Q 1150 -91 751 415 
Q 353 922 353 1747 
Q 353 2572 751 3078 
Q 1150 3584 1784 3584 
Q 2172 3584 2448 3432 
Q 2725 3281 2906 2969 
z
M 947 1747 
Q 947 1113 1208 752 
Q 1469 391 1925 391 
Q 2381 391 2643 752 
Q 2906 1113 2906 1747 
Q 2906 2381 2643 2742 
Q 2381 3103 1925 3103 
Q 1469 3103 1208 2742 
Q 947 2381 947 1747 
z
" transform="scale(0.015625)"/>
      </defs>
      <use xlink:href="#DejaVuSans-50"/>
      <use xlink:href="#DejaVuSans-65" x="56.677734"/>
      <use xlink:href="#DejaVuSans-72" x="118.201172"/>
      <use xlink:href="#DejaVuSans-63" x="157.064453"/>
      <use xlink:href="#DejaVuSans-65" x="212.044922"/>
      <use xlink:href="#DejaVuSans-6e" x="273.568359"/>
      <use xlink:href="#DejaVuSans-74" x="336.947266"/>
      <use xlink:href="#DejaVuSans-69" x="376.15625"/>
      <use xlink:href="#DejaVuSans-6c" x="403.939453"/>
      <use xlink:href="#DejaVuSans-65" x="431.722656"/>
      <use xlink:href="#DejaVuSans-20" x="493.246094"/>
      <use xlink:href="#DejaVuSans-54" x="525.033203"/>
      <use xlink:href="#DejaVuSans-68" x="586.117188"/>
      <use xlink:href="#DejaVuSans-72" x="649.496094"/>
      <use xlink:href="#DejaVuSans-65" x="688.359375"/>
      <use xlink:href="#DejaVuSans-73" x="749.882812"/>
      <use xlink:href="#DejaVuSans-68" x="801.982422"/>
      <use xlink:href="#DejaVuSans-6f" x="865.361328"/>
      <use xlink:href="#DejaVuSans-6c" x="926.542969"/>
      <use xlink:href="#DejaVuSans-64" x="954.326172"/>
     </g>
     <!-- (Using "max_mean" Threshold Handling) -->
     <g transform="translate(407.085312 557.78075) scale(0.2 -0.2)">
      <defs>
       <path id="DejaVuSans-28" d="M 1984 4856 
Q 1566 4138 1362 3434 
Q 1159 2731 1159 2009 
Q 1159 1288 1364 580 
Q 1569 -128 1984 -844 
L 1484 -844 
Q 1016 -109 783 600 
Q 550 1309 550 2009 
Q 550 2706 781 3412 
Q 1013 4119 1484 4856 
L 1984 4856 
z
" transform="scale(0.015625)"/>
       <path id="DejaVuSans-55" d="M 556 4666 
L 1191 4666 
L 1191 1831 
Q 1191 1081 1462 751 
Q 1734 422 2344 422 
Q 2950 422 3222 751 
Q 3494 1081 3494 1831 
L 3494 4666 
L 4128 4666 
L 4128 1753 
Q 4128 841 3676 375 
Q 3225 -91 2344 -91 
Q 1459 -91 1007 375 
Q 556 841 556 1753 
L 556 4666 
z
" transform="scale(0.015625)"/>
       <path id="DejaVuSans-67" d="M 2906 1791 
Q 2906 2416 2648 2759 
Q 2391 3103 1925 3103 
Q 1463 3103 1205 2759 
Q 947 2416 947 1791 
Q 947 1169 1205 825 
Q 1463 481 1925 481 
Q 2391 481 2648 825 
Q 2906 1169 2906 1791 
z
M 3481 434 
Q 3481 -459 3084 -895 
Q 2688 -1331 1869 -1331 
Q 1566 -1331 1297 -1286 
Q 1028 -1241 775 -1147 
L 775 -588 
Q 1028 -725 1275 -790 
Q 1522 -856 1778 -856 
Q 2344 -856 2625 -561 
Q 2906 -266 2906 331 
L 2906 616 
Q 2728 306 2450 153 
Q 2172 0 1784 0 
Q 1141 0 747 490 
Q 353 981 353 1791 
Q 353 2603 747 3093 
Q 1141 3584 1784 3584 
Q 2172 3584 2450 3431 
Q 2728 3278 2906 2969 
L 2906 3500 
L 3481 3500 
L 3481 434 
z
" transform="scale(0.015625)"/>
       <path id="DejaVuSans-22" d="M 1147 4666 
L 1147 2931 
L 616 2931 
L 616 4666 
L 1147 4666 
z
M 2328 4666 
L 2328 2931 
L 1797 2931 
L 1797 4666 
L 2328 4666 
z
" transform="scale(0.015625)"/>
       <path id="DejaVuSans-6d" d="M 3328 2828 
Q 3544 3216 3844 3400 
Q 4144 3584 4550 3584 
Q 5097 3584 5394 3201 
Q 5691 2819 5691 2113 
L 5691 0 
L 5113 0 
L 5113 2094 
Q 5113 2597 4934 2840 
Q 4756 3084 4391 3084 
Q 3944 3084 3684 2787 
Q 3425 2491 3425 1978 
L 3425 0 
L 2847 0 
L 2847 2094 
Q 2847 2600 2669 2842 
Q 2491 3084 2119 3084 
Q 1678 3084 1418 2786 
Q 1159 2488 1159 1978 
L 1159 0 
L 581 0 
L 581 3500 
L 1159 3500 
L 1159 2956 
Q 1356 3278 1631 3431 
Q 1906 3584 2284 3584 
Q 2666 3584 2933 3390 
Q 3200 3197 3328 2828 
z
" transform="scale(0.015625)"/>
       <path id="DejaVuSans-61" d="M 2194 1759 
Q 1497 1759 1228 1600 
Q 959 1441 959 1056 
Q 959 750 1161 570 
Q 1363 391 1709 391 
Q 2188 391 2477 730 
Q 2766 1069 2766 1631 
L 2766 1759 
L 2194 1759 
z
M 3341 1997 
L 3341 0 
L 2766 0 
L 2766 531 
Q 2569 213 2275 61 
Q 1981 -91 1556 -91 
Q 1019 -91 701 211 
Q 384 513 384 1019 
Q 384 1609 779 1909 
Q 1175 2209 1959 2209 
L 2766 2209 
L 2766 2266 
Q 2766 2663 2505 2880 
Q 2244 3097 1772 3097 
Q 1472 3097 1187 3025 
Q 903 2953 641 2809 
L 641 3341 
Q 956 3463 1253 3523 
Q 1550 3584 1831 3584 
Q 2591 3584 2966 3190 
Q 3341 2797 3341 1997 
z
" transform="scale(0.015625)"/>
       <path id="DejaVuSans-78" d="M 3513 3500 
L 2247 1797 
L 3578 0 
L 2900 0 
L 1881 1375 
L 863 0 
L 184 0 
L 1544 1831 
L 300 3500 
L 978 3500 
L 1906 2253 
L 2834 3500 
L 3513 3500 
z
" transform="scale(0.015625)"/>
       <path id="DejaVuSans-5f" d="M 3263 -1063 
L 3263 -1509 
L -63 -1509 
L -63 -1063 
L 3263 -1063 
z
" transform="scale(0.015625)"/>
       <path id="DejaVuSans-48" d="M 628 4666 
L 1259 4666 
L 1259 2753 
L 3553 2753 
L 3553 4666 
L 4184 4666 
L 4184 0 
L 3553 0 
L 3553 2222 
L 1259 2222 
L 1259 0 
L 628 0 
L 628 4666 
z
" transform="scale(0.015625)"/>
       <path id="DejaVuSans-29" d="M 513 4856 
L 1013 4856 
Q 1481 4119 1714 3412 
Q 1947 2706 1947 2009 
Q 1947 1309 1714 600 
Q 1481 -109 1013 -844 
L 513 -844 
Q 928 -128 1133 580 
Q 1338 1288 1338 2009 
Q 1338 2731 1133 3434 
Q 928 4138 513 4856 
z
" transform="scale(0.015625)"/>
      </defs>
      <use xlink:href="#DejaVuSans-28"/>
      <use xlink:href="#DejaVuSans-55" x="39.013672"/>
      <use xlink:href="#DejaVuSans-73" x="112.207031"/>
      <use xlink:href="#DejaVuSans-69" x="164.306641"/>
      <use xlink:href="#DejaVuSans-6e" x="192.089844"/>
      <use xlink:href="#DejaVuSans-67" x="255.46875"/>
      <use xlink:href="#DejaVuSans-20" x="318.945312"/>
      <use xlink:href="#DejaVuSans-22" x="350.732422"/>
      <use xlink:href="#DejaVuSans-6d" x="396.728516"/>
      <use xlink:href="#DejaVuSans-61" x="494.140625"/>
      <use xlink:href="#DejaVuSans-78" x="555.419922"/>
      <use xlink:href="#DejaVuSans-5f" x="614.599609"/>
      <use xlink:href="#DejaVuSans-6d" x="664.599609"/>
      <use xlink:href="#DejaVuSans-65" x="762.011719"/>
      <use xlink:href="#DejaVuSans-61" x="823.535156"/>
      <use xlink:href="#DejaVuSans-6e" x="884.814453"/>
      <use xlink:href="#DejaVuSans-22" x="948.193359"/>
      <use xlink:href="#DejaVuSans-20" x="994.189453"/>
      <use xlink:href="#DejaVuSans-54" x="1025.976562"/>
      <use xlink:href="#DejaVuSans-68" x="1087.060547"/>
      <use xlink:href="#DejaVuSans-72" x="1150.439453"/>
      <use xlink:href="#DejaVuSans-65" x="1189.302734"/>
      <use xlink:href="#DejaVuSans-73" x="1250.826172"/>
      <use xlink:href="#DejaVuSans-68" x="1302.925781"/>
      <use xlink:href="#DejaVuSans-6f" x="1366.304688"/>
      <use xlink:href="#DejaVuSans-6c" x="1427.486328"/>
      <use xlink:href="#DejaVuSans-64" x="1455.269531"/>
      <use xlink:href="#DejaVuSans-20" x="1518.746094"/>
      <use xlink:href="#DejaVuSans-48" x="1550.533203"/>
      <use xlink:href="#DejaVuSans-61" x="1625.728516"/>
      <use xlink:href="#DejaVuSans-6e" x="1687.007812"/>
      <use xlink:href="#DejaVuSans-64" x="1750.386719"/>
      <use xlink:href="#DejaVuSans-6c" x="1813.863281"/>
      <use xlink:href="#DejaVuSans-69" x="1841.646484"/>
      <use xlink:href="#DejaVuSans-6e" x="1869.429688"/>
      <use xlink:href="#DejaVuSans-67" x="1932.808594"/>
      <use xlink:href="#DejaVuSans-29" x="1996.285156"/>
     </g>
    </g>
   </g>
   <g id="matplotlib.axis_2">
    <g id="ytick_1">
     <g id="line2d_6">
      <defs>
       <path id="mb1c4c1ca8a" d="M 0 0 
L -3.5 0 
" style="stroke: #000000; stroke-width: 0.8"/>
      </defs>
      <g>
       <use xlink:href="#mb1c4c1ca8a" x="80.03" y="472.367291" style="stroke: #000000; stroke-width: 0.8"/>
      </g>
     </g>
     <g id="text_7">
      <!-- 200 -->
      <g transform="translate(34.855 479.965728) scale(0.2 -0.2)">
       <use xlink:href="#DejaVuSans-32"/>
       <use xlink:href="#DejaVuSans-30" x="63.623047"/>
       <use xlink:href="#DejaVuSans-30" x="127.246094"/>
      </g>
     </g>
    </g>
    <g id="ytick_2">
     <g id="line2d_7">
      <g>
       <use xlink:href="#mb1c4c1ca8a" x="80.03" y="413.386907" style="stroke: #000000; stroke-width: 0.8"/>
      </g>
     </g>
     <g id="text_8">
      <!-- 300 -->
      <g transform="translate(34.855 420.985345) scale(0.2 -0.2)">
       <defs>
        <path id="DejaVuSans-33" d="M 2597 2516 
Q 3050 2419 3304 2112 
Q 3559 1806 3559 1356 
Q 3559 666 3084 287 
Q 2609 -91 1734 -91 
Q 1441 -91 1130 -33 
Q 819 25 488 141 
L 488 750 
Q 750 597 1062 519 
Q 1375 441 1716 441 
Q 2309 441 2620 675 
Q 2931 909 2931 1356 
Q 2931 1769 2642 2001 
Q 2353 2234 1838 2234 
L 1294 2234 
L 1294 2753 
L 1863 2753 
Q 2328 2753 2575 2939 
Q 2822 3125 2822 3475 
Q 2822 3834 2567 4026 
Q 2313 4219 1838 4219 
Q 1578 4219 1281 4162 
Q 984 4106 628 3988 
L 628 4550 
Q 988 4650 1302 4700 
Q 1616 4750 1894 4750 
Q 2613 4750 3031 4423 
Q 3450 4097 3450 3541 
Q 3450 3153 3228 2886 
Q 3006 2619 2597 2516 
z
" transform="scale(0.015625)"/>
       </defs>
       <use xlink:href="#DejaVuSans-33"/>
       <use xlink:href="#DejaVuSans-30" x="63.623047"/>
       <use xlink:href="#DejaVuSans-30" x="127.246094"/>
      </g>
     </g>
    </g>
    <g id="ytick_3">
     <g id="line2d_8">
      <g>
       <use xlink:href="#mb1c4c1ca8a" x="80.03" y="354.406524" style="stroke: #000000; stroke-width: 0.8"/>
      </g>
     </g>
     <g id="text_9">
      <!-- 400 -->
      <g transform="translate(34.855 362.004961) scale(0.2 -0.2)">
       <use xlink:href="#DejaVuSans-34"/>
       <use xlink:href="#DejaVuSans-30" x="63.623047"/>
       <use xlink:href="#DejaVuSans-30" x="127.246094"/>
      </g>
     </g>
    </g>
    <g id="ytick_4">
     <g id="line2d_9">
      <g>
       <use xlink:href="#mb1c4c1ca8a" x="80.03" y="295.42614" style="stroke: #000000; stroke-width: 0.8"/>
      </g>
     </g>
     <g id="text_10">
      <!-- 500 -->
      <g transform="translate(34.855 303.024578) scale(0.2 -0.2)">
       <defs>
        <path id="DejaVuSans-35" d="M 691 4666 
L 3169 4666 
L 3169 4134 
L 1269 4134 
L 1269 2991 
Q 1406 3038 1543 3061 
Q 1681 3084 1819 3084 
Q 2600 3084 3056 2656 
Q 3513 2228 3513 1497 
Q 3513 744 3044 326 
Q 2575 -91 1722 -91 
Q 1428 -91 1123 -41 
Q 819 9 494 109 
L 494 744 
Q 775 591 1075 516 
Q 1375 441 1709 441 
Q 2250 441 2565 725 
Q 2881 1009 2881 1497 
Q 2881 1984 2565 2268 
Q 2250 2553 1709 2553 
Q 1456 2553 1204 2497 
Q 953 2441 691 2322 
L 691 4666 
z
" transform="scale(0.015625)"/>
       </defs>
       <use xlink:href="#DejaVuSans-35"/>
       <use xlink:href="#DejaVuSans-30" x="63.623047"/>
       <use xlink:href="#DejaVuSans-30" x="127.246094"/>
      </g>
     </g>
    </g>
    <g id="ytick_5">
     <g id="line2d_10">
      <g>
       <use xlink:href="#mb1c4c1ca8a" x="80.03" y="236.445756" style="stroke: #000000; stroke-width: 0.8"/>
      </g>
     </g>
     <g id="text_11">
      <!-- 600 -->
      <g transform="translate(34.855 244.044194) scale(0.2 -0.2)">
       <use xlink:href="#DejaVuSans-36"/>
       <use xlink:href="#DejaVuSans-30" x="63.623047"/>
       <use xlink:href="#DejaVuSans-30" x="127.246094"/>
      </g>
     </g>
    </g>
    <g id="ytick_6">
     <g id="line2d_11">
      <g>
       <use xlink:href="#mb1c4c1ca8a" x="80.03" y="177.465373" style="stroke: #000000; stroke-width: 0.8"/>
      </g>
     </g>
     <g id="text_12">
      <!-- 700 -->
      <g transform="translate(34.855 185.06381) scale(0.2 -0.2)">
       <defs>
        <path id="DejaVuSans-37" d="M 525 4666 
L 3525 4666 
L 3525 4397 
L 1831 0 
L 1172 0 
L 2766 4134 
L 525 4134 
L 525 4666 
z
" transform="scale(0.015625)"/>
       </defs>
       <use xlink:href="#DejaVuSans-37"/>
       <use xlink:href="#DejaVuSans-30" x="63.623047"/>
       <use xlink:href="#DejaVuSans-30" x="127.246094"/>
      </g>
     </g>
    </g>
    <g id="ytick_7">
     <g id="line2d_12">
      <g>
       <use xlink:href="#mb1c4c1ca8a" x="80.03" y="118.484989" style="stroke: #000000; stroke-width: 0.8"/>
      </g>
     </g>
     <g id="text_13">
      <!-- 800 -->
      <g transform="translate(34.855 126.083427) scale(0.2 -0.2)">
       <use xlink:href="#DejaVuSans-38"/>
       <use xlink:href="#DejaVuSans-30" x="63.623047"/>
       <use xlink:href="#DejaVuSans-30" x="127.246094"/>
      </g>
     </g>
    </g>
    <g id="ytick_8">
     <g id="line2d_13">
      <g>
       <use xlink:href="#mb1c4c1ca8a" x="80.03" y="59.504606" style="stroke: #000000; stroke-width: 0.8"/>
      </g>
     </g>
     <g id="text_14">
      <!-- 900 -->
      <g transform="translate(34.855 67.103043) scale(0.2 -0.2)">
       <defs>
        <path id="DejaVuSans-39" d="M 703 97 
L 703 672 
Q 941 559 1184 500 
Q 1428 441 1663 441 
Q 2288 441 2617 861 
Q 2947 1281 2994 2138 
Q 2813 1869 2534 1725 
Q 2256 1581 1919 1581 
Q 1219 1581 811 2004 
Q 403 2428 403 3163 
Q 403 3881 828 4315 
Q 1253 4750 1959 4750 
Q 2769 4750 3195 4129 
Q 3622 3509 3622 2328 
Q 3622 1225 3098 567 
Q 2575 -91 1691 -91 
Q 1453 -91 1209 -44 
Q 966 3 703 97 
z
M 1959 2075 
Q 2384 2075 2632 2365 
Q 2881 2656 2881 3163 
Q 2881 3666 2632 3958 
Q 2384 4250 1959 4250 
Q 1534 4250 1286 3958 
Q 1038 3666 1038 3163 
Q 1038 2656 1286 2365 
Q 1534 2075 1959 2075 
z
" transform="scale(0.015625)"/>
       </defs>
       <use xlink:href="#DejaVuSans-39"/>
       <use xlink:href="#DejaVuSans-30" x="63.623047"/>
       <use xlink:href="#DejaVuSans-30" x="127.246094"/>
      </g>
     </g>
    </g>
    <g id="text_15">
     <!-- MSE -->
     <g transform="translate(26.695625 271.611313) rotate(-90) scale(0.2 -0.2)">
      <defs>
       <path id="DejaVuSans-4d" d="M 628 4666 
L 1569 4666 
L 2759 1491 
L 3956 4666 
L 4897 4666 
L 4897 0 
L 4281 0 
L 4281 4097 
L 3078 897 
L 2444 897 
L 1241 4097 
L 1241 0 
L 628 0 
L 628 4666 
z
" transform="scale(0.015625)"/>
       <path id="DejaVuSans-53" d="M 3425 4513 
L 3425 3897 
Q 3066 4069 2747 4153 
Q 2428 4238 2131 4238 
Q 1616 4238 1336 4038 
Q 1056 3838 1056 3469 
Q 1056 3159 1242 3001 
Q 1428 2844 1947 2747 
L 2328 2669 
Q 3034 2534 3370 2195 
Q 3706 1856 3706 1288 
Q 3706 609 3251 259 
Q 2797 -91 1919 -91 
Q 1588 -91 1214 -16 
Q 841 59 441 206 
L 441 856 
Q 825 641 1194 531 
Q 1563 422 1919 422 
Q 2459 422 2753 634 
Q 3047 847 3047 1241 
Q 3047 1584 2836 1778 
Q 2625 1972 2144 2069 
L 1759 2144 
Q 1053 2284 737 2584 
Q 422 2884 422 3419 
Q 422 4038 858 4394 
Q 1294 4750 2059 4750 
Q 2388 4750 2728 4690 
Q 3069 4631 3425 4513 
z
" transform="scale(0.015625)"/>
       <path id="DejaVuSans-45" d="M 628 4666 
L 3578 4666 
L 3578 4134 
L 1259 4134 
L 1259 2753 
L 3481 2753 
L 3481 2222 
L 1259 2222 
L 1259 531 
L 3634 531 
L 3634 0 
L 628 0 
L 628 4666 
z
" transform="scale(0.015625)"/>
      </defs>
      <use xlink:href="#DejaVuSans-4d"/>
      <use xlink:href="#DejaVuSans-53" x="86.279297"/>
      <use xlink:href="#DejaVuSans-45" x="149.755859"/>
     </g>
    </g>
   </g>
   <g id="line2d_14">
    <path d="M 128.265 437.535814 
L 148.790532 443.815119 
L 169.316064 442.774618 
L 189.841596 452.079933 
L 210.367128 449.925777 
L 230.89266 438.351244 
L 251.418191 435.445293 
L 271.943723 447.937568 
L 292.469255 431.822076 
L 312.994787 434.39011 
L 333.520319 441.843905 
L 354.045851 442.840817 
L 374.571383 442.905167 
L 395.096915 442.023797 
L 415.622447 438.441607 
L 436.147979 445.256378 
L 456.673511 437.865567 
L 477.199043 428.481269 
L 497.724574 440.170948 
L 518.250106 442.129596 
L 538.775638 435.724998 
L 559.30117 435.982441 
L 579.826702 441.171071 
L 600.352234 434.328253 
L 620.877766 434.831601 
L 641.403298 435.436941 
L 661.92883 429.285778 
L 682.454362 425.676723 
L 702.979894 433.823097 
L 723.505426 441.017271 
L 744.030957 442.456226 
L 764.556489 447.532362 
L 785.082021 447.233716 
L 805.607553 441.033925 
L 826.133085 437.307664 
L 846.658617 440.781183 
L 867.184149 443.290691 
L 887.709681 434.448717 
L 908.235213 436.965213 
L 928.760745 435.491233 
L 949.286277 435.491233 
L 969.811809 426.461894 
L 990.33734 426.235934 
L 1010.862872 426.235934 
L 1031.388404 435.037447 
L 1051.913936 435.729406 
L 1072.439468 435.729406 
L 1092.965 434.581044 
" clip-path="url(#p58da1c7636)" style="fill: none; stroke: #f77189; stroke-width: 1.5; stroke-linecap: square"/>
   </g>
   <g id="line2d_15">
    <path d="M 128.265 421.907983 
L 148.790532 436.158903 
L 169.316064 423.099722 
L 189.841596 432.602106 
L 210.367128 425.577498 
L 230.89266 422.082259 
L 251.418191 418.49671 
L 271.943723 437.746929 
L 292.469255 423.089221 
L 312.994787 426.438283 
L 333.520319 427.783542 
L 354.045851 432.673765 
L 374.571383 431.105207 
L 395.096915 428.691567 
L 415.622447 441.604187 
L 436.147979 442.386438 
L 456.673511 431.710882 
L 477.199043 424.570478 
L 497.724574 431.949861 
L 518.250106 438.270848 
L 538.775638 422.884853 
L 559.30117 432.887652 
L 579.826702 420.746167 
L 600.352234 419.889038 
L 620.877766 423.901456 
L 641.403298 427.937099 
L 661.92883 430.831589 
L 682.454362 427.593778 
L 702.979894 431.779104 
L 723.505426 433.056341 
L 744.030957 433.84123 
L 764.556489 431.115704 
L 785.082021 433.026066 
L 805.607553 435.824536 
L 826.133085 432.536748 
L 846.658617 426.46874 
L 867.184149 435.195261 
L 887.709681 436.531903 
L 908.235213 432.513721 
L 928.760745 425.087608 
L 949.286277 425.087608 
L 969.811809 405.867176 
L 990.33734 407.713822 
L 1010.862872 407.713822 
L 1031.388404 421.612963 
L 1051.913936 418.103941 
L 1072.439468 418.103941 
L 1092.965 417.895162 
" clip-path="url(#p58da1c7636)" style="fill: none; stroke: #e18632; stroke-width: 1.5; stroke-linecap: square"/>
   </g>
   <g id="line2d_16">
    <path d="M 128.265 407.89498 
L 148.790532 407.920854 
L 169.316064 406.900687 
L 189.841596 412.641678 
L 210.367128 409.487445 
L 230.89266 399.912719 
L 251.418191 393.084587 
L 271.943723 408.456024 
L 292.469255 385.071917 
L 312.994787 390.013337 
L 333.520319 402.878366 
L 354.045851 407.550317 
L 374.571383 409.256246 
L 395.096915 401.530908 
L 415.622447 400.913311 
L 436.147979 404.989548 
L 456.673511 391.902249 
L 477.199043 379.040275 
L 497.724574 401.68142 
L 518.250106 402.839665 
L 538.775638 404.554915 
L 559.30117 396.820737 
L 579.826702 401.25384 
L 600.352234 385.975852 
L 620.877766 385.441236 
L 641.403298 398.379428 
L 661.92883 376.65839 
L 682.454362 379.065683 
L 702.979894 393.605682 
L 723.505426 404.493468 
L 744.030957 396.207199 
L 764.556489 410.746643 
L 785.082021 409.93974 
L 805.607553 397.733936 
L 826.133085 397.041517 
L 846.658617 404.43879 
L 867.184149 400.775573 
L 887.709681 394.588772 
L 908.235213 397.122022 
L 928.760745 392.530945 
L 949.286277 392.530945 
L 969.811809 387.386532 
L 990.33734 389.45169 
L 1010.862872 389.45169 
L 1031.388404 397.727038 
L 1051.913936 387.206479 
L 1072.439468 387.206479 
L 1092.965 393.057008 
" clip-path="url(#p58da1c7636)" style="fill: none; stroke: #b59a32; stroke-width: 1.5; stroke-linecap: square"/>
   </g>
   <g id="line2d_17">
    <path d="M 128.265 389.247905 
L 148.790532 419.625728 
L 169.316064 392.741961 
L 189.841596 403.20396 
L 210.367128 405.338879 
L 230.89266 389.061686 
L 251.418191 400.660223 
L 271.943723 408.768976 
L 292.469255 404.213478 
L 312.994787 409.183659 
L 333.520319 407.394455 
L 354.045851 421.027454 
L 374.571383 418.415268 
L 395.096915 411.707996 
L 415.622447 423.615678 
L 436.147979 422.757896 
L 456.673511 417.355937 
L 477.199043 392.350188 
L 497.724574 411.738572 
L 518.250106 417.930855 
L 538.775638 413.850802 
L 559.30117 413.495466 
L 579.826702 411.929032 
L 600.352234 416.033292 
L 620.877766 407.046707 
L 641.403298 399.232946 
L 661.92883 397.098107 
L 682.454362 401.201859 
L 702.979894 397.052784 
L 723.505426 423.0418 
L 744.030957 419.082268 
L 764.556489 412.323005 
L 785.082021 417.444564 
L 805.607553 417.448889 
L 826.133085 416.633678 
L 846.658617 414.130732 
L 867.184149 412.850653 
L 887.709681 410.09349 
L 908.235213 404.142724 
L 928.760745 396.565338 
L 949.286277 396.565338 
L 969.811809 379.559034 
L 990.33734 364.127922 
L 1010.862872 364.127922 
L 1031.388404 379.294575 
L 1051.913936 396.647043 
L 1072.439468 396.647043 
L 1092.965 392.565716 
" clip-path="url(#p58da1c7636)" style="fill: none; stroke: #8ba731; stroke-width: 1.5; stroke-linecap: square"/>
   </g>
   <g id="line2d_18">
    <path d="M 128.265 366.726308 
L 148.790532 401.030888 
L 169.316064 403.410331 
L 189.841596 360.963672 
L 210.367128 390.805761 
L 230.89266 389.006171 
L 251.418191 398.115552 
L 271.943723 393.576041 
L 292.469255 388.506075 
L 312.994787 378.327809 
L 333.520319 371.479794 
L 354.045851 369.889765 
L 374.571383 399.131047 
L 395.096915 392.781991 
L 415.622447 402.884333 
L 436.147979 388.407546 
L 456.673511 393.446283 
L 477.199043 394.519931 
L 497.724574 390.298062 
L 518.250106 383.994817 
L 538.775638 386.964535 
L 559.30117 381.351942 
L 579.826702 368.732537 
L 600.352234 368.008814 
L 620.877766 347.16514 
L 641.403298 367.354303 
L 661.92883 376.75239 
L 682.454362 361.216506 
L 702.979894 373.140649 
L 723.505426 382.41835 
L 744.030957 383.539248 
L 764.556489 371.353584 
L 785.082021 372.341522 
L 805.607553 384.925822 
L 826.133085 373.893781 
L 846.658617 380.051058 
L 867.184149 383.527164 
L 887.709681 386.737965 
L 908.235213 372.722776 
L 928.760745 376.033883 
L 949.286277 376.033883 
L 969.811809 358.096588 
L 990.33734 356.182218 
L 1010.862872 356.182218 
L 1031.388404 366.482729 
L 1051.913936 364.690199 
L 1072.439468 364.690199 
L 1092.965 367.09581 
" clip-path="url(#p58da1c7636)" style="fill: none; stroke: #32b258; stroke-width: 1.5; stroke-linecap: square"/>
   </g>
   <g id="line2d_19">
    <path d="M 128.265 359.253883 
L 148.790532 375.994177 
L 169.316064 372.472544 
L 189.841596 384.565875 
L 210.367128 378.213537 
L 230.89266 375.411854 
L 251.418191 369.223082 
L 271.943723 382.370954 
L 292.469255 379.99974 
L 312.994787 368.856002 
L 333.520319 380.121525 
L 354.045851 395.079183 
L 374.571383 388.01257 
L 395.096915 380.990818 
L 415.622447 404.598175 
L 436.147979 401.724839 
L 456.673511 395.20788 
L 477.199043 356.838693 
L 497.724574 388.342639 
L 518.250106 399.53664 
L 538.775638 376.641718 
L 559.30117 392.39081 
L 579.826702 383.744349 
L 600.352234 380.543793 
L 620.877766 376.104478 
L 641.403298 373.684904 
L 661.92883 376.607241 
L 682.454362 384.144355 
L 702.979894 378.827324 
L 723.505426 386.070767 
L 744.030957 384.206501 
L 764.556489 381.213511 
L 785.082021 382.168402 
L 805.607553 383.465117 
L 826.133085 378.945329 
L 846.658617 381.803373 
L 867.184149 383.616796 
L 887.709681 377.280763 
L 908.235213 385.19951 
L 928.760745 362.564787 
L 949.286277 362.564787 
L 969.811809 345.95087 
L 990.33734 340.889006 
L 1010.862872 340.889006 
L 1031.388404 358.27736 
L 1051.913936 362.079886 
L 1072.439468 362.079886 
L 1092.965 362.812489 
" clip-path="url(#p58da1c7636)" style="fill: none; stroke: #35ae95; stroke-width: 1.5; stroke-linecap: square"/>
   </g>
   <g id="line2d_20">
    <path d="M 128.265 347.063325 
L 148.790532 373.032168 
L 169.316064 351.759178 
L 189.841596 374.530465 
L 210.367128 360.84977 
L 230.89266 356.599668 
L 251.418191 348.689613 
L 271.943723 376.221696 
L 292.469255 374.265622 
L 312.994787 371.38776 
L 333.520319 378.506894 
L 354.045851 389.17196 
L 374.571383 393.082743 
L 395.096915 399.787826 
L 415.622447 419.15902 
L 436.147979 413.132169 
L 456.673511 406.929588 
L 477.199043 363.252929 
L 497.724574 396.302646 
L 518.250106 393.817087 
L 538.775638 379.623892 
L 559.30117 384.339279 
L 579.826702 376.846676 
L 600.352234 377.7999 
L 620.877766 375.333808 
L 641.403298 369.023187 
L 661.92883 369.451409 
L 682.454362 368.952778 
L 702.979894 367.462979 
L 723.505426 401.038779 
L 744.030957 395.532941 
L 764.556489 385.640917 
L 785.082021 391.037398 
L 805.607553 389.279229 
L 826.133085 391.104761 
L 846.658617 385.852839 
L 867.184149 396.087762 
L 887.709681 386.466612 
L 908.235213 381.027575 
L 928.760745 365.423445 
L 949.286277 365.423445 
L 969.811809 345.280948 
L 990.33734 349.40191 
L 1010.862872 349.40191 
L 1031.388404 366.035268 
L 1051.913936 367.104219 
L 1072.439468 367.104219 
L 1092.965 368.47117 
" clip-path="url(#p58da1c7636)" style="fill: none; stroke: #37abb2; stroke-width: 1.5; stroke-linecap: square"/>
   </g>
   <g id="line2d_21">
    <path d="M 128.265 273.96397 
L 148.790532 303.484231 
L 169.316064 264.616223 
L 189.841596 296.943631 
L 210.367128 287.826232 
L 230.89266 281.53592 
L 251.418191 286.643929 
L 271.943723 316.909451 
L 292.469255 292.740109 
L 312.994787 288.44567 
L 333.520319 300.903708 
L 354.045851 334.992104 
L 374.571383 326.631826 
L 395.096915 334.671527 
L 415.622447 352.143069 
L 436.147979 348.712743 
L 456.673511 334.066341 
L 477.199043 337.280268 
L 497.724574 359.05125 
L 518.250106 352.141802 
L 538.775638 300.084267 
L 559.30117 309.958584 
L 579.826702 304.358283 
L 600.352234 301.865009 
L 620.877766 300.072896 
L 641.403298 294.202418 
L 661.92883 301.900151 
L 682.454362 310.550077 
L 702.979894 279.068858 
L 723.505426 310.015989 
L 744.030957 306.830714 
L 764.556489 311.546378 
L 785.082021 322.919214 
L 805.607553 308.853776 
L 826.133085 315.448935 
L 846.658617 296.182407 
L 867.184149 305.797031 
L 887.709681 307.197158 
L 908.235213 303.734237 
L 928.760745 274.027837 
L 949.286277 274.027837 
L 969.811809 244.964552 
L 990.33734 256.821909 
L 1010.862872 256.821909 
L 1031.388404 286.895057 
L 1051.913936 275.019093 
L 1072.439468 275.019093 
L 1092.965 280.074529 
" clip-path="url(#p58da1c7636)" style="fill: none; stroke: #39a7d6; stroke-width: 1.5; stroke-linecap: square"/>
   </g>
   <g id="line2d_22">
    <path d="M 128.265 226.666578 
L 148.790532 246.677941 
L 169.316064 232.912649 
L 189.841596 231.08103 
L 210.367128 228.838861 
L 230.89266 217.847372 
L 251.418191 222.950658 
L 271.943723 245.690558 
L 292.469255 244.942516 
L 312.994787 250.993801 
L 333.520319 248.384981 
L 354.045851 245.275882 
L 374.571383 253.906375 
L 395.096915 253.870428 
L 415.622447 265.954328 
L 436.147979 260.895248 
L 456.673511 260.042125 
L 477.199043 259.577324 
L 497.724574 270.543561 
L 518.250106 254.567664 
L 538.775638 241.059532 
L 559.30117 249.717509 
L 579.826702 247.553567 
L 600.352234 245.810412 
L 620.877766 231.300182 
L 641.403298 233.361631 
L 661.92883 226.492201 
L 682.454362 227.85584 
L 702.979894 231.916176 
L 723.505426 228.212306 
L 744.030957 248.000157 
L 764.556489 245.480446 
L 785.082021 248.479677 
L 805.607553 241.060902 
L 826.133085 235.797376 
L 846.658617 237.98169 
L 867.184149 241.164571 
L 887.709681 235.288192 
L 908.235213 238.516765 
L 928.760745 220.253473 
L 949.286277 220.253473 
L 969.811809 207.748524 
L 990.33734 200.787518 
L 1010.862872 200.787518 
L 1031.388404 212.859335 
L 1051.913936 221.304824 
L 1072.439468 221.304824 
L 1092.965 221.456737 
" clip-path="url(#p58da1c7636)" style="fill: none; stroke: #8f93f4; stroke-width: 1.5; stroke-linecap: square"/>
   </g>
   <g id="line2d_23">
    <path d="M 128.265 226.686815 
L 148.790532 246.681446 
L 169.316064 232.907656 
L 189.841596 231.097816 
L 210.367128 228.859421 
L 230.89266 217.862538 
L 251.418191 222.959834 
L 271.943723 245.705992 
L 292.469255 244.935761 
L 312.994787 250.990554 
L 333.520319 248.362408 
L 354.045851 245.274495 
L 374.571383 253.880626 
L 395.096915 253.864687 
L 415.622447 265.92938 
L 436.147979 260.878809 
L 456.673511 260.039955 
L 477.199043 259.560818 
L 497.724574 270.539852 
L 518.250106 254.54847 
L 538.775638 241.055343 
L 559.30117 249.711694 
L 579.826702 247.559164 
L 600.352234 245.835491 
L 620.877766 231.35405 
L 641.403298 233.37537 
L 661.92883 226.52715 
L 682.454362 227.871942 
L 702.979894 231.936555 
L 723.505426 228.197864 
L 744.030957 248.026958 
L 764.556489 245.486605 
L 785.082021 248.497074 
L 805.607553 241.08396 
L 826.133085 235.811568 
L 846.658617 238.003289 
L 867.184149 241.183399 
L 887.709681 235.310071 
L 908.235213 238.520473 
L 928.760745 220.278367 
L 949.286277 220.278367 
L 969.811809 207.772902 
L 990.33734 200.829918 
L 1010.862872 200.829918 
L 1031.388404 212.890183 
L 1051.913936 221.331553 
L 1072.439468 221.331553 
L 1092.965 221.474569 
" clip-path="url(#p58da1c7636)" style="fill: none; stroke: #db70f4; stroke-width: 1.5; stroke-linecap: square"/>
   </g>
   <g id="line2d_24">
    <path d="M 128.265 263.908336 
L 148.790532 228.981626 
L 169.316064 214.086406 
L 189.841596 239.926667 
L 210.367128 208.152084 
L 230.89266 217.037197 
L 251.418191 189.886919 
L 271.943723 215.064302 
L 292.469255 214.064197 
L 312.994787 172.562359 
L 333.520319 195.159441 
L 354.045851 239.828707 
L 374.571383 167.831719 
L 395.096915 210.513101 
L 415.622447 229.196475 
L 436.147979 241.26641 
L 456.673511 208.292612 
L 477.199043 117.939503 
L 497.724574 258.700522 
L 518.250106 240.335642 
L 538.775638 271.69921 
L 559.30117 264.226266 
L 579.826702 232.251897 
L 600.352234 260.465336 
L 620.877766 243.901087 
L 641.403298 215.290791 
L 661.92883 226.415868 
L 682.454362 224.145738 
L 702.979894 266.689894 
L 723.505426 258.38488 
L 744.030957 216.835931 
L 764.556489 213.434591 
L 785.082021 226.147947 
L 805.607553 211.891866 
L 826.133085 242.978852 
L 846.658617 228.633574 
L 867.184149 236.879871 
L 887.709681 213.766157 
L 908.235213 228.550102 
L 928.760745 244.453921 
L 949.286277 244.453921 
L 969.811809 202.716985 
L 990.33734 220.171005 
L 1010.862872 220.171005 
L 1031.388404 232.195938 
L 1051.913936 238.809793 
L 1072.439468 238.809793 
L 1092.965 269.87964 
" clip-path="url(#p58da1c7636)" style="fill: none; stroke: #f667c6; stroke-width: 1.5; stroke-linecap: square"/>
   </g>
   <g id="line2d_25"/>
   <g id="line2d_26"/>
   <g id="line2d_27"/>
   <g id="line2d_28"/>
   <g id="line2d_29"/>
   <g id="line2d_30"/>
   <g id="line2d_31"/>
   <g id="line2d_32"/>
   <g id="line2d_33"/>
   <g id="line2d_34"/>
   <g id="line2d_35"/>
   <g id="patch_3">
    <path d="M 80.03 489.832 
L 80.03 10.8 
" style="fill: none; stroke: #000000; stroke-width: 0.8; stroke-linejoin: miter; stroke-linecap: square"/>
   </g>
   <g id="patch_4">
    <path d="M 1141.2 489.832 
L 1141.2 10.8 
" style="fill: none; stroke: #000000; stroke-width: 0.8; stroke-linejoin: miter; stroke-linecap: square"/>
   </g>
   <g id="patch_5">
    <path d="M 80.03 489.832 
L 1141.2 489.832 
" style="fill: none; stroke: #000000; stroke-width: 0.8; stroke-linejoin: miter; stroke-linecap: square"/>
   </g>
   <g id="patch_6">
    <path d="M 80.03 10.8 
L 1141.2 10.8 
" style="fill: none; stroke: #000000; stroke-width: 0.8; stroke-linejoin: miter; stroke-linecap: square"/>
   </g>
   <g id="legend_1">
    <g id="patch_7">
     <path d="M 91.23 481.832 
L 260.975 481.832 
Q 264.175 481.832 264.175 478.632 
L 264.175 221.897 
Q 264.175 218.697 260.975 218.697 
L 91.23 218.697 
Q 88.03 218.697 88.03 221.897 
L 88.03 478.632 
Q 88.03 481.832 91.23 481.832 
z
" style="fill: #ffffff; opacity: 0.8; stroke: #cccccc; stroke-linejoin: miter"/>
    </g>
    <g id="line2d_36">
     <path d="M 94.43 231.6545 
L 110.43 231.6545 
L 126.43 231.6545 
" style="fill: none; stroke: #f77189; stroke-width: 1.5; stroke-linecap: square"/>
    </g>
    <g id="text_16">
     <!-- BayesianRidge -->
     <g transform="translate(139.23 237.2545) scale(0.16 -0.16)">
      <defs>
       <path id="DejaVuSans-42" d="M 1259 2228 
L 1259 519 
L 2272 519 
Q 2781 519 3026 730 
Q 3272 941 3272 1375 
Q 3272 1813 3026 2020 
Q 2781 2228 2272 2228 
L 1259 2228 
z
M 1259 4147 
L 1259 2741 
L 2194 2741 
Q 2656 2741 2882 2914 
Q 3109 3088 3109 3444 
Q 3109 3797 2882 3972 
Q 2656 4147 2194 4147 
L 1259 4147 
z
M 628 4666 
L 2241 4666 
Q 2963 4666 3353 4366 
Q 3744 4066 3744 3513 
Q 3744 3084 3544 2831 
Q 3344 2578 2956 2516 
Q 3422 2416 3680 2098 
Q 3938 1781 3938 1306 
Q 3938 681 3513 340 
Q 3088 0 2303 0 
L 628 0 
L 628 4666 
z
" transform="scale(0.015625)"/>
       <path id="DejaVuSans-79" d="M 2059 -325 
Q 1816 -950 1584 -1140 
Q 1353 -1331 966 -1331 
L 506 -1331 
L 506 -850 
L 844 -850 
Q 1081 -850 1212 -737 
Q 1344 -625 1503 -206 
L 1606 56 
L 191 3500 
L 800 3500 
L 1894 763 
L 2988 3500 
L 3597 3500 
L 2059 -325 
z
" transform="scale(0.015625)"/>
       <path id="DejaVuSans-52" d="M 2841 2188 
Q 3044 2119 3236 1894 
Q 3428 1669 3622 1275 
L 4263 0 
L 3584 0 
L 2988 1197 
Q 2756 1666 2539 1819 
Q 2322 1972 1947 1972 
L 1259 1972 
L 1259 0 
L 628 0 
L 628 4666 
L 2053 4666 
Q 2853 4666 3247 4331 
Q 3641 3997 3641 3322 
Q 3641 2881 3436 2590 
Q 3231 2300 2841 2188 
z
M 1259 4147 
L 1259 2491 
L 2053 2491 
Q 2509 2491 2742 2702 
Q 2975 2913 2975 3322 
Q 2975 3731 2742 3939 
Q 2509 4147 2053 4147 
L 1259 4147 
z
" transform="scale(0.015625)"/>
      </defs>
      <use xlink:href="#DejaVuSans-42"/>
      <use xlink:href="#DejaVuSans-61" x="68.603516"/>
      <use xlink:href="#DejaVuSans-79" x="129.882812"/>
      <use xlink:href="#DejaVuSans-65" x="189.0625"/>
      <use xlink:href="#DejaVuSans-73" x="250.585938"/>
      <use xlink:href="#DejaVuSans-69" x="302.685547"/>
      <use xlink:href="#DejaVuSans-61" x="330.46875"/>
      <use xlink:href="#DejaVuSans-6e" x="391.748047"/>
      <use xlink:href="#DejaVuSans-52" x="455.126953"/>
      <use xlink:href="#DejaVuSans-69" x="524.609375"/>
      <use xlink:href="#DejaVuSans-64" x="552.392578"/>
      <use xlink:href="#DejaVuSans-67" x="615.869141"/>
      <use xlink:href="#DejaVuSans-65" x="679.345703"/>
     </g>
    </g>
    <g id="line2d_37">
     <path d="M 94.43 255.1395 
L 110.43 255.1395 
L 126.43 255.1395 
" style="fill: none; stroke: #e18632; stroke-width: 1.5; stroke-linecap: square"/>
    </g>
    <g id="text_17">
     <!-- et -->
     <g transform="translate(139.23 260.7395) scale(0.16 -0.16)">
      <use xlink:href="#DejaVuSans-65"/>
      <use xlink:href="#DejaVuSans-74" x="61.523438"/>
     </g>
    </g>
    <g id="line2d_38">
     <path d="M 94.43 278.6245 
L 110.43 278.6245 
L 126.43 278.6245 
" style="fill: none; stroke: #b59a32; stroke-width: 1.5; stroke-linecap: square"/>
    </g>
    <g id="text_18">
     <!-- HubR -->
     <g transform="translate(139.23 284.2245) scale(0.16 -0.16)">
      <defs>
       <path id="DejaVuSans-75" d="M 544 1381 
L 544 3500 
L 1119 3500 
L 1119 1403 
Q 1119 906 1312 657 
Q 1506 409 1894 409 
Q 2359 409 2629 706 
Q 2900 1003 2900 1516 
L 2900 3500 
L 3475 3500 
L 3475 0 
L 2900 0 
L 2900 538 
Q 2691 219 2414 64 
Q 2138 -91 1772 -91 
Q 1169 -91 856 284 
Q 544 659 544 1381 
z
M 1991 3584 
L 1991 3584 
z
" transform="scale(0.015625)"/>
       <path id="DejaVuSans-62" d="M 3116 1747 
Q 3116 2381 2855 2742 
Q 2594 3103 2138 3103 
Q 1681 3103 1420 2742 
Q 1159 2381 1159 1747 
Q 1159 1113 1420 752 
Q 1681 391 2138 391 
Q 2594 391 2855 752 
Q 3116 1113 3116 1747 
z
M 1159 2969 
Q 1341 3281 1617 3432 
Q 1894 3584 2278 3584 
Q 2916 3584 3314 3078 
Q 3713 2572 3713 1747 
Q 3713 922 3314 415 
Q 2916 -91 2278 -91 
Q 1894 -91 1617 61 
Q 1341 213 1159 525 
L 1159 0 
L 581 0 
L 581 4863 
L 1159 4863 
L 1159 2969 
z
" transform="scale(0.015625)"/>
      </defs>
      <use xlink:href="#DejaVuSans-48"/>
      <use xlink:href="#DejaVuSans-75" x="75.195312"/>
      <use xlink:href="#DejaVuSans-62" x="138.574219"/>
      <use xlink:href="#DejaVuSans-52" x="202.050781"/>
     </g>
    </g>
    <g id="line2d_39">
     <path d="M 94.43 302.1095 
L 110.43 302.1095 
L 126.43 302.1095 
" style="fill: none; stroke: #8ba731; stroke-width: 1.5; stroke-linecap: square"/>
    </g>
    <g id="text_19">
     <!-- lgbm -->
     <g transform="translate(139.23 307.7095) scale(0.16 -0.16)">
      <use xlink:href="#DejaVuSans-6c"/>
      <use xlink:href="#DejaVuSans-67" x="27.783203"/>
      <use xlink:href="#DejaVuSans-62" x="91.259766"/>
      <use xlink:href="#DejaVuSans-6d" x="154.736328"/>
     </g>
    </g>
    <g id="line2d_40">
     <path d="M 94.43 325.5945 
L 110.43 325.5945 
L 126.43 325.5945 
" style="fill: none; stroke: #32b258; stroke-width: 1.5; stroke-linecap: square"/>
    </g>
    <g id="text_20">
     <!-- Adaboost -->
     <g transform="translate(139.23 331.1945) scale(0.16 -0.16)">
      <defs>
       <path id="DejaVuSans-41" d="M 2188 4044 
L 1331 1722 
L 3047 1722 
L 2188 4044 
z
M 1831 4666 
L 2547 4666 
L 4325 0 
L 3669 0 
L 3244 1197 
L 1141 1197 
L 716 0 
L 50 0 
L 1831 4666 
z
" transform="scale(0.015625)"/>
      </defs>
      <use xlink:href="#DejaVuSans-41"/>
      <use xlink:href="#DejaVuSans-64" x="66.658203"/>
      <use xlink:href="#DejaVuSans-61" x="130.134766"/>
      <use xlink:href="#DejaVuSans-62" x="191.414062"/>
      <use xlink:href="#DejaVuSans-6f" x="254.890625"/>
      <use xlink:href="#DejaVuSans-6f" x="316.072266"/>
      <use xlink:href="#DejaVuSans-73" x="377.253906"/>
      <use xlink:href="#DejaVuSans-74" x="429.353516"/>
     </g>
    </g>
    <g id="line2d_41">
     <path d="M 94.43 349.0795 
L 110.43 349.0795 
L 126.43 349.0795 
" style="fill: none; stroke: #35ae95; stroke-width: 1.5; stroke-linecap: square"/>
    </g>
    <g id="text_21">
     <!-- rf -->
     <g transform="translate(139.23 354.6795) scale(0.16 -0.16)">
      <defs>
       <path id="DejaVuSans-66" d="M 2375 4863 
L 2375 4384 
L 1825 4384 
Q 1516 4384 1395 4259 
Q 1275 4134 1275 3809 
L 1275 3500 
L 2222 3500 
L 2222 3053 
L 1275 3053 
L 1275 0 
L 697 0 
L 697 3053 
L 147 3053 
L 147 3500 
L 697 3500 
L 697 3744 
Q 697 4328 969 4595 
Q 1241 4863 1831 4863 
L 2375 4863 
z
" transform="scale(0.015625)"/>
      </defs>
      <use xlink:href="#DejaVuSans-72"/>
      <use xlink:href="#DejaVuSans-66" x="41.113281"/>
     </g>
    </g>
    <g id="line2d_42">
     <path d="M 94.43 372.5645 
L 110.43 372.5645 
L 126.43 372.5645 
" style="fill: none; stroke: #37abb2; stroke-width: 1.5; stroke-linecap: square"/>
    </g>
    <g id="text_22">
     <!-- gbr -->
     <g transform="translate(139.23 378.1645) scale(0.16 -0.16)">
      <use xlink:href="#DejaVuSans-67"/>
      <use xlink:href="#DejaVuSans-62" x="63.476562"/>
      <use xlink:href="#DejaVuSans-72" x="126.953125"/>
     </g>
    </g>
    <g id="line2d_43">
     <path d="M 94.43 396.0495 
L 110.43 396.0495 
L 126.43 396.0495 
" style="fill: none; stroke: #39a7d6; stroke-width: 1.5; stroke-linecap: square"/>
    </g>
    <g id="text_23">
     <!-- xgb -->
     <g transform="translate(139.23 401.6495) scale(0.16 -0.16)">
      <use xlink:href="#DejaVuSans-78"/>
      <use xlink:href="#DejaVuSans-67" x="59.179688"/>
      <use xlink:href="#DejaVuSans-62" x="122.65625"/>
     </g>
    </g>
    <g id="line2d_44">
     <path d="M 94.43 419.5345 
L 110.43 419.5345 
L 126.43 419.5345 
" style="fill: none; stroke: #8f93f4; stroke-width: 1.5; stroke-linecap: square"/>
    </g>
    <g id="text_24">
     <!-- LassoLars -->
     <g transform="translate(139.23 425.1345) scale(0.16 -0.16)">
      <defs>
       <path id="DejaVuSans-4c" d="M 628 4666 
L 1259 4666 
L 1259 531 
L 3531 531 
L 3531 0 
L 628 0 
L 628 4666 
z
" transform="scale(0.015625)"/>
      </defs>
      <use xlink:href="#DejaVuSans-4c"/>
      <use xlink:href="#DejaVuSans-61" x="55.712891"/>
      <use xlink:href="#DejaVuSans-73" x="116.992188"/>
      <use xlink:href="#DejaVuSans-73" x="169.091797"/>
      <use xlink:href="#DejaVuSans-6f" x="221.191406"/>
      <use xlink:href="#DejaVuSans-4c" x="282.373047"/>
      <use xlink:href="#DejaVuSans-61" x="338.085938"/>
      <use xlink:href="#DejaVuSans-72" x="399.365234"/>
      <use xlink:href="#DejaVuSans-73" x="440.478516"/>
     </g>
    </g>
    <g id="line2d_45">
     <path d="M 94.43 443.0195 
L 110.43 443.0195 
L 126.43 443.0195 
" style="fill: none; stroke: #db70f4; stroke-width: 1.5; stroke-linecap: square"/>
    </g>
    <g id="text_25">
     <!-- Lasso -->
     <g transform="translate(139.23 448.6195) scale(0.16 -0.16)">
      <use xlink:href="#DejaVuSans-4c"/>
      <use xlink:href="#DejaVuSans-61" x="55.712891"/>
      <use xlink:href="#DejaVuSans-73" x="116.992188"/>
      <use xlink:href="#DejaVuSans-73" x="169.091797"/>
      <use xlink:href="#DejaVuSans-6f" x="221.191406"/>
     </g>
    </g>
    <g id="line2d_46">
     <path d="M 94.43 466.5045 
L 110.43 466.5045 
L 126.43 466.5045 
" style="fill: none; stroke: #f667c6; stroke-width: 1.5; stroke-linecap: square"/>
    </g>
    <g id="text_26">
     <!-- dt -->
     <g transform="translate(139.23 472.1045) scale(0.16 -0.16)">
      <use xlink:href="#DejaVuSans-64"/>
      <use xlink:href="#DejaVuSans-74" x="63.476562"/>
     </g>
    </g>
   </g>
  </g>
 </g>
 <defs>
  <clipPath id="p58da1c7636">
   <rect x="80.03" y="10.8" width="1061.17" height="479.032"/>
  </clipPath>
 </defs>
</svg>
