<?xml version="1.0" encoding="utf-8" standalone="no"?>
<!DOCTYPE svg PUBLIC "-//W3C//DTD SVG 1.1//EN"
  "http://www.w3.org/Graphics/SVG/1.1/DTD/svg11.dtd">
<svg xmlns:xlink="http://www.w3.org/1999/xlink" width="1152pt" height="576pt" viewBox="0 0 1152 576" xmlns="http://www.w3.org/2000/svg" version="1.1">
 <metadata>
  <rdf:RDF xmlns:dc="http://purl.org/dc/elements/1.1/" xmlns:cc="http://creativecommons.org/ns#" xmlns:rdf="http://www.w3.org/1999/02/22-rdf-syntax-ns#">
   <cc:Work>
    <dc:type rdf:resource="http://purl.org/dc/dcmitype/StillImage"/>
    <dc:date>2024-08-22T16:55:11.765010</dc:date>
    <dc:format>image/svg+xml</dc:format>
    <dc:creator>
     <cc:Agent>
      <dc:title>Matplotlib v3.7.1, https://matplotlib.org/</dc:title>
     </cc:Agent>
    </dc:creator>
   </cc:Work>
  </rdf:RDF>
 </metadata>
 <defs>
  <style type="text/css">*{stroke-linejoin: round; stroke-linecap: butt}</style>
 </defs>
 <g id="figure_1">
  <g id="patch_1">
   <path d="M 0 576 
L 1152 576 
L 1152 0 
L 0 0 
z
" style="fill: #ffffff"/>
  </g>
  <g id="axes_1">
   <g id="patch_2">
    <path d="M 86.42 490.552 
L 1141.2 490.552 
L 1141.2 10.8 
L 86.42 10.8 
z
" style="fill: #ffffff"/>
   </g>
   <g id="PolyCollection_1">
    <defs>
     <path id="m80cfc834ca" d="M 134.364545 -511.964386 
L 134.364545 -487.995697 
L 154.76648 -477.521609 
L 175.168414 -498.90491 
L 195.570348 -488.905537 
L 215.972282 -498.116632 
L 236.374217 -489.128789 
L 256.776151 -498.557608 
L 277.178085 -505.167496 
L 297.580019 -505.540956 
L 317.981954 -501.660497 
L 338.383888 -476.03591 
L 358.785822 -486.658112 
L 379.187756 -496.375414 
L 399.589691 -498.860552 
L 419.991625 -496.922118 
L 440.393559 -499.090763 
L 460.795493 -493.436421 
L 481.197427 -494.217078 
L 501.599362 -489.916015 
L 522.001296 -493.831702 
L 542.40323 -488.926074 
L 562.805164 -497.430949 
L 583.207099 -496.330518 
L 603.609033 -489.58402 
L 624.010967 -500.035675 
L 644.412901 -499.997727 
L 664.814836 -501.995191 
L 685.21677 -499.118374 
L 705.618704 -492.738884 
L 726.020638 -489.644507 
L 746.422573 -503.609459 
L 766.824507 -483.862593 
L 787.226441 -508.043474 
L 807.628375 -499.64105 
L 828.030309 -504.794079 
L 848.432244 -466.647373 
L 868.834178 -487.616966 
L 889.236112 -496.641277 
L 909.638046 -490.625766 
L 930.039981 -484.886159 
L 950.441915 -500.392591 
L 970.843849 -479.853117 
L 991.245783 -484.676874 
L 1011.647718 -464.083076 
L 1032.049652 -493.806899 
L 1052.451586 -498.604212 
L 1072.85352 -492.028585 
L 1093.255455 -469.093813 
L 1093.255455 -512.057239 
L 1093.255455 -512.057239 
L 1072.85352 -503.876391 
L 1052.451586 -512.16473 
L 1032.049652 -513.786844 
L 1011.647718 -515.502391 
L 991.245783 -506.607737 
L 970.843849 -505.686686 
L 950.441915 -514.582 
L 930.039981 -509.289296 
L 909.638046 -514.568436 
L 889.236112 -522.507277 
L 868.834178 -519.653006 
L 848.432244 -500.4479 
L 828.030309 -517.847701 
L 807.628375 -517.16662 
L 787.226441 -523.594549 
L 766.824507 -504.143095 
L 746.422573 -514.373192 
L 726.020638 -515.10829 
L 705.618704 -510.406019 
L 685.21677 -519.468627 
L 664.814836 -513.386546 
L 644.412901 -515.425162 
L 624.010967 -519.486192 
L 603.609033 -518.669578 
L 583.207099 -518.075018 
L 562.805164 -516.785443 
L 542.40323 -512.291526 
L 522.001296 -512.487008 
L 501.599362 -504.337272 
L 481.197427 -510.099062 
L 460.795493 -519.847104 
L 440.393559 -523.585582 
L 419.991625 -521.374908 
L 399.589691 -519.259433 
L 379.187756 -509.053042 
L 358.785822 -514.316687 
L 338.383888 -515.74158 
L 317.981954 -516.905044 
L 297.580019 -513.372837 
L 277.178085 -523.309325 
L 256.776151 -518.011375 
L 236.374217 -510.994239 
L 215.972282 -515.865424 
L 195.570348 -517.919951 
L 175.168414 -511.099592 
L 154.76648 -508.6182 
L 134.364545 -511.964386 
z
" style="stroke: #f77189; stroke-opacity: 0.2"/>
    </defs>
    <g clip-path="url(#p5594ef2bd4)">
     <use xlink:href="#m80cfc834ca" x="0" y="576" style="fill: #f77189; fill-opacity: 0.2; stroke: #f77189; stroke-opacity: 0.2"/>
    </g>
   </g>
   <g id="PolyCollection_2">
    <defs>
     <path id="mbc8d1967de" d="M 134.364545 -523.378234 
L 134.364545 -501.194885 
L 154.76648 -507.271674 
L 175.168414 -512.079141 
L 195.570348 -504.791847 
L 215.972282 -501.087675 
L 236.374217 -498.679562 
L 256.776151 -517.968312 
L 277.178085 -527.932202 
L 297.580019 -496.252463 
L 317.981954 -514.455229 
L 338.383888 -485.568974 
L 358.785822 -494.050174 
L 379.187756 -506.912736 
L 399.589691 -507.852859 
L 419.991625 -502.496318 
L 440.393559 -501.621387 
L 460.795493 -514.27234 
L 481.197427 -500.676748 
L 501.599362 -507.976163 
L 522.001296 -519.215339 
L 542.40323 -493.945702 
L 562.805164 -514.020867 
L 583.207099 -504.849542 
L 603.609033 -495.951691 
L 624.010967 -514.512796 
L 644.412901 -507.776332 
L 664.814836 -513.918889 
L 685.21677 -518.388738 
L 705.618704 -461.365715 
L 726.020638 -491.741277 
L 746.422573 -508.420425 
L 766.824507 -495.945509 
L 787.226441 -503.645849 
L 807.628375 -520.802236 
L 828.030309 -510.925257 
L 848.432244 -483.942216 
L 868.834178 -488.844857 
L 889.236112 -506.014556 
L 909.638046 -491.82737 
L 930.039981 -502.104018 
L 950.441915 -501.308366 
L 970.843849 -476.834733 
L 991.245783 -495.317199 
L 1011.647718 -479.332698 
L 1032.049652 -490.128278 
L 1052.451586 -495.307098 
L 1072.85352 -489.689257 
L 1093.255455 -479.820576 
L 1093.255455 -524.899216 
L 1093.255455 -524.899216 
L 1072.85352 -521.300044 
L 1052.451586 -516.270175 
L 1032.049652 -543.393091 
L 1011.647718 -528.560406 
L 991.245783 -540.246227 
L 970.843849 -529.172425 
L 950.441915 -530.660681 
L 930.039981 -518.122864 
L 909.638046 -521.686924 
L 889.236112 -532.592126 
L 868.834178 -528.402498 
L 848.432244 -514.661514 
L 828.030309 -539.912036 
L 807.628375 -535.899995 
L 787.226441 -531.296863 
L 766.824507 -529.719377 
L 746.422573 -535.020678 
L 726.020638 -514.402121 
L 705.618704 -527.020306 
L 685.21677 -529.413898 
L 664.814836 -535.724373 
L 644.412901 -532.992962 
L 624.010967 -529.763694 
L 603.609033 -530.697063 
L 583.207099 -526.820774 
L 562.805164 -534.652891 
L 542.40323 -524.409596 
L 522.001296 -537.821991 
L 501.599362 -524.980121 
L 481.197427 -527.60526 
L 460.795493 -522.495651 
L 440.393559 -523.400008 
L 419.991625 -532.890804 
L 399.589691 -537.695225 
L 379.187756 -538.82299 
L 358.785822 -520.050141 
L 338.383888 -516.687839 
L 317.981954 -537.314323 
L 297.580019 -534.707237 
L 277.178085 -534.378678 
L 256.776151 -523.019662 
L 236.374217 -524.080503 
L 215.972282 -521.09329 
L 195.570348 -536.513301 
L 175.168414 -533.121998 
L 154.76648 -529.349487 
L 134.364545 -523.378234 
z
" style="stroke: #e18632; stroke-opacity: 0.2"/>
    </defs>
    <g clip-path="url(#p5594ef2bd4)">
     <use xlink:href="#mbc8d1967de" x="0" y="576" style="fill: #e18632; fill-opacity: 0.2; stroke: #e18632; stroke-opacity: 0.2"/>
    </g>
   </g>
   <g id="PolyCollection_3">
    <defs>
     <path id="m6817b87751" d="M 134.364545 -498.510958 
L 134.364545 -472.357167 
L 154.76648 -472.704307 
L 175.168414 -483.253953 
L 195.570348 -494.309775 
L 215.972282 -486.779277 
L 236.374217 -470.539772 
L 256.776151 -480.988746 
L 277.178085 -500.629306 
L 297.580019 -476.423 
L 317.981954 -484.783943 
L 338.383888 -456.335074 
L 358.785822 -470.960393 
L 379.187756 -492.527717 
L 399.589691 -478.401118 
L 419.991625 -484.001298 
L 440.393559 -452.501189 
L 460.795493 -478.847692 
L 481.197427 -476.340847 
L 501.599362 -477.018133 
L 522.001296 -487.376867 
L 542.40323 -465.547252 
L 562.805164 -481.410028 
L 583.207099 -480.320805 
L 603.609033 -463.778855 
L 624.010967 -481.83999 
L 644.412901 -481.666867 
L 664.814836 -486.734379 
L 685.21677 -490.291429 
L 705.618704 -455.71525 
L 726.020638 -475.794704 
L 746.422573 -493.081786 
L 766.824507 -453.378006 
L 787.226441 -490.195598 
L 807.628375 -491.301206 
L 828.030309 -490.342218 
L 848.432244 -444.834651 
L 868.834178 -449.103352 
L 889.236112 -475.340009 
L 909.638046 -461.798364 
L 930.039981 -476.666441 
L 950.441915 -468.454749 
L 970.843849 -461.726652 
L 991.245783 -460.911495 
L 1011.647718 -447.451426 
L 1032.049652 -468.423985 
L 1052.451586 -479.44216 
L 1072.85352 -473.684595 
L 1093.255455 -445.344678 
L 1093.255455 -504.900261 
L 1093.255455 -504.900261 
L 1072.85352 -491.04571 
L 1052.451586 -499.664129 
L 1032.049652 -510.468027 
L 1011.647718 -501.384943 
L 991.245783 -506.287914 
L 970.843849 -496.269291 
L 950.441915 -504.768477 
L 930.039981 -506.84681 
L 909.638046 -504.729379 
L 889.236112 -513.678299 
L 868.834178 -495.872657 
L 848.432244 -492.528341 
L 828.030309 -506.659896 
L 807.628375 -506.110138 
L 787.226441 -505.956734 
L 766.824507 -500.176396 
L 746.422573 -515.67559 
L 726.020638 -490.138234 
L 705.618704 -496.650509 
L 685.21677 -499.547916 
L 664.814836 -500.070065 
L 644.412901 -506.370761 
L 624.010967 -500.399823 
L 603.609033 -506.884222 
L 583.207099 -502.832576 
L 562.805164 -498.341495 
L 542.40323 -503.007446 
L 522.001296 -496.72385 
L 501.599362 -489.051452 
L 481.197427 -494.547381 
L 460.795493 -494.048455 
L 440.393559 -470.818048 
L 419.991625 -499.297472 
L 399.589691 -503.993962 
L 379.187756 -510.419424 
L 358.785822 -501.777233 
L 338.383888 -497.246533 
L 317.981954 -512.049686 
L 297.580019 -503.994744 
L 277.178085 -520.345629 
L 256.776151 -505.859805 
L 236.374217 -511.660637 
L 215.972282 -503.517074 
L 195.570348 -507.866906 
L 175.168414 -513.502055 
L 154.76648 -497.521625 
L 134.364545 -498.510958 
z
" style="stroke: #b59a32; stroke-opacity: 0.2"/>
    </defs>
    <g clip-path="url(#p5594ef2bd4)">
     <use xlink:href="#m6817b87751" x="0" y="576" style="fill: #b59a32; fill-opacity: 0.2; stroke: #b59a32; stroke-opacity: 0.2"/>
    </g>
   </g>
   <g id="PolyCollection_4">
    <defs>
     <path id="m6637adf836" d="M 134.364545 -504.685739 
L 134.364545 -482.547434 
L 154.76648 -482.556336 
L 175.168414 -483.657414 
L 195.570348 -491.945043 
L 215.972282 -495.915058 
L 236.374217 -481.21952 
L 256.776151 -480.932809 
L 277.178085 -503.285425 
L 297.580019 -474.431611 
L 317.981954 -491.810598 
L 338.383888 -478.253514 
L 358.785822 -481.378978 
L 379.187756 -506.172557 
L 399.589691 -486.553429 
L 419.991625 -503.556628 
L 440.393559 -487.858288 
L 460.795493 -505.015805 
L 481.197427 -510.495307 
L 501.599362 -505.609763 
L 522.001296 -500.169984 
L 542.40323 -493.822873 
L 562.805164 -489.753219 
L 583.207099 -492.579552 
L 603.609033 -479.352751 
L 624.010967 -496.452754 
L 644.412901 -502.994234 
L 664.814836 -470.840304 
L 685.21677 -496.00335 
L 705.618704 -491.916525 
L 726.020638 -479.805848 
L 746.422573 -496.060415 
L 766.824507 -483.273279 
L 787.226441 -471.87087 
L 807.628375 -493.365384 
L 828.030309 -494.573702 
L 848.432244 -476.28836 
L 868.834178 -486.141421 
L 889.236112 -513.320608 
L 909.638046 -478.521797 
L 930.039981 -493.127836 
L 950.441915 -484.816385 
L 970.843849 -481.610928 
L 991.245783 -474.071898 
L 1011.647718 -490.500762 
L 1032.049652 -487.848891 
L 1052.451586 -487.852855 
L 1072.85352 -488.572651 
L 1093.255455 -462.798565 
L 1093.255455 -517.43185 
L 1093.255455 -517.43185 
L 1072.85352 -508.569425 
L 1052.451586 -507.776902 
L 1032.049652 -519.125034 
L 1011.647718 -522.335076 
L 991.245783 -530.416302 
L 970.843849 -523.089008 
L 950.441915 -532.120511 
L 930.039981 -519.027637 
L 909.638046 -511.674597 
L 889.236112 -539.404519 
L 868.834178 -516.177024 
L 848.432244 -515.128891 
L 828.030309 -520.28118 
L 807.628375 -536.51205 
L 787.226441 -529.313874 
L 766.824507 -520.781236 
L 746.422573 -522.963975 
L 726.020638 -516.683563 
L 705.618704 -531.189156 
L 685.21677 -532.600637 
L 664.814836 -518.706636 
L 644.412901 -523.950427 
L 624.010967 -523.685222 
L 603.609033 -518.051808 
L 583.207099 -513.545797 
L 562.805164 -509.493636 
L 542.40323 -521.909133 
L 522.001296 -518.001223 
L 501.599362 -520.249008 
L 481.197427 -525.67344 
L 460.795493 -515.774417 
L 440.393559 -519.273248 
L 419.991625 -526.034527 
L 399.589691 -528.73849 
L 379.187756 -522.218871 
L 358.785822 -512.022887 
L 338.383888 -513.696745 
L 317.981954 -521.828683 
L 297.580019 -514.200481 
L 277.178085 -519.260061 
L 256.776151 -512.026928 
L 236.374217 -522.030619 
L 215.972282 -507.468793 
L 195.570348 -516.39285 
L 175.168414 -523.851567 
L 154.76648 -512.223344 
L 134.364545 -504.685739 
z
" style="stroke: #8ba731; stroke-opacity: 0.2"/>
    </defs>
    <g clip-path="url(#p5594ef2bd4)">
     <use xlink:href="#m6637adf836" x="0" y="576" style="fill: #8ba731; fill-opacity: 0.2; stroke: #8ba731; stroke-opacity: 0.2"/>
    </g>
   </g>
   <g id="PolyCollection_5">
    <defs>
     <path id="mdab0c43d42" d="M 134.364545 -482.160389 
L 134.364545 -465.849951 
L 154.76648 -472.980914 
L 175.168414 -477.244091 
L 195.570348 -482.614937 
L 215.972282 -478.140632 
L 236.374217 -467.963225 
L 256.776151 -471.607699 
L 277.178085 -497.689843 
L 297.580019 -446.279967 
L 317.981954 -481.798003 
L 338.383888 -450.687943 
L 358.785822 -479.444519 
L 379.187756 -477.173297 
L 399.589691 -466.359885 
L 419.991625 -475.281048 
L 440.393559 -463.382471 
L 460.795493 -481.231314 
L 481.197427 -473.07307 
L 501.599362 -476.330693 
L 522.001296 -486.97335 
L 542.40323 -470.962306 
L 562.805164 -486.612361 
L 583.207099 -487.778706 
L 603.609033 -462.866678 
L 624.010967 -485.244586 
L 644.412901 -483.66552 
L 664.814836 -478.315997 
L 685.21677 -482.743083 
L 705.618704 -436.379033 
L 726.020638 -461.852254 
L 746.422573 -482.458177 
L 766.824507 -470.472039 
L 787.226441 -488.245143 
L 807.628375 -480.855994 
L 828.030309 -488.666163 
L 848.432244 -466.555766 
L 868.834178 -457.839365 
L 889.236112 -474.199906 
L 909.638046 -447.331139 
L 930.039981 -470.425589 
L 950.441915 -455.094785 
L 970.843849 -455.783268 
L 991.245783 -474.902277 
L 1011.647718 -471.381236 
L 1032.049652 -471.54066 
L 1052.451586 -468.076524 
L 1072.85352 -473.34742 
L 1093.255455 -457.188374 
L 1093.255455 -493.867442 
L 1093.255455 -493.867442 
L 1072.85352 -486.549816 
L 1052.451586 -481.824861 
L 1032.049652 -501.993111 
L 1011.647718 -491.896027 
L 991.245783 -510.804639 
L 970.843849 -489.846451 
L 950.441915 -507.360008 
L 930.039981 -491.435994 
L 909.638046 -489.924712 
L 889.236112 -510.901002 
L 868.834178 -491.687167 
L 848.432244 -495.696644 
L 828.030309 -507.663168 
L 807.628375 -499.650726 
L 787.226441 -507.525414 
L 766.824507 -493.496954 
L 746.422573 -505.423307 
L 726.020638 -484.656143 
L 705.618704 -495.238976 
L 685.21677 -499.325214 
L 664.814836 -503.236224 
L 644.412901 -502.082825 
L 624.010967 -499.978894 
L 603.609033 -495.43304 
L 583.207099 -497.524075 
L 562.805164 -493.036292 
L 542.40323 -503.723351 
L 522.001296 -498.534539 
L 501.599362 -494.543766 
L 481.197427 -494.246093 
L 460.795493 -499.790237 
L 440.393559 -488.926693 
L 419.991625 -498.08317 
L 399.589691 -499.555658 
L 379.187756 -500.480055 
L 358.785822 -487.950864 
L 338.383888 -484.459998 
L 317.981954 -513.409467 
L 297.580019 -502.358237 
L 277.178085 -511.542807 
L 256.776151 -493.578085 
L 236.374217 -494.118136 
L 215.972282 -490.371558 
L 195.570348 -506.400595 
L 175.168414 -498.663089 
L 154.76648 -492.957475 
L 134.364545 -482.160389 
z
" style="stroke: #32b258; stroke-opacity: 0.2"/>
    </defs>
    <g clip-path="url(#p5594ef2bd4)">
     <use xlink:href="#mdab0c43d42" x="0" y="576" style="fill: #32b258; fill-opacity: 0.2; stroke: #32b258; stroke-opacity: 0.2"/>
    </g>
   </g>
   <g id="PolyCollection_6">
    <defs>
     <path id="me9a41df604" d="M 134.364545 -414.532248 
L 134.364545 -331.814639 
L 154.76648 -358.737743 
L 175.168414 -368.493874 
L 195.570348 -355.76274 
L 215.972282 -348.523359 
L 236.374217 -328.717039 
L 256.776151 -338.715087 
L 277.178085 -356.09006 
L 297.580019 -361.191387 
L 317.981954 -347.948135 
L 338.383888 -297.625049 
L 358.785822 -306.740685 
L 379.187756 -340.180132 
L 399.589691 -332.270399 
L 419.991625 -333.082697 
L 440.393559 -337.100948 
L 460.795493 -332.167959 
L 481.197427 -339.782397 
L 501.599362 -316.684431 
L 522.001296 -324.750992 
L 542.40323 -329.026382 
L 562.805164 -368.858168 
L 583.207099 -314.113013 
L 603.609033 -335.183934 
L 624.010967 -326.824062 
L 644.412901 -358.70784 
L 664.814836 -348.645505 
L 685.21677 -362.556841 
L 705.618704 -359.187046 
L 726.020638 -332.311559 
L 746.422573 -347.717101 
L 766.824507 -333.382909 
L 787.226441 -335.882524 
L 807.628375 -353.077028 
L 828.030309 -294.927544 
L 848.432244 -265.124917 
L 868.834178 -320.544165 
L 889.236112 -334.091195 
L 909.638046 -346.521496 
L 930.039981 -326.475465 
L 950.441915 -346.511282 
L 970.843849 -284.330882 
L 991.245783 -271.664414 
L 1011.647718 -259.612454 
L 1032.049652 -349.314526 
L 1052.451586 -326.211074 
L 1072.85352 -338.847154 
L 1093.255455 -146.399224 
L 1093.255455 -385.008735 
L 1093.255455 -385.008735 
L 1072.85352 -374.451894 
L 1052.451586 -385.296808 
L 1032.049652 -387.834371 
L 1011.647718 -388.669882 
L 991.245783 -361.035985 
L 970.843849 -367.711391 
L 950.441915 -380.860241 
L 930.039981 -379.936292 
L 909.638046 -395.69551 
L 889.236112 -394.281694 
L 868.834178 -374.035858 
L 848.432244 -385.43171 
L 828.030309 -371.165866 
L 807.628375 -407.126178 
L 787.226441 -387.900011 
L 766.824507 -359.31185 
L 746.422573 -387.696766 
L 726.020638 -392.213201 
L 705.618704 -375.775497 
L 685.21677 -384.400134 
L 664.814836 -398.347635 
L 644.412901 -383.147107 
L 624.010967 -393.23581 
L 603.609033 -396.168456 
L 583.207099 -392.734374 
L 562.805164 -403.124474 
L 542.40323 -383.800267 
L 522.001296 -380.408141 
L 501.599362 -351.143884 
L 481.197427 -385.374329 
L 460.795493 -375.747236 
L 440.393559 -399.395162 
L 419.991625 -387.466339 
L 399.589691 -388.64575 
L 379.187756 -387.946746 
L 358.785822 -401.055341 
L 338.383888 -395.314757 
L 317.981954 -395.500114 
L 297.580019 -400.222968 
L 277.178085 -396.179319 
L 256.776151 -410.251614 
L 236.374217 -416.278819 
L 215.972282 -415.878911 
L 195.570348 -419.856851 
L 175.168414 -410.014465 
L 154.76648 -421.220736 
L 134.364545 -414.532248 
z
" style="stroke: #35ae95; stroke-opacity: 0.2"/>
    </defs>
    <g clip-path="url(#p5594ef2bd4)">
     <use xlink:href="#me9a41df604" x="0" y="576" style="fill: #35ae95; fill-opacity: 0.2; stroke: #35ae95; stroke-opacity: 0.2"/>
    </g>
   </g>
   <g id="PolyCollection_7">
    <defs>
     <path id="m809122ebb1" d="M 134.364545 -420.139891 
L 134.364545 -404.028513 
L 154.76648 -382.407483 
L 175.168414 -404.274751 
L 195.570348 -409.164251 
L 215.972282 -407.200626 
L 236.374217 -405.67602 
L 256.776151 -411.091229 
L 277.178085 -435.079991 
L 297.580019 -423.400925 
L 317.981954 -431.698484 
L 338.383888 -389.756379 
L 358.785822 -395.997538 
L 379.187756 -410.896207 
L 399.589691 -424.646688 
L 419.991625 -416.736735 
L 440.393559 -417.788076 
L 460.795493 -422.613271 
L 481.197427 -429.436313 
L 501.599362 -416.932804 
L 522.001296 -426.068218 
L 542.40323 -426.785309 
L 562.805164 -416.836011 
L 583.207099 -417.991381 
L 603.609033 -410.237701 
L 624.010967 -417.400007 
L 644.412901 -413.647414 
L 664.814836 -430.828059 
L 685.21677 -419.174612 
L 705.618704 -416.480593 
L 726.020638 -395.613057 
L 746.422573 -432.878707 
L 766.824507 -405.112804 
L 787.226441 -425.151034 
L 807.628375 -418.283685 
L 828.030309 -429.999834 
L 848.432244 -400.829627 
L 868.834178 -403.350071 
L 889.236112 -403.799368 
L 909.638046 -390.202308 
L 930.039981 -411.163732 
L 950.441915 -396.880581 
L 970.843849 -410.991294 
L 991.245783 -412.171227 
L 1011.647718 -365.328252 
L 1032.049652 -410.130458 
L 1052.451586 -390.388787 
L 1072.85352 -404.657376 
L 1093.255455 -422.745838 
L 1093.255455 -443.004956 
L 1093.255455 -443.004956 
L 1072.85352 -434.176751 
L 1052.451586 -433.571426 
L 1032.049652 -435.091023 
L 1011.647718 -449.085442 
L 991.245783 -432.937774 
L 970.843849 -419.251639 
L 950.441915 -442.166049 
L 930.039981 -435.116413 
L 909.638046 -446.402522 
L 889.236112 -439.956725 
L 868.834178 -437.380508 
L 848.432244 -437.684706 
L 828.030309 -444.903445 
L 807.628375 -433.175404 
L 787.226441 -454.563777 
L 766.824507 -431.071538 
L 746.422573 -447.382261 
L 726.020638 -422.737783 
L 705.618704 -432.45705 
L 685.21677 -440.862291 
L 664.814836 -443.713755 
L 644.412901 -438.356924 
L 624.010967 -439.881121 
L 603.609033 -450.123579 
L 583.207099 -447.622829 
L 562.805164 -446.10183 
L 542.40323 -444.339661 
L 522.001296 -451.924357 
L 501.599362 -441.059484 
L 481.197427 -435.583356 
L 460.795493 -441.875286 
L 440.393559 -448.194065 
L 419.991625 -449.386587 
L 399.589691 -445.828551 
L 379.187756 -433.558115 
L 358.785822 -421.253101 
L 338.383888 -433.618537 
L 317.981954 -447.850467 
L 297.580019 -434.092644 
L 277.178085 -446.830663 
L 256.776151 -432.983265 
L 236.374217 -426.142097 
L 215.972282 -429.578499 
L 195.570348 -426.147597 
L 175.168414 -422.467714 
L 154.76648 -410.823266 
L 134.364545 -420.139891 
z
" style="stroke: #37abb2; stroke-opacity: 0.2"/>
    </defs>
    <g clip-path="url(#p5594ef2bd4)">
     <use xlink:href="#m809122ebb1" x="0" y="576" style="fill: #37abb2; fill-opacity: 0.2; stroke: #37abb2; stroke-opacity: 0.2"/>
    </g>
   </g>
   <g id="PolyCollection_8">
    <defs>
     <path id="mce7eb63b21" d="M 134.364545 -401.249831 
L 134.364545 -384.854442 
L 154.76648 -372.41081 
L 175.168414 -382.597981 
L 195.570348 -393.358082 
L 215.972282 -390.594452 
L 236.374217 -388.505417 
L 256.776151 -393.369382 
L 277.178085 -408.62546 
L 297.580019 -410.538133 
L 317.981954 -412.638196 
L 338.383888 -394.019709 
L 358.785822 -399.500746 
L 379.187756 -405.564273 
L 399.589691 -402.983255 
L 419.991625 -403.678089 
L 440.393559 -391.360064 
L 460.795493 -398.503533 
L 481.197427 -401.700525 
L 501.599362 -394.39599 
L 522.001296 -391.849171 
L 542.40323 -379.322389 
L 562.805164 -392.692436 
L 583.207099 -395.480774 
L 603.609033 -377.758815 
L 624.010967 -389.041312 
L 644.412901 -400.426346 
L 664.814836 -391.374241 
L 685.21677 -403.657044 
L 705.618704 -395.018575 
L 726.020638 -371.327196 
L 746.422573 -401.425286 
L 766.824507 -368.021556 
L 787.226441 -400.753609 
L 807.628375 -397.91455 
L 828.030309 -406.49389 
L 848.432244 -378.064012 
L 868.834178 -380.077861 
L 889.236112 -381.519964 
L 909.638046 -352.244374 
L 930.039981 -393.341058 
L 950.441915 -391.79585 
L 970.843849 -366.595136 
L 991.245783 -386.861682 
L 1011.647718 -374.98932 
L 1032.049652 -379.9277 
L 1052.451586 -388.754036 
L 1072.85352 -386.759649 
L 1093.255455 -397.225746 
L 1093.255455 -427.893688 
L 1093.255455 -427.893688 
L 1072.85352 -407.900875 
L 1052.451586 -412.277722 
L 1032.049652 -413.623787 
L 1011.647718 -413.811942 
L 991.245783 -418.048599 
L 970.843849 -403.933798 
L 950.441915 -423.460799 
L 930.039981 -402.549691 
L 909.638046 -404.635474 
L 889.236112 -415.578196 
L 868.834178 -409.35317 
L 848.432244 -413.92839 
L 828.030309 -422.245615 
L 807.628375 -415.459971 
L 787.226441 -421.448883 
L 766.824507 -407.639702 
L 746.422573 -416.984628 
L 726.020638 -395.253683 
L 705.618704 -417.534996 
L 685.21677 -419.915809 
L 664.814836 -414.409731 
L 644.412901 -426.723687 
L 624.010967 -415.270506 
L 603.609033 -413.490993 
L 583.207099 -410.272944 
L 562.805164 -410.440972 
L 542.40323 -414.818873 
L 522.001296 -408.984592 
L 501.599362 -416.919652 
L 481.197427 -408.035042 
L 460.795493 -422.295048 
L 440.393559 -407.892466 
L 419.991625 -424.207699 
L 399.589691 -421.336221 
L 379.187756 -419.212711 
L 358.785822 -419.75668 
L 338.383888 -411.64944 
L 317.981954 -439.888974 
L 297.580019 -414.752905 
L 277.178085 -430.493126 
L 256.776151 -409.27556 
L 236.374217 -413.224404 
L 215.972282 -408.857496 
L 195.570348 -424.722573 
L 175.168414 -409.115916 
L 154.76648 -400.801465 
L 134.364545 -401.249831 
z
" style="stroke: #39a7d6; stroke-opacity: 0.2"/>
    </defs>
    <g clip-path="url(#p5594ef2bd4)">
     <use xlink:href="#mce7eb63b21" x="0" y="576" style="fill: #39a7d6; fill-opacity: 0.2; stroke: #39a7d6; stroke-opacity: 0.2"/>
    </g>
   </g>
   <g id="PolyCollection_9">
    <defs>
     <path id="mabe6bce4b6" d="M 134.364545 -402.10475 
L 134.364545 -383.652052 
L 154.76648 -372.765221 
L 175.168414 -383.211144 
L 195.570348 -393.584361 
L 215.972282 -391.06167 
L 236.374217 -389.201798 
L 256.776151 -393.06583 
L 277.178085 -408.626843 
L 297.580019 -410.642354 
L 317.981954 -412.641772 
L 338.383888 -393.626487 
L 358.785822 -399.39568 
L 379.187756 -405.657219 
L 399.589691 -402.821576 
L 419.991625 -402.506241 
L 440.393559 -391.012653 
L 460.795493 -398.822527 
L 481.197427 -401.694081 
L 501.599362 -393.886423 
L 522.001296 -393.142698 
L 542.40323 -379.291894 
L 562.805164 -393.264126 
L 583.207099 -395.280885 
L 603.609033 -378.778418 
L 624.010967 -389.712991 
L 644.412901 -401.063729 
L 664.814836 -391.359137 
L 685.21677 -403.271691 
L 705.618704 -395.125298 
L 726.020638 -370.678748 
L 746.422573 -400.741662 
L 766.824507 -370.075435 
L 787.226441 -401.299446 
L 807.628375 -397.356007 
L 828.030309 -406.47388 
L 848.432244 -377.24459 
L 868.834178 -380.061126 
L 889.236112 -381.719853 
L 909.638046 -352.037775 
L 930.039981 -393.283609 
L 950.441915 -392.863204 
L 970.843849 -368.235601 
L 991.245783 -386.860401 
L 1011.647718 -372.942698 
L 1032.049652 -380.094516 
L 1052.451586 -388.349254 
L 1072.85352 -386.874898 
L 1093.255455 -398.993346 
L 1093.255455 -426.949755 
L 1093.255455 -426.949755 
L 1072.85352 -408.211749 
L 1052.451586 -412.302893 
L 1032.049652 -414.250988 
L 1011.647718 -413.370476 
L 991.245783 -418.028923 
L 970.843849 -403.91217 
L 950.441915 -424.056138 
L 930.039981 -402.544715 
L 909.638046 -405.54499 
L 889.236112 -415.353689 
L 868.834178 -409.353631 
L 848.432244 -414.171937 
L 828.030309 -422.877789 
L 807.628375 -415.462422 
L 787.226441 -421.205748 
L 766.824507 -406.608761 
L 746.422573 -416.885336 
L 726.020638 -396.12267 
L 705.618704 -416.695921 
L 685.21677 -419.874106 
L 664.814836 -414.914344 
L 644.412901 -427.086022 
L 624.010967 -414.623988 
L 603.609033 -413.503864 
L 583.207099 -410.212923 
L 562.805164 -410.436571 
L 542.40323 -415.313666 
L 522.001296 -409.439637 
L 501.599362 -416.405521 
L 481.197427 -407.906626 
L 460.795493 -421.330869 
L 440.393559 -407.868713 
L 419.991625 -424.198147 
L 399.589691 -421.776669 
L 379.187756 -419.507338 
L 358.785822 -420.330138 
L 338.383888 -411.533641 
L 317.981954 -438.132894 
L 297.580019 -414.908108 
L 277.178085 -428.963646 
L 256.776151 -409.702732 
L 236.374217 -413.217346 
L 215.972282 -409.878852 
L 195.570348 -426.03342 
L 175.168414 -409.118932 
L 154.76648 -400.803711 
L 134.364545 -402.10475 
z
" style="stroke: #8f93f4; stroke-opacity: 0.2"/>
    </defs>
    <g clip-path="url(#p5594ef2bd4)">
     <use xlink:href="#mabe6bce4b6" x="0" y="576" style="fill: #8f93f4; fill-opacity: 0.2; stroke: #8f93f4; stroke-opacity: 0.2"/>
    </g>
   </g>
   <g id="PolyCollection_10">
    <defs>
     <path id="m72eefff148" d="M 134.364545 -443.317817 
L 134.364545 -379.533784 
L 154.76648 -353.149551 
L 175.168414 -364.40269 
L 195.570348 -311.491916 
L 215.972282 -380.655225 
L 236.374217 -296.439337 
L 256.776151 -359.452053 
L 277.178085 -382.543172 
L 297.580019 -316.94393 
L 317.981954 -317.737366 
L 338.383888 -309.685644 
L 358.785822 -332.35055 
L 379.187756 -329.215118 
L 399.589691 -302.175109 
L 419.991625 -349.051901 
L 440.393559 -329.812159 
L 460.795493 -302.099236 
L 481.197427 -314.359259 
L 501.599362 -366.835836 
L 522.001296 -337.459481 
L 542.40323 -286.282568 
L 562.805164 -302.309832 
L 583.207099 -324.247246 
L 603.609033 -299.021923 
L 624.010967 -313.798937 
L 644.412901 -314.77467 
L 664.814836 -302.145454 
L 685.21677 -318.932702 
L 705.618704 -270.66497 
L 726.020638 -303.626628 
L 746.422573 -321.732931 
L 766.824507 -276.226791 
L 787.226441 -250.529744 
L 807.628375 -257.577095 
L 828.030309 -387.411324 
L 848.432244 -326.060127 
L 868.834178 -301.193561 
L 889.236112 -327.865937 
L 909.638046 -230.659825 
L 930.039981 -317.769713 
L 950.441915 -335.657632 
L 970.843849 -273.286756 
L 991.245783 -248.72204 
L 1011.647718 -306.726172 
L 1032.049652 -282.355203 
L 1052.451586 -243.696785 
L 1072.85352 -290.344555 
L 1093.255455 -271.030037 
L 1093.255455 -343.367594 
L 1093.255455 -343.367594 
L 1072.85352 -395.701187 
L 1052.451586 -361.367207 
L 1032.049652 -377.24434 
L 1011.647718 -384.076062 
L 991.245783 -403.471073 
L 970.843849 -360.998485 
L 950.441915 -421.353467 
L 930.039981 -378.417714 
L 909.638046 -348.710021 
L 889.236112 -428.483283 
L 868.834178 -389.673504 
L 848.432244 -380.507254 
L 828.030309 -424.849632 
L 807.628375 -345.405674 
L 787.226441 -379.071531 
L 766.824507 -377.184387 
L 746.422573 -374.442736 
L 726.020638 -394.476075 
L 705.618704 -366.154781 
L 685.21677 -370.327614 
L 664.814836 -353.90631 
L 644.412901 -397.269026 
L 624.010967 -389.763507 
L 603.609033 -419.957816 
L 583.207099 -393.754411 
L 562.805164 -403.513182 
L 542.40323 -360.641827 
L 522.001296 -422.391461 
L 501.599362 -411.822671 
L 481.197427 -364.333065 
L 460.795493 -352.883026 
L 440.393559 -402.777615 
L 419.991625 -407.915162 
L 399.589691 -412.950965 
L 379.187756 -422.121707 
L 358.785822 -355.342403 
L 338.383888 -360.457958 
L 317.981954 -400.921011 
L 297.580019 -403.444734 
L 277.178085 -456.14004 
L 256.776151 -426.386079 
L 236.374217 -404.243549 
L 215.972282 -419.035052 
L 195.570348 -434.663057 
L 175.168414 -411.588485 
L 154.76648 -436.901025 
L 134.364545 -443.317817 
z
" style="stroke: #db70f4; stroke-opacity: 0.2"/>
    </defs>
    <g clip-path="url(#p5594ef2bd4)">
     <use xlink:href="#m72eefff148" x="0" y="576" style="fill: #db70f4; fill-opacity: 0.2; stroke: #db70f4; stroke-opacity: 0.2"/>
    </g>
   </g>
   <g id="PolyCollection_11">
    <defs>
     <path id="mb75d3943e5" d="M 134.364545 -370.745006 
L 134.364545 -291.431849 
L 154.76648 -264.011678 
L 175.168414 -298.137441 
L 195.570348 -163.744409 
L 215.972282 -319.937502 
L 236.374217 -188.794493 
L 256.776151 -283.926046 
L 277.178085 -343.685119 
L 297.580019 -158.349754 
L 317.981954 -233.697493 
L 338.383888 -207.525243 
L 358.785822 -238.448024 
L 379.187756 -251.484949 
L 399.589691 -204.594365 
L 419.991625 -205.476154 
L 440.393559 -239.826453 
L 460.795493 -164.182279 
L 481.197427 -210.705925 
L 501.599362 -224.273392 
L 522.001296 -275.958938 
L 542.40323 -177.443415 
L 562.805164 -237.988603 
L 583.207099 -196.982066 
L 603.609033 -177.527112 
L 624.010967 -211.116571 
L 644.412901 -182.382072 
L 664.814836 -188.152509 
L 685.21677 -199.182873 
L 705.618704 -194.060048 
L 726.020638 -205.889797 
L 746.422573 -274.068848 
L 766.824507 -185.30827 
L 787.226441 -135.201771 
L 807.628375 -194.460807 
L 828.030309 -295.499359 
L 848.432244 -176.135721 
L 868.834178 -199.551029 
L 889.236112 -239.580806 
L 909.638046 -163.345812 
L 930.039981 -225.811959 
L 950.441915 -236.897635 
L 970.843849 -107.254909 
L 991.245783 -195.294287 
L 1011.647718 -148.479994 
L 1032.049652 -182.48711 
L 1052.451586 -149.952808 
L 1072.85352 -138.853975 
L 1093.255455 -150.696401 
L 1093.255455 -282.084705 
L 1093.255455 -282.084705 
L 1072.85352 -289.905142 
L 1052.451586 -267.202254 
L 1032.049652 -319.025858 
L 1011.647718 -312.713674 
L 991.245783 -297.003823 
L 970.843849 -256.917439 
L 950.441915 -342.980453 
L 930.039981 -316.904822 
L 909.638046 -338.042191 
L 889.236112 -354.964559 
L 868.834178 -337.496613 
L 848.432244 -314.31085 
L 828.030309 -387.068989 
L 807.628375 -268.585835 
L 787.226441 -315.3656 
L 766.824507 -297.905708 
L 746.422573 -351.789039 
L 726.020638 -329.670143 
L 705.618704 -284.366843 
L 685.21677 -284.648818 
L 664.814836 -294.219538 
L 644.412901 -274.010104 
L 624.010967 -342.934109 
L 603.609033 -334.961723 
L 583.207099 -319.179666 
L 562.805164 -342.948533 
L 542.40323 -252.953489 
L 522.001296 -379.825678 
L 501.599362 -339.654518 
L 481.197427 -311.726058 
L 460.795493 -270.91925 
L 440.393559 -332.474751 
L 419.991625 -287.367948 
L 399.589691 -350.395058 
L 379.187756 -344.106729 
L 358.785822 -290.54901 
L 338.383888 -292.951278 
L 317.981954 -337.815909 
L 297.580019 -309.179468 
L 277.178085 -415.164936 
L 256.776151 -381.292858 
L 236.374217 -342.80852 
L 215.972282 -386.359193 
L 195.570348 -393.307527 
L 175.168414 -400.580228 
L 154.76648 -395.791676 
L 134.364545 -370.745006 
z
" style="stroke: #f667c6; stroke-opacity: 0.2"/>
    </defs>
    <g clip-path="url(#p5594ef2bd4)">
     <use xlink:href="#mb75d3943e5" x="0" y="576" style="fill: #f667c6; fill-opacity: 0.2; stroke: #f667c6; stroke-opacity: 0.2"/>
    </g>
   </g>
   <g id="matplotlib.axis_1">
    <g id="xtick_1">
     <g id="line2d_1">
      <defs>
       <path id="m2e596e042d" d="M 0 0 
L 0 3.5 
" style="stroke: #000000; stroke-width: 0.8"/>
      </defs>
      <g>
       <use xlink:href="#m2e596e042d" x="124.163578" y="490.552" style="stroke: #000000; stroke-width: 0.8"/>
      </g>
     </g>
     <g id="text_1">
      <!-- 0 -->
      <g transform="translate(117.801078 512.748875) scale(0.2 -0.2)">
       <defs>
        <path id="DejaVuSans-30" d="M 2034 4250 
Q 1547 4250 1301 3770 
Q 1056 3291 1056 2328 
Q 1056 1369 1301 889 
Q 1547 409 2034 409 
Q 2525 409 2770 889 
Q 3016 1369 3016 2328 
Q 3016 3291 2770 3770 
Q 2525 4250 2034 4250 
z
M 2034 4750 
Q 2819 4750 3233 4129 
Q 3647 3509 3647 2328 
Q 3647 1150 3233 529 
Q 2819 -91 2034 -91 
Q 1250 -91 836 529 
Q 422 1150 422 2328 
Q 422 3509 836 4129 
Q 1250 4750 2034 4750 
z
" transform="scale(0.015625)"/>
       </defs>
       <use xlink:href="#DejaVuSans-30"/>
      </g>
     </g>
    </g>
    <g id="xtick_2">
     <g id="line2d_2">
      <g>
       <use xlink:href="#m2e596e042d" x="328.182921" y="490.552" style="stroke: #000000; stroke-width: 0.8"/>
      </g>
     </g>
     <g id="text_2">
      <!-- 20 -->
      <g transform="translate(315.457921 512.748875) scale(0.2 -0.2)">
       <defs>
        <path id="DejaVuSans-32" d="M 1228 531 
L 3431 531 
L 3431 0 
L 469 0 
L 469 531 
Q 828 903 1448 1529 
Q 2069 2156 2228 2338 
Q 2531 2678 2651 2914 
Q 2772 3150 2772 3378 
Q 2772 3750 2511 3984 
Q 2250 4219 1831 4219 
Q 1534 4219 1204 4116 
Q 875 4013 500 3803 
L 500 4441 
Q 881 4594 1212 4672 
Q 1544 4750 1819 4750 
Q 2544 4750 2975 4387 
Q 3406 4025 3406 3419 
Q 3406 3131 3298 2873 
Q 3191 2616 2906 2266 
Q 2828 2175 2409 1742 
Q 1991 1309 1228 531 
z
" transform="scale(0.015625)"/>
       </defs>
       <use xlink:href="#DejaVuSans-32"/>
       <use xlink:href="#DejaVuSans-30" x="63.623047"/>
      </g>
     </g>
    </g>
    <g id="xtick_3">
     <g id="line2d_3">
      <g>
       <use xlink:href="#m2e596e042d" x="532.202263" y="490.552" style="stroke: #000000; stroke-width: 0.8"/>
      </g>
     </g>
     <g id="text_3">
      <!-- 40 -->
      <g transform="translate(519.477263 512.748875) scale(0.2 -0.2)">
       <defs>
        <path id="DejaVuSans-34" d="M 2419 4116 
L 825 1625 
L 2419 1625 
L 2419 4116 
z
M 2253 4666 
L 3047 4666 
L 3047 1625 
L 3713 1625 
L 3713 1100 
L 3047 1100 
L 3047 0 
L 2419 0 
L 2419 1100 
L 313 1100 
L 313 1709 
L 2253 4666 
z
" transform="scale(0.015625)"/>
       </defs>
       <use xlink:href="#DejaVuSans-34"/>
       <use xlink:href="#DejaVuSans-30" x="63.623047"/>
      </g>
     </g>
    </g>
    <g id="xtick_4">
     <g id="line2d_4">
      <g>
       <use xlink:href="#m2e596e042d" x="736.221605" y="490.552" style="stroke: #000000; stroke-width: 0.8"/>
      </g>
     </g>
     <g id="text_4">
      <!-- 60 -->
      <g transform="translate(723.496605 512.748875) scale(0.2 -0.2)">
       <defs>
        <path id="DejaVuSans-36" d="M 2113 2584 
Q 1688 2584 1439 2293 
Q 1191 2003 1191 1497 
Q 1191 994 1439 701 
Q 1688 409 2113 409 
Q 2538 409 2786 701 
Q 3034 994 3034 1497 
Q 3034 2003 2786 2293 
Q 2538 2584 2113 2584 
z
M 3366 4563 
L 3366 3988 
Q 3128 4100 2886 4159 
Q 2644 4219 2406 4219 
Q 1781 4219 1451 3797 
Q 1122 3375 1075 2522 
Q 1259 2794 1537 2939 
Q 1816 3084 2150 3084 
Q 2853 3084 3261 2657 
Q 3669 2231 3669 1497 
Q 3669 778 3244 343 
Q 2819 -91 2113 -91 
Q 1303 -91 875 529 
Q 447 1150 447 2328 
Q 447 3434 972 4092 
Q 1497 4750 2381 4750 
Q 2619 4750 2861 4703 
Q 3103 4656 3366 4563 
z
" transform="scale(0.015625)"/>
       </defs>
       <use xlink:href="#DejaVuSans-36"/>
       <use xlink:href="#DejaVuSans-30" x="63.623047"/>
      </g>
     </g>
    </g>
    <g id="xtick_5">
     <g id="line2d_5">
      <g>
       <use xlink:href="#m2e596e042d" x="940.240948" y="490.552" style="stroke: #000000; stroke-width: 0.8"/>
      </g>
     </g>
     <g id="text_5">
      <!-- 80 -->
      <g transform="translate(927.515948 512.748875) scale(0.2 -0.2)">
       <defs>
        <path id="DejaVuSans-38" d="M 2034 2216 
Q 1584 2216 1326 1975 
Q 1069 1734 1069 1313 
Q 1069 891 1326 650 
Q 1584 409 2034 409 
Q 2484 409 2743 651 
Q 3003 894 3003 1313 
Q 3003 1734 2745 1975 
Q 2488 2216 2034 2216 
z
M 1403 2484 
Q 997 2584 770 2862 
Q 544 3141 544 3541 
Q 544 4100 942 4425 
Q 1341 4750 2034 4750 
Q 2731 4750 3128 4425 
Q 3525 4100 3525 3541 
Q 3525 3141 3298 2862 
Q 3072 2584 2669 2484 
Q 3125 2378 3379 2068 
Q 3634 1759 3634 1313 
Q 3634 634 3220 271 
Q 2806 -91 2034 -91 
Q 1263 -91 848 271 
Q 434 634 434 1313 
Q 434 1759 690 2068 
Q 947 2378 1403 2484 
z
M 1172 3481 
Q 1172 3119 1398 2916 
Q 1625 2713 2034 2713 
Q 2441 2713 2670 2916 
Q 2900 3119 2900 3481 
Q 2900 3844 2670 4047 
Q 2441 4250 2034 4250 
Q 1625 4250 1398 4047 
Q 1172 3844 1172 3481 
z
" transform="scale(0.015625)"/>
       </defs>
       <use xlink:href="#DejaVuSans-38"/>
       <use xlink:href="#DejaVuSans-30" x="63.623047"/>
      </g>
     </g>
    </g>
    <g id="text_6">
     <!-- Percentile Threshold -->
     <g transform="translate(512.030312 536.105125) scale(0.2 -0.2)">
      <defs>
       <path id="DejaVuSans-50" d="M 1259 4147 
L 1259 2394 
L 2053 2394 
Q 2494 2394 2734 2622 
Q 2975 2850 2975 3272 
Q 2975 3691 2734 3919 
Q 2494 4147 2053 4147 
L 1259 4147 
z
M 628 4666 
L 2053 4666 
Q 2838 4666 3239 4311 
Q 3641 3956 3641 3272 
Q 3641 2581 3239 2228 
Q 2838 1875 2053 1875 
L 1259 1875 
L 1259 0 
L 628 0 
L 628 4666 
z
" transform="scale(0.015625)"/>
       <path id="DejaVuSans-65" d="M 3597 1894 
L 3597 1613 
L 953 1613 
Q 991 1019 1311 708 
Q 1631 397 2203 397 
Q 2534 397 2845 478 
Q 3156 559 3463 722 
L 3463 178 
Q 3153 47 2828 -22 
Q 2503 -91 2169 -91 
Q 1331 -91 842 396 
Q 353 884 353 1716 
Q 353 2575 817 3079 
Q 1281 3584 2069 3584 
Q 2775 3584 3186 3129 
Q 3597 2675 3597 1894 
z
M 3022 2063 
Q 3016 2534 2758 2815 
Q 2500 3097 2075 3097 
Q 1594 3097 1305 2825 
Q 1016 2553 972 2059 
L 3022 2063 
z
" transform="scale(0.015625)"/>
       <path id="DejaVuSans-72" d="M 2631 2963 
Q 2534 3019 2420 3045 
Q 2306 3072 2169 3072 
Q 1681 3072 1420 2755 
Q 1159 2438 1159 1844 
L 1159 0 
L 581 0 
L 581 3500 
L 1159 3500 
L 1159 2956 
Q 1341 3275 1631 3429 
Q 1922 3584 2338 3584 
Q 2397 3584 2469 3576 
Q 2541 3569 2628 3553 
L 2631 2963 
z
" transform="scale(0.015625)"/>
       <path id="DejaVuSans-63" d="M 3122 3366 
L 3122 2828 
Q 2878 2963 2633 3030 
Q 2388 3097 2138 3097 
Q 1578 3097 1268 2742 
Q 959 2388 959 1747 
Q 959 1106 1268 751 
Q 1578 397 2138 397 
Q 2388 397 2633 464 
Q 2878 531 3122 666 
L 3122 134 
Q 2881 22 2623 -34 
Q 2366 -91 2075 -91 
Q 1284 -91 818 406 
Q 353 903 353 1747 
Q 353 2603 823 3093 
Q 1294 3584 2113 3584 
Q 2378 3584 2631 3529 
Q 2884 3475 3122 3366 
z
" transform="scale(0.015625)"/>
       <path id="DejaVuSans-6e" d="M 3513 2113 
L 3513 0 
L 2938 0 
L 2938 2094 
Q 2938 2591 2744 2837 
Q 2550 3084 2163 3084 
Q 1697 3084 1428 2787 
Q 1159 2491 1159 1978 
L 1159 0 
L 581 0 
L 581 3500 
L 1159 3500 
L 1159 2956 
Q 1366 3272 1645 3428 
Q 1925 3584 2291 3584 
Q 2894 3584 3203 3211 
Q 3513 2838 3513 2113 
z
" transform="scale(0.015625)"/>
       <path id="DejaVuSans-74" d="M 1172 4494 
L 1172 3500 
L 2356 3500 
L 2356 3053 
L 1172 3053 
L 1172 1153 
Q 1172 725 1289 603 
Q 1406 481 1766 481 
L 2356 481 
L 2356 0 
L 1766 0 
Q 1100 0 847 248 
Q 594 497 594 1153 
L 594 3053 
L 172 3053 
L 172 3500 
L 594 3500 
L 594 4494 
L 1172 4494 
z
" transform="scale(0.015625)"/>
       <path id="DejaVuSans-69" d="M 603 3500 
L 1178 3500 
L 1178 0 
L 603 0 
L 603 3500 
z
M 603 4863 
L 1178 4863 
L 1178 4134 
L 603 4134 
L 603 4863 
z
" transform="scale(0.015625)"/>
       <path id="DejaVuSans-6c" d="M 603 4863 
L 1178 4863 
L 1178 0 
L 603 0 
L 603 4863 
z
" transform="scale(0.015625)"/>
       <path id="DejaVuSans-20" transform="scale(0.015625)"/>
       <path id="DejaVuSans-54" d="M -19 4666 
L 3928 4666 
L 3928 4134 
L 2272 4134 
L 2272 0 
L 1638 0 
L 1638 4134 
L -19 4134 
L -19 4666 
z
" transform="scale(0.015625)"/>
       <path id="DejaVuSans-68" d="M 3513 2113 
L 3513 0 
L 2938 0 
L 2938 2094 
Q 2938 2591 2744 2837 
Q 2550 3084 2163 3084 
Q 1697 3084 1428 2787 
Q 1159 2491 1159 1978 
L 1159 0 
L 581 0 
L 581 4863 
L 1159 4863 
L 1159 2956 
Q 1366 3272 1645 3428 
Q 1925 3584 2291 3584 
Q 2894 3584 3203 3211 
Q 3513 2838 3513 2113 
z
" transform="scale(0.015625)"/>
       <path id="DejaVuSans-73" d="M 2834 3397 
L 2834 2853 
Q 2591 2978 2328 3040 
Q 2066 3103 1784 3103 
Q 1356 3103 1142 2972 
Q 928 2841 928 2578 
Q 928 2378 1081 2264 
Q 1234 2150 1697 2047 
L 1894 2003 
Q 2506 1872 2764 1633 
Q 3022 1394 3022 966 
Q 3022 478 2636 193 
Q 2250 -91 1575 -91 
Q 1294 -91 989 -36 
Q 684 19 347 128 
L 347 722 
Q 666 556 975 473 
Q 1284 391 1588 391 
Q 1994 391 2212 530 
Q 2431 669 2431 922 
Q 2431 1156 2273 1281 
Q 2116 1406 1581 1522 
L 1381 1569 
Q 847 1681 609 1914 
Q 372 2147 372 2553 
Q 372 3047 722 3315 
Q 1072 3584 1716 3584 
Q 2034 3584 2315 3537 
Q 2597 3491 2834 3397 
z
" transform="scale(0.015625)"/>
       <path id="DejaVuSans-6f" d="M 1959 3097 
Q 1497 3097 1228 2736 
Q 959 2375 959 1747 
Q 959 1119 1226 758 
Q 1494 397 1959 397 
Q 2419 397 2687 759 
Q 2956 1122 2956 1747 
Q 2956 2369 2687 2733 
Q 2419 3097 1959 3097 
z
M 1959 3584 
Q 2709 3584 3137 3096 
Q 3566 2609 3566 1747 
Q 3566 888 3137 398 
Q 2709 -91 1959 -91 
Q 1206 -91 779 398 
Q 353 888 353 1747 
Q 353 2609 779 3096 
Q 1206 3584 1959 3584 
z
" transform="scale(0.015625)"/>
       <path id="DejaVuSans-64" d="M 2906 2969 
L 2906 4863 
L 3481 4863 
L 3481 0 
L 2906 0 
L 2906 525 
Q 2725 213 2448 61 
Q 2172 -91 1784 -91 
Q 1150 -91 751 415 
Q 353 922 353 1747 
Q 353 2572 751 3078 
Q 1150 3584 1784 3584 
Q 2172 3584 2448 3432 
Q 2725 3281 2906 2969 
z
M 947 1747 
Q 947 1113 1208 752 
Q 1469 391 1925 391 
Q 2381 391 2643 752 
Q 2906 1113 2906 1747 
Q 2906 2381 2643 2742 
Q 2381 3103 1925 3103 
Q 1469 3103 1208 2742 
Q 947 2381 947 1747 
z
" transform="scale(0.015625)"/>
      </defs>
      <use xlink:href="#DejaVuSans-50"/>
      <use xlink:href="#DejaVuSans-65" x="56.677734"/>
      <use xlink:href="#DejaVuSans-72" x="118.201172"/>
      <use xlink:href="#DejaVuSans-63" x="157.064453"/>
      <use xlink:href="#DejaVuSans-65" x="212.044922"/>
      <use xlink:href="#DejaVuSans-6e" x="273.568359"/>
      <use xlink:href="#DejaVuSans-74" x="336.947266"/>
      <use xlink:href="#DejaVuSans-69" x="376.15625"/>
      <use xlink:href="#DejaVuSans-6c" x="403.939453"/>
      <use xlink:href="#DejaVuSans-65" x="431.722656"/>
      <use xlink:href="#DejaVuSans-20" x="493.246094"/>
      <use xlink:href="#DejaVuSans-54" x="525.033203"/>
      <use xlink:href="#DejaVuSans-68" x="586.117188"/>
      <use xlink:href="#DejaVuSans-72" x="649.496094"/>
      <use xlink:href="#DejaVuSans-65" x="688.359375"/>
      <use xlink:href="#DejaVuSans-73" x="749.882812"/>
      <use xlink:href="#DejaVuSans-68" x="801.982422"/>
      <use xlink:href="#DejaVuSans-6f" x="865.361328"/>
      <use xlink:href="#DejaVuSans-6c" x="926.542969"/>
      <use xlink:href="#DejaVuSans-64" x="954.326172"/>
     </g>
     <!-- (Using "random" Threshold Handling) -->
     <g transform="translate(426.642812 558.50075) scale(0.2 -0.2)">
      <defs>
       <path id="DejaVuSans-28" d="M 1984 4856 
Q 1566 4138 1362 3434 
Q 1159 2731 1159 2009 
Q 1159 1288 1364 580 
Q 1569 -128 1984 -844 
L 1484 -844 
Q 1016 -109 783 600 
Q 550 1309 550 2009 
Q 550 2706 781 3412 
Q 1013 4119 1484 4856 
L 1984 4856 
z
" transform="scale(0.015625)"/>
       <path id="DejaVuSans-55" d="M 556 4666 
L 1191 4666 
L 1191 1831 
Q 1191 1081 1462 751 
Q 1734 422 2344 422 
Q 2950 422 3222 751 
Q 3494 1081 3494 1831 
L 3494 4666 
L 4128 4666 
L 4128 1753 
Q 4128 841 3676 375 
Q 3225 -91 2344 -91 
Q 1459 -91 1007 375 
Q 556 841 556 1753 
L 556 4666 
z
" transform="scale(0.015625)"/>
       <path id="DejaVuSans-67" d="M 2906 1791 
Q 2906 2416 2648 2759 
Q 2391 3103 1925 3103 
Q 1463 3103 1205 2759 
Q 947 2416 947 1791 
Q 947 1169 1205 825 
Q 1463 481 1925 481 
Q 2391 481 2648 825 
Q 2906 1169 2906 1791 
z
M 3481 434 
Q 3481 -459 3084 -895 
Q 2688 -1331 1869 -1331 
Q 1566 -1331 1297 -1286 
Q 1028 -1241 775 -1147 
L 775 -588 
Q 1028 -725 1275 -790 
Q 1522 -856 1778 -856 
Q 2344 -856 2625 -561 
Q 2906 -266 2906 331 
L 2906 616 
Q 2728 306 2450 153 
Q 2172 0 1784 0 
Q 1141 0 747 490 
Q 353 981 353 1791 
Q 353 2603 747 3093 
Q 1141 3584 1784 3584 
Q 2172 3584 2450 3431 
Q 2728 3278 2906 2969 
L 2906 3500 
L 3481 3500 
L 3481 434 
z
" transform="scale(0.015625)"/>
       <path id="DejaVuSans-22" d="M 1147 4666 
L 1147 2931 
L 616 2931 
L 616 4666 
L 1147 4666 
z
M 2328 4666 
L 2328 2931 
L 1797 2931 
L 1797 4666 
L 2328 4666 
z
" transform="scale(0.015625)"/>
       <path id="DejaVuSans-61" d="M 2194 1759 
Q 1497 1759 1228 1600 
Q 959 1441 959 1056 
Q 959 750 1161 570 
Q 1363 391 1709 391 
Q 2188 391 2477 730 
Q 2766 1069 2766 1631 
L 2766 1759 
L 2194 1759 
z
M 3341 1997 
L 3341 0 
L 2766 0 
L 2766 531 
Q 2569 213 2275 61 
Q 1981 -91 1556 -91 
Q 1019 -91 701 211 
Q 384 513 384 1019 
Q 384 1609 779 1909 
Q 1175 2209 1959 2209 
L 2766 2209 
L 2766 2266 
Q 2766 2663 2505 2880 
Q 2244 3097 1772 3097 
Q 1472 3097 1187 3025 
Q 903 2953 641 2809 
L 641 3341 
Q 956 3463 1253 3523 
Q 1550 3584 1831 3584 
Q 2591 3584 2966 3190 
Q 3341 2797 3341 1997 
z
" transform="scale(0.015625)"/>
       <path id="DejaVuSans-6d" d="M 3328 2828 
Q 3544 3216 3844 3400 
Q 4144 3584 4550 3584 
Q 5097 3584 5394 3201 
Q 5691 2819 5691 2113 
L 5691 0 
L 5113 0 
L 5113 2094 
Q 5113 2597 4934 2840 
Q 4756 3084 4391 3084 
Q 3944 3084 3684 2787 
Q 3425 2491 3425 1978 
L 3425 0 
L 2847 0 
L 2847 2094 
Q 2847 2600 2669 2842 
Q 2491 3084 2119 3084 
Q 1678 3084 1418 2786 
Q 1159 2488 1159 1978 
L 1159 0 
L 581 0 
L 581 3500 
L 1159 3500 
L 1159 2956 
Q 1356 3278 1631 3431 
Q 1906 3584 2284 3584 
Q 2666 3584 2933 3390 
Q 3200 3197 3328 2828 
z
" transform="scale(0.015625)"/>
       <path id="DejaVuSans-48" d="M 628 4666 
L 1259 4666 
L 1259 2753 
L 3553 2753 
L 3553 4666 
L 4184 4666 
L 4184 0 
L 3553 0 
L 3553 2222 
L 1259 2222 
L 1259 0 
L 628 0 
L 628 4666 
z
" transform="scale(0.015625)"/>
       <path id="DejaVuSans-29" d="M 513 4856 
L 1013 4856 
Q 1481 4119 1714 3412 
Q 1947 2706 1947 2009 
Q 1947 1309 1714 600 
Q 1481 -109 1013 -844 
L 513 -844 
Q 928 -128 1133 580 
Q 1338 1288 1338 2009 
Q 1338 2731 1133 3434 
Q 928 4138 513 4856 
z
" transform="scale(0.015625)"/>
      </defs>
      <use xlink:href="#DejaVuSans-28"/>
      <use xlink:href="#DejaVuSans-55" x="39.013672"/>
      <use xlink:href="#DejaVuSans-73" x="112.207031"/>
      <use xlink:href="#DejaVuSans-69" x="164.306641"/>
      <use xlink:href="#DejaVuSans-6e" x="192.089844"/>
      <use xlink:href="#DejaVuSans-67" x="255.46875"/>
      <use xlink:href="#DejaVuSans-20" x="318.945312"/>
      <use xlink:href="#DejaVuSans-22" x="350.732422"/>
      <use xlink:href="#DejaVuSans-72" x="396.728516"/>
      <use xlink:href="#DejaVuSans-61" x="437.841797"/>
      <use xlink:href="#DejaVuSans-6e" x="499.121094"/>
      <use xlink:href="#DejaVuSans-64" x="562.5"/>
      <use xlink:href="#DejaVuSans-6f" x="625.976562"/>
      <use xlink:href="#DejaVuSans-6d" x="687.158203"/>
      <use xlink:href="#DejaVuSans-22" x="784.570312"/>
      <use xlink:href="#DejaVuSans-20" x="830.566406"/>
      <use xlink:href="#DejaVuSans-54" x="862.353516"/>
      <use xlink:href="#DejaVuSans-68" x="923.4375"/>
      <use xlink:href="#DejaVuSans-72" x="986.816406"/>
      <use xlink:href="#DejaVuSans-65" x="1025.679688"/>
      <use xlink:href="#DejaVuSans-73" x="1087.203125"/>
      <use xlink:href="#DejaVuSans-68" x="1139.302734"/>
      <use xlink:href="#DejaVuSans-6f" x="1202.681641"/>
      <use xlink:href="#DejaVuSans-6c" x="1263.863281"/>
      <use xlink:href="#DejaVuSans-64" x="1291.646484"/>
      <use xlink:href="#DejaVuSans-20" x="1355.123047"/>
      <use xlink:href="#DejaVuSans-48" x="1386.910156"/>
      <use xlink:href="#DejaVuSans-61" x="1462.105469"/>
      <use xlink:href="#DejaVuSans-6e" x="1523.384766"/>
      <use xlink:href="#DejaVuSans-64" x="1586.763672"/>
      <use xlink:href="#DejaVuSans-6c" x="1650.240234"/>
      <use xlink:href="#DejaVuSans-69" x="1678.023438"/>
      <use xlink:href="#DejaVuSans-6e" x="1705.806641"/>
      <use xlink:href="#DejaVuSans-67" x="1769.185547"/>
      <use xlink:href="#DejaVuSans-29" x="1832.662109"/>
     </g>
    </g>
   </g>
   <g id="matplotlib.axis_2">
    <g id="ytick_1">
     <g id="line2d_6">
      <defs>
       <path id="mccf3d4829f" d="M 0 0 
L -3.5 0 
" style="stroke: #000000; stroke-width: 0.8"/>
      </defs>
      <g>
       <use xlink:href="#mccf3d4829f" x="86.42" y="391.969195" style="stroke: #000000; stroke-width: 0.8"/>
      </g>
     </g>
     <g id="text_7">
      <!-- 0.75 -->
      <g transform="translate(34.88875 399.567632) scale(0.2 -0.2)">
       <defs>
        <path id="DejaVuSans-2e" d="M 684 794 
L 1344 794 
L 1344 0 
L 684 0 
L 684 794 
z
" transform="scale(0.015625)"/>
        <path id="DejaVuSans-37" d="M 525 4666 
L 3525 4666 
L 3525 4397 
L 1831 0 
L 1172 0 
L 2766 4134 
L 525 4134 
L 525 4666 
z
" transform="scale(0.015625)"/>
        <path id="DejaVuSans-35" d="M 691 4666 
L 3169 4666 
L 3169 4134 
L 1269 4134 
L 1269 2991 
Q 1406 3038 1543 3061 
Q 1681 3084 1819 3084 
Q 2600 3084 3056 2656 
Q 3513 2228 3513 1497 
Q 3513 744 3044 326 
Q 2575 -91 1722 -91 
Q 1428 -91 1123 -41 
Q 819 9 494 109 
L 494 744 
Q 775 591 1075 516 
Q 1375 441 1709 441 
Q 2250 441 2565 725 
Q 2881 1009 2881 1497 
Q 2881 1984 2565 2268 
Q 2250 2553 1709 2553 
Q 1456 2553 1204 2497 
Q 953 2441 691 2322 
L 691 4666 
z
" transform="scale(0.015625)"/>
       </defs>
       <use xlink:href="#DejaVuSans-30"/>
       <use xlink:href="#DejaVuSans-2e" x="63.623047"/>
       <use xlink:href="#DejaVuSans-37" x="95.410156"/>
       <use xlink:href="#DejaVuSans-35" x="159.033203"/>
      </g>
     </g>
    </g>
    <g id="ytick_2">
     <g id="line2d_7">
      <g>
       <use xlink:href="#mccf3d4829f" x="86.42" y="289.226538" style="stroke: #000000; stroke-width: 0.8"/>
      </g>
     </g>
     <g id="text_8">
      <!-- 0.80 -->
      <g transform="translate(34.88875 296.824976) scale(0.2 -0.2)">
       <use xlink:href="#DejaVuSans-30"/>
       <use xlink:href="#DejaVuSans-2e" x="63.623047"/>
       <use xlink:href="#DejaVuSans-38" x="95.410156"/>
       <use xlink:href="#DejaVuSans-30" x="159.033203"/>
      </g>
     </g>
    </g>
    <g id="ytick_3">
     <g id="line2d_8">
      <g>
       <use xlink:href="#mccf3d4829f" x="86.42" y="186.483882" style="stroke: #000000; stroke-width: 0.8"/>
      </g>
     </g>
     <g id="text_9">
      <!-- 0.85 -->
      <g transform="translate(34.88875 194.08232) scale(0.2 -0.2)">
       <use xlink:href="#DejaVuSans-30"/>
       <use xlink:href="#DejaVuSans-2e" x="63.623047"/>
       <use xlink:href="#DejaVuSans-38" x="95.410156"/>
       <use xlink:href="#DejaVuSans-35" x="159.033203"/>
      </g>
     </g>
    </g>
    <g id="ytick_4">
     <g id="line2d_9">
      <g>
       <use xlink:href="#mccf3d4829f" x="86.42" y="83.741226" style="stroke: #000000; stroke-width: 0.8"/>
      </g>
     </g>
     <g id="text_10">
      <!-- 0.90 -->
      <g transform="translate(34.88875 91.339663) scale(0.2 -0.2)">
       <defs>
        <path id="DejaVuSans-39" d="M 703 97 
L 703 672 
Q 941 559 1184 500 
Q 1428 441 1663 441 
Q 2288 441 2617 861 
Q 2947 1281 2994 2138 
Q 2813 1869 2534 1725 
Q 2256 1581 1919 1581 
Q 1219 1581 811 2004 
Q 403 2428 403 3163 
Q 403 3881 828 4315 
Q 1253 4750 1959 4750 
Q 2769 4750 3195 4129 
Q 3622 3509 3622 2328 
Q 3622 1225 3098 567 
Q 2575 -91 1691 -91 
Q 1453 -91 1209 -44 
Q 966 3 703 97 
z
M 1959 2075 
Q 2384 2075 2632 2365 
Q 2881 2656 2881 3163 
Q 2881 3666 2632 3958 
Q 2384 4250 1959 4250 
Q 1534 4250 1286 3958 
Q 1038 3666 1038 3163 
Q 1038 2656 1286 2365 
Q 1534 2075 1959 2075 
z
" transform="scale(0.015625)"/>
       </defs>
       <use xlink:href="#DejaVuSans-30"/>
       <use xlink:href="#DejaVuSans-2e" x="63.623047"/>
       <use xlink:href="#DejaVuSans-39" x="95.410156"/>
       <use xlink:href="#DejaVuSans-30" x="159.033203"/>
      </g>
     </g>
    </g>
    <g id="text_11">
     <!-- R^2 -->
     <g transform="translate(26.729375 272.366625) rotate(-90) scale(0.2 -0.2)">
      <defs>
       <path id="DejaVuSans-52" d="M 2841 2188 
Q 3044 2119 3236 1894 
Q 3428 1669 3622 1275 
L 4263 0 
L 3584 0 
L 2988 1197 
Q 2756 1666 2539 1819 
Q 2322 1972 1947 1972 
L 1259 1972 
L 1259 0 
L 628 0 
L 628 4666 
L 2053 4666 
Q 2853 4666 3247 4331 
Q 3641 3997 3641 3322 
Q 3641 2881 3436 2590 
Q 3231 2300 2841 2188 
z
M 1259 4147 
L 1259 2491 
L 2053 2491 
Q 2509 2491 2742 2702 
Q 2975 2913 2975 3322 
Q 2975 3731 2742 3939 
Q 2509 4147 2053 4147 
L 1259 4147 
z
" transform="scale(0.015625)"/>
       <path id="DejaVuSans-5e" d="M 2988 4666 
L 4684 2925 
L 4056 2925 
L 2681 4159 
L 1306 2925 
L 678 2925 
L 2375 4666 
L 2988 4666 
z
" transform="scale(0.015625)"/>
      </defs>
      <use xlink:href="#DejaVuSans-52"/>
      <use xlink:href="#DejaVuSans-5e" x="69.482422"/>
      <use xlink:href="#DejaVuSans-32" x="153.271484"/>
     </g>
    </g>
   </g>
   <g id="line2d_10">
    <path d="M 134.364545 76.037295 
L 154.76648 80.512068 
L 175.168414 71.020356 
L 195.570348 71.085526 
L 215.972282 69.09229 
L 236.374217 74.942781 
L 256.776151 68.010999 
L 277.178085 61.476022 
L 297.580019 66.488464 
L 317.981954 67.253402 
L 338.383888 79.472953 
L 358.785822 74.539193 
L 379.187756 72.926727 
L 399.589691 66.145222 
L 419.991625 66.849534 
L 440.393559 64.911973 
L 460.795493 69.631645 
L 481.197427 72.976428 
L 501.599362 79.441479 
L 522.001296 71.602571 
L 542.40323 74.042806 
L 562.805164 68.43839 
L 583.207099 66.838868 
L 603.609033 71.941869 
L 624.010967 65.813393 
L 644.412901 68.68846 
L 664.814836 67.966361 
L 685.21677 67.412545 
L 705.618704 73.038338 
L 726.020638 73.129241 
L 746.422573 66.539561 
L 766.824507 80.6696 
L 787.226441 59.468146 
L 807.628375 67.544796 
L 828.030309 64.606484 
L 848.432244 90.373984 
L 868.834178 72.162059 
L 889.236112 67.337724 
L 909.638046 73.274507 
L 930.039981 80.140901 
L 950.441915 67.437657 
L 970.843849 82.562991 
L 991.245783 80.021952 
L 1011.647718 83.729841 
L 1032.049652 71.80759 
L 1052.451586 71.231969 
L 1072.85352 78.341539 
L 1093.255455 83.918552 
" clip-path="url(#p5594ef2bd4)" style="fill: none; stroke: #f77189; stroke-width: 1.5; stroke-linecap: square"/>
   </g>
   <g id="line2d_11">
    <path d="M 134.364545 64.394321 
L 154.76648 56.511588 
L 175.168414 53.574175 
L 195.570348 56.335165 
L 215.972282 64.767115 
L 236.374217 62.841457 
L 256.776151 55.43768 
L 277.178085 44.373739 
L 297.580019 56.166008 
L 317.981954 50.294602 
L 338.383888 74.792427 
L 358.785822 70.386911 
L 379.187756 50.845183 
L 399.589691 52.125808 
L 419.991625 58.342068 
L 440.393559 63.341236 
L 460.795493 57.600028 
L 481.197427 61.111558 
L 501.599362 59.48701 
L 522.001296 47.254313 
L 542.40323 65.955131 
L 562.805164 50.894451 
L 583.207099 60.210912 
L 603.609033 61.31586 
L 624.010967 54.012174 
L 644.412901 55.12732 
L 664.814836 52.080685 
L 685.21677 52.000078 
L 705.618704 77.503385 
L 726.020638 72.775367 
L 746.422573 53.73637 
L 766.824507 65.254588 
L 787.226441 59.228107 
L 807.628375 47.868732 
L 828.030309 49.605891 
L 848.432244 74.694104 
L 868.834178 67.362566 
L 889.236112 56.787611 
L 909.638046 69.327893 
L 930.039981 66.801957 
L 950.441915 58.889297 
L 970.843849 69.752957 
L 991.245783 56.948562 
L 1011.647718 71.204348 
L 1032.049652 57.403989 
L 1052.451586 69.055588 
L 1072.85352 70.065378 
L 1093.255455 73.201164 
" clip-path="url(#p5594ef2bd4)" style="fill: none; stroke: #e18632; stroke-width: 1.5; stroke-linecap: square"/>
   </g>
   <g id="line2d_12">
    <path d="M 134.364545 90.933611 
L 154.76648 90.507884 
L 175.168414 78.441311 
L 195.570348 74.900077 
L 215.972282 81.049017 
L 236.374217 85.223452 
L 256.776151 82.499262 
L 277.178085 65.581759 
L 297.580019 84.687295 
L 317.981954 77.583185 
L 338.383888 97.916677 
L 358.785822 89.520402 
L 379.187756 74.461893 
L 399.589691 85.46921 
L 419.991625 84.89879 
L 440.393559 114.574618 
L 460.795493 89.440782 
L 481.197427 90.633145 
L 501.599362 92.987138 
L 522.001296 84.403865 
L 542.40323 90.793976 
L 562.805164 87.491014 
L 583.207099 84.364882 
L 603.609033 88.546934 
L 624.010967 85.754235 
L 644.412901 81.901163 
L 664.814836 82.978916 
L 685.21677 80.90426 
L 705.618704 98.437856 
L 726.020638 93.048455 
L 746.422573 70.658712 
L 766.824507 100.355897 
L 787.226441 78.047713 
L 807.628375 77.237437 
L 828.030309 77.49802 
L 848.432244 104.247543 
L 868.834178 100.729523 
L 889.236112 81.802489 
L 909.638046 91.595944 
L 930.039981 84.240022 
L 950.441915 87.059413 
L 970.843849 97.106753 
L 991.245783 90.169512 
L 1011.647718 95.390764 
L 1032.049652 85.601935 
L 1052.451586 86.544492 
L 1072.85352 94.601677 
L 1093.255455 96.180963 
" clip-path="url(#p5594ef2bd4)" style="fill: none; stroke: #b59a32; stroke-width: 1.5; stroke-linecap: square"/>
   </g>
   <g id="line2d_13">
    <path d="M 134.364545 82.014612 
L 154.76648 78.350867 
L 175.168414 70.765959 
L 195.570348 72.7557 
L 215.972282 74.481855 
L 236.374217 73.659165 
L 256.776151 77.83668 
L 277.178085 64.311908 
L 297.580019 78.060708 
L 317.981954 68.71064 
L 338.383888 79.120117 
L 358.785822 78.938392 
L 379.187756 60.99125 
L 399.589691 66.076896 
L 419.991625 60.162726 
L 440.393559 72.342765 
L 460.795493 65.30746 
L 481.197427 57.786541 
L 501.599362 63.016189 
L 522.001296 66.912523 
L 542.40323 67.748928 
L 562.805164 77.337533 
L 583.207099 73.873941 
L 603.609033 75.622509 
L 624.010967 66.490221 
L 644.412901 62.533017 
L 664.814836 80.133463 
L 685.21677 61.358308 
L 705.618704 64.540654 
L 726.020638 78.780725 
L 746.422573 65.806214 
L 766.824507 71.965229 
L 787.226441 69.496312 
L 807.628375 61.061283 
L 828.030309 69.288793 
L 848.432244 78.555932 
L 868.834178 74.218085 
L 889.236112 52.658233 
L 909.638046 79.326852 
L 930.039981 69.211946 
L 950.441915 64.164265 
L 970.843849 70.018137 
L 991.245783 73.721846 
L 1011.647718 68.753448 
L 1032.049652 72.269523 
L 1052.451586 77.300411 
L 1072.85352 77.079716 
L 1093.255455 83.252726 
" clip-path="url(#p5594ef2bd4)" style="fill: none; stroke: #8ba731; stroke-width: 1.5; stroke-linecap: square"/>
   </g>
   <g id="line2d_14">
    <path d="M 134.364545 102.822473 
L 154.76648 92.544486 
L 175.168414 88.399732 
L 195.570348 81.292923 
L 215.972282 91.694746 
L 236.374217 95.126891 
L 256.776151 93.679122 
L 277.178085 71.366081 
L 297.580019 95.754337 
L 317.981954 79.135842 
L 338.383888 108.557686 
L 358.785822 92.02728 
L 379.187756 85.057587 
L 399.589691 92.346512 
L 419.991625 89.806373 
L 440.393559 100.132395 
L 460.795493 85.302712 
L 481.197427 91.872046 
L 501.599362 90.385933 
L 522.001296 83.465284 
L 542.40323 87.387458 
L 562.805164 86.201555 
L 583.207099 83.217913 
L 603.609033 95.30055 
L 624.010967 83.65259 
L 644.412901 84.172621 
L 664.814836 84.448617 
L 685.21677 85.384312 
L 705.618704 105.789035 
L 726.020638 101.804793 
L 746.422573 82.481828 
L 766.824507 94.206886 
L 787.226441 78.660277 
L 807.628375 86.157406 
L 828.030309 78.302065 
L 848.432244 93.472517 
L 868.834178 102.430638 
L 889.236112 84.941595 
L 909.638046 106.430648 
L 930.039981 94.256095 
L 950.441915 90.580529 
L 970.843849 102.566192 
L 991.245783 82.740641 
L 1011.647718 94.681449 
L 1032.049652 89.883527 
L 1052.451586 100.534014 
L 1072.85352 96.324212 
L 1093.255455 99.643647 
" clip-path="url(#p5594ef2bd4)" style="fill: none; stroke: #32b258; stroke-width: 1.5; stroke-linecap: square"/>
   </g>
   <g id="line2d_15">
    <path d="M 134.364545 206.414223 
L 154.76648 183.506639 
L 175.168414 189.465405 
L 195.570348 187.385735 
L 215.972282 195.857205 
L 236.374217 205.102161 
L 256.776151 203.766694 
L 277.178085 194.864009 
L 297.580019 195.488681 
L 317.981954 204.810542 
L 338.383888 225.238572 
L 358.785822 220.149887 
L 379.187756 211.873802 
L 399.589691 214.549786 
L 419.991625 214.29571 
L 440.393559 203.913767 
L 460.795493 222.865131 
L 481.197427 208.73864 
L 501.599362 242.077418 
L 522.001296 221.72369 
L 542.40323 219.475609 
L 562.805164 190.381845 
L 583.207099 213.726907 
L 603.609033 208.299647 
L 624.010967 216.094202 
L 644.412901 205.298909 
L 664.814836 204.313163 
L 685.21677 203.849874 
L 705.618704 208.058508 
L 726.020638 215.810543 
L 746.422573 208.230301 
L 766.824507 229.37083 
L 787.226441 209.518478 
L 807.628375 195.041142 
L 828.030309 237.038958 
L 848.432244 242.454516 
L 868.834178 226.794584 
L 889.236112 209.322506 
L 909.638046 206.307674 
L 930.039981 222.718025 
L 950.441915 209.086652 
L 970.843849 250.54115 
L 991.245783 255.687348 
L 1011.647718 241.100901 
L 1032.049652 209.648136 
L 1052.451586 220.469381 
L 1072.85352 216.403459 
L 1093.255455 282.96007 
" clip-path="url(#p5594ef2bd4)" style="fill: none; stroke: #35ae95; stroke-width: 1.5; stroke-linecap: square"/>
   </g>
   <g id="line2d_16">
    <path d="M 134.364545 163.129461 
L 154.76648 179.847046 
L 175.168414 161.842494 
L 195.570348 158.589999 
L 215.972282 157.328282 
L 236.374217 159.99588 
L 256.776151 153.956206 
L 277.178085 135.870009 
L 297.580019 147.265359 
L 317.981954 135.894389 
L 338.383888 160.868004 
L 358.785822 166.146585 
L 379.187756 152.89552 
L 399.589691 141.128006 
L 419.991625 140.466236 
L 440.393559 143.359434 
L 460.795493 143.260216 
L 481.197427 143.448393 
L 501.599362 147.539931 
L 522.001296 137.37732 
L 542.40323 140.323115 
L 562.805164 144.30835 
L 583.207099 142.90206 
L 603.609033 144.113322 
L 624.010967 146.542207 
L 644.412901 150.425363 
L 664.814836 140.065772 
L 685.21677 146.812047 
L 705.618704 150.378644 
L 726.020638 166.794626 
L 746.422573 136.088334 
L 766.824507 158.36092 
L 787.226441 136.184187 
L 807.628375 150.586373 
L 828.030309 138.654469 
L 848.432244 155.668257 
L 868.834178 153.188688 
L 889.236112 154.980404 
L 909.638046 153.070947 
L 930.039981 152.859927 
L 950.441915 154.396764 
L 970.843849 160.917567 
L 991.245783 152.683739 
L 1011.647718 160.80014 
L 1032.049652 155.426817 
L 1052.451586 160.957917 
L 1072.85352 156.952249 
L 1093.255455 143.267023 
" clip-path="url(#p5594ef2bd4)" style="fill: none; stroke: #37abb2; stroke-width: 1.5; stroke-linecap: square"/>
   </g>
   <g id="line2d_17">
    <path d="M 134.364545 183.104107 
L 154.76648 187.748576 
L 175.168414 179.069114 
L 195.570348 167.570026 
L 215.972282 175.53736 
L 236.374217 175.381203 
L 256.776151 174.839141 
L 277.178085 157.204625 
L 297.580019 163.295852 
L 317.981954 150.598105 
L 338.383888 172.802138 
L 358.785822 166.93416 
L 379.187756 164.855084 
L 399.589691 163.477445 
L 419.991625 161.950855 
L 440.393559 176.69543 
L 460.795493 166.276398 
L 481.197427 171.262796 
L 501.599362 170.533099 
L 522.001296 175.357974 
L 542.40323 177.003429 
L 562.805164 174.724472 
L 583.207099 174.760767 
L 603.609033 179.550619 
L 624.010967 173.525343 
L 644.412901 163.084925 
L 664.814836 172.860485 
L 685.21677 165.498425 
L 705.618704 170.848689 
L 726.020638 190.860583 
L 746.422573 166.373179 
L 766.824507 188.16441 
L 787.226441 165.498576 
L 807.628375 168.835643 
L 828.030309 162.385823 
L 848.432244 178.650108 
L 868.834178 180.294494 
L 889.236112 178.645883 
L 909.638046 192.824558 
L 930.039981 178.261661 
L 950.441915 167.60745 
L 970.843849 189.804036 
L 991.245783 172.348778 
L 1011.647718 180.089626 
L 1032.049652 179.126939 
L 1052.451586 175.241475 
L 1072.85352 178.820676 
L 1093.255455 162.96239 
" clip-path="url(#p5594ef2bd4)" style="fill: none; stroke: #39a7d6; stroke-width: 1.5; stroke-linecap: square"/>
   </g>
   <g id="line2d_18">
    <path d="M 134.364545 183.104204 
L 154.76648 187.739387 
L 175.168414 179.070755 
L 195.570348 167.558071 
L 215.972282 175.549626 
L 236.374217 175.379444 
L 256.776151 174.833176 
L 277.178085 157.202895 
L 297.580019 163.290356 
L 317.981954 150.598656 
L 338.383888 172.796434 
L 358.785822 166.943904 
L 379.187756 164.857031 
L 399.589691 163.486079 
L 419.991625 161.958547 
L 440.393559 176.688756 
L 460.795493 166.292301 
L 481.197427 171.2735 
L 501.599362 170.543068 
L 522.001296 175.358219 
L 542.40323 177.018238 
L 562.805164 174.727245 
L 583.207099 174.778897 
L 603.609033 179.543835 
L 624.010967 173.535864 
L 644.412901 163.085426 
L 664.814836 172.86326 
L 685.21677 165.508562 
L 705.618704 170.844385 
L 726.020638 190.853427 
L 746.422573 166.368099 
L 766.824507 188.179014 
L 787.226441 165.518033 
L 807.628375 168.844344 
L 828.030309 162.399215 
L 848.432244 178.643871 
L 868.834178 180.301679 
L 889.236112 178.666613 
L 909.638046 192.832904 
L 930.039981 178.270477 
L 950.441915 167.596873 
L 970.843849 189.818894 
L 991.245783 172.361491 
L 1011.647718 180.094992 
L 1032.049652 179.118224 
L 1052.451586 175.249229 
L 1072.85352 178.808437 
L 1093.255455 162.977388 
" clip-path="url(#p5594ef2bd4)" style="fill: none; stroke: #8f93f4; stroke-width: 1.5; stroke-linecap: square"/>
   </g>
   <g id="line2d_19">
    <path d="M 134.364545 167.286677 
L 154.76648 177.339051 
L 175.168414 186.714957 
L 195.570348 193.243726 
L 215.972282 178.172098 
L 236.374217 225.99067 
L 256.776151 184.564546 
L 277.178085 154.486617 
L 297.580019 215.800132 
L 317.981954 218.399659 
L 338.383888 240.570513 
L 358.785822 233.309127 
L 379.187756 195.683676 
L 399.589691 209.312458 
L 419.991625 195.960811 
L 440.393559 211.277525 
L 460.795493 249.467761 
L 481.197427 234.112091 
L 501.599362 185.496968 
L 522.001296 196.849762 
L 542.40323 252.927048 
L 562.805164 225.653213 
L 583.207099 217.557241 
L 603.609033 217.788257 
L 624.010967 221.992457 
L 644.412901 221.818974 
L 664.814836 250.225987 
L 685.21677 235.366342 
L 705.618704 256.694817 
L 726.020638 230.033783 
L 746.422573 227.661331 
L 766.824507 241.792862 
L 787.226441 263.80589 
L 807.628375 273.526754 
L 828.030309 169.424231 
L 848.432244 220.735692 
L 868.834178 232.043043 
L 889.236112 200.888861 
L 909.638046 287.985297 
L 930.039981 227.034496 
L 950.441915 194.411096 
L 970.843849 259.586016 
L 991.245783 238.083737 
L 1011.647718 231.468088 
L 1032.049652 244.395525 
L 1052.451586 272.675484 
L 1072.85352 230.335575 
L 1093.255455 270.477876 
" clip-path="url(#p5594ef2bd4)" style="fill: none; stroke: #db70f4; stroke-width: 1.5; stroke-linecap: square"/>
   </g>
   <g id="line2d_20">
    <path d="M 134.364545 242.066292 
L 154.76648 236.40668 
L 175.168414 228.259221 
L 195.570348 278.948783 
L 215.972282 220.732468 
L 236.374217 303.855808 
L 256.776151 242.781371 
L 277.178085 192.034186 
L 297.580019 343.810833 
L 317.981954 291.816473 
L 338.383888 330.802105 
L 358.785822 312.262879 
L 379.187756 273.000046 
L 399.589691 288.69412 
L 419.991625 330.525733 
L 440.393559 294.014669 
L 460.795493 356.716758 
L 481.197427 315.736441 
L 501.599362 296.099679 
L 522.001296 248.18192 
L 542.40323 361.047889 
L 562.805164 284.338022 
L 583.207099 323.031488 
L 603.609033 324.077401 
L 624.010967 290.332449 
L 644.412901 353.258519 
L 664.814836 337.258273 
L 685.21677 333.904394 
L 705.618704 338.109149 
L 726.020638 305.202861 
L 746.422573 267.195217 
L 766.824507 327.082691 
L 787.226441 353.147344 
L 807.628375 342.259314 
L 828.030309 231.019058 
L 848.432244 331.74305 
L 868.834178 311.175977 
L 889.236112 281.268281 
L 909.638046 329.380682 
L 930.039981 302.47261 
L 950.441915 285.694858 
L 970.843849 389.713288 
L 991.245783 331.741658 
L 1011.647718 342.807865 
L 1032.049652 327.996947 
L 1052.451586 360.229472 
L 1072.85352 362.265379 
L 1093.255455 362.594158 
" clip-path="url(#p5594ef2bd4)" style="fill: none; stroke: #f667c6; stroke-width: 1.5; stroke-linecap: square"/>
   </g>
   <g id="line2d_21"/>
   <g id="line2d_22"/>
   <g id="line2d_23"/>
   <g id="line2d_24"/>
   <g id="line2d_25"/>
   <g id="line2d_26"/>
   <g id="line2d_27"/>
   <g id="line2d_28"/>
   <g id="line2d_29"/>
   <g id="line2d_30"/>
   <g id="line2d_31"/>
   <g id="patch_3">
    <path d="M 86.42 490.552 
L 86.42 10.8 
" style="fill: none; stroke: #000000; stroke-width: 0.8; stroke-linejoin: miter; stroke-linecap: square"/>
   </g>
   <g id="patch_4">
    <path d="M 1141.2 490.552 
L 1141.2 10.8 
" style="fill: none; stroke: #000000; stroke-width: 0.8; stroke-linejoin: miter; stroke-linecap: square"/>
   </g>
   <g id="patch_5">
    <path d="M 86.42 490.552 
L 1141.2 490.552 
" style="fill: none; stroke: #000000; stroke-width: 0.8; stroke-linejoin: miter; stroke-linecap: square"/>
   </g>
   <g id="patch_6">
    <path d="M 86.42 10.8 
L 1141.2 10.8 
" style="fill: none; stroke: #000000; stroke-width: 0.8; stroke-linejoin: miter; stroke-linecap: square"/>
   </g>
   <g id="legend_1">
    <g id="patch_7">
     <path d="M 97.62 482.552 
L 267.365 482.552 
Q 270.565 482.552 270.565 479.352 
L 270.565 222.617 
Q 270.565 219.417 267.365 219.417 
L 97.62 219.417 
Q 94.42 219.417 94.42 222.617 
L 94.42 479.352 
Q 94.42 482.552 97.62 482.552 
z
" style="fill: #ffffff; opacity: 0.8; stroke: #cccccc; stroke-linejoin: miter"/>
    </g>
    <g id="line2d_32">
     <path d="M 100.82 232.3745 
L 116.82 232.3745 
L 132.82 232.3745 
" style="fill: none; stroke: #f77189; stroke-width: 1.5; stroke-linecap: square"/>
    </g>
    <g id="text_12">
     <!-- BayesianRidge -->
     <g transform="translate(145.62 237.9745) scale(0.16 -0.16)">
      <defs>
       <path id="DejaVuSans-42" d="M 1259 2228 
L 1259 519 
L 2272 519 
Q 2781 519 3026 730 
Q 3272 941 3272 1375 
Q 3272 1813 3026 2020 
Q 2781 2228 2272 2228 
L 1259 2228 
z
M 1259 4147 
L 1259 2741 
L 2194 2741 
Q 2656 2741 2882 2914 
Q 3109 3088 3109 3444 
Q 3109 3797 2882 3972 
Q 2656 4147 2194 4147 
L 1259 4147 
z
M 628 4666 
L 2241 4666 
Q 2963 4666 3353 4366 
Q 3744 4066 3744 3513 
Q 3744 3084 3544 2831 
Q 3344 2578 2956 2516 
Q 3422 2416 3680 2098 
Q 3938 1781 3938 1306 
Q 3938 681 3513 340 
Q 3088 0 2303 0 
L 628 0 
L 628 4666 
z
" transform="scale(0.015625)"/>
       <path id="DejaVuSans-79" d="M 2059 -325 
Q 1816 -950 1584 -1140 
Q 1353 -1331 966 -1331 
L 506 -1331 
L 506 -850 
L 844 -850 
Q 1081 -850 1212 -737 
Q 1344 -625 1503 -206 
L 1606 56 
L 191 3500 
L 800 3500 
L 1894 763 
L 2988 3500 
L 3597 3500 
L 2059 -325 
z
" transform="scale(0.015625)"/>
      </defs>
      <use xlink:href="#DejaVuSans-42"/>
      <use xlink:href="#DejaVuSans-61" x="68.603516"/>
      <use xlink:href="#DejaVuSans-79" x="129.882812"/>
      <use xlink:href="#DejaVuSans-65" x="189.0625"/>
      <use xlink:href="#DejaVuSans-73" x="250.585938"/>
      <use xlink:href="#DejaVuSans-69" x="302.685547"/>
      <use xlink:href="#DejaVuSans-61" x="330.46875"/>
      <use xlink:href="#DejaVuSans-6e" x="391.748047"/>
      <use xlink:href="#DejaVuSans-52" x="455.126953"/>
      <use xlink:href="#DejaVuSans-69" x="524.609375"/>
      <use xlink:href="#DejaVuSans-64" x="552.392578"/>
      <use xlink:href="#DejaVuSans-67" x="615.869141"/>
      <use xlink:href="#DejaVuSans-65" x="679.345703"/>
     </g>
    </g>
    <g id="line2d_33">
     <path d="M 100.82 255.8595 
L 116.82 255.8595 
L 132.82 255.8595 
" style="fill: none; stroke: #e18632; stroke-width: 1.5; stroke-linecap: square"/>
    </g>
    <g id="text_13">
     <!-- gbr -->
     <g transform="translate(145.62 261.4595) scale(0.16 -0.16)">
      <defs>
       <path id="DejaVuSans-62" d="M 3116 1747 
Q 3116 2381 2855 2742 
Q 2594 3103 2138 3103 
Q 1681 3103 1420 2742 
Q 1159 2381 1159 1747 
Q 1159 1113 1420 752 
Q 1681 391 2138 391 
Q 2594 391 2855 752 
Q 3116 1113 3116 1747 
z
M 1159 2969 
Q 1341 3281 1617 3432 
Q 1894 3584 2278 3584 
Q 2916 3584 3314 3078 
Q 3713 2572 3713 1747 
Q 3713 922 3314 415 
Q 2916 -91 2278 -91 
Q 1894 -91 1617 61 
Q 1341 213 1159 525 
L 1159 0 
L 581 0 
L 581 4863 
L 1159 4863 
L 1159 2969 
z
" transform="scale(0.015625)"/>
      </defs>
      <use xlink:href="#DejaVuSans-67"/>
      <use xlink:href="#DejaVuSans-62" x="63.476562"/>
      <use xlink:href="#DejaVuSans-72" x="126.953125"/>
     </g>
    </g>
    <g id="line2d_34">
     <path d="M 100.82 279.3445 
L 116.82 279.3445 
L 132.82 279.3445 
" style="fill: none; stroke: #b59a32; stroke-width: 1.5; stroke-linecap: square"/>
    </g>
    <g id="text_14">
     <!-- lgbm -->
     <g transform="translate(145.62 284.9445) scale(0.16 -0.16)">
      <use xlink:href="#DejaVuSans-6c"/>
      <use xlink:href="#DejaVuSans-67" x="27.783203"/>
      <use xlink:href="#DejaVuSans-62" x="91.259766"/>
      <use xlink:href="#DejaVuSans-6d" x="154.736328"/>
     </g>
    </g>
    <g id="line2d_35">
     <path d="M 100.82 302.8295 
L 116.82 302.8295 
L 132.82 302.8295 
" style="fill: none; stroke: #8ba731; stroke-width: 1.5; stroke-linecap: square"/>
    </g>
    <g id="text_15">
     <!-- xgb -->
     <g transform="translate(145.62 308.4295) scale(0.16 -0.16)">
      <defs>
       <path id="DejaVuSans-78" d="M 3513 3500 
L 2247 1797 
L 3578 0 
L 2900 0 
L 1881 1375 
L 863 0 
L 184 0 
L 1544 1831 
L 300 3500 
L 978 3500 
L 1906 2253 
L 2834 3500 
L 3513 3500 
z
" transform="scale(0.015625)"/>
      </defs>
      <use xlink:href="#DejaVuSans-78"/>
      <use xlink:href="#DejaVuSans-67" x="59.179688"/>
      <use xlink:href="#DejaVuSans-62" x="122.65625"/>
     </g>
    </g>
    <g id="line2d_36">
     <path d="M 100.82 326.3145 
L 116.82 326.3145 
L 132.82 326.3145 
" style="fill: none; stroke: #32b258; stroke-width: 1.5; stroke-linecap: square"/>
    </g>
    <g id="text_16">
     <!-- rf -->
     <g transform="translate(145.62 331.9145) scale(0.16 -0.16)">
      <defs>
       <path id="DejaVuSans-66" d="M 2375 4863 
L 2375 4384 
L 1825 4384 
Q 1516 4384 1395 4259 
Q 1275 4134 1275 3809 
L 1275 3500 
L 2222 3500 
L 2222 3053 
L 1275 3053 
L 1275 0 
L 697 0 
L 697 3053 
L 147 3053 
L 147 3500 
L 697 3500 
L 697 3744 
Q 697 4328 969 4595 
Q 1241 4863 1831 4863 
L 2375 4863 
z
" transform="scale(0.015625)"/>
      </defs>
      <use xlink:href="#DejaVuSans-72"/>
      <use xlink:href="#DejaVuSans-66" x="41.113281"/>
     </g>
    </g>
    <g id="line2d_37">
     <path d="M 100.82 349.7995 
L 116.82 349.7995 
L 132.82 349.7995 
" style="fill: none; stroke: #35ae95; stroke-width: 1.5; stroke-linecap: square"/>
    </g>
    <g id="text_17">
     <!-- HubR -->
     <g transform="translate(145.62 355.3995) scale(0.16 -0.16)">
      <defs>
       <path id="DejaVuSans-75" d="M 544 1381 
L 544 3500 
L 1119 3500 
L 1119 1403 
Q 1119 906 1312 657 
Q 1506 409 1894 409 
Q 2359 409 2629 706 
Q 2900 1003 2900 1516 
L 2900 3500 
L 3475 3500 
L 3475 0 
L 2900 0 
L 2900 538 
Q 2691 219 2414 64 
Q 2138 -91 1772 -91 
Q 1169 -91 856 284 
Q 544 659 544 1381 
z
M 1991 3584 
L 1991 3584 
z
" transform="scale(0.015625)"/>
      </defs>
      <use xlink:href="#DejaVuSans-48"/>
      <use xlink:href="#DejaVuSans-75" x="75.195312"/>
      <use xlink:href="#DejaVuSans-62" x="138.574219"/>
      <use xlink:href="#DejaVuSans-52" x="202.050781"/>
     </g>
    </g>
    <g id="line2d_38">
     <path d="M 100.82 373.2845 
L 116.82 373.2845 
L 132.82 373.2845 
" style="fill: none; stroke: #37abb2; stroke-width: 1.5; stroke-linecap: square"/>
    </g>
    <g id="text_18">
     <!-- Adaboost -->
     <g transform="translate(145.62 378.8845) scale(0.16 -0.16)">
      <defs>
       <path id="DejaVuSans-41" d="M 2188 4044 
L 1331 1722 
L 3047 1722 
L 2188 4044 
z
M 1831 4666 
L 2547 4666 
L 4325 0 
L 3669 0 
L 3244 1197 
L 1141 1197 
L 716 0 
L 50 0 
L 1831 4666 
z
" transform="scale(0.015625)"/>
      </defs>
      <use xlink:href="#DejaVuSans-41"/>
      <use xlink:href="#DejaVuSans-64" x="66.658203"/>
      <use xlink:href="#DejaVuSans-61" x="130.134766"/>
      <use xlink:href="#DejaVuSans-62" x="191.414062"/>
      <use xlink:href="#DejaVuSans-6f" x="254.890625"/>
      <use xlink:href="#DejaVuSans-6f" x="316.072266"/>
      <use xlink:href="#DejaVuSans-73" x="377.253906"/>
      <use xlink:href="#DejaVuSans-74" x="429.353516"/>
     </g>
    </g>
    <g id="line2d_39">
     <path d="M 100.82 396.7695 
L 116.82 396.7695 
L 132.82 396.7695 
" style="fill: none; stroke: #39a7d6; stroke-width: 1.5; stroke-linecap: square"/>
    </g>
    <g id="text_19">
     <!-- Lasso -->
     <g transform="translate(145.62 402.3695) scale(0.16 -0.16)">
      <defs>
       <path id="DejaVuSans-4c" d="M 628 4666 
L 1259 4666 
L 1259 531 
L 3531 531 
L 3531 0 
L 628 0 
L 628 4666 
z
" transform="scale(0.015625)"/>
      </defs>
      <use xlink:href="#DejaVuSans-4c"/>
      <use xlink:href="#DejaVuSans-61" x="55.712891"/>
      <use xlink:href="#DejaVuSans-73" x="116.992188"/>
      <use xlink:href="#DejaVuSans-73" x="169.091797"/>
      <use xlink:href="#DejaVuSans-6f" x="221.191406"/>
     </g>
    </g>
    <g id="line2d_40">
     <path d="M 100.82 420.2545 
L 116.82 420.2545 
L 132.82 420.2545 
" style="fill: none; stroke: #8f93f4; stroke-width: 1.5; stroke-linecap: square"/>
    </g>
    <g id="text_20">
     <!-- LassoLars -->
     <g transform="translate(145.62 425.8545) scale(0.16 -0.16)">
      <use xlink:href="#DejaVuSans-4c"/>
      <use xlink:href="#DejaVuSans-61" x="55.712891"/>
      <use xlink:href="#DejaVuSans-73" x="116.992188"/>
      <use xlink:href="#DejaVuSans-73" x="169.091797"/>
      <use xlink:href="#DejaVuSans-6f" x="221.191406"/>
      <use xlink:href="#DejaVuSans-4c" x="282.373047"/>
      <use xlink:href="#DejaVuSans-61" x="338.085938"/>
      <use xlink:href="#DejaVuSans-72" x="399.365234"/>
      <use xlink:href="#DejaVuSans-73" x="440.478516"/>
     </g>
    </g>
    <g id="line2d_41">
     <path d="M 100.82 443.7395 
L 116.82 443.7395 
L 132.82 443.7395 
" style="fill: none; stroke: #db70f4; stroke-width: 1.5; stroke-linecap: square"/>
    </g>
    <g id="text_21">
     <!-- et -->
     <g transform="translate(145.62 449.3395) scale(0.16 -0.16)">
      <use xlink:href="#DejaVuSans-65"/>
      <use xlink:href="#DejaVuSans-74" x="61.523438"/>
     </g>
    </g>
    <g id="line2d_42">
     <path d="M 100.82 467.2245 
L 116.82 467.2245 
L 132.82 467.2245 
" style="fill: none; stroke: #f667c6; stroke-width: 1.5; stroke-linecap: square"/>
    </g>
    <g id="text_22">
     <!-- dt -->
     <g transform="translate(145.62 472.8245) scale(0.16 -0.16)">
      <use xlink:href="#DejaVuSans-64"/>
      <use xlink:href="#DejaVuSans-74" x="63.476562"/>
     </g>
    </g>
   </g>
  </g>
 </g>
 <defs>
  <clipPath id="p5594ef2bd4">
   <rect x="86.42" y="10.8" width="1054.78" height="479.752"/>
  </clipPath>
 </defs>
</svg>
