<?xml version="1.0" encoding="utf-8" standalone="no"?>
<!DOCTYPE svg PUBLIC "-//W3C//DTD SVG 1.1//EN"
  "http://www.w3.org/Graphics/SVG/1.1/DTD/svg11.dtd">
<svg xmlns:xlink="http://www.w3.org/1999/xlink" width="1152pt" height="576pt" viewBox="0 0 1152 576" xmlns="http://www.w3.org/2000/svg" version="1.1">
 <metadata>
  <rdf:RDF xmlns:dc="http://purl.org/dc/elements/1.1/" xmlns:cc="http://creativecommons.org/ns#" xmlns:rdf="http://www.w3.org/1999/02/22-rdf-syntax-ns#">
   <cc:Work>
    <dc:type rdf:resource="http://purl.org/dc/dcmitype/StillImage"/>
    <dc:date>2025-04-17T09:44:10.850918</dc:date>
    <dc:format>image/svg+xml</dc:format>
    <dc:creator>
     <cc:Agent>
      <dc:title>Matplotlib v3.9.2, https://matplotlib.org/</dc:title>
     </cc:Agent>
    </dc:creator>
   </cc:Work>
  </rdf:RDF>
 </metadata>
 <defs>
  <style type="text/css">*{stroke-linejoin: round; stroke-linecap: butt}</style>
 </defs>
 <g id="figure_1">
  <g id="patch_1">
   <path d="M 0 576 
L 1152 576 
L 1152 0 
L 0 0 
z
" style="fill: #ffffff"/>
  </g>
  <g id="axes_1">
   <g id="patch_2">
    <path d="M 96.95 490.552 
L 1141.2 490.552 
L 1141.2 10.8 
L 96.95 10.8 
z
" style="fill: #ffffff"/>
   </g>
   <g id="PolyCollection_1">
    <defs>
     <path id="m44ecf94431" d="M 144.415909 -543.393091 
L 144.415909 -543.376498 
L 164.614168 -543.356831 
L 184.812427 -543.326087 
L 205.010687 -543.294731 
L 225.208946 -543.24229 
L 245.407205 -543.217576 
L 265.605464 -543.211421 
L 285.803723 -543.15037 
L 306.001983 -542.940451 
L 326.200242 -542.844031 
L 346.398501 -542.735622 
L 366.59676 -542.671715 
L 386.795019 -542.617137 
L 406.993279 -542.250643 
L 427.191538 -542.57806 
L 447.389797 -542.515934 
L 467.588056 -542.625252 
L 487.786315 -542.140161 
L 507.984574 -542.044476 
L 528.182834 -542.281211 
L 548.381093 -541.780471 
L 568.579352 -541.515367 
L 588.777611 -539.599262 
L 608.97587 -538.294848 
L 629.17413 -538.669044 
L 649.372389 -539.406625 
L 669.570648 -540.559481 
L 689.768907 -539.351015 
L 709.967166 -535.957758 
L 730.165426 -535.654164 
L 750.363685 -536.566052 
L 770.561944 -534.472285 
L 790.760203 -535.672072 
L 810.958462 -536.367195 
L 831.156721 -532.111963 
L 851.354981 -533.467007 
L 871.55324 -532.795274 
L 891.751499 -531.77829 
L 911.949758 -531.917431 
L 932.148017 -533.143792 
L 952.346277 -532.165028 
L 972.544536 -531.931309 
L 992.742795 -532.736847 
L 1012.941054 -305.632502 
L 1033.139313 -268.490155 
L 1053.337573 -269.753088 
L 1073.535832 -136.056001 
L 1093.734091 -136.185703 
L 1093.734091 -532.307981 
L 1093.734091 -532.307981 
L 1073.535832 -498.488248 
L 1053.337573 -534.683821 
L 1033.139313 -533.815907 
L 1012.941054 -536.268382 
L 992.742795 -536.423534 
L 972.544536 -535.901901 
L 952.346277 -535.583667 
L 932.148017 -535.992601 
L 911.949758 -536.759017 
L 891.751499 -537.384506 
L 871.55324 -537.311248 
L 851.354981 -537.867009 
L 831.156721 -538.352196 
L 810.958462 -538.120273 
L 790.760203 -537.513095 
L 770.561944 -537.362997 
L 750.363685 -538.025446 
L 730.165426 -537.502826 
L 709.967166 -537.666122 
L 689.768907 -540.842857 
L 669.570648 -541.325794 
L 649.372389 -541.085849 
L 629.17413 -541.562267 
L 608.97587 -541.918281 
L 588.777611 -542.169329 
L 568.579352 -542.142122 
L 548.381093 -542.342914 
L 528.182834 -542.571345 
L 507.984574 -542.688533 
L 487.786315 -542.663653 
L 467.588056 -542.849974 
L 447.389797 -542.850323 
L 427.191538 -542.840597 
L 406.993279 -542.869144 
L 386.795019 -542.982188 
L 366.59676 -543.007465 
L 346.398501 -543.019514 
L 326.200242 -543.086515 
L 306.001983 -543.127507 
L 285.803723 -543.241233 
L 265.605464 -543.255237 
L 245.407205 -543.268849 
L 225.208946 -543.280207 
L 205.010687 -543.314537 
L 184.812427 -543.353481 
L 164.614168 -543.375944 
L 144.415909 -543.393091 
z
" style="stroke: #1f77b4; stroke-opacity: 0.2"/>
    </defs>
    <g clip-path="url(#pc3659dbdee)">
     <use xlink:href="#m44ecf94431" x="0" y="576" style="fill: #1f77b4; fill-opacity: 0.2; stroke: #1f77b4; stroke-opacity: 0.2"/>
    </g>
   </g>
   <g id="PolyCollection_2">
    <defs>
     <path id="m65c553fa29" d="M 144.415909 -543.381938 
L 144.415909 -543.363233 
L 164.614168 -543.355236 
L 184.812427 -543.329892 
L 205.010687 -543.289042 
L 225.208946 -543.259925 
L 245.407205 -543.232803 
L 265.605464 -543.214793 
L 285.803723 -543.177968 
L 306.001983 -542.998678 
L 326.200242 -542.88532 
L 346.398501 -542.794158 
L 366.59676 -542.743118 
L 386.795019 -542.703956 
L 406.993279 -542.513561 
L 427.191538 -542.634711 
L 447.389797 -542.628057 
L 467.588056 -542.528546 
L 487.786315 -541.994998 
L 507.984574 -542.148964 
L 528.182834 -542.306212 
L 548.381093 -542.0619 
L 568.579352 -541.817433 
L 588.777611 -539.519449 
L 608.97587 -537.077041 
L 629.17413 -537.536232 
L 649.372389 -539.021678 
L 669.570648 -540.815106 
L 689.768907 -538.064058 
L 709.967166 -533.704715 
L 730.165426 -535.206952 
L 750.363685 -536.229416 
L 770.561944 -533.919951 
L 790.760203 -535.739732 
L 810.958462 -536.263377 
L 831.156721 -533.110959 
L 851.354981 -532.631308 
L 871.55324 -532.594813 
L 891.751499 -532.685191 
L 911.949758 -532.185798 
L 932.148017 -535.377965 
L 952.346277 -533.759319 
L 972.544536 -533.946377 
L 992.742795 -534.04699 
L 1012.941054 -495.059188 
L 1033.139313 -406.109899 
L 1053.337573 -404.314197 
L 1073.535832 -377.233834 
L 1093.734091 -376.546609 
L 1093.734091 -521.551646 
L 1093.734091 -521.551646 
L 1073.535832 -522.593019 
L 1053.337573 -534.745207 
L 1033.139313 -534.802397 
L 1012.941054 -536.383772 
L 992.742795 -536.840992 
L 972.544536 -536.898592 
L 952.346277 -536.641431 
L 932.148017 -536.784269 
L 911.949758 -537.710834 
L 891.751499 -538.402042 
L 871.55324 -537.850764 
L 851.354981 -538.136947 
L 831.156721 -538.705499 
L 810.958462 -538.260544 
L 790.760203 -537.883193 
L 770.561944 -537.201701 
L 750.363685 -538.212714 
L 730.165426 -537.201123 
L 709.967166 -537.615273 
L 689.768907 -540.493719 
L 669.570648 -541.489847 
L 649.372389 -541.099437 
L 629.17413 -541.721255 
L 608.97587 -542.070176 
L 588.777611 -542.24636 
L 568.579352 -542.35064 
L 548.381093 -542.470702 
L 528.182834 -542.607705 
L 507.984574 -542.675063 
L 487.786315 -542.717019 
L 467.588056 -542.872142 
L 447.389797 -542.912183 
L 427.191538 -542.894514 
L 406.993279 -542.853617 
L 386.795019 -543.027588 
L 366.59676 -543.023365 
L 346.398501 -543.046402 
L 326.200242 -543.112921 
L 306.001983 -543.141696 
L 285.803723 -543.253782 
L 265.605464 -543.270823 
L 245.407205 -543.282241 
L 225.208946 -543.297085 
L 205.010687 -543.315295 
L 184.812427 -543.351526 
L 164.614168 -543.372353 
L 144.415909 -543.381938 
z
" style="stroke: #ff7f0e; stroke-opacity: 0.2"/>
    </defs>
    <g clip-path="url(#pc3659dbdee)">
     <use xlink:href="#m65c553fa29" x="0" y="576" style="fill: #ff7f0e; fill-opacity: 0.2; stroke: #ff7f0e; stroke-opacity: 0.2"/>
    </g>
   </g>
   <g id="PolyCollection_3">
    <defs>
     <path id="m9330a80db5" d="M 144.415909 -543.37229 
L 144.415909 -543.356451 
L 164.614168 -543.329631 
L 184.812427 -543.286878 
L 205.010687 -543.25451 
L 225.208946 -543.204072 
L 245.407205 -543.175058 
L 265.605464 -543.16772 
L 285.803723 -543.075078 
L 306.001983 -542.733462 
L 326.200242 -542.640211 
L 346.398501 -542.521051 
L 366.59676 -542.58265 
L 386.795019 -542.601811 
L 406.993279 -542.101846 
L 427.191538 -542.411318 
L 447.389797 -542.40702 
L 467.588056 -542.407231 
L 487.786315 -541.48059 
L 507.984574 -541.904677 
L 528.182834 -542.1486 
L 548.381093 -541.43359 
L 568.579352 -541.438834 
L 588.777611 -539.646704 
L 608.97587 -538.141348 
L 629.17413 -538.941421 
L 649.372389 -539.601864 
L 669.570648 -540.146504 
L 689.768907 -539.85808 
L 709.967166 -536.374558 
L 730.165426 -535.971876 
L 750.363685 -535.848651 
L 770.561944 -533.415729 
L 790.760203 -535.39005 
L 810.958462 -536.076141 
L 831.156721 -530.631028 
L 851.354981 -532.018622 
L 871.55324 -529.628621 
L 891.751499 -528.383966 
L 911.949758 -528.180887 
L 932.148017 -530.773687 
L 952.346277 -530.391355 
L 972.544536 -530.21253 
L 992.742795 -532.830173 
L 1012.941054 -447.36186 
L 1033.139313 -391.484638 
L 1053.337573 -390.586532 
L 1073.535832 -107.661129 
L 1093.734091 -107.254909 
L 1093.734091 -506.606635 
L 1093.734091 -506.606635 
L 1073.535832 -506.441604 
L 1053.337573 -534.767215 
L 1033.139313 -532.865949 
L 1012.941054 -535.4733 
L 992.742795 -536.164872 
L 972.544536 -534.8179 
L 952.346277 -534.412327 
L 932.148017 -535.532272 
L 911.949758 -536.150548 
L 891.751499 -536.328609 
L 871.55324 -537.685231 
L 851.354981 -538.095731 
L 831.156721 -538.316347 
L 810.958462 -538.058586 
L 790.760203 -537.93889 
L 770.561944 -537.383233 
L 750.363685 -537.522534 
L 730.165426 -537.641241 
L 709.967166 -537.409452 
L 689.768907 -540.949169 
L 669.570648 -540.914596 
L 649.372389 -540.815874 
L 629.17413 -541.586592 
L 608.97587 -541.530007 
L 588.777611 -541.867321 
L 568.579352 -542.006697 
L 548.381093 -542.197917 
L 528.182834 -542.453686 
L 507.984574 -542.533158 
L 487.786315 -542.452996 
L 467.588056 -542.733667 
L 447.389797 -542.815746 
L 427.191538 -542.772163 
L 406.993279 -542.615584 
L 386.795019 -542.934507 
L 366.59676 -542.939622 
L 346.398501 -542.916676 
L 326.200242 -543.053392 
L 306.001983 -543.081389 
L 285.803723 -543.170085 
L 265.605464 -543.217463 
L 245.407205 -543.228774 
L 225.208946 -543.248714 
L 205.010687 -543.277767 
L 184.812427 -543.311705 
L 164.614168 -543.35256 
L 144.415909 -543.37229 
z
" style="stroke: #2ca02c; stroke-opacity: 0.2"/>
    </defs>
    <g clip-path="url(#pc3659dbdee)">
     <use xlink:href="#m9330a80db5" x="0" y="576" style="fill: #2ca02c; fill-opacity: 0.2; stroke: #2ca02c; stroke-opacity: 0.2"/>
    </g>
   </g>
   <g id="matplotlib.axis_1">
    <g id="xtick_1">
     <g id="line2d_1">
      <defs>
       <path id="ma606c9c7c6" d="M 0 0 
L 0 3.5 
" style="stroke: #000000; stroke-width: 0.8"/>
      </defs>
      <g>
       <use xlink:href="#ma606c9c7c6" x="134.316779" y="490.552" style="stroke: #000000; stroke-width: 0.8"/>
      </g>
     </g>
     <g id="text_1">
      <!-- 0 -->
      <g transform="translate(127.954279 512.748875) scale(0.2 -0.2)">
       <defs>
        <path id="DejaVuSans-30" d="M 2034 4250 
Q 1547 4250 1301 3770 
Q 1056 3291 1056 2328 
Q 1056 1369 1301 889 
Q 1547 409 2034 409 
Q 2525 409 2770 889 
Q 3016 1369 3016 2328 
Q 3016 3291 2770 3770 
Q 2525 4250 2034 4250 
z
M 2034 4750 
Q 2819 4750 3233 4129 
Q 3647 3509 3647 2328 
Q 3647 1150 3233 529 
Q 2819 -91 2034 -91 
Q 1250 -91 836 529 
Q 422 1150 422 2328 
Q 422 3509 836 4129 
Q 1250 4750 2034 4750 
z
" transform="scale(0.015625)"/>
       </defs>
       <use xlink:href="#DejaVuSans-30"/>
      </g>
     </g>
    </g>
    <g id="xtick_2">
     <g id="line2d_2">
      <g>
       <use xlink:href="#ma606c9c7c6" x="336.299371" y="490.552" style="stroke: #000000; stroke-width: 0.8"/>
      </g>
     </g>
     <g id="text_2">
      <!-- 20 -->
      <g transform="translate(323.574371 512.748875) scale(0.2 -0.2)">
       <defs>
        <path id="DejaVuSans-32" d="M 1228 531 
L 3431 531 
L 3431 0 
L 469 0 
L 469 531 
Q 828 903 1448 1529 
Q 2069 2156 2228 2338 
Q 2531 2678 2651 2914 
Q 2772 3150 2772 3378 
Q 2772 3750 2511 3984 
Q 2250 4219 1831 4219 
Q 1534 4219 1204 4116 
Q 875 4013 500 3803 
L 500 4441 
Q 881 4594 1212 4672 
Q 1544 4750 1819 4750 
Q 2544 4750 2975 4387 
Q 3406 4025 3406 3419 
Q 3406 3131 3298 2873 
Q 3191 2616 2906 2266 
Q 2828 2175 2409 1742 
Q 1991 1309 1228 531 
z
" transform="scale(0.015625)"/>
       </defs>
       <use xlink:href="#DejaVuSans-32"/>
       <use xlink:href="#DejaVuSans-30" x="63.623047"/>
      </g>
     </g>
    </g>
    <g id="xtick_3">
     <g id="line2d_3">
      <g>
       <use xlink:href="#ma606c9c7c6" x="538.281963" y="490.552" style="stroke: #000000; stroke-width: 0.8"/>
      </g>
     </g>
     <g id="text_3">
      <!-- 40 -->
      <g transform="translate(525.556963 512.748875) scale(0.2 -0.2)">
       <defs>
        <path id="DejaVuSans-34" d="M 2419 4116 
L 825 1625 
L 2419 1625 
L 2419 4116 
z
M 2253 4666 
L 3047 4666 
L 3047 1625 
L 3713 1625 
L 3713 1100 
L 3047 1100 
L 3047 0 
L 2419 0 
L 2419 1100 
L 313 1100 
L 313 1709 
L 2253 4666 
z
" transform="scale(0.015625)"/>
       </defs>
       <use xlink:href="#DejaVuSans-34"/>
       <use xlink:href="#DejaVuSans-30" x="63.623047"/>
      </g>
     </g>
    </g>
    <g id="xtick_4">
     <g id="line2d_4">
      <g>
       <use xlink:href="#ma606c9c7c6" x="740.264555" y="490.552" style="stroke: #000000; stroke-width: 0.8"/>
      </g>
     </g>
     <g id="text_4">
      <!-- 60 -->
      <g transform="translate(727.539555 512.748875) scale(0.2 -0.2)">
       <defs>
        <path id="DejaVuSans-36" d="M 2113 2584 
Q 1688 2584 1439 2293 
Q 1191 2003 1191 1497 
Q 1191 994 1439 701 
Q 1688 409 2113 409 
Q 2538 409 2786 701 
Q 3034 994 3034 1497 
Q 3034 2003 2786 2293 
Q 2538 2584 2113 2584 
z
M 3366 4563 
L 3366 3988 
Q 3128 4100 2886 4159 
Q 2644 4219 2406 4219 
Q 1781 4219 1451 3797 
Q 1122 3375 1075 2522 
Q 1259 2794 1537 2939 
Q 1816 3084 2150 3084 
Q 2853 3084 3261 2657 
Q 3669 2231 3669 1497 
Q 3669 778 3244 343 
Q 2819 -91 2113 -91 
Q 1303 -91 875 529 
Q 447 1150 447 2328 
Q 447 3434 972 4092 
Q 1497 4750 2381 4750 
Q 2619 4750 2861 4703 
Q 3103 4656 3366 4563 
z
" transform="scale(0.015625)"/>
       </defs>
       <use xlink:href="#DejaVuSans-36"/>
       <use xlink:href="#DejaVuSans-30" x="63.623047"/>
      </g>
     </g>
    </g>
    <g id="xtick_5">
     <g id="line2d_5">
      <g>
       <use xlink:href="#ma606c9c7c6" x="942.247147" y="490.552" style="stroke: #000000; stroke-width: 0.8"/>
      </g>
     </g>
     <g id="text_5">
      <!-- 80 -->
      <g transform="translate(929.522147 512.748875) scale(0.2 -0.2)">
       <defs>
        <path id="DejaVuSans-38" d="M 2034 2216 
Q 1584 2216 1326 1975 
Q 1069 1734 1069 1313 
Q 1069 891 1326 650 
Q 1584 409 2034 409 
Q 2484 409 2743 651 
Q 3003 894 3003 1313 
Q 3003 1734 2745 1975 
Q 2488 2216 2034 2216 
z
M 1403 2484 
Q 997 2584 770 2862 
Q 544 3141 544 3541 
Q 544 4100 942 4425 
Q 1341 4750 2034 4750 
Q 2731 4750 3128 4425 
Q 3525 4100 3525 3541 
Q 3525 3141 3298 2862 
Q 3072 2584 2669 2484 
Q 3125 2378 3379 2068 
Q 3634 1759 3634 1313 
Q 3634 634 3220 271 
Q 2806 -91 2034 -91 
Q 1263 -91 848 271 
Q 434 634 434 1313 
Q 434 1759 690 2068 
Q 947 2378 1403 2484 
z
M 1172 3481 
Q 1172 3119 1398 2916 
Q 1625 2713 2034 2713 
Q 2441 2713 2670 2916 
Q 2900 3119 2900 3481 
Q 2900 3844 2670 4047 
Q 2441 4250 2034 4250 
Q 1625 4250 1398 4047 
Q 1172 3844 1172 3481 
z
" transform="scale(0.015625)"/>
       </defs>
       <use xlink:href="#DejaVuSans-38"/>
       <use xlink:href="#DejaVuSans-30" x="63.623047"/>
      </g>
     </g>
    </g>
    <g id="text_6">
     <!-- Percentile Threshold -->
     <g transform="translate(517.295313 536.105125) scale(0.2 -0.2)">
      <defs>
       <path id="DejaVuSans-50" d="M 1259 4147 
L 1259 2394 
L 2053 2394 
Q 2494 2394 2734 2622 
Q 2975 2850 2975 3272 
Q 2975 3691 2734 3919 
Q 2494 4147 2053 4147 
L 1259 4147 
z
M 628 4666 
L 2053 4666 
Q 2838 4666 3239 4311 
Q 3641 3956 3641 3272 
Q 3641 2581 3239 2228 
Q 2838 1875 2053 1875 
L 1259 1875 
L 1259 0 
L 628 0 
L 628 4666 
z
" transform="scale(0.015625)"/>
       <path id="DejaVuSans-65" d="M 3597 1894 
L 3597 1613 
L 953 1613 
Q 991 1019 1311 708 
Q 1631 397 2203 397 
Q 2534 397 2845 478 
Q 3156 559 3463 722 
L 3463 178 
Q 3153 47 2828 -22 
Q 2503 -91 2169 -91 
Q 1331 -91 842 396 
Q 353 884 353 1716 
Q 353 2575 817 3079 
Q 1281 3584 2069 3584 
Q 2775 3584 3186 3129 
Q 3597 2675 3597 1894 
z
M 3022 2063 
Q 3016 2534 2758 2815 
Q 2500 3097 2075 3097 
Q 1594 3097 1305 2825 
Q 1016 2553 972 2059 
L 3022 2063 
z
" transform="scale(0.015625)"/>
       <path id="DejaVuSans-72" d="M 2631 2963 
Q 2534 3019 2420 3045 
Q 2306 3072 2169 3072 
Q 1681 3072 1420 2755 
Q 1159 2438 1159 1844 
L 1159 0 
L 581 0 
L 581 3500 
L 1159 3500 
L 1159 2956 
Q 1341 3275 1631 3429 
Q 1922 3584 2338 3584 
Q 2397 3584 2469 3576 
Q 2541 3569 2628 3553 
L 2631 2963 
z
" transform="scale(0.015625)"/>
       <path id="DejaVuSans-63" d="M 3122 3366 
L 3122 2828 
Q 2878 2963 2633 3030 
Q 2388 3097 2138 3097 
Q 1578 3097 1268 2742 
Q 959 2388 959 1747 
Q 959 1106 1268 751 
Q 1578 397 2138 397 
Q 2388 397 2633 464 
Q 2878 531 3122 666 
L 3122 134 
Q 2881 22 2623 -34 
Q 2366 -91 2075 -91 
Q 1284 -91 818 406 
Q 353 903 353 1747 
Q 353 2603 823 3093 
Q 1294 3584 2113 3584 
Q 2378 3584 2631 3529 
Q 2884 3475 3122 3366 
z
" transform="scale(0.015625)"/>
       <path id="DejaVuSans-6e" d="M 3513 2113 
L 3513 0 
L 2938 0 
L 2938 2094 
Q 2938 2591 2744 2837 
Q 2550 3084 2163 3084 
Q 1697 3084 1428 2787 
Q 1159 2491 1159 1978 
L 1159 0 
L 581 0 
L 581 3500 
L 1159 3500 
L 1159 2956 
Q 1366 3272 1645 3428 
Q 1925 3584 2291 3584 
Q 2894 3584 3203 3211 
Q 3513 2838 3513 2113 
z
" transform="scale(0.015625)"/>
       <path id="DejaVuSans-74" d="M 1172 4494 
L 1172 3500 
L 2356 3500 
L 2356 3053 
L 1172 3053 
L 1172 1153 
Q 1172 725 1289 603 
Q 1406 481 1766 481 
L 2356 481 
L 2356 0 
L 1766 0 
Q 1100 0 847 248 
Q 594 497 594 1153 
L 594 3053 
L 172 3053 
L 172 3500 
L 594 3500 
L 594 4494 
L 1172 4494 
z
" transform="scale(0.015625)"/>
       <path id="DejaVuSans-69" d="M 603 3500 
L 1178 3500 
L 1178 0 
L 603 0 
L 603 3500 
z
M 603 4863 
L 1178 4863 
L 1178 4134 
L 603 4134 
L 603 4863 
z
" transform="scale(0.015625)"/>
       <path id="DejaVuSans-6c" d="M 603 4863 
L 1178 4863 
L 1178 0 
L 603 0 
L 603 4863 
z
" transform="scale(0.015625)"/>
       <path id="DejaVuSans-20" transform="scale(0.015625)"/>
       <path id="DejaVuSans-54" d="M -19 4666 
L 3928 4666 
L 3928 4134 
L 2272 4134 
L 2272 0 
L 1638 0 
L 1638 4134 
L -19 4134 
L -19 4666 
z
" transform="scale(0.015625)"/>
       <path id="DejaVuSans-68" d="M 3513 2113 
L 3513 0 
L 2938 0 
L 2938 2094 
Q 2938 2591 2744 2837 
Q 2550 3084 2163 3084 
Q 1697 3084 1428 2787 
Q 1159 2491 1159 1978 
L 1159 0 
L 581 0 
L 581 4863 
L 1159 4863 
L 1159 2956 
Q 1366 3272 1645 3428 
Q 1925 3584 2291 3584 
Q 2894 3584 3203 3211 
Q 3513 2838 3513 2113 
z
" transform="scale(0.015625)"/>
       <path id="DejaVuSans-73" d="M 2834 3397 
L 2834 2853 
Q 2591 2978 2328 3040 
Q 2066 3103 1784 3103 
Q 1356 3103 1142 2972 
Q 928 2841 928 2578 
Q 928 2378 1081 2264 
Q 1234 2150 1697 2047 
L 1894 2003 
Q 2506 1872 2764 1633 
Q 3022 1394 3022 966 
Q 3022 478 2636 193 
Q 2250 -91 1575 -91 
Q 1294 -91 989 -36 
Q 684 19 347 128 
L 347 722 
Q 666 556 975 473 
Q 1284 391 1588 391 
Q 1994 391 2212 530 
Q 2431 669 2431 922 
Q 2431 1156 2273 1281 
Q 2116 1406 1581 1522 
L 1381 1569 
Q 847 1681 609 1914 
Q 372 2147 372 2553 
Q 372 3047 722 3315 
Q 1072 3584 1716 3584 
Q 2034 3584 2315 3537 
Q 2597 3491 2834 3397 
z
" transform="scale(0.015625)"/>
       <path id="DejaVuSans-6f" d="M 1959 3097 
Q 1497 3097 1228 2736 
Q 959 2375 959 1747 
Q 959 1119 1226 758 
Q 1494 397 1959 397 
Q 2419 397 2687 759 
Q 2956 1122 2956 1747 
Q 2956 2369 2687 2733 
Q 2419 3097 1959 3097 
z
M 1959 3584 
Q 2709 3584 3137 3096 
Q 3566 2609 3566 1747 
Q 3566 888 3137 398 
Q 2709 -91 1959 -91 
Q 1206 -91 779 398 
Q 353 888 353 1747 
Q 353 2609 779 3096 
Q 1206 3584 1959 3584 
z
" transform="scale(0.015625)"/>
       <path id="DejaVuSans-64" d="M 2906 2969 
L 2906 4863 
L 3481 4863 
L 3481 0 
L 2906 0 
L 2906 525 
Q 2725 213 2448 61 
Q 2172 -91 1784 -91 
Q 1150 -91 751 415 
Q 353 922 353 1747 
Q 353 2572 751 3078 
Q 1150 3584 1784 3584 
Q 2172 3584 2448 3432 
Q 2725 3281 2906 2969 
z
M 947 1747 
Q 947 1113 1208 752 
Q 1469 391 1925 391 
Q 2381 391 2643 752 
Q 2906 1113 2906 1747 
Q 2906 2381 2643 2742 
Q 2381 3103 1925 3103 
Q 1469 3103 1208 2742 
Q 947 2381 947 1747 
z
" transform="scale(0.015625)"/>
      </defs>
      <use xlink:href="#DejaVuSans-50"/>
      <use xlink:href="#DejaVuSans-65" x="56.677734"/>
      <use xlink:href="#DejaVuSans-72" x="118.201172"/>
      <use xlink:href="#DejaVuSans-63" x="157.064453"/>
      <use xlink:href="#DejaVuSans-65" x="212.044922"/>
      <use xlink:href="#DejaVuSans-6e" x="273.568359"/>
      <use xlink:href="#DejaVuSans-74" x="336.947266"/>
      <use xlink:href="#DejaVuSans-69" x="376.15625"/>
      <use xlink:href="#DejaVuSans-6c" x="403.939453"/>
      <use xlink:href="#DejaVuSans-65" x="431.722656"/>
      <use xlink:href="#DejaVuSans-20" x="493.246094"/>
      <use xlink:href="#DejaVuSans-54" x="525.033203"/>
      <use xlink:href="#DejaVuSans-68" x="586.117188"/>
      <use xlink:href="#DejaVuSans-72" x="649.496094"/>
      <use xlink:href="#DejaVuSans-65" x="688.359375"/>
      <use xlink:href="#DejaVuSans-73" x="749.882812"/>
      <use xlink:href="#DejaVuSans-68" x="801.982422"/>
      <use xlink:href="#DejaVuSans-6f" x="865.361328"/>
      <use xlink:href="#DejaVuSans-6c" x="926.542969"/>
      <use xlink:href="#DejaVuSans-64" x="954.326172"/>
     </g>
     <!-- (Using "merge" Threshold Handling) -->
     <g transform="translate(438.360938 558.50075) scale(0.2 -0.2)">
      <defs>
       <path id="DejaVuSans-28" d="M 1984 4856 
Q 1566 4138 1362 3434 
Q 1159 2731 1159 2009 
Q 1159 1288 1364 580 
Q 1569 -128 1984 -844 
L 1484 -844 
Q 1016 -109 783 600 
Q 550 1309 550 2009 
Q 550 2706 781 3412 
Q 1013 4119 1484 4856 
L 1984 4856 
z
" transform="scale(0.015625)"/>
       <path id="DejaVuSans-55" d="M 556 4666 
L 1191 4666 
L 1191 1831 
Q 1191 1081 1462 751 
Q 1734 422 2344 422 
Q 2950 422 3222 751 
Q 3494 1081 3494 1831 
L 3494 4666 
L 4128 4666 
L 4128 1753 
Q 4128 841 3676 375 
Q 3225 -91 2344 -91 
Q 1459 -91 1007 375 
Q 556 841 556 1753 
L 556 4666 
z
" transform="scale(0.015625)"/>
       <path id="DejaVuSans-67" d="M 2906 1791 
Q 2906 2416 2648 2759 
Q 2391 3103 1925 3103 
Q 1463 3103 1205 2759 
Q 947 2416 947 1791 
Q 947 1169 1205 825 
Q 1463 481 1925 481 
Q 2391 481 2648 825 
Q 2906 1169 2906 1791 
z
M 3481 434 
Q 3481 -459 3084 -895 
Q 2688 -1331 1869 -1331 
Q 1566 -1331 1297 -1286 
Q 1028 -1241 775 -1147 
L 775 -588 
Q 1028 -725 1275 -790 
Q 1522 -856 1778 -856 
Q 2344 -856 2625 -561 
Q 2906 -266 2906 331 
L 2906 616 
Q 2728 306 2450 153 
Q 2172 0 1784 0 
Q 1141 0 747 490 
Q 353 981 353 1791 
Q 353 2603 747 3093 
Q 1141 3584 1784 3584 
Q 2172 3584 2450 3431 
Q 2728 3278 2906 2969 
L 2906 3500 
L 3481 3500 
L 3481 434 
z
" transform="scale(0.015625)"/>
       <path id="DejaVuSans-22" d="M 1147 4666 
L 1147 2931 
L 616 2931 
L 616 4666 
L 1147 4666 
z
M 2328 4666 
L 2328 2931 
L 1797 2931 
L 1797 4666 
L 2328 4666 
z
" transform="scale(0.015625)"/>
       <path id="DejaVuSans-6d" d="M 3328 2828 
Q 3544 3216 3844 3400 
Q 4144 3584 4550 3584 
Q 5097 3584 5394 3201 
Q 5691 2819 5691 2113 
L 5691 0 
L 5113 0 
L 5113 2094 
Q 5113 2597 4934 2840 
Q 4756 3084 4391 3084 
Q 3944 3084 3684 2787 
Q 3425 2491 3425 1978 
L 3425 0 
L 2847 0 
L 2847 2094 
Q 2847 2600 2669 2842 
Q 2491 3084 2119 3084 
Q 1678 3084 1418 2786 
Q 1159 2488 1159 1978 
L 1159 0 
L 581 0 
L 581 3500 
L 1159 3500 
L 1159 2956 
Q 1356 3278 1631 3431 
Q 1906 3584 2284 3584 
Q 2666 3584 2933 3390 
Q 3200 3197 3328 2828 
z
" transform="scale(0.015625)"/>
       <path id="DejaVuSans-48" d="M 628 4666 
L 1259 4666 
L 1259 2753 
L 3553 2753 
L 3553 4666 
L 4184 4666 
L 4184 0 
L 3553 0 
L 3553 2222 
L 1259 2222 
L 1259 0 
L 628 0 
L 628 4666 
z
" transform="scale(0.015625)"/>
       <path id="DejaVuSans-61" d="M 2194 1759 
Q 1497 1759 1228 1600 
Q 959 1441 959 1056 
Q 959 750 1161 570 
Q 1363 391 1709 391 
Q 2188 391 2477 730 
Q 2766 1069 2766 1631 
L 2766 1759 
L 2194 1759 
z
M 3341 1997 
L 3341 0 
L 2766 0 
L 2766 531 
Q 2569 213 2275 61 
Q 1981 -91 1556 -91 
Q 1019 -91 701 211 
Q 384 513 384 1019 
Q 384 1609 779 1909 
Q 1175 2209 1959 2209 
L 2766 2209 
L 2766 2266 
Q 2766 2663 2505 2880 
Q 2244 3097 1772 3097 
Q 1472 3097 1187 3025 
Q 903 2953 641 2809 
L 641 3341 
Q 956 3463 1253 3523 
Q 1550 3584 1831 3584 
Q 2591 3584 2966 3190 
Q 3341 2797 3341 1997 
z
" transform="scale(0.015625)"/>
       <path id="DejaVuSans-29" d="M 513 4856 
L 1013 4856 
Q 1481 4119 1714 3412 
Q 1947 2706 1947 2009 
Q 1947 1309 1714 600 
Q 1481 -109 1013 -844 
L 513 -844 
Q 928 -128 1133 580 
Q 1338 1288 1338 2009 
Q 1338 2731 1133 3434 
Q 928 4138 513 4856 
z
" transform="scale(0.015625)"/>
      </defs>
      <use xlink:href="#DejaVuSans-28"/>
      <use xlink:href="#DejaVuSans-55" x="39.013672"/>
      <use xlink:href="#DejaVuSans-73" x="112.207031"/>
      <use xlink:href="#DejaVuSans-69" x="164.306641"/>
      <use xlink:href="#DejaVuSans-6e" x="192.089844"/>
      <use xlink:href="#DejaVuSans-67" x="255.46875"/>
      <use xlink:href="#DejaVuSans-20" x="318.945312"/>
      <use xlink:href="#DejaVuSans-22" x="350.732422"/>
      <use xlink:href="#DejaVuSans-6d" x="396.728516"/>
      <use xlink:href="#DejaVuSans-65" x="494.140625"/>
      <use xlink:href="#DejaVuSans-72" x="555.664062"/>
      <use xlink:href="#DejaVuSans-67" x="595.027344"/>
      <use xlink:href="#DejaVuSans-65" x="658.503906"/>
      <use xlink:href="#DejaVuSans-22" x="720.027344"/>
      <use xlink:href="#DejaVuSans-20" x="766.023438"/>
      <use xlink:href="#DejaVuSans-54" x="797.810547"/>
      <use xlink:href="#DejaVuSans-68" x="858.894531"/>
      <use xlink:href="#DejaVuSans-72" x="922.273438"/>
      <use xlink:href="#DejaVuSans-65" x="961.136719"/>
      <use xlink:href="#DejaVuSans-73" x="1022.660156"/>
      <use xlink:href="#DejaVuSans-68" x="1074.759766"/>
      <use xlink:href="#DejaVuSans-6f" x="1138.138672"/>
      <use xlink:href="#DejaVuSans-6c" x="1199.320312"/>
      <use xlink:href="#DejaVuSans-64" x="1227.103516"/>
      <use xlink:href="#DejaVuSans-20" x="1290.580078"/>
      <use xlink:href="#DejaVuSans-48" x="1322.367188"/>
      <use xlink:href="#DejaVuSans-61" x="1397.5625"/>
      <use xlink:href="#DejaVuSans-6e" x="1458.841797"/>
      <use xlink:href="#DejaVuSans-64" x="1522.220703"/>
      <use xlink:href="#DejaVuSans-6c" x="1585.697266"/>
      <use xlink:href="#DejaVuSans-69" x="1613.480469"/>
      <use xlink:href="#DejaVuSans-6e" x="1641.263672"/>
      <use xlink:href="#DejaVuSans-67" x="1704.642578"/>
      <use xlink:href="#DejaVuSans-29" x="1768.119141"/>
     </g>
    </g>
   </g>
   <g id="matplotlib.axis_2">
    <g id="ytick_1">
     <g id="line2d_6">
      <defs>
       <path id="me9fe9aba1f" d="M 0 0 
L -3.5 0 
" style="stroke: #000000; stroke-width: 0.8"/>
      </defs>
      <g>
       <use xlink:href="#me9fe9aba1f" x="96.95" y="438.132756" style="stroke: #000000; stroke-width: 0.8"/>
      </g>
     </g>
     <g id="text_7">
      <!-- −100 -->
      <g transform="translate(35.015625 445.731194) scale(0.2 -0.2)">
       <defs>
        <path id="DejaVuSans-2212" d="M 678 2272 
L 4684 2272 
L 4684 1741 
L 678 1741 
L 678 2272 
z
" transform="scale(0.015625)"/>
        <path id="DejaVuSans-31" d="M 794 531 
L 1825 531 
L 1825 4091 
L 703 3866 
L 703 4441 
L 1819 4666 
L 2450 4666 
L 2450 531 
L 3481 531 
L 3481 0 
L 794 0 
L 794 531 
z
" transform="scale(0.015625)"/>
       </defs>
       <use xlink:href="#DejaVuSans-2212"/>
       <use xlink:href="#DejaVuSans-31" x="83.789062"/>
       <use xlink:href="#DejaVuSans-30" x="147.412109"/>
       <use xlink:href="#DejaVuSans-30" x="211.035156"/>
      </g>
     </g>
    </g>
    <g id="ytick_2">
     <g id="line2d_7">
      <g>
       <use xlink:href="#me9fe9aba1f" x="96.95" y="357.798362" style="stroke: #000000; stroke-width: 0.8"/>
      </g>
     </g>
     <g id="text_8">
      <!-- −80 -->
      <g transform="translate(47.740625 365.396799) scale(0.2 -0.2)">
       <use xlink:href="#DejaVuSans-2212"/>
       <use xlink:href="#DejaVuSans-38" x="83.789062"/>
       <use xlink:href="#DejaVuSans-30" x="147.412109"/>
      </g>
     </g>
    </g>
    <g id="ytick_3">
     <g id="line2d_8">
      <g>
       <use xlink:href="#me9fe9aba1f" x="96.95" y="277.463967" style="stroke: #000000; stroke-width: 0.8"/>
      </g>
     </g>
     <g id="text_9">
      <!-- −60 -->
      <g transform="translate(47.740625 285.062405) scale(0.2 -0.2)">
       <use xlink:href="#DejaVuSans-2212"/>
       <use xlink:href="#DejaVuSans-36" x="83.789062"/>
       <use xlink:href="#DejaVuSans-30" x="147.412109"/>
      </g>
     </g>
    </g>
    <g id="ytick_4">
     <g id="line2d_9">
      <g>
       <use xlink:href="#me9fe9aba1f" x="96.95" y="197.129572" style="stroke: #000000; stroke-width: 0.8"/>
      </g>
     </g>
     <g id="text_10">
      <!-- −40 -->
      <g transform="translate(47.740625 204.72801) scale(0.2 -0.2)">
       <use xlink:href="#DejaVuSans-2212"/>
       <use xlink:href="#DejaVuSans-34" x="83.789062"/>
       <use xlink:href="#DejaVuSans-30" x="147.412109"/>
      </g>
     </g>
    </g>
    <g id="ytick_5">
     <g id="line2d_10">
      <g>
       <use xlink:href="#me9fe9aba1f" x="96.95" y="116.795178" style="stroke: #000000; stroke-width: 0.8"/>
      </g>
     </g>
     <g id="text_11">
      <!-- −20 -->
      <g transform="translate(47.740625 124.393615) scale(0.2 -0.2)">
       <use xlink:href="#DejaVuSans-2212"/>
       <use xlink:href="#DejaVuSans-32" x="83.789062"/>
       <use xlink:href="#DejaVuSans-30" x="147.412109"/>
      </g>
     </g>
    </g>
    <g id="ytick_6">
     <g id="line2d_11">
      <g>
       <use xlink:href="#me9fe9aba1f" x="96.95" y="36.460783" style="stroke: #000000; stroke-width: 0.8"/>
      </g>
     </g>
     <g id="text_12">
      <!-- 0 -->
      <g transform="translate(77.225 44.059221) scale(0.2 -0.2)">
       <use xlink:href="#DejaVuSans-30"/>
      </g>
     </g>
    </g>
    <g id="text_13">
     <!-- R2 -->
     <g transform="translate(26.85625 263.986938) rotate(-90) scale(0.2 -0.2)">
      <defs>
       <path id="DejaVuSans-52" d="M 2841 2188 
Q 3044 2119 3236 1894 
Q 3428 1669 3622 1275 
L 4263 0 
L 3584 0 
L 2988 1197 
Q 2756 1666 2539 1819 
Q 2322 1972 1947 1972 
L 1259 1972 
L 1259 0 
L 628 0 
L 628 4666 
L 2053 4666 
Q 2853 4666 3247 4331 
Q 3641 3997 3641 3322 
Q 3641 2881 3436 2590 
Q 3231 2300 2841 2188 
z
M 1259 4147 
L 1259 2491 
L 2053 2491 
Q 2509 2491 2742 2702 
Q 2975 2913 2975 3322 
Q 2975 3731 2742 3939 
Q 2509 4147 2053 4147 
L 1259 4147 
z
" transform="scale(0.015625)"/>
      </defs>
      <use xlink:href="#DejaVuSans-52"/>
      <use xlink:href="#DejaVuSans-32" x="69.482422"/>
     </g>
    </g>
   </g>
   <g id="line2d_12">
    <path d="M 144.415909 32.614333 
L 164.614168 32.633572 
L 184.812427 32.659826 
L 205.010687 32.694435 
L 225.208946 32.737651 
L 245.407205 32.758566 
L 265.605464 32.767332 
L 285.803723 32.800605 
L 306.001983 32.967967 
L 326.200242 33.023117 
L 346.398501 33.137094 
L 366.59676 33.154136 
L 386.795019 33.190367 
L 406.993279 33.407645 
L 427.191538 33.299492 
L 447.389797 33.336145 
L 467.588056 33.259491 
L 487.786315 33.582219 
L 507.984574 33.595365 
L 528.182834 33.579337 
L 548.381093 33.924808 
L 568.579352 34.15951 
L 588.777611 34.782789 
L 608.97587 35.400523 
L 629.17413 35.64898 
L 649.372389 35.708613 
L 669.570648 35.057857 
L 689.768907 35.886942 
L 709.967166 39.226412 
L 730.165426 39.355058 
L 750.363685 38.693275 
L 770.561944 39.927356 
L 790.760203 39.410558 
L 810.958462 38.790772 
L 831.156721 40.016637 
L 851.354981 40.362092 
L 871.55324 40.881491 
L 891.751499 41.237156 
L 911.949758 41.660815 
L 932.148017 41.249647 
L 952.346277 42.009269 
L 972.544536 41.893319 
L 992.742795 41.355946 
L 1012.941054 117.240343 
L 1033.139313 154.714427 
L 1053.337573 154.114409 
L 1073.535832 240.498539 
L 1093.734091 240.792013 
" clip-path="url(#pc3659dbdee)" style="fill: none; stroke: #1f77b4; stroke-width: 1.5; stroke-linecap: square"/>
   </g>
   <g id="line2d_13">
    <path d="M 144.415909 32.626224 
L 164.614168 32.636665 
L 184.812427 32.659726 
L 205.010687 32.694865 
L 225.208946 32.721842 
L 245.407205 32.743017 
L 265.605464 32.758616 
L 285.803723 32.778049 
L 306.001983 32.935298 
L 326.200242 32.993956 
L 346.398501 33.089047 
L 366.59676 33.113746 
L 386.795019 33.127665 
L 406.993279 33.303026 
L 427.191538 33.255227 
L 447.389797 33.250678 
L 467.588056 33.28558 
L 487.786315 33.584685 
L 507.984574 33.558947 
L 528.182834 33.52974 
L 548.381093 33.728058 
L 568.579352 33.879583 
L 588.777611 34.750409 
L 608.97587 35.704656 
L 629.17413 35.907975 
L 649.372389 35.783209 
L 669.570648 34.866155 
L 689.768907 36.718622 
L 709.967166 40.13437 
L 730.165426 39.842172 
L 750.363685 38.670643 
L 770.561944 40.416406 
L 790.760203 39.236894 
L 810.958462 38.767306 
L 831.156721 39.724576 
L 851.354981 40.104161 
L 871.55324 40.362819 
L 891.751499 40.129431 
L 911.949758 40.578405 
L 932.148017 39.827588 
L 952.346277 40.68808 
L 972.544536 40.62674 
L 992.742795 40.48683 
L 1012.941054 53.934873 
L 1033.139313 93.766497 
L 1053.337573 93.932589 
L 1073.535832 120.305128 
L 1093.734091 120.59375 
" clip-path="url(#pc3659dbdee)" style="fill: none; stroke: #ff7f0e; stroke-width: 1.5; stroke-linecap: square"/>
   </g>
   <g id="line2d_14">
    <path d="M 144.415909 32.63525 
L 164.614168 32.65966 
L 184.812427 32.701498 
L 205.010687 32.733022 
L 225.208946 32.769246 
L 245.407205 32.802491 
L 265.605464 32.810111 
L 285.803723 32.87089 
L 306.001983 33.070142 
L 326.200242 33.136392 
L 346.398501 33.2833 
L 366.59676 33.239157 
L 386.795019 33.250969 
L 406.993279 33.631405 
L 427.191538 33.419784 
L 447.389797 33.400773 
L 467.588056 33.417612 
L 487.786315 33.993985 
L 507.984574 33.761372 
L 528.182834 33.690316 
L 548.381093 34.165993 
L 568.579352 34.275542 
L 588.777611 34.998406 
L 608.97587 35.77215 
L 629.17413 35.525303 
L 649.372389 35.793154 
L 669.570648 35.46945 
L 689.768907 35.508328 
L 709.967166 39.051078 
L 730.165426 39.12237 
L 750.363685 39.281468 
L 770.561944 40.277259 
L 790.760203 39.319253 
L 810.958462 39.009497 
L 831.156721 40.550137 
L 851.354981 40.712824 
L 871.55324 41.982235 
L 891.751499 43.583852 
L 911.949758 43.729903 
L 932.148017 42.955516 
L 952.346277 43.47057 
L 972.544536 43.416446 
L 992.742795 41.617531 
L 1012.941054 70.539499 
L 1033.139313 109.690752 
L 1053.337573 108.632743 
L 1073.535832 237.164983 
L 1093.734091 237.5418 
" clip-path="url(#pc3659dbdee)" style="fill: none; stroke: #2ca02c; stroke-width: 1.5; stroke-linecap: square"/>
   </g>
   <g id="line2d_15"/>
   <g id="line2d_16"/>
   <g id="line2d_17"/>
   <g id="patch_3">
    <path d="M 96.95 490.552 
L 96.95 10.8 
" style="fill: none; stroke: #000000; stroke-width: 0.8; stroke-linejoin: miter; stroke-linecap: square"/>
   </g>
   <g id="patch_4">
    <path d="M 1141.2 490.552 
L 1141.2 10.8 
" style="fill: none; stroke: #000000; stroke-width: 0.8; stroke-linejoin: miter; stroke-linecap: square"/>
   </g>
   <g id="patch_5">
    <path d="M 96.95 490.552 
L 1141.2 490.552 
" style="fill: none; stroke: #000000; stroke-width: 0.8; stroke-linejoin: miter; stroke-linecap: square"/>
   </g>
   <g id="patch_6">
    <path d="M 96.95 10.8 
L 1141.2 10.8 
" style="fill: none; stroke: #000000; stroke-width: 0.8; stroke-linejoin: miter; stroke-linecap: square"/>
   </g>
   <g id="legend_1">
    <g id="patch_7">
     <path d="M 108.15 482.552 
L 189.135 482.552 
Q 192.335 482.552 192.335 479.352 
L 192.335 410.497 
Q 192.335 407.297 189.135 407.297 
L 108.15 407.297 
Q 104.95 407.297 104.95 410.497 
L 104.95 479.352 
Q 104.95 482.552 108.15 482.552 
z
" style="fill: #ffffff; opacity: 0.8; stroke: #cccccc; stroke-linejoin: miter"/>
    </g>
    <g id="line2d_18">
     <path d="M 111.35 420.2545 
L 127.35 420.2545 
L 143.35 420.2545 
" style="fill: none; stroke: #1f77b4; stroke-width: 1.5; stroke-linecap: square"/>
    </g>
    <g id="text_14">
     <!-- rf -->
     <g transform="translate(156.15 425.8545) scale(0.16 -0.16)">
      <defs>
       <path id="DejaVuSans-66" d="M 2375 4863 
L 2375 4384 
L 1825 4384 
Q 1516 4384 1395 4259 
Q 1275 4134 1275 3809 
L 1275 3500 
L 2222 3500 
L 2222 3053 
L 1275 3053 
L 1275 0 
L 697 0 
L 697 3053 
L 147 3053 
L 147 3500 
L 697 3500 
L 697 3744 
Q 697 4328 969 4595 
Q 1241 4863 1831 4863 
L 2375 4863 
z
" transform="scale(0.015625)"/>
      </defs>
      <use xlink:href="#DejaVuSans-72"/>
      <use xlink:href="#DejaVuSans-66" x="41.113281"/>
     </g>
    </g>
    <g id="line2d_19">
     <path d="M 111.35 443.7395 
L 127.35 443.7395 
L 143.35 443.7395 
" style="fill: none; stroke: #ff7f0e; stroke-width: 1.5; stroke-linecap: square"/>
    </g>
    <g id="text_15">
     <!-- gbr -->
     <g transform="translate(156.15 449.3395) scale(0.16 -0.16)">
      <defs>
       <path id="DejaVuSans-62" d="M 3116 1747 
Q 3116 2381 2855 2742 
Q 2594 3103 2138 3103 
Q 1681 3103 1420 2742 
Q 1159 2381 1159 1747 
Q 1159 1113 1420 752 
Q 1681 391 2138 391 
Q 2594 391 2855 752 
Q 3116 1113 3116 1747 
z
M 1159 2969 
Q 1341 3281 1617 3432 
Q 1894 3584 2278 3584 
Q 2916 3584 3314 3078 
Q 3713 2572 3713 1747 
Q 3713 922 3314 415 
Q 2916 -91 2278 -91 
Q 1894 -91 1617 61 
Q 1341 213 1159 525 
L 1159 0 
L 581 0 
L 581 4863 
L 1159 4863 
L 1159 2969 
z
" transform="scale(0.015625)"/>
      </defs>
      <use xlink:href="#DejaVuSans-67"/>
      <use xlink:href="#DejaVuSans-62" x="63.476562"/>
      <use xlink:href="#DejaVuSans-72" x="126.953125"/>
     </g>
    </g>
    <g id="line2d_20">
     <path d="M 111.35 467.2245 
L 127.35 467.2245 
L 143.35 467.2245 
" style="fill: none; stroke: #2ca02c; stroke-width: 1.5; stroke-linecap: square"/>
    </g>
    <g id="text_16">
     <!-- xgb -->
     <g transform="translate(156.15 472.8245) scale(0.16 -0.16)">
      <defs>
       <path id="DejaVuSans-78" d="M 3513 3500 
L 2247 1797 
L 3578 0 
L 2900 0 
L 1881 1375 
L 863 0 
L 184 0 
L 1544 1831 
L 300 3500 
L 978 3500 
L 1906 2253 
L 2834 3500 
L 3513 3500 
z
" transform="scale(0.015625)"/>
      </defs>
      <use xlink:href="#DejaVuSans-78"/>
      <use xlink:href="#DejaVuSans-67" x="59.179688"/>
      <use xlink:href="#DejaVuSans-62" x="122.65625"/>
     </g>
    </g>
   </g>
  </g>
 </g>
 <defs>
  <clipPath id="pc3659dbdee">
   <rect x="96.95" y="10.8" width="1044.25" height="479.752"/>
  </clipPath>
 </defs>
</svg>
