<?xml version="1.0" encoding="utf-8" standalone="no"?>
<!DOCTYPE svg PUBLIC "-//W3C//DTD SVG 1.1//EN"
  "http://www.w3.org/Graphics/SVG/1.1/DTD/svg11.dtd">
<svg xmlns:xlink="http://www.w3.org/1999/xlink" width="1152pt" height="576pt" viewBox="0 0 1152 576" xmlns="http://www.w3.org/2000/svg" version="1.1">
 <metadata>
  <rdf:RDF xmlns:dc="http://purl.org/dc/elements/1.1/" xmlns:cc="http://creativecommons.org/ns#" xmlns:rdf="http://www.w3.org/1999/02/22-rdf-syntax-ns#">
   <cc:Work>
    <dc:type rdf:resource="http://purl.org/dc/dcmitype/StillImage"/>
    <dc:date>2025-04-17T09:44:17.450404</dc:date>
    <dc:format>image/svg+xml</dc:format>
    <dc:creator>
     <cc:Agent>
      <dc:title>Matplotlib v3.9.2, https://matplotlib.org/</dc:title>
     </cc:Agent>
    </dc:creator>
   </cc:Work>
  </rdf:RDF>
 </metadata>
 <defs>
  <style type="text/css">*{stroke-linejoin: round; stroke-linecap: butt}</style>
 </defs>
 <g id="figure_1">
  <g id="patch_1">
   <path d="M 0 576 
L 1152 576 
L 1152 0 
L 0 0 
z
" style="fill: #ffffff"/>
  </g>
  <g id="axes_1">
   <g id="patch_2">
    <path d="M 112.16 490.552 
L 1141.2 490.552 
L 1141.2 10.8 
L 112.16 10.8 
z
" style="fill: #ffffff"/>
   </g>
   <g id="PolyCollection_1">
    <defs>
     <path id="md9ce64275e" d="M 158.934545 -543.393091 
L 158.934545 -492.859863 
L 178.838607 -503.306105 
L 198.742669 -466.58669 
L 218.646731 -436.345051 
L 238.550793 -402.538464 
L 258.454855 -437.605668 
L 278.358917 -408.287199 
L 298.262979 -401.724305 
L 318.167041 -389.711711 
L 338.071103 -389.310211 
L 357.975164 -384.350073 
L 377.879226 -348.356191 
L 397.783288 -361.122302 
L 417.68735 -336.148243 
L 437.591412 -406.47058 
L 457.495474 -323.866727 
L 477.399536 -316.281773 
L 497.303598 -360.357091 
L 517.20766 -361.828437 
L 537.111721 -331.516865 
L 557.015783 -363.159645 
L 576.919845 -324.338821 
L 596.823907 -345.113228 
L 616.727969 -343.304451 
L 636.632031 -300.957064 
L 656.536093 -358.653451 
L 676.440155 -360.450943 
L 696.344217 -268.068395 
L 716.248279 -354.918444 
L 736.15234 -319.706817 
L 756.056402 -344.639864 
L 775.960464 -331.75785 
L 795.864526 -376.452409 
L 815.768588 -347.345072 
L 835.67265 -373.642405 
L 855.576712 -349.172108 
L 875.480774 -335.500743 
L 895.384836 -350.295878 
L 915.288897 -370.328069 
L 935.192959 -340.939974 
L 955.097021 -347.187618 
L 975.001083 -320.755675 
L 994.905145 -378.039884 
L 1014.809207 -336.987794 
L 1034.713269 -364.203742 
L 1054.617331 -312.617786 
L 1074.521393 -338.387004 
L 1094.425455 -301.249957 
L 1094.425455 -403.570696 
L 1094.425455 -403.570696 
L 1074.521393 -443.440659 
L 1054.617331 -411.042956 
L 1034.713269 -436.723169 
L 1014.809207 -418.48992 
L 994.905145 -429.763517 
L 975.001083 -411.761137 
L 955.097021 -437.20621 
L 935.192959 -450.47391 
L 915.288897 -437.574391 
L 895.384836 -397.367993 
L 875.480774 -409.892412 
L 855.576712 -424.293918 
L 835.67265 -391.529062 
L 815.768588 -393.154982 
L 795.864526 -425.244143 
L 775.960464 -423.405573 
L 756.056402 -418.852045 
L 736.15234 -407.872709 
L 716.248279 -418.911013 
L 696.344217 -419.368646 
L 676.440155 -432.659717 
L 656.536093 -425.612577 
L 636.632031 -389.677408 
L 616.727969 -405.629301 
L 596.823907 -437.753564 
L 576.919845 -436.449491 
L 557.015783 -442.353702 
L 537.111721 -433.706936 
L 517.20766 -452.653261 
L 497.303598 -445.503452 
L 477.399536 -421.176651 
L 457.495474 -424.61587 
L 437.591412 -467.348273 
L 417.68735 -418.749909 
L 397.783288 -432.898358 
L 377.879226 -449.184048 
L 357.975164 -449.108706 
L 338.071103 -424.394793 
L 318.167041 -441.858907 
L 298.262979 -468.83744 
L 278.358917 -472.17643 
L 258.454855 -484.71267 
L 238.550793 -458.065409 
L 218.646731 -476.012886 
L 198.742669 -517.922786 
L 178.838607 -539.64412 
L 158.934545 -543.393091 
z
" style="stroke: #1f77b4; stroke-opacity: 0.2"/>
    </defs>
    <g clip-path="url(#pb9fd7a4a97)">
     <use xlink:href="#md9ce64275e" x="0" y="576" style="fill: #1f77b4; fill-opacity: 0.2; stroke: #1f77b4; stroke-opacity: 0.2"/>
    </g>
   </g>
   <g id="PolyCollection_2">
    <defs>
     <path id="mb1e8c9d640" d="M 158.934545 -462.156388 
L 158.934545 -413.156771 
L 178.838607 -433.844887 
L 198.742669 -437.58003 
L 218.646731 -409.305147 
L 238.550793 -385.1391 
L 258.454855 -420.576925 
L 278.358917 -384.087864 
L 298.262979 -383.241659 
L 318.167041 -380.071079 
L 338.071103 -331.387643 
L 357.975164 -339.610826 
L 377.879226 -330.300515 
L 397.783288 -336.217768 
L 417.68735 -322.824326 
L 437.591412 -360.077847 
L 457.495474 -286.318031 
L 477.399536 -282.198684 
L 497.303598 -335.980399 
L 517.20766 -299.66629 
L 537.111721 -320.593052 
L 557.015783 -341.660525 
L 576.919845 -279.942383 
L 596.823907 -315.03792 
L 616.727969 -305.976219 
L 636.632031 -289.838317 
L 656.536093 -272.462952 
L 676.440155 -341.374721 
L 696.344217 -303.158513 
L 716.248279 -322.833116 
L 736.15234 -280.425684 
L 756.056402 -327.528776 
L 775.960464 -324.741522 
L 795.864526 -352.239155 
L 815.768588 -314.668159 
L 835.67265 -332.981172 
L 855.576712 -293.087411 
L 875.480774 -308.224041 
L 895.384836 -299.005517 
L 915.288897 -320.562907 
L 935.192959 -287.574977 
L 955.097021 -315.654376 
L 975.001083 -325.764952 
L 994.905145 -342.05704 
L 1014.809207 -286.488685 
L 1034.713269 -320.785675 
L 1054.617331 -330.242842 
L 1074.521393 -303.344237 
L 1094.425455 -302.063418 
L 1094.425455 -382.484161 
L 1094.425455 -382.484161 
L 1074.521393 -378.348461 
L 1054.617331 -372.302923 
L 1034.713269 -398.697072 
L 1014.809207 -346.780525 
L 994.905145 -406.577701 
L 975.001083 -383.79248 
L 955.097021 -385.180957 
L 935.192959 -364.292016 
L 915.288897 -408.323987 
L 895.384836 -367.949246 
L 875.480774 -380.642927 
L 855.576712 -396.33186 
L 835.67265 -371.387352 
L 815.768588 -362.107612 
L 795.864526 -391.889426 
L 775.960464 -389.995766 
L 756.056402 -386.822292 
L 736.15234 -355.391651 
L 716.248279 -393.3173 
L 696.344217 -371.603477 
L 676.440155 -392.397826 
L 656.536093 -391.435947 
L 636.632031 -360.470633 
L 616.727969 -363.617414 
L 596.823907 -375.25034 
L 576.919845 -394.608494 
L 557.015783 -400.709139 
L 537.111721 -395.368546 
L 517.20766 -432.916589 
L 497.303598 -399.930841 
L 477.399536 -393.23105 
L 457.495474 -394.358751 
L 437.591412 -460.957979 
L 417.68735 -381.898658 
L 397.783288 -396.02814 
L 377.879226 -409.552761 
L 357.975164 -402.245189 
L 338.071103 -376.1859 
L 318.167041 -435.970299 
L 298.262979 -430.165901 
L 278.358917 -443.759572 
L 258.454855 -449.504635 
L 238.550793 -412.009399 
L 218.646731 -484.954653 
L 198.742669 -482.363444 
L 178.838607 -507.965738 
L 158.934545 -462.156388 
z
" style="stroke: #ff7f0e; stroke-opacity: 0.2"/>
    </defs>
    <g clip-path="url(#pb9fd7a4a97)">
     <use xlink:href="#mb1e8c9d640" x="0" y="576" style="fill: #ff7f0e; fill-opacity: 0.2; stroke: #ff7f0e; stroke-opacity: 0.2"/>
    </g>
   </g>
   <g id="PolyCollection_3">
    <defs>
     <path id="m1ccd4f788a" d="M 158.934545 -454.810497 
L 158.934545 -374.396881 
L 178.838607 -381.509876 
L 198.742669 -318.591263 
L 218.646731 -278.871704 
L 238.550793 -303.660225 
L 258.454855 -286.098059 
L 278.358917 -237.168333 
L 298.262979 -258.777799 
L 318.167041 -246.244741 
L 338.071103 -220.14628 
L 357.975164 -219.638548 
L 377.879226 -190.040842 
L 397.783288 -208.704714 
L 417.68735 -191.446922 
L 437.591412 -268.602883 
L 457.495474 -151.572189 
L 477.399536 -145.726532 
L 497.303598 -217.916058 
L 517.20766 -202.774738 
L 537.111721 -188.775857 
L 557.015783 -234.561299 
L 576.919845 -107.254909 
L 596.823907 -178.775399 
L 616.727969 -172.893872 
L 636.632031 -126.797883 
L 656.536093 -235.883333 
L 676.440155 -220.030034 
L 696.344217 -197.007589 
L 716.248279 -225.829103 
L 736.15234 -203.726294 
L 756.056402 -233.119135 
L 775.960464 -169.181325 
L 795.864526 -221.65161 
L 815.768588 -210.372856 
L 835.67265 -208.04555 
L 855.576712 -230.665989 
L 875.480774 -184.997292 
L 895.384836 -178.740279 
L 915.288897 -235.363743 
L 935.192959 -219.954304 
L 955.097021 -183.327135 
L 975.001083 -165.939469 
L 994.905145 -255.697613 
L 1014.809207 -162.413953 
L 1034.713269 -151.851936 
L 1054.617331 -205.020292 
L 1074.521393 -177.473734 
L 1094.425455 -168.745586 
L 1094.425455 -247.506578 
L 1094.425455 -247.506578 
L 1074.521393 -347.667367 
L 1054.617331 -343.895648 
L 1034.713269 -292.529202 
L 1014.809207 -259.82355 
L 994.905145 -323.210751 
L 975.001083 -261.039306 
L 955.097021 -278.764618 
L 935.192959 -311.570646 
L 915.288897 -324.319471 
L 895.384836 -232.726174 
L 875.480774 -297.062704 
L 855.576712 -347.58044 
L 835.67265 -254.466959 
L 815.768588 -259.790997 
L 795.864526 -333.336991 
L 775.960464 -284.169833 
L 756.056402 -342.372083 
L 736.15234 -272.137041 
L 716.248279 -304.864215 
L 696.344217 -311.052955 
L 676.440155 -332.437913 
L 656.536093 -348.646469 
L 636.632031 -251.548282 
L 616.727969 -253.571624 
L 596.823907 -287.419947 
L 576.919845 -257.032175 
L 557.015783 -304.617394 
L 537.111721 -290.597006 
L 517.20766 -324.325367 
L 497.303598 -299.02705 
L 477.399536 -262.449497 
L 457.495474 -277.867993 
L 437.591412 -329.725334 
L 417.68735 -286.139208 
L 397.783288 -321.689442 
L 377.879226 -317.9201 
L 357.975164 -281.135861 
L 338.071103 -310.658378 
L 318.167041 -311.693663 
L 298.262979 -377.124029 
L 278.358917 -338.861235 
L 258.454855 -383.11946 
L 238.550793 -371.543378 
L 218.646731 -386.300578 
L 198.742669 -448.744188 
L 178.838607 -491.55908 
L 158.934545 -454.810497 
z
" style="stroke: #2ca02c; stroke-opacity: 0.2"/>
    </defs>
    <g clip-path="url(#pb9fd7a4a97)">
     <use xlink:href="#m1ccd4f788a" x="0" y="576" style="fill: #2ca02c; fill-opacity: 0.2; stroke: #2ca02c; stroke-opacity: 0.2"/>
    </g>
   </g>
   <g id="matplotlib.axis_1">
    <g id="xtick_1">
     <g id="line2d_1">
      <defs>
       <path id="m00446dc49d" d="M 0 0 
L 0 3.5 
" style="stroke: #000000; stroke-width: 0.8"/>
      </defs>
      <g>
       <use xlink:href="#m00446dc49d" x="148.982515" y="490.552" style="stroke: #000000; stroke-width: 0.8"/>
      </g>
     </g>
     <g id="text_1">
      <!-- 0 -->
      <g transform="translate(142.620015 512.748875) scale(0.2 -0.2)">
       <defs>
        <path id="DejaVuSans-30" d="M 2034 4250 
Q 1547 4250 1301 3770 
Q 1056 3291 1056 2328 
Q 1056 1369 1301 889 
Q 1547 409 2034 409 
Q 2525 409 2770 889 
Q 3016 1369 3016 2328 
Q 3016 3291 2770 3770 
Q 2525 4250 2034 4250 
z
M 2034 4750 
Q 2819 4750 3233 4129 
Q 3647 3509 3647 2328 
Q 3647 1150 3233 529 
Q 2819 -91 2034 -91 
Q 1250 -91 836 529 
Q 422 1150 422 2328 
Q 422 3509 836 4129 
Q 1250 4750 2034 4750 
z
" transform="scale(0.015625)"/>
       </defs>
       <use xlink:href="#DejaVuSans-30"/>
      </g>
     </g>
    </g>
    <g id="xtick_2">
     <g id="line2d_2">
      <g>
       <use xlink:href="#m00446dc49d" x="348.023133" y="490.552" style="stroke: #000000; stroke-width: 0.8"/>
      </g>
     </g>
     <g id="text_2">
      <!-- 20 -->
      <g transform="translate(335.298133 512.748875) scale(0.2 -0.2)">
       <defs>
        <path id="DejaVuSans-32" d="M 1228 531 
L 3431 531 
L 3431 0 
L 469 0 
L 469 531 
Q 828 903 1448 1529 
Q 2069 2156 2228 2338 
Q 2531 2678 2651 2914 
Q 2772 3150 2772 3378 
Q 2772 3750 2511 3984 
Q 2250 4219 1831 4219 
Q 1534 4219 1204 4116 
Q 875 4013 500 3803 
L 500 4441 
Q 881 4594 1212 4672 
Q 1544 4750 1819 4750 
Q 2544 4750 2975 4387 
Q 3406 4025 3406 3419 
Q 3406 3131 3298 2873 
Q 3191 2616 2906 2266 
Q 2828 2175 2409 1742 
Q 1991 1309 1228 531 
z
" transform="scale(0.015625)"/>
       </defs>
       <use xlink:href="#DejaVuSans-32"/>
       <use xlink:href="#DejaVuSans-30" x="63.623047"/>
      </g>
     </g>
    </g>
    <g id="xtick_3">
     <g id="line2d_3">
      <g>
       <use xlink:href="#m00446dc49d" x="547.063752" y="490.552" style="stroke: #000000; stroke-width: 0.8"/>
      </g>
     </g>
     <g id="text_3">
      <!-- 40 -->
      <g transform="translate(534.338752 512.748875) scale(0.2 -0.2)">
       <defs>
        <path id="DejaVuSans-34" d="M 2419 4116 
L 825 1625 
L 2419 1625 
L 2419 4116 
z
M 2253 4666 
L 3047 4666 
L 3047 1625 
L 3713 1625 
L 3713 1100 
L 3047 1100 
L 3047 0 
L 2419 0 
L 2419 1100 
L 313 1100 
L 313 1709 
L 2253 4666 
z
" transform="scale(0.015625)"/>
       </defs>
       <use xlink:href="#DejaVuSans-34"/>
       <use xlink:href="#DejaVuSans-30" x="63.623047"/>
      </g>
     </g>
    </g>
    <g id="xtick_4">
     <g id="line2d_4">
      <g>
       <use xlink:href="#m00446dc49d" x="746.104371" y="490.552" style="stroke: #000000; stroke-width: 0.8"/>
      </g>
     </g>
     <g id="text_4">
      <!-- 60 -->
      <g transform="translate(733.379371 512.748875) scale(0.2 -0.2)">
       <defs>
        <path id="DejaVuSans-36" d="M 2113 2584 
Q 1688 2584 1439 2293 
Q 1191 2003 1191 1497 
Q 1191 994 1439 701 
Q 1688 409 2113 409 
Q 2538 409 2786 701 
Q 3034 994 3034 1497 
Q 3034 2003 2786 2293 
Q 2538 2584 2113 2584 
z
M 3366 4563 
L 3366 3988 
Q 3128 4100 2886 4159 
Q 2644 4219 2406 4219 
Q 1781 4219 1451 3797 
Q 1122 3375 1075 2522 
Q 1259 2794 1537 2939 
Q 1816 3084 2150 3084 
Q 2853 3084 3261 2657 
Q 3669 2231 3669 1497 
Q 3669 778 3244 343 
Q 2819 -91 2113 -91 
Q 1303 -91 875 529 
Q 447 1150 447 2328 
Q 447 3434 972 4092 
Q 1497 4750 2381 4750 
Q 2619 4750 2861 4703 
Q 3103 4656 3366 4563 
z
" transform="scale(0.015625)"/>
       </defs>
       <use xlink:href="#DejaVuSans-36"/>
       <use xlink:href="#DejaVuSans-30" x="63.623047"/>
      </g>
     </g>
    </g>
    <g id="xtick_5">
     <g id="line2d_5">
      <g>
       <use xlink:href="#m00446dc49d" x="945.14499" y="490.552" style="stroke: #000000; stroke-width: 0.8"/>
      </g>
     </g>
     <g id="text_5">
      <!-- 80 -->
      <g transform="translate(932.41999 512.748875) scale(0.2 -0.2)">
       <defs>
        <path id="DejaVuSans-38" d="M 2034 2216 
Q 1584 2216 1326 1975 
Q 1069 1734 1069 1313 
Q 1069 891 1326 650 
Q 1584 409 2034 409 
Q 2484 409 2743 651 
Q 3003 894 3003 1313 
Q 3003 1734 2745 1975 
Q 2488 2216 2034 2216 
z
M 1403 2484 
Q 997 2584 770 2862 
Q 544 3141 544 3541 
Q 544 4100 942 4425 
Q 1341 4750 2034 4750 
Q 2731 4750 3128 4425 
Q 3525 4100 3525 3541 
Q 3525 3141 3298 2862 
Q 3072 2584 2669 2484 
Q 3125 2378 3379 2068 
Q 3634 1759 3634 1313 
Q 3634 634 3220 271 
Q 2806 -91 2034 -91 
Q 1263 -91 848 271 
Q 434 634 434 1313 
Q 434 1759 690 2068 
Q 947 2378 1403 2484 
z
M 1172 3481 
Q 1172 3119 1398 2916 
Q 1625 2713 2034 2713 
Q 2441 2713 2670 2916 
Q 2900 3119 2900 3481 
Q 2900 3844 2670 4047 
Q 2441 4250 2034 4250 
Q 1625 4250 1398 4047 
Q 1172 3844 1172 3481 
z
" transform="scale(0.015625)"/>
       </defs>
       <use xlink:href="#DejaVuSans-38"/>
       <use xlink:href="#DejaVuSans-30" x="63.623047"/>
      </g>
     </g>
    </g>
    <g id="text_6">
     <!-- Percentile Threshold -->
     <g transform="translate(524.900312 536.105125) scale(0.2 -0.2)">
      <defs>
       <path id="DejaVuSans-50" d="M 1259 4147 
L 1259 2394 
L 2053 2394 
Q 2494 2394 2734 2622 
Q 2975 2850 2975 3272 
Q 2975 3691 2734 3919 
Q 2494 4147 2053 4147 
L 1259 4147 
z
M 628 4666 
L 2053 4666 
Q 2838 4666 3239 4311 
Q 3641 3956 3641 3272 
Q 3641 2581 3239 2228 
Q 2838 1875 2053 1875 
L 1259 1875 
L 1259 0 
L 628 0 
L 628 4666 
z
" transform="scale(0.015625)"/>
       <path id="DejaVuSans-65" d="M 3597 1894 
L 3597 1613 
L 953 1613 
Q 991 1019 1311 708 
Q 1631 397 2203 397 
Q 2534 397 2845 478 
Q 3156 559 3463 722 
L 3463 178 
Q 3153 47 2828 -22 
Q 2503 -91 2169 -91 
Q 1331 -91 842 396 
Q 353 884 353 1716 
Q 353 2575 817 3079 
Q 1281 3584 2069 3584 
Q 2775 3584 3186 3129 
Q 3597 2675 3597 1894 
z
M 3022 2063 
Q 3016 2534 2758 2815 
Q 2500 3097 2075 3097 
Q 1594 3097 1305 2825 
Q 1016 2553 972 2059 
L 3022 2063 
z
" transform="scale(0.015625)"/>
       <path id="DejaVuSans-72" d="M 2631 2963 
Q 2534 3019 2420 3045 
Q 2306 3072 2169 3072 
Q 1681 3072 1420 2755 
Q 1159 2438 1159 1844 
L 1159 0 
L 581 0 
L 581 3500 
L 1159 3500 
L 1159 2956 
Q 1341 3275 1631 3429 
Q 1922 3584 2338 3584 
Q 2397 3584 2469 3576 
Q 2541 3569 2628 3553 
L 2631 2963 
z
" transform="scale(0.015625)"/>
       <path id="DejaVuSans-63" d="M 3122 3366 
L 3122 2828 
Q 2878 2963 2633 3030 
Q 2388 3097 2138 3097 
Q 1578 3097 1268 2742 
Q 959 2388 959 1747 
Q 959 1106 1268 751 
Q 1578 397 2138 397 
Q 2388 397 2633 464 
Q 2878 531 3122 666 
L 3122 134 
Q 2881 22 2623 -34 
Q 2366 -91 2075 -91 
Q 1284 -91 818 406 
Q 353 903 353 1747 
Q 353 2603 823 3093 
Q 1294 3584 2113 3584 
Q 2378 3584 2631 3529 
Q 2884 3475 3122 3366 
z
" transform="scale(0.015625)"/>
       <path id="DejaVuSans-6e" d="M 3513 2113 
L 3513 0 
L 2938 0 
L 2938 2094 
Q 2938 2591 2744 2837 
Q 2550 3084 2163 3084 
Q 1697 3084 1428 2787 
Q 1159 2491 1159 1978 
L 1159 0 
L 581 0 
L 581 3500 
L 1159 3500 
L 1159 2956 
Q 1366 3272 1645 3428 
Q 1925 3584 2291 3584 
Q 2894 3584 3203 3211 
Q 3513 2838 3513 2113 
z
" transform="scale(0.015625)"/>
       <path id="DejaVuSans-74" d="M 1172 4494 
L 1172 3500 
L 2356 3500 
L 2356 3053 
L 1172 3053 
L 1172 1153 
Q 1172 725 1289 603 
Q 1406 481 1766 481 
L 2356 481 
L 2356 0 
L 1766 0 
Q 1100 0 847 248 
Q 594 497 594 1153 
L 594 3053 
L 172 3053 
L 172 3500 
L 594 3500 
L 594 4494 
L 1172 4494 
z
" transform="scale(0.015625)"/>
       <path id="DejaVuSans-69" d="M 603 3500 
L 1178 3500 
L 1178 0 
L 603 0 
L 603 3500 
z
M 603 4863 
L 1178 4863 
L 1178 4134 
L 603 4134 
L 603 4863 
z
" transform="scale(0.015625)"/>
       <path id="DejaVuSans-6c" d="M 603 4863 
L 1178 4863 
L 1178 0 
L 603 0 
L 603 4863 
z
" transform="scale(0.015625)"/>
       <path id="DejaVuSans-20" transform="scale(0.015625)"/>
       <path id="DejaVuSans-54" d="M -19 4666 
L 3928 4666 
L 3928 4134 
L 2272 4134 
L 2272 0 
L 1638 0 
L 1638 4134 
L -19 4134 
L -19 4666 
z
" transform="scale(0.015625)"/>
       <path id="DejaVuSans-68" d="M 3513 2113 
L 3513 0 
L 2938 0 
L 2938 2094 
Q 2938 2591 2744 2837 
Q 2550 3084 2163 3084 
Q 1697 3084 1428 2787 
Q 1159 2491 1159 1978 
L 1159 0 
L 581 0 
L 581 4863 
L 1159 4863 
L 1159 2956 
Q 1366 3272 1645 3428 
Q 1925 3584 2291 3584 
Q 2894 3584 3203 3211 
Q 3513 2838 3513 2113 
z
" transform="scale(0.015625)"/>
       <path id="DejaVuSans-73" d="M 2834 3397 
L 2834 2853 
Q 2591 2978 2328 3040 
Q 2066 3103 1784 3103 
Q 1356 3103 1142 2972 
Q 928 2841 928 2578 
Q 928 2378 1081 2264 
Q 1234 2150 1697 2047 
L 1894 2003 
Q 2506 1872 2764 1633 
Q 3022 1394 3022 966 
Q 3022 478 2636 193 
Q 2250 -91 1575 -91 
Q 1294 -91 989 -36 
Q 684 19 347 128 
L 347 722 
Q 666 556 975 473 
Q 1284 391 1588 391 
Q 1994 391 2212 530 
Q 2431 669 2431 922 
Q 2431 1156 2273 1281 
Q 2116 1406 1581 1522 
L 1381 1569 
Q 847 1681 609 1914 
Q 372 2147 372 2553 
Q 372 3047 722 3315 
Q 1072 3584 1716 3584 
Q 2034 3584 2315 3537 
Q 2597 3491 2834 3397 
z
" transform="scale(0.015625)"/>
       <path id="DejaVuSans-6f" d="M 1959 3097 
Q 1497 3097 1228 2736 
Q 959 2375 959 1747 
Q 959 1119 1226 758 
Q 1494 397 1959 397 
Q 2419 397 2687 759 
Q 2956 1122 2956 1747 
Q 2956 2369 2687 2733 
Q 2419 3097 1959 3097 
z
M 1959 3584 
Q 2709 3584 3137 3096 
Q 3566 2609 3566 1747 
Q 3566 888 3137 398 
Q 2709 -91 1959 -91 
Q 1206 -91 779 398 
Q 353 888 353 1747 
Q 353 2609 779 3096 
Q 1206 3584 1959 3584 
z
" transform="scale(0.015625)"/>
       <path id="DejaVuSans-64" d="M 2906 2969 
L 2906 4863 
L 3481 4863 
L 3481 0 
L 2906 0 
L 2906 525 
Q 2725 213 2448 61 
Q 2172 -91 1784 -91 
Q 1150 -91 751 415 
Q 353 922 353 1747 
Q 353 2572 751 3078 
Q 1150 3584 1784 3584 
Q 2172 3584 2448 3432 
Q 2725 3281 2906 2969 
z
M 947 1747 
Q 947 1113 1208 752 
Q 1469 391 1925 391 
Q 2381 391 2643 752 
Q 2906 1113 2906 1747 
Q 2906 2381 2643 2742 
Q 2381 3103 1925 3103 
Q 1469 3103 1208 2742 
Q 947 2381 947 1747 
z
" transform="scale(0.015625)"/>
      </defs>
      <use xlink:href="#DejaVuSans-50"/>
      <use xlink:href="#DejaVuSans-65" x="56.677734"/>
      <use xlink:href="#DejaVuSans-72" x="118.201172"/>
      <use xlink:href="#DejaVuSans-63" x="157.064453"/>
      <use xlink:href="#DejaVuSans-65" x="212.044922"/>
      <use xlink:href="#DejaVuSans-6e" x="273.568359"/>
      <use xlink:href="#DejaVuSans-74" x="336.947266"/>
      <use xlink:href="#DejaVuSans-69" x="376.15625"/>
      <use xlink:href="#DejaVuSans-6c" x="403.939453"/>
      <use xlink:href="#DejaVuSans-65" x="431.722656"/>
      <use xlink:href="#DejaVuSans-20" x="493.246094"/>
      <use xlink:href="#DejaVuSans-54" x="525.033203"/>
      <use xlink:href="#DejaVuSans-68" x="586.117188"/>
      <use xlink:href="#DejaVuSans-72" x="649.496094"/>
      <use xlink:href="#DejaVuSans-65" x="688.359375"/>
      <use xlink:href="#DejaVuSans-73" x="749.882812"/>
      <use xlink:href="#DejaVuSans-68" x="801.982422"/>
      <use xlink:href="#DejaVuSans-6f" x="865.361328"/>
      <use xlink:href="#DejaVuSans-6c" x="926.542969"/>
      <use xlink:href="#DejaVuSans-64" x="954.326172"/>
     </g>
     <!-- (Using "random" Threshold Handling) -->
     <g transform="translate(439.512812 558.50075) scale(0.2 -0.2)">
      <defs>
       <path id="DejaVuSans-28" d="M 1984 4856 
Q 1566 4138 1362 3434 
Q 1159 2731 1159 2009 
Q 1159 1288 1364 580 
Q 1569 -128 1984 -844 
L 1484 -844 
Q 1016 -109 783 600 
Q 550 1309 550 2009 
Q 550 2706 781 3412 
Q 1013 4119 1484 4856 
L 1984 4856 
z
" transform="scale(0.015625)"/>
       <path id="DejaVuSans-55" d="M 556 4666 
L 1191 4666 
L 1191 1831 
Q 1191 1081 1462 751 
Q 1734 422 2344 422 
Q 2950 422 3222 751 
Q 3494 1081 3494 1831 
L 3494 4666 
L 4128 4666 
L 4128 1753 
Q 4128 841 3676 375 
Q 3225 -91 2344 -91 
Q 1459 -91 1007 375 
Q 556 841 556 1753 
L 556 4666 
z
" transform="scale(0.015625)"/>
       <path id="DejaVuSans-67" d="M 2906 1791 
Q 2906 2416 2648 2759 
Q 2391 3103 1925 3103 
Q 1463 3103 1205 2759 
Q 947 2416 947 1791 
Q 947 1169 1205 825 
Q 1463 481 1925 481 
Q 2391 481 2648 825 
Q 2906 1169 2906 1791 
z
M 3481 434 
Q 3481 -459 3084 -895 
Q 2688 -1331 1869 -1331 
Q 1566 -1331 1297 -1286 
Q 1028 -1241 775 -1147 
L 775 -588 
Q 1028 -725 1275 -790 
Q 1522 -856 1778 -856 
Q 2344 -856 2625 -561 
Q 2906 -266 2906 331 
L 2906 616 
Q 2728 306 2450 153 
Q 2172 0 1784 0 
Q 1141 0 747 490 
Q 353 981 353 1791 
Q 353 2603 747 3093 
Q 1141 3584 1784 3584 
Q 2172 3584 2450 3431 
Q 2728 3278 2906 2969 
L 2906 3500 
L 3481 3500 
L 3481 434 
z
" transform="scale(0.015625)"/>
       <path id="DejaVuSans-22" d="M 1147 4666 
L 1147 2931 
L 616 2931 
L 616 4666 
L 1147 4666 
z
M 2328 4666 
L 2328 2931 
L 1797 2931 
L 1797 4666 
L 2328 4666 
z
" transform="scale(0.015625)"/>
       <path id="DejaVuSans-61" d="M 2194 1759 
Q 1497 1759 1228 1600 
Q 959 1441 959 1056 
Q 959 750 1161 570 
Q 1363 391 1709 391 
Q 2188 391 2477 730 
Q 2766 1069 2766 1631 
L 2766 1759 
L 2194 1759 
z
M 3341 1997 
L 3341 0 
L 2766 0 
L 2766 531 
Q 2569 213 2275 61 
Q 1981 -91 1556 -91 
Q 1019 -91 701 211 
Q 384 513 384 1019 
Q 384 1609 779 1909 
Q 1175 2209 1959 2209 
L 2766 2209 
L 2766 2266 
Q 2766 2663 2505 2880 
Q 2244 3097 1772 3097 
Q 1472 3097 1187 3025 
Q 903 2953 641 2809 
L 641 3341 
Q 956 3463 1253 3523 
Q 1550 3584 1831 3584 
Q 2591 3584 2966 3190 
Q 3341 2797 3341 1997 
z
" transform="scale(0.015625)"/>
       <path id="DejaVuSans-6d" d="M 3328 2828 
Q 3544 3216 3844 3400 
Q 4144 3584 4550 3584 
Q 5097 3584 5394 3201 
Q 5691 2819 5691 2113 
L 5691 0 
L 5113 0 
L 5113 2094 
Q 5113 2597 4934 2840 
Q 4756 3084 4391 3084 
Q 3944 3084 3684 2787 
Q 3425 2491 3425 1978 
L 3425 0 
L 2847 0 
L 2847 2094 
Q 2847 2600 2669 2842 
Q 2491 3084 2119 3084 
Q 1678 3084 1418 2786 
Q 1159 2488 1159 1978 
L 1159 0 
L 581 0 
L 581 3500 
L 1159 3500 
L 1159 2956 
Q 1356 3278 1631 3431 
Q 1906 3584 2284 3584 
Q 2666 3584 2933 3390 
Q 3200 3197 3328 2828 
z
" transform="scale(0.015625)"/>
       <path id="DejaVuSans-48" d="M 628 4666 
L 1259 4666 
L 1259 2753 
L 3553 2753 
L 3553 4666 
L 4184 4666 
L 4184 0 
L 3553 0 
L 3553 2222 
L 1259 2222 
L 1259 0 
L 628 0 
L 628 4666 
z
" transform="scale(0.015625)"/>
       <path id="DejaVuSans-29" d="M 513 4856 
L 1013 4856 
Q 1481 4119 1714 3412 
Q 1947 2706 1947 2009 
Q 1947 1309 1714 600 
Q 1481 -109 1013 -844 
L 513 -844 
Q 928 -128 1133 580 
Q 1338 1288 1338 2009 
Q 1338 2731 1133 3434 
Q 928 4138 513 4856 
z
" transform="scale(0.015625)"/>
      </defs>
      <use xlink:href="#DejaVuSans-28"/>
      <use xlink:href="#DejaVuSans-55" x="39.013672"/>
      <use xlink:href="#DejaVuSans-73" x="112.207031"/>
      <use xlink:href="#DejaVuSans-69" x="164.306641"/>
      <use xlink:href="#DejaVuSans-6e" x="192.089844"/>
      <use xlink:href="#DejaVuSans-67" x="255.46875"/>
      <use xlink:href="#DejaVuSans-20" x="318.945312"/>
      <use xlink:href="#DejaVuSans-22" x="350.732422"/>
      <use xlink:href="#DejaVuSans-72" x="396.728516"/>
      <use xlink:href="#DejaVuSans-61" x="437.841797"/>
      <use xlink:href="#DejaVuSans-6e" x="499.121094"/>
      <use xlink:href="#DejaVuSans-64" x="562.5"/>
      <use xlink:href="#DejaVuSans-6f" x="625.976562"/>
      <use xlink:href="#DejaVuSans-6d" x="687.158203"/>
      <use xlink:href="#DejaVuSans-22" x="784.570312"/>
      <use xlink:href="#DejaVuSans-20" x="830.566406"/>
      <use xlink:href="#DejaVuSans-54" x="862.353516"/>
      <use xlink:href="#DejaVuSans-68" x="923.4375"/>
      <use xlink:href="#DejaVuSans-72" x="986.816406"/>
      <use xlink:href="#DejaVuSans-65" x="1025.679688"/>
      <use xlink:href="#DejaVuSans-73" x="1087.203125"/>
      <use xlink:href="#DejaVuSans-68" x="1139.302734"/>
      <use xlink:href="#DejaVuSans-6f" x="1202.681641"/>
      <use xlink:href="#DejaVuSans-6c" x="1263.863281"/>
      <use xlink:href="#DejaVuSans-64" x="1291.646484"/>
      <use xlink:href="#DejaVuSans-20" x="1355.123047"/>
      <use xlink:href="#DejaVuSans-48" x="1386.910156"/>
      <use xlink:href="#DejaVuSans-61" x="1462.105469"/>
      <use xlink:href="#DejaVuSans-6e" x="1523.384766"/>
      <use xlink:href="#DejaVuSans-64" x="1586.763672"/>
      <use xlink:href="#DejaVuSans-6c" x="1650.240234"/>
      <use xlink:href="#DejaVuSans-69" x="1678.023438"/>
      <use xlink:href="#DejaVuSans-6e" x="1705.806641"/>
      <use xlink:href="#DejaVuSans-67" x="1769.185547"/>
      <use xlink:href="#DejaVuSans-29" x="1832.662109"/>
     </g>
    </g>
   </g>
   <g id="matplotlib.axis_2">
    <g id="ytick_1">
     <g id="line2d_6">
      <defs>
       <path id="mb51570f8ff" d="M 0 0 
L -3.5 0 
" style="stroke: #000000; stroke-width: 0.8"/>
      </defs>
      <g>
       <use xlink:href="#mb51570f8ff" x="112.16" y="446.480589" style="stroke: #000000; stroke-width: 0.8"/>
      </g>
     </g>
     <g id="text_7">
      <!-- 0.9425 -->
      <g transform="translate(35.17875 454.079027) scale(0.2 -0.2)">
       <defs>
        <path id="DejaVuSans-2e" d="M 684 794 
L 1344 794 
L 1344 0 
L 684 0 
L 684 794 
z
" transform="scale(0.015625)"/>
        <path id="DejaVuSans-39" d="M 703 97 
L 703 672 
Q 941 559 1184 500 
Q 1428 441 1663 441 
Q 2288 441 2617 861 
Q 2947 1281 2994 2138 
Q 2813 1869 2534 1725 
Q 2256 1581 1919 1581 
Q 1219 1581 811 2004 
Q 403 2428 403 3163 
Q 403 3881 828 4315 
Q 1253 4750 1959 4750 
Q 2769 4750 3195 4129 
Q 3622 3509 3622 2328 
Q 3622 1225 3098 567 
Q 2575 -91 1691 -91 
Q 1453 -91 1209 -44 
Q 966 3 703 97 
z
M 1959 2075 
Q 2384 2075 2632 2365 
Q 2881 2656 2881 3163 
Q 2881 3666 2632 3958 
Q 2384 4250 1959 4250 
Q 1534 4250 1286 3958 
Q 1038 3666 1038 3163 
Q 1038 2656 1286 2365 
Q 1534 2075 1959 2075 
z
" transform="scale(0.015625)"/>
        <path id="DejaVuSans-35" d="M 691 4666 
L 3169 4666 
L 3169 4134 
L 1269 4134 
L 1269 2991 
Q 1406 3038 1543 3061 
Q 1681 3084 1819 3084 
Q 2600 3084 3056 2656 
Q 3513 2228 3513 1497 
Q 3513 744 3044 326 
Q 2575 -91 1722 -91 
Q 1428 -91 1123 -41 
Q 819 9 494 109 
L 494 744 
Q 775 591 1075 516 
Q 1375 441 1709 441 
Q 2250 441 2565 725 
Q 2881 1009 2881 1497 
Q 2881 1984 2565 2268 
Q 2250 2553 1709 2553 
Q 1456 2553 1204 2497 
Q 953 2441 691 2322 
L 691 4666 
z
" transform="scale(0.015625)"/>
       </defs>
       <use xlink:href="#DejaVuSans-30"/>
       <use xlink:href="#DejaVuSans-2e" x="63.623047"/>
       <use xlink:href="#DejaVuSans-39" x="95.410156"/>
       <use xlink:href="#DejaVuSans-34" x="159.033203"/>
       <use xlink:href="#DejaVuSans-32" x="222.65625"/>
       <use xlink:href="#DejaVuSans-35" x="286.279297"/>
      </g>
     </g>
    </g>
    <g id="ytick_2">
     <g id="line2d_7">
      <g>
       <use xlink:href="#mb51570f8ff" x="112.16" y="390.659334" style="stroke: #000000; stroke-width: 0.8"/>
      </g>
     </g>
     <g id="text_8">
      <!-- 0.9450 -->
      <g transform="translate(35.17875 398.257771) scale(0.2 -0.2)">
       <use xlink:href="#DejaVuSans-30"/>
       <use xlink:href="#DejaVuSans-2e" x="63.623047"/>
       <use xlink:href="#DejaVuSans-39" x="95.410156"/>
       <use xlink:href="#DejaVuSans-34" x="159.033203"/>
       <use xlink:href="#DejaVuSans-35" x="222.65625"/>
       <use xlink:href="#DejaVuSans-30" x="286.279297"/>
      </g>
     </g>
    </g>
    <g id="ytick_3">
     <g id="line2d_8">
      <g>
       <use xlink:href="#mb51570f8ff" x="112.16" y="334.838078" style="stroke: #000000; stroke-width: 0.8"/>
      </g>
     </g>
     <g id="text_9">
      <!-- 0.9475 -->
      <g transform="translate(35.17875 342.436516) scale(0.2 -0.2)">
       <defs>
        <path id="DejaVuSans-37" d="M 525 4666 
L 3525 4666 
L 3525 4397 
L 1831 0 
L 1172 0 
L 2766 4134 
L 525 4134 
L 525 4666 
z
" transform="scale(0.015625)"/>
       </defs>
       <use xlink:href="#DejaVuSans-30"/>
       <use xlink:href="#DejaVuSans-2e" x="63.623047"/>
       <use xlink:href="#DejaVuSans-39" x="95.410156"/>
       <use xlink:href="#DejaVuSans-34" x="159.033203"/>
       <use xlink:href="#DejaVuSans-37" x="222.65625"/>
       <use xlink:href="#DejaVuSans-35" x="286.279297"/>
      </g>
     </g>
    </g>
    <g id="ytick_4">
     <g id="line2d_9">
      <g>
       <use xlink:href="#mb51570f8ff" x="112.16" y="279.016822" style="stroke: #000000; stroke-width: 0.8"/>
      </g>
     </g>
     <g id="text_10">
      <!-- 0.9500 -->
      <g transform="translate(35.17875 286.61526) scale(0.2 -0.2)">
       <use xlink:href="#DejaVuSans-30"/>
       <use xlink:href="#DejaVuSans-2e" x="63.623047"/>
       <use xlink:href="#DejaVuSans-39" x="95.410156"/>
       <use xlink:href="#DejaVuSans-35" x="159.033203"/>
       <use xlink:href="#DejaVuSans-30" x="222.65625"/>
       <use xlink:href="#DejaVuSans-30" x="286.279297"/>
      </g>
     </g>
    </g>
    <g id="ytick_5">
     <g id="line2d_10">
      <g>
       <use xlink:href="#mb51570f8ff" x="112.16" y="223.195567" style="stroke: #000000; stroke-width: 0.8"/>
      </g>
     </g>
     <g id="text_11">
      <!-- 0.9525 -->
      <g transform="translate(35.17875 230.794004) scale(0.2 -0.2)">
       <use xlink:href="#DejaVuSans-30"/>
       <use xlink:href="#DejaVuSans-2e" x="63.623047"/>
       <use xlink:href="#DejaVuSans-39" x="95.410156"/>
       <use xlink:href="#DejaVuSans-35" x="159.033203"/>
       <use xlink:href="#DejaVuSans-32" x="222.65625"/>
       <use xlink:href="#DejaVuSans-35" x="286.279297"/>
      </g>
     </g>
    </g>
    <g id="ytick_6">
     <g id="line2d_11">
      <g>
       <use xlink:href="#mb51570f8ff" x="112.16" y="167.374311" style="stroke: #000000; stroke-width: 0.8"/>
      </g>
     </g>
     <g id="text_12">
      <!-- 0.9550 -->
      <g transform="translate(35.17875 174.972748) scale(0.2 -0.2)">
       <use xlink:href="#DejaVuSans-30"/>
       <use xlink:href="#DejaVuSans-2e" x="63.623047"/>
       <use xlink:href="#DejaVuSans-39" x="95.410156"/>
       <use xlink:href="#DejaVuSans-35" x="159.033203"/>
       <use xlink:href="#DejaVuSans-35" x="222.65625"/>
       <use xlink:href="#DejaVuSans-30" x="286.279297"/>
      </g>
     </g>
    </g>
    <g id="ytick_7">
     <g id="line2d_12">
      <g>
       <use xlink:href="#mb51570f8ff" x="112.16" y="111.553055" style="stroke: #000000; stroke-width: 0.8"/>
      </g>
     </g>
     <g id="text_13">
      <!-- 0.9575 -->
      <g transform="translate(35.17875 119.151493) scale(0.2 -0.2)">
       <use xlink:href="#DejaVuSans-30"/>
       <use xlink:href="#DejaVuSans-2e" x="63.623047"/>
       <use xlink:href="#DejaVuSans-39" x="95.410156"/>
       <use xlink:href="#DejaVuSans-35" x="159.033203"/>
       <use xlink:href="#DejaVuSans-37" x="222.65625"/>
       <use xlink:href="#DejaVuSans-35" x="286.279297"/>
      </g>
     </g>
    </g>
    <g id="ytick_8">
     <g id="line2d_13">
      <g>
       <use xlink:href="#mb51570f8ff" x="112.16" y="55.7318" style="stroke: #000000; stroke-width: 0.8"/>
      </g>
     </g>
     <g id="text_14">
      <!-- 0.9600 -->
      <g transform="translate(35.17875 63.330237) scale(0.2 -0.2)">
       <use xlink:href="#DejaVuSans-30"/>
       <use xlink:href="#DejaVuSans-2e" x="63.623047"/>
       <use xlink:href="#DejaVuSans-39" x="95.410156"/>
       <use xlink:href="#DejaVuSans-36" x="159.033203"/>
       <use xlink:href="#DejaVuSans-30" x="222.65625"/>
       <use xlink:href="#DejaVuSans-30" x="286.279297"/>
      </g>
     </g>
    </g>
    <g id="text_15">
     <!-- R2 -->
     <g transform="translate(27.019375 263.986938) rotate(-90) scale(0.2 -0.2)">
      <defs>
       <path id="DejaVuSans-52" d="M 2841 2188 
Q 3044 2119 3236 1894 
Q 3428 1669 3622 1275 
L 4263 0 
L 3584 0 
L 2988 1197 
Q 2756 1666 2539 1819 
Q 2322 1972 1947 1972 
L 1259 1972 
L 1259 0 
L 628 0 
L 628 4666 
L 2053 4666 
Q 2853 4666 3247 4331 
Q 3641 3997 3641 3322 
Q 3641 2881 3436 2590 
Q 3231 2300 2841 2188 
z
M 1259 4147 
L 1259 2491 
L 2053 2491 
Q 2509 2491 2742 2702 
Q 2975 2913 2975 3322 
Q 2975 3731 2742 3939 
Q 2509 4147 2053 4147 
L 1259 4147 
z
" transform="scale(0.015625)"/>
      </defs>
      <use xlink:href="#DejaVuSans-52"/>
      <use xlink:href="#DejaVuSans-32" x="69.482422"/>
     </g>
    </g>
   </g>
   <g id="line2d_14">
    <path d="M 158.934545 55.732348 
L 178.838607 57.475923 
L 198.742669 82.257089 
L 218.646731 119.818788 
L 238.550793 141.764616 
L 258.454855 113.526546 
L 278.358917 133.007507 
L 298.262979 140.578543 
L 318.167041 158.415485 
L 338.071103 169.657653 
L 357.975164 155.872561 
L 377.879226 168.397163 
L 397.783288 179.823227 
L 417.68735 196.157231 
L 437.591412 137.058753 
L 457.495474 199.690901 
L 477.399536 202.847521 
L 497.303598 174.060146 
L 517.20766 168.274417 
L 537.111721 191.380338 
L 557.015783 174.964001 
L 576.919845 192.933942 
L 596.823907 184.848629 
L 616.727969 196.230198 
L 636.632031 227.877967 
L 656.536093 184.844947 
L 676.440155 177.848103 
L 696.344217 219.852762 
L 716.248279 191.304125 
L 736.15234 206.94157 
L 756.056402 194.684261 
L 775.960464 191.503761 
L 795.864526 174.823186 
L 815.768588 203.591078 
L 835.67265 193.931392 
L 855.576712 187.087044 
L 875.480774 204.646394 
L 895.384836 199.384218 
L 915.288897 167.945058 
L 935.192959 182.950214 
L 955.097021 184.645013 
L 975.001083 210.962077 
L 994.905145 169.963763 
L 1014.809207 199.07062 
L 1034.713269 177.875688 
L 1054.617331 208.786055 
L 1074.521393 182.496852 
L 1094.425455 223.576598 
" clip-path="url(#pb9fd7a4a97)" style="fill: none; stroke: #1f77b4; stroke-width: 1.5; stroke-linecap: square"/>
   </g>
   <g id="line2d_15">
    <path d="M 158.934545 138.822741 
L 178.838607 106.190017 
L 198.742669 114.907607 
L 218.646731 134.956331 
L 238.550793 176.218817 
L 258.454855 142.438158 
L 278.358917 165.067218 
L 298.262979 171.591786 
L 318.167041 164.809184 
L 338.071103 222.077439 
L 357.975164 204.614531 
L 377.879226 199.98805 
L 397.783288 210.490322 
L 417.68735 222.284648 
L 437.591412 167.016604 
L 457.495474 233.5191 
L 477.399536 233.495441 
L 497.303598 207.640597 
L 517.20766 207.429407 
L 537.111721 216.157861 
L 557.015783 205.453984 
L 576.919845 232.576319 
L 596.823907 232.331171 
L 616.727969 241.14177 
L 636.632031 254.255066 
L 656.536093 239.451659 
L 676.440155 207.325991 
L 696.344217 232.330318 
L 716.248279 219.209474 
L 736.15234 256.869191 
L 756.056402 218.65231 
L 775.960464 216.526109 
L 795.864526 204.330394 
L 815.768588 235.203731 
L 835.67265 224.488132 
L 855.576712 228.288696 
L 875.480774 229.496928 
L 895.384836 243.297388 
L 915.288897 211.505983 
L 935.192959 250.493624 
L 955.097021 228.329856 
L 975.001083 216.932638 
L 994.905145 199.092376 
L 1014.809207 258.740723 
L 1034.713269 216.841679 
L 1054.617331 226.419413 
L 1074.521393 233.35313 
L 1094.425455 235.014855 
" clip-path="url(#pb9fd7a4a97)" style="fill: none; stroke: #ff7f0e; stroke-width: 1.5; stroke-linecap: square"/>
   </g>
   <g id="line2d_16">
    <path d="M 158.934545 159.8294 
L 178.838607 143.318812 
L 198.742669 196.575064 
L 218.646731 246.596057 
L 238.550793 235.589084 
L 258.454855 240.489335 
L 278.358917 281.820127 
L 298.262979 261.42675 
L 318.167041 297.257565 
L 338.071103 310.771611 
L 357.975164 324.859382 
L 377.879226 317.321389 
L 397.783288 311.854214 
L 417.68735 337.178819 
L 437.591412 276.243781 
L 457.495474 360.198197 
L 477.399536 371.710853 
L 497.303598 316.015262 
L 517.20766 314.504483 
L 537.111721 338.050944 
L 557.015783 306.463919 
L 576.919845 382.918254 
L 596.823907 336.492392 
L 616.727969 362.75978 
L 636.632031 387.702418 
L 656.536093 284.18401 
L 676.440155 301.567846 
L 696.344217 315.987437 
L 716.248279 315.387468 
L 736.15234 337.484487 
L 756.056402 288.246063 
L 775.960464 347.559285 
L 795.864526 301.136988 
L 815.768588 340.906134 
L 835.67265 342.908098 
L 855.576712 287.317225 
L 875.480774 340.908837 
L 895.384836 369.277843 
L 915.288897 295.658393 
L 935.192959 309.61353 
L 955.097021 344.954123 
L 975.001083 363.398316 
L 994.905145 285.460267 
L 1014.809207 365.322838 
L 1034.713269 348.246574 
L 1054.617331 296.041232 
L 1074.521393 305.337028 
L 1094.425455 364.912769 
" clip-path="url(#pb9fd7a4a97)" style="fill: none; stroke: #2ca02c; stroke-width: 1.5; stroke-linecap: square"/>
   </g>
   <g id="line2d_17"/>
   <g id="line2d_18"/>
   <g id="line2d_19"/>
   <g id="patch_3">
    <path d="M 112.16 490.552 
L 112.16 10.8 
" style="fill: none; stroke: #000000; stroke-width: 0.8; stroke-linejoin: miter; stroke-linecap: square"/>
   </g>
   <g id="patch_4">
    <path d="M 1141.2 490.552 
L 1141.2 10.8 
" style="fill: none; stroke: #000000; stroke-width: 0.8; stroke-linejoin: miter; stroke-linecap: square"/>
   </g>
   <g id="patch_5">
    <path d="M 112.16 490.552 
L 1141.2 490.552 
" style="fill: none; stroke: #000000; stroke-width: 0.8; stroke-linejoin: miter; stroke-linecap: square"/>
   </g>
   <g id="patch_6">
    <path d="M 112.16 10.8 
L 1141.2 10.8 
" style="fill: none; stroke: #000000; stroke-width: 0.8; stroke-linejoin: miter; stroke-linecap: square"/>
   </g>
   <g id="legend_1">
    <g id="patch_7">
     <path d="M 123.36 482.552 
L 204.345 482.552 
Q 207.545 482.552 207.545 479.352 
L 207.545 410.497 
Q 207.545 407.297 204.345 407.297 
L 123.36 407.297 
Q 120.16 407.297 120.16 410.497 
L 120.16 479.352 
Q 120.16 482.552 123.36 482.552 
z
" style="fill: #ffffff; opacity: 0.8; stroke: #cccccc; stroke-linejoin: miter"/>
    </g>
    <g id="line2d_20">
     <path d="M 126.56 420.2545 
L 142.56 420.2545 
L 158.56 420.2545 
" style="fill: none; stroke: #1f77b4; stroke-width: 1.5; stroke-linecap: square"/>
    </g>
    <g id="text_16">
     <!-- rf -->
     <g transform="translate(171.36 425.8545) scale(0.16 -0.16)">
      <defs>
       <path id="DejaVuSans-66" d="M 2375 4863 
L 2375 4384 
L 1825 4384 
Q 1516 4384 1395 4259 
Q 1275 4134 1275 3809 
L 1275 3500 
L 2222 3500 
L 2222 3053 
L 1275 3053 
L 1275 0 
L 697 0 
L 697 3053 
L 147 3053 
L 147 3500 
L 697 3500 
L 697 3744 
Q 697 4328 969 4595 
Q 1241 4863 1831 4863 
L 2375 4863 
z
" transform="scale(0.015625)"/>
      </defs>
      <use xlink:href="#DejaVuSans-72"/>
      <use xlink:href="#DejaVuSans-66" x="41.113281"/>
     </g>
    </g>
    <g id="line2d_21">
     <path d="M 126.56 443.7395 
L 142.56 443.7395 
L 158.56 443.7395 
" style="fill: none; stroke: #ff7f0e; stroke-width: 1.5; stroke-linecap: square"/>
    </g>
    <g id="text_17">
     <!-- gbr -->
     <g transform="translate(171.36 449.3395) scale(0.16 -0.16)">
      <defs>
       <path id="DejaVuSans-62" d="M 3116 1747 
Q 3116 2381 2855 2742 
Q 2594 3103 2138 3103 
Q 1681 3103 1420 2742 
Q 1159 2381 1159 1747 
Q 1159 1113 1420 752 
Q 1681 391 2138 391 
Q 2594 391 2855 752 
Q 3116 1113 3116 1747 
z
M 1159 2969 
Q 1341 3281 1617 3432 
Q 1894 3584 2278 3584 
Q 2916 3584 3314 3078 
Q 3713 2572 3713 1747 
Q 3713 922 3314 415 
Q 2916 -91 2278 -91 
Q 1894 -91 1617 61 
Q 1341 213 1159 525 
L 1159 0 
L 581 0 
L 581 4863 
L 1159 4863 
L 1159 2969 
z
" transform="scale(0.015625)"/>
      </defs>
      <use xlink:href="#DejaVuSans-67"/>
      <use xlink:href="#DejaVuSans-62" x="63.476562"/>
      <use xlink:href="#DejaVuSans-72" x="126.953125"/>
     </g>
    </g>
    <g id="line2d_22">
     <path d="M 126.56 467.2245 
L 142.56 467.2245 
L 158.56 467.2245 
" style="fill: none; stroke: #2ca02c; stroke-width: 1.5; stroke-linecap: square"/>
    </g>
    <g id="text_18">
     <!-- xgb -->
     <g transform="translate(171.36 472.8245) scale(0.16 -0.16)">
      <defs>
       <path id="DejaVuSans-78" d="M 3513 3500 
L 2247 1797 
L 3578 0 
L 2900 0 
L 1881 1375 
L 863 0 
L 184 0 
L 1544 1831 
L 300 3500 
L 978 3500 
L 1906 2253 
L 2834 3500 
L 3513 3500 
z
" transform="scale(0.015625)"/>
      </defs>
      <use xlink:href="#DejaVuSans-78"/>
      <use xlink:href="#DejaVuSans-67" x="59.179688"/>
      <use xlink:href="#DejaVuSans-62" x="122.65625"/>
     </g>
    </g>
   </g>
  </g>
 </g>
 <defs>
  <clipPath id="pb9fd7a4a97">
   <rect x="112.16" y="10.8" width="1029.04" height="479.752"/>
  </clipPath>
 </defs>
</svg>
