<?xml version="1.0" encoding="utf-8" standalone="no"?>
<!DOCTYPE svg PUBLIC "-//W3C//DTD SVG 1.1//EN"
  "http://www.w3.org/Graphics/SVG/1.1/DTD/svg11.dtd">
<svg xmlns:xlink="http://www.w3.org/1999/xlink" width="1152pt" height="576pt" viewBox="0 0 1152 576" xmlns="http://www.w3.org/2000/svg" version="1.1">
 <metadata>
  <rdf:RDF xmlns:dc="http://purl.org/dc/elements/1.1/" xmlns:cc="http://creativecommons.org/ns#" xmlns:rdf="http://www.w3.org/1999/02/22-rdf-syntax-ns#">
   <cc:Work>
    <dc:type rdf:resource="http://purl.org/dc/dcmitype/StillImage"/>
    <dc:date>2025-03-18T21:52:14.389812</dc:date>
    <dc:format>image/svg+xml</dc:format>
    <dc:creator>
     <cc:Agent>
      <dc:title>Matplotlib v3.9.2, https://matplotlib.org/</dc:title>
     </cc:Agent>
    </dc:creator>
   </cc:Work>
  </rdf:RDF>
 </metadata>
 <defs>
  <style type="text/css">*{stroke-linejoin: round; stroke-linecap: butt}</style>
 </defs>
 <g id="figure_1">
  <g id="patch_1">
   <path d="M 0 576 
L 1152 576 
L 1152 0 
L 0 0 
z
" style="fill: #ffffff"/>
  </g>
  <g id="axes_1">
   <g id="patch_2">
    <path d="M 73.91 490.552 
L 1141.2 490.552 
L 1141.2 10.8 
L 73.91 10.8 
z
" style="fill: #ffffff"/>
   </g>
   <g id="PolyCollection_1">
    <defs>
     <path id="m8fc8283325" d="M 122.423182 -541.849474 
L 122.423182 -541.025999 
L 143.067089 -538.679247 
L 163.710996 -535.677361 
L 184.354903 -531.627625 
L 204.99881 -531.953792 
L 225.642718 -529.445204 
L 246.286625 -530.736609 
L 266.930532 -522.180941 
L 287.574439 -516.090344 
L 308.218346 -513.194334 
L 328.862253 -519.951328 
L 349.506161 -516.921723 
L 370.150068 -514.95754 
L 390.793975 -501.349491 
L 411.437882 -510.22347 
L 432.081789 -506.699945 
L 452.725696 -510.465113 
L 473.369603 -510.219411 
L 494.013511 -510.219411 
L 514.657418 -511.340794 
L 535.301325 -507.048037 
L 555.945232 -507.048037 
L 576.589139 -507.048037 
L 597.233046 -511.883855 
L 617.876954 -508.124264 
L 638.520861 -504.469808 
L 659.164768 -505.70513 
L 679.808675 -481.395759 
L 700.452582 -484.296961 
L 721.096489 -485.937983 
L 741.740397 -483.832284 
L 762.384304 -485.184738 
L 762.384304 -493.738652 
L 762.384304 -493.738652 
L 741.740397 -493.732629 
L 721.096489 -491.621076 
L 700.452582 -496.095006 
L 679.808675 -499.351652 
L 659.164768 -526.773761 
L 638.520861 -522.811296 
L 617.876954 -517.405714 
L 597.233046 -522.421042 
L 576.589139 -523.989471 
L 555.945232 -522.829572 
L 535.301325 -522.829572 
L 514.657418 -522.829572 
L 494.013511 -521.347533 
L 473.369603 -521.347533 
L 452.725696 -524.114909 
L 432.081789 -523.448143 
L 411.437882 -524.597141 
L 390.793975 -519.394571 
L 370.150068 -524.830912 
L 349.506161 -528.859122 
L 328.862253 -532.080681 
L 308.218346 -528.297058 
L 287.574439 -531.838153 
L 266.930532 -534.51545 
L 246.286625 -534.494386 
L 225.642718 -534.356924 
L 204.99881 -536.803781 
L 184.354903 -537.578029 
L 163.710996 -538.976982 
L 143.067089 -540.388171 
L 122.423182 -541.849474 
z
" style="stroke: #1f77b4; stroke-opacity: 0.2"/>
    </defs>
    <g clip-path="url(#pb1372377b5)">
     <use xlink:href="#m8fc8283325" x="0" y="576" style="fill: #1f77b4; fill-opacity: 0.2; stroke: #1f77b4; stroke-opacity: 0.2"/>
    </g>
   </g>
   <g id="PolyCollection_2">
    <defs>
     <path id="m3336a24005" d="M 122.423182 -542.267678 
L 122.423182 -541.22918 
L 143.067089 -539.455318 
L 163.710996 -538.528571 
L 184.354903 -536.852988 
L 204.99881 -534.648248 
L 225.642718 -528.587795 
L 246.286625 -528.696537 
L 266.930532 -519.95792 
L 287.574439 -518.444987 
L 308.218346 -510.439043 
L 328.862253 -509.380357 
L 349.506161 -503.433472 
L 370.150068 -502.480955 
L 390.793975 -503.420209 
L 411.437882 -498.103073 
L 432.081789 -495.973096 
L 452.725696 -490.601909 
L 473.369603 -481.945656 
L 494.013511 -482.33354 
L 514.657418 -476.10736 
L 535.301325 -488.648456 
L 555.945232 -488.913997 
L 576.589139 -488.304905 
L 597.233046 -462.932452 
L 617.876954 -449.623843 
L 638.520861 -443.550687 
L 659.164768 -424.983619 
L 679.808675 -451.254425 
L 700.452582 -422.789565 
L 721.096489 -438.36877 
L 741.740397 -438.467816 
L 762.384304 -433.988538 
L 783.028211 -413.903393 
L 803.672118 -411.04202 
L 824.316025 -359.695562 
L 844.959932 -329.878747 
L 865.603839 -290.615767 
L 886.247747 -268.473685 
L 906.891654 -272.81349 
L 927.535561 -362.17221 
L 948.179468 -282.543584 
L 968.823375 -108.827903 
L 968.823375 -196.103951 
L 968.823375 -196.103951 
L 948.179468 -438.637882 
L 927.535561 -387.155328 
L 906.891654 -433.681935 
L 886.247747 -412.281078 
L 865.603839 -451.346857 
L 844.959932 -442.271107 
L 824.316025 -460.270654 
L 803.672118 -479.817251 
L 783.028211 -475.174984 
L 762.384304 -489.704145 
L 741.740397 -491.290493 
L 721.096489 -493.120464 
L 700.452582 -487.735021 
L 679.808675 -490.182679 
L 659.164768 -457.019511 
L 638.520861 -490.222421 
L 617.876954 -498.169138 
L 597.233046 -495.528545 
L 576.589139 -496.213039 
L 555.945232 -503.598029 
L 535.301325 -504.01562 
L 514.657418 -502.229828 
L 494.013511 -509.066581 
L 473.369603 -509.208758 
L 452.725696 -511.081889 
L 432.081789 -513.440761 
L 411.437882 -517.178712 
L 390.793975 -521.189732 
L 370.150068 -517.710469 
L 349.506161 -519.079915 
L 328.862253 -521.170092 
L 308.218346 -521.791601 
L 287.574439 -528.110017 
L 266.930532 -530.238061 
L 246.286625 -532.64875 
L 225.642718 -533.507888 
L 204.99881 -537.797628 
L 184.354903 -539.027655 
L 163.710996 -539.869497 
L 143.067089 -541.392509 
L 122.423182 -542.267678 
z
" style="stroke: #ff7f0e; stroke-opacity: 0.2"/>
    </defs>
    <g clip-path="url(#pb1372377b5)">
     <use xlink:href="#m3336a24005" x="0" y="576" style="fill: #ff7f0e; fill-opacity: 0.2; stroke: #ff7f0e; stroke-opacity: 0.2"/>
    </g>
   </g>
   <g id="PolyCollection_3">
    <defs>
     <path id="m8c86deb938" d="M 122.423182 -542.468741 
L 122.423182 -541.450756 
L 143.067089 -542.146213 
L 163.710996 -542.100358 
L 184.354903 -541.8266 
L 204.99881 -541.662111 
L 225.642718 -540.375336 
L 246.286625 -541.344106 
L 266.930532 -541.28338 
L 287.574439 -541.329885 
L 308.218346 -541.440393 
L 328.862253 -540.524149 
L 349.506161 -541.293262 
L 370.150068 -540.36512 
L 390.793975 -542.088983 
L 411.437882 -541.931985 
L 432.081789 -541.168234 
L 452.725696 -541.163285 
L 473.369603 -540.933587 
L 494.013511 -541.320311 
L 514.657418 -541.343725 
L 535.301325 -541.271313 
L 555.945232 -541.278821 
L 576.589139 -541.266903 
L 597.233046 -541.260841 
L 617.876954 -541.217168 
L 638.520861 -541.309888 
L 659.164768 -541.028775 
L 679.808675 -541.679453 
L 700.452582 -540.025852 
L 721.096489 -540.12918 
L 741.740397 -539.996937 
L 762.384304 -540.016776 
L 783.028211 -539.931783 
L 803.672118 -539.973036 
L 824.316025 -540.535322 
L 844.959932 -540.038914 
L 865.603839 -540.257228 
L 886.247747 -540.43742 
L 906.891654 -540.329359 
L 927.535561 -541.223015 
L 948.179468 -541.179699 
L 968.823375 -541.296455 
L 989.467282 -541.43704 
L 1010.11119 -541.293379 
L 1030.755097 -541.263488 
L 1051.399004 -541.309698 
L 1072.042911 -541.340176 
L 1092.686818 -541.289766 
L 1092.686818 -542.143557 
L 1092.686818 -542.143557 
L 1072.042911 -542.228278 
L 1051.399004 -542.193474 
L 1030.755097 -542.069833 
L 1010.11119 -542.182301 
L 989.467282 -542.735849 
L 968.823375 -543.046912 
L 948.179468 -542.03455 
L 927.535561 -542.169485 
L 906.891654 -542.259088 
L 886.247747 -542.597735 
L 865.603839 -542.284775 
L 844.959932 -541.692401 
L 824.316025 -541.575796 
L 803.672118 -541.899462 
L 783.028211 -541.877654 
L 762.384304 -542.631521 
L 741.740397 -542.639047 
L 721.096489 -542.798482 
L 700.452582 -542.798482 
L 679.808675 -542.530833 
L 659.164768 -541.986233 
L 638.520861 -542.311611 
L 617.876954 -542.36676 
L 597.233046 -542.32638 
L 576.589139 -542.171822 
L 555.945232 -542.249803 
L 535.301325 -542.242296 
L 514.657418 -542.304098 
L 494.013511 -542.279244 
L 473.369603 -542.135067 
L 452.725696 -542.291797 
L 432.081789 -542.31267 
L 411.437882 -542.842773 
L 390.793975 -542.328204 
L 370.150068 -542.116089 
L 349.506161 -542.423267 
L 328.862253 -542.179929 
L 308.218346 -542.674511 
L 287.574439 -542.231199 
L 266.930532 -542.126164 
L 246.286625 -542.625903 
L 225.642718 -541.843098 
L 204.99881 -542.553157 
L 184.354903 -542.600616 
L 163.710996 -543.393091 
L 143.067089 -542.898321 
L 122.423182 -542.468741 
z
" style="stroke: #2ca02c; stroke-opacity: 0.2"/>
    </defs>
    <g clip-path="url(#pb1372377b5)">
     <use xlink:href="#m8c86deb938" x="0" y="576" style="fill: #2ca02c; fill-opacity: 0.2; stroke: #2ca02c; stroke-opacity: 0.2"/>
    </g>
   </g>
   <g id="PolyCollection_4">
    <defs>
     <path id="m80e5553f46" d="M 122.423182 -542.206069 
L 122.423182 -541.356662 
L 143.067089 -541.320529 
L 163.710996 -540.450451 
L 184.354903 -541.635361 
L 204.99881 -541.337508 
L 225.642718 -540.787533 
L 246.286625 -540.741781 
L 266.930532 -540.769638 
L 287.574439 -540.792878 
L 308.218346 -540.060049 
L 328.862253 -539.515842 
L 349.506161 -540.618616 
L 370.150068 -539.650775 
L 390.793975 -540.931571 
L 411.437882 -539.629938 
L 432.081789 -540.282882 
L 452.725696 -539.608137 
L 473.369603 -540.665278 
L 494.013511 -540.137588 
L 514.657418 -539.941533 
L 535.301325 -537.912863 
L 555.945232 -540.204906 
L 576.589139 -541.109197 
L 597.233046 -540.046954 
L 617.876954 -539.206051 
L 638.520861 -539.961397 
L 659.164768 -540.174142 
L 679.808675 -539.830234 
L 700.452582 -540.312698 
L 721.096489 -539.429665 
L 741.740397 -540.159686 
L 762.384304 -540.043659 
L 783.028211 -539.588047 
L 803.672118 -540.475974 
L 824.316025 -539.440589 
L 844.959932 -539.556255 
L 865.603839 -539.824796 
L 886.247747 -540.270991 
L 906.891654 -540.658316 
L 927.535561 -540.055431 
L 948.179468 -538.709431 
L 968.823375 -540.01757 
L 989.467282 -539.002913 
L 1010.11119 -539.37705 
L 1030.755097 -539.466048 
L 1051.399004 -539.019582 
L 1072.042911 -539.818548 
L 1092.686818 -540.470306 
L 1092.686818 -541.216971 
L 1092.686818 -541.216971 
L 1072.042911 -541.090541 
L 1051.399004 -540.174674 
L 1030.755097 -540.561559 
L 1010.11119 -540.73568 
L 989.467282 -541.109219 
L 968.823375 -541.298514 
L 948.179468 -540.430478 
L 927.535561 -541.176458 
L 906.891654 -541.430349 
L 886.247747 -541.427295 
L 865.603839 -541.028201 
L 844.959932 -541.12035 
L 824.316025 -540.138301 
L 803.672118 -541.423793 
L 783.028211 -541.658879 
L 762.384304 -541.121134 
L 741.740397 -541.205604 
L 721.096489 -540.614755 
L 700.452582 -541.41812 
L 679.808675 -541.232239 
L 659.164768 -541.479416 
L 638.520861 -541.330223 
L 617.876954 -540.979289 
L 597.233046 -541.517125 
L 576.589139 -541.796173 
L 555.945232 -541.387263 
L 535.301325 -540.925117 
L 514.657418 -541.403705 
L 494.013511 -541.364728 
L 473.369603 -541.189556 
L 452.725696 -541.790539 
L 432.081789 -541.023991 
L 411.437882 -541.34862 
L 390.793975 -541.276738 
L 370.150068 -540.983489 
L 349.506161 -541.504468 
L 328.862253 -540.95606 
L 308.218346 -541.368121 
L 287.574439 -541.612766 
L 266.930532 -541.837666 
L 246.286625 -541.812664 
L 225.642718 -541.778636 
L 204.99881 -542.40861 
L 184.354903 -542.107613 
L 163.710996 -542.069651 
L 143.067089 -541.988684 
L 122.423182 -542.206069 
z
" style="stroke: #d62728; stroke-opacity: 0.2"/>
    </defs>
    <g clip-path="url(#pb1372377b5)">
     <use xlink:href="#m80e5553f46" x="0" y="576" style="fill: #d62728; fill-opacity: 0.2; stroke: #d62728; stroke-opacity: 0.2"/>
    </g>
   </g>
   <g id="matplotlib.axis_1">
    <g id="xtick_1">
     <g id="line2d_1">
      <defs>
       <path id="m72b889768b" d="M 0 0 
L 0 3.5 
" style="stroke: #000000; stroke-width: 0.8"/>
      </defs>
      <g>
       <use xlink:href="#m72b889768b" x="112.101228" y="490.552" style="stroke: #000000; stroke-width: 0.8"/>
      </g>
     </g>
     <g id="text_1">
      <!-- 0 -->
      <g transform="translate(105.738728 512.748875) scale(0.2 -0.2)">
       <defs>
        <path id="DejaVuSans-30" d="M 2034 4250 
Q 1547 4250 1301 3770 
Q 1056 3291 1056 2328 
Q 1056 1369 1301 889 
Q 1547 409 2034 409 
Q 2525 409 2770 889 
Q 3016 1369 3016 2328 
Q 3016 3291 2770 3770 
Q 2525 4250 2034 4250 
z
M 2034 4750 
Q 2819 4750 3233 4129 
Q 3647 3509 3647 2328 
Q 3647 1150 3233 529 
Q 2819 -91 2034 -91 
Q 1250 -91 836 529 
Q 422 1150 422 2328 
Q 422 3509 836 4129 
Q 1250 4750 2034 4750 
z
" transform="scale(0.015625)"/>
       </defs>
       <use xlink:href="#DejaVuSans-30"/>
      </g>
     </g>
    </g>
    <g id="xtick_2">
     <g id="line2d_2">
      <g>
       <use xlink:href="#m72b889768b" x="318.5403" y="490.552" style="stroke: #000000; stroke-width: 0.8"/>
      </g>
     </g>
     <g id="text_2">
      <!-- 20 -->
      <g transform="translate(305.8153 512.748875) scale(0.2 -0.2)">
       <defs>
        <path id="DejaVuSans-32" d="M 1228 531 
L 3431 531 
L 3431 0 
L 469 0 
L 469 531 
Q 828 903 1448 1529 
Q 2069 2156 2228 2338 
Q 2531 2678 2651 2914 
Q 2772 3150 2772 3378 
Q 2772 3750 2511 3984 
Q 2250 4219 1831 4219 
Q 1534 4219 1204 4116 
Q 875 4013 500 3803 
L 500 4441 
Q 881 4594 1212 4672 
Q 1544 4750 1819 4750 
Q 2544 4750 2975 4387 
Q 3406 4025 3406 3419 
Q 3406 3131 3298 2873 
Q 3191 2616 2906 2266 
Q 2828 2175 2409 1742 
Q 1991 1309 1228 531 
z
" transform="scale(0.015625)"/>
       </defs>
       <use xlink:href="#DejaVuSans-32"/>
       <use xlink:href="#DejaVuSans-30" x="63.623047"/>
      </g>
     </g>
    </g>
    <g id="xtick_3">
     <g id="line2d_3">
      <g>
       <use xlink:href="#m72b889768b" x="524.979371" y="490.552" style="stroke: #000000; stroke-width: 0.8"/>
      </g>
     </g>
     <g id="text_3">
      <!-- 40 -->
      <g transform="translate(512.254371 512.748875) scale(0.2 -0.2)">
       <defs>
        <path id="DejaVuSans-34" d="M 2419 4116 
L 825 1625 
L 2419 1625 
L 2419 4116 
z
M 2253 4666 
L 3047 4666 
L 3047 1625 
L 3713 1625 
L 3713 1100 
L 3047 1100 
L 3047 0 
L 2419 0 
L 2419 1100 
L 313 1100 
L 313 1709 
L 2253 4666 
z
" transform="scale(0.015625)"/>
       </defs>
       <use xlink:href="#DejaVuSans-34"/>
       <use xlink:href="#DejaVuSans-30" x="63.623047"/>
      </g>
     </g>
    </g>
    <g id="xtick_4">
     <g id="line2d_4">
      <g>
       <use xlink:href="#m72b889768b" x="731.418443" y="490.552" style="stroke: #000000; stroke-width: 0.8"/>
      </g>
     </g>
     <g id="text_4">
      <!-- 60 -->
      <g transform="translate(718.693443 512.748875) scale(0.2 -0.2)">
       <defs>
        <path id="DejaVuSans-36" d="M 2113 2584 
Q 1688 2584 1439 2293 
Q 1191 2003 1191 1497 
Q 1191 994 1439 701 
Q 1688 409 2113 409 
Q 2538 409 2786 701 
Q 3034 994 3034 1497 
Q 3034 2003 2786 2293 
Q 2538 2584 2113 2584 
z
M 3366 4563 
L 3366 3988 
Q 3128 4100 2886 4159 
Q 2644 4219 2406 4219 
Q 1781 4219 1451 3797 
Q 1122 3375 1075 2522 
Q 1259 2794 1537 2939 
Q 1816 3084 2150 3084 
Q 2853 3084 3261 2657 
Q 3669 2231 3669 1497 
Q 3669 778 3244 343 
Q 2819 -91 2113 -91 
Q 1303 -91 875 529 
Q 447 1150 447 2328 
Q 447 3434 972 4092 
Q 1497 4750 2381 4750 
Q 2619 4750 2861 4703 
Q 3103 4656 3366 4563 
z
" transform="scale(0.015625)"/>
       </defs>
       <use xlink:href="#DejaVuSans-36"/>
       <use xlink:href="#DejaVuSans-30" x="63.623047"/>
      </g>
     </g>
    </g>
    <g id="xtick_5">
     <g id="line2d_5">
      <g>
       <use xlink:href="#m72b889768b" x="937.857515" y="490.552" style="stroke: #000000; stroke-width: 0.8"/>
      </g>
     </g>
     <g id="text_5">
      <!-- 80 -->
      <g transform="translate(925.132515 512.748875) scale(0.2 -0.2)">
       <defs>
        <path id="DejaVuSans-38" d="M 2034 2216 
Q 1584 2216 1326 1975 
Q 1069 1734 1069 1313 
Q 1069 891 1326 650 
Q 1584 409 2034 409 
Q 2484 409 2743 651 
Q 3003 894 3003 1313 
Q 3003 1734 2745 1975 
Q 2488 2216 2034 2216 
z
M 1403 2484 
Q 997 2584 770 2862 
Q 544 3141 544 3541 
Q 544 4100 942 4425 
Q 1341 4750 2034 4750 
Q 2731 4750 3128 4425 
Q 3525 4100 3525 3541 
Q 3525 3141 3298 2862 
Q 3072 2584 2669 2484 
Q 3125 2378 3379 2068 
Q 3634 1759 3634 1313 
Q 3634 634 3220 271 
Q 2806 -91 2034 -91 
Q 1263 -91 848 271 
Q 434 634 434 1313 
Q 434 1759 690 2068 
Q 947 2378 1403 2484 
z
M 1172 3481 
Q 1172 3119 1398 2916 
Q 1625 2713 2034 2713 
Q 2441 2713 2670 2916 
Q 2900 3119 2900 3481 
Q 2900 3844 2670 4047 
Q 2441 4250 2034 4250 
Q 1625 4250 1398 4047 
Q 1172 3844 1172 3481 
z
" transform="scale(0.015625)"/>
       </defs>
       <use xlink:href="#DejaVuSans-38"/>
       <use xlink:href="#DejaVuSans-30" x="63.623047"/>
      </g>
     </g>
    </g>
    <g id="text_6">
     <!-- Percentile Threshold -->
     <g transform="translate(505.775312 536.105125) scale(0.2 -0.2)">
      <defs>
       <path id="DejaVuSans-50" d="M 1259 4147 
L 1259 2394 
L 2053 2394 
Q 2494 2394 2734 2622 
Q 2975 2850 2975 3272 
Q 2975 3691 2734 3919 
Q 2494 4147 2053 4147 
L 1259 4147 
z
M 628 4666 
L 2053 4666 
Q 2838 4666 3239 4311 
Q 3641 3956 3641 3272 
Q 3641 2581 3239 2228 
Q 2838 1875 2053 1875 
L 1259 1875 
L 1259 0 
L 628 0 
L 628 4666 
z
" transform="scale(0.015625)"/>
       <path id="DejaVuSans-65" d="M 3597 1894 
L 3597 1613 
L 953 1613 
Q 991 1019 1311 708 
Q 1631 397 2203 397 
Q 2534 397 2845 478 
Q 3156 559 3463 722 
L 3463 178 
Q 3153 47 2828 -22 
Q 2503 -91 2169 -91 
Q 1331 -91 842 396 
Q 353 884 353 1716 
Q 353 2575 817 3079 
Q 1281 3584 2069 3584 
Q 2775 3584 3186 3129 
Q 3597 2675 3597 1894 
z
M 3022 2063 
Q 3016 2534 2758 2815 
Q 2500 3097 2075 3097 
Q 1594 3097 1305 2825 
Q 1016 2553 972 2059 
L 3022 2063 
z
" transform="scale(0.015625)"/>
       <path id="DejaVuSans-72" d="M 2631 2963 
Q 2534 3019 2420 3045 
Q 2306 3072 2169 3072 
Q 1681 3072 1420 2755 
Q 1159 2438 1159 1844 
L 1159 0 
L 581 0 
L 581 3500 
L 1159 3500 
L 1159 2956 
Q 1341 3275 1631 3429 
Q 1922 3584 2338 3584 
Q 2397 3584 2469 3576 
Q 2541 3569 2628 3553 
L 2631 2963 
z
" transform="scale(0.015625)"/>
       <path id="DejaVuSans-63" d="M 3122 3366 
L 3122 2828 
Q 2878 2963 2633 3030 
Q 2388 3097 2138 3097 
Q 1578 3097 1268 2742 
Q 959 2388 959 1747 
Q 959 1106 1268 751 
Q 1578 397 2138 397 
Q 2388 397 2633 464 
Q 2878 531 3122 666 
L 3122 134 
Q 2881 22 2623 -34 
Q 2366 -91 2075 -91 
Q 1284 -91 818 406 
Q 353 903 353 1747 
Q 353 2603 823 3093 
Q 1294 3584 2113 3584 
Q 2378 3584 2631 3529 
Q 2884 3475 3122 3366 
z
" transform="scale(0.015625)"/>
       <path id="DejaVuSans-6e" d="M 3513 2113 
L 3513 0 
L 2938 0 
L 2938 2094 
Q 2938 2591 2744 2837 
Q 2550 3084 2163 3084 
Q 1697 3084 1428 2787 
Q 1159 2491 1159 1978 
L 1159 0 
L 581 0 
L 581 3500 
L 1159 3500 
L 1159 2956 
Q 1366 3272 1645 3428 
Q 1925 3584 2291 3584 
Q 2894 3584 3203 3211 
Q 3513 2838 3513 2113 
z
" transform="scale(0.015625)"/>
       <path id="DejaVuSans-74" d="M 1172 4494 
L 1172 3500 
L 2356 3500 
L 2356 3053 
L 1172 3053 
L 1172 1153 
Q 1172 725 1289 603 
Q 1406 481 1766 481 
L 2356 481 
L 2356 0 
L 1766 0 
Q 1100 0 847 248 
Q 594 497 594 1153 
L 594 3053 
L 172 3053 
L 172 3500 
L 594 3500 
L 594 4494 
L 1172 4494 
z
" transform="scale(0.015625)"/>
       <path id="DejaVuSans-69" d="M 603 3500 
L 1178 3500 
L 1178 0 
L 603 0 
L 603 3500 
z
M 603 4863 
L 1178 4863 
L 1178 4134 
L 603 4134 
L 603 4863 
z
" transform="scale(0.015625)"/>
       <path id="DejaVuSans-6c" d="M 603 4863 
L 1178 4863 
L 1178 0 
L 603 0 
L 603 4863 
z
" transform="scale(0.015625)"/>
       <path id="DejaVuSans-20" transform="scale(0.015625)"/>
       <path id="DejaVuSans-54" d="M -19 4666 
L 3928 4666 
L 3928 4134 
L 2272 4134 
L 2272 0 
L 1638 0 
L 1638 4134 
L -19 4134 
L -19 4666 
z
" transform="scale(0.015625)"/>
       <path id="DejaVuSans-68" d="M 3513 2113 
L 3513 0 
L 2938 0 
L 2938 2094 
Q 2938 2591 2744 2837 
Q 2550 3084 2163 3084 
Q 1697 3084 1428 2787 
Q 1159 2491 1159 1978 
L 1159 0 
L 581 0 
L 581 4863 
L 1159 4863 
L 1159 2956 
Q 1366 3272 1645 3428 
Q 1925 3584 2291 3584 
Q 2894 3584 3203 3211 
Q 3513 2838 3513 2113 
z
" transform="scale(0.015625)"/>
       <path id="DejaVuSans-73" d="M 2834 3397 
L 2834 2853 
Q 2591 2978 2328 3040 
Q 2066 3103 1784 3103 
Q 1356 3103 1142 2972 
Q 928 2841 928 2578 
Q 928 2378 1081 2264 
Q 1234 2150 1697 2047 
L 1894 2003 
Q 2506 1872 2764 1633 
Q 3022 1394 3022 966 
Q 3022 478 2636 193 
Q 2250 -91 1575 -91 
Q 1294 -91 989 -36 
Q 684 19 347 128 
L 347 722 
Q 666 556 975 473 
Q 1284 391 1588 391 
Q 1994 391 2212 530 
Q 2431 669 2431 922 
Q 2431 1156 2273 1281 
Q 2116 1406 1581 1522 
L 1381 1569 
Q 847 1681 609 1914 
Q 372 2147 372 2553 
Q 372 3047 722 3315 
Q 1072 3584 1716 3584 
Q 2034 3584 2315 3537 
Q 2597 3491 2834 3397 
z
" transform="scale(0.015625)"/>
       <path id="DejaVuSans-6f" d="M 1959 3097 
Q 1497 3097 1228 2736 
Q 959 2375 959 1747 
Q 959 1119 1226 758 
Q 1494 397 1959 397 
Q 2419 397 2687 759 
Q 2956 1122 2956 1747 
Q 2956 2369 2687 2733 
Q 2419 3097 1959 3097 
z
M 1959 3584 
Q 2709 3584 3137 3096 
Q 3566 2609 3566 1747 
Q 3566 888 3137 398 
Q 2709 -91 1959 -91 
Q 1206 -91 779 398 
Q 353 888 353 1747 
Q 353 2609 779 3096 
Q 1206 3584 1959 3584 
z
" transform="scale(0.015625)"/>
       <path id="DejaVuSans-64" d="M 2906 2969 
L 2906 4863 
L 3481 4863 
L 3481 0 
L 2906 0 
L 2906 525 
Q 2725 213 2448 61 
Q 2172 -91 1784 -91 
Q 1150 -91 751 415 
Q 353 922 353 1747 
Q 353 2572 751 3078 
Q 1150 3584 1784 3584 
Q 2172 3584 2448 3432 
Q 2725 3281 2906 2969 
z
M 947 1747 
Q 947 1113 1208 752 
Q 1469 391 1925 391 
Q 2381 391 2643 752 
Q 2906 1113 2906 1747 
Q 2906 2381 2643 2742 
Q 2381 3103 1925 3103 
Q 1469 3103 1208 2742 
Q 947 2381 947 1747 
z
" transform="scale(0.015625)"/>
      </defs>
      <use xlink:href="#DejaVuSans-50"/>
      <use xlink:href="#DejaVuSans-65" x="56.677734"/>
      <use xlink:href="#DejaVuSans-72" x="118.201172"/>
      <use xlink:href="#DejaVuSans-63" x="157.064453"/>
      <use xlink:href="#DejaVuSans-65" x="212.044922"/>
      <use xlink:href="#DejaVuSans-6e" x="273.568359"/>
      <use xlink:href="#DejaVuSans-74" x="336.947266"/>
      <use xlink:href="#DejaVuSans-69" x="376.15625"/>
      <use xlink:href="#DejaVuSans-6c" x="403.939453"/>
      <use xlink:href="#DejaVuSans-65" x="431.722656"/>
      <use xlink:href="#DejaVuSans-20" x="493.246094"/>
      <use xlink:href="#DejaVuSans-54" x="525.033203"/>
      <use xlink:href="#DejaVuSans-68" x="586.117188"/>
      <use xlink:href="#DejaVuSans-72" x="649.496094"/>
      <use xlink:href="#DejaVuSans-65" x="688.359375"/>
      <use xlink:href="#DejaVuSans-73" x="749.882812"/>
      <use xlink:href="#DejaVuSans-68" x="801.982422"/>
      <use xlink:href="#DejaVuSans-6f" x="865.361328"/>
      <use xlink:href="#DejaVuSans-6c" x="926.542969"/>
      <use xlink:href="#DejaVuSans-64" x="954.326172"/>
     </g>
     <!-- (All Methods of Threshold Handling for xgb Model) -->
     <g transform="translate(356.508125 558.50075) scale(0.2 -0.2)">
      <defs>
       <path id="DejaVuSans-28" d="M 1984 4856 
Q 1566 4138 1362 3434 
Q 1159 2731 1159 2009 
Q 1159 1288 1364 580 
Q 1569 -128 1984 -844 
L 1484 -844 
Q 1016 -109 783 600 
Q 550 1309 550 2009 
Q 550 2706 781 3412 
Q 1013 4119 1484 4856 
L 1984 4856 
z
" transform="scale(0.015625)"/>
       <path id="DejaVuSans-41" d="M 2188 4044 
L 1331 1722 
L 3047 1722 
L 2188 4044 
z
M 1831 4666 
L 2547 4666 
L 4325 0 
L 3669 0 
L 3244 1197 
L 1141 1197 
L 716 0 
L 50 0 
L 1831 4666 
z
" transform="scale(0.015625)"/>
       <path id="DejaVuSans-4d" d="M 628 4666 
L 1569 4666 
L 2759 1491 
L 3956 4666 
L 4897 4666 
L 4897 0 
L 4281 0 
L 4281 4097 
L 3078 897 
L 2444 897 
L 1241 4097 
L 1241 0 
L 628 0 
L 628 4666 
z
" transform="scale(0.015625)"/>
       <path id="DejaVuSans-66" d="M 2375 4863 
L 2375 4384 
L 1825 4384 
Q 1516 4384 1395 4259 
Q 1275 4134 1275 3809 
L 1275 3500 
L 2222 3500 
L 2222 3053 
L 1275 3053 
L 1275 0 
L 697 0 
L 697 3053 
L 147 3053 
L 147 3500 
L 697 3500 
L 697 3744 
Q 697 4328 969 4595 
Q 1241 4863 1831 4863 
L 2375 4863 
z
" transform="scale(0.015625)"/>
       <path id="DejaVuSans-48" d="M 628 4666 
L 1259 4666 
L 1259 2753 
L 3553 2753 
L 3553 4666 
L 4184 4666 
L 4184 0 
L 3553 0 
L 3553 2222 
L 1259 2222 
L 1259 0 
L 628 0 
L 628 4666 
z
" transform="scale(0.015625)"/>
       <path id="DejaVuSans-61" d="M 2194 1759 
Q 1497 1759 1228 1600 
Q 959 1441 959 1056 
Q 959 750 1161 570 
Q 1363 391 1709 391 
Q 2188 391 2477 730 
Q 2766 1069 2766 1631 
L 2766 1759 
L 2194 1759 
z
M 3341 1997 
L 3341 0 
L 2766 0 
L 2766 531 
Q 2569 213 2275 61 
Q 1981 -91 1556 -91 
Q 1019 -91 701 211 
Q 384 513 384 1019 
Q 384 1609 779 1909 
Q 1175 2209 1959 2209 
L 2766 2209 
L 2766 2266 
Q 2766 2663 2505 2880 
Q 2244 3097 1772 3097 
Q 1472 3097 1187 3025 
Q 903 2953 641 2809 
L 641 3341 
Q 956 3463 1253 3523 
Q 1550 3584 1831 3584 
Q 2591 3584 2966 3190 
Q 3341 2797 3341 1997 
z
" transform="scale(0.015625)"/>
       <path id="DejaVuSans-67" d="M 2906 1791 
Q 2906 2416 2648 2759 
Q 2391 3103 1925 3103 
Q 1463 3103 1205 2759 
Q 947 2416 947 1791 
Q 947 1169 1205 825 
Q 1463 481 1925 481 
Q 2391 481 2648 825 
Q 2906 1169 2906 1791 
z
M 3481 434 
Q 3481 -459 3084 -895 
Q 2688 -1331 1869 -1331 
Q 1566 -1331 1297 -1286 
Q 1028 -1241 775 -1147 
L 775 -588 
Q 1028 -725 1275 -790 
Q 1522 -856 1778 -856 
Q 2344 -856 2625 -561 
Q 2906 -266 2906 331 
L 2906 616 
Q 2728 306 2450 153 
Q 2172 0 1784 0 
Q 1141 0 747 490 
Q 353 981 353 1791 
Q 353 2603 747 3093 
Q 1141 3584 1784 3584 
Q 2172 3584 2450 3431 
Q 2728 3278 2906 2969 
L 2906 3500 
L 3481 3500 
L 3481 434 
z
" transform="scale(0.015625)"/>
       <path id="DejaVuSans-78" d="M 3513 3500 
L 2247 1797 
L 3578 0 
L 2900 0 
L 1881 1375 
L 863 0 
L 184 0 
L 1544 1831 
L 300 3500 
L 978 3500 
L 1906 2253 
L 2834 3500 
L 3513 3500 
z
" transform="scale(0.015625)"/>
       <path id="DejaVuSans-62" d="M 3116 1747 
Q 3116 2381 2855 2742 
Q 2594 3103 2138 3103 
Q 1681 3103 1420 2742 
Q 1159 2381 1159 1747 
Q 1159 1113 1420 752 
Q 1681 391 2138 391 
Q 2594 391 2855 752 
Q 3116 1113 3116 1747 
z
M 1159 2969 
Q 1341 3281 1617 3432 
Q 1894 3584 2278 3584 
Q 2916 3584 3314 3078 
Q 3713 2572 3713 1747 
Q 3713 922 3314 415 
Q 2916 -91 2278 -91 
Q 1894 -91 1617 61 
Q 1341 213 1159 525 
L 1159 0 
L 581 0 
L 581 4863 
L 1159 4863 
L 1159 2969 
z
" transform="scale(0.015625)"/>
       <path id="DejaVuSans-29" d="M 513 4856 
L 1013 4856 
Q 1481 4119 1714 3412 
Q 1947 2706 1947 2009 
Q 1947 1309 1714 600 
Q 1481 -109 1013 -844 
L 513 -844 
Q 928 -128 1133 580 
Q 1338 1288 1338 2009 
Q 1338 2731 1133 3434 
Q 928 4138 513 4856 
z
" transform="scale(0.015625)"/>
      </defs>
      <use xlink:href="#DejaVuSans-28"/>
      <use xlink:href="#DejaVuSans-41" x="39.013672"/>
      <use xlink:href="#DejaVuSans-6c" x="107.421875"/>
      <use xlink:href="#DejaVuSans-6c" x="135.205078"/>
      <use xlink:href="#DejaVuSans-20" x="162.988281"/>
      <use xlink:href="#DejaVuSans-4d" x="194.775391"/>
      <use xlink:href="#DejaVuSans-65" x="281.054688"/>
      <use xlink:href="#DejaVuSans-74" x="342.578125"/>
      <use xlink:href="#DejaVuSans-68" x="381.787109"/>
      <use xlink:href="#DejaVuSans-6f" x="445.166016"/>
      <use xlink:href="#DejaVuSans-64" x="506.347656"/>
      <use xlink:href="#DejaVuSans-73" x="569.824219"/>
      <use xlink:href="#DejaVuSans-20" x="621.923828"/>
      <use xlink:href="#DejaVuSans-6f" x="653.710938"/>
      <use xlink:href="#DejaVuSans-66" x="714.892578"/>
      <use xlink:href="#DejaVuSans-20" x="750.097656"/>
      <use xlink:href="#DejaVuSans-54" x="781.884766"/>
      <use xlink:href="#DejaVuSans-68" x="842.96875"/>
      <use xlink:href="#DejaVuSans-72" x="906.347656"/>
      <use xlink:href="#DejaVuSans-65" x="945.210938"/>
      <use xlink:href="#DejaVuSans-73" x="1006.734375"/>
      <use xlink:href="#DejaVuSans-68" x="1058.833984"/>
      <use xlink:href="#DejaVuSans-6f" x="1122.212891"/>
      <use xlink:href="#DejaVuSans-6c" x="1183.394531"/>
      <use xlink:href="#DejaVuSans-64" x="1211.177734"/>
      <use xlink:href="#DejaVuSans-20" x="1274.654297"/>
      <use xlink:href="#DejaVuSans-48" x="1306.441406"/>
      <use xlink:href="#DejaVuSans-61" x="1381.636719"/>
      <use xlink:href="#DejaVuSans-6e" x="1442.916016"/>
      <use xlink:href="#DejaVuSans-64" x="1506.294922"/>
      <use xlink:href="#DejaVuSans-6c" x="1569.771484"/>
      <use xlink:href="#DejaVuSans-69" x="1597.554688"/>
      <use xlink:href="#DejaVuSans-6e" x="1625.337891"/>
      <use xlink:href="#DejaVuSans-67" x="1688.716797"/>
      <use xlink:href="#DejaVuSans-20" x="1752.193359"/>
      <use xlink:href="#DejaVuSans-66" x="1783.980469"/>
      <use xlink:href="#DejaVuSans-6f" x="1819.185547"/>
      <use xlink:href="#DejaVuSans-72" x="1880.367188"/>
      <use xlink:href="#DejaVuSans-20" x="1921.480469"/>
      <use xlink:href="#DejaVuSans-78" x="1953.267578"/>
      <use xlink:href="#DejaVuSans-67" x="2012.447266"/>
      <use xlink:href="#DejaVuSans-62" x="2075.923828"/>
      <use xlink:href="#DejaVuSans-20" x="2139.400391"/>
      <use xlink:href="#DejaVuSans-4d" x="2171.1875"/>
      <use xlink:href="#DejaVuSans-6f" x="2257.466797"/>
      <use xlink:href="#DejaVuSans-64" x="2318.648438"/>
      <use xlink:href="#DejaVuSans-65" x="2382.125"/>
      <use xlink:href="#DejaVuSans-6c" x="2443.648438"/>
      <use xlink:href="#DejaVuSans-29" x="2471.431641"/>
     </g>
    </g>
   </g>
   <g id="matplotlib.axis_2">
    <g id="ytick_1">
     <g id="line2d_6">
      <defs>
       <path id="m977c461f94" d="M 0 0 
L -3.5 0 
" style="stroke: #000000; stroke-width: 0.8"/>
      </defs>
      <g>
       <use xlink:href="#m977c461f94" x="73.91" y="482.979354" style="stroke: #000000; stroke-width: 0.8"/>
      </g>
     </g>
     <g id="text_7">
      <!-- 0.0 -->
      <g transform="translate(35.10375 490.577791) scale(0.2 -0.2)">
       <defs>
        <path id="DejaVuSans-2e" d="M 684 794 
L 1344 794 
L 1344 0 
L 684 0 
L 684 794 
z
" transform="scale(0.015625)"/>
       </defs>
       <use xlink:href="#DejaVuSans-30"/>
       <use xlink:href="#DejaVuSans-2e" x="63.623047"/>
       <use xlink:href="#DejaVuSans-30" x="95.410156"/>
      </g>
     </g>
    </g>
    <g id="ytick_2">
     <g id="line2d_7">
      <g>
       <use xlink:href="#m977c461f94" x="73.91" y="391.552708" style="stroke: #000000; stroke-width: 0.8"/>
      </g>
     </g>
     <g id="text_8">
      <!-- 0.2 -->
      <g transform="translate(35.10375 399.151146) scale(0.2 -0.2)">
       <use xlink:href="#DejaVuSans-30"/>
       <use xlink:href="#DejaVuSans-2e" x="63.623047"/>
       <use xlink:href="#DejaVuSans-32" x="95.410156"/>
      </g>
     </g>
    </g>
    <g id="ytick_3">
     <g id="line2d_8">
      <g>
       <use xlink:href="#m977c461f94" x="73.91" y="300.126063" style="stroke: #000000; stroke-width: 0.8"/>
      </g>
     </g>
     <g id="text_9">
      <!-- 0.4 -->
      <g transform="translate(35.10375 307.7245) scale(0.2 -0.2)">
       <use xlink:href="#DejaVuSans-30"/>
       <use xlink:href="#DejaVuSans-2e" x="63.623047"/>
       <use xlink:href="#DejaVuSans-34" x="95.410156"/>
      </g>
     </g>
    </g>
    <g id="ytick_4">
     <g id="line2d_9">
      <g>
       <use xlink:href="#m977c461f94" x="73.91" y="208.699417" style="stroke: #000000; stroke-width: 0.8"/>
      </g>
     </g>
     <g id="text_10">
      <!-- 0.6 -->
      <g transform="translate(35.10375 216.297854) scale(0.2 -0.2)">
       <use xlink:href="#DejaVuSans-30"/>
       <use xlink:href="#DejaVuSans-2e" x="63.623047"/>
       <use xlink:href="#DejaVuSans-36" x="95.410156"/>
      </g>
     </g>
    </g>
    <g id="ytick_5">
     <g id="line2d_10">
      <g>
       <use xlink:href="#m977c461f94" x="73.91" y="117.272771" style="stroke: #000000; stroke-width: 0.8"/>
      </g>
     </g>
     <g id="text_11">
      <!-- 0.8 -->
      <g transform="translate(35.10375 124.871209) scale(0.2 -0.2)">
       <use xlink:href="#DejaVuSans-30"/>
       <use xlink:href="#DejaVuSans-2e" x="63.623047"/>
       <use xlink:href="#DejaVuSans-38" x="95.410156"/>
      </g>
     </g>
    </g>
    <g id="ytick_6">
     <g id="line2d_11">
      <g>
       <use xlink:href="#m977c461f94" x="73.91" y="25.846126" style="stroke: #000000; stroke-width: 0.8"/>
      </g>
     </g>
     <g id="text_12">
      <!-- 1.0 -->
      <g transform="translate(35.10375 33.444563) scale(0.2 -0.2)">
       <defs>
        <path id="DejaVuSans-31" d="M 794 531 
L 1825 531 
L 1825 4091 
L 703 3866 
L 703 4441 
L 1819 4666 
L 2450 4666 
L 2450 531 
L 3481 531 
L 3481 0 
L 794 0 
L 794 531 
z
" transform="scale(0.015625)"/>
       </defs>
       <use xlink:href="#DejaVuSans-31"/>
       <use xlink:href="#DejaVuSans-2e" x="63.623047"/>
       <use xlink:href="#DejaVuSans-30" x="95.410156"/>
      </g>
     </g>
    </g>
    <g id="text_13">
     <!-- R^2 -->
     <g transform="translate(26.944375 272.366625) rotate(-90) scale(0.2 -0.2)">
      <defs>
       <path id="DejaVuSans-52" d="M 2841 2188 
Q 3044 2119 3236 1894 
Q 3428 1669 3622 1275 
L 4263 0 
L 3584 0 
L 2988 1197 
Q 2756 1666 2539 1819 
Q 2322 1972 1947 1972 
L 1259 1972 
L 1259 0 
L 628 0 
L 628 4666 
L 2053 4666 
Q 2853 4666 3247 4331 
Q 3641 3997 3641 3322 
Q 3641 2881 3436 2590 
Q 3231 2300 2841 2188 
z
M 1259 4147 
L 1259 2491 
L 2053 2491 
Q 2509 2491 2742 2702 
Q 2975 2913 2975 3322 
Q 2975 3731 2742 3939 
Q 2509 4147 2053 4147 
L 1259 4147 
z
" transform="scale(0.015625)"/>
       <path id="DejaVuSans-5e" d="M 2988 4666 
L 4684 2925 
L 4056 2925 
L 2681 4159 
L 1306 2925 
L 678 2925 
L 2375 4666 
L 2988 4666 
z
" transform="scale(0.015625)"/>
      </defs>
      <use xlink:href="#DejaVuSans-52"/>
      <use xlink:href="#DejaVuSans-5e" x="69.482422"/>
      <use xlink:href="#DejaVuSans-32" x="153.271484"/>
     </g>
    </g>
   </g>
   <g id="line2d_12">
    <path d="M 122.423182 34.609572 
L 143.067089 36.476869 
L 163.710996 38.453246 
L 184.354903 40.8754 
L 204.99881 41.073876 
L 225.642718 43.870367 
L 246.286625 43.322276 
L 266.930532 47.208306 
L 287.574439 51.748203 
L 308.218346 55.719093 
L 328.862253 49.972677 
L 349.506161 52.501105 
L 370.150068 56.305234 
L 390.793975 65.694638 
L 411.437882 58.565046 
L 432.081789 58.975258 
L 452.725696 57.133862 
L 473.369603 60.754956 
L 494.013511 60.754956 
L 514.657418 59.398695 
L 535.301325 59.398695 
L 555.945232 59.398695 
L 576.589139 59.012061 
L 597.233046 57.545389 
L 617.876954 62.259159 
L 638.520861 61.223603 
L 659.164768 63.198771 
L 679.808675 85.626295 
L 700.452582 85.804017 
L 721.096489 87.220471 
L 741.740397 87.217544 
L 762.384304 86.538305 
L 783.028211 87.563243 
L 803.672118 127.538079 
L 824.316025 140.737616 
L 844.959932 154.306754 
L 865.603839 171.96719 
L 886.247747 110.363215 
L 906.891654 134.612114 
L 927.535561 136.281416 
" clip-path="url(#pb1372377b5)" style="fill: none; stroke: #1f77b4; stroke-width: 1.5; stroke-linecap: square"/>
   </g>
   <g id="line2d_13">
    <path d="M 122.423182 34.233879 
L 143.067089 35.453718 
L 163.710996 36.79733 
L 184.354903 38.132917 
L 204.99881 39.750952 
L 225.642718 44.956003 
L 246.286625 45.70787 
L 266.930532 50.226113 
L 287.574439 52.40069 
L 308.218346 59.470133 
L 328.862253 60.484503 
L 349.506161 64.658822 
L 370.150068 65.999434 
L 390.793975 63.720349 
L 411.437882 68.392603 
L 432.081789 72.17012 
L 452.725696 75.152727 
L 473.369603 80.259501 
L 494.013511 80.299939 
L 514.657418 86.79322 
L 535.301325 80.751516 
L 555.945232 81.000095 
L 576.589139 83.496646 
L 597.233046 92.099589 
L 617.876954 98.315552 
L 638.520861 106.040712 
L 659.164768 136.315621 
L 679.808675 105.599463 
L 700.452582 115.971321 
L 721.096489 105.864137 
L 741.740397 108.547658 
L 762.384304 112.65918 
L 783.028211 129.831916 
L 803.672118 128.259129 
L 824.316025 162.71603 
L 844.959932 191.612586 
L 865.603839 182.80067 
L 886.247747 222.905406 
L 906.891654 202.842136 
L 927.535561 201.159148 
L 948.179468 220.565655 
L 968.823375 429.320252 
L 989.467282 468.745091 
" clip-path="url(#pb1372377b5)" style="fill: none; stroke: #ff7f0e; stroke-width: 1.5; stroke-linecap: square"/>
   </g>
   <g id="line2d_14">
    <path d="M 122.423182 33.959496 
L 143.067089 33.503762 
L 163.710996 33.253145 
L 184.354903 33.765649 
L 204.99881 33.92428 
L 225.642718 34.903288 
L 246.286625 34.01497 
L 266.930532 34.286911 
L 287.574439 34.216591 
L 308.218346 33.946078 
L 328.862253 34.602136 
L 349.506161 34.069021 
L 370.150068 34.727234 
L 390.793975 33.798943 
L 411.437882 33.646602 
L 432.081789 34.17155 
L 452.725696 34.217598 
L 473.369603 34.348647 
L 494.013511 34.168507 
L 514.657418 34.112212 
L 535.301325 34.181739 
L 555.945232 34.181739 
L 576.589139 34.22073 
L 597.233046 34.219478 
L 617.876954 34.194471 
L 638.520861 34.225542 
L 659.164768 34.499306 
L 679.808675 33.981657 
L 700.452582 34.524416 
L 721.096489 34.524416 
L 741.740397 34.58307 
L 762.384304 34.57882 
L 783.028211 34.973587 
L 803.672118 34.980461 
L 824.316025 34.915041 
L 844.959932 35.047968 
L 865.603839 34.680854 
L 886.247747 34.422461 
L 906.891654 34.704449 
L 927.535561 34.345364 
L 948.179468 34.440423 
L 968.823375 33.757935 
L 989.467282 33.904993 
L 1010.11119 34.250768 
L 1030.755097 34.300975 
L 1051.399004 34.233175 
L 1072.042911 34.233175 
L 1092.686818 34.283578 
" clip-path="url(#pb1372377b5)" style="fill: none; stroke: #2ca02c; stroke-width: 1.5; stroke-linecap: square"/>
   </g>
   <g id="line2d_15">
    <path d="M 122.423182 34.167911 
L 143.067089 34.305317 
L 163.710996 34.556766 
L 184.354903 34.107325 
L 204.99881 34.148485 
L 225.642718 34.738576 
L 246.286625 34.730747 
L 266.930532 34.749777 
L 287.574439 34.823959 
L 308.218346 35.262347 
L 328.862253 35.75964 
L 349.506161 34.938139 
L 370.150068 35.629163 
L 390.793975 34.889518 
L 411.437882 35.390795 
L 432.081789 35.333999 
L 452.725696 35.188294 
L 473.369603 35.090019 
L 494.013511 35.232726 
L 514.657418 35.255226 
L 535.301325 36.537473 
L 555.945232 35.283987 
L 576.589139 34.536202 
L 597.233046 35.259674 
L 617.876954 35.693653 
L 638.520861 35.354148 
L 659.164768 35.169646 
L 679.808675 35.444629 
L 700.452582 35.098547 
L 721.096489 35.954564 
L 741.740397 35.335658 
L 762.384304 35.406836 
L 783.028211 35.364687 
L 803.672118 35.074517 
L 824.316025 36.213601 
L 844.959932 35.737421 
L 865.603839 35.498703 
L 886.247747 35.184673 
L 906.891654 34.95127 
L 927.535561 35.464888 
L 948.179468 36.368002 
L 968.823375 35.366706 
L 989.467282 35.856138 
L 1010.11119 36.002216 
L 1030.755097 36.033104 
L 1051.399004 36.433736 
L 1072.042911 35.553159 
L 1092.686818 35.143174 
" clip-path="url(#pb1372377b5)" style="fill: none; stroke: #d62728; stroke-width: 1.5; stroke-linecap: square"/>
   </g>
   <g id="line2d_16"/>
   <g id="line2d_17"/>
   <g id="line2d_18"/>
   <g id="line2d_19"/>
   <g id="patch_3">
    <path d="M 73.91 490.552 
L 73.91 10.8 
" style="fill: none; stroke: #000000; stroke-width: 0.8; stroke-linejoin: miter; stroke-linecap: square"/>
   </g>
   <g id="patch_4">
    <path d="M 1141.2 490.552 
L 1141.2 10.8 
" style="fill: none; stroke: #000000; stroke-width: 0.8; stroke-linejoin: miter; stroke-linecap: square"/>
   </g>
   <g id="patch_5">
    <path d="M 73.91 490.552 
L 1141.2 490.552 
" style="fill: none; stroke: #000000; stroke-width: 0.8; stroke-linejoin: miter; stroke-linecap: square"/>
   </g>
   <g id="patch_6">
    <path d="M 73.91 10.8 
L 1141.2 10.8 
" style="fill: none; stroke: #000000; stroke-width: 0.8; stroke-linejoin: miter; stroke-linecap: square"/>
   </g>
   <g id="legend_1">
    <g id="patch_7">
     <path d="M 85.11 482.552 
L 224.545 482.552 
Q 227.745 482.552 227.745 479.352 
L 227.745 386.122 
Q 227.745 382.922 224.545 382.922 
L 85.11 382.922 
Q 81.91 382.922 81.91 386.122 
L 81.91 479.352 
Q 81.91 482.552 85.11 482.552 
z
" style="fill: #ffffff; opacity: 0.8; stroke: #cccccc; stroke-linejoin: miter"/>
    </g>
    <g id="line2d_20">
     <path d="M 88.31 395.8795 
L 104.31 395.8795 
L 120.31 395.8795 
" style="fill: none; stroke: #1f77b4; stroke-width: 1.5; stroke-linecap: square"/>
    </g>
    <g id="text_14">
     <!-- leave_out -->
     <g transform="translate(133.11 401.4795) scale(0.16 -0.16)">
      <defs>
       <path id="DejaVuSans-76" d="M 191 3500 
L 800 3500 
L 1894 563 
L 2988 3500 
L 3597 3500 
L 2284 0 
L 1503 0 
L 191 3500 
z
" transform="scale(0.015625)"/>
       <path id="DejaVuSans-5f" d="M 3263 -1063 
L 3263 -1509 
L -63 -1509 
L -63 -1063 
L 3263 -1063 
z
" transform="scale(0.015625)"/>
       <path id="DejaVuSans-75" d="M 544 1381 
L 544 3500 
L 1119 3500 
L 1119 1403 
Q 1119 906 1312 657 
Q 1506 409 1894 409 
Q 2359 409 2629 706 
Q 2900 1003 2900 1516 
L 2900 3500 
L 3475 3500 
L 3475 0 
L 2900 0 
L 2900 538 
Q 2691 219 2414 64 
Q 2138 -91 1772 -91 
Q 1169 -91 856 284 
Q 544 659 544 1381 
z
M 1991 3584 
L 1991 3584 
z
" transform="scale(0.015625)"/>
      </defs>
      <use xlink:href="#DejaVuSans-6c"/>
      <use xlink:href="#DejaVuSans-65" x="27.783203"/>
      <use xlink:href="#DejaVuSans-61" x="89.306641"/>
      <use xlink:href="#DejaVuSans-76" x="150.585938"/>
      <use xlink:href="#DejaVuSans-65" x="209.765625"/>
      <use xlink:href="#DejaVuSans-5f" x="271.289062"/>
      <use xlink:href="#DejaVuSans-6f" x="321.289062"/>
      <use xlink:href="#DejaVuSans-75" x="382.470703"/>
      <use xlink:href="#DejaVuSans-74" x="445.849609"/>
     </g>
    </g>
    <g id="line2d_21">
     <path d="M 88.31 419.8095 
L 104.31 419.8095 
L 120.31 419.8095 
" style="fill: none; stroke: #ff7f0e; stroke-width: 1.5; stroke-linecap: square"/>
    </g>
    <g id="text_15">
     <!-- merge -->
     <g transform="translate(133.11 425.4095) scale(0.16 -0.16)">
      <defs>
       <path id="DejaVuSans-6d" d="M 3328 2828 
Q 3544 3216 3844 3400 
Q 4144 3584 4550 3584 
Q 5097 3584 5394 3201 
Q 5691 2819 5691 2113 
L 5691 0 
L 5113 0 
L 5113 2094 
Q 5113 2597 4934 2840 
Q 4756 3084 4391 3084 
Q 3944 3084 3684 2787 
Q 3425 2491 3425 1978 
L 3425 0 
L 2847 0 
L 2847 2094 
Q 2847 2600 2669 2842 
Q 2491 3084 2119 3084 
Q 1678 3084 1418 2786 
Q 1159 2488 1159 1978 
L 1159 0 
L 581 0 
L 581 3500 
L 1159 3500 
L 1159 2956 
Q 1356 3278 1631 3431 
Q 1906 3584 2284 3584 
Q 2666 3584 2933 3390 
Q 3200 3197 3328 2828 
z
" transform="scale(0.015625)"/>
      </defs>
      <use xlink:href="#DejaVuSans-6d"/>
      <use xlink:href="#DejaVuSans-65" x="97.412109"/>
      <use xlink:href="#DejaVuSans-72" x="158.935547"/>
      <use xlink:href="#DejaVuSans-67" x="198.298828"/>
      <use xlink:href="#DejaVuSans-65" x="261.775391"/>
     </g>
    </g>
    <g id="line2d_22">
     <path d="M 88.31 443.2945 
L 104.31 443.2945 
L 120.31 443.2945 
" style="fill: none; stroke: #2ca02c; stroke-width: 1.5; stroke-linecap: square"/>
    </g>
    <g id="text_16">
     <!-- max_mean -->
     <g transform="translate(133.11 448.8945) scale(0.16 -0.16)">
      <use xlink:href="#DejaVuSans-6d"/>
      <use xlink:href="#DejaVuSans-61" x="97.412109"/>
      <use xlink:href="#DejaVuSans-78" x="158.691406"/>
      <use xlink:href="#DejaVuSans-5f" x="217.871094"/>
      <use xlink:href="#DejaVuSans-6d" x="267.871094"/>
      <use xlink:href="#DejaVuSans-65" x="365.283203"/>
      <use xlink:href="#DejaVuSans-61" x="426.806641"/>
      <use xlink:href="#DejaVuSans-6e" x="488.085938"/>
     </g>
    </g>
    <g id="line2d_23">
     <path d="M 88.31 467.2245 
L 104.31 467.2245 
L 120.31 467.2245 
" style="fill: none; stroke: #d62728; stroke-width: 1.5; stroke-linecap: square"/>
    </g>
    <g id="text_17">
     <!-- random -->
     <g transform="translate(133.11 472.8245) scale(0.16 -0.16)">
      <use xlink:href="#DejaVuSans-72"/>
      <use xlink:href="#DejaVuSans-61" x="41.113281"/>
      <use xlink:href="#DejaVuSans-6e" x="102.392578"/>
      <use xlink:href="#DejaVuSans-64" x="165.771484"/>
      <use xlink:href="#DejaVuSans-6f" x="229.248047"/>
      <use xlink:href="#DejaVuSans-6d" x="290.429688"/>
     </g>
    </g>
   </g>
  </g>
 </g>
 <defs>
  <clipPath id="pb1372377b5">
   <rect x="73.91" y="10.8" width="1067.29" height="479.752"/>
  </clipPath>
 </defs>
</svg>
