<?xml version="1.0" encoding="utf-8" standalone="no"?>
<!DOCTYPE svg PUBLIC "-//W3C//DTD SVG 1.1//EN"
  "http://www.w3.org/Graphics/SVG/1.1/DTD/svg11.dtd">
<svg xmlns:xlink="http://www.w3.org/1999/xlink" width="1152pt" height="576pt" viewBox="0 0 1152 576" xmlns="http://www.w3.org/2000/svg" version="1.1">
 <metadata>
  <rdf:RDF xmlns:dc="http://purl.org/dc/elements/1.1/" xmlns:cc="http://creativecommons.org/ns#" xmlns:rdf="http://www.w3.org/1999/02/22-rdf-syntax-ns#">
   <cc:Work>
    <dc:type rdf:resource="http://purl.org/dc/dcmitype/StillImage"/>
    <dc:date>2025-04-17T01:38:37.225925</dc:date>
    <dc:format>image/svg+xml</dc:format>
    <dc:creator>
     <cc:Agent>
      <dc:title>Matplotlib v3.9.2, https://matplotlib.org/</dc:title>
     </cc:Agent>
    </dc:creator>
   </cc:Work>
  </rdf:RDF>
 </metadata>
 <defs>
  <style type="text/css">*{stroke-linejoin: round; stroke-linecap: butt}</style>
 </defs>
 <g id="figure_1">
  <g id="patch_1">
   <path d="M 0 576 
L 1152 576 
L 1152 0 
L 0 0 
z
" style="fill: #ffffff"/>
  </g>
  <g id="axes_1">
   <g id="patch_2">
    <path d="M 73.91 490.552 
L 1141.2 490.552 
L 1141.2 12.339241 
L 73.91 12.339241 
z
" style="fill: #ffffff"/>
   </g>
   <g id="PolyCollection_1">
    <defs>
     <path id="m05554ac907" d="M 122.423182 -541.68231 
L 122.423182 -539.817625 
L 143.067089 -534.938298 
L 163.710996 -530.796418 
L 184.354903 -528.893194 
L 204.99881 -521.362948 
L 225.642718 -519.360754 
L 246.286625 -515.000208 
L 266.930532 -505.027798 
L 287.574439 -499.726817 
L 308.218346 -495.402136 
L 328.862253 -494.80534 
L 349.506161 -494.583732 
L 370.150068 -494.973158 
L 390.793975 -490.955643 
L 411.437882 -494.98521 
L 432.081789 -495.068666 
L 452.725696 -487.62776 
L 473.369603 -485.328005 
L 494.013511 -486.163565 
L 514.657418 -471.779893 
L 535.301325 -472.995857 
L 555.945232 -467.033888 
L 576.589139 -473.943848 
L 597.233046 -444.459078 
L 617.876954 -435.755522 
L 638.520861 -408.27284 
L 659.164768 -423.065275 
L 659.164768 -454.822589 
L 659.164768 -454.822589 
L 638.520861 -452.477862 
L 617.876954 -460.599712 
L 597.233046 -479.871351 
L 576.589139 -483.367047 
L 555.945232 -498.699418 
L 535.301325 -493.893868 
L 514.657418 -502.436508 
L 494.013511 -508.66429 
L 473.369603 -507.379677 
L 452.725696 -509.778447 
L 432.081789 -511.747453 
L 411.437882 -514.52874 
L 390.793975 -513.312827 
L 370.150068 -510.574796 
L 349.506161 -512.114274 
L 328.862253 -512.661789 
L 308.218346 -518.044564 
L 287.574439 -519.087049 
L 266.930532 -521.782429 
L 246.286625 -528.437781 
L 225.642718 -530.085943 
L 204.99881 -530.82389 
L 184.354903 -533.393013 
L 163.710996 -536.716154 
L 143.067089 -537.5044 
L 122.423182 -541.68231 
z
" style="stroke: #1f77b4; stroke-opacity: 0.2"/>
    </defs>
    <g clip-path="url(#pc9baa4193d)">
     <use xlink:href="#m05554ac907" x="0" y="576" style="fill: #1f77b4; fill-opacity: 0.2; stroke: #1f77b4; stroke-opacity: 0.2"/>
    </g>
   </g>
   <g id="PolyCollection_2">
    <defs>
     <path id="m42cdd90d10" d="M 122.423182 -540.663851 
L 122.423182 -538.155327 
L 143.067089 -536.735745 
L 163.710996 -534.108556 
L 184.354903 -529.800362 
L 204.99881 -528.047314 
L 225.642718 -524.100771 
L 246.286625 -524.269826 
L 266.930532 -517.295099 
L 287.574439 -479.601397 
L 308.218346 -487.494235 
L 328.862253 -477.413544 
L 349.506161 -468.819656 
L 370.150068 -464.188301 
L 390.793975 -462.307205 
L 411.437882 -457.231491 
L 432.081789 -453.840441 
L 452.725696 -478.334435 
L 473.369603 -454.567346 
L 494.013511 -443.17346 
L 514.657418 -446.872985 
L 535.301325 -432.315058 
L 555.945232 -401.313473 
L 576.589139 -410.102191 
L 597.233046 -366.099727 
L 617.876954 -289.665296 
L 638.520861 -234.776685 
L 659.164768 -296.096751 
L 679.808675 -107.540613 
L 679.808675 -325.315705 
L 679.808675 -325.315705 
L 659.164768 -366.426683 
L 638.520861 -350.656275 
L 617.876954 -403.688022 
L 597.233046 -422.083636 
L 576.589139 -452.167782 
L 555.945232 -451.647356 
L 535.301325 -455.515409 
L 514.657418 -468.040178 
L 494.013511 -476.425954 
L 473.369603 -474.295198 
L 452.725696 -490.361977 
L 432.081789 -488.485223 
L 411.437882 -489.939867 
L 390.793975 -499.382423 
L 370.150068 -500.197401 
L 349.506161 -504.106949 
L 328.862253 -503.285524 
L 308.218346 -510.843684 
L 287.574439 -514.704485 
L 266.930532 -525.788195 
L 246.286625 -529.328206 
L 225.642718 -530.924915 
L 204.99881 -532.037817 
L 184.354903 -533.946659 
L 163.710996 -537.115366 
L 143.067089 -539.547073 
L 122.423182 -540.663851 
z
" style="stroke: #ff7f0e; stroke-opacity: 0.2"/>
    </defs>
    <g clip-path="url(#pc9baa4193d)">
     <use xlink:href="#m42cdd90d10" x="0" y="576" style="fill: #ff7f0e; fill-opacity: 0.2; stroke: #ff7f0e; stroke-opacity: 0.2"/>
    </g>
   </g>
   <g id="PolyCollection_3">
    <defs>
     <path id="me34f471976" d="M 122.423182 -541.497105 
L 122.423182 -540.270406 
L 143.067089 -539.936853 
L 163.710996 -540.603835 
L 184.354903 -539.171318 
L 204.99881 -539.592239 
L 225.642718 -539.81442 
L 246.286625 -539.788708 
L 266.930532 -539.71946 
L 287.574439 -539.47707 
L 308.218346 -539.891252 
L 328.862253 -538.769979 
L 349.506161 -539.790048 
L 370.150068 -539.799282 
L 390.793975 -539.126699 
L 411.437882 -539.251927 
L 432.081789 -540.012108 
L 452.725696 -539.704749 
L 473.369603 -538.89663 
L 494.013511 -539.065055 
L 514.657418 -539.97587 
L 535.301325 -539.853431 
L 555.945232 -539.552481 
L 576.589139 -538.456705 
L 597.233046 -538.71725 
L 617.876954 -540.217232 
L 638.520861 -540.776182 
L 659.164768 -538.806322 
L 679.808675 -539.291964 
L 700.452582 -538.960203 
L 721.096489 -539.260711 
L 741.740397 -539.422112 
L 762.384304 -539.634364 
L 783.028211 -539.748553 
L 803.672118 -539.578581 
L 824.316025 -539.405301 
L 844.959932 -539.336299 
L 865.603839 -539.497653 
L 886.247747 -538.49497 
L 906.891654 -538.976507 
L 927.535561 -539.062387 
L 948.179468 -539.048774 
L 968.823375 -539.267467 
L 989.467282 -539.133873 
L 1010.11119 -539.327975 
L 1030.755097 -539.781482 
L 1051.399004 -538.808752 
L 1072.042911 -539.144621 
L 1092.686818 -539.270538 
L 1092.686818 -541.183688 
L 1092.686818 -541.183688 
L 1072.042911 -541.343409 
L 1051.399004 -541.077203 
L 1030.755097 -541.641998 
L 1010.11119 -540.89512 
L 989.467282 -540.399522 
L 968.823375 -541.040395 
L 948.179468 -541.178901 
L 927.535561 -541.365637 
L 906.891654 -540.805684 
L 886.247747 -540.813456 
L 865.603839 -540.786472 
L 844.959932 -540.669943 
L 824.316025 -540.911753 
L 803.672118 -541.265423 
L 783.028211 -541.443035 
L 762.384304 -540.957342 
L 741.740397 -540.97863 
L 721.096489 -540.184194 
L 700.452582 -540.323704 
L 679.808675 -540.593756 
L 659.164768 -540.93184 
L 638.520861 -541.442361 
L 617.876954 -541.923815 
L 597.233046 -540.945644 
L 576.589139 -541.030818 
L 555.945232 -540.36509 
L 535.301325 -541.286618 
L 514.657418 -540.964334 
L 494.013511 -540.456111 
L 473.369603 -541.337009 
L 452.725696 -540.517902 
L 432.081789 -541.016758 
L 411.437882 -541.09367 
L 390.793975 -540.500542 
L 370.150068 -540.970071 
L 349.506161 -541.450681 
L 328.862253 -540.427203 
L 308.218346 -541.512712 
L 287.574439 -541.121948 
L 266.930532 -540.97186 
L 246.286625 -541.17386 
L 225.642718 -541.082977 
L 204.99881 -541.42012 
L 184.354903 -540.997369 
L 163.710996 -541.200372 
L 143.067089 -541.000687 
L 122.423182 -541.497105 
z
" style="stroke: #2ca02c; stroke-opacity: 0.2"/>
    </defs>
    <g clip-path="url(#pc9baa4193d)">
     <use xlink:href="#me34f471976" x="0" y="576" style="fill: #2ca02c; fill-opacity: 0.2; stroke: #2ca02c; stroke-opacity: 0.2"/>
    </g>
   </g>
   <g id="PolyCollection_4">
    <defs>
     <path id="m177cd737a4" d="M 122.423182 -541.496371 
L 122.423182 -540.076675 
L 143.067089 -540.117231 
L 163.710996 -540.500982 
L 184.354903 -539.311732 
L 204.99881 -538.823652 
L 225.642718 -539.442993 
L 246.286625 -539.281972 
L 266.930532 -538.462913 
L 287.574439 -537.248186 
L 308.218346 -538.4276 
L 328.862253 -537.533908 
L 349.506161 -538.675024 
L 370.150068 -538.576242 
L 390.793975 -537.990667 
L 411.437882 -538.084941 
L 432.081789 -537.96614 
L 452.725696 -538.375954 
L 473.369603 -538.038916 
L 494.013511 -537.757676 
L 514.657418 -538.600013 
L 535.301325 -538.650381 
L 555.945232 -538.61526 
L 576.589139 -537.923672 
L 597.233046 -537.497494 
L 617.876954 -537.169725 
L 638.520861 -537.527795 
L 659.164768 -538.328787 
L 679.808675 -538.245879 
L 700.452582 -538.330156 
L 721.096489 -538.877424 
L 741.740397 -538.514804 
L 762.384304 -537.444348 
L 783.028211 -538.62626 
L 803.672118 -537.749696 
L 824.316025 -538.01249 
L 844.959932 -537.521079 
L 865.603839 -537.819246 
L 886.247747 -536.013084 
L 906.891654 -537.809225 
L 927.535561 -538.0884 
L 948.179468 -537.965902 
L 968.823375 -536.937024 
L 989.467282 -538.093632 
L 1010.11119 -537.810695 
L 1030.755097 -538.61917 
L 1051.399004 -537.722925 
L 1072.042911 -538.447035 
L 1092.686818 -535.930238 
L 1092.686818 -539.438689 
L 1092.686818 -539.438689 
L 1072.042911 -539.560347 
L 1051.399004 -540.369202 
L 1030.755097 -539.147016 
L 1010.11119 -540.115735 
L 989.467282 -539.473336 
L 968.823375 -538.382784 
L 948.179468 -539.726657 
L 927.535561 -540.166102 
L 906.891654 -540.01387 
L 886.247747 -538.704612 
L 865.603839 -538.851716 
L 844.959932 -538.831643 
L 824.316025 -540.084912 
L 803.672118 -539.653536 
L 783.028211 -540.153915 
L 762.384304 -539.844052 
L 741.740397 -539.054252 
L 721.096489 -539.80993 
L 700.452582 -539.536991 
L 679.808675 -539.132435 
L 659.164768 -539.438047 
L 638.520861 -539.678186 
L 617.876954 -538.797779 
L 597.233046 -539.873285 
L 576.589139 -539.16483 
L 555.945232 -539.726213 
L 535.301325 -539.453685 
L 514.657418 -540.089898 
L 494.013511 -539.436462 
L 473.369603 -539.388102 
L 452.725696 -539.091718 
L 432.081789 -540.034703 
L 411.437882 -539.747484 
L 390.793975 -539.550546 
L 370.150068 -539.598944 
L 349.506161 -540.461752 
L 328.862253 -539.727289 
L 308.218346 -540.287645 
L 287.574439 -539.519136 
L 266.930532 -540.076922 
L 246.286625 -540.519529 
L 225.642718 -540.518858 
L 204.99881 -540.735093 
L 184.354903 -540.677177 
L 163.710996 -541.083811 
L 143.067089 -541.316188 
L 122.423182 -541.496371 
z
" style="stroke: #d62728; stroke-opacity: 0.2"/>
    </defs>
    <g clip-path="url(#pc9baa4193d)">
     <use xlink:href="#m177cd737a4" x="0" y="576" style="fill: #d62728; fill-opacity: 0.2; stroke: #d62728; stroke-opacity: 0.2"/>
    </g>
   </g>
   <g id="matplotlib.axis_1">
    <g id="xtick_1">
     <g id="line2d_1">
      <defs>
       <path id="m1890e291ba" d="M 0 0 
L 0 3.5 
" style="stroke: #000000; stroke-width: 0.8"/>
      </defs>
      <g>
       <use xlink:href="#m1890e291ba" x="112.101228" y="490.552" style="stroke: #000000; stroke-width: 0.8"/>
      </g>
     </g>
     <g id="text_1">
      <!-- 0 -->
      <g transform="translate(105.738728 512.748875) scale(0.2 -0.2)">
       <defs>
        <path id="DejaVuSans-30" d="M 2034 4250 
Q 1547 4250 1301 3770 
Q 1056 3291 1056 2328 
Q 1056 1369 1301 889 
Q 1547 409 2034 409 
Q 2525 409 2770 889 
Q 3016 1369 3016 2328 
Q 3016 3291 2770 3770 
Q 2525 4250 2034 4250 
z
M 2034 4750 
Q 2819 4750 3233 4129 
Q 3647 3509 3647 2328 
Q 3647 1150 3233 529 
Q 2819 -91 2034 -91 
Q 1250 -91 836 529 
Q 422 1150 422 2328 
Q 422 3509 836 4129 
Q 1250 4750 2034 4750 
z
" transform="scale(0.015625)"/>
       </defs>
       <use xlink:href="#DejaVuSans-30"/>
      </g>
     </g>
    </g>
    <g id="xtick_2">
     <g id="line2d_2">
      <g>
       <use xlink:href="#m1890e291ba" x="318.5403" y="490.552" style="stroke: #000000; stroke-width: 0.8"/>
      </g>
     </g>
     <g id="text_2">
      <!-- 20 -->
      <g transform="translate(305.8153 512.748875) scale(0.2 -0.2)">
       <defs>
        <path id="DejaVuSans-32" d="M 1228 531 
L 3431 531 
L 3431 0 
L 469 0 
L 469 531 
Q 828 903 1448 1529 
Q 2069 2156 2228 2338 
Q 2531 2678 2651 2914 
Q 2772 3150 2772 3378 
Q 2772 3750 2511 3984 
Q 2250 4219 1831 4219 
Q 1534 4219 1204 4116 
Q 875 4013 500 3803 
L 500 4441 
Q 881 4594 1212 4672 
Q 1544 4750 1819 4750 
Q 2544 4750 2975 4387 
Q 3406 4025 3406 3419 
Q 3406 3131 3298 2873 
Q 3191 2616 2906 2266 
Q 2828 2175 2409 1742 
Q 1991 1309 1228 531 
z
" transform="scale(0.015625)"/>
       </defs>
       <use xlink:href="#DejaVuSans-32"/>
       <use xlink:href="#DejaVuSans-30" x="63.623047"/>
      </g>
     </g>
    </g>
    <g id="xtick_3">
     <g id="line2d_3">
      <g>
       <use xlink:href="#m1890e291ba" x="524.979371" y="490.552" style="stroke: #000000; stroke-width: 0.8"/>
      </g>
     </g>
     <g id="text_3">
      <!-- 40 -->
      <g transform="translate(512.254371 512.748875) scale(0.2 -0.2)">
       <defs>
        <path id="DejaVuSans-34" d="M 2419 4116 
L 825 1625 
L 2419 1625 
L 2419 4116 
z
M 2253 4666 
L 3047 4666 
L 3047 1625 
L 3713 1625 
L 3713 1100 
L 3047 1100 
L 3047 0 
L 2419 0 
L 2419 1100 
L 313 1100 
L 313 1709 
L 2253 4666 
z
" transform="scale(0.015625)"/>
       </defs>
       <use xlink:href="#DejaVuSans-34"/>
       <use xlink:href="#DejaVuSans-30" x="63.623047"/>
      </g>
     </g>
    </g>
    <g id="xtick_4">
     <g id="line2d_4">
      <g>
       <use xlink:href="#m1890e291ba" x="731.418443" y="490.552" style="stroke: #000000; stroke-width: 0.8"/>
      </g>
     </g>
     <g id="text_4">
      <!-- 60 -->
      <g transform="translate(718.693443 512.748875) scale(0.2 -0.2)">
       <defs>
        <path id="DejaVuSans-36" d="M 2113 2584 
Q 1688 2584 1439 2293 
Q 1191 2003 1191 1497 
Q 1191 994 1439 701 
Q 1688 409 2113 409 
Q 2538 409 2786 701 
Q 3034 994 3034 1497 
Q 3034 2003 2786 2293 
Q 2538 2584 2113 2584 
z
M 3366 4563 
L 3366 3988 
Q 3128 4100 2886 4159 
Q 2644 4219 2406 4219 
Q 1781 4219 1451 3797 
Q 1122 3375 1075 2522 
Q 1259 2794 1537 2939 
Q 1816 3084 2150 3084 
Q 2853 3084 3261 2657 
Q 3669 2231 3669 1497 
Q 3669 778 3244 343 
Q 2819 -91 2113 -91 
Q 1303 -91 875 529 
Q 447 1150 447 2328 
Q 447 3434 972 4092 
Q 1497 4750 2381 4750 
Q 2619 4750 2861 4703 
Q 3103 4656 3366 4563 
z
" transform="scale(0.015625)"/>
       </defs>
       <use xlink:href="#DejaVuSans-36"/>
       <use xlink:href="#DejaVuSans-30" x="63.623047"/>
      </g>
     </g>
    </g>
    <g id="xtick_5">
     <g id="line2d_5">
      <g>
       <use xlink:href="#m1890e291ba" x="937.857515" y="490.552" style="stroke: #000000; stroke-width: 0.8"/>
      </g>
     </g>
     <g id="text_5">
      <!-- 80 -->
      <g transform="translate(925.132515 512.748875) scale(0.2 -0.2)">
       <defs>
        <path id="DejaVuSans-38" d="M 2034 2216 
Q 1584 2216 1326 1975 
Q 1069 1734 1069 1313 
Q 1069 891 1326 650 
Q 1584 409 2034 409 
Q 2484 409 2743 651 
Q 3003 894 3003 1313 
Q 3003 1734 2745 1975 
Q 2488 2216 2034 2216 
z
M 1403 2484 
Q 997 2584 770 2862 
Q 544 3141 544 3541 
Q 544 4100 942 4425 
Q 1341 4750 2034 4750 
Q 2731 4750 3128 4425 
Q 3525 4100 3525 3541 
Q 3525 3141 3298 2862 
Q 3072 2584 2669 2484 
Q 3125 2378 3379 2068 
Q 3634 1759 3634 1313 
Q 3634 634 3220 271 
Q 2806 -91 2034 -91 
Q 1263 -91 848 271 
Q 434 634 434 1313 
Q 434 1759 690 2068 
Q 947 2378 1403 2484 
z
M 1172 3481 
Q 1172 3119 1398 2916 
Q 1625 2713 2034 2713 
Q 2441 2713 2670 2916 
Q 2900 3119 2900 3481 
Q 2900 3844 2670 4047 
Q 2441 4250 2034 4250 
Q 1625 4250 1398 4047 
Q 1172 3844 1172 3481 
z
" transform="scale(0.015625)"/>
       </defs>
       <use xlink:href="#DejaVuSans-38"/>
       <use xlink:href="#DejaVuSans-30" x="63.623047"/>
      </g>
     </g>
    </g>
    <g id="text_6">
     <!-- Percentile Threshold -->
     <g transform="translate(505.775312 536.105125) scale(0.2 -0.2)">
      <defs>
       <path id="DejaVuSans-50" d="M 1259 4147 
L 1259 2394 
L 2053 2394 
Q 2494 2394 2734 2622 
Q 2975 2850 2975 3272 
Q 2975 3691 2734 3919 
Q 2494 4147 2053 4147 
L 1259 4147 
z
M 628 4666 
L 2053 4666 
Q 2838 4666 3239 4311 
Q 3641 3956 3641 3272 
Q 3641 2581 3239 2228 
Q 2838 1875 2053 1875 
L 1259 1875 
L 1259 0 
L 628 0 
L 628 4666 
z
" transform="scale(0.015625)"/>
       <path id="DejaVuSans-65" d="M 3597 1894 
L 3597 1613 
L 953 1613 
Q 991 1019 1311 708 
Q 1631 397 2203 397 
Q 2534 397 2845 478 
Q 3156 559 3463 722 
L 3463 178 
Q 3153 47 2828 -22 
Q 2503 -91 2169 -91 
Q 1331 -91 842 396 
Q 353 884 353 1716 
Q 353 2575 817 3079 
Q 1281 3584 2069 3584 
Q 2775 3584 3186 3129 
Q 3597 2675 3597 1894 
z
M 3022 2063 
Q 3016 2534 2758 2815 
Q 2500 3097 2075 3097 
Q 1594 3097 1305 2825 
Q 1016 2553 972 2059 
L 3022 2063 
z
" transform="scale(0.015625)"/>
       <path id="DejaVuSans-72" d="M 2631 2963 
Q 2534 3019 2420 3045 
Q 2306 3072 2169 3072 
Q 1681 3072 1420 2755 
Q 1159 2438 1159 1844 
L 1159 0 
L 581 0 
L 581 3500 
L 1159 3500 
L 1159 2956 
Q 1341 3275 1631 3429 
Q 1922 3584 2338 3584 
Q 2397 3584 2469 3576 
Q 2541 3569 2628 3553 
L 2631 2963 
z
" transform="scale(0.015625)"/>
       <path id="DejaVuSans-63" d="M 3122 3366 
L 3122 2828 
Q 2878 2963 2633 3030 
Q 2388 3097 2138 3097 
Q 1578 3097 1268 2742 
Q 959 2388 959 1747 
Q 959 1106 1268 751 
Q 1578 397 2138 397 
Q 2388 397 2633 464 
Q 2878 531 3122 666 
L 3122 134 
Q 2881 22 2623 -34 
Q 2366 -91 2075 -91 
Q 1284 -91 818 406 
Q 353 903 353 1747 
Q 353 2603 823 3093 
Q 1294 3584 2113 3584 
Q 2378 3584 2631 3529 
Q 2884 3475 3122 3366 
z
" transform="scale(0.015625)"/>
       <path id="DejaVuSans-6e" d="M 3513 2113 
L 3513 0 
L 2938 0 
L 2938 2094 
Q 2938 2591 2744 2837 
Q 2550 3084 2163 3084 
Q 1697 3084 1428 2787 
Q 1159 2491 1159 1978 
L 1159 0 
L 581 0 
L 581 3500 
L 1159 3500 
L 1159 2956 
Q 1366 3272 1645 3428 
Q 1925 3584 2291 3584 
Q 2894 3584 3203 3211 
Q 3513 2838 3513 2113 
z
" transform="scale(0.015625)"/>
       <path id="DejaVuSans-74" d="M 1172 4494 
L 1172 3500 
L 2356 3500 
L 2356 3053 
L 1172 3053 
L 1172 1153 
Q 1172 725 1289 603 
Q 1406 481 1766 481 
L 2356 481 
L 2356 0 
L 1766 0 
Q 1100 0 847 248 
Q 594 497 594 1153 
L 594 3053 
L 172 3053 
L 172 3500 
L 594 3500 
L 594 4494 
L 1172 4494 
z
" transform="scale(0.015625)"/>
       <path id="DejaVuSans-69" d="M 603 3500 
L 1178 3500 
L 1178 0 
L 603 0 
L 603 3500 
z
M 603 4863 
L 1178 4863 
L 1178 4134 
L 603 4134 
L 603 4863 
z
" transform="scale(0.015625)"/>
       <path id="DejaVuSans-6c" d="M 603 4863 
L 1178 4863 
L 1178 0 
L 603 0 
L 603 4863 
z
" transform="scale(0.015625)"/>
       <path id="DejaVuSans-20" transform="scale(0.015625)"/>
       <path id="DejaVuSans-54" d="M -19 4666 
L 3928 4666 
L 3928 4134 
L 2272 4134 
L 2272 0 
L 1638 0 
L 1638 4134 
L -19 4134 
L -19 4666 
z
" transform="scale(0.015625)"/>
       <path id="DejaVuSans-68" d="M 3513 2113 
L 3513 0 
L 2938 0 
L 2938 2094 
Q 2938 2591 2744 2837 
Q 2550 3084 2163 3084 
Q 1697 3084 1428 2787 
Q 1159 2491 1159 1978 
L 1159 0 
L 581 0 
L 581 4863 
L 1159 4863 
L 1159 2956 
Q 1366 3272 1645 3428 
Q 1925 3584 2291 3584 
Q 2894 3584 3203 3211 
Q 3513 2838 3513 2113 
z
" transform="scale(0.015625)"/>
       <path id="DejaVuSans-73" d="M 2834 3397 
L 2834 2853 
Q 2591 2978 2328 3040 
Q 2066 3103 1784 3103 
Q 1356 3103 1142 2972 
Q 928 2841 928 2578 
Q 928 2378 1081 2264 
Q 1234 2150 1697 2047 
L 1894 2003 
Q 2506 1872 2764 1633 
Q 3022 1394 3022 966 
Q 3022 478 2636 193 
Q 2250 -91 1575 -91 
Q 1294 -91 989 -36 
Q 684 19 347 128 
L 347 722 
Q 666 556 975 473 
Q 1284 391 1588 391 
Q 1994 391 2212 530 
Q 2431 669 2431 922 
Q 2431 1156 2273 1281 
Q 2116 1406 1581 1522 
L 1381 1569 
Q 847 1681 609 1914 
Q 372 2147 372 2553 
Q 372 3047 722 3315 
Q 1072 3584 1716 3584 
Q 2034 3584 2315 3537 
Q 2597 3491 2834 3397 
z
" transform="scale(0.015625)"/>
       <path id="DejaVuSans-6f" d="M 1959 3097 
Q 1497 3097 1228 2736 
Q 959 2375 959 1747 
Q 959 1119 1226 758 
Q 1494 397 1959 397 
Q 2419 397 2687 759 
Q 2956 1122 2956 1747 
Q 2956 2369 2687 2733 
Q 2419 3097 1959 3097 
z
M 1959 3584 
Q 2709 3584 3137 3096 
Q 3566 2609 3566 1747 
Q 3566 888 3137 398 
Q 2709 -91 1959 -91 
Q 1206 -91 779 398 
Q 353 888 353 1747 
Q 353 2609 779 3096 
Q 1206 3584 1959 3584 
z
" transform="scale(0.015625)"/>
       <path id="DejaVuSans-64" d="M 2906 2969 
L 2906 4863 
L 3481 4863 
L 3481 0 
L 2906 0 
L 2906 525 
Q 2725 213 2448 61 
Q 2172 -91 1784 -91 
Q 1150 -91 751 415 
Q 353 922 353 1747 
Q 353 2572 751 3078 
Q 1150 3584 1784 3584 
Q 2172 3584 2448 3432 
Q 2725 3281 2906 2969 
z
M 947 1747 
Q 947 1113 1208 752 
Q 1469 391 1925 391 
Q 2381 391 2643 752 
Q 2906 1113 2906 1747 
Q 2906 2381 2643 2742 
Q 2381 3103 1925 3103 
Q 1469 3103 1208 2742 
Q 947 2381 947 1747 
z
" transform="scale(0.015625)"/>
      </defs>
      <use xlink:href="#DejaVuSans-50"/>
      <use xlink:href="#DejaVuSans-65" x="56.677734"/>
      <use xlink:href="#DejaVuSans-72" x="118.201172"/>
      <use xlink:href="#DejaVuSans-63" x="157.064453"/>
      <use xlink:href="#DejaVuSans-65" x="212.044922"/>
      <use xlink:href="#DejaVuSans-6e" x="273.568359"/>
      <use xlink:href="#DejaVuSans-74" x="336.947266"/>
      <use xlink:href="#DejaVuSans-69" x="376.15625"/>
      <use xlink:href="#DejaVuSans-6c" x="403.939453"/>
      <use xlink:href="#DejaVuSans-65" x="431.722656"/>
      <use xlink:href="#DejaVuSans-20" x="493.246094"/>
      <use xlink:href="#DejaVuSans-54" x="525.033203"/>
      <use xlink:href="#DejaVuSans-68" x="586.117188"/>
      <use xlink:href="#DejaVuSans-72" x="649.496094"/>
      <use xlink:href="#DejaVuSans-65" x="688.359375"/>
      <use xlink:href="#DejaVuSans-73" x="749.882812"/>
      <use xlink:href="#DejaVuSans-68" x="801.982422"/>
      <use xlink:href="#DejaVuSans-6f" x="865.361328"/>
      <use xlink:href="#DejaVuSans-6c" x="926.542969"/>
      <use xlink:href="#DejaVuSans-64" x="954.326172"/>
     </g>
     <!-- (All Methods of Threshold Handling for gbr Model) -->
     <g transform="translate(358.315937 558.50075) scale(0.2 -0.2)">
      <defs>
       <path id="DejaVuSans-28" d="M 1984 4856 
Q 1566 4138 1362 3434 
Q 1159 2731 1159 2009 
Q 1159 1288 1364 580 
Q 1569 -128 1984 -844 
L 1484 -844 
Q 1016 -109 783 600 
Q 550 1309 550 2009 
Q 550 2706 781 3412 
Q 1013 4119 1484 4856 
L 1984 4856 
z
" transform="scale(0.015625)"/>
       <path id="DejaVuSans-41" d="M 2188 4044 
L 1331 1722 
L 3047 1722 
L 2188 4044 
z
M 1831 4666 
L 2547 4666 
L 4325 0 
L 3669 0 
L 3244 1197 
L 1141 1197 
L 716 0 
L 50 0 
L 1831 4666 
z
" transform="scale(0.015625)"/>
       <path id="DejaVuSans-4d" d="M 628 4666 
L 1569 4666 
L 2759 1491 
L 3956 4666 
L 4897 4666 
L 4897 0 
L 4281 0 
L 4281 4097 
L 3078 897 
L 2444 897 
L 1241 4097 
L 1241 0 
L 628 0 
L 628 4666 
z
" transform="scale(0.015625)"/>
       <path id="DejaVuSans-66" d="M 2375 4863 
L 2375 4384 
L 1825 4384 
Q 1516 4384 1395 4259 
Q 1275 4134 1275 3809 
L 1275 3500 
L 2222 3500 
L 2222 3053 
L 1275 3053 
L 1275 0 
L 697 0 
L 697 3053 
L 147 3053 
L 147 3500 
L 697 3500 
L 697 3744 
Q 697 4328 969 4595 
Q 1241 4863 1831 4863 
L 2375 4863 
z
" transform="scale(0.015625)"/>
       <path id="DejaVuSans-48" d="M 628 4666 
L 1259 4666 
L 1259 2753 
L 3553 2753 
L 3553 4666 
L 4184 4666 
L 4184 0 
L 3553 0 
L 3553 2222 
L 1259 2222 
L 1259 0 
L 628 0 
L 628 4666 
z
" transform="scale(0.015625)"/>
       <path id="DejaVuSans-61" d="M 2194 1759 
Q 1497 1759 1228 1600 
Q 959 1441 959 1056 
Q 959 750 1161 570 
Q 1363 391 1709 391 
Q 2188 391 2477 730 
Q 2766 1069 2766 1631 
L 2766 1759 
L 2194 1759 
z
M 3341 1997 
L 3341 0 
L 2766 0 
L 2766 531 
Q 2569 213 2275 61 
Q 1981 -91 1556 -91 
Q 1019 -91 701 211 
Q 384 513 384 1019 
Q 384 1609 779 1909 
Q 1175 2209 1959 2209 
L 2766 2209 
L 2766 2266 
Q 2766 2663 2505 2880 
Q 2244 3097 1772 3097 
Q 1472 3097 1187 3025 
Q 903 2953 641 2809 
L 641 3341 
Q 956 3463 1253 3523 
Q 1550 3584 1831 3584 
Q 2591 3584 2966 3190 
Q 3341 2797 3341 1997 
z
" transform="scale(0.015625)"/>
       <path id="DejaVuSans-67" d="M 2906 1791 
Q 2906 2416 2648 2759 
Q 2391 3103 1925 3103 
Q 1463 3103 1205 2759 
Q 947 2416 947 1791 
Q 947 1169 1205 825 
Q 1463 481 1925 481 
Q 2391 481 2648 825 
Q 2906 1169 2906 1791 
z
M 3481 434 
Q 3481 -459 3084 -895 
Q 2688 -1331 1869 -1331 
Q 1566 -1331 1297 -1286 
Q 1028 -1241 775 -1147 
L 775 -588 
Q 1028 -725 1275 -790 
Q 1522 -856 1778 -856 
Q 2344 -856 2625 -561 
Q 2906 -266 2906 331 
L 2906 616 
Q 2728 306 2450 153 
Q 2172 0 1784 0 
Q 1141 0 747 490 
Q 353 981 353 1791 
Q 353 2603 747 3093 
Q 1141 3584 1784 3584 
Q 2172 3584 2450 3431 
Q 2728 3278 2906 2969 
L 2906 3500 
L 3481 3500 
L 3481 434 
z
" transform="scale(0.015625)"/>
       <path id="DejaVuSans-62" d="M 3116 1747 
Q 3116 2381 2855 2742 
Q 2594 3103 2138 3103 
Q 1681 3103 1420 2742 
Q 1159 2381 1159 1747 
Q 1159 1113 1420 752 
Q 1681 391 2138 391 
Q 2594 391 2855 752 
Q 3116 1113 3116 1747 
z
M 1159 2969 
Q 1341 3281 1617 3432 
Q 1894 3584 2278 3584 
Q 2916 3584 3314 3078 
Q 3713 2572 3713 1747 
Q 3713 922 3314 415 
Q 2916 -91 2278 -91 
Q 1894 -91 1617 61 
Q 1341 213 1159 525 
L 1159 0 
L 581 0 
L 581 4863 
L 1159 4863 
L 1159 2969 
z
" transform="scale(0.015625)"/>
       <path id="DejaVuSans-29" d="M 513 4856 
L 1013 4856 
Q 1481 4119 1714 3412 
Q 1947 2706 1947 2009 
Q 1947 1309 1714 600 
Q 1481 -109 1013 -844 
L 513 -844 
Q 928 -128 1133 580 
Q 1338 1288 1338 2009 
Q 1338 2731 1133 3434 
Q 928 4138 513 4856 
z
" transform="scale(0.015625)"/>
      </defs>
      <use xlink:href="#DejaVuSans-28"/>
      <use xlink:href="#DejaVuSans-41" x="39.013672"/>
      <use xlink:href="#DejaVuSans-6c" x="107.421875"/>
      <use xlink:href="#DejaVuSans-6c" x="135.205078"/>
      <use xlink:href="#DejaVuSans-20" x="162.988281"/>
      <use xlink:href="#DejaVuSans-4d" x="194.775391"/>
      <use xlink:href="#DejaVuSans-65" x="281.054688"/>
      <use xlink:href="#DejaVuSans-74" x="342.578125"/>
      <use xlink:href="#DejaVuSans-68" x="381.787109"/>
      <use xlink:href="#DejaVuSans-6f" x="445.166016"/>
      <use xlink:href="#DejaVuSans-64" x="506.347656"/>
      <use xlink:href="#DejaVuSans-73" x="569.824219"/>
      <use xlink:href="#DejaVuSans-20" x="621.923828"/>
      <use xlink:href="#DejaVuSans-6f" x="653.710938"/>
      <use xlink:href="#DejaVuSans-66" x="714.892578"/>
      <use xlink:href="#DejaVuSans-20" x="750.097656"/>
      <use xlink:href="#DejaVuSans-54" x="781.884766"/>
      <use xlink:href="#DejaVuSans-68" x="842.96875"/>
      <use xlink:href="#DejaVuSans-72" x="906.347656"/>
      <use xlink:href="#DejaVuSans-65" x="945.210938"/>
      <use xlink:href="#DejaVuSans-73" x="1006.734375"/>
      <use xlink:href="#DejaVuSans-68" x="1058.833984"/>
      <use xlink:href="#DejaVuSans-6f" x="1122.212891"/>
      <use xlink:href="#DejaVuSans-6c" x="1183.394531"/>
      <use xlink:href="#DejaVuSans-64" x="1211.177734"/>
      <use xlink:href="#DejaVuSans-20" x="1274.654297"/>
      <use xlink:href="#DejaVuSans-48" x="1306.441406"/>
      <use xlink:href="#DejaVuSans-61" x="1381.636719"/>
      <use xlink:href="#DejaVuSans-6e" x="1442.916016"/>
      <use xlink:href="#DejaVuSans-64" x="1506.294922"/>
      <use xlink:href="#DejaVuSans-6c" x="1569.771484"/>
      <use xlink:href="#DejaVuSans-69" x="1597.554688"/>
      <use xlink:href="#DejaVuSans-6e" x="1625.337891"/>
      <use xlink:href="#DejaVuSans-67" x="1688.716797"/>
      <use xlink:href="#DejaVuSans-20" x="1752.193359"/>
      <use xlink:href="#DejaVuSans-66" x="1783.980469"/>
      <use xlink:href="#DejaVuSans-6f" x="1819.185547"/>
      <use xlink:href="#DejaVuSans-72" x="1880.367188"/>
      <use xlink:href="#DejaVuSans-20" x="1921.480469"/>
      <use xlink:href="#DejaVuSans-67" x="1953.267578"/>
      <use xlink:href="#DejaVuSans-62" x="2016.744141"/>
      <use xlink:href="#DejaVuSans-72" x="2080.220703"/>
      <use xlink:href="#DejaVuSans-20" x="2121.333984"/>
      <use xlink:href="#DejaVuSans-4d" x="2153.121094"/>
      <use xlink:href="#DejaVuSans-6f" x="2239.400391"/>
      <use xlink:href="#DejaVuSans-64" x="2300.582031"/>
      <use xlink:href="#DejaVuSans-65" x="2364.058594"/>
      <use xlink:href="#DejaVuSans-6c" x="2425.582031"/>
      <use xlink:href="#DejaVuSans-29" x="2453.365234"/>
     </g>
    </g>
   </g>
   <g id="matplotlib.axis_2">
    <g id="ytick_1">
     <g id="line2d_6">
      <defs>
       <path id="m59d6a4555f" d="M 0 0 
L -3.5 0 
" style="stroke: #000000; stroke-width: 0.8"/>
      </defs>
      <g>
       <use xlink:href="#m59d6a4555f" x="73.91" y="475.870454" style="stroke: #000000; stroke-width: 0.8"/>
      </g>
     </g>
     <g id="text_7">
      <!-- 0.0 -->
      <g transform="translate(35.10375 483.468891) scale(0.2 -0.2)">
       <defs>
        <path id="DejaVuSans-2e" d="M 684 794 
L 1344 794 
L 1344 0 
L 684 0 
L 684 794 
z
" transform="scale(0.015625)"/>
       </defs>
       <use xlink:href="#DejaVuSans-30"/>
       <use xlink:href="#DejaVuSans-2e" x="63.623047"/>
       <use xlink:href="#DejaVuSans-30" x="95.410156"/>
      </g>
     </g>
    </g>
    <g id="ytick_2">
     <g id="line2d_7">
      <g>
       <use xlink:href="#m59d6a4555f" x="73.91" y="384.540185" style="stroke: #000000; stroke-width: 0.8"/>
      </g>
     </g>
     <g id="text_8">
      <!-- 0.2 -->
      <g transform="translate(35.10375 392.138623) scale(0.2 -0.2)">
       <use xlink:href="#DejaVuSans-30"/>
       <use xlink:href="#DejaVuSans-2e" x="63.623047"/>
       <use xlink:href="#DejaVuSans-32" x="95.410156"/>
      </g>
     </g>
    </g>
    <g id="ytick_3">
     <g id="line2d_8">
      <g>
       <use xlink:href="#m59d6a4555f" x="73.91" y="293.209917" style="stroke: #000000; stroke-width: 0.8"/>
      </g>
     </g>
     <g id="text_9">
      <!-- 0.4 -->
      <g transform="translate(35.10375 300.808355) scale(0.2 -0.2)">
       <use xlink:href="#DejaVuSans-30"/>
       <use xlink:href="#DejaVuSans-2e" x="63.623047"/>
       <use xlink:href="#DejaVuSans-34" x="95.410156"/>
      </g>
     </g>
    </g>
    <g id="ytick_4">
     <g id="line2d_9">
      <g>
       <use xlink:href="#m59d6a4555f" x="73.91" y="201.879649" style="stroke: #000000; stroke-width: 0.8"/>
      </g>
     </g>
     <g id="text_10">
      <!-- 0.6 -->
      <g transform="translate(35.10375 209.478086) scale(0.2 -0.2)">
       <use xlink:href="#DejaVuSans-30"/>
       <use xlink:href="#DejaVuSans-2e" x="63.623047"/>
       <use xlink:href="#DejaVuSans-36" x="95.410156"/>
      </g>
     </g>
    </g>
    <g id="ytick_5">
     <g id="line2d_10">
      <g>
       <use xlink:href="#m59d6a4555f" x="73.91" y="110.54938" style="stroke: #000000; stroke-width: 0.8"/>
      </g>
     </g>
     <g id="text_11">
      <!-- 0.8 -->
      <g transform="translate(35.10375 118.147818) scale(0.2 -0.2)">
       <use xlink:href="#DejaVuSans-30"/>
       <use xlink:href="#DejaVuSans-2e" x="63.623047"/>
       <use xlink:href="#DejaVuSans-38" x="95.410156"/>
      </g>
     </g>
    </g>
    <g id="ytick_6">
     <g id="line2d_11">
      <g>
       <use xlink:href="#m59d6a4555f" x="73.91" y="19.219112" style="stroke: #000000; stroke-width: 0.8"/>
      </g>
     </g>
     <g id="text_12">
      <!-- 1.0 -->
      <g transform="translate(35.10375 26.817549) scale(0.2 -0.2)">
       <defs>
        <path id="DejaVuSans-31" d="M 794 531 
L 1825 531 
L 1825 4091 
L 703 3866 
L 703 4441 
L 1819 4666 
L 2450 4666 
L 2450 531 
L 3481 531 
L 3481 0 
L 794 0 
L 794 531 
z
" transform="scale(0.015625)"/>
       </defs>
       <use xlink:href="#DejaVuSans-31"/>
       <use xlink:href="#DejaVuSans-2e" x="63.623047"/>
       <use xlink:href="#DejaVuSans-30" x="95.410156"/>
      </g>
     </g>
    </g>
    <g id="text_13">
     <!-- R^2 -->
     <g transform="translate(26.944375 273.136245) rotate(-90) scale(0.2 -0.2)">
      <defs>
       <path id="DejaVuSans-52" d="M 2841 2188 
Q 3044 2119 3236 1894 
Q 3428 1669 3622 1275 
L 4263 0 
L 3584 0 
L 2988 1197 
Q 2756 1666 2539 1819 
Q 2322 1972 1947 1972 
L 1259 1972 
L 1259 0 
L 628 0 
L 628 4666 
L 2053 4666 
Q 2853 4666 3247 4331 
Q 3641 3997 3641 3322 
Q 3641 2881 3436 2590 
Q 3231 2300 2841 2188 
z
M 1259 4147 
L 1259 2491 
L 2053 2491 
Q 2509 2491 2742 2702 
Q 2975 2913 2975 3322 
Q 2975 3731 2742 3939 
Q 2509 4147 2053 4147 
L 1259 4147 
z
" transform="scale(0.015625)"/>
       <path id="DejaVuSans-5e" d="M 2988 4666 
L 4684 2925 
L 4056 2925 
L 2681 4159 
L 1306 2925 
L 678 2925 
L 2375 4666 
L 2988 4666 
z
" transform="scale(0.015625)"/>
      </defs>
      <use xlink:href="#DejaVuSans-52"/>
      <use xlink:href="#DejaVuSans-5e" x="69.482422"/>
      <use xlink:href="#DejaVuSans-32" x="153.271484"/>
     </g>
    </g>
   </g>
   <g id="line2d_12">
    <path d="M 122.423182 35.072018 
L 143.067089 39.539193 
L 163.710996 42.055368 
L 184.354903 44.765255 
L 204.99881 49.735138 
L 225.642718 51.04665 
L 246.286625 53.815135 
L 266.930532 61.772885 
L 287.574439 65.357058 
L 308.218346 67.902072 
L 328.862253 71.943684 
L 349.506161 72.643024 
L 370.150068 73.433652 
L 390.793975 73.957855 
L 411.437882 70.383721 
L 432.081789 72.579475 
L 452.725696 76.757895 
L 473.369603 80.054295 
L 494.013511 79.501918 
L 514.657418 88.365395 
L 535.301325 92.577796 
L 555.945232 93.069738 
L 576.589139 96.893003 
L 597.233046 113.371519 
L 617.876954 127.888394 
L 638.520861 148.305261 
L 659.164768 136.764929 
L 679.808675 122.954455 
" clip-path="url(#pc9baa4193d)" style="fill: none; stroke: #1f77b4; stroke-width: 1.5; stroke-linecap: square"/>
   </g>
   <g id="line2d_13">
    <path d="M 122.423182 36.551393 
L 143.067089 37.750445 
L 163.710996 40.397641 
L 184.354903 43.908329 
L 204.99881 46.181284 
L 225.642718 48.569924 
L 246.286625 49.354301 
L 266.930532 54.004907 
L 287.574439 76.707935 
L 308.218346 75.554617 
L 328.862253 85.790589 
L 349.506161 88.831913 
L 370.150068 94.199482 
L 390.793975 94.912848 
L 411.437882 102.190058 
L 432.081789 106.769454 
L 452.725696 91.24033 
L 473.369603 111.14428 
L 494.013511 116.197856 
L 514.657418 118.38558 
L 535.301325 130.542531 
L 555.945232 146.654054 
L 576.589139 140.916917 
L 597.233046 175.416205 
L 617.876954 214.382002 
L 638.520861 284.59255 
L 659.164768 246.552526 
L 679.808675 359.571841 
L 700.452582 406.057525 
L 741.740397 461.682829 
L 762.384304 444.088559 
L 803.672118 376.035726 
L 824.316025 414.892092 
L 844.959932 423.264358 
L 886.247747 441.810473 
L 906.891654 468.815056 
" clip-path="url(#pc9baa4193d)" style="fill: none; stroke: #ff7f0e; stroke-width: 1.5; stroke-linecap: square"/>
   </g>
   <g id="line2d_14">
    <path d="M 122.423182 35.110967 
L 143.067089 35.547407 
L 163.710996 35.095754 
L 184.354903 35.886448 
L 204.99881 35.457652 
L 225.642718 35.592298 
L 246.286625 35.477732 
L 266.930532 35.654479 
L 287.574439 35.739068 
L 308.218346 35.260886 
L 328.862253 36.397609 
L 349.506161 35.362034 
L 370.150068 35.615282 
L 390.793975 36.155604 
L 411.437882 35.831617 
L 432.081789 35.500232 
L 452.725696 35.883634 
L 473.369603 35.890372 
L 494.013511 36.219634 
L 514.657418 35.571653 
L 535.301325 35.356216 
L 555.945232 36.040928 
L 576.589139 36.324577 
L 597.233046 36.287633 
L 617.876954 34.990683 
L 638.520861 34.922121 
L 659.164768 36.090437 
L 679.808675 36.007786 
L 700.452582 36.353331 
L 721.096489 36.352194 
L 741.740397 35.805959 
L 762.384304 35.715821 
L 783.028211 35.335283 
L 803.672118 35.513162 
L 824.316025 35.863546 
L 844.959932 36.112754 
L 865.603839 35.913901 
L 886.247747 36.257202 
L 906.891654 35.943112 
L 927.535561 35.724174 
L 948.179468 35.866207 
L 968.823375 35.953506 
L 989.467282 36.208699 
L 1010.11119 35.888516 
L 1030.755097 35.231251 
L 1051.399004 35.998578 
L 1072.042911 35.597905 
L 1092.686818 35.683422 
" clip-path="url(#pc9baa4193d)" style="fill: none; stroke: #2ca02c; stroke-width: 1.5; stroke-linecap: square"/>
   </g>
   <g id="line2d_15">
    <path d="M 122.423182 35.208619 
L 143.067089 35.387135 
L 163.710996 35.260404 
L 184.354903 35.947616 
L 204.99881 36.203022 
L 225.642718 35.935767 
L 246.286625 36.078762 
L 266.930532 36.746942 
L 287.574439 37.583763 
L 308.218346 36.58431 
L 328.862253 37.279357 
L 349.506161 36.39346 
L 370.150068 36.925958 
L 390.793975 37.059881 
L 411.437882 37.096959 
L 432.081789 36.948867 
L 452.725696 37.212784 
L 473.369603 37.121659 
L 494.013511 37.47329 
L 514.657418 36.667036 
L 535.301325 36.963437 
L 555.945232 36.83698 
L 576.589139 37.522723 
L 597.233046 37.301514 
L 617.876954 37.927197 
L 638.520861 37.444586 
L 659.164768 37.086751 
L 679.808675 37.266281 
L 700.452582 37.086294 
L 721.096489 36.742527 
L 741.740397 37.208556 
L 762.384304 37.227786 
L 783.028211 36.566471 
L 803.672118 37.277796 
L 824.316025 36.977825 
L 844.959932 37.763915 
L 865.603839 37.630994 
L 886.247747 38.621468 
L 906.891654 36.944348 
L 927.535561 36.856691 
L 948.179468 37.189302 
L 968.823375 38.297917 
L 989.467282 37.238924 
L 1010.11119 37.094244 
L 1030.755097 37.073054 
L 1051.399004 36.953936 
L 1072.042911 37.009816 
L 1092.686818 38.113947 
" clip-path="url(#pc9baa4193d)" style="fill: none; stroke: #d62728; stroke-width: 1.5; stroke-linecap: square"/>
   </g>
   <g id="line2d_16"/>
   <g id="line2d_17"/>
   <g id="line2d_18"/>
   <g id="line2d_19"/>
   <g id="patch_3">
    <path d="M 73.91 490.552 
L 73.91 12.339241 
" style="fill: none; stroke: #000000; stroke-width: 0.8; stroke-linejoin: miter; stroke-linecap: square"/>
   </g>
   <g id="patch_4">
    <path d="M 1141.2 490.552 
L 1141.2 12.339241 
" style="fill: none; stroke: #000000; stroke-width: 0.8; stroke-linejoin: miter; stroke-linecap: square"/>
   </g>
   <g id="patch_5">
    <path d="M 73.91 490.552 
L 1141.2 490.552 
" style="fill: none; stroke: #000000; stroke-width: 0.8; stroke-linejoin: miter; stroke-linecap: square"/>
   </g>
   <g id="patch_6">
    <path d="M 73.91 12.339241 
L 1141.2 12.339241 
" style="fill: none; stroke: #000000; stroke-width: 0.8; stroke-linejoin: miter; stroke-linecap: square"/>
   </g>
   <g id="legend_1">
    <g id="patch_7">
     <path d="M 85.11 482.552 
L 224.545 482.552 
Q 227.745 482.552 227.745 479.352 
L 227.745 386.122 
Q 227.745 382.922 224.545 382.922 
L 85.11 382.922 
Q 81.91 382.922 81.91 386.122 
L 81.91 479.352 
Q 81.91 482.552 85.11 482.552 
z
" style="fill: #ffffff; opacity: 0.8; stroke: #cccccc; stroke-linejoin: miter"/>
    </g>
    <g id="line2d_20">
     <path d="M 88.31 395.8795 
L 104.31 395.8795 
L 120.31 395.8795 
" style="fill: none; stroke: #1f77b4; stroke-width: 1.5; stroke-linecap: square"/>
    </g>
    <g id="text_14">
     <!-- leave_out -->
     <g transform="translate(133.11 401.4795) scale(0.16 -0.16)">
      <defs>
       <path id="DejaVuSans-76" d="M 191 3500 
L 800 3500 
L 1894 563 
L 2988 3500 
L 3597 3500 
L 2284 0 
L 1503 0 
L 191 3500 
z
" transform="scale(0.015625)"/>
       <path id="DejaVuSans-5f" d="M 3263 -1063 
L 3263 -1509 
L -63 -1509 
L -63 -1063 
L 3263 -1063 
z
" transform="scale(0.015625)"/>
       <path id="DejaVuSans-75" d="M 544 1381 
L 544 3500 
L 1119 3500 
L 1119 1403 
Q 1119 906 1312 657 
Q 1506 409 1894 409 
Q 2359 409 2629 706 
Q 2900 1003 2900 1516 
L 2900 3500 
L 3475 3500 
L 3475 0 
L 2900 0 
L 2900 538 
Q 2691 219 2414 64 
Q 2138 -91 1772 -91 
Q 1169 -91 856 284 
Q 544 659 544 1381 
z
M 1991 3584 
L 1991 3584 
z
" transform="scale(0.015625)"/>
      </defs>
      <use xlink:href="#DejaVuSans-6c"/>
      <use xlink:href="#DejaVuSans-65" x="27.783203"/>
      <use xlink:href="#DejaVuSans-61" x="89.306641"/>
      <use xlink:href="#DejaVuSans-76" x="150.585938"/>
      <use xlink:href="#DejaVuSans-65" x="209.765625"/>
      <use xlink:href="#DejaVuSans-5f" x="271.289062"/>
      <use xlink:href="#DejaVuSans-6f" x="321.289062"/>
      <use xlink:href="#DejaVuSans-75" x="382.470703"/>
      <use xlink:href="#DejaVuSans-74" x="445.849609"/>
     </g>
    </g>
    <g id="line2d_21">
     <path d="M 88.31 419.8095 
L 104.31 419.8095 
L 120.31 419.8095 
" style="fill: none; stroke: #ff7f0e; stroke-width: 1.5; stroke-linecap: square"/>
    </g>
    <g id="text_15">
     <!-- merge -->
     <g transform="translate(133.11 425.4095) scale(0.16 -0.16)">
      <defs>
       <path id="DejaVuSans-6d" d="M 3328 2828 
Q 3544 3216 3844 3400 
Q 4144 3584 4550 3584 
Q 5097 3584 5394 3201 
Q 5691 2819 5691 2113 
L 5691 0 
L 5113 0 
L 5113 2094 
Q 5113 2597 4934 2840 
Q 4756 3084 4391 3084 
Q 3944 3084 3684 2787 
Q 3425 2491 3425 1978 
L 3425 0 
L 2847 0 
L 2847 2094 
Q 2847 2600 2669 2842 
Q 2491 3084 2119 3084 
Q 1678 3084 1418 2786 
Q 1159 2488 1159 1978 
L 1159 0 
L 581 0 
L 581 3500 
L 1159 3500 
L 1159 2956 
Q 1356 3278 1631 3431 
Q 1906 3584 2284 3584 
Q 2666 3584 2933 3390 
Q 3200 3197 3328 2828 
z
" transform="scale(0.015625)"/>
      </defs>
      <use xlink:href="#DejaVuSans-6d"/>
      <use xlink:href="#DejaVuSans-65" x="97.412109"/>
      <use xlink:href="#DejaVuSans-72" x="158.935547"/>
      <use xlink:href="#DejaVuSans-67" x="198.298828"/>
      <use xlink:href="#DejaVuSans-65" x="261.775391"/>
     </g>
    </g>
    <g id="line2d_22">
     <path d="M 88.31 443.2945 
L 104.31 443.2945 
L 120.31 443.2945 
" style="fill: none; stroke: #2ca02c; stroke-width: 1.5; stroke-linecap: square"/>
    </g>
    <g id="text_16">
     <!-- max_mean -->
     <g transform="translate(133.11 448.8945) scale(0.16 -0.16)">
      <defs>
       <path id="DejaVuSans-78" d="M 3513 3500 
L 2247 1797 
L 3578 0 
L 2900 0 
L 1881 1375 
L 863 0 
L 184 0 
L 1544 1831 
L 300 3500 
L 978 3500 
L 1906 2253 
L 2834 3500 
L 3513 3500 
z
" transform="scale(0.015625)"/>
      </defs>
      <use xlink:href="#DejaVuSans-6d"/>
      <use xlink:href="#DejaVuSans-61" x="97.412109"/>
      <use xlink:href="#DejaVuSans-78" x="158.691406"/>
      <use xlink:href="#DejaVuSans-5f" x="217.871094"/>
      <use xlink:href="#DejaVuSans-6d" x="267.871094"/>
      <use xlink:href="#DejaVuSans-65" x="365.283203"/>
      <use xlink:href="#DejaVuSans-61" x="426.806641"/>
      <use xlink:href="#DejaVuSans-6e" x="488.085938"/>
     </g>
    </g>
    <g id="line2d_23">
     <path d="M 88.31 467.2245 
L 104.31 467.2245 
L 120.31 467.2245 
" style="fill: none; stroke: #d62728; stroke-width: 1.5; stroke-linecap: square"/>
    </g>
    <g id="text_17">
     <!-- random -->
     <g transform="translate(133.11 472.8245) scale(0.16 -0.16)">
      <use xlink:href="#DejaVuSans-72"/>
      <use xlink:href="#DejaVuSans-61" x="41.113281"/>
      <use xlink:href="#DejaVuSans-6e" x="102.392578"/>
      <use xlink:href="#DejaVuSans-64" x="165.771484"/>
      <use xlink:href="#DejaVuSans-6f" x="229.248047"/>
      <use xlink:href="#DejaVuSans-6d" x="290.429688"/>
     </g>
    </g>
   </g>
  </g>
 </g>
 <defs>
  <clipPath id="pc9baa4193d">
   <rect x="73.91" y="12.339241" width="1067.29" height="478.212759"/>
  </clipPath>
 </defs>
</svg>
