<?xml version="1.0" encoding="utf-8" standalone="no"?>
<!DOCTYPE svg PUBLIC "-//W3C//DTD SVG 1.1//EN"
  "http://www.w3.org/Graphics/SVG/1.1/DTD/svg11.dtd">
<svg xmlns:xlink="http://www.w3.org/1999/xlink" width="1152pt" height="576pt" viewBox="0 0 1152 576" xmlns="http://www.w3.org/2000/svg" version="1.1">
 <metadata>
  <rdf:RDF xmlns:dc="http://purl.org/dc/elements/1.1/" xmlns:cc="http://creativecommons.org/ns#" xmlns:rdf="http://www.w3.org/1999/02/22-rdf-syntax-ns#">
   <cc:Work>
    <dc:type rdf:resource="http://purl.org/dc/dcmitype/StillImage"/>
    <dc:date>2025-03-12T22:39:43.524913</dc:date>
    <dc:format>image/svg+xml</dc:format>
    <dc:creator>
     <cc:Agent>
      <dc:title>Matplotlib v3.9.2, https://matplotlib.org/</dc:title>
     </cc:Agent>
    </dc:creator>
   </cc:Work>
  </rdf:RDF>
 </metadata>
 <defs>
  <style type="text/css">*{stroke-linejoin: round; stroke-linecap: butt}</style>
 </defs>
 <g id="figure_1">
  <g id="patch_1">
   <path d="M 0 576 
L 1152 576 
L 1152 0 
L 0 0 
z
" style="fill: #ffffff"/>
  </g>
  <g id="axes_1">
   <g id="patch_2">
    <path d="M 67.43 490.552 
L 1141.2 490.552 
L 1141.2 10.8 
L 67.43 10.8 
z
" style="fill: #ffffff"/>
   </g>
   <g id="PolyCollection_1">
    <defs>
     <path id="m163fe6a9f0" d="M 116.237727 -121.352534 
L 116.237727 -119.613222 
L 137.006973 -121.162327 
L 157.776219 -126.712573 
L 178.545464 -130.896884 
L 199.31471 -135.150428 
L 220.083956 -145.672503 
L 240.853201 -148.604468 
L 261.622447 -151.337114 
L 282.391692 -160.152798 
L 303.160938 -161.995885 
L 323.930184 -170.158077 
L 344.699429 -169.885448 
L 365.468675 -172.678947 
L 386.237921 -172.204653 
L 407.007166 -183.717266 
L 427.776412 -182.174202 
L 448.545658 -191.365318 
L 469.314903 -191.501028 
L 490.084149 -191.975655 
L 510.853395 -201.851487 
L 531.62264 -200.87897 
L 552.391886 -200.794884 
L 573.161132 -206.610904 
L 593.930377 -204.095392 
L 614.699623 -202.220726 
L 635.468868 -206.196195 
L 656.238114 -218.708113 
L 677.00736 -202.777906 
L 697.776605 -217.080226 
L 718.545851 -216.897521 
L 739.315097 -210.962775 
L 760.084342 -213.278224 
L 780.853588 -224.958539 
L 801.622834 -215.298481 
L 822.392079 -230.692367 
L 843.161325 -233.691794 
L 863.930571 -236.361973 
L 884.699816 -245.208251 
L 905.469062 -235.940399 
L 926.238308 -240.60131 
L 947.007553 -228.144033 
L 967.776799 -319.467443 
L 988.546044 -340.199237 
L 1009.31529 -361.572763 
L 1030.084536 -335.829812 
L 1050.853781 -335.616362 
L 1071.623027 -337.357989 
L 1092.392273 -338.573479 
L 1092.392273 -497.070905 
L 1092.392273 -497.070905 
L 1071.623027 -475.862868 
L 1050.853781 -498.332801 
L 1030.084536 -477.217949 
L 1009.31529 -481.836964 
L 988.546044 -474.981488 
L 967.776799 -476.624145 
L 947.007553 -345.038403 
L 926.238308 -430.395746 
L 905.469062 -277.820564 
L 884.699816 -288.762001 
L 863.930571 -275.765634 
L 843.161325 -292.460211 
L 822.392079 -280.631268 
L 801.622834 -279.91494 
L 780.853588 -290.234826 
L 760.084342 -276.21707 
L 739.315097 -272.062733 
L 718.545851 -271.029658 
L 697.776605 -271.287415 
L 677.00736 -238.886296 
L 656.238114 -255.844787 
L 635.468868 -239.469863 
L 614.699623 -226.275695 
L 593.930377 -227.512343 
L 573.161132 -227.425377 
L 552.391886 -227.508079 
L 531.62264 -227.669755 
L 510.853395 -228.367818 
L 490.084149 -228.657967 
L 469.314903 -227.953929 
L 448.545658 -218.710909 
L 427.776412 -207.378909 
L 407.007166 -212.56124 
L 386.237921 -211.720246 
L 365.468675 -198.24428 
L 344.699429 -191.916593 
L 323.930184 -193.394012 
L 303.160938 -180.19105 
L 282.391692 -188.967246 
L 261.622447 -178.498454 
L 240.853201 -164.235645 
L 220.083956 -164.559873 
L 199.31471 -147.066905 
L 178.545464 -142.35189 
L 157.776219 -130.030061 
L 137.006973 -126.176084 
L 116.237727 -121.352534 
z
" style="stroke: #1f77b4; stroke-opacity: 0.2"/>
    </defs>
    <g clip-path="url(#pab25b17588)">
     <use xlink:href="#m163fe6a9f0" x="0" y="576" style="fill: #1f77b4; fill-opacity: 0.2; stroke: #1f77b4; stroke-opacity: 0.2"/>
    </g>
   </g>
   <g id="PolyCollection_2">
    <defs>
     <path id="mb05b8ee65a" d="M 116.237727 -112.184787 
L 116.237727 -107.254909 
L 137.006973 -111.500589 
L 157.776219 -116.306398 
L 178.545464 -121.850555 
L 199.31471 -125.509166 
L 220.083956 -137.078334 
L 240.853201 -139.279564 
L 261.622447 -140.79144 
L 282.391692 -150.391595 
L 303.160938 -154.925501 
L 323.930184 -154.019833 
L 344.699429 -161.326569 
L 365.468675 -168.53789 
L 386.237921 -166.127388 
L 407.007166 -170.195619 
L 427.776412 -173.998636 
L 448.545658 -179.152831 
L 469.314903 -177.071539 
L 490.084149 -177.982158 
L 510.853395 -187.723628 
L 531.62264 -186.94197 
L 552.391886 -186.936296 
L 573.161132 -189.88449 
L 593.930377 -190.83518 
L 614.699623 -197.23083 
L 635.468868 -204.616305 
L 656.238114 -212.480899 
L 677.00736 -186.248092 
L 697.776605 -201.441218 
L 718.545851 -202.217216 
L 739.315097 -203.795291 
L 760.084342 -203.564561 
L 780.853588 -216.693435 
L 801.622834 -205.749492 
L 822.392079 -220.515131 
L 843.161325 -229.78845 
L 863.930571 -223.80399 
L 884.699816 -239.931102 
L 905.469062 -217.724107 
L 926.238308 -225.303087 
L 947.007553 -207.340945 
L 967.776799 -314.383908 
L 988.546044 -355.725765 
L 1009.31529 -363.320944 
L 1030.084536 -338.422699 
L 1050.853781 -341.83918 
L 1071.623027 -344.726866 
L 1092.392273 -345.202887 
L 1092.392273 -499.528719 
L 1092.392273 -499.528719 
L 1071.623027 -495.060095 
L 1050.853781 -528.594978 
L 1030.084536 -510.463342 
L 1009.31529 -526.286617 
L 988.546044 -454.124825 
L 967.776799 -508.547683 
L 947.007553 -354.584981 
L 926.238308 -455.138281 
L 905.469062 -336.996012 
L 884.699816 -358.733569 
L 863.930571 -341.558426 
L 843.161325 -342.646863 
L 822.392079 -325.815293 
L 801.622834 -267.246398 
L 780.853588 -271.025025 
L 760.084342 -275.934166 
L 739.315097 -275.031842 
L 718.545851 -263.832555 
L 697.776605 -262.048573 
L 677.00736 -208.863585 
L 656.238114 -261.585073 
L 635.468868 -244.303387 
L 614.699623 -233.492925 
L 593.930377 -229.341766 
L 573.161132 -229.717981 
L 552.391886 -231.758429 
L 531.62264 -228.637772 
L 510.853395 -237.517738 
L 490.084149 -227.185913 
L 469.314903 -227.124597 
L 448.545658 -223.968868 
L 427.776412 -197.00051 
L 407.007166 -199.862139 
L 386.237921 -207.158418 
L 365.468675 -195.648394 
L 344.699429 -195.711353 
L 323.930184 -191.331825 
L 303.160938 -181.449387 
L 282.391692 -180.474584 
L 261.622447 -173.850345 
L 240.853201 -166.002145 
L 220.083956 -156.778566 
L 199.31471 -141.903959 
L 178.545464 -133.829685 
L 157.776219 -123.988775 
L 137.006973 -120.450248 
L 116.237727 -112.184787 
z
" style="stroke: #ff7f0e; stroke-opacity: 0.2"/>
    </defs>
    <g clip-path="url(#pab25b17588)">
     <use xlink:href="#mb05b8ee65a" x="0" y="576" style="fill: #ff7f0e; fill-opacity: 0.2; stroke: #ff7f0e; stroke-opacity: 0.2"/>
    </g>
   </g>
   <g id="PolyCollection_3">
    <defs>
     <path id="m3288205066" d="M 116.237727 -111.590585 
L 116.237727 -109.171885 
L 137.006973 -113.531966 
L 157.776219 -120.921471 
L 178.545464 -125.970641 
L 199.31471 -130.987084 
L 220.083956 -139.552604 
L 240.853201 -142.872882 
L 261.622447 -147.152043 
L 282.391692 -154.562684 
L 303.160938 -161.027367 
L 323.930184 -163.023187 
L 344.699429 -163.134981 
L 365.468675 -161.479419 
L 386.237921 -172.585209 
L 407.007166 -175.935555 
L 427.776412 -182.638571 
L 448.545658 -186.132176 
L 469.314903 -188.130865 
L 490.084149 -189.171321 
L 510.853395 -200.985205 
L 531.62264 -201.485052 
L 552.391886 -199.953994 
L 573.161132 -203.811788 
L 593.930377 -203.382501 
L 614.699623 -206.833805 
L 635.468868 -211.640378 
L 656.238114 -222.045011 
L 677.00736 -206.265908 
L 697.776605 -215.251341 
L 718.545851 -216.694405 
L 739.315097 -212.228504 
L 760.084342 -216.002956 
L 780.853588 -228.053237 
L 801.622834 -223.565932 
L 822.392079 -229.079036 
L 843.161325 -235.170033 
L 863.930571 -229.470891 
L 884.699816 -238.070589 
L 905.469062 -230.035655 
L 926.238308 -243.750476 
L 947.007553 -220.736048 
L 967.776799 -339.872568 
L 988.546044 -360.509375 
L 1009.31529 -365.938309 
L 1030.084536 -345.893202 
L 1050.853781 -351.783828 
L 1071.623027 -361.368219 
L 1092.392273 -361.408998 
L 1092.392273 -525.781274 
L 1092.392273 -525.781274 
L 1071.623027 -541.34867 
L 1050.853781 -543.393091 
L 1030.084536 -531.410171 
L 1009.31529 -539.235801 
L 988.546044 -471.281388 
L 967.776799 -528.500303 
L 947.007553 -372.859458 
L 926.238308 -478.303208 
L 905.469062 -314.31296 
L 884.699816 -324.508303 
L 863.930571 -315.722437 
L 843.161325 -321.335787 
L 822.392079 -314.234507 
L 801.622834 -284.359768 
L 780.853588 -285.122295 
L 760.084342 -273.844402 
L 739.315097 -264.961912 
L 718.545851 -261.601436 
L 697.776605 -265.714034 
L 677.00736 -237.534871 
L 656.238114 -274.928229 
L 635.468868 -245.769845 
L 614.699623 -234.310545 
L 593.930377 -232.275336 
L 573.161132 -234.277611 
L 552.391886 -234.277611 
L 531.62264 -234.406587 
L 510.853395 -233.920861 
L 490.084149 -236.532153 
L 469.314903 -236.811495 
L 448.545658 -229.556898 
L 427.776412 -205.040201 
L 407.007166 -202.800704 
L 386.237921 -212.342289 
L 365.468675 -202.716684 
L 344.699429 -186.118929 
L 323.930184 -191.689834 
L 303.160938 -183.871702 
L 282.391692 -178.792831 
L 261.622447 -177.037242 
L 240.853201 -162.656062 
L 220.083956 -162.129838 
L 199.31471 -142.026849 
L 178.545464 -137.541302 
L 157.776219 -129.04355 
L 137.006973 -120.233461 
L 116.237727 -111.590585 
z
" style="stroke: #2ca02c; stroke-opacity: 0.2"/>
    </defs>
    <g clip-path="url(#pab25b17588)">
     <use xlink:href="#m3288205066" x="0" y="576" style="fill: #2ca02c; fill-opacity: 0.2; stroke: #2ca02c; stroke-opacity: 0.2"/>
    </g>
   </g>
   <g id="matplotlib.axis_1">
    <g id="xtick_1">
     <g id="line2d_1">
      <defs>
       <path id="m6ac65649d6" d="M 0 0 
L 0 3.5 
" style="stroke: #000000; stroke-width: 0.8"/>
      </defs>
      <g>
       <use xlink:href="#m6ac65649d6" x="105.853104" y="490.552" style="stroke: #000000; stroke-width: 0.8"/>
      </g>
     </g>
     <g id="text_1">
      <!-- 0 -->
      <g transform="translate(99.490604 512.748875) scale(0.2 -0.2)">
       <defs>
        <path id="DejaVuSans-30" d="M 2034 4250 
Q 1547 4250 1301 3770 
Q 1056 3291 1056 2328 
Q 1056 1369 1301 889 
Q 1547 409 2034 409 
Q 2525 409 2770 889 
Q 3016 1369 3016 2328 
Q 3016 3291 2770 3770 
Q 2525 4250 2034 4250 
z
M 2034 4750 
Q 2819 4750 3233 4129 
Q 3647 3509 3647 2328 
Q 3647 1150 3233 529 
Q 2819 -91 2034 -91 
Q 1250 -91 836 529 
Q 422 1150 422 2328 
Q 422 3509 836 4129 
Q 1250 4750 2034 4750 
z
" transform="scale(0.015625)"/>
       </defs>
       <use xlink:href="#DejaVuSans-30"/>
      </g>
     </g>
    </g>
    <g id="xtick_2">
     <g id="line2d_2">
      <g>
       <use xlink:href="#m6ac65649d6" x="313.545561" y="490.552" style="stroke: #000000; stroke-width: 0.8"/>
      </g>
     </g>
     <g id="text_2">
      <!-- 20 -->
      <g transform="translate(300.820561 512.748875) scale(0.2 -0.2)">
       <defs>
        <path id="DejaVuSans-32" d="M 1228 531 
L 3431 531 
L 3431 0 
L 469 0 
L 469 531 
Q 828 903 1448 1529 
Q 2069 2156 2228 2338 
Q 2531 2678 2651 2914 
Q 2772 3150 2772 3378 
Q 2772 3750 2511 3984 
Q 2250 4219 1831 4219 
Q 1534 4219 1204 4116 
Q 875 4013 500 3803 
L 500 4441 
Q 881 4594 1212 4672 
Q 1544 4750 1819 4750 
Q 2544 4750 2975 4387 
Q 3406 4025 3406 3419 
Q 3406 3131 3298 2873 
Q 3191 2616 2906 2266 
Q 2828 2175 2409 1742 
Q 1991 1309 1228 531 
z
" transform="scale(0.015625)"/>
       </defs>
       <use xlink:href="#DejaVuSans-32"/>
       <use xlink:href="#DejaVuSans-30" x="63.623047"/>
      </g>
     </g>
    </g>
    <g id="xtick_3">
     <g id="line2d_3">
      <g>
       <use xlink:href="#m6ac65649d6" x="521.238017" y="490.552" style="stroke: #000000; stroke-width: 0.8"/>
      </g>
     </g>
     <g id="text_3">
      <!-- 40 -->
      <g transform="translate(508.513017 512.748875) scale(0.2 -0.2)">
       <defs>
        <path id="DejaVuSans-34" d="M 2419 4116 
L 825 1625 
L 2419 1625 
L 2419 4116 
z
M 2253 4666 
L 3047 4666 
L 3047 1625 
L 3713 1625 
L 3713 1100 
L 3047 1100 
L 3047 0 
L 2419 0 
L 2419 1100 
L 313 1100 
L 313 1709 
L 2253 4666 
z
" transform="scale(0.015625)"/>
       </defs>
       <use xlink:href="#DejaVuSans-34"/>
       <use xlink:href="#DejaVuSans-30" x="63.623047"/>
      </g>
     </g>
    </g>
    <g id="xtick_4">
     <g id="line2d_4">
      <g>
       <use xlink:href="#m6ac65649d6" x="728.930474" y="490.552" style="stroke: #000000; stroke-width: 0.8"/>
      </g>
     </g>
     <g id="text_4">
      <!-- 60 -->
      <g transform="translate(716.205474 512.748875) scale(0.2 -0.2)">
       <defs>
        <path id="DejaVuSans-36" d="M 2113 2584 
Q 1688 2584 1439 2293 
Q 1191 2003 1191 1497 
Q 1191 994 1439 701 
Q 1688 409 2113 409 
Q 2538 409 2786 701 
Q 3034 994 3034 1497 
Q 3034 2003 2786 2293 
Q 2538 2584 2113 2584 
z
M 3366 4563 
L 3366 3988 
Q 3128 4100 2886 4159 
Q 2644 4219 2406 4219 
Q 1781 4219 1451 3797 
Q 1122 3375 1075 2522 
Q 1259 2794 1537 2939 
Q 1816 3084 2150 3084 
Q 2853 3084 3261 2657 
Q 3669 2231 3669 1497 
Q 3669 778 3244 343 
Q 2819 -91 2113 -91 
Q 1303 -91 875 529 
Q 447 1150 447 2328 
Q 447 3434 972 4092 
Q 1497 4750 2381 4750 
Q 2619 4750 2861 4703 
Q 3103 4656 3366 4563 
z
" transform="scale(0.015625)"/>
       </defs>
       <use xlink:href="#DejaVuSans-36"/>
       <use xlink:href="#DejaVuSans-30" x="63.623047"/>
      </g>
     </g>
    </g>
    <g id="xtick_5">
     <g id="line2d_5">
      <g>
       <use xlink:href="#m6ac65649d6" x="936.62293" y="490.552" style="stroke: #000000; stroke-width: 0.8"/>
      </g>
     </g>
     <g id="text_5">
      <!-- 80 -->
      <g transform="translate(923.89793 512.748875) scale(0.2 -0.2)">
       <defs>
        <path id="DejaVuSans-38" d="M 2034 2216 
Q 1584 2216 1326 1975 
Q 1069 1734 1069 1313 
Q 1069 891 1326 650 
Q 1584 409 2034 409 
Q 2484 409 2743 651 
Q 3003 894 3003 1313 
Q 3003 1734 2745 1975 
Q 2488 2216 2034 2216 
z
M 1403 2484 
Q 997 2584 770 2862 
Q 544 3141 544 3541 
Q 544 4100 942 4425 
Q 1341 4750 2034 4750 
Q 2731 4750 3128 4425 
Q 3525 4100 3525 3541 
Q 3525 3141 3298 2862 
Q 3072 2584 2669 2484 
Q 3125 2378 3379 2068 
Q 3634 1759 3634 1313 
Q 3634 634 3220 271 
Q 2806 -91 2034 -91 
Q 1263 -91 848 271 
Q 434 634 434 1313 
Q 434 1759 690 2068 
Q 947 2378 1403 2484 
z
M 1172 3481 
Q 1172 3119 1398 2916 
Q 1625 2713 2034 2713 
Q 2441 2713 2670 2916 
Q 2900 3119 2900 3481 
Q 2900 3844 2670 4047 
Q 2441 4250 2034 4250 
Q 1625 4250 1398 4047 
Q 1172 3844 1172 3481 
z
" transform="scale(0.015625)"/>
       </defs>
       <use xlink:href="#DejaVuSans-38"/>
       <use xlink:href="#DejaVuSans-30" x="63.623047"/>
      </g>
     </g>
    </g>
    <g id="text_6">
     <!-- Percentile Threshold -->
     <g transform="translate(502.535312 536.105125) scale(0.2 -0.2)">
      <defs>
       <path id="DejaVuSans-50" d="M 1259 4147 
L 1259 2394 
L 2053 2394 
Q 2494 2394 2734 2622 
Q 2975 2850 2975 3272 
Q 2975 3691 2734 3919 
Q 2494 4147 2053 4147 
L 1259 4147 
z
M 628 4666 
L 2053 4666 
Q 2838 4666 3239 4311 
Q 3641 3956 3641 3272 
Q 3641 2581 3239 2228 
Q 2838 1875 2053 1875 
L 1259 1875 
L 1259 0 
L 628 0 
L 628 4666 
z
" transform="scale(0.015625)"/>
       <path id="DejaVuSans-65" d="M 3597 1894 
L 3597 1613 
L 953 1613 
Q 991 1019 1311 708 
Q 1631 397 2203 397 
Q 2534 397 2845 478 
Q 3156 559 3463 722 
L 3463 178 
Q 3153 47 2828 -22 
Q 2503 -91 2169 -91 
Q 1331 -91 842 396 
Q 353 884 353 1716 
Q 353 2575 817 3079 
Q 1281 3584 2069 3584 
Q 2775 3584 3186 3129 
Q 3597 2675 3597 1894 
z
M 3022 2063 
Q 3016 2534 2758 2815 
Q 2500 3097 2075 3097 
Q 1594 3097 1305 2825 
Q 1016 2553 972 2059 
L 3022 2063 
z
" transform="scale(0.015625)"/>
       <path id="DejaVuSans-72" d="M 2631 2963 
Q 2534 3019 2420 3045 
Q 2306 3072 2169 3072 
Q 1681 3072 1420 2755 
Q 1159 2438 1159 1844 
L 1159 0 
L 581 0 
L 581 3500 
L 1159 3500 
L 1159 2956 
Q 1341 3275 1631 3429 
Q 1922 3584 2338 3584 
Q 2397 3584 2469 3576 
Q 2541 3569 2628 3553 
L 2631 2963 
z
" transform="scale(0.015625)"/>
       <path id="DejaVuSans-63" d="M 3122 3366 
L 3122 2828 
Q 2878 2963 2633 3030 
Q 2388 3097 2138 3097 
Q 1578 3097 1268 2742 
Q 959 2388 959 1747 
Q 959 1106 1268 751 
Q 1578 397 2138 397 
Q 2388 397 2633 464 
Q 2878 531 3122 666 
L 3122 134 
Q 2881 22 2623 -34 
Q 2366 -91 2075 -91 
Q 1284 -91 818 406 
Q 353 903 353 1747 
Q 353 2603 823 3093 
Q 1294 3584 2113 3584 
Q 2378 3584 2631 3529 
Q 2884 3475 3122 3366 
z
" transform="scale(0.015625)"/>
       <path id="DejaVuSans-6e" d="M 3513 2113 
L 3513 0 
L 2938 0 
L 2938 2094 
Q 2938 2591 2744 2837 
Q 2550 3084 2163 3084 
Q 1697 3084 1428 2787 
Q 1159 2491 1159 1978 
L 1159 0 
L 581 0 
L 581 3500 
L 1159 3500 
L 1159 2956 
Q 1366 3272 1645 3428 
Q 1925 3584 2291 3584 
Q 2894 3584 3203 3211 
Q 3513 2838 3513 2113 
z
" transform="scale(0.015625)"/>
       <path id="DejaVuSans-74" d="M 1172 4494 
L 1172 3500 
L 2356 3500 
L 2356 3053 
L 1172 3053 
L 1172 1153 
Q 1172 725 1289 603 
Q 1406 481 1766 481 
L 2356 481 
L 2356 0 
L 1766 0 
Q 1100 0 847 248 
Q 594 497 594 1153 
L 594 3053 
L 172 3053 
L 172 3500 
L 594 3500 
L 594 4494 
L 1172 4494 
z
" transform="scale(0.015625)"/>
       <path id="DejaVuSans-69" d="M 603 3500 
L 1178 3500 
L 1178 0 
L 603 0 
L 603 3500 
z
M 603 4863 
L 1178 4863 
L 1178 4134 
L 603 4134 
L 603 4863 
z
" transform="scale(0.015625)"/>
       <path id="DejaVuSans-6c" d="M 603 4863 
L 1178 4863 
L 1178 0 
L 603 0 
L 603 4863 
z
" transform="scale(0.015625)"/>
       <path id="DejaVuSans-20" transform="scale(0.015625)"/>
       <path id="DejaVuSans-54" d="M -19 4666 
L 3928 4666 
L 3928 4134 
L 2272 4134 
L 2272 0 
L 1638 0 
L 1638 4134 
L -19 4134 
L -19 4666 
z
" transform="scale(0.015625)"/>
       <path id="DejaVuSans-68" d="M 3513 2113 
L 3513 0 
L 2938 0 
L 2938 2094 
Q 2938 2591 2744 2837 
Q 2550 3084 2163 3084 
Q 1697 3084 1428 2787 
Q 1159 2491 1159 1978 
L 1159 0 
L 581 0 
L 581 4863 
L 1159 4863 
L 1159 2956 
Q 1366 3272 1645 3428 
Q 1925 3584 2291 3584 
Q 2894 3584 3203 3211 
Q 3513 2838 3513 2113 
z
" transform="scale(0.015625)"/>
       <path id="DejaVuSans-73" d="M 2834 3397 
L 2834 2853 
Q 2591 2978 2328 3040 
Q 2066 3103 1784 3103 
Q 1356 3103 1142 2972 
Q 928 2841 928 2578 
Q 928 2378 1081 2264 
Q 1234 2150 1697 2047 
L 1894 2003 
Q 2506 1872 2764 1633 
Q 3022 1394 3022 966 
Q 3022 478 2636 193 
Q 2250 -91 1575 -91 
Q 1294 -91 989 -36 
Q 684 19 347 128 
L 347 722 
Q 666 556 975 473 
Q 1284 391 1588 391 
Q 1994 391 2212 530 
Q 2431 669 2431 922 
Q 2431 1156 2273 1281 
Q 2116 1406 1581 1522 
L 1381 1569 
Q 847 1681 609 1914 
Q 372 2147 372 2553 
Q 372 3047 722 3315 
Q 1072 3584 1716 3584 
Q 2034 3584 2315 3537 
Q 2597 3491 2834 3397 
z
" transform="scale(0.015625)"/>
       <path id="DejaVuSans-6f" d="M 1959 3097 
Q 1497 3097 1228 2736 
Q 959 2375 959 1747 
Q 959 1119 1226 758 
Q 1494 397 1959 397 
Q 2419 397 2687 759 
Q 2956 1122 2956 1747 
Q 2956 2369 2687 2733 
Q 2419 3097 1959 3097 
z
M 1959 3584 
Q 2709 3584 3137 3096 
Q 3566 2609 3566 1747 
Q 3566 888 3137 398 
Q 2709 -91 1959 -91 
Q 1206 -91 779 398 
Q 353 888 353 1747 
Q 353 2609 779 3096 
Q 1206 3584 1959 3584 
z
" transform="scale(0.015625)"/>
       <path id="DejaVuSans-64" d="M 2906 2969 
L 2906 4863 
L 3481 4863 
L 3481 0 
L 2906 0 
L 2906 525 
Q 2725 213 2448 61 
Q 2172 -91 1784 -91 
Q 1150 -91 751 415 
Q 353 922 353 1747 
Q 353 2572 751 3078 
Q 1150 3584 1784 3584 
Q 2172 3584 2448 3432 
Q 2725 3281 2906 2969 
z
M 947 1747 
Q 947 1113 1208 752 
Q 1469 391 1925 391 
Q 2381 391 2643 752 
Q 2906 1113 2906 1747 
Q 2906 2381 2643 2742 
Q 2381 3103 1925 3103 
Q 1469 3103 1208 2742 
Q 947 2381 947 1747 
z
" transform="scale(0.015625)"/>
      </defs>
      <use xlink:href="#DejaVuSans-50"/>
      <use xlink:href="#DejaVuSans-65" x="56.677734"/>
      <use xlink:href="#DejaVuSans-72" x="118.201172"/>
      <use xlink:href="#DejaVuSans-63" x="157.064453"/>
      <use xlink:href="#DejaVuSans-65" x="212.044922"/>
      <use xlink:href="#DejaVuSans-6e" x="273.568359"/>
      <use xlink:href="#DejaVuSans-74" x="336.947266"/>
      <use xlink:href="#DejaVuSans-69" x="376.15625"/>
      <use xlink:href="#DejaVuSans-6c" x="403.939453"/>
      <use xlink:href="#DejaVuSans-65" x="431.722656"/>
      <use xlink:href="#DejaVuSans-20" x="493.246094"/>
      <use xlink:href="#DejaVuSans-54" x="525.033203"/>
      <use xlink:href="#DejaVuSans-68" x="586.117188"/>
      <use xlink:href="#DejaVuSans-72" x="649.496094"/>
      <use xlink:href="#DejaVuSans-65" x="688.359375"/>
      <use xlink:href="#DejaVuSans-73" x="749.882812"/>
      <use xlink:href="#DejaVuSans-68" x="801.982422"/>
      <use xlink:href="#DejaVuSans-6f" x="865.361328"/>
      <use xlink:href="#DejaVuSans-6c" x="926.542969"/>
      <use xlink:href="#DejaVuSans-64" x="954.326172"/>
     </g>
     <!-- (Using "merge" Threshold Handling) -->
     <g transform="translate(423.600937 558.50075) scale(0.2 -0.2)">
      <defs>
       <path id="DejaVuSans-28" d="M 1984 4856 
Q 1566 4138 1362 3434 
Q 1159 2731 1159 2009 
Q 1159 1288 1364 580 
Q 1569 -128 1984 -844 
L 1484 -844 
Q 1016 -109 783 600 
Q 550 1309 550 2009 
Q 550 2706 781 3412 
Q 1013 4119 1484 4856 
L 1984 4856 
z
" transform="scale(0.015625)"/>
       <path id="DejaVuSans-55" d="M 556 4666 
L 1191 4666 
L 1191 1831 
Q 1191 1081 1462 751 
Q 1734 422 2344 422 
Q 2950 422 3222 751 
Q 3494 1081 3494 1831 
L 3494 4666 
L 4128 4666 
L 4128 1753 
Q 4128 841 3676 375 
Q 3225 -91 2344 -91 
Q 1459 -91 1007 375 
Q 556 841 556 1753 
L 556 4666 
z
" transform="scale(0.015625)"/>
       <path id="DejaVuSans-67" d="M 2906 1791 
Q 2906 2416 2648 2759 
Q 2391 3103 1925 3103 
Q 1463 3103 1205 2759 
Q 947 2416 947 1791 
Q 947 1169 1205 825 
Q 1463 481 1925 481 
Q 2391 481 2648 825 
Q 2906 1169 2906 1791 
z
M 3481 434 
Q 3481 -459 3084 -895 
Q 2688 -1331 1869 -1331 
Q 1566 -1331 1297 -1286 
Q 1028 -1241 775 -1147 
L 775 -588 
Q 1028 -725 1275 -790 
Q 1522 -856 1778 -856 
Q 2344 -856 2625 -561 
Q 2906 -266 2906 331 
L 2906 616 
Q 2728 306 2450 153 
Q 2172 0 1784 0 
Q 1141 0 747 490 
Q 353 981 353 1791 
Q 353 2603 747 3093 
Q 1141 3584 1784 3584 
Q 2172 3584 2450 3431 
Q 2728 3278 2906 2969 
L 2906 3500 
L 3481 3500 
L 3481 434 
z
" transform="scale(0.015625)"/>
       <path id="DejaVuSans-22" d="M 1147 4666 
L 1147 2931 
L 616 2931 
L 616 4666 
L 1147 4666 
z
M 2328 4666 
L 2328 2931 
L 1797 2931 
L 1797 4666 
L 2328 4666 
z
" transform="scale(0.015625)"/>
       <path id="DejaVuSans-6d" d="M 3328 2828 
Q 3544 3216 3844 3400 
Q 4144 3584 4550 3584 
Q 5097 3584 5394 3201 
Q 5691 2819 5691 2113 
L 5691 0 
L 5113 0 
L 5113 2094 
Q 5113 2597 4934 2840 
Q 4756 3084 4391 3084 
Q 3944 3084 3684 2787 
Q 3425 2491 3425 1978 
L 3425 0 
L 2847 0 
L 2847 2094 
Q 2847 2600 2669 2842 
Q 2491 3084 2119 3084 
Q 1678 3084 1418 2786 
Q 1159 2488 1159 1978 
L 1159 0 
L 581 0 
L 581 3500 
L 1159 3500 
L 1159 2956 
Q 1356 3278 1631 3431 
Q 1906 3584 2284 3584 
Q 2666 3584 2933 3390 
Q 3200 3197 3328 2828 
z
" transform="scale(0.015625)"/>
       <path id="DejaVuSans-48" d="M 628 4666 
L 1259 4666 
L 1259 2753 
L 3553 2753 
L 3553 4666 
L 4184 4666 
L 4184 0 
L 3553 0 
L 3553 2222 
L 1259 2222 
L 1259 0 
L 628 0 
L 628 4666 
z
" transform="scale(0.015625)"/>
       <path id="DejaVuSans-61" d="M 2194 1759 
Q 1497 1759 1228 1600 
Q 959 1441 959 1056 
Q 959 750 1161 570 
Q 1363 391 1709 391 
Q 2188 391 2477 730 
Q 2766 1069 2766 1631 
L 2766 1759 
L 2194 1759 
z
M 3341 1997 
L 3341 0 
L 2766 0 
L 2766 531 
Q 2569 213 2275 61 
Q 1981 -91 1556 -91 
Q 1019 -91 701 211 
Q 384 513 384 1019 
Q 384 1609 779 1909 
Q 1175 2209 1959 2209 
L 2766 2209 
L 2766 2266 
Q 2766 2663 2505 2880 
Q 2244 3097 1772 3097 
Q 1472 3097 1187 3025 
Q 903 2953 641 2809 
L 641 3341 
Q 956 3463 1253 3523 
Q 1550 3584 1831 3584 
Q 2591 3584 2966 3190 
Q 3341 2797 3341 1997 
z
" transform="scale(0.015625)"/>
       <path id="DejaVuSans-29" d="M 513 4856 
L 1013 4856 
Q 1481 4119 1714 3412 
Q 1947 2706 1947 2009 
Q 1947 1309 1714 600 
Q 1481 -109 1013 -844 
L 513 -844 
Q 928 -128 1133 580 
Q 1338 1288 1338 2009 
Q 1338 2731 1133 3434 
Q 928 4138 513 4856 
z
" transform="scale(0.015625)"/>
      </defs>
      <use xlink:href="#DejaVuSans-28"/>
      <use xlink:href="#DejaVuSans-55" x="39.013672"/>
      <use xlink:href="#DejaVuSans-73" x="112.207031"/>
      <use xlink:href="#DejaVuSans-69" x="164.306641"/>
      <use xlink:href="#DejaVuSans-6e" x="192.089844"/>
      <use xlink:href="#DejaVuSans-67" x="255.46875"/>
      <use xlink:href="#DejaVuSans-20" x="318.945312"/>
      <use xlink:href="#DejaVuSans-22" x="350.732422"/>
      <use xlink:href="#DejaVuSans-6d" x="396.728516"/>
      <use xlink:href="#DejaVuSans-65" x="494.140625"/>
      <use xlink:href="#DejaVuSans-72" x="555.664062"/>
      <use xlink:href="#DejaVuSans-67" x="595.027344"/>
      <use xlink:href="#DejaVuSans-65" x="658.503906"/>
      <use xlink:href="#DejaVuSans-22" x="720.027344"/>
      <use xlink:href="#DejaVuSans-20" x="766.023438"/>
      <use xlink:href="#DejaVuSans-54" x="797.810547"/>
      <use xlink:href="#DejaVuSans-68" x="858.894531"/>
      <use xlink:href="#DejaVuSans-72" x="922.273438"/>
      <use xlink:href="#DejaVuSans-65" x="961.136719"/>
      <use xlink:href="#DejaVuSans-73" x="1022.660156"/>
      <use xlink:href="#DejaVuSans-68" x="1074.759766"/>
      <use xlink:href="#DejaVuSans-6f" x="1138.138672"/>
      <use xlink:href="#DejaVuSans-6c" x="1199.320312"/>
      <use xlink:href="#DejaVuSans-64" x="1227.103516"/>
      <use xlink:href="#DejaVuSans-20" x="1290.580078"/>
      <use xlink:href="#DejaVuSans-48" x="1322.367188"/>
      <use xlink:href="#DejaVuSans-61" x="1397.5625"/>
      <use xlink:href="#DejaVuSans-6e" x="1458.841797"/>
      <use xlink:href="#DejaVuSans-64" x="1522.220703"/>
      <use xlink:href="#DejaVuSans-6c" x="1585.697266"/>
      <use xlink:href="#DejaVuSans-69" x="1613.480469"/>
      <use xlink:href="#DejaVuSans-6e" x="1641.263672"/>
      <use xlink:href="#DejaVuSans-67" x="1704.642578"/>
      <use xlink:href="#DejaVuSans-29" x="1768.119141"/>
     </g>
    </g>
   </g>
   <g id="matplotlib.axis_2">
    <g id="ytick_1">
     <g id="line2d_6">
      <defs>
       <path id="mbc2f92ea78" d="M 0 0 
L -3.5 0 
" style="stroke: #000000; stroke-width: 0.8"/>
      </defs>
      <g>
       <use xlink:href="#mbc2f92ea78" x="67.43" y="460.488272" style="stroke: #000000; stroke-width: 0.8"/>
      </g>
     </g>
     <g id="text_7">
      <!-- 5 -->
      <g transform="translate(47.705 468.08671) scale(0.2 -0.2)">
       <defs>
        <path id="DejaVuSans-35" d="M 691 4666 
L 3169 4666 
L 3169 4134 
L 1269 4134 
L 1269 2991 
Q 1406 3038 1543 3061 
Q 1681 3084 1819 3084 
Q 2600 3084 3056 2656 
Q 3513 2228 3513 1497 
Q 3513 744 3044 326 
Q 2575 -91 1722 -91 
Q 1428 -91 1123 -41 
Q 819 9 494 109 
L 494 744 
Q 775 591 1075 516 
Q 1375 441 1709 441 
Q 2250 441 2565 725 
Q 2881 1009 2881 1497 
Q 2881 1984 2565 2268 
Q 2250 2553 1709 2553 
Q 1456 2553 1204 2497 
Q 953 2441 691 2322 
L 691 4666 
z
" transform="scale(0.015625)"/>
       </defs>
       <use xlink:href="#DejaVuSans-35"/>
      </g>
     </g>
    </g>
    <g id="ytick_2">
     <g id="line2d_7">
      <g>
       <use xlink:href="#mbc2f92ea78" x="67.43" y="363.213074" style="stroke: #000000; stroke-width: 0.8"/>
      </g>
     </g>
     <g id="text_8">
      <!-- 10 -->
      <g transform="translate(34.98 370.811512) scale(0.2 -0.2)">
       <defs>
        <path id="DejaVuSans-31" d="M 794 531 
L 1825 531 
L 1825 4091 
L 703 3866 
L 703 4441 
L 1819 4666 
L 2450 4666 
L 2450 531 
L 3481 531 
L 3481 0 
L 794 0 
L 794 531 
z
" transform="scale(0.015625)"/>
       </defs>
       <use xlink:href="#DejaVuSans-31"/>
       <use xlink:href="#DejaVuSans-30" x="63.623047"/>
      </g>
     </g>
    </g>
    <g id="ytick_3">
     <g id="line2d_8">
      <g>
       <use xlink:href="#mbc2f92ea78" x="67.43" y="265.937876" style="stroke: #000000; stroke-width: 0.8"/>
      </g>
     </g>
     <g id="text_9">
      <!-- 15 -->
      <g transform="translate(34.98 273.536313) scale(0.2 -0.2)">
       <use xlink:href="#DejaVuSans-31"/>
       <use xlink:href="#DejaVuSans-35" x="63.623047"/>
      </g>
     </g>
    </g>
    <g id="ytick_4">
     <g id="line2d_9">
      <g>
       <use xlink:href="#mbc2f92ea78" x="67.43" y="168.662678" style="stroke: #000000; stroke-width: 0.8"/>
      </g>
     </g>
     <g id="text_10">
      <!-- 20 -->
      <g transform="translate(34.98 176.261115) scale(0.2 -0.2)">
       <use xlink:href="#DejaVuSans-32"/>
       <use xlink:href="#DejaVuSans-30" x="63.623047"/>
      </g>
     </g>
    </g>
    <g id="ytick_5">
     <g id="line2d_10">
      <g>
       <use xlink:href="#mbc2f92ea78" x="67.43" y="71.387479" style="stroke: #000000; stroke-width: 0.8"/>
      </g>
     </g>
     <g id="text_11">
      <!-- 25 -->
      <g transform="translate(34.98 78.985917) scale(0.2 -0.2)">
       <use xlink:href="#DejaVuSans-32"/>
       <use xlink:href="#DejaVuSans-35" x="63.623047"/>
      </g>
     </g>
    </g>
    <g id="text_12">
     <!-- MAE -->
     <g transform="translate(26.820625 272.4635) rotate(-90) scale(0.2 -0.2)">
      <defs>
       <path id="DejaVuSans-4d" d="M 628 4666 
L 1569 4666 
L 2759 1491 
L 3956 4666 
L 4897 4666 
L 4897 0 
L 4281 0 
L 4281 4097 
L 3078 897 
L 2444 897 
L 1241 4097 
L 1241 0 
L 628 0 
L 628 4666 
z
" transform="scale(0.015625)"/>
       <path id="DejaVuSans-41" d="M 2188 4044 
L 1331 1722 
L 3047 1722 
L 2188 4044 
z
M 1831 4666 
L 2547 4666 
L 4325 0 
L 3669 0 
L 3244 1197 
L 1141 1197 
L 716 0 
L 50 0 
L 1831 4666 
z
" transform="scale(0.015625)"/>
       <path id="DejaVuSans-45" d="M 628 4666 
L 3578 4666 
L 3578 4134 
L 1259 4134 
L 1259 2753 
L 3481 2753 
L 3481 2222 
L 1259 2222 
L 1259 531 
L 3634 531 
L 3634 0 
L 628 0 
L 628 4666 
z
" transform="scale(0.015625)"/>
      </defs>
      <use xlink:href="#DejaVuSans-4d"/>
      <use xlink:href="#DejaVuSans-41" x="86.279297"/>
      <use xlink:href="#DejaVuSans-45" x="154.6875"/>
     </g>
    </g>
   </g>
   <g id="line2d_11">
    <path d="M 116.237727 455.529524 
L 137.006973 452.505578 
L 157.776219 447.889116 
L 178.545464 439.140124 
L 199.31471 435.064699 
L 220.083956 420.375147 
L 240.853201 419.132024 
L 261.622447 412.384137 
L 282.391692 402.395544 
L 303.160938 404.871455 
L 323.930184 394.186257 
L 344.699429 393.945711 
L 365.468675 390.564118 
L 386.237921 384.510559 
L 407.007166 378.192394 
L 427.776412 378.68461 
L 448.545658 369.850642 
L 469.314903 364.682894 
L 490.084149 364.231903 
L 510.853395 358.079648 
L 531.62264 358.865996 
L 552.391886 358.947455 
L 573.161132 357.388286 
L 593.930377 359.334134 
L 614.699623 361.391917 
L 635.468868 352.317221 
L 656.238114 338.299729 
L 677.00736 357.453329 
L 697.776605 338.452073 
L 718.545851 337.58488 
L 739.315097 337.061855 
L 760.084342 335.459223 
L 780.853588 323.247676 
L 801.622834 332.313728 
L 822.392079 323.695875 
L 843.161325 313.652289 
L 863.930571 322.63514 
L 884.699816 308.516209 
L 905.469062 322.422901 
L 926.238308 267.68063 
L 947.007553 300.725765 
L 967.776799 178.675546 
L 988.546044 176.844916 
L 1009.31529 158.102304 
L 1030.084536 168.046663 
L 1050.853781 168.732005 
L 1071.623027 163.636956 
L 1092.392273 167.675511 
" clip-path="url(#pab25b17588)" style="fill: none; stroke: #1f77b4; stroke-width: 1.5; stroke-linecap: square"/>
   </g>
   <g id="line2d_12">
    <path d="M 116.237727 466.514141 
L 137.006973 460.415907 
L 157.776219 456.414933 
L 178.545464 448.223439 
L 199.31471 442.860266 
L 220.083956 429.0847 
L 240.853201 422.598173 
L 261.622447 419.276436 
L 282.391692 410.909044 
L 303.160938 408.686797 
L 323.930184 403.669023 
L 344.699429 397.858777 
L 365.468675 393.865751 
L 386.237921 390.068717 
L 407.007166 391.232329 
L 427.776412 389.270876 
L 448.545658 377.461676 
L 469.314903 374.167695 
L 490.084149 373.848123 
L 510.853395 365.517439 
L 531.62264 367.663793 
L 552.391886 367.890785 
L 573.161132 367.355719 
L 593.930377 366.409621 
L 614.699623 362.044118 
L 635.468868 352.61696 
L 656.238114 341.918405 
L 677.00736 378.46354 
L 697.776605 348.147727 
L 718.545851 344.854309 
L 739.315097 339.197702 
L 760.084342 339.576251 
L 780.853588 332.859017 
L 801.622834 342.282808 
L 822.392079 312.51919 
L 843.161325 297.907578 
L 863.930571 306.596708 
L 884.699816 289.227673 
L 905.469062 313.645716 
L 926.238308 265.668442 
L 947.007553 313.352881 
L 967.776799 171.961561 
L 988.546044 178.762851 
L 1009.31529 145.377604 
L 1030.084536 154.40141 
L 1050.853781 151.890441 
L 1071.623027 157.817 
L 1092.392273 160.866911 
" clip-path="url(#pab25b17588)" style="fill: none; stroke: #ff7f0e; stroke-width: 1.5; stroke-linecap: square"/>
   </g>
   <g id="line2d_13">
    <path d="M 116.237727 465.629405 
L 137.006973 459.240358 
L 157.776219 451.340443 
L 178.545464 444.381556 
L 199.31471 439.581255 
L 220.083956 423.910133 
L 240.853201 422.567108 
L 261.622447 414.136918 
L 282.391692 409.30876 
L 303.160938 403.291233 
L 323.930184 399.117387 
L 344.699429 400.777997 
L 365.468675 395.372197 
L 386.237921 384.201268 
L 407.007166 386.417254 
L 427.776412 381.179979 
L 448.545658 370.248339 
L 469.314903 364.82225 
L 490.084149 363.490789 
L 510.853395 358.777633 
L 531.62264 358.746645 
L 552.391886 358.679291 
L 573.161132 357.519413 
L 593.930377 359.10604 
L 614.699623 356.390469 
L 635.468868 349.124888 
L 656.238114 329.808482 
L 677.00736 356.167587 
L 697.776605 336.826865 
L 718.545851 338.573354 
L 739.315097 338.111424 
L 760.084342 331.108489 
L 780.853588 320.722632 
L 801.622834 324.509744 
L 822.392079 310.502534 
L 843.161325 305.966788 
L 863.930571 311.21543 
L 884.699816 298.754456 
L 905.469062 314.408216 
L 926.238308 247.075083 
L 947.007553 295.415784 
L 967.776799 150.134546 
L 988.546044 165.474662 
L 1009.31529 136.786563 
L 1030.084536 140.567292 
L 1050.853781 138.738575 
L 1071.623027 131.253531 
L 1092.392273 133.579878 
" clip-path="url(#pab25b17588)" style="fill: none; stroke: #2ca02c; stroke-width: 1.5; stroke-linecap: square"/>
   </g>
   <g id="line2d_14"/>
   <g id="line2d_15"/>
   <g id="line2d_16"/>
   <g id="patch_3">
    <path d="M 67.43 490.552 
L 67.43 10.8 
" style="fill: none; stroke: #000000; stroke-width: 0.8; stroke-linejoin: miter; stroke-linecap: square"/>
   </g>
   <g id="patch_4">
    <path d="M 1141.2 490.552 
L 1141.2 10.8 
" style="fill: none; stroke: #000000; stroke-width: 0.8; stroke-linejoin: miter; stroke-linecap: square"/>
   </g>
   <g id="patch_5">
    <path d="M 67.43 490.552 
L 1141.2 490.552 
" style="fill: none; stroke: #000000; stroke-width: 0.8; stroke-linejoin: miter; stroke-linecap: square"/>
   </g>
   <g id="patch_6">
    <path d="M 67.43 10.8 
L 1141.2 10.8 
" style="fill: none; stroke: #000000; stroke-width: 0.8; stroke-linejoin: miter; stroke-linecap: square"/>
   </g>
   <g id="legend_1">
    <g id="patch_7">
     <path d="M 78.63 482.552 
L 159.615 482.552 
Q 162.815 482.552 162.815 479.352 
L 162.815 410.497 
Q 162.815 407.297 159.615 407.297 
L 78.63 407.297 
Q 75.43 407.297 75.43 410.497 
L 75.43 479.352 
Q 75.43 482.552 78.63 482.552 
z
" style="fill: #ffffff; opacity: 0.8; stroke: #cccccc; stroke-linejoin: miter"/>
    </g>
    <g id="line2d_17">
     <path d="M 81.83 420.2545 
L 97.83 420.2545 
L 113.83 420.2545 
" style="fill: none; stroke: #1f77b4; stroke-width: 1.5; stroke-linecap: square"/>
    </g>
    <g id="text_13">
     <!-- gbr -->
     <g transform="translate(126.63 425.8545) scale(0.16 -0.16)">
      <defs>
       <path id="DejaVuSans-62" d="M 3116 1747 
Q 3116 2381 2855 2742 
Q 2594 3103 2138 3103 
Q 1681 3103 1420 2742 
Q 1159 2381 1159 1747 
Q 1159 1113 1420 752 
Q 1681 391 2138 391 
Q 2594 391 2855 752 
Q 3116 1113 3116 1747 
z
M 1159 2969 
Q 1341 3281 1617 3432 
Q 1894 3584 2278 3584 
Q 2916 3584 3314 3078 
Q 3713 2572 3713 1747 
Q 3713 922 3314 415 
Q 2916 -91 2278 -91 
Q 1894 -91 1617 61 
Q 1341 213 1159 525 
L 1159 0 
L 581 0 
L 581 4863 
L 1159 4863 
L 1159 2969 
z
" transform="scale(0.015625)"/>
      </defs>
      <use xlink:href="#DejaVuSans-67"/>
      <use xlink:href="#DejaVuSans-62" x="63.476562"/>
      <use xlink:href="#DejaVuSans-72" x="126.953125"/>
     </g>
    </g>
    <g id="line2d_18">
     <path d="M 81.83 443.7395 
L 97.83 443.7395 
L 113.83 443.7395 
" style="fill: none; stroke: #ff7f0e; stroke-width: 1.5; stroke-linecap: square"/>
    </g>
    <g id="text_14">
     <!-- xgb -->
     <g transform="translate(126.63 449.3395) scale(0.16 -0.16)">
      <defs>
       <path id="DejaVuSans-78" d="M 3513 3500 
L 2247 1797 
L 3578 0 
L 2900 0 
L 1881 1375 
L 863 0 
L 184 0 
L 1544 1831 
L 300 3500 
L 978 3500 
L 1906 2253 
L 2834 3500 
L 3513 3500 
z
" transform="scale(0.015625)"/>
      </defs>
      <use xlink:href="#DejaVuSans-78"/>
      <use xlink:href="#DejaVuSans-67" x="59.179688"/>
      <use xlink:href="#DejaVuSans-62" x="122.65625"/>
     </g>
    </g>
    <g id="line2d_19">
     <path d="M 81.83 467.2245 
L 97.83 467.2245 
L 113.83 467.2245 
" style="fill: none; stroke: #2ca02c; stroke-width: 1.5; stroke-linecap: square"/>
    </g>
    <g id="text_15">
     <!-- rf -->
     <g transform="translate(126.63 472.8245) scale(0.16 -0.16)">
      <defs>
       <path id="DejaVuSans-66" d="M 2375 4863 
L 2375 4384 
L 1825 4384 
Q 1516 4384 1395 4259 
Q 1275 4134 1275 3809 
L 1275 3500 
L 2222 3500 
L 2222 3053 
L 1275 3053 
L 1275 0 
L 697 0 
L 697 3053 
L 147 3053 
L 147 3500 
L 697 3500 
L 697 3744 
Q 697 4328 969 4595 
Q 1241 4863 1831 4863 
L 2375 4863 
z
" transform="scale(0.015625)"/>
      </defs>
      <use xlink:href="#DejaVuSans-72"/>
      <use xlink:href="#DejaVuSans-66" x="41.113281"/>
     </g>
    </g>
   </g>
  </g>
 </g>
 <defs>
  <clipPath id="pab25b17588">
   <rect x="67.43" y="10.8" width="1073.77" height="479.752"/>
  </clipPath>
 </defs>
</svg>
