<?xml version="1.0" encoding="utf-8" standalone="no"?>
<!DOCTYPE svg PUBLIC "-//W3C//DTD SVG 1.1//EN"
  "http://www.w3.org/Graphics/SVG/1.1/DTD/svg11.dtd">
<svg xmlns:xlink="http://www.w3.org/1999/xlink" width="1152pt" height="576pt" viewBox="0 0 1152 576" xmlns="http://www.w3.org/2000/svg" version="1.1">
 <metadata>
  <rdf:RDF xmlns:dc="http://purl.org/dc/elements/1.1/" xmlns:cc="http://creativecommons.org/ns#" xmlns:rdf="http://www.w3.org/1999/02/22-rdf-syntax-ns#">
   <cc:Work>
    <dc:type rdf:resource="http://purl.org/dc/dcmitype/StillImage"/>
    <dc:date>2024-08-22T16:30:33.184211</dc:date>
    <dc:format>image/svg+xml</dc:format>
    <dc:creator>
     <cc:Agent>
      <dc:title>Matplotlib v3.7.1, https://matplotlib.org/</dc:title>
     </cc:Agent>
    </dc:creator>
   </cc:Work>
  </rdf:RDF>
 </metadata>
 <defs>
  <style type="text/css">*{stroke-linejoin: round; stroke-linecap: butt}</style>
 </defs>
 <g id="figure_1">
  <g id="patch_1">
   <path d="M 0 576 
L 1152 576 
L 1152 0 
L 0 0 
z
" style="fill: #ffffff"/>
  </g>
  <g id="axes_1">
   <g id="patch_2">
    <path d="M 73.73 490.552 
L 1141.2 490.552 
L 1141.2 10.8 
L 73.73 10.8 
z
" style="fill: #ffffff"/>
   </g>
   <g id="PolyCollection_1">
    <defs>
     <path id="mde15343a54" d="M 122.251364 -539.673167 
L 122.251364 -517.401959 
L 142.898752 -522.515351 
L 163.546141 -525.518999 
L 184.19353 -522.777962 
L 204.840919 -493.212711 
L 225.488308 -501.49063 
L 246.135696 -486.026037 
L 266.783085 -478.801864 
L 287.430474 -476.097173 
L 308.077863 -456.292857 
L 328.725251 -447.372061 
L 349.37264 -460.666104 
L 370.020029 -456.410126 
L 390.667418 -451.220947 
L 411.314807 -424.007603 
L 431.962195 -435.20622 
L 452.609584 -441.599718 
L 473.256973 -434.25293 
L 493.904362 -455.177356 
L 514.55175 -473.089969 
L 535.199139 -486.977484 
L 555.846528 -486.402398 
L 576.493917 -474.146391 
L 597.141306 -474.146391 
L 617.788694 -481.734075 
L 638.436083 -475.947054 
L 638.436083 -489.444966 
L 638.436083 -489.444966 
L 617.788694 -519.150226 
L 597.141306 -518.600639 
L 576.493917 -511.700452 
L 555.846528 -489.84578 
L 535.199139 -489.84578 
L 514.55175 -486.099459 
L 493.904362 -472.548152 
L 473.256973 -474.341058 
L 452.609584 -478.892731 
L 431.962195 -487.121008 
L 411.314807 -478.509399 
L 390.667418 -497.192344 
L 370.020029 -499.102631 
L 349.37264 -491.855984 
L 328.725251 -496.809984 
L 308.077863 -491.93157 
L 287.430474 -505.281236 
L 266.783085 -503.633265 
L 246.135696 -510.11109 
L 225.488308 -523.430898 
L 204.840919 -524.755296 
L 184.19353 -536.948271 
L 163.546141 -541.573877 
L 142.898752 -543.393091 
L 122.251364 -539.673167 
z
" style="stroke: #1f77b4; stroke-opacity: 0.2"/>
    </defs>
    <g clip-path="url(#padf12825de)">
     <use xlink:href="#mde15343a54" x="0" y="576" style="fill: #1f77b4; fill-opacity: 0.2; stroke: #1f77b4; stroke-opacity: 0.2"/>
    </g>
   </g>
   <g id="PolyCollection_2">
    <defs>
     <path id="ma903ae56ef" d="M 122.251364 -540.889134 
L 122.251364 -518.03909 
L 142.898752 -521.13531 
L 163.546141 -524.162922 
L 184.19353 -517.433748 
L 204.840919 -521.907797 
L 225.488308 -515.006875 
L 246.135696 -521.077976 
L 266.783085 -517.78157 
L 287.430474 -518.319466 
L 308.077863 -516.473331 
L 328.725251 -507.916744 
L 349.37264 -519.669953 
L 370.020029 -520.822968 
L 390.667418 -516.32189 
L 411.314807 -518.809498 
L 431.962195 -519.977798 
L 452.609584 -520.020152 
L 473.256973 -516.349319 
L 493.904362 -521.662763 
L 514.55175 -517.889997 
L 535.199139 -519.351224 
L 555.846528 -521.943865 
L 576.493917 -521.840802 
L 597.141306 -522.326799 
L 617.788694 -523.347016 
L 638.436083 -523.178378 
L 659.083472 -525.270091 
L 679.730861 -526.483943 
L 700.37825 -523.361578 
L 721.025638 -522.485 
L 741.673027 -524.632861 
L 762.320416 -520.495233 
L 782.967805 -521.286794 
L 803.615193 -523.687622 
L 824.262582 -519.949843 
L 844.909971 -523.592693 
L 865.55736 -521.105358 
L 886.204749 -516.291782 
L 906.852137 -522.297237 
L 927.499526 -519.59682 
L 948.146915 -520.729632 
L 968.794304 -515.089126 
L 989.441692 -514.771418 
L 1010.089081 -513.802701 
L 1030.73647 -516.771178 
L 1051.383859 -522.410975 
L 1072.031248 -521.126977 
L 1092.678636 -519.586391 
L 1092.678636 -540.627421 
L 1092.678636 -540.627421 
L 1072.031248 -542.670869 
L 1051.383859 -542.301523 
L 1030.73647 -533.907294 
L 1010.089081 -528.630738 
L 989.441692 -528.91465 
L 968.794304 -538.95619 
L 948.146915 -542.086812 
L 927.499526 -542.016111 
L 906.852137 -535.898607 
L 886.204749 -532.849817 
L 865.55736 -536.443931 
L 844.909971 -536.847879 
L 824.262582 -533.069718 
L 803.615193 -534.978865 
L 782.967805 -537.840888 
L 762.320416 -539.236095 
L 741.673027 -532.015381 
L 721.025638 -534.856638 
L 700.37825 -536.841157 
L 679.730861 -537.507803 
L 659.083472 -539.753096 
L 638.436083 -536.551364 
L 617.788694 -535.615314 
L 597.141306 -537.154256 
L 576.493917 -536.60277 
L 555.846528 -536.71262 
L 535.199139 -536.598859 
L 514.55175 -533.5307 
L 493.904362 -536.765946 
L 473.256973 -539.263687 
L 452.609584 -536.225204 
L 431.962195 -538.035216 
L 411.314807 -537.715534 
L 390.667418 -538.160531 
L 370.020029 -534.495944 
L 349.37264 -539.060993 
L 328.725251 -538.766334 
L 308.077863 -531.364715 
L 287.430474 -531.560816 
L 266.783085 -538.29684 
L 246.135696 -536.707987 
L 225.488308 -538.406313 
L 204.840919 -537.708916 
L 184.19353 -536.736059 
L 163.546141 -540.317212 
L 142.898752 -535.908804 
L 122.251364 -540.889134 
z
" style="stroke: #ff7f0e; stroke-opacity: 0.2"/>
    </defs>
    <g clip-path="url(#padf12825de)">
     <use xlink:href="#ma903ae56ef" x="0" y="576" style="fill: #ff7f0e; fill-opacity: 0.2; stroke: #ff7f0e; stroke-opacity: 0.2"/>
    </g>
   </g>
   <g id="PolyCollection_3">
    <defs>
     <path id="m674b9950d5" d="M 122.251364 -536.113839 
L 122.251364 -517.374618 
L 142.898752 -520.19256 
L 163.546141 -519.655612 
L 184.19353 -509.231059 
L 204.840919 -508.09055 
L 225.488308 -496.152183 
L 246.135696 -394.16227 
L 266.783085 -452.376449 
L 287.430474 -406.461833 
L 308.077863 -420.885265 
L 328.725251 -427.187594 
L 349.37264 -362.453583 
L 370.020029 -407.851155 
L 390.667418 -411.393088 
L 411.314807 -372.555752 
L 431.962195 -252.859906 
L 452.609584 -260.517674 
L 473.256973 -379.275049 
L 493.904362 -357.324739 
L 514.55175 -307.999534 
L 535.199139 -286.462877 
L 555.846528 -352.856697 
L 576.493917 -293.873752 
L 597.141306 -360.019671 
L 617.788694 -350.855915 
L 638.436083 -323.416326 
L 659.083472 -328.623354 
L 679.730861 -275.389071 
L 700.37825 -282.704612 
L 721.025638 -155.111684 
L 741.673027 -107.254909 
L 762.320416 -127.938755 
L 782.967805 -162.289541 
L 803.615193 -226.615577 
L 824.262582 -228.515862 
L 844.909971 -190.475383 
L 865.55736 -171.697214 
L 886.204749 -140.081162 
L 886.204749 -228.001438 
L 886.204749 -228.001438 
L 865.55736 -246.377148 
L 844.909971 -256.212979 
L 824.262582 -274.783515 
L 803.615193 -273.445727 
L 782.967805 -284.052253 
L 762.320416 -244.086348 
L 741.673027 -259.55722 
L 721.025638 -270.46188 
L 700.37825 -347.143521 
L 679.730861 -394.928353 
L 659.083472 -417.274479 
L 638.436083 -399.502883 
L 617.788694 -414.211612 
L 597.141306 -450.629026 
L 576.493917 -425.405697 
L 555.846528 -438.529328 
L 535.199139 -441.970828 
L 514.55175 -429.544402 
L 493.904362 -421.487384 
L 473.256973 -414.615308 
L 452.609584 -429.619257 
L 431.962195 -419.767341 
L 411.314807 -449.988378 
L 390.667418 -440.679913 
L 370.020029 -427.479368 
L 349.37264 -450.691447 
L 328.725251 -459.828449 
L 308.077863 -466.712488 
L 287.430474 -481.122458 
L 266.783085 -492.698932 
L 246.135696 -481.623789 
L 225.488308 -501.031657 
L 204.840919 -518.801178 
L 184.19353 -521.251823 
L 163.546141 -526.642449 
L 142.898752 -535.919756 
L 122.251364 -536.113839 
z
" style="stroke: #2ca02c; stroke-opacity: 0.2"/>
    </defs>
    <g clip-path="url(#padf12825de)">
     <use xlink:href="#m674b9950d5" x="0" y="576" style="fill: #2ca02c; fill-opacity: 0.2; stroke: #2ca02c; stroke-opacity: 0.2"/>
    </g>
   </g>
   <g id="matplotlib.axis_1">
    <g id="xtick_1">
     <g id="line2d_1">
      <defs>
       <path id="mc9e665ec1c" d="M 0 0 
L 0 3.5 
" style="stroke: #000000; stroke-width: 0.8"/>
      </defs>
      <g>
       <use xlink:href="#mc9e665ec1c" x="111.927669" y="490.552" style="stroke: #000000; stroke-width: 0.8"/>
      </g>
     </g>
     <g id="text_1">
      <!-- 0 -->
      <g transform="translate(105.565169 512.748875) scale(0.2 -0.2)">
       <defs>
        <path id="DejaVuSans-30" d="M 2034 4250 
Q 1547 4250 1301 3770 
Q 1056 3291 1056 2328 
Q 1056 1369 1301 889 
Q 1547 409 2034 409 
Q 2525 409 2770 889 
Q 3016 1369 3016 2328 
Q 3016 3291 2770 3770 
Q 2525 4250 2034 4250 
z
M 2034 4750 
Q 2819 4750 3233 4129 
Q 3647 3509 3647 2328 
Q 3647 1150 3233 529 
Q 2819 -91 2034 -91 
Q 1250 -91 836 529 
Q 422 1150 422 2328 
Q 422 3509 836 4129 
Q 1250 4750 2034 4750 
z
" transform="scale(0.015625)"/>
       </defs>
       <use xlink:href="#DejaVuSans-30"/>
      </g>
     </g>
    </g>
    <g id="xtick_2">
     <g id="line2d_2">
      <g>
       <use xlink:href="#mc9e665ec1c" x="318.401557" y="490.552" style="stroke: #000000; stroke-width: 0.8"/>
      </g>
     </g>
     <g id="text_2">
      <!-- 20 -->
      <g transform="translate(305.676557 512.748875) scale(0.2 -0.2)">
       <defs>
        <path id="DejaVuSans-32" d="M 1228 531 
L 3431 531 
L 3431 0 
L 469 0 
L 469 531 
Q 828 903 1448 1529 
Q 2069 2156 2228 2338 
Q 2531 2678 2651 2914 
Q 2772 3150 2772 3378 
Q 2772 3750 2511 3984 
Q 2250 4219 1831 4219 
Q 1534 4219 1204 4116 
Q 875 4013 500 3803 
L 500 4441 
Q 881 4594 1212 4672 
Q 1544 4750 1819 4750 
Q 2544 4750 2975 4387 
Q 3406 4025 3406 3419 
Q 3406 3131 3298 2873 
Q 3191 2616 2906 2266 
Q 2828 2175 2409 1742 
Q 1991 1309 1228 531 
z
" transform="scale(0.015625)"/>
       </defs>
       <use xlink:href="#DejaVuSans-32"/>
       <use xlink:href="#DejaVuSans-30" x="63.623047"/>
      </g>
     </g>
    </g>
    <g id="xtick_3">
     <g id="line2d_3">
      <g>
       <use xlink:href="#mc9e665ec1c" x="524.875445" y="490.552" style="stroke: #000000; stroke-width: 0.8"/>
      </g>
     </g>
     <g id="text_3">
      <!-- 40 -->
      <g transform="translate(512.150445 512.748875) scale(0.2 -0.2)">
       <defs>
        <path id="DejaVuSans-34" d="M 2419 4116 
L 825 1625 
L 2419 1625 
L 2419 4116 
z
M 2253 4666 
L 3047 4666 
L 3047 1625 
L 3713 1625 
L 3713 1100 
L 3047 1100 
L 3047 0 
L 2419 0 
L 2419 1100 
L 313 1100 
L 313 1709 
L 2253 4666 
z
" transform="scale(0.015625)"/>
       </defs>
       <use xlink:href="#DejaVuSans-34"/>
       <use xlink:href="#DejaVuSans-30" x="63.623047"/>
      </g>
     </g>
    </g>
    <g id="xtick_4">
     <g id="line2d_4">
      <g>
       <use xlink:href="#mc9e665ec1c" x="731.349333" y="490.552" style="stroke: #000000; stroke-width: 0.8"/>
      </g>
     </g>
     <g id="text_4">
      <!-- 60 -->
      <g transform="translate(718.624333 512.748875) scale(0.2 -0.2)">
       <defs>
        <path id="DejaVuSans-36" d="M 2113 2584 
Q 1688 2584 1439 2293 
Q 1191 2003 1191 1497 
Q 1191 994 1439 701 
Q 1688 409 2113 409 
Q 2538 409 2786 701 
Q 3034 994 3034 1497 
Q 3034 2003 2786 2293 
Q 2538 2584 2113 2584 
z
M 3366 4563 
L 3366 3988 
Q 3128 4100 2886 4159 
Q 2644 4219 2406 4219 
Q 1781 4219 1451 3797 
Q 1122 3375 1075 2522 
Q 1259 2794 1537 2939 
Q 1816 3084 2150 3084 
Q 2853 3084 3261 2657 
Q 3669 2231 3669 1497 
Q 3669 778 3244 343 
Q 2819 -91 2113 -91 
Q 1303 -91 875 529 
Q 447 1150 447 2328 
Q 447 3434 972 4092 
Q 1497 4750 2381 4750 
Q 2619 4750 2861 4703 
Q 3103 4656 3366 4563 
z
" transform="scale(0.015625)"/>
       </defs>
       <use xlink:href="#DejaVuSans-36"/>
       <use xlink:href="#DejaVuSans-30" x="63.623047"/>
      </g>
     </g>
    </g>
    <g id="xtick_5">
     <g id="line2d_5">
      <g>
       <use xlink:href="#mc9e665ec1c" x="937.823221" y="490.552" style="stroke: #000000; stroke-width: 0.8"/>
      </g>
     </g>
     <g id="text_5">
      <!-- 80 -->
      <g transform="translate(925.098221 512.748875) scale(0.2 -0.2)">
       <defs>
        <path id="DejaVuSans-38" d="M 2034 2216 
Q 1584 2216 1326 1975 
Q 1069 1734 1069 1313 
Q 1069 891 1326 650 
Q 1584 409 2034 409 
Q 2484 409 2743 651 
Q 3003 894 3003 1313 
Q 3003 1734 2745 1975 
Q 2488 2216 2034 2216 
z
M 1403 2484 
Q 997 2584 770 2862 
Q 544 3141 544 3541 
Q 544 4100 942 4425 
Q 1341 4750 2034 4750 
Q 2731 4750 3128 4425 
Q 3525 4100 3525 3541 
Q 3525 3141 3298 2862 
Q 3072 2584 2669 2484 
Q 3125 2378 3379 2068 
Q 3634 1759 3634 1313 
Q 3634 634 3220 271 
Q 2806 -91 2034 -91 
Q 1263 -91 848 271 
Q 434 634 434 1313 
Q 434 1759 690 2068 
Q 947 2378 1403 2484 
z
M 1172 3481 
Q 1172 3119 1398 2916 
Q 1625 2713 2034 2713 
Q 2441 2713 2670 2916 
Q 2900 3119 2900 3481 
Q 2900 3844 2670 4047 
Q 2441 4250 2034 4250 
Q 1625 4250 1398 4047 
Q 1172 3844 1172 3481 
z
" transform="scale(0.015625)"/>
       </defs>
       <use xlink:href="#DejaVuSans-38"/>
       <use xlink:href="#DejaVuSans-30" x="63.623047"/>
      </g>
     </g>
    </g>
    <g id="text_6">
     <!-- Percentile Threshold -->
     <g transform="translate(505.685313 536.105125) scale(0.2 -0.2)">
      <defs>
       <path id="DejaVuSans-50" d="M 1259 4147 
L 1259 2394 
L 2053 2394 
Q 2494 2394 2734 2622 
Q 2975 2850 2975 3272 
Q 2975 3691 2734 3919 
Q 2494 4147 2053 4147 
L 1259 4147 
z
M 628 4666 
L 2053 4666 
Q 2838 4666 3239 4311 
Q 3641 3956 3641 3272 
Q 3641 2581 3239 2228 
Q 2838 1875 2053 1875 
L 1259 1875 
L 1259 0 
L 628 0 
L 628 4666 
z
" transform="scale(0.015625)"/>
       <path id="DejaVuSans-65" d="M 3597 1894 
L 3597 1613 
L 953 1613 
Q 991 1019 1311 708 
Q 1631 397 2203 397 
Q 2534 397 2845 478 
Q 3156 559 3463 722 
L 3463 178 
Q 3153 47 2828 -22 
Q 2503 -91 2169 -91 
Q 1331 -91 842 396 
Q 353 884 353 1716 
Q 353 2575 817 3079 
Q 1281 3584 2069 3584 
Q 2775 3584 3186 3129 
Q 3597 2675 3597 1894 
z
M 3022 2063 
Q 3016 2534 2758 2815 
Q 2500 3097 2075 3097 
Q 1594 3097 1305 2825 
Q 1016 2553 972 2059 
L 3022 2063 
z
" transform="scale(0.015625)"/>
       <path id="DejaVuSans-72" d="M 2631 2963 
Q 2534 3019 2420 3045 
Q 2306 3072 2169 3072 
Q 1681 3072 1420 2755 
Q 1159 2438 1159 1844 
L 1159 0 
L 581 0 
L 581 3500 
L 1159 3500 
L 1159 2956 
Q 1341 3275 1631 3429 
Q 1922 3584 2338 3584 
Q 2397 3584 2469 3576 
Q 2541 3569 2628 3553 
L 2631 2963 
z
" transform="scale(0.015625)"/>
       <path id="DejaVuSans-63" d="M 3122 3366 
L 3122 2828 
Q 2878 2963 2633 3030 
Q 2388 3097 2138 3097 
Q 1578 3097 1268 2742 
Q 959 2388 959 1747 
Q 959 1106 1268 751 
Q 1578 397 2138 397 
Q 2388 397 2633 464 
Q 2878 531 3122 666 
L 3122 134 
Q 2881 22 2623 -34 
Q 2366 -91 2075 -91 
Q 1284 -91 818 406 
Q 353 903 353 1747 
Q 353 2603 823 3093 
Q 1294 3584 2113 3584 
Q 2378 3584 2631 3529 
Q 2884 3475 3122 3366 
z
" transform="scale(0.015625)"/>
       <path id="DejaVuSans-6e" d="M 3513 2113 
L 3513 0 
L 2938 0 
L 2938 2094 
Q 2938 2591 2744 2837 
Q 2550 3084 2163 3084 
Q 1697 3084 1428 2787 
Q 1159 2491 1159 1978 
L 1159 0 
L 581 0 
L 581 3500 
L 1159 3500 
L 1159 2956 
Q 1366 3272 1645 3428 
Q 1925 3584 2291 3584 
Q 2894 3584 3203 3211 
Q 3513 2838 3513 2113 
z
" transform="scale(0.015625)"/>
       <path id="DejaVuSans-74" d="M 1172 4494 
L 1172 3500 
L 2356 3500 
L 2356 3053 
L 1172 3053 
L 1172 1153 
Q 1172 725 1289 603 
Q 1406 481 1766 481 
L 2356 481 
L 2356 0 
L 1766 0 
Q 1100 0 847 248 
Q 594 497 594 1153 
L 594 3053 
L 172 3053 
L 172 3500 
L 594 3500 
L 594 4494 
L 1172 4494 
z
" transform="scale(0.015625)"/>
       <path id="DejaVuSans-69" d="M 603 3500 
L 1178 3500 
L 1178 0 
L 603 0 
L 603 3500 
z
M 603 4863 
L 1178 4863 
L 1178 4134 
L 603 4134 
L 603 4863 
z
" transform="scale(0.015625)"/>
       <path id="DejaVuSans-6c" d="M 603 4863 
L 1178 4863 
L 1178 0 
L 603 0 
L 603 4863 
z
" transform="scale(0.015625)"/>
       <path id="DejaVuSans-20" transform="scale(0.015625)"/>
       <path id="DejaVuSans-54" d="M -19 4666 
L 3928 4666 
L 3928 4134 
L 2272 4134 
L 2272 0 
L 1638 0 
L 1638 4134 
L -19 4134 
L -19 4666 
z
" transform="scale(0.015625)"/>
       <path id="DejaVuSans-68" d="M 3513 2113 
L 3513 0 
L 2938 0 
L 2938 2094 
Q 2938 2591 2744 2837 
Q 2550 3084 2163 3084 
Q 1697 3084 1428 2787 
Q 1159 2491 1159 1978 
L 1159 0 
L 581 0 
L 581 4863 
L 1159 4863 
L 1159 2956 
Q 1366 3272 1645 3428 
Q 1925 3584 2291 3584 
Q 2894 3584 3203 3211 
Q 3513 2838 3513 2113 
z
" transform="scale(0.015625)"/>
       <path id="DejaVuSans-73" d="M 2834 3397 
L 2834 2853 
Q 2591 2978 2328 3040 
Q 2066 3103 1784 3103 
Q 1356 3103 1142 2972 
Q 928 2841 928 2578 
Q 928 2378 1081 2264 
Q 1234 2150 1697 2047 
L 1894 2003 
Q 2506 1872 2764 1633 
Q 3022 1394 3022 966 
Q 3022 478 2636 193 
Q 2250 -91 1575 -91 
Q 1294 -91 989 -36 
Q 684 19 347 128 
L 347 722 
Q 666 556 975 473 
Q 1284 391 1588 391 
Q 1994 391 2212 530 
Q 2431 669 2431 922 
Q 2431 1156 2273 1281 
Q 2116 1406 1581 1522 
L 1381 1569 
Q 847 1681 609 1914 
Q 372 2147 372 2553 
Q 372 3047 722 3315 
Q 1072 3584 1716 3584 
Q 2034 3584 2315 3537 
Q 2597 3491 2834 3397 
z
" transform="scale(0.015625)"/>
       <path id="DejaVuSans-6f" d="M 1959 3097 
Q 1497 3097 1228 2736 
Q 959 2375 959 1747 
Q 959 1119 1226 758 
Q 1494 397 1959 397 
Q 2419 397 2687 759 
Q 2956 1122 2956 1747 
Q 2956 2369 2687 2733 
Q 2419 3097 1959 3097 
z
M 1959 3584 
Q 2709 3584 3137 3096 
Q 3566 2609 3566 1747 
Q 3566 888 3137 398 
Q 2709 -91 1959 -91 
Q 1206 -91 779 398 
Q 353 888 353 1747 
Q 353 2609 779 3096 
Q 1206 3584 1959 3584 
z
" transform="scale(0.015625)"/>
       <path id="DejaVuSans-64" d="M 2906 2969 
L 2906 4863 
L 3481 4863 
L 3481 0 
L 2906 0 
L 2906 525 
Q 2725 213 2448 61 
Q 2172 -91 1784 -91 
Q 1150 -91 751 415 
Q 353 922 353 1747 
Q 353 2572 751 3078 
Q 1150 3584 1784 3584 
Q 2172 3584 2448 3432 
Q 2725 3281 2906 2969 
z
M 947 1747 
Q 947 1113 1208 752 
Q 1469 391 1925 391 
Q 2381 391 2643 752 
Q 2906 1113 2906 1747 
Q 2906 2381 2643 2742 
Q 2381 3103 1925 3103 
Q 1469 3103 1208 2742 
Q 947 2381 947 1747 
z
" transform="scale(0.015625)"/>
      </defs>
      <use xlink:href="#DejaVuSans-50"/>
      <use xlink:href="#DejaVuSans-65" x="56.677734"/>
      <use xlink:href="#DejaVuSans-72" x="118.201172"/>
      <use xlink:href="#DejaVuSans-63" x="157.064453"/>
      <use xlink:href="#DejaVuSans-65" x="212.044922"/>
      <use xlink:href="#DejaVuSans-6e" x="273.568359"/>
      <use xlink:href="#DejaVuSans-74" x="336.947266"/>
      <use xlink:href="#DejaVuSans-69" x="376.15625"/>
      <use xlink:href="#DejaVuSans-6c" x="403.939453"/>
      <use xlink:href="#DejaVuSans-65" x="431.722656"/>
      <use xlink:href="#DejaVuSans-20" x="493.246094"/>
      <use xlink:href="#DejaVuSans-54" x="525.033203"/>
      <use xlink:href="#DejaVuSans-68" x="586.117188"/>
      <use xlink:href="#DejaVuSans-72" x="649.496094"/>
      <use xlink:href="#DejaVuSans-65" x="688.359375"/>
      <use xlink:href="#DejaVuSans-73" x="749.882812"/>
      <use xlink:href="#DejaVuSans-68" x="801.982422"/>
      <use xlink:href="#DejaVuSans-6f" x="865.361328"/>
      <use xlink:href="#DejaVuSans-6c" x="926.542969"/>
      <use xlink:href="#DejaVuSans-64" x="954.326172"/>
     </g>
     <!-- (All Methods of Threshold Handling for HubR Model) -->
     <g transform="translate(347.879063 558.50075) scale(0.2 -0.2)">
      <defs>
       <path id="DejaVuSans-28" d="M 1984 4856 
Q 1566 4138 1362 3434 
Q 1159 2731 1159 2009 
Q 1159 1288 1364 580 
Q 1569 -128 1984 -844 
L 1484 -844 
Q 1016 -109 783 600 
Q 550 1309 550 2009 
Q 550 2706 781 3412 
Q 1013 4119 1484 4856 
L 1984 4856 
z
" transform="scale(0.015625)"/>
       <path id="DejaVuSans-41" d="M 2188 4044 
L 1331 1722 
L 3047 1722 
L 2188 4044 
z
M 1831 4666 
L 2547 4666 
L 4325 0 
L 3669 0 
L 3244 1197 
L 1141 1197 
L 716 0 
L 50 0 
L 1831 4666 
z
" transform="scale(0.015625)"/>
       <path id="DejaVuSans-4d" d="M 628 4666 
L 1569 4666 
L 2759 1491 
L 3956 4666 
L 4897 4666 
L 4897 0 
L 4281 0 
L 4281 4097 
L 3078 897 
L 2444 897 
L 1241 4097 
L 1241 0 
L 628 0 
L 628 4666 
z
" transform="scale(0.015625)"/>
       <path id="DejaVuSans-66" d="M 2375 4863 
L 2375 4384 
L 1825 4384 
Q 1516 4384 1395 4259 
Q 1275 4134 1275 3809 
L 1275 3500 
L 2222 3500 
L 2222 3053 
L 1275 3053 
L 1275 0 
L 697 0 
L 697 3053 
L 147 3053 
L 147 3500 
L 697 3500 
L 697 3744 
Q 697 4328 969 4595 
Q 1241 4863 1831 4863 
L 2375 4863 
z
" transform="scale(0.015625)"/>
       <path id="DejaVuSans-48" d="M 628 4666 
L 1259 4666 
L 1259 2753 
L 3553 2753 
L 3553 4666 
L 4184 4666 
L 4184 0 
L 3553 0 
L 3553 2222 
L 1259 2222 
L 1259 0 
L 628 0 
L 628 4666 
z
" transform="scale(0.015625)"/>
       <path id="DejaVuSans-61" d="M 2194 1759 
Q 1497 1759 1228 1600 
Q 959 1441 959 1056 
Q 959 750 1161 570 
Q 1363 391 1709 391 
Q 2188 391 2477 730 
Q 2766 1069 2766 1631 
L 2766 1759 
L 2194 1759 
z
M 3341 1997 
L 3341 0 
L 2766 0 
L 2766 531 
Q 2569 213 2275 61 
Q 1981 -91 1556 -91 
Q 1019 -91 701 211 
Q 384 513 384 1019 
Q 384 1609 779 1909 
Q 1175 2209 1959 2209 
L 2766 2209 
L 2766 2266 
Q 2766 2663 2505 2880 
Q 2244 3097 1772 3097 
Q 1472 3097 1187 3025 
Q 903 2953 641 2809 
L 641 3341 
Q 956 3463 1253 3523 
Q 1550 3584 1831 3584 
Q 2591 3584 2966 3190 
Q 3341 2797 3341 1997 
z
" transform="scale(0.015625)"/>
       <path id="DejaVuSans-67" d="M 2906 1791 
Q 2906 2416 2648 2759 
Q 2391 3103 1925 3103 
Q 1463 3103 1205 2759 
Q 947 2416 947 1791 
Q 947 1169 1205 825 
Q 1463 481 1925 481 
Q 2391 481 2648 825 
Q 2906 1169 2906 1791 
z
M 3481 434 
Q 3481 -459 3084 -895 
Q 2688 -1331 1869 -1331 
Q 1566 -1331 1297 -1286 
Q 1028 -1241 775 -1147 
L 775 -588 
Q 1028 -725 1275 -790 
Q 1522 -856 1778 -856 
Q 2344 -856 2625 -561 
Q 2906 -266 2906 331 
L 2906 616 
Q 2728 306 2450 153 
Q 2172 0 1784 0 
Q 1141 0 747 490 
Q 353 981 353 1791 
Q 353 2603 747 3093 
Q 1141 3584 1784 3584 
Q 2172 3584 2450 3431 
Q 2728 3278 2906 2969 
L 2906 3500 
L 3481 3500 
L 3481 434 
z
" transform="scale(0.015625)"/>
       <path id="DejaVuSans-75" d="M 544 1381 
L 544 3500 
L 1119 3500 
L 1119 1403 
Q 1119 906 1312 657 
Q 1506 409 1894 409 
Q 2359 409 2629 706 
Q 2900 1003 2900 1516 
L 2900 3500 
L 3475 3500 
L 3475 0 
L 2900 0 
L 2900 538 
Q 2691 219 2414 64 
Q 2138 -91 1772 -91 
Q 1169 -91 856 284 
Q 544 659 544 1381 
z
M 1991 3584 
L 1991 3584 
z
" transform="scale(0.015625)"/>
       <path id="DejaVuSans-62" d="M 3116 1747 
Q 3116 2381 2855 2742 
Q 2594 3103 2138 3103 
Q 1681 3103 1420 2742 
Q 1159 2381 1159 1747 
Q 1159 1113 1420 752 
Q 1681 391 2138 391 
Q 2594 391 2855 752 
Q 3116 1113 3116 1747 
z
M 1159 2969 
Q 1341 3281 1617 3432 
Q 1894 3584 2278 3584 
Q 2916 3584 3314 3078 
Q 3713 2572 3713 1747 
Q 3713 922 3314 415 
Q 2916 -91 2278 -91 
Q 1894 -91 1617 61 
Q 1341 213 1159 525 
L 1159 0 
L 581 0 
L 581 4863 
L 1159 4863 
L 1159 2969 
z
" transform="scale(0.015625)"/>
       <path id="DejaVuSans-52" d="M 2841 2188 
Q 3044 2119 3236 1894 
Q 3428 1669 3622 1275 
L 4263 0 
L 3584 0 
L 2988 1197 
Q 2756 1666 2539 1819 
Q 2322 1972 1947 1972 
L 1259 1972 
L 1259 0 
L 628 0 
L 628 4666 
L 2053 4666 
Q 2853 4666 3247 4331 
Q 3641 3997 3641 3322 
Q 3641 2881 3436 2590 
Q 3231 2300 2841 2188 
z
M 1259 4147 
L 1259 2491 
L 2053 2491 
Q 2509 2491 2742 2702 
Q 2975 2913 2975 3322 
Q 2975 3731 2742 3939 
Q 2509 4147 2053 4147 
L 1259 4147 
z
" transform="scale(0.015625)"/>
       <path id="DejaVuSans-29" d="M 513 4856 
L 1013 4856 
Q 1481 4119 1714 3412 
Q 1947 2706 1947 2009 
Q 1947 1309 1714 600 
Q 1481 -109 1013 -844 
L 513 -844 
Q 928 -128 1133 580 
Q 1338 1288 1338 2009 
Q 1338 2731 1133 3434 
Q 928 4138 513 4856 
z
" transform="scale(0.015625)"/>
      </defs>
      <use xlink:href="#DejaVuSans-28"/>
      <use xlink:href="#DejaVuSans-41" x="39.013672"/>
      <use xlink:href="#DejaVuSans-6c" x="107.421875"/>
      <use xlink:href="#DejaVuSans-6c" x="135.205078"/>
      <use xlink:href="#DejaVuSans-20" x="162.988281"/>
      <use xlink:href="#DejaVuSans-4d" x="194.775391"/>
      <use xlink:href="#DejaVuSans-65" x="281.054688"/>
      <use xlink:href="#DejaVuSans-74" x="342.578125"/>
      <use xlink:href="#DejaVuSans-68" x="381.787109"/>
      <use xlink:href="#DejaVuSans-6f" x="445.166016"/>
      <use xlink:href="#DejaVuSans-64" x="506.347656"/>
      <use xlink:href="#DejaVuSans-73" x="569.824219"/>
      <use xlink:href="#DejaVuSans-20" x="621.923828"/>
      <use xlink:href="#DejaVuSans-6f" x="653.710938"/>
      <use xlink:href="#DejaVuSans-66" x="714.892578"/>
      <use xlink:href="#DejaVuSans-20" x="750.097656"/>
      <use xlink:href="#DejaVuSans-54" x="781.884766"/>
      <use xlink:href="#DejaVuSans-68" x="842.96875"/>
      <use xlink:href="#DejaVuSans-72" x="906.347656"/>
      <use xlink:href="#DejaVuSans-65" x="945.210938"/>
      <use xlink:href="#DejaVuSans-73" x="1006.734375"/>
      <use xlink:href="#DejaVuSans-68" x="1058.833984"/>
      <use xlink:href="#DejaVuSans-6f" x="1122.212891"/>
      <use xlink:href="#DejaVuSans-6c" x="1183.394531"/>
      <use xlink:href="#DejaVuSans-64" x="1211.177734"/>
      <use xlink:href="#DejaVuSans-20" x="1274.654297"/>
      <use xlink:href="#DejaVuSans-48" x="1306.441406"/>
      <use xlink:href="#DejaVuSans-61" x="1381.636719"/>
      <use xlink:href="#DejaVuSans-6e" x="1442.916016"/>
      <use xlink:href="#DejaVuSans-64" x="1506.294922"/>
      <use xlink:href="#DejaVuSans-6c" x="1569.771484"/>
      <use xlink:href="#DejaVuSans-69" x="1597.554688"/>
      <use xlink:href="#DejaVuSans-6e" x="1625.337891"/>
      <use xlink:href="#DejaVuSans-67" x="1688.716797"/>
      <use xlink:href="#DejaVuSans-20" x="1752.193359"/>
      <use xlink:href="#DejaVuSans-66" x="1783.980469"/>
      <use xlink:href="#DejaVuSans-6f" x="1819.185547"/>
      <use xlink:href="#DejaVuSans-72" x="1880.367188"/>
      <use xlink:href="#DejaVuSans-20" x="1921.480469"/>
      <use xlink:href="#DejaVuSans-48" x="1953.267578"/>
      <use xlink:href="#DejaVuSans-75" x="2028.462891"/>
      <use xlink:href="#DejaVuSans-62" x="2091.841797"/>
      <use xlink:href="#DejaVuSans-52" x="2155.318359"/>
      <use xlink:href="#DejaVuSans-20" x="2224.800781"/>
      <use xlink:href="#DejaVuSans-4d" x="2256.587891"/>
      <use xlink:href="#DejaVuSans-6f" x="2342.867188"/>
      <use xlink:href="#DejaVuSans-64" x="2404.048828"/>
      <use xlink:href="#DejaVuSans-65" x="2467.525391"/>
      <use xlink:href="#DejaVuSans-6c" x="2529.048828"/>
      <use xlink:href="#DejaVuSans-29" x="2556.832031"/>
     </g>
    </g>
   </g>
   <g id="matplotlib.axis_2">
    <g id="ytick_1">
     <g id="line2d_6">
      <defs>
       <path id="m15f2566532" d="M 0 0 
L -3.5 0 
" style="stroke: #000000; stroke-width: 0.8"/>
      </defs>
      <g>
       <use xlink:href="#m15f2566532" x="73.73" y="488.060924" style="stroke: #000000; stroke-width: 0.8"/>
      </g>
     </g>
     <g id="text_7">
      <!-- 0.0 -->
      <g transform="translate(34.92375 495.659361) scale(0.2 -0.2)">
       <defs>
        <path id="DejaVuSans-2e" d="M 684 794 
L 1344 794 
L 1344 0 
L 684 0 
L 684 794 
z
" transform="scale(0.015625)"/>
       </defs>
       <use xlink:href="#DejaVuSans-30"/>
       <use xlink:href="#DejaVuSans-2e" x="63.623047"/>
       <use xlink:href="#DejaVuSans-30" x="95.410156"/>
      </g>
     </g>
    </g>
    <g id="ytick_2">
     <g id="line2d_7">
      <g>
       <use xlink:href="#m15f2566532" x="73.73" y="383.604016" style="stroke: #000000; stroke-width: 0.8"/>
      </g>
     </g>
     <g id="text_8">
      <!-- 0.2 -->
      <g transform="translate(34.92375 391.202454) scale(0.2 -0.2)">
       <use xlink:href="#DejaVuSans-30"/>
       <use xlink:href="#DejaVuSans-2e" x="63.623047"/>
       <use xlink:href="#DejaVuSans-32" x="95.410156"/>
      </g>
     </g>
    </g>
    <g id="ytick_3">
     <g id="line2d_8">
      <g>
       <use xlink:href="#m15f2566532" x="73.73" y="279.147108" style="stroke: #000000; stroke-width: 0.8"/>
      </g>
     </g>
     <g id="text_9">
      <!-- 0.4 -->
      <g transform="translate(34.92375 286.745546) scale(0.2 -0.2)">
       <use xlink:href="#DejaVuSans-30"/>
       <use xlink:href="#DejaVuSans-2e" x="63.623047"/>
       <use xlink:href="#DejaVuSans-34" x="95.410156"/>
      </g>
     </g>
    </g>
    <g id="ytick_4">
     <g id="line2d_9">
      <g>
       <use xlink:href="#m15f2566532" x="73.73" y="174.6902" style="stroke: #000000; stroke-width: 0.8"/>
      </g>
     </g>
     <g id="text_10">
      <!-- 0.6 -->
      <g transform="translate(34.92375 182.288638) scale(0.2 -0.2)">
       <use xlink:href="#DejaVuSans-30"/>
       <use xlink:href="#DejaVuSans-2e" x="63.623047"/>
       <use xlink:href="#DejaVuSans-36" x="95.410156"/>
      </g>
     </g>
    </g>
    <g id="ytick_5">
     <g id="line2d_10">
      <g>
       <use xlink:href="#m15f2566532" x="73.73" y="70.233293" style="stroke: #000000; stroke-width: 0.8"/>
      </g>
     </g>
     <g id="text_11">
      <!-- 0.8 -->
      <g transform="translate(34.92375 77.83173) scale(0.2 -0.2)">
       <use xlink:href="#DejaVuSans-30"/>
       <use xlink:href="#DejaVuSans-2e" x="63.623047"/>
       <use xlink:href="#DejaVuSans-38" x="95.410156"/>
      </g>
     </g>
    </g>
    <g id="text_12">
     <!-- R^2 -->
     <g transform="translate(26.764375 272.366625) rotate(-90) scale(0.2 -0.2)">
      <defs>
       <path id="DejaVuSans-5e" d="M 2988 4666 
L 4684 2925 
L 4056 2925 
L 2681 4159 
L 1306 2925 
L 678 2925 
L 2375 4666 
L 2988 4666 
z
" transform="scale(0.015625)"/>
      </defs>
      <use xlink:href="#DejaVuSans-52"/>
      <use xlink:href="#DejaVuSans-5e" x="69.482422"/>
      <use xlink:href="#DejaVuSans-32" x="153.271484"/>
     </g>
    </g>
   </g>
   <g id="line2d_11">
    <path d="M 122.251364 47.448957 
L 142.898752 43.51156 
L 163.546141 41.818771 
L 184.19353 46.361072 
L 204.840919 66.572007 
L 225.488308 64.328898 
L 246.135696 76.046076 
L 266.783085 84.159201 
L 287.430474 83.644541 
L 308.077863 99.52205 
L 328.725251 100.642505 
L 349.37264 100.992614 
L 370.020029 98.116053 
L 390.667418 101.793354 
L 411.314807 124.446692 
L 431.962195 120.650614 
L 452.609584 120.324029 
L 473.256973 121.703006 
L 493.904362 112.137246 
L 514.55175 96.405286 
L 535.199139 87.588368 
L 555.846528 87.875911 
L 576.493917 83.076579 
L 597.141306 79.626485 
L 617.788694 75.557849 
L 638.436083 93.30399 
L 659.083472 116.855079 
L 679.730861 123.691054 
L 700.37825 147.302991 
" clip-path="url(#padf12825de)" style="fill: none; stroke: #1f77b4; stroke-width: 1.5; stroke-linecap: square"/>
   </g>
   <g id="line2d_12">
    <path d="M 122.251364 46.941316 
L 142.898752 47.456373 
L 163.546141 43.860658 
L 184.19353 49.073631 
L 204.840919 45.836039 
L 225.488308 49.998544 
L 246.135696 47.161162 
L 266.783085 48.473817 
L 287.430474 51.317626 
L 308.077863 51.575287 
L 328.725251 50.924874 
L 349.37264 46.831622 
L 370.020029 48.109769 
L 390.667418 48.572009 
L 411.314807 46.954528 
L 431.962195 46.468362 
L 452.609584 47.82205 
L 473.256973 47.686765 
L 493.904362 46.836099 
L 514.55175 50.660571 
L 535.199139 47.88442 
L 555.846528 45.962154 
L 576.493917 46.501463 
L 597.141306 46.277213 
L 617.788694 46.133305 
L 638.436083 45.858011 
L 659.083472 42.892915 
L 679.730861 44.524391 
L 700.37825 46.169242 
L 721.025638 48.060069 
L 741.673027 48.042865 
L 762.320416 46.11381 
L 782.967805 46.722957 
L 803.615193 46.907693 
L 824.262582 49.344573 
L 844.909971 46.216195 
L 865.55736 47.221888 
L 886.204749 51.172785 
L 906.852137 46.827858 
L 927.499526 44.47611 
L 948.146915 44.432826 
L 968.794304 49.599562 
L 989.441692 54.4719 
L 1010.089081 55.097566 
L 1030.73647 50.856308 
L 1051.383859 44.283993 
L 1072.031248 44.589751 
L 1092.678636 45.812757 
" clip-path="url(#padf12825de)" style="fill: none; stroke: #ff7f0e; stroke-width: 1.5; stroke-linecap: square"/>
   </g>
   <g id="line2d_13">
    <path d="M 122.251364 49.533748 
L 142.898752 48.121707 
L 163.546141 53.302285 
L 184.19353 60.542069 
L 204.840919 62.541534 
L 225.488308 77.318739 
L 246.135696 131.938417 
L 266.783085 101.044768 
L 287.430474 132.203301 
L 308.077863 132.572091 
L 328.725251 132.227703 
L 349.37264 166.02551 
L 370.020029 157.227953 
L 390.667418 147.118956 
L 411.314807 157.048898 
L 431.962195 224.749339 
L 452.609584 214.071748 
L 473.256973 178.747229 
L 493.904362 182.575558 
L 514.55175 209.90295 
L 535.199139 208.187737 
L 555.846528 181.685081 
L 576.493917 217.8659 
L 597.141306 172.102294 
L 617.788694 193.514962 
L 638.436083 214.264134 
L 659.083472 203.075227 
L 679.730861 250.779762 
L 700.37825 259.568785 
L 721.025638 360.838664 
L 741.673027 396.451727 
L 762.320416 391.877432 
L 782.967805 343.38362 
L 803.615193 326.90121 
L 824.262582 324.350311 
L 844.909971 349.634072 
L 865.55736 370.856651 
L 886.204749 405.708993 
" clip-path="url(#padf12825de)" style="fill: none; stroke: #2ca02c; stroke-width: 1.5; stroke-linecap: square"/>
   </g>
   <g id="line2d_14"/>
   <g id="line2d_15"/>
   <g id="line2d_16"/>
   <g id="patch_3">
    <path d="M 73.73 490.552 
L 73.73 10.8 
" style="fill: none; stroke: #000000; stroke-width: 0.8; stroke-linejoin: miter; stroke-linecap: square"/>
   </g>
   <g id="patch_4">
    <path d="M 1141.2 490.552 
L 1141.2 10.8 
" style="fill: none; stroke: #000000; stroke-width: 0.8; stroke-linejoin: miter; stroke-linecap: square"/>
   </g>
   <g id="patch_5">
    <path d="M 73.73 490.552 
L 1141.2 490.552 
" style="fill: none; stroke: #000000; stroke-width: 0.8; stroke-linejoin: miter; stroke-linecap: square"/>
   </g>
   <g id="patch_6">
    <path d="M 73.73 10.8 
L 1141.2 10.8 
" style="fill: none; stroke: #000000; stroke-width: 0.8; stroke-linejoin: miter; stroke-linecap: square"/>
   </g>
   <g id="legend_1">
    <g id="patch_7">
     <path d="M 84.93 482.552 
L 224.365 482.552 
Q 227.565 482.552 227.565 479.352 
L 227.565 409.607 
Q 227.565 406.407 224.365 406.407 
L 84.93 406.407 
Q 81.73 406.407 81.73 409.607 
L 81.73 479.352 
Q 81.73 482.552 84.93 482.552 
z
" style="fill: #ffffff; opacity: 0.8; stroke: #cccccc; stroke-linejoin: miter"/>
    </g>
    <g id="line2d_17">
     <path d="M 88.13 419.3645 
L 104.13 419.3645 
L 120.13 419.3645 
" style="fill: none; stroke: #1f77b4; stroke-width: 1.5; stroke-linecap: square"/>
    </g>
    <g id="text_13">
     <!-- leave_out -->
     <g transform="translate(132.93 424.9645) scale(0.16 -0.16)">
      <defs>
       <path id="DejaVuSans-76" d="M 191 3500 
L 800 3500 
L 1894 563 
L 2988 3500 
L 3597 3500 
L 2284 0 
L 1503 0 
L 191 3500 
z
" transform="scale(0.015625)"/>
       <path id="DejaVuSans-5f" d="M 3263 -1063 
L 3263 -1509 
L -63 -1509 
L -63 -1063 
L 3263 -1063 
z
" transform="scale(0.015625)"/>
      </defs>
      <use xlink:href="#DejaVuSans-6c"/>
      <use xlink:href="#DejaVuSans-65" x="27.783203"/>
      <use xlink:href="#DejaVuSans-61" x="89.306641"/>
      <use xlink:href="#DejaVuSans-76" x="150.585938"/>
      <use xlink:href="#DejaVuSans-65" x="209.765625"/>
      <use xlink:href="#DejaVuSans-5f" x="271.289062"/>
      <use xlink:href="#DejaVuSans-6f" x="321.289062"/>
      <use xlink:href="#DejaVuSans-75" x="382.470703"/>
      <use xlink:href="#DejaVuSans-74" x="445.849609"/>
     </g>
    </g>
    <g id="line2d_18">
     <path d="M 88.13 443.2945 
L 104.13 443.2945 
L 120.13 443.2945 
" style="fill: none; stroke: #ff7f0e; stroke-width: 1.5; stroke-linecap: square"/>
    </g>
    <g id="text_14">
     <!-- max_mean -->
     <g transform="translate(132.93 448.8945) scale(0.16 -0.16)">
      <defs>
       <path id="DejaVuSans-6d" d="M 3328 2828 
Q 3544 3216 3844 3400 
Q 4144 3584 4550 3584 
Q 5097 3584 5394 3201 
Q 5691 2819 5691 2113 
L 5691 0 
L 5113 0 
L 5113 2094 
Q 5113 2597 4934 2840 
Q 4756 3084 4391 3084 
Q 3944 3084 3684 2787 
Q 3425 2491 3425 1978 
L 3425 0 
L 2847 0 
L 2847 2094 
Q 2847 2600 2669 2842 
Q 2491 3084 2119 3084 
Q 1678 3084 1418 2786 
Q 1159 2488 1159 1978 
L 1159 0 
L 581 0 
L 581 3500 
L 1159 3500 
L 1159 2956 
Q 1356 3278 1631 3431 
Q 1906 3584 2284 3584 
Q 2666 3584 2933 3390 
Q 3200 3197 3328 2828 
z
" transform="scale(0.015625)"/>
       <path id="DejaVuSans-78" d="M 3513 3500 
L 2247 1797 
L 3578 0 
L 2900 0 
L 1881 1375 
L 863 0 
L 184 0 
L 1544 1831 
L 300 3500 
L 978 3500 
L 1906 2253 
L 2834 3500 
L 3513 3500 
z
" transform="scale(0.015625)"/>
      </defs>
      <use xlink:href="#DejaVuSans-6d"/>
      <use xlink:href="#DejaVuSans-61" x="97.412109"/>
      <use xlink:href="#DejaVuSans-78" x="158.691406"/>
      <use xlink:href="#DejaVuSans-5f" x="217.871094"/>
      <use xlink:href="#DejaVuSans-6d" x="267.871094"/>
      <use xlink:href="#DejaVuSans-65" x="365.283203"/>
      <use xlink:href="#DejaVuSans-61" x="426.806641"/>
      <use xlink:href="#DejaVuSans-6e" x="488.085938"/>
     </g>
    </g>
    <g id="line2d_19">
     <path d="M 88.13 467.2245 
L 104.13 467.2245 
L 120.13 467.2245 
" style="fill: none; stroke: #2ca02c; stroke-width: 1.5; stroke-linecap: square"/>
    </g>
    <g id="text_15">
     <!-- merge -->
     <g transform="translate(132.93 472.8245) scale(0.16 -0.16)">
      <use xlink:href="#DejaVuSans-6d"/>
      <use xlink:href="#DejaVuSans-65" x="97.412109"/>
      <use xlink:href="#DejaVuSans-72" x="158.935547"/>
      <use xlink:href="#DejaVuSans-67" x="198.298828"/>
      <use xlink:href="#DejaVuSans-65" x="261.775391"/>
     </g>
    </g>
   </g>
  </g>
 </g>
 <defs>
  <clipPath id="padf12825de">
   <rect x="73.73" y="10.8" width="1067.47" height="479.752"/>
  </clipPath>
 </defs>
</svg>
