<?xml version="1.0" encoding="utf-8" standalone="no"?>
<!DOCTYPE svg PUBLIC "-//W3C//DTD SVG 1.1//EN"
  "http://www.w3.org/Graphics/SVG/1.1/DTD/svg11.dtd">
<svg xmlns:xlink="http://www.w3.org/1999/xlink" width="1152pt" height="576pt" viewBox="0 0 1152 576" xmlns="http://www.w3.org/2000/svg" version="1.1">
 <metadata>
  <rdf:RDF xmlns:dc="http://purl.org/dc/elements/1.1/" xmlns:cc="http://creativecommons.org/ns#" xmlns:rdf="http://www.w3.org/1999/02/22-rdf-syntax-ns#">
   <cc:Work>
    <dc:type rdf:resource="http://purl.org/dc/dcmitype/StillImage"/>
    <dc:date>2024-08-22T16:10:16.587710</dc:date>
    <dc:format>image/svg+xml</dc:format>
    <dc:creator>
     <cc:Agent>
      <dc:title>Matplotlib v3.7.1, https://matplotlib.org/</dc:title>
     </cc:Agent>
    </dc:creator>
   </cc:Work>
  </rdf:RDF>
 </metadata>
 <defs>
  <style type="text/css">*{stroke-linejoin: round; stroke-linecap: butt}</style>
 </defs>
 <g id="figure_1">
  <g id="patch_1">
   <path d="M 0 576 
L 1152 576 
L 1152 0 
L 0 0 
z
" style="fill: #ffffff"/>
  </g>
  <g id="axes_1">
   <g id="patch_2">
    <path d="M 86.42 489.832 
L 1141.2 489.832 
L 1141.2 10.8 
L 86.42 10.8 
z
" style="fill: #ffffff"/>
   </g>
   <g id="PolyCollection_1">
    <defs>
     <path id="m1945398476" d="M 134.364545 -493.183101 
L 134.364545 -467.646799 
L 154.76648 -474.454444 
L 175.168414 -484.03124 
L 195.570348 -483.908856 
L 215.972282 -486.160828 
L 236.374217 -466.342807 
L 256.776151 -465.696218 
L 277.178085 -467.203527 
L 297.580019 -470.725644 
L 317.981954 -457.039532 
L 338.383888 -451.592613 
L 358.785822 -482.498521 
L 379.187756 -472.498098 
L 399.589691 -472.613893 
L 419.991625 -467.265501 
L 440.393559 -482.814743 
L 460.795493 -473.70921 
L 481.197427 -470.15792 
L 501.599362 -479.304431 
L 522.001296 -473.207482 
L 542.40323 -472.413071 
L 562.805164 -474.173492 
L 583.207099 -469.485341 
L 603.609033 -479.731033 
L 624.010967 -483.092249 
L 644.412901 -478.092283 
L 664.814836 -479.397265 
L 685.21677 -469.364134 
L 705.618704 -477.542033 
L 726.020638 -479.589489 
L 746.422573 -477.037348 
L 766.824507 -483.109286 
L 787.226441 -477.062411 
L 807.628375 -481.020982 
L 828.030309 -478.154359 
L 848.432244 -476.348412 
L 868.834178 -484.728033 
L 889.236112 -480.771179 
L 909.638046 -448.580487 
L 930.039981 -459.646988 
L 950.441915 -459.212569 
L 970.843849 -476.322617 
L 991.245783 -472.671789 
L 1011.647718 -468.744356 
L 1032.049652 -464.013764 
L 1052.451586 -468.878706 
L 1072.85352 -468.383226 
L 1093.255455 -473.392246 
L 1093.255455 -487.843669 
L 1093.255455 -487.843669 
L 1072.85352 -489.635685 
L 1052.451586 -491.557161 
L 1032.049652 -488.249688 
L 1011.647718 -479.494964 
L 991.245783 -481.58062 
L 970.843849 -488.303783 
L 950.441915 -493.19812 
L 930.039981 -492.926116 
L 909.638046 -484.075377 
L 889.236112 -497.32195 
L 868.834178 -497.345266 
L 848.432244 -485.602686 
L 828.030309 -492.183607 
L 807.628375 -493.66431 
L 787.226441 -494.949796 
L 766.824507 -494.466244 
L 746.422573 -497.417123 
L 726.020638 -506.524736 
L 705.618704 -497.895549 
L 685.21677 -493.133866 
L 664.814836 -496.753401 
L 644.412901 -500.449569 
L 624.010967 -505.898211 
L 603.609033 -502.437312 
L 583.207099 -493.998117 
L 562.805164 -499.372601 
L 542.40323 -497.359864 
L 522.001296 -497.53614 
L 501.599362 -498.406742 
L 481.197427 -499.091467 
L 460.795493 -494.982785 
L 440.393559 -506.082243 
L 419.991625 -498.425851 
L 399.589691 -493.66822 
L 379.187756 -490.233664 
L 358.785822 -508.327815 
L 338.383888 -490.406232 
L 317.981954 -489.641124 
L 297.580019 -487.223489 
L 277.178085 -498.9219 
L 256.776151 -497.360131 
L 236.374217 -496.136805 
L 215.972282 -506.918464 
L 195.570348 -502.137756 
L 175.168414 -499.753253 
L 154.76648 -502.71299 
L 134.364545 -493.183101 
z
" style="stroke: #f77189; stroke-opacity: 0.2"/>
    </defs>
    <g clip-path="url(#pf7b5ff428f)">
     <use xlink:href="#m1945398476" x="0" y="576" style="fill: #f77189; fill-opacity: 0.2; stroke: #f77189; stroke-opacity: 0.2"/>
    </g>
   </g>
   <g id="PolyCollection_2">
    <defs>
     <path id="ma2c1edefb5" d="M 134.364545 -506.076712 
L 134.364545 -482.908462 
L 154.76648 -478.35765 
L 175.168414 -494.221414 
L 195.570348 -491.048666 
L 215.972282 -493.292246 
L 236.374217 -481.730145 
L 256.776151 -470.449085 
L 277.178085 -473.066661 
L 297.580019 -481.762058 
L 317.981954 -459.055938 
L 338.383888 -457.729596 
L 358.785822 -491.253664 
L 379.187756 -474.474133 
L 399.589691 -485.039987 
L 419.991625 -485.286467 
L 440.393559 -494.457471 
L 460.795493 -485.992811 
L 481.197427 -490.213975 
L 501.599362 -498.280125 
L 522.001296 -489.527471 
L 542.40323 -488.132974 
L 562.805164 -493.417228 
L 583.207099 -491.591238 
L 603.609033 -502.147314 
L 624.010967 -501.140983 
L 644.412901 -480.50808 
L 664.814836 -492.852427 
L 685.21677 -481.641265 
L 705.618704 -494.012877 
L 726.020638 -500.337248 
L 746.422573 -495.352154 
L 766.824507 -494.499305 
L 787.226441 -489.069518 
L 807.628375 -498.596173 
L 828.030309 -498.17582 
L 848.432244 -499.796648 
L 868.834178 -496.089559 
L 889.236112 -497.459351 
L 909.638046 -458.69323 
L 930.039981 -480.321198 
L 950.441915 -480.357066 
L 970.843849 -480.33276 
L 991.245783 -475.530204 
L 1011.647718 -473.360598 
L 1032.049652 -477.714977 
L 1052.451586 -485.345195 
L 1072.85352 -484.00696 
L 1093.255455 -476.425454 
L 1093.255455 -498.100232 
L 1093.255455 -498.100232 
L 1072.85352 -505.65863 
L 1052.451586 -505.464438 
L 1032.049652 -505.022673 
L 1011.647718 -495.867029 
L 991.245783 -496.789762 
L 970.843849 -491.763826 
L 950.441915 -503.478995 
L 930.039981 -504.751612 
L 909.638046 -502.209762 
L 889.236112 -512.531121 
L 868.834178 -517.48142 
L 848.432244 -507.586491 
L 828.030309 -504.903654 
L 807.628375 -514.534209 
L 787.226441 -513.999043 
L 766.824507 -514.687841 
L 746.422573 -510.372743 
L 726.020638 -515.051488 
L 705.618704 -506.81046 
L 685.21677 -515.978194 
L 664.814836 -517.036082 
L 644.412901 -520.838266 
L 624.010967 -522.072358 
L 603.609033 -523.183116 
L 583.207099 -520.443499 
L 562.805164 -517.83645 
L 542.40323 -512.392422 
L 522.001296 -511.739056 
L 501.599362 -515.454763 
L 481.197427 -516.874844 
L 460.795493 -511.08349 
L 440.393559 -521.626923 
L 419.991625 -519.481612 
L 399.589691 -508.090507 
L 379.187756 -499.622332 
L 358.785822 -500.400816 
L 338.383888 -506.282471 
L 317.981954 -497.665333 
L 297.580019 -498.138577 
L 277.178085 -509.18421 
L 256.776151 -495.251169 
L 236.374217 -500.520326 
L 215.972282 -510.255824 
L 195.570348 -502.669669 
L 175.168414 -506.344054 
L 154.76648 -506.978032 
L 134.364545 -506.076712 
z
" style="stroke: #e18632; stroke-opacity: 0.2"/>
    </defs>
    <g clip-path="url(#pf7b5ff428f)">
     <use xlink:href="#ma2c1edefb5" x="0" y="576" style="fill: #e18632; fill-opacity: 0.2; stroke: #e18632; stroke-opacity: 0.2"/>
    </g>
   </g>
   <g id="PolyCollection_3">
    <defs>
     <path id="meac6903915" d="M 134.364545 -485.842217 
L 134.364545 -469.531727 
L 154.76648 -471.930259 
L 175.168414 -474.065869 
L 195.570348 -478.500418 
L 215.972282 -474.724767 
L 236.374217 -459.124635 
L 256.776151 -448.047961 
L 277.178085 -458.442123 
L 297.580019 -466.368261 
L 317.981954 -442.731844 
L 338.383888 -446.804253 
L 358.785822 -476.443315 
L 379.187756 -449.613153 
L 399.589691 -460.227106 
L 419.991625 -466.488873 
L 440.393559 -456.217566 
L 460.795493 -458.600501 
L 481.197427 -478.130768 
L 501.599362 -481.136854 
L 522.001296 -475.027122 
L 542.40323 -468.410994 
L 562.805164 -463.882149 
L 583.207099 -473.116791 
L 603.609033 -467.608685 
L 624.010967 -468.855797 
L 644.412901 -464.623639 
L 664.814836 -471.834387 
L 685.21677 -460.198372 
L 705.618704 -468.426508 
L 726.020638 -486.297385 
L 746.422573 -469.931764 
L 766.824507 -471.28452 
L 787.226441 -472.217538 
L 807.628375 -475.47508 
L 828.030309 -481.220147 
L 848.432244 -467.545612 
L 868.834178 -468.522581 
L 889.236112 -473.444097 
L 909.638046 -449.907316 
L 930.039981 -457.981428 
L 950.441915 -457.755179 
L 970.843849 -470.251701 
L 991.245783 -467.841352 
L 1011.647718 -467.841352 
L 1032.049652 -469.464955 
L 1052.451586 -467.659223 
L 1072.85352 -468.391365 
L 1093.255455 -465.837471 
L 1093.255455 -488.55514 
L 1093.255455 -488.55514 
L 1072.85352 -487.892007 
L 1052.451586 -488.416145 
L 1032.049652 -485.683921 
L 1011.647718 -479.063223 
L 991.245783 -474.784779 
L 970.843849 -479.404362 
L 950.441915 -485.445214 
L 930.039981 -484.982424 
L 909.638046 -486.190006 
L 889.236112 -492.387486 
L 868.834178 -498.089121 
L 848.432244 -487.866939 
L 828.030309 -488.261221 
L 807.628375 -491.972721 
L 787.226441 -492.013797 
L 766.824507 -494.487004 
L 746.422573 -496.321134 
L 726.020638 -503.623778 
L 705.618704 -486.375371 
L 685.21677 -502.06937 
L 664.814836 -512.914174 
L 644.412901 -501.513742 
L 624.010967 -503.148381 
L 603.609033 -498.16735 
L 583.207099 -495.600427 
L 562.805164 -506.650835 
L 542.40323 -488.922191 
L 522.001296 -498.40291 
L 501.599362 -502.513565 
L 481.197427 -504.295605 
L 460.795493 -498.693909 
L 440.393559 -500.579877 
L 419.991625 -490.830496 
L 399.589691 -481.664536 
L 379.187756 -497.31528 
L 358.785822 -496.129707 
L 338.383888 -483.158501 
L 317.981954 -478.804946 
L 297.580019 -475.32395 
L 277.178085 -490.848855 
L 256.776151 -487.782032 
L 236.374217 -486.432267 
L 215.972282 -490.011367 
L 195.570348 -491.024511 
L 175.168414 -509.499601 
L 154.76648 -500.491749 
L 134.364545 -485.842217 
z
" style="stroke: #b59a32; stroke-opacity: 0.2"/>
    </defs>
    <g clip-path="url(#pf7b5ff428f)">
     <use xlink:href="#meac6903915" x="0" y="576" style="fill: #b59a32; fill-opacity: 0.2; stroke: #b59a32; stroke-opacity: 0.2"/>
    </g>
   </g>
   <g id="PolyCollection_4">
    <defs>
     <path id="mf7c56e0e5d" d="M 134.364545 -511.466413 
L 134.364545 -482.538187 
L 154.76648 -499.723574 
L 175.168414 -512.187802 
L 195.570348 -505.38118 
L 215.972282 -514.51737 
L 236.374217 -503.291465 
L 256.776151 -478.795916 
L 277.178085 -496.596856 
L 297.580019 -500.27574 
L 317.981954 -477.299222 
L 338.383888 -485.95324 
L 358.785822 -509.438857 
L 379.187756 -480.716135 
L 399.589691 -501.896629 
L 419.991625 -503.626311 
L 440.393559 -502.376764 
L 460.795493 -491.721853 
L 481.197427 -516.31019 
L 501.599362 -517.538188 
L 522.001296 -511.675271 
L 542.40323 -498.833106 
L 562.805164 -504.291034 
L 583.207099 -501.072629 
L 603.609033 -490.955183 
L 624.010967 -495.254021 
L 644.412901 -486.243885 
L 664.814836 -504.655962 
L 685.21677 -497.729122 
L 705.618704 -503.907046 
L 726.020638 -515.656124 
L 746.422573 -506.905424 
L 766.824507 -501.540515 
L 787.226441 -497.89851 
L 807.628375 -506.52073 
L 828.030309 -500.216517 
L 848.432244 -503.706106 
L 868.834178 -506.950514 
L 889.236112 -503.676681 
L 909.638046 -485.935261 
L 930.039981 -485.105339 
L 950.441915 -484.890276 
L 970.843849 -503.075689 
L 991.245783 -498.52207 
L 1011.647718 -498.926252 
L 1032.049652 -499.61935 
L 1052.451586 -501.893606 
L 1072.85352 -501.960952 
L 1093.255455 -494.048224 
L 1093.255455 -519.71654 
L 1093.255455 -519.71654 
L 1072.85352 -521.551569 
L 1052.451586 -521.60428 
L 1032.049652 -522.34782 
L 1011.647718 -515.901395 
L 991.245783 -515.518128 
L 970.843849 -524.980821 
L 950.441915 -518.887455 
L 930.039981 -519.835434 
L 909.638046 -521.215754 
L 889.236112 -523.98073 
L 868.834178 -523.877793 
L 848.432244 -523.151014 
L 828.030309 -519.609478 
L 807.628375 -519.135255 
L 787.226441 -516.58832 
L 766.824507 -529.488185 
L 746.422573 -526.58408 
L 726.020638 -543.425818 
L 705.618704 -526.36543 
L 685.21677 -527.205767 
L 664.814836 -537.875611 
L 644.412901 -531.413891 
L 624.010967 -535.472368 
L 603.609033 -530.610647 
L 583.207099 -529.446389 
L 562.805164 -539.741912 
L 542.40323 -532.834011 
L 522.001296 -531.341237 
L 501.599362 -538.846701 
L 481.197427 -534.127952 
L 460.795493 -530.155423 
L 440.393559 -543.396861 
L 419.991625 -523.475509 
L 399.589691 -525.628222 
L 379.187756 -524.046408 
L 358.785822 -538.029456 
L 338.383888 -513.915407 
L 317.981954 -511.607541 
L 297.580019 -524.172638 
L 277.178085 -525.253678 
L 256.776151 -518.922566 
L 236.374217 -520.803645 
L 215.972282 -533.177151 
L 195.570348 -521.844527 
L 175.168414 -530.260446 
L 154.76648 -522.511939 
L 134.364545 -511.466413 
z
" style="stroke: #8ba731; stroke-opacity: 0.2"/>
    </defs>
    <g clip-path="url(#pf7b5ff428f)">
     <use xlink:href="#mf7c56e0e5d" x="0" y="576" style="fill: #8ba731; fill-opacity: 0.2; stroke: #8ba731; stroke-opacity: 0.2"/>
    </g>
   </g>
   <g id="PolyCollection_5">
    <defs>
     <path id="m576b704ea0" d="M 134.364545 -422.575586 
L 134.364545 -328.399153 
L 154.76648 -344.617659 
L 175.168414 -355.201637 
L 195.570348 -330.634757 
L 215.972282 -347.518006 
L 236.374217 -321.125751 
L 256.776151 -343.989572 
L 277.178085 -330.529641 
L 297.580019 -334.810651 
L 317.981954 -323.618264 
L 338.383888 -300.066396 
L 358.785822 -339.174644 
L 379.187756 -344.03334 
L 399.589691 -327.301899 
L 419.991625 -330.366674 
L 440.393559 -339.358589 
L 460.795493 -339.566456 
L 481.197427 -321.244819 
L 501.599362 -347.710592 
L 522.001296 -331.816909 
L 542.40323 -338.436713 
L 562.805164 -347.655683 
L 583.207099 -347.071254 
L 603.609033 -349.199164 
L 624.010967 -356.556657 
L 644.412901 -355.502497 
L 664.814836 -360.110166 
L 685.21677 -364.771119 
L 705.618704 -354.793017 
L 726.020638 -349.359007 
L 746.422573 -358.46017 
L 766.824507 -340.097418 
L 787.226441 -345.041509 
L 807.628375 -354.470464 
L 828.030309 -339.692101 
L 848.432244 -354.231534 
L 868.834178 -345.70049 
L 889.236112 -325.141882 
L 909.638046 -348.372946 
L 930.039981 -341.325955 
L 950.441915 -339.385054 
L 970.843849 -321.945272 
L 991.245783 -317.965554 
L 1011.647718 -317.899733 
L 1032.049652 -325.466255 
L 1052.451586 -348.272819 
L 1072.85352 -344.398041 
L 1093.255455 -339.747376 
L 1093.255455 -423.948335 
L 1093.255455 -423.948335 
L 1072.85352 -433.071781 
L 1052.451586 -430.226501 
L 1032.049652 -396.147165 
L 1011.647718 -374.557435 
L 991.245783 -378.35247 
L 970.843849 -416.950878 
L 950.441915 -433.138423 
L 930.039981 -434.574448 
L 909.638046 -406.225373 
L 889.236112 -391.150767 
L 868.834178 -406.324155 
L 848.432244 -406.171234 
L 828.030309 -392.027774 
L 807.628375 -399.879142 
L 787.226441 -411.116121 
L 766.824507 -414.974122 
L 746.422573 -386.27647 
L 726.020638 -395.822721 
L 705.618704 -407.115193 
L 685.21677 -411.62376 
L 664.814836 -420.028874 
L 644.412901 -404.550203 
L 624.010967 -402.200271 
L 603.609033 -411.999093 
L 583.207099 -406.515233 
L 562.805164 -405.249185 
L 542.40323 -406.098684 
L 522.001296 -392.737182 
L 501.599362 -406.409904 
L 481.197427 -416.607959 
L 460.795493 -407.389628 
L 440.393559 -412.900338 
L 419.991625 -410.556204 
L 399.589691 -411.233088 
L 379.187756 -397.705191 
L 358.785822 -416.056839 
L 338.383888 -416.328966 
L 317.981954 -383.792134 
L 297.580019 -384.300962 
L 277.178085 -410.346697 
L 256.776151 -406.135599 
L 236.374217 -406.965284 
L 215.972282 -411.198198 
L 195.570348 -406.000064 
L 175.168414 -421.713459 
L 154.76648 -403.164255 
L 134.364545 -422.575586 
z
" style="stroke: #32b258; stroke-opacity: 0.2"/>
    </defs>
    <g clip-path="url(#pf7b5ff428f)">
     <use xlink:href="#m576b704ea0" x="0" y="576" style="fill: #32b258; fill-opacity: 0.2; stroke: #32b258; stroke-opacity: 0.2"/>
    </g>
   </g>
   <g id="PolyCollection_6">
    <defs>
     <path id="me340884de8" d="M 134.364545 -503.476694 
L 134.364545 -450.923264 
L 154.76648 -481.361395 
L 175.168414 -494.749378 
L 195.570348 -495.33721 
L 215.972282 -491.972644 
L 236.374217 -471.565361 
L 256.776151 -448.256173 
L 277.178085 -462.374193 
L 297.580019 -475.59537 
L 317.981954 -449.922526 
L 338.383888 -448.719894 
L 358.785822 -479.551238 
L 379.187756 -490.807064 
L 399.589691 -498.303558 
L 419.991625 -498.383067 
L 440.393559 -482.351229 
L 460.795493 -484.001642 
L 481.197427 -493.379463 
L 501.599362 -493.194035 
L 522.001296 -491.186817 
L 542.40323 -490.515831 
L 562.805164 -492.9774 
L 583.207099 -492.460738 
L 603.609033 -498.204785 
L 624.010967 -499.50458 
L 644.412901 -494.692509 
L 664.814836 -491.681655 
L 685.21677 -495.897609 
L 705.618704 -501.710585 
L 726.020638 -502.91949 
L 746.422573 -500.348021 
L 766.824507 -513.940511 
L 787.226441 -504.830762 
L 807.628375 -500.244546 
L 828.030309 -502.562491 
L 848.432244 -503.955089 
L 868.834178 -506.171887 
L 889.236112 -489.705241 
L 909.638046 -469.744772 
L 930.039981 -463.775624 
L 950.441915 -463.289475 
L 970.843849 -469.246375 
L 991.245783 -464.979671 
L 1011.647718 -465.929906 
L 1032.049652 -474.814617 
L 1052.451586 -481.260233 
L 1072.85352 -481.376363 
L 1093.255455 -480.810396 
L 1093.255455 -504.092918 
L 1093.255455 -504.092918 
L 1072.85352 -510.811209 
L 1052.451586 -512.493701 
L 1032.049652 -485.843556 
L 1011.647718 -496.770717 
L 991.245783 -496.209028 
L 970.843849 -501.956334 
L 950.441915 -499.991981 
L 930.039981 -499.373158 
L 909.638046 -525.903403 
L 889.236112 -517.760001 
L 868.834178 -532.419296 
L 848.432244 -527.30647 
L 828.030309 -520.254689 
L 807.628375 -527.7614 
L 787.226441 -525.874882 
L 766.824507 -521.242232 
L 746.422573 -514.576397 
L 726.020638 -534.236133 
L 705.618704 -507.847735 
L 685.21677 -524.2959 
L 664.814836 -533.403248 
L 644.412901 -527.072798 
L 624.010967 -535.420098 
L 603.609033 -535.775118 
L 583.207099 -531.510232 
L 562.805164 -534.4758 
L 542.40323 -530.088788 
L 522.001296 -520.835302 
L 501.599362 -520.112377 
L 481.197427 -533.292372 
L 460.795493 -525.517777 
L 440.393559 -526.565109 
L 419.991625 -520.760088 
L 399.589691 -505.405457 
L 379.187756 -514.236641 
L 358.785822 -497.845324 
L 338.383888 -506.259717 
L 317.981954 -503.36211 
L 297.580019 -511.417499 
L 277.178085 -506.0381 
L 256.776151 -488.746029 
L 236.374217 -512.746348 
L 215.972282 -517.399953 
L 195.570348 -520.630454 
L 175.168414 -515.921644 
L 154.76648 -507.510713 
L 134.364545 -503.476694 
z
" style="stroke: #35ae95; stroke-opacity: 0.2"/>
    </defs>
    <g clip-path="url(#pf7b5ff428f)">
     <use xlink:href="#me340884de8" x="0" y="576" style="fill: #35ae95; fill-opacity: 0.2; stroke: #35ae95; stroke-opacity: 0.2"/>
    </g>
   </g>
   <g id="PolyCollection_7">
    <defs>
     <path id="mcaea4c2388" d="M 134.364545 -410.992769 
L 134.364545 -391.152132 
L 154.76648 -390.423794 
L 175.168414 -398.78041 
L 195.570348 -393.848634 
L 215.972282 -389.352843 
L 236.374217 -386.434795 
L 256.776151 -369.712533 
L 277.178085 -385.113927 
L 297.580019 -385.756131 
L 317.981954 -369.987994 
L 338.383888 -376.210929 
L 358.785822 -404.146368 
L 379.187756 -379.723725 
L 399.589691 -397.664216 
L 419.991625 -401.258475 
L 440.393559 -415.046509 
L 460.795493 -408.779335 
L 481.197427 -416.903766 
L 501.599362 -420.92808 
L 522.001296 -412.993736 
L 542.40323 -404.392986 
L 562.805164 -410.377656 
L 583.207099 -411.800033 
L 603.609033 -404.328807 
L 624.010967 -402.969236 
L 644.412901 -387.538963 
L 664.814836 -400.082125 
L 685.21677 -391.171988 
L 705.618704 -409.251603 
L 726.020638 -403.935339 
L 746.422573 -399.786186 
L 766.824507 -403.728196 
L 787.226441 -410.487507 
L 807.628375 -400.090639 
L 828.030309 -399.022755 
L 848.432244 -400.172916 
L 868.834178 -411.699979 
L 889.236112 -406.026813 
L 909.638046 -338.124519 
L 930.039981 -383.049102 
L 950.441915 -383.90128 
L 970.843849 -391.404021 
L 991.245783 -383.013936 
L 1011.647718 -382.389074 
L 1032.049652 -388.934516 
L 1052.451586 -378.242131 
L 1072.85352 -375.416592 
L 1093.255455 -383.627633 
L 1093.255455 -402.071735 
L 1093.255455 -402.071735 
L 1072.85352 -404.746072 
L 1052.451586 -405.410401 
L 1032.049652 -412.393427 
L 1011.647718 -403.508434 
L 991.245783 -406.586146 
L 970.843849 -408.253236 
L 950.441915 -402.602812 
L 930.039981 -402.556653 
L 909.638046 -411.612133 
L 889.236112 -434.173367 
L 868.834178 -428.818017 
L 848.432244 -434.797531 
L 828.030309 -424.725125 
L 807.628375 -433.333912 
L 787.226441 -427.573762 
L 766.824507 -429.819728 
L 746.422573 -433.21818 
L 726.020638 -432.378612 
L 705.618704 -430.676366 
L 685.21677 -432.593463 
L 664.814836 -433.906407 
L 644.412901 -436.445208 
L 624.010967 -434.585349 
L 603.609033 -439.349489 
L 583.207099 -436.008879 
L 562.805164 -429.506751 
L 542.40323 -433.268491 
L 522.001296 -423.675893 
L 501.599362 -437.512913 
L 481.197427 -439.407785 
L 460.795493 -435.536611 
L 440.393559 -443.048522 
L 419.991625 -429.689182 
L 399.589691 -413.774443 
L 379.187756 -410.808599 
L 358.785822 -432.685309 
L 338.383888 -412.677815 
L 317.981954 -407.269054 
L 297.580019 -410.258743 
L 277.178085 -418.007586 
L 256.776151 -408.908928 
L 236.374217 -396.917847 
L 215.972282 -419.102572 
L 195.570348 -419.933622 
L 175.168414 -420.57166 
L 154.76648 -414.400708 
L 134.364545 -410.992769 
z
" style="stroke: #37abb2; stroke-opacity: 0.2"/>
    </defs>
    <g clip-path="url(#pf7b5ff428f)">
     <use xlink:href="#mcaea4c2388" x="0" y="576" style="fill: #37abb2; fill-opacity: 0.2; stroke: #37abb2; stroke-opacity: 0.2"/>
    </g>
   </g>
   <g id="PolyCollection_8">
    <defs>
     <path id="md6cc9a6b0d" d="M 134.364545 -391.607344 
L 134.364545 -370.677898 
L 154.76648 -372.842772 
L 175.168414 -379.548978 
L 195.570348 -367.740817 
L 215.972282 -375.521225 
L 236.374217 -367.031677 
L 256.776151 -357.442313 
L 277.178085 -370.59318 
L 297.580019 -369.843543 
L 317.981954 -359.811605 
L 338.383888 -346.596005 
L 358.785822 -388.484656 
L 379.187756 -362.241894 
L 399.589691 -381.371508 
L 419.991625 -387.400069 
L 440.393559 -396.549412 
L 460.795493 -389.913503 
L 481.197427 -393.80711 
L 501.599362 -398.677513 
L 522.001296 -391.226518 
L 542.40323 -382.873923 
L 562.805164 -385.264756 
L 583.207099 -386.789956 
L 603.609033 -387.016305 
L 624.010967 -385.20421 
L 644.412901 -380.589173 
L 664.814836 -384.986647 
L 685.21677 -374.867118 
L 705.618704 -381.673105 
L 726.020638 -387.353473 
L 746.422573 -367.091443 
L 766.824507 -380.869063 
L 787.226441 -382.215896 
L 807.628375 -387.731298 
L 828.030309 -389.422425 
L 848.432244 -388.662552 
L 868.834178 -383.2802 
L 889.236112 -390.894687 
L 909.638046 -345.25051 
L 930.039981 -361.933093 
L 950.441915 -361.646327 
L 970.843849 -374.136632 
L 991.245783 -363.784085 
L 1011.647718 -365.125842 
L 1032.049652 -367.180004 
L 1052.451586 -376.199825 
L 1072.85352 -375.496569 
L 1093.255455 -373.324684 
L 1093.255455 -394.426744 
L 1093.255455 -394.426744 
L 1072.85352 -396.265865 
L 1052.451586 -396.424055 
L 1032.049652 -394.708952 
L 1011.647718 -388.281477 
L 991.245783 -387.127704 
L 970.843849 -388.468934 
L 950.441915 -393.878929 
L 930.039981 -393.070071 
L 909.638046 -402.043514 
L 889.236112 -410.585647 
L 868.834178 -413.557703 
L 848.432244 -411.214534 
L 828.030309 -409.492163 
L 807.628375 -415.704741 
L 787.226441 -413.783943 
L 766.824507 -411.043563 
L 746.422573 -408.512935 
L 726.020638 -416.903024 
L 705.618704 -412.188463 
L 685.21677 -412.938786 
L 664.814836 -418.41887 
L 644.412901 -419.72602 
L 624.010967 -414.866409 
L 603.609033 -416.700688 
L 583.207099 -414.884114 
L 562.805164 -406.237762 
L 542.40323 -403.835246 
L 522.001296 -412.291413 
L 501.599362 -419.745236 
L 481.197427 -419.816938 
L 460.795493 -419.090175 
L 440.393559 -424.690879 
L 419.991625 -412.419497 
L 399.589691 -412.667444 
L 379.187756 -404.041739 
L 358.785822 -405.609777 
L 338.383888 -389.991323 
L 317.981954 -398.680751 
L 297.580019 -398.516695 
L 277.178085 -393.947849 
L 256.776151 -399.901893 
L 236.374217 -384.735747 
L 215.972282 -403.37301 
L 195.570348 -399.931994 
L 175.168414 -401.115595 
L 154.76648 -395.548833 
L 134.364545 -391.607344 
z
" style="stroke: #39a7d6; stroke-opacity: 0.2"/>
    </defs>
    <g clip-path="url(#pf7b5ff428f)">
     <use xlink:href="#md6cc9a6b0d" x="0" y="576" style="fill: #39a7d6; fill-opacity: 0.2; stroke: #39a7d6; stroke-opacity: 0.2"/>
    </g>
   </g>
   <g id="PolyCollection_9">
    <defs>
     <path id="m72e9b962d4" d="M 134.364545 -392.127121 
L 134.364545 -369.003813 
L 154.76648 -372.606104 
L 175.168414 -379.099883 
L 195.570348 -369.775594 
L 215.972282 -375.250862 
L 236.374217 -367.484919 
L 256.776151 -357.427871 
L 277.178085 -371.450225 
L 297.580019 -369.287875 
L 317.981954 -358.59061 
L 338.383888 -345.604646 
L 358.785822 -387.8329 
L 379.187756 -362.308912 
L 399.589691 -381.555846 
L 419.991625 -387.12393 
L 440.393559 -396.866566 
L 460.795493 -389.893137 
L 481.197427 -392.441791 
L 501.599362 -398.439868 
L 522.001296 -389.477834 
L 542.40323 -382.792502 
L 562.805164 -385.41122 
L 583.207099 -386.509437 
L 603.609033 -387.177711 
L 624.010967 -385.204364 
L 644.412901 -379.930692 
L 664.814836 -383.373256 
L 685.21677 -375.590755 
L 705.618704 -380.715525 
L 726.020638 -388.756009 
L 746.422573 -366.880697 
L 766.824507 -381.08269 
L 787.226441 -381.702965 
L 807.628375 -388.106585 
L 828.030309 -389.705954 
L 848.432244 -388.652773 
L 868.834178 -384.187482 
L 889.236112 -390.724288 
L 909.638046 -345.991534 
L 930.039981 -361.187149 
L 950.441915 -361.292117 
L 970.843849 -373.585978 
L 991.245783 -363.484677 
L 1011.647718 -363.665693 
L 1032.049652 -365.176377 
L 1052.451586 -375.799043 
L 1072.85352 -375.484696 
L 1093.255455 -373.320043 
L 1093.255455 -395.021826 
L 1093.255455 -395.021826 
L 1072.85352 -396.46284 
L 1052.451586 -396.604785 
L 1032.049652 -394.976009 
L 1011.647718 -388.303286 
L 991.245783 -387.142918 
L 970.843849 -388.770192 
L 950.441915 -393.880129 
L 930.039981 -393.880129 
L 909.638046 -404.132739 
L 889.236112 -410.623555 
L 868.834178 -414.110141 
L 848.432244 -410.631955 
L 828.030309 -409.346868 
L 807.628375 -415.342455 
L 787.226441 -412.88096 
L 766.824507 -410.93422 
L 746.422573 -408.499802 
L 726.020638 -417.155326 
L 705.618704 -410.893711 
L 685.21677 -412.94782 
L 664.814836 -418.75022 
L 644.412901 -419.902649 
L 624.010967 -413.907749 
L 603.609033 -417.682831 
L 583.207099 -414.654102 
L 562.805164 -407.182871 
L 542.40323 -404.071458 
L 522.001296 -412.196822 
L 501.599362 -418.75854 
L 481.197427 -418.74602 
L 460.795493 -417.856826 
L 440.393559 -425.134035 
L 419.991625 -411.972204 
L 399.589691 -413.292877 
L 379.187756 -405.054666 
L 358.785822 -405.736419 
L 338.383888 -390.178747 
L 317.981954 -398.681994 
L 297.580019 -398.358476 
L 277.178085 -394.104552 
L 256.776151 -400.236101 
L 236.374217 -385.368547 
L 215.972282 -403.368627 
L 195.570348 -400.56569 
L 175.168414 -401.118836 
L 154.76648 -395.546334 
L 134.364545 -392.127121 
z
" style="stroke: #8f93f4; stroke-opacity: 0.2"/>
    </defs>
    <g clip-path="url(#pf7b5ff428f)">
     <use xlink:href="#m72e9b962d4" x="0" y="576" style="fill: #8f93f4; fill-opacity: 0.2; stroke: #8f93f4; stroke-opacity: 0.2"/>
    </g>
   </g>
   <g id="PolyCollection_10">
    <defs>
     <path id="m94547ede37" d="M 134.364545 -444.865734 
L 134.364545 -381.604794 
L 154.76648 -390.440656 
L 175.168414 -389.190463 
L 195.570348 -363.831756 
L 215.972282 -386.589766 
L 236.374217 -318.063419 
L 256.776151 -245.377804 
L 277.178085 -319.543438 
L 297.580019 -297.2057 
L 317.981954 -335.472317 
L 338.383888 -270.220179 
L 358.785822 -362.405728 
L 379.187756 -279.979137 
L 399.589691 -323.461949 
L 419.991625 -338.05132 
L 440.393559 -317.173802 
L 460.795493 -254.266812 
L 481.197427 -351.320875 
L 501.599362 -399.910735 
L 522.001296 -332.207906 
L 542.40323 -318.785888 
L 562.805164 -336.871471 
L 583.207099 -298.186192 
L 603.609033 -352.841526 
L 624.010967 -321.499041 
L 644.412901 -249.462984 
L 664.814836 -339.45194 
L 685.21677 -324.915755 
L 705.618704 -338.396774 
L 726.020638 -374.401264 
L 746.422573 -327.659794 
L 766.824507 -330.047037 
L 787.226441 -345.969741 
L 807.628375 -321.993836 
L 828.030309 -336.569836 
L 848.432244 -327.221891 
L 868.834178 -338.431856 
L 889.236112 -335.499008 
L 909.638046 -330.999693 
L 930.039981 -382.976171 
L 950.441915 -383.683987 
L 970.843849 -375.038473 
L 991.245783 -343.774337 
L 1011.647718 -339.565344 
L 1032.049652 -339.780876 
L 1052.451586 -362.713583 
L 1072.85352 -363.382465 
L 1093.255455 -279.35065 
L 1093.255455 -408.614209 
L 1093.255455 -408.614209 
L 1072.85352 -398.31098 
L 1052.451586 -398.273713 
L 1032.049652 -414.636467 
L 1011.647718 -403.250289 
L 991.245783 -412.163506 
L 970.843849 -405.852403 
L 950.441915 -414.965466 
L 930.039981 -415.368115 
L 909.638046 -426.226928 
L 889.236112 -390.701572 
L 868.834178 -404.79809 
L 848.432244 -385.274918 
L 828.030309 -387.267395 
L 807.628375 -381.159999 
L 787.226441 -396.632738 
L 766.824507 -387.00179 
L 746.422573 -431.38075 
L 726.020638 -448.425319 
L 705.618704 -422.419013 
L 685.21677 -416.153011 
L 664.814836 -422.811198 
L 644.412901 -418.31128 
L 624.010967 -417.073556 
L 603.609033 -412.432673 
L 583.207099 -386.211408 
L 562.805164 -444.55332 
L 542.40323 -386.647656 
L 522.001296 -418.899127 
L 501.599362 -429.982865 
L 481.197427 -408.296545 
L 460.795493 -378.35409 
L 440.393559 -444.270243 
L 419.991625 -390.1615 
L 399.589691 -420.130862 
L 379.187756 -409.548717 
L 358.785822 -431.96664 
L 338.383888 -370.023277 
L 317.981954 -396.966823 
L 297.580019 -382.00969 
L 277.178085 -403.396573 
L 256.776151 -381.259497 
L 236.374217 -402.114523 
L 215.972282 -439.045827 
L 195.570348 -451.197358 
L 175.168414 -444.613566 
L 154.76648 -470.584228 
L 134.364545 -444.865734 
z
" style="stroke: #db70f4; stroke-opacity: 0.2"/>
    </defs>
    <g clip-path="url(#pf7b5ff428f)">
     <use xlink:href="#m94547ede37" x="0" y="576" style="fill: #db70f4; fill-opacity: 0.2; stroke: #db70f4; stroke-opacity: 0.2"/>
    </g>
   </g>
   <g id="PolyCollection_11">
    <defs>
     <path id="m9e723931fa" d="M 134.364545 -405.912102 
L 134.364545 -332.773959 
L 154.76648 -301.04884 
L 175.168414 -292.638592 
L 195.570348 -266.985609 
L 215.972282 -283.156536 
L 236.374217 -175.161628 
L 256.776151 -171.031141 
L 277.178085 -266.301582 
L 297.580019 -216.292854 
L 317.981954 -274.21301 
L 338.383888 -113.234743 
L 358.785822 -285.950552 
L 379.187756 -198.200838 
L 399.589691 -272.459889 
L 419.991625 -310.495457 
L 440.393559 -224.415348 
L 460.795493 -251.578324 
L 481.197427 -184.698652 
L 501.599362 -342.554462 
L 522.001296 -161.734506 
L 542.40323 -161.328163 
L 562.805164 -188.960815 
L 583.207099 -234.930679 
L 603.609033 -239.31267 
L 624.010967 -212.77203 
L 644.412901 -107.942182 
L 664.814836 -251.481696 
L 685.21677 -206.488043 
L 705.618704 -281.36075 
L 726.020638 -240.854159 
L 746.422573 -232.136613 
L 766.824507 -217.776385 
L 787.226441 -226.171467 
L 807.628375 -257.594455 
L 828.030309 -230.664032 
L 848.432244 -247.083915 
L 868.834178 -257.161695 
L 889.236112 -187.507781 
L 909.638046 -172.786008 
L 930.039981 -301.720676 
L 950.441915 -296.377688 
L 970.843849 -308.761086 
L 991.245783 -244.282568 
L 1011.647718 -222.964146 
L 1032.049652 -207.308624 
L 1052.451586 -249.0621 
L 1072.85352 -262.411249 
L 1093.255455 -195.745604 
L 1093.255455 -337.566339 
L 1093.255455 -337.566339 
L 1072.85352 -367.302994 
L 1052.451586 -367.229138 
L 1032.049652 -337.180579 
L 1011.647718 -321.882249 
L 991.245783 -345.628531 
L 970.843849 -366.132612 
L 950.441915 -362.494123 
L 930.039981 -372.704941 
L 909.638046 -342.85706 
L 889.236112 -321.565578 
L 868.834178 -341.429787 
L 848.432244 -328.167721 
L 828.030309 -318.459304 
L 807.628375 -321.104942 
L 787.226441 -323.82051 
L 766.824507 -326.109661 
L 746.422573 -385.98677 
L 726.020638 -354.230274 
L 705.618704 -364.74575 
L 685.21677 -315.194736 
L 664.814836 -325.979285 
L 644.412901 -376.938857 
L 624.010967 -318.296567 
L 603.609033 -351.520047 
L 583.207099 -289.234836 
L 562.805164 -376.928432 
L 542.40323 -327.874246 
L 522.001296 -329.781804 
L 501.599362 -380.351419 
L 481.197427 -311.073844 
L 460.795493 -321.03276 
L 440.393559 -396.059798 
L 419.991625 -350.759983 
L 399.589691 -379.288594 
L 379.187756 -359.232976 
L 358.785822 -347.0606 
L 338.383888 -303.335893 
L 317.981954 -350.805519 
L 297.580019 -329.336923 
L 277.178085 -343.59089 
L 256.776151 -323.466002 
L 236.374217 -378.647861 
L 215.972282 -386.025812 
L 195.570348 -400.290907 
L 175.168414 -413.426783 
L 154.76648 -407.533754 
L 134.364545 -405.912102 
z
" style="stroke: #f667c6; stroke-opacity: 0.2"/>
    </defs>
    <g clip-path="url(#pf7b5ff428f)">
     <use xlink:href="#m9e723931fa" x="0" y="576" style="fill: #f667c6; fill-opacity: 0.2; stroke: #f667c6; stroke-opacity: 0.2"/>
    </g>
   </g>
   <g id="matplotlib.axis_1">
    <g id="xtick_1">
     <g id="line2d_1">
      <defs>
       <path id="mfd02e30250" d="M 0 0 
L 0 3.5 
" style="stroke: #000000; stroke-width: 0.8"/>
      </defs>
      <g>
       <use xlink:href="#mfd02e30250" x="124.163578" y="489.832" style="stroke: #000000; stroke-width: 0.8"/>
      </g>
     </g>
     <g id="text_1">
      <!-- 0 -->
      <g transform="translate(117.801078 512.028875) scale(0.2 -0.2)">
       <defs>
        <path id="DejaVuSans-30" d="M 2034 4250 
Q 1547 4250 1301 3770 
Q 1056 3291 1056 2328 
Q 1056 1369 1301 889 
Q 1547 409 2034 409 
Q 2525 409 2770 889 
Q 3016 1369 3016 2328 
Q 3016 3291 2770 3770 
Q 2525 4250 2034 4250 
z
M 2034 4750 
Q 2819 4750 3233 4129 
Q 3647 3509 3647 2328 
Q 3647 1150 3233 529 
Q 2819 -91 2034 -91 
Q 1250 -91 836 529 
Q 422 1150 422 2328 
Q 422 3509 836 4129 
Q 1250 4750 2034 4750 
z
" transform="scale(0.015625)"/>
       </defs>
       <use xlink:href="#DejaVuSans-30"/>
      </g>
     </g>
    </g>
    <g id="xtick_2">
     <g id="line2d_2">
      <g>
       <use xlink:href="#mfd02e30250" x="328.182921" y="489.832" style="stroke: #000000; stroke-width: 0.8"/>
      </g>
     </g>
     <g id="text_2">
      <!-- 20 -->
      <g transform="translate(315.457921 512.028875) scale(0.2 -0.2)">
       <defs>
        <path id="DejaVuSans-32" d="M 1228 531 
L 3431 531 
L 3431 0 
L 469 0 
L 469 531 
Q 828 903 1448 1529 
Q 2069 2156 2228 2338 
Q 2531 2678 2651 2914 
Q 2772 3150 2772 3378 
Q 2772 3750 2511 3984 
Q 2250 4219 1831 4219 
Q 1534 4219 1204 4116 
Q 875 4013 500 3803 
L 500 4441 
Q 881 4594 1212 4672 
Q 1544 4750 1819 4750 
Q 2544 4750 2975 4387 
Q 3406 4025 3406 3419 
Q 3406 3131 3298 2873 
Q 3191 2616 2906 2266 
Q 2828 2175 2409 1742 
Q 1991 1309 1228 531 
z
" transform="scale(0.015625)"/>
       </defs>
       <use xlink:href="#DejaVuSans-32"/>
       <use xlink:href="#DejaVuSans-30" x="63.623047"/>
      </g>
     </g>
    </g>
    <g id="xtick_3">
     <g id="line2d_3">
      <g>
       <use xlink:href="#mfd02e30250" x="532.202263" y="489.832" style="stroke: #000000; stroke-width: 0.8"/>
      </g>
     </g>
     <g id="text_3">
      <!-- 40 -->
      <g transform="translate(519.477263 512.028875) scale(0.2 -0.2)">
       <defs>
        <path id="DejaVuSans-34" d="M 2419 4116 
L 825 1625 
L 2419 1625 
L 2419 4116 
z
M 2253 4666 
L 3047 4666 
L 3047 1625 
L 3713 1625 
L 3713 1100 
L 3047 1100 
L 3047 0 
L 2419 0 
L 2419 1100 
L 313 1100 
L 313 1709 
L 2253 4666 
z
" transform="scale(0.015625)"/>
       </defs>
       <use xlink:href="#DejaVuSans-34"/>
       <use xlink:href="#DejaVuSans-30" x="63.623047"/>
      </g>
     </g>
    </g>
    <g id="xtick_4">
     <g id="line2d_4">
      <g>
       <use xlink:href="#mfd02e30250" x="736.221605" y="489.832" style="stroke: #000000; stroke-width: 0.8"/>
      </g>
     </g>
     <g id="text_4">
      <!-- 60 -->
      <g transform="translate(723.496605 512.028875) scale(0.2 -0.2)">
       <defs>
        <path id="DejaVuSans-36" d="M 2113 2584 
Q 1688 2584 1439 2293 
Q 1191 2003 1191 1497 
Q 1191 994 1439 701 
Q 1688 409 2113 409 
Q 2538 409 2786 701 
Q 3034 994 3034 1497 
Q 3034 2003 2786 2293 
Q 2538 2584 2113 2584 
z
M 3366 4563 
L 3366 3988 
Q 3128 4100 2886 4159 
Q 2644 4219 2406 4219 
Q 1781 4219 1451 3797 
Q 1122 3375 1075 2522 
Q 1259 2794 1537 2939 
Q 1816 3084 2150 3084 
Q 2853 3084 3261 2657 
Q 3669 2231 3669 1497 
Q 3669 778 3244 343 
Q 2819 -91 2113 -91 
Q 1303 -91 875 529 
Q 447 1150 447 2328 
Q 447 3434 972 4092 
Q 1497 4750 2381 4750 
Q 2619 4750 2861 4703 
Q 3103 4656 3366 4563 
z
" transform="scale(0.015625)"/>
       </defs>
       <use xlink:href="#DejaVuSans-36"/>
       <use xlink:href="#DejaVuSans-30" x="63.623047"/>
      </g>
     </g>
    </g>
    <g id="xtick_5">
     <g id="line2d_5">
      <g>
       <use xlink:href="#mfd02e30250" x="940.240948" y="489.832" style="stroke: #000000; stroke-width: 0.8"/>
      </g>
     </g>
     <g id="text_5">
      <!-- 80 -->
      <g transform="translate(927.515948 512.028875) scale(0.2 -0.2)">
       <defs>
        <path id="DejaVuSans-38" d="M 2034 2216 
Q 1584 2216 1326 1975 
Q 1069 1734 1069 1313 
Q 1069 891 1326 650 
Q 1584 409 2034 409 
Q 2484 409 2743 651 
Q 3003 894 3003 1313 
Q 3003 1734 2745 1975 
Q 2488 2216 2034 2216 
z
M 1403 2484 
Q 997 2584 770 2862 
Q 544 3141 544 3541 
Q 544 4100 942 4425 
Q 1341 4750 2034 4750 
Q 2731 4750 3128 4425 
Q 3525 4100 3525 3541 
Q 3525 3141 3298 2862 
Q 3072 2584 2669 2484 
Q 3125 2378 3379 2068 
Q 3634 1759 3634 1313 
Q 3634 634 3220 271 
Q 2806 -91 2034 -91 
Q 1263 -91 848 271 
Q 434 634 434 1313 
Q 434 1759 690 2068 
Q 947 2378 1403 2484 
z
M 1172 3481 
Q 1172 3119 1398 2916 
Q 1625 2713 2034 2713 
Q 2441 2713 2670 2916 
Q 2900 3119 2900 3481 
Q 2900 3844 2670 4047 
Q 2441 4250 2034 4250 
Q 1625 4250 1398 4047 
Q 1172 3844 1172 3481 
z
" transform="scale(0.015625)"/>
       </defs>
       <use xlink:href="#DejaVuSans-38"/>
       <use xlink:href="#DejaVuSans-30" x="63.623047"/>
      </g>
     </g>
    </g>
    <g id="text_6">
     <!-- Percentile Threshold -->
     <g transform="translate(512.030312 535.385125) scale(0.2 -0.2)">
      <defs>
       <path id="DejaVuSans-50" d="M 1259 4147 
L 1259 2394 
L 2053 2394 
Q 2494 2394 2734 2622 
Q 2975 2850 2975 3272 
Q 2975 3691 2734 3919 
Q 2494 4147 2053 4147 
L 1259 4147 
z
M 628 4666 
L 2053 4666 
Q 2838 4666 3239 4311 
Q 3641 3956 3641 3272 
Q 3641 2581 3239 2228 
Q 2838 1875 2053 1875 
L 1259 1875 
L 1259 0 
L 628 0 
L 628 4666 
z
" transform="scale(0.015625)"/>
       <path id="DejaVuSans-65" d="M 3597 1894 
L 3597 1613 
L 953 1613 
Q 991 1019 1311 708 
Q 1631 397 2203 397 
Q 2534 397 2845 478 
Q 3156 559 3463 722 
L 3463 178 
Q 3153 47 2828 -22 
Q 2503 -91 2169 -91 
Q 1331 -91 842 396 
Q 353 884 353 1716 
Q 353 2575 817 3079 
Q 1281 3584 2069 3584 
Q 2775 3584 3186 3129 
Q 3597 2675 3597 1894 
z
M 3022 2063 
Q 3016 2534 2758 2815 
Q 2500 3097 2075 3097 
Q 1594 3097 1305 2825 
Q 1016 2553 972 2059 
L 3022 2063 
z
" transform="scale(0.015625)"/>
       <path id="DejaVuSans-72" d="M 2631 2963 
Q 2534 3019 2420 3045 
Q 2306 3072 2169 3072 
Q 1681 3072 1420 2755 
Q 1159 2438 1159 1844 
L 1159 0 
L 581 0 
L 581 3500 
L 1159 3500 
L 1159 2956 
Q 1341 3275 1631 3429 
Q 1922 3584 2338 3584 
Q 2397 3584 2469 3576 
Q 2541 3569 2628 3553 
L 2631 2963 
z
" transform="scale(0.015625)"/>
       <path id="DejaVuSans-63" d="M 3122 3366 
L 3122 2828 
Q 2878 2963 2633 3030 
Q 2388 3097 2138 3097 
Q 1578 3097 1268 2742 
Q 959 2388 959 1747 
Q 959 1106 1268 751 
Q 1578 397 2138 397 
Q 2388 397 2633 464 
Q 2878 531 3122 666 
L 3122 134 
Q 2881 22 2623 -34 
Q 2366 -91 2075 -91 
Q 1284 -91 818 406 
Q 353 903 353 1747 
Q 353 2603 823 3093 
Q 1294 3584 2113 3584 
Q 2378 3584 2631 3529 
Q 2884 3475 3122 3366 
z
" transform="scale(0.015625)"/>
       <path id="DejaVuSans-6e" d="M 3513 2113 
L 3513 0 
L 2938 0 
L 2938 2094 
Q 2938 2591 2744 2837 
Q 2550 3084 2163 3084 
Q 1697 3084 1428 2787 
Q 1159 2491 1159 1978 
L 1159 0 
L 581 0 
L 581 3500 
L 1159 3500 
L 1159 2956 
Q 1366 3272 1645 3428 
Q 1925 3584 2291 3584 
Q 2894 3584 3203 3211 
Q 3513 2838 3513 2113 
z
" transform="scale(0.015625)"/>
       <path id="DejaVuSans-74" d="M 1172 4494 
L 1172 3500 
L 2356 3500 
L 2356 3053 
L 1172 3053 
L 1172 1153 
Q 1172 725 1289 603 
Q 1406 481 1766 481 
L 2356 481 
L 2356 0 
L 1766 0 
Q 1100 0 847 248 
Q 594 497 594 1153 
L 594 3053 
L 172 3053 
L 172 3500 
L 594 3500 
L 594 4494 
L 1172 4494 
z
" transform="scale(0.015625)"/>
       <path id="DejaVuSans-69" d="M 603 3500 
L 1178 3500 
L 1178 0 
L 603 0 
L 603 3500 
z
M 603 4863 
L 1178 4863 
L 1178 4134 
L 603 4134 
L 603 4863 
z
" transform="scale(0.015625)"/>
       <path id="DejaVuSans-6c" d="M 603 4863 
L 1178 4863 
L 1178 0 
L 603 0 
L 603 4863 
z
" transform="scale(0.015625)"/>
       <path id="DejaVuSans-20" transform="scale(0.015625)"/>
       <path id="DejaVuSans-54" d="M -19 4666 
L 3928 4666 
L 3928 4134 
L 2272 4134 
L 2272 0 
L 1638 0 
L 1638 4134 
L -19 4134 
L -19 4666 
z
" transform="scale(0.015625)"/>
       <path id="DejaVuSans-68" d="M 3513 2113 
L 3513 0 
L 2938 0 
L 2938 2094 
Q 2938 2591 2744 2837 
Q 2550 3084 2163 3084 
Q 1697 3084 1428 2787 
Q 1159 2491 1159 1978 
L 1159 0 
L 581 0 
L 581 4863 
L 1159 4863 
L 1159 2956 
Q 1366 3272 1645 3428 
Q 1925 3584 2291 3584 
Q 2894 3584 3203 3211 
Q 3513 2838 3513 2113 
z
" transform="scale(0.015625)"/>
       <path id="DejaVuSans-73" d="M 2834 3397 
L 2834 2853 
Q 2591 2978 2328 3040 
Q 2066 3103 1784 3103 
Q 1356 3103 1142 2972 
Q 928 2841 928 2578 
Q 928 2378 1081 2264 
Q 1234 2150 1697 2047 
L 1894 2003 
Q 2506 1872 2764 1633 
Q 3022 1394 3022 966 
Q 3022 478 2636 193 
Q 2250 -91 1575 -91 
Q 1294 -91 989 -36 
Q 684 19 347 128 
L 347 722 
Q 666 556 975 473 
Q 1284 391 1588 391 
Q 1994 391 2212 530 
Q 2431 669 2431 922 
Q 2431 1156 2273 1281 
Q 2116 1406 1581 1522 
L 1381 1569 
Q 847 1681 609 1914 
Q 372 2147 372 2553 
Q 372 3047 722 3315 
Q 1072 3584 1716 3584 
Q 2034 3584 2315 3537 
Q 2597 3491 2834 3397 
z
" transform="scale(0.015625)"/>
       <path id="DejaVuSans-6f" d="M 1959 3097 
Q 1497 3097 1228 2736 
Q 959 2375 959 1747 
Q 959 1119 1226 758 
Q 1494 397 1959 397 
Q 2419 397 2687 759 
Q 2956 1122 2956 1747 
Q 2956 2369 2687 2733 
Q 2419 3097 1959 3097 
z
M 1959 3584 
Q 2709 3584 3137 3096 
Q 3566 2609 3566 1747 
Q 3566 888 3137 398 
Q 2709 -91 1959 -91 
Q 1206 -91 779 398 
Q 353 888 353 1747 
Q 353 2609 779 3096 
Q 1206 3584 1959 3584 
z
" transform="scale(0.015625)"/>
       <path id="DejaVuSans-64" d="M 2906 2969 
L 2906 4863 
L 3481 4863 
L 3481 0 
L 2906 0 
L 2906 525 
Q 2725 213 2448 61 
Q 2172 -91 1784 -91 
Q 1150 -91 751 415 
Q 353 922 353 1747 
Q 353 2572 751 3078 
Q 1150 3584 1784 3584 
Q 2172 3584 2448 3432 
Q 2725 3281 2906 2969 
z
M 947 1747 
Q 947 1113 1208 752 
Q 1469 391 1925 391 
Q 2381 391 2643 752 
Q 2906 1113 2906 1747 
Q 2906 2381 2643 2742 
Q 2381 3103 1925 3103 
Q 1469 3103 1208 2742 
Q 947 2381 947 1747 
z
" transform="scale(0.015625)"/>
      </defs>
      <use xlink:href="#DejaVuSans-50"/>
      <use xlink:href="#DejaVuSans-65" x="56.677734"/>
      <use xlink:href="#DejaVuSans-72" x="118.201172"/>
      <use xlink:href="#DejaVuSans-63" x="157.064453"/>
      <use xlink:href="#DejaVuSans-65" x="212.044922"/>
      <use xlink:href="#DejaVuSans-6e" x="273.568359"/>
      <use xlink:href="#DejaVuSans-74" x="336.947266"/>
      <use xlink:href="#DejaVuSans-69" x="376.15625"/>
      <use xlink:href="#DejaVuSans-6c" x="403.939453"/>
      <use xlink:href="#DejaVuSans-65" x="431.722656"/>
      <use xlink:href="#DejaVuSans-20" x="493.246094"/>
      <use xlink:href="#DejaVuSans-54" x="525.033203"/>
      <use xlink:href="#DejaVuSans-68" x="586.117188"/>
      <use xlink:href="#DejaVuSans-72" x="649.496094"/>
      <use xlink:href="#DejaVuSans-65" x="688.359375"/>
      <use xlink:href="#DejaVuSans-73" x="749.882812"/>
      <use xlink:href="#DejaVuSans-68" x="801.982422"/>
      <use xlink:href="#DejaVuSans-6f" x="865.361328"/>
      <use xlink:href="#DejaVuSans-6c" x="926.542969"/>
      <use xlink:href="#DejaVuSans-64" x="954.326172"/>
     </g>
     <!-- (Using "max_mean" Threshold Handling) -->
     <g transform="translate(410.280312 557.78075) scale(0.2 -0.2)">
      <defs>
       <path id="DejaVuSans-28" d="M 1984 4856 
Q 1566 4138 1362 3434 
Q 1159 2731 1159 2009 
Q 1159 1288 1364 580 
Q 1569 -128 1984 -844 
L 1484 -844 
Q 1016 -109 783 600 
Q 550 1309 550 2009 
Q 550 2706 781 3412 
Q 1013 4119 1484 4856 
L 1984 4856 
z
" transform="scale(0.015625)"/>
       <path id="DejaVuSans-55" d="M 556 4666 
L 1191 4666 
L 1191 1831 
Q 1191 1081 1462 751 
Q 1734 422 2344 422 
Q 2950 422 3222 751 
Q 3494 1081 3494 1831 
L 3494 4666 
L 4128 4666 
L 4128 1753 
Q 4128 841 3676 375 
Q 3225 -91 2344 -91 
Q 1459 -91 1007 375 
Q 556 841 556 1753 
L 556 4666 
z
" transform="scale(0.015625)"/>
       <path id="DejaVuSans-67" d="M 2906 1791 
Q 2906 2416 2648 2759 
Q 2391 3103 1925 3103 
Q 1463 3103 1205 2759 
Q 947 2416 947 1791 
Q 947 1169 1205 825 
Q 1463 481 1925 481 
Q 2391 481 2648 825 
Q 2906 1169 2906 1791 
z
M 3481 434 
Q 3481 -459 3084 -895 
Q 2688 -1331 1869 -1331 
Q 1566 -1331 1297 -1286 
Q 1028 -1241 775 -1147 
L 775 -588 
Q 1028 -725 1275 -790 
Q 1522 -856 1778 -856 
Q 2344 -856 2625 -561 
Q 2906 -266 2906 331 
L 2906 616 
Q 2728 306 2450 153 
Q 2172 0 1784 0 
Q 1141 0 747 490 
Q 353 981 353 1791 
Q 353 2603 747 3093 
Q 1141 3584 1784 3584 
Q 2172 3584 2450 3431 
Q 2728 3278 2906 2969 
L 2906 3500 
L 3481 3500 
L 3481 434 
z
" transform="scale(0.015625)"/>
       <path id="DejaVuSans-22" d="M 1147 4666 
L 1147 2931 
L 616 2931 
L 616 4666 
L 1147 4666 
z
M 2328 4666 
L 2328 2931 
L 1797 2931 
L 1797 4666 
L 2328 4666 
z
" transform="scale(0.015625)"/>
       <path id="DejaVuSans-6d" d="M 3328 2828 
Q 3544 3216 3844 3400 
Q 4144 3584 4550 3584 
Q 5097 3584 5394 3201 
Q 5691 2819 5691 2113 
L 5691 0 
L 5113 0 
L 5113 2094 
Q 5113 2597 4934 2840 
Q 4756 3084 4391 3084 
Q 3944 3084 3684 2787 
Q 3425 2491 3425 1978 
L 3425 0 
L 2847 0 
L 2847 2094 
Q 2847 2600 2669 2842 
Q 2491 3084 2119 3084 
Q 1678 3084 1418 2786 
Q 1159 2488 1159 1978 
L 1159 0 
L 581 0 
L 581 3500 
L 1159 3500 
L 1159 2956 
Q 1356 3278 1631 3431 
Q 1906 3584 2284 3584 
Q 2666 3584 2933 3390 
Q 3200 3197 3328 2828 
z
" transform="scale(0.015625)"/>
       <path id="DejaVuSans-61" d="M 2194 1759 
Q 1497 1759 1228 1600 
Q 959 1441 959 1056 
Q 959 750 1161 570 
Q 1363 391 1709 391 
Q 2188 391 2477 730 
Q 2766 1069 2766 1631 
L 2766 1759 
L 2194 1759 
z
M 3341 1997 
L 3341 0 
L 2766 0 
L 2766 531 
Q 2569 213 2275 61 
Q 1981 -91 1556 -91 
Q 1019 -91 701 211 
Q 384 513 384 1019 
Q 384 1609 779 1909 
Q 1175 2209 1959 2209 
L 2766 2209 
L 2766 2266 
Q 2766 2663 2505 2880 
Q 2244 3097 1772 3097 
Q 1472 3097 1187 3025 
Q 903 2953 641 2809 
L 641 3341 
Q 956 3463 1253 3523 
Q 1550 3584 1831 3584 
Q 2591 3584 2966 3190 
Q 3341 2797 3341 1997 
z
" transform="scale(0.015625)"/>
       <path id="DejaVuSans-78" d="M 3513 3500 
L 2247 1797 
L 3578 0 
L 2900 0 
L 1881 1375 
L 863 0 
L 184 0 
L 1544 1831 
L 300 3500 
L 978 3500 
L 1906 2253 
L 2834 3500 
L 3513 3500 
z
" transform="scale(0.015625)"/>
       <path id="DejaVuSans-5f" d="M 3263 -1063 
L 3263 -1509 
L -63 -1509 
L -63 -1063 
L 3263 -1063 
z
" transform="scale(0.015625)"/>
       <path id="DejaVuSans-48" d="M 628 4666 
L 1259 4666 
L 1259 2753 
L 3553 2753 
L 3553 4666 
L 4184 4666 
L 4184 0 
L 3553 0 
L 3553 2222 
L 1259 2222 
L 1259 0 
L 628 0 
L 628 4666 
z
" transform="scale(0.015625)"/>
       <path id="DejaVuSans-29" d="M 513 4856 
L 1013 4856 
Q 1481 4119 1714 3412 
Q 1947 2706 1947 2009 
Q 1947 1309 1714 600 
Q 1481 -109 1013 -844 
L 513 -844 
Q 928 -128 1133 580 
Q 1338 1288 1338 2009 
Q 1338 2731 1133 3434 
Q 928 4138 513 4856 
z
" transform="scale(0.015625)"/>
      </defs>
      <use xlink:href="#DejaVuSans-28"/>
      <use xlink:href="#DejaVuSans-55" x="39.013672"/>
      <use xlink:href="#DejaVuSans-73" x="112.207031"/>
      <use xlink:href="#DejaVuSans-69" x="164.306641"/>
      <use xlink:href="#DejaVuSans-6e" x="192.089844"/>
      <use xlink:href="#DejaVuSans-67" x="255.46875"/>
      <use xlink:href="#DejaVuSans-20" x="318.945312"/>
      <use xlink:href="#DejaVuSans-22" x="350.732422"/>
      <use xlink:href="#DejaVuSans-6d" x="396.728516"/>
      <use xlink:href="#DejaVuSans-61" x="494.140625"/>
      <use xlink:href="#DejaVuSans-78" x="555.419922"/>
      <use xlink:href="#DejaVuSans-5f" x="614.599609"/>
      <use xlink:href="#DejaVuSans-6d" x="664.599609"/>
      <use xlink:href="#DejaVuSans-65" x="762.011719"/>
      <use xlink:href="#DejaVuSans-61" x="823.535156"/>
      <use xlink:href="#DejaVuSans-6e" x="884.814453"/>
      <use xlink:href="#DejaVuSans-22" x="948.193359"/>
      <use xlink:href="#DejaVuSans-20" x="994.189453"/>
      <use xlink:href="#DejaVuSans-54" x="1025.976562"/>
      <use xlink:href="#DejaVuSans-68" x="1087.060547"/>
      <use xlink:href="#DejaVuSans-72" x="1150.439453"/>
      <use xlink:href="#DejaVuSans-65" x="1189.302734"/>
      <use xlink:href="#DejaVuSans-73" x="1250.826172"/>
      <use xlink:href="#DejaVuSans-68" x="1302.925781"/>
      <use xlink:href="#DejaVuSans-6f" x="1366.304688"/>
      <use xlink:href="#DejaVuSans-6c" x="1427.486328"/>
      <use xlink:href="#DejaVuSans-64" x="1455.269531"/>
      <use xlink:href="#DejaVuSans-20" x="1518.746094"/>
      <use xlink:href="#DejaVuSans-48" x="1550.533203"/>
      <use xlink:href="#DejaVuSans-61" x="1625.728516"/>
      <use xlink:href="#DejaVuSans-6e" x="1687.007812"/>
      <use xlink:href="#DejaVuSans-64" x="1750.386719"/>
      <use xlink:href="#DejaVuSans-6c" x="1813.863281"/>
      <use xlink:href="#DejaVuSans-69" x="1841.646484"/>
      <use xlink:href="#DejaVuSans-6e" x="1869.429688"/>
      <use xlink:href="#DejaVuSans-67" x="1932.808594"/>
      <use xlink:href="#DejaVuSans-29" x="1996.285156"/>
     </g>
    </g>
   </g>
   <g id="matplotlib.axis_2">
    <g id="ytick_1">
     <g id="line2d_6">
      <defs>
       <path id="m0e69031e38" d="M 0 0 
L -3.5 0 
" style="stroke: #000000; stroke-width: 0.8"/>
      </defs>
      <g>
       <use xlink:href="#m0e69031e38" x="86.42" y="397.010685" style="stroke: #000000; stroke-width: 0.8"/>
      </g>
     </g>
     <g id="text_7">
      <!-- 0.75 -->
      <g transform="translate(34.88875 404.609122) scale(0.2 -0.2)">
       <defs>
        <path id="DejaVuSans-2e" d="M 684 794 
L 1344 794 
L 1344 0 
L 684 0 
L 684 794 
z
" transform="scale(0.015625)"/>
        <path id="DejaVuSans-37" d="M 525 4666 
L 3525 4666 
L 3525 4397 
L 1831 0 
L 1172 0 
L 2766 4134 
L 525 4134 
L 525 4666 
z
" transform="scale(0.015625)"/>
        <path id="DejaVuSans-35" d="M 691 4666 
L 3169 4666 
L 3169 4134 
L 1269 4134 
L 1269 2991 
Q 1406 3038 1543 3061 
Q 1681 3084 1819 3084 
Q 2600 3084 3056 2656 
Q 3513 2228 3513 1497 
Q 3513 744 3044 326 
Q 2575 -91 1722 -91 
Q 1428 -91 1123 -41 
Q 819 9 494 109 
L 494 744 
Q 775 591 1075 516 
Q 1375 441 1709 441 
Q 2250 441 2565 725 
Q 2881 1009 2881 1497 
Q 2881 1984 2565 2268 
Q 2250 2553 1709 2553 
Q 1456 2553 1204 2497 
Q 953 2441 691 2322 
L 691 4666 
z
" transform="scale(0.015625)"/>
       </defs>
       <use xlink:href="#DejaVuSans-30"/>
       <use xlink:href="#DejaVuSans-2e" x="63.623047"/>
       <use xlink:href="#DejaVuSans-37" x="95.410156"/>
       <use xlink:href="#DejaVuSans-35" x="159.033203"/>
      </g>
     </g>
    </g>
    <g id="ytick_2">
     <g id="line2d_7">
      <g>
       <use xlink:href="#m0e69031e38" x="86.42" y="292.862006" style="stroke: #000000; stroke-width: 0.8"/>
      </g>
     </g>
     <g id="text_8">
      <!-- 0.80 -->
      <g transform="translate(34.88875 300.460444) scale(0.2 -0.2)">
       <use xlink:href="#DejaVuSans-30"/>
       <use xlink:href="#DejaVuSans-2e" x="63.623047"/>
       <use xlink:href="#DejaVuSans-38" x="95.410156"/>
       <use xlink:href="#DejaVuSans-30" x="159.033203"/>
      </g>
     </g>
    </g>
    <g id="ytick_3">
     <g id="line2d_8">
      <g>
       <use xlink:href="#m0e69031e38" x="86.42" y="188.713327" style="stroke: #000000; stroke-width: 0.8"/>
      </g>
     </g>
     <g id="text_9">
      <!-- 0.85 -->
      <g transform="translate(34.88875 196.311765) scale(0.2 -0.2)">
       <use xlink:href="#DejaVuSans-30"/>
       <use xlink:href="#DejaVuSans-2e" x="63.623047"/>
       <use xlink:href="#DejaVuSans-38" x="95.410156"/>
       <use xlink:href="#DejaVuSans-35" x="159.033203"/>
      </g>
     </g>
    </g>
    <g id="ytick_4">
     <g id="line2d_9">
      <g>
       <use xlink:href="#m0e69031e38" x="86.42" y="84.564648" style="stroke: #000000; stroke-width: 0.8"/>
      </g>
     </g>
     <g id="text_10">
      <!-- 0.90 -->
      <g transform="translate(34.88875 92.163086) scale(0.2 -0.2)">
       <defs>
        <path id="DejaVuSans-39" d="M 703 97 
L 703 672 
Q 941 559 1184 500 
Q 1428 441 1663 441 
Q 2288 441 2617 861 
Q 2947 1281 2994 2138 
Q 2813 1869 2534 1725 
Q 2256 1581 1919 1581 
Q 1219 1581 811 2004 
Q 403 2428 403 3163 
Q 403 3881 828 4315 
Q 1253 4750 1959 4750 
Q 2769 4750 3195 4129 
Q 3622 3509 3622 2328 
Q 3622 1225 3098 567 
Q 2575 -91 1691 -91 
Q 1453 -91 1209 -44 
Q 966 3 703 97 
z
M 1959 2075 
Q 2384 2075 2632 2365 
Q 2881 2656 2881 3163 
Q 2881 3666 2632 3958 
Q 2384 4250 1959 4250 
Q 1534 4250 1286 3958 
Q 1038 3666 1038 3163 
Q 1038 2656 1286 2365 
Q 1534 2075 1959 2075 
z
" transform="scale(0.015625)"/>
       </defs>
       <use xlink:href="#DejaVuSans-30"/>
       <use xlink:href="#DejaVuSans-2e" x="63.623047"/>
       <use xlink:href="#DejaVuSans-39" x="95.410156"/>
       <use xlink:href="#DejaVuSans-30" x="159.033203"/>
      </g>
     </g>
    </g>
    <g id="text_11">
     <!-- R^2 -->
     <g transform="translate(26.729375 272.006625) rotate(-90) scale(0.2 -0.2)">
      <defs>
       <path id="DejaVuSans-52" d="M 2841 2188 
Q 3044 2119 3236 1894 
Q 3428 1669 3622 1275 
L 4263 0 
L 3584 0 
L 2988 1197 
Q 2756 1666 2539 1819 
Q 2322 1972 1947 1972 
L 1259 1972 
L 1259 0 
L 628 0 
L 628 4666 
L 2053 4666 
Q 2853 4666 3247 4331 
Q 3641 3997 3641 3322 
Q 3641 2881 3436 2590 
Q 3231 2300 2841 2188 
z
M 1259 4147 
L 1259 2491 
L 2053 2491 
Q 2509 2491 2742 2702 
Q 2975 2913 2975 3322 
Q 2975 3731 2742 3939 
Q 2509 4147 2053 4147 
L 1259 4147 
z
" transform="scale(0.015625)"/>
       <path id="DejaVuSans-5e" d="M 2988 4666 
L 4684 2925 
L 4056 2925 
L 2681 4159 
L 1306 2925 
L 678 2925 
L 2375 4666 
L 2988 4666 
z
" transform="scale(0.015625)"/>
      </defs>
      <use xlink:href="#DejaVuSans-52"/>
      <use xlink:href="#DejaVuSans-5e" x="69.482422"/>
      <use xlink:href="#DejaVuSans-32" x="153.271484"/>
     </g>
    </g>
   </g>
   <g id="line2d_10">
    <path d="M 134.364545 96.018466 
L 154.76648 87.24112 
L 175.168414 84.513343 
L 195.570348 82.584581 
L 215.972282 79.543623 
L 236.374217 95.123822 
L 256.776151 94.740878 
L 277.178085 92.709491 
L 297.580019 96.962773 
L 317.981954 103.536887 
L 338.383888 100.828905 
L 358.785822 82.07913 
L 379.187756 94.634119 
L 399.589691 93.955502 
L 419.991625 93.614862 
L 440.393559 80.973224 
L 460.795493 92.241314 
L 481.197427 93.160088 
L 501.599362 86.275887 
L 522.001296 90.166968 
L 542.40323 89.544927 
L 562.805164 86.445871 
L 583.207099 92.670514 
L 603.609033 85.343963 
L 624.010967 81.223515 
L 644.412901 87.296235 
L 664.814836 87.500965 
L 685.21677 93.642641 
L 705.618704 87.493512 
L 726.020638 83.471852 
L 746.422573 88.606816 
L 766.824507 87.197657 
L 787.226441 89.958021 
L 807.628375 88.993595 
L 828.030309 90.944244 
L 848.432244 94.049782 
L 868.834178 85.265735 
L 889.236112 86.58394 
L 909.638046 109.328923 
L 930.039981 97.884544 
L 950.441915 97.895644 
L 970.843849 93.702708 
L 991.245783 98.564027 
L 1011.647718 101.749766 
L 1032.049652 99.211002 
L 1052.451586 96.850961 
L 1072.85352 97.532237 
L 1093.255455 95.382043 
" clip-path="url(#pf7b5ff428f)" style="fill: none; stroke: #f77189; stroke-width: 1.5; stroke-linecap: square"/>
   </g>
   <g id="line2d_11">
    <path d="M 134.364545 81.509371 
L 154.76648 81.82969 
L 175.168414 74.995838 
L 195.570348 79.102823 
L 215.972282 74.113717 
L 236.374217 85.434242 
L 256.776151 91.064728 
L 277.178085 85.645217 
L 297.580019 86.049683 
L 317.981954 97.519457 
L 338.383888 92.069593 
L 358.785822 80.061575 
L 379.187756 87.470989 
L 399.589691 80.242314 
L 419.991625 72.011729 
L 440.393559 68.657383 
L 460.795493 76.01698 
L 481.197427 71.654315 
L 501.599362 68.623636 
L 522.001296 74.017693 
L 542.40323 75.696921 
L 562.805164 68.793755 
L 583.207099 70.058675 
L 603.609033 62.96185 
L 624.010967 64.405025 
L 644.412901 74.183662 
L 664.814836 70.966285 
L 685.21677 77.153994 
L 705.618704 76.353154 
L 726.020638 68.336977 
L 746.422573 73.830369 
L 766.824507 69.154929 
L 787.226441 74.36807 
L 807.628375 68.885479 
L 828.030309 74.379344 
L 848.432244 71.85719 
L 868.834178 70.801828 
L 889.236112 70.723436 
L 909.638046 95.294579 
L 930.039981 82.684855 
L 950.441915 83.047737 
L 970.843849 89.91516 
L 991.245783 90.076474 
L 1011.647718 90.92482 
L 1032.049652 85.130047 
L 1052.451586 81.268356 
L 1072.85352 81.807596 
L 1093.255455 86.377827 
" clip-path="url(#pf7b5ff428f)" style="fill: none; stroke: #e18632; stroke-width: 1.5; stroke-linecap: square"/>
   </g>
   <g id="line2d_12">
    <path d="M 134.364545 98.275685 
L 154.76648 90.151137 
L 175.168414 85.645185 
L 195.570348 90.920959 
L 215.972282 93.231799 
L 236.374217 103.401866 
L 256.776151 108.695021 
L 277.178085 100.042307 
L 297.580019 105.234681 
L 317.981954 115.236044 
L 338.383888 108.357643 
L 358.785822 91.303098 
L 379.187756 100.976026 
L 399.589691 104.59205 
L 419.991625 99.241747 
L 440.393559 93.968651 
L 460.795493 96.596663 
L 481.197427 84.969874 
L 501.599362 84.209992 
L 522.001296 90.55076 
L 542.40323 96.956784 
L 562.805164 90.383108 
L 583.207099 90.968177 
L 603.609033 90.900806 
L 624.010967 88.521374 
L 644.412901 92.637206 
L 664.814836 82.916101 
L 685.21677 94.178755 
L 705.618704 96.357539 
L 726.020638 82.481123 
L 746.422573 92.863354 
L 766.824507 93.620743 
L 787.226441 93.884332 
L 807.628375 91.531348 
L 828.030309 91.368583 
L 848.432244 98.415253 
L 868.834178 94.604101 
L 889.236112 93.425076 
L 909.638046 106.832639 
L 930.039981 103.703782 
L 950.441915 104.314464 
L 970.843849 101.168997 
L 991.245783 104.686935 
L 1011.647718 102.823084 
L 1032.049652 99.372728 
L 1052.451586 97.176884 
L 1072.85352 97.356503 
L 1093.255455 98.178815 
" clip-path="url(#pf7b5ff428f)" style="fill: none; stroke: #b59a32; stroke-width: 1.5; stroke-linecap: square"/>
   </g>
   <g id="line2d_13">
    <path d="M 134.364545 79.434186 
L 154.76648 64.256923 
L 175.168414 54.289091 
L 195.570348 63.005354 
L 215.972282 50.380384 
L 236.374217 65.203431 
L 256.776151 73.947971 
L 277.178085 62.905726 
L 297.580019 61.66593 
L 317.981954 78.989742 
L 338.383888 75.272114 
L 358.785822 51.597805 
L 379.187756 71.384944 
L 399.589691 62.687523 
L 419.991625 62.771389 
L 440.393559 51.95253 
L 460.795493 64.821536 
L 481.197427 49.576628 
L 501.599362 46.500792 
L 522.001296 52.59325 
L 542.40323 59.912161 
L 562.805164 53.535156 
L 583.207099 59.999902 
L 603.609033 64.062405 
L 624.010967 56.958578 
L 644.412901 66.383346 
L 664.814836 54.505379 
L 685.21677 62.072738 
L 705.618704 59.214119 
L 726.020638 47.158599 
L 746.422573 59.655231 
L 766.824507 59.85589 
L 787.226441 69.233645 
L 807.628375 63.160995 
L 828.030309 66.064415 
L 848.432244 61.661935 
L 868.834178 58.716026 
L 889.236112 61.203012 
L 909.638046 73.21639 
L 930.039981 73.045303 
L 950.441915 74.002581 
L 970.843849 63.306002 
L 991.245783 69.387237 
L 1011.647718 68.423155 
L 1032.049652 64.353467 
L 1052.451586 65.639725 
L 1072.85352 65.660492 
L 1093.255455 68.556677 
" clip-path="url(#pf7b5ff428f)" style="fill: none; stroke: #8ba731; stroke-width: 1.5; stroke-linecap: square"/>
   </g>
   <g id="line2d_14">
    <path d="M 134.364545 199.969016 
L 154.76648 202.023168 
L 175.168414 187.682746 
L 195.570348 208.473108 
L 215.972282 195.560953 
L 236.374217 212.161843 
L 256.776151 200.845805 
L 277.178085 206.080934 
L 297.580019 217.422605 
L 317.981954 218.450208 
L 338.383888 215.856231 
L 358.785822 199.531537 
L 379.187756 204.629039 
L 399.589691 206.472541 
L 419.991625 200.02171 
L 440.393559 198.082784 
L 460.795493 203.481559 
L 481.197427 202.942016 
L 501.599362 199.54939 
L 522.001296 214.802139 
L 542.40323 203.7303 
L 562.805164 196.063928 
L 583.207099 198.214796 
L 603.609033 197.320446 
L 624.010967 196.746511 
L 644.412901 195.648583 
L 664.814836 183.823199 
L 685.21677 190.329846 
L 705.618704 196.889835 
L 726.020638 204.430826 
L 746.422573 204.362212 
L 766.824507 196.668759 
L 787.226441 199.098158 
L 807.628375 199.834921 
L 828.030309 209.553679 
L 848.432244 197.077092 
L 868.834178 201.087994 
L 889.236112 216.844947 
L 909.638046 199.516523 
L 930.039981 190.137291 
L 950.441915 189.964667 
L 970.843849 210.570624 
L 991.245783 230.002467 
L 1011.647718 232.497748 
L 1032.049652 215.582776 
L 1052.451586 189.371091 
L 1072.85352 190.590513 
L 1093.255455 195.4681 
" clip-path="url(#pf7b5ff428f)" style="fill: none; stroke: #32b258; stroke-width: 1.5; stroke-linecap: square"/>
   </g>
   <g id="line2d_15">
    <path d="M 134.364545 95.596537 
L 154.76648 82.414763 
L 175.168414 70.620013 
L 195.570348 68.556618 
L 215.972282 71.354251 
L 236.374217 83.844146 
L 256.776151 106.553683 
L 277.178085 90.546051 
L 297.580019 84.013514 
L 317.981954 97.936951 
L 338.383888 97.211089 
L 358.785822 86.228279 
L 379.187756 73.063899 
L 399.589691 73.890119 
L 419.991625 66.763172 
L 440.393559 70.256816 
L 460.795493 72.99375 
L 481.197427 62.091154 
L 501.599362 69.082789 
L 522.001296 69.429504 
L 542.40323 65.503437 
L 562.805164 61.340123 
L 583.207099 64.142345 
L 603.609033 60.206701 
L 624.010967 60.237285 
L 644.412901 66.126831 
L 664.814836 63.445182 
L 685.21677 65.501218 
L 705.618704 71.38459 
L 726.020638 57.581551 
L 746.422573 69.440905 
L 766.824507 58.631632 
L 787.226441 60.383056 
L 807.628375 63.645576 
L 828.030309 65.302216 
L 848.432244 59.662023 
L 868.834178 55.65601 
L 889.236112 72.197353 
L 909.638046 78.279056 
L 930.039981 93.797268 
L 950.441915 94.024636 
L 970.843849 88.876115 
L 991.245783 94.561991 
L 1011.647718 94.345573 
L 1032.049652 95.670913 
L 1052.451586 80.191165 
L 1072.85352 80.125927 
L 1093.255455 83.558453 
" clip-path="url(#pf7b5ff428f)" style="fill: none; stroke: #35ae95; stroke-width: 1.5; stroke-linecap: square"/>
   </g>
   <g id="line2d_16">
    <path d="M 134.364545 174.49266 
L 154.76648 173.76595 
L 175.168414 165.610768 
L 195.570348 169.857732 
L 215.972282 171.288371 
L 236.374217 184.323679 
L 256.776151 184.295562 
L 277.178085 173.583312 
L 297.580019 179.128676 
L 317.981954 185.124958 
L 338.383888 179.548495 
L 358.785822 158.211283 
L 379.187756 178.898391 
L 399.589691 169.624641 
L 419.991625 160.399292 
L 440.393559 146.266206 
L 460.795493 154.533306 
L 481.197427 149.152407 
L 501.599362 146.37444 
L 522.001296 157.73216 
L 542.40323 158.028409 
L 562.805164 156.053489 
L 583.207099 152.178102 
L 603.609033 151.380049 
L 624.010967 154.008104 
L 644.412901 162.814397 
L 664.814836 159.750684 
L 685.21677 163.327101 
L 705.618704 155.384499 
L 726.020638 156.019031 
L 746.422573 157.55531 
L 766.824507 158.643442 
L 787.226441 155.415487 
L 807.628375 158.949059 
L 828.030309 162.660324 
L 848.432244 156.942025 
L 868.834178 156.064414 
L 889.236112 153.856247 
L 909.638046 198.669602 
L 930.039981 182.629276 
L 950.441915 182.29236 
L 970.843849 175.987456 
L 991.245783 180.168225 
L 1011.647718 182.844642 
L 1032.049652 175.054105 
L 1052.451586 182.904588 
L 1072.85352 183.474446 
L 1093.255455 182.683544 
" clip-path="url(#pf7b5ff428f)" style="fill: none; stroke: #37abb2; stroke-width: 1.5; stroke-linecap: square"/>
   </g>
   <g id="line2d_17">
    <path d="M 134.364545 194.44535 
L 154.76648 190.880471 
L 175.168414 184.977502 
L 195.570348 189.284063 
L 215.972282 185.23671 
L 236.374217 199.826879 
L 256.776151 192.602909 
L 277.178085 192.243204 
L 297.580019 191.50187 
L 317.981954 197.367059 
L 338.383888 203.592608 
L 358.785822 177.98018 
L 379.187756 191.885251 
L 399.589691 178.801407 
L 419.991625 178.006324 
L 440.393559 166.085696 
L 460.795493 172.264424 
L 481.197427 169.403957 
L 501.599362 167.368793 
L 522.001296 173.586121 
L 542.40323 182.478642 
L 562.805164 180.408202 
L 583.207099 175.457228 
L 603.609033 171.73048 
L 624.010967 175.02756 
L 644.412901 177.047199 
L 664.814836 173.968905 
L 685.21677 180.633855 
L 705.618704 179.322937 
L 726.020638 171.660551 
L 746.422573 183.078306 
L 766.824507 178.173827 
L 787.226441 176.336996 
L 807.628375 174.488251 
L 828.030309 175.278888 
L 848.432244 174.452846 
L 868.834178 175.19021 
L 889.236112 173.718751 
L 909.638046 202.383077 
L 930.039981 198.803449 
L 950.441915 199.215075 
L 970.843849 194.82036 
L 991.245783 200.288327 
L 1011.647718 199.130699 
L 1032.049652 194.809016 
L 1052.451586 189.989244 
L 1072.85352 190.340872 
L 1093.255455 193.401634 
" clip-path="url(#pf7b5ff428f)" style="fill: none; stroke: #39a7d6; stroke-width: 1.5; stroke-linecap: square"/>
   </g>
   <g id="line2d_18">
    <path d="M 134.364545 194.447461 
L 154.76648 190.891638 
L 175.168414 184.992393 
L 195.570348 189.279571 
L 215.972282 185.240263 
L 236.374217 199.846706 
L 256.776151 192.621203 
L 277.178085 192.241023 
L 297.580019 191.512866 
L 317.981954 197.363698 
L 338.383888 203.58995 
L 358.785822 177.990351 
L 379.187756 191.887214 
L 399.589691 178.813097 
L 419.991625 178.00491 
L 440.393559 166.097918 
L 460.795493 172.275964 
L 481.197427 169.408892 
L 501.599362 167.393166 
L 522.001296 173.605381 
L 542.40323 182.47192 
L 562.805164 180.410464 
L 583.207099 175.464517 
L 603.609033 171.743483 
L 624.010967 175.0222 
L 644.412901 177.049478 
L 664.814836 173.963142 
L 685.21677 180.644518 
L 705.618704 179.320376 
L 726.020638 171.671972 
L 746.422573 183.083862 
L 766.824507 178.180402 
L 787.226441 176.331453 
L 807.628375 174.483383 
L 828.030309 175.276572 
L 848.432244 174.456743 
L 868.834178 175.195445 
L 889.236112 173.724254 
L 909.638046 202.388433 
L 930.039981 198.804284 
L 950.441915 199.215541 
L 970.843849 194.822318 
L 991.245783 200.280174 
L 1011.647718 199.121687 
L 1032.049652 194.793843 
L 1052.451586 189.994807 
L 1072.85352 190.346018 
L 1093.255455 193.40696 
" clip-path="url(#pf7b5ff428f)" style="fill: none; stroke: #8f93f4; stroke-width: 1.5; stroke-linecap: square"/>
   </g>
   <g id="line2d_19">
    <path d="M 134.364545 161.718855 
L 154.76648 147.586134 
L 175.168414 163.528237 
L 195.570348 166.445444 
L 215.972282 160.457665 
L 236.374217 217.692786 
L 256.776151 258.843414 
L 277.178085 216.63857 
L 297.580019 232.381978 
L 317.981954 209.532979 
L 338.383888 245.069649 
L 358.785822 178.050537 
L 379.187756 227.138062 
L 399.589691 198.306819 
L 419.991625 211.89359 
L 440.393559 195.015163 
L 460.795493 252.952616 
L 481.197427 195.040155 
L 501.599362 161.998847 
L 522.001296 198.83569 
L 542.40323 221.368475 
L 562.805164 181.913425 
L 583.207099 236.06914 
L 603.609033 192.030347 
L 624.010967 205.739104 
L 644.412901 228.885278 
L 664.814836 195.941314 
L 685.21677 206.997941 
L 705.618704 194.735101 
L 726.020638 165.432233 
L 746.422573 194.57489 
L 766.824507 218.227916 
L 787.226441 204.724401 
L 807.628375 223.463788 
L 828.030309 216.059864 
L 848.432244 216.360957 
L 868.834178 209.451199 
L 889.236112 214.569146 
L 909.638046 192.676327 
L 930.039981 175.934774 
L 950.441915 176.49023 
L 970.843849 185.925636 
L 991.245783 197.359307 
L 1011.647718 206.065553 
L 1032.049652 198.791329 
L 1052.451586 195.504059 
L 1072.85352 194.998347 
L 1093.255455 224.498525 
" clip-path="url(#pf7b5ff428f)" style="fill: none; stroke: #db70f4; stroke-width: 1.5; stroke-linecap: square"/>
   </g>
   <g id="line2d_20">
    <path d="M 134.364545 204.456179 
L 154.76648 217.601558 
L 175.168414 217.034057 
L 195.570348 241.335102 
L 215.972282 241.591969 
L 236.374217 293.29407 
L 256.776151 328.443839 
L 277.178085 275.72236 
L 297.580019 302.555073 
L 317.981954 260.421041 
L 338.383888 354.599141 
L 358.785822 258.120656 
L 379.187756 294.369758 
L 399.589691 243.727558 
L 419.991625 245.456805 
L 440.393559 259.029829 
L 460.795493 292.560349 
L 481.197427 317.84047 
L 501.599362 214.09722 
L 522.001296 328.516541 
L 542.40323 328.378037 
L 562.805164 291.040123 
L 583.207099 313.168387 
L 603.609033 282.885813 
L 624.010967 303.07064 
L 644.412901 301.066467 
L 664.814836 289.243025 
L 685.21677 313.084093 
L 705.618704 253.49826 
L 726.020638 270.931219 
L 746.422573 265.707032 
L 766.824507 305.201003 
L 787.226441 301.004011 
L 807.628375 283.375993 
L 828.030309 299.330901 
L 848.432244 291.289152 
L 868.834178 276.275266 
L 889.236112 320.924416 
L 909.638046 312.198072 
L 930.039981 236.918457 
L 950.441915 246.002044 
L 970.843849 238.0389 
L 991.245783 279.475245 
L 1011.647718 305.744623 
L 1032.049652 297.146417 
L 1052.451586 260.647867 
L 1072.85352 256.773615 
L 1093.255455 303.192889 
" clip-path="url(#pf7b5ff428f)" style="fill: none; stroke: #f667c6; stroke-width: 1.5; stroke-linecap: square"/>
   </g>
   <g id="line2d_21"/>
   <g id="line2d_22"/>
   <g id="line2d_23"/>
   <g id="line2d_24"/>
   <g id="line2d_25"/>
   <g id="line2d_26"/>
   <g id="line2d_27"/>
   <g id="line2d_28"/>
   <g id="line2d_29"/>
   <g id="line2d_30"/>
   <g id="line2d_31"/>
   <g id="patch_3">
    <path d="M 86.42 489.832 
L 86.42 10.8 
" style="fill: none; stroke: #000000; stroke-width: 0.8; stroke-linejoin: miter; stroke-linecap: square"/>
   </g>
   <g id="patch_4">
    <path d="M 1141.2 489.832 
L 1141.2 10.8 
" style="fill: none; stroke: #000000; stroke-width: 0.8; stroke-linejoin: miter; stroke-linecap: square"/>
   </g>
   <g id="patch_5">
    <path d="M 86.42 489.832 
L 1141.2 489.832 
" style="fill: none; stroke: #000000; stroke-width: 0.8; stroke-linejoin: miter; stroke-linecap: square"/>
   </g>
   <g id="patch_6">
    <path d="M 86.42 10.8 
L 1141.2 10.8 
" style="fill: none; stroke: #000000; stroke-width: 0.8; stroke-linejoin: miter; stroke-linecap: square"/>
   </g>
   <g id="legend_1">
    <g id="patch_7">
     <path d="M 97.62 481.832 
L 267.365 481.832 
Q 270.565 481.832 270.565 478.632 
L 270.565 221.897 
Q 270.565 218.697 267.365 218.697 
L 97.62 218.697 
Q 94.42 218.697 94.42 221.897 
L 94.42 478.632 
Q 94.42 481.832 97.62 481.832 
z
" style="fill: #ffffff; opacity: 0.8; stroke: #cccccc; stroke-linejoin: miter"/>
    </g>
    <g id="line2d_32">
     <path d="M 100.82 231.6545 
L 116.82 231.6545 
L 132.82 231.6545 
" style="fill: none; stroke: #f77189; stroke-width: 1.5; stroke-linecap: square"/>
    </g>
    <g id="text_12">
     <!-- lgbm -->
     <g transform="translate(145.62 237.2545) scale(0.16 -0.16)">
      <defs>
       <path id="DejaVuSans-62" d="M 3116 1747 
Q 3116 2381 2855 2742 
Q 2594 3103 2138 3103 
Q 1681 3103 1420 2742 
Q 1159 2381 1159 1747 
Q 1159 1113 1420 752 
Q 1681 391 2138 391 
Q 2594 391 2855 752 
Q 3116 1113 3116 1747 
z
M 1159 2969 
Q 1341 3281 1617 3432 
Q 1894 3584 2278 3584 
Q 2916 3584 3314 3078 
Q 3713 2572 3713 1747 
Q 3713 922 3314 415 
Q 2916 -91 2278 -91 
Q 1894 -91 1617 61 
Q 1341 213 1159 525 
L 1159 0 
L 581 0 
L 581 4863 
L 1159 4863 
L 1159 2969 
z
" transform="scale(0.015625)"/>
      </defs>
      <use xlink:href="#DejaVuSans-6c"/>
      <use xlink:href="#DejaVuSans-67" x="27.783203"/>
      <use xlink:href="#DejaVuSans-62" x="91.259766"/>
      <use xlink:href="#DejaVuSans-6d" x="154.736328"/>
     </g>
    </g>
    <g id="line2d_33">
     <path d="M 100.82 255.1395 
L 116.82 255.1395 
L 132.82 255.1395 
" style="fill: none; stroke: #e18632; stroke-width: 1.5; stroke-linecap: square"/>
    </g>
    <g id="text_13">
     <!-- BayesianRidge -->
     <g transform="translate(145.62 260.7395) scale(0.16 -0.16)">
      <defs>
       <path id="DejaVuSans-42" d="M 1259 2228 
L 1259 519 
L 2272 519 
Q 2781 519 3026 730 
Q 3272 941 3272 1375 
Q 3272 1813 3026 2020 
Q 2781 2228 2272 2228 
L 1259 2228 
z
M 1259 4147 
L 1259 2741 
L 2194 2741 
Q 2656 2741 2882 2914 
Q 3109 3088 3109 3444 
Q 3109 3797 2882 3972 
Q 2656 4147 2194 4147 
L 1259 4147 
z
M 628 4666 
L 2241 4666 
Q 2963 4666 3353 4366 
Q 3744 4066 3744 3513 
Q 3744 3084 3544 2831 
Q 3344 2578 2956 2516 
Q 3422 2416 3680 2098 
Q 3938 1781 3938 1306 
Q 3938 681 3513 340 
Q 3088 0 2303 0 
L 628 0 
L 628 4666 
z
" transform="scale(0.015625)"/>
       <path id="DejaVuSans-79" d="M 2059 -325 
Q 1816 -950 1584 -1140 
Q 1353 -1331 966 -1331 
L 506 -1331 
L 506 -850 
L 844 -850 
Q 1081 -850 1212 -737 
Q 1344 -625 1503 -206 
L 1606 56 
L 191 3500 
L 800 3500 
L 1894 763 
L 2988 3500 
L 3597 3500 
L 2059 -325 
z
" transform="scale(0.015625)"/>
      </defs>
      <use xlink:href="#DejaVuSans-42"/>
      <use xlink:href="#DejaVuSans-61" x="68.603516"/>
      <use xlink:href="#DejaVuSans-79" x="129.882812"/>
      <use xlink:href="#DejaVuSans-65" x="189.0625"/>
      <use xlink:href="#DejaVuSans-73" x="250.585938"/>
      <use xlink:href="#DejaVuSans-69" x="302.685547"/>
      <use xlink:href="#DejaVuSans-61" x="330.46875"/>
      <use xlink:href="#DejaVuSans-6e" x="391.748047"/>
      <use xlink:href="#DejaVuSans-52" x="455.126953"/>
      <use xlink:href="#DejaVuSans-69" x="524.609375"/>
      <use xlink:href="#DejaVuSans-64" x="552.392578"/>
      <use xlink:href="#DejaVuSans-67" x="615.869141"/>
      <use xlink:href="#DejaVuSans-65" x="679.345703"/>
     </g>
    </g>
    <g id="line2d_34">
     <path d="M 100.82 278.6245 
L 116.82 278.6245 
L 132.82 278.6245 
" style="fill: none; stroke: #b59a32; stroke-width: 1.5; stroke-linecap: square"/>
    </g>
    <g id="text_14">
     <!-- rf -->
     <g transform="translate(145.62 284.2245) scale(0.16 -0.16)">
      <defs>
       <path id="DejaVuSans-66" d="M 2375 4863 
L 2375 4384 
L 1825 4384 
Q 1516 4384 1395 4259 
Q 1275 4134 1275 3809 
L 1275 3500 
L 2222 3500 
L 2222 3053 
L 1275 3053 
L 1275 0 
L 697 0 
L 697 3053 
L 147 3053 
L 147 3500 
L 697 3500 
L 697 3744 
Q 697 4328 969 4595 
Q 1241 4863 1831 4863 
L 2375 4863 
z
" transform="scale(0.015625)"/>
      </defs>
      <use xlink:href="#DejaVuSans-72"/>
      <use xlink:href="#DejaVuSans-66" x="41.113281"/>
     </g>
    </g>
    <g id="line2d_35">
     <path d="M 100.82 302.1095 
L 116.82 302.1095 
L 132.82 302.1095 
" style="fill: none; stroke: #8ba731; stroke-width: 1.5; stroke-linecap: square"/>
    </g>
    <g id="text_15">
     <!-- gbr -->
     <g transform="translate(145.62 307.7095) scale(0.16 -0.16)">
      <use xlink:href="#DejaVuSans-67"/>
      <use xlink:href="#DejaVuSans-62" x="63.476562"/>
      <use xlink:href="#DejaVuSans-72" x="126.953125"/>
     </g>
    </g>
    <g id="line2d_36">
     <path d="M 100.82 325.5945 
L 116.82 325.5945 
L 132.82 325.5945 
" style="fill: none; stroke: #32b258; stroke-width: 1.5; stroke-linecap: square"/>
    </g>
    <g id="text_16">
     <!-- HubR -->
     <g transform="translate(145.62 331.1945) scale(0.16 -0.16)">
      <defs>
       <path id="DejaVuSans-75" d="M 544 1381 
L 544 3500 
L 1119 3500 
L 1119 1403 
Q 1119 906 1312 657 
Q 1506 409 1894 409 
Q 2359 409 2629 706 
Q 2900 1003 2900 1516 
L 2900 3500 
L 3475 3500 
L 3475 0 
L 2900 0 
L 2900 538 
Q 2691 219 2414 64 
Q 2138 -91 1772 -91 
Q 1169 -91 856 284 
Q 544 659 544 1381 
z
M 1991 3584 
L 1991 3584 
z
" transform="scale(0.015625)"/>
      </defs>
      <use xlink:href="#DejaVuSans-48"/>
      <use xlink:href="#DejaVuSans-75" x="75.195312"/>
      <use xlink:href="#DejaVuSans-62" x="138.574219"/>
      <use xlink:href="#DejaVuSans-52" x="202.050781"/>
     </g>
    </g>
    <g id="line2d_37">
     <path d="M 100.82 349.0795 
L 116.82 349.0795 
L 132.82 349.0795 
" style="fill: none; stroke: #35ae95; stroke-width: 1.5; stroke-linecap: square"/>
    </g>
    <g id="text_17">
     <!-- xgb -->
     <g transform="translate(145.62 354.6795) scale(0.16 -0.16)">
      <use xlink:href="#DejaVuSans-78"/>
      <use xlink:href="#DejaVuSans-67" x="59.179688"/>
      <use xlink:href="#DejaVuSans-62" x="122.65625"/>
     </g>
    </g>
    <g id="line2d_38">
     <path d="M 100.82 372.5645 
L 116.82 372.5645 
L 132.82 372.5645 
" style="fill: none; stroke: #37abb2; stroke-width: 1.5; stroke-linecap: square"/>
    </g>
    <g id="text_18">
     <!-- Adaboost -->
     <g transform="translate(145.62 378.1645) scale(0.16 -0.16)">
      <defs>
       <path id="DejaVuSans-41" d="M 2188 4044 
L 1331 1722 
L 3047 1722 
L 2188 4044 
z
M 1831 4666 
L 2547 4666 
L 4325 0 
L 3669 0 
L 3244 1197 
L 1141 1197 
L 716 0 
L 50 0 
L 1831 4666 
z
" transform="scale(0.015625)"/>
      </defs>
      <use xlink:href="#DejaVuSans-41"/>
      <use xlink:href="#DejaVuSans-64" x="66.658203"/>
      <use xlink:href="#DejaVuSans-61" x="130.134766"/>
      <use xlink:href="#DejaVuSans-62" x="191.414062"/>
      <use xlink:href="#DejaVuSans-6f" x="254.890625"/>
      <use xlink:href="#DejaVuSans-6f" x="316.072266"/>
      <use xlink:href="#DejaVuSans-73" x="377.253906"/>
      <use xlink:href="#DejaVuSans-74" x="429.353516"/>
     </g>
    </g>
    <g id="line2d_39">
     <path d="M 100.82 396.0495 
L 116.82 396.0495 
L 132.82 396.0495 
" style="fill: none; stroke: #39a7d6; stroke-width: 1.5; stroke-linecap: square"/>
    </g>
    <g id="text_19">
     <!-- Lasso -->
     <g transform="translate(145.62 401.6495) scale(0.16 -0.16)">
      <defs>
       <path id="DejaVuSans-4c" d="M 628 4666 
L 1259 4666 
L 1259 531 
L 3531 531 
L 3531 0 
L 628 0 
L 628 4666 
z
" transform="scale(0.015625)"/>
      </defs>
      <use xlink:href="#DejaVuSans-4c"/>
      <use xlink:href="#DejaVuSans-61" x="55.712891"/>
      <use xlink:href="#DejaVuSans-73" x="116.992188"/>
      <use xlink:href="#DejaVuSans-73" x="169.091797"/>
      <use xlink:href="#DejaVuSans-6f" x="221.191406"/>
     </g>
    </g>
    <g id="line2d_40">
     <path d="M 100.82 419.5345 
L 116.82 419.5345 
L 132.82 419.5345 
" style="fill: none; stroke: #8f93f4; stroke-width: 1.5; stroke-linecap: square"/>
    </g>
    <g id="text_20">
     <!-- LassoLars -->
     <g transform="translate(145.62 425.1345) scale(0.16 -0.16)">
      <use xlink:href="#DejaVuSans-4c"/>
      <use xlink:href="#DejaVuSans-61" x="55.712891"/>
      <use xlink:href="#DejaVuSans-73" x="116.992188"/>
      <use xlink:href="#DejaVuSans-73" x="169.091797"/>
      <use xlink:href="#DejaVuSans-6f" x="221.191406"/>
      <use xlink:href="#DejaVuSans-4c" x="282.373047"/>
      <use xlink:href="#DejaVuSans-61" x="338.085938"/>
      <use xlink:href="#DejaVuSans-72" x="399.365234"/>
      <use xlink:href="#DejaVuSans-73" x="440.478516"/>
     </g>
    </g>
    <g id="line2d_41">
     <path d="M 100.82 443.0195 
L 116.82 443.0195 
L 132.82 443.0195 
" style="fill: none; stroke: #db70f4; stroke-width: 1.5; stroke-linecap: square"/>
    </g>
    <g id="text_21">
     <!-- et -->
     <g transform="translate(145.62 448.6195) scale(0.16 -0.16)">
      <use xlink:href="#DejaVuSans-65"/>
      <use xlink:href="#DejaVuSans-74" x="61.523438"/>
     </g>
    </g>
    <g id="line2d_42">
     <path d="M 100.82 466.5045 
L 116.82 466.5045 
L 132.82 466.5045 
" style="fill: none; stroke: #f667c6; stroke-width: 1.5; stroke-linecap: square"/>
    </g>
    <g id="text_22">
     <!-- dt -->
     <g transform="translate(145.62 472.1045) scale(0.16 -0.16)">
      <use xlink:href="#DejaVuSans-64"/>
      <use xlink:href="#DejaVuSans-74" x="63.476562"/>
     </g>
    </g>
   </g>
  </g>
 </g>
 <defs>
  <clipPath id="pf7b5ff428f">
   <rect x="86.42" y="10.8" width="1054.78" height="479.032"/>
  </clipPath>
 </defs>
</svg>
