<?xml version="1.0" encoding="utf-8" standalone="no"?>
<!DOCTYPE svg PUBLIC "-//W3C//DTD SVG 1.1//EN"
  "http://www.w3.org/Graphics/SVG/1.1/DTD/svg11.dtd">
<svg xmlns:xlink="http://www.w3.org/1999/xlink" width="1152pt" height="576pt" viewBox="0 0 1152 576" xmlns="http://www.w3.org/2000/svg" version="1.1">
 <metadata>
  <rdf:RDF xmlns:dc="http://purl.org/dc/elements/1.1/" xmlns:cc="http://creativecommons.org/ns#" xmlns:rdf="http://www.w3.org/1999/02/22-rdf-syntax-ns#">
   <cc:Work>
    <dc:type rdf:resource="http://purl.org/dc/dcmitype/StillImage"/>
    <dc:date>2025-03-23T21:57:58.418986</dc:date>
    <dc:format>image/svg+xml</dc:format>
    <dc:creator>
     <cc:Agent>
      <dc:title>Matplotlib v3.9.2, https://matplotlib.org/</dc:title>
     </cc:Agent>
    </dc:creator>
   </cc:Work>
  </rdf:RDF>
 </metadata>
 <defs>
  <style type="text/css">*{stroke-linejoin: round; stroke-linecap: butt}</style>
 </defs>
 <g id="figure_1">
  <g id="patch_1">
   <path d="M 0 576 
L 1152 576 
L 1152 0 
L 0 0 
z
" style="fill: #ffffff"/>
  </g>
  <g id="axes_1">
   <g id="patch_2">
    <path d="M 112.16 489.832 
L 1141.2 489.832 
L 1141.2 10.8 
L 112.16 10.8 
z
" style="fill: #ffffff"/>
   </g>
   <g id="PolyCollection_1">
    <defs>
     <path id="m15ea0339c5" d="M 158.934545 -199.288342 
L 158.934545 -155.318014 
L 178.838607 -107.942182 
L 198.742669 -128.32487 
L 218.646731 -136.391624 
L 238.550793 -129.991523 
L 258.454855 -120.094966 
L 278.358917 -115.056257 
L 298.262979 -120.573013 
L 318.167041 -136.564332 
L 338.071103 -141.387996 
L 357.975164 -152.358335 
L 377.879226 -148.86061 
L 397.783288 -145.770291 
L 417.68735 -163.469966 
L 437.591412 -163.791797 
L 457.495474 -142.328576 
L 477.399536 -172.864946 
L 497.303598 -173.949824 
L 517.20766 -179.467557 
L 537.111721 -169.305166 
L 557.015783 -174.791174 
L 576.919845 -203.385694 
L 596.823907 -185.682536 
L 616.727969 -172.12105 
L 636.632031 -177.45588 
L 656.536093 -187.886505 
L 676.440155 -178.023529 
L 696.344217 -181.489213 
L 716.248279 -176.088303 
L 736.15234 -151.864266 
L 756.056402 -160.05757 
L 775.960464 -160.973589 
L 795.864526 -160.323459 
L 815.768588 -165.109915 
L 835.67265 -167.647616 
L 855.576712 -168.0321 
L 875.480774 -144.515907 
L 895.384836 -167.408725 
L 915.288897 -163.969731 
L 935.192959 -179.959478 
L 955.097021 -179.956351 
L 975.001083 -171.817008 
L 994.905145 -180.879118 
L 1014.809207 -180.357257 
L 1034.713269 -179.956351 
L 1054.617331 -180.347313 
L 1074.521393 -180.836569 
L 1094.425455 -178.932162 
L 1094.425455 -233.751833 
L 1094.425455 -233.751833 
L 1074.521393 -235.583006 
L 1054.617331 -231.496657 
L 1034.713269 -235.222532 
L 1014.809207 -234.699661 
L 994.905145 -234.699661 
L 975.001083 -229.966443 
L 955.097021 -233.839714 
L 935.192959 -234.699661 
L 915.288897 -216.604574 
L 895.384836 -233.490693 
L 875.480774 -204.353741 
L 855.576712 -237.054235 
L 835.67265 -238.746904 
L 815.768588 -250.962819 
L 795.864526 -215.492112 
L 775.960464 -207.282602 
L 756.056402 -208.457482 
L 736.15234 -219.310893 
L 716.248279 -252.361013 
L 696.344217 -246.011494 
L 676.440155 -244.174612 
L 656.536093 -241.109124 
L 636.632031 -238.179947 
L 616.727969 -198.844476 
L 596.823907 -204.753269 
L 576.919845 -237.319866 
L 557.015783 -240.174599 
L 537.111721 -251.013036 
L 517.20766 -286.048969 
L 497.303598 -226.00855 
L 477.399536 -208.384848 
L 457.495474 -212.080406 
L 437.591412 -229.986703 
L 417.68735 -235.268435 
L 397.783288 -214.755627 
L 377.879226 -209.654218 
L 357.975164 -224.311532 
L 338.071103 -213.878066 
L 318.167041 -213.749851 
L 298.262979 -154.90845 
L 278.358917 -167.881969 
L 258.454855 -166.544669 
L 238.550793 -192.555478 
L 218.646731 -168.474359 
L 198.742669 -190.355102 
L 178.838607 -151.895315 
L 158.934545 -199.288342 
z
" style="stroke: #1f77b4; stroke-opacity: 0.2"/>
    </defs>
    <g clip-path="url(#pe10c5669e2)">
     <use xlink:href="#m15ea0339c5" x="0" y="576" style="fill: #1f77b4; fill-opacity: 0.2; stroke: #1f77b4; stroke-opacity: 0.2"/>
    </g>
   </g>
   <g id="PolyCollection_2">
    <defs>
     <path id="m735c7ec507" d="M 158.934545 -328.615356 
L 158.934545 -247.030431 
L 178.838607 -236.090255 
L 198.742669 -234.555469 
L 218.646731 -268.100793 
L 238.550793 -222.927588 
L 258.454855 -226.211877 
L 278.358917 -202.5742 
L 298.262979 -249.990722 
L 318.167041 -250.607371 
L 338.071103 -275.042353 
L 357.975164 -260.475316 
L 377.879226 -227.978611 
L 397.783288 -266.419712 
L 417.68735 -254.307297 
L 437.591412 -232.367886 
L 457.495474 -234.781952 
L 477.399536 -256.885244 
L 497.303598 -280.746234 
L 517.20766 -304.960918 
L 537.111721 -245.650342 
L 557.015783 -272.82097 
L 576.919845 -281.482389 
L 596.823907 -266.616624 
L 616.727969 -262.236779 
L 636.632031 -278.385489 
L 656.536093 -270.313597 
L 676.440155 -275.734421 
L 696.344217 -293.365734 
L 716.248279 -263.876928 
L 736.15234 -252.185724 
L 756.056402 -256.670337 
L 775.960464 -260.138101 
L 795.864526 -256.055301 
L 815.768588 -295.161091 
L 835.67265 -284.867829 
L 855.576712 -272.824576 
L 875.480774 -277.993093 
L 895.384836 -260.280351 
L 915.288897 -252.840628 
L 935.192959 -305.316515 
L 955.097021 -304.819327 
L 975.001083 -307.481465 
L 994.905145 -304.819327 
L 1014.809207 -304.819327 
L 1034.713269 -305.859697 
L 1054.617331 -304.980013 
L 1074.521393 -305.859697 
L 1094.425455 -305.859697 
L 1094.425455 -378.274138 
L 1094.425455 -378.274138 
L 1074.521393 -378.274138 
L 1054.617331 -378.336301 
L 1034.713269 -377.751918 
L 1014.809207 -378.275065 
L 994.905145 -376.698159 
L 975.001083 -375.719236 
L 955.097021 -376.900045 
L 935.192959 -378.300147 
L 915.288897 -365.651081 
L 895.384836 -362.071178 
L 875.480774 -317.1057 
L 855.576712 -342.934681 
L 835.67265 -340.625595 
L 815.768588 -348.972768 
L 795.864526 -323.465002 
L 775.960464 -329.021614 
L 756.056402 -322.821721 
L 736.15234 -319.639518 
L 716.248279 -361.309149 
L 696.344217 -369.745958 
L 676.440155 -365.674177 
L 656.536093 -361.57414 
L 636.632031 -362.969556 
L 616.727969 -334.362883 
L 596.823907 -330.962549 
L 576.919845 -346.217027 
L 557.015783 -378.236374 
L 537.111721 -366.916354 
L 517.20766 -418.741688 
L 497.303598 -341.276198 
L 477.399536 -315.1343 
L 457.495474 -324.52824 
L 437.591412 -289.164226 
L 417.68735 -319.069819 
L 397.783288 -356.843983 
L 377.879226 -344.209835 
L 357.975164 -311.327249 
L 338.071103 -331.251622 
L 318.167041 -340.528328 
L 298.262979 -283.197682 
L 278.358917 -277.009538 
L 258.454855 -281.90471 
L 238.550793 -294.367577 
L 218.646731 -317.829298 
L 198.742669 -272.363494 
L 178.838607 -279.470204 
L 158.934545 -328.615356 
z
" style="stroke: #ff7f0e; stroke-opacity: 0.2"/>
    </defs>
    <g clip-path="url(#pe10c5669e2)">
     <use xlink:href="#m735c7ec507" x="0" y="576" style="fill: #ff7f0e; fill-opacity: 0.2; stroke: #ff7f0e; stroke-opacity: 0.2"/>
    </g>
   </g>
   <g id="PolyCollection_3">
    <defs>
     <path id="m96df916af3" d="M 158.934545 -439.317351 
L 158.934545 -388.231932 
L 178.838607 -297.2797 
L 198.742669 -289.822572 
L 218.646731 -276.327722 
L 238.550793 -280.830488 
L 258.454855 -297.106991 
L 278.358917 -280.997354 
L 298.262979 -258.508052 
L 318.167041 -299.681081 
L 338.071103 -357.114774 
L 357.975164 -351.488277 
L 377.879226 -367.261393 
L 397.783288 -350.964502 
L 417.68735 -320.106524 
L 437.591412 -345.856583 
L 457.495474 -329.954267 
L 477.399536 -338.527779 
L 497.303598 -347.059814 
L 517.20766 -394.290589 
L 537.111721 -320.828195 
L 557.015783 -364.355437 
L 576.919845 -352.689631 
L 596.823907 -385.448017 
L 616.727969 -383.15184 
L 636.632031 -381.31317 
L 656.536093 -403.841656 
L 676.440155 -395.487618 
L 696.344217 -391.795027 
L 716.248279 -390.856515 
L 736.15234 -343.898765 
L 756.056402 -340.462817 
L 775.960464 -347.668486 
L 795.864526 -367.703764 
L 815.768588 -392.045886 
L 835.67265 -410.008851 
L 855.576712 -403.778129 
L 875.480774 -336.830663 
L 895.384836 -371.908055 
L 915.288897 -371.897896 
L 935.192959 -397.506267 
L 955.097021 -399.493481 
L 975.001083 -408.396091 
L 994.905145 -398.982325 
L 1014.809207 -398.969193 
L 1034.713269 -399.493481 
L 1054.617331 -399.24621 
L 1074.521393 -398.319575 
L 1094.425455 -398.309439 
L 1094.425455 -432.754533 
L 1094.425455 -432.754533 
L 1074.521393 -433.259462 
L 1054.617331 -433.259462 
L 1034.713269 -432.088258 
L 1014.809207 -432.754533 
L 994.905145 -431.409601 
L 975.001083 -435.889741 
L 955.097021 -432.088611 
L 935.192959 -431.927367 
L 915.288897 -424.166432 
L 895.384836 -435.43915 
L 875.480774 -425.692989 
L 855.576712 -438.89794 
L 835.67265 -453.654621 
L 815.768588 -430.616235 
L 795.864526 -431.868452 
L 775.960464 -401.840064 
L 756.056402 -399.556148 
L 736.15234 -397.223865 
L 716.248279 -439.240683 
L 696.344217 -451.126858 
L 676.440155 -441.113533 
L 656.536093 -443.094704 
L 636.632031 -436.875007 
L 616.727969 -432.015138 
L 596.823907 -428.575359 
L 576.919845 -437.274278 
L 557.015783 -447.724646 
L 537.111721 -416.929292 
L 517.20766 -543.425818 
L 497.303598 -495.818576 
L 477.399536 -448.993247 
L 457.495474 -449.169299 
L 437.591412 -438.264036 
L 417.68735 -495.947147 
L 397.783288 -439.590747 
L 377.879226 -456.811786 
L 357.975164 -451.11305 
L 338.071103 -425.085097 
L 318.167041 -412.767227 
L 298.262979 -371.943345 
L 278.358917 -367.799076 
L 258.454855 -384.154336 
L 238.550793 -436.010811 
L 218.646731 -416.062831 
L 198.742669 -357.629905 
L 178.838607 -373.84238 
L 158.934545 -439.317351 
z
" style="stroke: #2ca02c; stroke-opacity: 0.2"/>
    </defs>
    <g clip-path="url(#pe10c5669e2)">
     <use xlink:href="#m96df916af3" x="0" y="576" style="fill: #2ca02c; fill-opacity: 0.2; stroke: #2ca02c; stroke-opacity: 0.2"/>
    </g>
   </g>
   <g id="matplotlib.axis_1">
    <g id="xtick_1">
     <g id="line2d_1">
      <defs>
       <path id="mcf54dba767" d="M 0 0 
L 0 3.5 
" style="stroke: #000000; stroke-width: 0.8"/>
      </defs>
      <g>
       <use xlink:href="#mcf54dba767" x="148.982515" y="489.832" style="stroke: #000000; stroke-width: 0.8"/>
      </g>
     </g>
     <g id="text_1">
      <!-- 0 -->
      <g transform="translate(142.620015 512.028875) scale(0.2 -0.2)">
       <defs>
        <path id="DejaVuSans-30" d="M 2034 4250 
Q 1547 4250 1301 3770 
Q 1056 3291 1056 2328 
Q 1056 1369 1301 889 
Q 1547 409 2034 409 
Q 2525 409 2770 889 
Q 3016 1369 3016 2328 
Q 3016 3291 2770 3770 
Q 2525 4250 2034 4250 
z
M 2034 4750 
Q 2819 4750 3233 4129 
Q 3647 3509 3647 2328 
Q 3647 1150 3233 529 
Q 2819 -91 2034 -91 
Q 1250 -91 836 529 
Q 422 1150 422 2328 
Q 422 3509 836 4129 
Q 1250 4750 2034 4750 
z
" transform="scale(0.015625)"/>
       </defs>
       <use xlink:href="#DejaVuSans-30"/>
      </g>
     </g>
    </g>
    <g id="xtick_2">
     <g id="line2d_2">
      <g>
       <use xlink:href="#mcf54dba767" x="348.023133" y="489.832" style="stroke: #000000; stroke-width: 0.8"/>
      </g>
     </g>
     <g id="text_2">
      <!-- 20 -->
      <g transform="translate(335.298133 512.028875) scale(0.2 -0.2)">
       <defs>
        <path id="DejaVuSans-32" d="M 1228 531 
L 3431 531 
L 3431 0 
L 469 0 
L 469 531 
Q 828 903 1448 1529 
Q 2069 2156 2228 2338 
Q 2531 2678 2651 2914 
Q 2772 3150 2772 3378 
Q 2772 3750 2511 3984 
Q 2250 4219 1831 4219 
Q 1534 4219 1204 4116 
Q 875 4013 500 3803 
L 500 4441 
Q 881 4594 1212 4672 
Q 1544 4750 1819 4750 
Q 2544 4750 2975 4387 
Q 3406 4025 3406 3419 
Q 3406 3131 3298 2873 
Q 3191 2616 2906 2266 
Q 2828 2175 2409 1742 
Q 1991 1309 1228 531 
z
" transform="scale(0.015625)"/>
       </defs>
       <use xlink:href="#DejaVuSans-32"/>
       <use xlink:href="#DejaVuSans-30" x="63.623047"/>
      </g>
     </g>
    </g>
    <g id="xtick_3">
     <g id="line2d_3">
      <g>
       <use xlink:href="#mcf54dba767" x="547.063752" y="489.832" style="stroke: #000000; stroke-width: 0.8"/>
      </g>
     </g>
     <g id="text_3">
      <!-- 40 -->
      <g transform="translate(534.338752 512.028875) scale(0.2 -0.2)">
       <defs>
        <path id="DejaVuSans-34" d="M 2419 4116 
L 825 1625 
L 2419 1625 
L 2419 4116 
z
M 2253 4666 
L 3047 4666 
L 3047 1625 
L 3713 1625 
L 3713 1100 
L 3047 1100 
L 3047 0 
L 2419 0 
L 2419 1100 
L 313 1100 
L 313 1709 
L 2253 4666 
z
" transform="scale(0.015625)"/>
       </defs>
       <use xlink:href="#DejaVuSans-34"/>
       <use xlink:href="#DejaVuSans-30" x="63.623047"/>
      </g>
     </g>
    </g>
    <g id="xtick_4">
     <g id="line2d_4">
      <g>
       <use xlink:href="#mcf54dba767" x="746.104371" y="489.832" style="stroke: #000000; stroke-width: 0.8"/>
      </g>
     </g>
     <g id="text_4">
      <!-- 60 -->
      <g transform="translate(733.379371 512.028875) scale(0.2 -0.2)">
       <defs>
        <path id="DejaVuSans-36" d="M 2113 2584 
Q 1688 2584 1439 2293 
Q 1191 2003 1191 1497 
Q 1191 994 1439 701 
Q 1688 409 2113 409 
Q 2538 409 2786 701 
Q 3034 994 3034 1497 
Q 3034 2003 2786 2293 
Q 2538 2584 2113 2584 
z
M 3366 4563 
L 3366 3988 
Q 3128 4100 2886 4159 
Q 2644 4219 2406 4219 
Q 1781 4219 1451 3797 
Q 1122 3375 1075 2522 
Q 1259 2794 1537 2939 
Q 1816 3084 2150 3084 
Q 2853 3084 3261 2657 
Q 3669 2231 3669 1497 
Q 3669 778 3244 343 
Q 2819 -91 2113 -91 
Q 1303 -91 875 529 
Q 447 1150 447 2328 
Q 447 3434 972 4092 
Q 1497 4750 2381 4750 
Q 2619 4750 2861 4703 
Q 3103 4656 3366 4563 
z
" transform="scale(0.015625)"/>
       </defs>
       <use xlink:href="#DejaVuSans-36"/>
       <use xlink:href="#DejaVuSans-30" x="63.623047"/>
      </g>
     </g>
    </g>
    <g id="xtick_5">
     <g id="line2d_5">
      <g>
       <use xlink:href="#mcf54dba767" x="945.14499" y="489.832" style="stroke: #000000; stroke-width: 0.8"/>
      </g>
     </g>
     <g id="text_5">
      <!-- 80 -->
      <g transform="translate(932.41999 512.028875) scale(0.2 -0.2)">
       <defs>
        <path id="DejaVuSans-38" d="M 2034 2216 
Q 1584 2216 1326 1975 
Q 1069 1734 1069 1313 
Q 1069 891 1326 650 
Q 1584 409 2034 409 
Q 2484 409 2743 651 
Q 3003 894 3003 1313 
Q 3003 1734 2745 1975 
Q 2488 2216 2034 2216 
z
M 1403 2484 
Q 997 2584 770 2862 
Q 544 3141 544 3541 
Q 544 4100 942 4425 
Q 1341 4750 2034 4750 
Q 2731 4750 3128 4425 
Q 3525 4100 3525 3541 
Q 3525 3141 3298 2862 
Q 3072 2584 2669 2484 
Q 3125 2378 3379 2068 
Q 3634 1759 3634 1313 
Q 3634 634 3220 271 
Q 2806 -91 2034 -91 
Q 1263 -91 848 271 
Q 434 634 434 1313 
Q 434 1759 690 2068 
Q 947 2378 1403 2484 
z
M 1172 3481 
Q 1172 3119 1398 2916 
Q 1625 2713 2034 2713 
Q 2441 2713 2670 2916 
Q 2900 3119 2900 3481 
Q 2900 3844 2670 4047 
Q 2441 4250 2034 4250 
Q 1625 4250 1398 4047 
Q 1172 3844 1172 3481 
z
" transform="scale(0.015625)"/>
       </defs>
       <use xlink:href="#DejaVuSans-38"/>
       <use xlink:href="#DejaVuSans-30" x="63.623047"/>
      </g>
     </g>
    </g>
    <g id="text_6">
     <!-- Percentile Threshold -->
     <g transform="translate(524.900312 535.385125) scale(0.2 -0.2)">
      <defs>
       <path id="DejaVuSans-50" d="M 1259 4147 
L 1259 2394 
L 2053 2394 
Q 2494 2394 2734 2622 
Q 2975 2850 2975 3272 
Q 2975 3691 2734 3919 
Q 2494 4147 2053 4147 
L 1259 4147 
z
M 628 4666 
L 2053 4666 
Q 2838 4666 3239 4311 
Q 3641 3956 3641 3272 
Q 3641 2581 3239 2228 
Q 2838 1875 2053 1875 
L 1259 1875 
L 1259 0 
L 628 0 
L 628 4666 
z
" transform="scale(0.015625)"/>
       <path id="DejaVuSans-65" d="M 3597 1894 
L 3597 1613 
L 953 1613 
Q 991 1019 1311 708 
Q 1631 397 2203 397 
Q 2534 397 2845 478 
Q 3156 559 3463 722 
L 3463 178 
Q 3153 47 2828 -22 
Q 2503 -91 2169 -91 
Q 1331 -91 842 396 
Q 353 884 353 1716 
Q 353 2575 817 3079 
Q 1281 3584 2069 3584 
Q 2775 3584 3186 3129 
Q 3597 2675 3597 1894 
z
M 3022 2063 
Q 3016 2534 2758 2815 
Q 2500 3097 2075 3097 
Q 1594 3097 1305 2825 
Q 1016 2553 972 2059 
L 3022 2063 
z
" transform="scale(0.015625)"/>
       <path id="DejaVuSans-72" d="M 2631 2963 
Q 2534 3019 2420 3045 
Q 2306 3072 2169 3072 
Q 1681 3072 1420 2755 
Q 1159 2438 1159 1844 
L 1159 0 
L 581 0 
L 581 3500 
L 1159 3500 
L 1159 2956 
Q 1341 3275 1631 3429 
Q 1922 3584 2338 3584 
Q 2397 3584 2469 3576 
Q 2541 3569 2628 3553 
L 2631 2963 
z
" transform="scale(0.015625)"/>
       <path id="DejaVuSans-63" d="M 3122 3366 
L 3122 2828 
Q 2878 2963 2633 3030 
Q 2388 3097 2138 3097 
Q 1578 3097 1268 2742 
Q 959 2388 959 1747 
Q 959 1106 1268 751 
Q 1578 397 2138 397 
Q 2388 397 2633 464 
Q 2878 531 3122 666 
L 3122 134 
Q 2881 22 2623 -34 
Q 2366 -91 2075 -91 
Q 1284 -91 818 406 
Q 353 903 353 1747 
Q 353 2603 823 3093 
Q 1294 3584 2113 3584 
Q 2378 3584 2631 3529 
Q 2884 3475 3122 3366 
z
" transform="scale(0.015625)"/>
       <path id="DejaVuSans-6e" d="M 3513 2113 
L 3513 0 
L 2938 0 
L 2938 2094 
Q 2938 2591 2744 2837 
Q 2550 3084 2163 3084 
Q 1697 3084 1428 2787 
Q 1159 2491 1159 1978 
L 1159 0 
L 581 0 
L 581 3500 
L 1159 3500 
L 1159 2956 
Q 1366 3272 1645 3428 
Q 1925 3584 2291 3584 
Q 2894 3584 3203 3211 
Q 3513 2838 3513 2113 
z
" transform="scale(0.015625)"/>
       <path id="DejaVuSans-74" d="M 1172 4494 
L 1172 3500 
L 2356 3500 
L 2356 3053 
L 1172 3053 
L 1172 1153 
Q 1172 725 1289 603 
Q 1406 481 1766 481 
L 2356 481 
L 2356 0 
L 1766 0 
Q 1100 0 847 248 
Q 594 497 594 1153 
L 594 3053 
L 172 3053 
L 172 3500 
L 594 3500 
L 594 4494 
L 1172 4494 
z
" transform="scale(0.015625)"/>
       <path id="DejaVuSans-69" d="M 603 3500 
L 1178 3500 
L 1178 0 
L 603 0 
L 603 3500 
z
M 603 4863 
L 1178 4863 
L 1178 4134 
L 603 4134 
L 603 4863 
z
" transform="scale(0.015625)"/>
       <path id="DejaVuSans-6c" d="M 603 4863 
L 1178 4863 
L 1178 0 
L 603 0 
L 603 4863 
z
" transform="scale(0.015625)"/>
       <path id="DejaVuSans-20" transform="scale(0.015625)"/>
       <path id="DejaVuSans-54" d="M -19 4666 
L 3928 4666 
L 3928 4134 
L 2272 4134 
L 2272 0 
L 1638 0 
L 1638 4134 
L -19 4134 
L -19 4666 
z
" transform="scale(0.015625)"/>
       <path id="DejaVuSans-68" d="M 3513 2113 
L 3513 0 
L 2938 0 
L 2938 2094 
Q 2938 2591 2744 2837 
Q 2550 3084 2163 3084 
Q 1697 3084 1428 2787 
Q 1159 2491 1159 1978 
L 1159 0 
L 581 0 
L 581 4863 
L 1159 4863 
L 1159 2956 
Q 1366 3272 1645 3428 
Q 1925 3584 2291 3584 
Q 2894 3584 3203 3211 
Q 3513 2838 3513 2113 
z
" transform="scale(0.015625)"/>
       <path id="DejaVuSans-73" d="M 2834 3397 
L 2834 2853 
Q 2591 2978 2328 3040 
Q 2066 3103 1784 3103 
Q 1356 3103 1142 2972 
Q 928 2841 928 2578 
Q 928 2378 1081 2264 
Q 1234 2150 1697 2047 
L 1894 2003 
Q 2506 1872 2764 1633 
Q 3022 1394 3022 966 
Q 3022 478 2636 193 
Q 2250 -91 1575 -91 
Q 1294 -91 989 -36 
Q 684 19 347 128 
L 347 722 
Q 666 556 975 473 
Q 1284 391 1588 391 
Q 1994 391 2212 530 
Q 2431 669 2431 922 
Q 2431 1156 2273 1281 
Q 2116 1406 1581 1522 
L 1381 1569 
Q 847 1681 609 1914 
Q 372 2147 372 2553 
Q 372 3047 722 3315 
Q 1072 3584 1716 3584 
Q 2034 3584 2315 3537 
Q 2597 3491 2834 3397 
z
" transform="scale(0.015625)"/>
       <path id="DejaVuSans-6f" d="M 1959 3097 
Q 1497 3097 1228 2736 
Q 959 2375 959 1747 
Q 959 1119 1226 758 
Q 1494 397 1959 397 
Q 2419 397 2687 759 
Q 2956 1122 2956 1747 
Q 2956 2369 2687 2733 
Q 2419 3097 1959 3097 
z
M 1959 3584 
Q 2709 3584 3137 3096 
Q 3566 2609 3566 1747 
Q 3566 888 3137 398 
Q 2709 -91 1959 -91 
Q 1206 -91 779 398 
Q 353 888 353 1747 
Q 353 2609 779 3096 
Q 1206 3584 1959 3584 
z
" transform="scale(0.015625)"/>
       <path id="DejaVuSans-64" d="M 2906 2969 
L 2906 4863 
L 3481 4863 
L 3481 0 
L 2906 0 
L 2906 525 
Q 2725 213 2448 61 
Q 2172 -91 1784 -91 
Q 1150 -91 751 415 
Q 353 922 353 1747 
Q 353 2572 751 3078 
Q 1150 3584 1784 3584 
Q 2172 3584 2448 3432 
Q 2725 3281 2906 2969 
z
M 947 1747 
Q 947 1113 1208 752 
Q 1469 391 1925 391 
Q 2381 391 2643 752 
Q 2906 1113 2906 1747 
Q 2906 2381 2643 2742 
Q 2381 3103 1925 3103 
Q 1469 3103 1208 2742 
Q 947 2381 947 1747 
z
" transform="scale(0.015625)"/>
      </defs>
      <use xlink:href="#DejaVuSans-50"/>
      <use xlink:href="#DejaVuSans-65" x="56.677734"/>
      <use xlink:href="#DejaVuSans-72" x="118.201172"/>
      <use xlink:href="#DejaVuSans-63" x="157.064453"/>
      <use xlink:href="#DejaVuSans-65" x="212.044922"/>
      <use xlink:href="#DejaVuSans-6e" x="273.568359"/>
      <use xlink:href="#DejaVuSans-74" x="336.947266"/>
      <use xlink:href="#DejaVuSans-69" x="376.15625"/>
      <use xlink:href="#DejaVuSans-6c" x="403.939453"/>
      <use xlink:href="#DejaVuSans-65" x="431.722656"/>
      <use xlink:href="#DejaVuSans-20" x="493.246094"/>
      <use xlink:href="#DejaVuSans-54" x="525.033203"/>
      <use xlink:href="#DejaVuSans-68" x="586.117188"/>
      <use xlink:href="#DejaVuSans-72" x="649.496094"/>
      <use xlink:href="#DejaVuSans-65" x="688.359375"/>
      <use xlink:href="#DejaVuSans-73" x="749.882812"/>
      <use xlink:href="#DejaVuSans-68" x="801.982422"/>
      <use xlink:href="#DejaVuSans-6f" x="865.361328"/>
      <use xlink:href="#DejaVuSans-6c" x="926.542969"/>
      <use xlink:href="#DejaVuSans-64" x="954.326172"/>
     </g>
     <!-- (Using "max_mean" Threshold Handling) -->
     <g transform="translate(423.150312 557.78075) scale(0.2 -0.2)">
      <defs>
       <path id="DejaVuSans-28" d="M 1984 4856 
Q 1566 4138 1362 3434 
Q 1159 2731 1159 2009 
Q 1159 1288 1364 580 
Q 1569 -128 1984 -844 
L 1484 -844 
Q 1016 -109 783 600 
Q 550 1309 550 2009 
Q 550 2706 781 3412 
Q 1013 4119 1484 4856 
L 1984 4856 
z
" transform="scale(0.015625)"/>
       <path id="DejaVuSans-55" d="M 556 4666 
L 1191 4666 
L 1191 1831 
Q 1191 1081 1462 751 
Q 1734 422 2344 422 
Q 2950 422 3222 751 
Q 3494 1081 3494 1831 
L 3494 4666 
L 4128 4666 
L 4128 1753 
Q 4128 841 3676 375 
Q 3225 -91 2344 -91 
Q 1459 -91 1007 375 
Q 556 841 556 1753 
L 556 4666 
z
" transform="scale(0.015625)"/>
       <path id="DejaVuSans-67" d="M 2906 1791 
Q 2906 2416 2648 2759 
Q 2391 3103 1925 3103 
Q 1463 3103 1205 2759 
Q 947 2416 947 1791 
Q 947 1169 1205 825 
Q 1463 481 1925 481 
Q 2391 481 2648 825 
Q 2906 1169 2906 1791 
z
M 3481 434 
Q 3481 -459 3084 -895 
Q 2688 -1331 1869 -1331 
Q 1566 -1331 1297 -1286 
Q 1028 -1241 775 -1147 
L 775 -588 
Q 1028 -725 1275 -790 
Q 1522 -856 1778 -856 
Q 2344 -856 2625 -561 
Q 2906 -266 2906 331 
L 2906 616 
Q 2728 306 2450 153 
Q 2172 0 1784 0 
Q 1141 0 747 490 
Q 353 981 353 1791 
Q 353 2603 747 3093 
Q 1141 3584 1784 3584 
Q 2172 3584 2450 3431 
Q 2728 3278 2906 2969 
L 2906 3500 
L 3481 3500 
L 3481 434 
z
" transform="scale(0.015625)"/>
       <path id="DejaVuSans-22" d="M 1147 4666 
L 1147 2931 
L 616 2931 
L 616 4666 
L 1147 4666 
z
M 2328 4666 
L 2328 2931 
L 1797 2931 
L 1797 4666 
L 2328 4666 
z
" transform="scale(0.015625)"/>
       <path id="DejaVuSans-6d" d="M 3328 2828 
Q 3544 3216 3844 3400 
Q 4144 3584 4550 3584 
Q 5097 3584 5394 3201 
Q 5691 2819 5691 2113 
L 5691 0 
L 5113 0 
L 5113 2094 
Q 5113 2597 4934 2840 
Q 4756 3084 4391 3084 
Q 3944 3084 3684 2787 
Q 3425 2491 3425 1978 
L 3425 0 
L 2847 0 
L 2847 2094 
Q 2847 2600 2669 2842 
Q 2491 3084 2119 3084 
Q 1678 3084 1418 2786 
Q 1159 2488 1159 1978 
L 1159 0 
L 581 0 
L 581 3500 
L 1159 3500 
L 1159 2956 
Q 1356 3278 1631 3431 
Q 1906 3584 2284 3584 
Q 2666 3584 2933 3390 
Q 3200 3197 3328 2828 
z
" transform="scale(0.015625)"/>
       <path id="DejaVuSans-61" d="M 2194 1759 
Q 1497 1759 1228 1600 
Q 959 1441 959 1056 
Q 959 750 1161 570 
Q 1363 391 1709 391 
Q 2188 391 2477 730 
Q 2766 1069 2766 1631 
L 2766 1759 
L 2194 1759 
z
M 3341 1997 
L 3341 0 
L 2766 0 
L 2766 531 
Q 2569 213 2275 61 
Q 1981 -91 1556 -91 
Q 1019 -91 701 211 
Q 384 513 384 1019 
Q 384 1609 779 1909 
Q 1175 2209 1959 2209 
L 2766 2209 
L 2766 2266 
Q 2766 2663 2505 2880 
Q 2244 3097 1772 3097 
Q 1472 3097 1187 3025 
Q 903 2953 641 2809 
L 641 3341 
Q 956 3463 1253 3523 
Q 1550 3584 1831 3584 
Q 2591 3584 2966 3190 
Q 3341 2797 3341 1997 
z
" transform="scale(0.015625)"/>
       <path id="DejaVuSans-78" d="M 3513 3500 
L 2247 1797 
L 3578 0 
L 2900 0 
L 1881 1375 
L 863 0 
L 184 0 
L 1544 1831 
L 300 3500 
L 978 3500 
L 1906 2253 
L 2834 3500 
L 3513 3500 
z
" transform="scale(0.015625)"/>
       <path id="DejaVuSans-5f" d="M 3263 -1063 
L 3263 -1509 
L -63 -1509 
L -63 -1063 
L 3263 -1063 
z
" transform="scale(0.015625)"/>
       <path id="DejaVuSans-48" d="M 628 4666 
L 1259 4666 
L 1259 2753 
L 3553 2753 
L 3553 4666 
L 4184 4666 
L 4184 0 
L 3553 0 
L 3553 2222 
L 1259 2222 
L 1259 0 
L 628 0 
L 628 4666 
z
" transform="scale(0.015625)"/>
       <path id="DejaVuSans-29" d="M 513 4856 
L 1013 4856 
Q 1481 4119 1714 3412 
Q 1947 2706 1947 2009 
Q 1947 1309 1714 600 
Q 1481 -109 1013 -844 
L 513 -844 
Q 928 -128 1133 580 
Q 1338 1288 1338 2009 
Q 1338 2731 1133 3434 
Q 928 4138 513 4856 
z
" transform="scale(0.015625)"/>
      </defs>
      <use xlink:href="#DejaVuSans-28"/>
      <use xlink:href="#DejaVuSans-55" x="39.013672"/>
      <use xlink:href="#DejaVuSans-73" x="112.207031"/>
      <use xlink:href="#DejaVuSans-69" x="164.306641"/>
      <use xlink:href="#DejaVuSans-6e" x="192.089844"/>
      <use xlink:href="#DejaVuSans-67" x="255.46875"/>
      <use xlink:href="#DejaVuSans-20" x="318.945312"/>
      <use xlink:href="#DejaVuSans-22" x="350.732422"/>
      <use xlink:href="#DejaVuSans-6d" x="396.728516"/>
      <use xlink:href="#DejaVuSans-61" x="494.140625"/>
      <use xlink:href="#DejaVuSans-78" x="555.419922"/>
      <use xlink:href="#DejaVuSans-5f" x="614.599609"/>
      <use xlink:href="#DejaVuSans-6d" x="664.599609"/>
      <use xlink:href="#DejaVuSans-65" x="762.011719"/>
      <use xlink:href="#DejaVuSans-61" x="823.535156"/>
      <use xlink:href="#DejaVuSans-6e" x="884.814453"/>
      <use xlink:href="#DejaVuSans-22" x="948.193359"/>
      <use xlink:href="#DejaVuSans-20" x="994.189453"/>
      <use xlink:href="#DejaVuSans-54" x="1025.976562"/>
      <use xlink:href="#DejaVuSans-68" x="1087.060547"/>
      <use xlink:href="#DejaVuSans-72" x="1150.439453"/>
      <use xlink:href="#DejaVuSans-65" x="1189.302734"/>
      <use xlink:href="#DejaVuSans-73" x="1250.826172"/>
      <use xlink:href="#DejaVuSans-68" x="1302.925781"/>
      <use xlink:href="#DejaVuSans-6f" x="1366.304688"/>
      <use xlink:href="#DejaVuSans-6c" x="1427.486328"/>
      <use xlink:href="#DejaVuSans-64" x="1455.269531"/>
      <use xlink:href="#DejaVuSans-20" x="1518.746094"/>
      <use xlink:href="#DejaVuSans-48" x="1550.533203"/>
      <use xlink:href="#DejaVuSans-61" x="1625.728516"/>
      <use xlink:href="#DejaVuSans-6e" x="1687.007812"/>
      <use xlink:href="#DejaVuSans-64" x="1750.386719"/>
      <use xlink:href="#DejaVuSans-6c" x="1813.863281"/>
      <use xlink:href="#DejaVuSans-69" x="1841.646484"/>
      <use xlink:href="#DejaVuSans-6e" x="1869.429688"/>
      <use xlink:href="#DejaVuSans-67" x="1932.808594"/>
      <use xlink:href="#DejaVuSans-29" x="1996.285156"/>
     </g>
    </g>
   </g>
   <g id="matplotlib.axis_2">
    <g id="ytick_1">
     <g id="line2d_6">
      <defs>
       <path id="m30534160af" d="M 0 0 
L -3.5 0 
" style="stroke: #000000; stroke-width: 0.8"/>
      </defs>
      <g>
       <use xlink:href="#m30534160af" x="112.16" y="482.858821" style="stroke: #000000; stroke-width: 0.8"/>
      </g>
     </g>
     <g id="text_7">
      <!-- 0.0100 -->
      <g transform="translate(35.17875 490.457258) scale(0.2 -0.2)">
       <defs>
        <path id="DejaVuSans-2e" d="M 684 794 
L 1344 794 
L 1344 0 
L 684 0 
L 684 794 
z
" transform="scale(0.015625)"/>
        <path id="DejaVuSans-31" d="M 794 531 
L 1825 531 
L 1825 4091 
L 703 3866 
L 703 4441 
L 1819 4666 
L 2450 4666 
L 2450 531 
L 3481 531 
L 3481 0 
L 794 0 
L 794 531 
z
" transform="scale(0.015625)"/>
       </defs>
       <use xlink:href="#DejaVuSans-30"/>
       <use xlink:href="#DejaVuSans-2e" x="63.623047"/>
       <use xlink:href="#DejaVuSans-30" x="95.410156"/>
       <use xlink:href="#DejaVuSans-31" x="159.033203"/>
       <use xlink:href="#DejaVuSans-30" x="222.65625"/>
       <use xlink:href="#DejaVuSans-30" x="286.279297"/>
      </g>
     </g>
    </g>
    <g id="ytick_2">
     <g id="line2d_7">
      <g>
       <use xlink:href="#m30534160af" x="112.16" y="422.739049" style="stroke: #000000; stroke-width: 0.8"/>
      </g>
     </g>
     <g id="text_8">
      <!-- 0.0105 -->
      <g transform="translate(35.17875 430.337486) scale(0.2 -0.2)">
       <defs>
        <path id="DejaVuSans-35" d="M 691 4666 
L 3169 4666 
L 3169 4134 
L 1269 4134 
L 1269 2991 
Q 1406 3038 1543 3061 
Q 1681 3084 1819 3084 
Q 2600 3084 3056 2656 
Q 3513 2228 3513 1497 
Q 3513 744 3044 326 
Q 2575 -91 1722 -91 
Q 1428 -91 1123 -41 
Q 819 9 494 109 
L 494 744 
Q 775 591 1075 516 
Q 1375 441 1709 441 
Q 2250 441 2565 725 
Q 2881 1009 2881 1497 
Q 2881 1984 2565 2268 
Q 2250 2553 1709 2553 
Q 1456 2553 1204 2497 
Q 953 2441 691 2322 
L 691 4666 
z
" transform="scale(0.015625)"/>
       </defs>
       <use xlink:href="#DejaVuSans-30"/>
       <use xlink:href="#DejaVuSans-2e" x="63.623047"/>
       <use xlink:href="#DejaVuSans-30" x="95.410156"/>
       <use xlink:href="#DejaVuSans-31" x="159.033203"/>
       <use xlink:href="#DejaVuSans-30" x="222.65625"/>
       <use xlink:href="#DejaVuSans-35" x="286.279297"/>
      </g>
     </g>
    </g>
    <g id="ytick_3">
     <g id="line2d_8">
      <g>
       <use xlink:href="#m30534160af" x="112.16" y="362.619277" style="stroke: #000000; stroke-width: 0.8"/>
      </g>
     </g>
     <g id="text_9">
      <!-- 0.0110 -->
      <g transform="translate(35.17875 370.217714) scale(0.2 -0.2)">
       <use xlink:href="#DejaVuSans-30"/>
       <use xlink:href="#DejaVuSans-2e" x="63.623047"/>
       <use xlink:href="#DejaVuSans-30" x="95.410156"/>
       <use xlink:href="#DejaVuSans-31" x="159.033203"/>
       <use xlink:href="#DejaVuSans-31" x="222.65625"/>
       <use xlink:href="#DejaVuSans-30" x="286.279297"/>
      </g>
     </g>
    </g>
    <g id="ytick_4">
     <g id="line2d_9">
      <g>
       <use xlink:href="#m30534160af" x="112.16" y="302.499505" style="stroke: #000000; stroke-width: 0.8"/>
      </g>
     </g>
     <g id="text_10">
      <!-- 0.0115 -->
      <g transform="translate(35.17875 310.097942) scale(0.2 -0.2)">
       <use xlink:href="#DejaVuSans-30"/>
       <use xlink:href="#DejaVuSans-2e" x="63.623047"/>
       <use xlink:href="#DejaVuSans-30" x="95.410156"/>
       <use xlink:href="#DejaVuSans-31" x="159.033203"/>
       <use xlink:href="#DejaVuSans-31" x="222.65625"/>
       <use xlink:href="#DejaVuSans-35" x="286.279297"/>
      </g>
     </g>
    </g>
    <g id="ytick_5">
     <g id="line2d_10">
      <g>
       <use xlink:href="#m30534160af" x="112.16" y="242.379733" style="stroke: #000000; stroke-width: 0.8"/>
      </g>
     </g>
     <g id="text_11">
      <!-- 0.0120 -->
      <g transform="translate(35.17875 249.97817) scale(0.2 -0.2)">
       <use xlink:href="#DejaVuSans-30"/>
       <use xlink:href="#DejaVuSans-2e" x="63.623047"/>
       <use xlink:href="#DejaVuSans-30" x="95.410156"/>
       <use xlink:href="#DejaVuSans-31" x="159.033203"/>
       <use xlink:href="#DejaVuSans-32" x="222.65625"/>
       <use xlink:href="#DejaVuSans-30" x="286.279297"/>
      </g>
     </g>
    </g>
    <g id="ytick_6">
     <g id="line2d_11">
      <g>
       <use xlink:href="#m30534160af" x="112.16" y="182.259961" style="stroke: #000000; stroke-width: 0.8"/>
      </g>
     </g>
     <g id="text_12">
      <!-- 0.0125 -->
      <g transform="translate(35.17875 189.858398) scale(0.2 -0.2)">
       <use xlink:href="#DejaVuSans-30"/>
       <use xlink:href="#DejaVuSans-2e" x="63.623047"/>
       <use xlink:href="#DejaVuSans-30" x="95.410156"/>
       <use xlink:href="#DejaVuSans-31" x="159.033203"/>
       <use xlink:href="#DejaVuSans-32" x="222.65625"/>
       <use xlink:href="#DejaVuSans-35" x="286.279297"/>
      </g>
     </g>
    </g>
    <g id="ytick_7">
     <g id="line2d_12">
      <g>
       <use xlink:href="#m30534160af" x="112.16" y="122.140189" style="stroke: #000000; stroke-width: 0.8"/>
      </g>
     </g>
     <g id="text_13">
      <!-- 0.0130 -->
      <g transform="translate(35.17875 129.738626) scale(0.2 -0.2)">
       <defs>
        <path id="DejaVuSans-33" d="M 2597 2516 
Q 3050 2419 3304 2112 
Q 3559 1806 3559 1356 
Q 3559 666 3084 287 
Q 2609 -91 1734 -91 
Q 1441 -91 1130 -33 
Q 819 25 488 141 
L 488 750 
Q 750 597 1062 519 
Q 1375 441 1716 441 
Q 2309 441 2620 675 
Q 2931 909 2931 1356 
Q 2931 1769 2642 2001 
Q 2353 2234 1838 2234 
L 1294 2234 
L 1294 2753 
L 1863 2753 
Q 2328 2753 2575 2939 
Q 2822 3125 2822 3475 
Q 2822 3834 2567 4026 
Q 2313 4219 1838 4219 
Q 1578 4219 1281 4162 
Q 984 4106 628 3988 
L 628 4550 
Q 988 4650 1302 4700 
Q 1616 4750 1894 4750 
Q 2613 4750 3031 4423 
Q 3450 4097 3450 3541 
Q 3450 3153 3228 2886 
Q 3006 2619 2597 2516 
z
" transform="scale(0.015625)"/>
       </defs>
       <use xlink:href="#DejaVuSans-30"/>
       <use xlink:href="#DejaVuSans-2e" x="63.623047"/>
       <use xlink:href="#DejaVuSans-30" x="95.410156"/>
       <use xlink:href="#DejaVuSans-31" x="159.033203"/>
       <use xlink:href="#DejaVuSans-33" x="222.65625"/>
       <use xlink:href="#DejaVuSans-30" x="286.279297"/>
      </g>
     </g>
    </g>
    <g id="ytick_8">
     <g id="line2d_13">
      <g>
       <use xlink:href="#m30534160af" x="112.16" y="62.020417" style="stroke: #000000; stroke-width: 0.8"/>
      </g>
     </g>
     <g id="text_14">
      <!-- 0.0135 -->
      <g transform="translate(35.17875 69.618854) scale(0.2 -0.2)">
       <use xlink:href="#DejaVuSans-30"/>
       <use xlink:href="#DejaVuSans-2e" x="63.623047"/>
       <use xlink:href="#DejaVuSans-30" x="95.410156"/>
       <use xlink:href="#DejaVuSans-31" x="159.033203"/>
       <use xlink:href="#DejaVuSans-33" x="222.65625"/>
       <use xlink:href="#DejaVuSans-35" x="286.279297"/>
      </g>
     </g>
    </g>
    <g id="text_15">
     <!-- MAPE -->
     <g transform="translate(27.019375 278.133188) rotate(-90) scale(0.2 -0.2)">
      <defs>
       <path id="DejaVuSans-4d" d="M 628 4666 
L 1569 4666 
L 2759 1491 
L 3956 4666 
L 4897 4666 
L 4897 0 
L 4281 0 
L 4281 4097 
L 3078 897 
L 2444 897 
L 1241 4097 
L 1241 0 
L 628 0 
L 628 4666 
z
" transform="scale(0.015625)"/>
       <path id="DejaVuSans-41" d="M 2188 4044 
L 1331 1722 
L 3047 1722 
L 2188 4044 
z
M 1831 4666 
L 2547 4666 
L 4325 0 
L 3669 0 
L 3244 1197 
L 1141 1197 
L 716 0 
L 50 0 
L 1831 4666 
z
" transform="scale(0.015625)"/>
       <path id="DejaVuSans-45" d="M 628 4666 
L 3578 4666 
L 3578 4134 
L 1259 4134 
L 1259 2753 
L 3481 2753 
L 3481 2222 
L 1259 2222 
L 1259 531 
L 3634 531 
L 3634 0 
L 628 0 
L 628 4666 
z
" transform="scale(0.015625)"/>
      </defs>
      <use xlink:href="#DejaVuSans-4d"/>
      <use xlink:href="#DejaVuSans-41" x="86.279297"/>
      <use xlink:href="#DejaVuSans-50" x="154.6875"/>
      <use xlink:href="#DejaVuSans-45" x="214.990234"/>
     </g>
    </g>
   </g>
   <g id="line2d_14">
    <path d="M 158.934545 400.550088 
L 178.838607 445.133155 
L 198.742669 417.737451 
L 218.646731 425.052259 
L 238.550793 416.892413 
L 258.454855 434.147451 
L 278.358917 434.521381 
L 298.262979 437.858046 
L 318.167041 406.179693 
L 338.071103 398.039984 
L 357.975164 386.031935 
L 377.879226 397.091048 
L 397.783288 394.4677 
L 417.68735 376.113669 
L 437.591412 380.664588 
L 457.495474 399.092881 
L 477.399536 387.549072 
L 497.303598 378.220946 
L 517.20766 345.726561 
L 537.111721 368.581901 
L 557.015783 368.603834 
L 576.919845 352.234789 
L 596.823907 380.880182 
L 616.727969 391.388099 
L 636.632031 370.525029 
L 656.536093 363.537205 
L 676.440155 365.422525 
L 696.344217 362.608169 
L 716.248279 360.387182 
L 736.15234 392.648352 
L 756.056402 393.523 
L 775.960464 390.420683 
L 795.864526 383.654071 
L 815.768588 365.947962 
L 835.67265 375.143623 
L 855.576712 373.128463 
L 875.480774 403.646035 
L 895.384836 375.890296 
L 915.288897 387.621311 
L 935.192959 371.099586 
L 955.097021 371.099586 
L 975.001083 375.369711 
L 994.905145 371.099586 
L 1014.809207 371.099586 
L 1034.713269 371.099586 
L 1054.617331 371.099586 
L 1074.521393 371.099586 
L 1094.425455 371.099586 
" clip-path="url(#pe10c5669e2)" style="fill: none; stroke: #1f77b4; stroke-width: 1.5; stroke-linecap: square"/>
   </g>
   <g id="line2d_15">
    <path d="M 158.934545 284.681257 
L 178.838607 320.635111 
L 198.742669 322.65319 
L 218.646731 285.1677 
L 238.550793 318.25286 
L 258.454855 325.280494 
L 278.358917 333.362461 
L 298.262979 309.770141 
L 318.167041 283.900473 
L 338.071103 270.950145 
L 357.975164 289.359731 
L 377.879226 293.706714 
L 397.783288 263.608842 
L 417.68735 289.556942 
L 437.591412 313.558358 
L 457.495474 292.299399 
L 477.399536 295.315607 
L 497.303598 265.83928 
L 517.20766 210.064974 
L 537.111721 270.177902 
L 557.015783 253.430625 
L 576.919845 262.150292 
L 596.823907 279.068865 
L 616.727969 278.604939 
L 636.632031 259.083214 
L 656.536093 262.638982 
L 676.440155 257.737302 
L 696.344217 245.200833 
L 716.248279 264.85807 
L 736.15234 293.574131 
L 756.056402 288.88696 
L 775.960464 281.51232 
L 795.864526 287.724654 
L 815.768588 253.974061 
L 835.67265 264.693817 
L 855.576712 267.155572 
L 875.480774 279.412706 
L 895.384836 271.227829 
L 915.288897 272.150841 
L 935.192959 242.427172 
L 955.097021 242.427172 
L 975.001083 241.081761 
L 994.905145 242.427172 
L 1014.809207 242.427172 
L 1034.713269 242.427172 
L 1054.617331 242.427172 
L 1074.521393 242.427172 
L 1094.425455 242.427172 
" clip-path="url(#pe10c5669e2)" style="fill: none; stroke: #ff7f0e; stroke-width: 1.5; stroke-linecap: square"/>
   </g>
   <g id="line2d_16">
    <path d="M 158.934545 163.58933 
L 178.838607 240.584655 
L 198.742669 252.018289 
L 218.646731 236.975637 
L 238.550793 225.955493 
L 258.454855 237.935879 
L 278.358917 254.159406 
L 298.262979 264.445152 
L 318.167041 221.282598 
L 338.071103 186.452554 
L 357.975164 175.143524 
L 377.879226 165.447075 
L 397.783288 180.494543 
L 417.68735 153.713447 
L 437.591412 183.760938 
L 457.495474 187.092072 
L 477.399536 189.792945 
L 497.303598 154.557873 
L 517.20766 117.661533 
L 537.111721 212.638363 
L 557.015783 170.384178 
L 576.919845 182.368962 
L 596.823907 167.905064 
L 616.727969 168.337042 
L 636.632031 168.210347 
L 656.536093 150.620266 
L 676.440155 157.555266 
L 696.344217 154.268549 
L 716.248279 159.670938 
L 736.15234 205.532264 
L 756.056402 207.140429 
L 775.960464 200.255179 
L 795.864526 178.707322 
L 815.768588 163.752409 
L 835.67265 140.25774 
L 855.576712 152.49881 
L 875.480774 192.1918 
L 895.384836 171.465831 
L 915.288897 178.659821 
L 935.192959 160.672095 
L 955.097021 160.672095 
L 975.001083 155.113015 
L 994.905145 160.672095 
L 1014.809207 160.672095 
L 1034.713269 160.672095 
L 1054.617331 160.672095 
L 1074.521393 160.672095 
L 1094.425455 160.672095 
" clip-path="url(#pe10c5669e2)" style="fill: none; stroke: #2ca02c; stroke-width: 1.5; stroke-linecap: square"/>
   </g>
   <g id="line2d_17"/>
   <g id="line2d_18"/>
   <g id="line2d_19"/>
   <g id="patch_3">
    <path d="M 112.16 489.832 
L 112.16 10.8 
" style="fill: none; stroke: #000000; stroke-width: 0.8; stroke-linejoin: miter; stroke-linecap: square"/>
   </g>
   <g id="patch_4">
    <path d="M 1141.2 489.832 
L 1141.2 10.8 
" style="fill: none; stroke: #000000; stroke-width: 0.8; stroke-linejoin: miter; stroke-linecap: square"/>
   </g>
   <g id="patch_5">
    <path d="M 112.16 489.832 
L 1141.2 489.832 
" style="fill: none; stroke: #000000; stroke-width: 0.8; stroke-linejoin: miter; stroke-linecap: square"/>
   </g>
   <g id="patch_6">
    <path d="M 112.16 10.8 
L 1141.2 10.8 
" style="fill: none; stroke: #000000; stroke-width: 0.8; stroke-linejoin: miter; stroke-linecap: square"/>
   </g>
   <g id="legend_1">
    <g id="patch_7">
     <path d="M 123.36 481.832 
L 204.345 481.832 
Q 207.545 481.832 207.545 478.632 
L 207.545 409.777 
Q 207.545 406.577 204.345 406.577 
L 123.36 406.577 
Q 120.16 406.577 120.16 409.777 
L 120.16 478.632 
Q 120.16 481.832 123.36 481.832 
z
" style="fill: #ffffff; opacity: 0.8; stroke: #cccccc; stroke-linejoin: miter"/>
    </g>
    <g id="line2d_20">
     <path d="M 126.56 419.5345 
L 142.56 419.5345 
L 158.56 419.5345 
" style="fill: none; stroke: #1f77b4; stroke-width: 1.5; stroke-linecap: square"/>
    </g>
    <g id="text_16">
     <!-- gbr -->
     <g transform="translate(171.36 425.1345) scale(0.16 -0.16)">
      <defs>
       <path id="DejaVuSans-62" d="M 3116 1747 
Q 3116 2381 2855 2742 
Q 2594 3103 2138 3103 
Q 1681 3103 1420 2742 
Q 1159 2381 1159 1747 
Q 1159 1113 1420 752 
Q 1681 391 2138 391 
Q 2594 391 2855 752 
Q 3116 1113 3116 1747 
z
M 1159 2969 
Q 1341 3281 1617 3432 
Q 1894 3584 2278 3584 
Q 2916 3584 3314 3078 
Q 3713 2572 3713 1747 
Q 3713 922 3314 415 
Q 2916 -91 2278 -91 
Q 1894 -91 1617 61 
Q 1341 213 1159 525 
L 1159 0 
L 581 0 
L 581 4863 
L 1159 4863 
L 1159 2969 
z
" transform="scale(0.015625)"/>
      </defs>
      <use xlink:href="#DejaVuSans-67"/>
      <use xlink:href="#DejaVuSans-62" x="63.476562"/>
      <use xlink:href="#DejaVuSans-72" x="126.953125"/>
     </g>
    </g>
    <g id="line2d_21">
     <path d="M 126.56 443.0195 
L 142.56 443.0195 
L 158.56 443.0195 
" style="fill: none; stroke: #ff7f0e; stroke-width: 1.5; stroke-linecap: square"/>
    </g>
    <g id="text_17">
     <!-- rf -->
     <g transform="translate(171.36 448.6195) scale(0.16 -0.16)">
      <defs>
       <path id="DejaVuSans-66" d="M 2375 4863 
L 2375 4384 
L 1825 4384 
Q 1516 4384 1395 4259 
Q 1275 4134 1275 3809 
L 1275 3500 
L 2222 3500 
L 2222 3053 
L 1275 3053 
L 1275 0 
L 697 0 
L 697 3053 
L 147 3053 
L 147 3500 
L 697 3500 
L 697 3744 
Q 697 4328 969 4595 
Q 1241 4863 1831 4863 
L 2375 4863 
z
" transform="scale(0.015625)"/>
      </defs>
      <use xlink:href="#DejaVuSans-72"/>
      <use xlink:href="#DejaVuSans-66" x="41.113281"/>
     </g>
    </g>
    <g id="line2d_22">
     <path d="M 126.56 466.5045 
L 142.56 466.5045 
L 158.56 466.5045 
" style="fill: none; stroke: #2ca02c; stroke-width: 1.5; stroke-linecap: square"/>
    </g>
    <g id="text_18">
     <!-- xgb -->
     <g transform="translate(171.36 472.1045) scale(0.16 -0.16)">
      <use xlink:href="#DejaVuSans-78"/>
      <use xlink:href="#DejaVuSans-67" x="59.179688"/>
      <use xlink:href="#DejaVuSans-62" x="122.65625"/>
     </g>
    </g>
   </g>
  </g>
 </g>
 <defs>
  <clipPath id="pe10c5669e2">
   <rect x="112.16" y="10.8" width="1029.04" height="479.032"/>
  </clipPath>
 </defs>
</svg>
