<?xml version="1.0" encoding="utf-8" standalone="no"?>
<!DOCTYPE svg PUBLIC "-//W3C//DTD SVG 1.1//EN"
  "http://www.w3.org/Graphics/SVG/1.1/DTD/svg11.dtd">
<svg xmlns:xlink="http://www.w3.org/1999/xlink" width="1152pt" height="576pt" viewBox="0 0 1152 576" xmlns="http://www.w3.org/2000/svg" version="1.1">
 <metadata>
  <rdf:RDF xmlns:dc="http://purl.org/dc/elements/1.1/" xmlns:cc="http://creativecommons.org/ns#" xmlns:rdf="http://www.w3.org/1999/02/22-rdf-syntax-ns#">
   <cc:Work>
    <dc:type rdf:resource="http://purl.org/dc/dcmitype/StillImage"/>
    <dc:date>2025-03-23T21:58:13.441445</dc:date>
    <dc:format>image/svg+xml</dc:format>
    <dc:creator>
     <cc:Agent>
      <dc:title>Matplotlib v3.9.2, https://matplotlib.org/</dc:title>
     </cc:Agent>
    </dc:creator>
   </cc:Work>
  </rdf:RDF>
 </metadata>
 <defs>
  <style type="text/css">*{stroke-linejoin: round; stroke-linecap: butt}</style>
 </defs>
 <g id="figure_1">
  <g id="patch_1">
   <path d="M 0 576 
L 1152 576 
L 1152 0 
L 0 0 
z
" style="fill: #ffffff"/>
  </g>
  <g id="axes_1">
   <g id="patch_2">
    <path d="M 80.21 490.552 
L 1141.2 490.552 
L 1141.2 10.8 
L 80.21 10.8 
z
" style="fill: #ffffff"/>
   </g>
   <g id="PolyCollection_1">
    <defs>
     <path id="m7ee83c6cb9" d="M 128.436818 -213.909227 
L 128.436818 -156.730258 
L 148.958868 -135.225424 
L 169.480919 -123.188616 
L 190.002969 -146.843546 
L 210.525019 -143.849673 
L 231.04707 -128.961864 
L 251.56912 -126.872257 
L 272.09117 -135.961093 
L 292.613221 -115.405308 
L 313.135271 -116.347339 
L 333.657321 -116.326458 
L 354.179371 -160.158268 
L 374.701422 -166.574397 
L 395.223472 -129.009876 
L 415.745522 -135.686056 
L 436.267573 -124.476061 
L 456.789623 -133.058929 
L 477.311673 -119.278387 
L 497.833723 -129.99736 
L 518.355774 -143.376171 
L 538.877824 -137.875904 
L 559.399874 -130.362689 
L 579.921925 -127.179698 
L 600.443975 -141.373444 
L 620.966025 -126.216814 
L 641.488075 -137.080799 
L 662.010126 -137.815183 
L 682.532176 -116.937448 
L 703.054226 -140.84578 
L 723.576277 -148.401298 
L 744.098327 -137.211114 
L 764.620377 -135.368722 
L 785.142427 -138.731127 
L 805.664478 -122.228615 
L 826.186528 -123.308785 
L 846.708578 -145.333892 
L 867.230629 -121.10415 
L 887.752679 -127.096185 
L 908.274729 -120.565412 
L 928.796779 -136.986803 
L 949.31883 -107.254909 
L 969.84088 -162.877534 
L 990.36293 -125.26754 
L 1010.884981 -129.214857 
L 1031.407031 -138.921405 
L 1051.929081 -120.291274 
L 1072.451132 -128.004793 
L 1092.973182 -143.214042 
L 1092.973182 -179.401239 
L 1092.973182 -179.401239 
L 1072.451132 -174.569065 
L 1051.929081 -171.193599 
L 1031.407031 -184.185407 
L 1010.884981 -221.330654 
L 990.36293 -157.99878 
L 969.84088 -212.028183 
L 949.31883 -149.598522 
L 928.796779 -192.739295 
L 908.274729 -167.831554 
L 887.752679 -196.101203 
L 867.230629 -165.485638 
L 846.708578 -176.795296 
L 826.186528 -157.712703 
L 805.664478 -178.935267 
L 785.142427 -199.824136 
L 764.620377 -217.214649 
L 744.098327 -198.274024 
L 723.576277 -185.05647 
L 703.054226 -248.207786 
L 682.532176 -197.196183 
L 662.010126 -190.100134 
L 641.488075 -246.371903 
L 620.966025 -160.677977 
L 600.443975 -163.123727 
L 579.921925 -205.152302 
L 559.399874 -214.698951 
L 538.877824 -251.572635 
L 518.355774 -168.421144 
L 497.833723 -274.804865 
L 477.311673 -154.289946 
L 456.789623 -154.103941 
L 436.267573 -189.084619 
L 415.745522 -157.451107 
L 395.223472 -157.878913 
L 374.701422 -208.458019 
L 354.179371 -183.51143 
L 333.657321 -163.100017 
L 313.135271 -163.528084 
L 292.613221 -191.086196 
L 272.09117 -209.985288 
L 251.56912 -149.496515 
L 231.04707 -153.384716 
L 210.525019 -167.443295 
L 190.002969 -170.5307 
L 169.480919 -155.351702 
L 148.958868 -178.334947 
L 128.436818 -213.909227 
z
" style="stroke: #1f77b4; stroke-opacity: 0.2"/>
    </defs>
    <g clip-path="url(#p28d9979e87)">
     <use xlink:href="#m7ee83c6cb9" x="0" y="576" style="fill: #1f77b4; fill-opacity: 0.2; stroke: #1f77b4; stroke-opacity: 0.2"/>
    </g>
   </g>
   <g id="PolyCollection_2">
    <defs>
     <path id="m8374a746d6" d="M 128.436818 -320.660196 
L 128.436818 -273.384753 
L 148.958868 -257.782621 
L 169.480919 -228.38235 
L 190.002969 -232.119437 
L 210.525019 -233.376202 
L 231.04707 -228.410101 
L 251.56912 -221.16665 
L 272.09117 -234.380479 
L 292.613221 -241.520032 
L 313.135271 -246.09861 
L 333.657321 -237.600274 
L 354.179371 -265.0057 
L 374.701422 -258.386588 
L 395.223472 -250.157338 
L 415.745522 -251.00878 
L 436.267573 -225.417264 
L 456.789623 -244.405527 
L 477.311673 -235.008771 
L 497.833723 -245.304809 
L 518.355774 -274.49505 
L 538.877824 -262.187092 
L 559.399874 -274.443019 
L 579.921925 -236.181766 
L 600.443975 -232.15361 
L 620.966025 -222.644889 
L 641.488075 -259.710547 
L 662.010126 -236.792224 
L 682.532176 -238.212562 
L 703.054226 -253.692394 
L 723.576277 -257.333278 
L 744.098327 -238.932239 
L 764.620377 -245.349893 
L 785.142427 -253.973365 
L 805.664478 -238.812581 
L 826.186528 -237.186433 
L 846.708578 -256.761872 
L 867.230629 -234.727009 
L 887.752679 -250.575509 
L 908.274729 -219.643487 
L 928.796779 -243.380352 
L 949.31883 -239.087628 
L 969.84088 -261.488216 
L 990.36293 -241.390058 
L 1010.884981 -216.194172 
L 1031.407031 -243.972966 
L 1051.929081 -223.81813 
L 1072.451132 -244.229702 
L 1092.973182 -229.536577 
L 1092.973182 -259.515534 
L 1092.973182 -259.515534 
L 1072.451132 -292.070231 
L 1051.929081 -281.635248 
L 1031.407031 -279.018553 
L 1010.884981 -362.422887 
L 990.36293 -269.587195 
L 969.84088 -366.191144 
L 949.31883 -292.938312 
L 928.796779 -292.910484 
L 908.274729 -268.373533 
L 887.752679 -304.104786 
L 867.230629 -273.75118 
L 846.708578 -298.135806 
L 826.186528 -272.426738 
L 805.664478 -347.762674 
L 785.142427 -305.253423 
L 764.620377 -338.869882 
L 744.098327 -313.287268 
L 723.576277 -335.873992 
L 703.054226 -366.713088 
L 682.532176 -299.111131 
L 662.010126 -289.591292 
L 641.488075 -326.177191 
L 620.966025 -269.630824 
L 600.443975 -269.449365 
L 579.921925 -325.8452 
L 559.399874 -345.864075 
L 538.877824 -371.26995 
L 518.355774 -319.946292 
L 497.833723 -393.411334 
L 477.311673 -272.163104 
L 456.789623 -293.663246 
L 436.267573 -291.677281 
L 415.745522 -280.929793 
L 395.223472 -279.166345 
L 374.701422 -304.950008 
L 354.179371 -284.382375 
L 333.657321 -269.160095 
L 313.135271 -290.069618 
L 292.613221 -293.125954 
L 272.09117 -327.043355 
L 251.56912 -244.644942 
L 231.04707 -274.061859 
L 210.525019 -277.278803 
L 190.002969 -290.227306 
L 169.480919 -270.672321 
L 148.958868 -275.72243 
L 128.436818 -320.660196 
z
" style="stroke: #ff7f0e; stroke-opacity: 0.2"/>
    </defs>
    <g clip-path="url(#p28d9979e87)">
     <use xlink:href="#m8374a746d6" x="0" y="576" style="fill: #ff7f0e; fill-opacity: 0.2; stroke: #ff7f0e; stroke-opacity: 0.2"/>
    </g>
   </g>
   <g id="PolyCollection_3">
    <defs>
     <path id="mb0df59990c" d="M 128.436818 -472.288979 
L 128.436818 -421.769615 
L 148.958868 -360.097532 
L 169.480919 -331.875654 
L 190.002969 -326.310086 
L 210.525019 -380.448293 
L 231.04707 -304.201904 
L 251.56912 -360.598786 
L 272.09117 -351.877786 
L 292.613221 -347.487818 
L 313.135271 -328.111015 
L 333.657321 -320.827312 
L 354.179371 -366.935678 
L 374.701422 -380.305572 
L 395.223472 -354.932546 
L 415.745522 -337.799897 
L 436.267573 -315.604039 
L 456.789623 -328.065983 
L 477.311673 -310.610295 
L 497.833723 -361.127871 
L 518.355774 -355.558365 
L 538.877824 -381.10102 
L 559.399874 -358.012109 
L 579.921925 -379.43257 
L 600.443975 -370.173501 
L 620.966025 -345.15726 
L 641.488075 -376.313581 
L 662.010126 -375.276338 
L 682.532176 -335.340867 
L 703.054226 -375.926138 
L 723.576277 -342.391978 
L 744.098327 -352.270581 
L 764.620377 -341.762522 
L 785.142427 -319.25869 
L 805.664478 -315.424768 
L 826.186528 -318.090835 
L 846.708578 -351.20587 
L 867.230629 -309.387976 
L 887.752679 -327.27022 
L 908.274729 -276.323657 
L 928.796779 -386.921221 
L 949.31883 -324.891354 
L 969.84088 -362.467341 
L 990.36293 -339.257613 
L 1010.884981 -333.351548 
L 1031.407031 -354.293557 
L 1051.929081 -383.628663 
L 1072.451132 -363.981939 
L 1092.973182 -361.697734 
L 1092.973182 -412.055829 
L 1092.973182 -412.055829 
L 1072.451132 -434.818429 
L 1051.929081 -463.610963 
L 1031.407031 -462.41919 
L 1010.884981 -543.393091 
L 990.36293 -416.766652 
L 969.84088 -492.271626 
L 949.31883 -391.4269 
L 928.796779 -482.024149 
L 908.274729 -386.212288 
L 887.752679 -367.37692 
L 867.230629 -406.595864 
L 846.708578 -438.697175 
L 826.186528 -388.752984 
L 805.664478 -478.65478 
L 785.142427 -408.891934 
L 764.620377 -471.389255 
L 744.098327 -430.508892 
L 723.576277 -430.724639 
L 703.054226 -532.013413 
L 682.532176 -486.185544 
L 662.010126 -431.20525 
L 641.488075 -464.322544 
L 620.966025 -412.558504 
L 600.443975 -414.442875 
L 579.921925 -513.428654 
L 559.399874 -494.958997 
L 538.877824 -492.496154 
L 518.355774 -463.934729 
L 497.833723 -444.144763 
L 477.311673 -397.623944 
L 456.789623 -411.515003 
L 436.267573 -437.645223 
L 415.745522 -373.441184 
L 395.223472 -435.483532 
L 374.701422 -434.739072 
L 354.179371 -433.25 
L 333.657321 -424.64416 
L 313.135271 -450.023074 
L 292.613221 -429.096676 
L 272.09117 -411.537358 
L 251.56912 -466.156875 
L 231.04707 -361.509348 
L 210.525019 -463.539004 
L 190.002969 -442.15291 
L 169.480919 -392.827314 
L 148.958868 -417.65439 
L 128.436818 -472.288979 
z
" style="stroke: #2ca02c; stroke-opacity: 0.2"/>
    </defs>
    <g clip-path="url(#p28d9979e87)">
     <use xlink:href="#mb0df59990c" x="0" y="576" style="fill: #2ca02c; fill-opacity: 0.2; stroke: #2ca02c; stroke-opacity: 0.2"/>
    </g>
   </g>
   <g id="matplotlib.axis_1">
    <g id="xtick_1">
     <g id="line2d_1">
      <defs>
       <path id="m65e1ae911f" d="M 0 0 
L 0 3.5 
" style="stroke: #000000; stroke-width: 0.8"/>
      </defs>
      <g>
       <use xlink:href="#m65e1ae911f" x="118.175793" y="490.552" style="stroke: #000000; stroke-width: 0.8"/>
      </g>
     </g>
     <g id="text_1">
      <!-- 0 -->
      <g transform="translate(111.813293 512.748875) scale(0.2 -0.2)">
       <defs>
        <path id="DejaVuSans-30" d="M 2034 4250 
Q 1547 4250 1301 3770 
Q 1056 3291 1056 2328 
Q 1056 1369 1301 889 
Q 1547 409 2034 409 
Q 2525 409 2770 889 
Q 3016 1369 3016 2328 
Q 3016 3291 2770 3770 
Q 2525 4250 2034 4250 
z
M 2034 4750 
Q 2819 4750 3233 4129 
Q 3647 3509 3647 2328 
Q 3647 1150 3233 529 
Q 2819 -91 2034 -91 
Q 1250 -91 836 529 
Q 422 1150 422 2328 
Q 422 3509 836 4129 
Q 1250 4750 2034 4750 
z
" transform="scale(0.015625)"/>
       </defs>
       <use xlink:href="#DejaVuSans-30"/>
      </g>
     </g>
    </g>
    <g id="xtick_2">
     <g id="line2d_2">
      <g>
       <use xlink:href="#m65e1ae911f" x="323.396296" y="490.552" style="stroke: #000000; stroke-width: 0.8"/>
      </g>
     </g>
     <g id="text_2">
      <!-- 20 -->
      <g transform="translate(310.671296 512.748875) scale(0.2 -0.2)">
       <defs>
        <path id="DejaVuSans-32" d="M 1228 531 
L 3431 531 
L 3431 0 
L 469 0 
L 469 531 
Q 828 903 1448 1529 
Q 2069 2156 2228 2338 
Q 2531 2678 2651 2914 
Q 2772 3150 2772 3378 
Q 2772 3750 2511 3984 
Q 2250 4219 1831 4219 
Q 1534 4219 1204 4116 
Q 875 4013 500 3803 
L 500 4441 
Q 881 4594 1212 4672 
Q 1544 4750 1819 4750 
Q 2544 4750 2975 4387 
Q 3406 4025 3406 3419 
Q 3406 3131 3298 2873 
Q 3191 2616 2906 2266 
Q 2828 2175 2409 1742 
Q 1991 1309 1228 531 
z
" transform="scale(0.015625)"/>
       </defs>
       <use xlink:href="#DejaVuSans-32"/>
       <use xlink:href="#DejaVuSans-30" x="63.623047"/>
      </g>
     </g>
    </g>
    <g id="xtick_3">
     <g id="line2d_3">
      <g>
       <use xlink:href="#m65e1ae911f" x="528.616799" y="490.552" style="stroke: #000000; stroke-width: 0.8"/>
      </g>
     </g>
     <g id="text_3">
      <!-- 40 -->
      <g transform="translate(515.891799 512.748875) scale(0.2 -0.2)">
       <defs>
        <path id="DejaVuSans-34" d="M 2419 4116 
L 825 1625 
L 2419 1625 
L 2419 4116 
z
M 2253 4666 
L 3047 4666 
L 3047 1625 
L 3713 1625 
L 3713 1100 
L 3047 1100 
L 3047 0 
L 2419 0 
L 2419 1100 
L 313 1100 
L 313 1709 
L 2253 4666 
z
" transform="scale(0.015625)"/>
       </defs>
       <use xlink:href="#DejaVuSans-34"/>
       <use xlink:href="#DejaVuSans-30" x="63.623047"/>
      </g>
     </g>
    </g>
    <g id="xtick_4">
     <g id="line2d_4">
      <g>
       <use xlink:href="#m65e1ae911f" x="733.837302" y="490.552" style="stroke: #000000; stroke-width: 0.8"/>
      </g>
     </g>
     <g id="text_4">
      <!-- 60 -->
      <g transform="translate(721.112302 512.748875) scale(0.2 -0.2)">
       <defs>
        <path id="DejaVuSans-36" d="M 2113 2584 
Q 1688 2584 1439 2293 
Q 1191 2003 1191 1497 
Q 1191 994 1439 701 
Q 1688 409 2113 409 
Q 2538 409 2786 701 
Q 3034 994 3034 1497 
Q 3034 2003 2786 2293 
Q 2538 2584 2113 2584 
z
M 3366 4563 
L 3366 3988 
Q 3128 4100 2886 4159 
Q 2644 4219 2406 4219 
Q 1781 4219 1451 3797 
Q 1122 3375 1075 2522 
Q 1259 2794 1537 2939 
Q 1816 3084 2150 3084 
Q 2853 3084 3261 2657 
Q 3669 2231 3669 1497 
Q 3669 778 3244 343 
Q 2819 -91 2113 -91 
Q 1303 -91 875 529 
Q 447 1150 447 2328 
Q 447 3434 972 4092 
Q 1497 4750 2381 4750 
Q 2619 4750 2861 4703 
Q 3103 4656 3366 4563 
z
" transform="scale(0.015625)"/>
       </defs>
       <use xlink:href="#DejaVuSans-36"/>
       <use xlink:href="#DejaVuSans-30" x="63.623047"/>
      </g>
     </g>
    </g>
    <g id="xtick_5">
     <g id="line2d_5">
      <g>
       <use xlink:href="#m65e1ae911f" x="939.057805" y="490.552" style="stroke: #000000; stroke-width: 0.8"/>
      </g>
     </g>
     <g id="text_5">
      <!-- 80 -->
      <g transform="translate(926.332805 512.748875) scale(0.2 -0.2)">
       <defs>
        <path id="DejaVuSans-38" d="M 2034 2216 
Q 1584 2216 1326 1975 
Q 1069 1734 1069 1313 
Q 1069 891 1326 650 
Q 1584 409 2034 409 
Q 2484 409 2743 651 
Q 3003 894 3003 1313 
Q 3003 1734 2745 1975 
Q 2488 2216 2034 2216 
z
M 1403 2484 
Q 997 2584 770 2862 
Q 544 3141 544 3541 
Q 544 4100 942 4425 
Q 1341 4750 2034 4750 
Q 2731 4750 3128 4425 
Q 3525 4100 3525 3541 
Q 3525 3141 3298 2862 
Q 3072 2584 2669 2484 
Q 3125 2378 3379 2068 
Q 3634 1759 3634 1313 
Q 3634 634 3220 271 
Q 2806 -91 2034 -91 
Q 1263 -91 848 271 
Q 434 634 434 1313 
Q 434 1759 690 2068 
Q 947 2378 1403 2484 
z
M 1172 3481 
Q 1172 3119 1398 2916 
Q 1625 2713 2034 2713 
Q 2441 2713 2670 2916 
Q 2900 3119 2900 3481 
Q 2900 3844 2670 4047 
Q 2441 4250 2034 4250 
Q 1625 4250 1398 4047 
Q 1172 3844 1172 3481 
z
" transform="scale(0.015625)"/>
       </defs>
       <use xlink:href="#DejaVuSans-38"/>
       <use xlink:href="#DejaVuSans-30" x="63.623047"/>
      </g>
     </g>
    </g>
    <g id="text_6">
     <!-- Percentile Threshold -->
     <g transform="translate(508.925313 536.105125) scale(0.2 -0.2)">
      <defs>
       <path id="DejaVuSans-50" d="M 1259 4147 
L 1259 2394 
L 2053 2394 
Q 2494 2394 2734 2622 
Q 2975 2850 2975 3272 
Q 2975 3691 2734 3919 
Q 2494 4147 2053 4147 
L 1259 4147 
z
M 628 4666 
L 2053 4666 
Q 2838 4666 3239 4311 
Q 3641 3956 3641 3272 
Q 3641 2581 3239 2228 
Q 2838 1875 2053 1875 
L 1259 1875 
L 1259 0 
L 628 0 
L 628 4666 
z
" transform="scale(0.015625)"/>
       <path id="DejaVuSans-65" d="M 3597 1894 
L 3597 1613 
L 953 1613 
Q 991 1019 1311 708 
Q 1631 397 2203 397 
Q 2534 397 2845 478 
Q 3156 559 3463 722 
L 3463 178 
Q 3153 47 2828 -22 
Q 2503 -91 2169 -91 
Q 1331 -91 842 396 
Q 353 884 353 1716 
Q 353 2575 817 3079 
Q 1281 3584 2069 3584 
Q 2775 3584 3186 3129 
Q 3597 2675 3597 1894 
z
M 3022 2063 
Q 3016 2534 2758 2815 
Q 2500 3097 2075 3097 
Q 1594 3097 1305 2825 
Q 1016 2553 972 2059 
L 3022 2063 
z
" transform="scale(0.015625)"/>
       <path id="DejaVuSans-72" d="M 2631 2963 
Q 2534 3019 2420 3045 
Q 2306 3072 2169 3072 
Q 1681 3072 1420 2755 
Q 1159 2438 1159 1844 
L 1159 0 
L 581 0 
L 581 3500 
L 1159 3500 
L 1159 2956 
Q 1341 3275 1631 3429 
Q 1922 3584 2338 3584 
Q 2397 3584 2469 3576 
Q 2541 3569 2628 3553 
L 2631 2963 
z
" transform="scale(0.015625)"/>
       <path id="DejaVuSans-63" d="M 3122 3366 
L 3122 2828 
Q 2878 2963 2633 3030 
Q 2388 3097 2138 3097 
Q 1578 3097 1268 2742 
Q 959 2388 959 1747 
Q 959 1106 1268 751 
Q 1578 397 2138 397 
Q 2388 397 2633 464 
Q 2878 531 3122 666 
L 3122 134 
Q 2881 22 2623 -34 
Q 2366 -91 2075 -91 
Q 1284 -91 818 406 
Q 353 903 353 1747 
Q 353 2603 823 3093 
Q 1294 3584 2113 3584 
Q 2378 3584 2631 3529 
Q 2884 3475 3122 3366 
z
" transform="scale(0.015625)"/>
       <path id="DejaVuSans-6e" d="M 3513 2113 
L 3513 0 
L 2938 0 
L 2938 2094 
Q 2938 2591 2744 2837 
Q 2550 3084 2163 3084 
Q 1697 3084 1428 2787 
Q 1159 2491 1159 1978 
L 1159 0 
L 581 0 
L 581 3500 
L 1159 3500 
L 1159 2956 
Q 1366 3272 1645 3428 
Q 1925 3584 2291 3584 
Q 2894 3584 3203 3211 
Q 3513 2838 3513 2113 
z
" transform="scale(0.015625)"/>
       <path id="DejaVuSans-74" d="M 1172 4494 
L 1172 3500 
L 2356 3500 
L 2356 3053 
L 1172 3053 
L 1172 1153 
Q 1172 725 1289 603 
Q 1406 481 1766 481 
L 2356 481 
L 2356 0 
L 1766 0 
Q 1100 0 847 248 
Q 594 497 594 1153 
L 594 3053 
L 172 3053 
L 172 3500 
L 594 3500 
L 594 4494 
L 1172 4494 
z
" transform="scale(0.015625)"/>
       <path id="DejaVuSans-69" d="M 603 3500 
L 1178 3500 
L 1178 0 
L 603 0 
L 603 3500 
z
M 603 4863 
L 1178 4863 
L 1178 4134 
L 603 4134 
L 603 4863 
z
" transform="scale(0.015625)"/>
       <path id="DejaVuSans-6c" d="M 603 4863 
L 1178 4863 
L 1178 0 
L 603 0 
L 603 4863 
z
" transform="scale(0.015625)"/>
       <path id="DejaVuSans-20" transform="scale(0.015625)"/>
       <path id="DejaVuSans-54" d="M -19 4666 
L 3928 4666 
L 3928 4134 
L 2272 4134 
L 2272 0 
L 1638 0 
L 1638 4134 
L -19 4134 
L -19 4666 
z
" transform="scale(0.015625)"/>
       <path id="DejaVuSans-68" d="M 3513 2113 
L 3513 0 
L 2938 0 
L 2938 2094 
Q 2938 2591 2744 2837 
Q 2550 3084 2163 3084 
Q 1697 3084 1428 2787 
Q 1159 2491 1159 1978 
L 1159 0 
L 581 0 
L 581 4863 
L 1159 4863 
L 1159 2956 
Q 1366 3272 1645 3428 
Q 1925 3584 2291 3584 
Q 2894 3584 3203 3211 
Q 3513 2838 3513 2113 
z
" transform="scale(0.015625)"/>
       <path id="DejaVuSans-73" d="M 2834 3397 
L 2834 2853 
Q 2591 2978 2328 3040 
Q 2066 3103 1784 3103 
Q 1356 3103 1142 2972 
Q 928 2841 928 2578 
Q 928 2378 1081 2264 
Q 1234 2150 1697 2047 
L 1894 2003 
Q 2506 1872 2764 1633 
Q 3022 1394 3022 966 
Q 3022 478 2636 193 
Q 2250 -91 1575 -91 
Q 1294 -91 989 -36 
Q 684 19 347 128 
L 347 722 
Q 666 556 975 473 
Q 1284 391 1588 391 
Q 1994 391 2212 530 
Q 2431 669 2431 922 
Q 2431 1156 2273 1281 
Q 2116 1406 1581 1522 
L 1381 1569 
Q 847 1681 609 1914 
Q 372 2147 372 2553 
Q 372 3047 722 3315 
Q 1072 3584 1716 3584 
Q 2034 3584 2315 3537 
Q 2597 3491 2834 3397 
z
" transform="scale(0.015625)"/>
       <path id="DejaVuSans-6f" d="M 1959 3097 
Q 1497 3097 1228 2736 
Q 959 2375 959 1747 
Q 959 1119 1226 758 
Q 1494 397 1959 397 
Q 2419 397 2687 759 
Q 2956 1122 2956 1747 
Q 2956 2369 2687 2733 
Q 2419 3097 1959 3097 
z
M 1959 3584 
Q 2709 3584 3137 3096 
Q 3566 2609 3566 1747 
Q 3566 888 3137 398 
Q 2709 -91 1959 -91 
Q 1206 -91 779 398 
Q 353 888 353 1747 
Q 353 2609 779 3096 
Q 1206 3584 1959 3584 
z
" transform="scale(0.015625)"/>
       <path id="DejaVuSans-64" d="M 2906 2969 
L 2906 4863 
L 3481 4863 
L 3481 0 
L 2906 0 
L 2906 525 
Q 2725 213 2448 61 
Q 2172 -91 1784 -91 
Q 1150 -91 751 415 
Q 353 922 353 1747 
Q 353 2572 751 3078 
Q 1150 3584 1784 3584 
Q 2172 3584 2448 3432 
Q 2725 3281 2906 2969 
z
M 947 1747 
Q 947 1113 1208 752 
Q 1469 391 1925 391 
Q 2381 391 2643 752 
Q 2906 1113 2906 1747 
Q 2906 2381 2643 2742 
Q 2381 3103 1925 3103 
Q 1469 3103 1208 2742 
Q 947 2381 947 1747 
z
" transform="scale(0.015625)"/>
      </defs>
      <use xlink:href="#DejaVuSans-50"/>
      <use xlink:href="#DejaVuSans-65" x="56.677734"/>
      <use xlink:href="#DejaVuSans-72" x="118.201172"/>
      <use xlink:href="#DejaVuSans-63" x="157.064453"/>
      <use xlink:href="#DejaVuSans-65" x="212.044922"/>
      <use xlink:href="#DejaVuSans-6e" x="273.568359"/>
      <use xlink:href="#DejaVuSans-74" x="336.947266"/>
      <use xlink:href="#DejaVuSans-69" x="376.15625"/>
      <use xlink:href="#DejaVuSans-6c" x="403.939453"/>
      <use xlink:href="#DejaVuSans-65" x="431.722656"/>
      <use xlink:href="#DejaVuSans-20" x="493.246094"/>
      <use xlink:href="#DejaVuSans-54" x="525.033203"/>
      <use xlink:href="#DejaVuSans-68" x="586.117188"/>
      <use xlink:href="#DejaVuSans-72" x="649.496094"/>
      <use xlink:href="#DejaVuSans-65" x="688.359375"/>
      <use xlink:href="#DejaVuSans-73" x="749.882812"/>
      <use xlink:href="#DejaVuSans-68" x="801.982422"/>
      <use xlink:href="#DejaVuSans-6f" x="865.361328"/>
      <use xlink:href="#DejaVuSans-6c" x="926.542969"/>
      <use xlink:href="#DejaVuSans-64" x="954.326172"/>
     </g>
     <!-- (Using "random" Threshold Handling) -->
     <g transform="translate(423.537813 558.50075) scale(0.2 -0.2)">
      <defs>
       <path id="DejaVuSans-28" d="M 1984 4856 
Q 1566 4138 1362 3434 
Q 1159 2731 1159 2009 
Q 1159 1288 1364 580 
Q 1569 -128 1984 -844 
L 1484 -844 
Q 1016 -109 783 600 
Q 550 1309 550 2009 
Q 550 2706 781 3412 
Q 1013 4119 1484 4856 
L 1984 4856 
z
" transform="scale(0.015625)"/>
       <path id="DejaVuSans-55" d="M 556 4666 
L 1191 4666 
L 1191 1831 
Q 1191 1081 1462 751 
Q 1734 422 2344 422 
Q 2950 422 3222 751 
Q 3494 1081 3494 1831 
L 3494 4666 
L 4128 4666 
L 4128 1753 
Q 4128 841 3676 375 
Q 3225 -91 2344 -91 
Q 1459 -91 1007 375 
Q 556 841 556 1753 
L 556 4666 
z
" transform="scale(0.015625)"/>
       <path id="DejaVuSans-67" d="M 2906 1791 
Q 2906 2416 2648 2759 
Q 2391 3103 1925 3103 
Q 1463 3103 1205 2759 
Q 947 2416 947 1791 
Q 947 1169 1205 825 
Q 1463 481 1925 481 
Q 2391 481 2648 825 
Q 2906 1169 2906 1791 
z
M 3481 434 
Q 3481 -459 3084 -895 
Q 2688 -1331 1869 -1331 
Q 1566 -1331 1297 -1286 
Q 1028 -1241 775 -1147 
L 775 -588 
Q 1028 -725 1275 -790 
Q 1522 -856 1778 -856 
Q 2344 -856 2625 -561 
Q 2906 -266 2906 331 
L 2906 616 
Q 2728 306 2450 153 
Q 2172 0 1784 0 
Q 1141 0 747 490 
Q 353 981 353 1791 
Q 353 2603 747 3093 
Q 1141 3584 1784 3584 
Q 2172 3584 2450 3431 
Q 2728 3278 2906 2969 
L 2906 3500 
L 3481 3500 
L 3481 434 
z
" transform="scale(0.015625)"/>
       <path id="DejaVuSans-22" d="M 1147 4666 
L 1147 2931 
L 616 2931 
L 616 4666 
L 1147 4666 
z
M 2328 4666 
L 2328 2931 
L 1797 2931 
L 1797 4666 
L 2328 4666 
z
" transform="scale(0.015625)"/>
       <path id="DejaVuSans-61" d="M 2194 1759 
Q 1497 1759 1228 1600 
Q 959 1441 959 1056 
Q 959 750 1161 570 
Q 1363 391 1709 391 
Q 2188 391 2477 730 
Q 2766 1069 2766 1631 
L 2766 1759 
L 2194 1759 
z
M 3341 1997 
L 3341 0 
L 2766 0 
L 2766 531 
Q 2569 213 2275 61 
Q 1981 -91 1556 -91 
Q 1019 -91 701 211 
Q 384 513 384 1019 
Q 384 1609 779 1909 
Q 1175 2209 1959 2209 
L 2766 2209 
L 2766 2266 
Q 2766 2663 2505 2880 
Q 2244 3097 1772 3097 
Q 1472 3097 1187 3025 
Q 903 2953 641 2809 
L 641 3341 
Q 956 3463 1253 3523 
Q 1550 3584 1831 3584 
Q 2591 3584 2966 3190 
Q 3341 2797 3341 1997 
z
" transform="scale(0.015625)"/>
       <path id="DejaVuSans-6d" d="M 3328 2828 
Q 3544 3216 3844 3400 
Q 4144 3584 4550 3584 
Q 5097 3584 5394 3201 
Q 5691 2819 5691 2113 
L 5691 0 
L 5113 0 
L 5113 2094 
Q 5113 2597 4934 2840 
Q 4756 3084 4391 3084 
Q 3944 3084 3684 2787 
Q 3425 2491 3425 1978 
L 3425 0 
L 2847 0 
L 2847 2094 
Q 2847 2600 2669 2842 
Q 2491 3084 2119 3084 
Q 1678 3084 1418 2786 
Q 1159 2488 1159 1978 
L 1159 0 
L 581 0 
L 581 3500 
L 1159 3500 
L 1159 2956 
Q 1356 3278 1631 3431 
Q 1906 3584 2284 3584 
Q 2666 3584 2933 3390 
Q 3200 3197 3328 2828 
z
" transform="scale(0.015625)"/>
       <path id="DejaVuSans-48" d="M 628 4666 
L 1259 4666 
L 1259 2753 
L 3553 2753 
L 3553 4666 
L 4184 4666 
L 4184 0 
L 3553 0 
L 3553 2222 
L 1259 2222 
L 1259 0 
L 628 0 
L 628 4666 
z
" transform="scale(0.015625)"/>
       <path id="DejaVuSans-29" d="M 513 4856 
L 1013 4856 
Q 1481 4119 1714 3412 
Q 1947 2706 1947 2009 
Q 1947 1309 1714 600 
Q 1481 -109 1013 -844 
L 513 -844 
Q 928 -128 1133 580 
Q 1338 1288 1338 2009 
Q 1338 2731 1133 3434 
Q 928 4138 513 4856 
z
" transform="scale(0.015625)"/>
      </defs>
      <use xlink:href="#DejaVuSans-28"/>
      <use xlink:href="#DejaVuSans-55" x="39.013672"/>
      <use xlink:href="#DejaVuSans-73" x="112.207031"/>
      <use xlink:href="#DejaVuSans-69" x="164.306641"/>
      <use xlink:href="#DejaVuSans-6e" x="192.089844"/>
      <use xlink:href="#DejaVuSans-67" x="255.46875"/>
      <use xlink:href="#DejaVuSans-20" x="318.945312"/>
      <use xlink:href="#DejaVuSans-22" x="350.732422"/>
      <use xlink:href="#DejaVuSans-72" x="396.728516"/>
      <use xlink:href="#DejaVuSans-61" x="437.841797"/>
      <use xlink:href="#DejaVuSans-6e" x="499.121094"/>
      <use xlink:href="#DejaVuSans-64" x="562.5"/>
      <use xlink:href="#DejaVuSans-6f" x="625.976562"/>
      <use xlink:href="#DejaVuSans-6d" x="687.158203"/>
      <use xlink:href="#DejaVuSans-22" x="784.570312"/>
      <use xlink:href="#DejaVuSans-20" x="830.566406"/>
      <use xlink:href="#DejaVuSans-54" x="862.353516"/>
      <use xlink:href="#DejaVuSans-68" x="923.4375"/>
      <use xlink:href="#DejaVuSans-72" x="986.816406"/>
      <use xlink:href="#DejaVuSans-65" x="1025.679688"/>
      <use xlink:href="#DejaVuSans-73" x="1087.203125"/>
      <use xlink:href="#DejaVuSans-68" x="1139.302734"/>
      <use xlink:href="#DejaVuSans-6f" x="1202.681641"/>
      <use xlink:href="#DejaVuSans-6c" x="1263.863281"/>
      <use xlink:href="#DejaVuSans-64" x="1291.646484"/>
      <use xlink:href="#DejaVuSans-20" x="1355.123047"/>
      <use xlink:href="#DejaVuSans-48" x="1386.910156"/>
      <use xlink:href="#DejaVuSans-61" x="1462.105469"/>
      <use xlink:href="#DejaVuSans-6e" x="1523.384766"/>
      <use xlink:href="#DejaVuSans-64" x="1586.763672"/>
      <use xlink:href="#DejaVuSans-6c" x="1650.240234"/>
      <use xlink:href="#DejaVuSans-69" x="1678.023438"/>
      <use xlink:href="#DejaVuSans-6e" x="1705.806641"/>
      <use xlink:href="#DejaVuSans-67" x="1769.185547"/>
      <use xlink:href="#DejaVuSans-29" x="1832.662109"/>
     </g>
    </g>
   </g>
   <g id="matplotlib.axis_2">
    <g id="ytick_1">
     <g id="line2d_6">
      <defs>
       <path id="maecade6fbb" d="M 0 0 
L -3.5 0 
" style="stroke: #000000; stroke-width: 0.8"/>
      </defs>
      <g>
       <use xlink:href="#maecade6fbb" x="80.21" y="453.478678" style="stroke: #000000; stroke-width: 0.8"/>
      </g>
     </g>
     <g id="text_7">
      <!-- 60 -->
      <g transform="translate(47.76 461.077116) scale(0.2 -0.2)">
       <use xlink:href="#DejaVuSans-36"/>
       <use xlink:href="#DejaVuSans-30" x="63.623047"/>
      </g>
     </g>
    </g>
    <g id="ytick_2">
     <g id="line2d_7">
      <g>
       <use xlink:href="#maecade6fbb" x="80.21" y="383.910324" style="stroke: #000000; stroke-width: 0.8"/>
      </g>
     </g>
     <g id="text_8">
      <!-- 70 -->
      <g transform="translate(47.76 391.508762) scale(0.2 -0.2)">
       <defs>
        <path id="DejaVuSans-37" d="M 525 4666 
L 3525 4666 
L 3525 4397 
L 1831 0 
L 1172 0 
L 2766 4134 
L 525 4134 
L 525 4666 
z
" transform="scale(0.015625)"/>
       </defs>
       <use xlink:href="#DejaVuSans-37"/>
       <use xlink:href="#DejaVuSans-30" x="63.623047"/>
      </g>
     </g>
    </g>
    <g id="ytick_3">
     <g id="line2d_8">
      <g>
       <use xlink:href="#maecade6fbb" x="80.21" y="314.341971" style="stroke: #000000; stroke-width: 0.8"/>
      </g>
     </g>
     <g id="text_9">
      <!-- 80 -->
      <g transform="translate(47.76 321.940408) scale(0.2 -0.2)">
       <use xlink:href="#DejaVuSans-38"/>
       <use xlink:href="#DejaVuSans-30" x="63.623047"/>
      </g>
     </g>
    </g>
    <g id="ytick_4">
     <g id="line2d_9">
      <g>
       <use xlink:href="#maecade6fbb" x="80.21" y="244.773617" style="stroke: #000000; stroke-width: 0.8"/>
      </g>
     </g>
     <g id="text_10">
      <!-- 90 -->
      <g transform="translate(47.76 252.372055) scale(0.2 -0.2)">
       <defs>
        <path id="DejaVuSans-39" d="M 703 97 
L 703 672 
Q 941 559 1184 500 
Q 1428 441 1663 441 
Q 2288 441 2617 861 
Q 2947 1281 2994 2138 
Q 2813 1869 2534 1725 
Q 2256 1581 1919 1581 
Q 1219 1581 811 2004 
Q 403 2428 403 3163 
Q 403 3881 828 4315 
Q 1253 4750 1959 4750 
Q 2769 4750 3195 4129 
Q 3622 3509 3622 2328 
Q 3622 1225 3098 567 
Q 2575 -91 1691 -91 
Q 1453 -91 1209 -44 
Q 966 3 703 97 
z
M 1959 2075 
Q 2384 2075 2632 2365 
Q 2881 2656 2881 3163 
Q 2881 3666 2632 3958 
Q 2384 4250 1959 4250 
Q 1534 4250 1286 3958 
Q 1038 3666 1038 3163 
Q 1038 2656 1286 2365 
Q 1534 2075 1959 2075 
z
" transform="scale(0.015625)"/>
       </defs>
       <use xlink:href="#DejaVuSans-39"/>
       <use xlink:href="#DejaVuSans-30" x="63.623047"/>
      </g>
     </g>
    </g>
    <g id="ytick_5">
     <g id="line2d_10">
      <g>
       <use xlink:href="#maecade6fbb" x="80.21" y="175.205263" style="stroke: #000000; stroke-width: 0.8"/>
      </g>
     </g>
     <g id="text_11">
      <!-- 100 -->
      <g transform="translate(35.035 182.803701) scale(0.2 -0.2)">
       <defs>
        <path id="DejaVuSans-31" d="M 794 531 
L 1825 531 
L 1825 4091 
L 703 3866 
L 703 4441 
L 1819 4666 
L 2450 4666 
L 2450 531 
L 3481 531 
L 3481 0 
L 794 0 
L 794 531 
z
" transform="scale(0.015625)"/>
       </defs>
       <use xlink:href="#DejaVuSans-31"/>
       <use xlink:href="#DejaVuSans-30" x="63.623047"/>
       <use xlink:href="#DejaVuSans-30" x="127.246094"/>
      </g>
     </g>
    </g>
    <g id="ytick_6">
     <g id="line2d_11">
      <g>
       <use xlink:href="#maecade6fbb" x="80.21" y="105.63691" style="stroke: #000000; stroke-width: 0.8"/>
      </g>
     </g>
     <g id="text_12">
      <!-- 110 -->
      <g transform="translate(35.035 113.235347) scale(0.2 -0.2)">
       <use xlink:href="#DejaVuSans-31"/>
       <use xlink:href="#DejaVuSans-31" x="63.623047"/>
       <use xlink:href="#DejaVuSans-30" x="127.246094"/>
      </g>
     </g>
    </g>
    <g id="ytick_7">
     <g id="line2d_12">
      <g>
       <use xlink:href="#maecade6fbb" x="80.21" y="36.068556" style="stroke: #000000; stroke-width: 0.8"/>
      </g>
     </g>
     <g id="text_13">
      <!-- 120 -->
      <g transform="translate(35.035 43.666994) scale(0.2 -0.2)">
       <use xlink:href="#DejaVuSans-31"/>
       <use xlink:href="#DejaVuSans-32" x="63.623047"/>
       <use xlink:href="#DejaVuSans-30" x="127.246094"/>
      </g>
     </g>
    </g>
    <g id="text_14">
     <!-- MSE -->
     <g transform="translate(26.875625 271.971313) rotate(-90) scale(0.2 -0.2)">
      <defs>
       <path id="DejaVuSans-4d" d="M 628 4666 
L 1569 4666 
L 2759 1491 
L 3956 4666 
L 4897 4666 
L 4897 0 
L 4281 0 
L 4281 4097 
L 3078 897 
L 2444 897 
L 1241 4097 
L 1241 0 
L 628 0 
L 628 4666 
z
" transform="scale(0.015625)"/>
       <path id="DejaVuSans-53" d="M 3425 4513 
L 3425 3897 
Q 3066 4069 2747 4153 
Q 2428 4238 2131 4238 
Q 1616 4238 1336 4038 
Q 1056 3838 1056 3469 
Q 1056 3159 1242 3001 
Q 1428 2844 1947 2747 
L 2328 2669 
Q 3034 2534 3370 2195 
Q 3706 1856 3706 1288 
Q 3706 609 3251 259 
Q 2797 -91 1919 -91 
Q 1588 -91 1214 -16 
Q 841 59 441 206 
L 441 856 
Q 825 641 1194 531 
Q 1563 422 1919 422 
Q 2459 422 2753 634 
Q 3047 847 3047 1241 
Q 3047 1584 2836 1778 
Q 2625 1972 2144 2069 
L 1759 2144 
Q 1053 2284 737 2584 
Q 422 2884 422 3419 
Q 422 4038 858 4394 
Q 1294 4750 2059 4750 
Q 2388 4750 2728 4690 
Q 3069 4631 3425 4513 
z
" transform="scale(0.015625)"/>
       <path id="DejaVuSans-45" d="M 628 4666 
L 3578 4666 
L 3578 4134 
L 1259 4134 
L 1259 2753 
L 3481 2753 
L 3481 2222 
L 1259 2222 
L 1259 531 
L 3634 531 
L 3634 0 
L 628 0 
L 628 4666 
z
" transform="scale(0.015625)"/>
      </defs>
      <use xlink:href="#DejaVuSans-4d"/>
      <use xlink:href="#DejaVuSans-53" x="86.279297"/>
      <use xlink:href="#DejaVuSans-45" x="149.755859"/>
     </g>
    </g>
   </g>
   <g id="line2d_13">
    <path d="M 128.436818 388.912734 
L 148.958868 418.489885 
L 169.480919 436.269608 
L 190.002969 416.551962 
L 210.525019 419.597955 
L 231.04707 435.289274 
L 251.56912 438.542047 
L 272.09117 408.173145 
L 292.613221 426.034191 
L 313.135271 432.790823 
L 333.657321 437.039538 
L 354.179371 404.121491 
L 374.701422 387.29053 
L 395.223472 433.563464 
L 415.745522 429.408925 
L 436.267573 425.664257 
L 456.789623 433.741877 
L 477.311673 439.215834 
L 497.833723 386.646781 
L 518.355774 419.617853 
L 538.877824 389.776295 
L 559.399874 404.6976 
L 579.921925 414.181227 
L 600.443975 423.999374 
L 620.966025 432.708187 
L 641.488075 392.564455 
L 662.010126 411.918656 
L 682.532176 422.126472 
L 703.054226 384.236608 
L 723.576277 410.008024 
L 744.098327 409.63016 
L 764.620377 400.772899 
L 785.142427 410.203001 
L 805.664478 426.528457 
L 826.186528 433.414208 
L 846.708578 415.222862 
L 867.230629 431.357437 
L 887.752679 414.4634 
L 908.274729 432.834889 
L 928.796779 412.125948 
L 949.31883 445.993715 
L 969.84088 388.592834 
L 990.36293 433.952976 
L 1010.884981 409.663333 
L 1031.407031 414.156279 
L 1051.929081 429.71009 
L 1072.451132 424.378699 
L 1092.973182 413.549675 
" clip-path="url(#p28d9979e87)" style="fill: none; stroke: #1f77b4; stroke-width: 1.5; stroke-linecap: square"/>
   </g>
   <g id="line2d_14">
    <path d="M 128.436818 282.631945 
L 148.958868 309.223931 
L 169.480919 329.09604 
L 190.002969 313.34992 
L 210.525019 320.825479 
L 231.04707 324.758725 
L 251.56912 342.664011 
L 272.09117 305.623489 
L 292.613221 309.708265 
L 313.135271 307.098897 
L 333.657321 323.882814 
L 354.179371 302.280221 
L 374.701422 293.288622 
L 395.223472 313.194107 
L 415.745522 311.304677 
L 436.267573 319.414566 
L 456.789623 306.987527 
L 477.311673 326.411123 
L 497.833723 270.430989 
L 518.355774 279.42935 
L 538.877824 275.003324 
L 559.399874 264.065136 
L 579.921925 295.272395 
L 600.443975 326.186269 
L 620.966025 330.987733 
L 641.488075 280.64904 
L 662.010126 312.858034 
L 682.532176 310.164036 
L 703.054226 271.603273 
L 723.576277 282.402312 
L 744.098327 300.486899 
L 764.620377 282.941847 
L 785.142427 293.21242 
L 805.664478 288.546253 
L 826.186528 324.019575 
L 846.708578 299.78236 
L 867.230629 322.167687 
L 887.752679 296.20166 
L 908.274729 330.933857 
L 928.796779 310.43469 
L 949.31883 307.360672 
L 969.84088 266.831982 
L 990.36293 321.189657 
L 1010.884981 301.076646 
L 1031.407031 315.330463 
L 1051.929081 325.140259 
L 1072.451132 309.127502 
L 1092.973182 331.605614 
" clip-path="url(#p28d9979e87)" style="fill: none; stroke: #ff7f0e; stroke-width: 1.5; stroke-linecap: square"/>
   </g>
   <g id="line2d_15">
    <path d="M 128.436818 127.085322 
L 148.958868 186.181584 
L 169.480919 215.357631 
L 190.002969 197.493866 
L 210.525019 157.710511 
L 231.04707 243.144887 
L 251.56912 165.530556 
L 272.09117 195.221797 
L 292.613221 192.669299 
L 313.135271 184.104725 
L 333.657321 206.697455 
L 354.179371 180.061198 
L 374.701422 165.554171 
L 395.223472 183.808357 
L 415.745522 221.992854 
L 436.267573 205.361801 
L 456.789623 207.515186 
L 477.311673 220.218771 
L 497.833723 173.955411 
L 518.355774 167.207342 
L 538.877824 141.373873 
L 559.399874 155.396465 
L 579.921925 137.13655 
L 600.443975 185.758329 
L 620.966025 199.145761 
L 641.488075 152.402529 
L 662.010126 178.812102 
L 682.532176 170.965183 
L 703.054226 123.165951 
L 723.576277 186.934363 
L 744.098327 183.261008 
L 764.620377 170.127975 
L 785.142427 204.90309 
L 805.664478 186.8216 
L 826.186528 229.064351 
L 846.708578 179.277615 
L 867.230629 217.032331 
L 887.752679 226.500561 
L 908.274729 244.682572 
L 928.796779 137.805394 
L 949.31883 218.132062 
L 969.84088 159.586157 
L 990.36293 198.865322 
L 1010.884981 153.080965 
L 1031.407031 173.88208 
L 1051.929081 157.813453 
L 1072.451132 177.405775 
L 1092.973182 189.736854 
" clip-path="url(#p28d9979e87)" style="fill: none; stroke: #2ca02c; stroke-width: 1.5; stroke-linecap: square"/>
   </g>
   <g id="line2d_16"/>
   <g id="line2d_17"/>
   <g id="line2d_18"/>
   <g id="patch_3">
    <path d="M 80.21 490.552 
L 80.21 10.8 
" style="fill: none; stroke: #000000; stroke-width: 0.8; stroke-linejoin: miter; stroke-linecap: square"/>
   </g>
   <g id="patch_4">
    <path d="M 1141.2 490.552 
L 1141.2 10.8 
" style="fill: none; stroke: #000000; stroke-width: 0.8; stroke-linejoin: miter; stroke-linecap: square"/>
   </g>
   <g id="patch_5">
    <path d="M 80.21 490.552 
L 1141.2 490.552 
" style="fill: none; stroke: #000000; stroke-width: 0.8; stroke-linejoin: miter; stroke-linecap: square"/>
   </g>
   <g id="patch_6">
    <path d="M 80.21 10.8 
L 1141.2 10.8 
" style="fill: none; stroke: #000000; stroke-width: 0.8; stroke-linejoin: miter; stroke-linecap: square"/>
   </g>
   <g id="legend_1">
    <g id="patch_7">
     <path d="M 91.41 482.552 
L 172.395 482.552 
Q 175.595 482.552 175.595 479.352 
L 175.595 410.497 
Q 175.595 407.297 172.395 407.297 
L 91.41 407.297 
Q 88.21 407.297 88.21 410.497 
L 88.21 479.352 
Q 88.21 482.552 91.41 482.552 
z
" style="fill: #ffffff; opacity: 0.8; stroke: #cccccc; stroke-linejoin: miter"/>
    </g>
    <g id="line2d_19">
     <path d="M 94.61 420.2545 
L 110.61 420.2545 
L 126.61 420.2545 
" style="fill: none; stroke: #1f77b4; stroke-width: 1.5; stroke-linecap: square"/>
    </g>
    <g id="text_15">
     <!-- gbr -->
     <g transform="translate(139.41 425.8545) scale(0.16 -0.16)">
      <defs>
       <path id="DejaVuSans-62" d="M 3116 1747 
Q 3116 2381 2855 2742 
Q 2594 3103 2138 3103 
Q 1681 3103 1420 2742 
Q 1159 2381 1159 1747 
Q 1159 1113 1420 752 
Q 1681 391 2138 391 
Q 2594 391 2855 752 
Q 3116 1113 3116 1747 
z
M 1159 2969 
Q 1341 3281 1617 3432 
Q 1894 3584 2278 3584 
Q 2916 3584 3314 3078 
Q 3713 2572 3713 1747 
Q 3713 922 3314 415 
Q 2916 -91 2278 -91 
Q 1894 -91 1617 61 
Q 1341 213 1159 525 
L 1159 0 
L 581 0 
L 581 4863 
L 1159 4863 
L 1159 2969 
z
" transform="scale(0.015625)"/>
      </defs>
      <use xlink:href="#DejaVuSans-67"/>
      <use xlink:href="#DejaVuSans-62" x="63.476562"/>
      <use xlink:href="#DejaVuSans-72" x="126.953125"/>
     </g>
    </g>
    <g id="line2d_20">
     <path d="M 94.61 443.7395 
L 110.61 443.7395 
L 126.61 443.7395 
" style="fill: none; stroke: #ff7f0e; stroke-width: 1.5; stroke-linecap: square"/>
    </g>
    <g id="text_16">
     <!-- rf -->
     <g transform="translate(139.41 449.3395) scale(0.16 -0.16)">
      <defs>
       <path id="DejaVuSans-66" d="M 2375 4863 
L 2375 4384 
L 1825 4384 
Q 1516 4384 1395 4259 
Q 1275 4134 1275 3809 
L 1275 3500 
L 2222 3500 
L 2222 3053 
L 1275 3053 
L 1275 0 
L 697 0 
L 697 3053 
L 147 3053 
L 147 3500 
L 697 3500 
L 697 3744 
Q 697 4328 969 4595 
Q 1241 4863 1831 4863 
L 2375 4863 
z
" transform="scale(0.015625)"/>
      </defs>
      <use xlink:href="#DejaVuSans-72"/>
      <use xlink:href="#DejaVuSans-66" x="41.113281"/>
     </g>
    </g>
    <g id="line2d_21">
     <path d="M 94.61 467.2245 
L 110.61 467.2245 
L 126.61 467.2245 
" style="fill: none; stroke: #2ca02c; stroke-width: 1.5; stroke-linecap: square"/>
    </g>
    <g id="text_17">
     <!-- xgb -->
     <g transform="translate(139.41 472.8245) scale(0.16 -0.16)">
      <defs>
       <path id="DejaVuSans-78" d="M 3513 3500 
L 2247 1797 
L 3578 0 
L 2900 0 
L 1881 1375 
L 863 0 
L 184 0 
L 1544 1831 
L 300 3500 
L 978 3500 
L 1906 2253 
L 2834 3500 
L 3513 3500 
z
" transform="scale(0.015625)"/>
      </defs>
      <use xlink:href="#DejaVuSans-78"/>
      <use xlink:href="#DejaVuSans-67" x="59.179688"/>
      <use xlink:href="#DejaVuSans-62" x="122.65625"/>
     </g>
    </g>
   </g>
  </g>
 </g>
 <defs>
  <clipPath id="p28d9979e87">
   <rect x="80.21" y="10.8" width="1060.99" height="479.752"/>
  </clipPath>
 </defs>
</svg>
